<?xml version="1.0" encoding="UTF-8"?>
<!DOCTYPE svg PUBLIC "-//W3C//DTD SVG 1.1//EN" "http://www.w3.org/Graphics/SVG/1.1/DTD/svg11.dtd">
<svg xmlns="http://www.w3.org/2000/svg" version="1.1" width="512px" height="512px" style="shape-rendering:geometricPrecision; text-rendering:geometricPrecision; image-rendering:optimizeQuality; fill-rule:evenodd; clip-rule:evenodd" xmlns:xlink="http://www.w3.org/1999/xlink">
<g><path style="opacity:0.983" fill="#020202" d="M 74.5,-0.5 C 79.1667,-0.5 83.8333,-0.5 88.5,-0.5C 95.955,1.89414 102.955,5.39414 109.5,10C 113.5,10.6667 117.5,10.6667 121.5,10C 128.509,5.66089 135.842,2.16089 143.5,-0.5C 148.5,-0.5 153.5,-0.5 158.5,-0.5C 165.288,1.56075 171.622,4.72741 177.5,9C 183.167,11 188.833,11 194.5,9C 200.378,4.72741 206.712,1.56075 213.5,-0.5C 218.5,-0.5 223.5,-0.5 228.5,-0.5C 235.288,1.56075 241.622,4.72741 247.5,9C 253.167,11 258.833,11 264.5,9C 270.378,4.72741 276.712,1.56075 283.5,-0.5C 288.5,-0.5 293.5,-0.5 298.5,-0.5C 306.127,2.1447 313.46,5.6447 320.5,10C 329.68,11.7447 337.68,9.41135 344.5,3C 347.98,1.89744 351.313,0.73077 354.5,-0.5C 359.5,-0.5 364.5,-0.5 369.5,-0.5C 376.288,1.56075 382.622,4.72741 388.5,9C 394.167,11 399.833,11 405.5,9C 410.863,5.10204 416.53,1.93537 422.5,-0.5C 428.167,-0.5 433.833,-0.5 439.5,-0.5C 457.821,6.32914 469.321,19.3291 474,38.5C 474.333,79.1667 474.667,119.833 475,160.5C 479.594,174.877 482.927,189.543 485,204.5C 498.163,222.321 498.83,240.654 487,259.5C 478.362,270.075 467.195,276.408 453.5,278.5C 447.22,304.889 436.22,329.055 420.5,351C 417.21,352.735 413.877,352.901 410.5,351.5C 407.857,348.66 407.024,345.327 408,341.5C 439.144,296.665 449.478,247.332 439,193.5C 437.447,185.95 435.281,178.616 432.5,171.5C 419.517,170.167 406.184,169.501 392.5,169.5C 378.996,169.5 365.662,169.833 352.5,170.5C 345.981,180.605 336.648,186.438 324.5,188C 278.167,188.667 231.833,188.667 185.5,188C 174.521,185.362 165.855,179.529 159.5,170.5C 133.098,169.168 106.598,169.168 80,170.5C 59.2513,236.012 69.5846,296.012 111,350.5C 139.036,384.274 174.536,405.94 217.5,415.5C 285.314,427.393 343.647,409.227 392.5,361C 396.021,360.309 399.355,360.809 402.5,362.5C 403.989,366.243 403.822,369.91 402,373.5C 388.552,387.625 373.385,399.458 356.5,409C 385.001,435.178 398.835,467.678 398,506.5C 397.003,508.323 395.836,509.99 394.5,511.5C 302.167,511.5 209.833,511.5 117.5,511.5C 116.878,510.373 116.045,509.373 115,508.5C 113.174,468.998 126.674,435.832 155.5,409C 105.723,378.65 73.5568,335.15 59,278.5C 25.2406,270.994 12.2406,250.327 20,216.5C 22.1609,211.508 24.8276,206.841 28,202.5C 29.7235,188.549 32.7235,174.882 37,161.5C 37.3333,120.833 37.6667,80.1667 38,39.5C 42.3994,18.9395 54.5661,5.60617 74.5,-0.5 Z"/></g>
<g><path style="opacity:1" fill="#f3c755" d="M 108.5,94.5 C 103.167,94.5 97.8333,94.5 92.5,94.5C 92.7868,90.7849 91.1201,88.4515 87.5,87.5C 83.7016,86.5166 79.7016,86.1832 75.5,86.5C 75.3334,71.163 75.5001,55.8297 76,40.5C 77.8121,31.2069 81.9788,23.2069 88.5,16.5C 93.2585,18.7417 97.9251,21.2417 102.5,24C 116.352,28.23 129.018,25.8966 140.5,17C 146.37,14.1824 152.37,13.8491 158.5,16C 166.616,22.2607 175.782,25.7607 186,26.5C 196.068,25.3838 205.234,21.8838 213.5,16C 218.5,14 223.5,14 228.5,16C 234.04,19.2696 239.707,22.2696 245.5,25C 254.4,27.3923 263.067,26.7256 271.5,23C 275.5,20.6667 279.5,18.3333 283.5,16C 289.614,13.9005 295.614,14.2339 301.5,17C 318.972,29.6906 336.306,29.3573 353.5,16C 359.645,13.8147 365.645,14.1481 371.5,17C 378.379,22.5228 386.213,25.6895 395,26.5C 399.92,26.1827 404.754,25.3493 409.5,24C 415.186,20.9664 420.853,17.9664 426.5,15C 433.141,13.594 439.141,14.9273 444.5,19C 451.76,24.9283 456.593,32.4283 459,41.5C 459.5,56.8297 459.667,72.163 459.5,87.5C 423.827,87.8332 388.16,87.4999 352.5,86.5C 345.901,76.3635 336.568,70.5301 324.5,69C 277.833,68.3333 231.167,68.3333 184.5,69C 173.6,71.5844 165.267,77.5844 159.5,87C 143.833,87.3333 128.167,87.6667 112.5,88C 109.778,89.2725 108.444,91.4392 108.5,94.5 Z"/></g>
<g><path style="opacity:1" fill="#fdb159" d="M 88.5,16.5 C 81.9788,23.2069 77.8121,31.2069 76,40.5C 75.5001,55.8297 75.3334,71.163 75.5,86.5C 68.1667,86.5 60.8333,86.5 53.5,86.5C 53.5,71.8333 53.5,57.1667 53.5,42.5C 55.8838,29.2916 63.2171,20.1249 75.5,15C 80.0265,14.1509 84.3598,14.6509 88.5,16.5 Z"/></g>
<g><path style="opacity:1" fill="#9d99a9" d="M 324.5,84.5 C 283.165,84.3333 241.832,84.5 200.5,85C 196.518,89.1257 193.685,93.9591 192,99.5C 191.333,118.5 191.333,137.5 192,156.5C 193.389,162.443 196.222,167.609 200.5,172C 241.832,172.5 283.165,172.667 324.5,172.5C 279.002,173.665 233.335,173.832 187.5,173C 179.889,171.054 174.389,166.554 171,159.5C 169.868,149.069 169.368,138.569 169.5,128C 169.667,118.5 169.833,109 170,99.5C 173.255,91.9107 178.755,86.7441 186.5,84C 232.668,83.1685 278.668,83.3351 324.5,84.5 Z"/></g>
<g><path style="opacity:1" fill="#b1afbb" d="M 324.5,84.5 C 333.069,85.7062 338.902,90.3729 342,98.5C 343.129,108.263 343.629,118.097 343.5,128C 343.333,136.833 343.167,145.667 343,154.5C 340.243,164.092 334.076,170.092 324.5,172.5C 283.165,172.667 241.832,172.5 200.5,172C 196.222,167.609 193.389,162.443 192,156.5C 191.333,137.5 191.333,118.5 192,99.5C 193.685,93.9591 196.518,89.1257 200.5,85C 241.832,84.5 283.165,84.3333 324.5,84.5 Z"/></g>
<g><path style="opacity:1" fill="#9a6e36" d="M 53.5,42.5 C 53.5,57.1667 53.5,71.8333 53.5,86.5C 60.8333,86.5 68.1667,86.5 75.5,86.5C 79.7016,86.1832 83.7016,86.5166 87.5,87.5C 75.8333,87.5 64.1667,87.5 52.5,87.5C 52.1706,72.324 52.5039,57.324 53.5,42.5 Z"/></g>
<g><path style="opacity:1" fill="#33b4e0" d="M 92.5,94.5 C 97.8333,94.5 103.167,94.5 108.5,94.5C 108.475,98.1398 110.142,100.473 113.5,101.5C 126.656,102.496 139.99,102.829 153.5,102.5C 153.5,119.833 153.5,137.167 153.5,154.5C 127.5,154.5 101.5,154.5 75.5,154.5C 75.5,137.167 75.5,119.833 75.5,102.5C 79.7016,102.817 83.7016,102.483 87.5,101.5C 91.0926,100.57 92.7593,98.2368 92.5,94.5 Z"/></g>
<g><path style="opacity:1" fill="#074059" d="M 87.5,101.5 C 83.7016,102.483 79.7016,102.817 75.5,102.5C 68.1667,102.5 60.8333,102.5 53.5,102.5C 53.5,119.833 53.5,137.167 53.5,154.5C 60.8333,154.5 68.1667,154.5 75.5,154.5C 101.5,154.5 127.5,154.5 153.5,154.5C 153.833,154.5 154.167,154.5 154.5,154.5C 120.671,155.498 86.6708,155.832 52.5,155.5C 52.5,137.5 52.5,119.5 52.5,101.5C 64.1667,101.5 75.8333,101.5 87.5,101.5 Z"/></g>
<g><path style="opacity:1" fill="#0080b8" d="M 75.5,102.5 C 75.5,119.833 75.5,137.167 75.5,154.5C 68.1667,154.5 60.8333,154.5 53.5,154.5C 53.5,137.167 53.5,119.833 53.5,102.5C 60.8333,102.5 68.1667,102.5 75.5,102.5 Z"/></g>
<g><path style="opacity:1" fill="#34b4e0" d="M 358.5,102.5 C 392.167,102.5 425.833,102.5 459.5,102.5C 459.5,119.833 459.5,137.167 459.5,154.5C 425.833,154.5 392.167,154.5 358.5,154.5C 358.5,137.167 358.5,119.833 358.5,102.5 Z"/></g>
<g><path style="opacity:1" fill="#1c6078" d="M 113.5,101.5 C 127.167,101.5 140.833,101.5 154.5,101.5C 154.5,119.167 154.5,136.833 154.5,154.5C 154.167,154.5 153.833,154.5 153.5,154.5C 153.5,137.167 153.5,119.833 153.5,102.5C 139.99,102.829 126.656,102.496 113.5,101.5 Z"/></g>
<g><path style="opacity:1" fill="#c9aea3" d="M 352.5,170.5 C 365.662,169.833 378.996,169.5 392.5,169.5C 406.184,169.501 419.517,170.167 432.5,171.5C 405.908,170.509 379.241,170.176 352.5,170.5 Z"/></g>
<g><path style="opacity:1" fill="#f6ac57" d="M 50.5,169.5 C 55.2137,169.173 59.8804,169.507 64.5,170.5C 62.2078,176.336 60.5412,182.336 59.5,188.5C 54.9084,188.398 50.575,189.398 46.5,191.5C 46.1667,190.833 45.8333,190.167 45.5,189.5C 47.4207,182.896 49.0874,176.23 50.5,169.5 Z"/></g>
<g><path style="opacity:1" fill="#fbc7bb" d="M 159.5,170.5 C 140.167,170.5 120.833,170.5 101.5,170.5C 82.1258,235.961 92.2925,296.294 132,351.5C 155.001,380.355 183.501,401.688 217.5,415.5C 174.536,405.94 139.036,384.274 111,350.5C 69.5846,296.012 59.2513,236.012 80,170.5C 106.598,169.168 133.098,169.168 159.5,170.5 Z"/></g>
<g><path style="opacity:1" fill="#fedbcd" d="M 159.5,170.5 C 165.855,179.529 174.521,185.362 185.5,188C 231.833,188.667 278.167,188.667 324.5,188C 336.648,186.438 345.981,180.605 352.5,170.5C 379.241,170.176 405.908,170.509 432.5,171.5C 435.281,178.616 437.447,185.95 439,193.5C 449.478,247.332 439.144,296.665 408,341.5C 407.024,345.327 407.857,348.66 410.5,351.5C 407.809,355.185 405.142,358.852 402.5,362.5C 399.355,360.809 396.021,360.309 392.5,361C 343.647,409.227 285.314,427.393 217.5,415.5C 183.501,401.688 155.001,380.355 132,351.5C 92.2925,296.294 82.1258,235.961 101.5,170.5C 120.833,170.5 140.167,170.5 159.5,170.5 Z"/></g>
<g><path style="opacity:1" fill="#e9bf51" d="M 447.5,169.5 C 452.179,169.334 456.845,169.501 461.5,170C 463.812,176.915 465.812,183.915 467.5,191C 462.641,189.864 457.641,189.031 452.5,188.5C 451.464,181.981 449.797,175.648 447.5,169.5 Z"/></g>
<g><path style="opacity:1" fill="#fac6b9" d="M 52.5,204.5 C 53.8333,204.5 55.1667,204.5 56.5,204.5C 53.854,223.503 53.854,242.503 56.5,261.5C 41.2719,257.93 33.2719,248.263 32.5,232.5C 33.7943,219.217 40.461,209.884 52.5,204.5 Z"/></g>
<g><path style="opacity:1" fill="#fac6b9" d="M 456.5,204.5 C 474.328,209.789 481.828,221.789 479,240.5C 475.274,251.06 468.107,258.06 457.5,261.5C 457.831,242.535 457.497,223.535 456.5,204.5 Z"/></g>
<g><path style="opacity:1" fill="#0a0908" d="M 158.5,210.5 C 163.28,209.641 166.78,211.308 169,215.5C 169.667,222.833 169.667,230.167 169,237.5C 165.225,244.574 160.558,245.241 155,239.5C 154.333,231.167 154.333,222.833 155,214.5C 155.69,212.65 156.856,211.316 158.5,210.5 Z"/></g>
<g><path style="opacity:1" fill="#080706" d="M 347.5,210.5 C 352.439,209.352 355.939,211.019 358,215.5C 358.667,222.833 358.667,230.167 358,237.5C 357.018,241.624 354.352,243.624 350,243.5C 347.497,243.01 345.497,241.677 344,239.5C 343.333,231.167 343.333,222.833 344,214.5C 344.69,212.65 345.856,211.316 347.5,210.5 Z"/></g>
<g><path style="opacity:1" fill="#060505" d="M 235.5,247.5 C 237.857,247.337 240.19,247.503 242.5,248C 251.5,256.667 260.5,256.667 269.5,248C 277.791,246.045 281.291,249.212 280,257.5C 275.066,264.554 268.233,268.388 259.5,269C 248.718,270.406 239.884,266.906 233,258.5C 230.826,254.193 231.659,250.526 235.5,247.5 Z"/></g>
<g><path style="opacity:1" fill="#ff9db0" d="M 145.5,255.5 C 155.839,255.334 166.172,255.5 176.5,256C 181.038,257.713 182.538,260.88 181,265.5C 180.167,267.667 178.667,269.167 176.5,270C 166.5,270.667 156.5,270.667 146.5,270C 140.292,265.58 139.958,260.747 145.5,255.5 Z"/></g>
<g><path style="opacity:1" fill="#ff9eb0" d="M 335.5,255.5 C 345.506,255.334 355.506,255.5 365.5,256C 370.143,258.072 371.643,261.572 370,266.5C 368.786,268.049 367.286,269.215 365.5,270C 355.5,270.667 345.5,270.667 335.5,270C 328.899,265.171 328.899,260.338 335.5,255.5 Z"/></g>
<g><path style="opacity:1" fill="#413d4e" d="M 185.5,422.5 C 181.232,424.933 177.732,428.266 175,432.5C 161.048,451.519 153.548,472.853 152.5,496.5C 144.833,496.5 137.167,496.5 129.5,496.5C 131.962,464.072 145.629,437.572 170.5,417C 175.898,417.744 180.898,419.577 185.5,422.5 Z"/></g>
<g><path style="opacity:1" fill="#4e4b5e" d="M 338.5,416.5 C 340.783,416.608 342.783,417.441 344.5,419C 367.448,439.731 380.115,465.564 382.5,496.5C 370.167,496.5 357.833,496.5 345.5,496.5C 345.667,483.496 345.5,470.496 345,457.5C 344.535,456.069 343.701,454.903 342.5,454C 321.9,452.535 301.234,452.035 280.5,452.5C 280.5,445.833 280.5,439.167 280.5,432.5C 300.967,430.886 320.3,425.552 338.5,416.5 Z"/></g>
<g><path style="opacity:1" fill="#4d4a5d" d="M 185.5,422.5 C 200.872,427.341 216.539,431.008 232.5,433.5C 232.5,439.833 232.5,446.167 232.5,452.5C 212.164,452.333 191.831,452.5 171.5,453C 170.333,454.167 169.167,455.333 168,456.5C 167.5,469.829 167.333,483.163 167.5,496.5C 162.5,496.5 157.5,496.5 152.5,496.5C 153.548,472.853 161.048,451.519 175,432.5C 177.732,428.266 181.232,424.933 185.5,422.5 Z"/></g>
<g><path style="opacity:1" fill="#e1e1e1" d="M 247.5,434.5 C 253.5,434.5 259.5,434.5 265.5,434.5C 265.5,455.167 265.5,475.833 265.5,496.5C 259.5,496.5 253.5,496.5 247.5,496.5C 247.5,475.833 247.5,455.167 247.5,434.5 Z"/></g>
<g><path style="opacity:1" fill="#33b1dd" d="M 181.5,467.5 C 198.5,467.5 215.5,467.5 232.5,467.5C 232.5,477.167 232.5,486.833 232.5,496.5C 215.5,496.5 198.5,496.5 181.5,496.5C 181.5,486.833 181.5,477.167 181.5,467.5 Z"/></g>
<g><path style="opacity:1" fill="#33b1dc" d="M 279.5,467.5 C 296.5,467.5 313.5,467.5 330.5,467.5C 330.5,477.167 330.5,486.833 330.5,496.5C 313.5,496.5 296.5,496.5 279.5,496.5C 279.5,486.833 279.5,477.167 279.5,467.5 Z"/></g>
</svg>
