<?xml version="1.0" encoding="UTF-8"?>
<!DOCTYPE svg PUBLIC "-//W3C//DTD SVG 1.1//EN" "http://www.w3.org/Graphics/SVG/1.1/DTD/svg11.dtd">
<svg xmlns="http://www.w3.org/2000/svg" version="1.1" width="512px" height="512px" style="shape-rendering:geometricPrecision; text-rendering:geometricPrecision; image-rendering:optimizeQuality; fill-rule:evenodd; clip-rule:evenodd" xmlns:xlink="http://www.w3.org/1999/xlink">
<g><path style="opacity:0.978" fill="#010102" d="M 240.5,-0.5 C 250.5,-0.5 260.5,-0.5 270.5,-0.5C 312.817,6.64284 342.817,29.8095 360.5,69C 409.901,66.7755 444.401,88.2755 464,133.5C 470.243,152.765 471.077,172.265 466.5,192C 497.89,215.147 509.39,245.98 501,284.5C 490.609,315.557 469.442,334.724 437.5,342C 427.541,343.256 417.541,343.756 407.5,343.5C 407.946,357.24 407.446,370.907 406,384.5C 401.031,393.902 393.197,397.902 382.5,396.5C 380.294,405.955 376.627,414.789 371.5,423C 381.203,431.703 383.037,441.869 377,453.5C 367.103,464.067 356.603,473.9 345.5,483C 335.07,486.554 326.07,484.387 318.5,476.5C 310.189,480.825 301.523,484.158 292.5,486.5C 293.611,498.681 288.611,507.014 277.5,511.5C 262.833,511.5 248.167,511.5 233.5,511.5C 222.389,507.014 217.389,498.681 218.5,486.5C 209.477,484.158 200.811,480.825 192.5,476.5C 183.287,485.299 172.953,486.799 161.5,481C 150.933,471.103 141.1,460.603 132,449.5C 128.416,438.922 130.916,430.088 139.5,423C 134.373,414.789 130.706,405.955 128.5,396.5C 117.803,397.902 109.969,393.902 105,384.5C 103.554,370.907 103.054,357.24 103.5,343.5C 65.9165,346.956 37.0832,332.956 17,301.5C -0.205433,264.737 4.96123,231.57 32.5,202C 36.9675,199.118 40.9675,195.784 44.5,192C 35.3329,148.363 48.3329,113.029 83.5,86C 103.93,72.7154 126.263,67.0488 150.5,69C 168.183,29.8095 198.183,6.64284 240.5,-0.5 Z"/></g>
<g><path style="opacity:1" fill="#97e9f8" d="M 290.5,332.5 C 282.167,332.5 273.833,332.5 265.5,332.5C 263.702,323.96 258.702,321.126 250.5,324C 247.404,326.029 245.738,328.862 245.5,332.5C 237.167,332.5 228.833,332.5 220.5,332.5C 219.839,327.67 217.172,324.503 212.5,323C 167.167,322.667 121.833,322.333 76.5,322C 41.4558,311.604 25.2892,288.104 28,251.5C 31.023,236.283 38.523,223.783 50.5,214C 55.9261,210.871 61.0928,207.371 66,203.5C 66.8078,201.577 67.3078,199.577 67.5,197.5C 54.2867,157.643 64.62,125.476 98.5,101C 116.467,89.7748 135.8,86.6082 156.5,91.5C 160.528,91.4374 163.695,89.7707 166,86.5C 180.488,45.3473 209.488,23.0139 253,19.5C 298.872,21.0906 329.539,43.4239 345,86.5C 348.9,91.5333 353.733,92.7 359.5,90C 398.917,86.9484 427.084,103.115 444,138.5C 451.341,158.217 451.174,177.884 443.5,197.5C 443.692,199.577 444.192,201.577 445,203.5C 460.776,211.943 472.443,224.276 480,240.5C 487.79,267.179 481.623,290.013 461.5,309C 452.723,316.053 442.723,320.386 431.5,322C 386.833,322.333 342.167,322.667 297.5,323C 293.403,324.922 291.07,328.088 290.5,332.5 Z"/></g>
<g><path style="opacity:1" fill="#020304" d="M 159.5,141.5 C 166.623,140.479 171.79,143.146 175,149.5C 187.137,182.244 199.47,214.911 212,247.5C 213.5,258 209,262.5 198.5,261C 196.43,260.052 194.93,258.552 194,256.5C 191.526,250.243 189.359,243.91 187.5,237.5C 171.497,237.333 155.497,237.5 139.5,238C 136.934,245.704 133.601,253.038 129.5,260C 116.743,263.243 111.91,258.41 115,245.5C 127.333,213.167 139.667,180.833 152,148.5C 153.742,145.254 156.242,142.921 159.5,141.5 Z"/></g>
<g><path style="opacity:1" fill="#010202" d="M 249.5,141.5 C 262.837,141.333 276.171,141.5 289.5,142C 310.556,148.385 320.723,162.551 320,184.5C 316.203,202.964 305.036,214.131 286.5,218C 278.841,218.5 271.174,218.666 263.5,218.5C 263.667,230.505 263.5,242.505 263,254.5C 260.575,260.795 256.075,262.962 249.5,261C 246.619,259.749 244.786,257.583 244,254.5C 243.333,218.833 243.333,183.167 244,147.5C 245.36,144.977 247.193,142.977 249.5,141.5 Z"/></g>
<g><path style="opacity:1" fill="#040607" d="M 357.5,141.5 C 363.682,140.719 368.182,143.053 371,148.5C 371.667,183.167 371.667,217.833 371,252.5C 368.27,259.053 363.437,261.22 356.5,259C 354.622,257.457 353.122,255.624 352,253.5C 351.333,218.167 351.333,182.833 352,147.5C 353.36,144.977 355.193,142.977 357.5,141.5 Z"/></g>
<g><path style="opacity:1" fill="#95e5f4" d="M 263.5,161.5 C 272.235,161.124 280.902,161.624 289.5,163C 300.77,169.807 303.27,178.974 297,190.5C 293.579,194.257 289.412,196.757 284.5,198C 277.508,198.5 270.508,198.666 263.5,198.5C 263.5,186.167 263.5,173.833 263.5,161.5 Z"/></g>
<g><path style="opacity:1" fill="#94e4f3" d="M 178.5,216.5 C 168.319,216.827 158.319,216.494 148.5,215.5C 152.757,202.313 157.59,189.313 163,176.5C 168.85,189.548 174.017,202.882 178.5,216.5 Z"/></g>
<g><path style="opacity:1" fill="#649ba5" d="M 148.5,215.5 C 158.319,216.494 168.319,216.827 178.5,216.5C 168.326,217.823 157.993,217.823 147.5,216.5C 147.624,215.893 147.957,215.56 148.5,215.5 Z"/></g>
<g><path style="opacity:1" fill="#070909" d="M 265.5,332.5 C 263.748,341.877 258.415,344.711 249.5,341C 247.218,338.603 245.884,335.769 245.5,332.5C 245.738,328.862 247.404,326.029 250.5,324C 258.702,321.126 263.702,323.96 265.5,332.5 Z"/></g>
<g><path style="opacity:1" fill="#fdfdfd" d="M 220.5,332.5 C 228.833,332.5 237.167,332.5 245.5,332.5C 245.884,335.769 247.218,338.603 249.5,341C 258.415,344.711 263.748,341.877 265.5,332.5C 273.833,332.5 282.167,332.5 290.5,332.5C 290.392,337.021 292.392,340.188 296.5,342C 304.521,342.168 312.521,342.668 320.5,343.5C 326.54,382.611 311.207,409.444 274.5,424C 236.664,431.665 209.497,418.165 193,383.5C 188.346,370.375 187.513,357.042 190.5,343.5C 198.479,342.668 206.479,342.168 214.5,342C 218.608,340.188 220.608,337.021 220.5,332.5 Z"/></g>
<g><path style="opacity:1" fill="#9773aa" d="M 169.5,345.5 C 154.871,343.516 139.871,342.85 124.5,343.5C 124.5,354.5 124.5,365.5 124.5,376.5C 123.505,365.346 123.172,354.012 123.5,342.5C 139.167,342.5 154.833,342.5 170.5,342.5C 170.737,343.791 170.404,344.791 169.5,345.5 Z"/></g>
<g><path style="opacity:1" fill="#bf91d8" d="M 169.5,345.5 C 165.565,386.8 181.565,417.634 217.5,438C 258.057,454.235 293.224,446.402 323,414.5C 338.561,394.038 344.727,371.038 341.5,345.5C 356.129,343.516 371.129,342.85 386.5,343.5C 386.5,354.5 386.5,365.5 386.5,376.5C 381.156,376.334 375.823,376.501 370.5,377C 369.421,377.956 368.255,378.789 367,379.5C 362.953,394.298 356.953,408.298 349,421.5C 348.159,425.12 348.826,428.454 351,431.5C 354.167,434.667 357.333,437.833 360.5,441C 352.652,449.015 344.652,456.848 336.5,464.5C 333.011,460.845 329.345,457.345 325.5,454C 323.966,453.077 322.299,452.577 320.5,452.5C 314.607,454.78 308.94,457.613 303.5,461C 294.266,464.641 284.933,467.974 275.5,471C 274.789,472.255 273.956,473.421 273,474.5C 272.501,480.157 272.334,485.824 272.5,491.5C 261.167,491.5 249.833,491.5 238.5,491.5C 238.666,485.824 238.499,480.157 238,474.5C 237.044,473.421 236.211,472.255 235.5,471C 228.511,468.67 221.511,466.337 214.5,464C 206.502,459.75 198.335,455.917 190,452.5C 188.373,452.625 186.873,453.125 185.5,454C 181.966,457.869 178.133,461.369 174,464.5C 166.167,456.667 158.333,448.833 150.5,441C 155.083,437.088 158.917,432.588 162,427.5C 162.667,425.5 162.667,423.5 162,421.5C 154.047,408.298 148.047,394.298 144,379.5C 142.352,378.283 140.519,377.45 138.5,377C 133.845,376.501 129.179,376.334 124.5,376.5C 124.5,365.5 124.5,354.5 124.5,343.5C 139.871,342.85 154.871,343.516 169.5,345.5 Z"/></g>
<g><path style="opacity:1" fill="#9773aa" d="M 386.5,376.5 C 386.5,365.5 386.5,354.5 386.5,343.5C 371.129,342.85 356.129,343.516 341.5,345.5C 340.596,344.791 340.263,343.791 340.5,342.5C 356.167,342.5 371.833,342.5 387.5,342.5C 387.828,354.012 387.495,365.346 386.5,376.5 Z"/></g>
</svg>
