<?xml version="1.0" encoding="UTF-8"?>
<!DOCTYPE svg PUBLIC "-//W3C//DTD SVG 1.1//EN" "http://www.w3.org/Graphics/SVG/1.1/DTD/svg11.dtd">
<svg xmlns="http://www.w3.org/2000/svg" version="1.1" width="512px" height="512px" style="shape-rendering:geometricPrecision; text-rendering:geometricPrecision; image-rendering:optimizeQuality; fill-rule:evenodd; clip-rule:evenodd" xmlns:xlink="http://www.w3.org/1999/xlink">
<g><path style="opacity:0.982" fill="#030302" d="M 387.5,82.5 C 386.892,85.9583 384.892,88.4583 381.5,90C 285.167,90.3333 188.833,90.6667 92.5,91C 77.4007,95.5951 69.7341,105.762 69.5,121.5C 69.4695,127.679 70.4695,133.679 72.5,139.5C 78.3401,135.58 84.6735,132.747 91.5,131C 199.5,130.333 307.5,130.333 415.5,131C 423.923,131.752 431.589,134.586 438.5,139.5C 443.264,126.72 442.431,114.387 436,102.5C 428.228,93.5323 418.395,89.3657 406.5,90C 403.72,88.0867 402.053,85.5867 401.5,82.5C 401.469,78.4029 403.469,75.9029 407.5,75C 437.303,75.6332 453.97,90.7999 457.5,120.5C 456.906,125.843 456.24,131.177 455.5,136.5C 457.529,140.213 460.529,143.046 464.5,145C 478.577,156.981 487.077,172.148 490,190.5C 490.333,226.167 490.667,261.833 491,297.5C 501.509,304.203 508.343,313.536 511.5,325.5C 511.5,331.833 511.5,338.167 511.5,344.5C 506.021,375.368 500.521,406.368 495,437.5C 488.871,456.297 476.038,467.13 456.5,470C 322.5,470.667 188.5,470.667 54.5,470C 33.3195,466.486 20.1529,454.319 15,433.5C 10.125,403.642 4.95831,373.976 -0.5,344.5C -0.5,338.167 -0.5,331.833 -0.5,325.5C 2.6572,313.536 9.49053,304.203 20,297.5C 20.0171,230.797 20.6838,164.13 22,97.5C 31.8135,64.6838 53.6468,45.8505 87.5,41C 138.167,40.3333 188.833,40.3333 239.5,41C 262.891,43.7538 281.225,54.7538 294.5,74C 323.5,74.3333 352.5,74.6667 381.5,75C 385.531,75.9029 387.531,78.4029 387.5,82.5 Z"/></g>
<g><path style="opacity:1" fill="#fccd62" d="M 96.5,56.5 C 89.7519,60.9883 83.5852,66.3216 78,72.5C 74.8454,76.4802 72.3454,80.8136 70.5,85.5C 60.4733,94.388 55.14,105.555 54.5,119C 55.505,130.536 56.8383,142.036 58.5,153.5C 57.8428,157.971 56.6761,162.305 55,166.5C 54.6095,180.781 55.7761,194.947 58.5,209C 57.7828,213.275 56.6161,217.442 55,221.5C 54.8333,224.667 54.6667,227.833 54.5,231C 57.1607,251.446 59.494,271.946 61.5,292.5C 52.8333,292.5 44.1667,292.5 35.5,292.5C 35.018,228.463 35.518,164.463 37,100.5C 44.3813,77.784 59.5479,63.284 82.5,57C 87.1548,56.5008 91.8215,56.3342 96.5,56.5 Z"/></g>
<g><path style="opacity:1" fill="#fedf7c" d="M 96.5,56.5 C 144.834,56.3333 193.168,56.5 241.5,57C 254.038,59.1006 264.704,64.6006 273.5,73.5C 214.833,74.1667 156.167,74.8333 97.5,75.5C 87.4509,76.0711 78.4509,79.4044 70.5,85.5C 72.3454,80.8136 74.8454,76.4802 78,72.5C 83.5852,66.3216 89.7519,60.9883 96.5,56.5 Z"/></g>
<g><path style="opacity:1" fill="#cbb263" d="M 273.5,73.5 C 274.289,73.7828 274.956,74.2828 275.5,75C 216.168,75.5 156.834,75.6667 97.5,75.5C 156.167,74.8333 214.833,74.1667 273.5,73.5 Z"/></g>
<g><path style="opacity:1" fill="#d7e1f0" d="M 387.5,82.5 C 392.167,82.5 396.833,82.5 401.5,82.5C 402.053,85.5867 403.72,88.0867 406.5,90C 418.395,89.3657 428.228,93.5323 436,102.5C 442.431,114.387 443.264,126.72 438.5,139.5C 431.589,134.586 423.923,131.752 415.5,131C 307.5,130.333 199.5,130.333 91.5,131C 84.6735,132.747 78.3401,135.58 72.5,139.5C 70.4695,133.679 69.4695,127.679 69.5,121.5C 69.7341,105.762 77.4007,95.5951 92.5,91C 188.833,90.6667 285.167,90.3333 381.5,90C 384.892,88.4583 386.892,85.9583 387.5,82.5 Z"/></g>
<g><path style="opacity:1" fill="#e6ebf5" d="M 92.5,145.5 C 200.167,145.333 307.834,145.5 415.5,146C 428.668,148.166 437.168,155.666 441,168.5C 441.706,177.61 441.04,186.61 439,195.5C 432.236,189.798 424.402,186.632 415.5,186C 307.5,185.333 199.5,185.333 91.5,186C 84.2736,187.697 77.7736,190.863 72,195.5C 69.4783,185.544 69.1449,175.544 71,165.5C 75.1713,155.491 82.338,148.825 92.5,145.5 Z"/></g>
<g><path style="opacity:1" fill="#fbdc7b" d="M 475.5,263.5 C 467.803,262.197 460.136,262.197 452.5,263.5C 455.3,249.634 456.467,235.634 456,221.5C 454.384,217.442 453.217,213.275 452.5,209C 455.224,194.947 456.391,180.781 456,166.5C 454.985,163.442 453.819,160.442 452.5,157.5C 452.833,157.167 453.167,156.833 453.5,156.5C 465.005,165.834 472.172,177.834 475,192.5C 475.5,216.164 475.667,239.831 475.5,263.5 Z"/></g>
<g><path style="opacity:1" fill="#f5f5f5" d="M 128.5,299.5 C 123.5,299.5 118.5,299.5 113.5,299.5C 113.16,296.325 111.493,294.159 108.5,293C 97.7475,293.132 87.2475,292.298 77,290.5C 73.2784,268.282 70.945,245.949 70,223.5C 73.599,211.567 81.4323,204.067 93.5,201C 201.167,200.333 308.833,200.333 416.5,201C 431.975,204.784 440.308,214.617 441.5,230.5C 439.687,250.965 437.021,271.298 433.5,291.5C 333.168,292.333 232.835,292.833 132.5,293C 130.077,294.571 128.744,296.737 128.5,299.5 Z"/></g>
<g><path style="opacity:1" fill="#fccd63" d="M 475.5,263.5 C 475.5,273.167 475.5,282.833 475.5,292.5C 466.833,292.5 458.167,292.5 449.5,292.5C 449.925,282.771 450.925,273.104 452.5,263.5C 460.136,262.197 467.803,262.197 475.5,263.5 Z"/></g>
<g><path style="opacity:1" fill="#fedf7c" d="M 113.5,299.5 C 118.5,299.5 123.5,299.5 128.5,299.5C 128.544,303.09 130.211,305.59 133.5,307C 248.556,307.006 363.556,307.673 478.5,309C 489.506,313.68 495.506,322.013 496.5,334C 491.66,365.206 486.66,396.373 481.5,427.5C 480.146,429.696 478.146,431.196 475.5,432C 472.167,433 468.833,434 465.5,435C 340.791,435.993 216.124,435.659 91.5,434C 81.7562,430.59 74.9228,424.09 71,414.5C 66.6658,390.163 62.3324,365.829 58,341.5C 55.9706,327.743 60.1373,316.41 70.5,307.5C 82.8378,307.667 95.1712,307.5 107.5,307C 111.518,306.137 113.518,303.637 113.5,299.5 Z"/></g>
<g><path style="opacity:1" fill="#fecf63" d="M 70.5,307.5 C 60.1373,316.41 55.9706,327.743 58,341.5C 62.3324,365.829 66.6658,390.163 71,414.5C 74.9228,424.09 81.7562,430.59 91.5,434C 216.124,435.659 340.791,435.993 465.5,435C 468.833,434 472.167,433 475.5,432C 478.146,431.196 480.146,429.696 481.5,427.5C 479.252,441.58 471.252,450.413 457.5,454C 322.167,454.667 186.833,454.667 51.5,454C 40.1578,449.991 32.9912,442.158 30,430.5C 25.1096,400.157 20.1096,369.824 15,339.5C 13.4371,323.444 20.2704,312.944 35.5,308C 47.1619,307.5 58.8286,307.333 70.5,307.5 Z"/></g>
<g><path style="opacity:1" fill="#030201" d="M 406.5,339.5 C 426.836,339.333 447.169,339.5 467.5,340C 472.434,342.665 473.601,346.498 471,351.5C 469.829,352.893 468.329,353.727 466.5,354C 446.5,354.667 426.5,354.667 406.5,354C 401.225,349.122 401.225,344.289 406.5,339.5 Z"/></g>
<g><path style="opacity:1" fill="#060502" d="M 431.5,363.5 C 441.506,363.334 451.506,363.5 461.5,364C 465.861,365.696 467.695,368.863 467,373.5C 466.167,375.667 464.667,377.167 462.5,378C 452.167,378.667 441.833,378.667 431.5,378C 427.788,375.487 426.622,371.987 428,367.5C 429.376,366.295 430.542,364.962 431.5,363.5 Z"/></g>
</svg>
