<?xml version="1.0" encoding="UTF-8"?>
<!DOCTYPE svg PUBLIC "-//W3C//DTD SVG 1.1//EN" "http://www.w3.org/Graphics/SVG/1.1/DTD/svg11.dtd">
<svg xmlns="http://www.w3.org/2000/svg" version="1.1" width="512px" height="512px" style="shape-rendering:geometricPrecision; text-rendering:geometricPrecision; image-rendering:optimizeQuality; fill-rule:evenodd; clip-rule:evenodd" xmlns:xlink="http://www.w3.org/1999/xlink">
<g><path style="opacity:0.972" fill="#020100" d="M 43.5,22.5 C 81.5015,22.3333 119.501,22.5 157.5,23C 160.865,24.7975 164.198,24.7975 167.5,23C 205.5,22.3333 243.5,22.3333 281.5,23C 287.469,24.2979 291.635,27.7979 294,33.5C 294.499,38.4889 294.666,43.4889 294.5,48.5C 328.233,42.4536 361.9,35.9536 395.5,29C 403.496,26.81 409.996,28.9767 415,35.5C 437.793,144.967 459.627,254.634 480.5,364.5C 487.221,363.751 493.554,364.918 499.5,368C 500.787,369.41 501.954,370.91 503,372.5C 504.631,392.769 504.964,413.102 504,433.5C 502.427,437.827 499.593,440.993 495.5,443C 485.566,444.395 475.566,444.895 465.5,444.5C 465.666,454.506 465.5,464.506 465,474.5C 463.951,481.882 459.784,486.382 452.5,488C 440.5,488.667 428.5,488.667 416.5,488C 409.667,486.5 405.5,482.333 404,475.5C 403.5,465.172 403.334,454.839 403.5,444.5C 304.833,444.5 206.167,444.5 107.5,444.5C 107.666,454.506 107.5,464.506 107,474.5C 105.951,481.882 101.784,486.382 94.5,488C 82.5,488.667 70.5,488.667 58.5,488C 51.2155,486.382 47.0489,481.882 46,474.5C 45.5002,464.506 45.3335,454.506 45.5,444.5C 35.4343,444.895 25.4343,444.395 15.5,443C 11.4067,440.993 8.57334,437.827 7,433.5C 6.03563,413.102 6.36897,392.769 8,372.5C 9.56292,369.272 12.0629,367.105 15.5,366C 20.4012,364.675 25.4012,364.175 30.5,364.5C 30.3333,254.166 30.5,143.833 31,33.5C 33.5129,27.8127 37.6795,24.146 43.5,22.5 Z M 294.5,148.5 C 309.323,220.281 323.656,292.281 337.5,364.5C 323.167,364.5 308.833,364.5 294.5,364.5C 294.5,292.5 294.5,220.5 294.5,148.5 Z"/></g>
<g><path style="opacity:1" fill="#4ca9f2" d="M 129.5,38.5 C 130.023,46.4903 130.356,54.4903 130.5,62.5C 110.402,61.1746 90.4022,61.1746 70.5,62.5C 68.2921,63.023 66.7921,64.3563 66,66.5C 65.3333,104.5 65.3333,142.5 66,180.5C 67.1474,182.819 68.9807,184.152 71.5,184.5C 91.0689,185.825 110.736,185.825 130.5,184.5C 127.537,212.275 122.204,239.608 114.5,266.5C 95.4496,260.795 79.9496,265.795 68,281.5C 57.2911,302.658 61.1245,320.658 79.5,335.5C 71.5329,346.467 62.1996,356.134 51.5,364.5C 49.5,364.5 47.5,364.5 45.5,364.5C 45.5,255.833 45.5,147.167 45.5,38.5C 73.5,38.5 101.5,38.5 129.5,38.5 Z"/></g>
<g><path style="opacity:1" fill="#fac31a" d="M 253.5,38.5 C 254.347,46.4823 255.014,54.4823 255.5,62.5C 252.272,61.5863 248.939,61.2529 245.5,61.5C 228.83,61.3334 212.163,61.5001 195.5,62C 193,63.1667 191.167,65 190,67.5C 189.333,104.833 189.333,142.167 190,179.5C 191.076,182.079 192.909,183.746 195.5,184.5C 215.069,185.825 234.736,185.825 254.5,184.5C 251.959,212.422 246.625,239.755 238.5,266.5C 213.447,260.609 196.28,269.609 187,293.5C 183.803,311.422 189.637,325.422 204.5,335.5C 196.334,346.499 186.668,355.999 175.5,364C 173.866,364.494 172.199,364.66 170.5,364.5C 170.5,255.833 170.5,147.167 170.5,38.5C 198.167,38.5 225.833,38.5 253.5,38.5 Z"/></g>
<g><path style="opacity:1" fill="#1d7ad4" d="M 129.5,38.5 C 137.833,38.5 146.167,38.5 154.5,38.5C 154.5,147.167 154.5,255.833 154.5,364.5C 120.167,364.5 85.8333,364.5 51.5,364.5C 62.1996,356.134 71.5329,346.467 79.5,335.5C 100.518,345.73 118.351,341.73 133,323.5C 144.511,298.535 138.344,279.535 114.5,266.5C 122.204,239.608 127.537,212.275 130.5,184.5C 132.504,183.327 134.004,181.66 135,179.5C 135.667,141.833 135.667,104.167 135,66.5C 133.951,64.6156 132.451,63.2823 130.5,62.5C 130.356,54.4903 130.023,46.4903 129.5,38.5 Z"/></g>
<g><path style="opacity:1" fill="#0e3d6a" d="M 154.5,38.5 C 155.499,147.332 155.833,256.332 155.5,365.5C 118.663,365.832 81.9962,365.498 45.5,364.5C 47.5,364.5 49.5,364.5 51.5,364.5C 85.8333,364.5 120.167,364.5 154.5,364.5C 154.5,255.833 154.5,147.167 154.5,38.5 Z"/></g>
<g><path style="opacity:1" fill="#f19d03" d="M 253.5,38.5 C 262.167,38.5 270.833,38.5 279.5,38.5C 279.5,147.5 279.5,256.5 279.5,365.5C 242.996,365.832 206.663,365.498 170.5,364.5C 172.199,364.66 173.866,364.494 175.5,364C 186.668,355.999 196.334,346.499 204.5,335.5C 224.073,345.219 241.24,341.886 256,325.5C 267.563,306.297 265.396,288.797 249.5,273C 245.904,270.539 242.237,268.373 238.5,266.5C 246.625,239.755 251.959,212.422 254.5,184.5C 256.708,183.977 258.208,182.644 259,180.5C 259.667,142.5 259.667,104.5 259,66.5C 258.34,64.6763 257.173,63.343 255.5,62.5C 255.014,54.4823 254.347,46.4823 253.5,38.5 Z"/></g>
<g><path style="opacity:1" fill="#71b515" d="M 353.5,364.5 C 361.86,364.831 370.193,364.498 378.5,363.5C 381.393,359.048 383.726,354.381 385.5,349.5C 402.868,355.115 417.701,351.115 430,337.5C 438.758,323.713 439.758,309.379 433,294.5C 426.827,284.499 417.994,278.166 406.5,275.5C 407.641,261.527 408.308,247.527 408.5,233.5C 408.661,219.598 407.661,205.931 405.5,192.5C 409.241,189.444 410.407,185.444 409,180.5C 402.128,145.806 395.128,111.139 388,76.5C 386.594,74.2563 384.761,72.5897 382.5,71.5C 381.295,64.6826 379.462,58.0159 377,51.5C 376.583,50.244 375.75,49.5774 374.5,49.5C 383.536,46.8284 392.87,45.1618 402.5,44.5C 423.295,151.14 443.961,257.807 464.5,364.5C 427.36,365.817 390.36,365.817 353.5,364.5 Z"/></g>
<g><path style="opacity:1" fill="#91d80f" d="M 374.5,49.5 C 375.75,49.5774 376.583,50.244 377,51.5C 379.462,58.0159 381.295,64.6826 382.5,71.5C 379.273,71.6761 376.273,72.3428 373.5,73.5C 357.182,76.6645 340.849,79.8311 324.5,83C 321.842,84.6574 320.175,86.9907 319.5,90C 326.604,126.916 334.104,163.75 342,200.5C 345.53,203.5 349.364,204.167 353.5,202.5C 370.977,199.782 388.31,196.449 405.5,192.5C 407.661,205.931 408.661,219.598 408.5,233.5C 408.308,247.527 407.641,261.527 406.5,275.5C 379.3,273.911 364.3,286.577 361.5,313.5C 361.969,330.617 369.969,342.617 385.5,349.5C 383.726,354.381 381.393,359.048 378.5,363.5C 370.193,364.498 361.86,364.831 353.5,364.5C 333.84,264.513 314.173,164.513 294.5,64.5C 321.12,59.2426 347.787,54.2426 374.5,49.5 Z"/></g>
<g><path style="opacity:1" fill="#fefefe" d="M 70.5,62.5 C 87.5,62.5 104.5,62.5 121.5,62.5C 121.5,73.8333 121.5,85.1667 121.5,96.5C 107.167,96.5 92.8333,96.5 78.5,96.5C 78.5,101.5 78.5,106.5 78.5,111.5C 92.8333,111.5 107.167,111.5 121.5,111.5C 120.719,119.198 119.719,126.864 118.5,134.5C 105.167,134.5 91.8333,134.5 78.5,134.5C 78.1786,140.026 78.5119,145.36 79.5,150.5C 90.5,150.5 101.5,150.5 112.5,150.5C 105.443,169.897 91.7766,181.23 71.5,184.5C 68.9807,184.152 67.1474,182.819 66,180.5C 65.3333,142.5 65.3333,104.5 66,66.5C 66.7921,64.3563 68.2921,63.023 70.5,62.5 Z"/></g>
<g><path style="opacity:1" fill="#c5cbd1" d="M 70.5,62.5 C 90.4022,61.1746 110.402,61.1746 130.5,62.5C 132.451,63.2823 133.951,64.6156 135,66.5C 135.667,104.167 135.667,141.833 135,179.5C 134.004,181.66 132.504,183.327 130.5,184.5C 110.736,185.825 91.0689,185.825 71.5,184.5C 91.7766,181.23 105.443,169.897 112.5,150.5C 115.5,150.5 118.5,150.5 121.5,150.5C 121.5,145.5 121.5,140.5 121.5,135.5C 107.5,135.5 93.5,135.5 79.5,135.5C 79.5,140.5 79.5,145.5 79.5,150.5C 78.5119,145.36 78.1786,140.026 78.5,134.5C 91.8333,134.5 105.167,134.5 118.5,134.5C 119.719,126.864 120.719,119.198 121.5,111.5C 121.5,106.5 121.5,101.5 121.5,96.5C 121.5,85.1667 121.5,73.8333 121.5,62.5C 104.5,62.5 87.5,62.5 70.5,62.5 Z"/></g>
<g><path style="opacity:1" fill="#fefdfc" d="M 245.5,61.5 C 245.5,73.1667 245.5,84.8333 245.5,96.5C 231.5,96.5 217.5,96.5 203.5,96.5C 203.5,101.5 203.5,106.5 203.5,111.5C 217.5,111.5 231.5,111.5 245.5,111.5C 244.663,119.184 243.663,126.85 242.5,134.5C 229.323,134.171 216.323,134.505 203.5,135.5C 203.5,140.5 203.5,145.5 203.5,150.5C 214.833,150.5 226.167,150.5 237.5,150.5C 231.204,167.296 219.537,178.463 202.5,184C 200.19,184.497 197.857,184.663 195.5,184.5C 192.909,183.746 191.076,182.079 190,179.5C 189.333,142.167 189.333,104.833 190,67.5C 191.167,65 193,63.1667 195.5,62C 212.163,61.5001 228.83,61.3334 245.5,61.5 Z"/></g>
<g><path style="opacity:1" fill="#c8cbd0" d="M 245.5,61.5 C 248.939,61.2529 252.272,61.5863 255.5,62.5C 257.173,63.343 258.34,64.6763 259,66.5C 259.667,104.5 259.667,142.5 259,180.5C 258.208,182.644 256.708,183.977 254.5,184.5C 234.736,185.825 215.069,185.825 195.5,184.5C 197.857,184.663 200.19,184.497 202.5,184C 219.537,178.463 231.204,167.296 237.5,150.5C 240.5,150.5 243.5,150.5 246.5,150.5C 246.5,145.5 246.5,140.5 246.5,135.5C 232.167,135.5 217.833,135.5 203.5,135.5C 216.323,134.505 229.323,134.171 242.5,134.5C 243.663,126.85 244.663,119.184 245.5,111.5C 246.833,106.5 246.833,101.5 245.5,96.5C 245.5,84.8333 245.5,73.1667 245.5,61.5 Z"/></g>
<g><path style="opacity:1" fill="#c6cacf" d="M 382.5,71.5 C 384.761,72.5897 386.594,74.2563 388,76.5C 395.128,111.139 402.128,145.806 409,180.5C 410.407,185.444 409.241,189.444 405.5,192.5C 388.31,196.449 370.977,199.782 353.5,202.5C 369.867,193.856 378.867,180.522 380.5,162.5C 383.589,161.215 386.922,160.549 390.5,160.5C 389.574,155.537 388.908,150.537 388.5,145.5C 386.784,145.629 385.117,145.962 383.5,146.5C 384.707,138.498 384.374,130.498 382.5,122.5C 382.875,117.089 381.875,112.089 379.5,107.5C 377.628,96.1422 375.628,84.8088 373.5,73.5C 376.273,72.3428 379.273,71.6761 382.5,71.5 Z"/></g>
<g><path style="opacity:1" fill="#fcfdfc" d="M 373.5,73.5 C 375.628,84.8088 377.628,96.1422 379.5,107.5C 366.154,110.074 352.821,112.74 339.5,115.5C 339.167,115.833 338.833,116.167 338.5,116.5C 339.749,120.742 340.583,125.075 341,129.5C 341.414,129.957 341.914,130.291 342.5,130.5C 355.707,127.192 369.04,124.525 382.5,122.5C 384.374,130.498 384.707,138.498 383.5,146.5C 371.192,148.962 358.858,151.295 346.5,153.5C 347.426,158.463 348.092,163.463 348.5,168.5C 359.093,166.115 369.76,164.115 380.5,162.5C 378.867,180.522 369.867,193.856 353.5,202.5C 349.364,204.167 345.53,203.5 342,200.5C 334.104,163.75 326.604,126.916 319.5,90C 320.175,86.9907 321.842,84.6574 324.5,83C 340.849,79.8311 357.182,76.6645 373.5,73.5 Z"/></g>
<g><path style="opacity:1" fill="#030303" d="M 121.5,96.5 C 121.5,101.5 121.5,106.5 121.5,111.5C 107.167,111.5 92.8333,111.5 78.5,111.5C 78.5,106.5 78.5,101.5 78.5,96.5C 92.8333,96.5 107.167,96.5 121.5,96.5 Z"/></g>
<g><path style="opacity:1" fill="#030303" d="M 245.5,96.5 C 246.833,101.5 246.833,106.5 245.5,111.5C 231.5,111.5 217.5,111.5 203.5,111.5C 203.5,106.5 203.5,101.5 203.5,96.5C 217.5,96.5 231.5,96.5 245.5,96.5 Z"/></g>
<g><path style="opacity:1" fill="#060606" d="M 379.5,107.5 C 381.875,112.089 382.875,117.089 382.5,122.5C 369.04,124.525 355.707,127.192 342.5,130.5C 341.914,130.291 341.414,129.957 341,129.5C 340.583,125.075 339.749,120.742 338.5,116.5C 338.833,116.167 339.167,115.833 339.5,115.5C 352.821,112.74 366.154,110.074 379.5,107.5 Z"/></g>
<g><path style="opacity:1" fill="#010101" d="M 112.5,150.5 C 101.5,150.5 90.5,150.5 79.5,150.5C 79.5,145.5 79.5,140.5 79.5,135.5C 93.5,135.5 107.5,135.5 121.5,135.5C 121.5,140.5 121.5,145.5 121.5,150.5C 118.5,150.5 115.5,150.5 112.5,150.5 Z"/></g>
<g><path style="opacity:1" fill="#040404" d="M 203.5,135.5 C 217.833,135.5 232.167,135.5 246.5,135.5C 246.5,140.5 246.5,145.5 246.5,150.5C 243.5,150.5 240.5,150.5 237.5,150.5C 226.167,150.5 214.833,150.5 203.5,150.5C 203.5,145.5 203.5,140.5 203.5,135.5 Z"/></g>
<g><path style="opacity:1" fill="#030303" d="M 380.5,162.5 C 369.76,164.115 359.093,166.115 348.5,168.5C 348.092,163.463 347.426,158.463 346.5,153.5C 358.858,151.295 371.192,148.962 383.5,146.5C 385.117,145.962 386.784,145.629 388.5,145.5C 388.908,150.537 389.574,155.537 390.5,160.5C 386.922,160.549 383.589,161.215 380.5,162.5 Z"/></g>
<g><path style="opacity:1" fill="#f4f9fe" d="M 80.5,201.5 C 84.3547,200.845 87.1881,202.179 89,205.5C 89.6667,214.167 89.6667,222.833 89,231.5C 85.2337,236.796 81.567,236.796 78,231.5C 77.3333,222.5 77.3333,213.5 78,204.5C 79.045,203.627 79.8783,202.627 80.5,201.5 Z"/></g>
<g><path style="opacity:1" fill="#fffefc" d="M 206.5,201.5 C 209.652,200.959 212.152,201.959 214,204.5C 214.667,213.5 214.667,222.5 214,231.5C 211.078,236.233 207.745,236.566 204,232.5C 203.333,223.167 203.333,213.833 204,204.5C 205.045,203.627 205.878,202.627 206.5,201.5 Z"/></g>
<g><path style="opacity:1" fill="#fdfefa" d="M 348.5,228.5 C 351.695,227.961 354.195,228.961 356,231.5C 359.116,240.285 360.783,249.285 361,258.5C 357.255,262.566 353.922,262.233 351,257.5C 349.167,249.5 347.333,241.5 345.5,233.5C 345.757,231.308 346.757,229.641 348.5,228.5 Z"/></g>
<g><path style="opacity:1" fill="#020305" d="M 114.5,266.5 C 138.344,279.535 144.511,298.535 133,323.5C 118.351,341.73 100.518,345.73 79.5,335.5C 61.1245,320.658 57.2911,302.658 68,281.5C 79.9496,265.795 95.4496,260.795 114.5,266.5 Z"/></g>
<g><path style="opacity:1" fill="#050302" d="M 238.5,266.5 C 242.237,268.373 245.904,270.539 249.5,273C 265.396,288.797 267.563,306.297 256,325.5C 241.24,341.886 224.073,345.219 204.5,335.5C 189.637,325.422 183.803,311.422 187,293.5C 196.28,269.609 213.447,260.609 238.5,266.5 Z"/></g>
<g><path style="opacity:1" fill="#030402" d="M 406.5,275.5 C 417.994,278.166 426.827,284.499 433,294.5C 439.758,309.379 438.758,323.713 430,337.5C 417.701,351.115 402.868,355.115 385.5,349.5C 369.969,342.617 361.969,330.617 361.5,313.5C 364.3,286.577 379.3,273.911 406.5,275.5 Z"/></g>
<g><path style="opacity:1" fill="#fbfbfb" d="M 116.5,286.5 C 113.36,307.317 101.36,316.983 80.5,315.5C 72.8367,299.326 77.17,287.493 93.5,280C 98.9042,279.228 104.238,279.561 109.5,281C 112.595,281.935 114.929,283.769 116.5,286.5 Z"/></g>
<g><path style="opacity:1" fill="#fcfcfc" d="M 240.5,285.5 C 238.019,305.971 226.353,316.305 205.5,316.5C 197.027,300.271 201.027,288.105 217.5,280C 226.251,277.983 233.917,279.816 240.5,285.5 Z"/></g>
<g><path style="opacity:1" fill="#dadde2" d="M 116.5,286.5 C 121.386,290.444 123.72,295.611 123.5,302C 122.196,319.301 112.863,327.301 95.5,326C 89.0668,324.458 84.0668,320.958 80.5,315.5C 101.36,316.983 113.36,307.317 116.5,286.5 Z"/></g>
<g><path style="opacity:1" fill="#d9dce0" d="M 240.5,285.5 C 251.626,298.135 250.959,310.301 238.5,322C 225.878,329.342 214.878,327.509 205.5,316.5C 226.353,316.305 238.019,305.971 240.5,285.5 Z"/></g>
<g><path style="opacity:1" fill="#fcfcfc" d="M 412.5,294.5 C 413.164,315.492 403.164,327.159 382.5,329.5C 377.963,325.236 375.963,319.903 376.5,313.5C 376.934,302.559 382.267,295.059 392.5,291C 397.167,290.333 401.833,290.333 406.5,291C 408.727,291.941 410.727,293.108 412.5,294.5 Z"/></g>
<g><path style="opacity:1" fill="#dadde1" d="M 412.5,294.5 C 421.643,300.743 424.809,309.41 422,320.5C 416.244,334.295 406.078,339.461 391.5,336C 388.039,334.357 385.039,332.19 382.5,329.5C 403.164,327.159 413.164,315.492 412.5,294.5 Z"/></g>
<g><path style="opacity:1" fill="#fe7d7d" d="M 466.5,380.5 C 464.408,385.761 460.741,389.594 455.5,392C 437.286,400.272 418.286,405.939 398.5,409C 343.12,416.876 287.453,421.542 231.5,423C 161.83,423.726 92.1629,423.559 22.5,422.5C 22.5,408.5 22.5,394.5 22.5,380.5C 170.5,380.5 318.5,380.5 466.5,380.5 Z"/></g>
<g><path style="opacity:1" fill="#ef3d3d" d="M 466.5,380.5 C 473.833,380.5 481.167,380.5 488.5,380.5C 488.5,396.5 488.5,412.5 488.5,428.5C 333.167,428.5 177.833,428.5 22.5,428.5C 22.5,426.5 22.5,424.5 22.5,422.5C 92.1629,423.559 161.83,423.726 231.5,423C 287.453,421.542 343.12,416.876 398.5,409C 418.286,405.939 437.286,400.272 455.5,392C 460.741,389.594 464.408,385.761 466.5,380.5 Z"/></g>
<g><path style="opacity:1" fill="#fe7d7d" d="M 61.5,443.5 C 71.5,443.5 81.5,443.5 91.5,443.5C 91.5,453.167 91.5,462.833 91.5,472.5C 81.5,472.5 71.5,472.5 61.5,472.5C 61.5,462.833 61.5,453.167 61.5,443.5 Z"/></g>
<g><path style="opacity:1" fill="#fe7d7d" d="M 419.5,443.5 C 429.5,443.5 439.5,443.5 449.5,443.5C 449.5,453.167 449.5,462.833 449.5,472.5C 439.5,472.5 429.5,472.5 419.5,472.5C 419.5,462.833 419.5,453.167 419.5,443.5 Z"/></g>
</svg>
