<?xml version="1.0" encoding="UTF-8"?>
<!DOCTYPE svg PUBLIC "-//W3C//DTD SVG 1.1//EN" "http://www.w3.org/Graphics/SVG/1.1/DTD/svg11.dtd">
<svg xmlns="http://www.w3.org/2000/svg" version="1.1" width="512px" height="512px" style="shape-rendering:geometricPrecision; text-rendering:geometricPrecision; image-rendering:optimizeQuality; fill-rule:evenodd; clip-rule:evenodd" xmlns:xlink="http://www.w3.org/1999/xlink">
<g><path style="opacity:0.992" fill="#010100" d="M 111.5,-0.5 C 201.833,-0.5 292.167,-0.5 382.5,-0.5C 393.328,3.8363 399.494,11.8363 401,23.5C 401.5,60.8318 401.667,98.1652 401.5,135.5C 422.784,133.375 436.618,142.375 443,162.5C 443.5,176.163 443.667,189.829 443.5,203.5C 460.548,203.073 477.548,203.573 494.5,205C 502.994,208.207 508.661,214.04 511.5,222.5C 511.5,307.833 511.5,393.167 511.5,478.5C 506.167,495.167 495.167,506.167 478.5,511.5C 329.833,511.5 181.167,511.5 32.5,511.5C 15.8333,506.167 4.83333,495.167 -0.5,478.5C -0.5,355.833 -0.5,233.167 -0.5,110.5C 3.15502,98.6751 10.8217,90.5084 22.5,86C 45.7809,84.541 69.1142,84.041 92.5,84.5C 92.0543,62.1219 92.5543,39.7886 94,17.5C 96.6834,8.318 102.517,2.318 111.5,-0.5 Z"/></g>
<g><path style="opacity:1" fill="#f4f4f4" d="M 364.5,16.5 C 364.709,17.9217 365.209,19.255 366,20.5C 366.5,81.4991 366.667,142.499 366.5,203.5C 360.833,203.5 355.167,203.5 349.5,203.5C 349.667,175.831 349.5,148.165 349,120.5C 347.92,118.004 346.586,115.67 345,113.5C 316.249,96.5405 287.415,79.7072 258.5,63C 250.805,58.3948 243.138,58.3948 235.5,63C 206.585,79.7072 177.751,96.5405 149,113.5C 147.414,115.67 146.08,118.004 145,120.5C 144.5,148.498 144.333,176.498 144.5,204.5C 133.167,204.5 121.833,204.5 110.5,204.5C 110.333,143.499 110.5,82.4991 111,21.5C 112.5,20 114,18.5 115.5,17C 198.499,16.5 281.499,16.3333 364.5,16.5 Z"/></g>
<g><path style="opacity:1" fill="#ced7db" d="M 364.5,16.5 C 368.846,16.3343 373.179,16.501 377.5,17C 379.624,18.1217 381.457,19.6217 383,21.5C 383.5,82.4991 383.667,143.499 383.5,204.5C 371.988,204.828 360.654,204.495 349.5,203.5C 355.167,203.5 360.833,203.5 366.5,203.5C 366.667,142.499 366.5,81.4991 366,20.5C 365.209,19.255 364.709,17.9217 364.5,16.5 Z"/></g>
<g><path style="opacity:1" fill="#01a7f2" d="M 179.5,203.5 C 173.833,203.5 168.167,203.5 162.5,203.5C 162.5,177.167 162.5,150.833 162.5,124.5C 190.816,108.528 219.15,92.5279 247.5,76.5C 254.833,80.8333 262.167,85.1667 269.5,89.5C 253.997,104.875 240.164,121.542 228,139.5C 226.589,141.65 225.755,143.984 225.5,146.5C 210.531,148.293 200.365,156.293 195,170.5C 193.774,176.189 192.441,181.856 191,187.5C 187.634,193.335 183.801,198.669 179.5,203.5 Z"/></g>
<g><path style="opacity:1" fill="#273490" d="M 279.5,129.5 C 286.177,123.815 292.177,117.481 297.5,110.5C 292.638,107.237 287.638,104.237 282.5,101.5C 283.145,100.188 284.145,99.1882 285.5,98.5C 293.759,102.768 301.759,107.434 309.5,112.5C 301.848,120.652 294.015,128.652 286,136.5C 283.628,134.297 281.461,131.963 279.5,129.5 Z"/></g>
<g><path style="opacity:1" fill="#fede00" d="M 29.5,102.5 C 45.1667,102.5 60.8333,102.5 76.5,102.5C 76.5,138.5 76.5,174.5 76.5,210.5C 76.1667,211.5 75.5,212.167 74.5,212.5C 63.3061,211.009 55.4728,215.342 51,225.5C 50.6667,308.833 50.3333,392.167 50,475.5C 48.5405,482.285 45.3738,488.118 40.5,493C 39.2068,493.49 37.8734,493.657 36.5,493.5C 26.5893,490.757 20.0893,484.424 17,474.5C 16.3333,354.5 16.3333,234.5 17,114.5C 19.0534,108.28 23.2201,104.28 29.5,102.5 Z"/></g>
<g><path style="opacity:1" fill="#f8bd07" d="M 29.5,102.5 C 50.6601,101.503 71.9935,101.169 93.5,101.5C 93.5,135.833 93.5,170.167 93.5,204.5C 87.1327,204.517 81.4661,206.517 76.5,210.5C 76.5,174.5 76.5,138.5 76.5,102.5C 60.8333,102.5 45.1667,102.5 29.5,102.5 Z"/></g>
<g><path style="opacity:1" fill="#3d4fb1" d="M 282.5,101.5 C 287.638,104.237 292.638,107.237 297.5,110.5C 292.177,117.481 286.177,123.815 279.5,129.5C 275.188,125.854 271.188,121.854 267.5,117.5C 271.817,111.517 276.817,106.184 282.5,101.5 Z"/></g>
<g><path style="opacity:1" fill="#0375b9" d="M 245.5,202.5 C 268.661,203.498 291.994,203.831 315.5,203.5C 315.831,179.661 315.498,155.994 314.5,132.5C 317.812,128.521 321.479,124.854 325.5,121.5C 327.918,122.457 330.084,123.791 332,125.5C 332.5,151.831 332.667,178.165 332.5,204.5C 302.831,204.667 273.165,204.5 243.5,204C 244.044,203.283 244.711,202.783 245.5,202.5 Z"/></g>
<g><path style="opacity:1" fill="#0183bd" d="M 162.5,124.5 C 162.5,150.833 162.5,177.167 162.5,203.5C 168.167,203.5 173.833,203.5 179.5,203.5C 173.69,204.49 167.69,204.823 161.5,204.5C 161.169,177.661 161.502,150.995 162.5,124.5 Z"/></g>
<g><path style="opacity:1" fill="#6f6f6f" d="M 248.5,156.5 C 249.552,156.649 250.552,156.483 251.5,156C 254.042,153.289 256.709,150.789 259.5,148.5C 257.144,145.978 254.977,143.312 253,140.5C 252.184,139.177 251.017,138.511 249.5,138.5C 251.419,135.681 253.585,133.014 256,130.5C 261.682,136.015 267.182,141.681 272.5,147.5C 267.263,153.122 261.263,157.789 254.5,161.5C 252.456,159.781 250.456,158.114 248.5,156.5 Z"/></g>
<g><path style="opacity:1" fill="#01a7f2" d="M 314.5,132.5 C 315.498,155.994 315.831,179.661 315.5,203.5C 291.994,203.831 268.661,203.498 245.5,202.5C 252.377,196.072 256.044,188.072 256.5,178.5C 263.388,176.137 269.721,172.637 275.5,168C 289.32,157.011 302.32,145.177 314.5,132.5 Z"/></g>
<g><path style="opacity:1" fill="#999999" d="M 249.5,138.5 C 251.017,138.511 252.184,139.177 253,140.5C 254.977,143.312 257.144,145.978 259.5,148.5C 256.709,150.789 254.042,153.289 251.5,156C 250.552,156.483 249.552,156.649 248.5,156.5C 246.063,154.567 243.729,152.4 241.5,150C 243.997,146.011 246.664,142.177 249.5,138.5 Z"/></g>
<g><path style="opacity:1" fill="#fada00" d="M 400.5,153.5 C 413,150.58 421.5,154.913 426,166.5C 426.5,179.162 426.667,191.829 426.5,204.5C 417.833,204.5 409.167,204.5 400.5,204.5C 400.5,187.5 400.5,170.5 400.5,153.5 Z"/></g>
<g><path style="opacity:1" fill="#f8d9ad" d="M 222.5,163.5 C 232.906,162.869 238.906,167.702 240.5,178C 239.071,184.854 235.404,190.188 229.5,194C 220.807,200.254 211.141,203.587 200.5,204C 206.41,196.942 209.577,188.776 210,179.5C 211.807,172.207 215.973,166.874 222.5,163.5 Z"/></g>
<g><path style="opacity:1" fill="#fdc007" d="M 74.5,212.5 C 71.5688,216.025 69.4021,220.025 68,224.5C 67.6667,308.167 67.3333,391.833 67,475.5C 61.7913,490.18 51.6247,496.18 36.5,493.5C 37.8734,493.657 39.2068,493.49 40.5,493C 45.3738,488.118 48.5405,482.285 50,475.5C 50.3333,392.167 50.6667,308.833 51,225.5C 55.4728,215.342 63.3061,211.009 74.5,212.5 Z"/></g>
<g><path style="opacity:1" fill="#feea39" d="M 475.5,221.5 C 476.09,222.766 476.59,224.099 477,225.5C 477.667,308.833 477.667,392.167 477,475.5C 475.038,482.763 471.538,489.096 466.5,494.5C 336.5,494.667 206.5,494.5 76.5,494C 80.5581,488.498 83.0581,482.332 84,475.5C 84.3333,392.833 84.6667,310.167 85,227.5C 86.1217,225.376 87.6217,223.543 89.5,222C 218.166,221.5 346.833,221.333 475.5,221.5 Z"/></g>
<g><path style="opacity:1" fill="#fbd633" d="M 475.5,221.5 C 480.179,221.334 484.845,221.501 489.5,222C 491.333,223.167 492.833,224.667 494,226.5C 494.667,309.167 494.667,391.833 494,474.5C 489.754,487.91 480.587,494.577 466.5,494.5C 471.538,489.096 475.038,482.763 477,475.5C 477.667,392.167 477.667,308.833 477,225.5C 476.59,224.099 476.09,222.766 475.5,221.5 Z"/></g>
<g><path style="opacity:1" fill="#020100" d="M 121.5,247.5 C 167.835,247.333 214.168,247.5 260.5,248C 266.776,249.942 270.61,254.109 272,260.5C 272.667,280.167 272.667,299.833 272,319.5C 269.859,325.641 265.693,329.807 259.5,332C 213.108,332.985 166.775,332.652 120.5,331C 115.41,328.249 112.243,324.083 111,318.5C 110.833,308.833 110.667,299.167 110.5,289.5C 110.38,278.445 110.88,267.445 112,256.5C 114.406,252.592 117.572,249.592 121.5,247.5 Z"/></g>
<g><path style="opacity:1" fill="#5f7c8a" d="M 127.5,264.5 C 164.5,264.5 201.5,264.5 238.5,264.5C 238.5,281.167 238.5,297.833 238.5,314.5C 201.5,314.5 164.5,314.5 127.5,314.5C 127.5,297.833 127.5,281.167 127.5,264.5 Z"/></g>
<g><path style="opacity:1" fill="#36464e" d="M 127.5,264.5 C 169.997,263.501 212.663,263.168 255.5,263.5C 255.5,280.833 255.5,298.167 255.5,315.5C 212.663,315.832 169.997,315.499 127.5,314.5C 164.5,314.5 201.5,314.5 238.5,314.5C 238.5,297.833 238.5,281.167 238.5,264.5C 201.5,264.5 164.5,264.5 127.5,264.5 Z"/></g>
</svg>
