<?xml version="1.0" encoding="UTF-8"?>
<!DOCTYPE svg PUBLIC "-//W3C//DTD SVG 1.1//EN" "http://www.w3.org/Graphics/SVG/1.1/DTD/svg11.dtd">
<svg xmlns="http://www.w3.org/2000/svg" version="1.1" width="512px" height="512px" style="shape-rendering:geometricPrecision; text-rendering:geometricPrecision; image-rendering:optimizeQuality; fill-rule:evenodd; clip-rule:evenodd" xmlns:xlink="http://www.w3.org/1999/xlink">
<g><path style="opacity:0.982" fill="#030101" d="M 54.5,28.5 C 189.556,28.0051 324.556,28.5051 459.5,30C 467.003,33.5045 471.503,39.3378 473,47.5C 473.5,90.8321 473.667,134.165 473.5,177.5C 488.905,174.943 499.072,180.943 504,195.5C 504.667,270.5 504.667,345.5 504,420.5C 501.948,429.111 496.781,434.944 488.5,438C 483.511,438.499 478.511,438.666 473.5,438.5C 473.891,448.233 473.391,457.9 472,467.5C 469.076,474.758 463.909,479.592 456.5,482C 322.5,482.667 188.5,482.667 54.5,482C 45.4579,478.96 39.9579,472.793 38,463.5C 37.5003,455.173 37.3336,446.84 37.5,438.5C 26.111,440.874 16.9443,437.541 10,428.5C 8.43786,426.043 7.43786,423.376 7,420.5C 6.33333,345.5 6.33333,270.5 7,195.5C 11.9156,180.949 22.0822,174.949 37.5,177.5C 37.3333,134.165 37.5,90.8321 38,47.5C 40.1496,38.1882 45.6496,31.8549 54.5,28.5 Z"/></g>
<g><path style="opacity:1" fill="#fb7b7b" d="M 452.5,44.5 C 437.818,44.1674 423.152,44.5007 408.5,45.5C 405.874,55.4111 401.54,64.4111 395.5,72.5C 294.166,72.3333 192.833,72.5 91.5,73C 83.755,75.7441 78.255,80.9107 75,88.5C 74.5,111.498 74.3334,134.498 74.5,157.5C 67.5,157.5 60.5,157.5 53.5,157.5C 53.3333,120.832 53.5,84.1652 54,47.5C 55.214,45.9512 56.714,44.7845 58.5,44C 190.001,43.1673 321.334,43.334 452.5,44.5 Z"/></g>
<g><path style="opacity:1" fill="#ed3c3c" d="M 452.5,44.5 C 454.371,44.8588 455.871,45.8588 457,47.5C 457.5,90.8321 457.667,134.165 457.5,177.5C 450.5,177.5 443.5,177.5 436.5,177.5C 436.969,147.117 436.469,116.783 435,86.5C 431.472,78.9676 425.639,74.4676 417.5,73C 410.174,72.5003 402.841,72.3337 395.5,72.5C 401.54,64.4111 405.874,55.4111 408.5,45.5C 423.152,44.5007 437.818,44.1674 452.5,44.5 Z"/></g>
<g><path style="opacity:1" fill="#fe7e7e" d="M 381.5,87.5 C 364.067,102.559 344.4,114.059 322.5,122C 345.004,122.168 367.337,122.668 389.5,123.5C 299.833,123.5 210.167,123.5 120.5,123.5C 120.5,131.833 120.5,140.167 120.5,148.5C 112.833,148.5 105.167,148.5 97.5,148.5C 97.5,151.5 97.5,154.5 97.5,157.5C 94.8333,157.5 92.1667,157.5 89.5,157.5C 89.3334,135.497 89.5,113.497 90,91.5C 91.1667,90.3333 92.3333,89.1667 93.5,88C 189.499,87.5 285.499,87.3333 381.5,87.5 Z"/></g>
<g><path style="opacity:1" fill="#ee3e3d" d="M 381.5,87.5 C 393.171,87.3335 404.838,87.5001 416.5,88C 418.286,88.7845 419.786,89.9512 421,91.5C 421.5,120.165 421.667,148.831 421.5,177.5C 418.833,177.5 416.167,177.5 413.5,177.5C 413.5,167.833 413.5,158.167 413.5,148.5C 405.5,148.5 397.5,148.5 389.5,148.5C 389.5,140.167 389.5,131.833 389.5,123.5C 367.337,122.668 345.004,122.168 322.5,122C 344.4,114.059 364.067,102.559 381.5,87.5 Z"/></g>
<g><path style="opacity:1" fill="#dee0e5" d="M 389.5,123.5 C 389.5,131.833 389.5,140.167 389.5,148.5C 299.833,148.5 210.167,148.5 120.5,148.5C 120.5,140.167 120.5,131.833 120.5,123.5C 210.167,123.5 299.833,123.5 389.5,123.5 Z"/></g>
<g><path style="opacity:1" fill="#fefffe" d="M 120.5,148.5 C 210.167,148.5 299.833,148.5 389.5,148.5C 397.5,148.5 405.5,148.5 413.5,148.5C 413.5,158.167 413.5,167.833 413.5,177.5C 308.167,177.5 202.833,177.5 97.5,177.5C 97.5,170.833 97.5,164.167 97.5,157.5C 97.5,154.5 97.5,151.5 97.5,148.5C 105.167,148.5 112.833,148.5 120.5,148.5 Z"/></g>
<g><path style="opacity:1" fill="#ef4040" d="M 89.5,157.5 C 92.1667,157.5 94.8333,157.5 97.5,157.5C 97.5,164.167 97.5,170.833 97.5,177.5C 94.8333,177.5 92.1667,177.5 89.5,177.5C 89.5,170.833 89.5,164.167 89.5,157.5 Z"/></g>
<g><path style="opacity:1" fill="#ed3d3d" d="M 53.5,157.5 C 60.5,157.5 67.5,157.5 74.5,157.5C 74.5,164.167 74.5,170.833 74.5,177.5C 67.5,177.5 60.5,177.5 53.5,177.5C 53.5,170.833 53.5,164.167 53.5,157.5 Z"/></g>
<g><path style="opacity:1" fill="#fe7d7d" d="M 440.5,192.5 C 446.303,253.721 424.303,302.221 374.5,338C 336.45,362.682 295.117,379.682 250.5,389C 212.927,397.113 174.927,402.113 136.5,404C 98.5103,405.24 60.5103,405.74 22.5,405.5C 22.3333,335.833 22.5,266.166 23,196.5C 23.8333,195.667 24.6667,194.833 25.5,194C 163.753,192.503 302.086,192.003 440.5,192.5 Z"/></g>
<g><path style="opacity:1" fill="#ee3d3d" d="M 440.5,192.5 C 454.837,192.333 469.171,192.5 483.5,193C 485.286,193.785 486.786,194.951 488,196.5C 488.667,270.833 488.667,345.167 488,419.5C 487.167,420.333 486.333,421.167 485.5,422C 332.58,423.664 179.58,423.997 26.5,423C 25.3333,421.833 24.1667,420.667 23,419.5C 22.5008,414.845 22.3342,410.179 22.5,405.5C 60.5103,405.74 98.5103,405.24 136.5,404C 174.927,402.113 212.927,397.113 250.5,389C 295.117,379.682 336.45,362.682 374.5,338C 424.303,302.221 446.303,253.721 440.5,192.5 Z"/></g>
<g><path style="opacity:1" fill="#fffdfd" d="M 45.5,223.5 C 48.6516,222.959 51.1516,223.959 53,226.5C 53.6667,237.167 53.6667,247.833 53,258.5C 49.6667,262.5 46.3333,262.5 43,258.5C 42.3333,247.833 42.3333,237.167 43,226.5C 44.045,225.627 44.8783,224.627 45.5,223.5 Z"/></g>
<g><path style="opacity:1" fill="#ee3d3d" d="M 179.5,300.5 C 174.821,300.334 170.155,300.501 165.5,301C 159.271,305.171 158.938,309.837 164.5,315C 169.489,315.499 174.489,315.666 179.5,315.5C 174.329,327.087 165.329,331.587 152.5,329C 137.453,321.731 133.62,310.564 141,295.5C 149.272,285.951 159.106,283.951 170.5,289.5C 174.652,292.31 177.652,295.976 179.5,300.5 Z"/></g>
<g><path style="opacity:1" fill="#ee3d3d" d="M 331.5,315.5 C 336.179,315.666 340.845,315.499 345.5,315C 350.987,311.39 351.654,307.056 347.5,302C 342.264,300.661 336.93,300.161 331.5,300.5C 338.894,286.153 349.894,282.653 364.5,290C 374.322,298.647 376.155,308.814 370,320.5C 361.756,329.778 351.922,331.944 340.5,327C 336.419,324 333.419,320.166 331.5,315.5 Z"/></g>
<g><path style="opacity:1" fill="#010000" d="M 179.5,300.5 C 230.167,300.5 280.833,300.5 331.5,300.5C 336.93,300.161 342.264,300.661 347.5,302C 351.654,307.056 350.987,311.39 345.5,315C 340.845,315.499 336.179,315.666 331.5,315.5C 280.833,315.5 230.167,315.5 179.5,315.5C 174.489,315.666 169.489,315.499 164.5,315C 158.938,309.837 159.271,305.171 165.5,301C 170.155,300.501 174.821,300.334 179.5,300.5 Z"/></g>
<g><path style="opacity:1" fill="#fffafa" d="M 457.5,310.5 C 460.365,310.055 462.865,310.722 465,312.5C 465.667,320.833 465.667,329.167 465,337.5C 461.255,341.566 457.922,341.233 455,336.5C 454.333,328.833 454.333,321.167 455,313.5C 455.698,312.309 456.531,311.309 457.5,310.5 Z"/></g>
<g><path style="opacity:1" fill="#fefbfb" d="M 457.5,363.5 C 460.652,362.959 463.152,363.959 465,366.5C 465.667,375.833 465.667,385.167 465,394.5C 461.714,398.485 458.381,398.485 455,394.5C 454.333,385.167 454.333,375.833 455,366.5C 456.045,365.627 456.878,364.627 457.5,363.5 Z"/></g>
<g><path style="opacity:1" fill="#fc7c7c" d="M 53.5,438.5 C 188.167,438.5 322.833,438.5 457.5,438.5C 457.666,446.507 457.5,454.507 457,462.5C 456.167,464.667 454.667,466.167 452.5,467C 321.167,467.667 189.833,467.667 58.5,467C 56.714,466.215 55.214,465.049 54,463.5C 53.5003,455.173 53.3336,446.84 53.5,438.5 Z"/></g>
</svg>
