<?xml version="1.0" encoding="UTF-8"?>
<!DOCTYPE svg PUBLIC "-//W3C//DTD SVG 1.1//EN" "http://www.w3.org/Graphics/SVG/1.1/DTD/svg11.dtd">
<svg xmlns="http://www.w3.org/2000/svg" version="1.1" width="512px" height="512px" style="shape-rendering:geometricPrecision; text-rendering:geometricPrecision; image-rendering:optimizeQuality; fill-rule:evenodd; clip-rule:evenodd" xmlns:xlink="http://www.w3.org/1999/xlink">
<g><path style="opacity:0.982" fill="#020201" d="M 92.5,10.5 C 184.501,10.3333 276.501,10.5 368.5,11C 405.722,47.8879 442.555,85.0546 479,122.5C 479.5,173.166 479.667,223.832 479.5,274.5C 492.447,274.718 500.613,281.052 504,293.5C 504.667,296.833 504.667,300.167 504,303.5C 488.333,360.833 472.667,418.167 457,475.5C 453.491,488.342 445.325,496.509 432.5,500C 298.833,500.667 165.167,500.667 31.5,500C 17.7699,496.271 9.60324,487.438 7,473.5C 6.33333,375.833 6.33333,278.167 7,180.5C 9.00768,168.155 15.841,159.655 27.5,155C 40.7731,153.575 54.1065,153.075 67.5,153.5C 67.3333,115.165 67.5,76.8319 68,38.5C 70.4009,23.9815 78.5676,14.6482 92.5,10.5 Z"/></g>
<g><path style="opacity:1" fill="#fefefe" d="M 356.5,25.5 C 356.975,53.897 356.475,82.2303 355,110.5C 342.581,139.92 323.748,164.42 298.5,184C 288.686,191.742 278.352,198.742 267.5,205C 220.665,205.167 173.998,205.667 127.5,206.5C 121.485,208.681 119.985,212.681 123,218.5C 124.255,219.211 125.421,220.044 126.5,221C 163.165,221.5 199.832,221.667 236.5,221.5C 197.771,239.578 157.438,253.411 115.5,263C 104.84,265.278 94.1731,267.444 83.5,269.5C 83.5,193.167 83.5,116.833 83.5,40.5C 85.1711,33.3266 89.5044,28.4933 96.5,26C 183.166,25.5 269.833,25.3333 356.5,25.5 Z"/></g>
<g><path style="opacity:1" fill="#dcdfe4" d="M 372.5,37.5 C 399.299,63.7984 425.965,90.2984 452.5,117C 427.5,117.667 402.5,117.667 377.5,117C 375.667,115.833 374.167,114.333 373,112.5C 372.5,87.5022 372.333,62.5022 372.5,37.5 Z"/></g>
<g><path style="opacity:1" fill="#343435" d="M 83.5,40.5 C 83.5,116.833 83.5,193.167 83.5,269.5C 83.1696,289.34 83.5029,309.007 84.5,328.5C 84.5386,329.756 84.0386,330.756 83,331.5C 82.1675,234.332 82.3342,137.332 83.5,40.5 Z"/></g>
<g><path style="opacity:1" fill="#070707" d="M 125.5,75.5 C 165.168,75.3333 204.835,75.5 244.5,76C 248.696,78.9811 249.529,82.8144 247,87.5C 246.097,88.7014 244.931,89.5348 243.5,90C 204.5,90.6667 165.5,90.6667 126.5,90C 120.438,85.5353 120.105,80.7019 125.5,75.5 Z"/></g>
<g><path style="opacity:1" fill="#dcdfe4" d="M 356.5,25.5 C 357.332,54.9972 357.832,84.6638 358,114.5C 360.5,123.667 366.333,129.5 375.5,132C 404.831,132.5 434.165,132.667 463.5,132.5C 463.5,179.833 463.5,227.167 463.5,274.5C 348.5,274.333 233.5,274.5 118.5,275C 106.497,278.337 98.3303,285.837 94,297.5C 90.7256,307.822 87.559,318.155 84.5,328.5C 83.5029,309.007 83.1696,289.34 83.5,269.5C 94.1731,267.444 104.84,265.278 115.5,263C 157.438,253.411 197.771,239.578 236.5,221.5C 297.501,221.667 358.501,221.5 419.5,221C 426.39,217.219 427.056,212.552 421.5,207C 323.501,206.5 225.501,206.333 127.5,206.5C 173.998,205.667 220.665,205.167 267.5,205C 278.352,198.742 288.686,191.742 298.5,184C 323.748,164.42 342.581,139.92 355,110.5C 356.475,82.2303 356.975,53.897 356.5,25.5 Z"/></g>
<g><path style="opacity:1" fill="#030303" d="M 126.5,140.5 C 185.168,140.333 243.834,140.5 302.5,141C 310.073,145.187 310.406,149.854 303.5,155C 244.167,155.667 184.833,155.667 125.5,155C 120.003,149.683 120.336,144.85 126.5,140.5 Z"/></g>
<g><path style="opacity:1" fill="#91d80c" d="M 34.5,168.5 C 45.8333,168.5 57.1667,168.5 68.5,168.5C 68.6667,238.834 68.5,309.167 68,379.5C 56.5957,414.546 45.0957,449.546 33.5,484.5C 28.1058,482.607 24.6058,478.94 23,473.5C 22.3333,375.5 22.3333,277.5 23,179.5C 25.4123,174.252 29.2456,170.586 34.5,168.5 Z"/></g>
<g><path style="opacity:1" fill="#090909" d="M 127.5,206.5 C 225.501,206.333 323.501,206.5 421.5,207C 427.056,212.552 426.39,217.219 419.5,221C 358.501,221.5 297.501,221.667 236.5,221.5C 199.832,221.667 163.165,221.5 126.5,221C 125.421,220.044 124.255,219.211 123,218.5C 119.985,212.681 121.485,208.681 127.5,206.5 Z"/></g>
<g><path style="opacity:1" fill="#91d90d" d="M 120.5,290.5 C 228.833,290.5 337.167,290.5 445.5,290.5C 444.999,323.153 434.165,351.819 413,376.5C 395.485,395.617 375.319,410.284 352.5,420.5C 352.667,388.832 352.5,357.165 352,325.5C 349.737,318.903 345.237,314.736 338.5,313C 308.167,312.333 277.833,312.333 247.5,313C 240.624,316.031 236.624,321.198 235.5,328.5C 234.833,357.833 234.167,387.167 233.5,416.5C 214.181,411.995 198.347,417.328 186,432.5C 181.679,441.678 183.179,449.678 190.5,456.5C 187.232,457.822 183.565,458.489 179.5,458.5C 139.281,460.19 99.2808,459.19 59.5,455.5C 75.3575,404.426 91.5242,353.426 108,302.5C 110.079,296.253 114.246,292.253 120.5,290.5 Z"/></g>
<g><path style="opacity:1" fill="#72b715" d="M 120.5,290.5 C 180.666,289.833 240.999,289.5 301.5,289.5C 362.581,289.337 423.581,289.837 484.5,291C 487.387,292.709 488.721,295.209 488.5,298.5C 473.07,358.828 456.57,418.828 439,478.5C 436.297,481.934 432.797,483.934 428.5,484.5C 302.332,484.833 176.332,484.5 50.5,483.5C 52.7262,473.825 55.7262,464.491 59.5,455.5C 99.2808,459.19 139.281,460.19 179.5,458.5C 183.565,458.489 187.232,457.822 190.5,456.5C 199.3,462.227 208.966,464.06 219.5,462C 228.175,460.506 235.841,457.006 242.5,451.5C 243.449,452.152 244.615,452.486 246,452.5C 261.678,450.186 277.178,447.02 292.5,443C 294.119,442.764 295.119,441.931 295.5,440.5C 313.802,447.475 330.635,444.808 346,432.5C 348.992,428.843 351.159,424.843 352.5,420.5C 375.319,410.284 395.485,395.617 413,376.5C 434.165,351.819 444.999,323.153 445.5,290.5C 337.167,290.5 228.833,290.5 120.5,290.5 Z"/></g>
<g><path style="opacity:1" fill="#030401" d="M 352.5,420.5 C 351.159,424.843 348.992,428.843 346,432.5C 330.635,444.808 313.802,447.475 295.5,440.5C 284.064,432.105 282.564,422.105 291,410.5C 304.249,398.258 319.749,394.258 337.5,398.5C 337.827,374.925 337.494,351.425 336.5,328C 308.167,327.333 279.833,327.333 251.5,328C 250.67,365.095 250.17,402.262 250,439.5C 248.253,444 245.753,448 242.5,451.5C 235.841,457.006 228.175,460.506 219.5,462C 208.966,464.06 199.3,462.227 190.5,456.5C 183.179,449.678 181.679,441.678 186,432.5C 198.347,417.328 214.181,411.995 233.5,416.5C 233.56,417.043 233.893,417.376 234.5,417.5C 235.5,387.841 235.833,358.174 235.5,328.5C 236.624,321.198 240.624,316.031 247.5,313C 277.833,312.333 308.167,312.333 338.5,313C 345.237,314.736 349.737,318.903 352,325.5C 352.5,357.165 352.667,388.832 352.5,420.5 Z"/></g>
<g><path style="opacity:1" fill="#fdfefb" d="M 136.5,313.5 C 142.629,312.555 146.296,315.055 147.5,321C 144.47,329.758 141.636,338.592 139,347.5C 135.937,354.112 131.604,355.112 126,350.5C 125.077,348.966 124.577,347.299 124.5,345.5C 126.826,336.022 129.659,326.689 133,317.5C 134.376,316.295 135.542,314.962 136.5,313.5 Z"/></g>
<g><path style="opacity:1" fill="#91d90c" d="M 295.5,440.5 C 295.119,441.931 294.119,442.764 292.5,443C 277.178,447.02 261.678,450.186 246,452.5C 244.615,452.486 243.449,452.152 242.5,451.5C 245.753,448 248.253,444 250,439.5C 250.17,402.262 250.67,365.095 251.5,328C 279.833,327.333 308.167,327.333 336.5,328C 337.494,351.425 337.827,374.925 337.5,398.5C 319.749,394.258 304.249,398.258 291,410.5C 282.564,422.105 284.064,432.105 295.5,440.5 Z"/></g>
<g><path style="opacity:1" fill="#629208" d="M 235.5,328.5 C 235.833,358.174 235.5,387.841 234.5,417.5C 233.893,417.376 233.56,417.043 233.5,416.5C 234.167,387.167 234.833,357.833 235.5,328.5 Z"/></g>
<g><path style="opacity:1" fill="#fdfefb" d="M 115.5,376.5 C 121.979,374.784 125.979,377.117 127.5,383.5C 124.438,393.187 121.271,402.854 118,412.5C 114.627,415.886 110.794,416.386 106.5,414C 105.106,412.261 104.439,410.261 104.5,408C 106.693,396.917 110.36,386.417 115.5,376.5 Z"/></g>
<g><path style="opacity:1" fill="#f7f7f7" d="M 320.5,411.5 C 325.412,411.063 330.078,411.896 334.5,414C 337.201,417.534 336.867,420.867 333.5,424C 324.091,429.578 314.091,430.912 303.5,428C 299.673,425.095 299.673,422.095 303.5,419C 308.782,415.353 314.448,412.853 320.5,411.5 Z"/></g>
<g><path style="opacity:1" fill="#f9f9f9" d="M 213.5,430.5 C 219.925,430.13 226.258,430.63 232.5,432C 234.396,433.808 234.896,435.975 234,438.5C 225.461,446.786 215.294,449.62 203.5,447C 198.876,445.425 197.709,442.592 200,438.5C 204.189,435.109 208.689,432.442 213.5,430.5 Z"/></g>
<g><path style="opacity:1" fill="#5b9211" d="M 50.5,483.5 C 176.332,484.5 302.332,484.833 428.5,484.5C 302.333,485.832 175.999,485.832 49.5,484.5C 49.6236,483.893 49.9569,483.56 50.5,483.5 Z"/></g>
</svg>
