<?xml version="1.0" encoding="UTF-8"?>
<!DOCTYPE svg PUBLIC "-//W3C//DTD SVG 1.1//EN" "http://www.w3.org/Graphics/SVG/1.1/DTD/svg11.dtd">
<svg xmlns="http://www.w3.org/2000/svg" version="1.1" width="512px" height="512px" style="shape-rendering:geometricPrecision; text-rendering:geometricPrecision; image-rendering:optimizeQuality; fill-rule:evenodd; clip-rule:evenodd" xmlns:xlink="http://www.w3.org/1999/xlink">
<g><path style="opacity:0.985" fill="#000000" d="M 419.5,-0.5 C 422.833,-0.5 426.167,-0.5 429.5,-0.5C 433.729,2.33494 435.562,6.33494 435,11.5C 426.24,35.5145 417.074,59.3479 407.5,83C 440,115.5 472.5,148 505,180.5C 507.745,184.657 509.912,188.99 511.5,193.5C 511.5,198.167 511.5,202.833 511.5,207.5C 510.16,211.317 508.326,214.983 506,218.5C 470.5,254 435,289.5 399.5,325C 394.688,328.326 389.355,330.159 383.5,330.5C 383.667,388.168 383.5,445.834 383,503.5C 382.375,507.109 380.542,509.776 377.5,511.5C 328.833,511.5 280.167,511.5 231.5,511.5C 228.07,509.065 226.404,505.731 226.5,501.5C 226.844,497.316 228.844,494.149 232.5,492C 275.832,491.5 319.165,491.333 362.5,491.5C 362.667,435.499 362.5,379.499 362,323.5C 344.299,305.632 326.465,287.965 308.5,270.5C 286.34,269.503 264.006,269.169 241.5,269.5C 241.5,286.5 241.5,303.5 241.5,320.5C 239.205,329.145 233.872,331.645 225.5,328C 223.683,326.2 222.516,324.034 222,321.5C 221.333,272.833 221.333,224.167 222,175.5C 230.136,166.363 238.636,157.53 247.5,149C 223.878,144.739 205.712,152.572 193,172.5C 191.382,176.068 190.049,179.735 189,183.5C 188.667,209.5 188.333,235.5 188,261.5C 187.31,264.196 185.81,266.363 183.5,268C 129.226,269.487 74.8925,269.987 20.5,269.5C 19.5008,343.331 19.1674,417.331 19.5,491.5C 61.8333,491.5 104.167,491.5 146.5,491.5C 152.21,492.543 155.543,495.876 156.5,501.5C 156.008,505.831 154.008,509.164 150.5,511.5C 102.167,511.5 53.8333,511.5 5.5,511.5C 3.16667,509.833 1.16667,507.833 -0.5,505.5C -0.5,401.167 -0.5,296.833 -0.5,192.5C 2.98533,180.182 10.9853,172.349 23.5,169C 73.17,168.833 122.837,168.333 172.5,167.5C 182.406,146.54 198.74,133.707 221.5,129C 236.833,128.667 252.167,128.333 267.5,128C 296.528,98.6385 325.861,69.6385 355.5,41C 359.295,40.1628 362.961,40.4961 366.5,42C 374.667,50.1667 382.833,58.3333 391,66.5C 399.392,45.9905 407.392,25.3238 415,4.5C 416.366,2.63834 417.866,0.971672 419.5,-0.5 Z"/></g>
<g><path style="opacity:1" fill="#fce85f" d="M 358.5,65.5 C 359.552,65.3505 360.552,65.5172 361.5,66C 369.211,73.3756 376.544,81.0423 383.5,89C 376.667,106.833 369.833,124.667 363,142.5C 340.186,143.968 327.352,155.968 324.5,178.5C 326.633,199.467 338.133,211.467 359,214.5C 385.634,211.195 397.3,196.195 394,169.5C 391.211,162.083 387.045,155.583 381.5,150C 387.103,134.635 393.103,119.468 399.5,104.5C 429.153,133.653 458.653,162.986 488,192.5C 492.148,196.903 492.481,201.569 489,206.5C 455.167,240.333 421.333,274.167 387.5,308C 382.569,311.481 377.903,311.148 373.5,307C 330.793,264.627 288.46,221.96 246.5,179C 283.661,141.005 320.995,103.172 358.5,65.5 Z"/></g>
<g><path style="opacity:1" fill="#fef19f" d="M 241.5,320.5 C 242.497,304.008 242.83,287.342 242.5,270.5C 264.5,270.5 286.5,270.5 308.5,270.5C 326.465,287.965 344.299,305.632 362,323.5C 362.5,379.499 362.667,435.499 362.5,491.5C 319.165,491.333 275.832,491.5 232.5,492C 228.844,494.149 226.844,497.316 226.5,501.5C 218.167,501.5 209.833,501.5 201.5,501.5C 199.398,492.615 194.065,489.782 185.5,493C 182.892,495.398 181.225,498.231 180.5,501.5C 172.5,501.5 164.5,501.5 156.5,501.5C 155.543,495.876 152.21,492.543 146.5,491.5C 104.67,490.501 62.67,490.168 20.5,490.5C 20.5,416.833 20.5,343.167 20.5,269.5C 74.8925,269.987 129.226,269.487 183.5,268C 185.81,266.363 187.31,264.196 188,261.5C 188.333,235.5 188.667,209.5 189,183.5C 190.049,179.735 191.382,176.068 193,172.5C 205.712,152.572 223.878,144.739 247.5,149C 238.636,157.53 230.136,166.363 222,175.5C 221.333,224.167 221.333,272.833 222,321.5C 222.516,324.034 223.683,326.2 225.5,328C 233.872,331.645 239.205,329.145 241.5,320.5 Z"/></g>
<g><path style="opacity:1" fill="#f9f9f9" d="M 356.5,163.5 C 370.507,163.674 376.34,170.674 374,184.5C 368.357,193.885 360.524,196.052 350.5,191C 341.232,179.314 343.232,170.148 356.5,163.5 Z"/></g>
<g><path style="opacity:1" fill="#446289" d="M 27.5,189.5 C 74.3304,188.501 121.33,188.168 168.5,188.5C 168.83,209.007 168.497,229.34 167.5,249.5C 167.5,229.5 167.5,209.5 167.5,189.5C 120.833,189.5 74.1667,189.5 27.5,189.5 Z"/></g>
<g><path style="opacity:1" fill="#7fb4fd" d="M 27.5,189.5 C 74.1667,189.5 120.833,189.5 167.5,189.5C 167.5,209.5 167.5,229.5 167.5,249.5C 118.167,249.5 68.8333,249.5 19.5,249.5C 19.3334,231.83 19.5001,214.164 20,196.5C 21.083,192.582 23.583,190.248 27.5,189.5 Z"/></g>
<g><path style="opacity:1" fill="#7eb3fb" d="M 241.5,203.5 C 256.965,218.465 272.299,233.632 287.5,249C 272.17,249.5 256.837,249.667 241.5,249.5C 241.5,234.167 241.5,218.833 241.5,203.5 Z"/></g>
<g><path style="opacity:1" fill="#05060a" d="M 45.5,209.5 C 58.1686,208.56 62.3352,213.893 58,225.5C 51.5552,231.21 45.8885,230.543 41,223.5C 40.3333,220.5 40.3333,217.5 41,214.5C 42.7073,212.963 44.2073,211.296 45.5,209.5 Z"/></g>
<g><path style="opacity:1" fill="#040608" d="M 91.5,209.5 C 102.861,208.686 107.028,213.686 104,224.5C 98.3333,231.167 92.6667,231.167 87,224.5C 84.0637,218.058 85.5637,213.058 91.5,209.5 Z"/></g>
<g><path style="opacity:1" fill="#050609" d="M 136.5,209.5 C 147.041,208.539 151.541,213.205 150,223.5C 145.036,230.495 139.37,231.162 133,225.5C 129.12,219.065 130.287,213.732 136.5,209.5 Z"/></g>
<g><path style="opacity:1" fill="#dacf89" d="M 308.5,270.5 C 286.5,270.5 264.5,270.5 242.5,270.5C 242.83,287.342 242.497,304.008 241.5,320.5C 241.5,303.5 241.5,286.5 241.5,269.5C 264.006,269.169 286.34,269.503 308.5,270.5 Z"/></g>
<g><path style="opacity:1" fill="#010100" d="M 46.5,394.5 C 88.8346,394.333 131.168,394.5 173.5,395C 180.057,397.685 182.223,402.519 180,409.5C 178.457,411.378 176.624,412.878 174.5,414C 131.833,414.667 89.1667,414.667 46.5,414C 40.4578,410.252 38.9578,405.085 42,398.5C 43.6667,397.267 45.1667,395.933 46.5,394.5 Z"/></g>
<g><path style="opacity:1" fill="#070704" d="M 45.5,443.5 C 71.1688,443.333 96.8355,443.5 122.5,444C 127.929,448.231 128.929,453.398 125.5,459.5C 123.972,460.861 122.305,462.028 120.5,463C 96.1667,463.667 71.8333,463.667 47.5,463C 40.951,460.221 38.7844,455.388 41,448.5C 42.7073,446.963 44.2073,445.296 45.5,443.5 Z"/></g>
<g><path style="opacity:1" fill="#bfb578" d="M 20.5,269.5 C 20.5,343.167 20.5,416.833 20.5,490.5C 62.67,490.168 104.67,490.501 146.5,491.5C 104.167,491.5 61.8333,491.5 19.5,491.5C 19.1674,417.331 19.5008,343.331 20.5,269.5 Z"/></g>
<g><path style="opacity:0.946" fill="#040302" d="M 201.5,501.5 C 201.531,506.113 199.531,509.447 195.5,511.5C 192.5,511.5 189.5,511.5 186.5,511.5C 182.992,509.164 180.992,505.831 180.5,501.5C 181.225,498.231 182.892,495.398 185.5,493C 194.065,489.782 199.398,492.615 201.5,501.5 Z"/></g>
</svg>
