<?xml version="1.0" encoding="UTF-8"?>
<!DOCTYPE svg PUBLIC "-//W3C//DTD SVG 1.1//EN" "http://www.w3.org/Graphics/SVG/1.1/DTD/svg11.dtd">
<svg xmlns="http://www.w3.org/2000/svg" version="1.1" width="512px" height="512px" style="shape-rendering:geometricPrecision; text-rendering:geometricPrecision; image-rendering:optimizeQuality; fill-rule:evenodd; clip-rule:evenodd" xmlns:xlink="http://www.w3.org/1999/xlink">
<g><path style="opacity:0.997" fill="#156efb" d="M 30.5,-0.5 C 85.5,-0.5 140.5,-0.5 195.5,-0.5C 199.317,0.840466 202.983,2.6738 206.5,5C 224.869,24.3669 242.869,44.0336 260.5,64C 333.833,64.3333 407.167,64.6667 480.5,65C 497.299,70.2947 507.632,81.4614 511.5,98.5C 511.5,224.833 511.5,351.167 511.5,477.5C 507.438,494.221 497.438,505.554 481.5,511.5C 330.833,511.5 180.167,511.5 29.5,511.5C 13.2917,504.629 3.29166,492.629 -0.5,475.5C -0.5,327.833 -0.5,180.167 -0.5,32.5C 4.01839,15.9831 14.3517,4.98313 30.5,-0.5 Z"/></g>
<g><path style="opacity:1" fill="#92bffb" d="M 499.5,103.5 C 499.822,109.358 499.489,115.025 498.5,120.5C 495.345,116.994 491.511,114.327 487,112.5C 486.5,105.174 486.334,97.8409 486.5,90.5C 334.167,90.5 181.833,90.5 29.5,90.5C 29.6666,118.835 29.5,147.169 29,175.5C 21.9329,177.901 15.9329,181.901 11,187.5C 10.3333,137.5 10.3333,87.5 11,37.5C 13.681,23.4892 21.8477,14.6558 35.5,11C 87.1667,10.3333 138.833,10.3333 190.5,11C 193.618,12.0587 196.618,13.3921 199.5,15C 218.167,35.3333 236.833,55.6667 255.5,76C 330.167,76.3333 404.833,76.6667 479.5,77C 490.906,82.2418 497.573,91.0751 499.5,103.5 Z"/></g>
<g><path style="opacity:1" fill="#fefdfc" d="M 41.5,102.5 C 186.167,102.5 330.833,102.5 475.5,102.5C 475.5,104.833 475.5,107.167 475.5,109.5C 422.499,109.333 369.499,109.5 316.5,110C 309.317,112.085 303.317,115.918 298.5,121.5C 212.833,121.5 127.167,121.5 41.5,121.5C 41.5,115.167 41.5,108.833 41.5,102.5 Z"/></g>
<g><path style="opacity:1" fill="#5497fb" d="M 499.5,103.5 C 500.817,109.346 500.817,115.346 499.5,121.5C 498.893,121.376 498.56,121.043 498.5,120.5C 499.489,115.025 499.822,109.358 499.5,103.5 Z"/></g>
<g><path style="opacity:1" fill="#d6e4fc" d="M 41.5,102.5 C 41.5,108.833 41.5,115.167 41.5,121.5C 127.167,121.5 212.833,121.5 298.5,121.5C 212.668,122.499 126.668,122.833 40.5,122.5C 40.176,115.646 40.5093,108.979 41.5,102.5 Z"/></g>
<g><path style="opacity:1" fill="#47dcfe" d="M 319.5,120.5 C 371.501,120.333 423.501,120.5 475.5,121C 489.617,124.787 497.783,133.954 500,148.5C 500.667,256.5 500.667,364.5 500,472.5C 497.867,486.626 490.034,495.793 476.5,500C 329.167,500.667 181.833,500.667 34.5,500C 20.7691,494.929 12.9358,485.096 11,470.5C 10.3333,384.833 10.3333,299.167 11,213.5C 12.9283,200.784 19.7617,191.95 31.5,187C 106.167,186.667 180.833,186.333 255.5,186C 273.798,165.367 292.465,145.033 311.5,125C 314.099,123.205 316.766,121.705 319.5,120.5 Z"/></g>
<g><path style="opacity:1" fill="#b5d0fd" d="M 286.5,134.5 C 204.833,134.5 123.167,134.5 41.5,134.5C 41.5,147.833 41.5,161.167 41.5,174.5C 40.5043,161.01 40.171,147.344 40.5,133.5C 123.237,133.167 205.237,133.5 286.5,134.5 Z"/></g>
<g><path style="opacity:1" fill="#fefdfd" d="M 286.5,134.5 C 275.041,147.795 263.375,160.962 251.5,174C 181.501,174.5 111.501,174.667 41.5,174.5C 41.5,161.167 41.5,147.833 41.5,134.5C 123.167,134.5 204.833,134.5 286.5,134.5 Z"/></g>
<g><path style="opacity:1" fill="#2a9af4" d="M 198.5,287.5 C 180.167,287.5 161.833,287.5 143.5,287.5C 143.5,316.167 143.5,344.833 143.5,373.5C 160.5,373.5 177.5,373.5 194.5,373.5C 177.341,374.497 160.008,374.83 142.5,374.5C 142.5,345.167 142.5,315.833 142.5,286.5C 161.341,286.17 180.007,286.503 198.5,287.5 Z"/></g>
<g><path style="opacity:1" fill="#146ced" d="M 198.5,287.5 C 210.97,288.804 217.97,295.638 219.5,308C 219.011,317.661 214.344,324.327 205.5,328C 221.744,332.989 226.911,343.489 221,359.5C 215.271,369.784 206.437,374.451 194.5,373.5C 177.5,373.5 160.5,373.5 143.5,373.5C 143.5,344.833 143.5,316.167 143.5,287.5C 161.833,287.5 180.167,287.5 198.5,287.5 Z"/></g>
<g><path style="opacity:1" fill="#156ded" d="M 238.5,286.5 C 247.5,286.5 256.5,286.5 265.5,286.5C 265.5,315.833 265.5,345.167 265.5,374.5C 256.5,374.5 247.5,374.5 238.5,374.5C 238.5,345.167 238.5,315.833 238.5,286.5 Z"/></g>
<g><path style="opacity:1" fill="#2999f4" d="M 310.5,287.5 C 302.167,287.5 293.833,287.5 285.5,287.5C 285.5,316.167 285.5,344.833 285.5,373.5C 293.5,373.5 301.5,373.5 309.5,373.5C 309.167,357.819 309.501,342.152 310.5,326.5C 311.107,326.624 311.44,326.957 311.5,327.5C 310.504,342.991 310.17,358.658 310.5,374.5C 301.833,374.5 293.167,374.5 284.5,374.5C 284.5,345.167 284.5,315.833 284.5,286.5C 293.349,286.174 302.016,286.507 310.5,287.5 Z"/></g>
<g><path style="opacity:1" fill="#146ced" d="M 310.5,287.5 C 320.833,302.833 331.167,318.167 341.5,333.5C 341.56,334.043 341.893,334.376 342.5,334.5C 343.499,318.848 343.833,303.181 343.5,287.5C 351.5,287.5 359.5,287.5 367.5,287.5C 367.5,316.167 367.5,344.833 367.5,373.5C 359.167,373.5 350.833,373.5 342.5,373.5C 332.167,358.167 321.833,342.833 311.5,327.5C 311.44,326.957 311.107,326.624 310.5,326.5C 309.501,342.152 309.167,357.819 309.5,373.5C 301.5,373.5 293.5,373.5 285.5,373.5C 285.5,344.833 285.5,316.167 285.5,287.5C 293.833,287.5 302.167,287.5 310.5,287.5 Z"/></g>
<g><path style="opacity:1" fill="#2897f3" d="M 342.5,373.5 C 350.833,373.5 359.167,373.5 367.5,373.5C 367.5,344.833 367.5,316.167 367.5,287.5C 359.5,287.5 351.5,287.5 343.5,287.5C 343.833,303.181 343.499,318.848 342.5,334.5C 341.893,334.376 341.56,334.043 341.5,333.5C 342.496,318.009 342.83,302.342 342.5,286.5C 351.167,286.5 359.833,286.5 368.5,286.5C 368.5,315.833 368.5,345.167 368.5,374.5C 359.651,374.826 350.984,374.493 342.5,373.5 Z"/></g>
<g><path style="opacity:1" fill="#47dbfe" d="M 170.5,304.5 C 176.909,304.183 183.243,304.683 189.5,306C 192.902,309.719 193.402,313.886 191,318.5C 189.416,319.861 187.582,320.528 185.5,320.5C 180.5,320.5 175.5,320.5 170.5,320.5C 170.5,315.167 170.5,309.833 170.5,304.5 Z"/></g>
<g><path style="opacity:1" fill="#30a9f7" d="M 170.5,304.5 C 170.5,309.833 170.5,315.167 170.5,320.5C 175.5,320.5 180.5,320.5 185.5,320.5C 180.36,321.488 175.026,321.821 169.5,321.5C 169.178,315.642 169.511,309.975 170.5,304.5 Z"/></g>
<g><path style="opacity:1" fill="#46d7fe" d="M 169.5,337.5 C 176.906,337.152 184.239,337.652 191.5,339C 196.535,342.013 197.702,346.18 195,351.5C 194.097,352.701 192.931,353.535 191.5,354C 184.239,355.348 176.906,355.848 169.5,355.5C 169.5,349.5 169.5,343.5 169.5,337.5 Z"/></g>
</svg>
