<?xml version="1.0" encoding="UTF-8"?>
<!DOCTYPE svg PUBLIC "-//W3C//DTD SVG 1.1//EN" "http://www.w3.org/Graphics/SVG/1.1/DTD/svg11.dtd">
<svg xmlns="http://www.w3.org/2000/svg" version="1.1" width="512px" height="512px" style="shape-rendering:geometricPrecision; text-rendering:geometricPrecision; image-rendering:optimizeQuality; fill-rule:evenodd; clip-rule:evenodd" xmlns:xlink="http://www.w3.org/1999/xlink">
<g><path style="opacity:0.99" fill="#030202" d="M 75.5,-0.5 C 102.167,-0.5 128.833,-0.5 155.5,-0.5C 157.588,1.33561 158.921,3.66895 159.5,6.5C 158.892,9.95832 156.892,12.4583 153.5,14C 128.5,14.3333 103.5,14.6667 78.5,15C 49.9899,20.5091 30.1566,36.6757 19,63.5C 7.78497,103.533 19.6183,134.699 54.5,157C 61.6787,161.06 69.3454,163.726 77.5,165C 214.833,165.667 352.167,165.667 489.5,165C 497.923,159.127 498.589,152.46 491.5,145C 353.212,143.995 214.879,142.995 76.5,142C 50.9022,133.718 37.2355,116.051 35.5,89C 38.435,60.0639 54.1017,42.3972 82.5,36C 218.5,35.6667 354.5,35.3333 490.5,35C 496.651,30.5495 497.817,25.0495 494,18.5C 492.681,16.5125 490.848,15.3459 488.5,15C 388.5,14.6667 288.5,14.3333 188.5,14C 187.584,13.6258 186.75,13.1258 186,12.5C 185.155,10.3885 184.322,8.3885 183.5,6.5C 184.079,3.66895 185.412,1.33561 187.5,-0.5C 289.5,-0.5 391.5,-0.5 493.5,-0.5C 503.555,3.55162 509.555,10.8849 511.5,21.5C 511.5,23.8333 511.5,26.1667 511.5,28.5C 510.263,35.138 507.263,40.9714 502.5,46C 494.611,50.5313 486.111,52.6979 477,52.5C 463.001,77.1791 463.001,101.846 477,126.5C 477.5,127 478,127.5 478.5,128C 494.308,126.04 505.308,132.206 511.5,146.5C 511.5,151.5 511.5,156.5 511.5,161.5C 504.651,177.603 492.318,184.437 474.5,182C 494.894,197.296 507.227,217.463 511.5,242.5C 511.5,251.5 511.5,260.5 511.5,269.5C 506.831,294.669 494.164,314.835 473.5,330C 479.167,330.333 484.833,330.667 490.5,331C 502.872,333.538 509.872,341.038 511.5,353.5C 511.5,355.833 511.5,358.167 511.5,360.5C 507.534,377.845 496.534,385.345 478.5,383C 467.06,399.536 463.56,417.702 468,437.5C 470.191,444.879 473.191,451.879 477,458.5C 486.111,458.302 494.611,460.469 502.5,465C 507.263,470.029 510.263,475.862 511.5,482.5C 511.5,484.833 511.5,487.167 511.5,489.5C 509.555,500.115 503.555,507.448 493.5,511.5C 354.167,511.5 214.833,511.5 75.5,511.5C 33.8333,502.5 8.5,477.167 -0.5,435.5C -0.5,426.167 -0.5,416.833 -0.5,407.5C 4.17042,382.329 16.8371,362.162 37.5,347C 31.5,346.667 25.5,346.333 19.5,346C 9.4253,343.422 2.75863,337.256 -0.5,327.5C -0.5,322.833 -0.5,318.167 -0.5,313.5C 5.73855,298.697 17.0719,292.031 33.5,293.5C 44.7046,275.798 47.5379,256.798 42,236.5C 39.9695,230.106 37.1362,224.106 33.5,218.5C 17.0485,219.959 5.71516,213.293 -0.5,198.5C -0.5,193.5 -0.5,188.5 -0.5,183.5C 2.56003,175.938 7.89337,170.438 15.5,167C 23.0892,165.769 30.7559,165.103 38.5,165C 17.115,149.789 4.11495,129.289 -0.5,103.5C -0.5,94.1667 -0.5,84.8333 -0.5,75.5C 8.5,33.8333 33.8333,8.5 75.5,-0.5 Z"/></g>
<g><path style="opacity:0.999" fill="#fd9d5d" d="M 159.5,6.5 C 167.5,6.5 175.5,6.5 183.5,6.5C 184.322,8.3885 185.155,10.3885 186,12.5C 186.75,13.1258 187.584,13.6258 188.5,14C 288.5,14.3333 388.5,14.6667 488.5,15C 490.848,15.3459 492.681,16.5125 494,18.5C 497.817,25.0495 496.651,30.5495 490.5,35C 354.5,35.3333 218.5,35.6667 82.5,36C 54.1017,42.3972 38.435,60.0639 35.5,89C 37.2355,116.051 50.9022,133.718 76.5,142C 214.879,142.995 353.212,143.995 491.5,145C 498.589,152.46 497.923,159.127 489.5,165C 352.167,165.667 214.833,165.667 77.5,165C 69.3454,163.726 61.6787,161.06 54.5,157C 19.6183,134.699 7.78497,103.533 19,63.5C 30.1566,36.6757 49.9899,20.5091 78.5,15C 103.5,14.6667 128.5,14.3333 153.5,14C 156.892,12.4583 158.892,9.95832 159.5,6.5 Z"/></g>
<g><path style="opacity:1" fill="#fef6e7" d="M 83.5,51.5 C 198.5,51.3333 313.5,51.5 428.5,52C 418.636,68.626 415.803,86.4594 420,105.5C 421.557,113.674 424.39,121.341 428.5,128.5C 312.833,128.667 197.166,128.5 81.5,128C 55.1941,118.555 46.0275,100.389 54,73.5C 60.1743,61.172 70.0076,53.8387 83.5,51.5 Z"/></g>
<g><path style="opacity:1" fill="#f3e6ce" d="M 83.5,51.5 C 208.666,50.5004 333.999,50.1671 459.5,50.5C 447.655,76.1461 447.655,101.813 459.5,127.5C 449.188,128.499 438.855,128.832 428.5,128.5C 424.39,121.341 421.557,113.674 420,105.5C 415.803,86.4594 418.636,68.626 428.5,52C 313.5,51.5 198.5,51.3333 83.5,51.5 Z"/></g>
<g><path style="opacity:1" fill="#569da1" d="M 22.5,181.5 C 154.5,181.333 286.5,181.5 418.5,182C 429.505,188.005 439.005,195.839 447,205.5C 447.528,206.816 447.028,207.483 445.5,207.5C 441.217,205.905 436.883,204.405 432.5,203C 295.833,202.667 159.167,202.333 22.5,202C 15.1878,198.54 13.0211,193.04 16,185.5C 17.6379,183.266 19.8045,181.933 22.5,181.5 Z"/></g>
<g><path style="opacity:1" fill="#418f92" d="M 22.5,181.5 C 157.999,180.334 293.666,180.167 429.5,181C 465.644,187.477 487.811,208.643 496,244.5C 498.621,287.182 479.788,315.349 439.5,329C 434.882,329.994 430.215,330.494 425.5,330.5C 423.167,330.5 420.833,330.5 418.5,330.5C 430.189,323.648 440.189,314.814 448.5,304C 448.272,303.601 447.938,303.435 447.5,303.5C 470.577,288.124 479.077,266.791 473,239.5C 467.905,225.245 458.738,214.578 445.5,207.5C 447.028,207.483 447.528,206.816 447,205.5C 439.005,195.839 429.505,188.005 418.5,182C 286.5,181.5 154.5,181.333 22.5,181.5 Z"/></g>
<g><path style="opacity:1" fill="#fef6e7" d="M 425.5,294.5 C 413.167,294.5 400.833,294.5 388.5,294.5C 388.5,284.167 388.5,273.833 388.5,263.5C 395.921,263.891 403.254,263.391 410.5,262C 414.875,256.879 414.209,252.545 408.5,249C 320.5,248.333 232.5,248.333 144.5,249C 139.244,253.542 139.244,258.208 144.5,263C 198.499,263.5 252.499,263.667 306.5,263.5C 306.5,273.833 306.5,284.167 306.5,294.5C 221.332,294.833 136.332,294.499 51.5,293.5C 63.4672,268.53 63.4672,243.53 51.5,218.5C 177.832,217.333 304.165,217.167 430.5,218C 448.953,223.455 458.953,235.789 460.5,255C 459.177,277.483 447.51,290.649 425.5,294.5 Z"/></g>
<g><path style="opacity:1" fill="#fed78e" d="M 347.5,263.5 C 347.5,299.833 347.5,336.167 347.5,372.5C 346.078,372.709 344.745,373.209 343.5,374C 336.571,380.385 329.738,386.885 323,393.5C 322.5,350.168 322.333,306.835 322.5,263.5C 330.833,263.5 339.167,263.5 347.5,263.5 Z"/></g>
<g><path style="opacity:1" fill="#fec862" d="M 347.5,263.5 C 355.833,263.5 364.167,263.5 372.5,263.5C 372.832,306.67 372.499,349.67 371.5,392.5C 365.062,386.564 358.729,380.397 352.5,374C 350.975,372.991 349.308,372.491 347.5,372.5C 347.5,336.167 347.5,299.833 347.5,263.5 Z"/></g>
<g><path style="opacity:1" fill="#745b2c" d="M 372.5,263.5 C 373.831,306.669 373.831,350.002 372.5,393.5C 371.893,393.376 371.56,393.043 371.5,392.5C 372.499,349.67 372.832,306.67 372.5,263.5 Z"/></g>
<g><path style="opacity:1" fill="#4a4844" d="M 306.5,263.5 C 307.494,273.987 307.828,284.654 307.5,295.5C 221.831,295.833 136.164,295.5 50.5,294.5C 50.6236,293.893 50.9569,293.56 51.5,293.5C 136.332,294.499 221.332,294.833 306.5,294.5C 306.5,284.167 306.5,273.833 306.5,263.5 Z"/></g>
<g><path style="opacity:1" fill="#56544f" d="M 388.5,263.5 C 388.5,273.833 388.5,284.167 388.5,294.5C 400.833,294.5 413.167,294.5 425.5,294.5C 413.011,295.495 400.344,295.829 387.5,295.5C 387.172,284.654 387.506,273.987 388.5,263.5 Z"/></g>
<g><path style="opacity:1" fill="#58a0a4" d="M 447.5,303.5 C 447.938,303.435 448.272,303.601 448.5,304C 440.189,314.814 430.189,323.648 418.5,330.5C 408.5,330.5 398.5,330.5 388.5,330.5C 388.5,323.833 388.5,317.167 388.5,310.5C 400.678,310.828 412.678,310.495 424.5,309.5C 432.557,308.903 440.224,306.903 447.5,303.5 Z"/></g>
<g><path style="opacity:1" fill="#58a0a4" d="M 22.5,310.5 C 117.167,310.5 211.833,310.5 306.5,310.5C 306.5,317.167 306.5,323.833 306.5,330.5C 211.833,330.5 117.167,330.5 22.5,330.5C 17.3307,329.027 14.6641,325.527 14.5,320C 14.8248,314.843 17.4915,311.677 22.5,310.5 Z"/></g>
<g><path style="opacity:1" fill="#386769" d="M 22.5,310.5 C 117.332,309.501 212.332,309.167 307.5,309.5C 307.5,316.833 307.5,324.167 307.5,331.5C 212.332,331.833 117.332,331.499 22.5,330.5C 117.167,330.5 211.833,330.5 306.5,330.5C 306.5,323.833 306.5,317.167 306.5,310.5C 211.833,310.5 117.167,310.5 22.5,310.5 Z"/></g>
<g><path style="opacity:1" fill="#356365" d="M 424.5,309.5 C 412.678,310.495 400.678,310.828 388.5,310.5C 388.5,317.167 388.5,323.833 388.5,330.5C 398.5,330.5 408.5,330.5 418.5,330.5C 420.833,330.5 423.167,330.5 425.5,330.5C 413.011,331.495 400.344,331.829 387.5,331.5C 387.5,324.167 387.5,316.833 387.5,309.5C 399.833,309.5 412.167,309.5 424.5,309.5 Z"/></g>
<g><path style="opacity:1" fill="#68313c" d="M 83.5,346.5 C 157.998,345.501 232.665,345.167 307.5,345.5C 307.825,353.019 307.492,360.352 306.5,367.5C 306.5,360.5 306.5,353.5 306.5,346.5C 232.167,346.5 157.833,346.5 83.5,346.5 Z"/></g>
<g><path style="opacity:1" fill="#6a323d" d="M 487.5,346.5 C 454.5,346.5 421.5,346.5 388.5,346.5C 388.5,353.5 388.5,360.5 388.5,367.5C 387.508,360.352 387.175,353.019 387.5,345.5C 421.004,345.168 454.338,345.502 487.5,346.5 Z"/></g>
<g><path style="opacity:1" fill="#fd7792" d="M 83.5,346.5 C 157.833,346.5 232.167,346.5 306.5,346.5C 306.5,353.5 306.5,360.5 306.5,367.5C 231.499,367.333 156.499,367.5 81.5,368C 61.3511,372.151 47.1844,383.651 39,402.5C 30.6211,433.237 40.4544,456.07 68.5,471C 72.9809,472.954 77.6475,474.287 82.5,475C 165.5,475.667 248.5,475.667 331.5,475C 334.789,473.59 336.456,471.09 336.5,467.5C 345.251,467.803 353.918,467.47 362.5,466.5C 362.245,470.493 363.911,473.326 367.5,475C 408.167,475.333 448.833,475.667 489.5,476C 498.82,482.621 498.82,489.288 489.5,496C 352.5,496.667 215.5,496.667 78.5,496C 53.8888,491.384 35.3888,478.218 23,456.5C 7.461,421.561 13.2943,390.727 40.5,364C 52.9938,353.757 67.3271,347.923 83.5,346.5 Z"/></g>
<g><path style="opacity:1" fill="#fd7792" d="M 487.5,346.5 C 496.033,349.585 498.199,355.252 494,363.5C 492.681,365.487 490.848,366.654 488.5,367C 455.168,367.5 421.835,367.667 388.5,367.5C 388.5,360.5 388.5,353.5 388.5,346.5C 421.5,346.5 454.5,346.5 487.5,346.5 Z"/></g>
<g><path style="opacity:0.999" fill="#fdf5e6" d="M 428.5,382.5 C 415.225,408.166 415.225,433.832 428.5,459.5C 407.993,459.17 387.66,459.503 367.5,460.5C 364.428,461.301 362.762,463.301 362.5,466.5C 353.918,467.47 345.251,467.803 336.5,467.5C 336.556,464.439 335.222,462.272 332.5,461C 249.5,460.667 166.5,460.333 83.5,460C 60.5277,453.569 49.6944,438.403 51,414.5C 54.9974,397.99 65.1641,387.49 81.5,383C 156.833,382.5 232.166,382.333 307.5,382.5C 307.333,393.172 307.5,403.839 308,414.5C 310.981,418.696 314.814,419.529 319.5,417C 329,408.167 338.5,399.333 348,390.5C 357.804,399.303 367.304,408.47 376.5,418C 380.987,419.378 384.487,418.212 387,414.5C 387.5,403.839 387.667,393.172 387.5,382.5C 401.167,382.5 414.833,382.5 428.5,382.5 Z"/></g>
<g><path style="opacity:1" fill="#fef0d5" d="M 428.5,382.5 C 438.855,382.168 449.188,382.501 459.5,383.5C 447.968,407.969 447.634,432.636 458.5,457.5C 448.889,459.474 438.889,460.141 428.5,459.5C 415.225,433.832 415.225,408.166 428.5,382.5 Z"/></g>
<g><path style="opacity:1" fill="#aba598" d="M 458.5,457.5 C 459.404,458.209 459.737,459.209 459.5,460.5C 428.833,460.5 398.167,460.5 367.5,460.5C 387.66,459.503 407.993,459.17 428.5,459.5C 438.889,460.141 448.889,459.474 458.5,457.5 Z"/></g>
</svg>
