<?xml version="1.0" encoding="UTF-8"?>
<!DOCTYPE svg PUBLIC "-//W3C//DTD SVG 1.1//EN" "http://www.w3.org/Graphics/SVG/1.1/DTD/svg11.dtd">
<svg xmlns="http://www.w3.org/2000/svg" version="1.1" width="512px" height="512px" style="shape-rendering:geometricPrecision; text-rendering:geometricPrecision; image-rendering:optimizeQuality; fill-rule:evenodd; clip-rule:evenodd" xmlns:xlink="http://www.w3.org/1999/xlink">
<g><path style="opacity:0.984" fill="#010101" d="M 511.5,290.5 C 511.5,357.5 511.5,424.5 511.5,491.5C 507.842,500.651 501.176,506.485 491.5,509C 334.167,509.667 176.833,509.667 19.5,509C 9.82441,506.485 3.15774,500.651 -0.5,491.5C -0.5,477.167 -0.5,462.833 -0.5,448.5C 1.37183,446.396 3.70516,445.063 6.5,444.5C 9.66418,445.01 12.1642,446.676 14,449.5C 14.3333,461.833 14.6667,474.167 15,486.5C 16.0571,490.391 18.5571,492.724 22.5,493.5C 177.666,494.666 332.999,494.833 488.5,494C 492.36,492.807 494.86,490.307 496,486.5C 496.667,422.5 496.667,358.5 496,294.5C 495.167,291 493,288.833 489.5,288C 483.509,287.501 477.509,287.334 471.5,287.5C 321.5,287.333 171.5,287.5 21.5,288C 18.4173,288.786 16.2506,290.619 15,293.5C 14.6667,337.5 14.3333,381.5 14,425.5C 12.5236,428.667 10.0236,430.333 6.5,430.5C 3.34772,430.429 1.01439,429.095 -0.5,426.5C -0.5,381.167 -0.5,335.833 -0.5,290.5C 1.99035,282.505 7.15701,276.838 15,273.5C 15.3333,203.167 15.6667,132.833 16,62.5C 19.0855,50.415 26.5855,42.5817 38.5,39C 82.4987,38.5 126.499,38.3333 170.5,38.5C 169.92,29.6689 170.753,21.0022 173,12.5C 175.946,7.55507 180.112,4.05507 185.5,2C 232.167,1.33333 278.833,1.33333 325.5,2C 333.641,5.13693 338.474,10.9703 340,19.5C 340.5,25.8246 340.666,32.1579 340.5,38.5C 384.501,38.3333 428.501,38.5 472.5,39C 484.415,42.5817 491.915,50.415 495,62.5C 495.333,132.833 495.667,203.167 496,273.5C 503.843,276.838 509.01,282.505 511.5,290.5 Z M 192.5,16.5 C 234.501,16.3333 276.501,16.5 318.5,17C 321.232,17.3981 323.065,18.8981 324,21.5C 324.499,27.1569 324.666,32.8236 324.5,38.5C 278.5,38.5 232.5,38.5 186.5,38.5C 186.334,32.8236 186.501,27.1569 187,21.5C 188.107,18.887 189.94,17.2203 192.5,16.5 Z"/></g>
<g><path style="opacity:1" fill="#527882" d="M 42.5,54.5 C 179.167,54.3333 315.834,54.5 452.5,55C 457.413,62.2874 458.747,70.1207 456.5,78.5C 454.572,76.5259 452.239,75.0259 449.5,74C 319.111,73.0053 188.778,73.3386 58.5,75C 55.1679,77.4912 52.6679,80.6578 51,84.5C 50.3333,140.5 50.3333,196.5 51,252.5C 52.4103,255.789 54.9103,257.456 58.5,257.5C 58.5,262.5 58.5,267.5 58.5,272.5C 49.5,272.5 40.5,272.5 31.5,272.5C 31.3333,202.499 31.5,132.499 32,62.5C 34.2421,58.0808 37.7421,55.4141 42.5,54.5 Z"/></g>
<g><path style="opacity:1" fill="#3d5858" d="M 42.5,54.5 C 184.333,53.3339 326.333,53.1673 468.5,54C 473.208,55.3782 476.708,58.2115 479,62.5C 479.5,132.499 479.667,202.499 479.5,272.5C 472.167,272.5 464.833,272.5 457.5,272.5C 457.5,267.167 457.5,261.833 457.5,256.5C 458.504,255.317 459.338,253.984 460,252.5C 460.667,196.5 460.667,140.5 460,84.5C 459.074,82.3083 457.907,80.3083 456.5,78.5C 458.747,70.1207 457.413,62.2874 452.5,55C 315.834,54.5 179.167,54.3333 42.5,54.5 Z"/></g>
<g><path style="opacity:1" fill="#010101" d="M 456.5,78.5 C 457.907,80.3083 459.074,82.3083 460,84.5C 460.667,140.5 460.667,196.5 460,252.5C 459.338,253.984 458.504,255.317 457.5,256.5C 455.883,257.038 454.216,257.371 452.5,257.5C 449.713,257.22 447.547,255.887 446,253.5C 445.5,198.501 445.333,143.501 445.5,88.5C 318.833,88.5 192.167,88.5 65.5,88.5C 65.6667,143.501 65.5,198.501 65,253.5C 63.3994,255.719 61.2328,257.052 58.5,257.5C 54.9103,257.456 52.4103,255.789 51,252.5C 50.3333,196.5 50.3333,140.5 51,84.5C 52.6679,80.6578 55.1679,77.4912 58.5,75C 188.778,73.3386 319.111,73.0053 449.5,74C 452.239,75.0259 454.572,76.5259 456.5,78.5 Z"/></g>
<g><path style="opacity:1" fill="#dceaef" d="M 452.5,257.5 C 452.5,262.5 452.5,267.5 452.5,272.5C 420.833,272.5 389.167,272.5 357.5,272.5C 357.167,248.824 357.5,225.157 358.5,201.5C 365.129,196.971 368.129,190.638 367.5,182.5C 369.199,182.34 370.866,182.506 372.5,183C 373.788,187.256 376.455,190.256 380.5,192C 391.5,192.667 402.5,192.667 413.5,192C 417.333,190.833 419.833,188.333 421,184.5C 421.667,166.5 421.667,148.5 421,130.5C 419.019,127.255 416.186,125.089 412.5,124C 401.833,123.333 391.167,123.333 380.5,124C 376.081,126.242 373.414,129.742 372.5,134.5C 370.801,134.66 369.134,134.494 367.5,134C 366.263,129.096 363.263,125.762 358.5,124C 336.463,123.067 314.463,123.401 292.5,125C 257.241,136.365 239.741,160.531 240,197.5C 241.167,200 243,201.833 245.5,203C 250.167,203.667 254.833,203.667 259.5,203C 264.278,198.771 269.278,194.771 274.5,191C 279.272,188.28 284.272,186.113 289.5,184.5C 290.442,184.608 291.275,184.941 292,185.5C 291.953,193.414 295.453,199.081 302.5,202.5C 303.5,225.824 303.833,249.157 303.5,272.5C 262.167,272.5 220.833,272.5 179.5,272.5C 179.333,261.828 179.5,251.161 180,240.5C 181.54,232.754 184.207,225.42 188,218.5C 194.055,210.778 199.722,202.778 205,194.5C 217.263,161.285 208.43,135.452 178.5,117C 172.11,115.058 167.277,116.891 164,122.5C 163.825,137.075 163.325,151.575 162.5,166C 155.253,166.812 148.086,166.646 141,165.5C 140.667,151.167 140.333,136.833 140,122.5C 136.723,116.891 131.89,115.058 125.5,117C 96.9782,134.556 87.8115,159.389 98,191.5C 102.43,200.699 108.097,209.033 115,216.5C 119.398,223.628 122.398,231.295 124,239.5C 124.5,250.495 124.667,261.495 124.5,272.5C 102.5,272.5 80.5,272.5 58.5,272.5C 58.5,267.5 58.5,262.5 58.5,257.5C 61.2328,257.052 63.3994,255.719 65,253.5C 65.5,198.501 65.6667,143.501 65.5,88.5C 192.167,88.5 318.833,88.5 445.5,88.5C 445.333,143.501 445.5,198.501 446,253.5C 447.547,255.887 449.713,257.22 452.5,257.5 Z"/></g>
<g><path style="opacity:1" fill="#fb9637" d="M 124.5,135.5 C 125.167,145.833 125.833,156.167 126.5,166.5C 127.276,172.882 130.609,177.382 136.5,180C 146.5,180.667 156.5,180.667 166.5,180C 172.389,178.278 176.056,174.445 177.5,168.5C 178.167,157.5 178.833,146.5 179.5,135.5C 197.137,151.92 200.303,170.92 189,192.5C 168.285,215.155 160.119,241.822 164.5,272.5C 156.167,272.5 147.833,272.5 139.5,272.5C 144.272,241.662 136.105,214.996 115,192.5C 103.766,170.927 106.933,151.927 124.5,135.5 Z"/></g>
<g><path style="opacity:1" fill="#804c1c" d="M 124.5,135.5 C 124.56,134.957 124.893,134.624 125.5,134.5C 126.499,145.146 126.832,155.813 126.5,166.5C 125.833,156.167 125.167,145.833 124.5,135.5 Z"/></g>
<g><path style="opacity:1" fill="#4c2d11" d="M 179.5,135.5 C 178.833,146.5 178.167,157.5 177.5,168.5C 177.168,157.147 177.501,145.814 178.5,134.5C 179.107,134.624 179.44,134.957 179.5,135.5 Z"/></g>
<g><path style="opacity:1" fill="#8bb7c2" d="M 298.5,138.5 C 316.503,138.333 334.503,138.5 352.5,139C 355.545,146.945 361.378,150.111 370,148.5C 378.845,150.339 384.345,147.006 386.5,138.5C 393.5,138.5 400.5,138.5 407.5,138.5C 407.5,151.5 407.5,164.5 407.5,177.5C 400.5,177.5 393.5,177.5 386.5,177.5C 386.262,173.862 384.596,171.029 381.5,169C 374.247,167.443 366.914,167.11 359.5,168C 356.667,169.5 354.5,171.667 353,174.5C 352.803,179.086 352.303,183.586 351.5,188C 336.833,188.667 322.167,188.667 307.5,188C 305.176,172.829 296.509,167.162 281.5,171C 271.271,174.359 262.438,179.859 255,187.5C 257.247,168.908 266.413,154.742 282.5,145C 287.819,142.497 293.152,140.331 298.5,138.5 Z"/></g>
<g><path style="opacity:1" fill="#a17e45" d="M 341.5,272.5 C 341.5,249.833 341.5,227.167 341.5,204.5C 334.167,204.5 326.833,204.5 319.5,204.5C 319.5,227.167 319.5,249.833 319.5,272.5C 318.502,249.673 318.169,226.673 318.5,203.5C 326.5,203.5 334.5,203.5 342.5,203.5C 342.831,226.673 342.498,249.673 341.5,272.5 Z"/></g>
<g><path style="opacity:1" fill="#c99d55" d="M 341.5,272.5 C 334.167,272.5 326.833,272.5 319.5,272.5C 319.5,249.833 319.5,227.167 319.5,204.5C 326.833,204.5 334.167,204.5 341.5,204.5C 341.5,227.167 341.5,249.833 341.5,272.5 Z"/></g>
<g><path style="opacity:1" fill="#567a83" d="M 457.5,256.5 C 457.5,261.833 457.5,267.167 457.5,272.5C 455.833,272.5 454.167,272.5 452.5,272.5C 452.5,267.5 452.5,262.5 452.5,257.5C 454.216,257.371 455.883,257.038 457.5,256.5 Z"/></g>
<g><path style="opacity:1" fill="#527882" d="M 471.5,287.5 C 471.709,288.922 472.209,290.255 473,291.5C 473.5,358.833 473.667,426.166 473.5,493.5C 323.167,493.5 172.833,493.5 22.5,493.5C 18.5571,492.724 16.0571,490.391 15,486.5C 14.6667,474.167 14.3333,461.833 14,449.5C 12.1642,446.676 9.66418,445.01 6.5,444.5C 6.5,439.833 6.5,435.167 6.5,430.5C 10.0236,430.333 12.5236,428.667 14,425.5C 14.3333,381.5 14.6667,337.5 15,293.5C 16.2506,290.619 18.4173,288.786 21.5,288C 171.5,287.5 321.5,287.333 471.5,287.5 Z"/></g>
<g><path style="opacity:1" fill="#3b5556" d="M 471.5,287.5 C 477.509,287.334 483.509,287.501 489.5,288C 493,288.833 495.167,291 496,294.5C 496.667,358.5 496.667,422.5 496,486.5C 494.86,490.307 492.36,492.807 488.5,494C 332.999,494.833 177.666,494.666 22.5,493.5C 172.833,493.5 323.167,493.5 473.5,493.5C 473.667,426.166 473.5,358.833 473,291.5C 472.209,290.255 471.709,288.922 471.5,287.5 Z"/></g>
<g><path style="opacity:1" fill="#020302" d="M 190.5,315.5 C 233.501,315.333 276.501,315.5 319.5,316C 337.407,320.594 344.907,332.094 342,350.5C 338.409,359.759 331.909,365.925 322.5,369C 277.833,369.667 233.167,369.667 188.5,369C 171.586,362.339 165.419,350.172 170,332.5C 174.262,323.634 181.095,317.967 190.5,315.5 Z"/></g>
<g><path style="opacity:1" fill="#9fe22c" d="M 192.5,330.5 C 234.501,330.333 276.501,330.5 318.5,331C 326.508,333.708 329.341,339.208 327,347.5C 325.413,350.756 322.913,352.923 319.5,354C 276.5,354.667 233.5,354.667 190.5,354C 183.93,350.345 181.763,344.845 184,337.5C 186.217,334.323 189.05,331.989 192.5,330.5 Z"/></g>
</svg>
