<?xml version="1.0" encoding="UTF-8"?>
<!DOCTYPE svg PUBLIC "-//W3C//DTD SVG 1.1//EN" "http://www.w3.org/Graphics/SVG/1.1/DTD/svg11.dtd">
<svg xmlns="http://www.w3.org/2000/svg" version="1.1" width="512px" height="512px" style="shape-rendering:geometricPrecision; text-rendering:geometricPrecision; image-rendering:optimizeQuality; fill-rule:evenodd; clip-rule:evenodd" xmlns:xlink="http://www.w3.org/1999/xlink">
<g><path style="opacity:0.898" fill="#000000" d="M 497.5,-0.5 C 500.167,-0.5 502.833,-0.5 505.5,-0.5C 509.146,2.93305 509.98,6.93305 508,11.5C 503.854,16.9473 499.354,22.1139 494.5,27C 485.884,28.7172 482.051,25.2172 483,16.5C 487.353,10.3225 492.186,4.6558 497.5,-0.5 Z"/></g>
<g><path style="opacity:0.915" fill="#000000" d="M 423.5,5.5 C 430.556,4.18415 434.556,7.01749 435.5,14C 434.358,24.7527 433.525,35.5861 433,46.5C 429.395,54.421 424.395,55.421 418,49.5C 417.534,37.4852 417.867,25.4852 419,13.5C 419.246,9.99526 420.746,7.32859 423.5,5.5 Z"/></g>
<g><path style="opacity:0.897" fill="#000000" d="M 464.5,39.5 C 472.656,38.8211 476.156,42.4878 475,50.5C 470.356,56.6446 465.523,62.6446 460.5,68.5C 450.888,72.0578 446.721,68.7245 448,58.5C 453.021,51.653 458.521,45.3197 464.5,39.5 Z"/></g>
<g><path style="opacity:0.977" fill="#020302" d="M 511.5,372.5 C 511.5,409.833 511.5,447.167 511.5,484.5C 506.833,497.833 497.833,506.833 484.5,511.5C 469.833,511.5 455.167,511.5 440.5,511.5C 438.422,509.61 437.089,507.276 436.5,504.5C 437.053,501.413 438.72,498.913 441.5,497C 455.568,496.948 469.568,496.281 483.5,495C 489.82,492.014 493.987,487.181 496,480.5C 496.667,445.5 496.667,410.5 496,375.5C 491.107,363.719 482.607,359.386 470.5,362.5C 459.398,367.022 454.731,375.355 456.5,387.5C 454.387,393.487 450.387,394.987 444.5,392C 443.299,391.097 442.465,389.931 442,388.5C 441.667,375.833 441.333,363.167 441,350.5C 435.486,337.958 426.319,333.624 413.5,337.5C 406.483,339.684 401.983,344.351 400,351.5C 399.5,363.162 399.333,374.829 399.5,386.5C 397.691,392.903 393.691,394.736 387.5,392C 386.299,391.097 385.465,389.931 385,388.5C 384.667,368.167 384.333,347.833 384,327.5C 378.404,315.451 369.238,311.117 356.5,314.5C 350.286,316.359 346.119,320.359 344,326.5C 343.5,346.164 343.333,365.831 343.5,385.5C 342.608,391.952 338.941,394.452 332.5,393C 330.951,391.786 329.785,390.286 329,388.5C 328.667,332.5 328.333,276.5 328,220.5C 322.827,208.5 313.994,203.833 301.5,206.5C 294.55,208.949 289.717,213.616 287,220.5C 286.667,291.167 286.333,361.833 286,432.5C 285.487,433.527 284.987,434.527 284.5,435.5C 281.02,437.967 277.353,438.134 273.5,436C 259.833,422.333 246.167,408.667 232.5,395C 221.559,387.288 211.059,387.788 201,396.5C 199.007,398.818 197.841,401.484 197.5,404.5C 195.726,410.411 196.559,416.078 200,421.5C 221.802,444.97 243.969,468.136 266.5,491C 272.237,494.969 278.57,496.802 285.5,496.5C 327.501,496.333 369.501,496.5 411.5,497C 414.789,498.41 416.456,500.91 416.5,504.5C 416.85,507.453 415.85,509.787 413.5,511.5C 367.167,511.5 320.833,511.5 274.5,511.5C 268.208,509.523 262.208,506.69 256.5,503C 234.333,480.167 212.167,457.333 190,434.5C 177.207,416.704 178.04,399.537 192.5,383C 207.157,371.752 222.49,370.752 238.5,380C 249.304,389.803 259.804,399.97 270,410.5C 270.5,377.168 270.667,343.835 270.5,310.5C 237.498,310.667 204.498,310.5 171.5,310C 166.893,309.561 164.56,307.061 164.5,302.5C 164.544,298.91 166.211,296.41 169.5,295C 203.165,294.5 236.832,294.333 270.5,294.5C 271.491,288.021 271.824,281.354 271.5,274.5C 221.5,274.5 171.5,274.5 121.5,274.5C 100.98,271.495 87.4799,260.161 81,240.5C 79.3619,207.548 79.0286,174.548 80,141.5C 90.2,113.137 110.367,101.304 140.5,106C 142.464,107.451 143.797,109.284 144.5,111.5C 144.755,115.493 143.089,118.326 139.5,120C 132.5,120.333 125.5,120.667 118.5,121C 113.701,121.896 109.701,124.063 106.5,127.5C 100.962,131.565 97.1284,136.898 95,143.5C 94.3333,173.833 94.3333,204.167 95,234.5C 97.8163,246.965 105.316,255.131 117.5,259C 168.832,259.5 220.166,259.667 271.5,259.5C 271.5,247.5 271.5,235.5 271.5,223.5C 274.752,203.688 286.418,192.688 306.5,190.5C 323.643,191.319 335.476,199.653 342,215.5C 343.375,226.111 343.875,236.778 343.5,247.5C 343.5,251.5 343.5,255.5 343.5,259.5C 360.17,259.667 376.837,259.5 393.5,259C 400.418,256.899 406.085,253.065 410.5,247.5C 413.708,243.752 415.874,239.418 417,234.5C 417.667,204.833 417.667,175.167 417,145.5C 413.509,132.675 405.342,124.509 392.5,121C 318.5,120.667 244.5,120.333 170.5,120C 167.692,118.207 166.026,115.707 165.5,112.5C 165.933,109.805 167.266,107.638 169.5,106C 243.5,105.333 317.5,105.333 391.5,106C 412.992,109.824 426.492,122.324 432,143.5C 432.667,173.5 432.667,203.5 432,233.5C 428.176,254.992 415.676,268.492 394.5,274C 377.503,274.5 360.503,274.667 343.5,274.5C 343.5,277.167 343.5,279.833 343.5,282.5C 343.5,286.5 343.5,290.5 343.5,294.5C 363.836,294.667 384.169,294.5 404.5,294C 414.932,292.117 423.932,287.617 431.5,280.5C 442.723,271.399 449.89,259.732 453,245.5C 453.667,208.167 453.667,170.833 453,133.5C 447.351,106.184 430.851,90.017 403.5,85C 304.5,84.3333 205.5,84.3333 106.5,85C 93.9256,87.6124 83.5922,93.7791 75.5,103.5C 67.8048,111.22 62.9714,120.553 61,131.5C 60.3333,170.167 60.3333,208.833 61,247.5C 67.8421,271.675 83.3421,287.175 107.5,294C 118.167,294.333 128.833,294.667 139.5,295C 142.892,296.542 144.892,299.042 145.5,302.5C 144.608,306.892 141.942,309.392 137.5,310C 96.2582,314.803 66.7582,298.637 49,261.5C 47.0392,256.323 45.7058,250.99 45,245.5C 44.0492,206.474 44.3825,167.474 46,128.5C 51.6899,101.808 67.1899,83.3078 92.5,73C 98.3605,71.0348 104.361,69.7015 110.5,69C 210.526,68.016 310.526,68.3494 410.5,70C 442.297,78.1312 461.464,98.2978 468,130.5C 468.667,170.167 468.667,209.833 468,249.5C 461.674,275.167 446.507,293.667 422.5,305C 412.778,308.432 402.778,310.599 392.5,311.5C 396.042,315.948 398.542,320.948 400,326.5C 419.426,316.057 436.426,319.057 451,335.5C 454.127,340.419 456.127,345.752 457,351.5C 475.654,341.63 491.987,344.63 506,360.5C 508.146,364.475 509.98,368.475 511.5,372.5 Z"/></g>
<g><path style="opacity:0.904" fill="#000000" d="M 511.5,77.5 C 511.5,79.5 511.5,81.5 511.5,83.5C 510.354,85.475 508.687,86.975 506.5,88C 496.732,91.067 486.898,93.9003 477,96.5C 469.892,94.6145 467.892,90.2811 471,83.5C 471.833,82.6667 472.667,81.8333 473.5,81C 482.167,78.3333 490.833,75.6667 499.5,73C 504.761,71.4742 508.761,72.9742 511.5,77.5 Z"/></g>
<g><path style="opacity:1" fill="#abeea8" d="M 431.5,280.5 C 428.126,280.674 424.793,281.174 421.5,282C 395.502,282.5 369.502,282.667 343.5,282.5C 343.5,279.833 343.5,277.167 343.5,274.5C 360.503,274.667 377.503,274.5 394.5,274C 415.676,268.492 428.176,254.992 432,233.5C 432.667,203.5 432.667,173.5 432,143.5C 426.492,122.324 412.992,109.824 391.5,106C 317.5,105.333 243.5,105.333 169.5,106C 167.266,107.638 165.933,109.805 165.5,112.5C 158.412,112.795 151.412,112.462 144.5,111.5C 143.797,109.284 142.464,107.451 140.5,106C 110.367,101.304 90.2,113.137 80,141.5C 79.0286,174.548 79.3619,207.548 81,240.5C 87.4799,260.161 100.98,271.495 121.5,274.5C 170.997,275.499 220.664,275.832 270.5,275.5C 270.5,277.833 270.5,280.167 270.5,282.5C 219.166,282.667 167.832,282.5 116.5,282C 92.2303,276.73 77.7303,261.897 73,237.5C 72.3333,196.5 72.3333,155.5 73,114.5C 73.236,110.661 74.0693,106.994 75.5,103.5C 83.5922,93.7791 93.9256,87.6124 106.5,85C 205.5,84.3333 304.5,84.3333 403.5,85C 430.851,90.017 447.351,106.184 453,133.5C 453.667,170.833 453.667,208.167 453,245.5C 449.89,259.732 442.723,271.399 431.5,280.5 Z"/></g>
<g><path style="opacity:1" fill="#95cf93" d="M 75.5,103.5 C 74.0693,106.994 73.236,110.661 73,114.5C 72.3333,155.5 72.3333,196.5 73,237.5C 77.7303,261.897 92.2303,276.73 116.5,282C 167.832,282.5 219.166,282.667 270.5,282.5C 270.5,286.5 270.5,290.5 270.5,294.5C 236.832,294.333 203.165,294.5 169.5,295C 166.211,296.41 164.544,298.91 164.5,302.5C 158.167,302.5 151.833,302.5 145.5,302.5C 144.892,299.042 142.892,296.542 139.5,295C 128.833,294.667 118.167,294.333 107.5,294C 83.3421,287.175 67.8421,271.675 61,247.5C 60.3333,208.833 60.3333,170.167 61,131.5C 62.9714,120.553 67.8048,111.22 75.5,103.5 Z"/></g>
<g><path style="opacity:1" fill="#95cf93" d="M 144.5,111.5 C 151.412,112.462 158.412,112.795 165.5,112.5C 166.026,115.707 167.692,118.207 170.5,120C 244.5,120.333 318.5,120.667 392.5,121C 405.342,124.509 413.509,132.675 417,145.5C 417.667,175.167 417.667,204.833 417,234.5C 415.874,239.418 413.708,243.752 410.5,247.5C 388.167,247.5 365.833,247.5 343.5,247.5C 343.875,236.778 343.375,226.111 342,215.5C 335.476,199.653 323.643,191.319 306.5,190.5C 286.418,192.688 274.752,203.688 271.5,223.5C 270.508,231.316 270.174,239.316 270.5,247.5C 227.499,247.667 184.499,247.5 141.5,247C 122.46,243.627 110.96,232.46 107,213.5C 106.5,184.835 106.333,156.169 106.5,127.5C 109.701,124.063 113.701,121.896 118.5,121C 125.5,120.667 132.5,120.333 139.5,120C 143.089,118.326 144.755,115.493 144.5,111.5 Z"/></g>
<g><path style="opacity:1" fill="#8abf88" d="M 106.5,127.5 C 106.333,156.169 106.5,184.835 107,213.5C 110.96,232.46 122.46,243.627 141.5,247C 184.499,247.5 227.499,247.667 270.5,247.5C 270.174,239.316 270.508,231.316 271.5,223.5C 271.5,235.5 271.5,247.5 271.5,259.5C 220.166,259.667 168.832,259.5 117.5,259C 105.316,255.131 97.8163,246.965 95,234.5C 94.3333,204.167 94.3333,173.833 95,143.5C 97.1284,136.898 100.962,131.565 106.5,127.5 Z"/></g>
<g><path style="opacity:1" fill="#efc484" d="M 343.5,385.5 C 348.589,386.572 352.422,384.905 355,380.5C 355.188,358.457 355.688,336.457 356.5,314.5C 369.238,311.117 378.404,315.451 384,327.5C 384.333,347.833 384.667,368.167 385,388.5C 385.465,389.931 386.299,391.097 387.5,392C 393.691,394.736 397.691,392.903 399.5,386.5C 405.56,386.724 409.727,384.057 412,378.5C 412.184,364.759 412.684,351.092 413.5,337.5C 426.319,333.624 435.486,337.958 441,350.5C 441.333,363.167 441.667,375.833 442,388.5C 442.465,389.931 443.299,391.097 444.5,392C 450.387,394.987 454.387,393.487 456.5,387.5C 458.829,385.951 461.496,385.117 464.5,385C 466.726,383.773 468.226,381.939 469,379.5C 469.258,373.785 469.758,368.118 470.5,362.5C 482.607,359.386 491.107,363.719 496,375.5C 496.667,410.5 496.667,445.5 496,480.5C 493.987,487.181 489.82,492.014 483.5,495C 469.568,496.281 455.568,496.948 441.5,497C 438.72,498.913 437.053,501.413 436.5,504.5C 429.833,504.5 423.167,504.5 416.5,504.5C 416.456,500.91 414.789,498.41 411.5,497C 369.501,496.5 327.501,496.333 285.5,496.5C 255.83,466.163 226.496,435.496 197.5,404.5C 197.841,401.484 199.007,398.818 201,396.5C 211.059,387.788 221.559,387.288 232.5,395C 246.167,408.667 259.833,422.333 273.5,436C 277.353,438.134 281.02,437.967 284.5,435.5C 287.631,438.129 290.631,440.962 293.5,444C 295.92,444.687 298.087,444.187 300,442.5C 300.17,363.763 300.67,285.097 301.5,206.5C 313.994,203.833 322.827,208.5 328,220.5C 328.333,276.5 328.667,332.5 329,388.5C 329.785,390.286 330.951,391.786 332.5,393C 338.941,394.452 342.608,391.952 343.5,385.5 Z"/></g>
<g><path style="opacity:1" fill="#eaa960" d="M 301.5,206.5 C 300.67,285.097 300.17,363.763 300,442.5C 298.087,444.187 295.92,444.687 293.5,444C 290.631,440.962 287.631,438.129 284.5,435.5C 284.987,434.527 285.487,433.527 286,432.5C 286.333,361.833 286.667,291.167 287,220.5C 289.717,213.616 294.55,208.949 301.5,206.5 Z"/></g>
<g><path style="opacity:1" fill="#8abe88" d="M 343.5,247.5 C 365.833,247.5 388.167,247.5 410.5,247.5C 406.085,253.065 400.418,256.899 393.5,259C 376.837,259.5 360.17,259.667 343.5,259.5C 343.5,255.5 343.5,251.5 343.5,247.5 Z"/></g>
<g><path style="opacity:1" fill="#6a9469" d="M 121.5,274.5 C 171.5,274.5 221.5,274.5 271.5,274.5C 271.824,281.354 271.491,288.021 270.5,294.5C 270.5,290.5 270.5,286.5 270.5,282.5C 270.5,280.167 270.5,277.833 270.5,275.5C 220.664,275.832 170.997,275.499 121.5,274.5 Z"/></g>
<g><path style="opacity:0.91" fill="#000000" d="M -0.5,297.5 C -0.5,294.833 -0.5,292.167 -0.5,289.5C 0.626561,288.878 1.62656,288.045 2.5,287C 12.6433,283.756 22.81,280.589 33,277.5C 37.8333,278.333 40.6667,281.167 41.5,286C 41.0969,288.887 39.7635,291.221 37.5,293C 28.8333,295.667 20.1667,298.333 11.5,301C 6.55598,302.407 2.55598,301.241 -0.5,297.5 Z"/></g>
<g><path style="opacity:1" fill="#95ce93" d="M 431.5,280.5 C 423.932,287.617 414.932,292.117 404.5,294C 384.169,294.5 363.836,294.667 343.5,294.5C 343.5,290.5 343.5,286.5 343.5,282.5C 369.502,282.667 395.502,282.5 421.5,282C 424.793,281.174 428.126,280.674 431.5,280.5 Z"/></g>
<g><path style="opacity:0.909" fill="#000000" d="M 53.5,303.5 C 63.6952,305.558 65.8619,310.891 60,319.5C 44.7898,337.041 29.9565,354.875 15.5,373C 12.0329,375.786 8.3662,376.12 4.5,374C 0.733333,369.633 0.566667,365.133 4,360.5C 19.0437,343.125 33.7103,325.458 48,307.5C 49.8121,306.023 51.6455,304.69 53.5,303.5 Z"/></g>
<g><path style="opacity:1" fill="#eaa960" d="M 356.5,314.5 C 355.688,336.457 355.188,358.457 355,380.5C 352.422,384.905 348.589,386.572 343.5,385.5C 343.333,365.831 343.5,346.164 344,326.5C 346.119,320.359 350.286,316.359 356.5,314.5 Z"/></g>
<g><path style="opacity:0.914" fill="#000000" d="M 83.5,320.5 C 91.2779,320.446 94.6112,324.279 93.5,332C 92.8946,342.519 92.0613,353.019 91,363.5C 88.5647,368.224 84.7314,369.724 79.5,368C 76.3843,365.6 75.0509,362.433 75.5,358.5C 76.2504,347.827 77.0837,337.161 78,326.5C 79.0209,323.65 80.8542,321.65 83.5,320.5 Z"/></g>
<g><path style="opacity:1" fill="#e6a75f" d="M 413.5,337.5 C 412.684,351.092 412.184,364.759 412,378.5C 409.727,384.057 405.56,386.724 399.5,386.5C 399.333,374.829 399.5,363.162 400,351.5C 401.983,344.351 406.483,339.684 413.5,337.5 Z"/></g>
<g><path style="opacity:1" fill="#e3a45e" d="M 470.5,362.5 C 469.758,368.118 469.258,373.785 469,379.5C 468.226,381.939 466.726,383.773 464.5,385C 461.496,385.117 458.829,385.951 456.5,387.5C 454.731,375.355 459.398,367.022 470.5,362.5 Z"/></g>
<g><path style="opacity:1" fill="#e7a75f" d="M 197.5,404.5 C 226.496,435.496 255.83,466.163 285.5,496.5C 278.57,496.802 272.237,494.969 266.5,491C 243.969,468.136 221.802,444.97 200,421.5C 196.559,416.078 195.726,410.411 197.5,404.5 Z"/></g>
</svg>
