<?xml version="1.0" encoding="UTF-8"?>
<!DOCTYPE svg PUBLIC "-//W3C//DTD SVG 1.1//EN" "http://www.w3.org/Graphics/SVG/1.1/DTD/svg11.dtd">
<svg xmlns="http://www.w3.org/2000/svg" version="1.1" width="512px" height="512px" style="shape-rendering:geometricPrecision; text-rendering:geometricPrecision; image-rendering:optimizeQuality; fill-rule:evenodd; clip-rule:evenodd" xmlns:xlink="http://www.w3.org/1999/xlink">
<g><path style="opacity:0.992" fill="#000000" d="M 76.5,-0.5 C 195.833,-0.5 315.167,-0.5 434.5,-0.5C 476.675,8.09095 502.342,33.4243 511.5,75.5C 511.5,195.167 511.5,314.833 511.5,434.5C 502.833,477.167 477.167,502.833 434.5,511.5C 315.167,511.5 195.833,511.5 76.5,511.5C 34.3248,502.909 8.65811,477.576 -0.5,435.5C -0.5,315.5 -0.5,195.5 -0.5,75.5C 8.65811,33.4243 34.3248,8.09095 76.5,-0.5 Z"/></g>
<g><path style="opacity:1" fill="#bfdafe" d="M 79.5,19.5 C 195.834,19.3333 312.167,19.5 428.5,20C 462.648,25.8136 483.481,45.647 491,79.5C 491.667,195.833 491.667,312.167 491,428.5C 487.157,455.337 472.991,474.504 448.5,486C 442.13,488.808 435.463,490.475 428.5,491C 312.167,491.667 195.833,491.667 79.5,491C 45.647,483.481 25.8136,462.648 20,428.5C 19.3333,312.167 19.3333,195.833 20,79.5C 27.3473,46.9864 47.1807,26.9864 79.5,19.5 Z"/></g>
<g><path style="opacity:1" fill="#010202" d="M 90.5,64.5 C 89.7326,65.172 89.0659,66.0053 88.5,67C 121.498,67.5 154.498,67.6666 187.5,67.5C 196.02,69.2018 198.853,74.2018 196,82.5C 194.363,84.8102 192.196,86.3102 189.5,87C 155.833,87.3333 122.167,87.6667 88.5,88C 93.7901,95.413 98.9568,102.913 104,110.5C 105.834,122.336 101.001,126.836 89.5,124C 80.3333,110.833 71.1667,97.6667 62,84.5C 59.7552,81.1191 59.0885,77.4525 60,73.5C 68.9148,60.672 77.5814,47.672 86,34.5C 92.4512,27.6898 98.4512,28.0231 104,35.5C 104.817,38.9643 104.483,42.2976 103,45.5C 98.6108,51.7157 94.4441,58.049 90.5,64.5 Z"/></g>
<g><path style="opacity:1" fill="#99afcc" d="M 90.5,64.5 C 122.654,66.1646 154.987,67.1646 187.5,67.5C 154.498,67.6666 121.498,67.5 88.5,67C 89.0659,66.0053 89.7326,65.172 90.5,64.5 Z"/></g>
<g><path style="opacity:1" fill="#060709" d="M 228.5,67.5 C 239.777,66.7554 243.943,71.7554 241,82.5C 234.091,89.6495 228.091,88.9829 223,80.5C 221.571,74.7001 223.404,70.3668 228.5,67.5 Z"/></g>
<g><path style="opacity:1" fill="#020203" d="M 273.5,67.5 C 299.169,67.3334 324.835,67.5 350.5,68C 407.557,77.3901 441.057,110.557 451,167.5C 453.648,218.462 432.814,256.295 388.5,281C 375.161,287.168 361.161,290.835 346.5,292C 320.167,292.667 293.833,292.667 267.5,292C 261.892,289.182 259.725,284.682 261,278.5C 262.167,276 264,274.167 266.5,273C 294.167,272.667 321.833,272.333 349.5,272C 394.896,263.604 422.063,236.77 431,191.5C 433.709,150.416 417.543,119.249 382.5,98C 371.29,91.8638 359.29,88.5305 346.5,88C 322.5,87.6667 298.5,87.3333 274.5,87C 265.635,80.8692 265.302,74.3692 273.5,67.5 Z"/></g>
<g><path style="opacity:1" fill="#030302" d="M 172.5,110.5 C 185.275,108.743 196.108,112.41 205,121.5C 220.106,146.043 234.439,171.043 248,196.5C 249.69,208.764 246.19,219.264 237.5,228C 230.581,232.376 223.748,236.876 217,241.5C 209.449,280.851 221.282,313.018 252.5,338C 260.609,343.388 269.276,347.721 278.5,351C 280.167,351.667 281.833,351.667 283.5,351C 291.056,346.111 299.056,342.111 307.5,339C 323.288,336.978 335.122,342.811 343,356.5C 355.333,377.833 367.667,399.167 380,420.5C 384.605,436.602 380.105,449.435 366.5,459C 329.233,484.231 289.566,488.565 247.5,472C 203.313,453.487 167.813,424.32 141,384.5C 110.754,340.426 94.9206,291.593 93.5,238C 92.8475,202.624 103.348,171.124 125,143.5C 138.753,129.384 154.587,118.384 172.5,110.5 Z"/></g>
<g><path style="opacity:1" fill="#fbea7e" d="M 176.5,130.5 C 182.544,129.679 187.377,131.679 191,136.5C 203.333,157.5 215.667,178.5 228,199.5C 228.701,202.928 228.368,206.262 227,209.5C 222.945,213.443 218.445,216.776 213.5,219.5C 197.105,193.247 181.271,166.58 166,139.5C 165.251,138.365 165.417,137.365 166.5,136.5C 169.897,134.474 173.23,132.474 176.5,130.5 Z"/></g>
<g><path style="opacity:1" fill="#fdf5bf" d="M 147.5,149.5 C 164.811,177.44 181.644,205.773 198,234.5C 188.234,280.867 201.067,319.7 236.5,351C 249.03,360.266 262.697,367.432 277.5,372.5C 293.96,400.585 310.293,428.751 326.5,457C 301.755,463.943 277.421,462.61 253.5,453C 207.502,432.418 172.002,400.251 147,356.5C 125.24,319.462 114.074,279.462 113.5,236.5C 113.185,210.42 120.019,186.42 134,164.5C 138.394,159.279 142.894,154.279 147.5,149.5 Z"/></g>
<g><path style="opacity:1" fill="#fbea7e" d="M 310.5,358.5 C 315.351,357.784 319.518,359.117 323,362.5C 335.667,383.833 348.333,405.167 361,426.5C 361.854,430.625 361.52,434.625 360,438.5C 355.344,442.329 350.344,445.663 345,448.5C 329.333,421.833 313.667,395.167 298,368.5C 297.251,367.365 297.417,366.365 298.5,365.5C 302.563,363.14 306.563,360.807 310.5,358.5 Z"/></g>
</svg>
