<?xml version="1.0" encoding="UTF-8"?>
<!DOCTYPE svg PUBLIC "-//W3C//DTD SVG 1.1//EN" "http://www.w3.org/Graphics/SVG/1.1/DTD/svg11.dtd">
<svg xmlns="http://www.w3.org/2000/svg" version="1.1" width="512px" height="512px" style="shape-rendering:geometricPrecision; text-rendering:geometricPrecision; image-rendering:optimizeQuality; fill-rule:evenodd; clip-rule:evenodd" xmlns:xlink="http://www.w3.org/1999/xlink">
<g><path style="opacity:0.973" fill="#020101" d="M 72.5,19.5 C 71.8923,22.9583 69.8923,25.4583 66.5,27C 61.8452,27.4992 57.1785,27.6658 52.5,27.5C 32.8265,29.668 20.3265,40.3346 15,59.5C 14.3333,162.167 14.3333,264.833 15,367.5C 17.8548,387.187 29.0215,398.854 48.5,402.5C 84.9962,403.498 121.663,403.832 158.5,403.5C 158.5,366.167 158.5,328.833 158.5,291.5C 163.067,269.6 176.4,256.933 198.5,253.5C 237.833,253.5 277.167,253.5 316.5,253.5C 316.832,189.664 316.499,125.998 315.5,62.5C 312.552,43.3841 301.552,31.8841 282.5,28C 218.833,27.6667 155.167,27.3333 91.5,27C 88.7197,25.0867 87.053,22.5867 86.5,19.5C 86.9382,15.8078 88.9382,13.3078 92.5,12C 157.522,11.0324 222.522,11.3657 287.5,13C 315.344,20.519 330.011,38.6857 331.5,67.5C 343.543,67.1623 355.543,67.6623 367.5,69C 373.282,70.3694 378.615,72.7027 383.5,76C 407.667,98.8333 431.167,122.333 454,146.5C 459.574,154.221 462.574,162.888 463,172.5C 463.5,199.165 463.667,225.831 463.5,252.5C 488.442,252.795 504.442,264.795 511.5,288.5C 511.5,329.833 511.5,371.167 511.5,412.5C 509.66,414.669 507.326,416.002 504.5,416.5C 500.854,416.076 498.354,414.076 497,410.5C 496.667,370.833 496.333,331.167 496,291.5C 492.5,280 485,272.5 473.5,269C 382.501,268.5 291.501,268.333 200.5,268.5C 187.817,269.938 178.984,276.605 174,288.5C 172.849,317.453 172.349,346.453 172.5,375.5C 172.667,403.167 172.833,430.833 173,458.5C 176.19,472.858 185.024,481.191 199.5,483.5C 290.834,483.667 382.167,483.5 473.5,483C 484.974,479.526 492.474,472.026 496,460.5C 496.333,452.167 496.667,443.833 497,435.5C 498.913,432.72 501.413,431.053 504.5,430.5C 507.295,431.063 509.628,432.396 511.5,434.5C 511.5,444.167 511.5,453.833 511.5,463.5C 505.314,484.516 491.314,496.349 469.5,499C 379.5,499.667 289.5,499.667 199.5,499C 176.787,496.285 162.953,483.785 158,461.5C 157.5,447.171 157.333,432.837 157.5,418.5C 118.466,418.964 79.4656,418.464 40.5,417C 18.3543,410.358 4.68767,395.858 -0.5,373.5C -0.5,267.833 -0.5,162.167 -0.5,56.5C 9.66651,23.7282 31.9998,8.89486 66.5,12C 70.531,12.9029 72.531,15.4029 72.5,19.5 Z"/></g>
<g><path style="opacity:1" fill="#dc626d" d="M 72.5,19.5 C 77.1667,19.5 81.8333,19.5 86.5,19.5C 87.053,22.5867 88.7197,25.0867 91.5,27C 155.167,27.3333 218.833,27.6667 282.5,28C 301.552,31.8841 312.552,43.3841 315.5,62.5C 315.5,125.833 315.5,189.167 315.5,252.5C 276.33,252.168 237.33,252.501 198.5,253.5C 176.4,256.933 163.067,269.6 158.5,291.5C 157.502,328.33 157.168,365.33 157.5,402.5C 122.5,402.5 87.5,402.5 52.5,402.5C 42.6625,395.148 36.1625,385.481 33,373.5C 32.3333,267.833 32.3333,162.167 33,56.5C 36.5404,44.7257 43.0404,35.059 52.5,27.5C 57.1785,27.6658 61.8452,27.4992 66.5,27C 69.8923,25.4583 71.8923,22.9583 72.5,19.5 Z"/></g>
<g><path style="opacity:1" fill="#d94a54" d="M 52.5,27.5 C 43.0404,35.059 36.5404,44.7257 33,56.5C 32.3333,162.167 32.3333,267.833 33,373.5C 36.1625,385.481 42.6625,395.148 52.5,402.5C 51.1667,402.5 49.8333,402.5 48.5,402.5C 29.0215,398.854 17.8548,387.187 15,367.5C 14.3333,264.833 14.3333,162.167 15,59.5C 20.3265,40.3346 32.8265,29.668 52.5,27.5 Z"/></g>
<g><path style="opacity:1" fill="#e6ebf5" d="M 331.5,83.5 C 340.25,83.0901 348.916,83.5901 357.5,85C 359.333,86.8333 361.167,88.6667 363,90.5C 364.051,106.119 365.051,121.786 366,137.5C 370.354,153.187 380.521,162.687 396.5,166C 410.167,166.333 423.833,166.667 437.5,167C 441.146,168.076 443.98,170.243 446,173.5C 447.473,199.769 447.973,226.102 447.5,252.5C 408.833,252.5 370.167,252.5 331.5,252.5C 331.5,196.167 331.5,139.833 331.5,83.5 Z"/></g>
<g><path style="opacity:1" fill="#040202" d="M 73.5,143.5 C 68.5,143.5 63.5,143.5 58.5,143.5C 58.5,151.5 58.5,159.5 58.5,167.5C 56.3867,173.487 52.3867,174.987 46.5,172C 45.8742,171.25 45.3742,170.416 45,169.5C 44.1764,144.124 44.343,118.791 45.5,93.5C 46.5,92.6667 47.5,91.8333 48.5,91C 57.8333,90.3333 67.1667,90.3333 76.5,91C 95.6868,98.222 101.52,111.389 94,130.5C 89.3438,138.246 82.5105,142.579 73.5,143.5 Z"/></g>
<g><path style="opacity:1" fill="#040101" d="M 126.5,90.5 C 131.247,90.1357 135.081,91.8023 138,95.5C 146.137,117.578 154.47,139.578 163,161.5C 165.288,170.152 162.121,173.985 153.5,173C 151.185,171.891 149.685,170.057 149,167.5C 147.722,163.835 146.556,160.168 145.5,156.5C 135.161,156.334 124.828,156.5 114.5,157C 112.546,162.205 110.213,167.205 107.5,172C 102.903,174.54 99.0696,173.707 96,169.5C 95.2989,166.072 95.6323,162.738 97,159.5C 105.196,138.578 113.196,117.578 121,96.5C 122.36,93.9774 124.193,91.9774 126.5,90.5 Z"/></g>
<g><path style="opacity:1" fill="#050102" d="M 190.5,90.5 C 201.845,89.7523 212.178,92.5856 221.5,99C 226.375,105.627 224.875,110.127 217,112.5C 212.269,110.22 207.435,108.053 202.5,106C 199.167,105.333 195.833,105.333 192.5,106C 186.425,108.484 185.092,112.484 188.5,118C 198.368,121.953 208.035,126.286 217.5,131C 227.616,140.272 229.116,150.772 222,162.5C 212.166,172.773 200.333,175.94 186.5,172C 178.784,169.565 172.617,165.065 168,158.5C 167.565,149.938 171.398,147.105 179.5,150C 187.456,158.657 196.79,160.657 207.5,156C 212.313,151.959 212.646,147.625 208.5,143C 199.201,139.008 189.867,135.008 180.5,131C 169.273,120.274 168.606,108.94 178.5,97C 182.2,94.0983 186.2,91.9317 190.5,90.5 Z"/></g>
<g><path style="opacity:1" fill="#050202" d="M 255.5,90.5 C 266.845,89.7523 277.178,92.5856 286.5,99C 291.446,105.943 289.779,110.443 281.5,112.5C 276.985,110.19 272.319,108.023 267.5,106C 264.167,105.333 260.833,105.333 257.5,106C 251.425,108.484 250.092,112.484 253.5,118C 263.368,121.953 273.035,126.286 282.5,131C 292.674,140.226 294.174,150.726 287,162.5C 277.166,172.773 265.333,175.94 251.5,172C 243.784,169.565 237.617,165.065 233,158.5C 232.565,149.938 236.398,147.105 244.5,150C 252.456,158.657 261.79,160.657 272.5,156C 277.313,151.959 277.646,147.625 273.5,143C 264.201,139.008 254.867,135.008 245.5,131C 234.292,120.259 233.625,108.925 243.5,97C 247.2,94.0983 251.2,91.9317 255.5,90.5 Z"/></g>
<g><path style="opacity:1" fill="#d3ddeb" d="M 379.5,94.5 C 398.632,113.132 417.632,131.965 436.5,151C 423.5,151.667 410.5,151.667 397.5,151C 388.333,148.5 382.5,142.667 380,133.5C 379.5,120.504 379.333,107.504 379.5,94.5 Z"/></g>
<g><path style="opacity:1" fill="#da616c" d="M 59.5,105.5 C 64.5111,105.334 69.5111,105.501 74.5,106C 84.7766,112.922 85.1099,120.255 75.5,128C 70.1771,128.499 64.8437,128.666 59.5,128.5C 59.5,120.833 59.5,113.167 59.5,105.5 Z"/></g>
<g><path style="opacity:1" fill="#d55f6a" d="M 138.5,140.5 C 132.69,141.49 126.69,141.823 120.5,141.5C 123.11,132.948 126.277,124.615 130,116.5C 132.943,124.497 135.776,132.497 138.5,140.5 Z"/></g>
<g><path style="opacity:1" fill="#57272b" d="M 138.5,140.5 C 139.043,140.56 139.376,140.893 139.5,141.5C 133.012,142.817 126.678,142.817 120.5,141.5C 126.69,141.823 132.69,141.49 138.5,140.5 Z"/></g>
<g><path style="opacity:1" fill="#733339" d="M 73.5,143.5 C 69.03,144.486 64.3633,144.819 59.5,144.5C 59.8254,152.352 59.492,160.018 58.5,167.5C 58.5,159.5 58.5,151.5 58.5,143.5C 63.5,143.5 68.5,143.5 73.5,143.5 Z"/></g>
<g><path style="opacity:1" fill="#924249" d="M 315.5,62.5 C 316.499,125.998 316.832,189.664 316.5,253.5C 277.167,253.5 237.833,253.5 198.5,253.5C 237.33,252.501 276.33,252.168 315.5,252.5C 315.5,189.167 315.5,125.833 315.5,62.5 Z"/></g>
<g><path style="opacity:1" fill="#8f9298" d="M 331.5,83.5 C 331.5,139.833 331.5,196.167 331.5,252.5C 370.167,252.5 408.833,252.5 447.5,252.5C 408.67,253.499 369.67,253.832 330.5,253.5C 330.168,196.664 330.501,139.998 331.5,83.5 Z"/></g>
<g><path style="opacity:1" fill="#fdde7c" d="M 200.5,268.5 C 291.501,268.333 382.501,268.5 473.5,269C 485,272.5 492.5,280 496,291.5C 496.333,331.167 496.667,370.833 497,410.5C 498.354,414.076 500.854,416.076 504.5,416.5C 504.5,421.167 504.5,425.833 504.5,430.5C 501.413,431.053 498.913,432.72 497,435.5C 496.667,443.833 496.333,452.167 496,460.5C 492.474,472.026 484.974,479.526 473.5,483C 382.167,483.5 290.834,483.667 199.5,483.5C 197.577,480.397 195.41,477.397 193,474.5C 190.545,470.469 188.879,466.136 188,461.5C 187.333,403.833 187.333,346.167 188,288.5C 190.413,280.66 194.58,273.993 200.5,268.5 Z"/></g>
<g><path style="opacity:1" fill="#f8cb62" d="M 200.5,268.5 C 194.58,273.993 190.413,280.66 188,288.5C 187.333,346.167 187.333,403.833 188,461.5C 188.879,466.136 190.545,470.469 193,474.5C 195.41,477.397 197.577,480.397 199.5,483.5C 185.024,481.191 176.19,472.858 173,458.5C 172.833,430.833 172.667,403.167 172.5,375.5C 172.349,346.453 172.849,317.453 174,288.5C 178.984,276.605 187.817,269.938 200.5,268.5 Z"/></g>
<g><path style="opacity:1" fill="#040302" d="M 204.5,364.5 C 206.481,351.876 207.148,338.876 206.5,325.5C 210.121,309.42 219.787,298.92 235.5,294C 247.442,292.419 259.442,292.085 271.5,293C 275.172,294.503 278.838,296.003 282.5,297.5C 296.839,289.6 309.672,291.6 321,303.5C 323.194,306.554 324.861,309.888 326,313.5C 326.333,330.167 326.667,346.833 327,363.5C 341.002,370.165 345.669,380.832 341,395.5C 336.334,404.653 328.834,408.987 318.5,408.5C 315.891,434.613 301.891,451.113 276.5,458C 249.661,461.666 230.161,451.499 218,427.5C 215.707,421.329 214.207,414.995 213.5,408.5C 195.993,406.815 188.159,397.149 190,379.5C 192.344,371.99 197.178,366.99 204.5,364.5 Z"/></g>
<g><path style="opacity:1" fill="#0a0905" d="M 363.5,303.5 C 380.17,303.333 396.837,303.5 413.5,304C 414.931,304.465 416.097,305.299 417,306.5C 418.724,311.731 417.224,315.565 412.5,318C 396.833,318.667 381.167,318.667 365.5,318C 360.776,315.565 359.276,311.731 361,306.5C 362.045,305.627 362.878,304.627 363.5,303.5 Z"/></g>
<g><path style="opacity:1" fill="#a67d7d" d="M 269.5,308.5 C 264.156,308.334 258.823,308.501 253.5,309C 244.218,319.029 240.884,330.863 243.5,344.5C 234.694,345.987 227.194,349.987 221,356.5C 214.641,317.358 230.807,301.358 269.5,308.5 Z"/></g>
<g><path style="opacity:1" fill="#b68d8d" d="M 269.5,308.5 C 271.716,309.203 273.549,310.536 275,312.5C 279.241,326.079 275.075,335.912 262.5,342C 256.364,344.178 250.031,345.012 243.5,344.5C 240.884,330.863 244.218,319.029 253.5,309C 258.823,308.501 264.156,308.334 269.5,308.5 Z"/></g>
<g><path style="opacity:1" fill="#b28a8a" d="M 295.5,307.5 C 302.424,306.878 307.591,309.545 311,315.5C 311.5,325.161 311.666,334.828 311.5,344.5C 301.47,343.982 294.637,338.982 291,329.5C 290.333,323.167 290.333,316.833 291,310.5C 292.652,309.601 294.152,308.601 295.5,307.5 Z"/></g>
<g><path style="opacity:1" fill="#3b341d" d="M 206.5,325.5 C 207.148,338.876 206.481,351.876 204.5,364.5C 205.149,351.402 205.816,338.402 206.5,325.5 Z"/></g>
<g><path style="opacity:1" fill="#070603" d="M 364.5,335.5 C 400.168,335.333 435.835,335.5 471.5,336C 477.729,340.171 478.062,344.837 472.5,350C 436.5,350.667 400.5,350.667 364.5,350C 360.788,347.487 359.622,343.987 361,339.5C 362.376,338.295 363.542,336.962 364.5,335.5 Z"/></g>
<g><path style="opacity:1" fill="#fad8ca" d="M 262.5,443.5 C 253.955,436.769 248.122,428.102 245,417.5C 243.565,398.547 243.065,379.547 243.5,360.5C 246.385,360.806 249.052,360.473 251.5,359.5C 263.708,358.894 274.041,354.228 282.5,345.5C 288.294,352.399 295.627,356.732 304.5,358.5C 304.667,375.503 304.5,392.503 304,409.5C 299.565,432.444 285.732,443.778 262.5,443.5 Z"/></g>
<g><path style="opacity:1" fill="#fbc8bb" d="M 251.5,359.5 C 249.052,360.473 246.385,360.806 243.5,360.5C 243.065,379.547 243.565,398.547 245,417.5C 248.122,428.102 253.955,436.769 262.5,443.5C 243.232,440.732 232.065,429.732 229,410.5C 228.333,397.833 228.333,385.167 229,372.5C 233.233,362.63 240.733,358.297 251.5,359.5 Z"/></g>
<g><path style="opacity:1" fill="#020100" d="M 364.5,368.5 C 400.168,368.333 435.835,368.5 471.5,369C 476.453,371.64 477.62,375.473 475,380.5C 473.829,381.893 472.329,382.727 470.5,383C 435.167,383.667 399.833,383.667 364.5,383C 359.235,378.076 359.235,373.242 364.5,368.5 Z"/></g>
<g><path style="opacity:1" fill="#090807" d="M 275.5,373.5 C 279.426,373.047 282.592,374.38 285,377.5C 285.667,381.833 285.667,386.167 285,390.5C 282.335,395.434 278.502,396.601 273.5,394C 272.107,392.829 271.273,391.329 271,389.5C 270.333,385.833 270.333,382.167 271,378.5C 272.025,376.313 273.525,374.646 275.5,373.5 Z"/></g>
<g><path style="opacity:1" fill="#050404" d="M 251.5,373.5 C 255.462,373.067 258.628,374.4 261,377.5C 261.667,382.167 261.667,386.833 261,391.5C 256.585,396.726 252.251,396.726 248,391.5C 247.333,386.833 247.333,382.167 248,377.5C 249.102,376.051 250.269,374.718 251.5,373.5 Z"/></g>
<g><path style="opacity:1" fill="#f7c4b8" d="M 209.5,377.5 C 210.833,377.5 212.167,377.5 213.5,377.5C 213.5,382.833 213.5,388.167 213.5,393.5C 206.421,393.244 203.588,389.577 205,382.5C 206.025,380.313 207.525,378.646 209.5,377.5 Z"/></g>
<g><path style="opacity:1" fill="#f4c2b6" d="M 319.5,377.5 C 328.324,379.638 330.324,384.471 325.5,392C 323.655,393.128 321.655,393.628 319.5,393.5C 319.5,388.167 319.5,382.833 319.5,377.5 Z"/></g>
<g><path style="opacity:1" fill="#0a0805" d="M 363.5,401.5 C 386.169,401.333 408.836,401.5 431.5,402C 435.696,404.981 436.529,408.814 434,413.5C 433.097,414.701 431.931,415.535 430.5,416C 408.833,416.667 387.167,416.667 365.5,416C 360.776,413.565 359.276,409.731 361,404.5C 362.045,403.627 362.878,402.627 363.5,401.5 Z"/></g>
<g><path style="opacity:1" fill="#7d383d" d="M 158.5,291.5 C 158.5,328.833 158.5,366.167 158.5,403.5C 121.663,403.832 84.9962,403.498 48.5,402.5C 49.8333,402.5 51.1667,402.5 52.5,402.5C 87.5,402.5 122.5,402.5 157.5,402.5C 157.168,365.33 157.502,328.33 158.5,291.5 Z"/></g>
<g><path style="opacity:1" fill="#070605" d="M 253.5,403.5 C 257.752,403.713 261.918,404.38 266,405.5C 270.377,403.97 274.877,403.47 279.5,404C 283.948,407.356 284.615,411.356 281.5,416C 274.437,420.28 266.77,421.613 258.5,420C 248.639,416.656 246.972,411.156 253.5,403.5 Z"/></g>
<g><path style="opacity:1" fill="#070603" d="M 364.5,433.5 C 400.168,433.333 435.835,433.5 471.5,434C 478.167,438.667 478.167,443.333 471.5,448C 435.833,448.667 400.167,448.667 364.5,448C 360.788,445.487 359.622,441.987 361,437.5C 362.376,436.295 363.542,434.962 364.5,433.5 Z"/></g>
</svg>
