<?xml version="1.0" encoding="UTF-8"?>
<!DOCTYPE svg PUBLIC "-//W3C//DTD SVG 1.1//EN" "http://www.w3.org/Graphics/SVG/1.1/DTD/svg11.dtd">
<svg xmlns="http://www.w3.org/2000/svg" version="1.1" width="512px" height="512px" style="shape-rendering:geometricPrecision; text-rendering:geometricPrecision; image-rendering:optimizeQuality; fill-rule:evenodd; clip-rule:evenodd" xmlns:xlink="http://www.w3.org/1999/xlink">
<g><path style="opacity:0.989" fill="#000000" d="M 10.5,251.5 C 13.7067,252.026 16.2067,253.692 18,256.5C 18.0311,316.524 18.6977,376.524 20,436.5C 28.2782,467.446 48.1115,485.946 79.5,492C 196.833,492.667 314.167,492.667 431.5,492C 463.753,485.58 483.753,466.413 491.5,434.5C 492.655,316.514 492.822,198.514 492,80.5C 485.659,46.4912 465.492,25.9912 431.5,19C 314.5,18.3333 197.5,18.3333 80.5,19C 48.4389,24.5642 28.4389,43.0642 20.5,74.5C 19.6909,76.2922 19.1909,78.2922 19,80.5C 18.6667,111.5 18.3333,142.5 18,173.5C 16.8286,177.323 14.3286,179.657 10.5,180.5C 7.38297,180.358 4.88297,179.024 3,176.5C 2.33333,143.167 2.33333,109.833 3,76.5C 11.5,36 36,11.5 76.5,3C 195.833,2.33333 315.167,2.33333 434.5,3C 475,11.5 499.5,36 508,76.5C 508.667,195.833 508.667,315.167 508,434.5C 499.5,475 475,499.5 434.5,508C 315.167,508.667 195.833,508.667 76.5,508C 35.998,499.498 11.498,474.998 3,434.5C 2.33333,374.833 2.33333,315.167 3,255.5C 4.53877,252.479 7.03877,251.146 10.5,251.5 Z"/></g>
<g><path style="opacity:1" fill="#d1b3d4" d="M 491.5,434.5 C 462.574,435.641 433.907,433.141 405.5,427C 404.944,426.617 404.611,426.117 404.5,425.5C 409.758,423.871 414.425,421.204 418.5,417.5C 421.052,424.428 425.719,426.261 432.5,423C 433.893,421.829 434.727,420.329 435,418.5C 435.667,382.5 435.667,346.5 435,310.5C 432.686,305.594 428.853,303.76 423.5,305C 421.536,306.451 420.203,308.284 419.5,310.5C 418.833,320.833 418.167,331.167 417.5,341.5C 396.043,327.332 376.876,329.998 360,349.5C 346.089,372.626 347.589,394.626 364.5,415.5C 364.631,416.239 364.464,416.906 364,417.5C 351.991,413.997 340.158,409.997 328.5,405.5C 328.667,388.83 328.5,372.163 328,355.5C 322.734,336.449 310.234,327.615 290.5,329C 283.426,330.702 277.426,334.202 272.5,339.5C 260.385,327.758 246.885,325.758 232,333.5C 226.535,326.615 221.535,326.948 217,334.5C 216.501,338.821 216.334,343.154 216.5,347.5C 202.236,337.566 188.57,326.9 175.5,315.5C 183.696,315.471 186.863,311.471 185,303.5C 174.37,288.372 159.87,279.705 141.5,277.5C 138.972,276.834 136.306,276.168 133.5,275.5C 80.0809,217.693 42.4142,150.693 20.5,74.5C 28.4389,43.0642 48.4389,24.5642 80.5,19C 197.5,18.3333 314.5,18.3333 431.5,19C 465.492,25.9912 485.659,46.4912 492,80.5C 492.822,198.514 492.655,316.514 491.5,434.5 Z"/></g>
<g><path style="opacity:1" fill="#be9bc1" d="M 20.5,74.5 C 42.4142,150.693 80.0809,217.693 133.5,275.5C 136.306,276.168 138.972,276.834 141.5,277.5C 120.745,276.803 104.245,284.803 92,301.5C 69.7877,336.028 70.121,370.361 93,404.5C 115.027,430.05 140.527,434.216 169.5,417C 175,412.833 179.833,408 184,402.5C 187.5,391.333 183.667,387.5 172.5,391C 152.51,416.096 130.677,417.93 107,396.5C 88.9037,371.058 86.9037,344.391 101,316.5C 118.006,290.665 139.173,286.498 164.5,304C 167.669,308.335 171.336,312.168 175.5,315.5C 188.57,326.9 202.236,337.566 216.5,347.5C 216.333,372.502 216.5,397.502 217,422.5C 219.28,426.768 222.78,428.268 227.5,427C 229.667,426.167 231.167,424.667 232,422.5C 232.168,400.33 232.668,378.33 233.5,356.5C 233.281,357.675 233.614,358.675 234.5,359.5C 243.917,365.293 253.417,370.959 263,376.5C 263.5,369.842 263.666,363.175 263.5,356.5C 264.021,379.084 264.854,401.751 266,424.5C 271.395,428.934 276.062,428.267 280,422.5C 280.5,410.171 280.667,397.838 280.5,385.5C 290.601,390.422 300.935,394.755 311.5,398.5C 311.5,384.833 311.5,371.167 311.5,357.5C 312.332,378.996 312.832,400.663 313,422.5C 317.171,428.729 321.837,429.062 327,423.5C 328.41,417.621 328.91,411.621 328.5,405.5C 340.158,409.997 351.991,413.997 364,417.5C 364.464,416.906 364.631,416.239 364.5,415.5C 375.935,426.359 389.268,429.692 404.5,425.5C 404.611,426.117 404.944,426.617 405.5,427C 433.907,433.141 462.574,435.641 491.5,434.5C 483.753,466.413 463.753,485.58 431.5,492C 314.167,492.667 196.833,492.667 79.5,492C 48.1115,485.946 28.2782,467.446 20,436.5C 18.6977,376.524 18.0311,316.524 18,256.5C 16.2067,253.692 13.7067,252.026 10.5,251.5C 10.5,245.167 10.5,238.833 10.5,232.5C 13.9583,231.892 16.4583,229.892 18,226.5C 18.6667,219.167 18.6667,211.833 18,204.5C 16.2926,201.41 13.7926,199.41 10.5,198.5C 10.5,192.5 10.5,186.5 10.5,180.5C 14.3286,179.657 16.8286,177.323 18,173.5C 18.3333,142.5 18.6667,111.5 19,80.5C 19.1909,78.2922 19.6909,76.2922 20.5,74.5 Z"/></g>
<g><path style="opacity:0.97" fill="#010001" d="M 10.5,198.5 C 13.7926,199.41 16.2926,201.41 18,204.5C 18.6667,211.833 18.6667,219.167 18,226.5C 16.4583,229.892 13.9583,231.892 10.5,232.5C 7.21547,232.731 4.71547,231.397 3,228.5C 2.33333,220.167 2.33333,211.833 3,203.5C 4.43733,200.292 6.93733,198.625 10.5,198.5 Z"/></g>
<g><path style="opacity:1" fill="#040304" d="M 141.5,277.5 C 159.87,279.705 174.37,288.372 185,303.5C 186.863,311.471 183.696,315.471 175.5,315.5C 171.336,312.168 167.669,308.335 164.5,304C 139.173,286.498 118.006,290.665 101,316.5C 86.9037,344.391 88.9037,371.058 107,396.5C 130.677,417.93 152.51,416.096 172.5,391C 183.667,387.5 187.5,391.333 184,402.5C 179.833,408 175,412.833 169.5,417C 140.527,434.216 115.027,430.05 93,404.5C 70.121,370.361 69.7877,336.028 92,301.5C 104.245,284.803 120.745,276.803 141.5,277.5 Z"/></g>
<g><path style="opacity:1" fill="#050405" d="M 404.5,425.5 C 389.268,429.692 375.935,426.359 364.5,415.5C 347.589,394.626 346.089,372.626 360,349.5C 376.876,329.998 396.043,327.332 417.5,341.5C 417.56,342.043 417.893,342.376 418.5,342.5C 419.499,331.854 419.832,321.187 419.5,310.5C 420.203,308.284 421.536,306.451 423.5,305C 428.853,303.76 432.686,305.594 435,310.5C 435.667,346.5 435.667,382.5 435,418.5C 434.727,420.329 433.893,421.829 432.5,423C 425.719,426.261 421.052,424.428 418.5,417.5C 414.425,421.204 409.758,423.871 404.5,425.5 Z"/></g>
<g><path style="opacity:1" fill="#89768b" d="M 419.5,310.5 C 419.832,321.187 419.499,331.854 418.5,342.5C 417.893,342.376 417.56,342.043 417.5,341.5C 418.167,331.167 418.833,320.833 419.5,310.5 Z"/></g>
<g><path style="opacity:1" fill="#030303" d="M 328.5,405.5 C 328.91,411.621 328.41,417.621 327,423.5C 321.837,429.062 317.171,428.729 313,422.5C 312.832,400.663 312.332,378.996 311.5,357.5C 306.741,344.969 298.407,341.802 286.5,348C 283.894,349.938 282.061,352.438 281,355.5C 280.5,365.494 280.334,375.494 280.5,385.5C 280.667,397.838 280.5,410.171 280,422.5C 276.062,428.267 271.395,428.934 266,424.5C 264.854,401.751 264.021,379.084 263.5,356.5C 260.954,349.291 255.787,345.291 248,344.5C 240.643,345.578 235.81,349.578 233.5,356.5C 232.668,378.33 232.168,400.33 232,422.5C 231.167,424.667 229.667,426.167 227.5,427C 222.78,428.268 219.28,426.768 217,422.5C 216.5,397.502 216.333,372.502 216.5,347.5C 216.334,343.154 216.501,338.821 217,334.5C 221.535,326.948 226.535,326.615 232,333.5C 246.885,325.758 260.385,327.758 272.5,339.5C 277.426,334.202 283.426,330.702 290.5,329C 310.234,327.615 322.734,336.449 328,355.5C 328.5,372.163 328.667,388.83 328.5,405.5 Z"/></g>
<g><path style="opacity:1" fill="#cfb1d2" d="M 263.5,356.5 C 263.666,363.175 263.5,369.842 263,376.5C 253.417,370.959 243.917,365.293 234.5,359.5C 233.614,358.675 233.281,357.675 233.5,356.5C 235.81,349.578 240.643,345.578 248,344.5C 255.787,345.291 260.954,349.291 263.5,356.5 Z"/></g>
<g><path style="opacity:1" fill="#d0b2d3" d="M 311.5,357.5 C 311.5,371.167 311.5,384.833 311.5,398.5C 300.935,394.755 290.601,390.422 280.5,385.5C 280.334,375.494 280.5,365.494 281,355.5C 282.061,352.438 283.894,349.938 286.5,348C 298.407,341.802 306.741,344.969 311.5,357.5 Z"/></g>
<g><path style="opacity:1" fill="#cfb2d2" d="M 387.5,348.5 C 402.913,347.729 413.08,354.729 418,369.5C 421.591,384.387 417.758,396.887 406.5,407C 385.653,415.491 372.486,408.658 367,386.5C 364.294,368.44 371.128,355.774 387.5,348.5 Z"/></g>
</svg>
