<?xml version="1.0" encoding="UTF-8"?>
<!DOCTYPE svg PUBLIC "-//W3C//DTD SVG 1.1//EN" "http://www.w3.org/Graphics/SVG/1.1/DTD/svg11.dtd">
<svg xmlns="http://www.w3.org/2000/svg" version="1.1" width="512px" height="512px" style="shape-rendering:geometricPrecision; text-rendering:geometricPrecision; image-rendering:optimizeQuality; fill-rule:evenodd; clip-rule:evenodd" xmlns:xlink="http://www.w3.org/1999/xlink">
<g><path style="opacity:0.989" fill="#000000" d="M 10.5,251.5 C 13.7067,252.026 16.2067,253.692 18,256.5C 18.0311,316.524 18.6977,376.524 20,436.5C 28.2782,467.446 48.1115,485.946 79.5,492C 196.833,492.667 314.167,492.667 431.5,492C 463.753,485.58 483.753,466.413 491.5,434.5C 492.655,316.514 492.822,198.514 492,80.5C 485.659,46.4912 465.492,25.9912 431.5,19C 313.833,18.3333 196.167,18.3333 78.5,19C 47.5291,25.4733 28.1958,43.9733 20.5,74.5C 19.71,75.6085 19.21,76.9419 19,78.5C 18.6667,110.167 18.3333,141.833 18,173.5C 16.8286,177.323 14.3286,179.657 10.5,180.5C 7.38297,180.358 4.88297,179.024 3,176.5C 2.33333,143.167 2.33333,109.833 3,76.5C 11.5,36 36,11.5 76.5,3C 195.833,2.33333 315.167,2.33333 434.5,3C 475,11.5 499.5,36 508,76.5C 508.667,195.833 508.667,315.167 508,434.5C 499.5,475 475,499.5 434.5,508C 315.167,508.667 195.833,508.667 76.5,508C 35.998,499.498 11.498,474.998 3,434.5C 2.33333,374.833 2.33333,315.167 3,255.5C 4.53877,252.479 7.03877,251.146 10.5,251.5 Z"/></g>
<g><path style="opacity:1" fill="#aadaf5" d="M 491.5,434.5 C 486.733,435.797 482.066,435.797 477.5,434.5C 477.987,433.527 478.487,432.527 479,431.5C 479.667,409.5 479.667,387.5 479,365.5C 476.459,360.931 472.625,359.431 467.5,361C 465.951,362.214 464.785,363.714 464,365.5C 463.828,370.202 463.328,374.868 462.5,379.5C 442.85,373.598 430.017,380.598 424,400.5C 422.29,411.33 424.79,420.997 431.5,429.5C 427.967,430.715 424.301,430.715 420.5,429.5C 420.667,416.496 420.5,403.496 420,390.5C 414.126,376.895 404.126,372.229 390,376.5C 384.688,373.163 380.355,374.163 377,379.5C 376.5,393.163 376.333,406.829 376.5,420.5C 374.254,420.064 372.087,419.397 370,418.5C 369.83,407.326 369.33,396.326 368.5,385.5C 366.259,378.276 361.759,376.609 355,380.5C 339.999,371.942 327.332,374.609 317,388.5C 314.934,391.961 313.434,395.627 312.5,399.5C 311.609,398.89 310.609,398.557 309.5,398.5C 307.935,381.436 298.601,373.603 281.5,375C 278.671,376.247 276.005,377.747 273.5,379.5C 269.105,376.035 264.105,374.368 258.5,374.5C 154.189,314.25 79.3552,228.25 34,116.5C 28.7915,102.709 24.2915,88.7085 20.5,74.5C 28.1958,43.9733 47.5291,25.4733 78.5,19C 196.167,18.3333 313.833,18.3333 431.5,19C 465.492,25.9912 485.659,46.4912 492,80.5C 492.822,198.514 492.655,316.514 491.5,434.5 Z"/></g>
<g><path style="opacity:1" fill="#010202" d="M 409.5,103.5 C 408.503,119.992 408.17,136.658 408.5,153.5C 412.5,153.5 416.5,153.5 420.5,153.5C 429.871,155.033 436.038,160.366 439,169.5C 442.416,185.857 436.249,196.357 420.5,201C 405.016,202.937 395.349,196.437 391.5,181.5C 391.5,177.833 391.5,174.167 391.5,170.5C 374.325,170.17 357.325,170.503 340.5,171.5C 342.163,190.502 333.496,200.502 314.5,201.5C 295.956,198.094 288.789,187.094 293,168.5C 297.886,156.64 306.719,151.307 319.5,152.5C 320.919,153.451 322.585,153.784 324.5,153.5C 324.5,136.5 324.5,119.5 324.5,102.5C 322.901,102.232 321.568,102.566 320.5,103.5C 304.919,104.753 295.419,97.7525 292,82.5C 291.269,66.234 298.935,56.9006 315,54.5C 334.282,55.9494 342.782,66.2827 340.5,85.5C 357.167,85.5 373.833,85.5 390.5,85.5C 388.935,67.0737 397.268,56.7403 415.5,54.5C 433.137,56.7583 440.97,66.7583 439,84.5C 434.918,99.4716 425.085,105.805 409.5,103.5 Z"/></g>
<g><path style="opacity:1" fill="#a5d3ee" d="M 312.5,70.5 C 323.565,70.2546 327.565,75.5879 324.5,86.5C 321.864,86.964 319.197,87.2973 316.5,87.5C 310.655,87.5466 307.655,84.5466 307.5,78.5C 307.672,74.8072 309.339,72.1406 312.5,70.5 Z"/></g>
<g><path style="opacity:1" fill="#a5d3ed" d="M 412.5,70.5 C 421.207,70.0365 424.707,74.0365 423,82.5C 422.426,84.492 421.259,85.992 419.5,87C 415.514,87.4988 411.514,87.6655 407.5,87.5C 404.746,80.2797 406.413,74.6131 412.5,70.5 Z"/></g>
<g><path style="opacity:1" fill="#a1d2e7" d="M 20.5,74.5 C 24.2915,88.7085 28.7915,102.709 34,116.5C 79.3552,228.25 154.189,314.25 258.5,374.5C 255.801,374.466 253.301,375.133 251,376.5C 245.722,373.215 241.389,374.215 238,379.5C 237.333,397.167 237.333,414.833 238,432.5C 242.042,439.672 247.042,440.339 253,434.5C 253.333,421.167 253.667,407.833 254,394.5C 257.171,389.586 260.837,389.253 265,393.5C 265.333,406.833 265.667,420.167 266,433.5C 269.013,438.535 273.18,439.702 278.5,437C 279.701,436.097 280.535,434.931 281,433.5C 281.333,420.167 281.667,406.833 282,393.5C 286.073,389.381 289.74,389.715 293,394.5C 293.333,407.5 293.667,420.5 294,433.5C 299.33,440.311 304.33,439.977 309,432.5C 309.5,421.172 309.667,409.838 309.5,398.5C 310.609,398.557 311.609,398.89 312.5,399.5C 309.618,418.241 316.951,431.074 334.5,438C 341.301,439.307 347.634,438.14 353.5,434.5C 356.624,437.356 360.291,438.189 364.5,437C 366.049,435.786 367.215,434.286 368,432.5C 368.5,416.837 368.667,401.17 368.5,385.5C 369.33,396.326 369.83,407.326 370,418.5C 372.087,419.397 374.254,420.064 376.5,420.5C 376.334,424.514 376.501,428.514 377,432.5C 381.042,439.672 386.042,440.339 392,434.5C 392.333,421.167 392.667,407.833 393,394.5C 396.171,389.586 399.837,389.253 404,393.5C 404.333,406.5 404.667,419.5 405,432.5C 408.199,439.174 412.699,440.174 418.5,435.5C 419.747,433.677 420.414,431.677 420.5,429.5C 424.301,430.715 427.967,430.715 431.5,429.5C 441.34,439.429 452.507,441.096 465,434.5C 469.214,437.136 473.38,437.136 477.5,434.5C 482.066,435.797 486.733,435.797 491.5,434.5C 483.753,466.413 463.753,485.58 431.5,492C 314.167,492.667 196.833,492.667 79.5,492C 48.1115,485.946 28.2782,467.446 20,436.5C 18.6977,376.524 18.0311,316.524 18,256.5C 16.2067,253.692 13.7067,252.026 10.5,251.5C 10.5,245.167 10.5,238.833 10.5,232.5C 13.9583,231.892 16.4583,229.892 18,226.5C 18.6667,219.167 18.6667,211.833 18,204.5C 16.2926,201.41 13.7926,199.41 10.5,198.5C 10.5,192.5 10.5,186.5 10.5,180.5C 14.3286,179.657 16.8286,177.323 18,173.5C 18.3333,141.833 18.6667,110.167 19,78.5C 19.21,76.9419 19.71,75.6085 20.5,74.5 Z"/></g>
<g><path style="opacity:1" fill="#aadaf4" d="M 392.5,101.5 C 392.5,119.167 392.5,136.833 392.5,154.5C 374.833,154.5 357.167,154.5 339.5,154.5C 339.5,136.833 339.5,119.167 339.5,101.5C 357.167,101.5 374.833,101.5 392.5,101.5 Z"/></g>
<g><path style="opacity:1" fill="#2a353d" d="M 320.5,103.5 C 321.568,102.566 322.901,102.232 324.5,102.5C 324.5,119.5 324.5,136.5 324.5,153.5C 322.585,153.784 320.919,153.451 319.5,152.5C 320.833,152.5 322.167,152.5 323.5,152.5C 323.5,136.167 323.5,119.833 323.5,103.5C 322.5,103.5 321.5,103.5 320.5,103.5 Z"/></g>
<g><path style="opacity:1" fill="#35444d" d="M 409.5,103.5 C 409.5,119.833 409.5,136.167 409.5,152.5C 413.371,152.185 417.038,152.518 420.5,153.5C 416.5,153.5 412.5,153.5 408.5,153.5C 408.17,136.658 408.503,119.992 409.5,103.5 Z"/></g>
<g><path style="opacity:1" fill="#526a76" d="M 392.5,101.5 C 393.497,119.326 393.83,137.326 393.5,155.5C 375.326,155.83 357.326,155.497 339.5,154.5C 357.167,154.5 374.833,154.5 392.5,154.5C 392.5,136.833 392.5,119.167 392.5,101.5 Z"/></g>
<g><path style="opacity:1" fill="#a5d4ee" d="M 311.5,168.5 C 315.869,168.467 320.202,168.8 324.5,169.5C 324.666,173.514 324.499,177.514 324,181.5C 318.153,187.161 312.82,186.828 308,180.5C 306.745,175.738 307.912,171.738 311.5,168.5 Z"/></g>
<g><path style="opacity:1" fill="#a5d4ee" d="M 409.5,168.5 C 422.061,167.216 426.061,172.383 421.5,184C 416.637,186.329 412.137,185.829 408,182.5C 406.989,177.529 407.489,172.863 409.5,168.5 Z"/></g>
<g><path style="opacity:1" fill="#658191" d="M 340.5,171.5 C 357.325,170.503 374.325,170.17 391.5,170.5C 391.5,174.167 391.5,177.833 391.5,181.5C 390.521,178.375 390.187,175.042 390.5,171.5C 373.833,171.5 357.167,171.5 340.5,171.5 Z"/></g>
<g><path style="opacity:0.97" fill="#000101" d="M 10.5,198.5 C 13.7926,199.41 16.2926,201.41 18,204.5C 18.6667,211.833 18.6667,219.167 18,226.5C 16.4583,229.892 13.9583,231.892 10.5,232.5C 7.21547,232.731 4.71547,231.397 3,228.5C 2.33333,220.167 2.33333,211.833 3,203.5C 4.43733,200.292 6.93733,198.625 10.5,198.5 Z"/></g>
<g><path style="opacity:1" fill="#030304" d="M 477.5,434.5 C 473.38,437.136 469.214,437.136 465,434.5C 452.507,441.096 441.34,439.429 431.5,429.5C 424.79,420.997 422.29,411.33 424,400.5C 430.017,380.598 442.85,373.598 462.5,379.5C 463.328,374.868 463.828,370.202 464,365.5C 464.785,363.714 465.951,362.214 467.5,361C 472.625,359.431 476.459,360.931 479,365.5C 479.667,387.5 479.667,409.5 479,431.5C 478.487,432.527 477.987,433.527 477.5,434.5 Z"/></g>
<g><path style="opacity:1" fill="#020304" d="M 57.5,367.5 C 70.9837,365.273 82.4837,368.94 92,378.5C 93.1843,385.979 90.0176,389.813 82.5,390C 67.7258,378.105 56.2258,380.605 48,397.5C 46.6742,406.012 49.1742,413.179 55.5,419C 64.8111,424.087 73.4777,423.087 81.5,416C 90.5655,415.061 93.7322,418.894 91,427.5C 78.6929,439.093 64.8595,441.26 49.5,434C 31.5924,420.536 27.4257,403.703 37,383.5C 42.1407,375.864 48.974,370.53 57.5,367.5 Z"/></g>
<g><path style="opacity:1" fill="#030405" d="M 117.5,374.5 C 144.329,373.829 157.163,386.829 156,413.5C 150.094,431.548 137.594,439.715 118.5,438C 100.477,432.447 91.9775,420.28 93,401.5C 96.4841,388.185 104.651,379.185 117.5,374.5 Z"/></g>
<g><path style="opacity:1" fill="#030405" d="M 167.5,374.5 C 170.39,374.278 173.057,374.945 175.5,376.5C 183.541,373.321 191.041,374.321 198,379.5C 210.802,371.415 221.802,373.415 231,385.5C 231.973,387.392 232.64,389.392 233,391.5C 233.966,406.26 233.633,420.927 232,435.5C 226.234,440.013 221.567,439.013 218,432.5C 217.667,419.5 217.333,406.5 217,393.5C 213.667,389.5 210.333,389.5 207,393.5C 206.667,406.5 206.333,419.5 206,432.5C 200.667,440.5 195.333,440.5 190,432.5C 189.667,419.167 189.333,405.833 189,392.5C 185.304,389.575 181.971,389.908 179,393.5C 178.667,406.833 178.333,420.167 178,433.5C 174.987,438.535 170.82,439.702 165.5,437C 164.299,436.097 163.465,434.931 163,433.5C 162.333,415.5 162.333,397.5 163,379.5C 164.025,377.313 165.525,375.646 167.5,374.5 Z"/></g>
<g><path style="opacity:1" fill="#030304" d="M 258.5,374.5 C 264.105,374.368 269.105,376.035 273.5,379.5C 276.005,377.747 278.671,376.247 281.5,375C 298.601,373.603 307.935,381.436 309.5,398.5C 309.667,409.838 309.5,421.172 309,432.5C 304.33,439.977 299.33,440.311 294,433.5C 293.667,420.5 293.333,407.5 293,394.5C 289.74,389.715 286.073,389.381 282,393.5C 281.667,406.833 281.333,420.167 281,433.5C 280.535,434.931 279.701,436.097 278.5,437C 273.18,439.702 269.013,438.535 266,433.5C 265.667,420.167 265.333,406.833 265,393.5C 260.837,389.253 257.171,389.586 254,394.5C 253.667,407.833 253.333,421.167 253,434.5C 247.042,440.339 242.042,439.672 238,432.5C 237.333,414.833 237.333,397.167 238,379.5C 241.389,374.215 245.722,373.215 251,376.5C 253.301,375.133 255.801,374.466 258.5,374.5 Z"/></g>
<g><path style="opacity:1" fill="#020303" d="M 420.5,429.5 C 420.414,431.677 419.747,433.677 418.5,435.5C 412.699,440.174 408.199,439.174 405,432.5C 404.667,419.5 404.333,406.5 404,393.5C 399.837,389.253 396.171,389.586 393,394.5C 392.667,407.833 392.333,421.167 392,434.5C 386.042,440.339 381.042,439.672 377,432.5C 376.501,428.514 376.334,424.514 376.5,420.5C 376.333,406.829 376.5,393.163 377,379.5C 380.355,374.163 384.688,373.163 390,376.5C 404.126,372.229 414.126,376.895 420,390.5C 420.5,403.496 420.667,416.496 420.5,429.5 Z"/></g>
<g><path style="opacity:1" fill="#030404" d="M 368.5,385.5 C 368.667,401.17 368.5,416.837 368,432.5C 367.215,434.286 366.049,435.786 364.5,437C 360.291,438.189 356.624,437.356 353.5,434.5C 347.634,438.14 341.301,439.307 334.5,438C 316.951,431.074 309.618,418.241 312.5,399.5C 313.434,395.627 314.934,391.961 317,388.5C 327.332,374.609 339.999,371.942 355,380.5C 361.759,376.609 366.259,378.276 368.5,385.5 Z"/></g>
<g><path style="opacity:1" fill="#9ecee3" d="M 119.5,390.5 C 129.121,389.06 135.955,392.726 140,401.5C 141.322,415.843 134.822,422.677 120.5,422C 108.865,416.429 106.032,407.929 112,396.5C 114.478,394.361 116.978,392.361 119.5,390.5 Z"/></g>
<g><path style="opacity:1" fill="#a4d3ec" d="M 337.5,391.5 C 346.546,392.044 351.546,396.877 352.5,406C 352.856,414.794 348.856,420.294 340.5,422.5C 331.934,420.739 327.6,415.405 327.5,406.5C 328.119,399.57 331.453,394.57 337.5,391.5 Z"/></g>
<g><path style="opacity:1" fill="#a6d5ef" d="M 448.5,392.5 C 457.762,393.095 462.762,398.095 463.5,407.5C 463.155,415.504 459.155,420.504 451.5,422.5C 445.361,421.864 441.528,418.53 440,412.5C 437.92,403.534 440.753,396.867 448.5,392.5 Z"/></g>
</svg>
