<?xml version="1.0" encoding="UTF-8"?>
<!DOCTYPE svg PUBLIC "-//W3C//DTD SVG 1.1//EN" "http://www.w3.org/Graphics/SVG/1.1/DTD/svg11.dtd">
<svg xmlns="http://www.w3.org/2000/svg" version="1.1" width="512px" height="512px" style="shape-rendering:geometricPrecision; text-rendering:geometricPrecision; image-rendering:optimizeQuality; fill-rule:evenodd; clip-rule:evenodd" xmlns:xlink="http://www.w3.org/1999/xlink">
<g><path style="opacity:0.996" fill="#000000" d="M 107.5,7.5 C 206.167,7.33334 304.834,7.5 403.5,8C 405.333,8.5 406.5,9.66667 407,11.5C 407.5,36.8311 407.667,62.1645 407.5,87.5C 430.553,87.0416 453.553,87.5416 476.5,89C 490.606,94.1058 499.44,103.939 503,118.5C 503.667,236.5 503.667,354.5 503,472.5C 498.833,488.667 488.667,498.833 472.5,503C 326.457,503.994 180.457,503.66 34.5,502C 20.3937,496.894 11.5604,487.061 8,472.5C 7.33333,386.167 7.33333,299.833 8,213.5C 12.2373,196.262 22.5706,184.262 39,177.5C 39.0297,161.408 39.6963,145.408 41,129.5C 61.9577,112.878 82.6243,95.8777 103,78.5C 103.333,56.1667 103.667,33.8333 104,11.5C 104.69,9.64977 105.856,8.31643 107.5,7.5 Z"/></g>
<g><path style="opacity:1" fill="#c0cee7" d="M 119.5,23.5 C 210.167,23.5 300.833,23.5 391.5,23.5C 391.5,92.8333 391.5,162.167 391.5,231.5C 370.167,231.5 348.833,231.5 327.5,231.5C 327.5,226.167 327.5,220.833 327.5,215.5C 340.833,215.5 354.167,215.5 367.5,215.5C 367.5,210.167 367.5,204.833 367.5,199.5C 354.167,199.5 340.833,199.5 327.5,199.5C 327.5,194.167 327.5,188.833 327.5,183.5C 340.833,183.5 354.167,183.5 367.5,183.5C 367.5,178.167 367.5,172.833 367.5,167.5C 354.167,167.5 340.833,167.5 327.5,167.5C 327.5,162.167 327.5,156.833 327.5,151.5C 340.833,151.5 354.167,151.5 367.5,151.5C 367.5,146.167 367.5,140.833 367.5,135.5C 354.167,135.5 340.833,135.5 327.5,135.5C 327.5,130.167 327.5,124.833 327.5,119.5C 340.833,119.5 354.167,119.5 367.5,119.5C 367.5,114.167 367.5,108.833 367.5,103.5C 354.167,103.5 340.833,103.5 327.5,103.5C 327.667,89.1628 327.5,74.8295 327,60.5C 326.535,59.0692 325.701,57.9025 324.5,57C 260.558,55.3442 196.558,55.0109 132.5,56C 128.318,58.9259 124.318,62.0925 120.5,65.5C 119.501,51.5159 119.167,37.5159 119.5,23.5 Z"/></g>
<g><path style="opacity:1" fill="#e3e9f3" d="M 143.5,71.5 C 199.5,71.5 255.5,71.5 311.5,71.5C 311.5,124.833 311.5,178.167 311.5,231.5C 304.825,231.666 298.158,231.5 291.5,231C 287.333,229.5 284.5,226.667 283,222.5C 280.209,210.877 276.543,199.544 272,188.5C 267.038,181.936 260.538,177.769 252.5,176C 186.834,175.5 121.168,175.333 55.5,175.5C 55.5,164.833 55.5,154.167 55.5,143.5C 83.897,143.975 112.23,143.475 140.5,142C 141.893,140.829 142.727,139.329 143,137.5C 143.5,115.503 143.667,93.5025 143.5,71.5 Z"/></g>
<g><path style="opacity:1" fill="#93adcf" d="M 126.5,80.5 C 127.496,95.9911 127.83,111.658 127.5,127.5C 108.497,127.667 89.4971,127.5 70.5,127C 89.3566,111.636 108.023,96.1356 126.5,80.5 Z"/></g>
<g><path style="opacity:1" fill="#067aa2" d="M 443.5,103.5 C 463.397,115.598 475.23,133.265 479,156.5C 479.667,255.5 479.667,354.5 479,453.5C 474.574,470.134 463.741,478.801 446.5,479.5C 443.379,476.862 441.212,473.528 440,469.5C 439.667,400.833 439.333,332.167 439,263.5C 434.703,247.37 424.536,237.037 408.5,232.5C 407.5,189.505 407.167,146.505 407.5,103.5C 419.5,103.5 431.5,103.5 443.5,103.5 Z"/></g>
<g><path style="opacity:1" fill="#0672a2" d="M 443.5,103.5 C 451.84,103.334 460.173,103.5 468.5,104C 477.573,106.739 483.74,112.573 487,121.5C 487.667,237.5 487.667,353.5 487,469.5C 481.975,483.43 472.141,489.263 457.5,487C 453.107,485.477 449.44,482.977 446.5,479.5C 463.741,478.801 474.574,470.134 479,453.5C 479.667,354.5 479.667,255.5 479,156.5C 475.23,133.265 463.397,115.598 443.5,103.5 Z"/></g>
<g><path style="opacity:1" fill="#000000" d="M 191.5,111.5 C 223.5,111.5 255.5,111.5 287.5,111.5C 287.5,116.833 287.5,122.167 287.5,127.5C 255.5,127.5 223.5,127.5 191.5,127.5C 191.5,122.167 191.5,116.833 191.5,111.5 Z"/></g>
<g><path style="opacity:1" fill="#000000" d="M 159.5,143.5 C 202.167,143.5 244.833,143.5 287.5,143.5C 287.5,148.833 287.5,154.167 287.5,159.5C 244.833,159.5 202.167,159.5 159.5,159.5C 159.5,154.167 159.5,148.833 159.5,143.5 Z"/></g>
<g><path style="opacity:1" fill="#42b5e4" d="M 423.5,468.5 C 423.5,469.5 423.5,470.5 423.5,471.5C 303.833,471.667 184.166,471.5 64.5,471C 51.2315,467.398 43.0649,458.898 40,445.5C 39.5,362.501 39.3333,279.501 39.5,196.5C 41.9647,194.163 44.9647,192.663 48.5,192C 116.167,191.333 183.833,191.333 251.5,192C 255.667,193.5 258.5,196.333 260,200.5C 263.069,212.041 266.736,223.374 271,234.5C 274.97,239.475 279.803,243.309 285.5,246C 325.128,247.304 364.795,247.971 404.5,248C 413.573,250.739 419.74,256.573 423,265.5C 423.5,333.166 423.667,400.833 423.5,468.5 Z"/></g>
<g><path style="opacity:1" fill="#3592ce" d="M 39.5,196.5 C 39.3333,279.501 39.5,362.501 40,445.5C 43.0649,458.898 51.2315,467.398 64.5,471C 184.166,471.5 303.833,471.667 423.5,471.5C 423.5,470.5 423.5,469.5 423.5,468.5C 424.883,475.124 427.549,481.291 431.5,487C 301.5,487.667 171.5,487.667 41.5,487C 33,483.833 27.1667,478 24,469.5C 23.3333,385.167 23.3333,300.833 24,216.5C 25.279,211.275 27.6123,206.609 31,202.5C 33.2787,199.619 36.112,197.619 39.5,196.5 Z"/></g>
<g><path style="opacity:1" fill="#010101" d="M 128.5,239.5 C 147.966,237.965 160.799,246.298 167,264.5C 167.5,272.159 167.666,279.826 167.5,287.5C 185.236,287.041 202.902,287.541 220.5,289C 221.701,289.903 222.535,291.069 223,292.5C 223.5,306.829 223.667,321.163 223.5,335.5C 230.175,335.334 236.842,335.5 243.5,336C 260.449,338.947 269.782,348.947 271.5,366C 271.116,382.032 263.449,392.698 248.5,398C 240.227,399.33 231.893,399.83 223.5,399.5C 223.667,418.836 223.5,438.17 223,457.5C 222.727,459.329 221.893,460.829 220.5,462C 199.231,463.633 177.897,463.966 156.5,463C 153.898,462.065 152.398,460.232 152,457.5C 151.667,452.5 151.333,447.5 151,442.5C 145.496,432.08 137.329,429.247 126.5,434C 123.567,436.264 121.4,439.098 120,442.5C 119.667,447.5 119.333,452.5 119,457.5C 118.727,459.329 117.893,460.829 116.5,462C 105.402,463.134 94.2349,463.634 83,463.5C 72.0731,463.645 61.2397,463.145 50.5,462C 49.1068,460.829 48.2735,459.329 48,457.5C 47.3333,434.5 47.3333,411.5 48,388.5C 48.8333,386.333 50.3333,384.833 52.5,384C 57.8333,383.667 63.1667,383.333 68.5,383C 78.9196,377.496 81.7529,369.329 77,358.5C 74.7357,355.567 71.9024,353.4 68.5,352C 63.1667,351.667 57.8333,351.333 52.5,351C 51.0692,350.535 49.9025,349.701 49,348.5C 47.3723,329.899 47.039,311.232 48,292.5C 48.8333,290.333 50.3333,288.833 52.5,288C 69.4967,287.5 86.4967,287.333 103.5,287.5C 98.7996,264.219 107.133,248.219 128.5,239.5 Z"/></g>
<g><path style="opacity:1" fill="#f69a30" d="M 207.5,435.5 C 142.204,411.87 96.5369,367.87 70.5,303.5C 85.9047,303.952 101.238,303.452 116.5,302C 117.893,300.829 118.727,299.329 119,297.5C 119.333,287.167 119.667,276.833 120,266.5C 125.362,255.569 133.528,252.735 144.5,258C 147.433,260.264 149.6,263.098 151,266.5C 151.333,276.833 151.667,287.167 152,297.5C 152.273,299.329 153.107,300.829 154.5,302C 172.073,303.473 189.739,303.973 207.5,303.5C 207.049,318.572 207.549,333.572 209,348.5C 209.903,349.701 211.069,350.535 212.5,351C 223.167,351.333 233.833,351.667 244.5,352C 255.41,357.327 258.243,365.494 253,376.5C 250.736,379.433 247.902,381.6 244.5,383C 233.833,383.333 223.167,383.667 212.5,384C 211.069,384.465 209.903,385.299 209,386.5C 207.53,402.738 207.03,419.071 207.5,435.5 Z"/></g>
<g><path style="opacity:1" fill="#ea8228" d="M 70.5,303.5 C 96.5369,367.87 142.204,411.87 207.5,435.5C 207.5,439.5 207.5,443.5 207.5,447.5C 194.167,447.5 180.833,447.5 167.5,447.5C 165.662,427.164 154.495,416.497 134,415.5C 115.124,417.876 104.957,428.542 103.5,447.5C 90.1667,447.5 76.8333,447.5 63.5,447.5C 63.5,431.5 63.5,415.5 63.5,399.5C 87.7037,395.785 97.8704,381.785 94,357.5C 88.4802,343.825 78.3135,336.491 63.5,335.5C 63.5,324.833 63.5,314.167 63.5,303.5C 65.8333,303.5 68.1667,303.5 70.5,303.5 Z"/></g>
</svg>
