<?xml version="1.0" encoding="UTF-8"?>
<!DOCTYPE svg PUBLIC "-//W3C//DTD SVG 1.1//EN" "http://www.w3.org/Graphics/SVG/1.1/DTD/svg11.dtd">
<svg xmlns="http://www.w3.org/2000/svg" version="1.1" width="512px" height="512px" style="shape-rendering:geometricPrecision; text-rendering:geometricPrecision; image-rendering:optimizeQuality; fill-rule:evenodd; clip-rule:evenodd" xmlns:xlink="http://www.w3.org/1999/xlink">
<g><path style="opacity:0.996" fill="#000000" d="M 107.5,7.5 C 206.167,7.33334 304.834,7.5 403.5,8C 405.333,8.5 406.5,9.66667 407,11.5C 407.5,36.8311 407.667,62.1645 407.5,87.5C 430.553,87.0416 453.553,87.5416 476.5,89C 490.606,94.1058 499.44,103.939 503,118.5C 503.667,236.5 503.667,354.5 503,472.5C 498.833,488.667 488.667,498.833 472.5,503C 326.457,503.994 180.457,503.66 34.5,502C 20.3937,496.894 11.5604,487.061 8,472.5C 7.33333,386.167 7.33333,299.833 8,213.5C 12.2373,196.262 22.5706,184.262 39,177.5C 39.0297,161.408 39.6963,145.408 41,129.5C 61.9577,112.878 82.6243,95.8777 103,78.5C 103.333,56.1667 103.667,33.8333 104,11.5C 104.69,9.64977 105.856,8.31643 107.5,7.5 Z"/></g>
<g><path style="opacity:1" fill="#c0cee7" d="M 119.5,23.5 C 210.167,23.5 300.833,23.5 391.5,23.5C 391.5,92.8333 391.5,162.167 391.5,231.5C 370.167,231.5 348.833,231.5 327.5,231.5C 327.5,226.167 327.5,220.833 327.5,215.5C 340.833,215.5 354.167,215.5 367.5,215.5C 367.5,210.167 367.5,204.833 367.5,199.5C 354.167,199.5 340.833,199.5 327.5,199.5C 327.5,194.167 327.5,188.833 327.5,183.5C 340.833,183.5 354.167,183.5 367.5,183.5C 367.5,178.167 367.5,172.833 367.5,167.5C 354.167,167.5 340.833,167.5 327.5,167.5C 327.5,162.167 327.5,156.833 327.5,151.5C 340.833,151.5 354.167,151.5 367.5,151.5C 367.5,146.167 367.5,140.833 367.5,135.5C 354.167,135.5 340.833,135.5 327.5,135.5C 327.5,130.167 327.5,124.833 327.5,119.5C 340.833,119.5 354.167,119.5 367.5,119.5C 367.5,114.167 367.5,108.833 367.5,103.5C 354.167,103.5 340.833,103.5 327.5,103.5C 327.667,89.1628 327.5,74.8295 327,60.5C 326.535,59.0692 325.701,57.9025 324.5,57C 260.558,55.3442 196.558,55.0109 132.5,56C 128.318,58.9259 124.318,62.0925 120.5,65.5C 119.501,51.5159 119.167,37.5159 119.5,23.5 Z"/></g>
<g><path style="opacity:1" fill="#e3e9f3" d="M 143.5,71.5 C 199.5,71.5 255.5,71.5 311.5,71.5C 311.5,124.833 311.5,178.167 311.5,231.5C 304.825,231.666 298.158,231.5 291.5,231C 287.333,229.5 284.5,226.667 283,222.5C 280.209,210.877 276.543,199.544 272,188.5C 267.038,181.936 260.538,177.769 252.5,176C 186.834,175.5 121.168,175.333 55.5,175.5C 55.5,164.833 55.5,154.167 55.5,143.5C 83.897,143.975 112.23,143.475 140.5,142C 141.893,140.829 142.727,139.329 143,137.5C 143.5,115.503 143.667,93.5025 143.5,71.5 Z"/></g>
<g><path style="opacity:1" fill="#93adcf" d="M 126.5,80.5 C 127.496,95.9911 127.83,111.658 127.5,127.5C 108.497,127.667 89.4971,127.5 70.5,127C 89.3566,111.636 108.023,96.1356 126.5,80.5 Z"/></g>
<g><path style="opacity:1" fill="#eb8228" d="M 443.5,103.5 C 464.347,115.878 476.181,134.211 479,158.5C 479.667,255.833 479.667,353.167 479,450.5C 476.221,469.109 465.388,478.776 446.5,479.5C 443.101,477.053 440.935,473.72 440,469.5C 439.667,400.833 439.333,332.167 439,263.5C 434.703,247.37 424.536,237.037 408.5,232.5C 407.5,189.505 407.167,146.505 407.5,103.5C 419.5,103.5 431.5,103.5 443.5,103.5 Z"/></g>
<g><path style="opacity:1" fill="#e46a10" d="M 443.5,103.5 C 452.173,103.334 460.84,103.5 469.5,104C 478,107.167 483.833,113 487,121.5C 487.667,237.5 487.667,353.5 487,469.5C 479.591,486.303 467.424,491.136 450.5,484C 448.959,482.629 447.625,481.129 446.5,479.5C 465.388,478.776 476.221,469.109 479,450.5C 479.667,353.167 479.667,255.833 479,158.5C 476.181,134.211 464.347,115.878 443.5,103.5 Z"/></g>
<g><path style="opacity:1" fill="#000000" d="M 191.5,111.5 C 223.5,111.5 255.5,111.5 287.5,111.5C 287.5,116.833 287.5,122.167 287.5,127.5C 255.5,127.5 223.5,127.5 191.5,127.5C 191.5,122.167 191.5,116.833 191.5,111.5 Z"/></g>
<g><path style="opacity:1" fill="#000000" d="M 159.5,143.5 C 202.167,143.5 244.833,143.5 287.5,143.5C 287.5,148.833 287.5,154.167 287.5,159.5C 244.833,159.5 202.167,159.5 159.5,159.5C 159.5,154.167 159.5,148.833 159.5,143.5 Z"/></g>
<g><path style="opacity:1" fill="#fbb631" d="M 423.5,470.5 C 304.667,471.666 185.667,471.833 66.5,471C 51.6796,468.18 42.8463,459.346 40,444.5C 39.5,361.834 39.3333,279.167 39.5,196.5C 41.9647,194.163 44.9647,192.663 48.5,192C 116.167,191.333 183.833,191.333 251.5,192C 255.667,193.5 258.5,196.333 260,200.5C 263.069,212.041 266.736,223.374 271,234.5C 274.97,239.475 279.803,243.309 285.5,246C 325.128,247.304 364.795,247.971 404.5,248C 413.573,250.739 419.74,256.573 423,265.5C 423.5,333.833 423.667,402.166 423.5,470.5 Z"/></g>
<g><path style="opacity:1" fill="#fea516" d="M 39.5,196.5 C 39.3333,279.167 39.5,361.834 40,444.5C 42.8463,459.346 51.6796,468.18 66.5,471C 185.667,471.833 304.667,471.666 423.5,470.5C 425.29,476.338 427.957,481.838 431.5,487C 301.5,487.667 171.5,487.667 41.5,487C 33,483.833 27.1667,478 24,469.5C 23.3333,385.167 23.3333,300.833 24,216.5C 25.279,211.275 27.6123,206.609 31,202.5C 33.2787,199.619 36.112,197.619 39.5,196.5 Z"/></g>
<g><path style="opacity:1" fill="#050200" d="M 124.5,255.5 C 143.235,255.039 161.902,255.539 180.5,257C 181.701,257.903 182.535,259.069 183,260.5C 183.333,266.167 183.667,271.833 184,277.5C 184.561,278.022 185.228,278.355 186,278.5C 190.489,274.68 194.989,270.847 199.5,267C 201.971,266.294 204.305,266.627 206.5,268C 219.667,279.833 232.167,292.333 244,305.5C 244.743,308.783 244.076,311.783 242,314.5C 227.988,326.572 230.488,331.072 249.5,328C 252.232,328.398 254.065,329.898 255,332.5C 255.961,351.232 255.628,369.899 254,388.5C 252.829,389.893 251.329,390.727 249.5,391C 244.167,391.333 238.833,391.667 233.5,392C 232.978,392.561 232.645,393.228 232.5,394C 236.32,398.489 240.153,402.989 244,407.5C 244.743,410.783 244.076,413.783 242,416.5C 230.105,429.065 217.605,440.898 204.5,452C 202.833,452.667 201.167,452.667 199.5,452C 195.2,448.702 191.2,445.035 187.5,441C 186.5,440.333 185.5,440.333 184.5,441C 183.691,446.417 183.191,451.917 183,457.5C 182.5,460.667 180.667,462.5 177.5,463C 159.833,463.667 142.167,463.667 124.5,463C 123.069,462.535 121.903,461.701 121,460.5C 119.796,454.247 119.129,447.914 119,441.5C 118.439,440.978 117.772,440.645 117,440.5C 113.213,443.284 109.713,446.451 106.5,450C 103.783,452.076 100.783,452.743 97.5,452C 83.6329,439.8 70.7996,426.633 59,412.5C 58.2937,410.029 58.627,407.695 60,405.5C 63.3333,402.167 66.6667,398.833 70,395.5C 70.6667,394.5 70.6667,393.5 70,392.5C 64.2488,391.69 58.4155,391.19 52.5,391C 49.8981,390.065 48.3981,388.232 48,385.5C 47.3333,367.833 47.3333,350.167 48,332.5C 48.8333,330.333 50.3333,328.833 52.5,328C 58.1667,327.667 63.8333,327.333 69.5,327C 70.0219,326.439 70.3552,325.772 70.5,325C 67.7161,321.213 64.5494,317.713 61,314.5C 58.9238,311.783 58.2571,308.783 59,305.5C 71.1667,292 84,279.167 97.5,267C 100.783,266.257 103.783,266.924 106.5,269C 109.5,272 112.5,275 115.5,278C 116.5,278.667 117.5,278.667 118.5,278C 119.31,272.249 119.81,266.416 120,260.5C 121.025,258.313 122.525,256.646 124.5,255.5 Z"/></g>
<g><path style="opacity:1" fill="#c71022" d="M 135.5,271.5 C 146.167,271.5 156.833,271.5 167.5,271.5C 167.334,276.179 167.501,280.845 168,285.5C 169.167,288 171,289.833 173.5,291C 178.4,292.702 183.234,294.535 188,296.5C 193.545,294.976 198.045,291.81 201.5,287C 202.167,286.333 202.833,286.333 203.5,287C 210.681,294.014 217.681,301.181 224.5,308.5C 221.85,311.651 219.016,314.651 216,317.5C 215.125,318.873 214.625,320.373 214.5,322C 216.505,329.709 219.839,336.709 224.5,343C 229.489,343.499 234.489,343.666 239.5,343.5C 239.5,354.167 239.5,364.833 239.5,375.5C 234.489,375.334 229.489,375.501 224.5,376C 222.622,377.543 221.122,379.376 220,381.5C 218.298,386.4 216.465,391.234 214.5,396C 216.024,401.545 219.19,406.045 224,409.5C 224.667,410.167 224.667,410.833 224,411.5C 216.986,418.681 209.819,425.681 202.5,432.5C 199.349,429.85 196.349,427.016 193.5,424C 191.722,423.296 189.888,422.796 188,422.5C 182.568,424.798 177.068,426.964 171.5,429C 170.333,430.167 169.167,431.333 168,432.5C 167.501,437.489 167.334,442.489 167.5,447.5C 156.833,447.5 146.167,447.5 135.5,447.5C 135.666,442.489 135.499,437.489 135,432.5C 128.709,427.839 121.709,424.505 114,422.5C 109.024,424.46 104.857,427.627 101.5,432C 100.833,432.667 100.167,432.667 99.5,432C 92.3187,424.986 85.3187,417.819 78.5,410.5C 81.1504,407.349 83.9838,404.349 87,401.5C 87.704,399.722 88.204,397.888 88.5,396C 86.2022,390.568 84.0356,385.068 82,379.5C 80.786,377.951 79.286,376.785 77.5,376C 72.8452,375.501 68.1785,375.334 63.5,375.5C 63.5,364.833 63.5,354.167 63.5,343.5C 68.1785,343.666 72.8452,343.499 77.5,343C 79.286,342.215 80.786,341.049 82,339.5C 84.3134,333.709 86.4801,327.876 88.5,322C 86.5396,317.024 83.3729,312.857 79,309.5C 78.3333,308.833 78.3333,308.167 79,307.5C 86.0144,300.319 93.181,293.319 100.5,286.5C 103.651,289.15 106.651,291.984 109.5,295C 110.873,295.875 112.373,296.375 114,296.5C 119.876,294.48 125.709,292.313 131.5,290C 133.049,288.786 134.215,287.286 135,285.5C 135.499,280.845 135.666,276.179 135.5,271.5 Z"/></g>
<g><path style="opacity:1" fill="#030100" d="M 142.5,311.5 C 175.51,310.023 194.51,325.523 199.5,358C 198.795,383.03 186.462,399.03 162.5,406C 133.298,410.32 114.131,398.486 105,370.5C 101.047,340.301 113.547,320.634 142.5,311.5 Z"/></g>
<g><path style="opacity:1" fill="#f9b531" d="M 144.5,327.5 C 171.309,326.808 184.142,339.808 183,366.5C 176.734,384.887 163.901,393.054 144.5,391C 126.113,384.734 117.946,371.901 120,352.5C 123.683,339.651 131.85,331.318 144.5,327.5 Z"/></g>
</svg>
