<?xml version="1.0" encoding="UTF-8"?>
<!DOCTYPE svg PUBLIC "-//W3C//DTD SVG 1.1//EN" "http://www.w3.org/Graphics/SVG/1.1/DTD/svg11.dtd">
<svg xmlns="http://www.w3.org/2000/svg" version="1.1" width="512px" height="512px" style="shape-rendering:geometricPrecision; text-rendering:geometricPrecision; image-rendering:optimizeQuality; fill-rule:evenodd; clip-rule:evenodd" xmlns:xlink="http://www.w3.org/1999/xlink">
<g><path style="opacity:0.996" fill="#000000" d="M 107.5,7.5 C 206.167,7.33334 304.834,7.5 403.5,8C 405.333,8.5 406.5,9.66667 407,11.5C 407.5,36.8311 407.667,62.1645 407.5,87.5C 430.553,87.0416 453.553,87.5416 476.5,89C 490.606,94.1058 499.44,103.939 503,118.5C 503.667,236.5 503.667,354.5 503,472.5C 498.833,488.667 488.667,498.833 472.5,503C 326.457,503.994 180.457,503.66 34.5,502C 20.3937,496.894 11.5604,487.061 8,472.5C 7.33333,386.167 7.33333,299.833 8,213.5C 12.2373,196.262 22.5706,184.262 39,177.5C 39.0297,161.408 39.6963,145.408 41,129.5C 61.9577,112.878 82.6243,95.8777 103,78.5C 103.333,56.1667 103.667,33.8333 104,11.5C 104.69,9.64977 105.856,8.31643 107.5,7.5 Z"/></g>
<g><path style="opacity:1" fill="#c0cee7" d="M 119.5,23.5 C 210.167,23.5 300.833,23.5 391.5,23.5C 391.5,92.8333 391.5,162.167 391.5,231.5C 370.167,231.5 348.833,231.5 327.5,231.5C 327.5,226.167 327.5,220.833 327.5,215.5C 340.833,215.5 354.167,215.5 367.5,215.5C 367.5,210.167 367.5,204.833 367.5,199.5C 354.167,199.5 340.833,199.5 327.5,199.5C 327.5,194.167 327.5,188.833 327.5,183.5C 340.833,183.5 354.167,183.5 367.5,183.5C 367.5,178.167 367.5,172.833 367.5,167.5C 354.167,167.5 340.833,167.5 327.5,167.5C 327.5,162.167 327.5,156.833 327.5,151.5C 340.833,151.5 354.167,151.5 367.5,151.5C 367.5,146.167 367.5,140.833 367.5,135.5C 354.167,135.5 340.833,135.5 327.5,135.5C 327.5,130.167 327.5,124.833 327.5,119.5C 340.833,119.5 354.167,119.5 367.5,119.5C 367.5,114.167 367.5,108.833 367.5,103.5C 354.167,103.5 340.833,103.5 327.5,103.5C 327.667,89.1628 327.5,74.8295 327,60.5C 326.535,59.0692 325.701,57.9025 324.5,57C 260.558,55.3442 196.558,55.0109 132.5,56C 128.318,58.9259 124.318,62.0925 120.5,65.5C 119.501,51.5159 119.167,37.5159 119.5,23.5 Z"/></g>
<g><path style="opacity:1" fill="#e3e9f3" d="M 143.5,71.5 C 199.5,71.5 255.5,71.5 311.5,71.5C 311.5,124.833 311.5,178.167 311.5,231.5C 304.825,231.666 298.158,231.5 291.5,231C 287.333,229.5 284.5,226.667 283,222.5C 280.209,210.877 276.543,199.544 272,188.5C 267.038,181.936 260.538,177.769 252.5,176C 186.834,175.5 121.168,175.333 55.5,175.5C 55.5,164.833 55.5,154.167 55.5,143.5C 83.897,143.975 112.23,143.475 140.5,142C 141.893,140.829 142.727,139.329 143,137.5C 143.5,115.503 143.667,93.5025 143.5,71.5 Z"/></g>
<g><path style="opacity:1" fill="#93adcf" d="M 126.5,80.5 C 127.496,95.9911 127.83,111.658 127.5,127.5C 108.497,127.667 89.4971,127.5 70.5,127C 89.3566,111.636 108.023,96.1356 126.5,80.5 Z"/></g>
<g><path style="opacity:1" fill="#067aa2" d="M 443.5,103.5 C 463.397,115.598 475.23,133.265 479,156.5C 479.667,255.5 479.667,354.5 479,453.5C 474.574,470.134 463.741,478.801 446.5,479.5C 443.379,476.862 441.212,473.528 440,469.5C 439.667,400.833 439.333,332.167 439,263.5C 434.703,247.37 424.536,237.037 408.5,232.5C 407.5,189.505 407.167,146.505 407.5,103.5C 419.5,103.5 431.5,103.5 443.5,103.5 Z"/></g>
<g><path style="opacity:1" fill="#0672a2" d="M 443.5,103.5 C 451.84,103.334 460.173,103.5 468.5,104C 477.573,106.739 483.74,112.573 487,121.5C 487.667,237.5 487.667,353.5 487,469.5C 481.975,483.43 472.141,489.263 457.5,487C 453.107,485.477 449.44,482.977 446.5,479.5C 463.741,478.801 474.574,470.134 479,453.5C 479.667,354.5 479.667,255.5 479,156.5C 475.23,133.265 463.397,115.598 443.5,103.5 Z"/></g>
<g><path style="opacity:1" fill="#000000" d="M 191.5,111.5 C 223.5,111.5 255.5,111.5 287.5,111.5C 287.5,116.833 287.5,122.167 287.5,127.5C 255.5,127.5 223.5,127.5 191.5,127.5C 191.5,122.167 191.5,116.833 191.5,111.5 Z"/></g>
<g><path style="opacity:1" fill="#000000" d="M 159.5,143.5 C 202.167,143.5 244.833,143.5 287.5,143.5C 287.5,148.833 287.5,154.167 287.5,159.5C 244.833,159.5 202.167,159.5 159.5,159.5C 159.5,154.167 159.5,148.833 159.5,143.5 Z"/></g>
<g><path style="opacity:1" fill="#42b5e4" d="M 423.5,468.5 C 423.5,469.5 423.5,470.5 423.5,471.5C 303.833,471.667 184.166,471.5 64.5,471C 51.2315,467.398 43.0649,458.898 40,445.5C 39.5,362.501 39.3333,279.501 39.5,196.5C 41.9647,194.163 44.9647,192.663 48.5,192C 116.167,191.333 183.833,191.333 251.5,192C 255.667,193.5 258.5,196.333 260,200.5C 263.069,212.041 266.736,223.374 271,234.5C 274.97,239.475 279.803,243.309 285.5,246C 325.128,247.304 364.795,247.971 404.5,248C 413.573,250.739 419.74,256.573 423,265.5C 423.5,333.166 423.667,400.833 423.5,468.5 Z"/></g>
<g><path style="opacity:1" fill="#3592ce" d="M 39.5,196.5 C 39.3333,279.501 39.5,362.501 40,445.5C 43.0649,458.898 51.2315,467.398 64.5,471C 184.166,471.5 303.833,471.667 423.5,471.5C 423.5,470.5 423.5,469.5 423.5,468.5C 424.883,475.124 427.549,481.291 431.5,487C 301.5,487.667 171.5,487.667 41.5,487C 33,483.833 27.1667,478 24,469.5C 23.3333,385.167 23.3333,300.833 24,216.5C 25.279,211.275 27.6123,206.609 31,202.5C 33.2787,199.619 36.112,197.619 39.5,196.5 Z"/></g>
<g><path style="opacity:1" fill="#040403" d="M 164.5,255.5 C 167.271,255.421 169.937,255.921 172.5,257C 199.667,284.167 226.833,311.333 254,338.5C 255.879,341.8 255.879,345.134 254,348.5C 252.829,349.893 251.329,350.727 249.5,351C 239.167,351.333 228.833,351.667 218.5,352C 205.833,364.667 193.167,377.333 180.5,390C 178.722,390.704 176.888,391.204 175,391.5C 171.864,390.602 169.031,389.436 166.5,388C 147.167,407.333 127.833,426.667 108.5,446C 91.5,451.667 74.5,457.333 57.5,463C 49.8588,463.688 46.6921,460.188 48,452.5C 53.4692,435.759 59.1359,419.092 65,402.5C 84.3333,383.167 103.667,363.833 123,344.5C 121.296,341.742 120.129,338.575 119.5,335C 119.625,333.373 120.125,331.873 121,330.5C 133.667,317.833 146.333,305.167 159,292.5C 159.333,281.833 159.667,271.167 160,260.5C 161.025,258.313 162.525,256.646 164.5,255.5 Z"/></g>
<g><path style="opacity:1" fill="#eb8228" d="M 175.5,283.5 C 192.965,300.465 210.299,317.632 227.5,335C 221.722,335.094 216.056,335.761 210.5,337C 198.986,348.681 187.319,360.181 175.5,371.5C 163.167,359.833 151.167,347.833 139.5,335.5C 150.819,323.681 162.319,312.014 174,300.5C 175.351,294.928 175.851,289.262 175.5,283.5 Z"/></g>
<g><path style="opacity:1" fill="#fdc56e" d="M 134.5,355.5 C 141.744,361.238 148.577,367.572 155,374.5C 155.667,375.167 155.667,375.833 155,376.5C 136.5,395 118,413.5 99.5,432C 89.243,435.808 78.9097,439.308 68.5,442.5C 71.3575,432.427 74.5241,422.427 78,412.5C 97.035,393.632 115.868,374.632 134.5,355.5 Z"/></g>
</svg>
