<?xml version="1.0" encoding="UTF-8"?>
<!DOCTYPE svg PUBLIC "-//W3C//DTD SVG 1.1//EN" "http://www.w3.org/Graphics/SVG/1.1/DTD/svg11.dtd">
<svg xmlns="http://www.w3.org/2000/svg" version="1.1" width="512px" height="512px" style="shape-rendering:geometricPrecision; text-rendering:geometricPrecision; image-rendering:optimizeQuality; fill-rule:evenodd; clip-rule:evenodd" xmlns:xlink="http://www.w3.org/1999/xlink">
<g><path style="opacity:0.975" fill="#020101" d="M 148.5,-0.5 C 198.5,-0.5 248.5,-0.5 298.5,-0.5C 309.013,7.50209 318.846,16.5021 328,26.5C 339.319,12.3427 353.819,3.34274 371.5,-0.5C 379.5,-0.5 387.5,-0.5 395.5,-0.5C 436.181,10.4751 455.015,37.1418 452,79.5C 443.402,115.595 420.569,134.928 383.5,137.5C 377.037,137.256 370.703,136.256 364.5,134.5C 363.333,165.495 363.167,196.495 364,227.5C 373.521,229.261 380.188,234.594 384,243.5C 385.444,260.777 385.944,278.111 385.5,295.5C 412.541,292.764 432.041,303.431 444,327.5C 445.426,332.308 443.926,335.641 439.5,337.5C 437.143,337.663 434.81,337.497 432.5,337C 429.209,332.252 426.042,327.419 423,322.5C 412.27,312.175 399.436,308.175 384.5,310.5C 384.5,334.833 384.5,359.167 384.5,383.5C 405.512,386.495 420.845,378.662 430.5,360C 433.014,358.748 435.68,358.248 438.5,358.5C 440.371,358.859 441.871,359.859 443,361.5C 443.667,364.167 443.667,366.833 443,369.5C 430.397,391.721 411.231,401.721 385.5,399.5C 387.902,442.852 370.902,476.019 334.5,499C 323.106,505.296 311.106,509.463 298.5,511.5C 266.167,511.5 233.833,511.5 201.5,511.5C 152.615,501.447 123.782,471.781 115,422.5C 114.5,414.841 114.334,407.174 114.5,399.5C 82.2148,401.679 61.7148,387.345 53,356.5C 50.096,328.795 61.2627,309.295 86.5,298C 95.6881,295.773 105.021,294.94 114.5,295.5C 114.333,279.163 114.5,262.83 115,246.5C 118.212,235.954 125.212,229.62 136,227.5C 136.333,177.5 136.667,127.5 137,77.5C 138.638,75.2663 140.805,73.933 143.5,73.5C 145.389,74.322 147.389,75.1553 149.5,76C 150.126,76.7504 150.626,77.5838 151,78.5C 151.5,128.166 151.667,177.832 151.5,227.5C 216.998,228.499 282.665,228.832 348.5,228.5C 348.832,194.329 348.498,160.329 347.5,126.5C 338.139,120.473 330.473,112.806 324.5,103.5C 319.498,94.1559 316.498,84.1559 315.5,73.5C 315.334,67.8236 315.501,62.1569 316,56.5C 317.097,50.9858 318.43,45.6524 320,40.5C 311.47,31.6359 302.637,23.1359 293.5,15C 283.172,14.5002 272.839,14.3335 262.5,14.5C 225.832,14.3333 189.165,14.5 152.5,15C 151.678,26.424 151.178,37.924 151,49.5C 150.626,50.4162 150.126,51.2496 149.5,52C 147.389,52.8447 145.389,53.678 143.5,54.5C 140.805,54.067 138.638,52.7337 137,50.5C 136.333,37.5 136.333,24.5 137,11.5C 139.045,5.62437 142.878,1.62437 148.5,-0.5 Z"/></g>
<g><path style="opacity:1" fill="#fddf76" d="M 262.5,14.5 C 279.465,31.9652 296.632,49.2986 314,66.5C 314.186,69.0356 314.686,71.369 315.5,73.5C 316.498,84.1559 319.498,94.1559 324.5,103.5C 324.5,144.833 324.5,186.167 324.5,227.5C 266.833,227.5 209.167,227.5 151.5,227.5C 151.667,177.832 151.5,128.166 151,78.5C 150.626,77.5838 150.126,76.7504 149.5,76C 147.389,75.1553 145.389,74.322 143.5,73.5C 143.5,67.1667 143.5,60.8333 143.5,54.5C 145.389,53.678 147.389,52.8447 149.5,52C 150.126,51.2496 150.626,50.4162 151,49.5C 151.178,37.924 151.678,26.424 152.5,15C 189.165,14.5 225.832,14.3333 262.5,14.5 Z"/></g>
<g><path style="opacity:1" fill="#fbce5a" d="M 262.5,14.5 C 272.839,14.3335 283.172,14.5002 293.5,15C 302.637,23.1359 311.47,31.6359 320,40.5C 318.43,45.6524 317.097,50.9858 316,56.5C 315.501,62.1569 315.334,67.8236 315.5,73.5C 314.686,71.369 314.186,69.0356 314,66.5C 296.632,49.2986 279.465,31.9652 262.5,14.5 Z"/></g>
<g><path style="opacity:1" fill="#95d879" d="M 382.5,14.5 C 394.319,21.9843 403.319,31.9843 409.5,44.5C 399.188,55.479 388.521,66.1457 377.5,76.5C 370.681,70.1814 364.014,63.6814 357.5,57C 348.416,51.2914 343.916,53.7914 344,64.5C 352.803,74.3037 361.97,83.8037 371.5,93C 374.58,95.8155 377.913,96.1489 381.5,94C 392.035,83.2979 402.702,72.7979 413.5,62.5C 414.341,87.8192 404.341,107.486 383.5,121.5C 357.999,120.17 340.832,107.503 332,83.5C 325.97,52.0562 337.47,29.8895 366.5,17C 371.689,15.2023 377.022,14.369 382.5,14.5 Z"/></g>
<g><path style="opacity:1" fill="#7ece5f" d="M 382.5,14.5 C 415.567,16.9008 433.9,34.5674 437.5,67.5C 435.726,96.442 420.726,114.275 392.5,121C 389.518,121.498 386.518,121.665 383.5,121.5C 404.341,107.486 414.341,87.8192 413.5,62.5C 416.462,59.0359 419.629,55.7025 423,52.5C 424.888,43.7212 421.388,40.2212 412.5,42C 411.627,43.045 410.627,43.8783 409.5,44.5C 403.319,31.9843 394.319,21.9843 382.5,14.5 Z"/></g>
<g><path style="opacity:1" fill="#040603" d="M 413.5,62.5 C 402.702,72.7979 392.035,83.2979 381.5,94C 377.913,96.1489 374.58,95.8155 371.5,93C 361.97,83.8037 352.803,74.3037 344,64.5C 343.916,53.7914 348.416,51.2914 357.5,57C 364.014,63.6814 370.681,70.1814 377.5,76.5C 388.521,66.1457 399.188,55.479 409.5,44.5C 410.627,43.8783 411.627,43.045 412.5,42C 421.388,40.2212 424.888,43.7212 423,52.5C 419.629,55.7025 416.462,59.0359 413.5,62.5 Z"/></g>
<g><path style="opacity:1" fill="#0a0804" d="M 185.5,63.5 C 215.169,63.3334 244.835,63.5 274.5,64C 280.09,69.4102 279.423,74.0769 272.5,78C 243.833,78.6667 215.167,78.6667 186.5,78C 181.465,74.9867 180.298,70.8201 183,65.5C 183.995,64.9341 184.828,64.2674 185.5,63.5 Z"/></g>
<g><path style="opacity:0.958" fill="#000000" d="M 63.5,66.5 C 76.8375,66.3334 90.1708,66.5001 103.5,67C 108.631,67.8158 112.131,70.6492 114,75.5C 114.667,90.5 114.667,105.5 114,120.5C 112.402,125.099 109.235,127.932 104.5,129C 90.1667,129.667 75.8333,129.667 61.5,129C 58.4384,127.939 55.9384,126.106 54,123.5C 52.3637,107.259 52.0304,90.9253 53,74.5C 55.2706,70.0445 58.7706,67.3778 63.5,66.5 Z"/></g>
<g><path style="opacity:1" fill="#fc4654" d="M 86.5,82.5 C 86.5,92.8333 86.5,103.167 86.5,113.5C 80.1667,113.5 73.8333,113.5 67.5,113.5C 67.5,103.167 67.5,92.8333 67.5,82.5C 73.8333,82.5 80.1667,82.5 86.5,82.5 Z"/></g>
<g><path style="opacity:1" fill="#fa2b39" d="M 86.5,82.5 C 90.5,82.5 94.5,82.5 98.5,82.5C 98.5,92.8333 98.5,103.167 98.5,113.5C 94.5,113.5 90.5,113.5 86.5,113.5C 86.5,103.167 86.5,92.8333 86.5,82.5 Z"/></g>
<g><path style="opacity:1" fill="#090704" d="M 185.5,103.5 C 228.501,103.333 271.501,103.5 314.5,104C 318.696,106.981 319.529,110.814 317,115.5C 316.097,116.701 314.931,117.535 313.5,118C 271.167,118.667 228.833,118.667 186.5,118C 181.311,115.087 180.144,110.92 183,105.5C 183.995,104.934 184.828,104.267 185.5,103.5 Z"/></g>
<g><path style="opacity:1" fill="#fed05a" d="M 324.5,103.5 C 330.473,112.806 338.139,120.473 347.5,126.5C 347.5,160.167 347.5,193.833 347.5,227.5C 339.833,227.5 332.167,227.5 324.5,227.5C 324.5,186.167 324.5,144.833 324.5,103.5 Z"/></g>
<g><path style="opacity:1" fill="#811d23" d="M 98.5,82.5 C 99.4944,92.9869 99.8278,103.654 99.5,114.5C 88.6536,114.828 77.9869,114.494 67.5,113.5C 73.8333,113.5 80.1667,113.5 86.5,113.5C 90.5,113.5 94.5,113.5 98.5,113.5C 98.5,103.167 98.5,92.8333 98.5,82.5 Z"/></g>
<g><path style="opacity:1" fill="#090704" d="M 185.5,143.5 C 190.844,143.334 196.177,143.501 201.5,144C 208.266,148.997 207.933,153.663 200.5,158C 195.833,158.667 191.167,158.667 186.5,158C 181.311,155.087 180.144,150.92 183,145.5C 183.995,144.934 184.828,144.267 185.5,143.5 Z"/></g>
<g><path style="opacity:1" fill="#050402" d="M 227.5,143.5 C 256.502,143.333 285.502,143.5 314.5,144C 319.986,149.081 319.653,153.748 313.5,158C 284.833,158.667 256.167,158.667 227.5,158C 222.174,152.999 222.174,148.165 227.5,143.5 Z"/></g>
<g><path style="opacity:0.973" fill="#000000" d="M 404.5,150.5 C 419.837,150.333 435.17,150.5 450.5,151C 454.333,152.167 456.833,154.667 458,158.5C 458.667,173.833 458.667,189.167 458,204.5C 456.833,208.333 454.333,210.833 450.5,212C 435.167,212.667 419.833,212.667 404.5,212C 402.04,210.542 399.873,208.709 398,206.5C 396.38,190.901 396.047,175.234 397,159.5C 398.614,155.723 401.114,152.723 404.5,150.5 Z"/></g>
<g><path style="opacity:0.958" fill="#000000" d="M 61.5,154.5 C 75.8372,154.333 90.1705,154.5 104.5,155C 109.235,156.068 112.402,158.901 114,163.5C 114.667,178.5 114.667,193.5 114,208.5C 112.131,213.351 108.631,216.184 103.5,217C 90.1667,217.667 76.8333,217.667 63.5,217C 59.5085,216.588 56.3419,214.754 54,211.5C 52.3637,195.259 52.0304,178.925 53,162.5C 55.0982,158.897 57.9315,156.23 61.5,154.5 Z"/></g>
<g><path style="opacity:1" fill="#24a4fc" d="M 412.5,165.5 C 423.014,165.172 433.347,165.506 443.5,166.5C 439.167,166.5 434.833,166.5 430.5,166.5C 430.5,176.5 430.5,186.5 430.5,196.5C 424.5,196.5 418.5,196.5 412.5,196.5C 412.5,186.167 412.5,175.833 412.5,165.5 Z"/></g>
<g><path style="opacity:1" fill="#0592fb" d="M 443.5,166.5 C 443.5,176.5 443.5,186.5 443.5,196.5C 439.167,196.5 434.833,196.5 430.5,196.5C 430.5,186.5 430.5,176.5 430.5,166.5C 434.833,166.5 439.167,166.5 443.5,166.5 Z"/></g>
<g><path style="opacity:1" fill="#fee076" d="M 67.5,170.5 C 73.8333,170.5 80.1667,170.5 86.5,170.5C 86.5,180.833 86.5,191.167 86.5,201.5C 80.1667,201.5 73.8333,201.5 67.5,201.5C 67.5,191.167 67.5,180.833 67.5,170.5 Z"/></g>
<g><path style="opacity:1" fill="#fed15a" d="M 86.5,170.5 C 90.5,170.5 94.5,170.5 98.5,170.5C 98.5,180.833 98.5,191.167 98.5,201.5C 94.5,201.5 90.5,201.5 86.5,201.5C 86.5,191.167 86.5,180.833 86.5,170.5 Z"/></g>
<g><path style="opacity:1" fill="#907736" d="M 67.5,170.5 C 77.9869,169.506 88.6536,169.172 99.5,169.5C 99.8278,180.346 99.4944,191.013 98.5,201.5C 98.5,191.167 98.5,180.833 98.5,170.5C 94.5,170.5 90.5,170.5 86.5,170.5C 80.1667,170.5 73.8333,170.5 67.5,170.5 Z"/></g>
<g><path style="opacity:1" fill="#010100" d="M 185.5,183.5 C 228.168,183.333 270.835,183.5 313.5,184C 318.143,186.072 319.643,189.572 318,194.5C 316.681,196.487 314.848,197.654 312.5,198C 270.167,198.667 227.833,198.667 185.5,198C 180.225,193.122 180.225,188.289 185.5,183.5 Z"/></g>
<g><path style="opacity:1" fill="#1877ba" d="M 412.5,165.5 C 412.5,175.833 412.5,186.167 412.5,196.5C 418.5,196.5 424.5,196.5 430.5,196.5C 434.833,196.5 439.167,196.5 443.5,196.5C 433.013,197.494 422.346,197.828 411.5,197.5C 411.172,186.654 411.506,175.987 412.5,165.5 Z"/></g>
<g><path style="opacity:1" fill="#af964b" d="M 347.5,126.5 C 348.498,160.329 348.832,194.329 348.5,228.5C 282.665,228.832 216.998,228.499 151.5,227.5C 209.167,227.5 266.833,227.5 324.5,227.5C 332.167,227.5 339.833,227.5 347.5,227.5C 347.5,193.833 347.5,160.167 347.5,126.5 Z"/></g>
<g><path style="opacity:1" fill="#fdcdbe" d="M 326.5,243.5 C 327.48,266.788 327.813,290.122 327.5,313.5C 320.895,318.138 313.895,318.638 306.5,315C 301.223,310.432 298.723,304.599 299,297.5C 295.257,291.971 290.924,291.305 286,295.5C 283.537,317.063 293.204,329.396 315,332.5C 319.257,332.281 323.423,331.615 327.5,330.5C 327.667,360.502 327.5,390.502 327,420.5C 322.875,454.452 306.042,479.785 276.5,496.5C 252.164,496.667 227.831,496.5 203.5,496C 160.278,486.779 135.778,460.279 130,416.5C 129.667,397.5 129.333,378.5 129,359.5C 128.208,357.356 126.708,356.023 124.5,355.5C 123.252,352.262 122.585,348.762 122.5,345C 122.585,341.238 123.252,337.738 124.5,334.5C 126.708,333.977 128.208,332.644 129,330.5C 129.333,303.833 129.667,277.167 130,250.5C 130.786,247.417 132.619,245.251 135.5,244C 199.166,243.5 262.832,243.333 326.5,243.5 Z"/></g>
<g><path style="opacity:1" fill="#fcae9c" d="M 326.5,243.5 C 339.171,243.333 351.838,243.5 364.5,244C 367.381,245.251 369.214,247.417 370,250.5C 370.968,308.524 370.634,366.524 369,424.5C 360.288,464.545 335.788,488.378 295.5,496C 289.175,496.5 282.842,496.666 276.5,496.5C 306.042,479.785 322.875,454.452 327,420.5C 327.5,390.502 327.667,360.502 327.5,330.5C 342.261,324.547 349.094,313.547 348,297.5C 345.089,293.723 341.256,292.556 336.5,294C 335.299,294.903 334.465,296.069 334,297.5C 333.548,300.877 332.882,304.211 332,307.5C 331.208,310.106 329.708,312.106 327.5,313.5C 327.813,290.122 327.48,266.788 326.5,243.5 Z"/></g>
<g><path style="opacity:1" fill="#050403" d="M 155.5,293.5 C 158.93,293.107 162.096,293.773 165,295.5C 166.752,314.786 176.585,320.952 194.5,314C 199.204,309.563 201.371,304.063 201,297.5C 204.661,293.024 208.994,292.357 214,295.5C 216.997,315.527 208.497,327.694 188.5,332C 166.688,333.356 154.355,323.19 151.5,301.5C 151.282,297.934 152.616,295.268 155.5,293.5 Z"/></g>
<g><path style="opacity:1" fill="#060404" d="M 327.5,313.5 C 329.708,312.106 331.208,310.106 332,307.5C 332.882,304.211 333.548,300.877 334,297.5C 334.465,296.069 335.299,294.903 336.5,294C 341.256,292.556 345.089,293.723 348,297.5C 349.094,313.547 342.261,324.547 327.5,330.5C 323.423,331.615 319.257,332.281 315,332.5C 293.204,329.396 283.537,317.063 286,295.5C 290.924,291.305 295.257,291.971 299,297.5C 298.723,304.599 301.223,310.432 306.5,315C 313.895,318.638 320.895,318.138 327.5,313.5 Z"/></g>
<g><path style="opacity:1" fill="#040303" d="M 246.5,296.5 C 250.954,295.617 254.454,296.95 257,300.5C 257.913,309.576 257.58,318.576 256,327.5C 254.878,329.624 253.378,331.457 251.5,333C 230.694,336.477 222.861,348.31 228,368.5C 233.957,378.401 242.791,383.568 254.5,384C 258.35,387.96 258.35,391.96 254.5,396C 240.317,398.176 228.484,393.676 219,382.5C 209.872,367.863 209.205,352.863 217,337.5C 223.12,328.195 231.62,322.528 242.5,320.5C 242.334,313.825 242.5,307.158 243,300.5C 243.69,298.65 244.856,297.316 246.5,296.5 Z"/></g>
<g><path style="opacity:1" fill="#fcae9c" d="M 124.5,334.5 C 123.252,337.738 122.585,341.238 122.5,345C 122.585,348.762 123.252,352.262 124.5,355.5C 119.867,354.458 116.701,356.125 115,360.5C 114.5,368.159 114.334,375.826 114.5,383.5C 86.9492,386.434 71.2825,374.268 67.5,347C 68.8815,329.897 77.5481,318.231 93.5,312C 100.426,310.661 107.426,310.161 114.5,310.5C 114.334,316.842 114.5,323.175 115,329.5C 116.701,333.875 119.867,335.542 124.5,334.5 Z"/></g>
<g><path style="opacity:0.999" fill="#f3927d" d="M 439.5,337.5 C 441.065,344.625 440.732,351.625 438.5,358.5C 435.68,358.248 433.014,358.748 430.5,360C 420.845,378.662 405.512,386.495 384.5,383.5C 384.5,359.167 384.5,334.833 384.5,310.5C 399.436,308.175 412.27,312.175 423,322.5C 426.042,327.419 429.209,332.252 432.5,337C 434.81,337.497 437.143,337.663 439.5,337.5 Z"/></g>
<g><path style="opacity:1" fill="#010101" d="M 200.5,419.5 C 233.168,419.333 265.835,419.5 298.5,420C 304.292,422.09 305.792,425.924 303,431.5C 301.829,432.893 300.329,433.727 298.5,434C 265.833,434.667 233.167,434.667 200.5,434C 193.899,429.171 193.899,424.338 200.5,419.5 Z"/></g>
<g><path style="opacity:1" fill="#0a0707" d="M 231.5,446.5 C 243.505,446.333 255.505,446.5 267.5,447C 274.637,450.692 275.304,455.359 269.5,461C 256.5,461.667 243.5,461.667 230.5,461C 225.003,455.683 225.336,450.85 231.5,446.5 Z"/></g>
</svg>
