<?xml version="1.0" encoding="UTF-8"?>
<!DOCTYPE svg PUBLIC "-//W3C//DTD SVG 1.1//EN" "http://www.w3.org/Graphics/SVG/1.1/DTD/svg11.dtd">
<svg xmlns="http://www.w3.org/2000/svg" version="1.1" width="512px" height="512px" style="shape-rendering:geometricPrecision; text-rendering:geometricPrecision; image-rendering:optimizeQuality; fill-rule:evenodd; clip-rule:evenodd" xmlns:xlink="http://www.w3.org/1999/xlink">
<g><path style="opacity:0.964" fill="#57c4fe" d="M 233.5,-0.5 C 248.5,-0.5 263.5,-0.5 278.5,-0.5C 379.371,12.3469 450.871,65.0136 493,157.5C 502.497,181.819 508.663,206.819 511.5,232.5C 511.5,247.833 511.5,263.167 511.5,278.5C 499.099,376.153 448.766,446.653 360.5,490C 334.11,501.263 306.776,508.429 278.5,511.5C 263.167,511.5 247.833,511.5 232.5,511.5C 143.853,500.61 76.6868,456.943 31,380.5C 13.7076,348.465 3.20759,314.465 -0.5,278.5C -0.5,263.167 -0.5,247.833 -0.5,232.5C 5.48711,176.036 27.1538,126.536 64.5,84C 73.6261,80.8043 77.7927,83.971 77,93.5C 15.4225,167.399 0.0891628,250.066 31,341.5C 67.5165,427.668 132.017,478.501 224.5,494C 311.419,502.369 383.586,473.869 441,408.5C 499.508,332.276 511.175,249.276 476,159.5C 441.169,85.6524 384.002,39.1524 304.5,20C 225.041,5.77872 154.708,24.7787 93.5,77C 83.971,77.7927 80.8043,73.6261 84,64.5C 126.789,26.8605 176.623,5.19379 233.5,-0.5 Z"/></g>
<g><path style="opacity:0.985" fill="#020101" d="M 234.5,29.5 C 332.001,24.9878 405.501,64.3211 455,147.5C 483.255,202.463 489.255,259.796 473,319.5C 444.658,405.176 386.491,458.009 298.5,478C 204.667,492.075 128.834,461.908 71,387.5C 30.196,327.344 19.196,262.011 38,191.5C 63.1667,114.333 114.333,63.1667 191.5,38C 205.762,34.0717 220.096,31.2384 234.5,29.5 Z"/></g>
<g><path style="opacity:1" fill="#b9f3f8" d="M 236.5,45.5 C 240.167,45.5 243.833,45.5 247.5,45.5C 247.5,54.8333 247.5,64.1667 247.5,73.5C 233.59,70.0926 224.257,61.5926 219.5,48C 224.99,46.1115 230.657,45.2781 236.5,45.5 Z"/></g>
<g><path style="opacity:1" fill="#5f7d80" d="M 236.5,45.5 C 240.298,44.5166 244.298,44.1832 248.5,44.5C 248.827,54.3478 248.494,64.0144 247.5,73.5C 247.5,64.1667 247.5,54.8333 247.5,45.5C 243.833,45.5 240.167,45.5 236.5,45.5 Z"/></g>
<g><path style="opacity:1" fill="#7e2819" d="M 273.5,45.5 C 270.167,45.5 266.833,45.5 263.5,45.5C 263.5,50.1667 263.5,54.8333 263.5,59.5C 262.513,54.6946 262.179,49.6946 262.5,44.5C 266.371,44.185 270.038,44.5184 273.5,45.5 Z"/></g>
<g><path style="opacity:1" fill="#f95031" d="M 273.5,45.5 C 340.792,52.8802 393.625,84.2135 432,139.5C 470.165,200.498 476.832,264.831 452,332.5C 430.965,384.535 395.132,422.702 344.5,447C 322.157,456.919 298.824,463.086 274.5,465.5C 270.833,465.5 267.167,465.5 263.5,465.5C 263.5,460.833 263.5,456.167 263.5,451.5C 335.48,445.936 389.98,412.269 427,350.5C 460.97,284.052 459.637,218.385 423,153.5C 385.488,95.8197 332.321,64.4863 263.5,59.5C 263.5,54.8333 263.5,50.1667 263.5,45.5C 266.833,45.5 270.167,45.5 273.5,45.5 Z"/></g>
<g><path style="opacity:1" fill="#25aafd" d="M 247.5,88.5 C 247.829,142.572 247.495,196.572 246.5,250.5C 223.687,258.115 214.853,273.781 220,297.5C 224.491,310.493 233.324,318.826 246.5,322.5C 247.493,355.76 247.826,389.094 247.5,422.5C 231.135,425.031 218.635,433.365 210,447.5C 207.398,451.474 205.898,455.807 205.5,460.5C 168.209,450.942 135.709,432.942 108,406.5C 110.698,396.069 114.031,385.736 118,375.5C 150.415,368.74 166.081,348.74 165,315.5C 160.058,290.225 144.892,275.392 119.5,271C 99.1667,270.333 78.8333,270.333 58.5,271C 54.1452,272.003 49.9786,273.503 46,275.5C 43.7031,256.41 44.2031,237.41 47.5,218.5C 59.8513,218.168 72.1847,218.501 84.5,219.5C 94.481,240.327 109.814,245.494 130.5,235C 136.222,230.383 140.056,224.55 142,217.5C 142.5,194.502 142.667,171.502 142.5,148.5C 161.775,144.051 171.775,131.884 172.5,112C 171.923,94.6729 163.59,82.8395 147.5,76.5C 146.479,75.9984 146.312,75.3317 147,74.5C 165.201,63.3155 184.701,55.3155 205.5,50.5C 211.545,71.8753 225.545,84.542 247.5,88.5 Z"/></g>
<g><path style="opacity:1" fill="#511e16" d="M 272.5,75.5 C 269.5,75.5 266.5,75.5 263.5,75.5C 263.5,80.1667 263.5,84.8333 263.5,89.5C 262.513,84.6946 262.179,79.6946 262.5,74.5C 266.042,74.1872 269.375,74.5206 272.5,75.5 Z"/></g>
<g><path style="opacity:1" fill="#a03b2b" d="M 272.5,75.5 C 345.375,85.2105 396.208,123.877 425,191.5C 447.334,258.172 436.667,318.839 393,373.5C 361.016,409.909 320.85,430.576 272.5,435.5C 269.5,435.5 266.5,435.5 263.5,435.5C 263.5,430.833 263.5,426.167 263.5,421.5C 320.934,416.872 365.434,390.539 397,342.5C 428.373,286.662 429.373,230.328 400,173.5C 368.894,122.249 323.394,94.249 263.5,89.5C 263.5,84.8333 263.5,80.1667 263.5,75.5C 266.5,75.5 269.5,75.5 272.5,75.5 Z"/></g>
<g><path style="opacity:1" fill="#a3cc55" d="M 124.5,89.5 C 139.208,86.6095 150.042,91.6095 157,104.5C 159.903,123.519 151.736,133.686 132.5,135C 131,135.833 129.833,137 129,138.5C 128.667,163.5 128.333,188.5 128,213.5C 124.737,222.88 118.237,226.713 108.5,225C 101.349,221.873 97.8491,216.373 98,208.5C 97.2155,206.714 96.0488,205.214 94.5,204C 80.1705,203.5 65.8372,203.333 51.5,203.5C 59.821,168.851 75.9877,138.518 100,112.5C 107.761,104.234 115.927,96.5674 124.5,89.5 Z"/></g>
<g><path style="opacity:1" fill="#12547d" d="M 247.5,88.5 C 248.167,115.331 248.5,142.331 248.5,169.5C 248.5,196.842 247.833,223.842 246.5,250.5C 247.495,196.572 247.829,142.572 247.5,88.5 Z"/></g>
<g><path style="opacity:1" fill="#3a1814" d="M 270.5,105.5 C 268.167,105.5 265.833,105.5 263.5,105.5C 263.5,123.167 263.5,140.833 263.5,158.5C 262.503,140.674 262.17,122.674 262.5,104.5C 265.385,104.194 268.052,104.527 270.5,105.5 Z"/></g>
<g><path style="opacity:1" fill="#753128" d="M 270.5,105.5 C 329.925,113.434 371.758,144.767 396,199.5C 416.086,257.268 406.753,309.602 368,356.5C 341.535,384.649 309.035,400.983 270.5,405.5C 268.167,405.5 265.833,405.5 263.5,405.5C 263.5,387.833 263.5,370.167 263.5,352.5C 310.098,346.07 339.264,320.07 351,274.5C 357.619,229.915 342.119,195.415 304.5,171C 291.646,164.104 277.98,159.937 263.5,158.5C 263.5,140.833 263.5,123.167 263.5,105.5C 265.833,105.5 268.167,105.5 270.5,105.5 Z"/></g>
<g><path style="opacity:1" fill="#fb8929" d="M 289.5,180.5 C 306.646,201.259 315.313,225.259 315.5,252.5C 315.953,281.468 307.62,307.468 290.5,330.5C 281.495,334.085 272.162,336.418 262.5,337.5C 262.5,282.833 262.5,228.167 262.5,173.5C 271.893,174.431 280.893,176.765 289.5,180.5 Z"/></g>
<g><path style="opacity:1" fill="#fc6d2d" d="M 289.5,180.5 C 330.116,202.133 344.95,235.466 334,280.5C 326.427,303.236 311.927,319.903 290.5,330.5C 307.62,307.468 315.953,281.468 315.5,252.5C 315.313,225.259 306.646,201.259 289.5,180.5 Z"/></g>
<g><path style="opacity:1" fill="#9dc452" d="M 246.5,265.5 C 247.83,272.133 248.497,279.133 248.5,286.5C 248.167,293.5 247.833,300.5 247.5,307.5C 233.248,299.574 229.748,288.24 237,273.5C 239.772,270.217 242.939,267.55 246.5,265.5 Z"/></g>
<g><path style="opacity:1" fill="#a5cd56" d="M 60.5,285.5 C 80.5028,285.333 100.503,285.5 120.5,286C 142.443,292.703 152.277,307.536 150,330.5C 144.15,350.004 130.984,360.171 110.5,361C 109.069,361.465 107.903,362.299 107,363.5C 103.137,373.423 99.4699,383.423 96,393.5C 70.6115,364.218 54.4448,330.385 47.5,292C 51.5724,289.153 55.9057,286.986 60.5,285.5 Z"/></g>
<g><path style="opacity:1" fill="#12537d" d="M 246.5,322.5 C 247.833,338.82 248.5,355.486 248.5,372.5C 248.5,389.337 248.167,406.003 247.5,422.5C 247.826,389.094 247.493,355.76 246.5,322.5 Z"/></g>
<g><path style="opacity:1" fill="#3a1814" d="M 263.5,352.5 C 263.5,370.167 263.5,387.833 263.5,405.5C 265.833,405.5 268.167,405.5 270.5,405.5C 268.052,406.473 265.385,406.806 262.5,406.5C 262.17,388.326 262.503,370.326 263.5,352.5 Z"/></g>
<g><path style="opacity:1" fill="#4e1d15" d="M 263.5,421.5 C 263.5,426.167 263.5,430.833 263.5,435.5C 266.5,435.5 269.5,435.5 272.5,435.5C 269.375,436.479 266.042,436.813 262.5,436.5C 262.179,431.305 262.513,426.305 263.5,421.5 Z"/></g>
<g><path style="opacity:1" fill="#5f7d7f" d="M 247.5,437.5 C 248.494,446.986 248.827,456.652 248.5,466.5C 244.298,466.817 240.298,466.483 236.5,465.5C 240.167,465.5 243.833,465.5 247.5,465.5C 247.5,456.167 247.5,446.833 247.5,437.5 Z"/></g>
<g><path style="opacity:1" fill="#b8f2f7" d="M 247.5,437.5 C 247.5,446.833 247.5,456.167 247.5,465.5C 243.833,465.5 240.167,465.5 236.5,465.5C 230.513,465.877 224.846,464.877 219.5,462.5C 224.456,449.209 233.789,440.875 247.5,437.5 Z"/></g>
<g><path style="opacity:1" fill="#7c2818" d="M 263.5,451.5 C 263.5,456.167 263.5,460.833 263.5,465.5C 267.167,465.5 270.833,465.5 274.5,465.5C 270.702,466.483 266.702,466.817 262.5,466.5C 262.179,461.305 262.513,456.305 263.5,451.5 Z"/></g>
</svg>
