<?xml version="1.0" encoding="UTF-8"?>
<!DOCTYPE svg PUBLIC "-//W3C//DTD SVG 1.1//EN" "http://www.w3.org/Graphics/SVG/1.1/DTD/svg11.dtd">
<svg xmlns="http://www.w3.org/2000/svg" version="1.1" width="512px" height="512px" style="shape-rendering:geometricPrecision; text-rendering:geometricPrecision; image-rendering:optimizeQuality; fill-rule:evenodd; clip-rule:evenodd" xmlns:xlink="http://www.w3.org/1999/xlink">
<g><path style="opacity:0.996" fill="#1f1606" d="M 30.5,-0.5 C 85.5,-0.5 140.5,-0.5 195.5,-0.5C 199.317,0.840466 202.983,2.6738 206.5,5C 224.869,24.3669 242.869,44.0336 260.5,64C 333.833,64.3333 407.167,64.6667 480.5,65C 497.299,70.2947 507.632,81.4614 511.5,98.5C 511.5,224.833 511.5,351.167 511.5,477.5C 507.438,494.221 497.438,505.554 481.5,511.5C 330.833,511.5 180.167,511.5 29.5,511.5C 13.2917,504.629 3.29166,492.629 -0.5,475.5C -0.5,327.833 -0.5,180.167 -0.5,32.5C 4.01839,15.9831 14.3517,4.98313 30.5,-0.5 Z"/></g>
<g><path style="opacity:1" fill="#f7b32a" d="M 499.5,103.5 C 499.822,109.358 499.489,115.025 498.5,120.5C 495.365,117.099 491.698,114.433 487.5,112.5C 487.5,105.167 487.5,97.8333 487.5,90.5C 334.666,90.167 181.999,90.5004 29.5,91.5C 29.6666,119.502 29.5,147.502 29,175.5C 21.9329,177.901 15.9329,181.901 11,187.5C 10.3333,137.5 10.3333,87.5 11,37.5C 13.681,23.4892 21.8477,14.6558 35.5,11C 87.1667,10.3333 138.833,10.3333 190.5,11C 193.618,12.0587 196.618,13.3921 199.5,15C 218.535,35.0334 237.202,55.3667 255.5,76C 330.167,76.3333 404.833,76.6667 479.5,77C 491.372,81.9139 498.039,90.7472 499.5,103.5 Z"/></g>
<g><path style="opacity:1" fill="#956c19" d="M 29.5,91.5 C 181.999,90.5004 334.666,90.167 487.5,90.5C 487.5,97.8333 487.5,105.167 487.5,112.5C 486.509,105.687 486.175,98.6866 486.5,91.5C 334.167,91.5 181.833,91.5 29.5,91.5 Z"/></g>
<g><path style="opacity:1" fill="#e1e1e1" d="M 41.5,102.5 C 186.167,102.5 330.833,102.5 475.5,102.5C 475.5,104.833 475.5,107.167 475.5,109.5C 422.499,109.333 369.499,109.5 316.5,110C 309.317,112.085 303.317,115.918 298.5,121.5C 212.833,121.5 127.167,121.5 41.5,121.5C 41.5,115.167 41.5,108.833 41.5,102.5 Z"/></g>
<g><path style="opacity:1" fill="#8e6718" d="M 499.5,103.5 C 500.653,109.653 500.82,115.986 500,122.5C 499.283,121.956 498.783,121.289 498.5,120.5C 499.489,115.025 499.822,109.358 499.5,103.5 Z"/></g>
<g><path style="opacity:1" fill="#c1bebc" d="M 41.5,102.5 C 41.5,108.833 41.5,115.167 41.5,121.5C 127.167,121.5 212.833,121.5 298.5,121.5C 212.668,122.499 126.668,122.833 40.5,122.5C 40.176,115.646 40.5093,108.979 41.5,102.5 Z"/></g>
<g><path style="opacity:1" fill="#fdd565" d="M 319.5,120.5 C 371.501,120.333 423.501,120.5 475.5,121C 489.161,124.664 497.328,133.498 500,147.5C 500.667,255.833 500.667,364.167 500,472.5C 497.836,486.654 490.003,495.821 476.5,500C 329.167,500.667 181.833,500.667 34.5,500C 20.7691,494.929 12.9358,485.096 11,470.5C 10.3333,384.5 10.3333,298.5 11,212.5C 13.5745,198.929 21.4078,190.096 34.5,186C 108.5,185.667 182.5,185.333 256.5,185C 274.465,164.7 292.798,144.7 311.5,125C 314.099,123.205 316.766,121.705 319.5,120.5 Z"/></g>
<g><path style="opacity:1" fill="#b9b5b1" d="M 286.5,134.5 C 204.833,134.5 123.167,134.5 41.5,134.5C 41.5,147.833 41.5,161.167 41.5,174.5C 40.5043,161.01 40.171,147.344 40.5,133.5C 123.237,133.167 205.237,133.5 286.5,134.5 Z"/></g>
<g><path style="opacity:1" fill="#fefdfc" d="M 286.5,134.5 C 275.041,147.795 263.375,160.962 251.5,174C 181.501,174.5 111.501,174.667 41.5,174.5C 41.5,161.167 41.5,147.833 41.5,134.5C 123.167,134.5 204.833,134.5 286.5,134.5 Z"/></g>
<g><path style="opacity:1" fill="#1f1506" d="M 159.5,285.5 C 172.173,284.135 184.173,286.302 195.5,292C 201.902,297.477 206.568,304.143 209.5,312C 202.021,313.911 194.521,315.745 187,317.5C 181.724,307.279 173.558,303.779 162.5,307C 157.491,310.178 154.324,314.678 153,320.5C 152.333,327.167 152.333,333.833 153,340.5C 156.543,354.577 165.043,358.744 178.5,353C 183,349.171 185.833,344.338 187,338.5C 193.745,340.859 200.578,343.026 207.5,345C 208.516,345.519 209.182,346.353 209.5,347.5C 206.477,361.356 198.144,370.189 184.5,374C 142.586,380.09 123.086,361.923 126,319.5C 130.027,300.974 141.193,289.641 159.5,285.5 Z"/></g>
<g><path style="opacity:1" fill="#1f1506" d="M 323.5,344.5 C 326.609,344.264 329.609,344.597 332.5,345.5C 334.891,356.376 341.557,360.543 352.5,358C 360.756,353.426 361.422,348.092 354.5,342C 345.533,339.207 336.533,336.54 327.5,334C 310.432,326.379 305.932,314.212 314,297.5C 320.568,290.3 328.735,286.466 338.5,286C 349.218,284.57 359.552,285.903 369.5,290C 377.539,294.91 381.873,302.076 382.5,311.5C 373.851,312.203 365.185,312.536 356.5,312.5C 355.618,304.962 351.285,301.295 343.5,301.5C 337.289,301.539 334.455,304.539 335,310.5C 336.214,312.049 337.714,313.215 339.5,314C 352.063,316.47 364.063,320.47 375.5,326C 386.241,335.383 388.408,346.549 382,359.5C 375.209,369.481 365.709,374.648 353.5,375C 341.052,377.073 329.385,375.073 318.5,369C 310.974,362.602 306.974,354.435 306.5,344.5C 312.167,344.5 317.833,344.5 323.5,344.5 Z"/></g>
<g><path style="opacity:1" fill="#1f1506" d="M 219.5,350.5 C 219.5,348.833 219.5,347.167 219.5,345.5C 222.059,345.802 224.393,345.468 226.5,344.5C 232.5,344.167 238.5,343.833 244.5,343.5C 245.951,355.401 252.617,360.234 264.5,358C 269.689,355.824 271.855,351.991 271,346.5C 270.07,344.448 268.57,342.948 266.5,342C 257.533,339.207 248.533,336.54 239.5,334C 222.131,325.894 217.965,313.394 227,296.5C 235.5,288.423 245.667,284.757 257.5,285.5C 265.79,285.405 273.79,286.905 281.5,290C 289.543,294.919 293.876,302.085 294.5,311.5C 286.158,312.521 277.824,312.521 269.5,311.5C 267.345,304.748 262.678,301.415 255.5,301.5C 250.785,301.685 247.785,304.018 246.5,308.5C 247.269,311.104 248.936,312.938 251.5,314C 262.753,316.562 273.753,319.896 284.5,324C 298.486,333.831 301.319,346.331 293,361.5C 285.902,370.132 276.735,374.632 265.5,375C 254.44,376.526 243.774,375.192 233.5,371C 225.968,366.098 221.302,359.264 219.5,350.5 Z"/></g>
<g><path style="opacity:1" fill="#6b5726" d="M 323.5,344.5 C 324.793,343.842 326.293,343.508 328,343.5C 329.986,343.569 331.486,344.235 332.5,345.5C 329.609,344.597 326.609,344.264 323.5,344.5 Z"/></g>
<g><path style="opacity:1" fill="#8f7635" d="M 226.5,344.5 C 224.393,345.468 222.059,345.802 219.5,345.5C 219.5,347.167 219.5,348.833 219.5,350.5C 218.539,348.735 218.205,346.735 218.5,344.5C 221.167,344.5 223.833,344.5 226.5,344.5 Z"/></g>
</svg>
