<?xml version="1.0" encoding="UTF-8"?>
<!DOCTYPE svg PUBLIC "-//W3C//DTD SVG 1.1//EN" "http://www.w3.org/Graphics/SVG/1.1/DTD/svg11.dtd">
<svg xmlns="http://www.w3.org/2000/svg" version="1.1" width="512px" height="512px" style="shape-rendering:geometricPrecision; text-rendering:geometricPrecision; image-rendering:optimizeQuality; fill-rule:evenodd; clip-rule:evenodd" xmlns:xlink="http://www.w3.org/1999/xlink">
<g><path style="opacity:0.99" fill="#020001" d="M 281.5,41.5 C 280.657,45.3286 278.323,47.8286 274.5,49C 261.5,49.3333 248.5,49.6667 235.5,50C 228.593,66.9866 222.093,84.1533 216,101.5C 215.097,102.701 213.931,103.535 212.5,104C 155.833,104.333 99.1667,104.667 42.5,105C 27.8139,108.259 18.3139,117.092 14,131.5C 13.5001,147.163 13.3334,162.83 13.5,178.5C 13.3379,180.527 13.5045,182.527 14,184.5C 23.116,175.858 33.9494,171.525 46.5,171.5C 46.3335,162.161 46.5002,152.827 47,143.5C 49.5617,137.939 53.7284,134.106 59.5,132C 130.499,131.5 201.499,131.333 272.5,131.5C 274.685,123.149 280.019,117.982 288.5,116C 314.167,115.333 339.833,115.333 365.5,116C 369.57,116.899 371.57,119.399 371.5,123.5C 371.256,126.263 369.923,128.429 367.5,130C 341.5,130.333 315.5,130.667 289.5,131C 288.667,131.833 287.833,132.667 287,133.5C 281.197,149.91 275.197,166.244 269,182.5C 267.681,184.487 265.848,185.654 263.5,186C 188.5,186.333 113.5,186.667 38.5,187C 25.9043,191.262 17.7377,199.762 14,212.5C 13.3333,295.5 13.3333,378.5 14,461.5C 14.5,462 15,462.5 15.5,463C 48.5,463.333 81.5,463.667 114.5,464C 117.28,465.913 118.947,468.413 119.5,471.5C 119.161,474.669 117.495,476.836 114.5,478C 80.1667,478.667 45.8333,478.667 11.5,478C 6.44706,476.108 2.44706,472.942 -0.5,468.5C -0.5,353.833 -0.5,239.167 -0.5,124.5C 5.43024,107.502 17.0969,96.3354 34.5,91C 68.4609,89.7012 102.461,89.0345 136.5,89C 140.662,77.85 144.828,66.6834 149,55.5C 151.552,51.2811 155.052,48.1145 159.5,46C 179.782,44.7139 200.116,44.0472 220.5,44C 223.168,39.8257 226.835,36.8257 231.5,35C 246.833,34.3333 262.167,34.3333 277.5,35C 279.666,36.678 280.999,38.8447 281.5,41.5 Z"/></g>
<g><path style="opacity:0.993" fill="#000000" d="M 137.5,471.5 C 138.053,468.413 139.72,465.913 142.5,464C 259.5,463.667 376.5,463.333 493.5,463C 494,462.5 494.5,462 495,461.5C 495.667,351.833 495.667,242.167 495,132.5C 494.5,132 494,131.5 493.5,131C 460.833,130.667 428.167,130.333 395.5,130C 393.077,128.429 391.744,126.263 391.5,123.5C 391.327,119.83 392.993,117.33 396.5,116C 429.498,115.5 462.498,115.333 495.5,115.5C 495.5,114.167 495.5,112.833 495.5,111.5C 495.667,91.4972 495.5,71.4972 495,51.5C 494.5,51 494,50.5 493.5,50C 430.5,49.6667 367.5,49.3333 304.5,49C 302.177,46.8301 300.51,44.3301 299.5,41.5C 300.001,38.8447 301.334,36.678 303.5,35C 368.5,34.3333 433.5,34.3333 498.5,35C 503.667,37.5 507.5,41.3333 510,46.5C 510.995,187.222 510.662,327.889 509,468.5C 506.359,473.144 502.525,476.311 497.5,478C 379.167,478.667 260.833,478.667 142.5,478C 139.505,476.836 137.839,474.669 137.5,471.5 Z"/></g>
<g><path style="opacity:1" fill="#d63d80" d="M 281.5,41.5 C 287.5,41.5 293.5,41.5 299.5,41.5C 300.51,44.3301 302.177,46.8301 304.5,49C 367.5,49.3333 430.5,49.6667 493.5,50C 494,50.5 494.5,51 495,51.5C 495.5,71.4972 495.667,91.4972 495.5,111.5C 425.499,111.333 355.499,111.5 285.5,112C 277.897,113.766 272.564,118.266 269.5,125.5C 199.836,126.333 130.169,126.833 60.5,127C 52.5486,129.285 46.7152,134.119 43,141.5C 41.5901,150.084 41.0901,158.75 41.5,167.5C 30.8983,168.032 21.5649,171.699 13.5,178.5C 13.3334,162.83 13.5001,147.163 14,131.5C 18.3139,117.092 27.8139,108.259 42.5,105C 99.1667,104.667 155.833,104.333 212.5,104C 213.931,103.535 215.097,102.701 216,101.5C 222.093,84.1533 228.593,66.9866 235.5,50C 248.5,49.6667 261.5,49.3333 274.5,49C 278.323,47.8286 280.657,45.3286 281.5,41.5 Z"/></g>
<g><path style="opacity:1" fill="#285e49" d="M 165.5,60.5 C 182.005,59.1731 198.671,59.1731 215.5,60.5C 215.376,61.1067 215.043,61.44 214.5,61.5C 198.342,60.5036 182.009,60.1702 165.5,60.5 Z"/></g>
<g><path style="opacity:1" fill="#6bf8c2" d="M 165.5,60.5 C 182.009,60.1702 198.342,60.5036 214.5,61.5C 211.371,70.8858 208.038,80.2191 204.5,89.5C 187.513,90.4995 170.513,90.8328 153.5,90.5C 155.821,81.7025 158.655,73.0358 162,64.5C 162.66,62.6763 163.827,61.343 165.5,60.5 Z"/></g>
<g><path style="opacity:1" fill="#080204" d="M 375.5,70.5 C 406.168,70.3334 436.835,70.5 467.5,71C 471.696,73.9811 472.529,77.8144 470,82.5C 468.829,83.8932 467.329,84.7265 465.5,85C 435.833,85.6667 406.167,85.6667 376.5,85C 371.465,81.9867 370.298,77.8201 373,72.5C 373.995,71.9341 374.828,71.2674 375.5,70.5 Z"/></g>
<g><path style="opacity:1" fill="#c52854" d="M 495.5,111.5 C 495.5,112.833 495.5,114.167 495.5,115.5C 462.498,115.333 429.498,115.5 396.5,116C 392.993,117.33 391.327,119.83 391.5,123.5C 384.833,123.5 378.167,123.5 371.5,123.5C 371.57,119.399 369.57,116.899 365.5,116C 339.833,115.333 314.167,115.333 288.5,116C 280.019,117.982 274.685,123.149 272.5,131.5C 201.499,131.333 130.499,131.5 59.5,132C 53.7284,134.106 49.5617,137.939 47,143.5C 46.5002,152.827 46.3335,162.161 46.5,171.5C 33.9494,171.525 23.116,175.858 14,184.5C 13.5045,182.527 13.3379,180.527 13.5,178.5C 21.5649,171.699 30.8983,168.032 41.5,167.5C 41.0901,158.75 41.5901,150.084 43,141.5C 46.7152,134.119 52.5486,129.285 60.5,127C 130.169,126.833 199.836,126.333 269.5,125.5C 272.564,118.266 277.897,113.766 285.5,112C 355.499,111.5 425.499,111.333 495.5,111.5 Z"/></g>
<g><path style="opacity:1" fill="#fc5f95" d="M 371.5,123.5 C 378.167,123.5 384.833,123.5 391.5,123.5C 391.744,126.263 393.077,128.429 395.5,130C 428.167,130.333 460.833,130.667 493.5,131C 494,131.5 494.5,132 495,132.5C 495.667,242.167 495.667,351.833 495,461.5C 494.5,462 494,462.5 493.5,463C 376.5,463.333 259.5,463.667 142.5,464C 139.72,465.913 138.053,468.413 137.5,471.5C 131.5,471.5 125.5,471.5 119.5,471.5C 118.947,468.413 117.28,465.913 114.5,464C 81.5,463.667 48.5,463.333 15.5,463C 15,462.5 14.5,462 14,461.5C 13.3333,378.5 13.3333,295.5 14,212.5C 17.7377,199.762 25.9043,191.262 38.5,187C 113.5,186.667 188.5,186.333 263.5,186C 265.848,185.654 267.681,184.487 269,182.5C 275.197,166.244 281.197,149.91 287,133.5C 287.833,132.667 288.667,131.833 289.5,131C 315.5,130.667 341.5,130.333 367.5,130C 369.923,128.429 371.256,126.263 371.5,123.5 Z"/></g>
<g><path style="opacity:1" fill="#e2f3fe" d="M 261.5,146.5 C 259.372,152.882 257.039,159.215 254.5,165.5C 190.17,166.5 125.837,166.833 61.5,166.5C 61.5,160.5 61.5,154.5 61.5,148.5C 61.6107,147.883 61.944,147.383 62.5,147C 128.832,146.5 195.166,146.333 261.5,146.5 Z"/></g>
<g><path style="opacity:1" fill="#bddff3" d="M 261.5,146.5 C 263.199,146.34 264.866,146.506 266.5,147C 263.398,154.806 260.398,162.639 257.5,170.5C 192.167,170.5 126.833,170.5 61.5,170.5C 61.5,169.167 61.5,167.833 61.5,166.5C 125.837,166.833 190.17,166.5 254.5,165.5C 257.039,159.215 259.372,152.882 261.5,146.5 Z"/></g>
<g><path style="opacity:1" fill="#7f94a1" d="M 61.5,148.5 C 61.5,154.5 61.5,160.5 61.5,166.5C 61.5,167.833 61.5,169.167 61.5,170.5C 126.833,170.5 192.167,170.5 257.5,170.5C 192.002,171.499 126.335,171.832 60.5,171.5C 60.1746,163.648 60.508,155.982 61.5,148.5 Z"/></g>
<g><path style="opacity:1" fill="#050202" d="M 390.5,306.5 C 396.806,305.575 402.473,306.908 407.5,310.5C 412.548,318.759 417.214,327.259 421.5,336C 430.956,337.025 440.289,338.691 449.5,341C 456.844,345.536 459.344,352.036 457,360.5C 451.072,368.432 444.405,375.765 437,382.5C 438.756,392.051 439.756,401.718 440,411.5C 436.848,422.17 429.682,426.337 418.5,424C 411.219,419.776 403.719,415.943 396,412.5C 388.822,416.423 381.488,420.089 374,423.5C 364.161,426.973 357.161,423.973 353,414.5C 352.794,403.754 353.46,393.088 355,382.5C 347.214,375.72 340.547,368.053 335,359.5C 333.472,350.722 336.639,344.222 344.5,340C 353.551,338.517 362.551,336.851 371.5,335C 375.461,327.578 379.294,320.078 383,312.5C 385.134,309.847 387.634,307.847 390.5,306.5 Z"/></g>
<g><path style="opacity:1" fill="#f9be41" d="M 395.5,320.5 C 396.458,320.953 397.292,321.619 398,322.5C 401.939,330.045 405.606,337.712 409,345.5C 410.167,346.667 411.333,347.833 412.5,349C 422.871,351.098 433.204,353.098 443.5,355C 436.333,362.167 429.167,369.333 422,376.5C 421.333,379.833 421.333,383.167 422,386.5C 423.602,394.11 424.769,401.777 425.5,409.5C 415.58,405.288 405.747,400.955 396,396.5C 387.223,399.971 378.723,404.138 370.5,409C 369.207,409.49 367.873,409.657 366.5,409.5C 368.551,398.87 370.051,388.203 371,377.5C 364.086,370.517 357.086,363.517 350,356.5C 349.517,355.552 349.351,354.552 349.5,353.5C 358.814,352.289 368.148,351.122 377.5,350C 378.833,349.333 380.167,348.667 381.5,348C 386.308,338.885 390.974,329.718 395.5,320.5 Z"/></g>
</svg>
