<?xml version="1.0" encoding="UTF-8"?>
<!DOCTYPE svg PUBLIC "-//W3C//DTD SVG 1.1//EN" "http://www.w3.org/Graphics/SVG/1.1/DTD/svg11.dtd">
<svg xmlns="http://www.w3.org/2000/svg" version="1.1" width="512px" height="512px" style="shape-rendering:geometricPrecision; text-rendering:geometricPrecision; image-rendering:optimizeQuality; fill-rule:evenodd; clip-rule:evenodd" xmlns:xlink="http://www.w3.org/1999/xlink">
<g><path style="opacity:0.985" fill="#020200" d="M 477.5,208.5 C 474.215,208.731 471.715,207.397 470,204.5C 469.667,183.167 469.333,161.833 469,140.5C 467.5,136.333 464.667,133.5 460.5,132C 450.839,131.5 441.172,131.334 431.5,131.5C 307.752,131.004 184.086,131.504 60.5,133C 58.6217,134.543 57.1217,136.376 56,138.5C 55.6667,233.833 55.3333,329.167 55,424.5C 53.8497,427.768 53.0164,431.101 52.5,434.5C 109.834,434.333 167.168,434.5 224.5,435C 227.278,436.713 228.945,439.213 229.5,442.5C 229.16,445.675 227.493,447.841 224.5,449C 157.167,449.667 89.8333,449.667 22.5,449C 11.1866,446.183 3.51991,439.35 -0.5,428.5C -0.5,306.5 -0.5,184.5 -0.5,62.5C 3.86805,47.3025 13.868,38.1359 29.5,35C 67.5,34.3333 105.5,34.3333 143.5,35C 151.512,36.3391 158.845,39.3391 165.5,44C 172.833,52.6667 180.167,61.3333 187.5,70C 191.531,72.4548 195.864,74.1214 200.5,75C 277.167,75.3333 353.833,75.6667 430.5,76C 441.752,78.919 448.585,86.0857 451,97.5C 451.5,103.825 451.666,110.158 451.5,116.5C 466.11,114.719 476.61,120.386 483,133.5C 484.625,156.783 484.959,180.117 484,203.5C 482.809,206.534 480.642,208.201 477.5,208.5 Z"/></g>
<g><path style="opacity:1" fill="#f7d006" d="M 32.5,49.5 C 68.8349,49.3333 105.168,49.5 141.5,50C 153.98,53.1428 162.814,60.6428 168,72.5C 174.977,81.1438 183.811,86.9771 194.5,90C 272.167,90.3333 349.833,90.6667 427.5,91C 430.735,92.3604 433.235,94.527 435,97.5C 435.5,103.825 435.666,110.158 435.5,116.5C 310.833,116.333 186.166,116.5 61.5,117C 51.1063,119.726 44.273,126.226 41,136.5C 40.6667,232.167 40.3333,327.833 40,423.5C 37.2976,432.27 31.4643,435.437 22.5,433C 18.9421,431.108 16.4421,428.275 15,424.5C 14.3333,304.833 14.3333,185.167 15,65.5C 18.2977,57.2873 24.131,51.954 32.5,49.5 Z"/></g>
<g><path style="opacity:1" fill="#fbe15b" d="M 431.5,131.5 C 433.212,134.261 434.378,137.261 435,140.5C 435.5,170.165 435.667,199.831 435.5,229.5C 379.499,229.333 323.499,229.5 267.5,230C 259,233.167 253.167,239 250,247.5C 249.333,259.167 249.333,270.833 250,282.5C 251.696,291.029 256.529,297.029 264.5,300.5C 265.663,306.137 265.83,311.804 265,317.5C 257.463,320.893 252.463,326.56 250,334.5C 249.333,346.167 249.333,357.833 250,369.5C 251.705,378.037 256.538,384.037 264.5,387.5C 265.663,393.137 265.83,398.804 265,404.5C 258.359,407.141 253.692,411.808 251,418.5C 249.599,426.415 249.099,434.415 249.5,442.5C 242.833,442.5 236.167,442.5 229.5,442.5C 228.945,439.213 227.278,436.713 224.5,435C 167.168,434.5 109.834,434.333 52.5,434.5C 53.0164,431.101 53.8497,427.768 55,424.5C 55.3333,329.167 55.6667,233.833 56,138.5C 57.1217,136.376 58.6217,134.543 60.5,133C 184.086,131.504 307.752,131.004 431.5,131.5 Z"/></g>
<g><path style="opacity:1" fill="#f8d006" d="M 431.5,131.5 C 441.172,131.334 450.839,131.5 460.5,132C 464.667,133.5 467.5,136.333 469,140.5C 469.333,161.833 469.667,183.167 470,204.5C 471.715,207.397 474.215,208.731 477.5,208.5C 477.5,215.167 477.5,221.833 477.5,228.5C 463.579,229.482 449.579,229.815 435.5,229.5C 435.667,199.831 435.5,170.165 435,140.5C 434.378,137.261 433.212,134.261 431.5,131.5 Z"/></g>
<g><path style="opacity:1" fill="#050402" d="M 100.5,164.5 C 135.229,164.02 169.895,164.52 204.5,166C 208.058,167.892 210.558,170.725 212,174.5C 212.667,187.5 212.667,200.5 212,213.5C 210.5,219 207,222.5 201.5,224C 168.167,224.667 134.833,224.667 101.5,224C 96.3333,222.167 92.8333,218.667 91,213.5C 90.3333,200.5 90.3333,187.5 91,174.5C 93.0223,169.98 96.189,166.647 100.5,164.5 Z"/></g>
<g><path style="opacity:1" fill="#f3f8f7" d="M 106.5,179.5 C 125.5,179.5 144.5,179.5 163.5,179.5C 163.5,189.167 163.5,198.833 163.5,208.5C 144.5,208.5 125.5,208.5 106.5,208.5C 106.5,198.833 106.5,189.167 106.5,179.5 Z"/></g>
<g><path style="opacity:1" fill="#e4ebf0" d="M 163.5,179.5 C 174.833,179.5 186.167,179.5 197.5,179.5C 197.5,189.167 197.5,198.833 197.5,208.5C 186.167,208.5 174.833,208.5 163.5,208.5C 163.5,198.833 163.5,189.167 163.5,179.5 Z"/></g>
<g><path style="opacity:1" fill="#b5b8b9" d="M 106.5,179.5 C 106.5,189.167 106.5,198.833 106.5,208.5C 125.5,208.5 144.5,208.5 163.5,208.5C 174.833,208.5 186.167,208.5 197.5,208.5C 167.005,209.498 136.338,209.831 105.5,209.5C 105.173,199.319 105.506,189.319 106.5,179.5 Z"/></g>
<g><path style="opacity:0.99" fill="#010101" d="M 477.5,228.5 C 493.528,226.175 504.861,232.175 511.5,246.5C 511.5,259.5 511.5,272.5 511.5,285.5C 508.664,292.509 503.831,297.843 497,301.5C 496.171,306.864 496.337,312.198 497.5,317.5C 504.502,320.868 509.169,326.202 511.5,333.5C 511.5,346.5 511.5,359.5 511.5,372.5C 508.973,379.365 504.306,384.365 497.5,387.5C 496.167,393.167 496.167,398.833 497.5,404.5C 504.306,407.635 508.973,412.635 511.5,419.5C 511.5,432.833 511.5,446.167 511.5,459.5C 508.145,468.35 501.812,473.85 492.5,476C 417.833,476.667 343.167,476.667 268.5,476C 259.207,474.042 253.04,468.542 250,459.5C 249.501,453.843 249.334,448.176 249.5,442.5C 249.099,434.415 249.599,426.415 251,418.5C 253.692,411.808 258.359,407.141 265,404.5C 265.83,398.804 265.663,393.137 264.5,387.5C 256.538,384.037 251.705,378.037 250,369.5C 249.333,357.833 249.333,346.167 250,334.5C 252.463,326.56 257.463,320.893 265,317.5C 265.83,311.804 265.663,306.137 264.5,300.5C 256.529,297.029 251.696,291.029 250,282.5C 249.333,270.833 249.333,259.167 250,247.5C 253.167,239 259,233.167 267.5,230C 323.499,229.5 379.499,229.333 435.5,229.5C 449.579,229.815 463.579,229.482 477.5,228.5 Z"/></g>
<g><path style="opacity:1" fill="#8b9aa5" d="M 461.5,244.5 C 461.5,258.833 461.5,273.167 461.5,287.5C 397.832,287.667 334.166,287.5 270.5,287C 267.572,285.74 265.739,283.573 265,280.5C 264.333,270.5 264.333,260.5 265,250.5C 266.167,248 268,246.167 270.5,245C 334.166,244.5 397.832,244.333 461.5,244.5 Z"/></g>
<g><path style="opacity:1" fill="#7b8a95" d="M 461.5,244.5 C 471.938,244.049 482.271,244.549 492.5,246C 494.049,247.214 495.215,248.714 496,250.5C 496.667,260.5 496.667,270.5 496,280.5C 495.654,282.848 494.487,284.681 492.5,286C 482.271,287.451 471.938,287.951 461.5,287.5C 461.5,273.167 461.5,258.833 461.5,244.5 Z"/></g>
<g><path style="opacity:1" fill="#060607" d="M 425.5,258.5 C 433.489,257.989 436.655,261.656 435,269.5C 429.837,275.062 425.171,274.729 421,268.5C 420.077,264.017 421.577,260.683 425.5,258.5 Z"/></g>
<g><path style="opacity:1" fill="#070808" d="M 468.5,258.5 C 476.775,257.706 479.942,261.373 478,269.5C 472.967,274.997 468.3,274.664 464,268.5C 463.077,264.017 464.577,260.683 468.5,258.5 Z"/></g>
<g><path style="opacity:1" fill="#566873" d="M 280.5,302.5 C 347.167,302.5 413.833,302.5 480.5,302.5C 480.5,307.167 480.5,311.833 480.5,316.5C 413.833,316.5 347.167,316.5 280.5,316.5C 280.5,311.833 280.5,307.167 280.5,302.5 Z"/></g>
<g><path style="opacity:1" fill="#8b9aa5" d="M 461.5,331.5 C 461.5,345.5 461.5,359.5 461.5,373.5C 397.833,373.5 334.167,373.5 270.5,373.5C 267.459,372.625 265.625,370.625 265,367.5C 264.333,357.167 264.333,346.833 265,336.5C 266.5,335 268,333.5 269.5,332C 333.499,331.5 397.499,331.333 461.5,331.5 Z"/></g>
<g><path style="opacity:1" fill="#788691" d="M 461.5,331.5 C 471.506,331.334 481.506,331.5 491.5,332C 493.333,333.167 494.833,334.667 496,336.5C 496.667,346.833 496.667,357.167 496,367.5C 495.193,370.973 493.027,373.14 489.5,374C 416.332,374.832 343.332,374.666 270.5,373.5C 334.167,373.5 397.833,373.5 461.5,373.5C 461.5,359.5 461.5,345.5 461.5,331.5 Z"/></g>
<g><path style="opacity:1" fill="#060708" d="M 424.5,345.5 C 433.33,344.162 436.83,347.829 435,356.5C 429.885,362.075 425.219,361.742 421,355.5C 420.182,351.469 421.349,348.136 424.5,345.5 Z"/></g>
<g><path style="opacity:1" fill="#050607" d="M 467.5,345.5 C 478.818,345.081 481.485,349.581 475.5,359C 469.164,361.545 465.164,359.378 463.5,352.5C 464.071,349.687 465.404,347.354 467.5,345.5 Z"/></g>
<g><path style="opacity:1" fill="#576b75" d="M 280.5,389.5 C 347.167,389.5 413.833,389.5 480.5,389.5C 480.5,393.833 480.5,398.167 480.5,402.5C 413.833,402.5 347.167,402.5 280.5,402.5C 280.5,398.167 280.5,393.833 280.5,389.5 Z"/></g>
<g><path style="opacity:1" fill="#8b9aa5" d="M 271.5,418.5 C 334.833,418.5 398.167,418.5 461.5,418.5C 461.5,432.5 461.5,446.5 461.5,460.5C 398.167,460.5 334.833,460.5 271.5,460.5C 267.921,460.089 265.754,458.089 265,454.5C 264.333,444.167 264.333,433.833 265,423.5C 266.159,420.507 268.325,418.84 271.5,418.5 Z"/></g>
<g><path style="opacity:1" fill="#707d87" d="M 271.5,418.5 C 343.999,417.334 416.666,417.168 489.5,418C 492.583,418.786 494.749,420.619 496,423.5C 496.667,433.833 496.667,444.167 496,454.5C 495.167,458 493,460.167 489.5,461C 416.666,461.832 343.999,461.666 271.5,460.5C 334.833,460.5 398.167,460.5 461.5,460.5C 461.5,446.5 461.5,432.5 461.5,418.5C 398.167,418.5 334.833,418.5 271.5,418.5 Z"/></g>
<g><path style="opacity:1" fill="#060708" d="M 426.5,431.5 C 436.004,433.101 438.004,437.935 432.5,446C 424.381,447.875 420.548,444.708 421,436.5C 422.73,434.598 424.563,432.931 426.5,431.5 Z"/></g>
<g><path style="opacity:1" fill="#060707" d="M 469.5,431.5 C 477.179,432.018 480.012,436.018 478,443.5C 475.091,446.394 471.591,447.227 467.5,446C 461.947,440.366 462.613,435.533 469.5,431.5 Z"/></g>
</svg>
