<?xml version="1.0" encoding="UTF-8"?>
<!DOCTYPE svg PUBLIC "-//W3C//DTD SVG 1.1//EN" "http://www.w3.org/Graphics/SVG/1.1/DTD/svg11.dtd">
<svg xmlns="http://www.w3.org/2000/svg" version="1.1" width="512px" height="512px" style="shape-rendering:geometricPrecision; text-rendering:geometricPrecision; image-rendering:optimizeQuality; fill-rule:evenodd; clip-rule:evenodd" xmlns:xlink="http://www.w3.org/1999/xlink">
<g><path style="opacity:0.996" fill="#010201" d="M 65.5,-0.5 C 192.167,-0.5 318.833,-0.5 445.5,-0.5C 447.144,0.316435 448.31,1.64977 449,3.5C 449.667,21.1667 449.667,38.8333 449,56.5C 447.728,59.2224 445.561,60.5557 442.5,60.5C 438.91,60.4559 436.41,58.7892 435,55.5C 434.5,41.8374 434.333,28.1707 434.5,14.5C 329.5,14.5 224.5,14.5 119.5,14.5C 105.167,14.5 90.8333,14.5 76.5,14.5C 76.5,61.1667 76.5,107.833 76.5,154.5C 81.8333,154.5 87.1667,154.5 92.5,154.5C 92.3333,114.832 92.5,75.1653 93,35.5C 93.8333,33.3333 95.3333,31.8333 97.5,31C 104.826,30.5003 112.159,30.3337 119.5,30.5C 155.168,30.3333 190.835,30.5 226.5,31C 228.286,31.7845 229.786,32.9512 231,34.5C 231.667,78.1667 231.667,121.833 231,165.5C 229.982,167.928 228.148,169.262 225.5,169.5C 200.164,169.333 174.831,169.5 149.5,170C 154.5,175 159.5,180 164.5,185C 179.5,185.333 194.5,185.667 209.5,186C 213.531,186.903 215.531,189.403 215.5,193.5C 215.067,196.195 213.734,198.362 211.5,200C 193.833,200.667 176.167,200.667 158.5,200C 148.5,190 138.5,180 128.5,170C 100.664,169.17 72.997,169.336 45.5,170.5C 45.3333,273.167 45.5,375.834 46,478.5C 48.4123,486.177 53.2456,491.677 60.5,495C 73.092,496.441 85.7586,496.941 98.5,496.5C 202.834,496.667 307.167,496.5 411.5,496C 406.573,489.723 403.906,482.556 403.5,474.5C 403.5,383.167 403.5,291.833 403.5,200.5C 348.833,200.5 294.167,200.5 239.5,200.5C 235.41,199.998 233.41,197.665 233.5,193.5C 233.544,189.91 235.211,187.41 238.5,186C 296.5,185.333 354.5,185.333 412.5,186C 414.939,186.774 416.773,188.274 418,190.5C 418.5,281.833 418.667,373.166 418.5,464.5C 423.64,465.488 428.974,465.821 434.5,465.5C 434.5,338.5 434.5,211.5 434.5,84.5C 435.465,80.3339 438.132,78.0006 442.5,77.5C 445.195,77.933 447.362,79.2663 449,81.5C 449.5,95.496 449.667,109.496 449.5,123.5C 458.506,123.334 467.506,123.5 476.5,124C 478.333,124.5 479.5,125.667 480,127.5C 480.667,245.5 480.667,363.5 480,481.5C 475.985,497.348 466.152,507.348 450.5,511.5C 320.5,511.5 190.5,511.5 60.5,511.5C 44.8485,507.348 35.0151,497.348 31,481.5C 30.3333,373.833 30.3333,266.167 31,158.5C 31.5,156.667 32.6667,155.5 34.5,155C 43.4938,154.5 52.4938,154.334 61.5,154.5C 61.3333,104.166 61.5,53.8322 62,3.5C 62.6897,1.64977 63.8564,0.316435 65.5,-0.5 Z"/></g>
<g><path style="opacity:1" fill="#d5e2f5" d="M 119.5,14.5 C 119.5,19.8333 119.5,25.1667 119.5,30.5C 112.159,30.3337 104.826,30.5003 97.5,31C 95.3333,31.8333 93.8333,33.3333 93,35.5C 92.5,75.1653 92.3333,114.832 92.5,154.5C 87.1667,154.5 81.8333,154.5 76.5,154.5C 76.5,107.833 76.5,61.1667 76.5,14.5C 90.8333,14.5 105.167,14.5 119.5,14.5 Z"/></g>
<g><path style="opacity:1" fill="#e7effd" d="M 119.5,14.5 C 224.5,14.5 329.5,14.5 434.5,14.5C 434.333,28.1707 434.5,41.8374 435,55.5C 436.41,58.7892 438.91,60.4559 442.5,60.5C 442.5,66.1667 442.5,71.8333 442.5,77.5C 438.132,78.0006 435.465,80.3339 434.5,84.5C 433.5,210.999 433.167,337.666 433.5,464.5C 432.5,464.5 431.5,464.5 430.5,464.5C 430.5,367.5 430.5,270.5 430.5,173.5C 343.833,173.667 257.166,173.5 170.5,173C 169.833,172.333 169.167,171.667 168.5,171C 187.671,170.832 206.671,170.332 225.5,169.5C 228.148,169.262 229.982,167.928 231,165.5C 231.667,121.833 231.667,78.1667 231,34.5C 229.786,32.9512 228.286,31.7845 226.5,31C 190.835,30.5 155.168,30.3333 119.5,30.5C 119.5,25.1667 119.5,19.8333 119.5,14.5 Z"/></g>
<g><path style="opacity:1" fill="#67b1f0" d="M 119.5,45.5 C 119.5,77.8333 119.5,110.167 119.5,142.5C 126.508,142.334 133.508,142.5 140.5,143C 144.37,146.702 148.037,150.536 151.5,154.5C 136.833,154.5 122.167,154.5 107.5,154.5C 107.5,118.167 107.5,81.8333 107.5,45.5C 111.5,45.5 115.5,45.5 119.5,45.5 Z"/></g>
<g><path style="opacity:1" fill="#76d2f3" d="M 119.5,45.5 C 151.833,45.5 184.167,45.5 216.5,45.5C 216.5,81.8333 216.5,118.167 216.5,154.5C 194.833,154.5 173.167,154.5 151.5,154.5C 148.037,150.536 144.37,146.702 140.5,143C 133.508,142.5 126.508,142.334 119.5,142.5C 119.5,110.167 119.5,77.8333 119.5,45.5 Z"/></g>
<g><path style="opacity:1" fill="#020303" d="M 156.5,61.5 C 172.999,60.3966 182.665,67.8966 185.5,84C 185.218,88.0151 184.218,91.8485 182.5,95.5C 195.948,105.064 201.781,118.064 200,134.5C 199.626,135.416 199.126,136.25 198.5,137C 174.921,138.646 151.255,138.979 127.5,138C 124.384,135.6 123.051,132.433 123.5,128.5C 124.325,114.337 130.659,103.503 142.5,96C 135.947,79.9406 140.613,68.4406 156.5,61.5 Z"/></g>
<g><path style="opacity:1" fill="#080809" d="M 252.5,61.5 C 262.11,61.9359 264.776,66.4359 260.5,75C 251.319,78.3249 247.485,75.1582 249,65.5C 250.376,64.2949 251.542,62.9616 252.5,61.5 Z"/></g>
<g><path style="opacity:1" fill="#030304" d="M 283.5,61.5 C 326.501,61.3333 369.501,61.5 412.5,62C 418.292,64.0904 419.792,67.9237 417,73.5C 416.097,74.7014 414.931,75.5348 413.5,76C 370.167,76.6667 326.833,76.6667 283.5,76C 279.788,73.487 278.622,69.987 280,65.5C 281.376,64.2949 282.542,62.9616 283.5,61.5 Z"/></g>
<g><path style="opacity:1" fill="#f5ca9e" d="M 159.5,76.5 C 167.033,76.5289 170.533,80.1956 170,87.5C 167.459,92.0685 163.625,93.5685 158.5,92C 152.974,86.357 153.308,81.1903 159.5,76.5 Z"/></g>
<g><path style="opacity:1" fill="#ccd4e0" d="M 434.5,84.5 C 434.5,211.5 434.5,338.5 434.5,465.5C 428.974,465.821 423.64,465.488 418.5,464.5C 422.5,464.5 426.5,464.5 430.5,464.5C 431.5,464.5 432.5,464.5 433.5,464.5C 433.167,337.666 433.5,210.999 434.5,84.5 Z"/></g>
<g><path style="opacity:1" fill="#080909" d="M 252.5,92.5 C 262.11,92.9359 264.776,97.4359 260.5,106C 251.319,109.325 247.485,106.158 249,96.5C 250.376,95.2949 251.542,93.9616 252.5,92.5 Z"/></g>
<g><path style="opacity:1" fill="#050505" d="M 283.5,92.5 C 326.501,92.3333 369.501,92.5 412.5,93C 420.073,97.1873 420.406,101.854 413.5,107C 370.167,107.667 326.833,107.667 283.5,107C 279.788,104.487 278.622,100.987 280,96.5C 281.376,95.2949 282.542,93.9616 283.5,92.5 Z"/></g>
<g><path style="opacity:1" fill="#fa5374" d="M 185.5,123.5 C 169.991,123.83 154.658,123.496 139.5,122.5C 141.24,114.925 145.907,110.092 153.5,108C 165.18,104.998 175.013,107.831 183,116.5C 184.411,118.65 185.245,120.984 185.5,123.5 Z"/></g>
<g><path style="opacity:1" fill="#43161e" d="M 139.5,122.5 C 154.658,123.496 169.991,123.83 185.5,123.5C 169.995,124.827 154.328,124.827 138.5,123.5C 138.624,122.893 138.957,122.56 139.5,122.5 Z"/></g>
<g><path style="opacity:1" fill="#080808" d="M 253.5,123.5 C 260.685,123.848 263.519,127.515 262,134.5C 259.839,138.124 256.672,139.291 252.5,138C 248.788,135.487 247.622,131.987 249,127.5C 250.397,125.93 251.897,124.596 253.5,123.5 Z"/></g>
<g><path style="opacity:1" fill="#060607" d="M 284.5,123.5 C 327.168,123.333 369.835,123.5 412.5,124C 420.073,128.187 420.406,132.854 413.5,138C 370.167,138.667 326.833,138.667 283.5,138C 279.788,135.487 278.622,131.987 280,127.5C 281.397,125.93 282.897,124.596 284.5,123.5 Z"/></g>
<g><path style="opacity:1" fill="#f8c400" d="M 449.5,138.5 C 454.833,138.5 460.167,138.5 465.5,138.5C 465.667,251.834 465.5,365.167 465,478.5C 457.386,496.262 444.886,500.762 427.5,492C 423.855,489.042 421.188,485.375 419.5,481C 427.5,480.667 435.5,480.333 443.5,480C 446.667,479.5 448.5,477.667 449,474.5C 449.5,362.5 449.667,250.5 449.5,138.5 Z"/></g>
<g><path style="opacity:1" fill="#fecf64" d="M 45.5,170.5 C 59.8333,170.5 74.1667,170.5 88.5,170.5C 88.3333,273.501 88.5,376.501 89,479.5C 90.2822,486.267 93.4489,491.934 98.5,496.5C 85.7586,496.941 73.092,496.441 60.5,495C 53.2456,491.677 48.4123,486.177 46,478.5C 45.5,375.834 45.3333,273.167 45.5,170.5 Z"/></g>
<g><path style="opacity:1" fill="#fedf7c" d="M 45.5,170.5 C 72.997,169.336 100.664,169.17 128.5,170C 138.5,180 148.5,190 158.5,200C 176.167,200.667 193.833,200.667 211.5,200C 213.734,198.362 215.067,196.195 215.5,193.5C 221.5,193.5 227.5,193.5 233.5,193.5C 233.41,197.665 235.41,199.998 239.5,200.5C 293.664,201.499 347.997,201.832 402.5,201.5C 402.167,292.668 402.501,383.668 403.5,474.5C 403.906,482.556 406.573,489.723 411.5,496C 307.167,496.5 202.834,496.667 98.5,496.5C 93.4489,491.934 90.2822,486.267 89,479.5C 88.5,376.501 88.3333,273.501 88.5,170.5C 74.1667,170.5 59.8333,170.5 45.5,170.5 Z"/></g>
<g><path style="opacity:1" fill="#d6e3f5" d="M 225.5,169.5 C 206.671,170.332 187.671,170.832 168.5,171C 169.167,171.667 169.833,172.333 170.5,173C 257.166,173.5 343.833,173.667 430.5,173.5C 430.5,270.5 430.5,367.5 430.5,464.5C 426.5,464.5 422.5,464.5 418.5,464.5C 418.667,373.166 418.5,281.833 418,190.5C 416.773,188.274 414.939,186.774 412.5,186C 354.5,185.333 296.5,185.333 238.5,186C 235.211,187.41 233.544,189.91 233.5,193.5C 227.5,193.5 221.5,193.5 215.5,193.5C 215.531,189.403 213.531,186.903 209.5,186C 194.5,185.667 179.5,185.333 164.5,185C 159.5,180 154.5,175 149.5,170C 174.831,169.5 200.164,169.333 225.5,169.5 Z"/></g>
<g><path style="opacity:1" fill="#c6ae60" d="M 239.5,200.5 C 294.167,200.5 348.833,200.5 403.5,200.5C 403.5,291.833 403.5,383.167 403.5,474.5C 402.501,383.668 402.167,292.668 402.5,201.5C 347.997,201.832 293.664,201.499 239.5,200.5 Z"/></g>
<g><path style="opacity:1" fill="#040502" d="M 293.5,279.5 C 293.5,289.833 293.5,300.167 293.5,310.5C 299.5,310.5 305.5,310.5 311.5,310.5C 313.716,311.203 315.549,312.536 317,314.5C 317.667,325.5 317.667,336.5 317,347.5C 315.299,351.875 312.133,353.542 307.5,352.5C 305.292,351.977 303.792,350.644 303,348.5C 302.5,340.841 302.334,333.174 302.5,325.5C 268.5,325.5 234.5,325.5 200.5,325.5C 192.833,325.5 185.167,325.5 177.5,325.5C 177.5,356.5 177.5,387.5 177.5,418.5C 185.167,418.5 192.833,418.5 200.5,418.5C 234.5,418.5 268.5,418.5 302.5,418.5C 302.333,404.163 302.5,389.829 303,375.5C 304.159,372.507 306.325,370.84 309.5,370.5C 312.745,371.04 315.245,372.706 317,375.5C 317.667,393.167 317.667,410.833 317,428.5C 316.215,430.286 315.049,431.786 313.5,433C 264.5,433.667 215.5,433.667 166.5,433C 164.951,431.786 163.785,430.286 163,428.5C 162.333,390.5 162.333,352.5 163,314.5C 164.167,313.333 165.333,312.167 166.5,311C 172.825,310.5 179.158,310.334 185.5,310.5C 185.334,300.161 185.5,289.828 186,279.5C 193.276,247.887 213.109,232.387 245.5,233C 268.415,236.244 283.915,248.744 292,270.5C 292.953,273.432 293.453,276.432 293.5,279.5 Z"/></g>
<g><path style="opacity:1" fill="#e6eefc" d="M 235.5,247.5 C 258.877,246.892 273.211,257.892 278.5,280.5C 278.5,290.167 278.5,299.833 278.5,309.5C 277.5,309.5 276.5,309.5 275.5,309.5C 275.666,300.494 275.5,291.494 275,282.5C 271.474,274.641 265.307,270.641 256.5,270.5C 243.728,260.361 231.894,261.361 221,273.5C 218.965,276.561 217.799,279.895 217.5,283.5C 216.507,291.984 216.174,300.651 216.5,309.5C 215.5,309.5 214.5,309.5 213.5,309.5C 213.333,298.495 213.5,287.495 214,276.5C 217.279,263.752 224.445,254.085 235.5,247.5 Z"/></g>
<g><path style="opacity:1" fill="#d5e1f4" d="M 235.5,247.5 C 224.445,254.085 217.279,263.752 214,276.5C 213.5,287.495 213.333,298.495 213.5,309.5C 209.5,309.5 205.5,309.5 201.5,309.5C 201.5,299.833 201.5,290.167 201.5,280.5C 204.037,266.12 212.037,255.953 225.5,250C 228.72,248.648 232.053,247.814 235.5,247.5 Z"/></g>
<g><path style="opacity:1" fill="#d6e3f6" d="M 256.5,270.5 C 265.307,270.641 271.474,274.641 275,282.5C 275.5,291.494 275.666,300.494 275.5,309.5C 271.5,309.5 267.5,309.5 263.5,309.5C 263.826,300.651 263.493,291.984 262.5,283.5C 261.847,278.528 259.847,274.195 256.5,270.5 Z"/></g>
<g><path style="opacity:1" fill="#fdde7c" d="M 247.5,284.5 C 247.5,292.833 247.5,301.167 247.5,309.5C 242.5,309.5 237.5,309.5 232.5,309.5C 232.5,301.167 232.5,292.833 232.5,284.5C 234.871,278.819 238.871,277.319 244.5,280C 246.141,281.129 247.141,282.629 247.5,284.5 Z"/></g>
<g><path style="opacity:1" fill="#888e98" d="M 201.5,280.5 C 201.5,290.167 201.5,299.833 201.5,309.5C 205.5,309.5 209.5,309.5 213.5,309.5C 214.5,309.5 215.5,309.5 216.5,309.5C 216.174,300.651 216.507,291.984 217.5,283.5C 217.5,292.5 217.5,301.5 217.5,310.5C 211.833,310.5 206.167,310.5 200.5,310.5C 200.173,300.319 200.506,290.319 201.5,280.5 Z"/></g>
<g><path style="opacity:1" fill="#695c33" d="M 293.5,279.5 C 294.494,289.319 294.827,299.319 294.5,309.5C 300.358,309.178 306.025,309.511 311.5,310.5C 305.5,310.5 299.5,310.5 293.5,310.5C 293.5,300.167 293.5,289.833 293.5,279.5 Z"/></g>
<g><path style="opacity:1" fill="#7c6c3c" d="M 232.5,284.5 C 232.5,292.833 232.5,301.167 232.5,309.5C 237.5,309.5 242.5,309.5 247.5,309.5C 247.5,301.167 247.5,292.833 247.5,284.5C 248.493,292.984 248.826,301.651 248.5,310.5C 242.833,310.5 237.167,310.5 231.5,310.5C 231.174,301.651 231.507,292.984 232.5,284.5 Z"/></g>
<g><path style="opacity:1" fill="#878e99" d="M 278.5,280.5 C 279.494,290.319 279.827,300.319 279.5,310.5C 273.833,310.5 268.167,310.5 262.5,310.5C 262.5,301.5 262.5,292.5 262.5,283.5C 263.493,291.984 263.826,300.651 263.5,309.5C 267.5,309.5 271.5,309.5 275.5,309.5C 276.5,309.5 277.5,309.5 278.5,309.5C 278.5,299.833 278.5,290.167 278.5,280.5 Z"/></g>
<g><path style="opacity:1" fill="#76be50" d="M 200.5,325.5 C 200.5,356.5 200.5,387.5 200.5,418.5C 192.833,418.5 185.167,418.5 177.5,418.5C 177.5,387.5 177.5,356.5 177.5,325.5C 185.167,325.5 192.833,325.5 200.5,325.5 Z"/></g>
<g><path style="opacity:1" fill="#81d55e" d="M 200.5,325.5 C 234.5,325.5 268.5,325.5 302.5,325.5C 302.334,333.174 302.5,340.841 303,348.5C 303.792,350.644 305.292,351.977 307.5,352.5C 309.386,358.208 310.053,364.208 309.5,370.5C 306.325,370.84 304.159,372.507 303,375.5C 302.5,389.829 302.333,404.163 302.5,418.5C 268.5,418.5 234.5,418.5 200.5,418.5C 200.5,387.5 200.5,356.5 200.5,325.5 Z"/></g>
<g><path style="opacity:1" fill="#020401" d="M 235.5,338.5 C 254.687,338.85 263.521,348.516 262,367.5C 260.166,375.333 255.5,380.666 248,383.5C 247.811,388.251 247.145,392.917 246,397.5C 240.879,401.875 236.545,401.209 233,395.5C 232.667,391.5 232.333,387.5 232,383.5C 219.914,377.641 215.248,367.975 218,354.5C 221.503,346.492 227.336,341.159 235.5,338.5 Z"/></g>
<g><path style="opacity:1" fill="#72b84e" d="M 237.5,353.5 C 245.696,353.529 248.863,357.529 247,365.5C 244.487,369.212 240.987,370.378 236.5,369C 234.667,368.5 233.5,367.333 233,365.5C 231.309,360.131 232.809,356.131 237.5,353.5 Z"/></g>
</svg>
