<?xml version="1.0" encoding="UTF-8"?>
<!DOCTYPE svg PUBLIC "-//W3C//DTD SVG 1.1//EN" "http://www.w3.org/Graphics/SVG/1.1/DTD/svg11.dtd">
<svg xmlns="http://www.w3.org/2000/svg" version="1.1" width="512px" height="512px" style="shape-rendering:geometricPrecision; text-rendering:geometricPrecision; image-rendering:optimizeQuality; fill-rule:evenodd; clip-rule:evenodd" xmlns:xlink="http://www.w3.org/1999/xlink">
<g><path style="opacity:0.989" fill="#010101" d="M 253.5,-0.5 C 254.833,-0.5 256.167,-0.5 257.5,-0.5C 278.998,12.1365 300.665,24.6365 322.5,37C 323.357,37.6891 324.023,38.5224 324.5,39.5C 323.487,41.5266 322.487,43.5266 321.5,45.5C 319.376,47.0592 317.709,49.0592 316.5,51.5C 297.841,41.5057 279.507,31.0057 261.5,20C 259.086,18.1151 256.419,17.4484 253.5,18C 205,45.8333 156.5,73.6667 108,101.5C 107.168,163.001 107.335,224.335 108.5,285.5C 119.77,292.14 131.104,298.807 142.5,305.5C 140.673,307.487 139.673,309.821 139.5,312.5C 137.661,313.508 136.328,315.008 135.5,317C 134.5,317.667 133.5,317.667 132.5,317C 119.5,309.5 106.5,302 93.5,294.5C 92.5001,254.839 92.1668,215.172 92.5,175.5C 86.021,174.509 79.3543,174.176 72.5,174.5C 72.5,249.833 72.5,325.167 72.5,400.5C 194.5,400.5 316.5,400.5 438.5,400.5C 438.5,325.167 438.5,249.833 438.5,174.5C 431.646,174.176 424.979,174.509 418.5,175.5C 418.833,215.172 418.5,254.839 417.5,294.5C 369.816,321.861 322.15,349.194 274.5,376.5C 268.031,379.902 261.697,383.569 255.5,387.5C 249.303,383.569 242.969,379.902 236.5,376.5C 207.184,359.528 177.85,342.528 148.5,325.5C 149.559,323.466 150.559,321.466 151.5,319.5C 152.725,318.063 153.725,316.396 154.5,314.5C 155.365,313.417 156.365,313.251 157.5,314C 190.042,332.769 222.708,351.269 255.5,369.5C 304.688,341.742 353.688,313.742 402.5,285.5C 403.665,224.335 403.832,163.001 403,101.5C 379.582,87.8736 356.082,74.3736 332.5,61C 331.643,60.3109 330.977,59.4776 330.5,58.5C 331.788,56.2612 332.788,53.9279 333.5,51.5C 334.907,49.6917 336.074,47.6917 337,45.5C 364,61.1667 391,76.8333 418,92.5C 418.5,101.494 418.666,110.494 418.5,119.5C 433.17,119.333 447.837,119.5 462.5,120C 478.441,123.273 488.607,132.773 493,148.5C 493.5,166.497 493.667,184.497 493.5,202.5C 491.167,202.5 488.833,202.5 486.5,202.5C 483.833,202.5 481.167,202.5 478.5,202.5C 478.667,185.83 478.5,169.163 478,152.5C 475.28,142.447 468.78,136.613 458.5,135C 445.171,134.5 431.837,134.333 418.5,134.5C 418.5,142.833 418.5,151.167 418.5,159.5C 429.654,160.495 440.988,160.828 452.5,160.5C 452.5,245.167 452.5,329.833 452.5,414.5C 321.167,414.5 189.833,414.5 58.5,414.5C 58.5,329.833 58.5,245.167 58.5,160.5C 70.0123,160.828 81.3456,160.495 92.5,159.5C 92.5,151.167 92.5,142.833 92.5,134.5C 78.496,134.333 64.496,134.5 50.5,135C 42.498,137.003 36.998,141.836 34,149.5C 32.5142,198.107 32.0142,246.774 32.5,295.5C 29.8333,295.5 27.1667,295.5 24.5,295.5C 22.1667,295.5 19.8333,295.5 17.5,295.5C 17.3333,246.499 17.5,197.499 18,148.5C 21.6675,134.833 30.1675,125.666 43.5,121C 59.7847,119.577 76.118,119.077 92.5,119.5C 92.3336,110.494 92.5002,101.494 93,92.5C 146.645,61.5995 200.145,30.5995 253.5,-0.5 Z"/></g>
<g><path style="opacity:1" fill="#fd6947" d="M 321.5,45.5 C 325.272,47.9339 329.272,49.9339 333.5,51.5C 332.788,53.9279 331.788,56.2612 330.5,58.5C 330.977,59.4776 331.643,60.3109 332.5,61C 356.082,74.3736 379.582,87.8736 403,101.5C 403.832,163.001 403.665,224.335 402.5,285.5C 402.666,278.492 402.5,271.492 402,264.5C 353.296,292.7 304.462,320.7 255.5,348.5C 206.748,320.374 157.915,292.374 109,264.5C 108.5,271.492 108.334,278.492 108.5,285.5C 107.335,224.335 107.168,163.001 108,101.5C 156.5,73.6667 205,45.8333 253.5,18C 256.419,17.4484 259.086,18.1151 261.5,20C 279.507,31.0057 297.841,41.5057 316.5,51.5C 317.709,49.0592 319.376,47.0592 321.5,45.5 Z"/></g>
<g><path style="opacity:1" fill="#fffcfb" d="M 253.5,34.5 C 254.873,34.3433 256.207,34.51 257.5,35C 284.5,50.6667 311.5,66.3333 338.5,82C 335.958,86.2515 333.291,90.4181 330.5,94.5C 305.337,80.4195 280.337,66.0862 255.5,51.5C 230.663,66.0862 205.663,80.4195 180.5,94.5C 177.709,90.4181 175.042,86.2515 172.5,82C 199.669,66.3032 226.669,50.4699 253.5,34.5 Z"/></g>
<g><path style="opacity:1" fill="#fffaf8" d="M 158.5,89.5 C 161.616,93.0245 164.283,97.0245 166.5,101.5C 162.881,104.65 158.881,107.316 154.5,109.5C 151.709,105.418 149.042,101.251 146.5,97C 150.407,94.2411 154.407,91.7411 158.5,89.5 Z"/></g>
<g><path style="opacity:1" fill="#fff9f8" d="M 350.5,89.5 C 355.272,91.7204 359.938,94.2204 364.5,97C 361.958,101.251 359.291,105.418 356.5,109.5C 352.167,107 347.833,104.5 343.5,102C 346.238,98.0212 348.571,93.8546 350.5,89.5 Z"/></g>
<g><path style="opacity:1" fill="#e2e8ed" d="M 92.5,159.5 C 80.8333,159.5 69.1667,159.5 57.5,159.5C 57.5,244.833 57.5,330.167 57.5,415.5C 189.5,415.5 321.5,415.5 453.5,415.5C 453.5,330.167 453.5,244.833 453.5,159.5C 441.833,159.5 430.167,159.5 418.5,159.5C 418.5,151.167 418.5,142.833 418.5,134.5C 431.837,134.333 445.171,134.5 458.5,135C 468.78,136.613 475.28,142.447 478,152.5C 478.5,169.163 478.667,185.83 478.5,202.5C 481.167,202.5 483.833,202.5 486.5,202.5C 486.5,207.5 486.5,212.5 486.5,217.5C 483.833,217.5 481.167,217.5 478.5,217.5C 477.501,283.998 477.168,350.665 477.5,417.5C 417.167,417.5 356.833,417.5 296.5,417.5C 296.5,422.167 296.5,426.833 296.5,431.5C 269.167,431.5 241.833,431.5 214.5,431.5C 214.5,426.833 214.5,422.167 214.5,417.5C 154.167,417.5 93.8333,417.5 33.5,417.5C 33.8317,381.663 33.4984,345.996 32.5,310.5C 29.8333,310.5 27.1667,310.5 24.5,310.5C 24.5,305.5 24.5,300.5 24.5,295.5C 27.1667,295.5 29.8333,295.5 32.5,295.5C 32.0142,246.774 32.5142,198.107 34,149.5C 36.998,141.836 42.498,137.003 50.5,135C 64.496,134.5 78.496,134.333 92.5,134.5C 92.5,142.833 92.5,151.167 92.5,159.5 Z"/></g>
<g><path style="opacity:1" fill="#552317" d="M 146.5,151.5 C 140.167,151.5 133.833,151.5 127.5,151.5C 127.5,176.167 127.5,200.833 127.5,225.5C 133.833,225.5 140.167,225.5 146.5,225.5C 140.021,226.491 133.354,226.824 126.5,226.5C 126.5,201.167 126.5,175.833 126.5,150.5C 133.354,150.176 140.021,150.509 146.5,151.5 Z"/></g>
<g><path style="opacity:1" fill="#020100" d="M 146.5,151.5 C 163.003,154.164 173.836,163.498 179,179.5C 181.964,202.082 172.797,217.248 151.5,225C 149.866,225.494 148.199,225.66 146.5,225.5C 140.167,225.5 133.833,225.5 127.5,225.5C 127.5,200.833 127.5,176.167 127.5,151.5C 133.833,151.5 140.167,151.5 146.5,151.5 Z"/></g>
<g><path style="opacity:1" fill="#692b1d" d="M 236.5,151.5 C 222.833,151.5 209.167,151.5 195.5,151.5C 195.5,176.167 195.5,200.833 195.5,225.5C 209.167,225.5 222.833,225.5 236.5,225.5C 222.677,226.496 208.677,226.829 194.5,226.5C 194.5,201.167 194.5,175.833 194.5,150.5C 208.677,150.171 222.677,150.504 236.5,151.5 Z"/></g>
<g><path style="opacity:1" fill="#000000" d="M 236.5,151.5 C 236.5,156.167 236.5,160.833 236.5,165.5C 227.5,165.5 218.5,165.5 209.5,165.5C 209.5,170.833 209.5,176.167 209.5,181.5C 218.5,181.5 227.5,181.5 236.5,181.5C 236.5,186.167 236.5,190.833 236.5,195.5C 227.5,195.5 218.5,195.5 209.5,195.5C 209.5,200.833 209.5,206.167 209.5,211.5C 218.5,211.5 227.5,211.5 236.5,211.5C 236.5,216.167 236.5,220.833 236.5,225.5C 222.833,225.5 209.167,225.5 195.5,225.5C 195.5,200.833 195.5,176.167 195.5,151.5C 209.167,151.5 222.833,151.5 236.5,151.5 Z"/></g>
<g><path style="opacity:1" fill="#7c3322" d="M 265.5,151.5 C 261.5,151.5 257.5,151.5 253.5,151.5C 253.5,176.5 253.5,201.5 253.5,226.5C 252.502,201.339 252.169,176.005 252.5,150.5C 257.032,150.182 261.366,150.515 265.5,151.5 Z"/></g>
<g><path style="opacity:1" fill="#010000" d="M 265.5,151.5 C 271.476,160.769 277.476,170.102 283.5,179.5C 289.524,170.102 295.524,160.769 301.5,151.5C 305.5,151.5 309.5,151.5 313.5,151.5C 313.5,176.5 313.5,201.5 313.5,226.5C 308.833,226.5 304.167,226.5 299.5,226.5C 299.667,212.163 299.5,197.829 299,183.5C 298.283,184.044 297.783,184.711 297.5,185.5C 294.86,189.816 292.194,194.149 289.5,198.5C 285.5,199.833 281.5,199.833 277.5,198.5C 274.806,194.149 272.14,189.816 269.5,185.5C 269.217,184.711 268.717,184.044 268,183.5C 267.5,197.829 267.333,212.163 267.5,226.5C 262.833,226.5 258.167,226.5 253.5,226.5C 253.5,201.5 253.5,176.5 253.5,151.5C 257.5,151.5 261.5,151.5 265.5,151.5 Z"/></g>
<g><path style="opacity:1" fill="#672b1d" d="M 301.5,151.5 C 305.634,150.515 309.968,150.182 314.5,150.5C 314.831,176.005 314.498,201.339 313.5,226.5C 313.5,201.5 313.5,176.5 313.5,151.5C 309.5,151.5 305.5,151.5 301.5,151.5 Z"/></g>
<g><path style="opacity:1" fill="#070201" d="M 348.5,151.5 C 366.912,148.607 378.745,155.94 384,173.5C 384.667,182.833 384.667,192.167 384,201.5C 379.519,220.171 367.686,228.005 348.5,225C 338.809,221.311 332.643,214.478 330,204.5C 329.085,192.442 329.419,180.442 331,168.5C 334.745,160.587 340.578,154.92 348.5,151.5 Z"/></g>
<g><path style="opacity:0.994" fill="#000000" d="M 478.5,217.5 C 481.167,217.5 483.833,217.5 486.5,217.5C 488.833,217.5 491.167,217.5 493.5,217.5C 493.5,291.5 493.5,365.5 493.5,439.5C 499.5,439.5 505.5,439.5 511.5,439.5C 511.5,453.833 511.5,468.167 511.5,482.5C 506.807,497.193 497.141,506.859 482.5,511.5C 331.167,511.5 179.833,511.5 28.5,511.5C 13.8333,506.833 4.16667,497.167 -0.5,482.5C -0.5,468.167 -0.5,453.833 -0.5,439.5C 5.5,439.5 11.5,439.5 17.5,439.5C 17.5,396.5 17.5,353.5 17.5,310.5C 19.8333,310.5 22.1667,310.5 24.5,310.5C 27.1667,310.5 29.8333,310.5 32.5,310.5C 32.5,353.833 32.5,397.167 32.5,440.5C 85.5,440.5 138.5,440.5 191.5,440.5C 190.571,445.765 191.904,450.265 195.5,454C 235.167,454.667 274.833,454.667 314.5,454C 316.667,453.167 318.167,451.667 319,449.5C 319.498,446.518 319.665,443.518 319.5,440.5C 355.5,440.5 391.5,440.5 427.5,440.5C 427.5,445.5 427.5,450.5 427.5,455.5C 395.832,455.333 364.165,455.5 332.5,456C 329.249,462.919 323.916,467.253 316.5,469C 275.5,469.667 234.5,469.667 193.5,469C 186.65,466.818 181.65,462.484 178.5,456C 123.834,455.5 69.1677,455.333 14.5,455.5C 14.3336,463.507 14.5003,471.507 15,479.5C 17.8333,487.667 23.3333,493.167 31.5,496C 180.167,496.667 328.833,496.667 477.5,496C 486.03,494.474 491.863,489.641 495,481.5C 496.376,472.902 496.876,464.235 496.5,455.5C 478.833,455.5 461.167,455.5 443.5,455.5C 443.5,450.5 443.5,445.5 443.5,440.5C 455.167,440.5 466.833,440.5 478.5,440.5C 478.5,366.167 478.5,291.833 478.5,217.5 Z"/></g>
<g><path style="opacity:1" fill="#28292a" d="M 92.5,159.5 C 81.3456,160.495 70.0123,160.828 58.5,160.5C 58.5,245.167 58.5,329.833 58.5,414.5C 189.833,414.5 321.167,414.5 452.5,414.5C 452.5,329.833 452.5,245.167 452.5,160.5C 440.988,160.828 429.654,160.495 418.5,159.5C 430.167,159.5 441.833,159.5 453.5,159.5C 453.5,244.833 453.5,330.167 453.5,415.5C 321.5,415.5 189.5,415.5 57.5,415.5C 57.5,330.167 57.5,244.833 57.5,159.5C 69.1667,159.5 80.8333,159.5 92.5,159.5 Z"/></g>
<g><path style="opacity:1" fill="#41a0c2" d="M 92.5,175.5 C 86.1667,175.5 79.8333,175.5 73.5,175.5C 73.5,242.833 73.5,310.167 73.5,377.5C 73.5,384.833 73.5,392.167 73.5,399.5C 194.833,399.5 316.167,399.5 437.5,399.5C 437.5,392.167 437.5,384.833 437.5,377.5C 437.5,310.167 437.5,242.833 437.5,175.5C 431.167,175.5 424.833,175.5 418.5,175.5C 424.979,174.509 431.646,174.176 438.5,174.5C 438.5,249.833 438.5,325.167 438.5,400.5C 316.5,400.5 194.5,400.5 72.5,400.5C 72.5,325.167 72.5,249.833 72.5,174.5C 79.3543,174.176 86.021,174.509 92.5,175.5 Z"/></g>
<g><path style="opacity:1" fill="#2ec2f0" d="M 236.5,376.5 C 242.969,379.902 249.303,383.569 255.5,387.5C 261.697,383.569 268.031,379.902 274.5,376.5C 328.664,377.499 382.997,377.832 437.5,377.5C 437.5,384.833 437.5,392.167 437.5,399.5C 316.167,399.5 194.833,399.5 73.5,399.5C 73.5,392.167 73.5,384.833 73.5,377.5C 128.003,377.832 182.336,377.499 236.5,376.5 Z"/></g>
<g><path style="opacity:1" fill="#fb3501" d="M 402.5,285.5 C 353.688,313.742 304.688,341.742 255.5,369.5C 222.708,351.269 190.042,332.769 157.5,314C 156.365,313.251 155.365,313.417 154.5,314.5C 153.725,316.396 152.725,318.063 151.5,319.5C 147.535,317.182 143.535,314.848 139.5,312.5C 139.673,309.821 140.673,307.487 142.5,305.5C 131.104,298.807 119.77,292.14 108.5,285.5C 108.334,278.492 108.5,271.492 109,264.5C 157.915,292.374 206.748,320.374 255.5,348.5C 304.462,320.7 353.296,292.7 402,264.5C 402.5,271.492 402.666,278.492 402.5,285.5 Z"/></g>
<g><path style="opacity:1" fill="#fefffe" d="M 385.5,241.5 C 385.5,246.167 385.5,250.833 385.5,255.5C 380.833,255.5 376.167,255.5 371.5,255.5C 371.5,250.833 371.5,246.167 371.5,241.5C 376.167,241.5 380.833,241.5 385.5,241.5 Z"/></g>
<g><path style="opacity:1" fill="#ffcbbf" d="M 385.5,241.5 C 380.833,241.5 376.167,241.5 371.5,241.5C 371.5,246.167 371.5,250.833 371.5,255.5C 376.167,255.5 380.833,255.5 385.5,255.5C 380.695,256.487 375.695,256.821 370.5,256.5C 370.5,251.167 370.5,245.833 370.5,240.5C 375.695,240.179 380.695,240.513 385.5,241.5 Z"/></g>
<g><path style="opacity:1" fill="#fffbf9" d="M 155.5,241.5 C 222.167,241.5 288.833,241.5 355.5,241.5C 355.5,246.5 355.5,251.5 355.5,256.5C 288.833,256.5 222.167,256.5 155.5,256.5C 155.5,251.5 155.5,246.5 155.5,241.5 Z"/></g>
<g><path style="opacity:1" fill="#ffcbbf" d="M 125.5,241.5 C 130.305,240.513 135.305,240.179 140.5,240.5C 140.5,245.833 140.5,251.167 140.5,256.5C 135.305,256.821 130.305,256.487 125.5,255.5C 130.167,255.5 134.833,255.5 139.5,255.5C 139.5,250.833 139.5,246.167 139.5,241.5C 134.833,241.5 130.167,241.5 125.5,241.5 Z"/></g>
<g><path style="opacity:1" fill="#fefffe" d="M 125.5,241.5 C 130.167,241.5 134.833,241.5 139.5,241.5C 139.5,246.167 139.5,250.833 139.5,255.5C 134.833,255.5 130.167,255.5 125.5,255.5C 125.5,250.833 125.5,246.167 125.5,241.5 Z"/></g>
<g><path style="opacity:1" fill="#843624" d="M 236.5,195.5 C 228.016,196.493 219.349,196.826 210.5,196.5C 210.5,201.167 210.5,205.833 210.5,210.5C 219.349,210.174 228.016,210.507 236.5,211.5C 227.5,211.5 218.5,211.5 209.5,211.5C 209.5,206.167 209.5,200.833 209.5,195.5C 218.5,195.5 227.5,195.5 236.5,195.5 Z"/></g>
<g><path style="opacity:1" fill="#903c28" d="M 299.5,226.5 C 298.833,212.833 298.167,199.167 297.5,185.5C 297.783,184.711 298.283,184.044 299,183.5C 299.5,197.829 299.667,212.163 299.5,226.5 Z"/></g>
<g><path style="opacity:1" fill="#7b3322" d="M 269.5,185.5 C 268.833,199.167 268.167,212.833 267.5,226.5C 267.333,212.163 267.5,197.829 268,183.5C 268.717,184.044 269.217,184.711 269.5,185.5 Z"/></g>
<g><path style="opacity:1" fill="#74d1f4" d="M 418.5,175.5 C 424.833,175.5 431.167,175.5 437.5,175.5C 437.5,242.833 437.5,310.167 437.5,377.5C 382.997,377.832 328.664,377.499 274.5,376.5C 322.15,349.194 369.816,321.861 417.5,294.5C 418.5,254.839 418.833,215.172 418.5,175.5 Z"/></g>
<g><path style="opacity:1" fill="#74d1f4" d="M 92.5,175.5 C 92.1668,215.172 92.5001,254.839 93.5,294.5C 106.5,302 119.5,309.5 132.5,317C 133.5,317.667 134.5,317.667 135.5,317C 136.328,315.008 137.661,313.508 139.5,312.5C 143.535,314.848 147.535,317.182 151.5,319.5C 150.559,321.466 149.559,323.466 148.5,325.5C 177.85,342.528 207.184,359.528 236.5,376.5C 182.336,377.499 128.003,377.832 73.5,377.5C 73.5,310.167 73.5,242.833 73.5,175.5C 79.8333,175.5 86.1667,175.5 92.5,175.5 Z"/></g>
<g><path style="opacity:1" fill="#fa6845" d="M 351.5,166.5 C 359.924,164.628 365.757,167.628 369,175.5C 369.667,184.167 369.667,192.833 369,201.5C 365.757,209.538 359.923,212.371 351.5,210C 348.244,208.413 346.077,205.913 345,202.5C 344.333,192.833 344.333,183.167 345,173.5C 346.694,170.642 348.861,168.309 351.5,166.5 Z"/></g>
<g><path style="opacity:1" fill="#fc6946" d="M 145.5,166.5 C 157.102,168.768 163.436,175.768 164.5,187.5C 164.352,200.312 158.019,207.979 145.5,210.5C 144.5,210.5 143.5,210.5 142.5,210.5C 142.5,195.833 142.5,181.167 142.5,166.5C 143.5,166.5 144.5,166.5 145.5,166.5 Z"/></g>
<g><path style="opacity:1" fill="#a5452e" d="M 145.5,166.5 C 144.5,166.5 143.5,166.5 142.5,166.5C 142.5,181.167 142.5,195.833 142.5,210.5C 143.5,210.5 144.5,210.5 145.5,210.5C 144.432,211.434 143.099,211.768 141.5,211.5C 141.5,196.167 141.5,180.833 141.5,165.5C 143.099,165.232 144.432,165.566 145.5,166.5 Z"/></g>
<g><path style="opacity:1" fill="#873825" d="M 236.5,165.5 C 228.016,166.493 219.349,166.826 210.5,166.5C 210.5,171.167 210.5,175.833 210.5,180.5C 219.349,180.174 228.016,180.507 236.5,181.5C 227.5,181.5 218.5,181.5 209.5,181.5C 209.5,176.167 209.5,170.833 209.5,165.5C 218.5,165.5 227.5,165.5 236.5,165.5 Z"/></g>
<g><path style="opacity:1" fill="#c5d1da" d="M 478.5,217.5 C 478.5,291.833 478.5,366.167 478.5,440.5C 466.833,440.5 455.167,440.5 443.5,440.5C 443.5,445.5 443.5,450.5 443.5,455.5C 442.527,453.052 442.194,450.385 442.5,447.5C 437.833,447.5 433.167,447.5 428.5,447.5C 428.5,444.833 428.5,442.167 428.5,439.5C 391.996,439.168 355.663,439.502 319.5,440.5C 319.665,443.518 319.498,446.518 319,449.5C 318.167,451.667 316.667,453.167 314.5,454C 274.833,454.667 235.167,454.667 195.5,454C 191.904,450.265 190.571,445.765 191.5,440.5C 139.003,439.501 86.336,439.168 33.5,439.5C 33.5,432.167 33.5,424.833 33.5,417.5C 93.8333,417.5 154.167,417.5 214.5,417.5C 214.5,422.167 214.5,426.833 214.5,431.5C 241.833,431.5 269.167,431.5 296.5,431.5C 296.5,426.833 296.5,422.167 296.5,417.5C 356.833,417.5 417.167,417.5 477.5,417.5C 477.168,350.665 477.501,283.998 478.5,217.5 Z"/></g>
<g><path style="opacity:1" fill="#b2bbc2" d="M 32.5,310.5 C 33.4984,345.996 33.8317,381.663 33.5,417.5C 33.5,424.833 33.5,432.167 33.5,439.5C 86.336,439.168 139.003,439.501 191.5,440.5C 138.5,440.5 85.5,440.5 32.5,440.5C 32.5,397.167 32.5,353.833 32.5,310.5 Z"/></g>
<g><path style="opacity:1" fill="#a3acb3" d="M 319.5,440.5 C 355.663,439.502 391.996,439.168 428.5,439.5C 428.5,442.167 428.5,444.833 428.5,447.5C 428.806,450.385 428.473,453.052 427.5,455.5C 427.5,450.5 427.5,445.5 427.5,440.5C 391.5,440.5 355.5,440.5 319.5,440.5 Z"/></g>
<g><path style="opacity:1" fill="#e3e9ed" d="M 428.5,447.5 C 433.167,447.5 437.833,447.5 442.5,447.5C 442.194,450.385 442.527,453.052 443.5,455.5C 461.167,455.5 478.833,455.5 496.5,455.5C 496.876,464.235 496.376,472.902 495,481.5C 491.863,489.641 486.03,494.474 477.5,496C 328.833,496.667 180.167,496.667 31.5,496C 23.3333,493.167 17.8333,487.667 15,479.5C 14.5003,471.507 14.3336,463.507 14.5,455.5C 69.1677,455.333 123.834,455.5 178.5,456C 181.65,462.484 186.65,466.818 193.5,469C 234.5,469.667 275.5,469.667 316.5,469C 323.916,467.253 329.249,462.919 332.5,456C 364.165,455.5 395.832,455.333 427.5,455.5C 428.473,453.052 428.806,450.385 428.5,447.5 Z"/></g>
<g><path style="opacity:1" fill="#fefefe" d="M 37.5,468.5 C 50.8333,468.5 64.1667,468.5 77.5,468.5C 77.5,473.5 77.5,478.5 77.5,483.5C 64.1667,483.5 50.8333,483.5 37.5,483.5C 37.5,478.5 37.5,473.5 37.5,468.5 Z"/></g>
</svg>
