<?xml version="1.0" encoding="UTF-8"?>
<!DOCTYPE svg PUBLIC "-//W3C//DTD SVG 1.1//EN" "http://www.w3.org/Graphics/SVG/1.1/DTD/svg11.dtd">
<svg xmlns="http://www.w3.org/2000/svg" version="1.1" width="512px" height="512px" style="shape-rendering:geometricPrecision; text-rendering:geometricPrecision; image-rendering:optimizeQuality; fill-rule:evenodd; clip-rule:evenodd" xmlns:xlink="http://www.w3.org/1999/xlink">
<g><path style="opacity:0.996" fill="#000000" d="M 72.5,7.5 C 210.5,7.33333 348.5,7.5 486.5,8C 494.667,10.8333 500.167,16.3333 503,24.5C 503.995,158.222 503.662,291.889 502,425.5C 498.686,432.149 493.519,436.649 486.5,439C 433.501,439.5 380.501,439.667 327.5,439.5C 327.667,450.505 327.5,461.505 327,472.5C 322.833,488.667 312.667,498.833 296.5,503C 210.5,503.667 124.5,503.667 38.5,503C 22.3333,498.833 12.1667,488.667 8,472.5C 7.33333,359.833 7.33333,247.167 8,134.5C 15.4128,111.529 31.2461,101.196 55.5,103.5C 55.3334,77.1646 55.5,50.8312 56,24.5C 59.0191,16.3156 64.5191,10.649 72.5,7.5 Z"/></g>
<g><path style="opacity:1" fill="#5bd5b2" d="M 76.5,23.5 C 211.834,23.3333 347.167,23.5 482.5,24C 484.667,24.8333 486.167,26.3333 487,28.5C 487.5,42.8295 487.667,57.1628 487.5,71.5C 348.833,71.5 210.167,71.5 71.5,71.5C 71.3334,57.1628 71.5001,42.8295 72,28.5C 73.025,26.313 74.525,24.6464 76.5,23.5 Z"/></g>
<g><path style="opacity:1" fill="#000000" d="M 87.5,39.5 C 92.8333,39.5 98.1667,39.5 103.5,39.5C 103.5,44.8333 103.5,50.1667 103.5,55.5C 98.1667,55.5 92.8333,55.5 87.5,55.5C 87.5,50.1667 87.5,44.8333 87.5,39.5 Z"/></g>
<g><path style="opacity:1" fill="#000000" d="M 119.5,39.5 C 124.833,39.5 130.167,39.5 135.5,39.5C 135.5,44.8333 135.5,50.1667 135.5,55.5C 130.167,55.5 124.833,55.5 119.5,55.5C 119.5,50.1667 119.5,44.8333 119.5,39.5 Z"/></g>
<g><path style="opacity:1" fill="#000000" d="M 151.5,39.5 C 156.833,39.5 162.167,39.5 167.5,39.5C 167.5,44.8333 167.5,50.1667 167.5,55.5C 162.167,55.5 156.833,55.5 151.5,55.5C 151.5,50.1667 151.5,44.8333 151.5,39.5 Z"/></g>
<g><path style="opacity:1" fill="#e5e8ec" d="M 71.5,87.5 C 210.167,87.5 348.833,87.5 487.5,87.5C 487.667,197.834 487.5,308.167 487,418.5C 486.167,420.667 484.667,422.167 482.5,423C 430.834,423.5 379.168,423.667 327.5,423.5C 327.667,399.831 327.5,376.164 327,352.5C 325.143,342.284 320.31,333.784 312.5,327C 301.667,318.167 290.833,309.333 280,300.5C 279.667,266.833 279.333,233.167 279,199.5C 274.174,181.673 262.674,171.173 244.5,168C 186.834,167.5 129.168,167.333 71.5,167.5C 71.5,140.833 71.5,114.167 71.5,87.5 Z"/></g>
<g><path style="opacity:1" fill="#000000" d="M 87.5,103.5 C 146.167,103.5 204.833,103.5 263.5,103.5C 263.5,108.833 263.5,114.167 263.5,119.5C 204.833,119.5 146.167,119.5 87.5,119.5C 87.5,114.167 87.5,108.833 87.5,103.5 Z"/></g>
<g><path style="opacity:1" fill="#000000" d="M 391.5,103.5 C 396.833,103.5 402.167,103.5 407.5,103.5C 407.5,108.833 407.5,114.167 407.5,119.5C 402.167,119.5 396.833,119.5 391.5,119.5C 391.5,114.167 391.5,108.833 391.5,103.5 Z"/></g>
<g><path style="opacity:1" fill="#000000" d="M 423.5,103.5 C 428.833,103.5 434.167,103.5 439.5,103.5C 439.5,108.833 439.5,114.167 439.5,119.5C 434.167,119.5 428.833,119.5 423.5,119.5C 423.5,114.167 423.5,108.833 423.5,103.5 Z"/></g>
<g><path style="opacity:1" fill="#000000" d="M 455.5,103.5 C 460.833,103.5 466.167,103.5 471.5,103.5C 471.5,108.833 471.5,114.167 471.5,119.5C 466.167,119.5 460.833,119.5 455.5,119.5C 455.5,114.167 455.5,108.833 455.5,103.5 Z"/></g>
<g><path style="opacity:1" fill="#cd9c75" d="M 41.5,119.5 C 46.1667,119.5 50.8333,119.5 55.5,119.5C 55.5,135.5 55.5,151.5 55.5,167.5C 40.221,169.698 29.721,163.698 24,149.5C 21.8358,138.991 25.0024,130.491 33.5,124C 36.0993,122.205 38.7659,120.705 41.5,119.5 Z"/></g>
<g><path style="opacity:1" fill="#000000" d="M 87.5,135.5 C 92.8333,135.5 98.1667,135.5 103.5,135.5C 103.5,140.833 103.5,146.167 103.5,151.5C 98.1667,151.5 92.8333,151.5 87.5,151.5C 87.5,146.167 87.5,140.833 87.5,135.5 Z"/></g>
<g><path style="opacity:1" fill="#000000" d="M 119.5,135.5 C 167.5,135.5 215.5,135.5 263.5,135.5C 263.5,140.833 263.5,146.167 263.5,151.5C 215.5,151.5 167.5,151.5 119.5,151.5C 119.5,146.167 119.5,140.833 119.5,135.5 Z"/></g>
<g><path style="opacity:1" fill="#020202" d="M 391.5,151.5 C 422.569,150.741 438.402,165.741 439,196.5C 437.604,206.126 433.438,214.292 426.5,221C 450.712,231.897 465.545,250.397 471,276.5C 471.5,288.162 471.667,299.829 471.5,311.5C 423.5,311.5 375.5,311.5 327.5,311.5C 321.117,270.606 335.784,240.273 371.5,220.5C 354.549,199.379 355.549,179.212 374.5,160C 379.99,156.588 385.657,153.755 391.5,151.5 Z"/></g>
<g><path style="opacity:1" fill="#edcdb1" d="M 393.5,167.5 C 408.128,165.727 417.961,171.727 423,185.5C 424.761,199.808 418.928,209.642 405.5,215C 391.192,216.761 381.358,210.928 376,197.5C 373.836,186.991 377.002,178.491 385.5,172C 388.099,170.205 390.766,168.705 393.5,167.5 Z"/></g>
<g><path style="opacity:1" fill="#d29f6b" d="M 23.5,175.5 C 28.4145,178.789 33.7478,181.289 39.5,183C 107.833,183.333 176.167,183.667 244.5,184C 253.573,186.739 259.74,192.573 263,201.5C 263.333,236.833 263.667,272.167 264,307.5C 279.227,319.458 293.893,332.124 308,345.5C 309.275,347.717 310.275,350.051 311,352.5C 311.667,391.5 311.667,430.5 311,469.5C 307.631,478.871 301.131,484.704 291.5,487C 208.167,487.667 124.833,487.667 41.5,487C 32.5725,483.74 26.7392,477.573 24,468.5C 23.5,370.834 23.3333,273.167 23.5,175.5 Z"/></g>
<g><path style="opacity:1" fill="#000000" d="M 231.5,199.5 C 236.833,199.5 242.167,199.5 247.5,199.5C 247.5,204.833 247.5,210.167 247.5,215.5C 242.167,215.5 236.833,215.5 231.5,215.5C 231.5,210.167 231.5,204.833 231.5,199.5 Z"/></g>
<g><path style="opacity:1" fill="#000000" d="M 231.5,231.5 C 236.833,231.5 242.167,231.5 247.5,231.5C 247.5,236.833 247.5,242.167 247.5,247.5C 242.167,247.5 236.833,247.5 231.5,247.5C 231.5,242.167 231.5,236.833 231.5,231.5 Z"/></g>
<g><path style="opacity:1" fill="#fd816d" d="M 390.5,231.5 C 424.898,229.759 446.398,245.426 455,278.5C 455.499,284.157 455.666,289.824 455.5,295.5C 418.167,295.5 380.833,295.5 343.5,295.5C 342.405,261.625 358.072,240.292 390.5,231.5 Z"/></g>
<g><path style="opacity:1" fill="#000000" d="M 231.5,263.5 C 236.833,263.5 242.167,263.5 247.5,263.5C 247.5,268.833 247.5,274.167 247.5,279.5C 242.167,279.5 236.833,279.5 231.5,279.5C 231.5,274.167 231.5,268.833 231.5,263.5 Z"/></g>
<g><path style="opacity:1" fill="#000000" d="M 343.5,327.5 C 386.167,327.5 428.833,327.5 471.5,327.5C 471.5,354.167 471.5,380.833 471.5,407.5C 428.833,407.5 386.167,407.5 343.5,407.5C 343.5,380.833 343.5,354.167 343.5,327.5 Z"/></g>
<g><path style="opacity:1" fill="#fbd76f" d="M 359.5,343.5 C 391.5,343.5 423.5,343.5 455.5,343.5C 455.5,359.5 455.5,375.5 455.5,391.5C 423.5,391.5 391.5,391.5 359.5,391.5C 359.5,375.5 359.5,359.5 359.5,343.5 Z"/></g>
<g><path style="opacity:1" fill="#000000" d="M 39.5,359.5 C 66.1667,359.5 92.8333,359.5 119.5,359.5C 119.5,364.833 119.5,370.167 119.5,375.5C 92.8333,375.5 66.1667,375.5 39.5,375.5C 39.5,370.167 39.5,364.833 39.5,359.5 Z"/></g>
<g><path style="opacity:1" fill="#000000" d="M 135.5,359.5 C 140.833,359.5 146.167,359.5 151.5,359.5C 151.5,364.833 151.5,370.167 151.5,375.5C 146.167,375.5 140.833,375.5 135.5,375.5C 135.5,370.167 135.5,364.833 135.5,359.5 Z"/></g>
<g><path style="opacity:1" fill="#000000" d="M 39.5,391.5 C 76.8333,391.5 114.167,391.5 151.5,391.5C 151.5,396.833 151.5,402.167 151.5,407.5C 114.167,407.5 76.8333,407.5 39.5,407.5C 39.5,402.167 39.5,396.833 39.5,391.5 Z"/></g>
<g><path style="opacity:1" fill="#020101" d="M 50.5,423.5 C 80.8393,417.34 93.006,429.34 87,459.5C 85.6502,464.185 82.8168,467.685 78.5,470C 46.7451,478.577 33.9117,466.743 40,434.5C 42.3566,429.645 45.8566,425.979 50.5,423.5 Z"/></g>
<g><path style="opacity:1" fill="#020101" d="M 114.5,423.5 C 144.839,417.34 157.006,429.34 151,459.5C 149.65,464.185 146.817,467.685 142.5,470C 110.745,478.577 97.9117,466.743 104,434.5C 106.357,429.645 109.857,425.979 114.5,423.5 Z"/></g>
<g><path style="opacity:1" fill="#fbd76f" d="M 55.5,439.5 C 60.8333,439.5 66.1667,439.5 71.5,439.5C 71.5,444.833 71.5,450.167 71.5,455.5C 66.1667,455.5 60.8333,455.5 55.5,455.5C 55.5,450.167 55.5,444.833 55.5,439.5 Z"/></g>
<g><path style="opacity:1" fill="#fbd76f" d="M 119.5,439.5 C 124.833,439.5 130.167,439.5 135.5,439.5C 135.5,444.833 135.5,450.167 135.5,455.5C 130.167,455.5 124.833,455.5 119.5,455.5C 119.5,450.167 119.5,444.833 119.5,439.5 Z"/></g>
</svg>
