<?xml version="1.0" encoding="UTF-8"?>
<!DOCTYPE svg PUBLIC "-//W3C//DTD SVG 1.1//EN" "http://www.w3.org/Graphics/SVG/1.1/DTD/svg11.dtd">
<svg xmlns="http://www.w3.org/2000/svg" version="1.1" width="512px" height="512px" style="shape-rendering:geometricPrecision; text-rendering:geometricPrecision; image-rendering:optimizeQuality; fill-rule:evenodd; clip-rule:evenodd" xmlns:xlink="http://www.w3.org/1999/xlink">
<g><path style="opacity:0.991" fill="#010000" d="M 75.5,55.5 C 195.5,55.3333 315.5,55.5 435.5,56C 436.416,56.3742 437.25,56.8742 438,57.5C 446.53,79.4221 454.863,101.422 463,123.5C 463.333,151.833 463.667,180.167 464,208.5C 479.007,204.836 489.34,210.17 495,224.5C 495.667,246.833 495.667,269.167 495,291.5C 481.333,318.833 467.667,346.167 454,373.5C 435.823,386.255 417.823,399.255 400,412.5C 399.667,425.5 399.333,438.5 399,451.5C 398.626,452.416 398.126,453.25 397.5,454C 370.253,455.649 342.92,455.982 315.5,455C 313.667,454.5 312.5,453.333 312,451.5C 311.029,418.786 311.362,386.119 313,353.5C 315.969,343.07 321.802,334.57 330.5,328C 337.167,322.667 343.833,317.333 350.5,312C 287.167,311.333 223.833,311.333 160.5,312C 171.258,320.087 181.424,328.92 191,338.5C 194.137,343.108 196.47,348.108 198,353.5C 199.638,386.119 199.971,418.786 199,451.5C 198.5,453.333 197.333,454.5 195.5,455C 168.833,455.667 142.167,455.667 115.5,455C 114.584,454.626 113.75,454.126 113,453.5C 111.702,439.927 111.035,426.261 111,412.5C 93.1767,399.255 75.1767,386.255 57,373.5C 43.3333,346.167 29.6667,318.833 16,291.5C 15.3333,269.167 15.3333,246.833 16,224.5C 21.66,210.17 31.9933,204.836 47,208.5C 47.3333,180.167 47.6667,151.833 48,123.5C 55.6667,102.833 63.3333,82.1667 71,61.5C 71.8041,58.8541 73.3041,56.8541 75.5,55.5 Z"/></g>
<g><path style="opacity:1" fill="#ac6226" d="M 84.5,71.5 C 198.502,71.1667 312.502,71.5 426.5,72.5C 428.468,77.427 430.134,82.427 431.5,87.5C 314.167,87.5 196.833,87.5 79.5,87.5C 81.1593,82.1771 82.826,76.8437 84.5,71.5 Z"/></g>
<g><path style="opacity:1" fill="#ac6226" d="M 72.5,103.5 C 194.502,103.167 316.502,103.5 438.5,104.5C 440.468,109.427 442.134,114.427 443.5,119.5C 318.167,119.5 192.833,119.5 67.5,119.5C 69.1593,114.177 70.826,108.844 72.5,103.5 Z"/></g>
<g><path style="opacity:1" fill="#f7ba4a" d="M 63.5,135.5 C 191.5,135.5 319.5,135.5 447.5,135.5C 447.667,179.835 447.5,224.168 447,268.5C 439.5,276 432,283.5 424.5,291C 423.833,291.667 423.167,291.667 422.5,291C 410.964,279.523 397.964,277.523 383.5,285C 379.5,288.333 375.5,291.667 371.5,295C 294.167,295.667 216.833,295.667 139.5,295C 134.732,290.231 129.399,286.231 123.5,283C 109.955,277.651 98.288,280.317 88.5,291C 87.8333,291.667 87.1667,291.667 86.5,291C 79,283.5 71.5,276 64,268.5C 63.5,224.168 63.3333,179.835 63.5,135.5 Z"/></g>
<g><path style="opacity:1" fill="#030201" d="M 352.5,151.5 C 390.075,151.252 413.575,169.252 423,205.5C 425.603,240.854 410.436,264.688 377.5,277C 367.62,279.327 357.62,279.994 347.5,279C 307.825,273.6 268.158,268.266 228.5,263C 225.898,262.065 224.398,260.232 224,257.5C 223.502,254.183 223.335,250.85 223.5,247.5C 198.833,247.5 174.167,247.5 149.5,247.5C 143.465,265.699 130.798,273.532 111.5,271C 90.953,263.409 83.453,248.909 89,227.5C 91.0961,222.973 93.9294,218.973 97.5,215.5C 86.4094,202.749 84.576,188.749 92,173.5C 104.708,158.197 119.875,155.364 137.5,165C 143.91,169.665 147.91,175.832 149.5,183.5C 174.167,183.5 198.833,183.5 223.5,183.5C 223.335,179.818 223.501,176.152 224,172.5C 225.167,170.667 226.667,169.167 228.5,168C 270.049,162.95 311.382,157.45 352.5,151.5 Z"/></g>
<g><path style="opacity:1" fill="#d1833c" d="M 349.5,167.5 C 375.665,165.158 394.165,175.825 405,199.5C 410.963,221.84 405.129,240.34 387.5,255C 379.025,260.619 369.692,263.453 359.5,263.5C 319.489,258.893 279.489,254.226 239.5,249.5C 239.5,227.167 239.5,204.833 239.5,182.5C 276.343,177.813 313.009,172.813 349.5,167.5 Z"/></g>
<g><path style="opacity:1" fill="#f2f2e4" d="M 113.5,175.5 C 128.335,174.495 136.168,181.495 137,196.5C 137.903,197.701 139.069,198.535 140.5,199C 168.165,199.5 195.831,199.667 223.5,199.5C 223.5,210.167 223.5,220.833 223.5,231.5C 195.831,231.333 168.165,231.5 140.5,232C 138.714,232.785 137.214,233.951 136,235.5C 134.46,252.514 125.627,258.348 109.5,253C 99.7434,242.885 100.41,233.552 111.5,225C 115.5,224 119.5,223 123.5,222C 127.5,217.667 127.5,213.333 123.5,209C 113.353,208.69 106.52,203.856 103,194.5C 102.32,185.86 105.82,179.527 113.5,175.5 Z"/></g>
<g><path style="opacity:1" fill="#000000" d="M 255.5,191.5 C 260.833,191.5 266.167,191.5 271.5,191.5C 271.5,196.833 271.5,202.167 271.5,207.5C 266.167,207.5 260.833,207.5 255.5,207.5C 255.5,202.167 255.5,196.833 255.5,191.5 Z"/></g>
<g><path style="opacity:1" fill="#000000" d="M 375.5,215.5 C 380.833,215.5 386.167,215.5 391.5,215.5C 391.5,220.833 391.5,226.167 391.5,231.5C 386.167,231.5 380.833,231.5 375.5,231.5C 375.5,226.167 375.5,220.833 375.5,215.5 Z"/></g>
<g><path style="opacity:1" fill="#fdd681" d="M 36.5,223.5 C 41.1937,222.7 44.6937,224.367 47,228.5C 47.0451,244.567 47.7118,260.567 49,276.5C 72.8333,300.333 96.6667,324.167 120.5,348C 125.133,345.554 129.133,342.054 132.5,337.5C 121.848,326.347 111.014,315.347 100,304.5C 101.576,299.598 105.076,296.931 110.5,296.5C 113.698,296.622 116.698,297.455 119.5,299C 136.875,314.044 154.542,328.71 172.5,343C 177.913,347.655 181.413,353.488 183,360.5C 183.5,386.831 183.667,413.165 183.5,439.5C 164.833,439.5 146.167,439.5 127.5,439.5C 127.96,427.066 127.46,414.733 126,402.5C 107.333,389.167 88.6667,375.833 70,362.5C 57.3333,337.167 44.6667,311.833 32,286.5C 31.3333,267.167 31.3333,247.833 32,228.5C 33.025,226.313 34.525,224.646 36.5,223.5 Z"/></g>
<g><path style="opacity:1" fill="#fdd681" d="M 468.5,223.5 C 473.28,222.641 476.78,224.308 479,228.5C 479.667,247.833 479.667,267.167 479,286.5C 466.333,311.833 453.667,337.167 441,362.5C 422.333,375.833 403.667,389.167 385,402.5C 383.54,414.733 383.04,427.066 383.5,439.5C 364.833,439.5 346.167,439.5 327.5,439.5C 327.333,413.165 327.5,386.831 328,360.5C 329.583,353.499 333.083,347.666 338.5,343C 356.458,328.71 374.125,314.044 391.5,299C 399.447,294.826 406.113,296.326 411.5,303.5C 400.5,314.833 389.5,326.167 378.5,337.5C 381.867,342.054 385.867,345.554 390.5,348C 414.333,324.167 438.167,300.333 462,276.5C 463.288,260.567 463.955,244.567 464,228.5C 465.366,226.638 466.866,224.972 468.5,223.5 Z"/></g>
<g><path style="opacity:1" fill="#000000" d="M 343.5,231.5 C 348.833,231.5 354.167,231.5 359.5,231.5C 359.5,236.833 359.5,242.167 359.5,247.5C 354.167,247.5 348.833,247.5 343.5,247.5C 343.5,242.167 343.5,236.833 343.5,231.5 Z"/></g>
</svg>
