<?xml version="1.0" encoding="UTF-8"?>
<!DOCTYPE svg PUBLIC "-//W3C//DTD SVG 1.1//EN" "http://www.w3.org/Graphics/SVG/1.1/DTD/svg11.dtd">
<svg xmlns="http://www.w3.org/2000/svg" version="1.1" width="512px" height="512px" style="shape-rendering:geometricPrecision; text-rendering:geometricPrecision; image-rendering:optimizeQuality; fill-rule:evenodd; clip-rule:evenodd" xmlns:xlink="http://www.w3.org/1999/xlink">
<g><path style="opacity:0.979" fill="#010101" d="M 45.5,-0.5 C 185.5,-0.5 325.5,-0.5 465.5,-0.5C 477.246,3.41571 484.746,11.4157 488,23.5C 488.667,112.167 488.667,200.833 488,289.5C 484.161,303.673 474.995,311.84 460.5,314C 403.501,314.5 346.501,314.667 289.5,314.5C 289.238,315.978 289.571,317.311 290.5,318.5C 305.708,326.868 321.041,335.035 336.5,343C 338.5,343.667 340.5,343.667 342.5,343C 366.496,328.555 389.83,329.555 412.5,346C 435.764,369.956 438.597,396.123 421,424.5C 402.18,445.882 379.347,451.715 352.5,442C 329.715,430.184 317.882,411.351 317,385.5C 308.41,380.12 299.577,375.12 290.5,370.5C 289.334,380.817 289.168,391.151 290,401.5C 300.344,408.179 309.01,416.512 316,426.5C 329.832,457.002 323.665,482.502 297.5,503C 290.813,506.943 283.813,509.776 276.5,511.5C 269.5,511.5 262.5,511.5 255.5,511.5C 229.857,505.019 214.69,488.686 210,462.5C 207.835,436.992 217.669,417.826 239.5,405C 241.049,403.786 242.215,402.286 243,400.5C 243.825,381.926 243.659,363.426 242.5,345C 223.658,334.745 204.658,324.745 185.5,315C 140.5,314.667 95.5,314.333 50.5,314C 36.0055,311.84 26.8388,303.673 23,289.5C 22.3333,200.833 22.3333,112.167 23,23.5C 26.2539,11.4157 33.7539,3.41571 45.5,-0.5 Z M 372.5,379.5 C 383.938,379.432 387.771,384.765 384,395.5C 377.196,402.469 371.196,401.802 366,393.5C 364.398,386.972 366.565,382.305 372.5,379.5 Z M 263.5,444.5 C 273.312,444.811 277.479,449.811 276,459.5C 269.618,467.487 263.285,467.487 257,459.5C 256.333,456.5 256.333,453.5 257,450.5C 258.914,448.144 261.081,446.144 263.5,444.5 Z"/></g>
<g><path style="opacity:1" fill="#fdcf63" d="M 62.5,14.5 C 59.8706,18.0948 58.0373,22.0948 57,26.5C 56.5003,34.4931 56.3336,42.4931 56.5,50.5C 50.5,50.5 44.5,50.5 38.5,50.5C 38.5,42.5 38.5,34.5 38.5,26.5C 39.8374,21.994 42.504,18.494 46.5,16C 51.7364,14.661 57.0698,14.161 62.5,14.5 Z"/></g>
<g><path style="opacity:1" fill="#fddf7c" d="M 62.5,14.5 C 195.5,14.3333 328.5,14.5 461.5,15C 467.416,16.748 471.083,20.5813 472.5,26.5C 472.5,34.5 472.5,42.5 472.5,50.5C 333.833,50.5 195.167,50.5 56.5,50.5C 56.3336,42.4931 56.5003,34.4931 57,26.5C 58.0373,22.0948 59.8706,18.0948 62.5,14.5 Z"/></g>
<g><path style="opacity:1" fill="#050402" d="M 74.5,25.5 C 80.1764,25.3339 85.8431,25.5006 91.5,26C 96.1447,28.0246 97.6447,31.5246 96,36.5C 94.786,38.0488 93.286,39.2155 91.5,40C 85.3877,40.9094 79.3877,40.576 73.5,39C 69.285,34.1341 69.6183,29.6341 74.5,25.5 Z"/></g>
<g><path style="opacity:1" fill="#060502" d="M 123.5,25.5 C 130.284,25.0796 136.95,25.5796 143.5,27C 146.916,32.464 145.916,36.7973 140.5,40C 134.388,40.9094 128.388,40.576 122.5,39C 118.327,34.1831 118.661,29.6831 123.5,25.5 Z"/></g>
<g><path style="opacity:1" fill="#070503" d="M 173.5,25.5 C 179.952,25.0845 186.285,25.5845 192.5,27C 195.913,32.5104 194.913,36.8438 189.5,40C 183.388,40.9094 177.388,40.576 171.5,39C 167.188,33.7307 167.855,29.2307 173.5,25.5 Z"/></g>
<g><path style="opacity:1" fill="#0a0804" d="M 222.5,25.5 C 228.176,25.3339 233.843,25.5006 239.5,26C 246.406,31.146 246.073,35.8127 238.5,40C 233.167,40.6667 227.833,40.6667 222.5,40C 215.899,35.1709 215.899,30.3376 222.5,25.5 Z"/></g>
<g><path style="opacity:1" fill="#0a0804" d="M 271.5,25.5 C 277.176,25.3339 282.843,25.5006 288.5,26C 294.209,29.5454 294.875,33.8787 290.5,39C 284.251,40.5362 277.917,40.8696 271.5,40C 264.914,35.1215 264.914,30.2882 271.5,25.5 Z"/></g>
<g><path style="opacity:1" fill="#070503" d="M 320.5,25.5 C 326.952,25.0845 333.285,25.5845 339.5,27C 344.095,32.6967 343.095,37.03 336.5,40C 331.167,40.6667 325.833,40.6667 320.5,40C 315.225,35.1222 315.225,30.2888 320.5,25.5 Z"/></g>
<g><path style="opacity:1" fill="#050402" d="M 369.5,25.5 C 375.952,25.0845 382.285,25.5845 388.5,27C 391.809,30.0767 392.309,33.5767 390,37.5C 388.829,38.8932 387.329,39.7265 385.5,40C 380.167,40.6667 374.833,40.6667 369.5,40C 364.235,35.0757 364.235,30.2423 369.5,25.5 Z"/></g>
<g><path style="opacity:1" fill="#050402" d="M 418.5,25.5 C 424.952,25.0845 431.285,25.5845 437.5,27C 440.864,30.0262 441.364,33.5262 439,37.5C 437.829,38.8932 436.329,39.7265 434.5,40C 429.167,40.6667 423.833,40.6667 418.5,40C 413.225,35.1222 413.225,30.2888 418.5,25.5 Z"/></g>
<g><path style="opacity:1" fill="#d8bc68" d="M 38.5,26.5 C 38.5,34.5 38.5,42.5 38.5,50.5C 44.5,50.5 50.5,50.5 56.5,50.5C 195.167,50.5 333.833,50.5 472.5,50.5C 472.5,42.5 472.5,34.5 472.5,26.5C 473.493,34.6499 473.826,42.9832 473.5,51.5C 328.167,51.5 182.833,51.5 37.5,51.5C 37.1739,42.9832 37.5073,34.6499 38.5,26.5 Z"/></g>
<g><path style="opacity:1" fill="#9dc9ea" d="M 38.5,66.5 C 44.5,66.5 50.5,66.5 56.5,66.5C 56.5,126.5 56.5,186.5 56.5,246.5C 50.5,246.5 44.5,246.5 38.5,246.5C 38.5,186.5 38.5,126.5 38.5,66.5 Z"/></g>
<g><path style="opacity:1" fill="#badffe" d="M 56.5,66.5 C 119.167,66.5 181.833,66.5 244.5,66.5C 244.333,96.8352 244.5,127.168 245,157.5C 246.129,159.141 247.629,160.141 249.5,160.5C 250.806,161.467 251.473,162.801 251.5,164.5C 251.5,164.833 251.5,165.167 251.5,165.5C 242.677,168.152 236.51,173.819 233,182.5C 231.557,203.788 231.057,225.121 231.5,246.5C 173.167,246.5 114.833,246.5 56.5,246.5C 56.5,186.5 56.5,126.5 56.5,66.5 Z"/></g>
<g><path style="opacity:1" fill="#f27b7b" d="M 472.5,66.5 C 472.5,126.5 472.5,186.5 472.5,246.5C 415.5,246.5 358.5,246.5 301.5,246.5C 303.458,221.88 298.291,198.88 286,177.5C 277.511,165.39 266.011,161.057 251.5,164.5C 251.473,162.801 250.806,161.467 249.5,160.5C 252.97,161.125 255.804,160.125 258,157.5C 258.5,127.168 258.667,96.8352 258.5,66.5C 329.833,66.5 401.167,66.5 472.5,66.5 Z"/></g>
<g><path style="opacity:1" fill="#030404" d="M 114.5,113.5 C 117.85,113.335 121.183,113.502 124.5,114C 141.927,123.768 159.094,133.935 176,144.5C 182.381,153.96 181.548,162.794 173.5,171C 158.833,179.667 144.167,188.333 129.5,197C 120.192,201.45 112.026,199.95 105,192.5C 103.438,190.043 102.438,187.376 102,184.5C 101.333,165.167 101.333,145.833 102,126.5C 104.353,120.315 108.52,115.982 114.5,113.5 Z"/></g>
<g><path style="opacity:1" fill="#050303" d="M 341.5,113.5 C 344.187,113.336 346.854,113.503 349.5,114C 365.996,123.08 382.329,132.414 398.5,142C 407.833,151.667 407.833,161.333 398.5,171C 383.833,179.667 369.167,188.333 354.5,197C 340.861,202.428 331.695,198.261 327,184.5C 326.333,165.5 326.333,146.5 327,127.5C 329.459,120.219 334.293,115.552 341.5,113.5 Z"/></g>
<g><path style="opacity:1" fill="#eaf0fb" d="M 117.5,128.5 C 119.655,128.372 121.655,128.872 123.5,130C 136.335,137.919 149.335,145.585 162.5,153C 164.847,154.191 165.68,156.024 165,158.5C 151.751,166.207 138.584,174.041 125.5,182C 123.086,183.885 120.419,184.552 117.5,184C 116.173,165.5 116.173,147 117.5,128.5 Z"/></g>
<g><path style="opacity:1" fill="#e8effa" d="M 343.5,128.5 C 345.308,128.491 346.975,128.991 348.5,130C 362.002,138.252 375.669,146.252 389.5,154C 391.223,157.408 390.223,159.741 386.5,161C 372.624,169.103 358.624,176.937 344.5,184.5C 343.558,184.392 342.725,184.059 342,183.5C 341.333,165.833 341.333,148.167 342,130.5C 342.717,129.956 343.217,129.289 343.5,128.5 Z"/></g>
<g><path style="opacity:1" fill="#e75366" d="M 301.5,246.5 C 297.167,246.5 292.833,246.5 288.5,246.5C 290.855,223.941 286.355,202.941 275,183.5C 268.388,176.238 260.555,174.571 251.5,178.5C 251.5,174.167 251.5,169.833 251.5,165.5C 251.5,165.167 251.5,164.833 251.5,164.5C 266.011,161.057 277.511,165.39 286,177.5C 298.291,198.88 303.458,221.88 301.5,246.5 Z"/></g>
<g><path style="opacity:1" fill="#9dc9ea" d="M 251.5,165.5 C 251.5,169.833 251.5,174.167 251.5,178.5C 247.919,181.32 245.585,184.986 244.5,189.5C 243.503,208.326 243.17,227.326 243.5,246.5C 239.5,246.5 235.5,246.5 231.5,246.5C 231.057,225.121 231.557,203.788 233,182.5C 236.51,173.819 242.677,168.152 251.5,165.5 Z"/></g>
<g><path style="opacity:1" fill="#8c848c" d="M 259.5,190.5 C 261.017,190.511 262.184,191.177 263,192.5C 267.746,200.989 271.079,209.989 273,219.5C 273.333,280.5 273.667,341.5 274,402.5C 277.015,411.516 282.849,418.016 291.5,422C 309.598,438.836 312.431,458.003 300,479.5C 283.282,497.912 264.115,501.079 242.5,489C 224.255,473.606 220.422,455.106 231,433.5C 234.131,429.367 237.631,425.534 241.5,422C 250.151,418.016 255.985,411.516 259,402.5C 259.5,331.834 259.667,261.167 259.5,190.5 Z M 263.5,444.5 C 261.081,446.144 258.914,448.144 257,450.5C 256.333,453.5 256.333,456.5 257,459.5C 263.285,467.487 269.618,467.487 276,459.5C 277.479,449.811 273.312,444.811 263.5,444.5 Z"/></g>
<g><path style="opacity:1" fill="#546878" d="M 38.5,66.5 C 38.5,126.5 38.5,186.5 38.5,246.5C 44.5,246.5 50.5,246.5 56.5,246.5C 114.833,246.5 173.167,246.5 231.5,246.5C 235.5,246.5 239.5,246.5 243.5,246.5C 243.17,227.326 243.503,208.326 244.5,189.5C 244.5,208.833 244.5,228.167 244.5,247.5C 175.5,247.5 106.5,247.5 37.5,247.5C 37.1676,186.998 37.5009,126.664 38.5,66.5 Z"/></g>
<g><path style="opacity:1" fill="#743b3b" d="M 472.5,66.5 C 473.499,126.664 473.832,186.998 473.5,247.5C 411.664,247.832 349.998,247.499 288.5,246.5C 292.833,246.5 297.167,246.5 301.5,246.5C 358.5,246.5 415.5,246.5 472.5,246.5C 472.5,186.5 472.5,126.5 472.5,66.5 Z"/></g>
<g><path style="opacity:1" fill="#998346" d="M 243.5,298.5 C 243.5,286.5 243.5,274.5 243.5,262.5C 239.5,262.5 235.5,262.5 231.5,262.5C 173.167,262.5 114.833,262.5 56.5,262.5C 50.5,262.5 44.5,262.5 38.5,262.5C 38.5,270.167 38.5,277.833 38.5,285.5C 37.5076,277.684 37.1743,269.684 37.5,261.5C 106.5,261.5 175.5,261.5 244.5,261.5C 244.829,274.011 244.495,286.345 243.5,298.5 Z"/></g>
<g><path style="opacity:1" fill="#9d874a" d="M 472.5,286.5 C 472.5,278.5 472.5,270.5 472.5,262.5C 415.5,262.5 358.5,262.5 301.5,262.5C 297.5,262.5 293.5,262.5 289.5,262.5C 289.5,274.5 289.5,286.5 289.5,298.5C 288.505,286.345 288.171,274.011 288.5,261.5C 350.167,261.5 411.833,261.5 473.5,261.5C 473.826,270.017 473.493,278.35 472.5,286.5 Z"/></g>
<g><path style="opacity:1" fill="#fdcf63" d="M 56.5,262.5 C 56.3336,270.507 56.5003,278.507 57,286.5C 58.0428,290.915 59.8762,294.915 62.5,298.5C 56.2376,299.128 50.2376,298.295 44.5,296C 41.0661,293.297 39.0661,289.797 38.5,285.5C 38.5,277.833 38.5,270.167 38.5,262.5C 44.5,262.5 50.5,262.5 56.5,262.5 Z"/></g>
<g><path style="opacity:1" fill="#fdde7c" d="M 56.5,262.5 C 114.833,262.5 173.167,262.5 231.5,262.5C 231.5,274.5 231.5,286.5 231.5,298.5C 175.167,298.5 118.833,298.5 62.5,298.5C 59.8762,294.915 58.0428,290.915 57,286.5C 56.5003,278.507 56.3336,270.507 56.5,262.5 Z"/></g>
<g><path style="opacity:1" fill="#ffd064" d="M 231.5,262.5 C 235.5,262.5 239.5,262.5 243.5,262.5C 243.5,274.5 243.5,286.5 243.5,298.5C 239.5,298.5 235.5,298.5 231.5,298.5C 231.5,286.5 231.5,274.5 231.5,262.5 Z"/></g>
<g><path style="opacity:1" fill="#ffd064" d="M 301.5,262.5 C 301.5,274.5 301.5,286.5 301.5,298.5C 297.5,298.5 293.5,298.5 289.5,298.5C 289.5,286.5 289.5,274.5 289.5,262.5C 293.5,262.5 297.5,262.5 301.5,262.5 Z"/></g>
<g><path style="opacity:1" fill="#fdde7c" d="M 301.5,262.5 C 358.5,262.5 415.5,262.5 472.5,262.5C 472.5,270.5 472.5,278.5 472.5,286.5C 471.056,292.445 467.389,296.278 461.5,298C 408.168,298.5 354.834,298.667 301.5,298.5C 301.5,286.5 301.5,274.5 301.5,262.5 Z"/></g>
<g><path style="opacity:1" fill="#0a0804" d="M 75.5,272.5 C 81.6208,272.09 87.6208,272.59 93.5,274C 96.886,277.373 97.386,281.206 95,285.5C 94.2496,286.126 93.4162,286.626 92.5,287C 86.5,287.667 80.5,287.667 74.5,287C 69.0028,281.683 69.3361,276.85 75.5,272.5 Z"/></g>
<g><path style="opacity:1" fill="#0a0804" d="M 124.5,272.5 C 130.621,272.09 136.621,272.59 142.5,274C 145.886,277.373 146.386,281.206 144,285.5C 143.25,286.126 142.416,286.626 141.5,287C 135.5,287.667 129.5,287.667 123.5,287C 118.003,281.683 118.336,276.85 124.5,272.5 Z"/></g>
<g><path style="opacity:1" fill="#0a0804" d="M 173.5,272.5 C 179.621,272.09 185.621,272.59 191.5,274C 194.394,276.909 195.227,280.409 194,284.5C 193.097,285.701 191.931,286.535 190.5,287C 184.5,287.667 178.5,287.667 172.5,287C 166.99,281.73 167.323,276.897 173.5,272.5 Z"/></g>
<g><path style="opacity:1" fill="#0a0804" d="M 321.5,272.5 C 326.511,272.334 331.511,272.501 336.5,273C 343.637,276.692 344.304,281.359 338.5,287C 331.724,287.92 325.057,287.586 318.5,286C 315.166,280.467 316.166,275.967 321.5,272.5 Z"/></g>
<g><path style="opacity:1" fill="#0a0804" d="M 370.5,272.5 C 375.844,272.334 381.177,272.501 386.5,273C 392.729,277.171 393.062,281.837 387.5,287C 380.724,287.92 374.057,287.586 367.5,286C 364.127,280.391 365.127,275.891 370.5,272.5 Z"/></g>
<g><path style="opacity:1" fill="#0a0804" d="M 419.5,272.5 C 424.844,272.334 430.177,272.501 435.5,273C 441.729,277.171 442.062,281.837 436.5,287C 429.724,287.92 423.057,287.586 416.5,286C 413.127,280.391 414.127,275.891 419.5,272.5 Z"/></g>
<g><path style="opacity:1" fill="#5b535d" d="M 217.5,314.5 C 226.318,313.507 235.318,313.173 244.5,313.5C 244.666,318.511 244.499,323.511 244,328.5C 235.35,323.426 226.517,318.759 217.5,314.5 Z"/></g>
<g><path style="opacity:1" fill="#5d565f" d="M 301.5,342.5 C 301.5,347.833 301.5,353.167 301.5,358.5C 297.527,356.513 293.527,354.513 289.5,352.5C 288.167,346.833 288.167,341.167 289.5,335.5C 293.563,337.86 297.563,340.193 301.5,342.5 Z"/></g>
<g><path style="opacity:1" fill="#746b76" d="M 301.5,342.5 C 312.478,347.989 323.478,353.489 334.5,359C 337.833,359.667 341.167,359.667 344.5,359C 351.796,354.853 359.463,351.52 367.5,349C 392.003,346.826 408.169,357.326 416,380.5C 419.136,406.336 408.302,422.836 383.5,430C 358.663,432.826 342.496,422.326 335,398.5C 336.214,387.468 332.714,378.301 324.5,371C 316.771,366.805 309.105,362.638 301.5,358.5C 301.5,353.167 301.5,347.833 301.5,342.5 Z M 372.5,379.5 C 366.565,382.305 364.398,386.972 366,393.5C 371.196,401.802 377.196,402.469 384,395.5C 387.771,384.765 383.938,379.432 372.5,379.5 Z"/></g>
<g><path style="opacity:0.974" fill="#020102" d="M 370.5,363.5 C 391.358,363.524 401.525,373.857 401,394.5C 394.838,413.233 382.338,419.399 363.5,413C 350.052,403.661 346.552,391.494 353,376.5C 357.345,370.086 363.178,365.753 370.5,363.5 Z M 372.5,379.5 C 366.565,382.305 364.398,386.972 366,393.5C 371.196,401.802 377.196,402.469 384,395.5C 387.771,384.765 383.938,379.432 372.5,379.5 Z"/></g>
<g><path style="opacity:0.975" fill="#020202" d="M 260.5,429.5 C 282.459,428.293 292.959,438.626 292,460.5C 284.612,479.607 271.445,485.107 252.5,477C 240.754,468.323 237.587,457.156 243,443.5C 246.915,436.309 252.749,431.643 260.5,429.5 Z M 263.5,444.5 C 261.081,446.144 258.914,448.144 257,450.5C 256.333,453.5 256.333,456.5 257,459.5C 263.285,467.487 269.618,467.487 276,459.5C 277.479,449.811 273.312,444.811 263.5,444.5 Z"/></g>
</svg>
