<?xml version="1.0" encoding="UTF-8"?>
<!DOCTYPE svg PUBLIC "-//W3C//DTD SVG 1.1//EN" "http://www.w3.org/Graphics/SVG/1.1/DTD/svg11.dtd">
<svg xmlns="http://www.w3.org/2000/svg" version="1.1" width="512px" height="512px" style="shape-rendering:geometricPrecision; text-rendering:geometricPrecision; image-rendering:optimizeQuality; fill-rule:evenodd; clip-rule:evenodd" xmlns:xlink="http://www.w3.org/1999/xlink">
<g><path style="opacity:0.984" fill="#252322" d="M 28.5,32.5 C 165.167,32.3333 301.834,32.5 438.5,33C 440.286,33.7845 441.786,34.9512 443,36.5C 443.167,59.5072 443.667,82.5072 444.5,105.5C 455.128,109.093 461.295,116.427 463,127.5C 463.333,204.833 463.667,282.167 464,359.5C 477.919,383.003 491.586,406.67 505,430.5C 511.985,452.69 504.819,468.19 483.5,477C 480.833,477.333 478.167,477.667 475.5,478C 399.167,478.667 322.833,478.667 246.5,478C 222.625,474.446 212.125,460.612 215,436.5C 215.813,434.564 216.313,432.564 216.5,430.5C 181.498,430.667 146.498,430.5 111.5,430C 109.442,428.51 108.109,426.51 107.5,424C 113.34,403.648 119.673,383.481 126.5,363.5C 129.438,362.425 132.438,362.259 135.5,363C 152.807,368.108 170.14,372.774 187.5,377C 197.621,362.23 206.788,347.063 215,331.5C 205.137,341.697 194.971,351.53 184.5,361C 183.127,361.875 181.627,362.375 180,362.5C 157.143,354.937 134.31,347.27 111.5,339.5C 103.32,360.536 95.8204,381.869 89,403.5C 88.2155,405.286 87.0488,406.786 85.5,408C 68.8333,415 52.1667,422 35.5,429C 16.309,432.137 5.47565,423.971 3,404.5C 2.33333,330.5 2.33333,256.5 3,182.5C 4.01763,170.321 10.1843,161.987 21.5,157.5C 22.3333,117.504 22.8333,77.5042 23,37.5C 24.1065,34.887 25.9399,33.2203 28.5,32.5 Z"/></g>
<g><path style="opacity:1" fill="#e1e6ec" d="M 56.5,45.5 C 56.5,82.5 56.5,119.5 56.5,156.5C 107.5,156.5 158.5,156.5 209.5,156.5C 151.669,157.499 93.6691,157.832 35.5,157.5C 35.5,120.167 35.5,82.8333 35.5,45.5C 42.5,45.5 49.5,45.5 56.5,45.5 Z"/></g>
<g><path style="opacity:1" fill="#f2f4fa" d="M 56.5,45.5 C 181.167,45.5 305.833,45.5 430.5,45.5C 430.5,65.1667 430.5,84.8333 430.5,104.5C 374.664,104.168 318.998,104.501 263.5,105.5C 255.525,106.487 248.525,109.654 242.5,115C 231.286,128.708 220.286,142.542 209.5,156.5C 158.5,156.5 107.5,156.5 56.5,156.5C 56.5,119.5 56.5,82.5 56.5,45.5 Z"/></g>
<g><path style="opacity:1" fill="#242222" d="M 66.5,75.5 C 108.501,75.3333 150.501,75.5 192.5,76C 197.833,79.6667 197.833,83.3333 192.5,87C 150.5,87.6667 108.5,87.6667 66.5,87C 62.5548,83.1694 62.5548,79.3361 66.5,75.5 Z"/></g>
<g><path style="opacity:1" fill="#aeafb2" d="M 430.5,45.5 C 431.497,65.3264 431.83,85.3264 431.5,105.5C 375.5,105.5 319.5,105.5 263.5,105.5C 318.998,104.501 374.664,104.168 430.5,104.5C 430.5,84.8333 430.5,65.1667 430.5,45.5 Z"/></g>
<g><path style="opacity:1" fill="#2d2c2d" d="M 67.5,114.5 C 108.835,114.333 150.168,114.5 191.5,115C 198.167,119 198.167,123 191.5,127C 150.167,127.667 108.833,127.667 67.5,127C 63.7084,124.947 62.5418,121.781 64,117.5C 65.1451,116.364 66.3117,115.364 67.5,114.5 Z"/></g>
<g><path style="opacity:1" fill="#e1a56e" d="M 275.5,117.5 C 263.295,132.728 250.961,147.894 238.5,163C 232.175,163.5 225.842,163.666 219.5,163.5C 229.953,149.875 240.619,136.375 251.5,123C 258.675,117.943 266.675,116.109 275.5,117.5 Z"/></g>
<g><path style="opacity:1" fill="#ebb977" d="M 275.5,117.5 C 330.501,117.333 385.501,117.5 440.5,118C 446.513,119.512 449.846,123.345 450.5,129.5C 450.833,198.669 450.499,267.669 449.5,336.5C 429.196,299.895 408.363,263.562 387,227.5C 376.659,216.56 364.159,213.06 349.5,217C 342.498,219.669 336.998,224.169 333,230.5C 297.312,293.224 261.145,355.557 224.5,417.5C 190.483,418.16 156.817,417.493 123.5,415.5C 126.751,402.744 130.417,390.078 134.5,377.5C 135.167,377.167 135.833,376.833 136.5,376.5C 153.502,381.447 170.502,386.28 187.5,391C 190.257,391.782 192.757,391.282 195,389.5C 216,355.5 237,321.5 258,287.5C 258.29,280.55 255.123,278.384 248.5,281C 225.528,302.972 202.861,325.305 180.5,348C 178.833,348.667 177.167,348.667 175.5,348C 153.5,340.667 131.5,333.333 109.5,326C 104.88,324.462 101.713,325.962 100,330.5C 92.6667,352.5 85.3333,374.5 78,396.5C 65.1481,402.841 51.9814,408.508 38.5,413.5C 38.1077,411.821 37.6077,410.154 37,408.5C 36.1683,356.665 36.3349,304.998 37.5,253.5C 38.2899,254.794 39.2899,255.961 40.5,257C 55.1667,257.667 69.8333,257.667 84.5,257C 85.9308,256.535 87.0975,255.701 88,254.5C 88.6667,239.5 88.6667,224.5 88,209.5C 87.5,208.333 86.6667,207.5 85.5,207C 70.5,206.333 55.5,206.333 40.5,207C 38.9443,207.72 37.9443,208.887 37.5,210.5C 36.341,199.674 36.1743,188.674 37,177.5C 38.2446,174.676 39.7446,172.009 41.5,169.5C 98.8343,169.667 156.168,169.5 213.5,169C 216.023,167.64 218.023,165.807 219.5,163.5C 225.842,163.666 232.175,163.5 238.5,163C 250.961,147.894 263.295,132.728 275.5,117.5 Z"/></g>
<g><path style="opacity:1" fill="#5a4b39" d="M 450.5,129.5 C 451.832,198.668 451.832,268.001 450.5,337.5C 449.893,337.376 449.56,337.043 449.5,336.5C 450.499,267.669 450.833,198.669 450.5,129.5 Z"/></g>
<g><path style="opacity:1" fill="#e2a66e" d="M 41.5,169.5 C 39.7446,172.009 38.2446,174.676 37,177.5C 36.1743,188.674 36.341,199.674 37.5,210.5C 37.5,224.833 37.5,239.167 37.5,253.5C 36.3349,304.998 36.1683,356.665 37,408.5C 37.6077,410.154 38.1077,411.821 38.5,413.5C 34.1332,416.996 29.1332,418.163 23.5,417C 19.9421,415.108 17.4421,412.275 16,408.5C 15.3333,331.833 15.3333,255.167 16,178.5C 17.5,174.333 20.3333,171.5 24.5,170C 30.1569,169.501 35.8236,169.334 41.5,169.5 Z"/></g>
<g><path style="opacity:1" fill="#272323" d="M 37.5,253.5 C 37.5,239.167 37.5,224.833 37.5,210.5C 37.9443,208.887 38.9443,207.72 40.5,207C 55.5,206.333 70.5,206.333 85.5,207C 86.6667,207.5 87.5,208.333 88,209.5C 88.6667,224.5 88.6667,239.5 88,254.5C 87.0975,255.701 85.9308,256.535 84.5,257C 69.8333,257.667 55.1667,257.667 40.5,257C 39.2899,255.961 38.2899,254.794 37.5,253.5 Z"/></g>
<g><path style="opacity:1" fill="#2a2624" d="M 116.5,206.5 C 158.835,206.333 201.168,206.5 243.5,207C 246.825,209.635 247.325,212.802 245,216.5C 244.25,217.126 243.416,217.626 242.5,218C 200.833,218.667 159.167,218.667 117.5,218C 112.624,214.479 112.29,210.646 116.5,206.5 Z"/></g>
<g><path style="opacity:1" fill="#fc7a6d" d="M 49.5,218.5 C 58.5,218.5 67.5,218.5 76.5,218.5C 76.5,227.5 76.5,236.5 76.5,245.5C 67.5,245.5 58.5,245.5 49.5,245.5C 49.5,236.5 49.5,227.5 49.5,218.5 Z"/></g>
<g><path style="opacity:1" fill="#f8d31b" d="M 368.5,228.5 C 328.522,297.336 288.689,366.336 249,435.5C 245.949,447.313 248.783,457.313 257.5,465.5C 242.527,468.922 232.361,463.588 227,449.5C 226.209,445.074 226.543,440.741 228,436.5C 266.414,369.337 305.081,302.337 344,235.5C 350.618,227.772 358.785,225.439 368.5,228.5 Z"/></g>
<g><path style="opacity:1" fill="#fee44d" d="M 368.5,228.5 C 373.399,230.562 377.232,233.896 380,238.5C 417.333,303.167 454.667,367.833 492,432.5C 498.497,447.009 494.664,457.842 480.5,465C 406.167,465.5 331.834,465.667 257.5,465.5C 248.783,457.313 245.949,447.313 249,435.5C 288.689,366.336 328.522,297.336 368.5,228.5 Z"/></g>
<g><path style="opacity:1" fill="#252222" d="M 117.5,245.5 C 159.168,245.333 200.835,245.5 242.5,246C 247.414,249.171 247.747,252.837 243.5,257C 201.5,257.667 159.5,257.667 117.5,257C 112.248,253.173 112.248,249.34 117.5,245.5 Z"/></g>
<g><path style="opacity:1" fill="#272423" d="M 354.5,274.5 C 359.179,274.334 363.845,274.501 368.5,275C 373.573,276.406 377.073,279.572 379,284.5C 380.899,289.642 381.733,294.975 381.5,300.5C 380.081,325.636 377.581,350.636 374,375.5C 372.032,382.493 367.366,385.826 360,385.5C 351.869,385.04 347.203,380.707 346,372.5C 343.855,348.031 342.021,323.531 340.5,299C 339.919,287.643 344.586,279.477 354.5,274.5 Z"/></g>
<g><path style="opacity:1" fill="#f8786c" d="M 358.5,285.5 C 364.326,284.489 367.826,286.822 369,292.5C 368.443,319.637 366.276,346.637 362.5,373.5C 358.336,373.228 356.503,370.894 357,366.5C 354.912,341.523 353.579,316.523 353,291.5C 354.36,288.977 356.193,286.977 358.5,285.5 Z"/></g>
<g><path style="opacity:1" fill="#272422" d="M 354.5,397.5 C 374.802,396.296 383.302,405.629 380,425.5C 374.482,435.672 365.982,439.505 354.5,437C 342.344,431.519 338.177,422.352 342,409.5C 344.744,403.921 348.911,399.921 354.5,397.5 Z"/></g>
<g><path style="opacity:1" fill="#f7776b" d="M 356.5,409.5 C 365.658,407.835 369.825,411.501 369,420.5C 368.215,422.286 367.049,423.786 365.5,425C 356.39,427.216 352.223,423.716 353,414.5C 353.997,412.677 355.164,411.01 356.5,409.5 Z"/></g>
<g><path style="opacity:1" fill="#b69060" d="M 123.5,415.5 C 156.817,417.493 190.483,418.16 224.5,417.5C 190.671,418.498 156.671,418.832 122.5,418.5C 122.263,417.209 122.596,416.209 123.5,415.5 Z"/></g>
</svg>
