<?xml version="1.0" encoding="UTF-8"?>
<!DOCTYPE svg PUBLIC "-//W3C//DTD SVG 1.1//EN" "http://www.w3.org/Graphics/SVG/1.1/DTD/svg11.dtd">
<svg xmlns="http://www.w3.org/2000/svg" version="1.1" width="512px" height="512px" style="shape-rendering:geometricPrecision; text-rendering:geometricPrecision; image-rendering:optimizeQuality; fill-rule:evenodd; clip-rule:evenodd" xmlns:xlink="http://www.w3.org/1999/xlink">
<g><path style="opacity:0.939" fill="#000001" d="M 323.5,15.5 C 328.836,15.2509 333.836,16.4175 338.5,19C 353.333,34.5 368.167,50 383,65.5C 383.667,68.1667 383.667,70.8333 383,73.5C 370.871,85.3495 367.538,99.3495 373,115.5C 383.187,134.456 398.687,140.956 419.5,135C 424.506,132.499 429.173,129.499 433.5,126C 436.783,125.257 439.783,125.924 442.5,128C 454.667,140.833 466.833,153.667 479,166.5C 487.063,174.877 488.396,184.211 483,194.5C 475.803,202.031 468.303,209.198 460.5,216C 467.911,216.108 475.245,216.775 482.5,218C 488.061,220.562 491.894,224.728 494,230.5C 495.63,256.451 495.963,282.451 495,308.5C 494.167,310.667 492.667,312.167 490.5,313C 462.931,314.739 447.598,329.239 444.5,356.5C 445.491,377.316 455.824,391.149 475.5,398C 480.104,399.061 484.771,399.727 489.5,400C 492.333,400.833 494.167,402.667 495,405.5C 495.667,429.167 495.667,452.833 495,476.5C 492.833,486.667 486.667,492.833 476.5,495C 329.167,495.667 181.833,495.667 34.5,495C 24.3333,492.833 18.1667,486.667 16,476.5C 15.3333,452.833 15.3333,429.167 16,405.5C 16.8333,402.667 18.6667,400.833 21.5,400C 40.8027,399.605 54.636,390.772 63,373.5C 70.9387,346.968 62.4387,327.801 37.5,316C 31.9246,314.485 26.2579,313.485 20.5,313C 18.3333,312.167 16.8333,310.667 16,308.5C 15.3333,283.833 15.3333,259.167 16,234.5C 17.6475,225.521 22.8142,219.687 31.5,217C 56.8333,216.667 82.1667,216.333 107.5,216C 177.136,150.699 246.469,85.0322 315.5,19C 318.158,17.522 320.825,16.3554 323.5,15.5 Z M 36.5,231.5 C 150.5,231.5 264.5,231.5 378.5,231.5C 378.334,236.511 378.501,241.511 379,246.5C 380.393,249.366 382.726,250.699 386,250.5C 389.274,250.699 391.607,249.366 393,246.5C 393.499,241.511 393.666,236.511 393.5,231.5C 420.502,231.333 447.502,231.5 474.5,232C 476.286,232.785 477.786,233.951 479,235.5C 479.833,256.508 479.666,277.508 478.5,298.5C 443.016,307.831 426.849,330.831 430,367.5C 435.993,394.329 452.493,409.996 479.5,414.5C 479.667,434.836 479.5,455.169 479,475.5C 478.626,476.416 478.126,477.25 477.5,478C 449.588,479.483 421.588,479.983 393.5,479.5C 393.666,474.821 393.499,470.155 393,465.5C 388.333,460.167 383.667,460.167 379,465.5C 378.501,470.155 378.334,474.821 378.5,479.5C 264.166,479.667 149.833,479.5 35.5,479C 33.6667,478.5 32.5,477.333 32,475.5C 31.5,455.169 31.3334,434.836 31.5,414.5C 58.5065,409.996 75.0065,394.329 81,367.5C 84.1511,330.831 67.9845,307.831 32.5,298.5C 31.3336,277.508 31.1669,256.508 32,235.5C 33.3968,233.93 34.8968,232.596 36.5,231.5 Z"/></g>
<g><path style="opacity:1" fill="#c282fd" d="M 325.5,30.5 C 326.873,30.3433 328.207,30.51 329.5,31C 341.833,44 354.167,57 366.5,70C 355.012,84.7653 352.345,101.099 358.5,119C 364.128,133.961 374.461,144.295 389.5,150C 405.827,154.633 421.16,152.466 435.5,143.5C 447.488,155.655 459.321,167.989 471,180.5C 471.635,182.635 471.301,184.635 470,186.5C 459.5,196.333 449,206.167 438.5,216C 426.819,216.833 415.152,216.666 403.5,215.5C 398.348,209.848 393.015,204.348 387.5,199C 378.738,196.09 375.238,199.256 377,208.5C 379.5,211 382,213.5 384.5,216C 299.5,216.667 214.5,216.667 129.5,216C 174.136,174.366 218.469,132.366 262.5,90C 263.167,89.3333 263.833,89.3333 264.5,90C 266.871,92.706 269.537,95.0394 272.5,97C 280.333,98.5 283.5,95.3333 282,87.5C 279.872,84.3699 277.372,81.5366 274.5,79C 291.396,62.6015 308.396,46.4348 325.5,30.5 Z"/></g>
<g><path style="opacity:1" fill="#040306" d="M 291.5,103.5 C 293.989,103.298 296.323,103.798 298.5,105C 307.031,113.197 315.198,121.697 323,130.5C 324.955,138.791 321.788,142.291 313.5,141C 304.969,132.803 296.802,124.303 289,115.5C 286.511,110.757 287.345,106.757 291.5,103.5 Z"/></g>
<g><path style="opacity:1" fill="#060408" d="M 336.5,150.5 C 338.927,150.523 341.26,151.023 343.5,152C 350.635,160.136 358.135,167.97 366,175.5C 370.243,182.352 368.409,186.685 360.5,188.5C 359.062,188.281 357.729,187.781 356.5,187C 349.365,178.864 341.865,171.03 334,163.5C 330.28,158.265 331.114,153.932 336.5,150.5 Z"/></g>
<g><path style="opacity:0.955" fill="#020100" d="M 219.5,259.5 C 228.857,257.899 237.023,260.233 244,266.5C 251.549,279.762 258.715,293.262 265.5,307C 267.087,307.862 268.754,308.529 270.5,309C 284.278,310.777 297.945,313.111 311.5,316C 325.714,324.984 329.214,337.151 322,352.5C 312.387,362.113 302.721,371.779 293,381.5C 292.333,382.833 291.667,384.167 291,385.5C 292.705,399.198 294.871,412.865 297.5,426.5C 294.189,447.655 282.189,455.488 261.5,450C 249.944,443.472 238.111,437.638 226,432.5C 224.833,432.667 223.667,432.833 222.5,433C 211.5,438.667 200.5,444.333 189.5,450C 174.401,455.081 163.234,450.581 156,436.5C 155.082,433.402 154.582,430.235 154.5,427C 156.831,412.856 158.664,398.689 160,384.5C 150.724,374.223 141.058,364.223 131,354.5C 123.118,342.384 123.951,330.884 133.5,320C 136.339,318.08 139.339,316.413 142.5,315C 155.484,312.907 168.484,310.907 181.5,309C 184.102,308.117 186.269,306.617 188,304.5C 193.473,292.221 199.473,280.221 206,268.5C 209.86,264.335 214.36,261.335 219.5,259.5 Z"/></g>
<g><path style="opacity:0.935" fill="#000000" d="M 383.5,267.5 C 387.426,267.047 390.592,268.38 393,271.5C 393.667,284.833 393.667,298.167 393,311.5C 388.333,316.833 383.667,316.833 379,311.5C 378.333,298.167 378.333,284.833 379,271.5C 380.397,269.93 381.897,268.596 383.5,267.5 Z"/></g>
<g><path style="opacity:1" fill="#fb8c64" d="M 221.5,274.5 C 226.447,273.628 230.613,274.961 234,278.5C 240,290.5 246,302.5 252,314.5C 256.043,318.877 260.876,322.044 266.5,324C 278.835,325.667 291.168,327.334 303.5,329C 310.482,332.213 312.315,337.38 309,344.5C 299.333,354.167 289.667,363.833 280,373.5C 277.296,377.611 275.796,382.111 275.5,387C 278.041,399.58 280.041,412.247 281.5,425C 282.135,433.699 278.135,437.699 269.5,437C 257.99,430.745 246.323,424.745 234.5,419C 229.254,417.494 223.921,417.161 218.5,418C 206.323,424.589 193.99,430.922 181.5,437C 172.21,436.696 168.377,431.862 170,422.5C 171.558,412.15 173.225,401.816 175,391.5C 176.712,383.971 175.045,377.304 170,371.5C 161.304,362.469 152.304,353.803 143,345.5C 138.708,338.415 140.208,332.915 147.5,329C 159.14,327.147 170.807,325.48 182.5,324C 187.651,323.09 192.318,321.09 196.5,318C 204.303,304.896 211.47,291.396 218,277.5C 219.145,276.364 220.312,275.364 221.5,274.5 Z"/></g>
<g><path style="opacity:0.939" fill="#000000" d="M 382.5,332.5 C 384.857,332.337 387.19,332.503 389.5,333C 391.333,333.5 392.5,334.667 393,336.5C 393.667,349.5 393.667,362.5 393,375.5C 391.607,378.366 389.274,379.699 386,379.5C 382.726,379.699 380.393,378.366 379,375.5C 378.333,362.5 378.333,349.5 379,336.5C 379.69,334.65 380.856,333.316 382.5,332.5 Z"/></g>
<g><path style="opacity:0.936" fill="#000000" d="M 383.5,396.5 C 387.426,396.047 390.592,397.38 393,400.5C 393.667,413.833 393.667,427.167 393,440.5C 388.333,445.833 383.667,445.833 379,440.5C 378.333,427.5 378.333,414.5 379,401.5C 380.025,399.313 381.525,397.646 383.5,396.5 Z"/></g>
</svg>
