<?xml version="1.0" encoding="UTF-8"?>
<!DOCTYPE svg PUBLIC "-//W3C//DTD SVG 1.1//EN" "http://www.w3.org/Graphics/SVG/1.1/DTD/svg11.dtd">
<svg xmlns="http://www.w3.org/2000/svg" version="1.1" width="512px" height="512px" style="shape-rendering:geometricPrecision; text-rendering:geometricPrecision; image-rendering:optimizeQuality; fill-rule:evenodd; clip-rule:evenodd" xmlns:xlink="http://www.w3.org/1999/xlink">
<g><path style="opacity:0.989" fill="#2c1606" d="M 511.5,159.5 C 511.5,260.5 511.5,361.5 511.5,462.5C 505.372,485.123 490.705,498.623 467.5,503C 326.167,503.667 184.833,503.667 43.5,503C 20.295,498.623 5.62833,485.123 -0.5,462.5C -0.5,319.167 -0.5,175.833 -0.5,32.5C 4.16032,19.6781 13.1603,11.5114 26.5,8C 83.8333,7.33333 141.167,7.33333 198.5,8C 200.081,8.70653 201.581,9.53986 203,10.5C 216.375,32.0842 229.875,53.5842 243.5,75C 295.167,75.3333 346.833,75.6667 398.5,76C 422.823,79.9887 437.823,93.9887 443.5,118C 461.744,115.911 478.41,119.911 493.5,130C 502.219,138.289 508.219,148.123 511.5,159.5 Z"/></g>
<g><path style="opacity:1" fill="#fec146" d="M 227.5,84.5 C 163.832,84.3333 100.166,84.5 36.5,85C 29.2232,86.4737 22.5565,89.3071 16.5,93.5C 16.3334,74.4971 16.5001,55.4971 17,36.5C 18.7735,31.7271 21.9402,28.2271 26.5,26C 81.5,25.3333 136.5,25.3333 191.5,26C 203.898,45.305 215.898,64.805 227.5,84.5 Z"/></g>
<g><path style="opacity:1" fill="#fea426" d="M 227.5,84.5 C 229.821,87.629 232.488,90.4623 235.5,93C 289.5,93.3333 343.5,93.6667 397.5,94C 411.272,95.9504 420.272,103.45 424.5,116.5C 298.003,118.166 171.337,119.166 44.5,119.5C 34.2698,120.796 25.2698,124.796 17.5,131.5C 16.5009,118.851 16.1676,106.184 16.5,93.5C 22.5565,89.3071 29.2232,86.4737 36.5,85C 100.166,84.5 163.832,84.3333 227.5,84.5 Z"/></g>
<g><path style="opacity:1" fill="#8e5815" d="M 424.5,116.5 C 425.404,117.209 425.737,118.209 425.5,119.5C 298.5,119.5 171.5,119.5 44.5,119.5C 171.337,119.166 298.003,118.166 424.5,116.5 Z"/></g>
<g><path style="opacity:1" fill="#f6e8a9" d="M 464.5,136.5 C 382.833,136.5 301.167,136.5 219.5,136.5C 191.165,136.333 162.831,136.5 134.5,137C 105.49,152.836 79.8231,173.002 57.5,197.5C 47.5549,193.625 42.7216,196.959 43,207.5C 43.6622,208.984 44.4955,210.317 45.5,211.5C 34.6255,225.037 24.9588,239.37 16.5,254.5C 16.3334,223.832 16.5,193.165 17,162.5C 20.7643,149.736 28.931,141.236 41.5,137C 112.798,135.841 184.131,135.341 255.5,135.5C 325.334,135.5 395.001,135.833 464.5,136.5 Z"/></g>
<g><path style="opacity:1" fill="#fee779" d="M 219.5,136.5 C 184.85,156.183 154.85,181.516 129.5,212.5C 121.177,212.765 117.844,217.098 119.5,225.5C 111.407,238.014 104.074,251.014 97.5,264.5C 94.8158,266.871 93.4825,269.871 93.5,273.5C 86.8393,286.839 81.8393,300.839 78.5,315.5C 71.0647,315.435 67.5647,319.102 68,326.5C 69.3597,329.023 71.193,331.023 73.5,332.5C 72.7451,338.873 71.7451,345.206 70.5,351.5C 67.5218,354.726 66.8551,358.392 68.5,362.5C 67.8929,371.487 67.5596,380.487 67.5,389.5C 67.5,391.167 67.5,392.833 67.5,394.5C 67.5596,403.513 67.8929,412.513 68.5,421.5C 66.8551,425.608 67.5218,429.274 70.5,432.5C 73.0211,450.639 77.3544,468.306 83.5,485.5C 69.496,485.667 55.496,485.5 41.5,485C 27.1428,480.309 18.9761,470.476 17,455.5C 16.5,388.501 16.3333,321.501 16.5,254.5C 24.9588,239.37 34.6255,225.037 45.5,211.5C 53.0832,214.413 57.7498,211.913 59.5,204C 58.9671,201.774 58.3004,199.607 57.5,197.5C 79.8231,173.002 105.49,152.836 134.5,137C 162.831,136.5 191.165,136.333 219.5,136.5 Z"/></g>
<g><path style="opacity:1" fill="#fee35b" d="M 219.5,136.5 C 301.167,136.5 382.833,136.5 464.5,136.5C 479.754,138.916 489.587,147.582 494,162.5C 494.667,260.167 494.667,357.833 494,455.5C 491.927,470.905 483.427,480.739 468.5,485C 340.167,485.5 211.834,485.667 83.5,485.5C 77.3544,468.306 73.0211,450.639 70.5,432.5C 80.4021,436.624 84.9021,433.291 84,422.5C 79.2338,416.315 74.0671,415.982 68.5,421.5C 67.8929,412.513 67.5596,403.513 67.5,394.5C 71.5055,401.193 76.6722,402.193 83,397.5C 86.3623,386.532 82.5289,382.365 71.5,385C 69.9297,386.397 68.5964,387.897 67.5,389.5C 67.5596,380.487 67.8929,371.487 68.5,362.5C 74.0671,368.018 79.2338,367.685 84,361.5C 84.9021,350.709 80.4021,347.376 70.5,351.5C 71.7451,345.206 72.7451,338.873 73.5,332.5C 81.8652,332.64 85.3652,328.64 84,320.5C 82.9455,317.944 81.1122,316.277 78.5,315.5C 81.8393,300.839 86.8393,286.839 93.5,273.5C 95.3821,280.142 99.7154,282.308 106.5,280C 112.158,274.474 111.825,269.474 105.5,265C 102.854,264.503 100.187,264.336 97.5,264.5C 104.074,251.014 111.407,238.014 119.5,225.5C 124.668,230.792 129.835,230.792 135,225.5C 136.898,219.387 135.065,215.053 129.5,212.5C 154.85,181.516 184.85,156.183 219.5,136.5 Z"/></g>
<g><path style="opacity:1" fill="#ffe89c" d="M 47.5,161.5 C 56.8741,161.357 60.3741,165.69 58,174.5C 52.5135,180.08 47.5135,179.747 43,173.5C 41.4742,168.239 42.9742,164.239 47.5,161.5 Z"/></g>
<g><path style="opacity:1" fill="#ffc347" d="M 201.5,161.5 C 210.207,161.037 213.707,165.037 212,173.5C 209.459,178.069 205.625,179.569 200.5,178C 193.671,172.003 194.004,166.503 201.5,161.5 Z"/></g>
<g><path style="opacity:1" fill="#ffc247" d="M 252.5,161.5 C 261.649,161.156 265.149,165.49 263,174.5C 257.924,179.756 252.924,179.756 248,174.5C 246.379,168.923 247.879,164.589 252.5,161.5 Z"/></g>
<g><path style="opacity:1" fill="#ffc347" d="M 303.5,161.5 C 311.498,161 315.331,164.667 315,172.5C 312.89,177.945 309.056,179.778 303.5,178C 298.931,175.459 297.431,171.625 299,166.5C 300.193,164.503 301.693,162.836 303.5,161.5 Z"/></g>
<g><path style="opacity:1" fill="#ffc347" d="M 355.5,161.5 C 363.472,161.636 366.972,165.636 366,173.5C 363.413,178.068 359.579,179.568 354.5,178C 349.931,175.459 348.431,171.625 350,166.5C 351.73,164.598 353.563,162.931 355.5,161.5 Z"/></g>
<g><path style="opacity:1" fill="#ffc247" d="M 406.5,161.5 C 414.523,161.683 418.023,165.683 417,173.5C 414.459,178.069 410.625,179.569 405.5,178C 398.657,172.052 398.991,166.552 406.5,161.5 Z"/></g>
<g><path style="opacity:1" fill="#ffc347" d="M 457.5,161.5 C 466.207,161.037 469.707,165.037 468,173.5C 465.459,178.069 461.625,179.569 456.5,178C 449.671,172.003 450.004,166.503 457.5,161.5 Z"/></g>
<g><path style="opacity:1" fill="#ffc347" d="M 175.5,178.5 C 183.498,178 187.331,181.667 187,189.5C 184.89,194.945 181.056,196.778 175.5,195C 170.931,192.459 169.431,188.625 171,183.5C 172.193,181.503 173.693,179.836 175.5,178.5 Z"/></g>
<g><path style="opacity:1" fill="#ffc347" d="M 329.5,178.5 C 338.207,178.037 341.707,182.037 340,190.5C 337.459,195.069 333.625,196.569 328.5,195C 321.671,189.003 322.004,183.503 329.5,178.5 Z"/></g>
<g><path style="opacity:1" fill="#ffc247" d="M 380.5,178.5 C 389.649,178.156 393.149,182.49 391,191.5C 386,196.833 381,196.833 376,191.5C 374.379,185.923 375.879,181.589 380.5,178.5 Z"/></g>
<g><path style="opacity:1" fill="#ffc347" d="M 431.5,178.5 C 439.498,178 443.331,181.667 443,189.5C 440.89,194.945 437.056,196.778 431.5,195C 426.931,192.459 425.431,188.625 427,183.5C 428.193,181.503 429.693,179.836 431.5,178.5 Z"/></g>
<g><path style="opacity:1" fill="#2d1606" d="M 239.5,187.5 C 299.474,184.052 341.974,209.385 367,263.5C 382.935,312.437 373.435,355.603 338.5,393C 301.038,425.425 258.704,433.759 211.5,418C 157.373,392.461 132.54,349.627 137,289.5C 145.52,244.652 170.687,213.152 212.5,195C 221.575,192.295 230.575,189.795 239.5,187.5 Z"/></g>
<g><path style="opacity:1" fill="#ffe89b" d="M 57.5,197.5 C 58.3004,199.607 58.9671,201.774 59.5,204C 57.7498,211.913 53.0832,214.413 45.5,211.5C 44.4955,210.317 43.6622,208.984 43,207.5C 42.7216,196.959 47.5549,193.625 57.5,197.5 Z"/></g>
<g><path style="opacity:1" fill="#ffc347" d="M 150.5,195.5 C 158.523,195.683 162.023,199.683 161,207.5C 158.459,212.069 154.625,213.569 149.5,212C 142.632,206.144 142.965,200.644 150.5,195.5 Z"/></g>
<g><path style="opacity:1" fill="#ffc347" d="M 355.5,195.5 C 362.985,195.483 366.485,199.15 366,206.5C 363.983,211.924 360.15,213.758 354.5,212C 349.931,209.459 348.431,205.625 350,200.5C 351.73,198.598 353.563,196.931 355.5,195.5 Z"/></g>
<g><path style="opacity:1" fill="#ffc347" d="M 406.5,195.5 C 414.523,195.683 418.023,199.683 417,207.5C 414.459,212.069 410.625,213.569 405.5,212C 398.632,206.144 398.965,200.644 406.5,195.5 Z"/></g>
<g><path style="opacity:1" fill="#ffc347" d="M 457.5,195.5 C 465.523,195.683 469.023,199.683 468,207.5C 465.459,212.069 461.625,213.569 456.5,212C 449.657,206.052 449.991,200.552 457.5,195.5 Z"/></g>
<g><path style="opacity:1" fill="#fd626d" d="M 241.5,204.5 C 282.488,201.42 315.322,216.086 340,248.5C 359.826,280.227 362.826,313.56 349,348.5C 329.465,387.45 297.798,407.783 254,409.5C 210.563,406.71 179.563,385.71 161,346.5C 143.358,294.534 156.525,252.368 200.5,220C 213.328,212.339 226.995,207.172 241.5,204.5 Z"/></g>
<g><path style="opacity:1" fill="#ffc348" d="M 129.5,212.5 C 135.065,215.053 136.898,219.387 135,225.5C 129.835,230.792 124.668,230.792 119.5,225.5C 117.844,217.098 121.177,212.765 129.5,212.5 Z"/></g>
<g><path style="opacity:1" fill="#ffc247" d="M 381.5,212.5 C 390.008,212.833 393.175,217.166 391,225.5C 386,230.833 381,230.833 376,225.5C 374.102,219.387 375.935,215.053 381.5,212.5 Z"/></g>
<g><path style="opacity:1" fill="#ffc347" d="M 432.5,212.5 C 439.985,212.483 443.485,216.15 443,223.5C 440.646,229.095 436.479,230.928 430.5,229C 424.725,222.701 425.392,217.201 432.5,212.5 Z"/></g>
<g><path style="opacity:1" fill="#2e1608" d="M 247.5,230.5 C 264.381,227.849 275.548,234.516 281,250.5C 281.919,266.213 281.586,281.879 280,297.5C 274.393,310.389 264.559,316.223 250.5,315C 239.23,312.063 232.397,304.897 230,293.5C 229.333,279.167 229.333,264.833 230,250.5C 232.525,240.816 238.358,234.15 247.5,230.5 Z"/></g>
<g><path style="opacity:1" fill="#ffc247" d="M 404.5,230.5 C 413.656,228.832 417.823,232.499 417,241.5C 415.471,244.934 412.804,246.6 409,246.5C 403.517,246.35 400.683,243.517 400.5,238C 400.927,234.977 402.261,232.477 404.5,230.5 Z"/></g>
<g><path style="opacity:1" fill="#ffc347" d="M 458.5,229.5 C 469.324,231.739 471.324,237.239 464.5,246C 455.389,248.21 451.223,244.71 452,235.5C 453.494,232.686 455.66,230.686 458.5,229.5 Z"/></g>
<g><path style="opacity:1" fill="#e7eaef" d="M 251.5,247.5 C 257.489,246.065 261.655,248.065 264,253.5C 264.667,266.167 264.667,278.833 264,291.5C 260.752,298.383 255.919,299.883 249.5,296C 248.54,294.581 247.707,293.081 247,291.5C 246.333,278.833 246.333,266.167 247,253.5C 247.804,250.854 249.304,248.854 251.5,247.5 Z"/></g>
<g><path style="opacity:1" fill="#ffc247" d="M 430.5,247.5 C 437.389,245.935 441.722,248.435 443.5,255C 442.246,262.467 437.912,265.134 430.5,263C 425.208,257.835 425.208,252.668 430.5,247.5 Z"/></g>
<g><path style="opacity:1" fill="#ffc247" d="M 97.5,264.5 C 100.187,264.336 102.854,264.503 105.5,265C 111.825,269.474 112.158,274.474 106.5,280C 99.7154,282.308 95.3821,280.142 93.5,273.5C 93.4825,269.871 94.8158,266.871 97.5,264.5 Z"/></g>
<g><path style="opacity:1" fill="#ffc247" d="M 405.5,264.5 C 414.161,263.329 417.994,266.996 417,275.5C 416.215,277.286 415.049,278.786 413.5,280C 404.407,282.235 400.24,278.735 401,269.5C 402.025,267.313 403.525,265.646 405.5,264.5 Z"/></g>
<g><path style="opacity:1" fill="#ffc247" d="M 456.5,264.5 C 465.657,263.489 469.49,267.489 468,276.5C 465.045,280.277 461.212,281.443 456.5,280C 449.888,274.836 449.888,269.67 456.5,264.5 Z"/></g>
<g><path style="opacity:1" fill="#ffc347" d="M 430.5,281.5 C 439.259,280.261 443.426,283.928 443,292.5C 438.175,300.061 432.841,300.394 427,293.5C 425.593,288.643 426.76,284.643 430.5,281.5 Z"/></g>
<g><path style="opacity:1" fill="#ffc347" d="M 98.5,298.5 C 108.211,297.947 111.711,302.28 109,311.5C 103.186,317.205 98.1857,316.538 94,309.5C 92.7758,304.626 94.2758,300.959 98.5,298.5 Z"/></g>
<g><path style="opacity:1" fill="#ffc347" d="M 405.5,298.5 C 414.161,297.329 417.994,300.996 417,309.5C 412.814,316.538 407.814,317.205 402,311.5C 399.325,306.011 400.492,301.678 405.5,298.5 Z"/></g>
<g><path style="opacity:1" fill="#ffc347" d="M 456.5,298.5 C 465.658,297.491 469.492,301.491 468,310.5C 462.159,317.394 456.825,317.061 452,309.5C 451.333,307.833 451.333,306.167 452,304.5C 453.332,302.34 454.832,300.34 456.5,298.5 Z"/></g>
<g><path style="opacity:1" fill="#ffc348" d="M 78.5,315.5 C 81.1122,316.277 82.9455,317.944 84,320.5C 85.3652,328.64 81.8652,332.64 73.5,332.5C 71.193,331.023 69.3597,329.023 68,326.5C 67.5647,319.102 71.0647,315.435 78.5,315.5 Z"/></g>
<g><path style="opacity:1" fill="#ffc347" d="M 431.5,315.5 C 440.817,315.306 444.317,319.64 442,328.5C 436.561,334.091 431.561,333.758 427,327.5C 425.474,322.239 426.974,318.239 431.5,315.5 Z"/></g>
<g><path style="opacity:1" fill="#ffc347" d="M 98.5,332.5 C 108.198,332.019 111.698,336.353 109,345.5C 103.608,351.102 98.6082,350.768 94,344.5C 92.4742,339.239 93.9742,335.239 98.5,332.5 Z"/></g>
<g><path style="opacity:1" fill="#2d1607" d="M 250.5,332.5 C 272.483,332.649 282.316,343.649 280,365.5C 272.081,382.14 259.581,386.973 242.5,380C 230.41,371.051 227.243,359.551 233,345.5C 237.049,338.599 242.882,334.266 250.5,332.5 Z"/></g>
<g><path style="opacity:1" fill="#ffc347" d="M 405.5,332.5 C 414.658,331.491 418.492,335.491 417,344.5C 412.306,350.645 407.306,350.979 402,345.5C 399.319,340.055 400.485,335.722 405.5,332.5 Z"/></g>
<g><path style="opacity:1" fill="#ffc347" d="M 457.5,332.5 C 466.153,331.987 469.653,335.987 468,344.5C 462.257,351.421 456.924,351.088 452,343.5C 451.176,338.482 453.009,334.815 457.5,332.5 Z"/></g>
<g><path style="opacity:1" fill="#ffc348" d="M 68.5,362.5 C 66.8551,358.392 67.5218,354.726 70.5,351.5C 80.4021,347.376 84.9021,350.709 84,361.5C 79.2338,367.685 74.0671,368.018 68.5,362.5 Z"/></g>
<g><path style="opacity:1" fill="#ecf0f5" d="M 251.5,349.5 C 263.635,349.456 266.635,354.623 260.5,365C 250.393,367.899 246.227,364.065 248,353.5C 249.376,352.295 250.542,350.962 251.5,349.5 Z"/></g>
<g><path style="opacity:1" fill="#ffc347" d="M 431.5,349.5 C 439.498,349 443.331,352.667 443,360.5C 439.025,366.895 434.025,367.895 428,363.5C 425.267,357.722 426.434,353.056 431.5,349.5 Z"/></g>
<g><path style="opacity:1" fill="#ffc247" d="M 98.5,366.5 C 106.058,365.904 109.891,369.237 110,376.5C 108.137,382.02 104.304,384.186 98.5,383C 91.8805,377.502 91.8805,372.002 98.5,366.5 Z"/></g>
<g><path style="opacity:1" fill="#ffc247" d="M 405.5,366.5 C 415.79,366.445 419.123,371.112 415.5,380.5C 410.59,384.817 406.09,384.483 402,379.5C 400.75,376.923 400.416,374.257 401,371.5C 402.707,369.963 404.207,368.296 405.5,366.5 Z"/></g>
<g><path style="opacity:1" fill="#ffc347" d="M 456.5,366.5 C 463.572,365.319 467.572,368.153 468.5,375C 468.35,380.483 465.517,383.317 460,383.5C 450.202,379.68 449.036,374.013 456.5,366.5 Z"/></g>
<g><path style="opacity:1" fill="#ffc347" d="M 67.5,394.5 C 67.5,392.833 67.5,391.167 67.5,389.5C 68.5964,387.897 69.9297,386.397 71.5,385C 82.5289,382.365 86.3623,386.532 83,397.5C 76.6722,402.193 71.5055,401.193 67.5,394.5 Z"/></g>
<g><path style="opacity:1" fill="#ffc247" d="M 124.5,383.5 C 133.671,383.175 137.171,387.509 135,396.5C 130,401.833 125,401.833 120,396.5C 118.243,390.825 119.743,386.492 124.5,383.5 Z"/></g>
<g><path style="opacity:1" fill="#ffc247" d="M 380.5,383.5 C 389.671,383.175 393.171,387.509 391,396.5C 386,401.833 381,401.833 376,396.5C 374.243,390.825 375.743,386.492 380.5,383.5 Z"/></g>
<g><path style="opacity:1" fill="#ffc347" d="M 431.5,383.5 C 440.896,383.376 444.396,387.709 442,396.5C 436.514,402.08 431.514,401.747 427,395.5C 425.474,390.239 426.974,386.239 431.5,383.5 Z"/></g>
<g><path style="opacity:1" fill="#ffc347" d="M 99.5,400.5 C 107.472,400.636 110.972,404.636 110,412.5C 104.57,419.145 99.2364,419.145 94,412.5C 92.4856,406.877 94.3189,402.877 99.5,400.5 Z"/></g>
<g><path style="opacity:1" fill="#ffc347" d="M 150.5,400.5 C 159.905,400.984 163.072,405.65 160,414.5C 154.286,418.969 149.286,418.303 145,412.5C 143.873,407.089 145.707,403.089 150.5,400.5 Z"/></g>
<g><path style="opacity:1" fill="#ffc347" d="M 355.5,400.5 C 363.472,400.636 366.972,404.636 366,412.5C 360.57,419.145 355.236,419.145 350,412.5C 348.486,406.877 350.319,402.877 355.5,400.5 Z"/></g>
<g><path style="opacity:1" fill="#ffc347" d="M 406.5,400.5 C 415.905,400.984 419.072,405.65 416,414.5C 410.286,418.969 405.286,418.303 401,412.5C 399.873,407.089 401.707,403.089 406.5,400.5 Z"/></g>
<g><path style="opacity:1" fill="#ffc347" d="M 457.5,400.5 C 466.207,400.037 469.707,404.037 468,412.5C 465.459,417.069 461.625,418.569 456.5,417C 449.671,411.003 450.004,405.503 457.5,400.5 Z"/></g>
<g><path style="opacity:1" fill="#ffc348" d="M 70.5,432.5 C 67.5218,429.274 66.8551,425.608 68.5,421.5C 74.0671,415.982 79.2338,416.315 84,422.5C 84.9021,433.291 80.4021,436.624 70.5,432.5 Z"/></g>
<g><path style="opacity:1" fill="#ffc247" d="M 124.5,417.5 C 133.649,417.156 137.149,421.49 135,430.5C 129.924,435.756 124.924,435.756 120,430.5C 118.379,424.923 119.879,420.589 124.5,417.5 Z"/></g>
<g><path style="opacity:1" fill="#ffc347" d="M 175.5,417.5 C 183.498,417 187.331,420.667 187,428.5C 184.89,433.945 181.056,435.778 175.5,434C 170.931,431.459 169.431,427.625 171,422.5C 172.193,420.503 173.693,418.836 175.5,417.5 Z"/></g>
<g><path style="opacity:1" fill="#ffc347" d="M 329.5,417.5 C 338.207,417.037 341.707,421.037 340,429.5C 337.459,434.069 333.625,435.569 328.5,434C 321.671,428.003 322.004,422.503 329.5,417.5 Z"/></g>
<g><path style="opacity:1" fill="#ffc247" d="M 380.5,417.5 C 389.649,417.156 393.149,421.49 391,430.5C 385.924,435.756 380.924,435.756 376,430.5C 374.379,424.923 375.879,420.589 380.5,417.5 Z"/></g>
<g><path style="opacity:1" fill="#ffc347" d="M 431.5,417.5 C 439.498,417 443.331,420.667 443,428.5C 440.89,433.945 437.056,435.778 431.5,434C 426.931,431.459 425.431,427.625 427,422.5C 428.193,420.503 429.693,418.836 431.5,417.5 Z"/></g>
<g><path style="opacity:1" fill="#ffc347" d="M 99.5,434.5 C 106.985,434.483 110.485,438.15 110,445.5C 107.983,450.924 104.15,452.758 98.5,451C 93.9315,448.459 92.4315,444.625 94,439.5C 95.7297,437.598 97.563,435.931 99.5,434.5 Z"/></g>
<g><path style="opacity:1" fill="#ffc347" d="M 150.5,434.5 C 158.523,434.683 162.023,438.683 161,446.5C 158.459,451.069 154.625,452.569 149.5,451C 142.713,445.18 143.047,439.68 150.5,434.5 Z"/></g>
<g><path style="opacity:1" fill="#ffc347" d="M 201.5,434.5 C 209.865,434.36 213.365,438.36 212,446.5C 209.459,451.069 205.625,452.569 200.5,451C 193.671,445.003 194.004,439.503 201.5,434.5 Z"/></g>
<g><path style="opacity:1" fill="#ffc247" d="M 252.5,434.5 C 261.649,434.156 265.149,438.49 263,447.5C 258,452.833 253,452.833 248,447.5C 246.379,441.923 247.879,437.589 252.5,434.5 Z"/></g>
<g><path style="opacity:1" fill="#ffc347" d="M 303.5,434.5 C 311.498,434 315.331,437.667 315,445.5C 312.89,450.945 309.056,452.778 303.5,451C 298.931,448.459 297.431,444.625 299,439.5C 300.366,437.638 301.866,435.972 303.5,434.5 Z"/></g>
<g><path style="opacity:1" fill="#ffc347" d="M 355.5,434.5 C 362.985,434.483 366.485,438.15 366,445.5C 363.983,450.924 360.15,452.758 354.5,451C 349.931,448.459 348.431,444.625 350,439.5C 351.73,437.598 353.563,435.931 355.5,434.5 Z"/></g>
<g><path style="opacity:1" fill="#ffc347" d="M 406.5,434.5 C 414.523,434.683 418.023,438.683 417,446.5C 414.459,451.069 410.625,452.569 405.5,451C 398.713,445.18 399.047,439.68 406.5,434.5 Z"/></g>
<g><path style="opacity:1" fill="#ffc347" d="M 457.5,434.5 C 465.865,434.36 469.365,438.36 468,446.5C 465.459,451.069 461.625,452.569 456.5,451C 449.671,445.003 450.004,439.503 457.5,434.5 Z"/></g>
</svg>
