<?xml version="1.0" encoding="UTF-8"?>
<!DOCTYPE svg PUBLIC "-//W3C//DTD SVG 1.1//EN" "http://www.w3.org/Graphics/SVG/1.1/DTD/svg11.dtd">
<svg xmlns="http://www.w3.org/2000/svg" version="1.1" width="512px" height="512px" style="shape-rendering:geometricPrecision; text-rendering:geometricPrecision; image-rendering:optimizeQuality; fill-rule:evenodd; clip-rule:evenodd" xmlns:xlink="http://www.w3.org/1999/xlink">
<g><path style="opacity:0.981" fill="#030304" d="M 511.5,102.5 C 511.5,227.167 511.5,351.833 511.5,476.5C 340.833,476.5 170.167,476.5 -0.5,476.5C -0.5,351.833 -0.5,227.167 -0.5,102.5C 13.5,102.5 27.5,102.5 41.5,102.5C 41.3334,84.8302 41.5001,67.1635 42,49.5C 44.1667,42 49,37.1667 56.5,35C 110.5,34.3333 164.5,34.3333 218.5,35C 226.991,36.8244 232.158,41.9911 234,50.5C 234.5,67.8301 234.667,85.1635 234.5,102.5C 246.833,102.5 259.167,102.5 271.5,102.5C 271.333,86.4965 271.5,70.4965 272,54.5C 272.696,44.4688 277.862,37.9688 287.5,35C 341.5,34.3333 395.5,34.3333 449.5,35C 457.955,37.4078 463.121,42.9078 465,51.5C 465.5,68.4967 465.667,85.4967 465.5,102.5C 480.833,102.5 496.167,102.5 511.5,102.5 Z"/></g>
<g><path style="opacity:1" fill="#b2d7f4" d="M 218.5,86.5 C 209.167,86.5 199.833,86.5 190.5,86.5C 190.825,78.6484 190.492,70.9818 189.5,63.5C 184.5,63.5 179.5,63.5 174.5,63.5C 174.5,71.1667 174.5,78.8333 174.5,86.5C 135.5,86.5 96.5,86.5 57.5,86.5C 57.5,75.5 57.5,64.5 57.5,53.5C 57.4142,52.5041 57.7476,51.6708 58.5,51C 111.167,50.3333 163.833,50.3333 216.5,51C 217,51.5 217.5,52 218,52.5C 218.5,63.8284 218.667,75.1618 218.5,86.5 Z"/></g>
<g><path style="opacity:1" fill="#b2d7f4" d="M 449.5,86.5 C 440.5,86.5 431.5,86.5 422.5,86.5C 422.825,78.6484 422.492,70.9818 421.5,63.5C 416.5,63.5 411.5,63.5 406.5,63.5C 406.5,71.1667 406.5,78.8333 406.5,86.5C 367.167,86.5 327.833,86.5 288.5,86.5C 288.5,75.1667 288.5,63.8333 288.5,52.5C 288.611,51.8826 288.944,51.3826 289.5,51C 342.167,50.3333 394.833,50.3333 447.5,51C 448,51.5 448.5,52 449,52.5C 449.5,63.8284 449.667,75.1618 449.5,86.5 Z"/></g>
<g><path style="opacity:1" fill="#2d373f" d="M 421.5,63.5 C 421.5,63.8333 421.5,64.1667 421.5,64.5C 416.833,64.5 412.167,64.5 407.5,64.5C 407.829,77.3443 407.495,90.011 406.5,102.5C 406.5,97.1667 406.5,91.8333 406.5,86.5C 406.5,78.8333 406.5,71.1667 406.5,63.5C 411.5,63.5 416.5,63.5 421.5,63.5 Z"/></g>
<g><path style="opacity:1" fill="#96c6ee" d="M 57.5,86.5 C 96.5,86.5 135.5,86.5 174.5,86.5C 174.5,91.8333 174.5,97.1667 174.5,102.5C 135.5,102.5 96.5,102.5 57.5,102.5C 57.5,97.1667 57.5,91.8333 57.5,86.5 Z"/></g>
<g><path style="opacity:1" fill="#7a9cb8" d="M 189.5,63.5 C 190.492,70.9818 190.825,78.6484 190.5,86.5C 190.5,91.8333 190.5,97.1667 190.5,102.5C 199.833,102.5 209.167,102.5 218.5,102.5C 209.014,103.494 199.348,103.827 189.5,103.5C 189.5,90.1667 189.5,76.8333 189.5,63.5 Z"/></g>
<g><path style="opacity:1" fill="#97c7ee" d="M 190.5,86.5 C 199.833,86.5 209.167,86.5 218.5,86.5C 218.5,91.8333 218.5,97.1667 218.5,102.5C 209.167,102.5 199.833,102.5 190.5,102.5C 190.5,97.1667 190.5,91.8333 190.5,86.5 Z"/></g>
<g><path style="opacity:1" fill="#92c0e7" d="M 288.5,52.5 C 288.5,63.8333 288.5,75.1667 288.5,86.5C 327.833,86.5 367.167,86.5 406.5,86.5C 406.5,91.8333 406.5,97.1667 406.5,102.5C 367.004,103.499 327.337,103.832 287.5,103.5C 287.17,86.3251 287.503,69.3251 288.5,52.5 Z"/></g>
<g><path style="opacity:1" fill="#536b7e" d="M 421.5,63.5 C 422.492,70.9818 422.825,78.6484 422.5,86.5C 422.5,91.8333 422.5,97.1667 422.5,102.5C 431.5,102.5 440.5,102.5 449.5,102.5C 440.348,103.494 431.015,103.827 421.5,103.5C 421.5,90.5 421.5,77.5 421.5,64.5C 421.5,64.1667 421.5,63.8333 421.5,63.5 Z"/></g>
<g><path style="opacity:1" fill="#97c7ee" d="M 422.5,86.5 C 431.5,86.5 440.5,86.5 449.5,86.5C 449.5,91.8333 449.5,97.1667 449.5,102.5C 440.5,102.5 431.5,102.5 422.5,102.5C 422.5,97.1667 422.5,91.8333 422.5,86.5 Z"/></g>
<g><path style="opacity:1" fill="#556f84" d="M 57.5,53.5 C 57.5,64.5 57.5,75.5 57.5,86.5C 57.5,91.8333 57.5,97.1667 57.5,102.5C 96.5,102.5 135.5,102.5 174.5,102.5C 135.337,103.499 96.0035,103.832 56.5,103.5C 56.1702,86.6583 56.5035,69.9916 57.5,53.5 Z"/></g>
<g><path style="opacity:1" fill="#59a9e6" d="M 459.5,460.5 C 459.5,396.833 459.5,333.167 459.5,269.5C 454.695,268.513 449.695,268.179 444.5,268.5C 444.5,332.5 444.5,396.5 444.5,460.5C 301.167,460.5 157.833,460.5 14.5,460.5C 14.5,346.5 14.5,232.5 14.5,118.5C 175.167,118.5 335.833,118.5 496.5,118.5C 496.5,232.5 496.5,346.5 496.5,460.5C 484.167,460.5 471.833,460.5 459.5,460.5 Z"/></g>
<g><path style="opacity:1" fill="#020202" d="M 414.5,338.5 C 399.664,355.708 381.997,359.208 361.5,349C 359.04,347.542 356.873,345.709 355,343.5C 354.501,348.489 354.334,353.489 354.5,358.5C 354.5,380.5 354.5,402.5 354.5,424.5C 351.833,424.5 349.167,424.5 346.5,424.5C 320.833,424.5 295.167,424.5 269.5,424.5C 256.564,423.664 252.398,416.997 257,404.5C 259.186,400.802 261.853,397.468 265,394.5C 266.664,391.673 267.83,388.673 268.5,385.5C 270.676,367.652 262.676,357.652 244.5,355.5C 228.744,357.59 220.744,366.59 220.5,382.5C 221.146,386.798 222.646,390.798 225,394.5C 232.495,400.822 235.495,408.822 234,418.5C 230.648,422.97 226.148,424.97 220.5,424.5C 194.833,424.5 169.167,424.5 143.5,424.5C 140.833,424.5 138.167,424.5 135.5,424.5C 135.022,393.104 135.522,361.771 137,330.5C 142.6,324.389 148.766,323.889 155.5,329C 169.258,342.74 183.092,342.907 197,329.5C 199.365,325.779 200.865,321.779 201.5,317.5C 201.857,304.389 195.857,295.556 183.5,291C 179.167,290.333 174.833,290.333 170.5,291C 163.92,294.574 157.587,298.574 151.5,303C 148.607,304.149 145.607,304.649 142.5,304.5C 140.167,304.5 137.833,304.5 135.5,304.5C 135.5,271.5 135.5,238.5 135.5,205.5C 162.502,205.667 189.502,205.5 216.5,205C 205.217,192.628 202.384,178.461 208,162.5C 220.933,139.299 239.767,132.799 264.5,143C 282.203,154.77 288.037,170.937 282,191.5C 280.042,196.59 277.208,201.09 273.5,205C 300.498,205.5 327.498,205.667 354.5,205.5C 354.167,232.175 354.5,258.842 355.5,285.5C 372.437,272.693 389.77,272.193 407.5,284C 423.535,300.324 425.868,318.491 414.5,338.5 Z"/></g>
<g><path style="opacity:1" fill="#9bdb03" d="M 339.5,325.5 C 338.502,352.995 338.169,380.662 338.5,408.5C 316.66,408.831 294.994,408.497 273.5,407.5C 289.737,386.173 288.07,366.339 268.5,348C 249.307,336.716 231.473,338.549 215,353.5C 203.421,369.098 202.421,385.431 212,402.5C 214.19,404.388 216.023,406.555 217.5,409C 195.169,409.5 172.836,409.667 150.5,409.5C 150.5,392.833 150.5,376.167 150.5,359.5C 153.794,361.158 156.794,363.324 159.5,366C 174.656,373.506 188.489,371.672 201,360.5C 206.289,354.136 209.122,346.802 209.5,338.5C 220.401,319.124 218.401,301.291 203.5,285C 186.216,272.691 168.883,272.524 151.5,284.5C 150.5,263.177 150.167,241.844 150.5,220.5C 178.5,220.5 206.5,220.5 234.5,220.5C 235.311,213.123 234.144,206.123 231,199.5C 218.079,186.638 217.246,173.138 228.5,159C 246.637,148.143 260.137,152.309 269,171.5C 269.661,176.558 269.328,181.558 268,186.5C 265.247,191.008 262.247,195.341 259,199.5C 255.856,206.123 254.689,213.123 255.5,220.5C 283.5,220.5 311.5,220.5 339.5,220.5C 339.5,248.5 339.5,276.5 339.5,304.5C 343.846,304.666 348.179,304.499 352.5,304C 360.621,300.44 368.288,296.107 375.5,291C 389.869,288.698 400.036,294.198 406,307.5C 408.693,322.793 402.86,333.293 388.5,339C 381.785,340.248 375.452,339.248 369.5,336C 361.264,327.643 351.264,324.143 339.5,325.5 Z"/></g>
<g><path style="opacity:1" fill="#fbfdfe" d="M 444.5,221.5 C 449.5,221.5 454.5,221.5 459.5,221.5C 459.5,232.5 459.5,243.5 459.5,254.5C 454.5,254.5 449.5,254.5 444.5,254.5C 444.5,243.5 444.5,232.5 444.5,221.5 Z"/></g>
<g><path style="opacity:1" fill="#dfeefa" d="M 459.5,269.5 C 454.833,269.5 450.167,269.5 445.5,269.5C 445.5,333.167 445.5,396.833 445.5,460.5C 445.167,460.5 444.833,460.5 444.5,460.5C 444.5,396.5 444.5,332.5 444.5,268.5C 449.695,268.179 454.695,268.513 459.5,269.5 Z"/></g>
<g><path style="opacity:1" fill="#fefffe" d="M 459.5,269.5 C 459.5,333.167 459.5,396.833 459.5,460.5C 454.833,460.5 450.167,460.5 445.5,460.5C 445.5,396.833 445.5,333.167 445.5,269.5C 450.167,269.5 454.833,269.5 459.5,269.5 Z"/></g>
<g><path style="opacity:1" fill="#1d80ca" d="M 201.5,317.5 C 184.992,302.714 168.659,302.881 152.5,318C 149.204,319.511 145.871,320.677 142.5,321.5C 142.5,315.833 142.5,310.167 142.5,304.5C 145.607,304.649 148.607,304.149 151.5,303C 157.587,298.574 163.92,294.574 170.5,291C 174.833,290.333 179.167,290.333 183.5,291C 195.857,295.556 201.857,304.389 201.5,317.5 Z"/></g>
<g><path style="opacity:1" fill="#8dc904" d="M 209.5,338.5 C 209.122,346.802 206.289,354.136 201,360.5C 188.489,371.672 174.656,373.506 159.5,366C 156.794,363.324 153.794,361.158 150.5,359.5C 150.334,354.489 150.501,349.489 151,344.5C 164.55,355.758 179.383,357.591 195.5,350C 200.647,346.68 205.314,342.847 209.5,338.5 Z"/></g>
<g><path style="opacity:1" fill="#1d80cb" d="M 414.5,338.5 C 411.295,362.45 397.628,372.95 373.5,370C 371.051,369.275 368.717,368.275 366.5,367C 362.646,363.911 358.646,361.078 354.5,358.5C 354.334,353.489 354.501,348.489 355,343.5C 356.873,345.709 359.04,347.542 361.5,349C 381.997,359.208 399.664,355.708 414.5,338.5 Z"/></g>
<g><path style="opacity:1" fill="#1d7ec9" d="M 268.5,385.5 C 268.323,381.474 266.323,378.641 262.5,377C 247.048,368.364 233.048,370.197 220.5,382.5C 220.744,366.59 228.744,357.59 244.5,355.5C 262.676,357.652 270.676,367.652 268.5,385.5 Z"/></g>
<g><path style="opacity:1" fill="#77a902" d="M 339.5,325.5 C 339.5,353.5 339.5,381.5 339.5,409.5C 317.157,409.833 294.823,409.5 272.5,408.5C 272.624,407.893 272.957,407.56 273.5,407.5C 294.994,408.497 316.66,408.831 338.5,408.5C 338.169,380.662 338.502,352.995 339.5,325.5 Z"/></g>
<g><path style="opacity:1" fill="#1d81cd" d="M 143.5,424.5 C 169.167,424.5 194.833,424.5 220.5,424.5C 225.283,428.742 227.283,434.076 226.5,440.5C 198.833,440.5 171.167,440.5 143.5,440.5C 143.5,435.167 143.5,429.833 143.5,424.5 Z"/></g>
<g><path style="opacity:1" fill="#1d81cd" d="M 269.5,424.5 C 295.167,424.5 320.833,424.5 346.5,424.5C 346.5,429.833 346.5,435.167 346.5,440.5C 318.825,440.833 291.159,440.5 263.5,439.5C 262.333,436.8 262.5,434.133 264,431.5C 265.666,429.004 267.5,426.671 269.5,424.5 Z"/></g>
</svg>
