<?xml version="1.0" encoding="UTF-8"?>
<!DOCTYPE svg PUBLIC "-//W3C//DTD SVG 1.1//EN" "http://www.w3.org/Graphics/SVG/1.1/DTD/svg11.dtd">
<svg xmlns="http://www.w3.org/2000/svg" version="1.1" width="512px" height="512px" style="shape-rendering:geometricPrecision; text-rendering:geometricPrecision; image-rendering:optimizeQuality; fill-rule:evenodd; clip-rule:evenodd" xmlns:xlink="http://www.w3.org/1999/xlink">
<g><path style="opacity:0.997" fill="#262627" d="M 298.5,-0.5 C 360.833,-0.5 423.167,-0.5 485.5,-0.5C 498.5,3.83333 507.167,12.5 511.5,25.5C 511.5,178.833 511.5,332.167 511.5,485.5C 507.167,498.5 498.5,507.167 485.5,511.5C 332.167,511.5 178.833,511.5 25.5,511.5C 12.5,507.167 3.83333,498.5 -0.5,485.5C -0.5,396.167 -0.5,306.833 -0.5,217.5C 1.15398,214.334 3.82065,212.667 7.5,212.5C 11.5616,212.724 14.395,214.724 16,218.5C 16.3333,306.167 16.6667,393.833 17,481.5C 19.0789,487.247 22.9122,491.414 28.5,494C 179.833,494.667 331.167,494.667 482.5,494C 488.088,491.414 491.921,487.247 494,481.5C 494.667,387.5 494.667,293.5 494,199.5C 492.066,193.233 487.9,189.399 481.5,188C 401.5,187.667 321.5,187.333 241.5,187C 231.667,183.833 225.167,177.333 222,167.5C 221.667,161.167 221.333,154.833 221,148.5C 219.141,142.64 215.307,138.807 209.5,137C 148.833,136.333 88.1667,136.333 27.5,137C 23.3882,138.779 20.2215,141.612 18,145.5C 16.7163,160.099 16.0496,174.765 16,189.5C 14.5853,193.616 11.7519,195.949 7.5,196.5C 4.11368,195.816 1.44702,194.149 -0.5,191.5C -0.5,153.167 -0.5,114.833 -0.5,76.5C 3.64221,63.5255 12.3089,55.0255 25.5,51C 105.5,50.6667 185.5,50.3333 265.5,50C 268.057,49.3147 269.891,47.8147 271,45.5C 269.26,29.2492 274.427,15.7492 286.5,5C 290.481,2.8381 294.481,1.00477 298.5,-0.5 Z"/></g>
<g><path style="opacity:1" fill="#297cc0" d="M 480.5,170.5 C 477.038,169.518 473.371,169.185 469.5,169.5C 469.831,148.66 469.497,127.993 468.5,107.5C 466.087,95.2535 458.754,87.7535 446.5,85C 318.5,84.3333 190.5,84.3333 62.5,85C 51.3559,88.6378 44.6892,96.1378 42.5,107.5C 41.5184,110.962 41.185,114.629 41.5,118.5C 36.9677,118.182 32.6344,118.515 28.5,119.5C 24.4333,120.114 20.6,121.448 17,123.5C 16.3333,108.833 16.3333,94.1667 17,79.5C 19.5864,73.9122 23.7531,70.0789 29.5,68C 109.833,67.6667 190.167,67.3333 270.5,67C 280.434,64.0666 286.6,57.5666 289,47.5C 289.114,40.4211 289.781,33.4211 291,26.5C 293.552,22.2811 297.052,19.1145 301.5,17C 361.833,16.3333 422.167,16.3333 482.5,17C 487.667,19.5 491.5,23.3333 494,28.5C 494.833,77.1701 494.667,125.837 493.5,174.5C 489.386,172.412 485.053,171.079 480.5,170.5 Z"/></g>
<g><path style="opacity:1" fill="#daedfb" d="M 65.5,101.5 C 192.167,101.333 318.834,101.5 445.5,102C 447.624,103.122 449.457,104.622 451,106.5C 451.5,127.831 451.667,149.164 451.5,170.5C 382.499,170.667 313.499,170.5 244.5,170C 242,168.833 240.167,167 239,164.5C 241.046,149.819 236.879,137.319 226.5,127C 223.066,124.565 219.4,122.565 215.5,121C 163.546,119.518 111.546,119.018 59.5,119.5C 59.3343,115.154 59.501,110.821 60,106.5C 61.7297,104.598 63.563,102.931 65.5,101.5 Z"/></g>
<g><path style="opacity:1" fill="#28608e" d="M 468.5,107.5 C 469.497,127.993 469.831,148.66 469.5,169.5C 473.371,169.185 477.038,169.518 480.5,170.5C 476.5,170.5 472.5,170.5 468.5,170.5C 468.5,149.5 468.5,128.5 468.5,107.5 Z"/></g>
<g><path style="opacity:1" fill="#28557a" d="M 42.5,107.5 C 42.5,111.5 42.5,115.5 42.5,119.5C 37.8333,119.5 33.1667,119.5 28.5,119.5C 32.6344,118.515 36.9677,118.182 41.5,118.5C 41.185,114.629 41.5184,110.962 42.5,107.5 Z"/></g>
<g><path style="opacity:1" fill="#3c92e7" d="M 7.5,212.5 C 7.5,207.167 7.5,201.833 7.5,196.5C 11.7519,195.949 14.5853,193.616 16,189.5C 16.0496,174.765 16.7163,160.099 18,145.5C 20.2215,141.612 23.3882,138.779 27.5,137C 88.1667,136.333 148.833,136.333 209.5,137C 215.307,138.807 219.141,142.64 221,148.5C 221.333,154.833 221.667,161.167 222,167.5C 225.167,177.333 231.667,183.833 241.5,187C 321.5,187.333 401.5,187.667 481.5,188C 487.9,189.399 492.066,193.233 494,199.5C 494.667,293.5 494.667,387.5 494,481.5C 491.921,487.247 488.088,491.414 482.5,494C 331.167,494.667 179.833,494.667 28.5,494C 22.9122,491.414 19.0789,487.247 17,481.5C 16.6667,393.833 16.3333,306.167 16,218.5C 14.395,214.724 11.5616,212.724 7.5,212.5 Z"/></g>
<g><path style="opacity:1" fill="#262728" d="M 259.5,229.5 C 314.879,229.017 370.213,229.517 425.5,231C 434.834,234.335 440.667,240.835 443,250.5C 443.92,263.224 443.586,275.89 442,288.5C 438.765,297.401 432.598,303.234 423.5,306C 368.167,306.667 312.833,306.667 257.5,306C 247.566,303.067 241.4,296.567 239,286.5C 238.333,274.167 238.333,261.833 239,249.5C 242.444,239.221 249.278,232.554 259.5,229.5 Z"/></g>
<g><path style="opacity:1" fill="#72befc" d="M 261.5,246.5 C 314.168,246.333 366.834,246.5 419.5,247C 422.583,247.786 424.749,249.619 426,252.5C 426.667,262.833 426.667,273.167 426,283.5C 424.833,286 423,287.833 420.5,289C 367.167,289.667 313.833,289.667 260.5,289C 258.185,287.891 256.685,286.057 256,283.5C 255.333,273.167 255.333,262.833 256,252.5C 257.36,249.977 259.193,247.977 261.5,246.5 Z"/></g>
</svg>
