<?xml version="1.0" encoding="UTF-8"?>
<!DOCTYPE svg PUBLIC "-//W3C//DTD SVG 1.1//EN" "http://www.w3.org/Graphics/SVG/1.1/DTD/svg11.dtd">
<svg xmlns="http://www.w3.org/2000/svg" version="1.1" width="512px" height="512px" style="shape-rendering:geometricPrecision; text-rendering:geometricPrecision; image-rendering:optimizeQuality; fill-rule:evenodd; clip-rule:evenodd" xmlns:xlink="http://www.w3.org/1999/xlink">
<g><path style="opacity:0.983" fill="#000000" d="M 69.5,-0.5 C 207.833,-0.5 346.167,-0.5 484.5,-0.5C 496.378,4.22152 503.878,12.8882 507,25.5C 507.667,144.167 507.667,262.833 507,381.5C 503.609,395.225 495.109,404.058 481.5,408C 418.834,408.5 356.168,408.667 293.5,408.5C 293.5,405.833 293.5,403.167 293.5,400.5C 293.5,397.5 293.5,394.5 293.5,391.5C 354.834,391.667 416.168,391.5 477.5,391C 483.667,388.833 487.833,384.667 490,378.5C 490.667,261.833 490.667,145.167 490,28.5C 487.833,22.3333 483.667,18.1667 477.5,16C 343.666,15.1673 209.999,15.334 76.5,16.5C 70.674,18.1522 66.5074,21.8189 64,27.5C 63.5,97.4992 63.3333,167.499 63.5,237.5C 60.2869,237.19 57.2869,237.523 54.5,238.5C 51.5,238.5 48.5,238.5 45.5,238.5C 45.3333,169.166 45.5,99.8325 46,30.5C 47.6408,15.3722 55.4741,5.03882 69.5,-0.5 Z"/></g>
<g><path style="opacity:1" fill="#4196ce" d="M 76.5,16.5 C 199.834,16.3333 323.167,16.5 446.5,17C 429.965,33.3681 413.632,49.8681 397.5,66.5C 291.665,66.1672 185.999,66.5005 80.5,67.5C 80.5,72.8333 80.5,78.1667 80.5,83.5C 179.665,84.4994 278.999,84.8328 378.5,84.5C 364.115,99.8856 349.115,114.552 333.5,128.5C 332.527,128.013 331.527,127.513 330.5,127C 316.5,126.667 302.5,126.333 288.5,126C 283.833,121.333 279.167,116.667 274.5,112C 272.913,111.138 271.246,110.471 269.5,110C 253.833,109.333 238.167,109.333 222.5,110C 219.619,111.251 217.786,113.417 217,116.5C 216.333,145.833 216.333,175.167 217,204.5C 218.077,207.913 220.244,210.413 223.5,212C 232.494,212.5 241.494,212.666 250.5,212.5C 230.167,233.167 209.833,253.833 189.5,274.5C 184.562,272.632 179.562,270.965 174.5,269.5C 174.666,260.827 174.5,252.16 174,243.5C 172.52,240.337 170.02,238.504 166.5,238C 147.768,237.039 129.101,237.372 110.5,239C 108.667,239.5 107.5,240.667 107,242.5C 106.667,251.167 106.333,259.833 106,268.5C 100.55,270.558 95.2163,272.892 90,275.5C 84.1356,269.301 77.9689,263.468 71.5,258C 69.1667,257.333 66.8333,257.333 64.5,258C 61.0003,260.669 57.667,263.502 54.5,266.5C 54.5,257.167 54.5,247.833 54.5,238.5C 57.2869,237.523 60.2869,237.19 63.5,237.5C 63.3333,167.499 63.5,97.4992 64,27.5C 66.5074,21.8189 70.674,18.1522 76.5,16.5 Z"/></g>
<g><path style="opacity:1" fill="#3c88c5" d="M 76.5,16.5 C 209.999,15.334 343.666,15.1673 477.5,16C 483.667,18.1667 487.833,22.3333 490,28.5C 490.667,145.167 490.667,261.833 490,378.5C 487.833,384.667 483.667,388.833 477.5,391C 416.168,391.5 354.834,391.667 293.5,391.5C 293.5,394.5 293.5,397.5 293.5,400.5C 288.167,400.5 282.833,400.5 277.5,400.5C 276.668,382.338 276.168,364.005 276,345.5C 274.975,343.313 273.475,341.646 271.5,340.5C 278.833,340.5 286.167,340.5 293.5,340.5C 293.5,343.167 293.5,345.833 293.5,348.5C 306.171,348.667 318.838,348.5 331.5,348C 334.108,346.622 335.608,344.455 336,341.5C 336.667,317.167 336.667,292.833 336,268.5C 334.833,266.667 333.333,265.167 331.5,264C 317.167,263.667 302.833,263.333 288.5,263C 283.135,257.301 277.469,251.967 271.5,247C 261.839,246.5 252.172,246.334 242.5,246.5C 242.5,249.167 242.5,251.833 242.5,254.5C 236.833,254.5 231.167,254.5 225.5,254.5C 225.5,258.167 225.5,261.833 225.5,265.5C 222.665,262.835 219.665,260.335 216.5,258C 213.833,257.333 211.167,257.333 208.5,258C 202.833,263.667 197.167,269.333 191.5,275C 190.563,275.692 189.897,275.525 189.5,274.5C 209.833,253.833 230.167,233.167 250.5,212.5C 276.502,212.667 302.502,212.5 328.5,212C 331.034,211.484 333.2,210.317 335,208.5C 336.648,182.921 336.981,157.254 336,131.5C 334.955,130.627 334.122,129.627 333.5,128.5C 349.115,114.552 364.115,99.8856 378.5,84.5C 410.167,84.5 441.833,84.5 473.5,84.5C 473.5,78.5 473.5,72.5 473.5,66.5C 448.167,66.5 422.833,66.5 397.5,66.5C 413.632,49.8681 429.965,33.3681 446.5,17C 323.167,16.5 199.834,16.3333 76.5,16.5 Z"/></g>
<g><path style="opacity:1" fill="#010304" d="M 80.5,32.5 C 86.1667,32.5 91.8333,32.5 97.5,32.5C 97.5,38.1667 97.5,43.8333 97.5,49.5C 91.8333,49.5 86.1667,49.5 80.5,49.5C 80.5,43.8333 80.5,38.1667 80.5,32.5 Z"/></g>
<g><path style="opacity:1" fill="#010304" d="M 114.5,32.5 C 120.167,32.5 125.833,32.5 131.5,32.5C 131.5,38.1667 131.5,43.8333 131.5,49.5C 125.833,49.5 120.167,49.5 114.5,49.5C 114.5,43.8333 114.5,38.1667 114.5,32.5 Z"/></g>
<g><path style="opacity:1" fill="#010306" d="M 148.5,32.5 C 154.167,32.5 159.833,32.5 165.5,32.5C 165.5,38.1667 165.5,43.8333 165.5,49.5C 159.833,49.5 154.167,49.5 148.5,49.5C 148.5,43.8333 148.5,38.1667 148.5,32.5 Z"/></g>
<g><path style="opacity:1" fill="#000000" d="M 80.5,67.5 C 211.167,67.5 341.833,67.5 472.5,67.5C 472.5,72.8333 472.5,78.1667 472.5,83.5C 341.833,83.5 211.167,83.5 80.5,83.5C 80.5,78.1667 80.5,72.8333 80.5,67.5 Z"/></g>
<g><path style="opacity:1" fill="#173d59" d="M 80.5,67.5 C 185.999,66.5005 291.665,66.1672 397.5,66.5C 422.833,66.5 448.167,66.5 473.5,66.5C 473.5,72.5 473.5,78.5 473.5,84.5C 441.833,84.5 410.167,84.5 378.5,84.5C 278.999,84.8328 179.665,84.4994 80.5,83.5C 211.167,83.5 341.833,83.5 472.5,83.5C 472.5,78.1667 472.5,72.8333 472.5,67.5C 341.833,67.5 211.167,67.5 80.5,67.5 Z"/></g>
<g><path style="opacity:1" fill="#020303" d="M 87.5,109.5 C 102.504,109.333 117.504,109.5 132.5,110C 134.246,110.471 135.913,111.138 137.5,112C 142.167,116.667 146.833,121.333 151.5,126C 165.167,126.333 178.833,126.667 192.5,127C 195.455,127.392 197.622,128.892 199,131.5C 199.667,156.833 199.667,182.167 199,207.5C 197.363,209.81 195.196,211.31 192.5,212C 157.5,212.667 122.5,212.667 87.5,212C 83.9732,211.14 81.8066,208.973 81,205.5C 80.3333,175.167 80.3333,144.833 81,114.5C 82.8049,112.174 84.9716,110.508 87.5,109.5 Z"/></g>
<g><path style="opacity:1" fill="#020305" d="M 333.5,128.5 C 334.122,129.627 334.955,130.627 336,131.5C 336.981,157.254 336.648,182.921 335,208.5C 333.2,210.317 331.034,211.484 328.5,212C 302.502,212.5 276.502,212.667 250.5,212.5C 241.494,212.666 232.494,212.5 223.5,212C 220.244,210.413 218.077,207.913 217,204.5C 216.333,175.167 216.333,145.833 217,116.5C 217.786,113.417 219.619,111.251 222.5,110C 238.167,109.333 253.833,109.333 269.5,110C 271.246,110.471 272.913,111.138 274.5,112C 279.167,116.667 283.833,121.333 288.5,126C 302.5,126.333 316.5,126.667 330.5,127C 331.527,127.513 332.527,128.013 333.5,128.5 Z"/></g>
<g><path style="opacity:1" fill="#020304" d="M 359.5,109.5 C 375.503,109.333 391.503,109.5 407.5,110C 413.469,114.967 419.135,120.301 424.5,126C 438.167,126.333 451.833,126.667 465.5,127C 469.527,127.427 472.027,129.594 473,133.5C 473.971,158.23 473.638,182.896 472,207.5C 470.363,209.81 468.196,211.31 465.5,212C 430.5,212.667 395.5,212.667 360.5,212C 356.594,211.027 354.427,208.527 354,204.5C 353.333,175.167 353.333,145.833 354,116.5C 354.938,113.402 356.772,111.069 359.5,109.5 Z"/></g>
<g><path style="opacity:1" fill="#fca52d" d="M 148.5,143.5 C 151.028,144.166 153.694,144.832 156.5,145.5C 145.167,161.5 133.833,177.5 122.5,193.5C 114.193,194.498 105.86,194.831 97.5,194.5C 97.5,171.833 97.5,149.167 97.5,126.5C 107.839,126.334 118.172,126.5 128.5,127C 133.5,132 138.5,137 143.5,142C 145.025,143.009 146.692,143.509 148.5,143.5 Z"/></g>
<g><path style="opacity:1" fill="#fba52d" d="M 234.5,126.5 C 244.839,126.334 255.172,126.5 265.5,127C 270.833,132.333 276.167,137.667 281.5,143C 282.448,143.483 283.448,143.649 284.5,143.5C 287.305,144.319 290.305,144.819 293.5,145C 281.701,161.441 270.034,177.941 258.5,194.5C 250.5,194.5 242.5,194.5 234.5,194.5C 234.5,171.833 234.5,149.167 234.5,126.5 Z"/></g>
<g><path style="opacity:1" fill="#d28a26" d="M 401.5,127.5 C 391.5,127.5 381.5,127.5 371.5,127.5C 371.5,149.833 371.5,172.167 371.5,194.5C 371.167,194.5 370.833,194.5 370.5,194.5C 370.5,171.833 370.5,149.167 370.5,126.5C 381.014,126.172 391.347,126.506 401.5,127.5 Z"/></g>
<g><path style="opacity:1" fill="#fca52e" d="M 401.5,127.5 C 406.631,132.13 411.631,136.963 416.5,142C 418.025,143.009 419.692,143.509 421.5,143.5C 423.948,144.473 426.615,144.806 429.5,144.5C 417.833,161.167 406.167,177.833 394.5,194.5C 386.833,194.5 379.167,194.5 371.5,194.5C 371.5,172.167 371.5,149.833 371.5,127.5C 381.5,127.5 391.5,127.5 401.5,127.5 Z"/></g>
<g><path style="opacity:1" fill="#f89543" d="M 148.5,143.5 C 159.833,143.5 171.167,143.5 182.5,143.5C 182.5,160.833 182.5,178.167 182.5,195.5C 153.995,195.831 125.662,195.498 97.5,194.5C 105.86,194.831 114.193,194.498 122.5,193.5C 133.833,177.5 145.167,161.5 156.5,145.5C 153.694,144.832 151.028,144.166 148.5,143.5 Z"/></g>
<g><path style="opacity:1" fill="#fd9844" d="M 284.5,143.5 C 296.167,143.5 307.833,143.5 319.5,143.5C 319.5,160.5 319.5,177.5 319.5,194.5C 299.167,194.5 278.833,194.5 258.5,194.5C 270.034,177.941 281.701,161.441 293.5,145C 290.305,144.819 287.305,144.319 284.5,143.5 Z"/></g>
<g><path style="opacity:1" fill="#fe9944" d="M 429.5,144.5 C 438.167,144.5 446.833,144.5 455.5,144.5C 455.5,161.167 455.5,177.833 455.5,194.5C 435.167,194.5 414.833,194.5 394.5,194.5C 406.167,177.833 417.833,161.167 429.5,144.5 Z"/></g>
<g><path style="opacity:1" fill="#794b1d" d="M 234.5,126.5 C 234.5,149.167 234.5,171.833 234.5,194.5C 242.5,194.5 250.5,194.5 258.5,194.5C 278.833,194.5 299.167,194.5 319.5,194.5C 291.005,195.498 262.338,195.831 233.5,195.5C 233.169,172.327 233.502,149.327 234.5,126.5 Z"/></g>
<g><path style="opacity:1" fill="#885323" d="M 421.5,143.5 C 433.167,143.5 444.833,143.5 456.5,143.5C 456.5,160.833 456.5,178.167 456.5,195.5C 427.662,195.831 398.995,195.498 370.5,194.5C 370.833,194.5 371.167,194.5 371.5,194.5C 379.167,194.5 386.833,194.5 394.5,194.5C 414.833,194.5 435.167,194.5 455.5,194.5C 455.5,177.833 455.5,161.167 455.5,144.5C 446.833,144.5 438.167,144.5 429.5,144.5C 426.615,144.806 423.948,144.473 421.5,143.5 Z"/></g>
<g><path style="opacity:0.98" fill="#020101" d="M 189.5,274.5 C 189.897,275.525 190.563,275.692 191.5,275C 197.167,269.333 202.833,263.667 208.5,258C 211.167,257.333 213.833,257.333 216.5,258C 219.665,260.335 222.665,262.835 225.5,265.5C 235.41,276.913 245.91,287.913 257,298.5C 257.584,301.257 257.25,303.923 256,306.5C 250.667,311.833 245.333,317.167 240,322.5C 239.333,323.833 239.333,325.167 240,326.5C 242.328,330.658 244.161,334.992 245.5,339.5C 253.984,340.493 262.651,340.826 271.5,340.5C 273.475,341.646 274.975,343.313 276,345.5C 276.168,364.005 276.668,382.338 277.5,400.5C 276.871,403.64 275.204,406.14 272.5,408C 263.833,408.333 255.167,408.667 246.5,409C 244.553,414.17 242.22,419.17 239.5,424C 245.699,429.864 251.532,436.031 257,442.5C 257.817,445.964 257.483,449.298 256,452.5C 243.138,465.696 229.971,478.53 216.5,491C 213.036,491.817 209.702,491.483 206.5,490C 201,484.5 195.5,479 190,473.5C 185.435,476.245 180.602,478.411 175.5,480C 174.681,488.755 174.181,497.589 174,506.5C 172.195,508.826 170.028,510.492 167.5,511.5C 149.167,511.5 130.833,511.5 112.5,511.5C 109.603,510.442 107.436,508.442 106,505.5C 105.818,496.922 105.318,488.422 104.5,480C 99.3985,478.411 94.5652,476.245 90,473.5C 84.5,479 79,484.5 73.5,490C 70.2976,491.483 66.9643,491.817 63.5,491C 50.3623,478.863 37.5289,466.363 25,453.5C 22.2475,449.667 21.9142,445.667 24,441.5C 29.6816,435.985 35.1816,430.319 40.5,424.5C 37.924,419.354 35.924,414.021 34.5,408.5C 25.8269,408.666 17.1603,408.5 8.5,408C 6.71398,407.215 5.21398,406.049 4,404.5C 3.33333,384.5 3.33333,364.5 4,344.5C 5.22734,342.274 7.06068,340.774 9.5,340C 17.8532,339.832 26.1866,339.332 34.5,338.5C 36.3052,333.751 38.3052,329.085 40.5,324.5C 34.4826,318.317 28.6493,311.983 23,305.5C 22.3333,303.167 22.3333,300.833 23,298.5C 33.0056,287.328 43.5056,276.661 54.5,266.5C 57.667,263.502 61.0003,260.669 64.5,258C 66.8333,257.333 69.1667,257.333 71.5,258C 77.9689,263.468 84.1356,269.301 90,275.5C 95.2163,272.892 100.55,270.558 106,268.5C 106.333,259.833 106.667,251.167 107,242.5C 107.5,240.667 108.667,239.5 110.5,239C 129.101,237.372 147.768,237.039 166.5,238C 170.02,238.504 172.52,240.337 174,243.5C 174.5,252.16 174.666,260.827 174.5,269.5C 179.562,270.965 184.562,272.632 189.5,274.5 Z M 107.5,400.5 C 129.167,400.5 150.833,400.5 172.5,400.5C 159.107,415.74 142.774,419.907 123.5,413C 117.407,409.733 112.074,405.566 107.5,400.5 Z"/></g>
<g><path style="opacity:1" fill="#020101" d="M 293.5,340.5 C 293.5,337.5 293.5,334.5 293.5,331.5C 302.167,331.5 310.833,331.5 319.5,331.5C 319.5,314.5 319.5,297.5 319.5,280.5C 310.833,280.5 302.167,280.5 293.5,280.5C 289.818,280.665 286.152,280.499 282.5,280C 276.531,275.033 270.865,269.699 265.5,264C 257.841,263.5 250.174,263.334 242.5,263.5C 242.5,260.5 242.5,257.5 242.5,254.5C 242.5,251.833 242.5,249.167 242.5,246.5C 252.172,246.334 261.839,246.5 271.5,247C 277.469,251.967 283.135,257.301 288.5,263C 302.833,263.333 317.167,263.667 331.5,264C 333.333,265.167 334.833,266.667 336,268.5C 336.667,292.833 336.667,317.167 336,341.5C 335.608,344.455 334.108,346.622 331.5,348C 318.838,348.5 306.171,348.667 293.5,348.5C 293.5,345.833 293.5,343.167 293.5,340.5 Z"/></g>
<g><path style="opacity:1" fill="#020202" d="M 358.5,246.5 C 375.17,246.333 391.837,246.5 408.5,247C 414.316,251.649 419.649,256.816 424.5,262.5C 439.556,263.048 454.556,263.881 469.5,265C 471.049,266.214 472.215,267.714 473,269.5C 473.971,294.563 473.638,319.563 472,344.5C 470.681,346.487 468.848,347.654 466.5,348C 430.5,348.667 394.5,348.667 358.5,348C 356.19,346.363 354.69,344.196 354,341.5C 353.333,311.5 353.333,281.5 354,251.5C 355.366,249.638 356.866,247.972 358.5,246.5 Z"/></g>
<g><path style="opacity:1" fill="#973159" d="M 157.5,275.5 C 156.509,269.021 156.176,262.354 156.5,255.5C 145.5,255.5 134.5,255.5 123.5,255.5C 123.825,262.687 123.491,269.687 122.5,276.5C 122.5,269.167 122.5,261.833 122.5,254.5C 134.167,254.5 145.833,254.5 157.5,254.5C 157.5,261.5 157.5,268.5 157.5,275.5 Z"/></g>
<g><path style="opacity:1" fill="#e14984" d="M 157.5,275.5 C 157.549,278.099 158.549,280.266 160.5,282C 171.172,285.779 181.672,289.945 192,294.5C 194.321,294.091 196.487,293.257 198.5,292C 202.833,287.667 207.167,283.333 211.5,279C 212.167,278.333 212.833,278.333 213.5,279C 221.167,286.667 228.833,294.333 236.5,302C 231.667,306.833 226.833,311.667 222,316.5C 220.888,318.39 220.054,320.39 219.5,322.5C 224.824,332.816 229.324,343.482 233,354.5C 234.255,355.211 235.421,356.044 236.5,357C 244.159,357.5 251.826,357.666 259.5,357.5C 259.5,368.833 259.5,380.167 259.5,391.5C 251.493,391.334 243.493,391.5 235.5,392C 233.622,393.543 232.122,395.376 231,397.5C 228.771,405.959 225.437,413.959 221,421.5C 220.333,424.5 220.333,427.5 221,430.5C 226,435.5 231,440.5 236,445.5C 236.667,446.167 236.667,446.833 236,447.5C 228.319,455.348 220.486,463.015 212.5,470.5C 207.015,465.515 201.681,460.348 196.5,455C 195.167,454.833 193.833,454.667 192.5,454.5C 182.325,458.616 171.992,462.449 161.5,466C 160.333,467.167 159.167,468.333 158,469.5C 157.5,477.493 157.334,485.493 157.5,493.5C 146.167,493.5 134.833,493.5 123.5,493.5C 123.666,486.159 123.5,478.826 123,471.5C 122.333,470.167 121.667,468.833 121,467.5C 111.82,464.441 102.986,460.607 94.5,456C 91.2617,454.632 87.9283,454.299 84.5,455C 78.8651,459.633 73.5318,464.633 68.5,470C 67.8333,470.667 67.1667,470.667 66.5,470C 58.8333,462.333 51.1667,454.667 43.5,447C 48.3333,442.167 53.1667,437.333 58,432.5C 59.2572,430.487 60.0905,428.321 60.5,426C 55.6819,415.716 51.3486,405.216 47.5,394.5C 46.3349,393.416 45.0016,392.583 43.5,392C 35.8406,391.5 28.1739,391.334 20.5,391.5C 20.5,380.167 20.5,368.833 20.5,357.5C 28.1739,357.666 35.8406,357.5 43.5,357C 45.286,356.215 46.786,355.049 48,353.5C 51.7586,342.819 55.9253,332.319 60.5,322C 60.3749,320.373 59.8749,318.873 59,317.5C 53.8333,312.333 48.6667,307.167 43.5,302C 51.6667,293.833 59.8333,285.667 68,277.5C 73.5,283 79,288.5 84.5,294C 85.5,294.167 86.5,294.333 87.5,294.5C 98.0347,290.069 108.701,285.902 119.5,282C 121.16,280.512 122.16,278.679 122.5,276.5C 123.491,269.687 123.825,262.687 123.5,255.5C 134.5,255.5 145.5,255.5 156.5,255.5C 156.176,262.354 156.509,269.021 157.5,275.5 Z M 107.5,400.5 C 129.167,400.5 150.833,400.5 172.5,400.5C 159.107,415.74 142.774,419.907 123.5,413C 117.407,409.733 112.074,405.566 107.5,400.5 Z"/></g>
<g><path style="opacity:1" fill="#f9a42d" d="M 242.5,254.5 C 242.5,257.5 242.5,260.5 242.5,263.5C 250.174,263.334 257.841,263.5 265.5,264C 270.865,269.699 276.531,275.033 282.5,280C 286.152,280.499 289.818,280.665 293.5,280.5C 280.468,300.379 266.801,319.879 252.5,339C 250.19,339.497 247.857,339.663 245.5,339.5C 244.161,334.992 242.328,330.658 240,326.5C 239.333,325.167 239.333,323.833 240,322.5C 245.333,317.167 250.667,311.833 256,306.5C 257.25,303.923 257.584,301.257 257,298.5C 245.91,287.913 235.41,276.913 225.5,265.5C 225.5,261.833 225.5,258.167 225.5,254.5C 231.167,254.5 236.833,254.5 242.5,254.5 Z"/></g>
<g><path style="opacity:1" fill="#fba42d" d="M 430.5,280.5 C 418.576,297.355 406.91,314.355 395.5,331.5C 387.167,331.5 378.833,331.5 370.5,331.5C 370.5,308.833 370.5,286.167 370.5,263.5C 381.172,263.333 391.839,263.5 402.5,264C 407.5,269 412.5,274 417.5,279C 421.73,280.29 426.064,280.79 430.5,280.5 Z"/></g>
<g><path style="opacity:1" fill="#fd9844" d="M 293.5,280.5 C 302.167,280.5 310.833,280.5 319.5,280.5C 319.5,297.5 319.5,314.5 319.5,331.5C 310.833,331.5 302.167,331.5 293.5,331.5C 293.5,334.5 293.5,337.5 293.5,340.5C 286.167,340.5 278.833,340.5 271.5,340.5C 262.651,340.826 253.984,340.493 245.5,339.5C 247.857,339.663 250.19,339.497 252.5,339C 266.801,319.879 280.468,300.379 293.5,280.5 Z"/></g>
<g><path style="opacity:1" fill="#fc9744" d="M 430.5,280.5 C 439.167,280.5 447.833,280.5 456.5,280.5C 456.5,297.5 456.5,314.5 456.5,331.5C 436.167,331.5 415.833,331.5 395.5,331.5C 406.91,314.355 418.576,297.355 430.5,280.5 Z"/></g>
<g><path style="opacity:0.992" fill="#020102" d="M 132.5,314.5 C 167.11,313.533 189.276,329.533 199,362.5C 202.443,399.692 186.276,423.192 150.5,433C 118.866,436.273 96.6991,423.44 84,394.5C 75.4615,365.449 83.2948,341.949 107.5,324C 115.483,319.512 123.816,316.345 132.5,314.5 Z M 107.5,400.5 C 129.167,400.5 150.833,400.5 172.5,400.5C 159.107,415.74 142.774,419.907 123.5,413C 117.407,409.733 112.074,405.566 107.5,400.5 Z"/></g>
<g><path style="opacity:1" fill="#3c89c6" d="M 172.5,400.5 C 150.833,400.5 129.167,400.5 107.5,400.5C 102.865,396.235 100.032,390.902 99,384.5C 95.0094,361.981 103.176,345.481 123.5,335C 146.736,327.632 164.902,334.132 178,354.5C 184.509,369.155 183.843,383.488 176,397.5C 174.961,398.71 173.794,399.71 172.5,400.5 Z"/></g>
</svg>
