<?xml version="1.0" encoding="UTF-8"?>
<!DOCTYPE svg PUBLIC "-//W3C//DTD SVG 1.1//EN" "http://www.w3.org/Graphics/SVG/1.1/DTD/svg11.dtd">
<svg xmlns="http://www.w3.org/2000/svg" version="1.1" width="512px" height="512px" style="shape-rendering:geometricPrecision; text-rendering:geometricPrecision; image-rendering:optimizeQuality; fill-rule:evenodd; clip-rule:evenodd" xmlns:xlink="http://www.w3.org/1999/xlink">
<g><path style="opacity:0.971" fill="#010202" d="M 386.5,-0.5 C 395.5,-0.5 404.5,-0.5 413.5,-0.5C 449.202,6.77874 472.702,27.7787 484,62.5C 492,95.1679 484.667,123.835 462,148.5C 435.167,175.333 408.333,202.167 381.5,229C 334.751,274.368 278.751,300.368 213.5,307C 211.026,307.113 209.026,308.113 207.5,310C 224.534,310.107 241.534,310.773 258.5,312C 277.131,318.09 285.631,330.923 284,350.5C 282.01,360.479 276.843,368.312 268.5,374C 300.371,396.61 310.538,426.777 299,464.5C 287.722,489.956 268.555,505.623 241.5,511.5C 189.833,511.5 138.167,511.5 86.5,511.5C 76.2634,509.36 66.5968,505.527 57.5,500C 55.7375,496.757 55.0708,493.257 55.5,489.5C 57.1958,489.315 58.5291,488.481 59.5,487C 61.5,486.333 63.5,486.333 65.5,487C 72.9956,491.387 80.9956,494.387 89.5,496C 111.164,496.5 132.831,496.667 154.5,496.5C 181.835,496.667 209.169,496.5 236.5,496C 263.002,491.508 279.835,476.342 287,450.5C 291.777,419.552 280.277,397.052 252.5,383C 247.372,380.907 242.038,379.574 236.5,379C 209.169,378.5 181.835,378.333 154.5,378.5C 132.497,378.333 110.497,378.5 88.5,379C 54.121,388.383 37.9543,410.883 40,446.5C 41.8978,455.699 45.0645,464.366 49.5,472.5C 49.3054,475.218 48.3054,477.551 46.5,479.5C 42.2544,481.203 38.4211,480.536 35,477.5C 18.481,447.407 20.1477,418.407 40,390.5C 45.5714,384.258 51.738,378.758 58.5,374C 43.3193,361.778 39.4859,346.611 47,328.5C 52.0092,320.239 59.1758,314.739 68.5,312C 96.4724,310.737 124.472,310.07 152.5,310C 161.699,298.435 170.532,286.601 179,274.5C 185.196,213.134 208.529,159.467 249,113.5C 270.167,92.3333 291.333,71.1667 312.5,50C 315.933,48.088 319.267,48.2546 322.5,50.5C 324.86,54.0204 325.026,57.6871 323,61.5C 297.941,85.8913 273.607,110.891 250,136.5C 222.309,171.221 204.975,210.554 198,254.5C 216.477,233.23 235.643,212.564 255.5,192.5C 297.787,152.365 343.12,116.199 391.5,84C 397.702,81.5273 401.702,83.5273 403.5,90C 403.091,92.3207 402.257,94.4874 401,96.5C 353.907,167.951 297.74,231.785 232.5,288C 280.139,280.178 322.139,260.512 358.5,229C 391.333,196.167 424.167,163.333 457,130.5C 473.994,105.294 475.994,78.961 463,51.5C 457.316,40.6503 449.15,32.317 438.5,26.5C 423.426,16.4006 406.759,12.5673 388.5,15C 374.919,17.4587 362.919,23.1253 352.5,32C 348.8,36.0352 344.8,39.7019 340.5,43C 337.562,43.7121 334.896,43.2121 332.5,41.5C 330.033,38.0195 329.866,34.3529 332,30.5C 346.786,14.029 364.953,3.69564 386.5,-0.5 Z"/></g>
<g><path style="opacity:1" fill="#d6e0ef" d="M 438.5,26.5 C 419.648,31.7578 402.982,40.9245 388.5,54C 345.61,96.223 303.443,139.056 262,182.5C 259.19,185.464 257.024,188.798 255.5,192.5C 235.643,212.564 216.477,233.23 198,254.5C 204.975,210.554 222.309,171.221 250,136.5C 273.607,110.891 297.941,85.8913 323,61.5C 325.026,57.6871 324.86,54.0204 322.5,50.5C 325.833,47.5 329.167,44.5 332.5,41.5C 334.896,43.2121 337.562,43.7121 340.5,43C 344.8,39.7019 348.8,36.0352 352.5,32C 362.919,23.1253 374.919,17.4587 388.5,15C 406.759,12.5673 423.426,16.4006 438.5,26.5 Z"/></g>
<g><path style="opacity:1" fill="#e5eaf4" d="M 438.5,26.5 C 449.15,32.317 457.316,40.6503 463,51.5C 475.994,78.961 473.994,105.294 457,130.5C 424.167,163.333 391.333,196.167 358.5,229C 322.139,260.512 280.139,280.178 232.5,288C 297.74,231.785 353.907,167.951 401,96.5C 402.257,94.4874 403.091,92.3207 403.5,90C 401.702,83.5273 397.702,81.5273 391.5,84C 343.12,116.199 297.787,152.365 255.5,192.5C 257.024,188.798 259.19,185.464 262,182.5C 303.443,139.056 345.61,96.223 388.5,54C 402.982,40.9245 419.648,31.7578 438.5,26.5 Z"/></g>
<g><path style="opacity:1" fill="#7e7e7e" d="M 360.5,127.5 C 309.158,197.01 249.158,258.177 180.5,311C 178.866,311.494 177.199,311.66 175.5,311.5C 236.833,249.165 298.5,187.832 360.5,127.5 Z"/></g>
<g><path style="opacity:1" fill="#585858" d="M 360.5,127.5 C 298.5,187.832 236.833,249.165 175.5,311.5C 171.805,312.126 170.971,311.126 173,308.5C 227.824,236.342 291.824,173.675 365,120.5C 365.667,121.167 365.667,121.833 365,122.5C 363.483,124.24 361.983,125.906 360.5,127.5 Z"/></g>
<g><path style="opacity:1" fill="#585858" d="M 127.5,326.5 C 118.278,338.77 118.278,351.103 127.5,363.5C 109.164,363.667 90.8303,363.5 72.5,363C 59.9558,357.417 56.1225,348.251 61,335.5C 63.9867,331.512 67.82,328.679 72.5,327C 90.8303,326.5 109.164,326.333 127.5,326.5 Z"/></g>
<g><path style="opacity:1" fill="#7f7f7f" d="M 127.5,326.5 C 170.168,326.333 212.835,326.5 255.5,327C 269.085,333.41 272.252,343.243 265,356.5C 262.222,359.807 258.722,361.974 254.5,363C 212.168,363.5 169.835,363.667 127.5,363.5C 118.278,351.103 118.278,338.77 127.5,326.5 Z"/></g>
<g><path style="opacity:1" fill="#585858" d="M 154.5,378.5 C 120.688,400.779 111.521,430.779 127,468.5C 133.691,480.357 142.858,489.69 154.5,496.5C 132.831,496.667 111.164,496.5 89.5,496C 80.9956,494.387 72.9956,491.387 65.5,487C 63.5,486.333 61.5,486.333 59.5,487C 58.5291,488.481 57.1958,489.315 55.5,489.5C 51.8169,486.815 48.8169,483.482 46.5,479.5C 48.3054,477.551 49.3054,475.218 49.5,472.5C 45.0645,464.366 41.8978,455.699 40,446.5C 37.9543,410.883 54.121,388.383 88.5,379C 110.497,378.5 132.497,378.333 154.5,378.5 Z"/></g>
<g><path style="opacity:1" fill="#7f7f7f" d="M 154.5,378.5 C 181.835,378.333 209.169,378.5 236.5,379C 242.038,379.574 247.372,380.907 252.5,383C 280.277,397.052 291.777,419.552 287,450.5C 279.835,476.342 263.002,491.508 236.5,496C 209.169,496.5 181.835,496.667 154.5,496.5C 142.858,489.69 133.691,480.357 127,468.5C 111.521,430.779 120.688,400.779 154.5,378.5 Z"/></g>
</svg>
