<?xml version="1.0" encoding="UTF-8"?>
<!DOCTYPE svg PUBLIC "-//W3C//DTD SVG 1.1//EN" "http://www.w3.org/Graphics/SVG/1.1/DTD/svg11.dtd">
<svg xmlns="http://www.w3.org/2000/svg" version="1.1" width="512px" height="512px" style="shape-rendering:geometricPrecision; text-rendering:geometricPrecision; image-rendering:optimizeQuality; fill-rule:evenodd; clip-rule:evenodd" xmlns:xlink="http://www.w3.org/1999/xlink">
<g><path style="opacity:0.986" fill="#020303" d="M 511.5,147.5 C 511.5,249.167 511.5,350.833 511.5,452.5C 505.581,473.913 491.581,486.413 469.5,490C 326.833,490.667 184.167,490.667 41.5,490C 19.8504,486.51 5.85036,474.344 -0.5,453.5C -0.5,336.833 -0.5,220.167 -0.5,103.5C 5.09789,82.0705 18.7646,68.9038 40.5,64C 93.1667,63.3333 145.833,63.3333 198.5,64C 208.557,65.9061 217.89,69.5728 226.5,75C 235.13,81.9612 243.463,89.2945 251.5,97C 256.273,99.8979 261.273,101.898 266.5,103C 261.212,96.2563 256.045,89.423 251,82.5C 250.333,79.8333 250.333,77.1667 251,74.5C 261.47,63.0292 272.303,51.8625 283.5,41C 287.667,38.9142 291.667,39.2475 295.5,42C 302.423,47.0452 309.256,52.2119 316,57.5C 317.667,56.5 319.333,55.5 321,54.5C 322.666,44.8374 324.333,35.1708 326,25.5C 326.833,24.5 327.667,23.5 328.5,22.5C 345.789,21.3476 363.123,21.1809 380.5,22C 383.094,23.339 384.594,25.5056 385,28.5C 386.147,37.1969 387.48,45.8636 389,54.5C 391.243,56.282 393.743,56.782 396.5,56C 403.479,50.1774 410.812,44.844 418.5,40C 421.303,39.245 423.97,39.5783 426.5,41C 437.697,51.8625 448.53,63.0292 459,74.5C 459.667,77.1667 459.667,79.8333 459,82.5C 453.5,90 448,97.5 442.5,105C 452.194,105.301 461.861,105.968 471.5,107C 493.099,112.432 506.432,125.932 511.5,147.5 Z"/></g>
<g><path style="opacity:1" fill="#ee6c63" d="M 461.5,129.5 C 461.5,135.833 461.5,142.167 461.5,148.5C 445.5,148.5 429.5,148.5 413.5,148.5C 413.215,116.718 397.882,96.2183 367.5,87C 335.653,83.0006 313.153,95.5006 300,124.5C 297.134,132.592 295.967,140.925 296.5,149.5C 280.5,149.5 264.5,149.5 248.5,149.5C 248.17,142.8 248.503,136.134 249.5,129.5C 258.956,128.174 268.29,126.341 277.5,124C 279.609,118.349 282.109,112.849 285,107.5C 285.667,105.167 285.667,102.833 285,100.5C 280.719,93.8854 276.053,87.5521 271,81.5C 270.018,80.2411 269.685,78.9078 270,77.5C 276.348,70.9852 282.848,64.6519 289.5,58.5C 296.972,63.4722 304.305,68.6389 311.5,74C 313.833,74.6667 316.167,74.6667 318.5,74C 323.599,71.1167 328.933,68.7834 334.5,67C 335.46,65.5806 336.293,64.0806 337,62.5C 337.655,54.081 338.822,45.7477 340.5,37.5C 350.172,37.3335 359.839,37.5002 369.5,38C 371.147,47.5223 372.98,57.0223 375,66.5C 380.483,68.9962 385.983,71.4962 391.5,74C 393.833,74.6667 396.167,74.6667 398.5,74C 405.676,69.2454 412.676,64.2454 419.5,59C 420.167,58.3333 420.833,58.3333 421.5,59C 428.211,65.3761 434.545,72.0428 440.5,79C 435.348,86.156 430.181,93.3227 425,100.5C 424.333,102.5 424.333,104.5 425,106.5C 427.61,112.053 429.943,117.719 432,123.5C 433.255,124.211 434.421,125.044 435.5,126C 444.114,127.48 452.781,128.647 461.5,129.5 Z"/></g>
<g><path style="opacity:1" fill="#39a9d6" d="M 43.5,79.5 C 93.1678,79.3333 142.834,79.5 192.5,80C 209.351,82.5094 223.018,90.5094 233.5,104C 238.167,107.333 242.833,110.667 247.5,114C 244.5,114.333 241.5,114.667 238.5,115C 235.943,115.685 234.109,117.185 233,119.5C 232.5,130.828 232.333,142.162 232.5,153.5C 230.095,153.866 227.762,154.533 225.5,155.5C 223.734,154.909 222.067,154.076 220.5,153C 214.222,152.2 208.056,151.034 202,149.5C 204.769,144.346 208.102,139.346 212,134.5C 213.373,132.305 213.706,129.971 213,127.5C 205.167,118.333 196.667,109.833 187.5,102C 185.029,101.294 182.695,101.627 180.5,103C 176.012,106.743 171.346,110.243 166.5,113.5C 164.55,107.7 163.383,101.7 163,95.5C 162.215,93.714 161.049,92.214 159.5,91C 147.263,89.3743 134.929,89.0409 122.5,90C 120.19,91.6374 118.69,93.804 118,96.5C 117.448,102.089 116.615,107.589 115.5,113C 110.346,110.231 105.346,106.898 100.5,103C 97.8333,102.333 95.1667,102.333 92.5,103C 84.697,109.802 77.197,116.969 70,124.5C 68.5167,127.702 68.1834,131.036 69,134.5C 72.7433,138.988 76.2433,143.654 79.5,148.5C 79.2907,149.086 78.9574,149.586 78.5,150C 72.0884,150.593 65.755,151.593 59.5,153C 58.3333,154.167 57.1667,155.333 56,156.5C 55.5001,168.495 55.3335,180.495 55.5,192.5C 40.4088,191.142 27.2422,195.475 16,205.5C 15.3333,172.833 15.3333,140.167 16,107.5C 20.0159,92.985 29.1825,83.6517 43.5,79.5 Z"/></g>
<g><path style="opacity:1" fill="#fdfdfd" d="M 397.5,145.5 C 396.596,146.209 396.263,147.209 396.5,148.5C 368.833,148.5 341.167,148.5 313.5,148.5C 313.5,144.833 313.5,141.167 313.5,137.5C 316.948,119.882 327.281,108.382 344.5,103C 369.616,98.9744 386.783,108.808 396,132.5C 397.075,136.77 397.575,141.103 397.5,145.5 Z"/></g>
<g><path style="opacity:1" fill="#52ba9b" d="M 132.5,105.5 C 137.833,105.5 143.167,105.5 148.5,105.5C 149.115,111.189 149.948,116.856 151,122.5C 151.833,124 153,125.167 154.5,126C 159.878,128.873 165.545,130.207 171.5,130C 175.756,126.955 179.923,123.788 184,120.5C 187.333,123.833 190.667,127.167 194,130.5C 194.667,131.167 194.667,131.833 194,132.5C 190.615,136.217 187.615,140.217 185,144.5C 185.41,151.345 187.577,157.679 191.5,163.5C 196.672,165.156 202.005,166.489 207.5,167.5C 202.681,171.818 198.015,176.318 193.5,181C 189.275,184.446 184.609,186.779 179.5,188C 185.808,164.607 178.142,147.274 156.5,136C 129.548,128.392 110.715,137.559 100,163.5C 97.6335,173.1 98.4668,182.434 102.5,191.5C 99.5541,192.655 96.5541,192.821 93.5,192C 92.5918,188.757 90.5918,186.423 87.5,185C 82.173,184.057 76.8397,183.223 71.5,182.5C 71.5,177.167 71.5,171.833 71.5,166.5C 76.5364,166.412 81.5364,165.912 86.5,165C 88.9393,164.226 90.7727,162.726 92,160.5C 92.9419,157.007 94.2752,153.674 96,150.5C 96.6667,148.5 96.6667,146.5 96,144.5C 92.8333,140 89.6667,135.5 86.5,131C 90,127.5 93.5,124 97,120.5C 101.077,123.788 105.244,126.955 109.5,130C 116.142,129.867 122.475,128.2 128.5,125C 129.46,123.581 130.293,122.081 131,120.5C 131.501,115.492 132.001,110.492 132.5,105.5 Z"/></g>
<g><path style="opacity:1" fill="#38a6d2" d="M 478.5,127.5 C 491.521,135.544 497.021,147.211 495,162.5C 490.171,158.416 484.838,155.083 479,152.5C 478.5,144.173 478.334,135.84 478.5,127.5 Z"/></g>
<g><path style="opacity:1" fill="#b9b9b9" d="M 313.5,137.5 C 313.5,141.167 313.5,144.833 313.5,148.5C 341.167,148.5 368.833,148.5 396.5,148.5C 396.263,147.209 396.596,146.209 397.5,145.5C 397.5,146.833 397.5,148.167 397.5,149.5C 369.167,149.5 340.833,149.5 312.5,149.5C 312.183,145.298 312.517,141.298 313.5,137.5 Z"/></g>
<g><path style="opacity:1" fill="#a64c45" d="M 461.5,129.5 C 462.491,135.979 462.824,142.646 462.5,149.5C 445.991,149.83 429.658,149.496 413.5,148.5C 429.5,148.5 445.5,148.5 461.5,148.5C 461.5,142.167 461.5,135.833 461.5,129.5 Z"/></g>
<g><path style="opacity:1" fill="#f9f9f9" d="M 135.5,148.5 C 156.814,148.645 166.981,159.312 166,180.5C 164.733,184.869 162.567,188.703 159.5,192C 146.833,192.667 134.167,192.667 121.5,192C 111.452,178.481 112.452,165.815 124.5,154C 127.99,151.588 131.657,149.755 135.5,148.5 Z"/></g>
<g><path style="opacity:1" fill="#39aad6" d="M 460.5,165.5 C 460.986,246.87 460.486,328.203 459,409.5C 455.332,423.167 446.832,432.334 433.5,437C 417.364,438.725 401.364,438.892 385.5,437.5C 427.49,414.228 450.99,378.561 456,330.5C 456.667,305.5 456.667,280.5 456,255.5C 454.457,253.622 452.624,252.122 450.5,251C 440.737,251.24 434.237,246.74 431,237.5C 430.82,234.044 430.153,230.711 429,227.5C 428.097,226.299 426.931,225.465 425.5,225C 387.5,224.333 349.5,224.333 311.5,225C 309.622,226.543 308.122,228.376 307,230.5C 305.88,244.285 298.38,251.118 284.5,251C 282,252.167 280.167,254 279,256.5C 278.333,279.833 278.333,303.167 279,326.5C 283.347,375.949 306.847,412.949 349.5,437.5C 318.5,438.833 287.5,438.833 256.5,437.5C 262.407,434.777 263.907,430.443 261,424.5C 259.581,423.54 258.081,422.707 256.5,422C 190.833,421.333 125.167,421.333 59.5,422C 54.4607,425.059 53.294,429.225 56,434.5C 57.4877,436.16 59.321,437.16 61.5,437.5C 46.3424,438.496 31.0091,438.83 15.5,438.5C 15.3333,370.833 15.5,303.166 16,235.5C 20.0726,222.427 28.5726,213.594 41.5,209C 83.5,208.667 125.5,208.333 167.5,208C 178.534,206.322 188.868,202.655 198.5,197C 207.13,190.039 215.463,182.705 223.5,175C 229.985,170.837 236.985,167.837 244.5,166C 316.499,165.5 388.499,165.333 460.5,165.5 Z"/></g>
<g><path style="opacity:1" fill="#2d88ac" d="M 460.5,165.5 C 478.253,166.411 489.753,175.411 495,192.5C 495.667,277.5 495.667,362.5 495,447.5C 492.834,460.668 485.334,469.168 472.5,473C 327.833,473.667 183.167,473.667 38.5,473C 22.2833,467.271 14.6166,455.771 15.5,438.5C 31.0091,438.83 46.3424,438.496 61.5,437.5C 126.5,437.5 191.5,437.5 256.5,437.5C 287.5,438.833 318.5,438.833 349.5,437.5C 355.353,440.842 361.52,443.509 368,445.5C 374.278,443.777 380.111,441.111 385.5,437.5C 401.364,438.892 417.364,438.725 433.5,437C 446.832,432.334 455.332,423.167 459,409.5C 460.486,328.203 460.986,246.87 460.5,165.5 Z"/></g>
<g><path style="opacity:1" fill="#fafdfe" d="M 381.5,180.5 C 394.171,180.333 406.838,180.5 419.5,181C 422.167,183.333 422.167,185.667 419.5,188C 406.833,188.667 394.167,188.667 381.5,188C 378.914,185.506 378.914,183.006 381.5,180.5 Z"/></g>
<g><path style="opacity:1" fill="#f4fafc" d="M 434.5,180.5 C 436.989,180.298 439.323,180.798 441.5,182C 442.799,187.689 440.466,189.689 434.5,188C 431.914,185.506 431.914,183.006 434.5,180.5 Z"/></g>
<g><path style="opacity:1" fill="#040504" d="M 385.5,437.5 C 380.111,441.111 374.278,443.777 368,445.5C 361.52,443.509 355.353,440.842 349.5,437.5C 306.847,412.949 283.347,375.949 279,326.5C 278.333,303.167 278.333,279.833 279,256.5C 280.167,254 282,252.167 284.5,251C 298.38,251.118 305.88,244.285 307,230.5C 308.122,228.376 309.622,226.543 311.5,225C 349.5,224.333 387.5,224.333 425.5,225C 426.931,225.465 428.097,226.299 429,227.5C 430.153,230.711 430.82,234.044 431,237.5C 434.237,246.74 440.737,251.24 450.5,251C 452.624,252.122 454.457,253.622 456,255.5C 456.667,280.5 456.667,305.5 456,330.5C 450.99,378.561 427.49,414.228 385.5,437.5 Z"/></g>
<g><path style="opacity:1" fill="#77663a" d="M 415.5,240.5 C 384.093,240.175 352.76,240.508 321.5,241.5C 336.819,240.167 352.485,239.501 368.5,239.5C 384.337,239.5 400.004,239.833 415.5,240.5 Z"/></g>
<g><path style="opacity:1" fill="#fdd97c" d="M 415.5,240.5 C 417.213,246.872 420.213,252.538 424.5,257.5C 424.667,274.837 424.5,292.17 424,309.5C 417.142,360.273 389.976,394.939 342.5,413.5C 315.434,393.72 299.934,367.053 296,333.5C 295.5,310.836 295.333,288.169 295.5,265.5C 308.954,262.713 317.621,254.713 321.5,241.5C 352.76,240.508 384.093,240.175 415.5,240.5 Z"/></g>
<g><path style="opacity:1" fill="#010304" d="M 59.5,250.5 C 102.835,250.333 146.168,250.5 189.5,251C 196.311,256.33 195.977,261.33 188.5,266C 145.5,266.667 102.5,266.667 59.5,266C 52.8601,260.705 52.8601,255.539 59.5,250.5 Z"/></g>
<g><path style="opacity:1" fill="#cbad63" d="M 424.5,257.5 C 429.282,261.224 434.615,263.891 440.5,265.5C 440.667,288.169 440.5,310.836 440,333.5C 433.23,377.588 409.73,409.088 369.5,428C 359.376,425.271 350.376,420.438 342.5,413.5C 389.976,394.939 417.142,360.273 424,309.5C 424.5,292.17 424.667,274.837 424.5,257.5 Z"/></g>
<g><path style="opacity:1" fill="#050402" d="M 400.5,293.5 C 410.349,292.257 413.849,296.257 411,305.5C 391.833,324.667 372.667,343.833 353.5,363C 349.414,365.066 345.747,364.399 342.5,361C 335.261,354.431 328.761,347.265 323,339.5C 322.35,334.145 324.684,330.812 330,329.5C 331.888,329.796 333.722,330.296 335.5,331C 339.833,335.333 344.167,339.667 348.5,344C 349.167,344.667 349.833,344.667 350.5,344C 367.368,327.299 384.035,310.465 400.5,293.5 Z"/></g>
<g><path style="opacity:1" fill="#010101" d="M 58.5,308.5 C 102.168,308.333 145.835,308.5 189.5,309C 195.729,313.171 196.062,317.837 190.5,323C 146.5,323.667 102.5,323.667 58.5,323C 53.2018,318.092 53.2018,313.258 58.5,308.5 Z"/></g>
<g><path style="opacity:1" fill="#030607" d="M 60.5,365.5 C 124.834,365.333 189.168,365.5 253.5,366C 261.1,370.579 261.433,375.579 254.5,381C 189.167,381.667 123.833,381.667 58.5,381C 52.7055,374.94 53.3722,369.774 60.5,365.5 Z"/></g>
<g><path style="opacity:1" fill="#030506" d="M 256.5,437.5 C 191.5,437.5 126.5,437.5 61.5,437.5C 59.321,437.16 57.4877,436.16 56,434.5C 53.294,429.225 54.4607,425.059 59.5,422C 125.167,421.333 190.833,421.333 256.5,422C 258.081,422.707 259.581,423.54 261,424.5C 263.907,430.443 262.407,434.777 256.5,437.5 Z"/></g>
<g><path style="opacity:1" fill="#fcfdfe" d="M 62.5,449.5 C 75.1711,449.333 87.8377,449.5 100.5,450C 103.167,452.333 103.167,454.667 100.5,457C 87.8333,457.667 75.1667,457.667 62.5,457C 59.9142,454.506 59.9142,452.006 62.5,449.5 Z"/></g>
<g><path style="opacity:1" fill="#f5f9fb" d="M 115.5,449.5 C 120.993,448.178 123.493,450.178 123,455.5C 120.847,457.444 118.347,457.944 115.5,457C 112.914,454.506 112.914,452.006 115.5,449.5 Z"/></g>
</svg>
