<?xml version="1.0" encoding="UTF-8"?>
<!DOCTYPE svg PUBLIC "-//W3C//DTD SVG 1.1//EN" "http://www.w3.org/Graphics/SVG/1.1/DTD/svg11.dtd">
<svg xmlns="http://www.w3.org/2000/svg" version="1.1" width="512px" height="512px" style="shape-rendering:geometricPrecision; text-rendering:geometricPrecision; image-rendering:optimizeQuality; fill-rule:evenodd; clip-rule:evenodd" xmlns:xlink="http://www.w3.org/1999/xlink">
<g><path style="opacity:0.989" fill="#2c1606" d="M 511.5,159.5 C 511.5,260.5 511.5,361.5 511.5,462.5C 505.372,485.123 490.705,498.623 467.5,503C 326.167,503.667 184.833,503.667 43.5,503C 20.295,498.623 5.62833,485.123 -0.5,462.5C -0.5,319.167 -0.5,175.833 -0.5,32.5C 4.16032,19.6781 13.1603,11.5114 26.5,8C 83.8333,7.33333 141.167,7.33333 198.5,8C 200.081,8.70653 201.581,9.53986 203,10.5C 216.375,32.0842 229.875,53.5842 243.5,75C 295.167,75.3333 346.833,75.6667 398.5,76C 422.823,79.9887 437.823,93.9887 443.5,118C 461.744,115.911 478.41,119.911 493.5,130C 502.219,138.289 508.219,148.123 511.5,159.5 Z"/></g>
<g><path style="opacity:1" fill="#fec146" d="M 227.5,84.5 C 163.832,84.3333 100.166,84.5 36.5,85C 29.2232,86.4737 22.5565,89.3071 16.5,93.5C 16.3334,74.4971 16.5001,55.4971 17,36.5C 18.7735,31.7271 21.9402,28.2271 26.5,26C 81.5,25.3333 136.5,25.3333 191.5,26C 203.898,45.305 215.898,64.805 227.5,84.5 Z"/></g>
<g><path style="opacity:1" fill="#fea426" d="M 227.5,84.5 C 229.821,87.629 232.488,90.4623 235.5,93C 289.5,93.3333 343.5,93.6667 397.5,94C 411.272,95.9504 420.272,103.45 424.5,116.5C 298.003,118.166 171.337,119.166 44.5,119.5C 34.2698,120.796 25.2698,124.796 17.5,131.5C 16.5009,118.851 16.1676,106.184 16.5,93.5C 22.5565,89.3071 29.2232,86.4737 36.5,85C 100.166,84.5 163.832,84.3333 227.5,84.5 Z"/></g>
<g><path style="opacity:1" fill="#8e5815" d="M 424.5,116.5 C 425.404,117.209 425.737,118.209 425.5,119.5C 298.5,119.5 171.5,119.5 44.5,119.5C 171.337,119.166 298.003,118.166 424.5,116.5 Z"/></g>
<g><path style="opacity:1" fill="#f6e9aa" d="M 464.5,136.5 C 382.833,136.5 301.167,136.5 219.5,136.5C 191.165,136.333 162.831,136.5 134.5,137C 121.176,143.852 108.843,152.019 97.5,161.5C 88.7112,164.299 82.0446,169.633 77.5,177.5C 52.9786,200.002 32.6453,225.669 16.5,254.5C 16.3334,223.832 16.5,193.165 17,162.5C 20.7643,149.736 28.931,141.236 41.5,137C 112.798,135.841 184.131,135.341 255.5,135.5C 325.334,135.5 395.001,135.833 464.5,136.5 Z"/></g>
<g><path style="opacity:1" fill="#ffe97b" d="M 219.5,136.5 C 206.347,143.659 194.014,151.992 182.5,161.5C 154.167,161.5 125.833,161.5 97.5,161.5C 108.843,152.019 121.176,143.852 134.5,137C 162.831,136.5 191.165,136.333 219.5,136.5 Z"/></g>
<g><path style="opacity:1" fill="#fee35b" d="M 219.5,136.5 C 301.167,136.5 382.833,136.5 464.5,136.5C 479.754,138.916 489.587,147.582 494,162.5C 494.667,260.167 494.667,357.833 494,455.5C 491.927,470.905 483.427,480.739 468.5,485C 340.167,485.5 211.834,485.667 83.5,485.5C 65.4993,433.409 62.666,380.409 75,326.5C 75.1862,329.036 75.6862,331.369 76.5,333.5C 79.9704,352.261 91.3037,360.261 110.5,357.5C 108.907,381.907 120.24,393.24 144.5,391.5C 142.991,415.657 154.324,427.324 178.5,426.5C 176.369,443.092 183.036,454.258 198.5,460C 269.833,460.667 341.167,460.667 412.5,460C 423.457,457.711 430.624,451.211 434,440.5C 434.667,390.833 434.667,341.167 434,291.5C 427.84,276.825 416.673,270.492 400.5,272.5C 402.073,248.337 390.74,237.004 366.5,238.5C 368.037,214.217 356.704,202.883 332.5,204.5C 332.91,195.75 332.41,187.084 331,178.5C 327.745,170.911 322.245,165.744 314.5,163C 270.547,161.521 226.547,161.021 182.5,161.5C 194.014,151.992 206.347,143.659 219.5,136.5 Z"/></g>
<g><path style="opacity:1" fill="#2c1607" d="M 97.5,161.5 C 125.833,161.5 154.167,161.5 182.5,161.5C 226.547,161.021 270.547,161.521 314.5,163C 322.245,165.744 327.745,170.911 331,178.5C 332.41,187.084 332.91,195.75 332.5,204.5C 356.704,202.883 368.037,214.217 366.5,238.5C 390.74,237.004 402.073,248.337 400.5,272.5C 416.673,270.492 427.84,276.825 434,291.5C 434.667,341.167 434.667,390.833 434,440.5C 430.624,451.211 423.457,457.711 412.5,460C 341.167,460.667 269.833,460.667 198.5,460C 183.036,454.258 176.369,443.092 178.5,426.5C 154.324,427.324 142.991,415.657 144.5,391.5C 120.24,393.24 108.907,381.907 110.5,357.5C 91.3037,360.261 79.9704,352.261 76.5,333.5C 76.1799,281.47 76.5133,229.47 77.5,177.5C 82.0446,169.633 88.7112,164.299 97.5,161.5 Z"/></g>
<g><path style="opacity:1" fill="#fee87a" d="M 77.5,177.5 C 76.5133,229.47 76.1799,281.47 76.5,333.5C 75.6862,331.369 75.1862,329.036 75,326.5C 62.666,380.409 65.4993,433.409 83.5,485.5C 69.496,485.667 55.496,485.5 41.5,485C 27.1428,480.309 18.9761,470.476 17,455.5C 16.5,388.501 16.3333,321.501 16.5,254.5C 32.6453,225.669 52.9786,200.002 77.5,177.5 Z"/></g>
<g><path style="opacity:1" fill="#4997f5" d="M 314.5,184.5 C 315.158,211.521 314.491,238.188 312.5,264.5C 299.872,258.275 286.538,255.441 272.5,256C 257.29,260.015 242.623,265.515 228.5,272.5C 213.563,265.91 198.23,260.41 182.5,256C 179.833,255.333 177.167,255.333 174.5,256C 163.218,260.973 152.551,266.973 142.5,274C 126.287,286.602 110.287,299.435 94.5,312.5C 93.5013,270.67 93.168,228.67 93.5,186.5C 94.0913,183.386 95.758,180.886 98.5,179C 168.833,178.333 239.167,178.333 309.5,179C 312.079,180.076 313.746,181.909 314.5,184.5 Z"/></g>
<g><path style="opacity:1" fill="#2f2625" d="M 93.5,186.5 C 93.168,228.67 93.5013,270.67 94.5,312.5C 94.44,313.043 94.1067,313.376 93.5,313.5C 92.1693,271.002 92.1693,228.669 93.5,186.5 Z"/></g>
<g><path style="opacity:1" fill="#4173b4" d="M 314.5,184.5 C 315.664,211.664 315.83,238.997 315,266.5C 314.005,265.934 313.172,265.267 312.5,264.5C 314.491,238.188 315.158,211.521 314.5,184.5 Z"/></g>
<g><path style="opacity:1" fill="#2c1609" d="M 216.5,195.5 C 237.987,195.496 247.821,206.162 246,227.5C 240.531,242.95 229.698,249.116 213.5,246C 200.626,240.427 194.792,230.594 196,216.5C 198.99,205.678 205.823,198.678 216.5,195.5 Z"/></g>
<g><path style="opacity:1" fill="#e9ecf1" d="M 218.5,212.5 C 227.693,212.215 231.193,216.548 229,225.5C 226.045,229.277 222.212,230.443 217.5,229C 210.644,223.1 210.977,217.6 218.5,212.5 Z"/></g>
<g><path style="opacity:1" fill="#c7cbd9" d="M 332.5,221.5 C 339.016,220.237 344.516,221.904 349,226.5C 349.667,273.833 349.667,321.167 349,368.5C 348.193,371.973 346.027,374.14 342.5,375C 272.833,375.667 203.167,375.667 133.5,375C 131.91,373.954 130.41,372.787 129,371.5C 127.691,366.934 127.191,362.267 127.5,357.5C 189.168,357.667 250.834,357.5 312.5,357C 323.863,354.301 330.363,347.134 332,335.5C 332.5,297.501 332.667,259.501 332.5,221.5 Z"/></g>
<g><path style="opacity:1" fill="#ebeff4" d="M 366.5,255.5 C 373.016,254.237 378.516,255.904 383,260.5C 383.667,307.833 383.667,355.167 383,402.5C 382.654,404.848 381.487,406.681 379.5,408C 308.915,409.66 238.248,409.993 167.5,409C 165,407.833 163.167,406 162,403.5C 161.501,399.514 161.334,395.514 161.5,391.5C 223.834,391.667 286.168,391.5 348.5,391C 358.769,387.402 364.602,380.235 366,369.5C 366.5,331.501 366.667,293.501 366.5,255.5 Z"/></g>
<g><path style="opacity:1" fill="#06cbaa" d="M 176.5,272.5 C 192.274,276.213 207.608,281.38 222.5,288C 253.532,301.518 284.532,315.018 315.5,328.5C 316.119,333.42 314.453,337.253 310.5,340C 239.5,340.667 168.5,340.667 97.5,340C 95.2031,338.737 94.3698,336.903 95,334.5C 120.668,311.639 147.835,290.973 176.5,272.5 Z"/></g>
<g><path style="opacity:1" fill="#13a38d" d="M 275.5,272.5 C 289.58,273.202 302.58,277.368 314.5,285C 315.815,293.441 315.815,301.941 314.5,310.5C 294.071,300.618 273.404,291.285 252.5,282.5C 251.289,281.726 251.289,280.893 252.5,280C 260.119,276.96 267.785,274.46 275.5,272.5 Z"/></g>
<g><path style="opacity:1" fill="#cacfde" d="M 400.5,289.5 C 407.016,288.237 412.516,289.904 417,294.5C 417.667,342.167 417.667,389.833 417,437.5C 416.215,439.286 415.049,440.786 413.5,442C 342.915,443.66 272.248,443.993 201.5,443C 199,441.833 197.167,440 196,437.5C 195.501,433.848 195.335,430.182 195.5,426.5C 256.501,426.667 317.501,426.5 378.5,426C 389.888,423.612 397.055,416.779 400,405.5C 400.5,366.835 400.667,328.168 400.5,289.5 Z"/></g>
</svg>
