<?xml version="1.0" encoding="UTF-8"?>
<!DOCTYPE svg PUBLIC "-//W3C//DTD SVG 1.1//EN" "http://www.w3.org/Graphics/SVG/1.1/DTD/svg11.dtd">
<svg xmlns="http://www.w3.org/2000/svg" version="1.1" width="512px" height="512px" style="shape-rendering:geometricPrecision; text-rendering:geometricPrecision; image-rendering:optimizeQuality; fill-rule:evenodd; clip-rule:evenodd" xmlns:xlink="http://www.w3.org/1999/xlink">
<g><path style="opacity:0.965" fill="#010101" d="M 249.5,-0.5 C 253.5,-0.5 257.5,-0.5 261.5,-0.5C 265.008,1.19065 268.175,3.52399 271,6.5C 274.373,12.7479 277.873,18.9145 281.5,25C 288.563,25.16 295.563,25.8267 302.5,27C 311.772,32.1196 315.272,39.9529 313,50.5C 309.503,57.4982 305.503,64.1648 301,70.5C 300.077,72.0344 299.577,73.701 299.5,75.5C 301.151,82.1039 302.484,88.7706 303.5,95.5C 301.217,109.481 293.217,115.814 279.5,114.5C 299.667,148.167 319.833,181.833 340,215.5C 342.238,223.512 339.738,229.345 332.5,233C 281.167,233.667 229.833,233.667 178.5,233C 171.262,229.345 168.762,223.512 171,215.5C 179.333,201.5 187.667,187.5 196,173.5C 198.769,169.767 202.269,168.767 206.5,170.5C 209.651,173.136 210.818,176.469 210,180.5C 202.374,192.917 194.874,205.417 187.5,218C 204.497,218.5 221.497,218.667 238.5,218.5C 266.835,218.667 295.169,218.5 323.5,218C 309.303,194.328 294.97,170.828 280.5,147.5C 272.693,133.225 264.36,119.225 255.5,105.5C 245.082,122 234.916,138.667 225,155.5C 221.697,157.744 218.197,158.077 214.5,156.5C 211.764,154.142 210.93,151.142 212,147.5C 218.301,136.37 224.801,125.37 231.5,114.5C 217.783,115.814 209.783,109.481 207.5,95.5C 209.166,87.8561 210.333,80.1895 211,72.5C 206.268,65.4273 201.935,58.0939 198,50.5C 195.728,39.9529 199.228,32.1196 208.5,27C 215.437,25.8267 222.437,25.16 229.5,25C 233.127,18.9145 236.627,12.7479 240,6.5C 242.825,3.52399 245.992,1.19065 249.5,-0.5 Z"/></g>
<g><path style="opacity:0.891" fill="#000000" d="M 157.5,12.5 C 164.86,15.0116 171.36,19.0116 177,24.5C 178.285,34.55 174.119,38.05 164.5,35C 160.333,32.1667 156.167,29.3333 152,26.5C 148.739,19.5386 150.573,14.8719 157.5,12.5 Z"/></g>
<g><path style="opacity:0.892" fill="#000000" d="M 352.5,12.5 C 360.264,14.3675 362.431,19.0342 359,26.5C 353.451,30.7312 347.451,34.0645 341,36.5C 334.582,35.008 332.249,31.008 334,24.5C 339.582,19.3835 345.749,15.3835 352.5,12.5 Z"/></g>
<g><path style="opacity:1" fill="#f8e304" d="M 265.5,29.5 C 264.98,33.5358 262.98,36.7025 259.5,39C 252.579,40.2189 245.579,40.8855 238.5,41C 232.264,44.6328 230.431,49.7995 233,56.5C 237.584,63.3324 241.917,70.3324 246,77.5C 246.45,81.1875 246.283,84.8542 245.5,88.5C 240.395,91.8923 235.062,95.059 229.5,98C 227.559,98.7429 225.726,98.5762 224,97.5C 225,88.1667 226,78.8333 227,69.5C 222.73,61.5699 218.064,53.9033 213,46.5C 211.967,43.7825 212.8,41.9492 215.5,41C 222.579,40.8855 229.579,40.2189 236.5,39C 238.96,37.5422 241.127,35.7089 243,33.5C 246,27.8333 249,22.1667 252,16.5C 254.333,13.8333 256.667,13.8333 259,16.5C 261.193,20.8864 263.36,25.2198 265.5,29.5 Z"/></g>
<g><path style="opacity:1" fill="#fcee55" d="M 265.5,29.5 C 267.979,34.1434 271.645,37.6434 276.5,40C 283.669,41.0724 290.836,41.9057 298,42.5C 298.667,43.8333 298.667,45.1667 298,46.5C 292.936,53.9033 288.27,61.5699 284,69.5C 284.681,78.8811 285.681,88.2144 287,97.5C 285.274,98.5762 283.441,98.7429 281.5,98C 274.414,93.7905 267.081,90.1238 259.5,87C 254.707,86.3491 250.041,86.8491 245.5,88.5C 246.283,84.8542 246.45,81.1875 246,77.5C 241.917,70.3324 237.584,63.3324 233,56.5C 230.431,49.7995 232.264,44.6328 238.5,41C 245.579,40.8855 252.579,40.2189 259.5,39C 262.98,36.7025 264.98,33.5358 265.5,29.5 Z"/></g>
<g><path style="opacity:0.888" fill="#000000" d="M 136.5,57.5 C 143.175,57.3337 149.842,57.5004 156.5,58C 163.401,63.4201 163.067,68.4201 155.5,73C 148.418,73.8842 141.418,73.5508 134.5,72C 130.128,66.4079 130.794,61.5746 136.5,57.5 Z"/></g>
<g><path style="opacity:0.89" fill="#000000" d="M 354.5,57.5 C 361.947,57.0714 369.281,57.5714 376.5,59C 379.848,62.4186 380.348,66.252 378,70.5C 376.829,71.8932 375.329,72.7265 373.5,73C 370.5,73.1667 367.5,73.3333 364.5,73.5C 356.93,75.2201 351.93,72.5535 349.5,65.5C 349.71,61.8048 351.377,59.1381 354.5,57.5 Z"/></g>
<g><path style="opacity:0.894" fill="#000000" d="M 165.5,96.5 C 174.791,94.7017 178.624,98.3684 177,107.5C 172.361,112.417 166.861,116.25 160.5,119C 152.292,119.452 149.125,115.619 151,107.5C 155.632,103.449 160.466,99.782 165.5,96.5 Z"/></g>
<g><path style="opacity:0.894" fill="#000000" d="M 337.5,96.5 C 346.42,97.0421 353.92,100.709 360,107.5C 361.875,115.619 358.708,119.452 350.5,119C 344.139,116.25 338.639,112.417 334,107.5C 332.663,102.872 333.83,99.2054 337.5,96.5 Z"/></g>
<g><path style="opacity:1" fill="#61d9f9" d="M 280.5,147.5 C 266.237,171.029 252.237,194.696 238.5,218.5C 221.497,218.667 204.497,218.5 187.5,218C 194.874,205.417 202.374,192.917 210,180.5C 210.818,176.469 209.651,173.136 206.5,170.5C 209.594,166.074 212.261,161.407 214.5,156.5C 218.197,158.077 221.697,157.744 225,155.5C 234.916,138.667 245.082,122 255.5,105.5C 264.36,119.225 272.693,133.225 280.5,147.5 Z"/></g>
<g><path style="opacity:1" fill="#98e4fa" d="M 280.5,147.5 C 294.97,170.828 309.303,194.328 323.5,218C 295.169,218.5 266.835,218.667 238.5,218.5C 252.237,194.696 266.237,171.029 280.5,147.5 Z"/></g>
<g><path style="opacity:0.952" fill="#000100" d="M 340.5,375.5 C 341.326,372.193 343.326,369.859 346.5,368.5C 368.843,368.833 391.177,368.5 413.5,367.5C 413.376,366.893 413.043,366.56 412.5,366.5C 392.178,332.528 371.845,298.528 351.5,264.5C 304.505,263.5 257.505,263.167 210.5,263.5C 193.487,263.167 176.487,263.501 159.5,264.5C 139.155,298.528 118.822,332.528 98.5,366.5C 97.9569,366.56 97.6236,366.893 97.5,367.5C 171.164,368.5 244.83,368.833 318.5,368.5C 322.129,369.417 324.129,371.75 324.5,375.5C 324.673,379.17 323.007,381.67 319.5,383C 243.167,383.667 166.833,383.667 90.5,383C 80.295,378.669 77.795,371.503 83,361.5C 104.252,326.666 125.252,291.666 146,256.5C 148.558,251.271 152.725,248.438 158.5,248C 223.167,247.333 287.833,247.333 352.5,248C 358.275,248.438 362.442,251.271 365,256.5C 386.667,292.833 408.333,329.167 430,365.5C 431.904,374.198 428.737,380.032 420.5,383C 395.833,383.667 371.167,383.667 346.5,383C 342.952,381.738 340.952,379.238 340.5,375.5 Z"/></g>
<g><path style="opacity:1" fill="#96d97a" d="M 210.5,263.5 C 189.833,298.167 169.167,332.833 148.5,367.5C 131.658,367.83 114.992,367.497 98.5,366.5C 118.822,332.528 139.155,298.528 159.5,264.5C 176.487,263.501 193.487,263.167 210.5,263.5 Z"/></g>
<g><path style="opacity:1" fill="#ace093" d="M 210.5,263.5 C 257.505,263.167 304.505,263.5 351.5,264.5C 371.845,298.528 392.178,332.528 412.5,366.5C 390.5,367.167 368.5,367.833 346.5,368.5C 343.326,369.859 341.326,372.193 340.5,375.5C 335.167,375.5 329.833,375.5 324.5,375.5C 324.129,371.75 322.129,369.417 318.5,368.5C 262.002,367.501 205.336,367.168 148.5,367.5C 169.167,332.833 189.833,298.167 210.5,263.5 Z"/></g>
<g><path style="opacity:1" fill="#435939" d="M 98.5,366.5 C 114.992,367.497 131.658,367.83 148.5,367.5C 205.336,367.168 262.002,367.501 318.5,368.5C 244.83,368.833 171.164,368.5 97.5,367.5C 97.6236,366.893 97.9569,366.56 98.5,366.5 Z"/></g>
<g><path style="opacity:1" fill="#455a3b" d="M 412.5,366.5 C 413.043,366.56 413.376,366.893 413.5,367.5C 391.177,368.5 368.843,368.833 346.5,368.5C 368.5,367.833 390.5,367.167 412.5,366.5 Z"/></g>
<g><path style="opacity:0.979" fill="#000000" d="M 145.5,404.5 C 144.945,407.787 143.278,410.287 140.5,412C 116.996,412.168 93.6631,412.668 70.5,413.5C 53.7334,440.853 37.0667,468.353 20.5,496C 37.4967,496.5 54.4967,496.667 71.5,496.5C 211.167,496.667 350.834,496.5 490.5,496C 473.833,468.333 457.167,440.667 440.5,413C 348.833,412.667 257.167,412.333 165.5,412C 162.976,410.117 161.642,407.617 161.5,404.5C 161.744,401.737 163.077,399.571 165.5,398C 258.833,397.333 352.167,397.333 445.5,398C 449.146,399.076 451.98,401.243 454,404.5C 471.667,434.167 489.333,463.833 507,493.5C 509.101,501.611 506.601,507.611 499.5,511.5C 336.833,511.5 174.167,511.5 11.5,511.5C 4.39865,507.611 1.89865,501.611 4,493.5C 22.331,462.167 41.1643,431.167 60.5,400.5C 61.9122,399.194 63.5789,398.36 65.5,398C 90.5,397.333 115.5,397.333 140.5,398C 143.495,399.164 145.161,401.331 145.5,404.5 Z"/></g>
<g><path style="opacity:1" fill="#fb7f86" d="M 145.5,404.5 C 150.833,404.5 156.167,404.5 161.5,404.5C 161.642,407.617 162.976,410.117 165.5,412C 257.167,412.333 348.833,412.667 440.5,413C 457.167,440.667 473.833,468.333 490.5,496C 350.834,496.5 211.167,496.667 71.5,496.5C 87.4327,468.808 103.766,441.308 120.5,414C 103.837,413.5 87.17,413.333 70.5,413.5C 93.6631,412.668 116.996,412.168 140.5,412C 143.278,410.287 144.945,407.787 145.5,404.5 Z"/></g>
<g><path style="opacity:1" fill="#fd636e" d="M 70.5,413.5 C 87.17,413.333 103.837,413.5 120.5,414C 103.766,441.308 87.4327,468.808 71.5,496.5C 54.4967,496.667 37.4967,496.5 20.5,496C 37.0667,468.353 53.7334,440.853 70.5,413.5 Z"/></g>
</svg>
