<?xml version="1.0" encoding="UTF-8"?>
<!DOCTYPE svg PUBLIC "-//W3C//DTD SVG 1.1//EN" "http://www.w3.org/Graphics/SVG/1.1/DTD/svg11.dtd">
<svg xmlns="http://www.w3.org/2000/svg" version="1.1" width="512px" height="512px" style="shape-rendering:geometricPrecision; text-rendering:geometricPrecision; image-rendering:optimizeQuality; fill-rule:evenodd; clip-rule:evenodd" xmlns:xlink="http://www.w3.org/1999/xlink">
<g><path style="opacity:0.994" fill="#465b65" d="M 84.5,98.5 C 85.4349,101.113 85.6015,103.779 85,106.5C 47.8146,151.89 30.3146,203.89 32.5,262.5C 37.218,349.323 77.5513,413.489 153.5,455C 161.716,458.941 170.049,462.608 178.5,466C 183.274,467.361 186.774,465.861 189,461.5C 189.5,452.173 189.666,442.839 189.5,433.5C 149.271,439.151 122.104,423.151 108,385.5C 105.333,381.5 102.667,377.5 100,373.5C 92.7055,367.874 85.7055,361.874 79,355.5C 74.6823,346.629 77.1823,340.463 86.5,337C 100.779,335.205 113.446,338.872 124.5,348C 133.072,357.815 141.405,367.815 149.5,378C 162.464,386.61 176.131,387.777 190.5,381.5C 192.44,375.348 194.773,369.348 197.5,363.5C 184.603,360.257 171.936,356.09 159.5,351C 130.382,336.871 111.882,314.038 104,282.5C 99.8956,264.377 98.5622,246.044 100,227.5C 102.74,208.193 110.24,191.026 122.5,176C 116.111,154.3 117.611,133.133 127,112.5C 129.869,109.114 133.536,107.781 138,108.5C 152.306,109.491 165.806,113.324 178.5,120C 185.33,124.498 192.496,128.331 200,131.5C 228.55,125.294 257.384,123.794 286.5,127C 294.912,128.516 303.246,130.349 311.5,132.5C 324.809,123.375 339.143,116.209 354.5,111C 362.377,108.818 370.377,108.152 378.5,109C 380.848,109.346 382.681,110.513 384,112.5C 393.267,133.148 394.767,154.315 388.5,176C 405.97,197.363 413.47,221.863 411,249.5C 410.843,277.637 402.509,302.97 386,325.5C 375.442,337.054 362.942,345.888 348.5,352C 336.745,356.419 324.745,359.919 312.5,362.5C 317.016,370.216 319.849,378.55 321,387.5C 321.333,412.167 321.667,436.833 322,461.5C 323.085,464.25 325.085,465.917 328,466.5C 400.347,439.488 448.014,389.154 471,315.5C 487.49,252.929 479.156,193.929 446,138.5C 442.021,132.033 437.521,126.033 432.5,120.5C 409.138,89.9601 379.805,66.7934 344.5,51C 288.245,27.4608 231.245,25.4608 173.5,45C 162.102,49.5323 151.102,54.8657 140.5,61C 137.319,61.5971 134.319,61.0971 131.5,59.5C 128.646,54.8127 128.98,50.3127 132.5,46C 182.916,18.519 236.583,9.18566 293.5,18C 368.948,31.4417 426.115,70.9417 465,136.5C 499.37,200.686 505.037,267.353 482,336.5C 450.224,418.279 391.724,469.445 306.5,490C 220.69,507.432 146.19,486.265 83,426.5C 26.9902,365.107 5.65683,293.107 19,210.5C 26.9347,168.31 44.2681,130.643 71,97.5C 75.8237,94.5853 80.3237,94.9186 84.5,98.5 Z"/></g>
<g><path style="opacity:0.996" fill="#fcfcfd" d="M 432.5,120.5 C 372.581,60.4752 300.581,37.6419 216.5,52C 133.641,71.8609 76.4744,121.361 45,200.5C 37.6568,220.538 33.4901,241.204 32.5,262.5C 30.3146,203.89 47.8146,151.89 85,106.5C 85.6015,103.779 85.4349,101.113 84.5,98.5C 91.1667,91.1667 98.1667,84.1667 105.5,77.5C 111.428,82.081 116.261,81.081 120,74.5C 120.556,72.1152 120.39,69.7819 119.5,67.5C 122.803,63.8442 126.803,61.1775 131.5,59.5C 134.319,61.0971 137.319,61.5971 140.5,61C 151.102,54.8657 162.102,49.5323 173.5,45C 231.245,25.4608 288.245,27.4608 344.5,51C 379.805,66.7934 409.138,89.9601 432.5,120.5 Z"/></g>
<g><path style="opacity:1" fill="#7fd7fe" d="M 432.5,120.5 C 437.521,126.033 442.021,132.033 446,138.5C 479.156,193.929 487.49,252.929 471,315.5C 448.014,389.154 400.347,439.488 328,466.5C 325.085,465.917 323.085,464.25 322,461.5C 321.667,436.833 321.333,412.167 321,387.5C 319.849,378.55 317.016,370.216 312.5,362.5C 324.745,359.919 336.745,356.419 348.5,352C 362.942,345.888 375.442,337.054 386,325.5C 402.509,302.97 410.843,277.637 411,249.5C 413.47,221.863 405.97,197.363 388.5,176C 394.767,154.315 393.267,133.148 384,112.5C 382.681,110.513 380.848,109.346 378.5,109C 370.377,108.152 362.377,108.818 354.5,111C 339.143,116.209 324.809,123.375 311.5,132.5C 303.246,130.349 294.912,128.516 286.5,127C 257.384,123.794 228.55,125.294 200,131.5C 192.496,128.331 185.33,124.498 178.5,120C 165.806,113.324 152.306,109.491 138,108.5C 133.536,107.781 129.869,109.114 127,112.5C 117.611,133.133 116.111,154.3 122.5,176C 110.24,191.026 102.74,208.193 100,227.5C 98.5622,246.044 99.8956,264.377 104,282.5C 111.882,314.038 130.382,336.871 159.5,351C 171.936,356.09 184.603,360.257 197.5,363.5C 194.773,369.348 192.44,375.348 190.5,381.5C 176.131,387.777 162.464,386.61 149.5,378C 141.405,367.815 133.072,357.815 124.5,348C 113.446,338.872 100.779,335.205 86.5,337C 77.1823,340.463 74.6823,346.629 79,355.5C 85.7055,361.874 92.7055,367.874 100,373.5C 102.667,377.5 105.333,381.5 108,385.5C 122.104,423.151 149.271,439.151 189.5,433.5C 189.666,442.839 189.5,452.173 189,461.5C 186.774,465.861 183.274,467.361 178.5,466C 170.049,462.608 161.716,458.941 153.5,455C 77.5513,413.489 37.218,349.323 32.5,262.5C 33.4901,241.204 37.6568,220.538 45,200.5C 76.4744,121.361 133.641,71.8609 216.5,52C 300.581,37.6419 372.581,60.4752 432.5,120.5 Z"/></g>
<g><path style="opacity:0.978" fill="#495d67" d="M 119.5,67.5 C 120.39,69.7819 120.556,72.1152 120,74.5C 116.261,81.081 111.428,82.081 105.5,77.5C 101.88,70.0715 104.213,65.4049 112.5,63.5C 115.349,64.0864 117.682,65.4197 119.5,67.5 Z"/></g>
<g><path style="opacity:1" fill="#fefefe" d="M 139.5,124.5 C 159.556,127.696 177.556,135.53 193.5,148C 194.667,148.167 195.833,148.333 197,148.5C 223.441,141.84 250.274,139.673 277.5,142C 287.984,143.247 298.318,145.247 308.5,148C 311.167,148.667 313.833,148.667 316.5,148C 331.17,137.666 347.17,129.999 364.5,125C 367.099,124.231 369.599,124.398 372,125.5C 374.786,133.431 376.286,141.598 376.5,150C 375.627,160.674 374.127,171.174 372,181.5C 391.211,202.831 398.878,227.831 395,256.5C 393.655,279.889 385.655,300.555 371,318.5C 361.568,327.471 350.735,334.304 338.5,339C 324.472,343.539 310.139,346.539 295.5,348C 290.879,350.077 289.045,353.577 290,358.5C 298.181,366.862 303.181,376.862 305,388.5C 305.333,413.5 305.667,438.5 306,463.5C 306.353,466.539 307.52,469.205 309.5,471.5C 278.614,479.7 247.28,481.533 215.5,477C 210.317,476.298 205.317,474.964 200.5,473C 202.936,470.293 204.436,467.127 205,463.5C 205.967,448.407 205.633,433.407 204,418.5C 202.014,416.258 199.514,415.258 196.5,415.5C 178.007,420.964 160.34,419.13 143.5,410C 139.701,407.203 136.201,404.036 133,400.5C 127.444,388.386 121.11,376.719 114,365.5C 110.167,361.667 106.333,357.833 102.5,354C 105.623,354.721 108.623,356.054 111.5,358C 119.141,365.302 125.641,373.469 131,382.5C 151.886,403.508 175.72,407.341 202.5,394C 203.333,393.167 204.167,392.333 205,391.5C 206.537,379.427 211.537,369.093 220,360.5C 222.601,355.498 221.434,351.665 216.5,349C 143.242,342.383 109.742,302.217 116,228.5C 117.678,217.466 121.345,207.132 127,197.5C 131.246,192.009 135.246,186.342 139,180.5C 136.744,170.531 135.244,160.364 134.5,150C 134.983,141.242 136.649,132.742 139.5,124.5 Z"/></g>
</svg>
