<?xml version="1.0" encoding="UTF-8"?>
<!DOCTYPE svg PUBLIC "-//W3C//DTD SVG 1.1//EN" "http://www.w3.org/Graphics/SVG/1.1/DTD/svg11.dtd">
<svg xmlns="http://www.w3.org/2000/svg" version="1.1" width="512px" height="512px" style="shape-rendering:geometricPrecision; text-rendering:geometricPrecision; image-rendering:optimizeQuality; fill-rule:evenodd; clip-rule:evenodd" xmlns:xlink="http://www.w3.org/1999/xlink">
<g><path style="opacity:0.994" fill="#000000" d="M 511.5,351.5 C 511.5,391.5 511.5,431.5 511.5,471.5C 507.682,484.15 499.349,492.317 486.5,496C 409.167,496.667 331.833,496.667 254.5,496C 242.973,492.828 235.14,485.661 231,474.5C 229.542,457.236 229.042,439.903 229.5,422.5C 214.83,422.667 200.163,422.5 185.5,422C 181.345,420.189 179.345,417.023 179.5,412.5C 179.988,408.152 182.321,404.985 186.5,403C 200.829,402.5 215.163,402.333 229.5,402.5C 229.07,384.786 229.57,367.119 231,349.5C 234.833,339 242,331.833 252.5,328C 297.44,326.515 342.44,326.015 387.5,326.5C 387.5,293.833 387.5,261.167 387.5,228.5C 345.5,228.5 303.5,228.5 261.5,228.5C 257.515,249.988 245.515,265.154 225.5,274C 195.697,283.345 171.531,275.511 153,250.5C 148.996,243.653 146.496,236.32 145.5,228.5C 103.5,228.5 61.5,228.5 19.5,228.5C 19.3333,278.501 19.5,328.501 20,378.5C 22.6647,389.333 29.1647,396.833 39.5,401C 61.1162,402.289 82.7829,402.956 104.5,403C 109.18,404.555 111.847,407.722 112.5,412.5C 112.608,417.021 110.608,420.188 106.5,422C 82.7833,422.959 59.1167,422.626 35.5,421C 16.373,414.71 4.37298,401.877 -0.5,382.5C -0.5,273.167 -0.5,163.833 -0.5,54.5C 4.98567,33.5149 18.319,20.3483 39.5,15C 148.833,14.3333 258.167,14.3333 367.5,15C 388.667,20.1667 401.833,33.3333 407,54.5C 407.5,144.833 407.667,235.166 407.5,325.5C 433.867,325.065 460.2,325.565 486.5,327C 499.349,330.683 507.682,338.85 511.5,351.5 Z"/></g>
<g><path style="opacity:1" fill="#fe7c94" d="M 43.5,34.5 C 150.167,34.3333 256.834,34.5 363.5,35C 376.009,38.1755 383.842,46.0088 387,58.5C 387.5,108.499 387.667,158.499 387.5,208.5C 345.5,208.5 303.5,208.5 261.5,208.5C 256.687,182.517 241.354,166.35 215.5,160C 183.199,156.065 160.366,168.899 147,198.5C 145.957,201.757 145.457,205.09 145.5,208.5C 103.5,208.5 61.5,208.5 19.5,208.5C 19.3333,158.499 19.5,108.499 20,58.5C 23.349,45.9853 31.1824,37.9853 43.5,34.5 Z"/></g>
<g><path style="opacity:1" fill="#fcfcfc" d="M 197.5,178.5 C 221.722,177.907 236.889,189.24 243,212.5C 243.961,237.196 232.461,252.363 208.5,258C 191.372,259.353 178.206,252.853 169,238.5C 158.966,216.282 163.799,198.116 183.5,184C 188.159,181.842 192.825,180.009 197.5,178.5 Z"/></g>
<g><path style="opacity:1" fill="#fe7c94" d="M 179.5,412.5 C 171.5,412.5 163.5,412.5 155.5,412.5C 152.984,402.909 147.318,400.409 138.5,405C 136.501,407.255 135.168,409.755 134.5,412.5C 127.167,412.5 119.833,412.5 112.5,412.5C 111.847,407.722 109.18,404.555 104.5,403C 82.7829,402.956 61.1162,402.289 39.5,401C 29.1647,396.833 22.6647,389.333 20,378.5C 19.5,328.501 19.3333,278.501 19.5,228.5C 61.5,228.5 103.5,228.5 145.5,228.5C 146.496,236.32 148.996,243.653 153,250.5C 171.531,275.511 195.697,283.345 225.5,274C 245.515,265.154 257.515,249.988 261.5,228.5C 303.5,228.5 345.5,228.5 387.5,228.5C 387.5,261.167 387.5,293.833 387.5,326.5C 342.44,326.015 297.44,326.515 252.5,328C 242,331.833 234.833,339 231,349.5C 229.57,367.119 229.07,384.786 229.5,402.5C 215.163,402.333 200.829,402.5 186.5,403C 182.321,404.985 179.988,408.152 179.5,412.5 Z"/></g>
<g><path style="opacity:1" fill="#88db8d" d="M 258.5,346.5 C 333.891,346.009 409.224,346.509 484.5,348C 487.462,350.287 489.629,353.12 491,356.5C 491.667,393.167 491.667,429.833 491,466.5C 489.167,471 486,474.167 481.5,476C 406.443,476.991 331.443,476.657 256.5,475C 253.567,472.736 251.4,469.902 250,466.5C 249.333,429.5 249.333,392.5 250,355.5C 252.362,351.973 255.196,348.973 258.5,346.5 Z"/></g>
<g><path style="opacity:1" fill="#020302" d="M 307.5,369.5 C 317.754,368.326 327.42,370.159 336.5,375C 344.078,379.635 345.411,385.635 340.5,393C 338.487,394.257 336.321,395.091 334,395.5C 330.338,394.42 326.838,392.92 323.5,391C 305.666,387.421 295,394.588 291.5,412.5C 292.458,427.291 300.292,435.291 315,436.5C 323.483,436.343 329.317,432.343 332.5,424.5C 328.878,423.675 325.211,423.175 321.5,423C 315.418,419.998 313.251,415.165 315,408.5C 316.5,407 318,405.5 319.5,404C 354.073,396.33 363.239,408.164 347,439.5C 337.045,453.379 323.545,458.879 306.5,456C 282.12,448.601 270.62,432.101 272,406.5C 274.198,394.663 280.031,385.163 289.5,378C 295.208,374.31 301.208,371.477 307.5,369.5 Z"/></g>
<g><path style="opacity:1" fill="#040604" d="M 378.5,369.5 C 385.206,368.559 389.706,371.225 392,377.5C 392.667,401.167 392.667,424.833 392,448.5C 388.966,455.734 383.799,457.901 376.5,455C 374.951,453.786 373.785,452.286 373,450.5C 372.333,425.5 372.333,400.5 373,375.5C 374.36,372.977 376.193,370.977 378.5,369.5 Z"/></g>
<g><path style="opacity:1" fill="#020302" d="M 417.5,369.5 C 432.572,369.049 447.572,369.549 462.5,371C 469.822,378.404 468.822,384.404 459.5,389C 455.848,389.499 452.182,389.665 448.5,389.5C 448.667,409.503 448.5,429.503 448,449.5C 445.071,456.036 440.237,457.869 433.5,455C 431.19,453.363 429.69,451.196 429,448.5C 428.5,428.836 428.333,409.169 428.5,389.5C 424.486,389.666 420.486,389.499 416.5,389C 408.21,381.913 408.543,375.413 417.5,369.5 Z"/></g>
<g><path style="opacity:0.953" fill="#050202" d="M 155.5,412.5 C 154.07,422.373 148.737,425.206 139.5,421C 136.452,418.944 134.786,416.111 134.5,412.5C 135.168,409.755 136.501,407.255 138.5,405C 147.318,400.409 152.984,402.909 155.5,412.5 Z"/></g>
</svg>
