<?xml version="1.0" encoding="UTF-8"?>
<!DOCTYPE svg PUBLIC "-//W3C//DTD SVG 1.1//EN" "http://www.w3.org/Graphics/SVG/1.1/DTD/svg11.dtd">
<svg xmlns="http://www.w3.org/2000/svg" version="1.1" width="512px" height="512px" style="shape-rendering:geometricPrecision; text-rendering:geometricPrecision; image-rendering:optimizeQuality; fill-rule:evenodd; clip-rule:evenodd" xmlns:xlink="http://www.w3.org/1999/xlink">
<g><path style="opacity:1" fill="#1f1742" d="M 474.5,208.5 C 474.42,211.781 475.087,214.781 476.5,217.5C 488.356,298.438 464.689,366.938 405.5,423C 342.671,475.705 271.337,491.705 191.5,471C 110.608,444.774 59.1076,390.608 37,308.5C 21.6629,237.871 35.6629,173.871 79,116.5C 82.6695,111.664 86.8362,107.331 91.5,103.5C 95.8333,99.8333 99.8333,95.8333 103.5,91.5C 140.25,57.1361 183.917,37.3028 234.5,32C 329.377,26.6822 401.544,64.1822 451,144.5C 462.308,164.595 470.142,185.928 474.5,208.5 Z"/></g>
<g><path style="opacity:1" fill="#8ab841" d="M 240.5,63.5 C 244.106,63.2108 247.606,63.5442 251,64.5C 258.003,81.8436 264.003,99.5102 269,117.5C 271.916,148.487 261.082,173.321 236.5,192C 231.657,193.214 227.49,192.047 224,188.5C 213.55,168.523 197.05,160.023 174.5,163C 169.669,164.61 165.003,166.61 160.5,169C 141.852,188.658 119.185,200.992 92.5,206C 84.8583,207.597 77.1916,207.763 69.5,206.5C 90.6316,136.868 135.965,91.3685 205.5,70C 217.153,66.9673 228.82,64.8006 240.5,63.5 Z"/></g>
<g><path style="opacity:1" fill="#5d9cd4" d="M 286.5,66.5 C 337.559,75.0168 378.559,99.8501 409.5,141C 397.313,145.016 388.48,152.85 383,164.5C 378.593,185.2 373.926,205.866 369,226.5C 368.167,227.333 367.333,228.167 366.5,229C 344.498,235.254 325.665,246.754 310,263.5C 298.074,277.692 290.741,294.025 288,312.5C 287.967,334.23 287.301,355.897 286,377.5C 284.749,380.381 282.583,382.214 279.5,383C 259.672,383.175 245.172,392.008 236,409.5C 232.401,420.798 228.901,432.131 225.5,443.5C 209.582,442.521 194.249,438.687 179.5,432C 99.6188,393.129 60.9522,328.962 63.5,239.5C 108.74,241.262 147.406,226.428 179.5,195C 183.261,194.262 186.928,194.595 190.5,196C 194.738,202.908 199.738,209.241 205.5,215C 224.997,228.155 243.997,227.488 262.5,213C 296.454,180.806 307.954,141.973 297,96.5C 293.39,86.5025 289.89,76.5025 286.5,66.5 Z"/></g>
<g><path style="opacity:0.976" fill="#47585f" d="M 103.5,91.5 C 99.8333,95.8333 95.8333,99.8333 91.5,103.5C 94.5,98.5 98.5,94.5 103.5,91.5 Z"/></g>
<g><path style="opacity:1" fill="#8ab941" d="M 420.5,170.5 C 422.924,170.192 425.257,170.526 427.5,171.5C 452.619,224.127 454.119,277.461 432,331.5C 397.135,404.15 339.302,442.817 258.5,447.5C 260.149,439.382 262.316,431.382 265,423.5C 266.105,420.063 268.272,417.563 271.5,416C 297.97,415.379 313.804,402.212 319,376.5C 319.333,356.167 319.667,335.833 320,315.5C 324.714,292.23 337.881,275.73 359.5,266C 367.662,263.057 375.662,259.724 383.5,256C 391.216,250.95 396.716,244.117 400,235.5C 404.318,216.23 408.318,196.897 412,177.5C 413.851,173.843 416.684,171.51 420.5,170.5 Z"/></g>
<g><path style="opacity:0.863" fill="#495e5b" d="M 474.5,208.5 C 475.913,211.219 476.58,214.219 476.5,217.5C 475.087,214.781 474.42,211.781 474.5,208.5 Z"/></g>
</svg>
