<?xml version="1.0" encoding="UTF-8"?>
<!DOCTYPE svg PUBLIC "-//W3C//DTD SVG 1.1//EN" "http://www.w3.org/Graphics/SVG/1.1/DTD/svg11.dtd">
<svg xmlns="http://www.w3.org/2000/svg" version="1.1" width="512px" height="512px" style="shape-rendering:geometricPrecision; text-rendering:geometricPrecision; image-rendering:optimizeQuality; fill-rule:evenodd; clip-rule:evenodd" xmlns:xlink="http://www.w3.org/1999/xlink">
<g><path style="opacity:0.987" fill="#010000" d="M 310.5,-0.5 C 313.5,-0.5 316.5,-0.5 319.5,-0.5C 322.284,1.55197 323.95,4.3853 324.5,8C 317.915,27.3485 315.582,47.1819 317.5,67.5C 329.171,67.6665 340.838,67.4999 352.5,67C 362.501,53.6786 375.667,45.1786 392,41.5C 395.52,41.9205 398.187,43.5872 400,46.5C 401.211,53.4431 402.044,60.4431 402.5,67.5C 413.52,67.8321 424.52,67.4988 435.5,66.5C 446.187,48.3179 461.187,34.8179 480.5,26C 491.135,22.6354 495.635,26.4687 494,37.5C 488.45,46.9317 484.284,56.9317 481.5,67.5C 489.584,71.3926 496.751,76.7259 503,83.5C 506.511,88.8939 509.345,94.5605 511.5,100.5C 511.5,226.5 511.5,352.5 511.5,478.5C 506.167,495.167 495.167,506.167 478.5,511.5C 329.833,511.5 181.167,511.5 32.5,511.5C 15.8333,506.167 4.83333,495.167 -0.5,478.5C -0.5,352.5 -0.5,226.5 -0.5,100.5C 4.44954,85.0488 14.4495,74.2155 29.5,68C 25.5792,52.9864 18.4125,39.8197 8,28.5C 6.43146,23.3747 7.93146,19.5414 12.5,17C 49.6226,17.7933 76.7893,34.6266 94,67.5C 104.574,47.4618 120.407,33.2951 141.5,25C 150.492,24.3275 154.325,28.4942 153,37.5C 146.9,46.6992 142.733,56.6992 140.5,67.5C 157.833,67.5 175.167,67.5 192.5,67.5C 191.468,53.5687 186.968,40.9021 179,29.5C 176.847,21.1087 180.014,16.7753 188.5,16.5C 217.406,20.3654 238.906,35.0321 253,60.5C 263.785,32.2161 282.952,11.8827 310.5,-0.5 Z"/></g>
<g><path style="opacity:1" fill="#8ca700" d="M 301.5,76.5 C 295.833,76.5 290.167,76.5 284.5,76.5C 283.138,65.7304 282.138,55.0637 281.5,44.5C 286.834,37.0002 293.334,30.6669 301,25.5C 298.836,42.4789 299.003,59.4789 301.5,76.5 Z"/></g>
<g><path style="opacity:1" fill="#8da800" d="M 76.5,72.5 C 75.6091,73.2613 74.9424,74.2613 74.5,75.5C 70.2172,76.4922 65.8839,76.8256 61.5,76.5C 58.0034,66.0099 52.3368,56.8432 44.5,49C 43.184,48.4719 42.5173,48.9719 42.5,50.5C 40.5459,46.5919 38.5459,42.5919 36.5,38.5C 54.2172,44.1828 67.5505,55.5161 76.5,72.5 Z"/></g>
<g><path style="opacity:1" fill="#a2c200" d="M 281.5,44.5 C 282.138,55.0637 283.138,65.7304 284.5,76.5C 290.167,76.5 295.833,76.5 301.5,76.5C 303.473,84.587 306.14,92.4203 309.5,100C 320.802,103.199 325.135,99.0323 322.5,87.5C 325.428,86.1803 328.761,85.5136 332.5,85.5C 336.018,85.5016 339.351,85.8349 342.5,86.5C 338.776,96.5745 342.11,101.408 352.5,101C 353.931,100.535 355.097,99.7014 356,98.5C 358.541,90.4144 362.375,83.0811 367.5,76.5C 373.5,76.5 379.5,76.5 385.5,76.5C 387.864,83.4177 390.364,90.4177 393,97.5C 398,102.833 403,102.833 408,97.5C 408.659,94.1119 408.492,90.7786 407.5,87.5C 410.428,86.1803 413.761,85.5136 417.5,85.5C 421.018,85.5016 424.351,85.8349 427.5,86.5C 424.165,97.9881 428.165,102.488 439.5,100C 440.333,99.1667 441.167,98.3333 442,97.5C 444.014,90.622 446.514,83.9554 449.5,77.5C 454.116,77.4665 457.782,79.1331 460.5,82.5C 460.103,87.9586 460.603,93.2919 462,98.5C 466.243,102.081 470.743,102.415 475.5,99.5C 476.09,100.766 476.59,102.099 477,103.5C 477.667,117.5 477.667,131.5 477,145.5C 472.62,150.211 468.62,155.211 465,160.5C 463.871,162.141 462.371,163.141 460.5,163.5C 452.499,155.356 444.833,146.856 437.5,138C 420.533,127.461 405.533,129.794 392.5,145C 387.768,147.401 382.768,148.068 377.5,147C 373.534,144.036 369.867,140.703 366.5,137C 353.876,129.358 341.543,129.691 329.5,138C 322.068,146.855 314.402,155.521 306.5,164C 301.468,167.232 296.468,167.232 291.5,164C 279.101,148.816 264.101,145.483 246.5,154C 240.468,159.698 234.801,165.698 229.5,172C 224.167,175.333 218.833,175.333 213.5,172C 200.722,154.734 185.055,151.401 166.5,162C 159.5,169 152.5,176 145.5,183C 137.083,187.386 129.916,185.886 124,178.5C 111.872,164.036 99.3719,149.87 86.5,136C 69.5302,125.801 54.1969,127.801 40.5,142C 35.8058,143.932 31.1391,143.932 26.5,142C 23.6511,138.984 20.6511,136.15 17.5,133.5C 16.3345,123.851 16.1679,114.184 17,104.5C 19.4813,96.1855 24.648,90.1855 32.5,86.5C 32.8627,91.3349 34.196,95.8349 36.5,100C 42.1338,102.776 46.6338,101.609 50,96.5C 50.3868,80.7095 47.8868,65.3762 42.5,50.5C 42.5173,48.9719 43.184,48.4719 44.5,49C 52.3368,56.8432 58.0034,66.0099 61.5,76.5C 65.8839,76.8256 70.2172,76.4922 74.5,75.5C 74.9424,74.2613 75.6091,73.2613 76.5,72.5C 80.8775,81.1281 84.3775,90.1281 87,99.5C 91.591,102.367 95.9244,102.034 100,98.5C 102.313,90.7063 105.479,83.373 109.5,76.5C 113.042,76.1872 116.375,76.5206 119.5,77.5C 119.334,84.175 119.5,90.8417 120,97.5C 124.924,102.756 129.924,102.756 135,97.5C 136.367,93.3004 136.867,88.9671 136.5,84.5C 154.167,84.5 171.833,84.5 189.5,84.5C 188.694,87.2854 188.028,90.1187 187.5,93C 188.398,100.125 192.398,102.792 199.5,101C 202.176,99.1604 204.009,96.6604 205,93.5C 210.991,75.0552 210.991,56.7219 205,38.5C 229.306,50.8186 243.639,70.4852 248,97.5C 254.145,103.315 259.478,102.649 264,95.5C 264.372,76.5498 270.205,59.5498 281.5,44.5 Z"/></g>
<g><path style="opacity:1" fill="#88a200" d="M 119.5,77.5 C 116.375,76.5206 113.042,76.1872 109.5,76.5C 112.929,68.8911 117.762,62.2244 124,56.5C 123.138,63.6867 121.638,70.6867 119.5,77.5 Z"/></g>
<g><path style="opacity:1" fill="#87a100" d="M 460.5,82.5 C 457.782,79.1331 454.116,77.4665 449.5,77.5C 454.261,69.6598 459.761,62.3264 466,55.5C 463.992,64.5229 462.158,73.5229 460.5,82.5 Z"/></g>
<g><path style="opacity:1" fill="#8aa500" d="M 385.5,76.5 C 379.5,76.5 373.5,76.5 367.5,76.5C 372.093,70.7836 377.593,66.1169 384,62.5C 385.122,67.1016 385.622,71.7682 385.5,76.5 Z"/></g>
<g><path style="opacity:1" fill="#687d00" d="M 342.5,86.5 C 339.351,85.8349 336.018,85.5016 332.5,85.5C 328.761,85.5136 325.428,86.1803 322.5,87.5C 321.596,86.791 321.263,85.791 321.5,84.5C 328.863,84.1694 336.197,84.5027 343.5,85.5C 343.376,86.1067 343.043,86.44 342.5,86.5 Z"/></g>
<g><path style="opacity:1" fill="#687d00" d="M 427.5,86.5 C 424.351,85.8349 421.018,85.5016 417.5,85.5C 413.761,85.5136 410.428,86.1803 407.5,87.5C 406.596,86.791 406.263,85.791 406.5,84.5C 413.863,84.1694 421.197,84.5027 428.5,85.5C 428.376,86.1067 428.043,86.44 427.5,86.5 Z"/></g>
<g><path style="opacity:1" fill="#8da900" d="M 460.5,163.5 C 462.371,163.141 463.871,162.141 465,160.5C 468.62,155.211 472.62,150.211 477,145.5C 477.667,131.5 477.667,117.5 477,103.5C 476.59,102.099 476.09,100.766 475.5,99.5C 476.861,95.2914 477.861,90.9581 478.5,86.5C 485.196,89.6957 490.029,94.6957 493,101.5C 494.612,115.097 494.945,128.764 494,142.5C 488.178,149.987 482.011,157.153 475.5,164C 470.297,167.346 465.297,167.179 460.5,163.5 Z"/></g>
<g><path style="opacity:1" fill="#fe9701" d="M 475.5,182.5 C 476.833,230.495 477.5,278.829 477.5,327.5C 477.333,375.833 477.167,424.167 477,472.5C 475.889,481.053 472.389,488.386 466.5,494.5C 323.166,494.667 179.833,494.5 36.5,494C 26.5763,490.911 20.243,484.411 17.5,474.5C 17.1672,368.665 17.5005,262.999 18.5,157.5C 29.3981,161.902 40.0648,161.402 50.5,156C 54.1667,153 57.8333,150 61.5,147C 68.449,145.428 74.2823,147.261 79,152.5C 91.4617,167.297 104.295,181.797 117.5,196C 131.032,204.763 144.365,204.429 157.5,195C 164.167,188.333 170.833,181.667 177.5,175C 183.383,171.554 189.05,171.888 194.5,176C 205.772,191.534 220.105,195.2 237.5,187C 244.208,181.959 249.875,175.959 254.5,169C 260.5,165.667 266.5,165.667 272.5,169C 285.761,184.312 301.094,186.646 318.5,176C 326.205,167.963 333.539,159.63 340.5,151C 345.833,147.667 351.167,147.667 356.5,151C 367.471,164.882 381.138,168.548 397.5,162C 403.123,158.045 408.457,153.712 413.5,149C 418.648,147.891 423.315,148.891 427.5,152C 435.154,161.653 443.488,170.653 452.5,179C 459.819,182.125 467.485,183.292 475.5,182.5 Z"/></g>
<g><path style="opacity:1" fill="#ec8d00" d="M 18.5,157.5 C 17.5005,262.999 17.1672,368.665 17.5,474.5C 16.3341,368.334 16.1675,262.001 17,155.5C 17.7172,156.044 18.2172,156.711 18.5,157.5 Z"/></g>
<g><path style="opacity:1" fill="#f37b00" d="M 466.5,494.5 C 472.389,488.386 475.889,481.053 477,472.5C 477.167,424.167 477.333,375.833 477.5,327.5C 477.5,278.829 476.833,230.495 475.5,182.5C 482.843,180.059 489.01,175.725 494,169.5C 494.667,271.167 494.667,372.833 494,474.5C 489.73,487.941 480.563,494.608 466.5,494.5 Z"/></g>
<g><path style="opacity:1" fill="#0c0600" d="M 56.5,178.5 C 64.5228,178.683 68.0228,182.683 67,190.5C 64.4586,195.069 60.6253,196.569 55.5,195C 48.6707,189.003 49.004,183.503 56.5,178.5 Z"/></g>
<g><path style="opacity:1" fill="#040100" d="M 411.5,195.5 C 432.21,194.421 445.376,203.754 451,223.5C 452.994,244.031 444.16,257.197 424.5,263C 399.17,265.004 385.503,253.337 383.5,228C 385.861,211.14 395.195,200.307 411.5,195.5 Z"/></g>
<g><path style="opacity:1" fill="#090400" d="M 260.5,204.5 C 269.181,203.35 273.015,207.017 272,215.5C 267.814,222.538 262.814,223.205 257,217.5C 254.319,212.055 255.485,207.722 260.5,204.5 Z"/></g>
<g><path style="opacity:1" fill="#090400" d="M 38.5,213.5 C 47.1584,212.327 50.9918,215.994 50,224.5C 48.4707,227.934 45.804,229.6 42,229.5C 36.6339,229.306 33.8006,226.472 33.5,221C 33.8311,217.52 35.4978,215.02 38.5,213.5 Z"/></g>
<g><path style="opacity:1" fill="#030100" d="M 111.5,213.5 C 132.508,211.355 143.341,220.688 144,241.5C 140.016,258.756 129.182,265.923 111.5,263C 96.5318,256.563 91.0318,245.396 95,229.5C 98.4377,221.893 103.938,216.56 111.5,213.5 Z"/></g>
<g><path style="opacity:1" fill="#9d502c" d="M 413.5,212.5 C 430.025,213.178 436.525,221.512 433,237.5C 427.305,246.42 419.472,248.92 409.5,245C 401.414,239.408 398.914,231.908 402,222.5C 404.794,217.866 408.627,214.533 413.5,212.5 Z"/></g>
<g><path style="opacity:1" fill="#030100" d="M 196.5,221.5 C 217.35,219.835 231.184,228.835 238,248.5C 240.039,268.105 231.873,281.271 213.5,288C 199.515,291.783 187.682,288.283 178,277.5C 166.71,260.037 168.21,243.87 182.5,229C 187.101,226.202 191.768,223.702 196.5,221.5 Z"/></g>
<g><path style="opacity:1" fill="#0c0600" d="M 303.5,221.5 C 311.498,221 315.331,224.667 315,232.5C 311.025,238.895 306.025,239.895 300,235.5C 297.267,229.722 298.434,225.056 303.5,221.5 Z"/></g>
<g><path style="opacity:1" fill="#9a4f2b" d="M 116.5,229.5 C 124.472,229.636 127.972,233.636 127,241.5C 124.103,246.155 119.937,247.655 114.5,246C 108.799,239.711 109.465,234.211 116.5,229.5 Z"/></g>
<g><path style="opacity:1" fill="#9d502c" d="M 199.5,238.5 C 212.09,237.428 219.423,243.094 221.5,255.5C 218.907,269.801 210.574,274.967 196.5,271C 187.841,265.172 185.341,257.338 189,247.5C 191.468,243.199 194.968,240.199 199.5,238.5 Z"/></g>
<g><path style="opacity:1" fill="#040200" d="M 377.5,272.5 C 403.194,273.027 412.694,285.693 406,310.5C 396.028,324.372 383.528,327.206 368.5,319C 357.851,309.143 355.685,297.643 362,284.5C 366.02,278.919 371.186,274.919 377.5,272.5 Z"/></g>
<g><path style="opacity:1" fill="#9b4f2b" d="M 380.5,289.5 C 389.649,289.156 393.149,293.49 391,302.5C 385.924,307.756 380.924,307.756 376,302.5C 374.243,296.825 375.743,292.492 380.5,289.5 Z"/></g>
<g><path style="opacity:1" fill="#0c0500" d="M 64.5,298.5 C 74.9559,298.435 78.1225,303.101 74,312.5C 68.234,317.013 63.5674,316.013 60,309.5C 58.7758,304.626 60.2758,300.959 64.5,298.5 Z"/></g>
<g><path style="opacity:1" fill="#0c0500" d="M 448.5,298.5 C 458.956,298.435 462.123,303.101 458,312.5C 452.234,317.013 447.567,316.013 444,309.5C 442.776,304.626 444.276,300.959 448.5,298.5 Z"/></g>
<g><path style="opacity:1" fill="#0c0500" d="M 98.5,315.5 C 108.198,315.019 111.698,319.353 109,328.5C 103.186,334.205 98.1857,333.538 94,326.5C 92.7758,321.626 94.2758,317.959 98.5,315.5 Z"/></g>
<g><path style="opacity:1" fill="#0d0600" d="M 423.5,323.5 C 431.523,323.683 435.023,327.683 434,335.5C 431.459,340.069 427.625,341.569 422.5,340C 415.657,334.052 415.991,328.552 423.5,323.5 Z"/></g>
<g><path style="opacity:1" fill="#040200" d="M 62.5,332.5 C 77.8989,331.278 88.0656,337.944 93,352.5C 94.2528,367.588 87.7528,377.754 73.5,383C 52.0305,384.197 41.8638,374.031 43,352.5C 45.6821,341.986 52.1821,335.319 62.5,332.5 Z"/></g>
<g><path style="opacity:1" fill="#9b4f2b" d="M 64.5,349.5 C 73.8741,349.357 77.3741,353.69 75,362.5C 69.5135,368.08 64.5135,367.747 60,361.5C 58.4742,356.239 59.9742,352.239 64.5,349.5 Z"/></g>
<g><path style="opacity:1" fill="#040200" d="M 283.5,349.5 C 310.672,349.172 323.839,362.505 323,389.5C 317.392,410.086 303.892,419.252 282.5,417C 263.038,410.6 254.204,397.1 256,376.5C 259.899,361.996 269.066,352.996 283.5,349.5 Z"/></g>
<g><path style="opacity:1" fill="#9d502c" d="M 284.5,366.5 C 299.854,365.355 307.021,372.355 306,387.5C 302.444,397.699 295.278,401.866 284.5,400C 274.044,395.256 270.544,387.422 274,376.5C 276.738,372.26 280.238,368.926 284.5,366.5 Z"/></g>
<g><path style="opacity:1" fill="#080400" d="M 226.5,383.5 C 235.879,383.361 239.379,387.694 237,396.5C 231.042,402.339 226.042,401.672 222,394.5C 221.333,392.5 221.333,390.5 222,388.5C 223.366,386.638 224.866,384.972 226.5,383.5 Z"/></g>
<g><path style="opacity:1" fill="#040200" d="M 69.5,400.5 C 90.0305,399.169 103.531,408.169 110,427.5C 111.858,448.647 102.691,462.147 82.5,468C 61.4617,470.069 48.295,460.902 43,440.5C 41.3006,420.056 50.1339,406.723 69.5,400.5 Z"/></g>
<g><path style="opacity:1" fill="#9d502c" d="M 71.5,417.5 C 89.4035,417.88 95.9035,426.547 91,443.5C 84.3627,451.755 76.196,453.588 66.5,449C 58.0268,440.598 57.3602,431.598 64.5,422C 66.8981,420.476 69.2314,418.976 71.5,417.5 Z"/></g>
<g><path style="opacity:1" fill="#090400" d="M 235.5,417.5 C 244.207,417.037 247.707,421.037 246,429.5C 243.459,434.069 239.625,435.569 234.5,434C 230.723,431.045 229.557,427.212 231,422.5C 232.025,420.313 233.525,418.646 235.5,417.5 Z"/></g>
<g><path style="opacity:1" fill="#050200" d="M 437.5,417.5 C 459.028,416.861 469.195,427.194 468,448.5C 463.187,463.95 452.687,470.45 436.5,468C 422.568,462.649 416.401,452.482 418,437.5C 421.351,427.65 427.851,420.983 437.5,417.5 Z"/></g>
<g><path style="opacity:1" fill="#0a0500" d="M 140.5,426.5 C 151.621,426.107 154.954,430.941 150.5,441C 146.122,444.487 141.955,444.32 138,440.5C 135.418,435.12 136.251,430.453 140.5,426.5 Z"/></g>
<g><path style="opacity:1" fill="#080400" d="M 269.5,434.5 C 278.693,434.215 282.193,438.548 280,447.5C 274.514,453.08 269.514,452.747 265,446.5C 263.474,441.239 264.974,437.239 269.5,434.5 Z"/></g>
<g><path style="opacity:1" fill="#9b4f2b" d="M 440.5,434.5 C 448.865,434.36 452.365,438.36 451,446.5C 448.459,451.069 444.625,452.569 439.5,451C 432.657,445.052 432.991,439.552 440.5,434.5 Z"/></g>
<g><path style="opacity:1" fill="#090400" d="M 397.5,451.5 C 406.693,451.215 410.193,455.548 408,464.5C 402.431,470.174 397.431,469.84 393,463.5C 391.474,458.239 392.974,454.239 397.5,451.5 Z"/></g>
<g><path style="opacity:1" fill="#080300" d="M 124.5,460.5 C 133.207,460.037 136.707,464.037 135,472.5C 129.916,479.059 124.916,479.059 120,472.5C 118.309,467.131 119.809,463.131 124.5,460.5 Z"/></g>
</svg>
