<?xml version="1.0" encoding="UTF-8"?>
<!DOCTYPE svg PUBLIC "-//W3C//DTD SVG 1.1//EN" "http://www.w3.org/Graphics/SVG/1.1/DTD/svg11.dtd">
<svg xmlns="http://www.w3.org/2000/svg" version="1.1" width="512px" height="512px" style="shape-rendering:geometricPrecision; text-rendering:geometricPrecision; image-rendering:optimizeQuality; fill-rule:evenodd; clip-rule:evenodd" xmlns:xlink="http://www.w3.org/1999/xlink">
<g><path style="opacity:0.928" fill="#000000" d="M 7.5,-0.5 C 10.1667,-0.5 12.8333,-0.5 15.5,-0.5C 17.1436,0.316435 18.3103,1.64977 19,3.5C 19.3333,18.8333 19.6667,34.1667 20,49.5C 24.0513,57.3741 30.2179,59.5408 38.5,56C 41,54.8333 42.8333,53 44,50.5C 44.3333,34.8333 44.6667,19.1667 45,3.5C 46.0319,1.97331 47.1986,0.639972 48.5,-0.5C 51.1667,-0.5 53.8333,-0.5 56.5,-0.5C 57.8361,1.01027 59.0027,2.67694 60,4.5C 60.9433,21.8864 60.61,39.2197 59,56.5C 50.6786,71.4021 38.1786,76.5688 21.5,72C 13.3074,69.1407 7.80736,63.6407 5,55.5C 3.39125,38.5533 3.05792,21.5533 4,4.5C 4.99728,2.67694 6.16394,1.01027 7.5,-0.5 Z"/></g>
<g><path style="opacity:0.925" fill="#000000" d="M 79.5,-0.5 C 82.1667,-0.5 84.8333,-0.5 87.5,-0.5C 89.1436,0.316435 90.3103,1.64977 91,3.5C 91.6667,25.5 91.6667,47.5 91,69.5C 89.6071,72.3661 87.2738,73.6994 84,73.5C 79.6516,73.6661 76.985,71.6661 76,67.5C 75.3333,46.8333 75.3333,26.1667 76,5.5C 76.5637,3.11327 77.7304,1.11327 79.5,-0.5 Z"/></g>
<g><path style="opacity:0.916" fill="#000000" d="M 138.5,-0.5 C 141.5,-0.5 144.5,-0.5 147.5,-0.5C 150.393,2.93804 151.227,6.93804 150,11.5C 141.391,31.0512 133.058,50.7178 125,70.5C 120.924,74.034 116.591,74.3674 112,71.5C 110.517,68.2976 110.183,64.9643 111,61.5C 119.704,40.5271 128.871,19.8605 138.5,-0.5 Z"/></g>
<g><path style="opacity:0.928" fill="#000000" d="M 170.5,-0.5 C 173.167,-0.5 175.833,-0.5 178.5,-0.5C 180.144,0.316435 181.31,1.64977 182,3.5C 182.061,19.5533 182.728,35.5533 184,51.5C 189.475,58.0374 195.975,59.204 203.5,55C 205.049,53.786 206.215,52.286 207,50.5C 207.333,35.1667 207.667,19.8333 208,4.5C 208.997,2.67694 210.164,1.01027 211.5,-0.5C 214.167,-0.5 216.833,-0.5 219.5,-0.5C 221.144,0.316435 222.31,1.64977 223,3.5C 223.667,20.1667 223.667,36.8333 223,53.5C 218.628,66.6153 209.461,73.282 195.5,73.5C 182.313,73.6558 173.147,67.6558 168,55.5C 166.425,38.8728 166.092,22.2062 167,5.5C 167.564,3.11327 168.73,1.11327 170.5,-0.5 Z"/></g>
<g><path style="opacity:0.921" fill="#000000" d="M 238.5,-0.5 C 241.167,-0.5 243.833,-0.5 246.5,-0.5C 251.491,6.13692 256.491,12.8036 261.5,19.5C 266.497,12.8419 271.497,6.17524 276.5,-0.5C 279.167,-0.5 281.833,-0.5 284.5,-0.5C 288.17,2.20539 289.337,5.87205 288,10.5C 282.889,18.6102 277.389,26.4435 271.5,34C 278.124,43.4132 284.624,52.9132 291,62.5C 292.898,69.0621 290.565,72.7287 284,73.5C 281.186,73.5924 278.853,72.5924 277,70.5C 272,63.1667 267,55.8333 262,48.5C 255.955,56.7563 249.788,64.923 243.5,73C 233.488,74.3205 229.988,70.1538 233,60.5C 239.412,52.0092 245.579,43.3425 251.5,34.5C 246.247,26.3262 240.747,18.3262 235,10.5C 233.663,5.91592 234.829,2.24925 238.5,-0.5 Z"/></g>
<g><path style="opacity:0.922" fill="#000000" d="M 443.5,-0.5 C 463.5,-0.5 483.5,-0.5 503.5,-0.5C 509.26,5.52638 508.594,10.693 501.5,15C 492.167,15.1667 482.833,15.3333 473.5,15.5C 463.097,15.6309 452.764,15.1309 442.5,14C 439.606,11.0913 438.773,7.59129 440,3.5C 440.69,1.64977 441.856,0.316435 443.5,-0.5 Z"/></g>
<g><path style="opacity:0.921" fill="#000000" d="M 443.5,28.5 C 463.169,28.3334 482.836,28.5 502.5,29C 507.568,31.9825 508.735,36.1492 506,41.5C 504.829,42.8932 503.329,43.7265 501.5,44C 482.5,44.6667 463.5,44.6667 444.5,44C 439.776,41.5647 438.276,37.7314 440,32.5C 441.102,31.051 442.269,29.7177 443.5,28.5 Z"/></g>
<g><path style="opacity:0.921" fill="#000000" d="M 444.5,57.5 C 463.836,57.3334 483.17,57.5 502.5,58C 507.305,61.0892 508.472,65.2558 506,70.5C 505.097,71.7014 503.931,72.5348 502.5,73C 482.833,73.6667 463.167,73.6667 443.5,73C 437.939,67.3527 438.272,62.186 444.5,57.5 Z"/></g>
<g><path style="opacity:0.935" fill="#000000" d="M 9.5,105.5 C 173.5,105.333 337.5,105.5 501.5,106C 508.527,110.138 509.194,115.138 503.5,121C 338.167,121.667 172.833,121.667 7.5,121C 1.87032,114.988 2.53699,109.821 9.5,105.5 Z"/></g>
<g><path style="opacity:0.957" fill="#020100" d="M 11.5,241.5 C 14.7926,242.41 17.2926,244.41 19,247.5C 19.5,267.164 19.6666,286.831 19.5,306.5C 19.3342,311.179 19.5008,315.845 20,320.5C 21.5981,325.099 24.7647,327.932 29.5,329C 69.1667,329.667 108.833,329.667 148.5,329C 154.235,328.228 157.735,325.062 159,319.5C 159.667,272.167 159.667,224.833 159,177.5C 157.195,173.857 154.362,171.524 150.5,170.5C 109.669,169.335 68.6687,169.169 27.5,170C 24.3333,171.833 21.8333,174.333 20,177.5C 19.6667,190.5 19.3333,203.5 19,216.5C 17.5198,219.817 15.0198,221.817 11.5,222.5C 7.91025,222.456 5.41025,220.789 4,217.5C 3.33333,204.167 3.33333,190.833 4,177.5C 6.16728,167.334 12.0006,160.168 21.5,156C 65.7743,154.349 110.108,154.016 154.5,155C 164.333,158.167 170.833,164.667 174,174.5C 175.137,199.299 175.637,224.133 175.5,249C 175.333,271.833 175.167,294.667 175,317.5C 173.992,331.842 166.492,340.675 152.5,344C 110.5,344.667 68.5,344.667 26.5,344C 13.9087,341.075 6.4087,333.241 4,320.5C 3.33333,296.167 3.33333,271.833 4,247.5C 5.25647,243.954 7.75647,241.954 11.5,241.5 Z"/></g>
<g><path style="opacity:0.971" fill="#010204" d="M 486.5,511.5 C 399.833,511.5 313.167,511.5 226.5,511.5C 215.092,508.078 208.258,500.412 206,488.5C 205.333,384.833 205.333,281.167 206,177.5C 208.627,166.205 215.46,158.705 226.5,155C 313.167,154.333 399.833,154.333 486.5,155C 497.568,158.631 504.401,166.131 507,177.5C 507.667,281.167 507.667,384.833 507,488.5C 504.742,500.412 497.908,508.078 486.5,511.5 Z"/></g>
<g><path style="opacity:1" fill="#fdcf5a" d="M 150.5,170.5 C 144.5,170.5 138.5,170.5 132.5,170.5C 132.5,180.833 132.5,191.167 132.5,201.5C 117.163,201.333 101.83,201.5 86.5,202C 80.245,206.267 79.9117,210.933 85.5,216C 101.163,216.5 116.83,216.667 132.5,216.5C 132.5,224.833 132.5,233.167 132.5,241.5C 117.163,241.333 101.83,241.5 86.5,242C 80.2581,246.219 79.9247,250.885 85.5,256C 101.163,256.5 116.83,256.667 132.5,256.5C 132.5,264.833 132.5,273.167 132.5,281.5C 117.163,281.333 101.83,281.5 86.5,282C 80.2581,286.219 79.9247,290.885 85.5,296C 100.496,296.5 115.496,296.667 130.5,296.5C 127.304,301.11 122.97,304.277 117.5,306C 84.835,306.5 52.1684,306.667 19.5,306.5C 19.6666,286.831 19.5,267.164 19,247.5C 17.2926,244.41 14.7926,242.41 11.5,241.5C 11.5,235.167 11.5,228.833 11.5,222.5C 15.0198,221.817 17.5198,219.817 19,216.5C 19.3333,203.5 19.6667,190.5 20,177.5C 21.8333,174.333 24.3333,171.833 27.5,170C 68.6687,169.169 109.669,169.335 150.5,170.5 Z"/></g>
<g><path style="opacity:1" fill="#fcc043" d="M 150.5,170.5 C 154.362,171.524 157.195,173.857 159,177.5C 159.667,224.833 159.667,272.167 159,319.5C 157.735,325.062 154.235,328.228 148.5,329C 108.833,329.667 69.1667,329.667 29.5,329C 24.7647,327.932 21.5981,325.099 20,320.5C 19.5008,315.845 19.3342,311.179 19.5,306.5C 52.1684,306.667 84.835,306.5 117.5,306C 122.97,304.277 127.304,301.11 130.5,296.5C 136.903,294.691 138.736,290.691 136,284.5C 134.855,283.364 133.688,282.364 132.5,281.5C 132.5,273.167 132.5,264.833 132.5,256.5C 139.152,251.451 139.152,246.451 132.5,241.5C 132.5,233.167 132.5,224.833 132.5,216.5C 139.152,211.451 139.152,206.451 132.5,201.5C 132.5,191.167 132.5,180.833 132.5,170.5C 138.5,170.5 144.5,170.5 150.5,170.5 Z"/></g>
<g><path style="opacity:1" fill="#5fb6fe" d="M 482.5,170.5 C 478.167,170.5 473.833,170.5 469.5,170.5C 469.667,266.501 469.5,362.501 469,458.5C 467.056,467.398 461.556,472.565 452.5,474C 375.501,474.5 298.501,474.667 221.5,474.5C 221.005,374.752 221.505,275.085 223,175.5C 224.961,172.865 227.461,171.031 230.5,170C 314.668,169.168 398.668,169.334 482.5,170.5 Z"/></g>
<g><path style="opacity:1" fill="#26a5fd" d="M 482.5,170.5 C 486.33,171.485 489.163,173.819 491,177.5C 491.995,281.914 491.662,386.247 490,490.5C 488.127,492.709 485.96,494.542 483.5,496C 398.833,496.667 314.167,496.667 229.5,496C 227.04,494.542 224.873,492.709 223,490.5C 221.661,485.264 221.161,479.93 221.5,474.5C 298.501,474.667 375.501,474.5 452.5,474C 461.556,472.565 467.056,467.398 469,458.5C 469.5,362.501 469.667,266.501 469.5,170.5C 473.833,170.5 478.167,170.5 482.5,170.5 Z"/></g>
<g><path style="opacity:1" fill="#0c0904" d="M 46.5,201.5 C 51.0814,200.923 55.2481,201.923 59,204.5C 61.3665,208.999 60.5332,212.832 56.5,216C 51.7712,216.996 47.2712,216.496 43,214.5C 40.1858,208.938 41.3525,204.605 46.5,201.5 Z"/></g>
<g><path style="opacity:1" fill="#0a0703" d="M 132.5,201.5 C 139.152,206.451 139.152,211.451 132.5,216.5C 116.83,216.667 101.163,216.5 85.5,216C 79.9117,210.933 80.245,206.267 86.5,202C 101.83,201.5 117.163,201.333 132.5,201.5 Z"/></g>
<g><path style="opacity:1" fill="#030405" d="M 285.5,297.5 C 289.025,297.346 291.859,298.679 294,301.5C 298.872,321.291 310.372,335.624 328.5,344.5C 336.389,349.308 345.056,351.641 354.5,351.5C 387.853,350.078 409.353,333.412 419,301.5C 423.542,269.919 412.042,246.252 384.5,230.5C 354.052,217.988 327.885,223.988 306,248.5C 300.336,256.828 296.003,265.828 293,275.5C 290.772,277.113 288.272,277.78 285.5,277.5C 283.771,276.883 282.271,275.883 281,274.5C 280.304,270.095 280.637,265.761 282,261.5C 298.163,223.997 326.663,206.83 367.5,210C 398.219,215.386 419.386,232.552 431,261.5C 440.56,295.095 432.727,323.928 407.5,348C 379.695,368.827 350.028,371.827 318.5,357C 298.353,345.353 285.686,328.186 280.5,305.5C 280.546,301.793 282.213,299.127 285.5,297.5 Z"/></g>
<g><path style="opacity:1" fill="#fefefe" d="M 384.5,230.5 C 403.541,259.836 403.041,288.836 383,317.5C 368.754,334.373 350.587,343.373 328.5,344.5C 310.372,335.624 298.872,321.291 294,301.5C 291.859,298.679 289.025,297.346 285.5,297.5C 285.5,290.833 285.5,284.167 285.5,277.5C 288.272,277.78 290.772,277.113 293,275.5C 296.003,265.828 300.336,256.828 306,248.5C 327.885,223.988 354.052,217.988 384.5,230.5 Z"/></g>
<g><path style="opacity:1" fill="#f5f3f3" d="M 384.5,230.5 C 412.042,246.252 423.542,269.919 419,301.5C 409.353,333.412 387.853,350.078 354.5,351.5C 345.056,351.641 336.389,349.308 328.5,344.5C 350.587,343.373 368.754,334.373 383,317.5C 403.041,288.836 403.541,259.836 384.5,230.5 Z"/></g>
<g><path style="opacity:1" fill="#0b0803" d="M 46.5,241.5 C 51.0814,240.923 55.2481,241.923 59,244.5C 61.3665,248.999 60.5332,252.832 56.5,256C 51.7712,256.996 47.2712,256.496 43,254.5C 40.1858,248.938 41.3525,244.605 46.5,241.5 Z"/></g>
<g><path style="opacity:1" fill="#090702" d="M 132.5,241.5 C 139.152,246.451 139.152,251.451 132.5,256.5C 116.83,256.667 101.163,256.5 85.5,256C 79.9247,250.885 80.2581,246.219 86.5,242C 101.83,241.5 117.163,241.333 132.5,241.5 Z"/></g>
<g><path style="opacity:1" fill="#0b0803" d="M 46.5,281.5 C 51.1619,280.804 55.3286,281.804 59,284.5C 61.8434,292.439 59.0101,296.439 50.5,296.5C 42.8983,296.656 40.065,292.989 42,285.5C 43.3968,283.93 44.8968,282.596 46.5,281.5 Z"/></g>
<g><path style="opacity:1" fill="#090602" d="M 132.5,281.5 C 133.688,282.364 134.855,283.364 136,284.5C 138.736,290.691 136.903,294.691 130.5,296.5C 115.496,296.667 100.496,296.5 85.5,296C 79.9247,290.885 80.2581,286.219 86.5,282C 101.83,281.5 117.163,281.333 132.5,281.5 Z"/></g>
<g><path style="opacity:0.967" fill="#000101" d="M 60.5,387.5 C 59.9446,390.787 58.278,393.287 55.5,395C 46.5,395.333 37.5,395.667 28.5,396C 24.7491,397.415 21.9158,399.915 20,403.5C 19.5,427.164 19.3334,450.831 19.5,474.5C 19.3342,479.179 19.5008,483.845 20,488.5C 21.5,492 24,494.5 27.5,496C 68.5,496.667 109.5,496.667 150.5,496C 154.667,494.5 157.5,491.667 159,487.5C 159.667,459.5 159.667,431.5 159,403.5C 157.108,399.942 154.275,397.442 150.5,396C 129.169,395.5 107.836,395.333 86.5,395.5C 82.3339,394.535 80.0006,391.868 79.5,387.5C 79.933,384.805 81.2663,382.638 83.5,381C 107.167,380.333 130.833,380.333 154.5,381C 166.871,385.039 173.705,393.539 175,406.5C 175.667,432.833 175.667,459.167 175,485.5C 173.507,498.481 166.674,507.148 154.5,511.5C 111.167,511.5 67.8333,511.5 24.5,511.5C 13.0915,508.078 6.2582,500.412 4,488.5C 3.03196,458.785 3.36529,429.118 5,399.5C 8.56616,390.268 15.0662,384.101 24.5,381C 35.1667,380.333 45.8333,380.333 56.5,381C 58.7337,382.638 60.067,384.805 60.5,387.5 Z"/></g>
<g><path style="opacity:0.998" fill="#05e29b" d="M 60.5,387.5 C 66.8333,387.5 73.1667,387.5 79.5,387.5C 80.0006,391.868 82.3339,394.535 86.5,395.5C 101.658,396.496 116.991,396.83 132.5,396.5C 132.667,417.169 132.5,437.836 132,458.5C 130.167,467 125,472.167 116.5,474C 84.1684,474.5 51.8351,474.667 19.5,474.5C 19.3334,450.831 19.5,427.164 20,403.5C 21.9158,399.915 24.7491,397.415 28.5,396C 37.5,395.667 46.5,395.333 55.5,395C 58.278,393.287 59.9446,390.787 60.5,387.5 Z"/></g>
<g><path style="opacity:1" fill="#0dd18f" d="M 86.5,395.5 C 107.836,395.333 129.169,395.5 150.5,396C 154.275,397.442 157.108,399.942 159,403.5C 159.667,431.5 159.667,459.5 159,487.5C 157.5,491.667 154.667,494.5 150.5,496C 109.5,496.667 68.5,496.667 27.5,496C 24,494.5 21.5,492 20,488.5C 19.5008,483.845 19.3342,479.179 19.5,474.5C 51.8351,474.667 84.1684,474.5 116.5,474C 125,472.167 130.167,467 132,458.5C 132.5,437.836 132.667,417.169 132.5,396.5C 116.991,396.83 101.658,396.496 86.5,395.5 Z"/></g>
<g><path style="opacity:1" fill="#040302" d="M 284.5,397.5 C 332.501,397.333 380.501,397.5 428.5,398C 446.833,403.818 454.666,416.318 452,435.5C 448.833,448 441,455.833 428.5,459C 380.167,459.667 331.833,459.667 283.5,459C 264.336,451.508 257.169,437.674 262,417.5C 266.782,407.705 274.282,401.038 284.5,397.5 Z"/></g>
<g><path style="opacity:1" fill="#fed05a" d="M 414.5,412.5 C 411.982,421.184 406.315,426.684 397.5,429C 356.835,429.5 316.168,429.667 275.5,429.5C 275.282,421.529 278.948,416.029 286.5,413C 329.165,412.5 371.832,412.333 414.5,412.5 Z"/></g>
<g><path style="opacity:1" fill="#fec244" d="M 414.5,412.5 C 430.69,410.623 438.19,417.623 437,433.5C 435.069,439.098 431.236,442.598 425.5,444C 379.167,444.667 332.833,444.667 286.5,444C 279.98,441.315 276.313,436.482 275.5,429.5C 316.168,429.667 356.835,429.5 397.5,429C 406.315,426.684 411.982,421.184 414.5,412.5 Z"/></g>
<g><path style="opacity:1" fill="#000201" d="M 53.5,438.5 C 77.169,438.333 100.836,438.5 124.5,439C 129.687,441.867 130.854,446.033 128,451.5C 127.25,452.126 126.416,452.626 125.5,453C 101.5,453.667 77.5,453.667 53.5,453C 46.9022,448.129 46.9022,443.295 53.5,438.5 Z"/></g>
</svg>
