<?xml version="1.0" encoding="UTF-8"?>
<!DOCTYPE svg PUBLIC "-//W3C//DTD SVG 1.1//EN" "http://www.w3.org/Graphics/SVG/1.1/DTD/svg11.dtd">
<svg xmlns="http://www.w3.org/2000/svg" version="1.1" width="512px" height="512px" style="shape-rendering:geometricPrecision; text-rendering:geometricPrecision; image-rendering:optimizeQuality; fill-rule:evenodd; clip-rule:evenodd" xmlns:xlink="http://www.w3.org/1999/xlink">
<g><path style="opacity:0.916" fill="#000000" d="M 202.5,10.5 C 212.315,10.7462 215.815,15.7462 213,25.5C 210.63,32.5458 206.63,38.5458 201,43.5C 196.44,48.459 195.773,53.7924 199,59.5C 218.333,77.8333 218.333,96.1667 199,114.5C 197.534,118.029 196.534,121.695 196,125.5C 190.148,131.288 185.148,130.621 181,123.5C 180.387,116.564 182.054,110.23 186,104.5C 188.63,100.868 191.63,97.535 195,94.5C 198.333,89.5 198.333,84.5 195,79.5C 175.546,60.9401 175.879,42.6068 196,24.5C 196.988,21.5755 197.654,18.5755 198,15.5C 199.025,13.313 200.525,11.6464 202.5,10.5 Z"/></g>
<g><path style="opacity:0.916" fill="#000000" d="M 232.5,44.5 C 235.588,44.3773 238.255,45.3773 240.5,47.5C 241.79,51.9039 243.29,56.2372 245,60.5C 264.333,78.1667 264.333,95.8333 245,113.5C 243.246,117.361 241.912,121.361 241,125.5C 235.889,130.885 231.223,130.552 227,124.5C 225.38,116.698 227.047,109.698 232,103.5C 237.239,98.9633 240.739,93.4633 242.5,87C 240.739,80.5367 237.239,75.0367 232,70.5C 226.952,63.9685 225.285,56.6352 227,48.5C 228.5,46.5313 230.333,45.198 232.5,44.5 Z"/></g>
<g><path style="opacity:0.965" fill="#030301" d="M 39.5,148.5 C 159.833,148.5 280.167,148.5 400.5,148.5C 400.5,158.167 400.5,167.833 400.5,177.5C 418.836,177.333 437.17,177.5 455.5,178C 477.306,182.475 492.473,194.975 501,215.5C 502.472,219.723 503.472,224.057 504,228.5C 504.667,244.5 504.667,260.5 504,276.5C 497.055,320.444 471.889,347.277 428.5,357C 416.511,357.944 404.511,358.777 392.5,359.5C 385.59,385.188 372.256,406.688 352.5,424C 379.498,424.5 406.498,424.667 433.5,424.5C 434.713,447.041 426.713,465.541 409.5,480C 394.199,491.77 376.866,498.437 357.5,500C 265.833,500.667 174.167,500.667 82.5,500C 57.0908,497.879 35.9242,487.379 19,468.5C 9.46708,455.396 5.30041,440.73 6.5,424.5C 33.5021,424.667 60.5021,424.5 87.5,424C 71.3619,409.92 59.5285,392.753 52,372.5C 44.9241,353.12 40.9241,333.12 40,312.5C 39.5,257.834 39.3333,203.168 39.5,148.5 Z M 400.5,230.5 C 415.837,230.333 431.17,230.5 446.5,231C 447.931,231.465 449.097,232.299 450,233.5C 450.667,247.167 450.667,260.833 450,274.5C 446.777,288.723 438.277,298.223 424.5,303C 416.561,304.321 408.561,304.821 400.5,304.5C 400.5,279.833 400.5,255.167 400.5,230.5 Z"/></g>
<g><path style="opacity:1" fill="#96c83d" d="M 365.5,164.5 C 369.635,212.462 361.468,258.129 341,301.5C 312.802,350.319 270.969,380.819 215.5,393C 171.722,401.064 127.722,402.564 83.5,397.5C 68.6748,376.205 59.8415,352.538 57,326.5C 55.544,272.522 55.044,218.522 55.5,164.5C 158.833,164.5 262.167,164.5 365.5,164.5 Z"/></g>
<g><path style="opacity:1" fill="#71b743" d="M 365.5,164.5 C 371.833,164.5 378.167,164.5 384.5,164.5C 384.667,215.501 384.5,266.501 384,317.5C 382.451,347.821 372.784,375.154 355,399.5C 345.839,410.489 334.672,418.655 321.5,424C 253.5,424.667 185.5,424.667 117.5,424C 103.665,418.264 92.3316,409.431 83.5,397.5C 127.722,402.564 171.722,401.064 215.5,393C 270.969,380.819 312.802,350.319 341,301.5C 361.468,258.129 369.635,212.462 365.5,164.5 Z"/></g>
<g><path style="opacity:1" fill="#fcfdfa" d="M 96.5,184.5 C 99.9612,184.146 102.461,185.479 104,188.5C 104.667,199.167 104.667,209.833 104,220.5C 100.952,224.01 97.6187,224.343 94,221.5C 93.3333,210.167 93.3333,198.833 94,187.5C 95.045,186.627 95.8783,185.627 96.5,184.5 Z"/></g>
<g><path style="opacity:1" fill="#94c63c" d="M 399.5,192.5 C 473.587,180.421 502.754,211.088 487,284.5C 473.05,326.414 443.883,345.747 399.5,342.5C 399.5,335.167 399.5,327.833 399.5,320.5C 446.238,321.594 468.572,298.761 466.5,252C 466.333,244.833 466.167,237.667 466,230.5C 463.076,223.242 457.909,218.408 450.5,216C 433.503,215.5 416.503,215.333 399.5,215.5C 399.5,207.833 399.5,200.167 399.5,192.5 Z"/></g>
<g><path style="opacity:1" fill="#fdfefb" d="M 95.5,252.5 C 98.9705,251.875 101.804,252.875 104,255.5C 104.667,268.167 104.667,280.833 104,293.5C 103.242,295.91 101.575,296.91 99,296.5C 96.9658,296.646 95.2991,295.98 94,294.5C 93.3333,281.167 93.3333,267.833 94,254.5C 94.7172,253.956 95.2172,253.289 95.5,252.5 Z"/></g>
<g><path style="opacity:1" fill="#638528" d="M 416.5,440.5 C 285.332,440.167 154.332,440.5 23.5,441.5C 22.9569,441.44 22.6236,441.107 22.5,440.5C 153.999,439.168 285.333,439.168 416.5,440.5 Z"/></g>
<g><path style="opacity:1" fill="#95c83d" d="M 416.5,440.5 C 416.741,442.898 416.074,444.898 414.5,446.5C 399.787,460.512 382.12,468.012 361.5,469C 265.833,469.667 170.167,469.667 74.5,469C 55.6055,467.21 39.2721,460.043 25.5,447.5C 24.2702,445.703 23.6036,443.703 23.5,441.5C 154.332,440.5 285.332,440.167 416.5,440.5 Z"/></g>
<g><path style="opacity:1" fill="#71b743" d="M 414.5,446.5 C 411.63,455.046 406.63,462.213 399.5,468C 389.87,475.148 379.203,480.148 367.5,483C 318.198,484.153 268.864,484.653 219.5,484.5C 172.167,484.333 124.833,484.167 77.5,484C 58.8736,481.131 43.3736,472.631 31,458.5C 28.6284,455.09 26.7951,451.423 25.5,447.5C 39.2721,460.043 55.6055,467.21 74.5,469C 170.167,469.667 265.833,469.667 361.5,469C 382.12,468.012 399.787,460.512 414.5,446.5 Z"/></g>
</svg>
