<?xml version="1.0" encoding="UTF-8"?>
<!DOCTYPE svg PUBLIC "-//W3C//DTD SVG 1.1//EN" "http://www.w3.org/Graphics/SVG/1.1/DTD/svg11.dtd">
<svg xmlns="http://www.w3.org/2000/svg" version="1.1" width="512px" height="512px" style="shape-rendering:geometricPrecision; text-rendering:geometricPrecision; image-rendering:optimizeQuality; fill-rule:evenodd; clip-rule:evenodd" xmlns:xlink="http://www.w3.org/1999/xlink">
<g><path style="opacity:0.996" fill="#1f1606" d="M 30.5,-0.5 C 85.5,-0.5 140.5,-0.5 195.5,-0.5C 199.317,0.840466 202.983,2.6738 206.5,5C 224.869,24.3669 242.869,44.0336 260.5,64C 333.833,64.3333 407.167,64.6667 480.5,65C 497.299,70.2947 507.632,81.4614 511.5,98.5C 511.5,224.833 511.5,351.167 511.5,477.5C 507.438,494.221 497.438,505.554 481.5,511.5C 330.833,511.5 180.167,511.5 29.5,511.5C 13.2917,504.629 3.29166,492.629 -0.5,475.5C -0.5,327.833 -0.5,180.167 -0.5,32.5C 4.01839,15.9831 14.3517,4.98313 30.5,-0.5 Z"/></g>
<g><path style="opacity:1" fill="#f7b32a" d="M 499.5,103.5 C 499.822,109.358 499.489,115.025 498.5,120.5C 495.365,117.099 491.698,114.433 487.5,112.5C 487.5,105.167 487.5,97.8333 487.5,90.5C 334.666,90.167 181.999,90.5004 29.5,91.5C 29.6666,119.502 29.5,147.502 29,175.5C 21.9329,177.901 15.9329,181.901 11,187.5C 10.3333,137.5 10.3333,87.5 11,37.5C 13.681,23.4892 21.8477,14.6558 35.5,11C 87.1667,10.3333 138.833,10.3333 190.5,11C 193.618,12.0587 196.618,13.3921 199.5,15C 218.535,35.0334 237.202,55.3667 255.5,76C 330.167,76.3333 404.833,76.6667 479.5,77C 491.372,81.9139 498.039,90.7472 499.5,103.5 Z"/></g>
<g><path style="opacity:1" fill="#956c19" d="M 29.5,91.5 C 181.999,90.5004 334.666,90.167 487.5,90.5C 487.5,97.8333 487.5,105.167 487.5,112.5C 486.509,105.687 486.175,98.6866 486.5,91.5C 334.167,91.5 181.833,91.5 29.5,91.5 Z"/></g>
<g><path style="opacity:1" fill="#e1e1e1" d="M 41.5,102.5 C 186.167,102.5 330.833,102.5 475.5,102.5C 475.5,104.833 475.5,107.167 475.5,109.5C 422.499,109.333 369.499,109.5 316.5,110C 309.317,112.085 303.317,115.918 298.5,121.5C 212.833,121.5 127.167,121.5 41.5,121.5C 41.5,115.167 41.5,108.833 41.5,102.5 Z"/></g>
<g><path style="opacity:1" fill="#8e6718" d="M 499.5,103.5 C 500.653,109.653 500.82,115.986 500,122.5C 499.283,121.956 498.783,121.289 498.5,120.5C 499.489,115.025 499.822,109.358 499.5,103.5 Z"/></g>
<g><path style="opacity:1" fill="#c1bebc" d="M 41.5,102.5 C 41.5,108.833 41.5,115.167 41.5,121.5C 127.167,121.5 212.833,121.5 298.5,121.5C 212.668,122.499 126.668,122.833 40.5,122.5C 40.176,115.646 40.5093,108.979 41.5,102.5 Z"/></g>
<g><path style="opacity:1" fill="#fdd565" d="M 319.5,120.5 C 371.501,120.333 423.501,120.5 475.5,121C 489.161,124.664 497.328,133.498 500,147.5C 500.667,255.833 500.667,364.167 500,472.5C 497.836,486.654 490.003,495.821 476.5,500C 329.167,500.667 181.833,500.667 34.5,500C 20.7691,494.929 12.9358,485.096 11,470.5C 10.3333,384.5 10.3333,298.5 11,212.5C 13.5745,198.929 21.4078,190.096 34.5,186C 108.5,185.667 182.5,185.333 256.5,185C 274.465,164.7 292.798,144.7 311.5,125C 314.099,123.205 316.766,121.705 319.5,120.5 Z"/></g>
<g><path style="opacity:1" fill="#b9b5b1" d="M 286.5,134.5 C 204.833,134.5 123.167,134.5 41.5,134.5C 41.5,147.833 41.5,161.167 41.5,174.5C 40.5043,161.01 40.171,147.344 40.5,133.5C 123.237,133.167 205.237,133.5 286.5,134.5 Z"/></g>
<g><path style="opacity:1" fill="#fefdfc" d="M 286.5,134.5 C 275.041,147.795 263.375,160.962 251.5,174C 181.501,174.5 111.501,174.667 41.5,174.5C 41.5,161.167 41.5,147.833 41.5,134.5C 123.167,134.5 204.833,134.5 286.5,134.5 Z"/></g>
<g><path style="opacity:1" fill="#1d1404" d="M 96.5,317.5 C 106.167,317.5 115.833,317.5 125.5,317.5C 125.5,307.5 125.5,297.5 125.5,287.5C 134.5,287.5 143.5,287.5 152.5,287.5C 152.5,316.167 152.5,344.833 152.5,373.5C 143.5,373.5 134.5,373.5 125.5,373.5C 125.5,362.167 125.5,350.833 125.5,339.5C 115.681,338.506 105.681,338.173 95.5,338.5C 95.5,350.167 95.5,361.833 95.5,373.5C 86.8333,373.5 78.1667,373.5 69.5,373.5C 69.5,344.833 69.5,316.167 69.5,287.5C 78.1667,287.5 86.8333,287.5 95.5,287.5C 95.1726,297.681 95.506,307.681 96.5,317.5 Z"/></g>
<g><path style="opacity:1" fill="#957b38" d="M 96.5,317.5 C 95.506,307.681 95.1726,297.681 95.5,287.5C 86.8333,287.5 78.1667,287.5 69.5,287.5C 69.5,316.167 69.5,344.833 69.5,373.5C 69.5,373.833 69.5,374.167 69.5,374.5C 68.5019,345.338 68.1686,316.005 68.5,286.5C 77.8333,286.5 87.1667,286.5 96.5,286.5C 96.5,296.833 96.5,307.167 96.5,317.5 Z"/></g>
<g><path style="opacity:1" fill="#1e1405" d="M 164.5,287.5 C 191.5,287.5 218.5,287.5 245.5,287.5C 245.5,294.5 245.5,301.5 245.5,308.5C 236.5,308.5 227.5,308.5 218.5,308.5C 218.5,330.167 218.5,351.833 218.5,373.5C 209.5,373.5 200.5,373.5 191.5,373.5C 191.5,351.833 191.5,330.167 191.5,308.5C 182.5,308.5 173.5,308.5 164.5,308.5C 164.5,301.5 164.5,294.5 164.5,287.5 Z"/></g>
<g><path style="opacity:1" fill="#1e1405" d="M 293.5,287.5 C 297.996,304.815 302.496,322.148 307,339.5C 311.194,322.056 315.694,304.723 320.5,287.5C 332.167,287.5 343.833,287.5 355.5,287.5C 355.5,316.167 355.5,344.833 355.5,373.5C 348.5,373.5 341.5,373.5 334.5,373.5C 334.667,351.831 334.5,330.164 334,308.5C 333.283,309.044 332.783,309.711 332.5,310.5C 327.19,331.074 322.19,351.74 317.5,372.5C 310.588,373.462 303.588,373.795 296.5,373.5C 291.814,353.423 286.814,333.423 281.5,313.5C 281.509,311.692 281.009,310.025 280,308.5C 279.5,330.164 279.333,351.831 279.5,373.5C 272.5,373.5 265.5,373.5 258.5,373.5C 258.5,344.833 258.5,316.167 258.5,287.5C 270.167,287.5 281.833,287.5 293.5,287.5 Z"/></g>
<g><path style="opacity:1" fill="#b29545" d="M 320.5,287.5 C 332.322,286.505 344.322,286.172 356.5,286.5C 356.831,316.005 356.498,345.338 355.5,374.5C 355.5,374.167 355.5,373.833 355.5,373.5C 355.5,344.833 355.5,316.167 355.5,287.5C 343.833,287.5 332.167,287.5 320.5,287.5 Z"/></g>
<g><path style="opacity:1" fill="#8f7636" d="M 400.5,352.5 C 399.503,331.006 399.169,309.34 399.5,287.5C 390.833,287.5 382.167,287.5 373.5,287.5C 373.5,316.167 373.5,344.833 373.5,373.5C 396.167,373.5 418.833,373.5 441.5,373.5C 441.5,366.5 441.5,359.5 441.5,352.5C 442.492,359.648 442.825,366.981 442.5,374.5C 419.167,374.5 395.833,374.5 372.5,374.5C 372.5,345.167 372.5,315.833 372.5,286.5C 381.833,286.5 391.167,286.5 400.5,286.5C 400.5,308.5 400.5,330.5 400.5,352.5 Z"/></g>
<g><path style="opacity:1" fill="#1e1405" d="M 400.5,352.5 C 414.167,352.5 427.833,352.5 441.5,352.5C 441.5,359.5 441.5,366.5 441.5,373.5C 418.833,373.5 396.167,373.5 373.5,373.5C 373.5,344.833 373.5,316.167 373.5,287.5C 382.167,287.5 390.833,287.5 399.5,287.5C 399.169,309.34 399.503,331.006 400.5,352.5 Z"/></g>
<g><path style="opacity:1" fill="#665224" d="M 355.5,373.5 C 355.5,373.833 355.5,374.167 355.5,374.5C 348.167,374.5 340.833,374.5 333.5,374.5C 333.831,352.993 333.497,331.66 332.5,310.5C 332.783,309.711 333.283,309.044 334,308.5C 334.5,330.164 334.667,351.831 334.5,373.5C 341.5,373.5 348.5,373.5 355.5,373.5 Z"/></g>
<g><path style="opacity:1" fill="#a4883e" d="M 281.5,313.5 C 280.833,333.833 280.167,354.167 279.5,374.5C 279.5,374.167 279.5,373.833 279.5,373.5C 279.333,351.831 279.5,330.164 280,308.5C 281.009,310.025 281.509,311.692 281.5,313.5 Z"/></g>
<g><path style="opacity:1" fill="#7b642d" d="M 293.5,287.5 C 281.833,287.5 270.167,287.5 258.5,287.5C 258.5,316.167 258.5,344.833 258.5,373.5C 265.5,373.5 272.5,373.5 279.5,373.5C 279.5,373.833 279.5,374.167 279.5,374.5C 272.167,374.5 264.833,374.5 257.5,374.5C 257.5,345.167 257.5,315.833 257.5,286.5C 269.678,286.172 281.678,286.505 293.5,287.5 Z"/></g>
<g><path style="opacity:1" fill="#8b7334" d="M 125.5,339.5 C 115.833,339.5 106.167,339.5 96.5,339.5C 96.5,351.167 96.5,362.833 96.5,374.5C 87.5,374.5 78.5,374.5 69.5,374.5C 69.5,374.167 69.5,373.833 69.5,373.5C 78.1667,373.5 86.8333,373.5 95.5,373.5C 95.5,361.833 95.5,350.167 95.5,338.5C 105.681,338.173 115.681,338.506 125.5,339.5 Z"/></g>
<g><path style="opacity:1" fill="#8c7335" d="M 317.5,372.5 C 314.402,373.821 310.902,374.488 307,374.5C 303.317,374.499 299.817,374.165 296.5,373.5C 303.588,373.795 310.588,373.462 317.5,372.5 Z"/></g>
</svg>
