<?xml version="1.0" encoding="UTF-8"?>
<!DOCTYPE svg PUBLIC "-//W3C//DTD SVG 1.1//EN" "http://www.w3.org/Graphics/SVG/1.1/DTD/svg11.dtd">
<svg xmlns="http://www.w3.org/2000/svg" version="1.1" width="512px" height="512px" style="shape-rendering:geometricPrecision; text-rendering:geometricPrecision; image-rendering:optimizeQuality; fill-rule:evenodd; clip-rule:evenodd" xmlns:xlink="http://www.w3.org/1999/xlink">
<g><path style="opacity:0.995" fill="#413b32" d="M 86.5,42.5 C 166.834,42.3333 247.167,42.5 327.5,43C 338.512,46.6797 345.346,54.1797 348,65.5C 348.5,129.166 348.667,192.832 348.5,256.5C 355.009,257.676 360.176,261.009 364,266.5C 377.603,259.434 389.269,261.768 399,273.5C 413.306,268.489 423.639,272.822 430,286.5C 434.959,302.335 439.292,318.335 443,334.5C 446.961,355.124 447.295,375.791 444,396.5C 436.651,421.849 420.151,437.682 394.5,444C 378.24,446.681 363.073,443.847 349,435.5C 349.429,451.502 342.262,462.336 327.5,468C 247.167,468.667 166.833,468.667 86.5,468C 74.0221,464.521 66.8554,456.354 65,443.5C 64.3333,318.167 64.3333,192.833 65,67.5C 67.0464,54.6292 74.213,46.2959 86.5,42.5 Z"/></g>
<g><path style="opacity:1" fill="#666666" d="M 326.5,95.5 C 326.666,87.8261 326.5,80.1594 326,72.5C 324.833,68.6667 322.333,66.1667 318.5,65C 240.501,64.5 162.501,64.3333 84.5,64.5C 85.2187,62.1119 86.8854,60.6119 89.5,60C 167.833,59.3333 246.167,59.3333 324.5,60C 327.728,61.5629 329.895,64.0629 331,67.5C 331.5,76.8274 331.666,86.1607 331.5,95.5C 329.833,95.5 328.167,95.5 326.5,95.5 Z"/></g>
<g><path style="opacity:1" fill="#aeadad" d="M 84.5,64.5 C 162.501,64.3333 240.501,64.5 318.5,65C 322.333,66.1667 324.833,68.6667 326,72.5C 326.5,80.1594 326.666,87.8261 326.5,95.5C 245.002,96.4993 163.335,96.8326 81.5,96.5C 81.3335,86.8276 81.5002,77.1609 82,67.5C 82.3768,66.0577 83.2101,65.0577 84.5,64.5 Z"/></g>
<g><path style="opacity:0.999" fill="#413b32" d="M 229.5,85.5 C 213.83,85.6666 198.163,85.4999 182.5,85C 178.61,83.0551 176.943,79.8884 177.5,75.5C 178.277,72.8878 179.944,71.0545 182.5,70C 198.5,69.3333 214.5,69.3333 230.5,70C 235.224,72.4353 236.724,76.2686 235,81.5C 233.568,83.4388 231.735,84.7721 229.5,85.5 Z"/></g>
<g><path style="opacity:1" fill="#60605f" d="M 177.5,75.5 C 176.943,79.8884 178.61,83.0551 182.5,85C 198.163,85.4999 213.83,85.6666 229.5,85.5C 229.084,87.7525 227.751,89.2525 225.5,90C 209.167,90.6667 192.833,90.6667 176.5,90C 172.387,86.4906 171.554,82.3239 174,77.5C 174.816,76.1772 175.983,75.5106 177.5,75.5 Z"/></g>
<g><path style="opacity:1" fill="#8fc9f8" d="M 326.5,251.5 C 326.5,206.833 326.5,162.167 326.5,117.5C 244.833,117.5 163.167,117.5 81.5,117.5C 81.5,115.833 81.5,114.167 81.5,112.5C 164.833,112.5 248.167,112.5 331.5,112.5C 331.667,161.168 331.5,209.834 331,258.5C 330.333,259.167 329.667,259.833 329,260.5C 327.451,257.688 326.618,254.688 326.5,251.5 Z"/></g>
<g><path style="opacity:1" fill="#c6e3fa" d="M 81.5,117.5 C 163.167,117.5 244.833,117.5 326.5,117.5C 326.5,162.167 326.5,206.833 326.5,251.5C 322.463,239.56 318.297,227.56 314,215.5C 303.122,202.764 290.955,201.264 277.5,211C 220.167,211.333 162.833,211.667 105.5,212C 101.985,213.018 99.652,215.185 98.5,218.5C 96.1119,219.219 94.6119,220.885 94,223.5C 93.3333,235.167 93.3333,246.833 94,258.5C 95.1667,261 97,262.833 99.5,264C 157.167,264.333 214.833,264.667 272.5,265C 273.38,266.356 273.714,267.856 273.5,269.5C 275.833,269.5 278.167,269.5 280.5,269.5C 260.004,270.332 239.337,270.832 218.5,271C 216.536,272.451 215.203,274.284 214.5,276.5C 212.629,276.859 211.129,277.859 210,279.5C 209.333,298.5 209.333,317.5 210,336.5C 211.109,338.815 212.943,340.315 215.5,341C 223.159,341.5 230.826,341.666 238.5,341.5C 238.35,346.875 239.683,351.875 242.5,356.5C 245.428,357.484 248.428,357.817 251.5,357.5C 202.904,358.335 153.571,358.835 103.5,359C 101.536,360.451 100.203,362.284 99.5,364.5C 95.9167,365.422 94.2501,367.756 94.5,371.5C 94.2795,374.791 95.6128,377.291 98.5,379C 155.833,379.333 213.167,379.667 270.5,380C 279.913,385.695 288.913,391.862 297.5,398.5C 225.5,398.5 153.5,398.5 81.5,398.5C 81.5,304.833 81.5,211.167 81.5,117.5 Z"/></g>
<g><path style="opacity:1" fill="#423c34" d="M 151.5,195.5 C 135.071,195.97 118.738,195.47 102.5,194C 100.959,192.421 99.7922,190.587 99,188.5C 98.5001,173.17 98.3334,157.837 98.5,142.5C 99.9774,140.193 101.977,138.36 104.5,137C 121.258,136.03 137.925,136.363 154.5,138C 155.333,138.833 156.167,139.667 157,140.5C 157.667,157.167 157.667,173.833 157,190.5C 155.893,193.113 154.06,194.78 151.5,195.5 Z"/></g>
<g><path style="opacity:1" fill="#423c33" d="M 228.5,195.5 C 212.83,195.667 197.163,195.5 181.5,195C 180.069,194.535 178.903,193.701 178,192.5C 176.529,175.928 176.029,159.262 176.5,142.5C 177.277,139.888 178.944,138.055 181.5,137C 197.5,136.333 213.5,136.333 229.5,137C 231.286,137.785 232.786,138.951 234,140.5C 235.636,156.408 235.969,172.408 235,188.5C 234.038,191.961 231.872,194.295 228.5,195.5 Z"/></g>
<g><path style="opacity:1" fill="#423b32" d="M 306.5,195.5 C 290.83,195.667 275.163,195.5 259.5,195C 257.061,194.226 255.227,192.726 254,190.5C 253.5,174.503 253.333,158.503 253.5,142.5C 254.277,139.888 255.944,138.055 258.5,137C 275.258,136.03 291.925,136.363 308.5,138C 310.049,139.214 311.215,140.714 312,142.5C 312.667,158.167 312.667,173.833 312,189.5C 310.64,192.023 308.807,194.023 306.5,195.5 Z"/></g>
<g><path style="opacity:1" fill="#93cbf8" d="M 98.5,142.5 C 98.3334,157.837 98.5001,173.17 99,188.5C 99.7922,190.587 100.959,192.421 102.5,194C 118.738,195.47 135.071,195.97 151.5,195.5C 154.06,194.78 155.893,193.113 157,190.5C 157.667,173.833 157.667,157.167 157,140.5C 156.167,139.667 155.333,138.833 154.5,138C 137.925,136.363 121.258,136.03 104.5,137C 101.977,138.36 99.9774,140.193 98.5,142.5 Z"/></g>
<g><path style="opacity:1" fill="#8fc7f4" d="M 176.5,142.5 C 176.029,159.262 176.529,175.928 178,192.5C 178.903,193.701 180.069,194.535 181.5,195C 197.163,195.5 212.83,195.667 228.5,195.5C 228.084,197.752 226.751,199.252 224.5,200C 208.5,200.667 192.5,200.667 176.5,200C 175.069,199.535 173.903,198.701 173,197.5C 171.362,180.591 171.029,163.591 172,146.5C 172.748,144.249 174.248,142.916 176.5,142.5 Z"/></g>
<g><path style="opacity:1" fill="#90c9f7" d="M 253.5,142.5 C 253.333,158.503 253.5,174.503 254,190.5C 255.227,192.726 257.061,194.226 259.5,195C 275.163,195.5 290.83,195.667 306.5,195.5C 305.327,197.504 303.66,199.004 301.5,200C 284.742,200.97 268.075,200.637 251.5,199C 250.299,198.097 249.465,196.931 249,195.5C 248.333,179.167 248.333,162.833 249,146.5C 249.748,144.249 251.248,142.916 253.5,142.5 Z"/></g>
<g><path style="opacity:1" fill="#f63d03" d="M 136.5,178.5 C 136.5,171.5 136.5,164.5 136.5,157.5C 129.5,157.5 122.5,157.5 115.5,157.5C 115.5,155.833 115.5,154.167 115.5,152.5C 124.167,152.5 132.833,152.5 141.5,152.5C 141.5,161.167 141.5,169.833 141.5,178.5C 139.833,178.5 138.167,178.5 136.5,178.5 Z"/></g>
<g><path style="opacity:1" fill="#f6420c" d="M 213.5,178.5 C 213.5,171.833 213.5,165.167 213.5,158.5C 206.5,158.5 199.5,158.5 192.5,158.5C 192.5,156.5 192.5,154.5 192.5,152.5C 201.167,152.5 209.833,152.5 218.5,152.5C 218.5,161.167 218.5,169.833 218.5,178.5C 216.833,178.5 215.167,178.5 213.5,178.5 Z"/></g>
<g><path style="opacity:1" fill="#f6440e" d="M 295.5,178.5 C 293.833,178.5 292.167,178.5 290.5,178.5C 290.5,171.833 290.5,165.167 290.5,158.5C 283.833,158.5 277.167,158.5 270.5,158.5C 270.5,157.833 270.167,157.5 269.5,157.5C 269.286,155.856 269.62,154.356 270.5,153C 278.827,152.5 287.16,152.334 295.5,152.5C 295.5,161.167 295.5,169.833 295.5,178.5 Z"/></g>
<g><path style="opacity:1" fill="#ff9c7d" d="M 115.5,157.5 C 122.5,157.5 129.5,157.5 136.5,157.5C 136.5,164.5 136.5,171.5 136.5,178.5C 129.5,178.5 122.5,178.5 115.5,178.5C 115.5,171.5 115.5,164.5 115.5,157.5 Z"/></g>
<g><path style="opacity:1" fill="#fd9d7f" d="M 192.5,158.5 C 199.5,158.5 206.5,158.5 213.5,158.5C 213.5,165.167 213.5,171.833 213.5,178.5C 206.5,178.5 199.5,178.5 192.5,178.5C 192.5,171.833 192.5,165.167 192.5,158.5 Z"/></g>
<g><path style="opacity:1" fill="#fe9e7f" d="M 270.5,158.5 C 277.167,158.5 283.833,158.5 290.5,158.5C 290.5,165.167 290.5,171.833 290.5,178.5C 283.833,178.5 277.167,178.5 270.5,178.5C 270.5,171.833 270.5,165.167 270.5,158.5 Z"/></g>
<g><path style="opacity:0.878" fill="#8b6b5c" d="M 269.5,157.5 C 270.167,157.5 270.5,157.833 270.5,158.5C 270.5,165.167 270.5,171.833 270.5,178.5C 277.167,178.5 283.833,178.5 290.5,178.5C 292.167,178.5 293.833,178.5 295.5,178.5C 287.016,179.493 278.349,179.826 269.5,179.5C 269.5,172.167 269.5,164.833 269.5,157.5 Z"/></g>
<g><path style="opacity:1" fill="#92caf8" d="M 98.5,218.5 C 98.3335,229.838 98.5001,241.172 99,252.5C 99.786,255.583 101.619,257.749 104.5,259C 162.167,259.333 219.833,259.667 277.5,260C 279.002,263.005 280.002,266.171 280.5,269.5C 278.167,269.5 275.833,269.5 273.5,269.5C 273.714,267.856 273.38,266.356 272.5,265C 214.833,264.667 157.167,264.333 99.5,264C 97,262.833 95.1667,261 94,258.5C 93.3333,246.833 93.3333,235.167 94,223.5C 94.6119,220.885 96.1119,219.219 98.5,218.5 Z"/></g>
<g><path style="opacity:1" fill="#fba990" d="M 329.5,292.5 C 329.141,294.371 328.141,295.871 326.5,297C 322.756,297.929 319.256,297.429 316,295.5C 309.026,274.272 302.359,252.938 296,231.5C 294.299,227.125 291.133,225.458 286.5,226.5C 288.725,221.891 292.391,220.391 297.5,222C 298.333,222.833 299.167,223.667 300,224.5C 306.532,245.095 312.865,265.762 319,286.5C 320.728,291.451 324.228,293.451 329.5,292.5 Z"/></g>
<g><path style="opacity:1" fill="#fed4c7" d="M 286.5,226.5 C 291.133,225.458 294.299,227.125 296,231.5C 302.359,252.938 309.026,274.272 316,295.5C 319.256,297.429 322.756,297.929 326.5,297C 328.141,295.871 329.141,294.371 329.5,292.5C 332.461,291.607 334.294,289.607 335,286.5C 335.498,283.518 335.665,280.518 335.5,277.5C 338.862,277.07 341.695,278.07 344,280.5C 347.469,291.241 351.136,301.908 355,312.5C 357.579,314.347 360.412,314.847 363.5,314C 365.751,313.252 367.084,311.752 367.5,309.5C 371.658,308.562 373.992,305.896 374.5,301.5C 372.689,295.923 371.355,290.256 370.5,284.5C 374.273,283.822 377.106,285.156 379,288.5C 381.333,296.167 383.667,303.833 386,311.5C 388.226,315.861 391.726,317.361 396.5,316C 398.751,315.252 400.084,313.752 400.5,311.5C 406.951,306.846 408.285,300.846 404.5,293.5C 406.752,293.916 408.252,295.249 409,297.5C 414.266,313.231 418.6,329.231 422,345.5C 425.102,363.188 425.102,380.854 422,398.5C 420.989,403.033 419.489,407.367 417.5,411.5C 408.396,422.218 396.729,427.884 382.5,428.5C 370.94,427.925 360.607,424.092 351.5,417C 340.466,404.299 328.466,392.632 315.5,382C 300.007,371.086 284.34,360.419 268.5,350C 264.841,347.185 262.174,343.685 260.5,339.5C 260.543,338.584 260.876,337.917 261.5,337.5C 265.813,337.548 269.813,338.715 273.5,341C 283.833,347.333 294.167,353.667 304.5,360C 309.336,361.246 313.003,359.746 315.5,355.5C 319.991,353.185 321.824,349.518 321,344.5C 308.569,305.379 297.069,266.046 286.5,226.5 Z"/></g>
<g><path style="opacity:1" fill="#fec401" d="M 265.5,242.5 C 264.841,239.545 264.508,236.545 264.5,233.5C 214.833,233.5 165.167,233.5 115.5,233.5C 115.5,231.833 115.5,230.167 115.5,228.5C 166.833,228.5 218.167,228.5 269.5,228.5C 269.71,233.009 270.71,237.342 272.5,241.5C 270.257,242.474 267.924,242.808 265.5,242.5 Z"/></g>
<g><path style="opacity:1" fill="#ffe17f" d="M 115.5,233.5 C 165.167,233.5 214.833,233.5 264.5,233.5C 264.508,236.545 264.841,239.545 265.5,242.5C 215.5,242.5 165.5,242.5 115.5,242.5C 115.5,239.5 115.5,236.5 115.5,233.5 Z"/></g>
<g><path style="opacity:1" fill="#423c33" d="M 192.5,335.5 C 162.831,335.667 133.165,335.5 103.5,335C 101.274,333.773 99.7739,331.939 99,329.5C 98.5001,311.836 98.3334,294.17 98.5,276.5C 99.9314,274.563 101.598,272.73 103.5,271C 133.833,270.333 164.167,270.333 194.5,271C 196.378,272.543 197.878,274.376 199,276.5C 199.667,294.167 199.667,311.833 199,329.5C 198.246,333.089 196.079,335.089 192.5,335.5 Z"/></g>
<g><path style="opacity:1" fill="#faa98f" d="M 367.5,309.5 C 367.084,311.752 365.751,313.252 363.5,314C 360.412,314.847 357.579,314.347 355,312.5C 351.136,301.908 347.469,291.241 344,280.5C 341.695,278.07 338.862,277.07 335.5,277.5C 338.202,272.426 342.202,271.259 347.5,274C 348.701,274.903 349.535,276.069 350,277.5C 352.72,287.716 356.053,297.716 360,307.5C 362.228,309.113 364.728,309.78 367.5,309.5 Z"/></g>
<g><path style="opacity:1" fill="#90c4ee" d="M 98.5,276.5 C 98.3334,294.17 98.5001,311.836 99,329.5C 99.7739,331.939 101.274,333.773 103.5,335C 133.165,335.5 162.831,335.667 192.5,335.5C 192.374,338.595 190.707,340.428 187.5,341C 158.5,341.667 129.5,341.667 100.5,341C 97,340.167 94.8333,338 94,334.5C 93.3333,316.833 93.3333,299.167 94,281.5C 94.9959,279.34 96.4959,277.673 98.5,276.5 Z"/></g>
<g><path style="opacity:1" fill="#8fc5f2" d="M 214.5,276.5 C 214.333,294.836 214.5,313.17 215,331.5C 216.451,333.464 218.284,334.797 220.5,335.5C 227.982,336.492 235.648,336.825 243.5,336.5C 243.205,338.735 243.539,340.735 244.5,342.5C 245.487,348.141 247.821,353.141 251.5,357.5C 248.428,357.817 245.428,357.484 242.5,356.5C 239.683,351.875 238.35,346.875 238.5,341.5C 230.826,341.666 223.159,341.5 215.5,341C 212.943,340.315 211.109,338.815 210,336.5C 209.333,317.5 209.333,298.5 210,279.5C 211.129,277.859 212.629,276.859 214.5,276.5 Z"/></g>
<g><path style="opacity:0.999" fill="#fba990" d="M 400.5,311.5 C 400.084,313.752 398.751,315.252 396.5,316C 391.726,317.361 388.226,315.861 386,311.5C 383.667,303.833 381.333,296.167 379,288.5C 377.106,285.156 374.273,283.822 370.5,284.5C 372.39,280.058 375.723,278.558 380.5,280C 382.049,281.214 383.215,282.714 384,284.5C 386.36,292.608 389.027,300.608 392,308.5C 394.492,310.497 397.325,311.497 400.5,311.5 Z"/></g>
<g><path style="opacity:1" fill="#fbc101" d="M 177.5,319.5 C 177.5,310.167 177.5,300.833 177.5,291.5C 156.833,291.5 136.167,291.5 115.5,291.5C 115.5,289.833 115.5,288.167 115.5,286.5C 137.833,286.5 160.167,286.5 182.5,286.5C 182.5,297.5 182.5,308.5 182.5,319.5C 180.833,319.5 179.167,319.5 177.5,319.5 Z"/></g>
<g><path style="opacity:1" fill="#f9c004" d="M 290.5,323.5 C 287.466,312.898 284.133,302.398 280.5,292C 263.837,291.5 247.17,291.333 230.5,291.5C 230.5,289.833 230.5,288.167 230.5,286.5C 249.167,286.5 267.833,286.5 286.5,286.5C 290.09,300.272 294.09,313.939 298.5,327.5C 295.548,327.36 292.882,326.027 290.5,323.5 Z"/></g>
<g><path style="opacity:1" fill="#f9a88f" d="M 417.5,411.5 C 419.489,407.367 420.989,403.033 422,398.5C 425.102,380.854 425.102,363.188 422,345.5C 418.6,329.231 414.266,313.231 409,297.5C 408.252,295.249 406.752,293.916 404.5,293.5C 404.822,289.024 407.156,287.524 411.5,289C 425.74,320.676 431.24,353.843 428,388.5C 427.158,397.509 423.658,405.176 417.5,411.5 Z"/></g>
<g><path style="opacity:1" fill="#ffe17e" d="M 115.5,291.5 C 136.167,291.5 156.833,291.5 177.5,291.5C 177.5,300.833 177.5,310.167 177.5,319.5C 156.833,319.5 136.167,319.5 115.5,319.5C 115.5,310.167 115.5,300.833 115.5,291.5 Z"/></g>
<g><path style="opacity:1" fill="#fee07e" d="M 230.5,291.5 C 247.17,291.333 263.837,291.5 280.5,292C 284.133,302.398 287.466,312.898 290.5,323.5C 283.438,319.256 275.771,316.59 267.5,315.5C 263.517,315.773 259.85,316.939 256.5,319C 247.84,319.5 239.173,319.666 230.5,319.5C 230.5,310.167 230.5,300.833 230.5,291.5 Z"/></g>
<g><path style="opacity:1" fill="#fba990" d="M 315.5,355.5 C 313.003,359.746 309.336,361.246 304.5,360C 294.167,353.667 283.833,347.333 273.5,341C 269.813,338.715 265.813,337.548 261.5,337.5C 263.21,332.817 266.543,331.317 271.5,333C 284.124,338.977 296.124,345.977 307.5,354C 310.014,355.252 312.68,355.752 315.5,355.5 Z"/></g>
<g><path style="opacity:0.761" fill="#698495" d="M 220.5,335.5 C 228.5,335.5 236.5,335.5 244.5,335.5C 244.5,337.833 244.5,340.167 244.5,342.5C 243.539,340.735 243.205,338.735 243.5,336.5C 235.648,336.825 227.982,336.492 220.5,335.5 Z"/></g>
<g><path style="opacity:1" fill="#8fc8f6" d="M 99.5,364.5 C 98.4582,369.133 100.125,372.299 104.5,374C 161.5,374.333 218.5,374.667 275.5,375C 287.024,381.927 298.024,389.594 308.5,398C 304.848,398.499 301.182,398.665 297.5,398.5C 288.913,391.862 279.913,385.695 270.5,380C 213.167,379.667 155.833,379.333 98.5,379C 95.6128,377.291 94.2795,374.791 94.5,371.5C 94.2501,367.756 95.9167,365.422 99.5,364.5 Z"/></g>
<g><path style="opacity:1" fill="#666666" d="M 325.5,449.5 C 326.606,441.215 326.773,432.882 326,424.5C 324.833,423.333 323.667,422.167 322.5,421C 242.167,420.5 161.834,420.333 81.5,420.5C 81.5,418.833 81.5,417.167 81.5,415.5C 163.501,415.333 245.501,415.5 327.5,416C 328.667,417.167 329.833,418.333 331,419.5C 331.667,427.167 331.667,434.833 331,442.5C 330.568,446.072 328.735,448.405 325.5,449.5 Z"/></g>
<g><path style="opacity:1" fill="#aeaead" d="M 81.5,420.5 C 161.834,420.333 242.167,420.5 322.5,421C 323.667,422.167 324.833,423.333 326,424.5C 326.773,432.882 326.606,441.215 325.5,449.5C 324.942,450.79 323.942,451.623 322.5,452C 245.5,452.667 168.5,452.667 91.5,452C 86.7938,450.895 83.6271,448.062 82,443.5C 81.5003,435.841 81.3336,428.174 81.5,420.5 Z"/></g>
<g><path style="opacity:0.999" fill="#413b32" d="M 229.5,441.5 C 213.83,441.667 198.163,441.5 182.5,441C 178.61,439.055 176.943,435.888 177.5,431.5C 178.277,428.888 179.944,427.055 182.5,426C 198.5,425.333 214.5,425.333 230.5,426C 235.535,429.013 236.702,433.18 234,438.5C 232.729,439.883 231.229,440.883 229.5,441.5 Z"/></g>
<g><path style="opacity:1" fill="#606060" d="M 177.5,431.5 C 176.943,435.888 178.61,439.055 182.5,441C 198.163,441.5 213.83,441.667 229.5,441.5C 229.084,443.752 227.751,445.252 225.5,446C 209.5,446.667 193.5,446.667 177.5,446C 172.695,442.911 171.528,438.744 174,433.5C 174.816,432.177 175.983,431.511 177.5,431.5 Z"/></g>
</svg>
