<?xml version="1.0" encoding="UTF-8"?>
<!DOCTYPE svg PUBLIC "-//W3C//DTD SVG 1.1//EN" "http://www.w3.org/Graphics/SVG/1.1/DTD/svg11.dtd">
<svg xmlns="http://www.w3.org/2000/svg" version="1.1" width="512px" height="512px" style="shape-rendering:geometricPrecision; text-rendering:geometricPrecision; image-rendering:optimizeQuality; fill-rule:evenodd; clip-rule:evenodd" xmlns:xlink="http://www.w3.org/1999/xlink">
<g><path style="opacity:0.988" fill="#010101" d="M 71.5,-0.5 C 74.5,-0.5 77.5,-0.5 80.5,-0.5C 82.6959,0.854084 84.1959,2.85408 85,5.5C 85.4998,14.8274 85.6665,24.1607 85.5,33.5C 107.833,33.5 130.167,33.5 152.5,33.5C 152.334,24.1607 152.5,14.8274 153,5.5C 153.599,2.74583 155.099,0.745833 157.5,-0.5C 160.167,-0.5 162.833,-0.5 165.5,-0.5C 167.475,0.646381 168.975,2.31305 170,4.5C 170.5,14.1609 170.666,23.8276 170.5,33.5C 192.833,33.5 215.167,33.5 237.5,33.5C 237.105,23.4343 237.605,13.4343 239,3.5C 240.376,2.29493 241.542,0.961599 242.5,-0.5C 245.5,-0.5 248.5,-0.5 251.5,-0.5C 252.458,0.961599 253.624,2.29493 255,3.5C 255.5,13.4944 255.666,23.4944 255.5,33.5C 278.167,33.5 300.833,33.5 323.5,33.5C 323.334,23.8276 323.5,14.1609 324,4.5C 324.997,2.67694 326.164,1.01027 327.5,-0.5C 330.5,-0.5 333.5,-0.5 336.5,-0.5C 338.696,0.854084 340.196,2.85408 341,5.5C 341.5,14.8274 341.666,24.1607 341.5,33.5C 352.838,33.3335 364.172,33.5001 375.5,34C 394.222,38.7219 405.389,50.5552 409,69.5C 409.167,127.17 409.667,184.836 410.5,242.5C 467.771,260.762 501.438,299.429 511.5,358.5C 511.5,369.5 511.5,380.5 511.5,391.5C 501.958,448.377 469.958,486.543 415.5,506C 407.437,508.175 399.437,510.009 391.5,511.5C 271.833,511.5 152.167,511.5 32.5,511.5C 15.8333,506.167 4.83333,495.167 -0.5,478.5C -0.5,341.167 -0.5,203.833 -0.5,66.5C 4.72473,49.445 16.0581,38.6117 33.5,34C 44.8284,33.5001 56.1618,33.3335 67.5,33.5C 67.3335,23.8276 67.5002,14.1609 68,4.5C 68.9973,2.67694 70.1639,1.01027 71.5,-0.5 Z"/></g>
<g><path style="opacity:1" fill="#f3f3f3" d="M 85.5,60.5 C 85.5,57.5 85.5,54.5 85.5,51.5C 107.833,51.5 130.167,51.5 152.5,51.5C 152.5,54.5 152.5,57.5 152.5,60.5C 135.64,69.9504 131.806,83.2838 141,100.5C 151.333,111.594 163.166,113.427 176.5,106C 191.105,91.9683 191.105,77.9683 176.5,64C 174.833,63.1667 173.167,62.3333 171.5,61.5C 170.513,58.2317 170.18,54.8984 170.5,51.5C 192.833,51.5 215.167,51.5 237.5,51.5C 237.5,54.8333 237.5,58.1667 237.5,61.5C 222.521,68.9152 218.021,80.5819 224,96.5C 234.876,112.227 248.376,114.727 264.5,104C 276.311,88.9139 274.978,75.2472 260.5,63C 258.975,61.9914 257.308,61.4914 255.5,61.5C 255.5,57.8333 255.5,54.1667 255.5,50.5C 278.167,50.5 300.833,50.5 323.5,50.5C 323.5,54.1667 323.5,57.8333 323.5,61.5C 311.095,66.6286 305.595,75.9619 307,89.5C 312.255,106.21 323.422,112.71 340.5,109C 354.248,103.01 359.748,92.5104 357,77.5C 354.038,69.7094 348.871,64.0427 341.5,60.5C 341.5,57.5 341.5,54.5 341.5,51.5C 349.174,51.3336 356.841,51.5003 364.5,52C 369.059,56.2804 372.226,61.4471 374,67.5C 374.5,124.499 374.667,181.499 374.5,238.5C 352.233,238.317 331.233,243.317 311.5,253.5C 275.589,265.234 249.422,288.234 233,322.5C 214.549,368.643 219.549,411.976 248,452.5C 261.849,470.191 279.015,483.524 299.5,492.5C 212.002,493.499 124.335,493.833 36.5,493.5C 26.5893,490.757 20.0893,484.424 17,474.5C 16.1667,364.498 16.3333,254.498 17.5,144.5C 24.1388,142.585 26.3055,138.252 24,131.5C 22.3546,129.338 20.1879,128.005 17.5,127.5C 16.3336,108.509 16.167,89.5088 17,70.5C 19.6782,61.8215 25.1782,55.6549 33.5,52C 44.7564,50.5666 56.0898,50.0666 67.5,50.5C 67.5,54.1667 67.5,57.8333 67.5,61.5C 55.0952,66.6286 49.5952,75.9619 51,89.5C 56.2551,106.21 67.4217,112.71 84.5,109C 98.2478,103.01 103.748,92.5104 101,77.5C 98.0377,69.7094 92.8711,64.0427 85.5,60.5 Z"/></g>
<g><path style="opacity:1" fill="#c6c6c6" d="M 170.5,51.5 C 192.994,50.5025 215.661,50.1692 238.5,50.5C 238.815,54.3714 238.482,58.0381 237.5,61.5C 237.5,58.1667 237.5,54.8333 237.5,51.5C 215.167,51.5 192.833,51.5 170.5,51.5 Z"/></g>
<g><path style="opacity:1" fill="#bababa" d="M 152.5,60.5 C 152.5,57.5 152.5,54.5 152.5,51.5C 130.167,51.5 107.833,51.5 85.5,51.5C 85.5,54.5 85.5,57.5 85.5,60.5C 84.5206,57.3752 84.1872,54.0419 84.5,50.5C 107.5,50.5 130.5,50.5 153.5,50.5C 153.813,54.0419 153.479,57.3752 152.5,60.5 Z"/></g>
<g><path style="opacity:1" fill="#cad2d6" d="M 374.5,238.5 C 374.667,181.499 374.5,124.499 374,67.5C 372.226,61.4471 369.059,56.2804 364.5,52C 356.841,51.5003 349.174,51.3336 341.5,51.5C 341.5,54.5 341.5,57.5 341.5,60.5C 340.521,57.3752 340.187,54.0419 340.5,50.5C 350.839,50.3335 361.172,50.5002 371.5,51C 382.752,53.919 389.585,61.0857 392,72.5C 392.5,90.8303 392.667,109.164 392.5,127.5C 384.674,128.816 382.174,133.15 385,140.5C 386.715,143.397 389.215,144.731 392.5,144.5C 392.5,176.167 392.5,207.833 392.5,239.5C 386.516,238.926 380.516,238.593 374.5,238.5 Z"/></g>
<g><path style="opacity:1" fill="#989898" d="M 72.5,76.5 C 83.4109,76.1614 86.7443,80.9947 82.5,91C 73.2662,95.4701 68.4328,92.6368 68,82.5C 69.332,80.34 70.832,78.34 72.5,76.5 Z"/></g>
<g><path style="opacity:1" fill="#989898" d="M 158.5,76.5 C 167.874,76.3565 171.374,80.6898 169,89.5C 163.514,95.0804 158.514,94.747 154,88.5C 152.309,83.1311 153.809,79.1311 158.5,76.5 Z"/></g>
<g><path style="opacity:1" fill="#999999" d="M 243.5,76.5 C 252.161,75.3293 255.994,78.9959 255,87.5C 249.667,95.5 244.333,95.5 239,87.5C 237.776,82.626 239.276,78.9593 243.5,76.5 Z"/></g>
<g><path style="opacity:1" fill="#989898" d="M 328.5,76.5 C 339.411,76.1614 342.744,80.9947 338.5,91C 329.266,95.4701 324.433,92.6368 324,82.5C 325.332,80.34 326.832,78.34 328.5,76.5 Z"/></g>
<g><path style="opacity:1" fill="#060606" d="M 47.5,127.5 C 53.7624,126.872 59.7624,127.705 65.5,130C 67.934,133.716 68.1007,137.549 66,141.5C 64.8289,142.893 63.3289,143.727 61.5,144C 56.0509,144.896 50.7175,144.563 45.5,143C 41.0834,137.087 41.7501,131.921 47.5,127.5 Z"/></g>
<g><path style="opacity:1" fill="#060606" d="M 90.5,127.5 C 95.9586,127.103 101.292,127.603 106.5,129C 112.157,134.736 111.491,139.736 104.5,144C 99.0509,144.896 93.7175,144.563 88.5,143C 82.8589,137.036 83.5256,131.869 90.5,127.5 Z"/></g>
<g><path style="opacity:1" fill="#040404" d="M 132.5,127.5 C 138.262,127.149 143.928,127.649 149.5,129C 152.428,132.257 153.262,136.091 152,140.5C 150.681,142.487 148.848,143.654 146.5,144C 141.833,144.667 137.167,144.667 132.5,144C 125.868,138.423 125.868,132.923 132.5,127.5 Z"/></g>
<g><path style="opacity:1" fill="#060606" d="M 175.5,127.5 C 181.762,126.872 187.762,127.705 193.5,130C 195.934,133.716 196.101,137.549 194,141.5C 192.829,142.893 191.329,143.727 189.5,144C 184.051,144.896 178.718,144.563 173.5,143C 169.083,137.087 169.75,131.921 175.5,127.5 Z"/></g>
<g><path style="opacity:1" fill="#060606" d="M 218.5,127.5 C 223.959,127.103 229.292,127.603 234.5,129C 240.157,134.736 239.491,139.736 232.5,144C 227.051,144.896 221.718,144.563 216.5,143C 210.859,137.036 211.526,131.869 218.5,127.5 Z"/></g>
<g><path style="opacity:1" fill="#040404" d="M 260.5,127.5 C 266.262,127.149 271.928,127.649 277.5,129C 280.428,132.257 281.262,136.091 280,140.5C 278.681,142.487 276.848,143.654 274.5,144C 269.833,144.667 265.167,144.667 260.5,144C 253.868,138.423 253.868,132.923 260.5,127.5 Z"/></g>
<g><path style="opacity:1" fill="#060606" d="M 303.5,127.5 C 309.762,126.872 315.762,127.705 321.5,130C 323.934,133.716 324.101,137.549 322,141.5C 320.829,142.893 319.329,143.727 317.5,144C 312.051,144.896 306.718,144.563 301.5,143C 297.083,137.087 297.75,131.921 303.5,127.5 Z"/></g>
<g><path style="opacity:1" fill="#060606" d="M 346.5,127.5 C 351.959,127.103 357.292,127.603 362.5,129C 368.157,134.736 367.491,139.736 360.5,144C 355.051,144.896 349.718,144.563 344.5,143C 338.859,137.036 339.526,131.869 346.5,127.5 Z"/></g>
<g><path style="opacity:1" fill="#020203" d="M 62.5,170.5 C 82.8361,170.333 103.169,170.5 123.5,171C 128.91,172.743 132.744,176.243 135,181.5C 135.667,202.167 135.667,222.833 135,243.5C 133.193,249.307 129.36,253.141 123.5,255C 103.167,255.667 82.8333,255.667 62.5,255C 56.9389,252.438 53.1055,248.272 51,242.5C 50.3333,222.5 50.3333,202.5 51,182.5C 52.0804,180.004 53.4138,177.67 55,175.5C 57.4795,173.686 59.9795,172.019 62.5,170.5 Z"/></g>
<g><path style="opacity:1" fill="#01a6f0" d="M 67.5,187.5 C 84.8333,187.5 102.167,187.5 119.5,187.5C 119.5,204.5 119.5,221.5 119.5,238.5C 102.167,238.5 84.8333,238.5 67.5,238.5C 67.5,221.5 67.5,204.5 67.5,187.5 Z"/></g>
<g><path style="opacity:1" fill="#050505" d="M 175.5,187.5 C 191.837,187.333 208.17,187.5 224.5,188C 229.069,190.541 230.569,194.375 229,199.5C 227.891,201.815 226.057,203.315 223.5,204C 207.5,204.667 191.5,204.667 175.5,204C 168.891,198.454 168.891,192.954 175.5,187.5 Z"/></g>
<g><path style="opacity:1" fill="#040404" d="M 251.5,187.5 C 285.168,187.333 318.835,187.5 352.5,188C 357.609,191.366 358.776,195.866 356,201.5C 354.581,202.46 353.081,203.293 351.5,204C 318.5,204.667 285.5,204.667 252.5,204C 247.845,201.103 246.345,196.937 248,191.5C 249.376,190.295 250.542,188.962 251.5,187.5 Z"/></g>
<g><path style="opacity:1" fill="#010101" d="M 175.5,221.5 C 211.502,221.333 247.502,221.5 283.5,222C 289.448,224.433 290.948,228.6 288,234.5C 286.786,236.049 285.286,237.215 283.5,238C 247.5,238.667 211.5,238.667 175.5,238C 170.391,234.634 169.224,230.134 172,224.5C 173.145,223.364 174.312,222.364 175.5,221.5 Z"/></g>
<g><path style="opacity:1" fill="#ccd5d9" d="M 311.5,253.5 C 265.856,279.421 241.522,318.755 238.5,371.5C 239.233,425.488 262.566,466.321 308.5,494C 306.527,494.495 304.527,494.662 302.5,494.5C 302.027,493.094 301.027,492.427 299.5,492.5C 279.015,483.524 261.849,470.191 248,452.5C 219.549,411.976 214.549,368.643 233,322.5C 249.422,288.234 275.589,265.234 311.5,253.5 Z"/></g>
<g><path style="opacity:1" fill="#01a8f3" d="M 408.5,260.5 C 412.768,263.309 417.102,266.143 421.5,269C 423.037,270.11 423.703,271.61 423.5,273.5C 421.758,278.069 422.425,282.236 425.5,286C 430.226,288.289 434.226,287.455 437.5,283.5C 442.436,286.601 446.603,290.601 450,295.5C 455.197,301.894 459.363,308.894 462.5,316.5C 461.899,321.77 463.899,325.437 468.5,327.5C 473.856,339.927 476.523,352.927 476.5,366.5C 469.512,368.476 467.345,372.809 470,379.5C 471.638,381.734 473.805,383.067 476.5,383.5C 475.895,396.922 473.228,409.922 468.5,422.5C 463.974,424.204 461.974,427.537 462.5,432.5C 460.444,439.064 457.277,445.064 453,450.5C 450.333,453.833 447.667,457.167 445,460.5C 442.894,463.118 440.394,465.118 437.5,466.5C 432.751,461.261 427.917,461.261 423,466.5C 422.253,469.924 422.42,473.257 423.5,476.5C 423.703,478.39 423.037,479.89 421.5,481C 416.76,483.36 412.426,486.193 408.5,489.5C 400.377,491.947 392.043,493.28 383.5,493.5C 383.666,487.158 383.5,480.825 383,474.5C 377.667,466.5 372.333,466.5 367,474.5C 366.5,480.825 366.334,487.158 366.5,493.5C 350.984,493.374 336.651,489.374 323.5,481.5C 327.015,477.028 328.182,472.028 327,466.5C 323.491,462.387 319.324,461.554 314.5,464C 312.033,467.116 309.699,470.282 307.5,473.5C 295.5,464.833 285.167,454.5 276.5,442.5C 279.208,440.389 282.041,438.389 285,436.5C 289.504,425.991 286.004,421.491 274.5,423C 272.255,425.235 269.755,426.068 267,425.5C 260.672,412.187 257.172,398.187 256.5,383.5C 263.589,383.884 270.589,383.384 277.5,382C 281.432,377.263 281.432,372.596 277.5,368C 270.589,366.616 263.589,366.116 256.5,366.5C 256.612,351.662 260.112,337.662 267,324.5C 269.755,323.932 272.255,324.765 274.5,327C 285.046,328.792 288.879,324.625 286,314.5C 282.884,312.033 279.718,309.699 276.5,307.5C 285.167,295.5 295.5,285.167 307.5,276.5C 309.567,278.956 311.401,281.622 313,284.5C 316.955,288.32 321.122,288.487 325.5,285C 327.429,281.744 327.929,278.244 327,274.5C 324.765,272.255 323.932,269.755 324.5,267C 337.662,260.112 351.662,256.612 366.5,256.5C 366.116,263.589 366.616,270.589 368,277.5C 372.596,281.432 377.263,281.432 382,277.5C 383.384,270.589 383.884,263.589 383.5,256.5C 392.036,256.567 400.369,257.901 408.5,260.5 Z"/></g>
<g><path style="opacity:1" fill="#0273b4" d="M 408.5,260.5 C 415.045,262.109 421.045,264.776 426.5,268.5C 425.725,270.396 424.725,272.063 423.5,273.5C 423.703,271.61 423.037,270.11 421.5,269C 417.102,266.143 412.768,263.309 408.5,260.5 Z"/></g>
<g><path style="opacity:1" fill="#020303" d="M 63.5,272.5 C 83.5028,272.333 103.503,272.5 123.5,273C 128.935,274.769 132.768,278.269 135,283.5C 135.667,304.5 135.667,325.5 135,346.5C 132.744,351.757 128.91,355.257 123.5,357C 102.833,357.667 82.1667,357.667 61.5,357C 56.0109,354.532 52.5109,350.365 51,344.5C 50.3333,324.833 50.3333,305.167 51,285.5C 53.3531,279.315 57.5198,274.982 63.5,272.5 Z"/></g>
<g><path style="opacity:1" fill="#0275b9" d="M 462.5,316.5 C 459.363,308.894 455.197,301.894 450,295.5C 446.603,290.601 442.436,286.601 437.5,283.5C 438.907,281.692 440.074,279.692 441,277.5C 441.718,276.549 442.551,276.383 443.5,277C 453.631,284.797 462.797,293.63 471,303.5C 472.289,305.055 472.956,306.721 473,308.5C 468.943,310.592 465.443,313.259 462.5,316.5 Z"/></g>
<g><path style="opacity:1" fill="#01a5ef" d="M 67.5,289.5 C 84.8333,289.5 102.167,289.5 119.5,289.5C 119.5,306.5 119.5,323.5 119.5,340.5C 102.167,340.5 84.8333,340.5 67.5,340.5C 67.5,323.5 67.5,306.5 67.5,289.5 Z"/></g>
<g><path style="opacity:1" fill="#040404" d="M 175.5,289.5 C 191.503,289.333 207.503,289.5 223.5,290C 228.924,292.017 230.758,295.85 229,301.5C 228.167,303.667 226.667,305.167 224.5,306C 208.167,306.667 191.833,306.667 175.5,306C 170.391,302.634 169.224,298.134 172,292.5C 173.518,291.837 174.685,290.837 175.5,289.5 Z"/></g>
<g><path style="opacity:1" fill="#010203" d="M 371.5,298.5 C 376.635,297.426 380.468,299.093 383,303.5C 383.167,319.51 383.667,335.51 384.5,351.5C 400.357,360.076 404.357,372.576 396.5,389C 399.985,393.823 403.485,398.656 407,403.5C 410.794,413.028 407.627,417.528 397.5,417C 395.714,416.215 394.214,415.049 393,413.5C 389.69,408.527 386.023,403.86 382,399.5C 365.969,402.152 355.302,395.819 350,380.5C 347.797,366.221 353.297,356.554 366.5,351.5C 366.333,335.497 366.5,319.497 367,303.5C 368.025,301.313 369.525,299.646 371.5,298.5 Z"/></g>
<g><path style="opacity:1" fill="#0275b8" d="M 476.5,366.5 C 476.523,352.927 473.856,339.927 468.5,327.5C 473.255,327.627 477.588,326.294 481.5,323.5C 482.086,323.709 482.586,324.043 483,324.5C 489.64,337.728 493.14,351.728 493.5,366.5C 487.833,366.5 482.167,366.5 476.5,366.5 Z"/></g>
<g><path style="opacity:1" fill="#050505" d="M 176.5,323.5 C 186.506,323.334 196.506,323.5 206.5,324C 211.945,326.11 213.778,329.944 212,335.5C 211.167,337.667 209.667,339.167 207.5,340C 196.833,340.667 186.167,340.667 175.5,340C 170.931,337.459 169.431,333.625 171,328.5C 172.73,326.598 174.563,324.931 176.5,323.5 Z"/></g>
<g><path style="opacity:1" fill="#999999" d="M 371.5,366.5 C 379.879,365.715 383.712,369.381 383,377.5C 380.647,382.426 376.814,384.26 371.5,383C 364.868,377.423 364.868,371.923 371.5,366.5 Z"/></g>
<g><path style="opacity:1" fill="#020202" d="M 61.5,375.5 C 82.5026,375.333 103.503,375.5 124.5,376C 129.273,377.774 132.773,380.94 135,385.5C 135.667,406.5 135.667,427.5 135,448.5C 132.833,455.01 128.333,458.843 121.5,460C 102.167,460.667 82.8333,460.667 63.5,460C 57.3333,457.833 53.1667,453.667 51,447.5C 50.3333,427.5 50.3333,407.5 51,387.5C 52.9635,382.044 56.4635,378.044 61.5,375.5 Z"/></g>
<g><path style="opacity:1" fill="#020202" d="M 175.5,383.5 C 188.504,383.333 201.504,383.5 214.5,384C 219.853,385.54 222.019,389.04 221,394.5C 219.833,397 218,398.833 215.5,400C 202.167,400.667 188.833,400.667 175.5,400C 170.391,396.634 169.224,392.134 172,386.5C 173.145,385.364 174.312,384.364 175.5,383.5 Z"/></g>
<g><path style="opacity:1" fill="#0275ba" d="M 476.5,383.5 C 482.167,383.5 487.833,383.5 493.5,383.5C 493.124,398.947 489.124,413.281 481.5,426.5C 479.336,425.586 477.336,424.419 475.5,423C 473.19,422.503 470.857,422.337 468.5,422.5C 473.228,409.922 475.895,396.922 476.5,383.5 Z"/></g>
<g><path style="opacity:1" fill="#040404" d="M 175.5,417.5 C 191.503,417.333 207.503,417.5 223.5,418C 228.924,420.017 230.758,423.85 229,429.5C 228.167,431.667 226.667,433.167 224.5,434C 208.167,434.667 191.833,434.667 175.5,434C 170.391,430.634 169.224,426.134 172,420.5C 173.518,419.837 174.685,418.837 175.5,417.5 Z"/></g>
<g><path style="opacity:1" fill="#0275b9" d="M 462.5,432.5 C 464.93,436.506 468.43,439.506 473,441.5C 473.667,442.167 473.667,442.833 473,443.5C 464.5,454.667 454.667,464.5 443.5,473C 442.551,473.617 441.718,473.451 441,472.5C 440.074,470.308 438.907,468.308 437.5,466.5C 440.394,465.118 442.894,463.118 445,460.5C 447.667,457.167 450.333,453.833 453,450.5C 457.277,445.064 460.444,439.064 462.5,432.5 Z"/></g>
<g><path style="opacity:1" fill="#016997" d="M 118.5,392.5 C 119.497,409.325 119.83,426.325 119.5,443.5C 102.167,443.5 84.8333,443.5 67.5,443.5C 67.5,426.167 67.5,408.833 67.5,391.5C 84.6749,391.17 101.675,391.503 118.5,392.5 Z"/></g>
<g><path style="opacity:1" fill="#02a8f4" d="M 118.5,392.5 C 118.5,409.167 118.5,425.833 118.5,442.5C 101.833,442.5 85.1667,442.5 68.5,442.5C 68.5,425.833 68.5,409.167 68.5,392.5C 85.1667,392.5 101.833,392.5 118.5,392.5 Z"/></g>
<g><path style="opacity:1" fill="#0272b3" d="M 423.5,476.5 C 425.534,478.365 426.201,480.532 425.5,483C 419.927,485.468 414.26,487.635 408.5,489.5C 412.426,486.193 416.76,483.36 421.5,481C 423.037,479.89 423.703,478.39 423.5,476.5 Z"/></g>
<g><path style="opacity:1" fill="#e3e4e4" d="M 299.5,492.5 C 301.027,492.427 302.027,493.094 302.5,494.5C 213.665,494.833 124.998,494.499 36.5,493.5C 124.335,493.833 212.002,493.499 299.5,492.5 Z"/></g>
</svg>
