<?xml version="1.0" encoding="UTF-8"?>
<!DOCTYPE svg PUBLIC "-//W3C//DTD SVG 1.1//EN" "http://www.w3.org/Graphics/SVG/1.1/DTD/svg11.dtd">
<svg xmlns="http://www.w3.org/2000/svg" version="1.1" width="512px" height="512px" style="shape-rendering:geometricPrecision; text-rendering:geometricPrecision; image-rendering:optimizeQuality; fill-rule:evenodd; clip-rule:evenodd" xmlns:xlink="http://www.w3.org/1999/xlink">
<g><path style="opacity:0.98" fill="#010100" d="M 250.5,-0.5 C 253.833,-0.5 257.167,-0.5 260.5,-0.5C 320.454,32.147 380.788,64.3137 441.5,96C 452.307,101.052 453.973,108.052 446.5,117C 421.341,130.079 396.341,143.412 371.5,157C 396.341,170.588 421.341,183.921 446.5,197C 453.413,203.814 453.08,210.147 445.5,216C 420.675,228.912 396.008,242.079 371.5,255.5C 397.413,269.373 423.247,283.373 449,297.5C 452.777,303.675 451.943,309.175 446.5,314C 421.341,327.079 396.341,340.412 371.5,354C 396.341,367.588 421.341,380.921 446.5,394C 453.973,402.948 452.307,409.948 441.5,415C 380.788,446.686 320.454,478.853 260.5,511.5C 257.167,511.5 253.833,511.5 250.5,511.5C 190.546,478.853 130.212,446.686 69.5,415C 58.6932,409.948 57.0265,402.948 64.5,394C 89.6587,380.921 114.659,367.588 139.5,354C 114.659,340.412 89.6587,327.079 64.5,314C 57.5868,307.186 57.9201,300.853 65.5,295C 90.3254,282.088 114.992,268.921 139.5,255.5C 113.587,241.627 87.7535,227.627 62,213.5C 58.2234,207.325 59.0567,201.825 64.5,197C 89.6587,183.921 114.659,170.588 139.5,157C 114.659,143.412 89.6587,130.079 64.5,117C 57.0265,108.052 58.6932,101.052 69.5,96C 130.212,64.3137 190.546,32.147 250.5,-0.5 Z"/></g>
<g><path style="opacity:1" fill="#f9c43f" d="M 253.5,21.5 C 255.655,21.372 257.655,21.872 259.5,23C 312.659,51.0788 365.659,79.4122 418.5,108C 364.992,136.921 311.325,165.588 257.5,194C 254.581,194.552 251.914,193.885 249.5,192C 197.008,164.254 144.674,136.254 92.5,108C 146.228,79.138 199.895,50.3047 253.5,21.5 Z"/></g>
<g><path style="opacity:1" fill="#090602" d="M 362.5,101.5 C 372.935,100.435 377.435,105.102 376,115.5C 370.983,122.307 365.316,122.974 359,117.5C 356.276,111.266 357.442,105.932 362.5,101.5 Z"/></g>
<g><path style="opacity:1" fill="#040301" d="M 334.5,115.5 C 343.747,115.644 347.581,120.31 346,129.5C 344.833,132 343,133.833 340.5,135C 314.5,147 288.5,159 262.5,171C 251.134,175.281 245.634,171.448 246,159.5C 247.122,157.376 248.622,155.543 250.5,154C 278.571,141.045 306.571,128.212 334.5,115.5 Z"/></g>
<g><path style="opacity:1" fill="#eaeaea" d="M 150.5,174.5 C 151.832,184.812 152.499,195.478 152.5,206.5C 152.333,217.167 152.167,227.833 152,238.5C 146.505,235.753 141.171,232.753 136,229.5C 135.167,213.823 135.334,198.156 136.5,182.5C 141.555,180.312 146.222,177.645 150.5,174.5 Z"/></g>
<g><path style="opacity:1" fill="#e8e8e8" d="M 189.5,182.5 C 189.831,207.672 189.498,232.672 188.5,257.5C 183.368,255.1 178.368,252.434 173.5,249.5C 172.167,224.5 172.167,199.5 173.5,174.5C 178.86,177.18 184.193,179.847 189.5,182.5 Z"/></g>
<g><path style="opacity:1" fill="#e9e9e9" d="M 322.5,257.5 C 321.502,232.672 321.169,207.672 321.5,182.5C 326.807,179.847 332.14,177.18 337.5,174.5C 338.833,199.5 338.833,224.5 337.5,249.5C 332.632,252.434 327.632,255.1 322.5,257.5 Z"/></g>
<g><path style="opacity:1" fill="#eaeaea" d="M 358.5,174.5 C 363.78,177.14 369.114,179.807 374.5,182.5C 375.666,198.156 375.833,213.823 375,229.5C 369.505,232.247 364.171,235.247 359,238.5C 358.5,217.169 358.333,195.836 358.5,174.5 Z"/></g>
<g><path style="opacity:1" fill="#2b2b2b" d="M 189.5,182.5 C 190.829,207.67 190.829,233.003 189.5,258.5C 188.893,258.376 188.56,258.043 188.5,257.5C 189.498,232.672 189.831,207.672 189.5,182.5 Z"/></g>
<g><path style="opacity:1" fill="#2c2c2c" d="M 321.5,182.5 C 321.169,207.672 321.502,232.672 322.5,257.5C 322.44,258.043 322.107,258.376 321.5,258.5C 320.171,233.003 320.171,207.67 321.5,182.5 Z"/></g>
<g><path style="opacity:1" fill="#e9e9e9" d="M 113.5,194.5 C 114.824,198.107 115.491,202.107 115.5,206.5C 115.167,210.5 114.833,214.5 114.5,218.5C 107.004,214.586 99.6709,210.42 92.5,206C 99.562,202.139 106.562,198.305 113.5,194.5 Z"/></g>
<g><path style="opacity:1" fill="#757575" d="M 211.5,194.5 C 210.502,219.328 210.169,244.328 210.5,269.5C 209.171,244.33 209.171,218.997 210.5,193.5C 211.107,193.624 211.44,193.957 211.5,194.5 Z"/></g>
<g><path style="opacity:1" fill="#eeeeee" d="M 211.5,194.5 C 216.547,196.774 221.381,199.44 226,202.5C 226.833,227.507 226.666,252.507 225.5,277.5C 220.632,274.566 215.632,271.9 210.5,269.5C 210.169,244.328 210.502,219.328 211.5,194.5 Z"/></g>
<g><path style="opacity:1" fill="#eeeeee" d="M 299.5,194.5 C 300.498,219.328 300.831,244.328 300.5,269.5C 295.282,272.026 290.115,274.693 285,277.5C 284.333,252.5 284.333,227.5 285,202.5C 289.619,199.44 294.453,196.774 299.5,194.5 Z"/></g>
<g><path style="opacity:1" fill="#757575" d="M 299.5,194.5 C 299.56,193.957 299.893,193.624 300.5,193.5C 301.829,218.997 301.829,244.33 300.5,269.5C 300.831,244.328 300.498,219.328 299.5,194.5 Z"/></g>
<g><path style="opacity:1" fill="#e9e9e9" d="M 395.5,194.5 C 403.423,197.795 411.09,201.628 418.5,206C 411.329,210.42 403.996,214.586 396.5,218.5C 395.502,210.528 395.169,202.528 395.5,194.5 Z"/></g>
<g><path style="opacity:1" fill="#616161" d="M 248.5,214.5 C 247.502,238.994 247.169,263.661 247.5,288.5C 246.171,263.663 246.171,238.663 247.5,213.5C 248.107,213.624 248.44,213.957 248.5,214.5 Z"/></g>
<g><path style="opacity:1" fill="#616161" d="M 262.5,214.5 C 262.56,213.957 262.893,213.624 263.5,213.5C 264.829,238.663 264.829,263.663 263.5,288.5C 263.831,263.661 263.498,238.994 262.5,214.5 Z"/></g>
<g><path style="opacity:1" fill="#eeeeee" d="M 248.5,214.5 C 250.734,215.447 253.068,216.114 255.5,216.5C 257.932,216.114 260.266,215.447 262.5,214.5C 263.498,238.994 263.831,263.661 263.5,288.5C 258.167,293.833 252.833,293.833 247.5,288.5C 247.169,263.661 247.502,238.994 248.5,214.5 Z"/></g>
<g><path style="opacity:1" fill="#fd7c45" d="M 160.5,267.5 C 166.796,269.144 172.796,271.644 178.5,275C 202.675,288.255 227.008,301.255 251.5,314C 254.928,314.701 258.262,314.368 261.5,313C 290.221,297.306 319.221,282.139 348.5,267.5C 371.816,279.804 395.149,292.137 418.5,304.5C 364.325,333.755 309.992,362.755 255.5,391.5C 201.008,362.755 146.675,333.755 92.5,304.5C 115.229,292.138 137.895,279.805 160.5,267.5 Z"/></g>
<g><path style="opacity:1" fill="#fd4e4e" d="M 161.5,365.5 C 191.386,380.444 221.052,395.944 250.5,412C 253.5,412.667 256.5,412.667 259.5,412C 289.095,396.62 318.595,381.12 348,365.5C 371.722,377.611 395.222,390.111 418.5,403C 364.447,432.36 310.113,461.193 255.5,489.5C 200.887,461.193 146.553,432.36 92.5,403C 115.562,390.472 138.562,377.972 161.5,365.5 Z"/></g>
</svg>
