<?xml version="1.0" encoding="UTF-8"?>
<!DOCTYPE svg PUBLIC "-//W3C//DTD SVG 1.1//EN" "http://www.w3.org/Graphics/SVG/1.1/DTD/svg11.dtd">
<svg xmlns="http://www.w3.org/2000/svg" version="1.1" width="512px" height="512px" style="shape-rendering:geometricPrecision; text-rendering:geometricPrecision; image-rendering:optimizeQuality; fill-rule:evenodd; clip-rule:evenodd" xmlns:xlink="http://www.w3.org/1999/xlink">
<g><path style="opacity:0.953" fill="#010100" d="M 149.5,11.5 C 167.17,11.3334 184.836,11.5001 202.5,12C 207.906,13.9803 209.739,17.8136 208,23.5C 206.833,24.6667 205.667,25.8333 204.5,27C 200.833,27.3333 197.167,27.6667 193.5,28C 211.208,46.2425 215.708,67.4092 207,91.5C 198.257,110.795 183.424,122.295 162.5,126C 133.242,128.793 112.409,116.959 100,90.5C 91.0832,61.2502 98.9165,37.7502 123.5,20C 131.739,15.4194 140.406,12.5861 149.5,11.5 Z"/></g>
<g><path style="opacity:1" fill="#fbba84" d="M 156.5,27.5 C 133.366,45.4502 128.2,67.7836 141,94.5C 144.083,99.5877 147.917,104.088 152.5,108C 154.441,109.903 156.774,110.736 159.5,110.5C 139.075,112.529 124.242,104.196 115,85.5C 106.916,57.1678 116.75,38.0011 144.5,28C 148.486,27.5012 152.486,27.3345 156.5,27.5 Z"/></g>
<g><path style="opacity:1" fill="#fcd0a2" d="M 156.5,27.5 C 176.086,29.9104 188.92,40.5771 195,59.5C 198.023,79.457 191.189,94.957 174.5,106C 169.676,108.22 164.676,109.72 159.5,110.5C 156.774,110.736 154.441,109.903 152.5,108C 147.917,104.088 144.083,99.5877 141,94.5C 128.2,67.7836 133.366,45.4502 156.5,27.5 Z"/></g>
<g><path style="opacity:0.951" fill="#010200" d="M 511.5,55.5 C 511.5,58.8333 511.5,62.1667 511.5,65.5C 504.226,89.5825 497.392,113.916 491,138.5C 490.238,143.198 488.071,147.032 484.5,150C 481.833,150.667 479.167,150.667 476.5,150C 471.366,145.867 466.532,141.367 462,136.5C 417.167,182.667 371.667,228.167 325.5,273C 321.375,273.854 317.375,273.52 313.5,272C 306,264.5 298.5,257 291,249.5C 288.294,245.32 287.961,240.987 290,236.5C 334.806,190.694 379.972,145.194 425.5,100C 420.633,95.4677 416.133,90.6344 412,85.5C 410.956,80.9661 412.123,77.1328 415.5,74C 442.833,66.3333 470.167,58.6667 497.5,51C 503.39,49.3085 508.056,50.8085 511.5,55.5 Z"/></g>
<g><path style="opacity:1" fill="#080605" d="M 169.5,56.5 C 171.857,56.3367 174.19,56.5034 176.5,57C 178.333,57.5 179.5,58.6667 180,60.5C 180.667,66.1667 180.667,71.8333 180,77.5C 177.335,82.4344 173.502,83.6011 168.5,81C 167.107,79.8289 166.273,78.3289 166,76.5C 165.333,71.5 165.333,66.5 166,61.5C 166.997,59.6769 168.164,58.0103 169.5,56.5 Z"/></g>
<g><path style="opacity:1" fill="#94d328" d="M 328.5,248.5 C 324.576,247.093 322.409,244.426 322,240.5C 368,194.5 414,148.5 460,102.5C 460.667,101.167 460.667,99.8333 460,98.5C 454.833,93.3333 449.667,88.1667 444.5,83C 445.056,82.6174 445.389,82.1174 445.5,81.5C 461.397,76.8587 477.397,72.5254 493.5,68.5C 488.153,88.8903 482.653,109.224 477,129.5C 473.799,125.964 470.299,122.797 466.5,120C 462.142,118.925 458.142,119.592 454.5,122C 412.271,164.062 370.271,206.228 328.5,248.5 Z"/></g>
<g><path style="opacity:1" fill="#88c326" d="M 445.5,81.5 C 445.389,82.1174 445.056,82.6174 444.5,83C 449.667,88.1667 454.833,93.3333 460,98.5C 460.667,99.8333 460.667,101.167 460,102.5C 414,148.5 368,194.5 322,240.5C 322.409,244.426 324.576,247.093 328.5,248.5C 326.188,251.479 323.521,254.146 320.5,256.5C 314.954,252.138 310.454,247.138 307,241.5C 352.361,196.472 397.361,151.139 442,105.5C 443.25,102.923 443.584,100.257 443,97.5C 440.404,93.0685 437.238,89.0685 433.5,85.5C 437.317,83.59 441.317,82.2567 445.5,81.5 Z"/></g>
<g><path style="opacity:0.971" fill="#010101" d="M 452.5,310.5 C 451.999,314.868 449.666,317.535 445.5,318.5C 416.5,318.5 387.5,318.5 358.5,318.5C 358.168,373.669 358.501,428.669 359.5,483.5C 369.167,483.5 378.833,483.5 388.5,483.5C 424.5,483.5 460.5,483.5 496.5,483.5C 496.5,428.5 496.5,373.5 496.5,318.5C 489.825,318.666 483.158,318.5 476.5,318C 473.722,316.287 472.055,313.787 471.5,310.5C 471.933,307.805 473.266,305.638 475.5,304C 485.5,303.333 495.5,303.333 505.5,304C 508.023,305.36 510.023,307.193 511.5,309.5C 511.5,370.5 511.5,431.5 511.5,492.5C 509.605,495.557 506.938,497.723 503.5,499C 351.167,499.667 198.833,499.667 46.5,499C 41.6667,498.167 38.8333,495.333 38,490.5C 37.0383,471.435 37.3716,452.435 39,433.5C 40.5429,431.622 42.3762,430.122 44.5,429C 60.8299,428.5 77.1633,428.333 93.5,428.5C 93.3341,423.489 93.5007,418.489 94,413.5C 95.0927,409.308 97.5927,406.308 101.5,404.5C 102.667,342.503 102.833,280.503 102,218.5C 88,232.5 74,246.5 60,260.5C 59.9162,264.435 58.9162,268.102 57,271.5C 51.4687,277.366 45.6353,282.866 39.5,288C 35.1667,290 30.8333,290 26.5,288C 17.2704,278.938 8.27043,269.772 -0.5,260.5C -0.5,257.167 -0.5,253.833 -0.5,250.5C 4.5639,243.929 10.2306,237.763 16.5,232C 20.2318,230.031 24.2318,229.031 28.5,229C 57.8918,200.276 86.5585,170.943 114.5,141C 119.843,136.996 125.843,134.663 132.5,134C 162.833,133.333 193.167,133.333 223.5,134C 228.107,134.439 230.44,136.939 230.5,141.5C 229.892,144.958 227.892,147.458 224.5,149C 198.835,149.5 173.169,149.667 147.5,149.5C 141.491,149.334 135.491,149.501 129.5,150C 124.667,152.167 121.167,155.667 119,160.5C 118.5,195.498 118.333,230.498 118.5,265.5C 125.833,265.5 133.167,265.5 140.5,265.5C 159.5,265.5 178.5,265.5 197.5,265.5C 197.333,232.498 197.5,199.498 198,166.5C 199.214,164.951 200.714,163.785 202.5,163C 227.164,162.5 251.831,162.333 276.5,162.5C 276.5,158.167 276.5,153.833 276.5,149.5C 269.159,149.666 261.826,149.5 254.5,149C 251.72,147.087 250.053,144.587 249.5,141.5C 249.444,138.439 250.778,136.272 253.5,135C 261.757,133.76 270.091,133.093 278.5,133C 279.878,131.287 281.545,129.953 283.5,129C 293.933,128.05 304.266,128.383 314.5,130C 317.106,131.938 318.939,134.438 320,137.5C 320.944,150.903 320.611,164.236 319,177.5C 317.127,179.709 314.96,181.542 312.5,183C 302.833,183.667 293.167,183.667 283.5,183C 281.695,182.028 280.028,180.861 278.5,179.5C 256.51,178.5 234.51,178.167 212.5,178.5C 212.5,203.5 212.5,228.5 212.5,253.5C 228.837,253.333 245.17,253.5 261.5,254C 265.333,255.167 267.833,257.667 269,261.5C 269.5,287.831 269.667,314.165 269.5,340.5C 288.617,337.95 297.284,346.283 295.5,365.5C 311.5,365.5 327.5,365.5 343.5,365.5C 343.333,346.83 343.5,328.164 344,309.5C 344.785,307.714 345.951,306.214 347.5,305C 381.081,303.348 414.748,303.014 448.5,304C 450.734,305.638 452.067,307.805 452.5,310.5 Z M 148.5,356.5 C 148.5,350.167 148.5,343.833 148.5,337.5C 151.669,337.161 153.836,335.495 155,332.5C 155.5,323.506 155.666,314.506 155.5,305.5C 175.833,305.5 196.167,305.5 216.5,305.5C 216.667,318.504 216.5,331.504 216,344.5C 211.062,350.605 209.229,357.605 210.5,365.5C 205.401,365.175 200.401,365.675 195.5,367C 193.19,368.637 191.69,370.804 191,373.5C 190.5,391.83 190.333,410.164 190.5,428.5C 186.167,428.5 181.833,428.5 177.5,428.5C 180.468,410.817 173.135,402.15 155.5,402.5C 155.667,388.829 155.5,375.163 155,361.5C 153.809,358.466 151.642,356.799 148.5,356.5 Z"/></g>
<g><path style="opacity:0.999" fill="#fddb47" d="M 230.5,141.5 C 236.833,141.5 243.167,141.5 249.5,141.5C 250.053,144.587 251.72,147.087 254.5,149C 261.826,149.5 269.159,149.666 276.5,149.5C 276.5,153.833 276.5,158.167 276.5,162.5C 251.831,162.333 227.164,162.5 202.5,163C 200.714,163.785 199.214,164.951 198,166.5C 197.5,199.498 197.333,232.498 197.5,265.5C 178.5,265.5 159.5,265.5 140.5,265.5C 140.333,230.498 140.5,195.498 141,160.5C 142.674,156.476 144.841,152.809 147.5,149.5C 173.169,149.667 198.835,149.5 224.5,149C 227.892,147.458 229.892,144.958 230.5,141.5 Z"/></g>
<g><path style="opacity:1" fill="#efb17d" d="M 298.5,143.5 C 298.5,151.833 298.5,160.167 298.5,168.5C 295.833,168.5 293.167,168.5 290.5,168.5C 290.5,160.167 290.5,151.833 290.5,143.5C 293.167,143.5 295.833,143.5 298.5,143.5 Z"/></g>
<g><path style="opacity:1" fill="#fdd1a3" d="M 298.5,143.5 C 300.5,143.5 302.5,143.5 304.5,143.5C 304.5,151.833 304.5,160.167 304.5,168.5C 302.5,168.5 300.5,168.5 298.5,168.5C 298.5,160.167 298.5,151.833 298.5,143.5 Z"/></g>
<g><path style="opacity:1" fill="#f9c500" d="M 147.5,149.5 C 144.841,152.809 142.674,156.476 141,160.5C 140.5,195.498 140.333,230.498 140.5,265.5C 133.167,265.5 125.833,265.5 118.5,265.5C 118.333,230.498 118.5,195.498 119,160.5C 121.167,155.667 124.667,152.167 129.5,150C 135.491,149.501 141.491,149.334 147.5,149.5 Z"/></g>
<g><path style="opacity:1" fill="#f6d445" d="M 102.5,176.5 C 103.653,182.653 103.82,188.986 103,195.5C 85.5,213 68,230.5 50.5,248C 46.8859,246.422 43.7193,243.922 41,240.5C 40.3333,239.833 40.3333,239.167 41,238.5C 61.7017,217.965 82.2017,197.299 102.5,176.5 Z"/></g>
<g><path style="opacity:1" fill="#f8b883" d="M 29.5,250.5 C 27.6093,252.836 27.1093,255.502 28,258.5C 31.3709,261.703 34.5375,265.036 37.5,268.5C 36.4382,270.757 34.7715,271.923 32.5,272C 27.3333,266.833 22.1667,261.667 17,256.5C 16.3333,255.5 16.3333,254.5 17,253.5C 19.1667,251.333 21.3333,249.167 23.5,247C 26.3045,246.613 28.3045,247.779 29.5,250.5 Z"/></g>
<g><path style="opacity:1" fill="#facea1" d="M 29.5,250.5 C 34.1456,254.479 38.479,258.812 42.5,263.5C 41.1455,265.521 39.4788,267.188 37.5,268.5C 34.5375,265.036 31.3709,261.703 28,258.5C 27.1093,255.502 27.6093,252.836 29.5,250.5 Z"/></g>
<g><path style="opacity:1" fill="#746c6c" d="M 253.5,268.5 C 253.5,292.5 253.5,316.5 253.5,340.5C 248.833,340.5 244.167,340.5 239.5,340.5C 239.667,322.164 239.5,303.83 239,285.5C 238.5,285 238,284.5 237.5,284C 210.161,283.833 182.827,283.333 155.5,282.5C 171.662,281.833 187.662,281.167 203.5,280.5C 209.388,278.744 212.388,274.744 212.5,268.5C 226.167,268.5 239.833,268.5 253.5,268.5 Z"/></g>
<g><path style="opacity:1" fill="#595353" d="M 140.5,330.5 C 139.504,314.342 139.17,298.009 139.5,281.5C 135.833,281.5 132.167,281.5 128.5,281.5C 128.5,321.833 128.5,362.167 128.5,402.5C 132.167,402.5 135.833,402.5 139.5,402.5C 132.687,403.491 125.687,403.825 118.5,403.5C 118.5,362.5 118.5,321.5 118.5,280.5C 125.833,280.5 133.167,280.5 140.5,280.5C 140.5,297.167 140.5,313.833 140.5,330.5 Z"/></g>
<g><path style="opacity:1" fill="#746c6c" d="M 140.5,330.5 C 141.465,334.666 144.132,336.999 148.5,337.5C 148.5,343.833 148.5,350.167 148.5,356.5C 145.383,356.642 142.883,357.976 141,360.5C 140.831,374.673 140.331,388.673 139.5,402.5C 135.833,402.5 132.167,402.5 128.5,402.5C 128.5,362.167 128.5,321.833 128.5,281.5C 132.167,281.5 135.833,281.5 139.5,281.5C 139.17,298.009 139.504,314.342 140.5,330.5 Z"/></g>
<g><path style="opacity:1" fill="#585353" d="M 253.5,268.5 C 254.498,292.661 254.831,316.994 254.5,341.5C 247.167,341.5 239.833,341.5 232.5,341.5C 232.667,327.496 232.5,313.496 232,299.5C 230.402,294.901 227.235,292.068 222.5,291C 199.836,290.5 177.169,290.333 154.5,290.5C 154.5,287.167 154.5,283.833 154.5,280.5C 170.833,280.5 187.167,280.5 203.5,280.5C 187.662,281.167 171.662,281.833 155.5,282.5C 182.827,283.333 210.161,283.833 237.5,284C 238,284.5 238.5,285 239,285.5C 239.5,303.83 239.667,322.164 239.5,340.5C 244.167,340.5 248.833,340.5 253.5,340.5C 253.5,316.5 253.5,292.5 253.5,268.5 Z"/></g>
<g><path style="opacity:1" fill="#018fce" d="M 452.5,310.5 C 458.833,310.5 465.167,310.5 471.5,310.5C 472.055,313.787 473.722,316.287 476.5,318C 483.158,318.5 489.825,318.666 496.5,318.5C 496.5,373.5 496.5,428.5 496.5,483.5C 460.5,483.5 424.5,483.5 388.5,483.5C 388.5,428.833 388.5,374.167 388.5,319.5C 407.674,319.83 426.674,319.497 445.5,318.5C 449.666,317.535 451.999,314.868 452.5,310.5 Z"/></g>
<g><path style="opacity:1" fill="#01638c" d="M 445.5,318.5 C 426.674,319.497 407.674,319.83 388.5,319.5C 378.833,319.5 369.167,319.5 359.5,319.5C 359.5,374.167 359.5,428.833 359.5,483.5C 358.501,428.669 358.168,373.669 358.5,318.5C 387.5,318.5 416.5,318.5 445.5,318.5 Z"/></g>
<g><path style="opacity:1" fill="#017bae" d="M 388.5,319.5 C 388.5,374.167 388.5,428.833 388.5,483.5C 378.833,483.5 369.167,483.5 359.5,483.5C 359.5,428.833 359.5,374.167 359.5,319.5C 369.167,319.5 378.833,319.5 388.5,319.5 Z"/></g>
<g><path style="opacity:1" fill="#878584" d="M 279.5,356.5 C 267.5,356.5 255.5,356.5 243.5,356.5C 243.5,359.5 243.5,362.5 243.5,365.5C 255.5,365.5 267.5,365.5 279.5,365.5C 262.008,366.497 244.341,366.83 226.5,366.5C 226.5,362.833 226.5,359.167 226.5,355.5C 244.341,355.17 262.008,355.503 279.5,356.5 Z"/></g>
<g><path style="opacity:1" fill="#ccbeb9" d="M 279.5,356.5 C 279.5,359.5 279.5,362.5 279.5,365.5C 267.5,365.5 255.5,365.5 243.5,365.5C 243.5,362.5 243.5,359.5 243.5,356.5C 255.5,356.5 267.5,356.5 279.5,356.5 Z"/></g>
<g><path style="opacity:1" fill="#014969" d="M 343.5,381.5 C 306.833,381.5 270.167,381.5 233.5,381.5C 224.5,381.5 215.5,381.5 206.5,381.5C 206.5,415.5 206.5,449.5 206.5,483.5C 205.502,449.337 205.168,415.004 205.5,380.5C 251.67,380.168 297.67,380.501 343.5,381.5 Z"/></g>
<g><path style="opacity:1" fill="#028fcf" d="M 233.5,381.5 C 233.5,415.5 233.5,449.5 233.5,483.5C 224.5,483.5 215.5,483.5 206.5,483.5C 206.5,449.5 206.5,415.5 206.5,381.5C 215.5,381.5 224.5,381.5 233.5,381.5 Z"/></g>
<g><path style="opacity:1" fill="#08a9f1" d="M 233.5,381.5 C 270.167,381.5 306.833,381.5 343.5,381.5C 343.5,415.5 343.5,449.5 343.5,483.5C 306.833,483.5 270.167,483.5 233.5,483.5C 233.5,449.5 233.5,415.5 233.5,381.5 Z"/></g>
<g><path style="opacity:1" fill="#8f8e8d" d="M 161.5,418.5 C 149.833,418.5 138.167,418.5 126.5,418.5C 126.5,421.833 126.5,425.167 126.5,428.5C 120.5,428.5 114.5,428.5 108.5,428.5C 108.5,424.833 108.5,421.167 108.5,417.5C 126.341,417.17 144.008,417.503 161.5,418.5 Z"/></g>
<g><path style="opacity:1" fill="#cabcb7" d="M 161.5,418.5 C 162.479,421.625 162.813,424.958 162.5,428.5C 150.5,428.5 138.5,428.5 126.5,428.5C 126.5,425.167 126.5,421.833 126.5,418.5C 138.167,418.5 149.833,418.5 161.5,418.5 Z"/></g>
<g><path style="opacity:1" fill="#07a8f0" d="M 80.5,443.5 C 80.5,456.833 80.5,470.167 80.5,483.5C 71.5,483.5 62.5,483.5 53.5,483.5C 53.5,470.167 53.5,456.833 53.5,443.5C 62.5,443.5 71.5,443.5 80.5,443.5 Z"/></g>
<g><path style="opacity:1" fill="#01bef8" d="M 80.5,443.5 C 117.5,443.5 154.5,443.5 191.5,443.5C 191.5,456.833 191.5,470.167 191.5,483.5C 154.5,483.5 117.5,483.5 80.5,483.5C 80.5,470.167 80.5,456.833 80.5,443.5 Z"/></g>
</svg>
