<?xml version="1.0" encoding="UTF-8"?>
<!DOCTYPE svg PUBLIC "-//W3C//DTD SVG 1.1//EN" "http://www.w3.org/Graphics/SVG/1.1/DTD/svg11.dtd">
<svg xmlns="http://www.w3.org/2000/svg" version="1.1" width="512px" height="512px" style="shape-rendering:geometricPrecision; text-rendering:geometricPrecision; image-rendering:optimizeQuality; fill-rule:evenodd; clip-rule:evenodd" xmlns:xlink="http://www.w3.org/1999/xlink">
<g><path style="opacity:0.988" fill="#010101" d="M 132.5,-0.5 C 210.167,-0.5 287.833,-0.5 365.5,-0.5C 370.518,1.17822 375.185,3.67822 379.5,7C 399.862,27.0282 419.862,47.3615 439.5,68C 487.464,59.9635 507.297,79.7968 499,127.5C 497.836,130.495 495.669,132.161 492.5,132.5C 489.389,131.913 486.889,130.246 485,127.5C 484.936,115.762 484.27,104.096 483,92.5C 480.758,88.0808 477.258,85.4141 472.5,84.5C 463.348,83.5064 454.015,83.1731 444.5,83.5C 444.168,126.67 444.501,169.67 445.5,212.5C 452.167,212.5 458.833,212.5 465.5,212.5C 471.833,212.5 478.167,212.5 484.5,212.5C 484.333,193.497 484.5,174.497 485,155.5C 485.374,154.584 485.874,153.75 486.5,153C 488.611,152.155 490.611,151.322 492.5,150.5C 495.669,150.839 497.836,152.505 499,155.5C 499.667,266.5 499.667,377.5 499,488.5C 496.082,500.248 488.915,507.915 477.5,511.5C 392.167,511.5 306.833,511.5 221.5,511.5C 219.331,509.66 217.998,507.326 217.5,504.5C 218.01,501.336 219.676,498.836 222.5,497C 301.833,496.5 381.166,496.333 460.5,496.5C 469.127,498.211 476.293,495.878 482,489.5C 483.009,487.975 483.509,486.308 483.5,484.5C 484.499,399.002 484.833,313.335 484.5,227.5C 426.331,227.168 368.331,227.501 310.5,228.5C 306.112,229.448 302.612,231.781 300,235.5C 291.257,249.144 281.424,261.977 270.5,274C 266.779,276.527 262.779,278.527 258.5,280C 196.168,280.5 133.834,280.667 71.5,280.5C 71.5,293.167 71.5,305.833 71.5,318.5C 167.834,318.333 264.167,318.5 360.5,319C 371.457,321.289 378.624,327.789 382,338.5C 382.667,374.167 382.667,409.833 382,445.5C 378.727,455.774 371.894,462.274 361.5,465C 264.834,465.5 168.167,465.667 71.5,465.5C 71.1439,473.238 71.6439,480.905 73,488.5C 74.8917,492.058 77.7251,494.558 81.5,496C 118.5,496.333 155.5,496.667 192.5,497C 195.892,498.542 197.892,501.042 198.5,504.5C 197.911,507.276 196.578,509.61 194.5,511.5C 155.833,511.5 117.167,511.5 78.5,511.5C 67.5167,508.016 60.3501,500.682 57,489.5C 55.7946,481.881 55.2946,474.214 55.5,466.5C 46.7741,466.839 38.1074,466.339 29.5,465C 20.1384,461.64 14.305,455.14 12,445.5C 11.3333,409.833 11.3333,374.167 12,338.5C 14.2358,329.853 19.4025,323.686 27.5,320C 36.7521,318.583 46.0854,318.083 55.5,318.5C 55.0212,242.473 55.5212,166.473 57,90.5C 59.6699,80.4974 65.8366,73.664 75.5,70C 87.1041,68.5878 98.7707,68.0878 110.5,68.5C 110.059,51.7767 110.559,35.11 112,18.5C 115.866,8.79481 122.699,2.46148 132.5,-0.5 Z"/></g>
<g><path style="opacity:1" fill="#e9f5fe" d="M 385.5,83.5 C 393.65,84.4927 401.983,84.8261 410.5,84.5C 410.5,127.167 410.5,169.833 410.5,212.5C 405.5,212.5 400.5,212.5 395.5,212.5C 395.667,198.496 395.5,184.496 395,170.5C 392.894,164.728 389.061,160.562 383.5,158C 369.556,156.405 355.556,156.072 341.5,157C 334.572,159.594 330.072,164.427 328,171.5C 327.5,185.163 327.333,198.829 327.5,212.5C 322.167,212.5 316.833,212.5 311.5,212.5C 311.667,186.165 311.5,159.831 311,133.5C 308.5,128.333 304.667,124.5 299.5,122C 285.903,120.388 272.236,120.055 258.5,121C 251,123.167 246.167,128 244,135.5C 243.333,151.833 243.333,168.167 244,184.5C 244.903,188.531 247.403,190.531 251.5,190.5C 252.071,197.781 251.405,204.781 249.5,211.5C 246.833,212.167 245.167,213.833 244.5,216.5C 243.504,232.658 243.17,248.991 243.5,265.5C 238.5,265.5 233.5,265.5 228.5,265.5C 228.832,209.997 228.499,154.664 227.5,99.5C 225.776,90.6079 220.443,85.1079 211.5,83C 205.5,82.8333 199.5,82.6667 193.5,82.5C 186.424,82.3896 179.424,82.8896 172.5,84C 166.082,86.9108 162.082,91.7441 160.5,98.5C 159.501,153.998 159.168,209.664 159.5,265.5C 148.5,265.5 137.5,265.5 126.5,265.5C 126.5,185.5 126.5,105.5 126.5,25.5C 127.473,20.3534 130.473,16.8534 135.5,15C 210.499,14.5 285.499,14.3333 360.5,14.5C 360.333,30.1702 360.5,45.8369 361,61.5C 364.62,73.9559 372.787,81.2892 385.5,83.5 Z"/></g>
<g><path style="opacity:1" fill="#60d6f6" d="M 402.5,68.5 C 393.833,59.1667 384.833,50.1667 375.5,41.5C 375.334,36.1563 375.501,30.8229 376,25.5C 390.167,39.6667 404.333,53.8333 418.5,68C 413.177,68.4994 407.844,68.666 402.5,68.5 Z"/></g>
<g><path style="opacity:1" fill="#09090a" d="M 163.5,42.5 C 183.503,42.3334 203.503,42.5 223.5,43C 227.696,45.9811 228.529,49.8144 226,54.5C 225.097,55.7014 223.931,56.5348 222.5,57C 203.5,57.6667 184.5,57.6667 165.5,57C 160.776,54.5647 159.276,50.7314 161,45.5C 162.045,44.6266 162.878,43.6266 163.5,42.5 Z"/></g>
<g><path style="opacity:1" fill="#97e4fa" d="M 375.5,41.5 C 384.833,50.1667 393.833,59.1667 402.5,68.5C 380.579,72.5793 371.579,63.5793 375.5,41.5 Z"/></g>
<g><path style="opacity:1" fill="#fec243" d="M 82.5,84.5 C 85.8333,84.5 89.1667,84.5 92.5,84.5C 92.5,144.833 92.5,205.167 92.5,265.5C 85.5,265.5 78.5,265.5 71.5,265.5C 71.3333,208.499 71.5,151.499 72,94.5C 73.4562,89.0217 76.9562,85.6884 82.5,84.5 Z"/></g>
<g><path style="opacity:1" fill="#fdb136" d="M 92.5,84.5 C 98.5,84.5 104.5,84.5 110.5,84.5C 110.5,144.833 110.5,205.167 110.5,265.5C 104.5,265.5 98.5,265.5 92.5,265.5C 92.5,205.167 92.5,144.833 92.5,84.5 Z"/></g>
<g><path style="opacity:1" fill="#75521a" d="M 82.5,84.5 C 91.9856,83.5062 101.652,83.1729 111.5,83.5C 111.5,144.5 111.5,205.5 111.5,266.5C 97.9895,266.829 84.6562,266.496 71.5,265.5C 78.5,265.5 85.5,265.5 92.5,265.5C 98.5,265.5 104.5,265.5 110.5,265.5C 110.5,205.167 110.5,144.833 110.5,84.5C 104.5,84.5 98.5,84.5 92.5,84.5C 89.1667,84.5 85.8333,84.5 82.5,84.5 Z"/></g>
<g><path style="opacity:1" fill="#c7edfc" d="M 385.5,83.5 C 400.167,83.5 414.833,83.5 429.5,83.5C 429.5,126.5 429.5,169.5 429.5,212.5C 423.167,212.5 416.833,212.5 410.5,212.5C 410.5,169.833 410.5,127.167 410.5,84.5C 401.983,84.8261 393.65,84.4927 385.5,83.5 Z"/></g>
<g><path style="opacity:1" fill="#c79834" d="M 472.5,84.5 C 468.5,84.5 464.5,84.5 460.5,84.5C 455.5,84.5 450.5,84.5 445.5,84.5C 445.5,127.167 445.5,169.833 445.5,212.5C 444.501,169.67 444.168,126.67 444.5,83.5C 454.015,83.1731 463.348,83.5064 472.5,84.5 Z"/></g>
<g><path style="opacity:1" fill="#ffc243" d="M 460.5,84.5 C 463.086,87.6793 464.586,91.3459 465,95.5C 465.5,134.499 465.667,173.499 465.5,212.5C 458.833,212.5 452.167,212.5 445.5,212.5C 445.5,169.833 445.5,127.167 445.5,84.5C 450.5,84.5 455.5,84.5 460.5,84.5 Z"/></g>
<g><path style="opacity:1" fill="#faae36" d="M 460.5,84.5 C 464.5,84.5 468.5,84.5 472.5,84.5C 477.258,85.4141 480.758,88.0808 483,92.5C 484.27,104.096 484.936,115.762 485,127.5C 486.889,130.246 489.389,131.913 492.5,132.5C 492.5,138.5 492.5,144.5 492.5,150.5C 490.611,151.322 488.611,152.155 486.5,153C 485.874,153.75 485.374,154.584 485,155.5C 484.5,174.497 484.333,193.497 484.5,212.5C 478.167,212.5 471.833,212.5 465.5,212.5C 465.667,173.499 465.5,134.499 465,95.5C 464.586,91.3459 463.086,87.6793 460.5,84.5 Z"/></g>
<g><path style="opacity:1" fill="#6dd3a0" d="M 210.5,98.5 C 204.833,98.5 199.167,98.5 193.5,98.5C 193.5,154.167 193.5,209.833 193.5,265.5C 187.5,265.5 181.5,265.5 175.5,265.5C 175.5,210.5 175.5,155.5 175.5,100.5C 175.953,99.5416 176.619,98.7083 177.5,98C 188.674,97.1743 199.674,97.341 210.5,98.5 Z"/></g>
<g><path style="opacity:1" fill="#47cc8d" d="M 210.5,98.5 C 211.5,98.8333 212.167,99.5 212.5,100.5C 212.5,155.5 212.5,210.5 212.5,265.5C 206.167,265.5 199.833,265.5 193.5,265.5C 193.5,209.833 193.5,154.167 193.5,98.5C 199.167,98.5 204.833,98.5 210.5,98.5 Z"/></g>
<g><path style="opacity:1" fill="#7a8185" d="M 126.5,25.5 C 126.5,105.5 126.5,185.5 126.5,265.5C 137.5,265.5 148.5,265.5 159.5,265.5C 159.168,209.664 159.501,153.998 160.5,98.5C 160.5,154.5 160.5,210.5 160.5,266.5C 148.833,266.5 137.167,266.5 125.5,266.5C 125.167,185.998 125.501,105.665 126.5,25.5 Z"/></g>
<g><path style="opacity:1" fill="#2f654a" d="M 175.5,100.5 C 175.5,155.5 175.5,210.5 175.5,265.5C 181.5,265.5 187.5,265.5 193.5,265.5C 199.833,265.5 206.167,265.5 212.5,265.5C 212.5,210.5 212.5,155.5 212.5,100.5C 213.499,155.664 213.832,210.997 213.5,266.5C 200.5,266.5 187.5,266.5 174.5,266.5C 174.168,210.997 174.501,155.664 175.5,100.5 Z"/></g>
<g><path style="opacity:1" fill="#7b8186" d="M 227.5,99.5 C 228.499,154.664 228.832,209.997 228.5,265.5C 233.5,265.5 238.5,265.5 243.5,265.5C 243.17,248.991 243.504,232.658 244.5,216.5C 244.5,233.167 244.5,249.833 244.5,266.5C 238.833,266.5 233.167,266.5 227.5,266.5C 227.5,210.833 227.5,155.167 227.5,99.5 Z"/></g>
<g><path style="opacity:1" fill="#c895e4" d="M 277.5,135.5 C 277.833,164.841 277.5,194.174 276.5,223.5C 273.23,225.267 270.397,227.6 268,230.5C 265.63,234.597 262.797,238.264 259.5,241.5C 259.826,232.983 259.493,224.65 258.5,216.5C 257.131,212.083 254.131,210.417 249.5,211.5C 251.405,204.781 252.071,197.781 251.5,190.5C 254.195,190.067 256.362,188.734 258,186.5C 258.333,170.5 258.667,154.5 259,138.5C 259.374,137.584 259.874,136.75 260.5,136C 266.157,135.501 271.824,135.334 277.5,135.5 Z"/></g>
<g><path style="opacity:1" fill="#b188c8" d="M 277.5,135.5 C 283.176,135.334 288.843,135.501 294.5,136C 295,136.5 295.5,137 296,137.5C 296.667,164.5 296.667,191.5 296,218.5C 284.851,230.645 274.851,243.645 266,257.5C 264.296,259.373 262.463,261.04 260.5,262.5C 259.509,255.687 259.175,248.687 259.5,241.5C 262.797,238.264 265.63,234.597 268,230.5C 270.397,227.6 273.23,225.267 276.5,223.5C 277.5,194.174 277.833,164.841 277.5,135.5 Z"/></g>
<g><path style="opacity:1" fill="#f75d78" d="M 361.5,171.5 C 361.5,185.167 361.5,198.833 361.5,212.5C 355.167,212.5 348.833,212.5 342.5,212.5C 342.333,199.496 342.5,186.496 343,173.5C 343.5,173 344,172.5 344.5,172C 350.157,171.501 355.824,171.334 361.5,171.5 Z"/></g>
<g><path style="opacity:1" fill="#f64455" d="M 361.5,171.5 C 367.176,171.334 372.843,171.501 378.5,172C 379,172.5 379.5,173 380,173.5C 380.5,186.496 380.667,199.496 380.5,212.5C 374.167,212.5 367.833,212.5 361.5,212.5C 361.5,198.833 361.5,185.167 361.5,171.5 Z"/></g>
<g><path style="opacity:1" fill="#fddf76" d="M 310.5,228.5 C 362.167,228.5 413.833,228.5 465.5,228.5C 465.667,314.501 465.5,400.501 465,486.5C 463.746,490.004 462.246,493.337 460.5,496.5C 381.166,496.333 301.833,496.5 222.5,497C 219.676,498.836 218.01,501.336 217.5,504.5C 211.167,504.5 204.833,504.5 198.5,504.5C 197.892,501.042 195.892,498.542 192.5,497C 155.5,496.667 118.5,496.333 81.5,496C 77.7251,494.558 74.8917,492.058 73,488.5C 71.6439,480.905 71.1439,473.238 71.5,465.5C 168.167,465.667 264.834,465.5 361.5,465C 371.894,462.274 378.727,455.774 382,445.5C 382.667,409.833 382.667,374.167 382,338.5C 378.624,327.789 371.457,321.289 360.5,319C 264.167,318.5 167.834,318.333 71.5,318.5C 71.5,305.833 71.5,293.167 71.5,280.5C 133.834,280.667 196.168,280.5 258.5,280C 262.779,278.527 266.779,276.527 270.5,274C 281.424,261.977 291.257,249.144 300,235.5C 302.612,231.781 306.112,229.448 310.5,228.5 Z"/></g>
<g><path style="opacity:1" fill="#fed05a" d="M 465.5,228.5 C 471.5,228.5 477.5,228.5 483.5,228.5C 483.5,313.833 483.5,399.167 483.5,484.5C 483.509,486.308 483.009,487.975 482,489.5C 476.293,495.878 469.127,498.211 460.5,496.5C 462.246,493.337 463.746,490.004 465,486.5C 465.5,400.501 465.667,314.501 465.5,228.5 Z"/></g>
<g><path style="opacity:1" fill="#b19445" d="M 310.5,228.5 C 368.331,227.501 426.331,227.168 484.5,227.5C 484.833,313.335 484.499,399.002 483.5,484.5C 483.5,399.167 483.5,313.833 483.5,228.5C 477.5,228.5 471.5,228.5 465.5,228.5C 413.833,228.5 362.167,228.5 310.5,228.5 Z"/></g>
<g><path style="opacity:1" fill="#7a5d8b" d="M 258.5,216.5 C 259.493,224.65 259.826,232.983 259.5,241.5C 259.175,248.687 259.509,255.687 260.5,262.5C 260.44,263.043 260.107,263.376 259.5,263.5C 258.501,247.848 258.167,232.181 258.5,216.5 Z"/></g>
<g><path style="opacity:1" fill="#010100" d="M 325.5,248.5 C 367.168,248.333 408.835,248.5 450.5,249C 455.143,251.072 456.643,254.572 455,259.5C 453.786,261.049 452.286,262.215 450.5,263C 408.833,263.667 367.167,263.667 325.5,263C 320.225,258.122 320.225,253.289 325.5,248.5 Z"/></g>
<g><path style="opacity:1" fill="#97e4fa" d="M 339.5,333.5 C 340.32,335.14 341.153,336.807 342,338.5C 342.667,373.833 342.667,409.167 342,444.5C 341.427,446.641 340.594,448.641 339.5,450.5C 237.499,450.667 135.499,450.5 33.5,450C 30.2716,448.437 28.1049,445.937 27,442.5C 26.3333,408.833 26.3333,375.167 27,341.5C 28.5,338 31,335.5 34.5,334C 136.166,333.5 237.833,333.333 339.5,333.5 Z"/></g>
<g><path style="opacity:1" fill="#62dafa" d="M 339.5,333.5 C 345.842,333.334 352.175,333.5 358.5,334C 362.499,334.668 365.332,336.835 367,340.5C 367.167,357.5 367.333,374.5 367.5,391.5C 367.647,409.563 367.147,427.563 366,445.5C 364.457,447.378 362.624,448.878 360.5,450C 353.508,450.5 346.508,450.666 339.5,450.5C 340.594,448.641 341.427,446.641 342,444.5C 342.667,409.167 342.667,373.833 342,338.5C 341.153,336.807 340.32,335.14 339.5,333.5 Z"/></g>
<g><path style="opacity:1" fill="#050808" d="M 62.5,345.5 C 66.4257,345.047 69.5923,346.38 72,349.5C 72.5,374.164 72.6666,398.831 72.5,423.5C 79.8409,423.334 87.1742,423.5 94.5,424C 102.073,428.187 102.406,432.854 95.5,438C 84.5,438.667 73.5,438.667 62.5,438C 60.4476,437.07 58.9476,435.57 58,433.5C 57.3333,405.833 57.3333,378.167 58,350.5C 59.3657,348.638 60.8657,346.972 62.5,345.5 Z"/></g>
<g><path style="opacity:1" fill="#020404" d="M 166.5,345.5 C 194.558,344.586 212.058,357.586 219,384.5C 221.026,408.955 210.86,426.121 188.5,436C 161.741,443.035 142.241,434.202 130,409.5C 121.741,376.338 133.908,355.005 166.5,345.5 Z"/></g>
<g><path style="opacity:1" fill="#030405" d="M 287.5,345.5 C 299.271,344.59 310.271,347.09 320.5,353C 325.436,356.958 325.769,361.291 321.5,366C 320.127,366.875 318.627,367.375 317,367.5C 311.812,364.66 306.312,362.494 300.5,361C 281.488,359.675 269.322,368.175 264,386.5C 263.718,411.885 276.218,424.052 301.5,423C 313.17,419.495 319.503,411.662 320.5,399.5C 314.491,399.666 308.491,399.499 302.5,399C 296.908,393.833 297.241,389.167 303.5,385C 312.833,384.333 322.167,384.333 331.5,385C 333.667,385.833 335.167,387.333 336,389.5C 337.157,406.037 331.657,419.87 319.5,431C 293.453,444.762 271.953,439.595 255,415.5C 242.95,389.667 248.45,368.501 271.5,352C 276.744,349.315 282.077,347.148 287.5,345.5 Z"/></g>
<g><path style="opacity:1" fill="#97e4f9" d="M 166.5,360.5 C 192.837,360.335 205.337,373.335 204,399.5C 197.508,417.665 184.675,425.498 165.5,423C 143.172,413.687 136.672,397.854 146,375.5C 151.329,368.323 158.162,363.323 166.5,360.5 Z"/></g>
</svg>
