<?xml version="1.0" encoding="UTF-8"?>
<!DOCTYPE svg PUBLIC "-//W3C//DTD SVG 1.1//EN" "http://www.w3.org/Graphics/SVG/1.1/DTD/svg11.dtd">
<svg xmlns="http://www.w3.org/2000/svg" version="1.1" width="512px" height="512px" style="shape-rendering:geometricPrecision; text-rendering:geometricPrecision; image-rendering:optimizeQuality; fill-rule:evenodd; clip-rule:evenodd" xmlns:xlink="http://www.w3.org/1999/xlink">
<g><path style="opacity:0.971" fill="#010100" d="M 279.5,172.5 C 278.924,179.311 279.59,185.977 281.5,192.5C 282.527,198.915 284.527,204.915 287.5,210.5C 289.948,215.903 292.282,221.403 294.5,227C 293.056,235.055 288.723,237.222 281.5,233.5C 278.316,229.132 275.649,224.465 273.5,219.5C 195.332,218.168 116.999,218.168 38.5,219.5C 38.6236,220.107 38.9569,220.44 39.5,220.5C 54.8927,270.513 70.3927,320.513 86,370.5C 88.3358,375.175 91.1691,379.508 94.5,383.5C 112.219,360.32 134.552,354.486 161.5,366C 172.186,371.849 179.852,380.349 184.5,391.5C 186.721,395.168 187.721,399.168 187.5,403.5C 221.833,403.5 256.167,403.5 290.5,403.5C 290.279,399.168 291.279,395.168 293.5,391.5C 299.904,376.6 310.904,366.766 326.5,362C 341.378,358.677 355.378,360.843 368.5,368.5C 374.452,372.451 379.452,377.451 383.5,383.5C 386.831,379.508 389.664,375.175 392,370.5C 401.305,341.926 409.972,313.259 418,284.5C 410.918,287.013 403.751,288.68 396.5,289.5C 378.81,290.751 361.476,288.918 344.5,284C 336.32,280.74 328.32,277.24 320.5,273.5C 320.822,275.722 320.155,277.556 318.5,279C 313.587,281.587 309.42,280.753 306,276.5C 303.833,268.5 301.667,260.5 299.5,252.5C 300.198,248.967 302.198,246.467 305.5,245C 309.833,244.833 314.167,244.667 318.5,244.5C 323.609,244.386 328.609,244.886 333.5,246C 337.787,251.256 337.12,255.923 331.5,260C 354.658,273.665 379.324,277.499 405.5,271.5C 416.828,269.287 427.161,264.954 436.5,258.5C 468.697,237.799 485.697,208.132 487.5,169.5C 486.978,160.032 485.478,150.698 483,141.5C 479.851,131.705 476.018,122.205 471.5,113C 474.243,104.209 479.409,102.376 487,107.5C 504.348,138.108 508.348,170.442 499,204.5C 491.79,227.708 478.957,247.208 460.5,263C 453.261,268.537 445.761,273.704 438,278.5C 428.202,310.894 418.202,343.227 408,375.5C 404.107,385.059 398.273,393.225 390.5,400C 394.918,429.492 383.251,449.825 355.5,461C 327.439,467.1 306.606,457.6 293,432.5C 291.316,428.284 290.149,423.951 289.5,419.5C 255.833,419.5 222.167,419.5 188.5,419.5C 182.737,446.758 165.903,461.424 138,463.5C 106.167,460.333 88.6667,442.833 85.5,411C 86.0956,407.282 86.7623,403.616 87.5,400C 78.9679,392.439 72.8012,383.273 69,372.5C 53.1313,321.894 37.4646,271.227 22,220.5C 18.9243,219.712 15.7577,219.212 12.5,219C 10.714,218.215 9.21398,217.049 8,215.5C 7.03104,199.408 7.36438,183.408 9,167.5C 10.6477,166.283 12.481,165.45 14.5,165C 23.5184,164.832 32.5184,164.332 41.5,163.5C 36.1432,154.787 31.3098,145.787 27,136.5C 26.005,130.305 27.8383,125.139 32.5,121C 52.6703,109.081 73.0036,97.4139 93.5,86C 100.449,84.4281 106.282,86.2614 111,91.5C 114,96.8333 117,102.167 120,107.5C 122.312,103.42 125.812,100.92 130.5,100C 137.492,99.5004 144.492,99.3337 151.5,99.5C 151.091,85.4491 151.591,71.4491 153,57.5C 155.206,51.8079 159.373,48.6413 165.5,48C 189.875,47.0497 214.208,47.383 238.5,49C 242.388,51.2215 245.221,54.3882 247,58.5C 247.5,79.164 247.667,99.8306 247.5,120.5C 255.84,120.666 264.173,120.5 272.5,120C 297.143,71.4993 336.81,47.8326 391.5,49C 410.374,50.2923 427.874,55.7923 444,65.5C 447.707,57.1475 453.04,55.8142 460,61.5C 462.581,69.6607 465.081,77.8273 467.5,86C 467.085,89.5053 465.419,92.1719 462.5,94C 453.199,95.3492 443.866,95.6826 434.5,95C 429.931,92.4586 428.431,88.6253 430,83.5C 430.785,81.714 431.951,80.214 433.5,79C 383.419,55.4163 339.586,63.9163 302,104.5C 286.415,124.421 278.915,147.088 279.5,172.5 Z"/></g>
<g><path style="opacity:1" fill="#eab877" d="M 224.5,64.5 C 224.5,83.1667 224.5,101.833 224.5,120.5C 220.833,120.5 217.167,120.5 213.5,120.5C 215.04,112.422 212.374,106.256 205.5,102C 193.242,100.561 180.909,100.061 168.5,100.5C 168.5,88.5 168.5,76.5 168.5,64.5C 187.167,64.5 205.833,64.5 224.5,64.5 Z"/></g>
<g><path style="opacity:1" fill="#e3a76f" d="M 224.5,64.5 C 226.5,64.5 228.5,64.5 230.5,64.5C 230.5,83.1667 230.5,101.833 230.5,120.5C 228.5,120.5 226.5,120.5 224.5,120.5C 224.5,101.833 224.5,83.1667 224.5,64.5 Z"/></g>
<g><path style="opacity:1" fill="#75573a" d="M 230.5,64.5 C 231.497,83.326 231.83,102.326 231.5,121.5C 225.31,121.823 219.31,121.49 213.5,120.5C 217.167,120.5 220.833,120.5 224.5,120.5C 226.5,120.5 228.5,120.5 230.5,120.5C 230.5,101.833 230.5,83.1667 230.5,64.5 Z"/></g>
<g><path style="opacity:0.979" fill="#020201" d="M 462.5,186.5 C 458.309,187.758 454.643,189.758 451.5,192.5C 450.066,196.304 448.732,200.137 447.5,204C 447.944,207.059 449.277,209.559 451.5,211.5C 452.687,217.615 450.687,222.281 445.5,225.5C 441.335,229.497 437.002,233.33 432.5,237C 426.945,237.707 421.779,236.541 417,233.5C 416.235,233.57 415.735,233.903 415.5,234.5C 411.855,235.987 408.188,237.487 404.5,239C 402.548,242.354 400.881,245.854 399.5,249.5C 398.5,250.333 397.5,251.167 396.5,252C 387.5,252.667 378.5,252.667 369.5,252C 365.767,248.649 363.433,244.482 362.5,239.5C 358.389,237.945 354.389,236.112 350.5,234C 347.076,234.361 343.742,235.361 340.5,237C 338.167,237.667 335.833,237.667 333.5,237C 327.667,231.167 321.833,225.333 316,219.5C 314.187,216.922 314.02,214.255 315.5,211.5C 316.787,208.925 318.121,206.259 319.5,203.5C 317.194,199.226 315.194,194.893 313.5,190.5C 303.158,188.833 298.492,182.833 299.5,172.5C 299.09,166.379 299.59,160.379 301,154.5C 304.924,151.787 309.091,149.453 313.5,147.5C 315.167,143.5 316.833,139.5 318.5,135.5C 315.511,130.878 314.344,125.878 315,120.5C 321.14,112.352 328.474,105.685 337,100.5C 341.105,101.885 345.105,103.551 349,105.5C 352.858,102.988 357.025,101.155 361.5,100C 362.787,95.0926 365.12,90.7593 368.5,87C 378.167,86.3333 387.833,86.3333 397.5,87C 400.706,91.3226 403.54,95.8226 406,100.5C 409.92,101.627 413.587,103.294 417,105.5C 422.174,101.824 427.674,100.657 433.5,102C 439,107.5 444.5,113 450,118.5C 452.209,124.535 451.376,130.202 447.5,135.5C 449.502,139.843 451.502,144.177 453.5,148.5C 456.5,149.667 459.5,150.833 462.5,152C 464.049,153.214 465.215,154.714 466,156.5C 466.667,165.5 466.667,174.5 466,183.5C 465.241,185.063 464.074,186.063 462.5,186.5 Z"/></g>
<g><path style="opacity:1" fill="#5fb3f9" d="M 118.5,150.5 C 109.596,135.699 100.929,120.699 92.5,105.5C 94.3046,104.763 95.9713,103.763 97.5,102.5C 104.838,113.838 111.671,125.505 118,137.5C 118.499,141.821 118.666,146.154 118.5,150.5 Z"/></g>
<g><path style="opacity:1" fill="#f9dc74" d="M 378.5,102.5 C 381.518,102.335 384.518,102.502 387.5,103C 388.975,106.421 390.641,109.754 392.5,113C 399.664,115.61 406.664,118.61 413.5,122C 418.681,122.22 423.681,121.554 428.5,120C 430.557,121.719 432.224,123.719 433.5,126C 430.834,130.162 430.001,134.662 431,139.5C 434.453,145.859 437.119,152.526 439,159.5C 442.294,162.397 446.128,164.064 450.5,164.5C 450.82,167.898 450.487,171.232 449.5,174.5C 444.489,175.58 440.656,178.246 438,182.5C 436.448,188.489 434.115,194.156 431,199.5C 430.001,204.338 430.834,208.838 433.5,213C 431.702,215.966 429.369,218.466 426.5,220.5C 422.527,217.784 418.194,216.617 413.5,217C 407.608,220.633 401.275,223.3 394.5,225C 391.193,227.778 389.026,231.278 388,235.5C 384.667,236.833 381.333,236.833 378,235.5C 376.901,232.136 375.401,228.97 373.5,226C 366.737,224.303 360.403,221.636 354.5,218C 352.722,217.296 350.888,216.796 349,216.5C 345.359,217.714 341.859,218.88 338.5,220C 336.316,217.984 334.316,215.817 332.5,213.5C 334.892,209.417 336.058,205.083 336,200.5C 331.974,194.76 329.307,188.426 328,181.5C 325.014,178.169 321.348,175.836 317,174.5C 316.176,171.118 316.343,167.784 317.5,164.5C 320.944,163.301 324.111,161.634 327,159.5C 328.84,151.973 331.84,144.973 336,138.5C 336.667,136.833 336.667,135.167 336,133.5C 334.086,130.702 333.086,127.702 333,124.5C 334.5,123 336,121.5 337.5,120C 342.319,121.554 347.319,122.22 352.5,122C 359.434,118.247 366.601,115.08 374,112.5C 375.604,109.179 377.104,105.846 378.5,102.5 Z"/></g>
<g><path style="opacity:1" fill="#89c7fc" d="M 92.5,105.5 C 100.929,120.699 109.596,135.699 118.5,150.5C 118.5,155.5 118.5,160.5 118.5,165.5C 99.4883,165.833 80.4883,165.5 61.5,164.5C 55.6992,154.203 49.6992,144.036 43.5,134C 59.8608,124.488 76.1942,114.988 92.5,105.5 Z"/></g>
<g><path style="opacity:1" fill="#33765d" d="M 197.5,116.5 C 195.167,116.5 192.833,116.5 190.5,116.5C 172.167,116.5 153.833,116.5 135.5,116.5C 135.5,132.833 135.5,149.167 135.5,165.5C 134.503,149.008 134.17,132.342 134.5,115.5C 155.673,115.169 176.673,115.503 197.5,116.5 Z"/></g>
<g><path style="opacity:1" fill="#6bf4c1" d="M 190.5,116.5 C 190.5,132.833 190.5,149.167 190.5,165.5C 172.167,165.5 153.833,165.5 135.5,165.5C 135.5,149.167 135.5,132.833 135.5,116.5C 153.833,116.5 172.167,116.5 190.5,116.5 Z"/></g>
<g><path style="opacity:1" fill="#0fe49b" d="M 190.5,116.5 C 192.833,116.5 195.167,116.5 197.5,116.5C 197.5,132.833 197.5,149.167 197.5,165.5C 195.167,165.5 192.833,165.5 190.5,165.5C 190.5,149.167 190.5,132.833 190.5,116.5 Z"/></g>
<g><path style="opacity:1" fill="#040403" d="M 373.5,126.5 C 401.51,124.232 419.01,136.566 426,163.5C 427.333,188.342 416.166,204.509 392.5,212C 366.398,215.204 349.231,204.371 341,179.5C 337.553,153.057 348.387,135.391 373.5,126.5 Z"/></g>
<g><path style="opacity:1" fill="#86753d" d="M 213.5,137.5 C 231.338,136.173 249.338,136.173 267.5,137.5C 267.376,138.107 267.043,138.44 266.5,138.5C 249.008,137.503 231.341,137.17 213.5,137.5 Z"/></g>
<g><path style="opacity:1" fill="#fedf75" d="M 213.5,137.5 C 231.341,137.17 249.008,137.503 266.5,138.5C 264.049,147.321 262.716,156.321 262.5,165.5C 246.167,165.5 229.833,165.5 213.5,165.5C 213.5,156.167 213.5,146.833 213.5,137.5 Z"/></g>
<g><path style="opacity:1" fill="#e9ecee" d="M 375.5,142.5 C 401.145,141.305 412.312,153.305 409,178.5C 402.284,193.442 390.784,199.276 374.5,196C 360.436,189.71 354.27,178.877 356,163.5C 359.331,153.466 365.831,146.466 375.5,142.5 Z"/></g>
<g><path style="opacity:1" fill="#dda26b" d="M 279.5,172.5 C 286.167,172.5 292.833,172.5 299.5,172.5C 298.492,182.833 303.158,188.833 313.5,190.5C 303.219,192.476 292.552,193.143 281.5,192.5C 279.59,185.977 278.924,179.311 279.5,172.5 Z"/></g>
<g><path style="opacity:1" fill="#e1a56e" d="M 264.5,192.5 C 184.167,192.5 103.833,192.5 23.5,192.5C 23.5,188.833 23.5,185.167 23.5,181.5C 103.5,181.5 183.5,181.5 263.5,181.5C 264.114,185.135 264.448,188.802 264.5,192.5 Z"/></g>
<g><path style="opacity:1" fill="#c38857" d="M 23.5,192.5 C 103.833,192.5 184.167,192.5 264.5,192.5C 265.291,195.115 265.957,197.782 266.5,200.5C 185.84,202.497 104.84,203.164 23.5,202.5C 23.5,199.167 23.5,195.833 23.5,192.5 Z"/></g>
<g><path style="opacity:1" fill="#c18757" d="M 313.5,190.5 C 315.194,194.893 317.194,199.226 319.5,203.5C 318.121,206.259 316.787,208.925 315.5,211.5C 306.348,210.506 297.015,210.173 287.5,210.5C 284.527,204.915 282.527,198.915 281.5,192.5C 292.552,193.143 303.219,192.476 313.5,190.5 Z"/></g>
<g><path style="opacity:0.978" fill="#c48a59" d="M 462.5,186.5 C 462.666,192.842 462.5,199.175 462,205.5C 459.647,209.429 456.147,211.429 451.5,211.5C 449.277,209.559 447.944,207.059 447.5,204C 448.732,200.137 450.066,196.304 451.5,192.5C 454.643,189.758 458.309,187.758 462.5,186.5 Z"/></g>
<g><path style="opacity:1" fill="#4d3622" d="M 266.5,200.5 C 267.404,201.209 267.737,202.209 267.5,203.5C 185.998,203.833 104.665,203.499 23.5,202.5C 104.84,203.164 185.84,202.497 266.5,200.5 Z"/></g>
<g><path style="opacity:1" fill="#ebb977" d="M 287.5,210.5 C 297.015,210.173 306.348,210.506 315.5,211.5C 314.02,214.255 314.187,216.922 316,219.5C 321.833,225.333 327.667,231.167 333.5,237C 335.833,237.667 338.167,237.667 340.5,237C 343.742,235.361 347.076,234.361 350.5,234C 354.389,236.112 358.389,237.945 362.5,239.5C 363.433,244.482 365.767,248.649 369.5,252C 378.5,252.667 387.5,252.667 396.5,252C 397.5,251.167 398.5,250.333 399.5,249.5C 400.881,245.854 402.548,242.354 404.5,239C 408.188,237.487 411.855,235.987 415.5,234.5C 416.097,234.735 416.43,235.235 416.5,236C 412.726,247.821 409.059,259.654 405.5,271.5C 379.324,277.499 354.658,273.665 331.5,260C 337.12,255.923 337.787,251.256 333.5,246C 328.609,244.886 323.609,244.386 318.5,244.5C 314.167,244.667 309.833,244.833 305.5,245C 302.198,246.467 300.198,248.967 299.5,252.5C 301.667,260.5 303.833,268.5 306,276.5C 309.42,280.753 313.587,281.587 318.5,279C 320.155,277.556 320.822,275.722 320.5,273.5C 328.32,277.24 336.32,280.74 344.5,284C 361.476,288.918 378.81,290.751 396.5,289.5C 397.5,289.5 398.5,289.5 399.5,289.5C 393.924,309.993 387.757,330.326 381,350.5C 378.769,355.731 376.103,360.731 373,365.5C 371.871,367.141 370.371,368.141 368.5,368.5C 355.378,360.843 341.378,358.677 326.5,362C 310.904,366.766 299.904,376.6 293.5,391.5C 257.167,391.5 220.833,391.5 184.5,391.5C 179.852,380.349 172.186,371.849 161.5,366C 134.552,354.486 112.219,360.32 94.5,383.5C 91.1691,379.508 88.3358,375.175 86,370.5C 70.3927,320.513 54.8927,270.513 39.5,220.5C 117.332,219.501 195.332,219.167 273.5,219.5C 275.649,224.465 278.316,229.132 281.5,233.5C 288.723,237.222 293.056,235.055 294.5,227C 292.282,221.403 289.948,215.903 287.5,210.5 Z"/></g>
<g><path style="opacity:1" fill="#8d6f47" d="M 273.5,219.5 C 195.332,219.167 117.332,219.501 39.5,220.5C 38.9569,220.44 38.6236,220.107 38.5,219.5C 116.999,218.168 195.332,218.168 273.5,219.5 Z"/></g>
<g><path style="opacity:1" fill="#e1a66e" d="M 445.5,225.5 C 442.343,236.462 439.343,247.462 436.5,258.5C 427.161,264.954 416.828,269.287 405.5,271.5C 409.059,259.654 412.726,247.821 416.5,236C 416.43,235.235 416.097,234.735 415.5,234.5C 415.735,233.903 416.235,233.57 417,233.5C 421.779,236.541 426.945,237.707 432.5,237C 437.002,233.33 441.335,229.497 445.5,225.5 Z"/></g>
<g><path style="opacity:1" fill="#e0a56e" d="M 368.5,368.5 C 370.371,368.141 371.871,367.141 373,365.5C 376.103,360.731 378.769,355.731 381,350.5C 387.757,330.326 393.924,309.993 399.5,289.5C 398.5,289.5 397.5,289.5 396.5,289.5C 403.751,288.68 410.918,287.013 418,284.5C 409.972,313.259 401.305,341.926 392,370.5C 389.664,375.175 386.831,379.508 383.5,383.5C 379.452,377.451 374.452,372.451 368.5,368.5 Z"/></g>
<g><path style="opacity:1" fill="#8997a3" d="M 129.5,376.5 C 150.848,374.37 165.015,383.37 172,403.5C 174.582,425.85 165.082,440.016 143.5,446C 122.721,447.554 109.221,438.388 103,418.5C 100.966,397.556 109.799,383.556 129.5,376.5 Z"/></g>
<g><path style="opacity:1" fill="#8897a2" d="M 332.5,376.5 C 353.84,374.359 368.007,383.359 375,403.5C 377.508,425.309 368.342,439.475 347.5,446C 326.643,448.155 312.81,439.322 306,419.5C 303.579,398.112 312.413,383.779 332.5,376.5 Z"/></g>
<g><path style="opacity:1" fill="#030303" d="M 132.5,385.5 C 152.393,385.231 162.56,394.897 163,414.5C 160.43,429.072 151.763,436.405 137,436.5C 118.065,433.674 110.065,422.674 113,403.5C 116.906,394.64 123.406,388.64 132.5,385.5 Z"/></g>
<g><path style="opacity:1" fill="#030303" d="M 335.5,385.5 C 357.015,385.584 366.849,396.251 365,417.5C 359.564,432.902 348.731,439.069 332.5,436C 319.626,430.427 313.792,420.594 315,406.5C 318.016,395.652 324.849,388.652 335.5,385.5 Z"/></g>
<g><path style="opacity:1" fill="#e0a56d" d="M 184.5,391.5 C 220.833,391.5 257.167,391.5 293.5,391.5C 291.279,395.168 290.279,399.168 290.5,403.5C 256.167,403.5 221.833,403.5 187.5,403.5C 187.721,399.168 186.721,395.168 184.5,391.5 Z"/></g>
<g><path style="opacity:1" fill="#99a6b3" d="M 134.5,401.5 C 145.609,402.079 149.109,407.413 145,417.5C 141.662,420.318 137.829,421.151 133.5,420C 128.845,417.103 127.345,412.937 129,407.5C 130.36,404.977 132.193,402.977 134.5,401.5 Z"/></g>
<g><path style="opacity:1" fill="#9aa6b4" d="M 337.5,401.5 C 347.024,401.522 350.858,406.189 349,415.5C 346.103,420.155 341.937,421.655 336.5,420C 328.311,413.426 328.644,407.259 337.5,401.5 Z"/></g>
</svg>
