<?xml version="1.0" encoding="UTF-8"?>
<!DOCTYPE svg PUBLIC "-//W3C//DTD SVG 1.1//EN" "http://www.w3.org/Graphics/SVG/1.1/DTD/svg11.dtd">
<svg xmlns="http://www.w3.org/2000/svg" version="1.1" width="512px" height="512px" style="shape-rendering:geometricPrecision; text-rendering:geometricPrecision; image-rendering:optimizeQuality; fill-rule:evenodd; clip-rule:evenodd" xmlns:xlink="http://www.w3.org/1999/xlink">
<g><path style="opacity:0.966" fill="#040200" d="M 320.5,5.5 C 342.845,2.55671 361.345,9.55671 376,26.5C 417.333,88.5 458.667,150.5 500,212.5C 511.001,231.86 512.335,251.86 504,272.5C 477.413,320.673 451.079,369.007 425,417.5C 416.832,432.181 404.665,442.015 388.5,447C 328.12,465.512 267.787,484.178 207.5,503C 166.425,511.377 135.925,497.21 116,460.5C 80.9161,405.33 45.5827,350.33 10,295.5C 0.350983,278.469 -0.982351,260.802 6,242.5C 28.6667,197.833 51.3333,153.167 74,108.5C 88.0698,86.77 107.236,71.27 131.5,62C 194.643,43.2263 257.643,24.393 320.5,5.5 Z"/></g>
<g><path style="opacity:1" fill="#fdc006" d="M 319.5,18.5 C 320.978,18.238 322.311,18.5713 323.5,19.5C 320.333,23.8333 317.167,28.1667 314,32.5C 312.167,40 315,42.8333 322.5,41C 327.667,33.8333 332.833,26.6667 338,19.5C 343.826,19.0979 349.326,20.5979 354.5,24C 358.967,27.4651 363.133,31.2984 367,35.5C 410.079,99.3196 452.412,163.653 494,228.5C 495.562,232.014 496.395,235.681 496.5,239.5C 433.017,256.766 369.517,274.099 306,291.5C 305.167,291.167 304.333,290.833 303.5,290.5C 299.025,284.191 294.359,278.025 289.5,272C 282.735,269.757 279.902,272.257 281,279.5C 284.5,284.5 288,289.5 291.5,294.5C 281.344,298.291 271.011,301.624 260.5,304.5C 258.971,304.471 257.804,303.804 257,302.5C 233.304,267.636 209.804,232.636 186.5,197.5C 194.824,193.756 203.324,190.423 212,187.5C 213.261,187.759 214.261,188.426 215,189.5C 219.468,196.268 224.301,202.768 229.5,209C 235.834,210.329 238.668,207.829 238,201.5C 232.639,194.305 227.472,186.972 222.5,179.5C 226.474,173.693 230.64,168.026 235,162.5C 238.462,155.318 236.295,151.818 228.5,152C 222.118,159.38 216.118,167.047 210.5,175C 200.074,179.697 189.407,183.363 178.5,186C 156.167,153 133.833,120 111.5,87C 120.233,80.2842 129.9,75.2842 140.5,72C 200.385,54.4229 260.051,36.5896 319.5,18.5 Z"/></g>
<g><path style="opacity:1" fill="#090600" d="M 298.5,54.5 C 306.143,54.1429 308.643,57.4762 306,64.5C 299.5,73 293,81.5 286.5,90C 280.199,91.281 277.365,88.781 278,82.5C 284.665,73.008 291.498,63.6747 298.5,54.5 Z"/></g>
<g><path style="opacity:1" fill="#fd8e00" d="M 101.5,94.5 C 151.259,166.604 200.259,239.271 248.5,312.5C 218.694,370.779 188.361,428.779 157.5,486.5C 146.524,480.024 137.691,471.357 131,460.5C 94.2494,402.664 57.2494,344.997 20,287.5C 15.7782,280.056 13.6115,272.056 13.5,263.5C 23.0401,260.71 32.2068,257.043 41,252.5C 41.6667,250.167 41.6667,247.833 41,245.5C 39.7009,244.02 38.0342,243.354 36,243.5C 29.3748,245.042 23.0415,247.375 17,250.5C 37.9885,207.522 59.3218,164.522 81,121.5C 86.5141,111.488 93.3475,102.488 101.5,94.5 Z"/></g>
<g><path style="opacity:1" fill="#090600" d="M 262.5,103.5 C 270,102.166 272.833,105.166 271,112.5C 264.755,120.657 258.755,128.99 253,137.5C 245.736,140.865 242.402,138.531 243,130.5C 249.999,121.824 256.499,112.824 262.5,103.5 Z"/></g>
<g><path style="opacity:1" fill="#070300" d="M 145.5,199.5 C 153.508,199.862 155.508,203.529 151.5,210.5C 140.905,214.698 130.239,218.698 119.5,222.5C 114.922,221.132 113.422,218.132 115,213.5C 115.833,212.667 116.667,211.833 117.5,211C 127.135,207.629 136.468,203.796 145.5,199.5 Z"/></g>
<g><path style="opacity:1" fill="#060200" d="M 89.5,221.5 C 97.3461,221.694 99.3461,225.194 95.5,232C 86.2457,235.863 76.9124,239.529 67.5,243C 58.7848,244.456 56.4515,241.289 60.5,233.5C 70.2669,229.474 79.9336,225.474 89.5,221.5 Z"/></g>
<g><path style="opacity:1" fill="#080500" d="M 247.5,222.5 C 251.594,221.705 254.761,223.038 257,226.5C 262.333,233.833 267.667,241.167 273,248.5C 274.824,255.328 272.324,258.494 265.5,258C 257.276,248.789 250.276,238.789 244.5,228C 244.863,225.808 245.863,223.974 247.5,222.5 Z"/></g>
<g><path style="opacity:1" fill="#fd9f00" d="M 493.5,251.5 C 494.5,251.5 495.5,251.5 496.5,251.5C 495.005,261.507 491.505,270.84 486,279.5C 461.492,323.18 437.492,367.18 414,411.5C 410.882,416.286 407.382,420.786 403.5,425C 402.833,425.667 402.167,425.667 401.5,425C 399.743,422.154 397.743,419.488 395.5,417C 393.167,416.333 390.833,416.333 388.5,417C 387.056,418.126 386.39,419.626 386.5,421.5C 387.265,425.27 388.932,428.604 391.5,431.5C 391.291,432.086 390.957,432.586 390.5,433C 328.395,452.026 266.395,471.359 204.5,491C 197.909,492.381 191.242,493.214 184.5,493.5C 179.239,493.648 174.239,492.648 169.5,490.5C 199.632,432.542 229.965,374.709 260.5,317C 338.269,295.31 415.935,273.476 493.5,251.5 Z"/></g>
<g><path style="opacity:1" fill="#080400" d="M 317.5,319.5 C 319.857,319.337 322.19,319.503 324.5,320C 329.879,327.257 335.379,334.423 341,341.5C 342.986,343.806 344.153,346.472 344.5,349.5C 343.759,354.043 341.092,355.876 336.5,355C 328.276,345.789 321.276,335.789 315.5,325C 315.758,322.991 316.425,321.157 317.5,319.5 Z"/></g>
<g><path style="opacity:1" fill="#090400" d="M 354.5,367.5 C 357.505,367.253 360.005,368.253 362,370.5C 368.397,379.387 374.563,388.387 380.5,397.5C 379.417,402.378 376.417,404.211 371.5,403C 363.495,393.837 356.495,384.004 350.5,373.5C 350.866,370.744 352.2,368.744 354.5,367.5 Z"/></g>
</svg>
