<?xml version="1.0" encoding="UTF-8"?>
<!DOCTYPE svg PUBLIC "-//W3C//DTD SVG 1.1//EN" "http://www.w3.org/Graphics/SVG/1.1/DTD/svg11.dtd">
<svg xmlns="http://www.w3.org/2000/svg" version="1.1" width="512px" height="512px" style="shape-rendering:geometricPrecision; text-rendering:geometricPrecision; image-rendering:optimizeQuality; fill-rule:evenodd; clip-rule:evenodd" xmlns:xlink="http://www.w3.org/1999/xlink">
<g><path style="opacity:0.978" fill="#010102" d="M 250.5,-0.5 C 253.833,-0.5 257.167,-0.5 260.5,-0.5C 298.443,22.145 336.777,44.3117 375.5,66C 379.266,67.7688 382.433,70.2688 385,73.5C 386.157,120.754 386.991,168.087 387.5,215.5C 401.167,223.333 414.833,231.167 428.5,239C 431.87,241.697 433.204,245.197 432.5,249.5C 429.59,252.951 425.923,254.118 421.5,253C 407.167,244.833 392.833,236.667 378.5,228.5C 342.629,249.533 306.629,270.366 270.5,291C 306.438,312.219 342.604,333.053 379,353.5C 414.899,332.8 450.732,311.966 486.5,291C 474.5,284 462.5,277 450.5,270C 447.458,266.959 446.792,263.459 448.5,259.5C 449.058,258.21 450.058,257.377 451.5,257C 454.167,256.333 456.833,256.333 459.5,257C 474.337,265.919 489.337,274.586 504.5,283C 506.378,284.543 507.878,286.376 509,288.5C 510.148,313.119 510.648,337.786 510.5,362.5C 510.648,387.214 510.148,411.881 509,436.5C 507.093,440.039 504.26,442.539 500.5,444C 461.437,466.527 422.437,489.027 383.5,511.5C 380.167,511.5 376.833,511.5 373.5,511.5C 335.06,488.774 296.393,466.274 257.5,444C 256.167,443.333 254.833,443.333 253.5,444C 248.167,447 242.833,450 237.5,453C 233.929,453.859 230.929,453.026 228.5,450.5C 227.013,447.087 227.18,443.753 229,440.5C 234.919,436.456 241.086,432.789 247.5,429.5C 248.833,387.833 248.833,346.167 247.5,304.5C 211.607,324.941 175.94,345.608 140.5,366.5C 139.169,408.002 139.169,449.669 140.5,491.5C 141.107,491.376 141.44,491.043 141.5,490.5C 161.636,479.265 181.636,467.765 201.5,456C 205.415,455.396 208.749,456.563 211.5,459.5C 212.231,463.603 211.231,467.103 208.5,470C 184.664,483.697 160.998,497.53 137.5,511.5C 134.167,511.5 130.833,511.5 127.5,511.5C 85.8165,487.571 44.3165,463.238 3,438.5C 2.02655,436.608 1.35989,434.608 1,432.5C 0.333333,385.833 0.333333,339.167 1,292.5C 1.41229,288.509 3.24563,285.342 6.5,283C 45.5,260.5 84.5,238 123.5,215.5C 124.333,200.845 124.833,186.178 125,171.5C 126.638,169.266 128.805,167.933 131.5,167.5C 134.664,168.01 137.164,169.676 139,172.5C 139.175,187.075 139.675,201.575 140.5,216C 175.664,236.081 210.664,256.414 245.5,277C 246.448,277.483 247.448,277.649 248.5,277.5C 248.833,235.828 248.5,194.161 247.5,152.5C 211.585,131.96 175.752,111.293 140,90.5C 139.667,108.5 139.333,126.5 139,144.5C 137.087,147.28 134.587,148.947 131.5,149.5C 128.805,149.067 126.638,147.734 125,145.5C 124.333,122.167 124.333,98.8333 125,75.5C 125.635,74.0337 126.469,72.7003 127.5,71.5C 168.399,47.2212 209.399,23.2212 250.5,-0.5 Z"/></g>
<g><path style="opacity:1" fill="#cafcf9" d="M 253.5,15.5 C 255.655,15.372 257.655,15.872 259.5,17C 294.003,37.4191 328.669,57.5858 363.5,77.5C 327.789,98.6884 291.789,119.355 255.5,139.5C 219.211,119.355 183.211,98.6884 147.5,77.5C 182.896,56.8068 218.23,36.1401 253.5,15.5 Z"/></g>
<g><path style="opacity:0.999" fill="#07b0a3" d="M 131.5,167.5 C 131.5,161.5 131.5,155.5 131.5,149.5C 134.587,148.947 137.087,147.28 139,144.5C 139.333,126.5 139.667,108.5 140,90.5C 175.752,111.293 211.585,131.96 247.5,152.5C 248.5,194.161 248.833,235.828 248.5,277.5C 247.448,277.649 246.448,277.483 245.5,277C 210.664,256.414 175.664,236.081 140.5,216C 139.675,201.575 139.175,187.075 139,172.5C 137.164,169.676 134.664,168.01 131.5,167.5 Z"/></g>
<g><path style="opacity:1" fill="#46dad6" d="M 370.5,90.5 C 371.665,131.998 371.831,173.665 371,215.5C 335.248,236.293 299.415,256.96 263.5,277.5C 262.167,235.833 262.167,194.167 263.5,152.5C 299.393,132.059 335.06,111.392 370.5,90.5 Z"/></g>
<g><path style="opacity:1" fill="#050b0a" d="M 353.5,153.5 C 363.047,153.885 365.714,158.385 361.5,167C 352.976,170.469 348.809,167.635 349,158.5C 350.059,156.341 351.559,154.674 353.5,153.5 Z"/></g>
<g><path style="opacity:1" fill="#040a09" d="M 352.5,175.5 C 360.656,174.821 364.156,178.488 363,186.5C 359.042,191.436 354.709,191.769 350,187.5C 347.668,182.83 348.501,178.83 352.5,175.5 Z"/></g>
<g><path style="opacity:1" fill="#040a0a" d="M 352.5,197.5 C 361.33,196.162 364.83,199.829 363,208.5C 357.442,214.241 352.775,213.574 349,206.5C 348.481,202.868 349.647,199.868 352.5,197.5 Z"/></g>
<g><path style="opacity:1" fill="#5fdcfa" d="M 131.5,228.5 C 167.806,249.322 204.139,270.155 240.5,291C 205.5,311.333 170.5,331.667 135.5,352C 133.956,353.187 132.289,353.52 130.5,353C 95.1667,332.333 59.8333,311.667 24.5,291C 60.2297,270.14 95.8963,249.307 131.5,228.5 Z"/></g>
<g><path style="opacity:1" fill="#fd72ae" d="M 432.5,249.5 C 437.545,253.195 442.878,256.528 448.5,259.5C 446.792,263.459 447.458,266.959 450.5,270C 462.5,277 474.5,284 486.5,291C 450.732,311.966 414.899,332.8 379,353.5C 342.604,333.053 306.438,312.219 270.5,291C 306.629,270.366 342.629,249.533 378.5,228.5C 392.833,236.667 407.167,244.833 421.5,253C 425.923,254.118 429.59,252.951 432.5,249.5 Z"/></g>
<g><path style="opacity:1" fill="#0063be" d="M 16.5,304.5 C 52.3876,325.029 88.2209,345.695 124,366.5C 124.667,408.167 124.667,449.833 124,491.5C 88.3333,470.833 52.6667,450.167 17,429.5C 16.5,387.835 16.3333,346.168 16.5,304.5 Z"/></g>
<g><path style="opacity:1" fill="#0084de" d="M 228.5,450.5 C 222.702,453.233 217.035,456.233 211.5,459.5C 208.749,456.563 205.415,455.396 201.5,456C 181.636,467.765 161.636,479.265 141.5,490.5C 140.501,449.337 140.168,408.003 140.5,366.5C 175.94,345.608 211.607,324.941 247.5,304.5C 248.833,346.167 248.833,387.833 247.5,429.5C 241.086,432.789 234.919,436.456 229,440.5C 227.18,443.753 227.013,447.087 228.5,450.5 Z"/></g>
<g><path style="opacity:1" fill="#c1095a" d="M 370.5,366.5 C 370.832,408.003 370.499,449.337 369.5,490.5C 334.184,470.194 298.85,449.861 263.5,429.5C 262.167,387.833 262.167,346.167 263.5,304.5C 299.393,324.941 335.06,345.608 370.5,366.5 Z"/></g>
<g><path style="opacity:1" fill="#fe308d" d="M 492.5,304.5 C 493.833,324.989 494.5,345.822 494.5,367C 494.333,387.833 494.167,408.667 494,429.5C 458.333,450.167 422.667,470.833 387,491.5C 386.333,449.833 386.333,408.167 387,366.5C 422.336,345.97 457.503,325.303 492.5,304.5 Z"/></g>
<g><path style="opacity:1" fill="#006bb5" d="M 140.5,366.5 C 140.168,408.003 140.501,449.337 141.5,490.5C 141.44,491.043 141.107,491.376 140.5,491.5C 139.169,449.669 139.169,408.002 140.5,366.5 Z"/></g>
<g><path style="opacity:1" fill="#9d0749" d="M 370.5,366.5 C 371.831,408.002 371.831,449.669 370.5,491.5C 369.893,491.376 369.56,491.043 369.5,490.5C 370.499,449.337 370.832,408.003 370.5,366.5 Z"/></g>
</svg>
