<?xml version="1.0" encoding="UTF-8"?>
<!DOCTYPE svg PUBLIC "-//W3C//DTD SVG 1.1//EN" "http://www.w3.org/Graphics/SVG/1.1/DTD/svg11.dtd">
<svg xmlns="http://www.w3.org/2000/svg" version="1.1" width="512px" height="512px" style="shape-rendering:geometricPrecision; text-rendering:geometricPrecision; image-rendering:optimizeQuality; fill-rule:evenodd; clip-rule:evenodd" xmlns:xlink="http://www.w3.org/1999/xlink">
<g><path style="opacity:0.988" fill="#000001" d="M 250.5,-0.5 C 253.833,-0.5 257.167,-0.5 260.5,-0.5C 280.511,22.0152 300.011,45.0152 319,68.5C 328.164,182.8 336.997,297.133 345.5,411.5C 357.171,411.333 368.838,411.5 380.5,412C 382.333,413.167 383.833,414.667 385,416.5C 385.5,428.162 385.667,439.829 385.5,451.5C 397.171,451.333 408.838,451.5 420.5,452C 422.333,453.167 423.833,454.667 425,456.5C 425.5,468.162 425.667,479.829 425.5,491.5C 434.173,491.334 442.84,491.5 451.5,492C 456.275,495.655 457.775,500.488 456,506.5C 454.634,508.362 453.134,510.028 451.5,511.5C 320.833,511.5 190.167,511.5 59.5,511.5C 54.7541,507.658 53.2541,502.658 55,496.5C 56.1667,494.667 57.6667,493.167 59.5,492C 68.1603,491.5 76.8269,491.334 85.5,491.5C 85.3335,479.829 85.5001,468.162 86,456.5C 87.1667,454.667 88.6667,453.167 90.5,452C 102.162,451.5 113.829,451.333 125.5,451.5C 125.333,439.829 125.5,428.162 126,416.5C 127.167,414.667 128.667,413.167 130.5,412C 142.162,411.5 153.829,411.333 165.5,411.5C 174.003,297.133 182.836,182.8 192,68.5C 210.989,45.0152 230.489,22.0152 250.5,-0.5 Z"/></g>
<g><path style="opacity:1" fill="#fdd8ac" d="M 254.5,25.5 C 256.017,25.5106 257.184,26.1772 258,27.5C 272,44.1667 286,60.8333 300,77.5C 308.498,188.814 316.665,300.148 324.5,411.5C 304.833,411.5 285.167,411.5 265.5,411.5C 265.667,315.499 265.5,219.499 265,123.5C 258.667,114.167 252.333,114.167 246,123.5C 245.5,219.499 245.333,315.499 245.5,411.5C 225.833,411.5 206.167,411.5 186.5,411.5C 194.335,300.148 202.502,188.814 211,77.5C 225.711,60.2936 240.211,42.9602 254.5,25.5 Z"/></g>
<g><path style="opacity:1" fill="#090807" d="M 250.5,88.5 C 260.94,86.7789 265.774,91.1123 265,101.5C 262.081,107.025 257.581,108.858 251.5,107C 243.861,101.323 243.527,95.1567 250.5,88.5 Z"/></g>
<g><path style="opacity:1" fill="#be9a93" d="M 145.5,431.5 C 218.833,431.5 292.167,431.5 365.5,431.5C 365.5,438.167 365.5,444.833 365.5,451.5C 292.167,451.5 218.833,451.5 145.5,451.5C 145.5,444.833 145.5,438.167 145.5,431.5 Z"/></g>
<g><path style="opacity:1" fill="#976e61" d="M 105.5,471.5 C 205.5,471.5 305.5,471.5 405.5,471.5C 405.5,478.167 405.5,484.833 405.5,491.5C 305.5,491.5 205.5,491.5 105.5,491.5C 105.5,484.833 105.5,478.167 105.5,471.5 Z"/></g>
<g><path style="opacity:0.894" fill="#000000" d="M 40.5,511.5 C 37.1667,511.5 33.8333,511.5 30.5,511.5C 25.7541,507.658 24.2541,502.658 26,496.5C 30.6113,491.084 36.1113,490.084 42.5,493.5C 48.0072,500.151 47.3405,506.151 40.5,511.5 Z"/></g>
<g><path style="opacity:0.894" fill="#000000" d="M 480.5,511.5 C 477.167,511.5 473.833,511.5 470.5,511.5C 463.659,506.151 462.993,500.151 468.5,493.5C 474.889,490.084 480.389,491.084 485,496.5C 486.746,502.658 485.246,507.658 480.5,511.5 Z"/></g>
</svg>
