<?xml version="1.0" encoding="UTF-8"?>
<!DOCTYPE svg PUBLIC "-//W3C//DTD SVG 1.1//EN" "http://www.w3.org/Graphics/SVG/1.1/DTD/svg11.dtd">
<svg xmlns="http://www.w3.org/2000/svg" version="1.1" width="512px" height="512px" style="shape-rendering:geometricPrecision; text-rendering:geometricPrecision; image-rendering:optimizeQuality; fill-rule:evenodd; clip-rule:evenodd" xmlns:xlink="http://www.w3.org/1999/xlink">
<g><path style="opacity:0.989" fill="#2c1606" d="M 511.5,159.5 C 511.5,260.5 511.5,361.5 511.5,462.5C 505.372,485.123 490.705,498.623 467.5,503C 326.167,503.667 184.833,503.667 43.5,503C 20.295,498.623 5.62833,485.123 -0.5,462.5C -0.5,319.167 -0.5,175.833 -0.5,32.5C 4.16032,19.6781 13.1603,11.5114 26.5,8C 83.8333,7.33333 141.167,7.33333 198.5,8C 200.081,8.70653 201.581,9.53986 203,10.5C 216.375,32.0842 229.875,53.5842 243.5,75C 295.167,75.3333 346.833,75.6667 398.5,76C 422.823,79.9887 437.823,93.9887 443.5,118C 461.744,115.911 478.41,119.911 493.5,130C 502.219,138.289 508.219,148.123 511.5,159.5 Z"/></g>
<g><path style="opacity:1" fill="#fec146" d="M 227.5,84.5 C 163.832,84.3333 100.166,84.5 36.5,85C 29.2232,86.4737 22.5565,89.3071 16.5,93.5C 16.3334,74.4971 16.5001,55.4971 17,36.5C 18.7735,31.7271 21.9402,28.2271 26.5,26C 81.5,25.3333 136.5,25.3333 191.5,26C 203.898,45.305 215.898,64.805 227.5,84.5 Z"/></g>
<g><path style="opacity:1" fill="#fea426" d="M 227.5,84.5 C 229.821,87.629 232.488,90.4623 235.5,93C 289.5,93.3333 343.5,93.6667 397.5,94C 411.272,95.9504 420.272,103.45 424.5,116.5C 298.003,118.166 171.337,119.166 44.5,119.5C 34.2698,120.796 25.2698,124.796 17.5,131.5C 16.5009,118.851 16.1676,106.184 16.5,93.5C 22.5565,89.3071 29.2232,86.4737 36.5,85C 100.166,84.5 163.832,84.3333 227.5,84.5 Z"/></g>
<g><path style="opacity:1" fill="#8e5815" d="M 424.5,116.5 C 425.404,117.209 425.737,118.209 425.5,119.5C 298.5,119.5 171.5,119.5 44.5,119.5C 171.337,119.166 298.003,118.166 424.5,116.5 Z"/></g>
<g><path style="opacity:1" fill="#f6e9aa" d="M 464.5,136.5 C 382.833,136.5 301.167,136.5 219.5,136.5C 191.165,136.333 162.831,136.5 134.5,137C 83.9765,165.024 44.6432,204.19 16.5,254.5C 16.3334,223.832 16.5,193.165 17,162.5C 20.7643,149.736 28.931,141.236 41.5,137C 112.798,135.841 184.131,135.341 255.5,135.5C 325.334,135.5 395.001,135.833 464.5,136.5 Z"/></g>
<g><path style="opacity:1" fill="#fee87a" d="M 219.5,136.5 C 122.393,193.48 71.7258,278.646 67.5,392C 67.9635,424.096 73.2968,455.263 83.5,485.5C 69.496,485.667 55.496,485.5 41.5,485C 27.1428,480.309 18.9761,470.476 17,455.5C 16.5,388.501 16.3333,321.501 16.5,254.5C 44.6432,204.19 83.9765,165.024 134.5,137C 162.831,136.5 191.165,136.333 219.5,136.5 Z"/></g>
<g><path style="opacity:1" fill="#fee35b" d="M 219.5,136.5 C 301.167,136.5 382.833,136.5 464.5,136.5C 479.754,138.916 489.587,147.582 494,162.5C 494.667,260.167 494.667,357.833 494,455.5C 491.927,470.905 483.427,480.739 468.5,485C 340.167,485.5 211.834,485.667 83.5,485.5C 73.2968,455.263 67.9635,424.096 67.5,392C 71.7258,278.646 122.393,193.48 219.5,136.5 Z"/></g>
<g><path style="opacity:1" fill="#2d1706" d="M 288.5,280.5 C 288.56,281.043 288.893,281.376 289.5,281.5C 290.833,259.5 290.833,237.5 289.5,215.5C 288.893,215.624 288.56,215.957 288.5,216.5C 249.167,228.5 209.833,240.5 170.5,252.5C 170.667,294.501 170.5,336.501 170,378.5C 163.033,409.739 143.867,421.906 112.5,415C 88.615,403.018 80.4483,384.185 88,358.5C 97.675,339.412 113.175,330.912 134.5,333C 140.536,334.288 146.203,336.455 151.5,339.5C 151.56,340.043 151.893,340.376 152.5,340.5C 153.5,308.84 153.833,277.174 153.5,245.5C 153.84,242.325 155.507,240.159 158.5,239C 200.88,225.821 243.214,212.488 285.5,199C 290.391,197.139 295.391,196.139 300.5,196C 302.624,197.122 304.457,198.622 306,200.5C 306.667,240.833 306.667,281.167 306,321.5C 299.267,348.206 282.1,360.039 254.5,357C 230.451,348.746 219.617,331.913 222,306.5C 229.758,282.53 246.258,271.364 271.5,273C 277.676,274.444 283.343,276.944 288.5,280.5 Z"/></g>
<g><path style="opacity:1" fill="#473010" d="M 288.5,216.5 C 288.56,215.957 288.893,215.624 289.5,215.5C 290.833,237.5 290.833,259.5 289.5,281.5C 288.893,281.376 288.56,281.043 288.5,280.5C 289.833,259.167 289.833,237.833 288.5,216.5 Z"/></g>
<g><path style="opacity:1" fill="#aa9139" d="M 153.5,245.5 C 153.833,277.174 153.5,308.84 152.5,340.5C 151.893,340.376 151.56,340.043 151.5,339.5C 152.167,308.167 152.833,276.833 153.5,245.5 Z"/></g>
<g><path style="opacity:1" fill="#2c1606" d="M 354.5,255.5 C 379.231,255.286 399.397,264.619 415,283.5C 424.461,297.606 427.461,312.939 424,329.5C 418.48,333.992 413.813,333.326 410,327.5C 411.065,304.11 401.232,287.277 380.5,277C 375.993,275.107 371.327,273.941 366.5,273.5C 366.667,315.168 366.5,356.835 366,398.5C 360.431,421.232 345.931,433.232 322.5,434.5C 296.901,431.567 283.234,417.234 281.5,391.5C 282.832,368.998 294.499,355.164 316.5,350C 328.13,348.492 338.797,350.992 348.5,357.5C 349.333,325.172 349.833,292.838 350,260.5C 351.366,258.638 352.866,256.972 354.5,255.5 Z"/></g>
<g><path style="opacity:1" fill="#fcc046" d="M 258.5,289.5 C 273.385,288.355 283.552,294.688 289,308.5C 290.353,331.48 279.519,341.98 256.5,340C 240.438,332.483 235.271,320.316 241,303.5C 245.265,296.721 251.098,292.054 258.5,289.5 Z"/></g>
<g><path style="opacity:1" fill="#fcbf46" d="M 120.5,349.5 C 139.281,347.618 150.281,355.952 153.5,374.5C 150.954,393.214 140.288,401.714 121.5,400C 103.609,392.921 98.1085,380.421 105,362.5C 108.869,356.452 114.035,352.118 120.5,349.5 Z"/></g>
<g><path style="opacity:1" fill="#fcc046" d="M 317.5,366.5 C 333.301,364.976 343.801,371.643 349,386.5C 349.679,408.154 339.179,418.321 317.5,417C 299.455,409.405 294.289,396.571 302,378.5C 306.02,372.919 311.186,368.919 317.5,366.5 Z"/></g>
</svg>
