<?xml version="1.0" encoding="UTF-8"?>
<!DOCTYPE svg PUBLIC "-//W3C//DTD SVG 1.1//EN" "http://www.w3.org/Graphics/SVG/1.1/DTD/svg11.dtd">
<svg xmlns="http://www.w3.org/2000/svg" version="1.1" width="512px" height="512px" style="shape-rendering:geometricPrecision; text-rendering:geometricPrecision; image-rendering:optimizeQuality; fill-rule:evenodd; clip-rule:evenodd" xmlns:xlink="http://www.w3.org/1999/xlink">
<g><path style="opacity:0.953" fill="#020201" d="M 377.5,6.5 C 380.32,6.24751 382.986,6.74751 385.5,8C 421,43.5 456.5,79 492,114.5C 503.123,129.524 505.456,145.857 499,163.5C 496.499,168.506 493.499,173.173 490,177.5C 455.5,212 421,246.5 386.5,281C 383.033,283.786 379.366,284.12 375.5,282C 361.304,268.138 347.471,253.971 334,239.5C 333.333,237.167 333.333,234.833 334,232.5C 345.508,219.991 346.841,206.657 338,192.5C 323.649,178.469 308.816,177.969 293.5,191C 290.036,191.817 286.702,191.483 283.5,190C 270.333,176.833 257.167,163.667 244,150.5C 242.517,147.298 242.183,143.964 243,140.5C 254.333,129.167 265.667,117.833 277,106.5C 277.667,105.5 277.667,104.5 277,103.5C 267.816,86.1086 268.483,69.1086 279,52.5C 296.899,33.1001 317.399,29.7668 340.5,42.5C 352.881,30.4513 365.214,18.4513 377.5,6.5 Z"/></g>
<g><path style="opacity:1" fill="#f19e1d" d="M 400.5,244.5 C 409.584,225.654 416.418,205.988 421,185.5C 429.664,127.493 413.164,77.9931 371.5,37C 370.906,36.5357 370.239,36.369 369.5,36.5C 372.847,31.9686 376.847,28.4686 381.5,26C 414.333,58.8333 447.167,91.6667 480,124.5C 489.148,136.667 489.815,149.334 482,162.5C 454.632,189.701 427.465,217.035 400.5,244.5 Z"/></g>
<g><path style="opacity:1" fill="#f9c31c" d="M 369.5,36.5 C 370.239,36.369 370.906,36.5357 371.5,37C 413.164,77.9931 429.664,127.493 421,185.5C 416.418,205.988 409.584,225.654 400.5,244.5C 394.397,251.105 388.063,257.605 381.5,264C 380.833,264.667 380.167,264.667 379.5,264C 369.986,254.653 360.652,245.153 351.5,235.5C 364.956,212.239 361.623,191.739 341.5,174C 324.27,163.064 306.937,162.898 289.5,173.5C 279.681,164.181 270.014,154.681 260.5,145C 272.696,133.138 284.53,120.971 296,108.5C 296.667,106.5 296.667,104.5 296,102.5C 281.523,86.4784 282.023,70.9784 297.5,56C 311.855,47.6673 325.189,49.0007 337.5,60C 340.167,60.6667 342.833,60.6667 345.5,60C 353.368,51.9642 361.368,44.1309 369.5,36.5 Z"/></g>
<g><path style="opacity:0.976" fill="#030201" d="M 49.5,119.5 C 100.501,119.333 151.501,119.5 202.5,120C 204.329,120.273 205.829,121.107 207,122.5C 208.644,143.744 208.977,165.078 208,186.5C 207.5,188.333 206.333,189.5 204.5,190C 185.467,191.373 174.467,201.373 171.5,220C 174.659,239.154 185.992,249.154 205.5,250C 206.701,250.903 207.535,252.069 208,253.5C 208.5,270.497 208.667,287.497 208.5,304.5C 221.833,304.5 235.167,304.5 248.5,304.5C 255.819,277.495 273.486,265.328 301.5,268C 321.223,272.555 332.89,284.721 336.5,304.5C 353.837,304.333 371.17,304.5 388.5,305C 390.333,305.5 391.5,306.667 392,308.5C 392.667,361.5 392.667,414.5 392,467.5C 386.827,488.341 373.66,500.507 352.5,504C 251.167,504.667 149.833,504.667 48.5,504C 27.3026,499.981 14.136,487.481 9,466.5C 8.33333,363.5 8.33333,260.5 9,157.5C 14.6571,136.339 28.1571,123.673 49.5,119.5 Z"/></g>
<g><path style="opacity:1" fill="#71b643" d="M 164.5,135.5 C 126.321,147.003 94.8214,168.337 70,199.5C 68.9399,204.572 68.1066,209.572 67.5,214.5C 67.6664,206.16 67.4997,197.827 67,189.5C 63.3813,186.657 60.048,186.99 57,190.5C 56.3333,198.833 56.3333,207.167 57,215.5C 58.045,216.373 58.8783,217.373 59.5,218.5C 55.5833,223.995 52.4166,229.995 50,236.5C 41.5212,258.373 37.6879,281.039 38.5,304.5C 33.5,304.5 28.5,304.5 23.5,304.5C 23.3333,256.499 23.5,208.499 24,160.5C 27.4205,148.08 35.2539,139.913 47.5,136C 86.4986,135.5 125.499,135.333 164.5,135.5 Z"/></g>
<g><path style="opacity:1" fill="#95c83c" d="M 164.5,135.5 C 174.167,135.5 183.833,135.5 193.5,135.5C 193.5,149.167 193.5,162.833 193.5,176.5C 170.372,181.249 158.039,195.416 156.5,219C 157.767,243.096 170.1,257.929 193.5,263.5C 193.5,277.167 193.5,290.833 193.5,304.5C 176.497,304.333 159.497,304.5 142.5,305C 140.448,305.93 138.948,307.43 138,309.5C 138.197,321.941 133.03,331.441 122.5,338C 103.836,345.579 90.0025,340.413 81,322.5C 80.0071,318.558 79.3404,314.558 79,310.5C 78.2155,308.714 77.0488,307.214 75.5,306C 63.267,304.54 50.9337,304.04 38.5,304.5C 37.6879,281.039 41.5212,258.373 50,236.5C 52.4166,229.995 55.5833,223.995 59.5,218.5C 61.5273,218.662 63.5273,218.495 65.5,218C 66.8228,217.184 67.4894,216.017 67.5,214.5C 68.1066,209.572 68.9399,204.572 70,199.5C 94.8214,168.337 126.321,147.003 164.5,135.5 Z"/></g>
<g><path style="opacity:1" fill="#fcfdfb" d="M 67.5,214.5 C 67.4894,216.017 66.8228,217.184 65.5,218C 63.5273,218.495 61.5273,218.662 59.5,218.5C 58.8783,217.373 58.045,216.373 57,215.5C 56.3333,207.167 56.3333,198.833 57,190.5C 60.048,186.99 63.3813,186.657 67,189.5C 67.4997,197.827 67.6664,206.16 67.5,214.5 Z"/></g>
<g><path style="opacity:1" fill="#fcfdfa" d="M 59.5,237.5 C 62.3646,237.055 64.8646,237.722 67,239.5C 67.6667,250.167 67.6667,260.833 67,271.5C 62.8003,274.66 59.467,273.994 57,269.5C 56.3333,259.833 56.3333,250.167 57,240.5C 58.045,239.627 58.8783,238.627 59.5,237.5 Z"/></g>
<g><path style="opacity:1" fill="#f27c7e" d="M 362.5,319.5 C 362.857,342.879 359.024,365.546 351,387.5C 347.524,394.78 344.358,402.114 341.5,409.5C 337.957,406.513 334.791,406.846 332,410.5C 331.5,420.161 331.334,429.828 331.5,439.5C 330.674,435.018 330.174,430.351 330,425.5C 305.314,456.681 273.814,477.681 235.5,488.5C 226.5,488.5 217.5,488.5 208.5,488.5C 208.5,474.833 208.5,461.167 208.5,447.5C 231.987,442.051 243.987,427.218 244.5,403C 243.804,379.145 231.804,364.978 208.5,360.5C 208.5,346.833 208.5,333.167 208.5,319.5C 225.17,319.667 241.837,319.5 258.5,319C 259.931,318.535 261.097,317.701 262,316.5C 264.676,290.129 278.842,279.629 304.5,285C 316.393,291.586 322.56,301.753 323,315.5C 324.167,316.667 325.333,317.833 326.5,319C 338.495,319.5 350.495,319.667 362.5,319.5 Z"/></g>
<g><path style="opacity:1" fill="#f29f1d" d="M 38.5,319.5 C 40.8764,405.524 82.8764,461.857 164.5,488.5C 126.833,488.5 89.1667,488.5 51.5,488.5C 36.2746,485.775 27.1079,476.775 24,461.5C 23.5,414.168 23.3333,366.835 23.5,319.5C 28.5,319.5 33.5,319.5 38.5,319.5 Z"/></g>
<g><path style="opacity:1" fill="#f9c31c" d="M 38.5,319.5 C 47.1667,319.5 55.8333,319.5 64.5,319.5C 69.075,342.402 83.075,354.736 106.5,356.5C 127.177,355.923 141.677,346.256 150,327.5C 150.822,324.883 151.322,322.216 151.5,319.5C 165.5,319.5 179.5,319.5 193.5,319.5C 193.333,336.503 193.5,353.503 194,370.5C 194.5,372.333 195.667,373.5 197.5,374C 222.225,376.708 232.392,390.208 228,414.5C 222.198,427.66 212.031,434.16 197.5,434C 195.536,435.451 194.203,437.284 193.5,439.5C 192.504,455.658 192.17,471.991 192.5,488.5C 183.167,488.5 173.833,488.5 164.5,488.5C 82.8764,461.857 40.8764,405.524 38.5,319.5 Z"/></g>
<g><path style="opacity:1" fill="#ee3f3e" d="M 362.5,319.5 C 367.5,319.5 372.5,319.5 377.5,319.5C 377.667,366.835 377.5,414.168 377,461.5C 374.402,475.56 366.235,484.393 352.5,488C 313.501,488.5 274.501,488.667 235.5,488.5C 273.814,477.681 305.314,456.681 330,425.5C 330.174,430.351 330.674,435.018 331.5,439.5C 332.033,442.525 333.867,443.858 337,443.5C 339.575,443.91 341.242,442.91 342,440.5C 342.785,430.12 342.619,419.787 341.5,409.5C 344.358,402.114 347.524,394.78 351,387.5C 359.024,365.546 362.857,342.879 362.5,319.5 Z"/></g>
<g><path style="opacity:1" fill="#fefcfc" d="M 334.5,357.5 C 337.652,356.959 340.152,357.959 342,360.5C 342.667,368.833 342.667,377.167 342,385.5C 339.03,390.249 335.697,390.582 332,386.5C 331.333,377.833 331.333,369.167 332,360.5C 332.698,359.309 333.531,358.309 334.5,357.5 Z"/></g>
<g><path style="opacity:1" fill="#fefbfb" d="M 341.5,409.5 C 342.619,419.787 342.785,430.12 342,440.5C 341.242,442.91 339.575,443.91 337,443.5C 333.867,443.858 332.033,442.525 331.5,439.5C 331.334,429.828 331.5,420.161 332,410.5C 334.791,406.846 337.957,406.513 341.5,409.5 Z"/></g>
<g><path style="opacity:1" fill="#6b4b0d" d="M 193.5,439.5 C 193.5,456.167 193.5,472.833 193.5,489.5C 145.997,489.832 98.6637,489.499 51.5,488.5C 89.1667,488.5 126.833,488.5 164.5,488.5C 173.833,488.5 183.167,488.5 192.5,488.5C 192.17,471.991 192.504,455.658 193.5,439.5 Z"/></g>
</svg>
