<?xml version="1.0" encoding="UTF-8"?>
<!DOCTYPE svg PUBLIC "-//W3C//DTD SVG 1.1//EN" "http://www.w3.org/Graphics/SVG/1.1/DTD/svg11.dtd">
<svg xmlns="http://www.w3.org/2000/svg" version="1.1" width="512px" height="512px" style="shape-rendering:geometricPrecision; text-rendering:geometricPrecision; image-rendering:optimizeQuality; fill-rule:evenodd; clip-rule:evenodd" xmlns:xlink="http://www.w3.org/1999/xlink">
<g><path style="opacity:0.982" fill="#020303" d="M 511.5,233.5 C 511.5,248.5 511.5,263.5 511.5,278.5C 504.441,342.787 477.108,396.62 429.5,440C 435.77,458.19 430.437,471.856 413.5,481C 400.868,485.507 389.534,483.341 379.5,474.5C 321.107,503.43 260.44,509.263 197.5,492C 182.565,487.633 168.231,481.8 154.5,474.5C 144.805,481.53 134.138,483.363 122.5,480C 105.753,471.456 99.5868,457.956 104,439.5C 57.4853,397.143 30.4853,344.476 23,281.5C 22.0791,272.187 21.5791,262.853 21.5,253.5C 10.242,250.575 2.90867,243.575 -0.5,232.5C -0.5,227.167 -0.5,221.833 -0.5,216.5C 4.32309,202.371 14.3231,194.371 29.5,192.5C 35.9829,167.039 46.6495,143.539 61.5,122C 64.2605,121.278 66.9272,121.445 69.5,122.5C 72.3549,125.592 73.1882,129.259 72,133.5C 58.6553,153.496 49.822,175.163 45.5,198.5C 50.1778,201.515 54.1778,205.181 57.5,209.5C 82.9119,204.325 108.579,201.325 134.5,200.5C 140.598,201.117 146.265,200.45 151.5,198.5C 154.74,191.43 160.073,186.597 167.5,184C 174.204,182.519 180.871,182.019 187.5,182.5C 202.329,161.831 219.496,143.164 239,126.5C 237.991,121.273 237.158,115.939 236.5,110.5C 236.809,108.097 236.976,105.763 237,103.5C 213.362,89.1001 188.196,78.1001 161.5,70.5C 149.67,87.5345 134.503,91.2012 116,81.5C 107.833,88.3333 100.333,95.8333 93.5,104C 89.6871,106.026 86.0204,105.86 82.5,103.5C 80.1575,100.283 79.9908,96.9496 82,93.5C 89.3444,84.9893 97.1777,76.9893 105.5,69.5C 98.7449,46.8426 106.745,32.3426 129.5,26C 140.022,24.8958 149.022,28.0625 156.5,35.5C 208.757,9.80122 263.424,2.96789 320.5,15C 339.551,19.1274 357.718,25.6274 375,34.5C 388.435,23.1752 402.269,22.6752 416.5,33C 426.541,42.4978 429.541,53.8311 425.5,67C 430.714,72.5142 436.214,77.6808 442,82.5C 461.753,76.0421 475.753,82.3754 484,101.5C 487.098,112.107 485.265,121.774 478.5,130.5C 496.961,162.546 507.961,196.88 511.5,233.5 Z"/></g>
<g><path style="opacity:1" fill="#c6edfc" d="M 249.5,24.5 C 290.487,22.3849 329.487,30.0516 366.5,47.5C 367.073,49.1603 367.073,50.9937 366.5,53C 366.325,54.6581 365.658,55.9914 364.5,57C 337.814,65.1782 312.48,76.3449 288.5,90.5C 274.005,78.5245 259.505,78.5245 245,90.5C 219.653,75.5776 192.82,64.0776 164.5,56C 162.784,52.5158 163.451,49.6824 166.5,47.5C 192.939,34.9764 220.606,27.3098 249.5,24.5 Z"/></g>
<g><path style="opacity:1" fill="#fa7e5a" d="M 128.5,41.5 C 144.913,41.0706 151.08,48.7373 147,64.5C 138.734,74.6537 130.067,74.9871 121,65.5C 115.802,54.9577 118.302,46.9577 128.5,41.5 Z"/></g>
<g><path style="opacity:1" fill="#fa7e5a" d="M 391.5,41.5 C 407.913,41.0706 414.08,48.7373 410,64.5C 408.437,67.7284 405.937,69.8951 402.5,71C 387.548,73.048 380.715,66.548 382,51.5C 384.022,46.98 387.189,43.6467 391.5,41.5 Z"/></g>
<g><path style="opacity:1" fill="#c8effd" d="M 151.5,198.5 C 145.732,199.126 140.066,199.793 134.5,200.5C 108.579,201.325 82.9119,204.325 57.5,209.5C 54.1778,205.181 50.1778,201.515 45.5,198.5C 49.822,175.163 58.6553,153.496 72,133.5C 73.1882,129.259 72.3549,125.592 69.5,122.5C 73.5962,115.964 77.9295,109.631 82.5,103.5C 86.0204,105.86 89.6871,106.026 93.5,104C 100.333,95.8333 107.833,88.3333 116,81.5C 134.503,91.2012 149.67,87.5345 161.5,70.5C 188.196,78.1001 213.362,89.1001 237,103.5C 236.976,105.763 236.809,108.097 236.5,110.5C 237.158,115.939 237.991,121.273 239,126.5C 219.496,143.164 202.329,161.831 187.5,182.5C 180.871,182.019 174.204,182.519 167.5,184C 160.073,186.597 154.74,191.43 151.5,198.5 Z"/></g>
<g><path style="opacity:1" fill="#c8effd" d="M 404.5,86.5 C 410.826,94.1584 417.492,101.492 424.5,108.5C 424.62,120.908 429.62,130.741 439.5,138C 428.981,174.861 413.481,209.361 393,241.5C 388.829,240.923 384.662,240.256 380.5,239.5C 359.427,196.254 330.927,158.588 295,126.5C 295.942,121.442 296.775,116.275 297.5,111C 297.349,108.803 297.015,106.636 296.5,104.5C 318.643,89.7669 342.643,78.7669 368.5,71.5C 372.237,74.7328 375.904,78.2328 379.5,82C 387.308,86.0984 395.642,87.5984 404.5,86.5 Z"/></g>
<g><path style="opacity:1" fill="#b2e5fa" d="M 424.5,108.5 C 417.492,101.492 410.826,94.1584 404.5,86.5C 408.611,85.1744 412.444,83.1744 416,80.5C 420.322,84.1533 424.655,87.8199 429,91.5C 426.971,96.9322 425.471,102.599 424.5,108.5 Z"/></g>
<g><path style="opacity:1" fill="#fb7f5a" d="M 449.5,95.5 C 466.825,95.3078 472.658,103.308 467,119.5C 462.032,125.115 455.865,126.948 448.5,125C 439.229,119.176 437.062,111.343 442,101.5C 444.114,98.8792 446.614,96.8792 449.5,95.5 Z"/></g>
<g><path style="opacity:1" fill="#f87d59" d="M 261.5,96.5 C 274.854,95.3641 281.687,101.364 282,114.5C 278.425,125.037 271.259,128.871 260.5,126C 250.358,119.079 248.858,110.579 256,100.5C 258.015,99.3034 259.849,97.9701 261.5,96.5 Z"/></g>
<g><path style="opacity:1" fill="#c7eefd" d="M 248.5,137.5 C 260.334,142.775 272.168,142.775 284,137.5C 318.795,167.41 346.128,203.077 366,244.5C 366.339,248.487 364.506,249.987 360.5,249C 311.888,224.629 260.555,209.463 206.5,203.5C 205.604,198.542 203.271,194.376 199.5,191C 213.884,171.446 230.218,153.613 248.5,137.5 Z"/></g>
<g><path style="opacity:1" fill="#b3e7fc" d="M 465.5,319.5 C 478.924,266.467 475.757,214.467 456,163.5C 454.392,159.944 452.559,156.611 450.5,153.5C 451.628,149.45 452.961,145.45 454.5,141.5C 457.646,140.711 460.813,140.045 464,139.5C 465.261,139.759 466.261,140.426 467,141.5C 500.712,203.975 505.712,268.641 482,335.5C 475.997,330.663 470.497,325.33 465.5,319.5 Z"/></g>
<g><path style="opacity:1" fill="#c7eefd" d="M 450.5,153.5 C 452.559,156.611 454.392,159.944 456,163.5C 475.757,214.467 478.924,266.467 465.5,319.5C 449.399,305.567 432.566,292.567 415,280.5C 415.568,274.911 415.568,269.244 415,263.5C 413.146,258.29 410.646,253.456 407.5,249C 425.243,218.683 439.576,186.85 450.5,153.5 Z"/></g>
<g><path style="opacity:1" fill="#f97e59" d="M 172.5,197.5 C 186.995,195.833 193.828,202.167 193,216.5C 189.296,225.859 182.463,229.359 172.5,227C 161.54,220.506 159.707,212.006 167,201.5C 169.015,200.303 170.849,198.97 172.5,197.5 Z"/></g>
<g><path style="opacity:1" fill="#435055" d="M 151.5,198.5 C 146.265,200.45 140.598,201.117 134.5,200.5C 140.066,199.793 145.732,199.126 151.5,198.5 Z"/></g>
<g><path style="opacity:1" fill="#f97e5a" d="M 25.5,208.5 C 39.5477,208.043 45.7144,214.71 44,228.5C 39.9234,238.421 32.7567,241.588 22.5,238C 14.1265,232.199 12.2932,224.699 17,215.5C 19.4412,212.546 22.2745,210.213 25.5,208.5 Z"/></g>
<g><path style="opacity:1" fill="#748b93" d="M 134.5,215.5 C 138.97,214.514 143.637,214.181 148.5,214.5C 148.5,215.833 148.5,217.167 148.5,218.5C 147.596,217.791 147.263,216.791 147.5,215.5C 143.167,215.5 138.833,215.5 134.5,215.5 Z"/></g>
<g><path style="opacity:1" fill="#c7eefd" d="M 134.5,215.5 C 138.833,215.5 143.167,215.5 147.5,215.5C 147.263,216.791 147.596,217.791 148.5,218.5C 149.854,224.208 152.521,229.208 156.5,233.5C 137.39,270.938 125.89,310.605 122,352.5C 120.551,376.169 120.051,399.836 120.5,423.5C 118.5,424.833 116.5,426.167 114.5,427.5C 95.4716,410.635 79.9716,390.969 68,368.5C 48.7531,332.51 38.7531,294.176 38,253.5C 51.8773,248.613 59.3773,238.779 60.5,224C 85.0674,220.178 109.734,217.344 134.5,215.5 Z"/></g>
<g><path style="opacity:1" fill="#c8effe" d="M 207.5,218.5 C 259.033,224.677 308.033,239.344 354.5,262.5C 355.329,267.467 355.829,272.467 356,277.5C 356.903,281.805 358.737,285.639 361.5,289C 307.795,356.023 240.628,404.523 160,434.5C 154.146,427.004 146.479,422.337 137,420.5C 130.574,358.132 141.074,298.799 168.5,242.5C 180.89,244.359 191.723,241.026 201,232.5C 204.414,228.43 206.581,223.764 207.5,218.5 Z"/></g>
<g><path style="opacity:1" fill="#f97e5a" d="M 380.5,255.5 C 396.856,255.02 403.023,262.687 399,278.5C 393.46,286.672 386.294,288.505 377.5,284C 369.667,277.179 368.501,269.346 374,260.5C 376.326,258.934 378.492,257.268 380.5,255.5 Z"/></g>
<g><path style="opacity:1" fill="#c8eefd" d="M 459.5,335.5 C 449.449,365.621 433.783,392.288 412.5,415.5C 413.346,403.175 413.513,390.842 413,378.5C 408.255,373.257 403.588,373.257 399,378.5C 398.642,392.848 397.976,407.182 397,421.5C 382.677,425.651 374.177,434.984 371.5,449.5C 370.781,451.091 369.781,452.591 368.5,454C 352.955,464.105 336.622,472.605 319.5,479.5C 265.593,492.209 213.593,486.375 163.5,462C 163.142,457.61 163.142,453.11 163.5,448.5C 247.656,418.512 317.489,368.512 373,298.5C 377.598,300.599 382.431,301.932 387.5,302.5C 391.013,315.735 394.013,329.068 396.5,342.5C 400.922,346.59 405.089,346.257 409,341.5C 408.614,326.684 406.114,312.184 401.5,298C 402.794,295.924 404.627,294.424 407,293.5C 425.738,305.952 443.238,319.952 459.5,335.5 Z"/></g>
<g><path style="opacity:1" fill="#b3e7fc" d="M 459.5,335.5 C 465.397,340.562 470.73,346.062 475.5,352C 462.523,380.966 444.189,405.966 420.5,427C 417.479,426.582 414.645,425.415 412,423.5C 411.199,420.633 411.366,417.966 412.5,415.5C 433.783,392.288 449.449,365.621 459.5,335.5 Z"/></g>
<g><path style="opacity:1" fill="#fa7e5a" d="M 129.5,435.5 C 144.018,435.224 150.185,442.224 148,456.5C 144.352,464.465 138.185,467.632 129.5,466C 120.595,462.024 117.095,455.191 119,445.5C 121.409,440.922 124.909,437.588 129.5,435.5 Z"/></g>
<g><path style="opacity:1" fill="#fb7f5a" d="M 395.5,437.5 C 413.211,436.703 419.377,444.703 414,461.5C 405.635,469.432 397.302,469.432 389,461.5C 383.975,451.377 386.141,443.377 395.5,437.5 Z"/></g>
<g><path style="opacity:1" fill="#afe2f7" d="M 371.5,449.5 C 371.395,453.548 371.728,457.548 372.5,461.5C 364.865,464.648 357.199,467.814 349.5,471C 339.738,474.755 329.738,477.589 319.5,479.5C 336.622,472.605 352.955,464.105 368.5,454C 369.781,452.591 370.781,451.091 371.5,449.5 Z"/></g>
</svg>
