<?xml version="1.0" encoding="UTF-8"?>
<!DOCTYPE svg PUBLIC "-//W3C//DTD SVG 1.1//EN" "http://www.w3.org/Graphics/SVG/1.1/DTD/svg11.dtd">
<svg xmlns="http://www.w3.org/2000/svg" version="1.1" width="512px" height="512px" style="shape-rendering:geometricPrecision; text-rendering:geometricPrecision; image-rendering:optimizeQuality; fill-rule:evenodd; clip-rule:evenodd" xmlns:xlink="http://www.w3.org/1999/xlink">
<g><path style="opacity:0.991" fill="#2c1607" d="M 511.5,159.5 C 511.5,260.5 511.5,361.5 511.5,462.5C 505.372,485.123 490.705,498.623 467.5,503C 326.167,503.667 184.833,503.667 43.5,503C 20.295,498.623 5.62833,485.123 -0.5,462.5C -0.5,319.167 -0.5,175.833 -0.5,32.5C 4.16032,19.6781 13.1603,11.5114 26.5,8C 83.8333,7.33333 141.167,7.33333 198.5,8C 200.081,8.70653 201.581,9.53986 203,10.5C 215.014,30.5413 227.514,50.208 240.5,69.5C 261.348,48.8187 282.348,28.3187 303.5,8C 343.5,7.33333 383.5,7.33333 423.5,8C 437.384,10.8847 446.551,19.0514 451,32.5C 452.458,61.1244 452.958,89.7911 452.5,118.5C 482.883,117.162 502.55,130.829 511.5,159.5 Z"/></g>
<g><path style="opacity:1" fill="#fec146" d="M 227.5,84.5 C 163.832,84.3333 100.166,84.5 36.5,85C 29.2232,86.4737 22.5565,89.3071 16.5,93.5C 16.3334,74.4971 16.5001,55.4971 17,36.5C 18.7735,31.7271 21.9402,28.2271 26.5,26C 81.5,25.3333 136.5,25.3333 191.5,26C 203.898,45.305 215.898,64.805 227.5,84.5 Z"/></g>
<g><path style="opacity:1" fill="#eff3f8" d="M 315.5,25.5 C 351.168,25.3333 386.835,25.5 422.5,26C 427.91,27.7425 431.744,31.2425 434,36.5C 434.667,102.833 434.667,169.167 434,235.5C 431.235,241.931 426.402,245.764 419.5,247C 366.5,247.667 313.5,247.667 260.5,247C 253.234,244.734 248.734,239.901 247,232.5C 246.5,186.168 246.333,139.835 246.5,93.5C 262.17,93.6666 277.837,93.4999 293.5,93C 305.333,90.5 312.5,83.3333 315,71.5C 315.5,56.1703 315.667,40.837 315.5,25.5 Z"/></g>
<g><path style="opacity:1" fill="#ecf0f5" d="M 297.5,37.5 C 298.166,42.8229 298.499,48.3229 298.5,54C 298.626,60.2707 298.126,66.4374 297,72.5C 295.786,74.0488 294.286,75.2155 292.5,76C 281.5,76.6667 270.5,76.6667 259.5,76C 272.369,63.2985 285.035,50.4652 297.5,37.5 Z"/></g>
<g><path style="opacity:1" fill="#fea426" d="M 227.5,84.5 C 228.5,84.8333 229.167,85.5 229.5,86.5C 229.5,97.1667 229.5,107.833 229.5,118.5C 167.664,118.168 105.998,118.501 44.5,119.5C 34.2698,120.796 25.2698,124.796 17.5,131.5C 16.5009,118.851 16.1676,106.184 16.5,93.5C 22.5565,89.3071 29.2232,86.4737 36.5,85C 100.166,84.5 163.832,84.3333 227.5,84.5 Z"/></g>
<g><path style="opacity:1" fill="#2f190d" d="M 338.5,101.5 C 359.836,101.333 381.169,101.5 402.5,102C 408.095,104.354 409.928,108.521 408,114.5C 406.833,115.667 405.667,116.833 404.5,118C 381.833,118.667 359.167,118.667 336.5,118C 330.674,111.622 331.341,106.122 338.5,101.5 Z"/></g>
<g><path style="opacity:1" fill="#8c5714" d="M 229.5,86.5 C 230.495,97.3206 230.828,108.321 230.5,119.5C 168.5,119.5 106.5,119.5 44.5,119.5C 105.998,118.501 167.664,118.168 229.5,118.5C 229.5,107.833 229.5,97.1667 229.5,86.5 Z"/></g>
<g><path style="opacity:1" fill="#8c7640" d="M 46.5,136.5 C 107.664,135.501 168.998,135.168 230.5,135.5C 230.826,144.349 230.493,153.016 229.5,161.5C 229.5,153.167 229.5,144.833 229.5,136.5C 226.167,136.5 222.833,136.5 219.5,136.5C 191.167,136.5 162.833,136.5 134.5,136.5C 105.167,136.5 75.8333,136.5 46.5,136.5 Z"/></g>
<g><path style="opacity:1" fill="#fef2b3" d="M 46.5,136.5 C 75.8333,136.5 105.167,136.5 134.5,136.5C 84.1667,164.833 44.8333,204.167 16.5,254.5C 16.3334,223.832 16.5,193.165 17,162.5C 21.4327,147.56 31.266,138.893 46.5,136.5 Z"/></g>
<g><path style="opacity:1" fill="#fee87a" d="M 134.5,136.5 C 162.833,136.5 191.167,136.5 219.5,136.5C 206.347,143.659 194.014,151.992 182.5,161.5C 171.064,161.044 159.731,161.544 148.5,163C 124.667,186.833 100.833,210.667 77,234.5C 76.5,284.499 76.3333,334.499 76.5,384.5C 75.6682,365.338 75.1682,346.004 75,326.5C 62.666,380.409 65.4993,433.409 83.5,485.5C 69.496,485.667 55.496,485.5 41.5,485C 27.1428,480.309 18.9761,470.476 17,455.5C 16.5,388.501 16.3333,321.501 16.5,254.5C 44.8333,204.167 84.1667,164.833 134.5,136.5 Z"/></g>
<g><path style="opacity:1" fill="#ffe45c" d="M 219.5,136.5 C 222.833,136.5 226.167,136.5 229.5,136.5C 229.5,144.833 229.5,153.167 229.5,161.5C 213.833,161.5 198.167,161.5 182.5,161.5C 194.014,151.992 206.347,143.659 219.5,136.5 Z"/></g>
<g><path style="opacity:1" fill="#2f190d" d="M 277.5,136.5 C 319.835,136.333 362.168,136.5 404.5,137C 408.788,140.771 409.621,145.271 407,150.5C 405.581,151.46 404.081,152.293 402.5,153C 361.167,153.667 319.833,153.667 278.5,153C 271.078,147.783 270.745,142.283 277.5,136.5 Z"/></g>
<g><path style="opacity:1" fill="#bfa641" d="M 464.5,136.5 C 460.5,136.5 456.5,136.5 452.5,136.5C 452.832,169.004 452.498,201.338 451.5,233.5C 451.5,200.833 451.5,168.167 451.5,135.5C 456.032,135.182 460.366,135.515 464.5,136.5 Z"/></g>
<g><path style="opacity:1" fill="#fee35b" d="M 464.5,136.5 C 479.754,138.916 489.587,147.582 494,162.5C 494.667,261.167 494.667,359.833 494,458.5C 490.582,472.251 482.082,481.084 468.5,485C 340.167,485.5 211.834,485.667 83.5,485.5C 65.4993,433.409 62.666,380.409 75,326.5C 75.1682,346.004 75.6682,365.338 76.5,384.5C 77.6651,401.328 86.3318,412.162 102.5,417C 108.157,417.499 113.824,417.666 119.5,417.5C 117.039,439.1 126.039,453.267 146.5,460C 201.167,460.667 255.833,460.667 310.5,460C 327.978,457.226 337.978,447.059 340.5,429.5C 341.499,374.669 341.832,319.669 341.5,264.5C 368.339,264.831 395.005,264.498 421.5,263.5C 438.5,260.5 448.5,250.5 451.5,233.5C 452.498,201.338 452.832,169.004 452.5,136.5C 456.5,136.5 460.5,136.5 464.5,136.5 Z"/></g>
<g><path style="opacity:1" fill="#2d180b" d="M 277.5,170.5 C 319.835,170.333 362.168,170.5 404.5,171C 408.788,174.771 409.621,179.271 407,184.5C 405.581,185.46 404.081,186.293 402.5,187C 361.167,187.667 319.833,187.667 278.5,187C 270.937,181.827 270.604,176.327 277.5,170.5 Z"/></g>
<g><path style="opacity:1" fill="#b9b5b4" d="M 230.5,233.5 C 229.503,215.674 229.17,197.674 229.5,179.5C 207.167,179.5 184.833,179.5 162.5,179.5C 162.829,194.343 162.496,209.01 161.5,223.5C 161.5,208.5 161.5,193.5 161.5,178.5C 184.5,178.5 207.5,178.5 230.5,178.5C 230.5,196.833 230.5,215.167 230.5,233.5 Z"/></g>
<g><path style="opacity:1" fill="#f0f4fa" d="M 230.5,233.5 C 232.734,250.734 242.401,260.734 259.5,263.5C 266.313,264.491 273.313,264.825 280.5,264.5C 280.5,304.833 280.5,345.167 280.5,385.5C 279.517,393.317 275.184,398.151 267.5,400C 213.5,400.667 159.5,400.667 105.5,400C 98.0197,397.544 94.0197,392.377 93.5,384.5C 93.5,338.833 93.5,293.167 93.5,247.5C 109.009,247.83 124.342,247.496 139.5,246.5C 152.254,244.078 159.587,236.412 161.5,223.5C 162.496,209.01 162.829,194.343 162.5,179.5C 184.833,179.5 207.167,179.5 229.5,179.5C 229.17,197.674 229.503,215.674 230.5,233.5 Z"/></g>
<g><path style="opacity:1" fill="#f1f4fa" d="M 138.5,229.5 C 127.654,229.828 116.987,229.494 106.5,228.5C 119.132,216.369 131.632,204.035 144,191.5C 144.667,202.833 144.667,214.167 144,225.5C 142.549,227.464 140.716,228.797 138.5,229.5 Z"/></g>
<g><path style="opacity:1" fill="#2c1608" d="M 277.5,204.5 C 319.501,204.333 361.501,204.5 403.5,205C 408.738,208.274 409.904,212.774 407,218.5C 405.829,219.893 404.329,220.727 402.5,221C 361.167,221.667 319.833,221.667 278.5,221C 270.948,215.876 270.615,210.376 277.5,204.5 Z"/></g>
<g><path style="opacity:1" fill="#796d65" d="M 106.5,228.5 C 116.987,229.494 127.654,229.828 138.5,229.5C 127.66,230.824 116.66,230.824 105.5,229.5C 105.624,228.893 105.957,228.56 106.5,228.5 Z"/></g>
<g><path style="opacity:1" fill="#544338" d="M 139.5,246.5 C 124.342,247.496 109.009,247.83 93.5,247.5C 93.5,293.167 93.5,338.833 93.5,384.5C 92.5012,338.67 92.1679,292.67 92.5,246.5C 108.167,246.5 123.833,246.5 139.5,246.5 Z"/></g>
<g><path style="opacity:1" fill="#9e9794" d="M 259.5,263.5 C 266.833,263.5 274.167,263.5 281.5,263.5C 281.832,304.337 281.499,345.003 280.5,385.5C 280.5,345.167 280.5,304.833 280.5,264.5C 273.313,264.825 266.313,264.491 259.5,263.5 Z"/></g>
<g><path style="opacity:1" fill="#bcc1d0" d="M 136.5,428.5 C 136.5,425.167 136.5,421.833 136.5,418.5C 179.337,418.832 222.003,418.499 264.5,417.5C 283.01,415.828 294.177,405.828 298,387.5C 298.5,346.168 298.667,304.835 298.5,263.5C 306.833,263.5 315.167,263.5 323.5,263.5C 323.667,319.168 323.5,374.834 323,430.5C 321.167,437 317,441.167 310.5,443C 256.5,443.667 202.5,443.667 148.5,443C 141.359,440.698 137.359,435.865 136.5,428.5 Z"/></g>
<g><path style="opacity:1" fill="#ad943a" d="M 421.5,263.5 C 395.005,264.498 368.339,264.831 341.5,264.5C 341.832,319.669 341.499,374.669 340.5,429.5C 340.5,374.167 340.5,318.833 340.5,263.5C 367.5,263.5 394.5,263.5 421.5,263.5 Z"/></g>
<g><path style="opacity:1" fill="#2c1708" d="M 124.5,289.5 C 166.168,289.333 207.835,289.5 249.5,290C 255.753,293.003 257.087,297.503 253.5,303.5C 252.335,304.584 251.002,305.417 249.5,306C 207.5,306.667 165.5,306.667 123.5,306C 119.212,302.229 118.379,297.729 121,292.5C 122.145,291.364 123.312,290.364 124.5,289.5 Z"/></g>
<g><path style="opacity:1" fill="#2d180b" d="M 124.5,323.5 C 166.168,323.333 207.835,323.5 249.5,324C 257.088,328.924 257.421,334.257 250.5,340C 208.167,340.667 165.833,340.667 123.5,340C 119.212,336.229 118.379,331.729 121,326.5C 122.518,325.837 123.685,324.837 124.5,323.5 Z"/></g>
<g><path style="opacity:1" fill="#2e190d" d="M 125.5,357.5 C 166.501,357.333 207.501,357.5 248.5,358C 255.169,360.507 257.002,365.007 254,371.5C 253.097,372.701 251.931,373.535 250.5,374C 208.167,374.667 165.833,374.667 123.5,374C 119.212,370.229 118.379,365.729 121,360.5C 122.652,359.601 124.152,358.601 125.5,357.5 Z"/></g>
<g><path style="opacity:1" fill="#a6a6b0" d="M 264.5,417.5 C 222.003,418.499 179.337,418.832 136.5,418.5C 136.5,421.833 136.5,425.167 136.5,428.5C 135.518,425.038 135.185,421.371 135.5,417.5C 178.5,417.5 221.5,417.5 264.5,417.5 Z"/></g>
</svg>
