<?xml version="1.0" encoding="UTF-8"?>
<!DOCTYPE svg PUBLIC "-//W3C//DTD SVG 1.1//EN" "http://www.w3.org/Graphics/SVG/1.1/DTD/svg11.dtd">
<svg xmlns="http://www.w3.org/2000/svg" version="1.1" width="512px" height="512px" style="shape-rendering:geometricPrecision; text-rendering:geometricPrecision; image-rendering:optimizeQuality; fill-rule:evenodd; clip-rule:evenodd" xmlns:xlink="http://www.w3.org/1999/xlink">
<g><path style="opacity:0.981" fill="#030100" d="M 511.5,235.5 C 511.5,294.5 511.5,353.5 511.5,412.5C 510.295,415.234 508.795,417.901 507,420.5C 482.5,445 458,469.5 433.5,494C 429.644,496.842 425.31,498.509 420.5,499C 358.833,499.667 297.167,499.667 235.5,499C 230.313,498.439 225.646,496.605 221.5,493.5C 217.144,496.18 212.478,498.013 207.5,499C 145.5,499.667 83.5,499.667 21.5,499C 10.3127,497.262 2.97932,491.095 -0.5,480.5C -0.5,418.833 -0.5,357.167 -0.5,295.5C 1.34757,290.326 4.34757,285.826 8.5,282C 38.025,262.405 67.025,242.072 95.5,221C 99.7795,218.264 104.446,216.764 109.5,216.5C 109.333,176.499 109.5,136.499 110,96.5C 110.532,89.2697 113.365,83.1031 118.5,78C 148.184,57.8253 177.517,37.1586 206.5,16C 208.717,14.7246 211.051,13.7246 213.5,13C 271.13,11.3534 328.797,11.0201 386.5,12C 398.443,13.9422 405.943,20.7756 409,32.5C 409.667,90.1667 409.667,147.833 409,205.5C 408.312,209.209 406.812,212.543 404.5,215.5C 433.161,216.333 461.828,216.833 490.5,217C 501.161,219.169 508.161,225.336 511.5,235.5 Z"/></g>
<g><path style="opacity:1" fill="#211100" d="M 309.5,29.5 C 332.337,28.1714 355.337,28.1714 378.5,29.5C 378.376,30.1067 378.043,30.44 377.5,30.5C 355.006,29.5025 332.339,29.1692 309.5,29.5 Z"/></g>
<g><path style="opacity:1" fill="#f37b00" d="M 227.5,71.5 C 204.994,71.8308 182.66,71.4974 160.5,70.5C 179.621,57.2192 198.621,43.7192 217.5,30C 238.833,29.3333 260.167,29.3333 281.5,30C 263.624,44.0489 245.624,57.8822 227.5,71.5 Z"/></g>
<g><path style="opacity:1" fill="#f37b00" d="M 309.5,29.5 C 332.339,29.1692 355.006,29.5025 377.5,30.5C 360.705,44.7909 344.038,59.2909 327.5,74C 324.498,73.8416 321.498,73.3416 318.5,72.5C 297.833,71.8333 277.167,71.1667 256.5,70.5C 274.347,57.0752 292.014,43.4086 309.5,29.5 Z"/></g>
<g><path style="opacity:1" fill="#d64215" d="M 390.5,41.5 C 391.499,94.6641 391.832,147.997 391.5,201.5C 391.291,202.922 390.791,204.255 390,205.5C 373.667,221.833 357.333,238.167 341,254.5C 340.5,201.168 340.333,147.834 340.5,94.5C 341.333,142.665 341.833,190.998 342,239.5C 353.399,228.77 364.066,217.437 374,205.5C 374.832,155.665 374.665,105.998 373.5,56.5C 379.354,51.7352 385.021,46.7352 390.5,41.5 Z"/></g>
<g><path style="opacity:1" fill="#72230a" d="M 390.5,41.5 C 390.56,40.9569 390.893,40.6236 391.5,40.5C 392.831,94.3318 392.831,147.998 391.5,201.5C 391.832,147.997 391.499,94.6641 390.5,41.5 Z"/></g>
<g><path style="opacity:1" fill="#fe5621" d="M 373.5,56.5 C 374.665,105.998 374.832,155.665 374,205.5C 364.066,217.437 353.399,228.77 342,239.5C 341.833,190.998 341.333,142.665 340.5,94.5C 340.23,91.6874 339.73,89.0208 339,86.5C 350.372,76.2909 361.872,66.2909 373.5,56.5 Z"/></g>
<g><path style="opacity:1" fill="#814100" d="M 160.5,70.5 C 182.66,71.4974 204.994,71.8308 227.5,71.5C 204.67,72.663 181.67,72.8297 158.5,72C 159.044,71.2828 159.711,70.7828 160.5,70.5 Z"/></g>
<g><path style="opacity:1" fill="#834200" d="M 256.5,70.5 C 277.167,71.1667 297.833,71.8333 318.5,72.5C 297.489,72.833 276.489,72.4997 255.5,71.5C 255.624,70.8933 255.957,70.56 256.5,70.5 Z"/></g>
<g><path style="opacity:1" fill="#fe9701" d="M 304.5,89.5 C 304.987,90.4734 305.487,91.4734 306,92.5C 306.5,132.832 306.667,173.165 306.5,213.5C 304.968,211.479 302.968,209.979 300.5,209C 290.167,208.333 279.833,208.333 269.5,209C 264.391,212.366 263.224,216.866 266,222.5C 266.903,223.701 268.069,224.535 269.5,225C 279.833,225.667 290.167,225.667 300.5,225C 302.881,224.777 304.547,223.61 305.5,221.5C 306.493,229.984 306.826,238.651 306.5,247.5C 304.66,245.832 302.66,244.332 300.5,243C 290.167,242.333 279.833,242.333 269.5,243C 264.391,246.366 263.224,250.866 266,256.5C 266.903,257.701 268.069,258.535 269.5,259C 280.167,259.667 290.833,259.667 301.5,259C 303.324,258.34 304.657,257.173 305.5,255.5C 307.011,262.497 306.678,269.497 304.5,276.5C 246.417,276.992 188.417,276.492 130.5,275C 129.299,274.097 128.465,272.931 128,271.5C 127.333,212.5 127.333,153.5 128,94.5C 128.465,93.0692 129.299,91.9025 130.5,91C 188.417,89.508 246.417,89.008 304.5,89.5 Z"/></g>
<g><path style="opacity:1" fill="#f47c00" d="M 304.5,89.5 C 309.511,89.3341 314.511,89.5007 319.5,90C 320.667,91.1667 321.833,92.3333 323,93.5C 323.667,152.833 323.667,212.167 323,271.5C 322.167,273.667 320.667,275.167 318.5,276C 313.845,276.499 309.179,276.666 304.5,276.5C 306.678,269.497 307.011,262.497 305.5,255.5C 306.388,252.946 306.721,250.279 306.5,247.5C 306.826,238.651 306.493,229.984 305.5,221.5C 306.265,218.904 306.599,216.237 306.5,213.5C 306.667,173.165 306.5,132.832 306,92.5C 305.487,91.4734 304.987,90.4734 304.5,89.5 Z"/></g>
<g><path style="opacity:1" fill="#030201" d="M 156.5,208.5 C 170.837,208.333 185.171,208.5 199.5,209C 205.87,210.436 210.037,214.269 212,220.5C 212.667,229.5 212.667,238.5 212,247.5C 210.058,253.776 205.891,257.61 199.5,259C 185.167,259.667 170.833,259.667 156.5,259C 150.269,257.037 146.436,252.87 145,246.5C 144.333,237.833 144.333,229.167 145,220.5C 147.691,215.311 151.524,211.311 156.5,208.5 Z"/></g>
<g><path style="opacity:1" fill="#040200" d="M 306.5,213.5 C 306.599,216.237 306.265,218.904 305.5,221.5C 304.547,223.61 302.881,224.777 300.5,225C 290.167,225.667 279.833,225.667 269.5,225C 268.069,224.535 266.903,223.701 266,222.5C 263.224,216.866 264.391,212.366 269.5,209C 279.833,208.333 290.167,208.333 300.5,209C 302.968,209.979 304.968,211.479 306.5,213.5 Z"/></g>
<g><path style="opacity:1" fill="#f2f2f2" d="M 161.5,225.5 C 172.833,225.5 184.167,225.5 195.5,225.5C 195.5,231.167 195.5,236.833 195.5,242.5C 184.167,242.5 172.833,242.5 161.5,242.5C 161.5,236.833 161.5,231.167 161.5,225.5 Z"/></g>
<g><path style="opacity:1" fill="#522900" d="M 385.5,234.5 C 417.003,233.17 448.669,233.17 480.5,234.5C 480.376,235.107 480.043,235.44 479.5,235.5C 448.338,234.502 417.004,234.168 385.5,234.5 Z"/></g>
<g><path style="opacity:1" fill="#f27a00" d="M 106.5,234.5 C 107.833,234.5 109.167,234.5 110.5,234.5C 110.257,248.525 110.591,262.525 111.5,276.5C 90.4974,276.667 69.4974,276.5 48.5,276C 68.2928,262.691 87.6261,248.858 106.5,234.5 Z"/></g>
<g><path style="opacity:1" fill="#f37b00" d="M 385.5,234.5 C 417.004,234.168 448.338,234.502 479.5,235.5C 462.52,250.144 445.52,264.811 428.5,279.5C 426.205,278.568 423.871,277.735 421.5,277C 395.5,276.667 369.5,276.333 343.5,276C 357.368,261.965 371.368,248.131 385.5,234.5 Z"/></g>
<g><path style="opacity:1" fill="#060300" d="M 306.5,247.5 C 306.721,250.279 306.388,252.946 305.5,255.5C 304.657,257.173 303.324,258.34 301.5,259C 290.833,259.667 280.167,259.667 269.5,259C 268.069,258.535 266.903,257.701 266,256.5C 263.224,250.866 264.391,246.366 269.5,243C 279.833,242.333 290.167,242.333 300.5,243C 302.66,244.332 304.66,245.832 306.5,247.5 Z"/></g>
<g><path style="opacity:1" fill="#d64214" d="M 444.5,458.5 C 443.515,454.366 443.182,450.032 443.5,445.5C 453.465,436.036 463.298,426.369 473,416.5C 475.146,413.874 476.479,410.874 477,407.5C 477.5,358.501 477.667,309.501 477.5,260.5C 482.805,255.366 488.305,250.366 494,245.5C 494.667,299.5 494.667,353.5 494,407.5C 477.66,424.673 461.16,441.673 444.5,458.5 Z"/></g>
<g><path style="opacity:1" fill="#fe5621" d="M 477.5,260.5 C 477.667,309.501 477.5,358.501 477,407.5C 476.479,410.874 475.146,413.874 473,416.5C 463.298,426.369 453.465,436.036 443.5,445.5C 443.832,395.997 443.499,346.664 442.5,297.5C 441.637,295.105 441.637,292.771 442.5,290.5C 454.186,280.477 465.853,270.477 477.5,260.5 Z"/></g>
<g><path style="opacity:1" fill="#fe9701" d="M 22.5,294.5 C 79.8372,294.167 137.171,294.5 194.5,295.5C 195.83,336.294 195.83,376.961 194.5,417.5C 193.547,415.39 191.881,414.223 189.5,414C 179.167,413.333 168.833,413.333 158.5,414C 153.391,417.366 152.224,421.866 155,427.5C 156.255,428.211 157.421,429.044 158.5,430C 168.833,430.667 179.167,430.667 189.5,430C 191.584,429.303 193.251,428.136 194.5,426.5C 195.833,434.833 195.833,443.167 194.5,451.5C 193.251,449.864 191.584,448.697 189.5,448C 179.167,447.333 168.833,447.333 158.5,448C 153.391,451.366 152.224,455.866 155,461.5C 155.903,462.701 157.069,463.535 158.5,464C 168.833,464.667 179.167,464.667 189.5,464C 191.584,463.303 193.251,462.136 194.5,460.5C 196.011,467.497 195.678,474.497 193.5,481.5C 136.166,481.667 78.8324,481.5 21.5,481C 19.2739,479.773 17.7739,477.939 17,475.5C 16.3333,416.833 16.3333,358.167 17,299.5C 18.0757,296.921 19.909,295.254 22.5,294.5 Z"/></g>
<g><path style="opacity:1" fill="#ef7a00" d="M 22.5,294.5 C 83.6653,293.335 144.999,293.168 206.5,294C 208.624,295.122 210.457,296.622 212,298.5C 212.667,357.833 212.667,417.167 212,476.5C 211.167,478.667 209.667,480.167 207.5,481C 202.845,481.499 198.179,481.666 193.5,481.5C 195.678,474.497 196.011,467.497 194.5,460.5C 195.833,457.5 195.833,454.5 194.5,451.5C 195.833,443.167 195.833,434.833 194.5,426.5C 195.833,423.5 195.833,420.5 194.5,417.5C 195.83,376.961 195.83,336.294 194.5,295.5C 137.171,294.5 79.8372,294.167 22.5,294.5 Z"/></g>
<g><path style="opacity:1" fill="#fd9701" d="M 236.5,294.5 C 293.504,294.167 350.504,294.5 407.5,295.5C 408.154,297.115 408.654,298.782 409,300.5C 409.667,358.833 409.667,417.167 409,475.5C 408.187,477.436 407.687,479.436 407.5,481.5C 349.832,481.667 292.166,481.5 234.5,481C 233.333,479.833 232.167,478.667 231,477.5C 229.341,418.582 229.008,359.582 230,300.5C 230.754,296.911 232.921,294.911 236.5,294.5 Z"/></g>
<g><path style="opacity:1" fill="#eb7800" d="M 236.5,294.5 C 297.332,293.335 358.332,293.168 419.5,294C 422.583,294.786 424.749,296.619 426,299.5C 426.667,358.167 426.667,416.833 426,475.5C 424.833,478 423,479.833 420.5,481C 416.179,481.499 411.846,481.666 407.5,481.5C 407.687,479.436 408.187,477.436 409,475.5C 409.667,417.167 409.667,358.833 409,300.5C 408.654,298.782 408.154,297.115 407.5,295.5C 350.504,294.5 293.504,294.167 236.5,294.5 Z"/></g>
<g><path style="opacity:1" fill="#441609" d="M 442.5,297.5 C 443.499,346.664 443.832,395.997 443.5,445.5C 443.182,450.032 443.515,454.366 444.5,458.5C 444.44,459.043 444.107,459.376 443.5,459.5C 442.5,405.504 442.167,351.504 442.5,297.5 Z"/></g>
<g><path style="opacity:1" fill="#030201" d="M 45.5,413.5 C 59.8372,413.333 74.1705,413.5 88.5,414C 94.5009,415.336 98.6676,418.836 101,424.5C 101.667,433.833 101.667,443.167 101,452.5C 99.1928,458.307 95.3595,462.141 89.5,464C 74.8333,464.667 60.1667,464.667 45.5,464C 39.9389,461.438 36.1055,457.272 34,451.5C 33.3333,442.833 33.3333,434.167 34,425.5C 36.6907,420.311 40.5241,416.311 45.5,413.5 Z"/></g>
<g><path style="opacity:1" fill="#040200" d="M 194.5,417.5 C 195.833,420.5 195.833,423.5 194.5,426.5C 193.251,428.136 191.584,429.303 189.5,430C 179.167,430.667 168.833,430.667 158.5,430C 157.421,429.044 156.255,428.211 155,427.5C 152.224,421.866 153.391,417.366 158.5,414C 168.833,413.333 179.167,413.333 189.5,414C 191.881,414.223 193.547,415.39 194.5,417.5 Z"/></g>
<g><path style="opacity:1" fill="#030201" d="M 260.5,413.5 C 274.171,413.333 287.837,413.5 301.5,414C 308.203,415.7 312.703,419.867 315,426.5C 315.667,434.833 315.667,443.167 315,451.5C 312.737,458.097 308.237,462.264 301.5,464C 287.833,464.667 274.167,464.667 260.5,464C 254.075,462.573 249.908,458.74 248,452.5C 247.333,443.167 247.333,433.833 248,424.5C 250.537,418.785 254.704,415.118 260.5,413.5 Z"/></g>
<g><path style="opacity:1" fill="#030100" d="M 371.5,413.5 C 382.172,413.333 392.839,413.5 403.5,414C 408.224,416.435 409.724,420.269 408,425.5C 407.065,428.102 405.232,429.602 402.5,430C 392.167,430.667 381.833,430.667 371.5,430C 364.856,424.375 364.856,418.875 371.5,413.5 Z"/></g>
<g><path style="opacity:1" fill="#f3f3f3" d="M 50.5,430.5 C 61.8333,430.5 73.1667,430.5 84.5,430.5C 84.5,436.167 84.5,441.833 84.5,447.5C 73.1667,447.5 61.8333,447.5 50.5,447.5C 50.5,441.833 50.5,436.167 50.5,430.5 Z"/></g>
<g><path style="opacity:1" fill="#f2f2f2" d="M 264.5,430.5 C 275.833,430.5 287.167,430.5 298.5,430.5C 298.5,436.167 298.5,441.833 298.5,447.5C 287.167,447.5 275.833,447.5 264.5,447.5C 264.5,441.833 264.5,436.167 264.5,430.5 Z"/></g>
<g><path style="opacity:1" fill="#030100" d="M 194.5,451.5 C 195.833,454.5 195.833,457.5 194.5,460.5C 193.251,462.136 191.584,463.303 189.5,464C 179.167,464.667 168.833,464.667 158.5,464C 157.069,463.535 155.903,462.701 155,461.5C 152.224,455.866 153.391,451.366 158.5,448C 168.833,447.333 179.167,447.333 189.5,448C 191.584,448.697 193.251,449.864 194.5,451.5 Z"/></g>
<g><path style="opacity:1" fill="#020100" d="M 371.5,447.5 C 381.839,447.334 392.172,447.5 402.5,448C 407.906,449.98 409.739,453.814 408,459.5C 407.065,462.102 405.232,463.602 402.5,464C 392.167,464.667 381.833,464.667 371.5,464C 364.881,458.471 364.881,452.971 371.5,447.5 Z"/></g>
</svg>
