<?xml version="1.0" encoding="UTF-8"?>
<!DOCTYPE svg PUBLIC "-//W3C//DTD SVG 1.1//EN" "http://www.w3.org/Graphics/SVG/1.1/DTD/svg11.dtd">
<svg xmlns="http://www.w3.org/2000/svg" version="1.1" width="512px" height="512px" style="shape-rendering:geometricPrecision; text-rendering:geometricPrecision; image-rendering:optimizeQuality; fill-rule:evenodd; clip-rule:evenodd" xmlns:xlink="http://www.w3.org/1999/xlink">
<g><path style="opacity:0.971" fill="#000101" d="M 457.5,-0.5 C 462.833,-0.5 468.167,-0.5 473.5,-0.5C 477.566,1.36941 481.566,3.53607 485.5,6C 492,12.5 498.5,19 505,25.5C 507.464,29.4339 509.631,33.4339 511.5,37.5C 511.5,42.8333 511.5,48.1667 511.5,53.5C 510.16,57.3166 508.326,60.9833 506,64.5C 492.125,78.0409 478.625,91.8743 465.5,106C 481.08,144.926 478.246,182.426 457,218.5C 453.715,223.454 450.048,228.12 446,232.5C 447.197,239.749 447.531,247.082 447,254.5C 440.34,277.481 425.174,286.981 401.5,283C 396.777,281.804 392.443,279.804 388.5,277C 337,225.5 285.5,174 234,122.5C 221.987,101.905 225.153,84.0714 243.5,69C 247.814,66.3399 252.481,64.6732 257.5,64C 264.583,63.5085 271.583,63.8418 278.5,65C 308.146,40.0868 342.146,31.0868 380.5,38C 389.317,40.1674 397.983,42.5008 406.5,45C 419.833,31.6667 433.167,18.3333 446.5,5C 450.017,2.6738 453.683,0.840466 457.5,-0.5 Z"/></g>
<g><path style="opacity:1" fill="#273491" d="M 450.5,81.5 C 457.465,75.036 464.298,68.3693 471,61.5C 478.331,52.8531 479.331,43.5198 474,33.5C 468.963,28.6313 464.13,23.6313 459.5,18.5C 464.081,15.9225 468.747,16.0892 473.5,19C 481.072,25.9013 487.905,33.4013 494,41.5C 494.965,45.7824 494.298,49.7824 492,53.5C 480,65.5 468,77.5 456,89.5C 453.91,86.9783 452.076,84.3116 450.5,81.5 Z"/></g>
<g><path style="opacity:1" fill="#3e50b3" d="M 459.5,18.5 C 464.13,23.6313 468.963,28.6313 474,33.5C 479.331,43.5198 478.331,52.8531 471,61.5C 464.298,68.3693 457.465,75.036 450.5,81.5C 441.954,71.4545 432.287,62.6212 421.5,55C 433.753,42.2441 446.419,30.0774 459.5,18.5 Z"/></g>
<g><path style="opacity:1" fill="#02a8f3" d="M 381.5,56.5 C 431.068,86.3069 449.235,129.64 436,186.5C 433.31,194.877 429.81,202.877 425.5,210.5C 380.701,166.201 336.035,121.701 291.5,77C 317.961,55.0533 347.961,48.22 381.5,56.5 Z"/></g>
<g><path style="opacity:1" fill="#0276ba" d="M 381.5,56.5 C 423.106,68.609 448.272,95.9423 457,138.5C 460.431,164.014 455.431,187.681 442,209.5C 439.333,212.833 436.667,216.167 434,219.5C 430.962,216.631 428.129,213.631 425.5,210.5C 429.81,202.877 433.31,194.877 436,186.5C 449.235,129.64 431.068,86.3069 381.5,56.5 Z"/></g>
<g><path style="opacity:1" fill="#27338f" d="M 257.5,82.5 C 264.284,80.5357 270.618,81.7024 276.5,86C 326,135.5 375.5,185 425,234.5C 431.635,244.71 430.802,254.21 422.5,263C 417.078,266.441 411.411,267.274 405.5,265.5C 410.568,260.678 412.901,254.678 412.5,247.5C 412.966,241.097 411.133,235.43 407,230.5C 357.583,180.582 307.75,131.249 257.5,82.5 Z"/></g>
<g><path style="opacity:1" fill="#3e50b4" d="M 257.5,82.5 C 307.75,131.249 357.583,180.582 407,230.5C 411.133,235.43 412.966,241.097 412.5,247.5C 412.901,254.678 410.568,260.678 405.5,265.5C 403.407,264.955 401.407,264.122 399.5,263C 349,212.5 298.5,162 248,111.5C 240.947,98.3076 244.114,88.641 257.5,82.5 Z"/></g>
<g><path style="opacity:0.969" fill="#000001" d="M 53.5,511.5 C 48.1667,511.5 42.8333,511.5 37.5,511.5C 33.4339,509.631 29.4339,507.464 25.5,505C 19,498.5 12.5,492 6,485.5C 3.53607,481.566 1.36941,477.566 -0.5,473.5C -0.5,468.167 -0.5,462.833 -0.5,457.5C 0.840466,453.683 2.6738,450.017 5,446.5C 18.8752,432.959 32.3752,419.126 45.5,405C 29.9205,366.074 32.7538,328.574 54,292.5C 57.2853,287.546 60.952,282.88 65,278.5C 60.3395,261.112 64.5061,246.278 77.5,234C 97.626,222.224 115.459,225.058 131,242.5C 155.558,217.274 180.725,192.774 206.5,169C 225.644,160.662 241.811,164.495 255,180.5C 262.333,194.167 262.333,207.833 255,221.5C 231.695,245.805 208.028,269.805 184,293.5C 183.333,294.167 183.333,294.833 184,295.5C 194.681,306.348 205.514,317.014 216.5,327.5C 239.986,304.514 263.32,281.347 286.5,258C 300.757,248.809 315.423,248.142 330.5,256C 344.058,266.669 348.891,280.503 345,297.5C 343.444,302.28 341.111,306.613 338,310.5C 314.833,333.667 291.667,356.833 268.5,380C 284.801,394.174 288.301,411.007 279,430.5C 271.448,441.528 260.948,447.194 247.5,447.5C 242.474,446.82 237.474,446.32 232.5,446C 201.267,472.319 165.6,480.985 125.5,472C 118.46,469.76 111.46,467.76 104.5,466C 91.1667,479.333 77.8333,492.667 64.5,506C 60.9833,508.326 57.3166,510.16 53.5,511.5 Z"/></g>
<g><path style="opacity:1" fill="#6e6e6e" d="M 218.5,183.5 C 235.507,180.777 243.674,188.111 243,205.5C 242.138,207.087 241.471,208.754 241,210.5C 217.695,234.805 194.028,258.805 170,282.5C 167.295,279.964 164.795,277.297 162.5,274.5C 183.443,255.391 203.61,235.391 223,214.5C 228.114,204.094 227.448,194.094 221,184.5C 220.329,183.748 219.496,183.414 218.5,183.5 Z"/></g>
<g><path style="opacity:1" fill="#9c9c9c" d="M 218.5,183.5 C 219.496,183.414 220.329,183.748 221,184.5C 227.448,194.094 228.114,204.094 223,214.5C 203.61,235.391 183.443,255.391 162.5,274.5C 155.318,268.496 149.151,261.829 144,254.5C 166.833,231.667 189.667,208.833 212.5,186C 214.407,184.878 216.407,184.045 218.5,183.5 Z"/></g>
<g><path style="opacity:1" fill="#273491" d="M 94.5,245.5 C 100.375,243.827 106.042,244.661 111.5,248C 162,298.5 212.5,349 263,399.5C 267.528,407.122 267.528,414.789 263,422.5C 257.012,429.188 249.846,431.188 241.5,428.5C 243.017,428.489 244.184,427.823 245,426.5C 251.839,414.064 250.839,402.397 242,391.5C 193.25,342.249 144.083,293.582 94.5,245.5 Z"/></g>
<g><path style="opacity:1" fill="#3e4fb2" d="M 94.5,245.5 C 144.083,293.582 193.25,342.249 242,391.5C 250.839,402.397 251.839,414.064 245,426.5C 244.184,427.823 243.017,428.489 241.5,428.5C 238.91,427.872 236.577,426.705 234.5,425C 185,375.5 135.5,326 86,276.5C 79.2583,266.227 80.0917,256.727 88.5,248C 90.2166,246.441 92.2166,245.608 94.5,245.5 Z"/></g>
<g><path style="opacity:1" fill="#6e6e6e" d="M 248.5,360.5 C 268.132,341.368 287.632,322.035 307,302.5C 313.357,290.807 312.857,279.474 305.5,268.5C 322.035,266.913 329.535,274.579 328,291.5C 327.275,293.949 326.275,296.283 325,298.5C 302.167,321.333 279.333,344.167 256.5,367C 253.195,365.886 250.528,363.719 248.5,360.5 Z"/></g>
<g><path style="opacity:1" fill="#9c9c9c" d="M 305.5,268.5 C 312.857,279.474 313.357,290.807 307,302.5C 287.632,322.035 268.132,341.368 248.5,360.5C 241.702,354.203 235.035,347.703 228.5,341C 251.5,318 274.5,295 297.5,272C 299.818,270.007 302.484,268.841 305.5,268.5 Z"/></g>
<g><path style="opacity:1" fill="#0276bb" d="M 179.5,454.5 C 189.509,449.144 198.509,442.311 206.5,434C 161.583,388.582 116.25,343.749 70.5,299.5C 72.4188,296.681 74.5855,294.014 77,291.5C 124.5,339 172,386.5 219.5,434C 207.98,444.261 194.646,451.094 179.5,454.5 Z"/></g>
<g><path style="opacity:1" fill="#01a8f3" d="M 70.5,299.5 C 116.25,343.749 161.583,388.582 206.5,434C 198.509,442.311 189.509,449.144 179.5,454.5C 136.346,463.949 100.846,451.616 73,417.5C 51.621,385.948 47.621,352.281 61,316.5C 63.6719,310.483 66.8385,304.816 70.5,299.5 Z"/></g>
<g><path style="opacity:1" fill="#273491" d="M 39.5,492.5 C 52.479,480.188 65.1457,467.521 77.5,454.5C 68.4511,445.119 59.4511,435.786 50.5,426.5C 51.7927,424.704 53.2927,423.037 55,421.5C 64.5,435 76,446.5 89.5,456C 77.5,468 65.5,480 53.5,492C 48.7795,495.019 44.1129,495.186 39.5,492.5 Z"/></g>
<g><path style="opacity:1" fill="#3e50b3" d="M 50.5,426.5 C 59.4511,435.786 68.4511,445.119 77.5,454.5C 65.1457,467.521 52.479,480.188 39.5,492.5C 32.2562,486.762 25.4228,480.428 19,473.5C 15.754,468.137 15.754,462.803 19,457.5C 29.3683,446.965 39.8683,436.631 50.5,426.5 Z"/></g>
</svg>
