<?xml version="1.0" encoding="UTF-8"?>
<!DOCTYPE svg PUBLIC "-//W3C//DTD SVG 1.1//EN" "http://www.w3.org/Graphics/SVG/1.1/DTD/svg11.dtd">
<svg xmlns="http://www.w3.org/2000/svg" version="1.1" width="512px" height="512px" style="shape-rendering:geometricPrecision; text-rendering:geometricPrecision; image-rendering:optimizeQuality; fill-rule:evenodd; clip-rule:evenodd" xmlns:xlink="http://www.w3.org/1999/xlink">
<g><path style="opacity:0.946" fill="#000000" d="M 22.5,-0.5 C 27.8333,-0.5 33.1667,-0.5 38.5,-0.5C 50.9017,2.90274 58.5683,10.9027 61.5,23.5C 115.837,23.8333 170.171,23.4999 224.5,22.5C 228.576,11.09 236.243,3.42336 247.5,-0.5C 252.833,-0.5 258.167,-0.5 263.5,-0.5C 274.757,3.42336 282.424,11.09 286.5,22.5C 340.829,23.4999 395.163,23.8333 449.5,23.5C 452.432,10.9027 460.098,2.90274 472.5,-0.5C 477.833,-0.5 483.167,-0.5 488.5,-0.5C 499.833,3.5 507.5,11.1667 511.5,22.5C 511.5,27.8333 511.5,33.1667 511.5,38.5C 508.097,50.9017 500.097,58.5683 487.5,61.5C 487.667,75.1707 487.5,88.8374 487,102.5C 484.567,108.448 480.4,109.948 474.5,107C 473.299,106.097 472.465,104.931 472,103.5C 471.667,89.5 471.333,75.5 471,61.5C 460.5,57.6667 453.333,50.5 449.5,40C 394.834,39.5 340.168,39.3333 285.5,39.5C 281.176,54.3511 271.176,62.0177 255.5,62.5C 239.824,62.0177 229.824,54.3511 225.5,39.5C 170.832,39.3333 116.166,39.5 61.5,40C 57.6667,50.5 50.5,57.6667 40,61.5C 39.5,116.166 39.3333,170.832 39.5,225.5C 54.3511,229.824 62.0177,239.824 62.5,255.5C 62.0177,271.176 54.3511,281.176 39.5,285.5C 39.3333,340.168 39.5,394.834 40,449.5C 50.5,453.333 57.6667,460.5 61.5,471C 81.1667,471.333 100.833,471.667 120.5,472C 124.613,475.509 125.446,479.676 123,484.5C 121.829,485.893 120.329,486.727 118.5,487C 99.5029,487.5 80.5029,487.667 61.5,487.5C 58.5683,500.097 50.9017,508.097 38.5,511.5C 33.1667,511.5 27.8333,511.5 22.5,511.5C 11.1667,507.5 3.5,499.833 -0.5,488.5C -0.5,482.833 -0.5,477.167 -0.5,471.5C 3.34174,459.659 11.3417,452.326 23.5,449.5C 23.8333,395.163 23.4999,340.829 22.5,286.5C 11.09,282.424 3.42336,274.757 -0.5,263.5C -0.5,258.167 -0.5,252.833 -0.5,247.5C 3.42336,236.243 11.09,228.576 22.5,224.5C 23.4999,170.171 23.8333,115.837 23.5,61.5C 10.9027,58.5683 2.90274,50.9017 -0.5,38.5C -0.5,33.1667 -0.5,27.8333 -0.5,22.5C 3.5,11.1667 11.1667,3.5 22.5,-0.5 Z"/></g>
<g><path style="opacity:1" fill="#88add8" d="M 35.5,15.5 C 34.1779,15.33 33.0113,15.6634 32,16.5C 25.7236,26.9282 26.2236,36.9282 33.5,46.5C 26.6482,48.0066 21.1482,45.6733 17,39.5C 11.7354,28.5284 14.5687,20.3618 25.5,15C 29.0267,14.1925 32.3601,14.3592 35.5,15.5 Z"/></g>
<g><path style="opacity:1" fill="#89aed9" d="M 260.5,15.5 C 258.61,15.2965 257.11,15.9632 256,17.5C 250.997,27.454 251.497,37.1207 257.5,46.5C 246.354,47.3705 240.354,42.0372 239.5,30.5C 241.342,17.9634 248.342,12.9634 260.5,15.5 Z"/></g>
<g><path style="opacity:1" fill="#89afda" d="M 484.5,15.5 C 481.909,16.2543 480.076,17.921 479,20.5C 474.951,29.8966 476.118,38.5632 482.5,46.5C 471.33,47.0015 464.996,41.6682 463.5,30.5C 465.969,18.6493 472.969,13.6493 484.5,15.5 Z"/></g>
<g><path style="opacity:1" fill="#9fc3f3" d="M 35.5,15.5 C 47.2038,20.7776 50.0371,29.1109 44,40.5C 41.2967,43.9339 37.7967,45.9339 33.5,46.5C 26.2236,36.9282 25.7236,26.9282 32,16.5C 33.0113,15.6634 34.1779,15.33 35.5,15.5 Z"/></g>
<g><path style="opacity:1" fill="#9fc4f4" d="M 260.5,15.5 C 269.502,19.1665 273.002,25.8332 271,35.5C 268.902,42.1304 264.402,45.7971 257.5,46.5C 251.497,37.1207 250.997,27.454 256,17.5C 257.11,15.9632 258.61,15.2965 260.5,15.5 Z"/></g>
<g><path style="opacity:1" fill="#9fc3f4" d="M 484.5,15.5 C 496.216,19.9508 499.383,27.9508 494,39.5C 491.267,43.7502 487.434,46.0835 482.5,46.5C 476.118,38.5632 474.951,29.8966 479,20.5C 480.076,17.921 481.909,16.2543 484.5,15.5 Z"/></g>
<g><path style="opacity:0.964" fill="#010101" d="M 399.5,233.5 C 396.213,232.945 393.713,231.278 392,228.5C 391.841,213.758 391.341,199.758 390.5,186.5C 348.031,210.569 305.698,234.902 263.5,259.5C 262.167,308.833 262.167,358.167 263.5,407.5C 269.394,404.392 275.061,401.059 280.5,397.5C 314.857,378.236 349.023,358.569 383,338.5C 381.015,332.167 378.682,325.834 376,319.5C 375.088,314.397 376.921,310.564 381.5,308C 384.871,307.256 388.037,307.756 391,309.5C 391.333,292.167 391.667,274.833 392,257.5C 393.713,254.722 396.213,253.055 399.5,252.5C 402.195,252.933 404.362,254.266 406,256.5C 406.167,276.175 406.667,295.842 407.5,315.5C 428.5,324.833 449.5,334.167 470.5,343.5C 471.5,324.178 471.833,304.845 471.5,285.5C 456.649,281.176 448.982,271.176 448.5,255.5C 448.982,239.824 456.649,229.824 471.5,225.5C 471.333,194.165 471.5,162.832 472,131.5C 475.509,127.387 479.676,126.554 484.5,129C 485.893,130.171 486.727,131.671 487,133.5C 487.167,163.839 487.667,194.172 488.5,224.5C 499.91,228.576 507.577,236.243 511.5,247.5C 511.5,252.833 511.5,258.167 511.5,263.5C 507.577,274.757 499.91,282.424 488.5,286.5C 487.5,308.156 487.167,329.823 487.5,351.5C 492.998,353.168 498.331,355.335 503.5,358C 508.345,363.062 508.678,368.395 504.5,374C 499.38,376.447 494.046,378.28 488.5,379.5C 487.5,402.824 487.167,426.157 487.5,449.5C 500.097,452.432 508.097,460.098 511.5,472.5C 511.5,477.833 511.5,483.167 511.5,488.5C 507.5,499.833 499.833,507.5 488.5,511.5C 483.167,511.5 477.833,511.5 472.5,511.5C 460.098,508.097 452.432,500.097 449.5,487.5C 395.163,487.167 340.829,487.5 286.5,488.5C 282.424,499.91 274.757,507.577 263.5,511.5C 258.167,511.5 252.833,511.5 247.5,511.5C 236.243,507.577 228.576,499.91 224.5,488.5C 199.507,487.667 174.507,487.167 149.5,487C 144.401,485.305 142.568,481.805 144,476.5C 144.785,474.714 145.951,473.214 147.5,472C 173.498,471.5 199.498,471.333 225.5,471.5C 229.824,456.649 239.824,448.982 255.5,448.5C 271.176,448.982 281.176,456.649 285.5,471.5C 340.168,471.667 394.834,471.5 449.5,471C 453.333,460.5 460.5,453.333 471,449.5C 471.5,427.836 471.667,406.169 471.5,384.5C 466.224,385.444 461.057,386.777 456,388.5C 451.95,404.704 447.283,420.704 442,436.5C 432.948,441.704 426.614,439.37 423,429.5C 411.873,404.25 401.039,378.917 390.5,353.5C 347.939,377.118 305.606,401.285 263.5,426C 258.167,429.333 252.833,429.333 247.5,426C 200.833,399 154.167,372 107.5,345C 106.299,344.097 105.465,342.931 105,341.5C 104.333,284.167 104.333,226.833 105,169.5C 106.765,166.527 109.265,164.36 112.5,163C 158.997,136.586 205.33,109.919 251.5,83C 254.167,82.3333 256.833,82.3333 259.5,83C 308.246,110.788 356.746,138.955 405,167.5C 406.643,188.077 406.976,208.744 406,229.5C 404.362,231.734 402.195,233.067 399.5,233.5 Z"/></g>
<g><path style="opacity:1" fill="#0180f9" d="M 273.5,109.5 C 240.223,129.478 206.557,148.978 172.5,168C 168.928,170.626 168.595,173.626 171.5,177C 205.928,196.298 239.928,216.131 273.5,236.5C 268.029,239.403 262.696,242.57 257.5,246C 256.167,246.667 254.833,246.667 253.5,246C 211.5,221.667 169.5,197.333 127.5,173C 170.003,147.914 212.669,123.081 255.5,98.5C 261.564,102.192 267.564,105.859 273.5,109.5 Z"/></g>
<g><path style="opacity:1" fill="#0492fb" d="M 273.5,109.5 C 310.275,130.391 346.942,151.557 383.5,173C 346.945,194.394 310.279,215.561 273.5,236.5C 239.928,216.131 205.928,196.298 171.5,177C 168.595,173.626 168.928,170.626 172.5,168C 206.557,148.978 240.223,129.478 273.5,109.5 Z"/></g>
<g><path style="opacity:1" fill="#f5c200" d="M 144.5,200.5 C 143.833,219.33 143.5,238.33 143.5,257.5C 143.351,277.562 143.851,297.562 145,317.5C 178.506,338.256 212.506,358.256 247,377.5C 247.5,338.168 247.667,298.835 247.5,259.5C 248.831,308.668 248.831,358.002 247.5,407.5C 205.004,383.419 162.67,359.086 120.5,334.5C 119.333,284.837 119.167,235.17 120,185.5C 128.314,190.4 136.481,195.4 144.5,200.5 Z"/></g>
<g><path style="opacity:1" fill="#f74553" d="M 390.5,186.5 C 390.812,193.422 390.479,200.256 389.5,207C 352.923,227.536 316.756,248.703 281,270.5C 280.5,312.832 280.333,355.165 280.5,397.5C 275.061,401.059 269.394,404.392 263.5,407.5C 262.167,358.167 262.167,308.833 263.5,259.5C 305.698,234.902 348.031,210.569 390.5,186.5 Z"/></g>
<g><path style="opacity:1" fill="#fdd301" d="M 144.5,200.5 C 178.969,219.902 213.302,239.569 247.5,259.5C 247.667,298.835 247.5,338.168 247,377.5C 212.506,358.256 178.506,338.256 145,317.5C 143.851,297.562 143.351,277.562 143.5,257.5C 143.5,238.33 143.833,219.33 144.5,200.5 Z"/></g>
<g><path style="opacity:0.999" fill="#fd636e" d="M 399.5,233.5 C 399.5,239.833 399.5,246.167 399.5,252.5C 396.213,253.055 393.713,254.722 392,257.5C 391.667,274.833 391.333,292.167 391,309.5C 388.037,307.756 384.871,307.256 381.5,308C 376.921,310.564 375.088,314.397 376,319.5C 378.682,325.834 381.015,332.167 383,338.5C 349.023,358.569 314.857,378.236 280.5,397.5C 280.333,355.165 280.5,312.832 281,270.5C 316.756,248.703 352.923,227.536 389.5,207C 390.479,200.256 390.812,193.422 390.5,186.5C 391.341,199.758 391.841,213.758 392,228.5C 393.713,231.278 396.213,232.945 399.5,233.5 Z"/></g>
<g><path style="opacity:1" fill="#8bb0db" d="M 35.5,240.5 C 32.7081,240.452 30.8747,241.785 30,244.5C 26.5254,252.627 26.8587,260.627 31,268.5C 32.1096,270.037 33.6096,270.703 35.5,270.5C 22.8948,272.925 15.8948,267.591 14.5,254.5C 16.831,242.516 23.831,237.85 35.5,240.5 Z"/></g>
<g><path style="opacity:1" fill="#89aed8" d="M 482.5,239.5 C 474.503,250.154 474.503,260.82 482.5,271.5C 467.938,271.105 462.105,263.772 465,249.5C 468.521,242.15 474.355,238.816 482.5,239.5 Z"/></g>
<g><path style="opacity:1" fill="#9ec3f3" d="M 35.5,240.5 C 43.0257,242.498 47.0257,247.498 47.5,255.5C 46.5463,263.136 42.5463,268.136 35.5,270.5C 33.6096,270.703 32.1096,270.037 31,268.5C 26.8587,260.627 26.5254,252.627 30,244.5C 30.8747,241.785 32.7081,240.452 35.5,240.5 Z"/></g>
<g><path style="opacity:1" fill="#9fc4f4" d="M 482.5,239.5 C 495.514,243.53 499.347,251.864 494,264.5C 491.161,268.502 487.327,270.835 482.5,271.5C 474.503,260.82 474.503,250.154 482.5,239.5 Z"/></g>
<g><path style="opacity:1" fill="#b0d6fa" d="M 419.5,338.5 C 425.265,354.71 432.265,370.71 440.5,386.5C 438.011,395.116 435.511,403.782 433,412.5C 420.597,384.458 408.097,356.458 395.5,328.5C 395.833,328.167 396.167,327.833 396.5,327.5C 404.356,330.995 412.022,334.661 419.5,338.5 Z"/></g>
<g><path style="opacity:1" fill="#c1defb" d="M 419.5,338.5 C 440.045,346.771 460.379,355.604 480.5,365C 469.064,368.025 457.731,371.358 446.5,375C 442.799,377.901 440.799,381.735 440.5,386.5C 432.265,370.71 425.265,354.71 419.5,338.5 Z"/></g>
<g><path style="opacity:1" fill="#89aed8" d="M 33.5,464.5 C 26.0508,474.037 25.5508,484.037 32,494.5C 33.0113,495.337 34.1779,495.67 35.5,495.5C 23.2914,497.706 16.2914,492.539 14.5,480C 15.9194,470.747 21.2527,465.247 30.5,463.5C 31.7261,463.52 32.7261,463.853 33.5,464.5 Z"/></g>
<g><path style="opacity:1" fill="#a0c5f5" d="M 33.5,464.5 C 41.9915,466.16 46.3249,471.326 46.5,480C 46.5402,487.794 42.8735,492.96 35.5,495.5C 34.1779,495.67 33.0113,495.337 32,494.5C 25.5508,484.037 26.0508,474.037 33.5,464.5 Z"/></g>
<g><path style="opacity:1" fill="#89aed8" d="M 258.5,464.5 C 252.348,471.793 250.848,480.126 254,489.5C 254.79,493.128 256.957,495.128 260.5,495.5C 247.886,497.914 240.886,492.581 239.5,479.5C 240.959,468.019 247.292,463.019 258.5,464.5 Z"/></g>
<g><path style="opacity:1" fill="#9fc4f4" d="M 258.5,464.5 C 271.263,468.711 274.763,477.044 269,489.5C 266.823,492.523 263.989,494.523 260.5,495.5C 256.957,495.128 254.79,493.128 254,489.5C 250.848,480.126 252.348,471.793 258.5,464.5 Z"/></g>
<g><path style="opacity:1" fill="#8bb0db" d="M 482.5,464.5 C 475.296,473.807 474.796,483.474 481,493.5C 481.816,494.823 482.983,495.489 484.5,495.5C 469.474,496.912 462.974,489.912 465,474.5C 468.359,466.902 474.193,463.569 482.5,464.5 Z"/></g>
<g><path style="opacity:1" fill="#9fc3f4" d="M 482.5,464.5 C 491.158,465.994 495.825,471.161 496.5,480C 496.196,488.139 492.196,493.305 484.5,495.5C 482.983,495.489 481.816,494.823 481,493.5C 474.796,483.474 475.296,473.807 482.5,464.5 Z"/></g>
</svg>
