<?xml version="1.0" encoding="UTF-8"?>
<!DOCTYPE svg PUBLIC "-//W3C//DTD SVG 1.1//EN" "http://www.w3.org/Graphics/SVG/1.1/DTD/svg11.dtd">
<svg xmlns="http://www.w3.org/2000/svg" version="1.1" width="512px" height="512px" style="shape-rendering:geometricPrecision; text-rendering:geometricPrecision; image-rendering:optimizeQuality; fill-rule:evenodd; clip-rule:evenodd" xmlns:xlink="http://www.w3.org/1999/xlink">
<g><path style="opacity:0.984" fill="#020101" d="M 291.5,-0.5 C 300.5,-0.5 309.5,-0.5 318.5,-0.5C 356.743,7.57353 381.91,30.2402 394,67.5C 397.5,64 401,60.5 404.5,57C 405.167,56.3333 405.833,56.3333 406.5,57C 433.333,83.8333 460.167,110.667 487,137.5C 487.667,138.167 487.667,138.833 487,139.5C 478.218,147.276 470.551,155.942 464,165.5C 460.641,182.135 467.141,192.635 483.5,197C 492.827,197.5 502.161,197.666 511.5,197.5C 511.5,236.167 511.5,274.833 511.5,313.5C 500.769,313.097 490.102,313.597 479.5,315C 465.728,320.71 460.561,330.877 464,345.5C 470.551,355.058 478.218,363.724 487,371.5C 487.667,372.167 487.667,372.833 487,373.5C 459.986,400.68 432.82,427.68 405.5,454.5C 398.681,448.181 392.014,441.681 385.5,435C 371.659,426.252 359.825,428.419 350,441.5C 349.138,443.087 348.471,444.754 348,446.5C 346.625,457.111 346.125,467.778 346.5,478.5C 330.167,478.5 313.833,478.5 297.5,478.5C 297.5,489.5 297.5,500.5 297.5,511.5C 214.5,511.5 131.5,511.5 48.5,511.5C 48.3334,494.83 48.5001,478.163 49,461.5C 52.9983,427.638 70.165,403.138 100.5,388C 64.7291,368.646 47.3958,338.479 48.5,297.5C 23.3995,299.14 7.06617,288.14 -0.5,264.5C -0.5,258.5 -0.5,252.5 -0.5,246.5C 1.88533,240.875 3.88533,235.041 5.5,229C 3.84965,210.979 1.84965,193.145 -0.5,175.5C -0.5,166.833 -0.5,158.167 -0.5,149.5C 7.7492,113.921 30.0825,94.2546 66.5,90.5C 69.5739,77.592 77.5739,69.4253 90.5,66C 132.5,65.6667 174.5,65.3333 216.5,65C 228.044,27.6155 253.044,5.7822 291.5,-0.5 Z M 355.5,173.5 C 375.006,188.896 387.506,208.896 393,233.5C 400.832,286.668 381.332,326.168 334.5,352C 316.639,360.575 297.973,363.575 278.5,361C 292.182,342.112 298.516,320.946 297.5,297.5C 326.657,298.493 342.99,284.66 346.5,256C 346.777,250.107 345.777,244.44 343.5,239C 344.536,236.226 345.369,233.393 346,230.5C 346.333,217.167 346.667,203.833 347,190.5C 348.792,184.249 351.626,178.582 355.5,173.5 Z"/></g>
<g><path style="opacity:1" fill="#f9d56f" d="M 291.5,16.5 C 335.837,13.0638 364.67,32.3971 378,74.5C 381.934,95.4997 377.934,114.833 366,132.5C 355.95,144.882 346.283,157.549 337,170.5C 334.928,173.971 333.428,177.638 332.5,181.5C 314.167,181.5 295.833,181.5 277.5,181.5C 275.821,175.807 273.321,170.474 270,165.5C 261.574,154.318 252.908,143.318 244,132.5C 224.616,100.323 226.282,69.3226 249,39.5C 260.726,27.222 274.893,19.5553 291.5,16.5 Z"/></g>
<g><path style="opacity:0.944" fill="#000000" d="M 428.5,32.5 C 434.167,32.5 439.833,32.5 445.5,32.5C 445.5,38.1667 445.5,43.8333 445.5,49.5C 439.833,49.5 434.167,49.5 428.5,49.5C 428.5,43.8333 428.5,38.1667 428.5,32.5 Z"/></g>
<g><path style="opacity:0.944" fill="#000000" d="M 461.5,32.5 C 467.167,32.5 472.833,32.5 478.5,32.5C 478.5,38.1667 478.5,43.8333 478.5,49.5C 472.833,49.5 467.167,49.5 461.5,49.5C 461.5,43.8333 461.5,38.1667 461.5,32.5 Z"/></g>
<g><path style="opacity:0.944" fill="#000000" d="M 511.5,32.5 C 511.5,38.1667 511.5,43.8333 511.5,49.5C 505.833,49.5 500.167,49.5 494.5,49.5C 494.5,43.8333 494.5,38.1667 494.5,32.5C 500.167,32.5 505.833,32.5 511.5,32.5 Z"/></g>
<g><path style="opacity:1" fill="#060402" d="M 280.5,71.5 C 279.521,74.6248 279.187,77.9581 279.5,81.5C 274.5,81.5 269.5,81.5 264.5,81.5C 264.5,76.8333 264.5,72.1667 264.5,67.5C 268.957,46.3794 281.957,34.7128 303.5,32.5C 325.955,33.4771 340.122,44.8104 346,66.5C 347.733,87.5439 339.233,102.711 320.5,112C 318.26,112.977 315.927,113.477 313.5,113.5C 313.5,119.5 313.5,125.5 313.5,131.5C 307.833,131.5 302.167,131.5 296.5,131.5C 296.5,120.5 296.5,109.5 296.5,98.5C 312.718,101.075 323.551,94.7418 329,79.5C 330.181,57.35 319.681,47.5166 297.5,50C 287.402,53.711 281.735,60.8777 280.5,71.5 Z"/></g>
<g><path style="opacity:0.944" fill="#000000" d="M 461.5,65.5 C 467.167,65.5 472.833,65.5 478.5,65.5C 478.5,71.1667 478.5,76.8333 478.5,82.5C 472.833,82.5 467.167,82.5 461.5,82.5C 461.5,76.8333 461.5,71.1667 461.5,65.5 Z"/></g>
<g><path style="opacity:0.944" fill="#000000" d="M 511.5,65.5 C 511.5,71.1667 511.5,76.8333 511.5,82.5C 505.833,82.5 500.167,82.5 494.5,82.5C 494.5,76.8333 494.5,71.1667 494.5,65.5C 500.167,65.5 505.833,65.5 511.5,65.5 Z"/></g>
<g><path style="opacity:1" fill="#574a27" d="M 264.5,67.5 C 264.5,72.1667 264.5,76.8333 264.5,81.5C 269.5,81.5 274.5,81.5 279.5,81.5C 279.187,77.9581 279.521,74.6248 280.5,71.5C 280.5,75.1667 280.5,78.8333 280.5,82.5C 274.833,82.5 269.167,82.5 263.5,82.5C 263.179,77.3054 263.513,72.3054 264.5,67.5 Z"/></g>
<g><path style="opacity:1" fill="#eb7183" d="M 404.5,80.5 C 424.762,99.0942 444.429,118.428 463.5,138.5C 443.58,155.924 440.413,175.924 454,198.5C 464.938,211.204 478.771,216.537 495.5,214.5C 495.5,241.833 495.5,269.167 495.5,296.5C 466.833,294.681 450.167,307.848 445.5,336C 445.86,350.552 451.693,362.386 463,371.5C 463.667,372.167 463.667,372.833 463,373.5C 443.986,392.681 424.82,411.681 405.5,430.5C 398.1,421.605 388.767,415.772 377.5,413C 352.713,411.476 336.88,422.643 330,446.5C 329.501,451.823 329.334,457.156 329.5,462.5C 318.5,462.5 307.5,462.5 296.5,462.5C 294.817,443.944 288.151,427.444 276.5,413C 345.951,413.878 397.118,384.044 430,323.5C 454.818,266.965 449.818,213.298 415,162.5C 406.024,151.357 396.191,141.024 385.5,131.5C 392.468,118.042 396.134,103.709 396.5,88.5C 399.521,86.1456 402.188,83.4789 404.5,80.5 Z"/></g>
<g><path style="opacity:1" fill="#b07745" d="M 258.5,179.5 C 230.672,180.498 202.672,180.831 174.5,180.5C 150.488,175.987 136.321,161.654 132,137.5C 131.5,130.174 131.334,122.841 131.5,115.5C 126.167,115.5 120.833,115.5 115.5,115.5C 113.473,132.342 116.14,148.342 123.5,163.5C 107.726,162.556 92.7256,165.389 78.5,172C 62.6526,181.683 52.986,195.683 49.5,214C 39.81,213.683 30.4767,215.183 21.5,218.5C 18.7392,195.898 17.2392,173.231 17,150.5C 23.4942,125.181 39.6609,110.848 65.5,107.5C 65.5,115.5 65.5,123.5 65.5,131.5C 71.1667,131.5 76.8333,131.5 82.5,131.5C 82.3334,118.496 82.5001,105.496 83,92.5C 84.8333,88 88,84.8333 92.5,83C 133.165,82.5 173.832,82.3333 214.5,82.5C 212.994,107.145 219.994,128.979 235.5,148C 215.102,148.964 194.769,148.631 174.5,147C 171,144.833 168.167,142 166,138.5C 164.644,130.905 164.144,123.238 164.5,115.5C 159.167,115.5 153.833,115.5 148.5,115.5C 144.512,133.031 149.179,147.531 162.5,159C 166.048,160.941 169.714,162.607 173.5,164C 198.5,164.333 223.5,164.667 248.5,165C 252.717,169.282 256.05,174.116 258.5,179.5 Z"/></g>
<g><path style="opacity:1" fill="#e85363" d="M 375.5,146.5 C 388.904,155.739 399.738,167.406 408,181.5C 431.22,221.694 434.887,263.694 419,307.5C 399.227,352.6 365.394,381.1 317.5,393C 299.555,395.903 281.555,396.236 263.5,394C 257.222,393.025 251.222,391.191 245.5,388.5C 244.167,387.833 244.167,387.167 245.5,386.5C 251.537,383.15 257.537,379.817 263.5,376.5C 321.638,385.507 366.138,365.174 397,315.5C 424.75,255.815 414.583,203.648 366.5,159C 369.381,154.733 372.381,150.566 375.5,146.5 Z"/></g>
<g><path style="opacity:1" fill="#0a0804" d="M 296.5,148.5 C 302.167,148.5 307.833,148.5 313.5,148.5C 313.5,153.833 313.5,159.167 313.5,164.5C 307.833,164.5 302.167,164.5 296.5,164.5C 296.5,159.167 296.5,153.833 296.5,148.5 Z"/></g>
<g><path style="opacity:1" fill="#75502e" d="M 258.5,179.5 C 259.043,179.56 259.376,179.893 259.5,180.5C 231.003,181.829 202.67,181.829 174.5,180.5C 202.672,180.831 230.672,180.498 258.5,179.5 Z"/></g>
<g><path style="opacity:1" fill="#eeceb3" d="M 262.5,198.5 C 263.143,208.265 263.81,217.932 264.5,227.5C 265.658,238.653 270.658,247.653 279.5,254.5C 280.93,275.863 280.764,297.196 279,318.5C 270.834,352.841 249.334,373.007 214.5,379C 186.167,379.667 157.833,379.667 129.5,379C 92.9666,371.467 71.8,349.301 66,312.5C 65.3333,279.833 65.3333,247.167 66,214.5C 70.0979,197.478 80.5979,186.644 97.5,182C 111.167,181.333 124.833,181.333 138.5,182C 148.103,189.966 159.103,194.966 171.5,197C 201.875,197.182 232.209,197.682 262.5,198.5 Z"/></g>
<g><path style="opacity:1" fill="#828f9a" d="M 280.5,198.5 C 296.833,198.5 313.167,198.5 329.5,198.5C 329.5,203.5 329.5,208.5 329.5,213.5C 313.167,213.5 296.833,213.5 280.5,213.5C 280.5,208.5 280.5,203.5 280.5,198.5 Z"/></g>
<g><path style="opacity:1" fill="#413831" d="M 262.5,198.5 C 264.473,207.775 265.14,217.442 264.5,227.5C 263.81,217.932 263.143,208.265 262.5,198.5 Z"/></g>
<g><path style="opacity:1" fill="#5c656d" d="M 280.5,198.5 C 296.992,197.503 313.658,197.17 330.5,197.5C 330.5,203.167 330.5,208.833 330.5,214.5C 313.658,214.83 296.992,214.497 280.5,213.5C 296.833,213.5 313.167,213.5 329.5,213.5C 329.5,208.5 329.5,203.5 329.5,198.5C 313.167,198.5 296.833,198.5 280.5,198.5 Z"/></g>
<g><path style="opacity:1" fill="#eeceb2" d="M 35.5,231.5 C 39.8333,231.5 44.1667,231.5 48.5,231.5C 48.5,247.5 48.5,263.5 48.5,279.5C 44.1667,279.5 39.8333,279.5 35.5,279.5C 19.9897,274.443 13.823,263.776 17,247.5C 20.5786,239.083 26.7453,233.749 35.5,231.5 Z"/></g>
<g><path style="opacity:1" fill="#8f7b6b" d="M 35.5,231.5 C 39.97,230.514 44.6367,230.181 49.5,230.5C 49.5,247.167 49.5,263.833 49.5,280.5C 44.6367,280.819 39.97,280.486 35.5,279.5C 39.8333,279.5 44.1667,279.5 48.5,279.5C 48.5,263.5 48.5,247.5 48.5,231.5C 44.1667,231.5 39.8333,231.5 35.5,231.5 Z"/></g>
<g><path style="opacity:1" fill="#060504" d="M 98.5,230.5 C 104.167,230.5 109.833,230.5 115.5,230.5C 115.926,240.428 121.093,246.095 131,247.5C 141.278,246.388 147.111,240.722 148.5,230.5C 153.833,230.5 159.167,230.5 164.5,230.5C 163.461,247.378 154.794,258.211 138.5,263C 114.861,264.862 101.528,254.029 98.5,230.5 Z"/></g>
<g><path style="opacity:1" fill="#060504" d="M 181.5,230.5 C 186.833,230.5 192.167,230.5 197.5,230.5C 199.713,243.892 207.379,249.059 220.5,246C 226.98,242.877 230.313,237.71 230.5,230.5C 236.167,230.5 241.833,230.5 247.5,230.5C 245.374,250.793 234.208,261.793 214,263.5C 193.621,261.954 182.788,250.954 181.5,230.5 Z"/></g>
<g><path style="opacity:1" fill="#7e8995" d="M 282.5,230.5 C 297.837,230.333 313.17,230.5 328.5,231C 319.146,247.674 306.146,251.341 289.5,242C 285.996,238.816 283.663,234.982 282.5,230.5 Z"/></g>
<g><path style="opacity:1" fill="#ebccb0" d="M 308.5,279.5 C 304.833,279.5 301.167,279.5 297.5,279.5C 296.887,273.729 297.554,268.396 299.5,263.5C 309.908,264.253 319.574,261.92 328.5,256.5C 328.379,269.634 321.712,277.301 308.5,279.5 Z"/></g>
<g><path style="opacity:1" fill="#a38e7b" d="M 299.5,263.5 C 297.554,268.396 296.887,273.729 297.5,279.5C 301.167,279.5 304.833,279.5 308.5,279.5C 304.702,280.483 300.702,280.817 296.5,280.5C 296.5,274.5 296.5,268.5 296.5,262.5C 297.791,262.263 298.791,262.596 299.5,263.5 Z"/></g>
<g><path style="opacity:1" fill="#050404" d="M 181.5,313.5 C 192.5,313.5 203.5,313.5 214.5,313.5C 214.5,318.833 214.5,324.167 214.5,329.5C 202.049,328.917 189.716,329.751 177.5,332C 164.71,337.051 154.71,345.385 147.5,357C 142.116,355.981 137.116,353.814 132.5,350.5C 143.422,330.901 159.755,318.568 181.5,313.5 Z"/></g>
<g><path style="opacity:1" fill="#607744" d="M 131.5,396.5 C 138.344,395.181 145.344,395.181 152.5,396.5C 152.376,397.107 152.043,397.44 151.5,397.5C 145.021,396.509 138.354,396.176 131.5,396.5 Z"/></g>
<g><path style="opacity:1" fill="#677f48" d="M 211.5,396.5 C 205.642,396.178 199.975,396.511 194.5,397.5C 193.957,397.44 193.624,397.107 193.5,396.5C 199.654,395.183 205.654,395.183 211.5,396.5 Z"/></g>
<g><path style="opacity:1" fill="#b1d97d" d="M 131.5,396.5 C 138.354,396.176 145.021,396.509 151.5,397.5C 145.52,403.145 139.52,408.812 133.5,414.5C 129.8,409.608 126.467,404.442 123.5,399C 123.905,398.055 124.572,397.388 125.5,397C 127.473,396.505 129.473,396.338 131.5,396.5 Z"/></g>
<g><path style="opacity:1" fill="#abd279" d="M 211.5,396.5 C 215.215,396.423 218.881,396.756 222.5,397.5C 219.718,403.725 216.384,409.725 212.5,415.5C 206.146,409.812 200.146,403.812 194.5,397.5C 199.975,396.511 205.642,396.178 211.5,396.5 Z"/></g>
<g><path style="opacity:1" fill="#ea7082" d="M 172.5,399.5 C 177.01,403.177 181.01,407.343 184.5,412C 182.136,417.228 179.636,422.394 177,427.5C 174.333,428.833 171.667,428.833 169,427.5C 166.364,422.394 163.864,417.228 161.5,412C 164.99,407.677 168.657,403.51 172.5,399.5 Z"/></g>
<g><path style="opacity:1" fill="#b1da7d" d="M 104.5,404.5 C 105.822,404.33 106.989,404.663 108,405.5C 115.167,417.333 122.333,429.167 129.5,441C 130.167,441.667 130.833,441.667 131.5,441C 137.015,435.318 142.681,429.818 148.5,424.5C 152.695,429.867 154.862,435.867 155,442.5C 150.667,459.833 146.333,477.167 142,494.5C 116.574,495.495 91.0745,495.828 65.5,495.5C 61.3066,469.62 66.4732,445.953 81,424.5C 87.8499,416.468 95.6832,409.801 104.5,404.5 Z"/></g>
<g><path style="opacity:1" fill="#b1da7d" d="M 238.5,404.5 C 261.931,415.802 275.765,434.468 280,460.5C 280.5,472.162 280.667,483.829 280.5,495.5C 254.926,495.828 229.426,495.495 204,494.5C 199.824,476.796 195.491,459.13 191,441.5C 190.909,435.008 193.076,429.341 197.5,424.5C 203.319,429.818 208.985,435.318 214.5,441C 215.167,441.667 215.833,441.667 216.5,441C 223.719,428.723 231.052,416.556 238.5,404.5 Z"/></g>
<g><path style="opacity:1" fill="#e76f80" d="M 186.5,493.5 C 182.18,494.166 177.68,494.499 173,494.5C 168.114,494.493 163.614,493.826 159.5,492.5C 163.009,476.799 166.675,461.132 170.5,445.5C 172.167,445.5 173.833,445.5 175.5,445.5C 179.167,461.5 182.833,477.5 186.5,493.5 Z"/></g>
<g><path style="opacity:1" fill="#6c343c" d="M 159.5,492.5 C 163.614,493.826 168.114,494.493 173,494.5C 177.68,494.499 182.18,494.166 186.5,493.5C 187.043,493.56 187.376,493.893 187.5,494.5C 177.856,495.498 168.19,495.832 158.5,495.5C 158.263,494.209 158.596,493.209 159.5,492.5 Z"/></g>
</svg>
