<?xml version="1.0" encoding="UTF-8"?>
<!DOCTYPE svg PUBLIC "-//W3C//DTD SVG 1.1//EN" "http://www.w3.org/Graphics/SVG/1.1/DTD/svg11.dtd">
<svg xmlns="http://www.w3.org/2000/svg" version="1.1" width="512px" height="512px" style="shape-rendering:geometricPrecision; text-rendering:geometricPrecision; image-rendering:optimizeQuality; fill-rule:evenodd; clip-rule:evenodd" xmlns:xlink="http://www.w3.org/1999/xlink">
<g><path style="opacity:0.995" fill="#000000" d="M 421.5,51.5 C 421.513,55.6501 419.513,58.1501 415.5,59C 386.167,59.6667 356.833,59.6667 327.5,59C 319.197,51.6978 311.197,44.0311 303.5,36C 299.055,33.4433 294.389,31.4433 289.5,30C 253.5,29.3333 217.5,29.3333 181.5,30C 173.333,32.8333 167.833,38.3333 165,46.5C 164.5,65.8305 164.333,85.1638 164.5,104.5C 169.5,104.5 174.5,104.5 179.5,104.5C 179.334,96.16 179.5,87.8267 180,79.5C 180.833,77.3333 182.333,75.8333 184.5,75C 280.499,74.5 376.499,74.3333 472.5,74.5C 480.846,74.6156 488.513,76.9489 495.5,81.5C 496.04,71.8211 491.707,64.9877 482.5,61C 476.593,59.6392 470.593,59.1392 464.5,59.5C 456.826,59.6664 449.159,59.4997 441.5,59C 438.211,57.5897 436.544,55.0897 436.5,51.5C 436.081,48.6755 437.081,46.5088 439.5,45C 455.221,44.0633 470.888,44.3967 486.5,46C 499.28,51.273 507.613,60.4396 511.5,73.5C 511.5,144.833 511.5,216.167 511.5,287.5C 507.015,302.15 497.349,311.65 482.5,316C 467.17,316.5 451.837,316.667 436.5,316.5C 436.667,336.836 436.5,357.169 436,377.5C 431.833,392.333 422.333,401.833 407.5,406C 392.17,406.5 376.837,406.667 361.5,406.5C 361.667,426.836 361.5,447.169 361,467.5C 356.833,482.333 347.333,491.833 332.5,496C 318.167,496.667 303.833,496.667 289.5,496C 287.081,494.491 286.081,492.325 286.5,489.5C 286.544,485.91 288.211,483.41 291.5,482C 299.159,481.5 306.826,481.334 314.5,481.5C 329.698,484.18 340.198,478.513 346,464.5C 346.667,405.167 346.667,345.833 346,286.5C 342.346,275.673 334.846,270.006 323.5,269.5C 273.166,269.333 222.832,269.5 172.5,270C 168.271,271.115 164.271,272.781 160.5,275C 152.197,282.302 144.197,289.969 136.5,298C 135.5,298.333 134.5,298.667 133.5,299C 99.5,299.333 65.5,299.667 31.5,300C 23.3333,302.833 17.8333,308.333 15,316.5C 14.3333,365.833 14.3333,415.167 15,464.5C 17.8333,472.667 23.3333,478.167 31.5,481C 109.833,481.333 188.167,481.667 266.5,482C 269.789,483.41 271.456,485.91 271.5,489.5C 271.919,492.325 270.919,494.491 268.5,496C 188.5,496.667 108.5,496.667 28.5,496C 13.6512,491.65 3.98451,482.15 -0.5,467.5C -0.5,386.167 -0.5,304.833 -0.5,223.5C 3.98451,208.85 13.6512,199.35 28.5,195C 43.8297,194.5 59.163,194.333 74.5,194.5C 74.3334,174.164 74.5,153.831 75,133.5C 79.1667,118.667 88.6667,109.167 103.5,105C 118.83,104.5 134.163,104.333 149.5,104.5C 149.044,82.7801 149.544,61.1134 151,39.5C 156.097,26.7349 165.264,18.5683 178.5,15C 216.5,14.3333 254.5,14.3333 292.5,15C 300.101,16.6346 307.101,19.6346 313.5,24C 320.803,30.3016 327.803,36.9683 334.5,44C 362.5,44.3333 390.5,44.6667 418.5,45C 420.919,46.5088 421.919,48.6755 421.5,51.5 Z"/></g>
<g><path style="opacity:0.999" fill="#fd5d48" d="M 421.5,51.5 C 426.5,51.5 431.5,51.5 436.5,51.5C 436.544,55.0897 438.211,57.5897 441.5,59C 449.159,59.4997 456.826,59.6664 464.5,59.5C 468.472,63.7756 471.139,68.7756 472.5,74.5C 376.499,74.3333 280.499,74.5 184.5,75C 182.333,75.8333 180.833,77.3333 180,79.5C 179.5,87.8267 179.334,96.16 179.5,104.5C 174.5,104.5 169.5,104.5 164.5,104.5C 164.333,85.1638 164.5,65.8305 165,46.5C 167.833,38.3333 173.333,32.8333 181.5,30C 217.5,29.3333 253.5,29.3333 289.5,30C 294.389,31.4433 299.055,33.4433 303.5,36C 311.197,44.0311 319.197,51.6978 327.5,59C 356.833,59.6667 386.167,59.6667 415.5,59C 419.513,58.1501 421.513,55.6501 421.5,51.5 Z"/></g>
<g><path style="opacity:1" fill="#f3332c" d="M 464.5,59.5 C 470.593,59.1392 476.593,59.6392 482.5,61C 491.707,64.9877 496.04,71.8211 495.5,81.5C 488.513,76.9489 480.846,74.6156 472.5,74.5C 471.139,68.7756 468.472,63.7756 464.5,59.5 Z"/></g>
<g><path style="opacity:1" fill="#fefefe" d="M 194.5,89.5 C 251.501,89.3333 308.501,89.5 365.5,90C 360.833,94.6667 356.167,99.3333 351.5,104C 299.168,104.5 246.834,104.667 194.5,104.5C 194.5,99.5 194.5,94.5 194.5,89.5 Z"/></g>
<g><path style="opacity:1" fill="#fd8465" d="M 474.5,89.5 C 474.667,153.834 474.5,218.168 474,282.5C 472.407,289.687 469.24,296.02 464.5,301.5C 455.167,301.5 445.833,301.5 436.5,301.5C 436.667,255.832 436.5,210.165 436,164.5C 431.18,148.012 420.346,138.178 403.5,135C 355.167,134.667 306.833,134.333 258.5,134C 253.833,129.333 249.167,124.667 244.5,120C 281.5,119.667 318.5,119.333 355.5,119C 364.1,112.404 372.1,105.07 379.5,97C 384.118,93.8575 389.118,91.5242 394.5,90C 421.165,89.5 447.831,89.3334 474.5,89.5 Z"/></g>
<g><path style="opacity:1" fill="#fd5d48" d="M 474.5,89.5 C 485.316,90.4766 492.483,96.1433 496,106.5C 496.667,165.833 496.667,225.167 496,284.5C 490.198,298.513 479.698,304.18 464.5,301.5C 469.24,296.02 472.407,289.687 474,282.5C 474.5,218.168 474.667,153.834 474.5,89.5 Z"/></g>
<g><path style="opacity:1" fill="#fada62" d="M 389.5,149.5 C 393.495,153.824 396.161,158.824 397.5,164.5C 301.499,164.333 205.499,164.5 109.5,165C 107.333,165.833 105.833,167.333 105,169.5C 104.5,177.827 104.334,186.16 104.5,194.5C 99.5,194.5 94.5,194.5 89.5,194.5C 89.3334,175.164 89.5,155.83 90,136.5C 92.8333,128.333 98.3333,122.833 106.5,120C 142.5,119.333 178.5,119.333 214.5,120C 219.389,121.443 224.055,123.443 228.5,126C 236.197,134.031 244.197,141.698 252.5,149C 298.165,149.5 343.832,149.667 389.5,149.5 Z"/></g>
<g><path style="opacity:1" fill="#f5b961" d="M 389.5,149.5 C 404.698,146.82 415.198,152.487 421,166.5C 421.798,168.259 421.631,169.926 420.5,171.5C 413.513,166.949 405.846,164.616 397.5,164.5C 396.161,158.824 393.495,153.824 389.5,149.5 Z"/></g>
<g><path style="opacity:1" fill="#fefefe" d="M 119.5,179.5 C 176.501,179.333 233.501,179.5 290.5,180C 285.833,184.667 281.167,189.333 276.5,194C 224.168,194.5 171.834,194.667 119.5,194.5C 119.5,189.5 119.5,184.5 119.5,179.5 Z"/></g>
<g><path style="opacity:1" fill="#fdf67c" d="M 399.5,179.5 C 399.667,243.834 399.5,308.168 399,372.5C 397.407,379.687 394.24,386.02 389.5,391.5C 380.167,391.5 370.833,391.5 361.5,391.5C 361.667,345.832 361.5,300.165 361,254.5C 356.18,238.012 345.346,228.178 328.5,225C 280.167,224.667 231.833,224.333 183.5,224C 178.833,219.333 174.167,214.667 169.5,210C 206.5,209.667 243.5,209.333 280.5,209C 289.1,202.404 297.1,195.07 304.5,187C 309.118,183.858 314.118,181.524 319.5,180C 346.165,179.5 372.831,179.333 399.5,179.5 Z"/></g>
<g><path style="opacity:1" fill="#fada62" d="M 399.5,179.5 C 410.316,180.477 417.483,186.143 421,196.5C 421.667,255.833 421.667,315.167 421,374.5C 415.198,388.513 404.698,394.18 389.5,391.5C 394.24,386.02 397.407,379.687 399,372.5C 399.5,308.168 399.667,243.834 399.5,179.5 Z"/></g>
<g><path style="opacity:1" fill="#7c98e7" d="M 314.5,239.5 C 318.487,243.808 321.154,248.808 322.5,254.5C 226.499,254.333 130.499,254.5 34.5,255C 32.3333,255.833 30.8333,257.333 30,259.5C 29.8319,268.186 29.3319,276.852 28.5,285.5C 23.7868,286.69 19.4535,288.69 15.5,291.5C 14.3336,269.841 14.1669,248.174 15,226.5C 17.8333,218.333 23.3333,212.833 31.5,210C 67.5,209.333 103.5,209.333 139.5,210C 144.882,211.524 149.882,213.858 154.5,217C 161.864,224.698 169.53,232.031 177.5,239C 223.165,239.5 268.832,239.667 314.5,239.5 Z"/></g>
<g><path style="opacity:1" fill="#6a79d1" d="M 314.5,239.5 C 329.698,236.82 340.198,242.487 346,256.5C 346.798,258.259 346.631,259.926 345.5,261.5C 338.556,256.847 330.889,254.513 322.5,254.5C 321.154,248.808 318.487,243.808 314.5,239.5 Z"/></g>
<g><path style="opacity:1" fill="#fefefe" d="M 44.5,269.5 C 77.5017,269.333 110.502,269.5 143.5,270C 138.833,274.667 134.167,279.333 129.5,284C 101.169,284.5 72.8353,284.667 44.5,284.5C 44.5,279.5 44.5,274.5 44.5,269.5 Z"/></g>
<g><path style="opacity:1" fill="#82b2f0" d="M 323.5,269.5 C 323.667,334.834 323.5,400.168 323,465.5C 321.476,471.548 318.643,476.881 314.5,481.5C 306.826,481.334 299.159,481.5 291.5,482C 288.211,483.41 286.544,485.91 286.5,489.5C 281.5,489.5 276.5,489.5 271.5,489.5C 271.456,485.91 269.789,483.41 266.5,482C 188.167,481.667 109.833,481.333 31.5,481C 23.3333,478.167 17.8333,472.667 15,464.5C 14.3333,415.167 14.3333,365.833 15,316.5C 17.8333,308.333 23.3333,302.833 31.5,300C 65.5,299.667 99.5,299.333 133.5,299C 134.5,298.667 135.5,298.333 136.5,298C 144.197,289.969 152.197,282.302 160.5,275C 164.271,272.781 168.271,271.115 172.5,270C 222.832,269.5 273.166,269.333 323.5,269.5 Z"/></g>
<g><path style="opacity:1" fill="#7c99e7" d="M 323.5,269.5 C 334.846,270.006 342.346,275.673 346,286.5C 346.667,345.833 346.667,405.167 346,464.5C 340.198,478.513 329.698,484.18 314.5,481.5C 318.643,476.881 321.476,471.548 323,465.5C 323.5,400.168 323.667,334.834 323.5,269.5 Z"/></g>
</svg>
