<?xml version="1.0" encoding="UTF-8"?>
<!DOCTYPE svg PUBLIC "-//W3C//DTD SVG 1.1//EN" "http://www.w3.org/Graphics/SVG/1.1/DTD/svg11.dtd">
<svg xmlns="http://www.w3.org/2000/svg" version="1.1" width="512px" height="512px" style="shape-rendering:geometricPrecision; text-rendering:geometricPrecision; image-rendering:optimizeQuality; fill-rule:evenodd; clip-rule:evenodd" xmlns:xlink="http://www.w3.org/1999/xlink">
<g><path style="opacity:0.973" fill="#020101" d="M 285.5,-0.5 C 288.167,-0.5 290.833,-0.5 293.5,-0.5C 318.105,23.6046 342.605,47.9379 367,72.5C 375.895,87.0654 375.562,101.399 366,115.5C 363.292,119.104 359.792,121.604 355.5,123C 333.432,119.794 316.265,127.294 304,145.5C 295.235,165.938 299.402,183.105 316.5,197C 342.398,209.145 362.232,202.645 376,177.5C 378.829,168.222 379.829,158.888 379,149.5C 383.258,137.595 391.758,130.762 404.5,129C 414.086,127.917 422.753,130.251 430.5,136C 454.333,159.833 478.167,183.667 502,207.5C 504.086,211.667 503.753,215.667 501,219.5C 447.833,272.667 394.667,325.833 341.5,379C 383.598,365.968 425.598,352.301 467.5,338C 488.978,332.571 503.645,340.071 511.5,360.5C 511.5,365.833 511.5,371.167 511.5,376.5C 508.7,385.154 503.367,391.987 495.5,397C 443.237,428.27 391.237,459.936 339.5,492C 330.033,498.045 319.7,501.712 308.5,503C 234.5,503.333 160.5,503.667 86.5,504C 83.1821,507.175 79.5154,509.675 75.5,511.5C 56.1667,511.5 36.8333,511.5 17.5,511.5C 9.16667,507.833 3.16667,501.833 -0.5,493.5C -0.5,428.833 -0.5,364.167 -0.5,299.5C 2.24829,290.917 7.91495,285.084 16.5,282C 35.1144,280.386 53.7811,280.052 72.5,281C 81.876,283.013 88.5427,288.346 92.5,297C 116.237,295.439 138.237,300.439 158.5,312C 128.639,282.472 99.1385,252.639 70,222.5C 69.2099,219.366 69.5432,216.366 71,213.5C 95.3333,189.167 119.667,164.833 144,140.5C 148.889,133.277 148.389,126.443 142.5,120C 108.633,123.162 86.4665,108.662 76,76.5C 71.7594,48.8229 81.2594,27.3229 104.5,12C 127.021,0.851275 148.687,2.18461 169.5,16C 186.56,31.1917 193.726,50.025 191,72.5C 197.101,77.25 203.601,77.75 210.5,74C 235.395,48.938 260.395,24.1046 285.5,-0.5 Z"/></g>
<g><path style="opacity:1" fill="#f34234" d="M 399.5,149.5 C 421.082,169.58 442.249,190.247 463,211.5C 463.667,212.5 463.667,213.5 463,214.5C 409.139,268.027 355.639,321.861 302.5,376C 301.906,376.464 301.239,376.631 300.5,376.5C 296.367,351.534 281.7,337.034 256.5,333C 238.833,332.667 221.167,332.333 203.5,332C 165.833,294.333 128.167,256.667 90.5,219C 113,196.5 135.5,174 158,151.5C 164.565,141.661 166.231,130.994 163,119.5C 160.211,111.745 155.044,106.245 147.5,103C 128.7,106.399 112.866,101.232 100,87.5C 88.7636,68.583 90.2636,50.7497 104.5,34C 126.106,16.4196 146.606,17.5863 166,37.5C 173.1,48.871 175.433,61.2043 173,74.5C 175.772,83.9388 181.939,90.1055 191.5,93C 202.718,95.6125 213.052,93.6125 222.5,87C 244.5,65 266.5,43 288.5,21C 289.167,20.3333 289.833,20.3333 290.5,21C 311.333,41.8333 332.167,62.6667 353,83.5C 358.084,91.5919 357.25,99.0919 350.5,106C 313.834,104.235 291.001,121.069 282,156.5C 280.214,189.459 295.048,210.625 326.5,220C 361.815,223.437 384.648,208.27 395,174.5C 396.04,166.869 396.706,159.202 397,151.5C 397.708,150.619 398.542,149.953 399.5,149.5 Z"/></g>
<g><path style="opacity:1" fill="#c51e1d" d="M 300.5,376.5 C 301.239,376.631 301.906,376.464 302.5,376C 355.639,321.861 409.139,268.027 463,214.5C 463.667,213.5 463.667,212.5 463,211.5C 442.249,190.247 421.082,169.58 399.5,149.5C 405.582,145.691 411.916,145.524 418.5,149C 439.833,170.333 461.167,191.667 482.5,213C 422.833,272.667 363.167,332.333 303.5,392C 301.741,392.798 300.074,392.631 298.5,391.5C 300.042,386.627 300.708,381.627 300.5,376.5 Z"/></g>
<g><path style="opacity:1" fill="#02a8f3" d="M 58.5,298.5 C 59.6558,362.138 59.8225,425.805 59,489.5C 58.6481,491.247 58.1481,492.914 57.5,494.5C 45.4954,494.667 33.4954,494.5 21.5,494C 19.6217,492.457 18.1217,490.624 17,488.5C 16.3333,426.833 16.3333,365.167 17,303.5C 17.8333,301.333 19.3333,299.833 21.5,299C 33.8288,298.5 46.1622,298.333 58.5,298.5 Z"/></g>
<g><path style="opacity:1" fill="#0275b9" d="M 58.5,298.5 C 62.8461,298.334 67.1794,298.501 71.5,299C 73.5524,299.93 75.0524,301.43 76,303.5C 76.6667,365.167 76.6667,426.833 76,488.5C 74.8333,491 73,492.833 70.5,494C 66.1794,494.499 61.8461,494.666 57.5,494.5C 58.1481,492.914 58.6481,491.247 59,489.5C 59.8225,425.805 59.6558,362.138 58.5,298.5 Z"/></g>
<g><path style="opacity:1" fill="#fedfb1" d="M 260.5,351.5 C 268.317,363.647 268.484,375.98 261,388.5C 260.167,389.333 259.333,390.167 258.5,391C 245.66,391.169 232.993,391.669 220.5,392.5C 201.622,393.957 185.122,400.957 171,413.5C 169.059,420.393 171.559,424.726 178.5,426.5C 186.13,422.35 193.796,418.184 201.5,414C 205.773,412.465 210.106,411.131 214.5,410C 245.833,409.667 277.167,409.333 308.5,409C 363.945,391.129 419.278,372.963 474.5,354.5C 475.5,354.5 476.5,354.5 477.5,354.5C 478.44,364.448 475.107,372.614 467.5,379C 415,410.749 362.666,442.749 310.5,475C 302.771,479.37 294.771,482.87 286.5,485.5C 222.167,485.5 157.833,485.5 93.5,485.5C 93.5,428.833 93.5,372.167 93.5,315.5C 108.272,314.209 122.605,316.043 136.5,321C 146.767,326.938 156.767,333.272 166.5,340C 173.868,343.517 181.534,346.183 189.5,348C 211.804,349.243 234.138,349.909 256.5,350C 258.058,350.21 259.391,350.71 260.5,351.5 Z"/></g>
<g><path style="opacity:1" fill="#d5bb95" d="M 260.5,351.5 C 271.254,354.416 278.754,361.083 283,371.5C 284.356,378.576 283.356,385.243 280,391.5C 260.243,392.493 240.409,392.826 220.5,392.5C 232.993,391.669 245.66,391.169 258.5,391C 259.333,390.167 260.167,389.333 261,388.5C 268.484,375.98 268.317,363.647 260.5,351.5 Z"/></g>
<g><path style="opacity:1" fill="#dcc19a" d="M 474.5,354.5 C 487.856,352.114 494.356,357.781 494,371.5C 493.036,375.468 490.869,378.635 487.5,381C 434.5,413.333 381.5,445.667 328.5,478C 315.394,485.022 301.394,487.522 286.5,485.5C 294.771,482.87 302.771,479.37 310.5,475C 362.666,442.749 415,410.749 467.5,379C 475.107,372.614 478.44,364.448 477.5,354.5C 476.5,354.5 475.5,354.5 474.5,354.5 Z"/></g>
</svg>
