<?xml version="1.0" encoding="UTF-8"?>
<!DOCTYPE svg PUBLIC "-//W3C//DTD SVG 1.1//EN" "http://www.w3.org/Graphics/SVG/1.1/DTD/svg11.dtd">
<svg xmlns="http://www.w3.org/2000/svg" version="1.1" width="512px" height="512px" style="shape-rendering:geometricPrecision; text-rendering:geometricPrecision; image-rendering:optimizeQuality; fill-rule:evenodd; clip-rule:evenodd" xmlns:xlink="http://www.w3.org/1999/xlink">
<g><path style="opacity:0.996" fill="#000000" d="M 107.5,7.5 C 206.167,7.33334 304.834,7.5 403.5,8C 405.333,8.5 406.5,9.66667 407,11.5C 407.5,36.8311 407.667,62.1645 407.5,87.5C 430.553,87.0416 453.553,87.5416 476.5,89C 490.606,94.1058 499.44,103.939 503,118.5C 503.667,236.5 503.667,354.5 503,472.5C 498.833,488.667 488.667,498.833 472.5,503C 326.457,503.994 180.457,503.66 34.5,502C 20.3937,496.894 11.5604,487.061 8,472.5C 7.33333,386.167 7.33333,299.833 8,213.5C 12.2373,196.262 22.5706,184.262 39,177.5C 39.0297,161.408 39.6963,145.408 41,129.5C 61.9577,112.878 82.6243,95.8777 103,78.5C 103.333,56.1667 103.667,33.8333 104,11.5C 104.69,9.64977 105.856,8.31643 107.5,7.5 Z"/></g>
<g><path style="opacity:1" fill="#c0cee7" d="M 119.5,23.5 C 210.167,23.5 300.833,23.5 391.5,23.5C 391.5,92.8333 391.5,162.167 391.5,231.5C 370.167,231.5 348.833,231.5 327.5,231.5C 327.5,226.167 327.5,220.833 327.5,215.5C 340.833,215.5 354.167,215.5 367.5,215.5C 367.5,210.167 367.5,204.833 367.5,199.5C 354.167,199.5 340.833,199.5 327.5,199.5C 327.5,194.167 327.5,188.833 327.5,183.5C 340.833,183.5 354.167,183.5 367.5,183.5C 367.5,178.167 367.5,172.833 367.5,167.5C 354.167,167.5 340.833,167.5 327.5,167.5C 327.5,162.167 327.5,156.833 327.5,151.5C 340.833,151.5 354.167,151.5 367.5,151.5C 367.5,146.167 367.5,140.833 367.5,135.5C 354.167,135.5 340.833,135.5 327.5,135.5C 327.5,130.167 327.5,124.833 327.5,119.5C 340.833,119.5 354.167,119.5 367.5,119.5C 367.5,114.167 367.5,108.833 367.5,103.5C 354.167,103.5 340.833,103.5 327.5,103.5C 327.667,89.1628 327.5,74.8295 327,60.5C 326.535,59.0692 325.701,57.9025 324.5,57C 260.558,55.3442 196.558,55.0109 132.5,56C 128.318,58.9259 124.318,62.0925 120.5,65.5C 119.501,51.5159 119.167,37.5159 119.5,23.5 Z"/></g>
<g><path style="opacity:1" fill="#e3e9f3" d="M 143.5,71.5 C 199.5,71.5 255.5,71.5 311.5,71.5C 311.5,124.833 311.5,178.167 311.5,231.5C 304.825,231.666 298.158,231.5 291.5,231C 287.333,229.5 284.5,226.667 283,222.5C 280.209,210.877 276.543,199.544 272,188.5C 267.038,181.936 260.538,177.769 252.5,176C 186.834,175.5 121.168,175.333 55.5,175.5C 55.5,164.833 55.5,154.167 55.5,143.5C 83.897,143.975 112.23,143.475 140.5,142C 141.893,140.829 142.727,139.329 143,137.5C 143.5,115.503 143.667,93.5025 143.5,71.5 Z"/></g>
<g><path style="opacity:1" fill="#93adcf" d="M 126.5,80.5 C 127.496,95.9911 127.83,111.658 127.5,127.5C 108.497,127.667 89.4971,127.5 70.5,127C 89.3566,111.636 108.023,96.1356 126.5,80.5 Z"/></g>
<g><path style="opacity:1" fill="#067aa2" d="M 443.5,103.5 C 463.397,115.598 475.23,133.265 479,156.5C 479.667,255.5 479.667,354.5 479,453.5C 474.574,470.134 463.741,478.801 446.5,479.5C 443.379,476.862 441.212,473.528 440,469.5C 439.667,400.833 439.333,332.167 439,263.5C 434.703,247.37 424.536,237.037 408.5,232.5C 407.5,189.505 407.167,146.505 407.5,103.5C 419.5,103.5 431.5,103.5 443.5,103.5 Z"/></g>
<g><path style="opacity:1" fill="#0672a2" d="M 443.5,103.5 C 451.84,103.334 460.173,103.5 468.5,104C 477.573,106.739 483.74,112.573 487,121.5C 487.667,237.5 487.667,353.5 487,469.5C 481.975,483.43 472.141,489.263 457.5,487C 453.107,485.477 449.44,482.977 446.5,479.5C 463.741,478.801 474.574,470.134 479,453.5C 479.667,354.5 479.667,255.5 479,156.5C 475.23,133.265 463.397,115.598 443.5,103.5 Z"/></g>
<g><path style="opacity:1" fill="#000000" d="M 191.5,111.5 C 223.5,111.5 255.5,111.5 287.5,111.5C 287.5,116.833 287.5,122.167 287.5,127.5C 255.5,127.5 223.5,127.5 191.5,127.5C 191.5,122.167 191.5,116.833 191.5,111.5 Z"/></g>
<g><path style="opacity:1" fill="#000000" d="M 159.5,143.5 C 202.167,143.5 244.833,143.5 287.5,143.5C 287.5,148.833 287.5,154.167 287.5,159.5C 244.833,159.5 202.167,159.5 159.5,159.5C 159.5,154.167 159.5,148.833 159.5,143.5 Z"/></g>
<g><path style="opacity:1" fill="#42b5e4" d="M 423.5,468.5 C 423.5,469.5 423.5,470.5 423.5,471.5C 303.833,471.667 184.166,471.5 64.5,471C 51.2315,467.398 43.0649,458.898 40,445.5C 39.5,362.501 39.3333,279.501 39.5,196.5C 41.9647,194.163 44.9647,192.663 48.5,192C 116.167,191.333 183.833,191.333 251.5,192C 255.667,193.5 258.5,196.333 260,200.5C 263.069,212.041 266.736,223.374 271,234.5C 274.97,239.475 279.803,243.309 285.5,246C 325.128,247.304 364.795,247.971 404.5,248C 413.573,250.739 419.74,256.573 423,265.5C 423.5,333.166 423.667,400.833 423.5,468.5 Z"/></g>
<g><path style="opacity:1" fill="#3592ce" d="M 39.5,196.5 C 39.3333,279.501 39.5,362.501 40,445.5C 43.0649,458.898 51.2315,467.398 64.5,471C 184.166,471.5 303.833,471.667 423.5,471.5C 423.5,470.5 423.5,469.5 423.5,468.5C 424.883,475.124 427.549,481.291 431.5,487C 301.5,487.667 171.5,487.667 41.5,487C 33,483.833 27.1667,478 24,469.5C 23.3333,385.167 23.3333,300.833 24,216.5C 25.279,211.275 27.6123,206.609 31,202.5C 33.2787,199.619 36.112,197.619 39.5,196.5 Z"/></g>
<g><path style="opacity:1" fill="#020101" d="M 145.5,239.5 C 193.144,236.739 229.977,255.072 256,294.5C 278.78,338.136 276.113,380.136 248,420.5C 215.723,457.591 175.557,470.424 127.5,459C 71.5704,438.019 45.0704,397.519 48,337.5C 58.6797,282.987 91.1797,250.321 145.5,239.5 Z"/></g>
<g><path style="opacity:1" fill="#e78128" d="M 149.5,258.5 C 151.48,270.455 152.146,282.788 151.5,295.5C 143.493,296.093 135.493,296.76 127.5,297.5C 130.682,282.026 138.016,269.026 149.5,258.5 Z"/></g>
<g><path style="opacity:1" fill="#e68028" d="M 167.5,258.5 C 169.255,259.072 170.922,259.906 172.5,261C 182.391,271.28 188.724,283.447 191.5,297.5C 183.525,296.724 175.525,296.39 167.5,296.5C 167.5,283.833 167.5,271.167 167.5,258.5 Z"/></g>
<g><path style="opacity:1" fill="#e68028" d="M 122.5,262.5 C 123.376,262.369 124.043,262.702 124.5,263.5C 117.562,275.044 112.562,287.377 109.5,300.5C 96.268,304.467 83.6013,309.8 71.5,316.5C 71.5297,313.535 72.363,310.535 74,307.5C 85.2634,287.065 101.43,272.065 122.5,262.5 Z"/></g>
<g><path style="opacity:1" fill="#e68028" d="M 193.5,261.5 C 219.11,272.11 237.443,290.11 248.5,315.5C 248.167,315.833 247.833,316.167 247.5,316.5C 235.899,309.743 223.566,304.743 210.5,301.5C 206.388,287.493 200.721,274.16 193.5,261.5 Z"/></g>
<g><path style="opacity:1" fill="#e78028" d="M 140.5,311.5 C 144.167,311.5 147.833,311.5 151.5,311.5C 151.5,322.167 151.5,332.833 151.5,343.5C 140.833,343.5 130.167,343.5 119.5,343.5C 119.696,333.741 120.696,324.074 122.5,314.5C 128.631,313.493 134.631,312.493 140.5,311.5 Z"/></g>
<g><path style="opacity:1" fill="#e88128" d="M 167.5,311.5 C 177.231,311.96 186.898,312.96 196.5,314.5C 198.304,324.074 199.304,333.741 199.5,343.5C 188.833,343.5 178.167,343.5 167.5,343.5C 167.5,332.833 167.5,322.167 167.5,311.5 Z"/></g>
<g><path style="opacity:1" fill="#e78028" d="M 101.5,319.5 C 102.833,319.5 104.167,319.5 105.5,319.5C 104.51,327.465 103.843,335.465 103.5,343.5C 91.1487,343.832 78.8153,343.499 66.5,342.5C 69.9391,337.439 74.2724,333.272 79.5,330C 86.5294,325.65 93.8627,322.15 101.5,319.5 Z"/></g>
<g><path style="opacity:1" fill="#e88128" d="M 213.5,319.5 C 226.214,322.233 237.547,327.733 247.5,336C 249.53,337.896 251.197,340.063 252.5,342.5C 240.185,343.499 227.851,343.832 215.5,343.5C 214.907,335.493 214.24,327.493 213.5,319.5 Z"/></g>
<g><path style="opacity:1" fill="#e68028" d="M 66.5,359.5 C 79.1667,359.5 91.8333,359.5 104.5,359.5C 104.39,367.525 104.724,375.525 105.5,383.5C 91.4469,380.724 79.2803,374.391 69,364.5C 67.9055,362.922 67.0722,361.255 66.5,359.5 Z"/></g>
<g><path style="opacity:1" fill="#e88128" d="M 119.5,359.5 C 130.167,359.5 140.833,359.5 151.5,359.5C 151.5,370.167 151.5,380.833 151.5,391.5C 141.741,391.304 132.074,390.304 122.5,388.5C 121.281,378.858 120.281,369.191 119.5,359.5 Z"/></g>
<g><path style="opacity:1" fill="#e88128" d="M 167.5,359.5 C 178.167,359.5 188.833,359.5 199.5,359.5C 198.633,369.174 197.633,378.84 196.5,388.5C 186.865,389.828 177.199,390.828 167.5,391.5C 167.5,380.833 167.5,370.167 167.5,359.5 Z"/></g>
<g><path style="opacity:1" fill="#e58028" d="M 214.5,359.5 C 227.184,359.168 239.851,359.501 252.5,360.5C 247.608,366.888 241.608,372.054 234.5,376C 227.795,379.401 220.795,381.901 213.5,383.5C 214.099,375.514 214.432,367.514 214.5,359.5 Z"/></g>
<g><path style="opacity:1" fill="#e68028" d="M 69.5,386.5 C 69.56,385.957 69.8933,385.624 70.5,385.5C 82.2413,392.971 94.908,398.305 108.5,401.5C 112.454,414.68 117.787,427.347 124.5,439.5C 124.167,439.833 123.833,440.167 123.5,440.5C 98.4757,429.476 80.4757,411.476 69.5,386.5 Z"/></g>
<g><path style="opacity:1" fill="#e58027" d="M 247.5,385.5 C 248.239,385.369 248.906,385.536 249.5,386C 238.697,411.303 220.697,429.47 195.5,440.5C 195.167,440.167 194.833,439.833 194.5,439.5C 201.263,427.877 206.263,415.543 209.5,402.5C 216.398,399.854 223.398,397.354 230.5,395C 236.552,392.313 242.219,389.146 247.5,385.5 Z"/></g>
<g><path style="opacity:1" fill="#e88128" d="M 127.5,405.5 C 135.493,406.24 143.493,406.907 151.5,407.5C 151.832,419.851 151.499,432.185 150.5,444.5C 144.112,439.608 138.946,433.608 135,426.5C 131.599,419.795 129.099,412.795 127.5,405.5 Z"/></g>
<g><path style="opacity:1" fill="#e78028" d="M 185.5,405.5 C 187.5,405.5 189.5,405.5 191.5,405.5C 188.388,418.057 182.888,429.39 175,439.5C 173.104,441.53 170.937,443.197 168.5,444.5C 167.501,431.851 167.168,419.184 167.5,406.5C 173.69,406.823 179.69,406.49 185.5,405.5 Z"/></g>
</svg>
