<?xml version="1.0" encoding="UTF-8"?>
<!DOCTYPE svg PUBLIC "-//W3C//DTD SVG 1.1//EN" "http://www.w3.org/Graphics/SVG/1.1/DTD/svg11.dtd">
<svg xmlns="http://www.w3.org/2000/svg" version="1.1" width="512px" height="512px" style="shape-rendering:geometricPrecision; text-rendering:geometricPrecision; image-rendering:optimizeQuality; fill-rule:evenodd; clip-rule:evenodd" xmlns:xlink="http://www.w3.org/1999/xlink">
<g><path style="opacity:0.976" fill="#030201" d="M 361.5,217.5 C 354.963,224.531 347.629,230.698 339.5,236C 331.482,241.022 322.815,243.689 313.5,244C 312.069,243.535 310.903,242.701 310,241.5C 305.961,225.672 301.461,210.005 296.5,194.5C 289.811,198.012 282.811,200.679 275.5,202.5C 272.298,201.901 269.298,200.734 266.5,199C 262.964,195.296 259.298,191.796 255.5,188.5C 252.769,184.766 249.436,181.766 245.5,179.5C 239.87,173.369 234.036,167.369 228,161.5C 225.123,157.211 224.123,152.544 225,147.5C 226.823,141.687 229.323,136.187 232.5,131C 217.921,126.689 203.254,122.689 188.5,119C 185.943,118.315 184.109,116.815 183,114.5C 183.133,103.21 186.467,92.8766 193,83.5C 212.045,58.9086 237.212,48.4086 268.5,52C 296.899,21.1375 332.232,4.13747 374.5,1C 390.221,0.0633292 405.888,0.396663 421.5,2C 423.815,3.1094 425.315,4.94273 426,7.5C 430.834,48.8316 423.501,87.8316 404,124.5C 395.842,137.333 386.175,149 375,159.5C 377.56,180.541 373.06,199.875 361.5,217.5 Z"/></g>
<g><path style="opacity:1" fill="#fbd62c" d="M 376.5,16.5 C 387.833,16.5 399.167,16.5 410.5,16.5C 410.811,30.2011 410.311,43.8678 409,57.5C 395.986,44.3192 382.819,31.3192 369.5,18.5C 371.969,17.8319 374.302,17.1653 376.5,16.5 Z"/></g>
<g><path style="opacity:1" fill="#edf2f5" d="M 348.5,21.5 C 368.095,39.4274 387.095,58.0941 405.5,77.5C 391.774,129.392 358.941,162.059 307,175.5C 288.374,157.875 270.041,139.875 252,121.5C 261.866,78.3152 287.032,47.4819 327.5,29C 334.571,26.3676 341.571,23.8676 348.5,21.5 Z"/></g>
<g><path style="opacity:1" fill="#040405" d="M 344.5,43.5 C 371.503,44.6651 384.337,58.6651 383,85.5C 376.19,105.322 362.357,114.155 341.5,112C 320.779,104.732 312.279,90.2319 316,68.5C 320.826,54.6937 330.326,46.3603 344.5,43.5 Z"/></g>
<g><path style="opacity:1" fill="#ccecfa" d="M 344.5,59.5 C 361.179,59.0103 368.679,67.0103 367,83.5C 361.199,95.8172 352.032,99.3172 339.5,94C 330.2,86.756 328.367,77.9226 334,67.5C 336.94,63.9632 340.44,61.2965 344.5,59.5 Z"/></g>
<g><path style="opacity:1" fill="#fad52c" d="M 243.5,68.5 C 247.846,68.3343 252.179,68.501 256.5,69C 247.657,83.0207 240.99,98.0207 236.5,114C 225.055,111.913 213.722,109.08 202.5,105.5C 201.401,102.641 201.901,99.9743 204,97.5C 213.195,82.3291 226.361,72.6624 243.5,68.5 Z"/></g>
<g><path style="opacity:1" fill="#8c9ba7" d="M 246.5,139.5 C 260.132,152.631 273.632,165.965 287,179.5C 287.688,180.332 287.521,180.998 286.5,181.5C 282.965,183.402 279.298,184.569 275.5,185C 264.333,173.833 253.167,162.667 242,151.5C 242.612,147.256 244.112,143.256 246.5,139.5 Z"/></g>
<g><path style="opacity:0.912" fill="#000000" d="M 192.5,200.5 C 186.372,205.457 180.372,210.624 174.5,216C 169.96,217.338 166.293,216.171 163.5,212.5C 161.96,208.376 162.793,204.71 166,201.5C 177.562,189.269 189.729,177.769 202.5,167C 210.877,166.377 214.377,170.21 213,178.5C 206.328,186.004 199.495,193.338 192.5,200.5 Z"/></g>
<g><path style="opacity:1" fill="#fad62c" d="M 356.5,171.5 C 357.787,172.871 358.453,174.705 358.5,177C 356.604,201.385 344.27,217.885 321.5,226.5C 319.363,214.786 316.363,203.286 312.5,192C 312.905,191.055 313.572,190.388 314.5,190C 329.668,186.244 343.668,180.078 356.5,171.5 Z"/></g>
<g><path style="opacity:1" fill="#ae6227" d="M 245.5,179.5 C 249.436,181.766 252.769,184.766 255.5,188.5C 255.5,197.167 255.5,205.833 255.5,214.5C 252.351,214.211 249.351,214.711 246.5,216C 235,227.5 223.5,239 212,250.5C 209.413,255.413 210.247,259.58 214.5,263C 217.634,263.79 220.634,263.457 223.5,262C 233.702,251.631 244.035,241.465 254.5,231.5C 255.167,243.829 255.5,256.329 255.5,269C 255.499,281.852 254.832,294.352 253.5,306.5C 201.932,287.089 150.599,267.089 99.5,246.5C 115.356,239.742 131.356,233.242 147.5,227C 150.231,224.103 151.231,220.603 150.5,216.5C 154.833,215.167 159.167,213.833 163.5,212.5C 166.293,216.171 169.96,217.338 174.5,216C 180.372,210.624 186.372,205.457 192.5,200.5C 210.346,193.736 228.013,186.736 245.5,179.5 Z"/></g>
<g><path style="opacity:1" fill="#a15324" d="M 255.5,188.5 C 259.298,191.796 262.964,195.296 266.5,199C 269.298,200.734 272.298,201.901 275.5,202.5C 282.811,200.679 289.811,198.012 296.5,194.5C 301.461,210.005 305.961,225.672 310,241.5C 310.903,242.701 312.069,243.535 313.5,244C 322.815,243.689 331.482,241.022 339.5,236C 347.629,230.698 354.963,224.531 361.5,217.5C 364.172,218.501 366.838,219.501 369.5,220.5C 368.796,224.803 370.13,228.303 373.5,231C 386.217,236.071 398.883,241.238 411.5,246.5C 360.295,266.958 308.962,287.125 257.5,307C 255.934,307.765 254.601,307.598 253.5,306.5C 254.832,294.352 255.499,281.852 255.5,269C 255.5,256.329 255.167,243.829 254.5,231.5C 259.49,227.414 260.657,222.414 258,216.5C 257.005,215.934 256.172,215.267 255.5,214.5C 255.5,205.833 255.5,197.167 255.5,188.5 Z"/></g>
<g><path style="opacity:1" fill="#070301" d="M 225.5,190.5 C 234.58,190.688 237.747,195.021 235,203.5C 217.5,221 200,238.5 182.5,256C 175.542,258.686 171.209,256.353 169.5,249C 169.858,246.968 170.692,245.134 172,243.5C 189.728,225.604 207.562,207.938 225.5,190.5 Z"/></g>
<g><path style="opacity:0.979" fill="#020100" d="M 150.5,216.5 C 151.231,220.603 150.231,224.103 147.5,227C 131.356,233.242 115.356,239.742 99.5,246.5C 150.599,267.089 201.932,287.089 253.5,306.5C 254.601,307.598 255.934,307.765 257.5,307C 308.962,287.125 360.295,266.958 411.5,246.5C 398.883,241.238 386.217,236.071 373.5,231C 370.13,228.303 368.796,224.803 369.5,220.5C 373.882,214.917 379.216,214.084 385.5,218C 403.421,225.196 421.421,232.196 439.5,239C 454.033,257.9 468.199,277.066 482,296.5C 485.759,302.551 484.592,307.385 478.5,311C 466.888,314.816 455.221,318.316 443.5,321.5C 443.988,360.252 443.488,398.919 442,437.5C 437.611,440.749 432.778,443.249 427.5,445C 373.421,465.804 319.421,486.804 265.5,508C 258.833,511.333 252.167,511.333 245.5,508C 187.5,485.333 129.5,462.667 71.5,440C 70.6667,439.167 69.8333,438.333 69,437.5C 67.5121,398.919 67.0121,360.252 67.5,321.5C 55.0331,318.178 42.6998,314.345 30.5,310C 25.9389,305.973 25.4389,301.473 29,296.5C 42.8007,277.066 56.9674,257.9 71.5,239C 93.912,230.529 116.245,221.863 138.5,213C 141.5,212.333 144.5,212.333 147.5,213C 148.71,214.039 149.71,215.206 150.5,216.5 Z"/></g>
<g><path style="opacity:1" fill="#060200" d="M 255.5,214.5 C 256.172,215.267 257.005,215.934 258,216.5C 260.657,222.414 259.49,227.414 254.5,231.5C 244.035,241.465 233.702,251.631 223.5,262C 220.634,263.457 217.634,263.79 214.5,263C 210.247,259.58 209.413,255.413 212,250.5C 223.5,239 235,227.5 246.5,216C 249.351,214.711 252.351,214.211 255.5,214.5 Z"/></g>
<g><path style="opacity:1" fill="#c77528" d="M 78.5,256.5 C 133.413,277.248 188.08,298.581 242.5,320.5C 232.578,334.677 222.411,348.677 212,362.5C 159.456,337.316 105.29,316.15 49.5,299C 49.1667,298.667 48.8333,298.333 48.5,298C 58.6318,284.226 68.6318,270.392 78.5,256.5 Z"/></g>
<g><path style="opacity:1" fill="#ae6227" d="M 429.5,256.5 C 431.39,256.297 432.89,256.963 434,258.5C 443.133,271.932 452.633,285.098 462.5,298C 416.325,312.835 370.992,329.835 326.5,349C 317.133,353.1 307.967,357.6 299,362.5C 288.589,348.677 278.422,334.677 268.5,320.5C 322.113,298.854 375.78,277.521 429.5,256.5 Z"/></g>
<g><path style="opacity:1" fill="#d98b35" d="M 84.5,327.5 C 128.857,342.339 172.024,360.006 214,380.5C 217.267,380.304 219.934,378.97 222,376.5C 230.333,364.833 238.667,353.167 247,341.5C 247.833,391.17 247.667,440.837 246.5,490.5C 192.61,469.593 138.777,448.593 85,427.5C 84.5,394.168 84.3333,360.835 84.5,327.5 Z"/></g>
<g><path style="opacity:1" fill="#c87528" d="M 424.5,327.5 C 425.833,343.82 426.5,360.486 426.5,377.5C 426.333,394.167 426.167,410.833 426,427.5C 372.223,448.593 318.39,469.593 264.5,490.5C 263.333,440.837 263.167,391.17 264,341.5C 272.333,353.167 280.667,364.833 289,376.5C 290.743,378.871 293.077,380.205 296,380.5C 338.054,360.716 380.887,343.049 424.5,327.5 Z"/></g>
</svg>
