<?xml version="1.0" encoding="UTF-8"?>
<!DOCTYPE svg PUBLIC "-//W3C//DTD SVG 1.1//EN" "http://www.w3.org/Graphics/SVG/1.1/DTD/svg11.dtd">
<svg xmlns="http://www.w3.org/2000/svg" version="1.1" width="512px" height="512px" style="shape-rendering:geometricPrecision; text-rendering:geometricPrecision; image-rendering:optimizeQuality; fill-rule:evenodd; clip-rule:evenodd" xmlns:xlink="http://www.w3.org/1999/xlink">
<g><path style="opacity:0.955" fill="#020202" d="M 424.5,61.5 C 445.698,82.7103 460.364,107.877 468.5,137C 466.052,145.482 461.218,147.315 454,142.5C 444.901,109.452 426.735,82.6186 399.5,62C 398.552,61.5172 397.552,61.3505 396.5,61.5C 360.5,36.8313 321.166,29.8313 278.5,40.5C 272.797,40.6309 269.797,37.7976 269.5,32C 269.903,29.1128 271.236,26.7795 273.5,25C 330.55,10.3474 380.884,22.5141 424.5,61.5 Z"/></g>
<g><path style="opacity:0.983" fill="#000001" d="M 271.5,61.5 C 271.282,66.0496 268.949,68.7163 264.5,69.5C 234.826,69.1668 205.159,69.5002 175.5,70.5C 175.624,71.1067 175.957,71.44 176.5,71.5C 189.442,107.564 181.776,138.397 153.5,164C 128.675,181.77 102.009,185.103 73.5,174C 40.8093,156.799 25.6427,129.632 28,92.5C 29.3072,84.5783 31.8072,77.0783 35.5,70C 26.2924,69.5291 20.1258,73.6958 17,82.5C 16.5,179.166 16.3333,275.833 16.5,372.5C 175.833,372.5 335.167,372.5 494.5,372.5C 494.667,275.833 494.5,179.166 494,82.5C 492.231,77.0648 488.731,73.2315 483.5,71C 469.221,69.7359 454.888,69.0692 440.5,69C 437.292,67.5627 435.625,65.0627 435.5,61.5C 435.269,58.2155 436.603,55.7155 439.5,54C 454.5,53.3333 469.5,53.3333 484.5,54C 497.675,57.8421 506.175,66.3421 510,79.5C 510.667,188.5 510.667,297.5 510,406.5C 505.728,421.392 495.894,429.892 480.5,432C 441.829,432.167 403.162,432.667 364.5,433.5C 372.934,448.037 381.101,462.704 389,477.5C 389.473,484.722 386.306,489.555 379.5,492C 296.833,492.667 214.167,492.667 131.5,492C 127.501,491.332 124.668,489.165 123,485.5C 122.005,482.874 121.672,480.207 122,477.5C 129.854,462.291 138.354,447.458 147.5,433C 108.5,432.667 69.5,432.333 30.5,432C 15.1187,429.896 5.28538,421.396 1,406.5C 0.333333,297.5 0.333333,188.5 1,79.5C 4.8246,66.3421 13.3246,57.8421 26.5,54C 32.8333,53.6667 39.1667,53.3333 45.5,53C 61.1445,34.6807 81.1445,25.1807 105.5,24.5C 129.791,25.1468 149.791,34.6468 165.5,53C 199.5,53.3333 233.5,53.6667 267.5,54C 270.397,55.7155 271.731,58.2155 271.5,61.5 Z"/></g>
<g><path style="opacity:1" fill="#4192fd" d="M 94.5,41.5 C 131.174,39.4001 155.008,55.7335 166,90.5C 169.83,129.372 152.997,153.872 115.5,164C 79.4464,166.728 55.9464,150.894 45,116.5C 40.4808,77.5352 56.9808,52.5352 94.5,41.5 Z"/></g>
<g><path style="opacity:0.99" fill="#040404" d="M 344.5,61.5 C 386.811,73.6426 414.978,100.643 429,142.5C 431.216,151.61 427.716,155.777 418.5,155C 417.333,153.833 416.167,152.667 415,151.5C 399.409,102.92 366.076,77.2538 315,74.5C 305.028,75.2122 295.195,76.3789 285.5,78C 278.941,72.9158 278.941,67.9158 285.5,63C 287.382,62.8019 289.048,62.3019 290.5,61.5C 308.457,57.548 326.457,57.548 344.5,61.5 Z"/></g>
<g><path style="opacity:1" fill="#e4f6fd" d="M 271.5,61.5 C 277.833,61.5 284.167,61.5 290.5,61.5C 289.048,62.3019 287.382,62.8019 285.5,63C 278.941,67.9158 278.941,72.9158 285.5,78C 295.195,76.3789 305.028,75.2122 315,74.5C 366.076,77.2538 399.409,102.92 415,151.5C 416.167,152.667 417.333,153.833 418.5,155C 427.716,155.777 431.216,151.61 429,142.5C 414.978,100.643 386.811,73.6426 344.5,61.5C 361.833,61.5 379.167,61.5 396.5,61.5C 397.552,61.3505 398.552,61.5172 399.5,62C 426.735,82.6186 444.901,109.452 454,142.5C 461.218,147.315 466.052,145.482 468.5,137C 460.364,107.877 445.698,82.7103 424.5,61.5C 428.167,61.5 431.833,61.5 435.5,61.5C 435.625,65.0627 437.292,67.5627 440.5,69C 454.888,69.0692 469.221,69.7359 483.5,71C 488.731,73.2315 492.231,77.0648 494,82.5C 494.5,179.166 494.667,275.833 494.5,372.5C 335.167,372.5 175.833,372.5 16.5,372.5C 16.3333,275.833 16.5,179.166 17,82.5C 20.1258,73.6958 26.2924,69.5291 35.5,70C 31.8072,77.0783 29.3072,84.5783 28,92.5C 25.6427,129.632 40.8093,156.799 73.5,174C 102.009,185.103 128.675,181.77 153.5,164C 181.776,138.397 189.442,107.564 176.5,71.5C 205.833,70.8333 235.167,70.1667 264.5,69.5C 268.949,68.7163 271.282,66.0496 271.5,61.5 Z"/></g>
<g><path style="opacity:1" fill="#b7c5cb" d="M 264.5,69.5 C 235.167,70.1667 205.833,70.8333 176.5,71.5C 175.957,71.44 175.624,71.1067 175.5,70.5C 205.159,69.5002 234.826,69.1668 264.5,69.5 Z"/></g>
<g><path style="opacity:1" fill="#020307" d="M 137.5,72.5 C 148.06,72.5504 150.893,77.2171 146,86.5C 130.471,102.362 114.638,117.862 98.5,133C 96.1667,133.667 93.8333,133.667 91.5,133C 81.3333,124.167 71.8333,114.667 63,104.5C 61.8333,96.3333 65.3333,92.8333 73.5,94C 80.9695,100.468 88.1362,107.302 95,114.5C 109.062,100.271 123.228,86.2709 137.5,72.5 Z"/></g>
<g><path style="opacity:1" fill="#040405" d="M 306.5,98.5 C 345.063,96.5209 372.563,112.854 389,147.5C 391.611,152.411 391.944,157.411 390,162.5C 386.547,165.769 382.714,166.269 378.5,164C 365.416,125.435 338.75,109.602 298.5,116.5C 295.426,116.55 293.259,115.217 292,112.5C 290.276,107.269 291.776,103.435 296.5,101C 300.038,100.465 303.372,99.6319 306.5,98.5 Z"/></g>
<g><path style="opacity:1" fill="#020303" d="M 224.5,120.5 C 251.55,117.959 274.55,126.292 293.5,145.5C 314.632,137.357 332.465,142.024 347,159.5C 353.419,169.172 356.419,179.839 356,191.5C 378.388,201.558 392.388,218.558 398,242.5C 401.321,273.686 389.821,297.519 363.5,314C 356.773,317.131 349.773,319.464 342.5,321C 283.833,321.667 225.167,321.667 166.5,321C 135.767,313.268 117.934,293.768 113,262.5C 110.871,232.923 122.371,210.423 147.5,195C 152.314,192.59 157.314,190.756 162.5,189.5C 167.769,152.569 188.436,129.569 224.5,120.5 Z"/></g>
<g><path style="opacity:1" fill="#4193fd" d="M 225.5,136.5 C 251.305,133.593 271.972,142.427 287.5,163C 289.5,163.667 291.5,163.667 293.5,163C 307.897,154.489 321.064,155.989 333,167.5C 339.587,176.21 341.087,185.71 337.5,196C 337.5,199.333 338.833,202 341.5,204C 363,209.5 376.5,223 382,244.5C 384.642,277.737 369.808,298.237 337.5,306C 282.833,306.667 228.167,306.667 173.5,306C 141.192,298.237 126.358,277.737 129,244.5C 135.716,220.453 151.383,206.119 176,201.5C 177.606,168.212 194.106,146.546 225.5,136.5 Z"/></g>
<g><path style="opacity:1" fill="#007aa0" d="M 16.5,388.5 C 175.833,388.5 335.167,388.5 494.5,388.5C 497.121,400.513 493.121,409.346 482.5,415C 331.167,415.667 179.833,415.667 28.5,415C 17.8789,409.346 13.8789,400.513 16.5,388.5 Z"/></g>
<g><path style="opacity:1" fill="#00485f" d="M 166.5,431.5 C 225.837,431.167 285.17,431.5 344.5,432.5C 352.959,446.584 361.293,460.751 369.5,475C 293.5,475.667 217.5,475.667 141.5,475C 150.089,460.595 158.422,446.095 166.5,431.5 Z"/></g>
</svg>
