<?xml version="1.0" encoding="UTF-8"?>
<!DOCTYPE svg PUBLIC "-//W3C//DTD SVG 1.1//EN" "http://www.w3.org/Graphics/SVG/1.1/DTD/svg11.dtd">
<svg xmlns="http://www.w3.org/2000/svg" version="1.1" width="512px" height="512px" style="shape-rendering:geometricPrecision; text-rendering:geometricPrecision; image-rendering:optimizeQuality; fill-rule:evenodd; clip-rule:evenodd" xmlns:xlink="http://www.w3.org/1999/xlink">
<g><path style="opacity:0.985" fill="#030201" d="M 511.5,162.5 C 511.5,167.833 511.5,173.167 511.5,178.5C 506.026,194.621 494.692,202.621 477.5,202.5C 461.522,259.078 445.855,315.745 430.5,372.5C 435.449,371.959 440.116,372.792 444.5,375C 445.701,375.903 446.535,377.069 447,378.5C 447.667,396.167 447.667,413.833 447,431.5C 445.039,434.135 442.539,435.969 439.5,437C 427.833,437.333 416.167,437.667 404.5,438C 393.407,470.883 370.74,484.217 336.5,478C 316.844,471.389 304.177,458.056 298.5,438C 269.833,437.333 241.167,437.333 212.5,438C 204.525,464.132 186.859,478.298 159.5,480.5C 132.141,478.298 114.475,464.132 106.5,438C 94.8333,437.667 83.1667,437.333 71.5,437C 68.4605,435.969 65.9605,434.135 64,431.5C 63.3333,413.833 63.3333,396.167 64,378.5C 65.2506,375.619 67.4173,373.786 70.5,373C 73.8168,372.502 77.1501,372.335 80.5,372.5C 65.1086,316.489 49.6086,260.489 34,204.5C 22.3673,202.681 13.034,197.014 6,187.5C -0.779088,173.845 0.220912,160.845 9,148.5C 15.7401,141.714 23.9068,138.048 33.5,137.5C 35.714,120.879 39.214,104.546 44,88.5C 59.2682,75.8968 75.1016,64.0634 91.5,53C 108.5,52.3333 125.5,52.3333 142.5,53C 155.935,62.4681 169.101,72.3014 182,82.5C 193.422,76.5389 204.922,70.7055 216.5,65C 227.167,54.3333 237.833,43.6667 248.5,33C 253.167,29.6667 257.833,29.6667 262.5,33C 274.681,45.3475 287.014,57.5142 299.5,69.5C 310.975,61.1924 322.308,52.6924 333.5,44C 335.513,42.7428 337.679,41.9095 340,41.5C 356.263,44.9407 372.429,48.774 388.5,53C 396.218,61.7583 403.218,71.0916 409.5,81C 410.833,81.6667 412.167,81.6667 413.5,81C 421.415,78.195 429.415,75.695 437.5,73.5C 440.028,73.7628 442.361,74.5961 444.5,76C 452,83.5 459.5,91 467,98.5C 471.12,110.978 474.62,123.645 477.5,136.5C 494.568,137.999 505.901,146.665 511.5,162.5 Z"/></g>
<g><path style="opacity:1" fill="#415a70" d="M 302.5,136.5 C 285.008,137.497 267.341,137.83 249.5,137.5C 251.424,131.559 253.257,125.559 255,119.5C 255.667,117.5 255.667,115.5 255,113.5C 249.361,100.888 243.194,88.5545 236.5,76.5C 242.5,69.8333 248.833,63.5 255.5,57.5C 266.153,67.6524 276.653,77.9857 287,88.5C 287.09,99.8906 287.757,111.224 289,122.5C 293.393,127.278 297.893,131.944 302.5,136.5 Z"/></g>
<g><path style="opacity:1" fill="#415a71" d="M 342.5,64.5 C 353.814,67.3286 365.148,70.1619 376.5,73C 380.539,78.242 384.205,83.742 387.5,89.5C 381.624,91.9591 375.624,94.1258 369.5,96C 366.829,97.25 364.663,99.0833 363,101.5C 359.747,113.678 356.581,125.845 353.5,138C 347.167,138.667 340.833,138.667 334.5,138C 326,129.5 317.5,121 309,112.5C 308.169,104.812 308.335,97.145 309.5,89.5C 320.826,81.4952 331.826,73.1619 342.5,64.5 Z"/></g>
<g><path style="opacity:1" fill="#415970" d="M 97.5,74.5 C 110.171,74.3334 122.838,74.5001 135.5,75C 145.451,81.9494 155.117,89.2828 164.5,97C 160,101.5 155.5,106 151,110.5C 146.732,119.471 143.565,128.804 141.5,138.5C 138.833,138.5 136.167,138.5 133.5,138.5C 127.824,124.147 120.824,110.481 112.5,97.5C 101.564,94.5793 90.5635,91.9126 79.5,89.5C 85.5309,84.4919 91.5309,79.4919 97.5,74.5 Z"/></g>
<g><path style="opacity:1" fill="#415a71" d="M 226.5,137.5 C 205.66,137.831 184.993,137.497 164.5,136.5C 165.493,131.687 166.993,127.02 169,122.5C 174.833,116.667 180.667,110.833 186.5,105C 197.01,99.2447 207.677,93.7447 218.5,88.5C 223.891,98.115 228.891,107.948 233.5,118C 231.059,124.49 228.726,130.99 226.5,137.5 Z"/></g>
<g><path style="opacity:1" fill="#415a70" d="M 454.5,136.5 C 428.5,137.833 402.5,137.833 376.5,136.5C 377.646,128.747 379.646,121.247 382.5,114C 399.135,108.399 415.802,102.899 432.5,97.5C 438.421,101.916 443.921,106.916 449,112.5C 451.153,120.444 452.986,128.444 454.5,136.5 Z"/></g>
<g><path style="opacity:1" fill="#40586f" d="M 60.5,108.5 C 73.0065,110.768 85.5065,113.101 98,115.5C 102.534,122.73 106.701,130.23 110.5,138C 92.1697,138.5 73.8364,138.667 55.5,138.5C 56.9081,128.459 58.5748,118.459 60.5,108.5 Z"/></g>
<g><path style="opacity:1" fill="#2b3c4b" d="M 164.5,136.5 C 184.993,137.497 205.66,137.831 226.5,137.5C 205.663,138.828 184.663,138.828 163.5,137.5C 163.624,136.893 163.957,136.56 164.5,136.5 Z"/></g>
<g><path style="opacity:1" fill="#2b3c4b" d="M 302.5,136.5 C 303.289,136.783 303.956,137.283 304.5,138C 285.995,138.829 267.662,138.662 249.5,137.5C 267.341,137.83 285.008,137.497 302.5,136.5 Z"/></g>
<g><path style="opacity:1" fill="#2b3b4a" d="M 376.5,136.5 C 402.5,137.833 428.5,137.833 454.5,136.5C 455.043,136.56 455.376,136.893 455.5,137.5C 428.833,138.833 402.167,138.833 375.5,137.5C 375.624,136.893 375.957,136.56 376.5,136.5 Z"/></g>
<g><path style="opacity:1" fill="#fecb65" d="M 34.5,159.5 C 37.8021,164.668 42.4688,168.168 48.5,170C 195.5,170.5 342.5,170.667 489.5,170.5C 489.5,169.5 489.5,168.5 489.5,167.5C 490.702,172.939 488.702,177.105 483.5,180C 331.5,180.667 179.5,180.667 27.5,180C 19.1263,174.468 18.4596,168.134 25.5,161C 28.3508,159.711 31.3508,159.211 34.5,159.5 Z"/></g>
<g><path style="opacity:1" fill="#fedd75" d="M 34.5,159.5 C 183.834,159.333 333.167,159.5 482.5,160C 486.418,161.083 488.752,163.583 489.5,167.5C 489.5,168.5 489.5,169.5 489.5,170.5C 342.5,170.667 195.5,170.5 48.5,170C 42.4688,168.168 37.8021,164.668 34.5,159.5 Z"/></g>
<g><path style="opacity:1" fill="#de8660" d="M 62.5,202.5 C 88.8503,277.017 139.517,326.85 214.5,352C 233.713,358.036 253.38,361.369 273.5,362C 318.832,362.5 364.165,362.667 409.5,362.5C 409.277,365.784 408.61,368.951 407.5,372C 306.167,372.667 204.833,372.667 103.5,372C 87.9631,315.877 72.2965,259.711 56.5,203.5C 58.396,202.534 60.396,202.201 62.5,202.5 Z"/></g>
<g><path style="opacity:1" fill="#f19a74" d="M 62.5,202.5 C 193.168,202.167 323.835,202.5 454.5,203.5C 439.628,256.673 424.628,309.673 409.5,362.5C 364.165,362.667 318.832,362.5 273.5,362C 253.38,361.369 233.713,358.036 214.5,352C 139.517,326.85 88.8503,277.017 62.5,202.5 Z"/></g>
<g><path style="opacity:1" fill="#a87e6b" d="M 84.5,394.5 C 95.1719,394.333 105.839,394.5 116.5,395C 111.444,400.944 108.444,407.778 107.5,415.5C 99.8333,415.5 92.1667,415.5 84.5,415.5C 84.5,408.5 84.5,401.5 84.5,394.5 Z"/></g>
<g><path style="opacity:1" fill="#415a70" d="M 182.5,447.5 C 170.873,447.851 160.873,444.018 152.5,436C 152.728,435.601 153.062,435.435 153.5,435.5C 162.701,438.568 168.368,435.401 170.5,426C 168.71,417.934 163.71,414.6 155.5,416C 149.749,419.33 147.749,424.163 149.5,430.5C 149.631,431.239 149.464,431.906 149,432.5C 145.13,427.977 142.13,422.977 140,417.5C 138.75,412.58 138.25,407.58 138.5,402.5C 146.696,394.941 156.363,392.441 167.5,395C 187.881,402.929 195.048,417.429 189,438.5C 187.791,442.276 185.624,445.276 182.5,447.5 Z"/></g>
<g><path style="opacity:1" fill="#bd917b" d="M 302.5,404.5 C 271.167,404.5 239.833,404.5 208.5,404.5C 206.636,401.277 204.636,398.11 202.5,395C 237.833,394.333 273.167,394.333 308.5,395C 306.364,398.11 304.364,401.277 302.5,404.5 Z"/></g>
<g><path style="opacity:1" fill="#415a70" d="M 374.5,447.5 C 353.693,446.697 339.526,436.697 332,417.5C 330.75,412.58 330.25,407.58 330.5,402.5C 338.696,394.941 348.363,392.441 359.5,395C 379.881,402.929 387.048,417.429 381,438.5C 379.791,442.276 377.624,445.276 374.5,447.5 Z"/></g>
<g><path style="opacity:1" fill="#bd917b" d="M 425.5,394.5 C 425.5,397.833 425.5,401.167 425.5,404.5C 417.167,404.5 408.833,404.5 400.5,404.5C 398.636,401.277 396.636,398.11 394.5,395C 404.828,394.5 415.161,394.334 425.5,394.5 Z"/></g>
<g><path style="opacity:1" fill="#364e66" d="M 138.5,402.5 C 138.25,407.58 138.75,412.58 140,417.5C 142.13,422.977 145.13,427.977 149,432.5C 149.464,431.906 149.631,431.239 149.5,430.5C 150.803,432.142 152.136,433.809 153.5,435.5C 153.062,435.435 152.728,435.601 152.5,436C 160.873,444.018 170.873,447.851 182.5,447.5C 171.172,459.075 158.172,461.242 143.5,454C 127.394,442.346 123.56,427.513 132,409.5C 133.666,406.669 135.832,404.336 138.5,402.5 Z"/></g>
<g><path style="opacity:1" fill="#364d66" d="M 330.5,402.5 C 330.25,407.58 330.75,412.58 332,417.5C 339.526,436.697 353.693,446.697 374.5,447.5C 363.172,459.075 350.172,461.242 335.5,454C 319.394,442.346 315.56,427.513 324,409.5C 325.666,406.669 327.832,404.336 330.5,402.5 Z"/></g>
<g><path style="opacity:1" fill="#a87e6b" d="M 208.5,404.5 C 239.833,404.5 271.167,404.5 302.5,404.5C 300.892,407.991 299.892,411.658 299.5,415.5C 270.167,415.5 240.833,415.5 211.5,415.5C 211.108,411.658 210.108,407.991 208.5,404.5 Z"/></g>
<g><path style="opacity:1" fill="#a47b68" d="M 425.5,394.5 C 426.491,401.313 426.825,408.313 426.5,415.5C 418.833,415.5 411.167,415.5 403.5,415.5C 403.108,411.658 402.108,407.991 400.5,404.5C 408.833,404.5 417.167,404.5 425.5,404.5C 425.5,401.167 425.5,397.833 425.5,394.5 Z"/></g>
<g><path style="opacity:1" fill="#020304" d="M 153.5,435.5 C 152.136,433.809 150.803,432.142 149.5,430.5C 147.749,424.163 149.749,419.33 155.5,416C 163.71,414.6 168.71,417.934 170.5,426C 168.368,435.401 162.701,438.568 153.5,435.5 Z"/></g>
<g><path style="opacity:1" fill="#020304" d="M 347.5,415.5 C 360.051,415.314 364.218,420.981 360,432.5C 355.8,436.714 350.966,437.548 345.5,435C 338.524,427.713 339.191,421.213 347.5,415.5 Z"/></g>
</svg>
