<?xml version="1.0" encoding="UTF-8"?>
<!DOCTYPE svg PUBLIC "-//W3C//DTD SVG 1.1//EN" "http://www.w3.org/Graphics/SVG/1.1/DTD/svg11.dtd">
<svg xmlns="http://www.w3.org/2000/svg" version="1.1" width="512px" height="512px" style="shape-rendering:geometricPrecision; text-rendering:geometricPrecision; image-rendering:optimizeQuality; fill-rule:evenodd; clip-rule:evenodd" xmlns:xlink="http://www.w3.org/1999/xlink">
<g><path style="opacity:0.966" fill="#020101" d="M 240.5,-0.5 C 246.5,-0.5 252.5,-0.5 258.5,-0.5C 277.369,6.22955 287.369,19.7295 288.5,40C 287.779,48.1494 287.279,56.316 287,64.5C 285.738,68.0477 283.238,70.0477 279.5,70.5C 276.947,69.4608 274.78,67.7941 273,65.5C 272.667,54.1667 272.333,42.8333 272,31.5C 266.835,18.6634 257.335,13.1634 243.5,15C 233.718,18.4498 227.884,25.2832 226,35.5C 225.195,71.506 224.528,107.506 224,143.5C 225.139,146.583 226.472,149.583 228,152.5C 237.031,161.196 245.697,170.196 254,179.5C 254.912,183.452 254.245,187.119 252,190.5C 228.139,214.695 203.972,238.528 179.5,262C 172.019,267.465 164.019,272.131 155.5,276C 136.5,283 117.5,290 98.5,297C 94.421,299.075 90.921,301.908 88,305.5C 72.2198,340.841 57.2198,376.508 43,412.5C 41.4155,429.017 48.7488,438.684 65,441.5C 76.9582,440.185 84.9582,433.852 89,422.5C 100.805,394.751 112.805,367.084 125,339.5C 127.251,337.623 129.751,336.123 132.5,335C 152.943,327.611 173.277,319.945 193.5,312C 199.331,309.771 204.998,310.105 210.5,313C 220.01,318.524 224.343,326.69 223.5,337.5C 222.625,339.568 221.459,341.568 220,343.5C 181.667,381.833 143.333,420.167 105,458.5C 99.4042,467.6 99.0709,476.933 104,486.5C 114.765,498.418 126.598,499.585 139.5,490C 150.5,479 161.5,468 172.5,457C 175.888,456.341 179.221,456.508 182.5,457.5C 185.197,461.556 185.03,465.556 182,469.5C 169.438,482.731 156.272,495.231 142.5,507C 138.843,508.822 135.176,510.322 131.5,511.5C 125.833,511.5 120.167,511.5 114.5,511.5C 89.8456,502.53 80.6789,485.197 87,459.5C 88.3333,456.833 89.6667,454.167 91,451.5C 129.805,411.694 168.972,372.194 208.5,333C 206.667,329.833 204.167,327.333 201,325.5C 180.007,334.054 158.84,342.221 137.5,350C 124.813,379.21 111.979,408.377 99,437.5C 89.0952,452.198 75.2618,458.364 57.5,456C 34.0764,448.66 24.2431,432.826 28,408.5C 43.0786,370.934 58.7453,333.601 75,296.5C 84.0452,286.554 95.2119,280.054 108.5,277C 109.91,276.632 110.91,275.799 111.5,274.5C 100.885,257.808 98.8847,240.142 105.5,221.5C 90.8191,195.088 94.4858,171.588 116.5,151C 136.126,137.964 156.292,137.13 177,148.5C 184.226,135.941 194.559,126.941 208,121.5C 208.992,90.1415 210.325,58.8082 212,27.5C 216.752,13.2475 226.252,3.91421 240.5,-0.5 Z"/></g>
<g><path style="opacity:1" fill="#dedee0" d="M 279.5,70.5 C 279.5,76.8333 279.5,83.1667 279.5,89.5C 275.474,89.6766 272.641,91.6766 271,95.5C 270.333,106.5 270.333,117.5 271,128.5C 284.471,142.971 298.304,157.138 312.5,171C 317.167,173 321.833,173 326.5,171C 327.701,170.097 328.535,168.931 329,167.5C 322.997,139.483 331.83,117.649 355.5,102C 371.911,93.8554 388.578,93.3554 405.5,100.5C 409.504,123.991 402.504,143.491 384.5,159C 369.591,170.92 352.591,178.087 333.5,180.5C 342.911,189.906 351.911,199.573 360.5,209.5C 360.178,213.747 361.011,217.747 363,221.5C 384.029,242.195 404.695,263.195 425,284.5C 428.301,290.078 429.301,296.078 428,302.5C 418.155,335.546 408.155,368.546 398,401.5C 389.91,413.746 379.077,416.913 365.5,411C 355.74,403.953 352.24,394.453 355,382.5C 362.333,358.5 369.667,334.5 377,310.5C 377.667,307.5 377.667,304.5 377,301.5C 370.136,294.302 362.97,287.468 355.5,281C 352.259,280.207 349.259,280.707 346.5,282.5C 342.369,278.87 338.369,275.037 334.5,271C 322.519,261.032 309.852,260.032 296.5,268C 272.833,291.667 249.167,315.333 225.5,339C 224.184,339.528 223.517,339.028 223.5,337.5C 224.343,326.69 220.01,318.524 210.5,313C 204.998,310.105 199.331,309.771 193.5,312C 173.277,319.945 152.943,327.611 132.5,335C 129.751,336.123 127.251,337.623 125,339.5C 112.805,367.084 100.805,394.751 89,422.5C 84.9582,433.852 76.9582,440.185 65,441.5C 48.7488,438.684 41.4155,429.017 43,412.5C 57.2198,376.508 72.2198,340.841 88,305.5C 90.921,301.908 94.421,299.075 98.5,297C 117.5,290 136.5,283 155.5,276C 164.019,272.131 172.019,267.465 179.5,262C 203.972,238.528 228.139,214.695 252,190.5C 254.245,187.119 254.912,183.452 254,179.5C 245.697,170.196 237.031,161.196 228,152.5C 226.472,149.583 225.139,146.583 224,143.5C 224.528,107.506 225.195,71.506 226,35.5C 227.884,25.2832 233.718,18.4498 243.5,15C 257.335,13.1634 266.835,18.6634 272,31.5C 272.333,42.8333 272.667,54.1667 273,65.5C 274.78,67.7941 276.947,69.4608 279.5,70.5 Z"/></g>
<g><path style="opacity:0.964" fill="#020101" d="M 195.5,444.5 C 193.344,441.232 193.177,437.899 195,434.5C 245.701,383.965 296.201,333.299 346.5,282.5C 349.259,280.707 352.259,280.207 355.5,281C 362.97,287.468 370.136,294.302 377,301.5C 377.667,304.5 377.667,307.5 377,310.5C 369.667,334.5 362.333,358.5 355,382.5C 352.24,394.453 355.74,403.953 365.5,411C 379.077,416.913 389.91,413.746 398,401.5C 408.155,368.546 418.155,335.546 428,302.5C 429.301,296.078 428.301,290.078 425,284.5C 404.695,263.195 384.029,242.195 363,221.5C 361.011,217.747 360.178,213.747 360.5,209.5C 361.584,207.185 363.251,205.352 365.5,204C 389.644,207.763 409.811,200.597 426,182.5C 440.8,158.729 439.8,135.729 423,113.5C 417.853,108.179 412.02,103.845 405.5,100.5C 388.578,93.3554 371.911,93.8554 355.5,102C 331.83,117.649 322.997,139.483 329,167.5C 328.535,168.931 327.701,170.097 326.5,171C 321.833,173 317.167,173 312.5,171C 298.304,157.138 284.471,142.971 271,128.5C 270.333,117.5 270.333,106.5 271,95.5C 272.641,91.6766 275.474,89.6766 279.5,89.5C 282.522,89.4282 284.688,90.7615 286,93.5C 286.818,103.078 286.651,112.578 285.5,122C 294.333,130.833 303.167,139.667 312,148.5C 316.41,106.589 339.577,83.5895 381.5,79.5C 410.064,80.6884 431.231,93.6884 445,118.5C 447.602,124.639 449.602,130.972 451,137.5C 478.088,152.398 488.421,175.065 482,205.5C 480.363,210.769 478.197,215.769 475.5,220.5C 483.993,247.187 476.993,268.687 454.5,285C 451.285,286.774 447.952,288.274 444.5,289.5C 444.574,296.501 443.74,303.501 442,310.5C 432.798,340.44 423.798,370.44 415,400.5C 406.629,423.272 390.463,432.438 366.5,428C 344.012,419.468 335.179,403.301 340,379.5C 347.27,355.858 354.436,332.191 361.5,308.5C 358.833,305.167 355.833,302.167 352.5,299.5C 304.014,347.486 255.68,395.653 207.5,444C 203.631,447.144 199.631,447.311 195.5,444.5 Z"/></g>
<g><path style="opacity:1" fill="#c1c3c5" d="M 405.5,100.5 C 412.02,103.845 417.853,108.179 423,113.5C 439.8,135.729 440.8,158.729 426,182.5C 409.811,200.597 389.644,207.763 365.5,204C 363.251,205.352 361.584,207.185 360.5,209.5C 351.911,199.573 342.911,189.906 333.5,180.5C 352.591,178.087 369.591,170.92 384.5,159C 402.504,143.491 409.504,123.991 405.5,100.5 Z"/></g>
<g><path style="opacity:1" fill="#ec494f" d="M 207.5,138.5 C 209.029,145.248 211.196,151.915 214,158.5C 221.302,166.803 228.969,174.803 237,182.5C 237.667,183.167 237.667,183.833 237,184.5C 214.108,208.06 190.608,230.893 166.5,253C 154.269,260.625 141.269,266.292 127.5,270C 116.148,254.37 114.481,237.703 122.5,220C 118.508,213.977 115.341,207.477 113,200.5C 110.281,174.885 121.614,159.885 147,155.5C 159.333,155.845 169.499,160.678 177.5,170C 185.822,171.689 189.989,168.189 190,159.5C 193.528,150.481 199.361,143.481 207.5,138.5 Z"/></g>
<g><path style="opacity:1" fill="#d44254" d="M 410.5,247.5 C 426.404,240.98 435.571,229.314 438,212.5C 435.289,208.288 431.789,204.954 427.5,202.5C 441.508,190.484 449.175,175.151 450.5,156.5C 454.302,157.779 457.469,160.112 460,163.5C 468.391,174.662 470.725,186.995 467,200.5C 464.67,207.152 461.837,213.485 458.5,219.5C 467.406,237.981 464.739,254.481 450.5,269C 446.446,271.694 442.112,273.861 437.5,275.5C 428.506,266.173 419.506,256.839 410.5,247.5 Z"/></g>
<g><path style="opacity:1" fill="#ec494f" d="M 427.5,202.5 C 431.789,204.954 435.289,208.288 438,212.5C 435.571,229.314 426.404,240.98 410.5,247.5C 400.854,238.521 391.521,229.188 382.5,219.5C 399.488,218.731 414.488,213.065 427.5,202.5 Z"/></g>
<g><path style="opacity:1" fill="#c0c2c4" d="M 346.5,282.5 C 296.201,333.299 245.701,383.965 195,434.5C 193.177,437.899 193.344,441.232 195.5,444.5C 190.833,448.5 186.5,452.833 182.5,457.5C 179.221,456.508 175.888,456.341 172.5,457C 161.5,468 150.5,479 139.5,490C 126.598,499.585 114.765,498.418 104,486.5C 99.0709,476.933 99.4042,467.6 105,458.5C 143.333,420.167 181.667,381.833 220,343.5C 221.459,341.568 222.625,339.568 223.5,337.5C 223.517,339.028 224.184,339.528 225.5,339C 249.167,315.333 272.833,291.667 296.5,268C 309.852,260.032 322.519,261.032 334.5,271C 338.369,275.037 342.369,278.87 346.5,282.5 Z"/></g>
</svg>
