<?xml version="1.0" encoding="UTF-8"?>
<!DOCTYPE svg PUBLIC "-//W3C//DTD SVG 1.1//EN" "http://www.w3.org/Graphics/SVG/1.1/DTD/svg11.dtd">
<svg xmlns="http://www.w3.org/2000/svg" version="1.1" width="512px" height="512px" style="shape-rendering:geometricPrecision; text-rendering:geometricPrecision; image-rendering:optimizeQuality; fill-rule:evenodd; clip-rule:evenodd" xmlns:xlink="http://www.w3.org/1999/xlink">
<g><path style="opacity:0.987" fill="#12130b" d="M 181.5,21.5 C 239.168,21.3333 296.834,21.5 354.5,22C 355,22.5 355.5,23 356,23.5C 357.656,70.0833 357.99,116.75 357,163.5C 356.215,165.286 355.049,166.786 353.5,168C 343.839,168.5 334.172,168.666 324.5,168.5C 324.667,181.837 324.5,195.171 324,208.5C 323.097,209.701 321.931,210.535 320.5,211C 311.173,211.5 301.839,211.666 292.5,211.5C 292.667,224.504 292.5,237.504 292,250.5C 290.992,252.259 289.492,253.426 287.5,254C 272.167,254.333 256.833,254.667 241.5,255C 217.805,258.676 195.471,266.343 174.5,278C 163.475,283.674 151.808,286.007 139.5,285C 127.977,281.834 119.477,275.001 114,264.5C 113.333,213.5 113.333,162.5 114,111.5C 114.833,109.333 116.333,107.833 118.5,107C 127.827,106.5 137.161,106.334 146.5,106.5C 146.185,93.1172 146.518,79.7838 147.5,66.5C 148.912,65.1936 150.579,64.3603 152.5,64C 161.16,63.5002 169.827,63.3336 178.5,63.5C 178.333,50.4957 178.5,37.4957 179,24.5C 180.045,23.6266 180.878,22.6266 181.5,21.5 Z"/></g>
<g><path style="opacity:1" fill="#64a3d8" d="M 233.5,34.5 C 236.479,44.418 239.146,54.418 241.5,64.5C 224.833,64.5 208.167,64.5 191.5,64.5C 191.5,54.5 191.5,44.5 191.5,34.5C 205.5,34.5 219.5,34.5 233.5,34.5 Z"/></g>
<g><path style="opacity:1" fill="#4692ce" d="M 233.5,34.5 C 270.167,34.5 306.833,34.5 343.5,34.5C 343.5,74.5 343.5,114.5 343.5,154.5C 337.167,154.5 330.833,154.5 324.5,154.5C 324.984,125.079 324.484,95.7453 323,66.5C 322.25,65.8742 321.416,65.3742 320.5,65C 294.169,64.5 267.835,64.3334 241.5,64.5C 239.146,54.418 236.479,44.418 233.5,34.5 Z"/></g>
<g><path style="opacity:1" fill="#2d5570" d="M 343.5,34.5 C 344.499,74.6632 344.832,114.997 344.5,155.5C 337.646,155.824 330.979,155.491 324.5,154.5C 330.833,154.5 337.167,154.5 343.5,154.5C 343.5,114.5 343.5,74.5 343.5,34.5 Z"/></g>
<g><path style="opacity:1" fill="#7fb5e2" d="M 244.5,77.5 C 246.012,87.4575 247.345,97.4575 248.5,107.5C 218.833,107.5 189.167,107.5 159.5,107.5C 159.5,97.5 159.5,87.5 159.5,77.5C 187.833,77.5 216.167,77.5 244.5,77.5 Z"/></g>
<g><path style="opacity:1" fill="#64a1d7" d="M 244.5,77.5 C 266.833,77.5 289.167,77.5 311.5,77.5C 311.5,117.5 311.5,157.5 311.5,197.5C 305.167,197.5 298.833,197.5 292.5,197.5C 292.831,168.662 292.498,139.995 291.5,111.5C 291.056,109.887 290.056,108.72 288.5,108C 275.171,107.5 261.837,107.333 248.5,107.5C 247.345,97.4575 246.012,87.4575 244.5,77.5 Z"/></g>
<g><path style="opacity:1" fill="#567892" d="M 279.5,120.5 C 269.5,120.5 259.5,120.5 249.5,120.5C 208.833,120.5 168.167,120.5 127.5,120.5C 127.5,167.5 127.5,214.5 127.5,261.5C 126.501,214.336 126.168,167.003 126.5,119.5C 177.669,119.168 228.669,119.501 279.5,120.5 Z"/></g>
<g><path style="opacity:1" fill="#8ebee7" d="M 249.5,120.5 C 251.341,162.276 245.675,202.942 232.5,242.5C 209.563,247.761 187.563,255.928 166.5,267C 158.216,270.906 149.549,272.239 140.5,271C 135.389,268.789 131.056,265.623 127.5,261.5C 127.5,214.5 127.5,167.5 127.5,120.5C 168.167,120.5 208.833,120.5 249.5,120.5 Z"/></g>
<g><path style="opacity:1" fill="#64a1d6" d="M 249.5,120.5 C 259.5,120.5 269.5,120.5 279.5,120.5C 279.5,160.833 279.5,201.167 279.5,241.5C 263.814,241.284 248.148,241.617 232.5,242.5C 245.675,202.942 251.341,162.276 249.5,120.5 Z"/></g>
<g><path style="opacity:1" fill="#39556a" d="M 291.5,111.5 C 292.498,139.995 292.831,168.662 292.5,197.5C 298.833,197.5 305.167,197.5 311.5,197.5C 305.021,198.491 298.354,198.824 291.5,198.5C 291.5,169.5 291.5,140.5 291.5,111.5 Z"/></g>
<g><path style="opacity:0.984" fill="#13130b" d="M 387.5,282.5 C 399.824,280.331 410.324,283.665 419,292.5C 424.289,298.988 426.122,306.321 424.5,314.5C 442.989,319.783 451.989,332.116 451.5,351.5C 461.549,348.67 471.549,348.837 481.5,352C 488.747,355.635 493.247,361.469 495,369.5C 498.312,383.561 493.812,394.394 481.5,402C 473.324,406.588 464.991,410.922 456.5,415C 414.326,432.391 371.993,449.391 329.5,466C 310.607,472.825 291.607,473.158 272.5,467C 245.608,458.052 219.274,447.719 193.5,436C 191.091,435.065 188.591,434.565 186,434.5C 173.077,437.474 160.577,441.641 148.5,447C 152.318,455.292 150.651,462.292 143.5,468C 124.833,475 106.167,482 87.5,489C 78.5636,491.443 72.0636,488.61 68,480.5C 49.9666,432.066 32.1333,383.566 14.5,335C 15.177,330.313 17.177,326.313 20.5,323C 39.4215,315.47 58.4215,308.137 77.5,301C 84.865,299.052 91.0317,300.885 96,306.5C 98.0776,311.575 100.244,316.575 102.5,321.5C 141.218,312.59 180.051,304.257 219,296.5C 222.258,296.493 225.425,296.993 228.5,298C 238.985,303.671 249.318,309.505 259.5,315.5C 302.369,304.784 345.036,293.784 387.5,282.5 Z"/></g>
<g><path style="opacity:1" fill="#f1bdab" d="M 388.5,295.5 C 399.031,293.685 406.864,297.351 412,306.5C 412.874,309.961 412.04,312.961 409.5,315.5C 406.617,318.109 403.283,319.942 399.5,321C 367.97,328.68 336.47,336.513 305,344.5C 294.6,338.717 284.433,332.55 274.5,326C 312.611,315.884 350.611,305.717 388.5,295.5 Z"/></g>
<g><path style="opacity:1" fill="#f4bfae" d="M 126.5,389.5 C 153.961,369.373 176.961,345.04 195.5,316.5C 194.675,315.614 193.675,315.281 192.5,315.5C 199.781,313.998 207.114,312.165 214.5,310C 217.167,309.333 219.833,309.333 222.5,310C 255.695,329.206 288.361,349.206 320.5,370C 332.67,381.327 332.336,392.327 319.5,403C 314.223,406.162 308.557,407.162 302.5,406C 282.672,395.253 263.005,384.253 243.5,373C 237.171,372.332 234.671,375.166 236,381.5C 255.793,395.259 276.627,407.426 298.5,418C 319.415,421.213 333.748,413.046 341.5,393.5C 342.167,393.167 342.833,392.833 343.5,392.5C 381.961,383.135 420.295,373.301 458.5,363C 465.054,361.919 471.388,362.586 477.5,365C 482.464,370.085 483.631,375.918 481,382.5C 478.167,386.667 474.667,390.167 470.5,393C 460.955,397.939 451.289,402.606 441.5,407C 398.347,425.05 354.68,441.717 310.5,457C 297.178,458.571 284.178,457.238 271.5,453C 243.934,442.882 216.6,432.215 189.5,421C 185.428,420.342 181.428,420.675 177.5,422C 165.982,426.34 154.315,430.173 142.5,433.5C 137.727,418.623 132.394,403.956 126.5,389.5 Z"/></g>
<g><path style="opacity:1" fill="#6b99d0" d="M 115.5,396.5 C 115.719,397.675 115.386,398.675 114.5,399.5C 98.3602,411.238 81.0268,420.905 62.5,428.5C 51.6248,398.412 40.4582,368.412 29,338.5C 28.2571,336.559 28.4238,334.726 29.5,333C 45.5,327 61.5,321 77.5,315C 79.7538,313.85 82.0871,313.516 84.5,314C 95.5231,341.235 105.856,368.735 115.5,396.5 Z"/></g>
<g><path style="opacity:1" fill="#f8d1c3" d="M 192.5,315.5 C 193.675,315.281 194.675,315.614 195.5,316.5C 176.961,345.04 153.961,369.373 126.5,389.5C 119.235,371.037 112.568,352.37 106.5,333.5C 135.099,327.183 163.766,321.183 192.5,315.5 Z"/></g>
<g><path style="opacity:1" fill="#f2beac" d="M 413.5,328.5 C 429.178,327.021 437.012,334.021 437,349.5C 436.117,352.102 434.617,354.269 432.5,356C 402.415,364.75 372.082,372.583 341.5,379.5C 341.075,375.393 339.575,371.726 337,368.5C 331.812,362.832 325.979,357.998 319.5,354C 347.11,346.848 374.776,339.848 402.5,333C 406.468,331.962 410.135,330.462 413.5,328.5 Z"/></g>
<g><path style="opacity:1" fill="#5888c5" d="M 115.5,396.5 C 123.405,416.206 130.738,436.206 137.5,456.5C 118.978,463.007 100.478,469.673 82,476.5C 81.0546,476.095 80.3879,475.428 80,474.5C 74.4283,459.031 68.595,443.698 62.5,428.5C 81.0268,420.905 98.3602,411.238 114.5,399.5C 115.386,398.675 115.719,397.675 115.5,396.5 Z"/></g>
<g><path style="opacity:1" fill="#141510" d="M 90.5,426.5 C 99.7044,427.405 101.704,431.572 96.5,439C 89.1699,440.666 86.0032,437.833 87,430.5C 87.6897,428.65 88.8564,427.316 90.5,426.5 Z"/></g>
</svg>
