<?xml version="1.0" encoding="UTF-8"?>
<!DOCTYPE svg PUBLIC "-//W3C//DTD SVG 1.1//EN" "http://www.w3.org/Graphics/SVG/1.1/DTD/svg11.dtd">
<svg xmlns="http://www.w3.org/2000/svg" version="1.1" width="512px" height="512px" style="shape-rendering:geometricPrecision; text-rendering:geometricPrecision; image-rendering:optimizeQuality; fill-rule:evenodd; clip-rule:evenodd" xmlns:xlink="http://www.w3.org/1999/xlink">
<g><path style="opacity:0.992" fill="#033c59" d="M 388.5,-0.5 C 401.167,-0.5 413.833,-0.5 426.5,-0.5C 435.012,2.86388 439.512,9.19721 440,18.5C 440.368,19.91 441.201,20.91 442.5,21.5C 452.138,12.9457 462.138,12.4457 472.5,20C 481.116,27.6097 488.616,36.1097 495,45.5C 496.213,48.7675 496.546,52.1008 496,55.5C 494.458,60.5614 492.458,65.228 490,69.5C 497.626,70.3754 503.959,73.7088 509,79.5C 509.757,81.3146 510.59,82.9812 511.5,84.5C 511.5,97.1667 511.5,109.833 511.5,122.5C 509.877,126.645 507.211,130.145 503.5,133C 498.981,134.553 494.481,136.053 490,137.5C 492.458,141.772 494.458,146.439 496,151.5C 496.666,157.835 494.999,163.501 491,168.5C 483.39,177.116 474.89,184.616 465.5,191C 456.849,193.421 449.183,191.588 442.5,185.5C 441.201,186.09 440.368,187.09 440,188.5C 438.137,202.856 429.97,209.189 415.5,207.5C 415.667,243.502 415.5,279.502 415,315.5C 413.461,318.521 410.961,319.854 407.5,319.5C 403.363,319.518 400.863,317.518 400,313.5C 399.5,278.168 399.333,242.835 399.5,207.5C 384.567,208.07 376.233,200.903 374.5,186C 373.167,185.333 371.833,185.333 370.5,186C 363.11,191.872 355.11,192.872 346.5,189C 336.963,181.13 328.463,172.297 321,162.5C 318.014,154.305 319.348,146.972 325,140.5C 325.667,139.167 325.667,137.833 325,136.5C 315.859,135.932 309.193,131.599 305,123.5C 303.562,111.576 303.062,99.5758 303.5,87.5C 231.499,87.3333 159.499,87.5 87.5,88C 90.9477,92.6586 93.4477,97.8253 95,103.5C 95.6667,146.833 95.6667,190.167 95,233.5C 94.1501,237.513 91.6501,239.513 87.5,239.5C 85.0637,239.683 82.897,239.016 81,237.5C 79.6211,232.964 79.1211,228.297 79.5,223.5C 59.4972,223.667 39.4972,223.5 19.5,223C 17.6667,222.5 16.5,221.333 16,219.5C 15.3333,180.5 15.3333,141.5 16,102.5C 20.1667,86.3333 30.3333,76.1667 46.5,72C 138.5,71.6667 230.5,71.3333 322.5,71C 323.91,70.6322 324.91,69.7989 325.5,68.5C 316.946,58.8623 316.446,48.8623 324,38.5C 331.61,29.8841 340.11,22.3841 349.5,16C 352.768,14.7873 356.101,14.454 359.5,15C 364.561,16.5424 369.228,18.5424 373.5,21C 374.375,13.3741 377.709,7.04081 383.5,2C 385.315,1.24316 386.981,0.409824 388.5,-0.5 Z"/></g>
<g><path style="opacity:1" fill="#0073fe" d="M 392.5,15.5 C 402.172,15.3335 411.839,15.5002 421.5,16C 423.048,25.4161 428.048,32.4161 436.5,37C 444.067,38.7134 450.734,37.0467 456.5,32C 457.833,31.3333 459.167,31.3333 460.5,32C 466.667,38.1667 472.833,44.3333 479,50.5C 479.667,51.8333 479.667,53.1667 479,54.5C 472.87,61.7854 471.87,69.7854 476,78.5C 480.654,84.6589 486.821,87.9922 494.5,88.5C 495.665,98.1495 495.832,107.816 495,117.5C 485.605,119.041 478.605,124.041 474,132.5C 472.287,140.067 473.953,146.734 479,152.5C 479.667,153.833 479.667,155.167 479,156.5C 472.833,162.667 466.667,168.833 460.5,175C 459.167,175.667 457.833,175.667 456.5,175C 444.087,166.156 433.587,167.989 425,180.5C 424.306,184.241 423.139,187.741 421.5,191C 411.816,191.832 402.149,191.665 392.5,190.5C 390.404,175.231 381.738,168.397 366.5,170C 363.497,171.166 360.83,172.833 358.5,175C 357.167,175.667 355.833,175.667 354.5,175C 348.333,168.833 342.167,162.667 336,156.5C 335.333,155.167 335.333,153.833 336,152.5C 344.062,141.854 343.229,132.021 333.5,123C 328.969,120.942 324.469,119.109 320,117.5C 319.333,107.833 319.333,98.1667 320,88.5C 335.56,86.6174 342.56,77.9507 341,62.5C 339.834,59.4968 338.167,56.8302 336,54.5C 335.333,53.1667 335.333,51.8333 336,50.5C 342.167,44.3333 348.333,38.1667 354.5,32C 355.833,31.3333 357.167,31.3333 358.5,32C 365.785,38.1301 373.785,39.1301 382.5,35C 388.625,29.9165 391.958,23.4165 392.5,15.5 Z"/></g>
<g><path style="opacity:0.942" fill="#96a0c3" d="M 259.5,39.5 C 270.86,38.71 274.193,43.5434 269.5,54C 258.964,57.997 254.464,54.497 256,43.5C 256.69,41.6498 257.856,40.3164 259.5,39.5 Z"/></g>
<g><path style="opacity:0.942" fill="#96a0c3" d="M 291.5,39.5 C 302.86,38.71 306.193,43.5434 301.5,54C 290.964,57.997 286.464,54.497 288,43.5C 288.69,41.6498 289.856,40.3164 291.5,39.5 Z"/></g>
<g><path style="opacity:1" fill="#f2f5ff" d="M 400.5,71.5 C 427.339,70.8381 440.172,83.8381 439,110.5C 432.734,128.887 419.901,137.054 400.5,135C 382.128,128.772 373.961,115.938 376,96.5C 379.683,83.6514 387.85,75.3181 400.5,71.5 Z"/></g>
<g><path style="opacity:1" fill="#f4f6fe" d="M 407.5,319.5 C 407.5,324.833 407.5,330.167 407.5,335.5C 404.901,335.549 402.734,336.549 401,338.5C 399.029,347.141 399.029,355.808 401,364.5C 402.734,366.451 404.901,367.451 407.5,367.5C 407.5,372.833 407.5,378.167 407.5,383.5C 403.91,383.544 401.41,385.211 400,388.5C 399.5,397.494 399.334,406.494 399.5,415.5C 315.833,415.333 232.166,415.5 148.5,416C 146.333,416.833 144.833,418.333 144,420.5C 143.667,439.167 143.333,457.833 143,476.5C 137.556,492.268 126.722,498.101 110.5,494C 103.091,490.261 98.2573,484.428 96,476.5C 95.5,450.835 95.3334,425.169 95.5,399.5C 115.836,399.667 136.169,399.5 156.5,399C 166,396.167 172.167,390 175,380.5C 175.667,344.833 175.667,309.167 175,273.5C 171.765,264.599 165.598,258.766 156.5,256C 133.502,255.5 110.502,255.333 87.5,255.5C 87.5,250.167 87.5,244.833 87.5,239.5C 91.6501,239.513 94.1501,237.513 95,233.5C 95.6667,190.167 95.6667,146.833 95,103.5C 93.4477,97.8253 90.9477,92.6586 87.5,88C 159.499,87.5 231.499,87.3333 303.5,87.5C 303.062,99.5758 303.562,111.576 305,123.5C 309.193,131.599 315.859,135.932 325,136.5C 325.667,137.833 325.667,139.167 325,140.5C 319.348,146.972 318.014,154.305 321,162.5C 328.463,172.297 336.963,181.13 346.5,189C 355.11,192.872 363.11,191.872 370.5,186C 371.833,185.333 373.167,185.333 374.5,186C 376.233,200.903 384.567,208.07 399.5,207.5C 399.333,242.835 399.5,278.168 400,313.5C 400.863,317.518 403.363,319.518 407.5,319.5 Z"/></g>
<g><path style="opacity:1" fill="#cbd2ea" d="M 49.5,88.5 C 51.4672,88.2606 53.3005,88.5939 55,89.5C 58.445,94.0552 61.1117,99.0552 63,104.5C 63.5,138.832 63.6667,173.165 63.5,207.5C 52.8333,207.5 42.1667,207.5 31.5,207.5C 31.3333,173.498 31.5,139.498 32,105.5C 35.0866,96.9121 40.92,91.2454 49.5,88.5 Z"/></g>
<g><path style="opacity:1" fill="#95a0c2" d="M 49.5,88.5 C 63.7157,86.1999 73.549,91.8665 79,105.5C 79.5,139.498 79.6667,173.498 79.5,207.5C 74.1667,207.5 68.8333,207.5 63.5,207.5C 63.6667,173.165 63.5,138.832 63,104.5C 61.1117,99.0552 58.445,94.0552 55,89.5C 53.3005,88.5939 51.4672,88.2606 49.5,88.5 Z"/></g>
<g><path style="opacity:1" fill="#96a1c3" d="M 132.5,127.5 C 150.17,127.333 167.836,127.5 185.5,128C 191.448,130.433 192.948,134.6 190,140.5C 188.829,141.893 187.329,142.727 185.5,143C 167.833,143.667 150.167,143.667 132.5,143C 127.465,139.987 126.298,135.82 129,130.5C 130.145,129.364 131.312,128.364 132.5,127.5 Z"/></g>
<g><path style="opacity:1" fill="#96a1c3" d="M 132.5,159.5 C 150.17,159.333 167.836,159.5 185.5,160C 191.448,162.433 192.948,166.6 190,172.5C 188.829,173.893 187.329,174.727 185.5,175C 167.833,175.667 150.167,175.667 132.5,175C 127.465,171.987 126.298,167.82 129,162.5C 130.145,161.364 131.312,160.364 132.5,159.5 Z"/></g>
<g><path style="opacity:1" fill="#96a1c3" d="M 212.5,159.5 C 235.502,159.333 258.502,159.5 281.5,160C 287.448,162.433 288.948,166.6 286,172.5C 284.829,173.893 283.329,174.727 281.5,175C 258.5,175.667 235.5,175.667 212.5,175C 207.465,171.987 206.298,167.82 209,162.5C 210.145,161.364 211.312,160.364 212.5,159.5 Z"/></g>
<g><path style="opacity:1" fill="#97a2c4" d="M 132.5,191.5 C 140.585,191.099 148.585,191.599 156.5,193C 160.5,197.333 160.5,201.667 156.5,206C 148.579,207.568 140.579,207.901 132.5,207C 127.465,203.987 126.298,199.82 129,194.5C 130.145,193.364 131.312,192.364 132.5,191.5 Z"/></g>
<g><path style="opacity:1" fill="#96a1c3" d="M 180.5,191.5 C 230.168,191.333 279.834,191.5 329.5,192C 335.448,194.433 336.948,198.6 334,204.5C 332.829,205.893 331.329,206.727 329.5,207C 279.833,207.667 230.167,207.667 180.5,207C 175.465,203.987 174.298,199.82 177,194.5C 178.145,193.364 179.312,192.364 180.5,191.5 Z"/></g>
<g><path style="opacity:1" fill="#96a1c3" d="M 132.5,223.5 C 150.17,223.333 167.836,223.5 185.5,224C 191.448,226.433 192.948,230.6 190,236.5C 188.829,237.893 187.329,238.727 185.5,239C 167.833,239.667 150.167,239.667 132.5,239C 127.465,235.987 126.298,231.82 129,226.5C 130.145,225.364 131.312,224.364 132.5,223.5 Z"/></g>
<g><path style="opacity:1" fill="#96a1c3" d="M 212.5,223.5 C 262.168,223.333 311.834,223.5 361.5,224C 367.448,226.433 368.948,230.6 366,236.5C 364.829,237.893 363.329,238.727 361.5,239C 311.833,239.667 262.167,239.667 212.5,239C 207.465,235.987 206.298,231.82 209,226.5C 210.145,225.364 211.312,224.364 212.5,223.5 Z"/></g>
<g><path style="opacity:0.997" fill="#033c59" d="M 87.5,255.5 C 110.502,255.333 133.502,255.5 156.5,256C 165.598,258.766 171.765,264.599 175,273.5C 175.667,309.167 175.667,344.833 175,380.5C 172.167,390 166,396.167 156.5,399C 136.169,399.5 115.836,399.667 95.5,399.5C 95.3334,425.169 95.5,450.835 96,476.5C 98.2573,484.428 103.091,490.261 110.5,494C 126.722,498.101 137.556,492.268 143,476.5C 143.333,457.833 143.667,439.167 144,420.5C 144.833,418.333 146.333,416.833 148.5,416C 232.166,415.5 315.833,415.333 399.5,415.5C 399.334,406.494 399.5,397.494 400,388.5C 401.41,385.211 403.91,383.544 407.5,383.5C 410.961,383.146 413.461,384.479 415,387.5C 415.5,396.827 415.666,406.161 415.5,415.5C 435.503,415.333 455.503,415.5 475.5,416C 477.333,416.5 478.5,417.667 479,419.5C 479.955,441.217 479.622,462.884 478,484.5C 472.719,498.62 462.885,507.62 448.5,511.5C 335.833,511.5 223.167,511.5 110.5,511.5C 96.1147,507.62 86.2814,498.62 81,484.5C 79.5334,456.217 79.0334,427.884 79.5,399.5C 58.4974,399.667 37.4974,399.5 16.5,399C 8.31563,395.981 2.64896,390.481 -0.5,382.5C -0.5,345.833 -0.5,309.167 -0.5,272.5C 2.64896,264.519 8.31563,259.019 16.5,256C 40.1643,255.5 63.831,255.333 87.5,255.5 Z"/></g>
<g><path style="opacity:1" fill="#96a1c3" d="M 196.5,255.5 C 224.835,255.333 253.169,255.5 281.5,256C 287.448,258.433 288.948,262.6 286,268.5C 284.829,269.893 283.329,270.727 281.5,271C 253.167,271.667 224.833,271.667 196.5,271C 191.465,267.987 190.298,263.82 193,258.5C 194.145,257.364 195.312,256.364 196.5,255.5 Z"/></g>
<g><path style="opacity:1" fill="#96a1c3" d="M 308.5,255.5 C 326.17,255.333 343.836,255.5 361.5,256C 367.448,258.433 368.948,262.6 366,268.5C 364.829,269.893 363.329,270.727 361.5,271C 343.833,271.667 326.167,271.667 308.5,271C 303.465,267.987 302.298,263.82 305,258.5C 306.145,257.364 307.312,256.364 308.5,255.5 Z"/></g>
<g><path style="opacity:1" fill="#0174fe" d="M 20.5,271.5 C 65.8935,271.015 111.227,271.515 156.5,273C 157.701,273.903 158.535,275.069 159,276.5C 159.98,311.227 159.646,345.894 158,380.5C 156.829,381.893 155.329,382.727 153.5,383C 108.416,383.989 63.4164,383.656 18.5,382C 17.1068,380.829 16.2735,379.329 16,377.5C 15.3333,343.833 15.3333,310.167 16,276.5C 17.025,274.313 18.525,272.646 20.5,271.5 Z"/></g>
<g><path style="opacity:1" fill="#f0f4ff" d="M 91.5,287.5 C 98.01,286.244 102.01,288.744 103.5,295C 97.9014,318.228 92.0681,341.394 86,364.5C 80.5586,368.926 75.8919,368.259 72,362.5C 71.3333,360.167 71.3333,357.833 72,355.5C 77,335.5 82,315.5 87,295.5C 87.7384,292.352 89.2384,289.685 91.5,287.5 Z"/></g>
<g><path style="opacity:1" fill="#96a1c3" d="M 196.5,287.5 C 251.501,287.333 306.501,287.5 361.5,288C 367.448,290.433 368.948,294.6 366,300.5C 364.829,301.893 363.329,302.727 361.5,303C 306.5,303.667 251.5,303.667 196.5,303C 191.465,299.987 190.298,295.82 193,290.5C 194.145,289.364 195.312,288.364 196.5,287.5 Z"/></g>
<g><path style="opacity:1" fill="#eff4ff" d="M 52.5,303.5 C 62.0328,303.241 65.1995,307.574 62,316.5C 58.3176,320.015 54.8176,323.682 51.5,327.5C 55.5192,331.685 59.3525,336.018 63,340.5C 63.7466,350.048 59.5799,353.215 50.5,350C 44.6667,344.167 38.8333,338.333 33,332.5C 31,329.167 31,325.833 33,322.5C 39.3952,315.937 45.8952,309.603 52.5,303.5 Z"/></g>
<g><path style="opacity:1" fill="#eff4ff" d="M 116.5,303.5 C 119.32,303.248 121.986,303.748 124.5,305C 130.333,310.833 136.167,316.667 142,322.5C 144,325.833 144,329.167 142,332.5C 136.167,338.333 130.333,344.167 124.5,350C 114,352.833 110.167,349 113,338.5C 116.682,334.985 120.182,331.318 123.5,327.5C 119.481,323.315 115.647,318.982 112,314.5C 110.776,309.626 112.276,305.959 116.5,303.5 Z"/></g>
<g><path style="opacity:1" fill="#97a1c3" d="M 196.5,319.5 C 208.838,319.333 221.171,319.5 233.5,320C 238.599,321.695 240.432,325.195 239,330.5C 238.065,333.102 236.232,334.602 233.5,335C 221.167,335.667 208.833,335.667 196.5,335C 191.465,331.987 190.298,327.82 193,322.5C 194.145,321.364 195.312,320.364 196.5,319.5 Z"/></g>
<g><path style="opacity:1" fill="#96a1c3" d="M 260.5,319.5 C 294.168,319.333 327.835,319.5 361.5,320C 367.448,322.433 368.948,326.6 366,332.5C 364.829,333.893 363.329,334.727 361.5,335C 327.833,335.667 294.167,335.667 260.5,335C 255.465,331.987 254.298,327.82 257,322.5C 258.145,321.364 259.312,320.364 260.5,319.5 Z"/></g>
<g><path style="opacity:0.983" fill="#063d5a" d="M 407.5,335.5 C 409.936,335.317 412.103,335.984 414,337.5C 415.109,342.056 415.609,346.722 415.5,351.5C 415.333,355.5 415.167,359.5 415,363.5C 413.461,366.521 410.961,367.854 407.5,367.5C 404.901,367.451 402.734,366.451 401,364.5C 399.029,355.808 399.029,347.141 401,338.5C 402.734,336.549 404.901,335.549 407.5,335.5 Z"/></g>
<g><path style="opacity:1" fill="#96a1c3" d="M 196.5,351.5 C 222.169,351.333 247.835,351.5 273.5,352C 279.448,354.433 280.948,358.6 278,364.5C 276.829,365.893 275.329,366.727 273.5,367C 247.833,367.667 222.167,367.667 196.5,367C 191.465,363.987 190.298,359.82 193,354.5C 194.145,353.364 195.312,352.364 196.5,351.5 Z"/></g>
<g><path style="opacity:1" fill="#97a2c4" d="M 300.5,351.5 C 308.585,351.099 316.585,351.599 324.5,353C 328.5,357.333 328.5,361.667 324.5,366C 316.579,367.568 308.579,367.901 300.5,367C 295.465,363.987 294.298,359.82 297,354.5C 298.145,353.364 299.312,352.364 300.5,351.5 Z"/></g>
<g><path style="opacity:1" fill="#96a1c3" d="M 196.5,383.5 C 222.169,383.333 247.835,383.5 273.5,384C 279.448,386.433 280.948,390.6 278,396.5C 276.829,397.893 275.329,398.727 273.5,399C 247.833,399.667 222.167,399.667 196.5,399C 191.465,395.987 190.298,391.82 193,386.5C 194.145,385.364 195.312,384.364 196.5,383.5 Z"/></g>
<g><path style="opacity:1" fill="#cbd2ea" d="M 463.5,469.5 C 457.777,474.527 451.11,477.694 443.5,479C 348.834,479.5 254.167,479.667 159.5,479.5C 159.5,478.167 159.5,476.833 159.5,475.5C 159.5,460.833 159.5,446.167 159.5,431.5C 260.833,431.5 362.167,431.5 463.5,431.5C 463.5,444.167 463.5,456.833 463.5,469.5 Z"/></g>
<g><path style="opacity:1" fill="#95a0c2" d="M 463.5,469.5 C 463.447,482.715 457.114,491.215 444.5,495C 346.833,495.667 249.167,495.667 151.5,495C 156.02,489.144 158.687,482.644 159.5,475.5C 159.5,476.833 159.5,478.167 159.5,479.5C 254.167,479.667 348.834,479.5 443.5,479C 451.11,477.694 457.777,474.527 463.5,469.5 Z"/></g>
</svg>
