<?xml version="1.0" encoding="UTF-8"?>
<!DOCTYPE svg PUBLIC "-//W3C//DTD SVG 1.1//EN" "http://www.w3.org/Graphics/SVG/1.1/DTD/svg11.dtd">
<svg xmlns="http://www.w3.org/2000/svg" version="1.1" width="512px" height="512px" style="shape-rendering:geometricPrecision; text-rendering:geometricPrecision; image-rendering:optimizeQuality; fill-rule:evenodd; clip-rule:evenodd" xmlns:xlink="http://www.w3.org/1999/xlink">
<g><path style="opacity:0.988" fill="#010103" d="M 56.5,-0.5 C 189.167,-0.5 321.833,-0.5 454.5,-0.5C 460.332,2.50064 464.165,7.1673 466,13.5C 466.667,42.5 466.667,71.5 466,100.5C 462.586,110.068 455.753,114.735 445.5,114.5C 445.5,120.167 445.5,125.833 445.5,131.5C 454.486,130.906 460.986,134.573 465,142.5C 466.144,157.936 466.644,173.436 466.5,189C 466.644,204.564 466.144,220.064 465,235.5C 461.231,243.968 454.731,247.635 445.5,246.5C 445.5,252.5 445.5,258.5 445.5,264.5C 454.25,263.458 460.75,266.792 465,274.5C 466.136,290.282 466.636,306.116 466.5,322C 466.644,337.564 466.144,353.064 465,368.5C 460.986,376.427 454.486,380.094 445.5,379.5C 445.5,385.167 445.5,390.833 445.5,396.5C 455.753,396.265 462.586,400.932 466,410.5C 466.667,439.5 466.667,468.5 466,497.5C 464.165,503.833 460.332,508.499 454.5,511.5C 321.833,511.5 189.167,511.5 56.5,511.5C 50.6684,508.499 46.8351,503.833 45,497.5C 44.3333,468.5 44.3333,439.5 45,410.5C 48.4139,400.932 55.2473,396.265 65.5,396.5C 65.5,390.833 65.5,385.167 65.5,379.5C 56.5141,380.094 50.0141,376.427 46,368.5C 44.8562,353.064 44.3562,337.564 44.5,322C 44.3562,306.436 44.8562,290.936 46,275.5C 49.7685,267.032 56.2685,263.365 65.5,264.5C 65.5,258.5 65.5,252.5 65.5,246.5C 56.7496,247.542 50.2496,244.208 46,236.5C 44.864,220.718 44.364,204.884 44.5,189C 44.3562,173.436 44.8562,157.936 46,142.5C 50.0141,134.573 56.5141,130.906 65.5,131.5C 65.5,125.833 65.5,120.167 65.5,114.5C 55.2473,114.735 48.4139,110.068 45,100.5C 44.3333,71.5 44.3333,42.5 45,13.5C 46.8351,7.1673 50.6684,2.50064 56.5,-0.5 Z"/></g>
<g><path style="opacity:1" fill="#4071c8" d="M 429.5,14.5 C 429.825,22.3516 429.492,30.0182 428.5,37.5C 426.075,34.9542 423.075,33.4542 419.5,33C 375.833,32.3333 332.167,32.3333 288.5,33C 278.292,37.5898 274.625,45.4231 277.5,56.5C 274.772,67.1215 278.106,74.9548 287.5,80C 332.167,80.6667 376.833,80.6667 421.5,80C 424.324,78.7554 426.991,77.2554 429.5,75.5C 429.5,83.1667 429.5,90.8333 429.5,98.5C 354.166,98.3333 278.833,98.5 203.5,99C 200.183,100.48 198.183,102.98 197.5,106.5C 190.549,107.066 183.882,106.399 177.5,104.5C 176.723,101.888 175.056,100.055 172.5,99C 135.168,98.5 97.8348,98.3333 60.5,98.5C 60.1716,70.5927 60.5049,42.7593 61.5,15C 184.166,14.5 306.833,14.3333 429.5,14.5 Z"/></g>
<g><path style="opacity:1" fill="#3966bf" d="M 429.5,14.5 C 436.422,14.1878 443.256,14.5212 450,15.5C 450.5,43.1647 450.667,70.8313 450.5,98.5C 443.5,98.5 436.5,98.5 429.5,98.5C 429.5,90.8333 429.5,83.1667 429.5,75.5C 430.511,73.6284 431.345,71.6284 432,69.5C 432.667,60.8333 432.667,52.1667 432,43.5C 431.074,41.3083 429.907,39.3083 428.5,37.5C 429.492,30.0182 429.825,22.3516 429.5,14.5 Z"/></g>
<g><path style="opacity:1" fill="#020304" d="M 89.5,32.5 C 119.816,26.3165 131.983,38.3165 126,68.5C 124.167,74.3333 120.333,78.1667 114.5,80C 105.833,80.6667 97.1667,80.6667 88.5,80C 84.7403,78.5388 81.9069,76.0388 80,72.5C 78.4133,62.9084 78.0799,53.2417 79,43.5C 81.3566,38.6455 84.8566,34.9788 89.5,32.5 Z"/></g>
<g><path style="opacity:1" fill="#010203" d="M 155.5,32.5 C 189.154,27.3288 200.654,40.9954 190,73.5C 187.659,76.8355 184.493,79.0021 180.5,80C 150.217,86.0485 138.383,73.8818 145,43.5C 147.357,38.6455 150.857,34.9788 155.5,32.5 Z"/></g>
<g><path style="opacity:1" fill="#030204" d="M 222.5,32.5 C 252.924,27.0895 264.757,39.4228 258,69.5C 256.813,73.7092 254.313,76.8759 250.5,79C 218.827,88.3173 205.661,76.8173 211,44.5C 213.019,38.6498 216.852,34.6498 222.5,32.5 Z"/></g>
<g><path style="opacity:1" fill="#000102" d="M 428.5,37.5 C 429.907,39.3083 431.074,41.3083 432,43.5C 432.667,52.1667 432.667,60.8333 432,69.5C 431.345,71.6284 430.511,73.6284 429.5,75.5C 426.991,77.2554 424.324,78.7554 421.5,80C 376.833,80.6667 332.167,80.6667 287.5,80C 278.106,74.9548 274.772,67.1215 277.5,56.5C 274.625,45.4231 278.292,37.5898 288.5,33C 332.167,32.3333 375.833,32.3333 419.5,33C 423.075,33.4542 426.075,34.9542 428.5,37.5 Z"/></g>
<g><path style="opacity:1" fill="#1f3767" d="M 417.5,48.5 C 375.833,48.5 334.167,48.5 292.5,48.5C 292.5,54.1667 292.5,59.8333 292.5,65.5C 291.51,59.69 291.177,53.69 291.5,47.5C 333.67,47.168 375.67,47.5013 417.5,48.5 Z"/></g>
<g><path style="opacity:1" fill="#9ff0bf" d="M 93.5,47.5 C 99.5,47.5 105.5,47.5 111.5,47.5C 111.5,53.5 111.5,59.5 111.5,65.5C 105.5,65.5 99.5,65.5 93.5,65.5C 93.5,59.5 93.5,53.5 93.5,47.5 Z"/></g>
<g><path style="opacity:1" fill="#a0f3c1" d="M 159.5,47.5 C 165.5,47.5 171.5,47.5 177.5,47.5C 177.5,53.5 177.5,59.5 177.5,65.5C 171.5,65.5 165.5,65.5 159.5,65.5C 159.5,59.5 159.5,53.5 159.5,47.5 Z"/></g>
<g><path style="opacity:1" fill="#dd76af" d="M 225.5,47.5 C 231.5,47.5 237.5,47.5 243.5,47.5C 243.5,53.5 243.5,59.5 243.5,65.5C 237.5,65.5 231.5,65.5 225.5,65.5C 225.5,59.5 225.5,53.5 225.5,47.5 Z"/></g>
<g><path style="opacity:1" fill="#26447e" d="M 417.5,48.5 C 417.5,54.1667 417.5,59.8333 417.5,65.5C 375.833,65.5 334.167,65.5 292.5,65.5C 292.5,59.8333 292.5,54.1667 292.5,48.5C 334.167,48.5 375.833,48.5 417.5,48.5 Z"/></g>
<g><path style="opacity:1" fill="#678dd4" d="M 177.5,104.5 C 183.882,106.399 190.549,107.066 197.5,106.5C 198.092,110.089 200.092,112.422 203.5,113.5C 278.665,114.499 353.998,114.833 429.5,114.5C 429.5,120.167 429.5,125.833 429.5,131.5C 313.5,131.5 197.5,131.5 81.5,131.5C 81.5,125.833 81.5,120.167 81.5,114.5C 111.671,114.831 141.671,114.498 171.5,113.5C 176.208,112.441 178.208,109.441 177.5,104.5 Z"/></g>
<g><path style="opacity:1" fill="#3a5078" d="M 171.5,113.5 C 141.671,114.498 111.671,114.831 81.5,114.5C 81.5,120.167 81.5,125.833 81.5,131.5C 197.5,131.5 313.5,131.5 429.5,131.5C 429.5,125.833 429.5,120.167 429.5,114.5C 353.998,114.833 278.665,114.499 203.5,113.5C 279.167,113.5 354.833,113.5 430.5,113.5C 430.5,119.833 430.5,126.167 430.5,132.5C 313.833,132.5 197.167,132.5 80.5,132.5C 80.5,126.167 80.5,119.833 80.5,113.5C 110.833,113.5 141.167,113.5 171.5,113.5 Z"/></g>
<g><path style="opacity:1" fill="#4071c8" d="M 61.5,147.5 C 184.167,147.5 306.833,147.5 429.5,147.5C 429.5,155.167 429.5,162.833 429.5,170.5C 426.991,168.745 424.324,167.245 421.5,166C 376.833,165.333 332.167,165.333 287.5,166C 278.228,170.893 274.894,178.56 277.5,189C 274.993,199.978 278.66,207.978 288.5,213C 332.167,213.667 375.833,213.667 419.5,213C 422.839,212.158 425.839,210.658 428.5,208.5C 429.492,215.982 429.825,223.648 429.5,231.5C 403.498,231.333 377.498,231.5 351.5,232C 348.603,233.715 347.269,236.215 347.5,239.5C 340.833,239.5 334.167,239.5 327.5,239.5C 327.456,235.91 325.789,233.41 322.5,232C 235.5,231.667 148.5,231.333 61.5,231C 60.1683,203.069 60.1683,175.236 61.5,147.5 Z"/></g>
<g><path style="opacity:1" fill="#345cab" d="M 61.5,147.5 C 190.666,146.334 319.999,146.167 449.5,147C 450,147.5 450.5,148 451,148.5C 451.667,175.5 451.667,202.5 451,229.5C 450.5,230 450,230.5 449.5,231C 442.842,231.5 436.175,231.666 429.5,231.5C 429.825,223.648 429.492,215.982 428.5,208.5C 430.18,206.473 431.347,204.139 432,201.5C 432.667,192.833 432.667,184.167 432,175.5C 430.906,173.922 430.072,172.255 429.5,170.5C 429.5,162.833 429.5,155.167 429.5,147.5C 306.833,147.5 184.167,147.5 61.5,147.5 Z"/></g>
<g><path style="opacity:1" fill="#020405" d="M 88.5,165.5 C 97.1731,165.334 105.84,165.5 114.5,166C 119.91,167.743 123.744,171.243 126,176.5C 132.5,207.333 120.333,219.5 89.5,213C 84.2425,210.744 80.7425,206.91 79,201.5C 78.3333,192.833 78.3333,184.167 79,175.5C 81.0223,170.98 84.189,167.647 88.5,165.5 Z"/></g>
<g><path style="opacity:1" fill="#010203" d="M 154.5,165.5 C 163.506,165.334 172.506,165.5 181.5,166C 190.844,170.522 194.51,178.022 192.5,188.5C 192.554,193.899 192.054,199.233 191,204.5C 188.708,208.788 185.208,211.622 180.5,213C 150.172,219.004 138.338,206.837 145,176.5C 146.97,171.704 150.137,168.037 154.5,165.5 Z"/></g>
<g><path style="opacity:1" fill="#030205" d="M 221.5,165.5 C 230.173,165.334 238.84,165.5 247.5,166C 251.709,167.187 254.876,169.687 257,173.5C 266.295,205.194 254.795,218.36 222.5,213C 216.667,211.167 212.833,207.333 211,201.5C 210.333,193.167 210.333,184.833 211,176.5C 213.357,171.645 216.857,167.979 221.5,165.5 Z"/></g>
<g><path style="opacity:1" fill="#010103" d="M 429.5,170.5 C 430.072,172.255 430.906,173.922 432,175.5C 432.667,184.167 432.667,192.833 432,201.5C 431.347,204.139 430.18,206.473 428.5,208.5C 425.839,210.658 422.839,212.158 419.5,213C 375.833,213.667 332.167,213.667 288.5,213C 278.66,207.978 274.993,199.978 277.5,189C 274.894,178.56 278.228,170.893 287.5,166C 332.167,165.333 376.833,165.333 421.5,166C 424.324,167.245 426.991,168.745 429.5,170.5 Z"/></g>
<g><path style="opacity:1" fill="#a1f5c2" d="M 110.5,180.5 C 110.5,186.167 110.5,191.833 110.5,197.5C 104.833,197.5 99.1667,197.5 93.5,197.5C 93.5,191.833 93.5,186.167 93.5,180.5C 99.1667,180.5 104.833,180.5 110.5,180.5 Z"/></g>
<g><path style="opacity:1" fill="#a0f2c0" d="M 159.5,180.5 C 165.5,180.5 171.5,180.5 177.5,180.5C 177.5,186.5 177.5,192.5 177.5,198.5C 171.5,198.5 165.5,198.5 159.5,198.5C 159.5,192.5 159.5,186.5 159.5,180.5 Z"/></g>
<g><path style="opacity:1" fill="#dd76af" d="M 225.5,180.5 C 231.5,180.5 237.5,180.5 243.5,180.5C 243.5,186.5 243.5,192.5 243.5,198.5C 237.5,198.5 231.5,198.5 225.5,198.5C 225.5,192.5 225.5,186.5 225.5,180.5 Z"/></g>
<g><path style="opacity:1" fill="#25427c" d="M 291.5,180.5 C 333.5,180.5 375.5,180.5 417.5,180.5C 417.5,186.5 417.5,192.5 417.5,198.5C 375.832,198.667 334.165,198.5 292.5,198C 291.525,192.259 291.192,186.425 291.5,180.5 Z"/></g>
<g><path style="opacity:1" fill="#80c29a" d="M 110.5,180.5 C 111.49,186.31 111.823,192.31 111.5,198.5C 105.31,198.823 99.31,198.49 93.5,197.5C 99.1667,197.5 104.833,197.5 110.5,197.5C 110.5,191.833 110.5,186.167 110.5,180.5 Z"/></g>
<g><path style="opacity:1" fill="#678dd4" d="M 327.5,239.5 C 334.167,239.5 340.833,239.5 347.5,239.5C 347.84,242.675 349.507,244.841 352.5,246C 378.498,246.5 404.498,246.667 430.5,246.5C 430.5,252.5 430.5,258.5 430.5,264.5C 313.833,264.5 197.167,264.5 80.5,264.5C 80.5,258.5 80.5,252.5 80.5,246.5C 160.834,246.667 241.167,246.5 321.5,246C 325.065,245.268 327.065,243.102 327.5,239.5 Z"/></g>
<g><path style="opacity:1" fill="#4070c8" d="M 449.5,280.5 C 442.833,280.5 436.167,280.5 429.5,280.5C 429.825,288.019 429.492,295.352 428.5,302.5C 425.839,300.342 422.839,298.842 419.5,298C 375.833,297.333 332.167,297.333 288.5,298C 278.271,302.629 274.605,310.462 277.5,321.5C 274.772,332.122 278.106,339.955 287.5,345C 332.167,345.667 376.833,345.667 421.5,345C 424.324,343.755 426.991,342.255 429.5,340.5C 429.5,348.167 429.5,355.833 429.5,363.5C 343.998,363.167 258.665,363.501 173.5,364.5C 170.131,365.559 168.464,367.892 168.5,371.5C 161.833,371.5 155.167,371.5 148.5,371.5C 147.857,368.012 145.857,365.512 142.5,364C 115.169,363.5 87.8354,363.333 60.5,363.5C 60.1716,335.593 60.5049,307.759 61.5,280C 191.001,279.167 320.334,279.334 449.5,280.5 Z"/></g>
<g><path style="opacity:1" fill="#365fb2" d="M 449.5,280.5 C 450.832,308.236 450.832,336.069 449.5,364C 357.501,364.5 265.501,364.667 173.5,364.5C 258.665,363.501 343.998,363.167 429.5,363.5C 429.5,355.833 429.5,348.167 429.5,340.5C 430.511,338.628 431.345,336.628 432,334.5C 432.667,325.833 432.667,317.167 432,308.5C 431.074,306.308 429.907,304.308 428.5,302.5C 429.492,295.352 429.825,288.019 429.5,280.5C 436.167,280.5 442.833,280.5 449.5,280.5 Z"/></g>
<g><path style="opacity:1" fill="#020304" d="M 89.5,297.5 C 122.975,292.401 134.475,306.068 124,338.5C 121.635,341.869 118.468,344.036 114.5,345C 105.833,345.667 97.1667,345.667 88.5,345C 84.7403,343.539 81.9069,341.039 80,337.5C 78.4133,327.908 78.0799,318.242 79,308.5C 81.3566,303.645 84.8566,299.979 89.5,297.5 Z"/></g>
<g><path style="opacity:1" fill="#020203" d="M 156.5,297.5 C 186.38,291.88 198.214,303.88 192,333.5C 190.628,337.862 188.128,341.362 184.5,344C 174.574,345.59 164.574,345.923 154.5,345C 149.94,342.773 146.774,339.273 145,334.5C 144.333,325.833 144.333,317.167 145,308.5C 147.437,303.226 151.271,299.56 156.5,297.5 Z"/></g>
<g><path style="opacity:1" fill="#030204" d="M 222.5,297.5 C 252.866,292.033 264.7,304.366 258,334.5C 256.813,338.709 254.313,341.876 250.5,344C 218.783,353.271 205.616,341.771 211,309.5C 213.019,303.65 216.852,299.65 222.5,297.5 Z"/></g>
<g><path style="opacity:1" fill="#010103" d="M 428.5,302.5 C 429.907,304.308 431.074,306.308 432,308.5C 432.667,317.167 432.667,325.833 432,334.5C 431.345,336.628 430.511,338.628 429.5,340.5C 426.991,342.255 424.324,343.755 421.5,345C 376.833,345.667 332.167,345.667 287.5,345C 278.106,339.955 274.772,332.122 277.5,321.5C 274.605,310.462 278.271,302.629 288.5,298C 332.167,297.333 375.833,297.333 419.5,298C 422.839,298.842 425.839,300.342 428.5,302.5 Z"/></g>
<g><path style="opacity:1" fill="#a1f5c2" d="M 93.5,313.5 C 99.1667,313.5 104.833,313.5 110.5,313.5C 110.5,319.167 110.5,324.833 110.5,330.5C 110.5,324.833 110.5,319.167 110.5,313.5C 104.833,313.5 99.1667,313.5 93.5,313.5 Z"/></g>
<g><path style="opacity:1" fill="#82c59d" d="M 93.5,313.5 C 99.31,312.51 105.31,312.177 111.5,312.5C 111.823,318.69 111.49,324.69 110.5,330.5C 110.5,324.833 110.5,319.167 110.5,313.5C 104.833,313.5 99.1667,313.5 93.5,313.5 Z"/></g>
<g><path style="opacity:1" fill="#a0f2c0" d="M 159.5,312.5 C 165.5,312.5 171.5,312.5 177.5,312.5C 177.5,318.5 177.5,324.5 177.5,330.5C 171.5,330.5 165.5,330.5 159.5,330.5C 159.5,324.5 159.5,318.5 159.5,312.5 Z"/></g>
<g><path style="opacity:1" fill="#ad5c89" d="M 243.5,313.5 C 237.833,313.5 232.167,313.5 226.5,313.5C 226.5,319.167 226.5,324.833 226.5,330.5C 225.51,324.69 225.177,318.69 225.5,312.5C 231.69,312.177 237.69,312.51 243.5,313.5 Z"/></g>
<g><path style="opacity:1" fill="#e179b2" d="M 243.5,313.5 C 243.5,319.167 243.5,324.833 243.5,330.5C 237.833,330.5 232.167,330.5 226.5,330.5C 226.5,324.833 226.5,319.167 226.5,313.5C 232.167,313.5 237.833,313.5 243.5,313.5 Z"/></g>
<g><path style="opacity:1" fill="#25427c" d="M 292.5,312.5 C 334.167,312.5 375.833,312.5 417.5,312.5C 417.5,318.5 417.5,324.5 417.5,330.5C 375.5,330.5 333.5,330.5 291.5,330.5C 291.211,324.409 291.545,318.409 292.5,312.5 Z"/></g>
<g><path style="opacity:1" fill="#678dd4" d="M 148.5,371.5 C 155.167,371.5 161.833,371.5 168.5,371.5C 168.464,375.108 170.131,377.441 173.5,378.5C 258.665,379.499 343.998,379.833 429.5,379.5C 429.5,385.167 429.5,390.833 429.5,396.5C 313.5,396.5 197.5,396.5 81.5,396.5C 81.5,390.833 81.5,385.167 81.5,379.5C 102.007,379.83 122.34,379.497 142.5,378.5C 145.908,377.422 147.908,375.089 148.5,371.5 Z"/></g>
<g><path style="opacity:1" fill="#3c527c" d="M 142.5,378.5 C 122.34,379.497 102.007,379.83 81.5,379.5C 81.5,385.167 81.5,390.833 81.5,396.5C 197.5,396.5 313.5,396.5 429.5,396.5C 429.5,390.833 429.5,385.167 429.5,379.5C 343.998,379.833 258.665,379.499 173.5,378.5C 259.167,378.5 344.833,378.5 430.5,378.5C 430.5,384.833 430.5,391.167 430.5,397.5C 313.833,397.5 197.167,397.5 80.5,397.5C 80.5,391.167 80.5,384.833 80.5,378.5C 101.167,378.5 121.833,378.5 142.5,378.5 Z"/></g>
<g><path style="opacity:1" fill="#4071c8" d="M 429.5,412.5 C 429.5,420.167 429.5,427.833 429.5,435.5C 426.991,433.745 424.324,432.245 421.5,431C 376.833,430.333 332.167,430.333 287.5,431C 278.228,435.893 274.894,443.56 277.5,454C 274.857,465.128 278.524,473.128 288.5,478C 332.167,478.667 375.833,478.667 419.5,478C 423.075,477.546 426.075,476.046 428.5,473.5C 429.492,480.982 429.825,488.648 429.5,496.5C 306.833,496.667 184.166,496.5 61.5,496C 60.5049,468.241 60.1716,440.407 60.5,412.5C 183.5,412.5 306.5,412.5 429.5,412.5 Z"/></g>
<g><path style="opacity:1" fill="#3966bf" d="M 429.5,412.5 C 436.5,412.5 443.5,412.5 450.5,412.5C 450.667,440.169 450.5,467.835 450,495.5C 443.256,496.479 436.422,496.812 429.5,496.5C 429.825,488.648 429.492,480.982 428.5,473.5C 430.18,471.473 431.347,469.139 432,466.5C 432.667,457.833 432.667,449.167 432,440.5C 430.906,438.922 430.072,437.255 429.5,435.5C 429.5,427.833 429.5,420.167 429.5,412.5 Z"/></g>
<g><path style="opacity:1" fill="#020304" d="M 88.5,430.5 C 97.1731,430.334 105.84,430.5 114.5,431C 119.91,432.743 123.744,436.243 126,441.5C 132.5,472.333 120.333,484.5 89.5,478C 84.2425,475.744 80.7425,471.91 79,466.5C 78.3333,457.833 78.3333,449.167 79,440.5C 81.0223,435.98 84.189,432.647 88.5,430.5 Z"/></g>
<g><path style="opacity:1" fill="#010203" d="M 154.5,430.5 C 163.173,430.334 171.84,430.5 180.5,431C 186.236,432.402 190.069,435.902 192,441.5C 198.698,471.802 186.864,483.968 156.5,478C 150.224,476.058 146.39,471.891 145,465.5C 144.333,457.5 144.333,449.5 145,441.5C 147.314,437.025 150.48,433.358 154.5,430.5 Z"/></g>
<g><path style="opacity:1" fill="#030204" d="M 221.5,430.5 C 230.173,430.334 238.84,430.5 247.5,431C 251.709,432.187 254.876,434.687 257,438.5C 266.295,470.194 254.795,483.36 222.5,478C 216.667,476.167 212.833,472.333 211,466.5C 210.333,458.167 210.333,449.833 211,441.5C 213.357,436.645 216.857,432.979 221.5,430.5 Z"/></g>
<g><path style="opacity:1" fill="#000102" d="M 429.5,435.5 C 430.072,437.255 430.906,438.922 432,440.5C 432.667,449.167 432.667,457.833 432,466.5C 431.347,469.139 430.18,471.473 428.5,473.5C 426.075,476.046 423.075,477.546 419.5,478C 375.833,478.667 332.167,478.667 288.5,478C 278.524,473.128 274.857,465.128 277.5,454C 274.894,443.56 278.228,435.893 287.5,431C 332.167,430.333 376.833,430.333 421.5,431C 424.324,432.245 426.991,433.745 429.5,435.5 Z"/></g>
<g><path style="opacity:1" fill="#9ff1c0" d="M 93.5,445.5 C 99.5,445.5 105.5,445.5 111.5,445.5C 111.5,451.5 111.5,457.5 111.5,463.5C 105.5,463.5 99.5,463.5 93.5,463.5C 93.5,457.5 93.5,451.5 93.5,445.5 Z"/></g>
<g><path style="opacity:1" fill="#a0f3c1" d="M 159.5,445.5 C 165.5,445.5 171.5,445.5 177.5,445.5C 177.5,451.5 177.5,457.5 177.5,463.5C 171.5,463.5 165.5,463.5 159.5,463.5C 159.5,457.5 159.5,451.5 159.5,445.5 Z"/></g>
<g><path style="opacity:1" fill="#de76af" d="M 225.5,445.5 C 231.5,445.5 237.5,445.5 243.5,445.5C 243.5,451.5 243.5,457.5 243.5,463.5C 237.5,463.5 231.5,463.5 225.5,463.5C 225.5,457.5 225.5,451.5 225.5,445.5 Z"/></g>
<g><path style="opacity:1" fill="#26447e" d="M 292.5,445.5 C 334.167,445.5 375.833,445.5 417.5,445.5C 417.5,451.167 417.5,456.833 417.5,462.5C 375.833,462.5 334.167,462.5 292.5,462.5C 292.5,456.833 292.5,451.167 292.5,445.5 Z"/></g>
<g><path style="opacity:1" fill="#1f3767" d="M 292.5,445.5 C 292.5,451.167 292.5,456.833 292.5,462.5C 334.167,462.5 375.833,462.5 417.5,462.5C 375.67,463.499 333.67,463.832 291.5,463.5C 291.177,457.31 291.51,451.31 292.5,445.5 Z"/></g>
</svg>
