<?xml version="1.0" encoding="UTF-8"?>
<!DOCTYPE svg PUBLIC "-//W3C//DTD SVG 1.1//EN" "http://www.w3.org/Graphics/SVG/1.1/DTD/svg11.dtd">
<svg xmlns="http://www.w3.org/2000/svg" version="1.1" width="512px" height="512px" style="shape-rendering:geometricPrecision; text-rendering:geometricPrecision; image-rendering:optimizeQuality; fill-rule:evenodd; clip-rule:evenodd" xmlns:xlink="http://www.w3.org/1999/xlink">
<g><path style="opacity:0.971" fill="#030202" d="M 178.5,-0.5 C 224.5,-0.5 270.5,-0.5 316.5,-0.5C 317.122,0.626561 317.955,1.62656 319,2.5C 319.667,14.8333 319.667,27.1667 319,39.5C 317.833,40.6667 316.667,41.8333 315.5,43C 326.167,55.6363 331.167,70.303 330.5,87C 330.208,93.9303 329.708,100.764 329,107.5C 373.99,124.161 407.323,153.828 429,196.5C 429.667,198.833 429.667,201.167 429,203.5C 425.919,206.293 422.419,208.46 418.5,210C 370.428,233.038 322.428,256.038 274.5,279C 271.406,279.652 268.406,279.318 265.5,278C 214.086,257.195 162.753,236.195 111.5,215C 108.253,212.261 107.753,209.094 110,205.5C 125.046,170.117 149.046,142.45 182,122.5C 182.5,95.8354 182.667,69.1687 182.5,42.5C 180.278,42.822 178.444,42.1554 177,40.5C 176.333,27.5 176.333,14.5 177,1.5C 177.717,0.955796 178.217,0.28913 178.5,-0.5 Z"/></g>
<g><path style="opacity:1" fill="#59bcdf" d="M 188.5,11.5 C 228.167,11.5 267.833,11.5 307.5,11.5C 307.5,17.8333 307.5,24.1667 307.5,30.5C 267.833,30.5 228.167,30.5 188.5,30.5C 188.5,24.1667 188.5,17.8333 188.5,11.5 Z"/></g>
<g><path style="opacity:1" fill="#edcbaf" d="M 194.5,42.5 C 229.168,42.3333 263.835,42.5 298.5,43C 316.629,59.6445 322.963,80.1445 317.5,104.5C 300.421,100.402 283.088,98.4016 265.5,98.5C 260.28,80.2254 250.613,64.7254 236.5,52C 229.735,49.7566 226.902,52.2566 228,59.5C 234.756,66.2523 240.756,73.5856 246,81.5C 250.194,90.4167 254.194,99.4167 258,108.5C 273.251,132.666 288.251,156.999 303,181.5C 304.176,190.165 300.343,194.832 291.5,195.5C 288.771,195.705 286.438,194.872 284.5,193C 273.89,176.725 262.89,160.725 251.5,145C 228.899,143.778 210.065,134.945 195,118.5C 194.5,93.1689 194.333,67.8355 194.5,42.5 Z"/></g>
<g><path style="opacity:1" fill="#bc1d2c" d="M 273.5,111.5 C 336.702,113.603 384.035,142.103 415.5,197C 367.699,220.933 319.532,244.1 271,266.5C 221.427,247.093 172.26,226.926 123.5,206C 137.942,173.89 160.442,149.057 191,131.5C 206.36,145.761 224.527,153.927 245.5,156C 256.096,172.527 267.429,188.527 279.5,204C 295.502,210.586 307.335,206.086 315,190.5C 315.667,186.833 315.667,183.167 315,179.5C 301.392,156.603 287.559,133.936 273.5,111.5 Z"/></g>
<g><path style="opacity:0.977" fill="#030202" d="M 488.5,511.5 C 442.5,511.5 396.5,511.5 350.5,511.5C 349.878,510.373 349.045,509.373 348,508.5C 347.333,496.167 347.333,483.833 348,471.5C 349.167,470.333 350.333,469.167 351.5,468C 349.5,465.333 347.5,462.667 345.5,460C 324.253,467.651 302.253,470.984 279.5,470C 278.667,469.167 277.833,468.333 277,467.5C 276.333,409.5 276.333,351.5 277,293.5C 277.374,292.584 277.874,291.75 278.5,291C 329.378,266.061 380.378,241.394 431.5,217C 434.669,216.022 437.503,216.522 440,218.5C 454.507,249.2 460.507,281.534 458,315.5C 464.333,323.833 470.667,332.167 477,340.5C 480.393,344.619 482.726,349.286 484,354.5C 484.5,392.499 484.667,430.499 484.5,468.5C 486.582,468.472 488.416,469.139 490,470.5C 490.667,483.5 490.667,496.5 490,509.5C 489.283,510.044 488.783,510.711 488.5,511.5 Z"/></g>
<g><path style="opacity:0.978" fill="#020202" d="M 160.5,511.5 C 114.5,511.5 68.5,511.5 22.5,511.5C 22.2172,510.711 21.7172,510.044 21,509.5C 20.3333,496.5 20.3333,483.5 21,470.5C 22.5843,469.139 24.4176,468.472 26.5,468.5C 26.3333,430.499 26.5,392.499 27,354.5C 28.279,349.275 30.6123,344.609 34,340.5C 51.6667,316.833 69.3333,293.167 87,269.5C 89.2959,255.313 93.2959,241.646 99,228.5C 100.441,227.13 102.108,226.13 104,225.5C 157.198,246.847 210.365,268.347 263.5,290C 264.333,290.833 265.167,291.667 266,292.5C 266.667,350.833 266.667,409.167 266,467.5C 265.5,468.667 264.667,469.5 263.5,470C 231.06,471.14 200.727,463.64 172.5,447.5C 169.068,454.856 164.734,461.689 159.5,468C 160.667,469.167 161.833,470.333 163,471.5C 163.667,483.833 163.667,496.167 163,508.5C 161.955,509.373 161.122,510.373 160.5,511.5 Z"/></g>
<g><path style="opacity:1" fill="#fbbe0e" d="M 430.5,230.5 C 432.335,231.122 433.502,232.456 434,234.5C 449.274,275.14 449.274,315.807 434,356.5C 433.439,357.022 432.772,357.355 432,357.5C 428.141,357.049 424.474,356.049 421,354.5C 410.611,338.112 399.444,322.279 387.5,307C 373.969,300.515 362.802,303.349 354,315.5C 351.185,321.358 350.851,327.358 353,333.5C 367.667,357.5 382.333,381.5 397,405.5C 398.187,407.044 398.52,408.711 398,410.5C 367.867,440.722 331.367,456.722 288.5,458.5C 288.333,405.499 288.5,352.499 289,299.5C 336.426,276.869 383.593,253.869 430.5,230.5 Z"/></g>
<g><path style="opacity:1" fill="#3c5ba8" d="M 106.5,240.5 C 155.704,259.57 204.704,279.237 253.5,299.5C 254.5,352.496 254.833,405.496 254.5,458.5C 200.076,454.961 157.076,431.128 125.5,387C 137.044,368.749 148.21,350.249 159,331.5C 160.709,317.094 154.542,307.928 140.5,304C 131.28,302.296 123.78,305.129 118,312.5C 113,320.167 108,327.833 103,335.5C 94.7641,303.495 95.9307,271.828 106.5,240.5 Z"/></g>
<g><path style="opacity:1" fill="#5e5045" d="M 86.5,305.5 C 85.8333,301.5 85.1667,297.5 84.5,293.5C 84.7828,292.711 85.2828,292.044 86,291.5C 86.4992,296.155 86.6658,300.821 86.5,305.5 Z"/></g>
<g><path style="opacity:1" fill="#edcbaf" d="M 84.5,293.5 C 85.1667,297.5 85.8333,301.5 86.5,305.5C 87.7121,320.377 89.8788,335.043 93,349.5C 91.8333,351.333 90.6667,353.167 89.5,355C 80.4816,355.668 72.1483,358.335 64.5,363C 60.7564,369.908 62.7564,373.242 70.5,373C 72.8877,371.139 75.5544,369.806 78.5,369C 84.1667,368 89.8333,367 95.5,366C 106.724,350.441 117.557,334.608 128,318.5C 135.098,313.931 141.431,314.931 147,321.5C 147.817,324.964 147.483,328.298 146,331.5C 130.333,356.833 114.667,382.167 99,407.5C 94.0656,424.71 85.0656,439.376 72,451.5C 70.6714,457.834 73.1714,460.668 79.5,460C 94.4071,446.363 104.907,429.863 111,410.5C 113.667,406.5 116.333,402.5 119,398.5C 130.375,414.208 144.041,427.542 160,438.5C 157.69,450.266 151.857,460.1 142.5,468C 107.835,468.5 73.1683,468.667 38.5,468.5C 38.3333,431.165 38.5,393.832 39,356.5C 53.6862,335.117 68.8528,314.117 84.5,293.5 Z"/></g>
<g><path style="opacity:1" fill="#edcbaf" d="M 371.5,315.5 C 375.839,314.846 379.673,315.846 383,318.5C 391.333,331.167 399.667,343.833 408,356.5C 410.601,360.555 413.768,364.055 417.5,367C 425.667,367.291 433.333,369.291 440.5,373C 447.743,373.414 449.909,370.248 447,363.5C 446.075,362.953 445.242,362.287 444.5,361.5C 448.38,351.361 451.547,341.027 454,330.5C 460.493,338.818 466.493,347.485 472,356.5C 472.5,393.832 472.667,431.165 472.5,468.5C 437.832,468.667 403.165,468.5 368.5,468C 364.631,464.466 361.131,460.633 358,456.5C 357.316,455.216 357.483,454.049 358.5,453C 375.322,444.843 390.489,434.343 404,421.5C 410.088,436.5 419.254,449.333 431.5,460C 437.829,460.668 440.329,457.834 439,451.5C 425.934,439.376 416.934,424.71 412,407.5C 396,381.5 380,355.5 364,329.5C 363.333,326.833 363.333,324.167 364,321.5C 366.478,319.361 368.978,317.361 371.5,315.5 Z"/></g>
<g><path style="opacity:1" fill="#59bcdf" d="M 32.5,480.5 C 72.1667,480.5 111.833,480.5 151.5,480.5C 151.5,486.833 151.5,493.167 151.5,499.5C 111.833,499.5 72.1667,499.5 32.5,499.5C 32.5,493.167 32.5,486.833 32.5,480.5 Z"/></g>
<g><path style="opacity:1" fill="#59bcdf" d="M 359.5,480.5 C 399.167,480.5 438.833,480.5 478.5,480.5C 478.5,486.833 478.5,493.167 478.5,499.5C 438.833,499.5 399.167,499.5 359.5,499.5C 359.5,493.167 359.5,486.833 359.5,480.5 Z"/></g>
</svg>
