<?xml version="1.0" encoding="UTF-8"?>
<!DOCTYPE svg PUBLIC "-//W3C//DTD SVG 1.1//EN" "http://www.w3.org/Graphics/SVG/1.1/DTD/svg11.dtd">
<svg xmlns="http://www.w3.org/2000/svg" version="1.1" width="512px" height="512px" style="shape-rendering:geometricPrecision; text-rendering:geometricPrecision; image-rendering:optimizeQuality; fill-rule:evenodd; clip-rule:evenodd" xmlns:xlink="http://www.w3.org/1999/xlink">
<g><path style="opacity:0.996" fill="#000000" d="M 107.5,7.5 C 206.167,7.33334 304.834,7.5 403.5,8C 405.333,8.5 406.5,9.66667 407,11.5C 407.5,36.8311 407.667,62.1645 407.5,87.5C 430.553,87.0416 453.553,87.5416 476.5,89C 490.606,94.1058 499.44,103.939 503,118.5C 503.667,236.5 503.667,354.5 503,472.5C 498.833,488.667 488.667,498.833 472.5,503C 326.457,503.994 180.457,503.66 34.5,502C 20.3937,496.894 11.5604,487.061 8,472.5C 7.33333,386.167 7.33333,299.833 8,213.5C 12.2373,196.262 22.5706,184.262 39,177.5C 39.0297,161.408 39.6963,145.408 41,129.5C 61.9577,112.878 82.6243,95.8777 103,78.5C 103.333,56.1667 103.667,33.8333 104,11.5C 104.69,9.64977 105.856,8.31643 107.5,7.5 Z"/></g>
<g><path style="opacity:1" fill="#c0cee7" d="M 119.5,23.5 C 210.167,23.5 300.833,23.5 391.5,23.5C 391.5,92.8333 391.5,162.167 391.5,231.5C 370.167,231.5 348.833,231.5 327.5,231.5C 327.5,226.167 327.5,220.833 327.5,215.5C 340.833,215.5 354.167,215.5 367.5,215.5C 367.5,210.167 367.5,204.833 367.5,199.5C 354.167,199.5 340.833,199.5 327.5,199.5C 327.5,194.167 327.5,188.833 327.5,183.5C 340.833,183.5 354.167,183.5 367.5,183.5C 367.5,178.167 367.5,172.833 367.5,167.5C 354.167,167.5 340.833,167.5 327.5,167.5C 327.5,162.167 327.5,156.833 327.5,151.5C 340.833,151.5 354.167,151.5 367.5,151.5C 367.5,146.167 367.5,140.833 367.5,135.5C 354.167,135.5 340.833,135.5 327.5,135.5C 327.5,130.167 327.5,124.833 327.5,119.5C 340.833,119.5 354.167,119.5 367.5,119.5C 367.5,114.167 367.5,108.833 367.5,103.5C 354.167,103.5 340.833,103.5 327.5,103.5C 327.667,89.1628 327.5,74.8295 327,60.5C 326.535,59.0692 325.701,57.9025 324.5,57C 260.558,55.3442 196.558,55.0109 132.5,56C 128.318,58.9259 124.318,62.0925 120.5,65.5C 119.501,51.5159 119.167,37.5159 119.5,23.5 Z"/></g>
<g><path style="opacity:1" fill="#e3e9f3" d="M 143.5,71.5 C 199.5,71.5 255.5,71.5 311.5,71.5C 311.5,124.833 311.5,178.167 311.5,231.5C 304.825,231.666 298.158,231.5 291.5,231C 287.333,229.5 284.5,226.667 283,222.5C 280.209,210.877 276.543,199.544 272,188.5C 267.038,181.936 260.538,177.769 252.5,176C 186.834,175.5 121.168,175.333 55.5,175.5C 55.5,164.833 55.5,154.167 55.5,143.5C 83.897,143.975 112.23,143.475 140.5,142C 141.893,140.829 142.727,139.329 143,137.5C 143.5,115.503 143.667,93.5025 143.5,71.5 Z"/></g>
<g><path style="opacity:1" fill="#93adcf" d="M 126.5,80.5 C 127.496,95.9911 127.83,111.658 127.5,127.5C 108.497,127.667 89.4971,127.5 70.5,127C 89.3566,111.636 108.023,96.1356 126.5,80.5 Z"/></g>
<g><path style="opacity:1" fill="#eb8228" d="M 443.5,103.5 C 464.347,115.878 476.181,134.211 479,158.5C 479.667,255.833 479.667,353.167 479,450.5C 476.221,469.109 465.388,478.776 446.5,479.5C 443.101,477.053 440.935,473.72 440,469.5C 439.667,400.833 439.333,332.167 439,263.5C 434.703,247.37 424.536,237.037 408.5,232.5C 407.5,189.505 407.167,146.505 407.5,103.5C 419.5,103.5 431.5,103.5 443.5,103.5 Z"/></g>
<g><path style="opacity:1" fill="#e46a10" d="M 443.5,103.5 C 452.173,103.334 460.84,103.5 469.5,104C 478,107.167 483.833,113 487,121.5C 487.667,237.5 487.667,353.5 487,469.5C 479.591,486.303 467.424,491.136 450.5,484C 448.959,482.629 447.625,481.129 446.5,479.5C 465.388,478.776 476.221,469.109 479,450.5C 479.667,353.167 479.667,255.833 479,158.5C 476.181,134.211 464.347,115.878 443.5,103.5 Z"/></g>
<g><path style="opacity:1" fill="#000000" d="M 191.5,111.5 C 223.5,111.5 255.5,111.5 287.5,111.5C 287.5,116.833 287.5,122.167 287.5,127.5C 255.5,127.5 223.5,127.5 191.5,127.5C 191.5,122.167 191.5,116.833 191.5,111.5 Z"/></g>
<g><path style="opacity:1" fill="#000000" d="M 159.5,143.5 C 202.167,143.5 244.833,143.5 287.5,143.5C 287.5,148.833 287.5,154.167 287.5,159.5C 244.833,159.5 202.167,159.5 159.5,159.5C 159.5,154.167 159.5,148.833 159.5,143.5 Z"/></g>
<g><path style="opacity:1" fill="#fbb631" d="M 423.5,470.5 C 304.667,471.666 185.667,471.833 66.5,471C 51.6796,468.18 42.8463,459.346 40,444.5C 39.5,361.834 39.3333,279.167 39.5,196.5C 41.9647,194.163 44.9647,192.663 48.5,192C 116.167,191.333 183.833,191.333 251.5,192C 255.667,193.5 258.5,196.333 260,200.5C 263.069,212.041 266.736,223.374 271,234.5C 274.97,239.475 279.803,243.309 285.5,246C 325.128,247.304 364.795,247.971 404.5,248C 413.573,250.739 419.74,256.573 423,265.5C 423.5,333.833 423.667,402.166 423.5,470.5 Z"/></g>
<g><path style="opacity:1" fill="#fea516" d="M 39.5,196.5 C 39.3333,279.167 39.5,361.834 40,444.5C 42.8463,459.346 51.6796,468.18 66.5,471C 185.667,471.833 304.667,471.666 423.5,470.5C 425.29,476.338 427.957,481.838 431.5,487C 301.5,487.667 171.5,487.667 41.5,487C 33,483.833 27.1667,478 24,469.5C 23.3333,385.167 23.3333,300.833 24,216.5C 25.279,211.275 27.6123,206.609 31,202.5C 33.2787,199.619 36.112,197.619 39.5,196.5 Z"/></g>
<g><path style="opacity:1" fill="#030100" d="M 226.5,271.5 C 229.187,271.336 231.854,271.503 234.5,272C 236.667,272.833 238.167,274.333 239,276.5C 239.667,318.833 239.667,361.167 239,403.5C 236.474,415.695 229.307,423.862 217.5,428C 198.626,435.197 181.793,432.031 167,418.5C 155.276,401.898 157.443,387.398 173.5,375C 189.555,365.595 205.889,365.095 222.5,373.5C 223.499,358.848 223.833,344.182 223.5,329.5C 191.536,336.378 159.536,343.045 127.5,349.5C 127.667,378.169 127.5,406.835 127,435.5C 123.215,450.335 113.715,459.168 98.5,462C 81.8707,466.052 67.3707,462.218 55,450.5C 43.276,433.898 45.4427,419.398 61.5,407C 77.5555,397.595 93.8888,397.095 110.5,405.5C 111.012,369.753 111.846,334.087 113,298.5C 114.8,296.683 116.966,295.516 119.5,295C 155.397,287.605 191.064,279.772 226.5,271.5 Z"/></g>
<g><path style="opacity:1" fill="#c61022" d="M 219.5,289.5 C 220.833,289.5 222.167,289.5 223.5,289.5C 223.5,297.5 223.5,305.5 223.5,313.5C 191.73,319.654 160.063,326.321 128.5,333.5C 127.502,325.528 127.169,317.528 127.5,309.5C 158.365,303.196 189.032,296.529 219.5,289.5 Z"/></g>
<g><path style="opacity:1" fill="#c51022" d="M 192.5,383.5 C 200.997,382.508 208.997,384.008 216.5,388C 225.756,395.588 225.756,403.255 216.5,411C 201.904,418.499 188.737,416.666 177,405.5C 173.819,398.123 175.653,392.29 182.5,388C 185.815,386.17 189.149,384.67 192.5,383.5 Z"/></g>
<g><path style="opacity:1" fill="#c51022" d="M 80.5,415.5 C 88.9971,414.508 96.9971,416.008 104.5,420C 113.756,427.588 113.756,435.255 104.5,443C 93.1518,448.951 81.8184,448.951 70.5,443C 61.1667,435.333 61.1667,427.667 70.5,420C 73.8153,418.17 77.1486,416.67 80.5,415.5 Z"/></g>
</svg>
