<?xml version="1.0" encoding="UTF-8"?>
<!DOCTYPE svg PUBLIC "-//W3C//DTD SVG 1.1//EN" "http://www.w3.org/Graphics/SVG/1.1/DTD/svg11.dtd">
<svg xmlns="http://www.w3.org/2000/svg" version="1.1" width="512px" height="512px" style="shape-rendering:geometricPrecision; text-rendering:geometricPrecision; image-rendering:optimizeQuality; fill-rule:evenodd; clip-rule:evenodd" xmlns:xlink="http://www.w3.org/1999/xlink">
<g><path style="opacity:0.986" fill="#020202" d="M 93.5,7.5 C 185.834,7.33334 278.167,7.5 370.5,8C 372.725,8.56106 374.725,9.56106 376.5,11C 393,27.5 409.5,44 426,60.5C 427.861,62.8877 429.194,65.5544 430,68.5C 430.5,145.499 430.667,222.499 430.5,299.5C 440.839,299.334 451.172,299.5 461.5,300C 470.667,302.5 476.5,308.333 479,317.5C 479.667,364.5 479.667,411.5 479,458.5C 476.28,468.553 469.78,474.387 459.5,476C 432.835,476.5 406.169,476.667 379.5,476.5C 380.232,483.856 379.066,490.856 376,497.5C 373.766,499.7 371.266,501.533 368.5,503C 259.833,503.667 151.167,503.667 42.5,503C 37.2425,500.744 33.7425,496.91 32,491.5C 31.3333,351.167 31.3333,210.833 32,70.5C 33.8333,64.6667 37.6667,60.8333 43.5,59C 56.4957,58.5001 69.4957,58.3334 82.5,58.5C 82.3334,45.8289 82.5001,33.1623 83,20.5C 84.5335,14.477 88.0335,10.1436 93.5,7.5 Z"/></g>
<g><path style="opacity:1" fill="#b0b0b4" d="M 115.5,23.5 C 115.5,35.1667 115.5,46.8333 115.5,58.5C 110.167,58.5 104.833,58.5 99.5,58.5C 99.5,46.8333 99.5,35.1667 99.5,23.5C 104.833,23.5 110.167,23.5 115.5,23.5 Z"/></g>
<g><path style="opacity:1" fill="#d0d0d5" d="M 115.5,23.5 C 197.167,23.5 278.833,23.5 360.5,23.5C 360.333,38.1705 360.5,52.8371 361,67.5C 362.068,72.2353 364.901,75.4019 369.5,77C 384.163,77.4999 398.83,77.6666 413.5,77.5C 413.5,151.5 413.5,225.5 413.5,299.5C 401.833,299.5 390.167,299.5 378.5,299.5C 378.667,239.166 378.5,178.832 378,118.5C 377.333,117.167 376.667,115.833 376,114.5C 358.5,97 341,79.5 323.5,62C 321.5,61 319.5,60 317.5,59C 250.167,58.5 182.834,58.3333 115.5,58.5C 115.5,46.8333 115.5,35.1667 115.5,23.5 Z"/></g>
<g><path style="opacity:1" fill="#a195a1" d="M 376.5,35.5 C 385.298,43.7977 393.965,52.2977 402.5,61C 393.84,61.4998 385.173,61.6664 376.5,61.5C 376.5,52.8333 376.5,44.1667 376.5,35.5 Z"/></g>
<g><path style="opacity:1" fill="#97999b" d="M 309.5,117.5 C 308.504,103.677 308.171,89.6766 308.5,75.5C 227.167,75.5 145.833,75.5 64.5,75.5C 59.1667,75.5 53.8333,75.5 48.5,75.5C 48.5,212.833 48.5,350.167 48.5,487.5C 47.5004,350.001 47.1671,212.334 47.5,74.5C 134.833,74.5 222.167,74.5 309.5,74.5C 309.5,88.8333 309.5,103.167 309.5,117.5 Z"/></g>
<g><path style="opacity:1" fill="#d1d1d6" d="M 64.5,75.5 C 64.5,212.833 64.5,350.167 64.5,487.5C 59.1667,487.5 53.8333,487.5 48.5,487.5C 48.5,350.167 48.5,212.833 48.5,75.5C 53.8333,75.5 59.1667,75.5 64.5,75.5 Z"/></g>
<g><path style="opacity:1" fill="#eaedef" d="M 64.5,75.5 C 145.833,75.5 227.167,75.5 308.5,75.5C 308.171,89.6766 308.504,103.677 309.5,117.5C 310.414,122.258 313.081,125.758 317.5,128C 332.496,128.5 347.496,128.667 362.5,128.5C 362.5,185.5 362.5,242.5 362.5,299.5C 334.498,299.333 306.498,299.5 278.5,300C 268.799,302.1 262.632,307.933 260,317.5C 259.333,364.167 259.333,410.833 260,457.5C 262.509,466.675 268.342,472.509 277.5,475C 305.831,475.5 334.165,475.667 362.5,475.5C 362.5,479.5 362.5,483.5 362.5,487.5C 263.167,487.5 163.833,487.5 64.5,487.5C 64.5,350.167 64.5,212.833 64.5,75.5 Z"/></g>
<g><path style="opacity:1" fill="#474247" d="M 326.5,87.5 C 325.507,95.6499 325.174,103.983 325.5,112.5C 324.179,103.991 324.179,95.3245 325.5,86.5C 326.107,86.6236 326.44,86.9569 326.5,87.5 Z"/></g>
<g><path style="opacity:1" fill="#9f939f" d="M 326.5,87.5 C 334.812,95.1457 342.812,103.146 350.5,111.5C 342.193,112.498 333.86,112.831 325.5,112.5C 325.174,103.983 325.507,95.6499 326.5,87.5 Z"/></g>
<g><path style="opacity:1" fill="#060606" d="M 84.5,107.5 C 139.834,107.333 195.168,107.5 250.5,108C 253.516,109.529 254.849,112.029 254.5,115.5C 254.562,119.609 252.562,122.109 248.5,123C 194.167,123.667 139.833,123.667 85.5,123C 77.9569,118.165 77.6236,112.998 84.5,107.5 Z"/></g>
<g><path style="opacity:1" fill="#000000" d="M 84.5,162.5 C 164.501,162.333 244.501,162.5 324.5,163C 330.448,165.433 331.948,169.6 329,175.5C 328.097,176.701 326.931,177.535 325.5,178C 245.167,178.667 164.833,178.667 84.5,178C 77.8753,172.754 77.8753,167.587 84.5,162.5 Z"/></g>
<g><path style="opacity:1" fill="#070707" d="M 85.5,217.5 C 165.167,217.333 244.834,217.5 324.5,218C 329.924,220.017 331.758,223.85 330,229.5C 328.833,230.667 327.667,231.833 326.5,233C 245.833,233.667 165.167,233.667 84.5,233C 77.7544,227.512 78.0878,222.346 85.5,217.5 Z"/></g>
<g><path style="opacity:1" fill="#070707" d="M 84.5,273.5 C 165.167,273.333 245.834,273.5 326.5,274C 330.753,277.42 331.587,281.587 329,286.5C 327.581,287.46 326.081,288.293 324.5,289C 244.833,289.667 165.167,289.667 85.5,289C 77.9569,284.165 77.6236,278.998 84.5,273.5 Z"/></g>
<g><path style="opacity:1" fill="#88c7fb" d="M 458.5,316.5 C 457.167,316.5 455.833,316.5 454.5,316.5C 454.667,357.168 454.5,397.835 454,438.5C 452.657,444.384 449.157,448.217 443.5,450C 387.501,450.5 331.501,450.667 275.5,450.5C 275.333,406.832 275.5,363.165 276,319.5C 276.833,318.667 277.667,317.833 278.5,317C 308.749,315.841 339.083,315.341 369.5,315.5C 399.335,315.5 429.002,315.833 458.5,316.5 Z"/></g>
<g><path style="opacity:1" fill="#5eb3fa" d="M 458.5,316.5 C 460.451,317.282 461.951,318.616 463,320.5C 463.667,365.167 463.667,409.833 463,454.5C 462.215,456.286 461.049,457.786 459.5,459C 399.5,459.667 339.5,459.667 279.5,459C 276.179,457.188 274.845,454.355 275.5,450.5C 331.501,450.667 387.501,450.5 443.5,450C 449.157,448.217 452.657,444.384 454,438.5C 454.5,397.835 454.667,357.168 454.5,316.5C 455.833,316.5 457.167,316.5 458.5,316.5 Z"/></g>
<g><path style="opacity:1" fill="#010202" d="M 84.5,328.5 C 129.501,328.333 174.501,328.5 219.5,329C 225.643,331.508 226.976,335.675 223.5,341.5C 222.335,342.584 221.002,343.417 219.5,344C 174.5,344.667 129.5,344.667 84.5,344C 77.8601,338.705 77.8601,333.539 84.5,328.5 Z"/></g>
<g><path style="opacity:1" fill="#030405" d="M 376.5,339.5 C 384.665,338.175 388.498,341.509 388,349.5C 380.468,376.432 373.135,403.432 366,430.5C 364.268,435.617 360.768,437.45 355.5,436C 350.931,433.459 349.431,429.625 351,424.5C 358.18,397.445 365.513,370.445 373,343.5C 374.376,342.295 375.542,340.962 376.5,339.5 Z"/></g>
<g><path style="opacity:1" fill="#030405" d="M 334.5,349.5 C 343.672,350.165 346.506,354.831 343,363.5C 333.367,371.391 323.867,379.391 314.5,387.5C 323.826,395.991 333.326,404.324 343,412.5C 346.451,419.538 344.451,423.872 337,425.5C 335.033,425.458 333.199,424.958 331.5,424C 319.24,413.618 307.073,403.118 295,392.5C 292.683,388.407 293.183,384.74 296.5,381.5C 309.238,370.815 321.904,360.148 334.5,349.5 Z"/></g>
<g><path style="opacity:1" fill="#030405" d="M 399.5,349.5 C 402.425,349.46 405.091,350.293 407.5,352C 419.76,362.382 431.927,372.882 444,383.5C 445.151,387.829 444.318,391.662 441.5,395C 430.54,403.624 419.874,412.624 409.5,422C 404.73,426.331 399.897,426.497 395,422.5C 393.578,419.97 393.245,417.303 394,414.5C 404.167,405.667 414.333,396.833 424.5,388C 414.667,379.5 404.833,371 395,362.5C 393.578,359.97 393.245,357.303 394,354.5C 395.73,352.598 397.563,350.931 399.5,349.5 Z"/></g>
<g><path style="opacity:1" fill="#060606" d="M 85.5,383.5 C 130.168,383.333 174.835,383.5 219.5,384C 227.1,388.579 227.433,393.579 220.5,399C 175.167,399.667 129.833,399.667 84.5,399C 77.7544,393.512 78.0878,388.346 85.5,383.5 Z"/></g>
<g><path style="opacity:1" fill="#000000" d="M 84.5,439.5 C 130.168,439.333 175.835,439.5 221.5,440C 226.684,444.625 226.684,449.292 221.5,454C 175.5,454.667 129.5,454.667 83.5,454C 78.0028,448.683 78.3361,443.85 84.5,439.5 Z"/></g>
</svg>
