<?xml version="1.0" encoding="UTF-8"?>
<!DOCTYPE svg PUBLIC "-//W3C//DTD SVG 1.1//EN" "http://www.w3.org/Graphics/SVG/1.1/DTD/svg11.dtd">
<svg xmlns="http://www.w3.org/2000/svg" version="1.1" width="512px" height="512px" style="shape-rendering:geometricPrecision; text-rendering:geometricPrecision; image-rendering:optimizeQuality; fill-rule:evenodd; clip-rule:evenodd" xmlns:xlink="http://www.w3.org/1999/xlink">
<g><path style="opacity:0.975" fill="#010000" d="M 222.5,-0.5 C 244.5,-0.5 266.5,-0.5 288.5,-0.5C 299.577,3.41351 306.744,11.0802 310,22.5C 310.167,35.1798 310.667,47.8465 311.5,60.5C 326.317,64.9926 340.484,70.9926 354,78.5C 362.167,70.3333 370.333,62.1667 378.5,54C 390.601,45.8421 402.934,45.5088 415.5,53C 429.667,67.1667 443.833,81.3333 458,95.5C 465.333,107.167 465.333,118.833 458,130.5C 449.864,139.637 441.364,148.47 432.5,157C 440.007,170.516 446.007,184.683 450.5,199.5C 464.542,200.07 478.542,200.904 492.5,202C 501.924,206.047 508.257,212.881 511.5,222.5C 511.5,244.5 511.5,266.5 511.5,288.5C 507.151,299.679 499.151,306.846 487.5,310C 475.153,310.167 462.82,310.667 450.5,311.5C 446.007,326.317 440.007,340.484 432.5,354C 440.667,362.167 448.833,370.333 457,378.5C 465.158,390.601 465.491,402.934 458,415.5C 443.833,429.667 429.667,443.833 415.5,458C 403.833,465.333 392.167,465.333 380.5,458C 371.363,449.864 362.53,441.364 354,432.5C 340.484,440.007 326.317,446.007 311.5,450.5C 310.667,463.154 310.167,475.82 310,488.5C 306.744,499.92 299.577,507.586 288.5,511.5C 266.5,511.5 244.5,511.5 222.5,511.5C 211.423,507.586 204.256,499.92 201,488.5C 200.833,475.82 200.333,463.154 199.5,450.5C 184.683,446.007 170.516,440.007 157,432.5C 149.167,440.333 141.333,448.167 133.5,456C 121.255,464.988 108.589,465.655 95.5,458C 81.3333,443.833 67.1667,429.667 53,415.5C 46.0931,404.347 45.7598,393.013 52,381.5C 60.4694,372.03 69.3027,362.863 78.5,354C 70.9926,340.484 64.9926,326.317 60.5,311.5C 48.1801,310.667 35.8468,310.167 23.5,310C 11.8486,306.846 3.84857,299.679 -0.5,288.5C -0.5,266.5 -0.5,244.5 -0.5,222.5C 2.74272,212.881 9.07606,206.047 18.5,202C 32.4581,200.904 46.4581,200.07 60.5,199.5C 64.9926,184.683 70.9926,170.516 78.5,157C 70.6667,149.167 62.8333,141.333 55,133.5C 46.0115,121.255 45.3448,108.589 53,95.5C 67.1667,81.3333 81.3333,67.1667 95.5,53C 106.653,46.0931 117.987,45.7598 129.5,52C 138.97,60.4694 148.137,69.3027 157,78.5C 170.516,70.9926 184.683,64.9926 199.5,60.5C 200.333,47.8465 200.833,35.1798 201,22.5C 204.256,11.0802 211.423,3.41351 222.5,-0.5 Z"/></g>
<g><path style="opacity:1" fill="#fdc46b" d="M 227.5,19.5 C 246.901,19.0373 266.235,19.5373 285.5,21C 287.378,22.5429 288.878,24.3762 290,26.5C 290.03,42.5919 290.696,58.5919 292,74.5C 293.214,76.0488 294.714,77.2155 296.5,78C 316.137,82.655 334.471,90.3217 351.5,101C 354.964,101.817 358.298,101.483 361.5,100C 371.5,90 381.5,80 391.5,70C 395.5,68 399.5,68 403.5,70C 416.696,82.8622 429.53,96.0289 442,109.5C 443.114,114.041 442.114,118.041 439,121.5C 429.333,131.167 419.667,140.833 410,150.5C 409.333,153.167 409.333,155.833 410,158.5C 420.762,176.69 428.762,196.023 434,216.5C 435.214,218.049 436.714,219.215 438.5,220C 453.5,220.333 468.5,220.667 483.5,221C 486.913,222.077 489.413,224.244 491,227.5C 491.962,246.898 491.629,266.232 490,285.5C 488.363,287.81 486.196,289.31 483.5,290C 467.741,290.03 452.075,290.697 436.5,292C 434.951,293.214 433.785,294.714 433,296.5C 428.345,316.137 420.678,334.471 410,351.5C 409.183,354.964 409.517,358.298 411,361.5C 421,371.5 431,381.5 441,391.5C 443,395.5 443,399.5 441,403.5C 428.138,416.696 414.971,429.53 401.5,442C 398.833,442.667 396.167,442.667 393.5,442C 382.807,431.639 372.14,421.306 361.5,411C 358.298,409.517 354.964,409.183 351.5,410C 333.767,420.914 314.767,428.914 294.5,434C 292.951,435.214 291.785,436.714 291,438.5C 290.667,453.5 290.333,468.5 290,483.5C 288.833,487.333 286.333,489.833 282.5,491C 263.41,491.974 244.41,491.641 225.5,490C 223.622,488.457 222.122,486.624 221,484.5C 220.97,468.408 220.304,452.408 219,436.5C 217.786,434.951 216.286,433.785 214.5,433C 194.698,428.099 176.031,420.432 158.5,410C 155.833,409.333 153.167,409.333 150.5,410C 140.137,420.697 129.471,431.03 118.5,441C 114.833,443 111.167,443 107.5,441C 94.3038,428.138 81.4705,414.971 69,401.5C 68.1834,398.036 68.5167,394.702 70,391.5C 80,381.5 90,371.5 100,361.5C 101.483,358.298 101.817,354.964 101,351.5C 90.0861,333.767 82.0861,314.767 77,294.5C 75.786,292.951 74.286,291.785 72.5,291C 57.1667,290.667 41.8333,290.333 26.5,290C 23.2441,288.413 21.0774,285.913 20,282.5C 19.0259,263.41 19.3593,244.41 21,225.5C 22.5429,223.622 24.3762,222.122 26.5,221C 42.5668,220.955 58.5668,220.288 74.5,219C 76.0488,217.786 77.2155,216.286 78,214.5C 82.7347,194.629 90.4014,175.963 101,158.5C 102.261,153.869 101.261,149.869 98,146.5C 88.2792,137.446 78.9459,128.113 70,118.5C 68,114.833 68,111.167 70,107.5C 82.8622,94.3038 96.0289,81.4705 109.5,69C 112.964,68.1834 116.298,68.5167 119.5,70C 129.5,80 139.5,90 149.5,100C 152.366,101.457 155.366,101.79 158.5,101C 176.694,90.2359 196.028,82.2359 216.5,77C 218.049,75.786 219.215,74.286 220,72.5C 220.333,57.1667 220.667,41.8333 221,26.5C 222.694,23.6424 224.861,21.309 227.5,19.5 Z"/></g>
<g><path style="opacity:1" fill="#030201" d="M 317.5,148.5 C 315.518,151.84 312.518,153.507 308.5,153.5C 260.833,132.476 217.166,138.643 177.5,172C 140.527,210.201 132.027,254.034 152,303.5C 176.375,349.809 214.875,371.642 267.5,369C 325.804,359.029 359.637,324.863 369,266.5C 371.207,243.204 366.874,221.204 356,200.5C 354.882,196.077 356.049,192.41 359.5,189.5C 364.353,187.789 368.853,188.455 373,191.5C 396.781,239.414 394.448,286.081 366,331.5C 331.39,377.161 285.557,395.661 228.5,387C 160.924,368.242 125.258,323.742 121.5,253.5C 123.734,206.521 144.067,169.687 182.5,143C 225.583,117.009 269.916,114.676 315.5,136C 318.575,139.764 319.242,143.931 317.5,148.5 Z"/></g>
<g><path style="opacity:1" fill="#b1b4c0" d="M 317.5,148.5 C 323.844,152.004 329.844,156.004 335.5,160.5C 331.109,169.384 333.609,175.384 343,178.5C 345.829,178.172 348.329,177.172 350.5,175.5C 354.009,179.855 357.009,184.522 359.5,189.5C 356.049,192.41 354.882,196.077 356,200.5C 366.874,221.204 371.207,243.204 369,266.5C 359.637,324.863 325.804,359.029 267.5,369C 214.875,371.642 176.375,349.809 152,303.5C 132.027,254.034 140.527,210.201 177.5,172C 217.166,138.643 260.833,132.476 308.5,153.5C 312.518,153.507 315.518,151.84 317.5,148.5 Z"/></g>
<g><path style="opacity:1" fill="#060504" d="M 350.5,175.5 C 348.329,177.172 345.829,178.172 343,178.5C 333.609,175.384 331.109,169.384 335.5,160.5C 340.027,158.093 344.694,157.927 349.5,160C 354.499,164.851 354.833,170.018 350.5,175.5 Z"/></g>
<g><path style="opacity:1" fill="#030303" d="M 220.5,327.5 C 222.402,323.944 225.402,321.944 229.5,321.5C 261.641,331.01 288.808,323.343 311,298.5C 333.993,262.148 329.827,229.315 298.5,200C 262.199,177.015 229.366,181.181 200,212.5C 184.806,233.111 181.306,255.611 189.5,280C 189.325,284.337 187.325,287.504 183.5,289.5C 178.347,291.494 174.181,290.161 171,285.5C 158.774,245.185 168.607,211.351 200.5,184C 237.132,159.426 273.799,159.426 310.5,184C 342.598,211.641 352.432,245.807 340,286.5C 326.237,320.584 301.07,340.084 264.5,345C 251.865,346.353 239.532,345.02 227.5,341C 221.371,338.579 219.038,334.079 220.5,327.5 Z"/></g>
<g><path style="opacity:1" fill="#fdfdfd" d="M 220.5,327.5 C 215.606,325.227 211.273,322.227 207.5,318.5C 211.222,309.608 208.388,304.274 199,302.5C 196.225,302.409 193.725,303.076 191.5,304.5C 188.579,299.659 185.912,294.659 183.5,289.5C 187.325,287.504 189.325,284.337 189.5,280C 181.306,255.611 184.806,233.111 200,212.5C 229.366,181.181 262.199,177.015 298.5,200C 329.827,229.315 333.993,262.148 311,298.5C 288.808,323.343 261.641,331.01 229.5,321.5C 225.402,321.944 222.402,323.944 220.5,327.5 Z"/></g>
<g><path style="opacity:1" fill="#070707" d="M 207.5,318.5 C 200.932,324.286 195.098,323.62 190,316.5C 189.083,312.238 189.583,308.238 191.5,304.5C 193.725,303.076 196.225,302.409 199,302.5C 208.388,304.274 211.222,309.608 207.5,318.5 Z"/></g>
</svg>
