<?xml version="1.0" encoding="UTF-8"?>
<!DOCTYPE svg PUBLIC "-//W3C//DTD SVG 1.1//EN" "http://www.w3.org/Graphics/SVG/1.1/DTD/svg11.dtd">
<svg xmlns="http://www.w3.org/2000/svg" version="1.1" width="512px" height="512px" style="shape-rendering:geometricPrecision; text-rendering:geometricPrecision; image-rendering:optimizeQuality; fill-rule:evenodd; clip-rule:evenodd" xmlns:xlink="http://www.w3.org/1999/xlink">
<g><path style="opacity:0.968" fill="#010101" d="M 75.5,8.5 C 182.834,8.33333 290.167,8.5 397.5,9C 405.452,10.5526 410.952,15.0526 414,22.5C 415.37,30.7637 415.87,39.097 415.5,47.5C 424.25,47.0901 432.916,47.5901 441.5,49C 447.837,51.8361 451.67,56.6695 453,63.5C 453.667,199.833 453.667,336.167 453,472.5C 448.968,489.197 438.468,499.031 421.5,502C 318.833,502.667 216.167,502.667 113.5,502C 105.548,500.447 100.048,495.947 97,488.5C 95.6301,480.236 95.1301,471.903 95.5,463.5C 86.7502,463.91 78.0836,463.41 69.5,462C 63.6559,458.837 59.8226,454.004 58,447.5C 57.3333,306.833 57.3333,166.167 58,25.5C 60.4228,16.2428 66.2562,10.5762 75.5,8.5 Z"/></g>
<g><path style="opacity:1" fill="#e4e7ec" d="M 76.5,20.5 C 183.167,20.3333 289.834,20.5 396.5,21C 398.624,22.1217 400.457,23.6217 402,25.5C 403.663,165.086 403.997,304.753 403,444.5C 402.208,446.587 401.041,448.421 399.5,450C 291.247,451.662 182.914,451.996 74.5,451C 73.3333,449.833 72.1667,448.667 71,447.5C 69.3383,307.222 69.0049,166.889 70,26.5C 71.914,24.1435 74.0807,22.1435 76.5,20.5 Z"/></g>
<g><path style="opacity:1" fill="#050404" d="M 153.5,47.5 C 200.262,46.6041 226.596,69.2708 232.5,115.5C 226.749,161.418 200.749,183.918 154.5,183C 112.659,172.518 93.4927,145.685 97,102.5C 104.905,72.7593 123.739,54.426 153.5,47.5 Z"/></g>
<g><path style="opacity:1" fill="#135368" d="M 433.5,59.5 C 430.5,59.5 427.5,59.5 424.5,59.5C 421.5,59.5 418.5,59.5 415.5,59.5C 415.833,188.001 415.5,316.334 414.5,444.5C 414.5,315.833 414.5,187.167 414.5,58.5C 421.022,58.1765 427.355,58.5098 433.5,59.5 Z"/></g>
<g><path style="opacity:1" fill="#1f81a3" d="M 424.5,59.5 C 424.667,188.5 424.5,317.5 424,446.5C 421.18,461.32 412.346,470.154 397.5,473C 301.167,473.5 204.834,473.667 108.5,473.5C 108.5,476.833 108.5,480.167 108.5,483.5C 107.509,477.021 107.176,470.354 107.5,463.5C 204.501,463.667 301.501,463.5 398.5,463C 407.606,460.063 412.939,453.897 414.5,444.5C 415.5,316.334 415.833,188.001 415.5,59.5C 418.5,59.5 421.5,59.5 424.5,59.5 Z"/></g>
<g><path style="opacity:1" fill="#2b90bd" d="M 424.5,59.5 C 427.5,59.5 430.5,59.5 433.5,59.5C 437.02,60.1828 439.52,62.1828 441,65.5C 441.667,200.5 441.667,335.5 441,470.5C 437.624,481.211 430.457,487.711 419.5,490C 317.833,490.667 216.167,490.667 114.5,490C 111.591,488.594 109.591,486.428 108.5,483.5C 108.5,480.167 108.5,476.833 108.5,473.5C 204.834,473.667 301.167,473.5 397.5,473C 412.346,470.154 421.18,461.32 424,446.5C 424.5,317.5 424.667,188.5 424.5,59.5 Z"/></g>
<g><path style="opacity:1" fill="#5e6de5" d="M 202.5,155.5 C 171.402,164.019 146.902,155.019 129,128.5C 120.811,113.486 118.644,97.6529 122.5,81C 122.472,79.9302 122.139,79.0968 121.5,78.5C 131.31,67.3797 143.644,61.0463 158.5,59.5C 158.333,79.1695 158.5,98.8362 159,118.5C 159.833,119.333 160.667,120.167 161.5,121C 180.83,121.5 200.164,121.667 219.5,121.5C 218.585,135.33 212.919,146.663 202.5,155.5 Z"/></g>
<g><path style="opacity:1" fill="#f2b400" d="M 170.5,59.5 C 198.982,64.3151 215.316,80.9818 219.5,109.5C 203.167,109.5 186.833,109.5 170.5,109.5C 170.5,92.8333 170.5,76.1667 170.5,59.5 Z"/></g>
<g><path style="opacity:1" fill="#010101" d="M 266.5,62.5 C 304.501,62.3333 342.501,62.5 380.5,63C 384.566,66.7448 384.233,70.0782 379.5,73C 342.167,73.6667 304.833,73.6667 267.5,73C 265.09,72.2421 264.09,70.5754 264.5,68C 264.395,65.8218 265.061,63.9885 266.5,62.5 Z"/></g>
<g><path style="opacity:1" fill="#4f5dde" d="M 121.5,78.5 C 122.139,79.0968 122.472,79.9302 122.5,81C 118.644,97.6529 120.811,113.486 129,128.5C 146.902,155.019 171.402,164.019 202.5,155.5C 193.867,164.649 183.2,169.815 170.5,171C 146.498,172.915 127.998,163.749 115,143.5C 103.285,120.342 105.452,98.6754 121.5,78.5 Z"/></g>
<g><path style="opacity:1" fill="#010101" d="M 267.5,91.5 C 304.835,91.3333 342.168,91.5 379.5,92C 384.233,94.9218 384.566,98.2552 380.5,102C 342.5,102.667 304.5,102.667 266.5,102C 263.615,98.0562 263.948,94.5562 267.5,91.5 Z"/></g>
<g><path style="opacity:1" fill="#0b0b0b" d="M 317.5,120.5 C 338.169,120.333 358.836,120.5 379.5,121C 384.796,124.766 384.796,128.433 379.5,132C 358.833,132.667 338.167,132.667 317.5,132C 313.555,128.169 313.555,124.336 317.5,120.5 Z"/></g>
<g><path style="opacity:1" fill="#070603" d="M 262.5,165.5 C 280.503,165.333 298.503,165.5 316.5,166C 322.9,167.399 327.066,171.233 329,177.5C 329.667,194.833 329.667,212.167 329,229.5C 325.908,239.632 319.075,244.132 308.5,243C 302.657,240.168 297.657,236.168 293.5,231C 292.833,230.333 292.167,230.333 291.5,231C 273.167,249.333 254.833,267.667 236.5,286C 230.02,290.498 223.02,291.498 215.5,289C 205.363,279.864 195.53,270.364 186,260.5C 172.471,274.363 158.638,287.863 144.5,301C 124.441,306.944 114.941,299.444 116,278.5C 117.08,276.004 118.414,273.67 120,271.5C 138.195,252.971 156.695,234.805 175.5,217C 182.967,213.526 190.301,213.859 197.5,218C 205.833,226.333 214.167,234.667 222.5,243C 223.167,243.667 223.833,243.667 224.5,243C 238.014,229.653 251.347,216.153 264.5,202.5C 261.182,198.682 257.682,195.015 254,191.5C 248.584,180.023 251.417,171.356 262.5,165.5 Z"/></g>
<g><path style="opacity:1" fill="#f0b300" d="M 265.5,176.5 C 281.837,176.333 298.17,176.5 314.5,177C 315.333,177.833 316.167,178.667 317,179.5C 317.667,196.167 317.667,212.833 317,229.5C 314.847,231.444 312.347,231.944 309.5,231C 304.833,226.333 300.167,221.667 295.5,217C 293.167,216.333 290.833,216.333 288.5,217C 268.167,237.333 247.833,257.667 227.5,278C 224.833,278.667 222.167,278.667 219.5,278C 209.5,268 199.5,258 189.5,248C 187.635,246.699 185.635,246.365 183.5,247C 168.195,261.304 153.195,275.971 138.5,291C 134.612,293.223 131.112,292.723 128,289.5C 126.578,286.97 126.245,284.303 127,281.5C 145.5,263 164,244.5 182.5,226C 185.88,225.062 188.88,225.729 191.5,228C 201.167,237.667 210.833,247.333 220.5,257C 223.303,257.755 225.97,257.422 228.5,256C 245.362,239.472 261.862,222.638 278,205.5C 278.667,203.5 278.667,201.5 278,199.5C 273,194.5 268,189.5 263,184.5C 262.388,181.389 263.221,178.723 265.5,176.5 Z"/></g>
<g><path style="opacity:1" fill="#040404" d="M 317.5,254.5 C 329.838,254.333 342.171,254.5 354.5,255C 355.931,255.465 357.097,256.299 358,257.5C 358.5,310.499 358.667,363.499 358.5,416.5C 365.508,416.334 372.508,416.5 379.5,417C 384.796,420.766 384.796,424.433 379.5,428C 283.833,428.667 188.167,428.667 92.5,428C 88.2796,423.892 88.6129,420.225 93.5,417C 100.158,416.5 106.825,416.334 113.5,416.5C 113.333,402.496 113.5,388.496 114,374.5C 114.833,373.667 115.667,372.833 116.5,372C 129.833,371.333 143.167,371.333 156.5,372C 157,372.5 157.5,373 158,373.5C 158.5,387.829 158.667,402.163 158.5,416.5C 165.833,416.5 173.167,416.5 180.5,416.5C 180.333,389.498 180.5,362.498 181,335.5C 181.833,334.667 182.667,333.833 183.5,333C 196.5,332.333 209.5,332.333 222.5,333C 223.333,333.833 224.167,334.667 225,335.5C 225.5,362.498 225.667,389.498 225.5,416.5C 232.833,416.5 240.167,416.5 247.5,416.5C 247.333,376.499 247.5,336.499 248,296.5C 248.833,295.667 249.667,294.833 250.5,294C 263.167,293.333 275.833,293.333 288.5,294C 290.333,294.5 291.5,295.667 292,297.5C 292.5,337.165 292.667,376.832 292.5,416.5C 299.5,416.5 306.5,416.5 313.5,416.5C 313.333,363.832 313.5,311.166 314,258.5C 315.376,257.295 316.542,255.962 317.5,254.5 Z"/></g>
<g><path style="opacity:1" fill="#5e6ee6" d="M 337.5,266.5 C 337.5,310.833 337.5,355.167 337.5,399.5C 333.5,399.5 329.5,399.5 325.5,399.5C 325.5,355.167 325.5,310.833 325.5,266.5C 329.5,266.5 333.5,266.5 337.5,266.5 Z"/></g>
<g><path style="opacity:1" fill="#4e5ddc" d="M 337.5,266.5 C 340.833,266.5 344.167,266.5 347.5,266.5C 347.5,316.5 347.5,366.5 347.5,416.5C 340.167,416.5 332.833,416.5 325.5,416.5C 325.5,410.833 325.5,405.167 325.5,399.5C 329.5,399.5 333.5,399.5 337.5,399.5C 337.5,355.167 337.5,310.833 337.5,266.5 Z"/></g>
<g><path style="opacity:1" fill="#883021" d="M 280.5,305.5 C 277.167,305.5 273.833,305.5 270.5,305.5C 266.833,305.5 263.167,305.5 259.5,305.5C 259.5,336.833 259.5,368.167 259.5,399.5C 259.5,405.167 259.5,410.833 259.5,416.5C 258.502,379.337 258.168,342.004 258.5,304.5C 266.019,304.175 273.352,304.508 280.5,305.5 Z"/></g>
<g><path style="opacity:1" fill="#e0523a" d="M 270.5,305.5 C 270.5,336.833 270.5,368.167 270.5,399.5C 266.833,399.5 263.167,399.5 259.5,399.5C 259.5,368.167 259.5,336.833 259.5,305.5C 263.167,305.5 266.833,305.5 270.5,305.5 Z"/></g>
<g><path style="opacity:1" fill="#d33d24" d="M 270.5,305.5 C 273.833,305.5 277.167,305.5 280.5,305.5C 280.5,342.5 280.5,379.5 280.5,416.5C 273.5,416.5 266.5,416.5 259.5,416.5C 259.5,410.833 259.5,405.167 259.5,399.5C 263.167,399.5 266.833,399.5 270.5,399.5C 270.5,368.167 270.5,336.833 270.5,305.5 Z"/></g>
<g><path style="opacity:1" fill="#212759" d="M 213.5,416.5 C 213.5,392.5 213.5,368.5 213.5,344.5C 210.5,344.5 207.5,344.5 204.5,344.5C 200.5,344.5 196.5,344.5 192.5,344.5C 192.5,362.833 192.5,381.167 192.5,399.5C 192.5,405.167 192.5,410.833 192.5,416.5C 191.502,392.339 191.169,368.006 191.5,343.5C 199.167,343.5 206.833,343.5 214.5,343.5C 214.831,368.006 214.498,392.339 213.5,416.5 Z"/></g>
<g><path style="opacity:1" fill="#505fe1" d="M 204.5,344.5 C 207.5,344.5 210.5,344.5 213.5,344.5C 213.5,368.5 213.5,392.5 213.5,416.5C 206.5,416.5 199.5,416.5 192.5,416.5C 192.5,410.833 192.5,405.167 192.5,399.5C 196.5,399.5 200.5,399.5 204.5,399.5C 204.5,381.167 204.5,362.833 204.5,344.5 Z"/></g>
<g><path style="opacity:1" fill="#5e6ee6" d="M 204.5,344.5 C 204.5,362.833 204.5,381.167 204.5,399.5C 200.5,399.5 196.5,399.5 192.5,399.5C 192.5,381.167 192.5,362.833 192.5,344.5C 196.5,344.5 200.5,344.5 204.5,344.5 Z"/></g>
<g><path style="opacity:1" fill="#d64129" d="M 125.5,383.5 C 132.5,383.5 139.5,383.5 146.5,383.5C 146.5,394.5 146.5,405.5 146.5,416.5C 139.5,416.5 132.5,416.5 125.5,416.5C 125.5,405.5 125.5,394.5 125.5,383.5 Z"/></g>
<g><path style="opacity:1" fill="#9a2e1b" d="M 125.5,383.5 C 132.648,382.508 139.981,382.175 147.5,382.5C 147.828,394.012 147.495,405.346 146.5,416.5C 146.5,405.5 146.5,394.5 146.5,383.5C 139.5,383.5 132.5,383.5 125.5,383.5 Z"/></g>
</svg>
