<?xml version="1.0" encoding="UTF-8"?>
<!DOCTYPE svg PUBLIC "-//W3C//DTD SVG 1.1//EN" "http://www.w3.org/Graphics/SVG/1.1/DTD/svg11.dtd">
<svg xmlns="http://www.w3.org/2000/svg" version="1.1" width="512px" height="512px" style="shape-rendering:geometricPrecision; text-rendering:geometricPrecision; image-rendering:optimizeQuality; fill-rule:evenodd; clip-rule:evenodd" xmlns:xlink="http://www.w3.org/1999/xlink">
<g><path style="opacity:0.988" fill="#020101" d="M 511.5,221.5 C 511.5,224.167 511.5,226.833 511.5,229.5C 511.167,229.5 510.833,229.5 510.5,229.5C 509.373,230.122 508.373,230.955 507.5,232C 489.836,232.5 472.17,232.667 454.5,232.5C 443.911,231.693 434.577,227.86 426.5,221C 421.333,215.833 416.167,210.667 411,205.5C 408.872,201.975 409.039,198.642 411.5,195.5C 414.642,193.039 417.975,192.872 421.5,195C 427.778,202.119 434.778,208.286 442.5,213.5C 444.96,214.891 447.626,216.058 450.5,217C 455.823,217.499 461.156,217.666 466.5,217.5C 466.987,180.747 466.487,144.08 465,107.5C 463.457,105.622 461.624,104.122 459.5,103C 427.331,102.169 395.331,102.336 363.5,103.5C 356.697,114.496 350.03,125.663 343.5,137C 354.456,137.57 364.456,140.903 373.5,147C 381.667,155.167 389.833,163.333 398,171.5C 400.009,174.95 399.842,178.283 397.5,181.5C 394.283,183.842 390.95,184.009 387.5,182C 379.833,174.333 372.167,166.667 364.5,159C 355.389,152.887 345.389,150.887 334.5,153C 327.626,165.248 320.626,177.415 313.5,189.5C 334.942,199.708 344.442,216.708 342,240.5C 336.901,262.268 323.401,275.101 301.5,279C 285.241,281.574 268.907,283.574 252.5,285C 242.883,288.737 240.383,295.237 245,304.5C 246.543,306.378 248.376,307.878 250.5,309C 281.768,314.014 313.101,318.514 344.5,322.5C 398.665,323.333 452.998,323.833 507.5,324C 508.373,325.045 509.373,325.878 510.5,326.5C 510.833,326.5 511.167,326.5 511.5,326.5C 511.5,329.167 511.5,331.833 511.5,334.5C 510.36,335.801 509.027,336.968 507.5,338C 498.84,338.5 490.173,338.666 481.5,338.5C 481.667,378.835 481.5,419.168 481,459.5C 478.256,467.245 473.089,472.745 465.5,476C 316.876,477.661 168.209,477.994 19.5,477C 9.82441,474.485 3.15774,468.651 -0.5,459.5C -0.5,341.5 -0.5,223.5 -0.5,105.5C 3.07474,96.7617 9.40807,90.9284 18.5,88C 78.8333,87.3333 139.167,87.3333 199.5,88C 217.091,90.7935 230.758,99.6269 240.5,114.5C 254.856,94.3093 274.523,85.1427 299.5,87C 306.667,74.5 313.833,62 321,49.5C 333.467,32.8427 348.967,29.3427 367.5,39C 382.477,53.2972 384.477,69.2972 373.5,87C 403.167,87.3333 432.833,87.6667 462.5,88C 471.573,90.7392 477.74,96.5725 481,105.5C 481.5,142.832 481.667,180.165 481.5,217.5C 490.173,217.334 498.84,217.5 507.5,218C 509.35,218.69 510.684,219.856 511.5,221.5 Z"/></g>
<g><path style="opacity:1" fill="#f6dfbd" d="M 334.5,84.5 C 343.136,75.0146 344.803,64.348 339.5,52.5C 349.428,47.0011 357.595,49.0011 364,58.5C 365.368,61.7383 365.701,65.0717 365,68.5C 360.941,77.6189 356.108,86.2856 350.5,94.5C 345.102,91.1417 339.769,87.8084 334.5,84.5 Z"/></g>
<g><path style="opacity:1" fill="#f9edd6" d="M 339.5,52.5 C 344.803,64.348 343.136,75.0146 334.5,84.5C 330.394,82.6124 326.394,80.4458 322.5,78C 327.045,71.0791 331.212,63.9125 335,56.5C 336.371,54.9586 337.871,53.6253 339.5,52.5 Z"/></g>
<g><path style="opacity:1" fill="#f28895" d="M 327.5,98.5 C 286.152,169.869 244.818,241.202 203.5,312.5C 199.227,310.695 195.227,308.361 191.5,305.5C 232.434,233.908 273.767,162.575 315.5,91.5C 319.563,93.8599 323.563,96.1933 327.5,98.5 Z"/></g>
<g><path style="opacity:1" fill="#ed7180" d="M 327.5,98.5 C 332.971,101.403 338.304,104.57 343.5,108C 312.167,162 280.833,216 249.5,270C 232.14,276.544 224.973,289.044 228,307.5C 225.488,312.536 222.488,317.202 219,321.5C 213.541,318.859 208.374,315.859 203.5,312.5C 244.818,241.202 286.152,169.869 327.5,98.5 Z"/></g>
<g><path style="opacity:1" fill="#e7f2fb" d="M 21.5,103.5 C 77.501,103.333 133.501,103.5 189.5,104C 200.366,112.217 207.2,123.051 210,136.5C 210.5,155.83 210.667,175.164 210.5,194.5C 204.87,200.631 199.036,206.631 193,212.5C 184.649,229.448 188.482,242.948 204.5,253C 194.667,270.167 184.833,287.333 175,304.5C 174.178,306.788 173.511,309.122 173,311.5C 171.667,324.817 171.001,338.15 171,351.5C 174.748,361.79 181.915,365.29 192.5,362C 198.195,358.157 203.862,354.323 209.5,350.5C 210.166,356.658 210.5,362.991 210.5,369.5C 210.496,376.204 209.83,382.537 208.5,388.5C 168.523,387.357 128.523,387.19 88.5,388C 85.7776,389.272 84.4443,391.439 84.5,394.5C 77.8333,394.5 71.1667,394.5 64.5,394.5C 64.2562,391.737 62.9229,389.571 60.5,388C 45.1703,387.5 29.837,387.333 14.5,387.5C 14.3333,294.833 14.5,202.166 15,109.5C 16.4055,106.591 18.5722,104.591 21.5,103.5 Z"/></g>
<g><path style="opacity:1" fill="#cbdeee" d="M 21.5,103.5 C 79.6652,102.335 137.999,102.168 196.5,103C 223.594,110.146 235.928,127.812 233.5,156C 233.333,161.5 233.167,167 233,172.5C 225.632,180.036 218.132,187.369 210.5,194.5C 210.667,175.164 210.5,155.83 210,136.5C 207.2,123.051 200.366,112.217 189.5,104C 133.501,103.5 77.501,103.333 21.5,103.5 Z"/></g>
<g><path style="opacity:1" fill="#e4f0f9" d="M 249.5,155.5 C 248.512,150.36 248.179,145.026 248.5,139.5C 252.675,117.994 265.675,105.661 287.5,102.5C 288.5,102.833 289.5,103.167 290.5,103.5C 283.92,115.663 277.086,127.663 270,139.5C 262.321,143.755 255.488,149.089 249.5,155.5 Z"/></g>
<g><path style="opacity:1" fill="#e9f5fe" d="M 363.5,103.5 C 389.741,103.172 415.908,103.505 442,104.5C 442.862,106.087 443.529,107.754 444,109.5C 444.167,126.833 444.333,144.167 444.5,161.5C 444.5,179.18 443.833,196.513 442.5,213.5C 434.778,208.286 427.778,202.119 421.5,195C 417.975,192.872 414.642,193.039 411.5,195.5C 407.167,190.5 402.5,185.833 397.5,181.5C 399.842,178.283 400.009,174.95 398,171.5C 389.833,163.333 381.667,155.167 373.5,147C 364.456,140.903 354.456,137.57 343.5,137C 350.03,125.663 356.697,114.496 363.5,103.5 Z"/></g>
<g><path style="opacity:1" fill="#d4e7f9" d="M 363.5,103.5 C 395.331,102.336 427.331,102.169 459.5,103C 461.624,104.122 463.457,105.622 465,107.5C 466.487,144.08 466.987,180.747 466.5,217.5C 461.156,217.666 455.823,217.499 450.5,217C 447.626,216.058 444.96,214.891 442.5,213.5C 443.833,196.513 444.5,179.18 444.5,161.5C 444.333,144.167 444.167,126.833 444,109.5C 443.529,107.754 442.862,106.087 442,104.5C 415.908,103.505 389.741,103.172 363.5,103.5 Z"/></g>
<g><path style="opacity:1" fill="#000001" d="M 44.5,133.5 C 95.1678,133.333 145.834,133.5 196.5,134C 201.726,138.251 201.726,142.585 196.5,147C 145.833,147.667 95.1667,147.667 44.5,147C 39.2086,142.423 39.2086,137.923 44.5,133.5 Z"/></g>
<g><path style="opacity:1" fill="#6e7478" d="M 248.5,139.5 C 248.179,145.026 248.512,150.36 249.5,155.5C 249.44,156.043 249.107,156.376 248.5,156.5C 247.184,150.68 247.184,145.013 248.5,139.5 Z"/></g>
<g><path style="opacity:1" fill="#fecdbe" d="M 397.5,181.5 C 402.5,185.833 407.167,190.5 411.5,195.5C 409.039,198.642 408.872,201.975 411,205.5C 416.167,210.667 421.333,215.833 426.5,221C 434.577,227.86 443.911,231.693 454.5,232.5C 463.318,233.493 472.318,233.827 481.5,233.5C 481.5,263.167 481.5,292.833 481.5,322.5C 435.833,322.5 390.167,322.5 344.5,322.5C 313.101,318.514 281.768,314.014 250.5,309C 248.376,307.878 246.543,306.378 245,304.5C 240.383,295.237 242.883,288.737 252.5,285C 268.907,283.574 285.241,281.574 301.5,279C 323.401,275.101 336.901,262.268 342,240.5C 344.442,216.708 334.942,199.708 313.5,189.5C 320.626,177.415 327.626,165.248 334.5,153C 345.389,150.887 355.389,152.887 364.5,159C 372.167,166.667 379.833,174.333 387.5,182C 390.95,184.009 394.283,183.842 397.5,181.5 Z"/></g>
<g><path style="opacity:1" fill="#020202" d="M 45.5,185.5 C 90.5012,185.333 135.501,185.5 180.5,186C 185.949,189.243 186.782,193.41 183,198.5C 181.933,199.191 180.766,199.691 179.5,200C 134.833,200.667 90.1667,200.667 45.5,200C 38.8987,195.171 38.8987,190.338 45.5,185.5 Z"/></g>
<g><path style="opacity:1" fill="#f9c9ba" d="M 222.5,221.5 C 216.549,225.45 210.882,229.783 205.5,234.5C 203.201,230.245 203.035,225.911 205,221.5C 218.693,207.469 232.527,193.969 246.5,181C 238.274,194.387 230.274,207.887 222.5,221.5 Z"/></g>
<g><path style="opacity:1" fill="#fcad9c" d="M 305.5,203.5 C 319.329,207.845 326.662,217.345 327.5,232C 327.017,248.296 319.017,258.963 303.5,264C 292.256,264.99 281.089,266.49 270,268.5C 268.457,267.423 268.457,266.089 270,264.5C 281.845,244.139 293.678,223.806 305.5,203.5 Z"/></g>
<g><path style="opacity:1" fill="#f2a897" d="M 222.5,221.5 C 219.305,227.387 215.972,233.221 212.5,239C 209.614,238.546 207.281,237.046 205.5,234.5C 210.882,229.783 216.549,225.45 222.5,221.5 Z"/></g>
<g><path style="opacity:1" fill="#f8ac9a" d="M 510.5,229.5 C 510.5,230.167 510.833,230.5 511.5,230.5C 511.5,262.167 511.5,293.833 511.5,325.5C 510.833,325.5 510.5,325.833 510.5,326.5C 509.373,325.878 508.373,325.045 507.5,324C 452.998,323.833 398.665,323.333 344.5,322.5C 390.167,322.5 435.833,322.5 481.5,322.5C 481.5,292.833 481.5,263.167 481.5,233.5C 472.318,233.827 463.318,233.493 454.5,232.5C 472.17,232.667 489.836,232.5 507.5,232C 508.373,230.955 509.373,230.122 510.5,229.5 Z"/></g>
<g><path style="opacity:1" fill="#010101" d="M 44.5,238.5 C 85.168,238.333 125.835,238.5 166.5,239C 171.726,243.251 171.726,247.585 166.5,252C 125.833,252.667 85.1667,252.667 44.5,252C 39.2086,247.423 39.2086,242.923 44.5,238.5 Z"/></g>
<g><path style="opacity:1" fill="#020203" d="M 45.5,290.5 C 80.5016,290.333 115.502,290.5 150.5,291C 155.949,294.243 156.782,298.41 153,303.5C 151.933,304.191 150.766,304.691 149.5,305C 114.833,305.667 80.1667,305.667 45.5,305C 38.8987,300.171 38.8987,295.338 45.5,290.5 Z"/></g>
<g><path style="opacity:1" fill="#f8ab99" d="M 238.5,319.5 C 243.892,323.184 249.892,324.851 256.5,324.5C 256.857,336.306 251.19,341.14 239.5,339C 236.016,337.044 234.016,334.044 233.5,330C 234.508,326.152 236.175,322.652 238.5,319.5 Z"/></g>
<g><path style="opacity:1" fill="#eed9bb" d="M 187.5,321.5 C 194.275,325.057 200.942,328.89 207.5,333C 200.638,338.028 193.638,342.862 186.5,347.5C 185.614,338.794 185.947,330.127 187.5,321.5 Z"/></g>
<g><path style="opacity:1" fill="#f9ac9a" d="M 271.5,327.5 C 279.13,328.745 286.796,329.745 294.5,330.5C 294.513,338.321 290.679,342.988 283,344.5C 273.897,342.542 270.064,336.876 271.5,327.5 Z"/></g>
<g><path style="opacity:1" fill="#f3a896" d="M 309.5,332.5 C 317.11,333.98 324.777,335.146 332.5,336C 333.106,340.472 331.439,344.138 327.5,347C 315.553,349.906 309.553,345.073 309.5,332.5 Z"/></g>
<g><path style="opacity:1" fill="#e8f4fd" d="M 444.5,338.5 C 444.5,354.5 444.5,370.5 444.5,386.5C 389.331,386.168 334.331,386.501 279.5,387.5C 267.46,389.021 257.126,394.021 248.5,402.5C 247.501,386.514 247.167,370.514 247.5,354.5C 252.555,353.975 257.221,352.308 261.5,349.5C 273.15,361.104 285.817,362.437 299.5,353.5C 314.369,367.101 328.869,366.767 343,352.5C 345.8,348.267 347.3,343.601 347.5,338.5C 379.833,338.5 412.167,338.5 444.5,338.5 Z"/></g>
<g><path style="opacity:1" fill="#c9dbeb" d="M 444.5,338.5 C 451.833,338.5 459.167,338.5 466.5,338.5C 466.5,354.833 466.5,371.167 466.5,387.5C 404.167,387.5 341.833,387.5 279.5,387.5C 334.331,386.501 389.331,386.168 444.5,386.5C 444.5,370.5 444.5,354.5 444.5,338.5 Z"/></g>
<g><path style="opacity:1" fill="#010101" d="M 44.5,343.5 C 75.1685,343.333 105.835,343.5 136.5,344C 141.726,348.251 141.726,352.585 136.5,357C 105.833,357.667 75.1667,357.667 44.5,357C 39.2086,352.423 39.2086,347.923 44.5,343.5 Z"/></g>
<g><path style="opacity:1" fill="#d1e4f6" d="M 208.5,388.5 C 209.83,382.537 210.496,376.204 210.5,369.5C 210.5,362.991 210.166,356.658 209.5,350.5C 213.187,347.5 217.187,344.834 221.5,342.5C 224.598,346.639 228.431,349.973 233,352.5C 233.833,369.177 233.666,385.843 232.5,402.5C 225.652,395.747 217.652,391.08 208.5,388.5 Z"/></g>
<g><path style="opacity:1" fill="#d7ebfd" d="M 64.5,394.5 C 71.1667,394.5 77.8333,394.5 84.5,394.5C 84.8714,398.25 86.8714,400.583 90.5,401.5C 123.998,402.332 157.664,402.832 191.5,403C 201.747,410.604 207.914,420.771 210,433.5C 210.5,442.827 210.666,452.161 210.5,461.5C 147.833,461.5 85.1667,461.5 22.5,461.5C 18.5922,460.761 16.0922,458.428 15,454.5C 14.5001,436.836 14.3334,419.17 14.5,401.5C 29.837,401.667 45.1703,401.5 60.5,401C 62.7337,399.362 64.067,397.195 64.5,394.5 Z"/></g>
<g><path style="opacity:1" fill="#b0cae2" d="M 90.5,401.5 C 126.835,401.333 163.168,401.5 199.5,402C 218.013,405.846 229.18,417.013 233,435.5C 233.816,444.412 233.65,453.245 232.5,462C 162.332,462.832 92.3321,462.665 22.5,461.5C 85.1667,461.5 147.833,461.5 210.5,461.5C 210.666,452.161 210.5,442.827 210,433.5C 207.914,420.771 201.747,410.604 191.5,403C 157.664,402.832 123.998,402.332 90.5,401.5 Z"/></g>
<g><path style="opacity:1" fill="#d7ebfd" d="M 281.5,402.5 C 335.833,402.5 390.167,402.5 444.5,402.5C 444.667,420.17 444.5,437.836 444,455.5C 443.163,457.351 442.329,459.184 441.5,461C 377.168,461.5 312.834,461.667 248.5,461.5C 247.343,453.01 247.176,444.343 248,435.5C 251.771,416.895 262.937,405.895 281.5,402.5 Z"/></g>
<g><path style="opacity:1" fill="#b0c9e2" d="M 281.5,402.5 C 342.998,401.501 404.664,401.168 466.5,401.5C 466.667,419.17 466.5,436.836 466,454.5C 464.86,458.307 462.36,460.807 458.5,462C 388.332,462.832 318.332,462.665 248.5,461.5C 312.834,461.667 377.168,461.5 441.5,461C 442.329,459.184 443.163,457.351 444,455.5C 444.5,437.836 444.667,420.17 444.5,402.5C 390.167,402.5 335.833,402.5 281.5,402.5 Z"/></g>
</svg>
