<?xml version="1.0" encoding="UTF-8"?>
<!DOCTYPE svg PUBLIC "-//W3C//DTD SVG 1.1//EN" "http://www.w3.org/Graphics/SVG/1.1/DTD/svg11.dtd">
<svg xmlns="http://www.w3.org/2000/svg" version="1.1" width="512px" height="512px" style="shape-rendering:geometricPrecision; text-rendering:geometricPrecision; image-rendering:optimizeQuality; fill-rule:evenodd; clip-rule:evenodd" xmlns:xlink="http://www.w3.org/1999/xlink">
<g><path style="opacity:0.987" fill="#342f8f" d="M 105.5,28.5 C 203.501,28.3333 301.501,28.5 399.5,29C 415.14,31.7356 427.974,39.2356 438,51.5C 454.784,83.4013 470.784,115.735 486,148.5C 486.924,168.205 486.59,187.871 485,207.5C 482.447,217.939 477.781,227.272 471,235.5C 470.5,313.499 470.333,391.499 470.5,469.5C 478.84,469.334 487.173,469.5 495.5,470C 500.321,473.601 500.654,477.601 496.5,482C 335.833,482.667 175.167,482.667 14.5,482C 10.269,477.522 10.6023,473.522 15.5,470C 23.8267,469.5 32.16,469.334 40.5,469.5C 40.6667,392.499 40.5,315.499 40,238.5C 32.6924,230.552 28.0257,221.218 26,210.5C 24.411,191.205 24.0777,171.871 25,152.5C 40.7871,117.592 57.1204,82.925 74,48.5C 82.0755,37.9079 92.5755,31.2412 105.5,28.5 Z"/></g>
<g><path style="opacity:1" fill="#c7c5e0" d="M 249.5,41.5 C 224.759,41.1768 200.092,41.5102 175.5,42.5C 187.481,41.1676 199.815,40.5009 212.5,40.5C 225.005,40.5001 237.338,40.8334 249.5,41.5 Z"/></g>
<g><path style="opacity:1" fill="#7c91fa" d="M 106.5,40.5 C 125.5,40.5 144.5,40.5 163.5,40.5C 155.179,76.1193 147.012,111.786 139,147.5C 106.233,148.829 73.3998,148.829 40.5,147.5C 54.6064,118.288 68.4398,88.9542 82,59.5C 87.7119,49.9058 95.8785,43.5725 106.5,40.5 Z"/></g>
<g><path style="opacity:1" fill="#fdfcfe" d="M 249.5,41.5 C 249.5,76.8333 249.5,112.167 249.5,147.5C 216.662,147.832 183.996,147.498 151.5,146.5C 159.296,111.78 167.296,77.1132 175.5,42.5C 200.092,41.5102 224.759,41.1768 249.5,41.5 Z"/></g>
<g><path style="opacity:1" fill="#7c91fa" d="M 261.5,40.5 C 286.167,40.5 310.833,40.5 335.5,40.5C 343.363,76.2848 351.696,111.951 360.5,147.5C 327.507,148.5 294.507,148.833 261.5,148.5C 261.5,112.5 261.5,76.5 261.5,40.5 Z"/></g>
<g><path style="opacity:1" fill="#fcfbfe" d="M 469.5,143.5 C 437.338,144.498 405.004,144.832 372.5,144.5C 363.538,109.986 355.205,75.3197 347.5,40.5C 364.17,40.3334 380.837,40.5001 397.5,41C 412.036,43.6709 423.202,51.1709 431,63.5C 444.117,90.0666 456.951,116.733 469.5,143.5 Z"/></g>
<g><path style="opacity:1" fill="#8480ba" d="M 469.5,143.5 C 470.043,143.56 470.376,143.893 470.5,144.5C 437.669,145.83 405.002,145.83 372.5,144.5C 405.004,144.832 437.338,144.498 469.5,143.5 Z"/></g>
<g><path style="opacity:1" fill="#e1dfef" d="M 151.5,146.5 C 183.996,147.498 216.662,147.832 249.5,147.5C 216.664,148.83 183.664,148.83 150.5,147.5C 150.624,146.893 150.957,146.56 151.5,146.5 Z"/></g>
<g><path style="opacity:1" fill="#a2a3d5" d="M 473.5,197.5 C 473.5,184.167 473.5,170.833 473.5,157.5C 440.5,157.5 407.5,157.5 374.5,157.5C 374.5,171.833 374.5,186.167 374.5,200.5C 373.504,186.01 373.171,171.343 373.5,156.5C 407.167,156.5 440.833,156.5 474.5,156.5C 474.829,170.344 474.496,184.01 473.5,197.5 Z"/></g>
<g><path style="opacity:1" fill="#dce0fa" d="M 473.5,197.5 C 469.32,227.203 452.154,242.87 422,244.5C 395.095,241.761 379.261,227.094 374.5,200.5C 374.5,186.167 374.5,171.833 374.5,157.5C 407.5,157.5 440.5,157.5 473.5,157.5C 473.5,170.833 473.5,184.167 473.5,197.5 Z"/></g>
<g><path style="opacity:1" fill="#6777f5" d="M 37.5,160.5 C 70.8333,160.5 104.167,160.5 137.5,160.5C 137.667,174.837 137.5,189.171 137,203.5C 128.819,237.657 107.319,251.824 72.5,246C 54.3955,239.563 42.8955,227.063 38,208.5C 37.5001,192.503 37.3334,176.503 37.5,160.5 Z"/></g>
<g><path style="opacity:1" fill="#dce0fa" d="M 149.5,160.5 C 182.833,160.5 216.167,160.5 249.5,160.5C 249.667,174.837 249.5,189.171 249,203.5C 245.282,226.122 232.449,240.622 210.5,247C 186.213,250.769 167.713,242.269 155,221.5C 152.723,216.338 151.057,211.004 150,205.5C 149.5,190.504 149.333,175.504 149.5,160.5 Z"/></g>
<g><path style="opacity:1" fill="#6777f5" d="M 261.5,160.5 C 294.833,160.5 328.167,160.5 361.5,160.5C 361.91,177.542 361.41,194.542 360,211.5C 351.895,234.447 335.728,246.447 311.5,247.5C 288.022,246.857 272.189,235.523 264,213.5C 263.118,210.211 262.452,206.877 262,203.5C 261.5,189.171 261.333,174.837 261.5,160.5 Z"/></g>
<g><path style="opacity:1" fill="#fcfbfe" d="M 81.5,304.5 C 80.501,359.331 80.1677,414.331 80.5,469.5C 71.5,469.5 62.5,469.5 53.5,469.5C 53.1674,396.331 53.5008,323.331 54.5,250.5C 84.5114,265.998 111.345,261.665 135,237.5C 138.063,233.431 140.73,229.098 143,224.5C 164.628,259.374 194.128,268.208 231.5,251C 241.789,244.213 249.789,235.379 255.5,224.5C 273.845,256.163 300.512,266.33 335.5,255C 349.986,248.101 360.986,237.601 368.5,223.5C 387.171,252.671 413.171,262.171 446.5,252C 450.23,250.604 453.73,248.77 457,246.5C 457.5,321.166 457.667,395.833 457.5,470.5C 383.5,470.5 309.5,470.5 235.5,470.5C 235.667,414.832 235.5,359.166 235,303.5C 233.833,302.333 232.667,301.167 231.5,300C 182.833,299.333 134.167,299.333 85.5,300C 83.249,300.748 81.9156,302.248 81.5,304.5 Z"/></g>
<g><path style="opacity:1" fill="#5955a3" d="M 54.5,250.5 C 53.5008,323.331 53.1674,396.331 53.5,469.5C 53.5,469.833 53.5,470.167 53.5,470.5C 52.1682,396.999 52.1682,323.332 53.5,249.5C 54.1067,249.624 54.44,249.957 54.5,250.5 Z"/></g>
<g><path style="opacity:1" fill="#36318f" d="M 291.5,299.5 C 328.168,299.333 364.835,299.5 401.5,300C 415.384,302.885 424.551,311.051 429,324.5C 429.667,350.5 429.667,376.5 429,402.5C 425.5,415.333 417.333,423.5 404.5,427C 365.833,427.667 327.167,427.667 288.5,427C 276.236,423.07 268.403,414.903 265,402.5C 264.333,376.833 264.333,351.167 265,325.5C 269.087,311.912 277.92,303.246 291.5,299.5 Z"/></g>
<g><path style="opacity:1" fill="#cbc8e2" d="M 81.5,304.5 C 81.5,359.833 81.5,415.167 81.5,470.5C 72.1667,470.5 62.8333,470.5 53.5,470.5C 53.5,470.167 53.5,469.833 53.5,469.5C 62.5,469.5 71.5,469.5 80.5,469.5C 80.1677,414.331 80.501,359.331 81.5,304.5 Z"/></g>
<g><path style="opacity:1" fill="#7c91fa" d="M 93.5,312.5 C 136.5,312.5 179.5,312.5 222.5,312.5C 222.5,364.833 222.5,417.167 222.5,469.5C 179.5,469.5 136.5,469.5 93.5,469.5C 93.5,417.167 93.5,364.833 93.5,312.5 Z"/></g>
<g><path style="opacity:1" fill="#6e7de5" d="M 93.5,312.5 C 136.663,311.501 179.997,311.168 223.5,311.5C 223.5,364.5 223.5,417.5 223.5,470.5C 179.997,470.832 136.663,470.499 93.5,469.5C 136.5,469.5 179.5,469.5 222.5,469.5C 222.5,417.167 222.5,364.833 222.5,312.5C 179.5,312.5 136.5,312.5 93.5,312.5 Z"/></g>
<g><path style="opacity:1" fill="#81dcdd" d="M 292.5,311.5 C 328.502,311.333 364.502,311.5 400.5,312C 408.105,313.939 413.605,318.439 417,325.5C 417.667,350.5 417.667,375.5 417,400.5C 414.5,408.333 409.333,413.5 401.5,416C 365.167,416.667 328.833,416.667 292.5,416C 285.091,413.592 279.924,408.758 277,401.5C 276.333,376.5 276.333,351.5 277,326.5C 280.081,319.251 285.247,314.251 292.5,311.5 Z"/></g>
<g><path style="opacity:1" fill="#343090" d="M 127.5,359.5 C 131.516,358.9 135.016,359.9 138,362.5C 139.123,365.956 138.29,368.79 135.5,371C 123.406,371.926 117.406,378.426 117.5,390.5C 116.944,403.11 122.944,409.943 135.5,411C 138.287,413.167 139.12,416.001 138,419.5C 136.147,421.592 133.814,422.592 131,422.5C 117.968,420.466 109.634,413.132 106,400.5C 101.679,380.464 108.846,366.797 127.5,359.5 Z"/></g>
</svg>
