<?xml version="1.0" encoding="UTF-8"?>
<!DOCTYPE svg PUBLIC "-//W3C//DTD SVG 1.1//EN" "http://www.w3.org/Graphics/SVG/1.1/DTD/svg11.dtd">
<svg xmlns="http://www.w3.org/2000/svg" version="1.1" width="512px" height="512px" style="shape-rendering:geometricPrecision; text-rendering:geometricPrecision; image-rendering:optimizeQuality; fill-rule:evenodd; clip-rule:evenodd" xmlns:xlink="http://www.w3.org/1999/xlink">
<g><path style="opacity:0.975" fill="#040302" d="M 319.5,94.5 C 318.038,95.4577 316.705,96.6244 315.5,98C 313.432,98.6869 311.432,98.5202 309.5,97.5C 293.51,86.1701 277.177,75.3368 260.5,65C 254.41,63.5187 249.077,64.6854 244.5,68.5C 172.94,116.555 101.773,165.222 31,214.5C 30.3333,215.833 29.6667,217.167 29,218.5C 28.5,284.499 28.3333,350.499 28.5,416.5C 36.5,416.5 44.5,416.5 52.5,416.5C 52.0074,353.75 52.5074,291.084 54,228.5C 119.573,182.963 185.406,137.796 251.5,93C 256.813,91.9858 261.48,93.3191 265.5,97C 329.594,140.463 393.427,184.296 457,228.5C 458.493,291.084 458.993,353.75 458.5,416.5C 462.833,416.5 467.167,416.5 471.5,416.5C 475.167,416.5 478.833,416.5 482.5,416.5C 482.667,350.499 482.5,284.499 482,218.5C 480.939,215.438 479.106,212.938 476.5,211C 429.833,179.333 383.167,147.667 336.5,116C 333.328,112.639 332.662,108.805 334.5,104.5C 337.594,102.653 340.928,102.153 344.5,103C 391.167,134.667 437.833,166.333 484.5,198C 490.571,202.415 494.738,208.248 497,215.5C 497.5,272.499 497.667,329.499 497.5,386.5C 503.834,385.667 508.5,388 511.5,393.5C 511.5,413.833 511.5,434.167 511.5,454.5C 509.084,458.736 505.418,461.236 500.5,462C 386.5,462.667 272.5,462.667 158.5,462C 154.482,461.137 152.482,458.637 152.5,454.5C 153.143,451.012 155.143,448.512 158.5,447C 271.166,446.5 383.833,446.333 496.5,446.5C 497.656,439.011 497.822,431.345 497,423.5C 496.283,424.044 495.783,424.711 495.5,425.5C 492.621,429.58 488.621,431.58 483.5,431.5C 473.161,431.666 462.828,431.5 452.5,431C 448.333,429.5 445.5,426.667 444,422.5C 443.5,415.508 443.334,408.508 443.5,401.5C 318.167,401.5 192.833,401.5 67.5,401.5C 67.6663,408.508 67.4996,415.508 67,422.5C 65.5,426.667 62.6667,429.5 58.5,431C 46.1667,431.667 33.8333,431.667 21.5,431C 19.0038,429.669 17.0038,427.836 15.5,425.5C 15.2172,424.711 14.7172,424.044 14,423.5C 13.1777,431.345 13.3443,439.011 14.5,446.5C 51.8348,446.333 89.1682,446.5 126.5,447C 129.892,448.542 131.892,451.042 132.5,454.5C 132.518,458.637 130.518,461.137 126.5,462C 87.8333,462.667 49.1667,462.667 10.5,462C 5.58239,461.236 1.91572,458.736 -0.5,454.5C -0.5,434.167 -0.5,413.833 -0.5,393.5C 2.22666,388.302 6.55999,385.968 12.5,386.5C 12.3333,331.832 12.5,277.166 13,222.5C 13.5834,214.169 16.75,207.002 22.5,201C 95.5,151.333 168.5,101.667 241.5,52C 246.022,50.2622 250.689,49.0955 255.5,48.5C 260.311,49.0955 264.978,50.2622 269.5,52C 286.771,63.2182 303.605,75.0515 320,87.5C 320.796,90.0385 320.629,92.3718 319.5,94.5 Z M 227.5,127.5 C 228.827,144.005 228.827,160.671 227.5,177.5C 215.637,169.138 203.637,160.971 191.5,153C 203.403,144.248 215.403,135.748 227.5,127.5 Z M 282.5,127.5 C 295.285,135.778 307.952,144.278 320.5,153C 308,161.5 295.5,170 283,178.5C 282.5,161.503 282.333,144.503 282.5,127.5 Z M 140.5,186.5 C 145.547,188.191 150.213,190.691 154.5,194C 146.5,194.667 138.5,194.667 130.5,194C 134.08,191.723 137.414,189.223 140.5,186.5 Z M 368.5,186.5 C 372.598,188.749 376.598,191.249 380.5,194C 372.833,194.667 365.167,194.667 357.5,194C 361.345,191.637 365.011,189.137 368.5,186.5 Z M 224.5,242.5 C 230.833,242.5 237.167,242.5 243.5,242.5C 244.334,245.346 246,247.513 248.5,249C 266.164,249.5 283.83,249.667 301.5,249.5C 301.5,263.167 301.5,276.833 301.5,290.5C 271.167,290.5 240.833,290.5 210.5,290.5C 210.5,276.833 210.5,263.167 210.5,249.5C 213.85,249.665 217.183,249.498 220.5,249C 223.238,247.688 224.572,245.522 224.5,242.5 Z M 67.5,249.5 C 81.504,249.333 95.504,249.5 109.5,250C 95.406,259.13 81.5727,268.63 68,278.5C 67.5002,268.839 67.3335,259.172 67.5,249.5 Z M 402.5,250.5 C 415.99,249.504 429.656,249.171 443.5,249.5C 443.666,258.839 443.5,268.173 443,277.5C 429.729,268.118 416.229,259.118 402.5,250.5 Z M 154.5,285.5 C 155.451,286.919 155.784,288.585 155.5,290.5C 153.143,290.663 150.81,290.497 148.5,290C 150.684,288.637 152.684,287.137 154.5,285.5 Z M 356.5,285.5 C 365.151,289.019 365.151,290.685 356.5,290.5C 356.5,288.833 356.5,287.167 356.5,285.5 Z M 67.5,345.5 C 96.8333,345.5 126.167,345.5 155.5,345.5C 155.5,359.167 155.5,372.833 155.5,386.5C 126.167,386.5 96.8333,386.5 67.5,386.5C 67.5,372.833 67.5,359.167 67.5,345.5 Z M 210.5,345.5 C 240.833,345.5 271.167,345.5 301.5,345.5C 301.5,359.167 301.5,372.833 301.5,386.5C 271.167,386.5 240.833,386.5 210.5,386.5C 210.5,372.833 210.5,359.167 210.5,345.5 Z M 356.5,345.5 C 385.5,345.5 414.5,345.5 443.5,345.5C 443.5,359.167 443.5,372.833 443.5,386.5C 414.5,386.5 385.5,386.5 356.5,386.5C 356.5,372.833 356.5,359.167 356.5,345.5 Z"/></g>
<g><path style="opacity:1" fill="#e5a360" d="M 319.5,94.5 C 324.32,98.0785 329.32,101.412 334.5,104.5C 332.662,108.805 333.328,112.639 336.5,116C 383.167,147.667 429.833,179.333 476.5,211C 479.106,212.938 480.939,215.438 482,218.5C 482.5,284.499 482.667,350.499 482.5,416.5C 478.833,416.5 475.167,416.5 471.5,416.5C 471.667,353.832 471.5,291.166 471,228.5C 469.733,224.131 467.567,220.297 464.5,217C 392.5,167.667 320.5,118.333 248.5,69C 247.207,68.51 245.873,68.3433 244.5,68.5C 249.077,64.6854 254.41,63.5187 260.5,65C 277.177,75.3368 293.51,86.1701 309.5,97.5C 311.432,98.5202 313.432,98.6869 315.5,98C 316.705,96.6244 318.038,95.4577 319.5,94.5 Z"/></g>
<g><path style="opacity:1" fill="#eabc6a" d="M 244.5,68.5 C 245.873,68.3433 247.207,68.51 248.5,69C 320.5,118.333 392.5,167.667 464.5,217C 467.567,220.297 469.733,224.131 471,228.5C 471.5,291.166 471.667,353.832 471.5,416.5C 467.167,416.5 462.833,416.5 458.5,416.5C 458.993,353.75 458.493,291.084 457,228.5C 393.427,184.296 329.594,140.463 265.5,97C 261.48,93.3191 256.813,91.9858 251.5,93C 185.406,137.796 119.573,182.963 54,228.5C 52.5074,291.084 52.0074,353.75 52.5,416.5C 44.5,416.5 36.5,416.5 28.5,416.5C 28.3333,350.499 28.5,284.499 29,218.5C 29.6667,217.167 30.3333,215.833 31,214.5C 101.773,165.222 172.94,116.555 244.5,68.5 Z M 227.5,127.5 C 215.403,135.748 203.403,144.248 191.5,153C 203.637,160.971 215.637,169.138 227.5,177.5C 228.827,160.671 228.827,144.005 227.5,127.5 Z M 282.5,127.5 C 282.333,144.503 282.5,161.503 283,178.5C 295.5,170 308,161.5 320.5,153C 307.952,144.278 295.285,135.778 282.5,127.5 Z M 140.5,186.5 C 137.414,189.223 134.08,191.723 130.5,194C 138.5,194.667 146.5,194.667 154.5,194C 150.213,190.691 145.547,188.191 140.5,186.5 Z M 368.5,186.5 C 365.011,189.137 361.345,191.637 357.5,194C 365.167,194.667 372.833,194.667 380.5,194C 376.598,191.249 372.598,188.749 368.5,186.5 Z M 224.5,242.5 C 230.833,242.5 237.167,242.5 243.5,242.5C 244.334,245.346 246,247.513 248.5,249C 266.164,249.5 283.83,249.667 301.5,249.5C 301.5,263.167 301.5,276.833 301.5,290.5C 271.167,290.5 240.833,290.5 210.5,290.5C 210.5,276.833 210.5,263.167 210.5,249.5C 213.85,249.665 217.183,249.498 220.5,249C 223.238,247.688 224.572,245.522 224.5,242.5 Z M 67.5,249.5 C 67.3335,259.172 67.5002,268.839 68,278.5C 81.5727,268.63 95.406,259.13 109.5,250C 95.504,249.5 81.504,249.333 67.5,249.5 Z M 402.5,250.5 C 416.229,259.118 429.729,268.118 443,277.5C 443.5,268.173 443.666,258.839 443.5,249.5C 429.656,249.171 415.99,249.504 402.5,250.5 Z M 154.5,285.5 C 152.684,287.137 150.684,288.637 148.5,290C 150.81,290.497 153.143,290.663 155.5,290.5C 155.784,288.585 155.451,286.919 154.5,285.5 Z M 356.5,285.5 C 356.5,287.167 356.5,288.833 356.5,290.5C 365.151,290.685 365.151,289.019 356.5,285.5 Z M 67.5,345.5 C 67.5,359.167 67.5,372.833 67.5,386.5C 96.8333,386.5 126.167,386.5 155.5,386.5C 155.5,372.833 155.5,359.167 155.5,345.5C 126.167,345.5 96.8333,345.5 67.5,345.5 Z M 210.5,345.5 C 210.5,359.167 210.5,372.833 210.5,386.5C 240.833,386.5 271.167,386.5 301.5,386.5C 301.5,372.833 301.5,359.167 301.5,345.5C 271.167,345.5 240.833,345.5 210.5,345.5 Z M 356.5,345.5 C 356.5,359.167 356.5,372.833 356.5,386.5C 385.5,386.5 414.5,386.5 443.5,386.5C 443.5,372.833 443.5,359.167 443.5,345.5C 414.5,345.5 385.5,345.5 356.5,345.5 Z"/></g>
<g><path style="opacity:1" fill="#e6a461" d="M 256.5,109.5 C 256.5,137.833 256.5,166.167 256.5,194.5C 252.167,194.5 247.833,194.5 243.5,194.5C 243.167,168.158 243.5,141.825 244.5,115.5C 247.997,112.917 251.664,110.584 255.5,108.5C 256.107,108.624 256.44,108.957 256.5,109.5 Z"/></g>
<g><path style="opacity:1" fill="#e19169" d="M 256.5,109.5 C 260.372,111.193 263.872,113.526 267,116.5C 267.5,142.831 267.667,169.165 267.5,195.5C 259.316,195.826 251.316,195.492 243.5,194.5C 247.833,194.5 252.167,194.5 256.5,194.5C 256.5,166.167 256.5,137.833 256.5,109.5 Z"/></g>
<g><path style="opacity:1" fill="#dc8e67" d="M 182.5,194.5 C 190.507,194.666 198.507,194.5 206.5,194C 193.785,184.982 180.785,176.482 167.5,168.5C 170.332,165.822 173.499,163.488 177,161.5C 193.428,172.297 209.595,183.463 225.5,195C 210.994,195.827 196.661,195.661 182.5,194.5 Z"/></g>
<g><path style="opacity:1" fill="#e3a25f" d="M 345.5,169.5 C 334.831,178.359 323.498,186.525 311.5,194C 303.507,194.5 295.507,194.666 287.5,194.5C 302.32,183.863 317.32,173.363 332.5,163C 333.833,162.333 335.167,162.333 336.5,163C 339.529,165.176 342.529,167.343 345.5,169.5 Z"/></g>
<g><path style="opacity:1" fill="#e4a360" d="M 167.5,168.5 C 180.785,176.482 193.785,184.982 206.5,194C 198.507,194.5 190.507,194.666 182.5,194.5C 173.882,189.055 165.382,183.389 157,177.5C 156.493,176.004 156.993,174.837 158.5,174C 161.528,172.156 164.528,170.322 167.5,168.5 Z"/></g>
<g><path style="opacity:1" fill="#db8e66" d="M 345.5,169.5 C 348.482,171.474 351.482,173.474 354.5,175.5C 355.521,176.002 355.688,176.668 355,177.5C 346.5,183.333 338,189.167 329.5,195C 314.758,195.824 300.758,195.657 287.5,194.5C 295.507,194.666 303.507,194.5 311.5,194C 323.498,186.525 334.831,178.359 345.5,169.5 Z"/></g>
<g><path style="opacity:1" fill="#ebbd6a" d="M 105.5,210.5 C 199.501,210.333 293.501,210.5 387.5,211C 392.384,214.268 397.051,217.768 401.5,221.5C 401.291,222.086 400.957,222.586 400.5,223C 295.999,223.833 191.666,223.666 87.5,222.5C 93.228,218.108 99.228,214.108 105.5,210.5 Z"/></g>
<g><path style="opacity:1" fill="#e0a15e" d="M 105.5,210.5 C 205.332,209.334 305.332,209.168 405.5,210C 416.381,217.721 427.381,225.221 438.5,232.5C 375.833,233.167 313.167,233.833 250.5,234.5C 246.692,235.969 244.359,238.635 243.5,242.5C 237.167,242.5 230.833,242.5 224.5,242.5C 224.297,237.964 221.964,235.298 217.5,234.5C 169.167,233.833 120.833,233.167 72.5,232.5C 77.5,229.167 82.5,225.833 87.5,222.5C 191.666,223.666 295.999,223.833 400.5,223C 400.957,222.586 401.291,222.086 401.5,221.5C 397.051,217.768 392.384,214.268 387.5,211C 293.501,210.5 199.501,210.333 105.5,210.5 Z"/></g>
<g><path style="opacity:1" fill="#b7834d" d="M 72.5,232.5 C 120.833,233.167 169.167,233.833 217.5,234.5C 168.499,234.667 119.499,234.5 70.5,234C 71.0442,233.283 71.7109,232.783 72.5,232.5 Z"/></g>
<g><path style="opacity:1" fill="#b8834d" d="M 438.5,232.5 C 439.289,232.783 439.956,233.283 440.5,234C 377.168,234.5 313.834,234.667 250.5,234.5C 313.167,233.833 375.833,233.167 438.5,232.5 Z"/></g>
<g><path style="opacity:1" fill="#7b5b35" d="M 137.5,249.5 C 151.994,248.339 166.661,248.172 181.5,249C 180.956,249.717 180.289,250.217 179.5,250.5C 173.355,249.51 167.022,249.177 160.5,249.5C 152.833,249.5 145.167,249.5 137.5,249.5 Z"/></g>
<g><path style="opacity:1" fill="#7a5b35" d="M 374.5,249.5 C 368.833,249.5 363.167,249.5 357.5,249.5C 348.983,249.174 340.65,249.507 332.5,250.5C 331.711,250.217 331.044,249.717 330.5,249C 345.339,248.172 360.006,248.339 374.5,249.5 Z"/></g>
<g><path style="opacity:1" fill="#e9bc69" d="M 137.5,249.5 C 145.167,249.5 152.833,249.5 160.5,249.5C 129.711,271.067 98.7111,292.401 67.5,313.5C 67.1712,307.794 67.5046,302.128 68.5,296.5C 91.3555,280.576 114.356,264.909 137.5,249.5 Z"/></g>
<g><path style="opacity:1" fill="#e3a25f" d="M 160.5,249.5 C 167.022,249.177 173.355,249.51 179.5,250.5C 142.275,275.7 105.109,301.033 68,326.5C 67.501,322.179 67.3343,317.846 67.5,313.5C 98.7111,292.401 129.711,271.067 160.5,249.5 Z"/></g>
<g><path style="opacity:1" fill="#e9bb69" d="M 332.5,250.5 C 340.65,249.507 348.983,249.174 357.5,249.5C 386.129,269.154 414.796,288.821 443.5,308.5C 443.822,314.358 443.489,320.025 442.5,325.5C 405.87,300.513 369.204,275.513 332.5,250.5 Z"/></g>
<g><path style="opacity:1" fill="#e3a35f" d="M 357.5,249.5 C 363.167,249.5 368.833,249.5 374.5,249.5C 397.71,264.932 420.71,280.599 443.5,296.5C 443.5,300.5 443.5,304.5 443.5,308.5C 414.796,288.821 386.129,269.154 357.5,249.5 Z"/></g>
<g><path style="opacity:1" fill="#e3926a" d="M 184.5,386.5 C 184.5,346.167 184.5,305.833 184.5,265.5C 187.531,262.313 191.031,259.647 195,257.5C 195.5,300.499 195.667,343.499 195.5,386.5C 191.833,386.5 188.167,386.5 184.5,386.5 Z"/></g>
<g><path style="opacity:1" fill="#e6a460" d="M 329.5,266.5 C 329.5,306.5 329.5,346.5 329.5,386.5C 325.167,386.5 320.833,386.5 316.5,386.5C 316.333,343.499 316.5,300.499 317,257.5C 321.348,260.363 325.515,263.363 329.5,266.5 Z"/></g>
<g><path style="opacity:1" fill="#e6a461" d="M 184.5,265.5 C 184.5,305.833 184.5,346.167 184.5,386.5C 180.167,386.5 175.833,386.5 171.5,386.5C 171.333,348.832 171.5,311.165 172,273.5C 175.969,270.438 180.136,267.771 184.5,265.5 Z"/></g>
<g><path style="opacity:1" fill="#e3936a" d="M 329.5,266.5 C 333.229,268.451 336.729,270.784 340,273.5C 340.5,311.165 340.667,348.832 340.5,386.5C 336.833,386.5 333.167,386.5 329.5,386.5C 329.5,346.5 329.5,306.5 329.5,266.5 Z"/></g>
<g><path style="opacity:1" fill="#2c2213" d="M 443.5,296.5 C 444.823,306.341 444.823,316.341 443.5,326.5C 442.893,326.376 442.56,326.043 442.5,325.5C 443.489,320.025 443.822,314.358 443.5,308.5C 443.5,304.5 443.5,300.5 443.5,296.5 Z"/></g>
<g><path style="opacity:1" fill="#e4a360" d="M 156.5,319.5 C 139.325,319.83 122.325,319.497 105.5,318.5C 111.645,314.59 117.645,310.423 123.5,306C 134.495,305.5 145.495,305.333 156.5,305.5C 156.5,310.167 156.5,314.833 156.5,319.5 Z"/></g>
<g><path style="opacity:1" fill="#e5a460" d="M 301.5,318.5 C 271.167,318.5 240.833,318.5 210.5,318.5C 210.5,314.167 210.5,309.833 210.5,305.5C 240.833,305.5 271.167,305.5 301.5,305.5C 301.5,309.833 301.5,314.167 301.5,318.5 Z"/></g>
<g><path style="opacity:1" fill="#e5a360" d="M 369.5,305.5 C 373.928,308.891 378.594,312.058 383.5,315C 384.833,316 384.833,317 383.5,318C 374.173,318.5 364.839,318.666 355.5,318.5C 355.5,314.167 355.5,309.833 355.5,305.5C 360.167,305.5 364.833,305.5 369.5,305.5 Z"/></g>
<g><path style="opacity:1" fill="#e2916a" d="M 369.5,305.5 C 375.842,305.334 382.175,305.5 388.5,306C 399.381,313.721 410.381,321.221 421.5,328.5C 399.673,329.497 377.673,329.831 355.5,329.5C 355.5,325.833 355.5,322.167 355.5,318.5C 364.839,318.666 374.173,318.5 383.5,318C 384.833,317 384.833,316 383.5,315C 378.594,312.058 373.928,308.891 369.5,305.5 Z"/></g>
<g><path style="opacity:1" fill="#e2926a" d="M 105.5,318.5 C 122.325,319.497 139.325,319.83 156.5,319.5C 156.5,322.833 156.5,326.167 156.5,329.5C 134.327,329.831 112.327,329.497 90.5,328.5C 95.5,325.167 100.5,321.833 105.5,318.5 Z"/></g>
<g><path style="opacity:1" fill="#e4936a" d="M 210.5,318.5 C 240.833,318.5 271.167,318.5 301.5,318.5C 301.5,322.167 301.5,325.833 301.5,329.5C 271.167,329.5 240.833,329.5 210.5,329.5C 210.5,325.833 210.5,322.167 210.5,318.5 Z"/></g>
<g><path style="opacity:1" fill="#694431" d="M 421.5,328.5 C 422.043,328.56 422.376,328.893 422.5,329.5C 400.004,330.828 377.67,330.828 355.5,329.5C 377.673,329.831 399.673,329.497 421.5,328.5 Z"/></g>
<g><path style="opacity:1" fill="#684431" d="M 90.5,328.5 C 112.327,329.497 134.327,329.831 156.5,329.5C 134.004,330.663 111.337,330.83 88.5,330C 89.0442,329.283 89.7109,328.783 90.5,328.5 Z"/></g>
<g><path style="opacity:1" fill="#d9e3e9" d="M 483.5,431.5 C 483.047,432.458 482.381,433.292 481.5,434C 325.834,434.5 170.167,434.667 14.5,434.5C 14.19,431.287 14.5233,428.287 15.5,425.5C 17.0038,427.836 19.0038,429.669 21.5,431C 33.8333,431.667 46.1667,431.667 58.5,431C 62.6667,429.5 65.5,426.667 67,422.5C 67.4996,415.508 67.6663,408.508 67.5,401.5C 192.833,401.5 318.167,401.5 443.5,401.5C 443.334,408.508 443.5,415.508 444,422.5C 445.5,426.667 448.333,429.5 452.5,431C 462.828,431.5 473.161,431.666 483.5,431.5 Z"/></g>
<g><path style="opacity:1" fill="#b8c0ca" d="M 495.5,425.5 C 496.491,432.313 496.825,439.313 496.5,446.5C 383.833,446.333 271.166,446.5 158.5,447C 155.143,448.512 153.143,451.012 152.5,454.5C 145.833,454.5 139.167,454.5 132.5,454.5C 131.892,451.042 129.892,448.542 126.5,447C 89.1682,446.5 51.8348,446.333 14.5,446.5C 14.5,442.5 14.5,438.5 14.5,434.5C 170.167,434.667 325.834,434.5 481.5,434C 482.381,433.292 483.047,432.458 483.5,431.5C 488.621,431.58 492.621,429.58 495.5,425.5 Z"/></g>
<g><path style="opacity:1" fill="#434749" d="M 15.5,425.5 C 14.5233,428.287 14.19,431.287 14.5,434.5C 14.5,438.5 14.5,442.5 14.5,446.5C 13.3443,439.011 13.1777,431.345 14,423.5C 14.7172,424.044 15.2172,424.711 15.5,425.5 Z"/></g>
<g><path style="opacity:1" fill="#424548" d="M 496.5,446.5 C 496.825,439.313 496.491,432.313 495.5,425.5C 495.783,424.711 496.283,424.044 497,423.5C 497.822,431.345 497.656,439.011 496.5,446.5 Z"/></g>
</svg>
