<?xml version="1.0" encoding="UTF-8"?>
<!DOCTYPE svg PUBLIC "-//W3C//DTD SVG 1.1//EN" "http://www.w3.org/Graphics/SVG/1.1/DTD/svg11.dtd">
<svg xmlns="http://www.w3.org/2000/svg" version="1.1" width="512px" height="512px" style="shape-rendering:geometricPrecision; text-rendering:geometricPrecision; image-rendering:optimizeQuality; fill-rule:evenodd; clip-rule:evenodd" xmlns:xlink="http://www.w3.org/1999/xlink">
<g><path style="opacity:0.987" fill="#010101" d="M 109.5,-0.5 C 200.167,-0.5 290.833,-0.5 381.5,-0.5C 399.584,7.99505 406.917,22.3284 403.5,42.5C 418.75,39.6316 430.917,44.2983 440,56.5C 442.133,60.2316 443.466,64.2316 444,68.5C 444.667,78.5 444.667,88.5 444,98.5C 442.59,101.789 440.09,103.456 436.5,103.5C 433.042,102.892 430.542,100.892 429,97.5C 428.667,87.5 428.333,77.5 428,67.5C 426.021,62.0105 422.188,59.0105 416.5,58.5C 373.001,57.8333 329.335,57.5 285.5,57.5C 240.776,57.3408 196.109,57.8408 151.5,59C 147.687,61.1241 145.187,64.2908 144,68.5C 143.5,121.166 143.333,173.832 143.5,226.5C 149.245,227.116 154.911,228.116 160.5,229.5C 184.531,240.68 208.531,252.18 232.5,264C 239.92,267.14 247.586,269.473 255.5,271C 279.167,271.333 302.833,271.667 326.5,272C 330.007,273.33 331.673,275.83 331.5,279.5C 331.556,282.561 330.222,284.728 327.5,286C 303.167,286.667 278.833,286.667 254.5,286C 246.031,284.172 237.698,281.839 229.5,279C 207.5,268.333 185.5,257.667 163.5,247C 156.964,244.599 150.297,242.599 143.5,241C 112.542,239.538 81.5416,239.038 50.5,239.5C 45.1667,239.5 39.8333,239.5 34.5,239.5C 34.3333,318.834 34.5,398.167 35,477.5C 38.2335,490.9 46.7335,497.233 60.5,496.5C 73.8375,496.333 87.1708,496.5 100.5,497C 104.023,498.182 106.023,500.682 106.5,504.5C 106.429,507.652 105.095,509.986 102.5,511.5C 84.1667,511.5 65.8333,511.5 47.5,511.5C 32.6486,506.852 23.4819,496.852 20,481.5C 19.3333,384.167 19.3333,286.833 20,189.5C 23.5,172.667 33.6667,162.5 50.5,159C 62.8288,158.5 75.1622,158.333 87.5,158.5C 87.3333,112.832 87.5,67.1655 88,21.5C 91.3501,10.3177 98.5167,2.98437 109.5,-0.5 Z"/></g>
<g><path style="opacity:1" fill="#e85366" d="M 121.5,14.5 C 120.027,17.4469 118.527,20.4469 117,23.5C 116.5,90.4992 116.333,157.499 116.5,224.5C 111.833,224.5 107.167,224.5 102.5,224.5C 102.333,158.166 102.5,91.8325 103,25.5C 106.244,17.1158 112.411,13.4491 121.5,14.5 Z"/></g>
<g><path style="opacity:1" fill="#f27b7b" d="M 121.5,14.5 C 206.501,14.3333 291.501,14.5 376.5,15C 381.185,16.3498 384.685,19.1832 387,23.5C 387.5,29.8246 387.666,36.1579 387.5,42.5C 308.833,42.3333 230.166,42.5 151.5,43C 140,46.5 132.5,54 129,65.5C 128.5,118.499 128.333,171.499 128.5,224.5C 124.5,224.5 120.5,224.5 116.5,224.5C 116.333,157.499 116.5,90.4992 117,23.5C 118.527,20.4469 120.027,17.4469 121.5,14.5 Z"/></g>
<g><path style="opacity:1" fill="#9dc9ea" d="M 416.5,58.5 C 332.833,58.3333 249.166,58.5 165.5,59C 163.348,61.4689 161.848,64.3022 161,67.5C 160.5,121.499 160.333,175.499 160.5,229.5C 154.911,228.116 149.245,227.116 143.5,226.5C 143.333,173.832 143.5,121.166 144,68.5C 145.187,64.2908 147.687,61.1241 151.5,59C 196.109,57.8408 240.776,57.3408 285.5,57.5C 329.335,57.5 373.001,57.8333 416.5,58.5 Z"/></g>
<g><path style="opacity:1" fill="#badffe" d="M 416.5,58.5 C 422.188,59.0105 426.021,62.0105 428,67.5C 428.333,77.5 428.667,87.5 429,97.5C 430.542,100.892 433.042,102.892 436.5,103.5C 436.5,107.5 436.5,111.5 436.5,115.5C 433.042,116.108 430.542,118.108 429,121.5C 428.5,171.499 428.333,221.499 428.5,271.5C 402.831,271.333 377.165,271.5 351.5,272C 347.993,273.33 346.327,275.83 346.5,279.5C 341.5,279.5 336.5,279.5 331.5,279.5C 331.673,275.83 330.007,273.33 326.5,272C 302.833,271.667 279.167,271.333 255.5,271C 247.586,269.473 239.92,267.14 232.5,264C 208.531,252.18 184.531,240.68 160.5,229.5C 160.333,175.499 160.5,121.499 161,67.5C 161.848,64.3022 163.348,61.4689 165.5,59C 249.166,58.5 332.833,58.3333 416.5,58.5 Z"/></g>
<g><path style="opacity:1" fill="#020304" d="M 282.5,111.5 C 286.909,110.618 290.409,111.952 293,115.5C 293.667,120.5 293.667,125.5 293,130.5C 290.928,135.143 287.428,136.643 282.5,135C 280.951,133.786 279.785,132.286 279,130.5C 278.333,125.5 278.333,120.5 279,115.5C 280.376,114.295 281.542,112.962 282.5,111.5 Z"/></g>
<g><path style="opacity:0.983" fill="#010101" d="M 436.5,115.5 C 440.637,115.482 443.137,117.482 444,121.5C 444.5,133.829 444.667,146.162 444.5,158.5C 461.875,155.894 475.709,161.561 486,175.5C 488.66,179.814 490.327,184.481 491,189.5C 491.667,286.833 491.667,384.167 491,481.5C 487.518,496.852 478.351,506.852 463.5,511.5C 351.833,511.5 240.167,511.5 128.5,511.5C 125.905,509.986 124.571,507.652 124.5,504.5C 125.055,501.213 126.722,498.713 129.5,497C 239.5,496.667 349.5,496.333 459.5,496C 468.649,493.025 473.982,486.858 475.5,477.5C 476.499,414.002 476.832,350.336 476.5,286.5C 435.167,286.5 393.833,286.5 352.5,286.5C 348.41,285.998 346.41,283.665 346.5,279.5C 346.327,275.83 347.993,273.33 351.5,272C 377.165,271.5 402.831,271.333 428.5,271.5C 428.333,221.499 428.5,171.499 429,121.5C 430.542,118.108 433.042,116.108 436.5,115.5 Z"/></g>
<g><path style="opacity:1" fill="#050607" d="M 233.5,121.5 C 236.32,121.248 238.986,121.748 241.5,123C 244,125.5 246.5,128 249,130.5C 252.451,139.039 249.618,143.206 240.5,143C 237,139.5 233.5,136 230,132.5C 228.662,127.96 229.829,124.293 233.5,121.5 Z"/></g>
<g><path style="opacity:1" fill="#040506" d="M 332.5,121.5 C 340.201,121.362 343.367,125.029 342,132.5C 338.833,135.667 335.667,138.833 332.5,142C 328.22,144.477 324.72,143.644 322,139.5C 321.333,137.167 321.333,134.833 322,132.5C 325.03,128.305 328.53,124.639 332.5,121.5 Z"/></g>
<g><path style="opacity:1" fill="#030404" d="M 274.5,151.5 C 299.842,149.263 322.842,155.43 343.5,170C 351.5,176 359.5,182 367.5,188C 373.725,189.251 380.058,189.917 386.5,190C 394.073,194.187 394.406,198.854 387.5,204C 381.5,204.333 375.5,204.667 369.5,205C 358.677,213.245 347.677,221.245 336.5,229C 302.773,248.327 269.106,248.327 235.5,229C 224.323,221.245 213.323,213.245 202.5,205C 195.726,204.922 189.059,204.255 182.5,203C 179.351,198.038 180.018,193.705 184.5,190C 190.5,189.667 196.5,189.333 202.5,189C 214.167,180.667 225.833,172.333 237.5,164C 249.181,157.496 261.514,153.329 274.5,151.5 Z"/></g>
<g><path style="opacity:1" fill="#8c848c" d="M 278.5,166.5 C 296.626,164.473 309.126,171.806 316,188.5C 318.942,209.126 310.442,222.293 290.5,228C 272.81,229.239 261.31,221.406 256,204.5C 253.345,185.685 260.845,173.019 278.5,166.5 Z"/></g>
<g><path style="opacity:1" fill="#706872" d="M 87.5,174.5 C 83.5,174.5 79.5,174.5 75.5,174.5C 70.1563,174.334 64.8229,174.501 59.5,175C 55.2366,179.358 52.4033,184.525 51,190.5C 50.5001,201.828 50.3335,213.162 50.5,224.5C 45.1667,224.5 39.8333,224.5 34.5,224.5C 34.3335,213.495 34.5002,202.495 35,191.5C 37.6113,181.888 43.7779,176.055 53.5,174C 65.0076,173.174 76.3409,173.341 87.5,174.5 Z"/></g>
<g><path style="opacity:1" fill="#8d858d" d="M 75.5,174.5 C 75.5,191.167 75.5,207.833 75.5,224.5C 67.1667,224.5 58.8333,224.5 50.5,224.5C 50.3335,213.162 50.5001,201.828 51,190.5C 52.4033,184.525 55.2366,179.358 59.5,175C 64.8229,174.501 70.1563,174.334 75.5,174.5 Z"/></g>
<g><path style="opacity:1" fill="#756d77" d="M 75.5,174.5 C 79.5,174.5 83.5,174.5 87.5,174.5C 87.5,191.167 87.5,207.833 87.5,224.5C 83.5,224.5 79.5,224.5 75.5,224.5C 75.5,207.833 75.5,191.167 75.5,174.5 Z"/></g>
<g><path style="opacity:1" fill="#49434a" d="M 457.5,174.5 C 457.167,174.5 456.833,174.5 456.5,174.5C 452.5,174.5 448.5,174.5 444.5,174.5C 444.5,206.833 444.5,239.167 444.5,271.5C 448.5,271.5 452.5,271.5 456.5,271.5C 462.833,271.5 469.167,271.5 475.5,271.5C 465.013,272.494 454.346,272.828 443.5,272.5C 443.5,239.5 443.5,206.5 443.5,173.5C 448.363,173.181 453.03,173.514 457.5,174.5 Z"/></g>
<g><path style="opacity:1" fill="#766d78" d="M 456.5,174.5 C 456.5,206.833 456.5,239.167 456.5,271.5C 452.5,271.5 448.5,271.5 444.5,271.5C 444.5,239.167 444.5,206.833 444.5,174.5C 448.5,174.5 452.5,174.5 456.5,174.5 Z"/></g>
<g><path style="opacity:1" fill="#8a838a" d="M 456.5,174.5 C 456.833,174.5 457.167,174.5 457.5,174.5C 467.301,176.132 473.468,181.798 476,191.5C 476.83,218.336 476.664,245.003 475.5,271.5C 469.167,271.5 462.833,271.5 456.5,271.5C 456.5,239.167 456.5,206.833 456.5,174.5 Z"/></g>
<g><path style="opacity:1" fill="#e4ebf5" d="M 242.5,178.5 C 243.097,178.735 243.43,179.235 243.5,180C 239.547,191.473 239.547,202.973 243.5,214.5C 243.167,214.833 242.833,215.167 242.5,215.5C 233.81,209.821 225.477,203.654 217.5,197C 225.735,190.584 234.068,184.418 242.5,178.5 Z"/></g>
<g><path style="opacity:1" fill="#e3eaf5" d="M 328.5,178.5 C 337.566,184.059 346.232,190.226 354.5,197C 345.934,204.279 336.934,210.612 327.5,216C 332.365,203.609 332.698,191.109 328.5,178.5 Z"/></g>
<g><path style="opacity:1" fill="#f8ca61" d="M 50.5,239.5 C 50.3333,319.167 50.5,398.834 51,478.5C 52.3564,485.55 55.523,491.55 60.5,496.5C 46.7335,497.233 38.2335,490.9 35,477.5C 34.5,398.167 34.3333,318.834 34.5,239.5C 39.8333,239.5 45.1667,239.5 50.5,239.5 Z"/></g>
<g><path style="opacity:1" fill="#fedf7c" d="M 50.5,239.5 C 81.5416,239.038 112.542,239.538 143.5,241C 150.297,242.599 156.964,244.599 163.5,247C 185.5,257.667 207.5,268.333 229.5,279C 237.698,281.839 246.031,284.172 254.5,286C 278.833,286.667 303.167,286.667 327.5,286C 330.222,284.728 331.556,282.561 331.5,279.5C 336.5,279.5 341.5,279.5 346.5,279.5C 346.41,283.665 348.41,285.998 352.5,286.5C 393.33,287.499 434.33,287.832 475.5,287.5C 475.5,350.833 475.5,414.167 475.5,477.5C 473.982,486.858 468.649,493.025 459.5,496C 349.5,496.333 239.5,496.667 129.5,497C 126.722,498.713 125.055,501.213 124.5,504.5C 118.5,504.5 112.5,504.5 106.5,504.5C 106.023,500.682 104.023,498.182 100.5,497C 87.1708,496.5 73.8375,496.333 60.5,496.5C 55.523,491.55 52.3564,485.55 51,478.5C 50.5,398.834 50.3333,319.167 50.5,239.5 Z"/></g>
<g><path style="opacity:1" fill="#050402" d="M 70.5,273.5 C 87.8365,273.333 105.17,273.5 122.5,274C 128.292,276.09 129.792,279.924 127,285.5C 126.097,286.701 124.931,287.535 123.5,288C 105.5,288.667 87.5,288.667 69.5,288C 63.8813,282.595 64.2147,277.762 70.5,273.5 Z"/></g>
<g><path style="opacity:1" fill="#938148" d="M 352.5,286.5 C 393.833,286.5 435.167,286.5 476.5,286.5C 476.832,350.336 476.499,414.002 475.5,477.5C 475.5,414.167 475.5,350.833 475.5,287.5C 434.33,287.832 393.33,287.499 352.5,286.5 Z"/></g>
<g><path style="opacity:1" fill="#060504" d="M 328.5,370.5 C 360.502,370.333 392.502,370.5 424.5,371C 433.372,372.866 439.538,378.033 443,386.5C 443.667,407.833 443.667,429.167 443,450.5C 440.833,459.333 435.333,464.833 426.5,467C 393.5,467.667 360.5,467.667 327.5,467C 319.261,464.427 314.095,458.927 312,450.5C 311.333,429.5 311.333,408.5 312,387.5C 314.993,379.341 320.493,373.674 328.5,370.5 Z"/></g>
<g><path style="opacity:1" fill="#e9f0fb" d="M 331.5,385.5 C 362.921,385.015 394.254,385.515 425.5,387C 426.333,387.833 427.167,388.667 428,389.5C 428.976,409.923 428.643,430.256 427,450.5C 426.25,451.126 425.416,451.626 424.5,452C 392.791,452.826 361.125,452.659 329.5,451.5C 328.667,450.5 327.833,449.5 327,448.5C 326.333,429.167 326.333,409.833 327,390.5C 328.025,388.313 329.525,386.646 331.5,385.5 Z"/></g>
<g><path style="opacity:1" fill="#030303" d="M 351.5,398.5 C 368.837,398.333 386.17,398.5 403.5,399C 408.434,401.665 409.601,405.498 407,410.5C 405.829,411.893 404.329,412.727 402.5,413C 385.5,413.667 368.5,413.667 351.5,413C 346.225,408.122 346.225,403.289 351.5,398.5 Z"/></g>
<g><path style="opacity:1" fill="#080808" d="M 351.5,425.5 C 369.17,425.333 386.836,425.5 404.5,426C 410.09,431.41 409.423,436.077 402.5,440C 385.833,440.667 369.167,440.667 352.5,440C 347.311,437.087 346.144,432.92 349,427.5C 349.995,426.934 350.828,426.267 351.5,425.5 Z"/></g>
</svg>
