<?xml version="1.0" encoding="UTF-8"?>
<!DOCTYPE svg PUBLIC "-//W3C//DTD SVG 1.1//EN" "http://www.w3.org/Graphics/SVG/1.1/DTD/svg11.dtd">
<svg xmlns="http://www.w3.org/2000/svg" version="1.1" width="512px" height="512px" style="shape-rendering:geometricPrecision; text-rendering:geometricPrecision; image-rendering:optimizeQuality; fill-rule:evenodd; clip-rule:evenodd" xmlns:xlink="http://www.w3.org/1999/xlink">
<g><path style="opacity:0.996" fill="#1f1606" d="M 30.5,-0.5 C 85.5,-0.5 140.5,-0.5 195.5,-0.5C 199.317,0.840466 202.983,2.6738 206.5,5C 224.869,24.3669 242.869,44.0336 260.5,64C 333.833,64.3333 407.167,64.6667 480.5,65C 497.299,70.2947 507.632,81.4614 511.5,98.5C 511.5,224.833 511.5,351.167 511.5,477.5C 507.438,494.221 497.438,505.554 481.5,511.5C 330.833,511.5 180.167,511.5 29.5,511.5C 13.2917,504.629 3.29166,492.629 -0.5,475.5C -0.5,327.833 -0.5,180.167 -0.5,32.5C 4.01839,15.9831 14.3517,4.98313 30.5,-0.5 Z"/></g>
<g><path style="opacity:1" fill="#f7b32a" d="M 499.5,103.5 C 499.822,109.358 499.489,115.025 498.5,120.5C 495.365,117.099 491.698,114.433 487.5,112.5C 487.5,105.167 487.5,97.8333 487.5,90.5C 334.666,90.167 181.999,90.5004 29.5,91.5C 29.6666,119.502 29.5,147.502 29,175.5C 21.9329,177.901 15.9329,181.901 11,187.5C 10.3333,137.5 10.3333,87.5 11,37.5C 13.681,23.4892 21.8477,14.6558 35.5,11C 87.1667,10.3333 138.833,10.3333 190.5,11C 193.618,12.0587 196.618,13.3921 199.5,15C 218.535,35.0334 237.202,55.3667 255.5,76C 330.167,76.3333 404.833,76.6667 479.5,77C 491.372,81.9139 498.039,90.7472 499.5,103.5 Z"/></g>
<g><path style="opacity:1" fill="#956c19" d="M 29.5,91.5 C 181.999,90.5004 334.666,90.167 487.5,90.5C 487.5,97.8333 487.5,105.167 487.5,112.5C 486.509,105.687 486.175,98.6866 486.5,91.5C 334.167,91.5 181.833,91.5 29.5,91.5 Z"/></g>
<g><path style="opacity:1" fill="#e1e1e1" d="M 41.5,102.5 C 186.167,102.5 330.833,102.5 475.5,102.5C 475.5,104.833 475.5,107.167 475.5,109.5C 422.499,109.333 369.499,109.5 316.5,110C 309.317,112.085 303.317,115.918 298.5,121.5C 212.833,121.5 127.167,121.5 41.5,121.5C 41.5,115.167 41.5,108.833 41.5,102.5 Z"/></g>
<g><path style="opacity:1" fill="#8e6718" d="M 499.5,103.5 C 500.653,109.653 500.82,115.986 500,122.5C 499.283,121.956 498.783,121.289 498.5,120.5C 499.489,115.025 499.822,109.358 499.5,103.5 Z"/></g>
<g><path style="opacity:1" fill="#c1bebc" d="M 41.5,102.5 C 41.5,108.833 41.5,115.167 41.5,121.5C 127.167,121.5 212.833,121.5 298.5,121.5C 212.668,122.499 126.668,122.833 40.5,122.5C 40.176,115.646 40.5093,108.979 41.5,102.5 Z"/></g>
<g><path style="opacity:1" fill="#fdd565" d="M 319.5,120.5 C 371.501,120.333 423.501,120.5 475.5,121C 489.161,124.664 497.328,133.498 500,147.5C 500.667,255.833 500.667,364.167 500,472.5C 497.836,486.654 490.003,495.821 476.5,500C 329.167,500.667 181.833,500.667 34.5,500C 20.7691,494.929 12.9358,485.096 11,470.5C 10.3333,384.5 10.3333,298.5 11,212.5C 13.5745,198.929 21.4078,190.096 34.5,186C 108.5,185.667 182.5,185.333 256.5,185C 274.465,164.7 292.798,144.7 311.5,125C 314.099,123.205 316.766,121.705 319.5,120.5 Z"/></g>
<g><path style="opacity:1" fill="#b9b5b1" d="M 286.5,134.5 C 204.833,134.5 123.167,134.5 41.5,134.5C 41.5,147.833 41.5,161.167 41.5,174.5C 40.5043,161.01 40.171,147.344 40.5,133.5C 123.237,133.167 205.237,133.5 286.5,134.5 Z"/></g>
<g><path style="opacity:1" fill="#fefdfc" d="M 286.5,134.5 C 275.041,147.795 263.375,160.962 251.5,174C 181.501,174.5 111.501,174.667 41.5,174.5C 41.5,161.167 41.5,147.833 41.5,134.5C 123.167,134.5 204.833,134.5 286.5,134.5 Z"/></g>
<g><path style="opacity:1" fill="#1f1506" d="M 138.5,344.5 C 141.609,344.264 144.609,344.597 147.5,345.5C 149.891,356.376 156.557,360.543 167.5,358C 175.798,353.503 176.465,348.17 169.5,342C 160.533,339.207 151.533,336.54 142.5,334C 125.29,326.361 120.79,314.194 129,297.5C 134.273,290.946 141.106,287.112 149.5,286C 162.843,283.963 175.51,285.963 187.5,292C 193.615,297.063 196.948,303.563 197.5,311.5C 189.179,312.352 180.846,312.519 172.5,312C 169.491,303.492 163.491,300.159 154.5,302C 148.799,304.832 148.133,308.498 152.5,313C 162.489,315.998 172.489,318.998 182.5,322C 200.803,331.029 204.969,344.529 195,362.5C 185.182,372.553 173.182,376.886 159,375.5C 136.916,376.571 124.416,366.238 121.5,344.5C 127.167,344.5 132.833,344.5 138.5,344.5 Z"/></g>
<g><path style="opacity:1" fill="#1f1506" d="M 335.5,285.5 C 345.533,285.335 355.533,285.835 365.5,287C 377.603,289.936 385.27,297.436 388.5,309.5C 380.502,311.166 372.502,312.833 364.5,314.5C 363.558,314.392 362.725,314.059 362,313.5C 358.806,307.313 353.64,304.313 346.5,304.5C 335.154,305.68 328.987,312.014 328,323.5C 327.04,331.743 328.04,339.743 331,347.5C 336.53,355.236 344.03,358.07 353.5,356C 357.975,354.845 362.142,353.012 366,350.5C 366.497,347.854 366.664,345.187 366.5,342.5C 360.5,342.5 354.5,342.5 348.5,342.5C 348.5,336.5 348.5,330.5 348.5,324.5C 362.167,324.5 375.833,324.5 389.5,324.5C 389.667,336.838 389.5,349.171 389,361.5C 370.339,374.815 349.839,378.649 327.5,373C 309.298,364.777 300.631,350.611 301.5,330.5C 301.513,306.761 312.846,291.761 335.5,285.5 Z"/></g>
<g><path style="opacity:1" fill="#856e32" d="M 233.5,287.5 C 224.105,286.862 215.105,287.529 206.5,289.5C 205.596,288.791 205.263,287.791 205.5,286.5C 215.015,286.173 224.348,286.506 233.5,287.5 Z"/></g>
<g><path style="opacity:1" fill="#1f1506" d="M 233.5,287.5 C 240.148,307.751 246.648,328.084 253,348.5C 260.237,328.477 266.403,308.144 271.5,287.5C 280.839,287.334 290.173,287.5 299.5,288C 288.74,316.111 278.073,344.278 267.5,372.5C 257.522,373.499 247.522,373.832 237.5,373.5C 227.562,345.353 217.229,317.353 206.5,289.5C 215.105,287.529 224.105,286.862 233.5,287.5 Z"/></g>
<g><path style="opacity:1" fill="#6d5827" d="M 138.5,344.5 C 139.793,343.842 141.293,343.508 143,343.5C 144.986,343.569 146.486,344.235 147.5,345.5C 144.609,344.597 141.609,344.264 138.5,344.5 Z"/></g>
</svg>
