<?xml version="1.0" encoding="UTF-8"?>
<!DOCTYPE svg PUBLIC "-//W3C//DTD SVG 1.1//EN" "http://www.w3.org/Graphics/SVG/1.1/DTD/svg11.dtd">
<svg xmlns="http://www.w3.org/2000/svg" version="1.1" width="512px" height="512px" style="shape-rendering:geometricPrecision; text-rendering:geometricPrecision; image-rendering:optimizeQuality; fill-rule:evenodd; clip-rule:evenodd" xmlns:xlink="http://www.w3.org/1999/xlink">
<g><path style="opacity:0.993" fill="#000000" d="M 10.5,-0.5 C 43.1667,-0.5 75.8333,-0.5 108.5,-0.5C 111.784,1.11698 114.451,3.45031 116.5,6.5C 117.32,8.14011 118.153,9.80678 119,11.5C 119.979,44.5607 119.645,77.5607 118,110.5C 115.673,115.423 111.84,118.59 106.5,120C 90.8369,120.5 75.1702,120.667 59.5,120.5C 43.4965,120.667 27.4965,120.5 11.5,120C 9.80678,119.153 8.14011,118.32 6.5,117.5C 4.98261,117.489 3.81595,116.823 3,115.5C 1.5415,113.568 0.374833,111.568 -0.5,109.5C -0.5,97.5 -0.5,85.5 -0.5,73.5C 1.37183,71.3963 3.70516,70.063 6.5,69.5C 9.58675,70.053 12.0867,71.7197 14,74.5C 14.1794,84.7435 14.6794,94.9102 15.5,105C 30.1629,105.5 44.8295,105.667 59.5,105.5C 74.4116,105.824 89.245,105.491 104,104.5C 104.667,74.8333 104.667,45.1667 104,15.5C 89.245,14.5094 74.4116,14.176 59.5,14.5C 44.8295,14.3334 30.1629,14.5001 15.5,15C 14.6794,25.0898 14.1794,35.2565 14,45.5C 12.0867,48.2803 9.58675,49.947 6.5,50.5C 3.70516,49.937 1.37183,48.6037 -0.5,46.5C -0.5,34.5 -0.5,22.5 -0.5,10.5C 1.83333,5.5 5.5,1.83333 10.5,-0.5 Z"/></g>
<g><path style="opacity:0.999" fill="#000000" d="M 141.5,-0.5 C 217.5,-0.5 293.5,-0.5 369.5,-0.5C 372.784,1.11698 375.451,3.45031 377.5,6.5C 378.32,8.14011 379.153,9.80678 380,11.5C 380.667,43.5 380.667,75.5 380,107.5C 378.5,114.333 374.333,118.5 367.5,120C 292.5,120.667 217.5,120.667 142.5,120C 136.269,118.037 132.436,113.87 131,107.5C 130.333,75.5 130.333,43.5 131,11.5C 131.847,9.80678 132.68,8.14011 133.5,6.5C 135.549,3.45031 138.216,1.11698 141.5,-0.5 Z"/></g>
<g><path style="opacity:0.995" fill="#000000" d="M 402.5,-0.5 C 435.167,-0.5 467.833,-0.5 500.5,-0.5C 505.5,1.83333 509.167,5.5 511.5,10.5C 511.5,43.5 511.5,76.5 511.5,109.5C 510.625,111.568 509.459,113.568 508,115.5C 507.184,116.823 506.017,117.489 504.5,117.5C 502.641,118.594 500.641,119.427 498.5,120C 466.833,120.667 435.167,120.667 403.5,120C 397.269,118.037 393.436,113.87 392,107.5C 391.333,75.5 391.333,43.5 392,11.5C 392.847,9.80678 393.68,8.14011 394.5,6.5C 396.549,3.45031 399.216,1.11698 402.5,-0.5 Z"/></g>
<g><path style="opacity:0.999" fill="#cb4d40" d="M 116.5,6.5 C 122.167,6.5 127.833,6.5 133.5,6.5C 132.68,8.14011 131.847,9.80678 131,11.5C 130.333,43.5 130.333,75.5 131,107.5C 132.436,113.87 136.269,118.037 142.5,120C 217.5,120.667 292.5,120.667 367.5,120C 374.333,118.5 378.5,114.333 380,107.5C 380.667,75.5 380.667,43.5 380,11.5C 379.153,9.80678 378.32,8.14011 377.5,6.5C 383.167,6.5 388.833,6.5 394.5,6.5C 393.68,8.14011 392.847,9.80678 392,11.5C 391.333,43.5 391.333,75.5 392,107.5C 393.436,113.87 397.269,118.037 403.5,120C 435.167,120.667 466.833,120.667 498.5,120C 500.641,119.427 502.641,118.594 504.5,117.5C 504.5,122.5 504.5,127.5 504.5,132.5C 502.407,131.955 500.407,131.122 498.5,130C 423.833,129.333 349.167,129.333 274.5,130C 268.333,132.167 264.167,136.333 262,142.5C 261.333,174.5 261.333,206.5 262,238.5C 263.769,243.935 267.269,247.768 272.5,250C 348.167,250.667 423.833,250.667 499.5,250C 501.154,249.392 502.821,248.892 504.5,248.5C 504.5,253.167 504.5,257.833 504.5,262.5C 502.821,262.108 501.154,261.608 499.5,261C 467.167,260.333 434.833,260.333 402.5,261C 397.269,263.232 393.769,267.065 392,272.5C 391.333,304.5 391.333,336.5 392,368.5C 393.689,373.525 396.856,377.359 401.5,380C 433.773,381.645 466.106,381.978 498.5,381C 500.407,379.878 502.407,379.045 504.5,378.5C 504.5,383.5 504.5,388.5 504.5,393.5C 502.641,392.406 500.641,391.573 498.5,391C 423.5,390.333 348.5,390.333 273.5,391C 267.667,392.833 263.833,396.667 262,402.5C 261.333,434.5 261.333,466.5 262,498.5C 262.573,500.641 263.406,502.641 264.5,504.5C 258.5,504.5 252.5,504.5 246.5,504.5C 247.594,502.641 248.427,500.641 249,498.5C 249.667,466.5 249.667,434.5 249,402.5C 247.037,396.269 242.87,392.436 236.5,391C 177.501,390.5 118.501,390.333 59.5,390.5C 59.5,387.5 59.5,384.5 59.5,381.5C 75.1702,381.667 90.8369,381.5 106.5,381C 111.549,379.283 115.382,376.116 118,371.5C 119.645,338.561 119.979,305.561 119,272.5C 116.566,264.893 111.4,260.893 103.5,260.5C 89.0095,259.504 74.3428,259.171 59.5,259.5C 59.5,256.833 59.5,254.167 59.5,251.5C 117.669,251.832 175.669,251.499 233.5,250.5C 241.4,250.107 246.566,246.107 249,238.5C 249.667,206.5 249.667,174.5 249,142.5C 246.859,136.359 242.693,132.193 236.5,130C 177.501,129.5 118.501,129.333 59.5,129.5C 59.5,126.5 59.5,123.5 59.5,120.5C 75.1702,120.667 90.8369,120.5 106.5,120C 111.84,118.59 115.673,115.423 118,110.5C 119.645,77.5607 119.979,44.5607 119,11.5C 118.153,9.80678 117.32,8.14011 116.5,6.5 Z"/></g>
<g><path style="opacity:1" fill="#dc614d" d="M 59.5,14.5 C 59.5,44.8333 59.5,75.1667 59.5,105.5C 44.8295,105.667 30.1629,105.5 15.5,105C 14.6794,94.9102 14.1794,84.7435 14,74.5C 12.0867,71.7197 9.58675,70.053 6.5,69.5C 6.5,63.1667 6.5,56.8333 6.5,50.5C 9.58675,49.947 12.0867,48.2803 14,45.5C 14.1794,35.2565 14.6794,25.0898 15.5,15C 30.1629,14.5001 44.8295,14.3334 59.5,14.5 Z"/></g>
<g><path style="opacity:1" fill="#ea7158" d="M 59.5,14.5 C 74.4116,14.176 89.245,14.5094 104,15.5C 104.667,45.1667 104.667,74.8333 104,104.5C 89.245,105.491 74.4116,105.824 59.5,105.5C 59.5,75.1667 59.5,44.8333 59.5,14.5 Z"/></g>
<g><path style="opacity:1" fill="#dc614d" d="M 190.5,14.5 C 190.5,44.8333 190.5,75.1667 190.5,105.5C 175.588,105.824 160.755,105.491 146,104.5C 145.5,74.5019 145.333,44.5019 145.5,14.5C 160.5,14.5 175.5,14.5 190.5,14.5 Z"/></g>
<g><path style="opacity:1" fill="#ea7158" d="M 190.5,14.5 C 248.501,14.3333 306.501,14.5 364.5,15C 365.163,29.9273 365.496,44.9273 365.5,60C 365.496,75.0727 365.163,90.0727 364.5,105C 306.501,105.5 248.501,105.667 190.5,105.5C 190.5,75.1667 190.5,44.8333 190.5,14.5 Z"/></g>
<g><path style="opacity:1" fill="#dc614d" d="M 451.5,14.5 C 451.5,44.8333 451.5,75.1667 451.5,105.5C 436.588,105.824 421.755,105.491 407,104.5C 406.333,74.8333 406.333,45.1667 407,15.5C 421.755,14.5094 436.588,14.176 451.5,14.5 Z"/></g>
<g><path style="opacity:1" fill="#ea7158" d="M 451.5,14.5 C 466.412,14.176 481.245,14.5094 496,15.5C 496.667,45.1667 496.667,74.8333 496,104.5C 481.245,105.491 466.412,105.824 451.5,105.5C 451.5,75.1667 451.5,44.8333 451.5,14.5 Z"/></g>
<g><path style="opacity:1" fill="#c03f39" d="M 6.5,117.5 C 8.14011,118.32 9.80678,119.153 11.5,120C 27.4965,120.5 43.4965,120.667 59.5,120.5C 59.5,123.5 59.5,126.5 59.5,129.5C 43.8298,129.333 28.1631,129.5 12.5,130C 10.3716,130.655 8.37156,131.489 6.5,132.5C 6.5,127.5 6.5,122.5 6.5,117.5 Z"/></g>
<g><path style="opacity:0.998" fill="#050201" d="M 59.5,129.5 C 118.501,129.333 177.501,129.5 236.5,130C 242.693,132.193 246.859,136.359 249,142.5C 249.667,174.5 249.667,206.5 249,238.5C 246.566,246.107 241.4,250.107 233.5,250.5C 159.166,250.667 84.8326,250.5 10.5,250C 9.25501,249.209 7.92167,248.709 6.5,248.5C 3.42088,246.425 1.08754,243.758 -0.5,240.5C -0.5,207.167 -0.5,173.833 -0.5,140.5C 1.08754,137.242 3.42088,134.575 6.5,132.5C 8.37156,131.489 10.3716,130.655 12.5,130C 28.1631,129.5 43.8298,129.333 59.5,129.5 Z"/></g>
<g><path style="opacity:0.998" fill="#050201" d="M 504.5,132.5 C 507.579,134.575 509.912,137.242 511.5,140.5C 511.5,173.833 511.5,207.167 511.5,240.5C 509.912,243.758 507.579,246.425 504.5,248.5C 502.821,248.892 501.154,249.392 499.5,250C 423.833,250.667 348.167,250.667 272.5,250C 267.269,247.768 263.769,243.935 262,238.5C 261.333,206.5 261.333,174.5 262,142.5C 264.167,136.333 268.333,132.167 274.5,130C 349.167,129.333 423.833,129.333 498.5,130C 500.407,131.122 502.407,131.955 504.5,132.5 Z"/></g>
<g><path style="opacity:1" fill="#d9604c" d="M 233.5,145.5 C 175.5,145.5 117.5,145.5 59.5,145.5C 59.5,175.5 59.5,205.5 59.5,235.5C 44.5,235.5 29.5,235.5 14.5,235.5C 14.1712,205.26 14.5045,175.093 15.5,145C 88.3345,144.168 161.001,144.334 233.5,145.5 Z"/></g>
<g><path style="opacity:1" fill="#ea7158" d="M 233.5,145.5 C 234.498,175.329 234.831,205.329 234.5,235.5C 176.167,235.5 117.833,235.5 59.5,235.5C 59.5,205.5 59.5,175.5 59.5,145.5C 117.5,145.5 175.5,145.5 233.5,145.5 Z"/></g>
<g><path style="opacity:1" fill="#d8604c" d="M 495.5,145.5 C 437.5,145.5 379.5,145.5 321.5,145.5C 321.5,175.5 321.5,205.5 321.5,235.5C 306.5,235.5 291.5,235.5 276.5,235.5C 276.171,205.26 276.505,175.093 277.5,145C 350.334,144.168 423.001,144.334 495.5,145.5 Z"/></g>
<g><path style="opacity:1" fill="#ea7158" d="M 495.5,145.5 C 496.498,175.329 496.831,205.329 496.5,235.5C 438.167,235.5 379.833,235.5 321.5,235.5C 321.5,205.5 321.5,175.5 321.5,145.5C 379.5,145.5 437.5,145.5 495.5,145.5 Z"/></g>
<g><path style="opacity:1" fill="#aa3a33" d="M 6.5,248.5 C 7.92167,248.709 9.25501,249.209 10.5,250C 84.8326,250.5 159.166,250.667 233.5,250.5C 175.669,251.499 117.669,251.832 59.5,251.5C 59.5,254.167 59.5,256.833 59.5,259.5C 74.3428,259.171 89.0095,259.504 103.5,260.5C 72.4982,260.333 41.4982,260.5 10.5,261C 9.25501,261.791 7.92167,262.291 6.5,262.5C 6.5,257.833 6.5,253.167 6.5,248.5 Z"/></g>
<g><path style="opacity:0.997" fill="#040101" d="M 103.5,260.5 C 111.4,260.893 116.566,264.893 119,272.5C 119.979,305.561 119.645,338.561 118,371.5C 115.382,376.116 111.549,379.283 106.5,381C 90.8369,381.5 75.1702,381.667 59.5,381.5C 43.8298,381.667 28.1631,381.5 12.5,381C 10.3716,380.345 8.37156,379.511 6.5,378.5C 3.42088,376.425 1.08754,373.758 -0.5,370.5C -0.5,337.167 -0.5,303.833 -0.5,270.5C 1.08754,267.242 3.42088,264.575 6.5,262.5C 7.92167,262.291 9.25501,261.791 10.5,261C 41.4982,260.5 72.4982,260.333 103.5,260.5 Z"/></g>
<g><path style="opacity:1" fill="#050201" d="M 307.5,268.5 C 307.089,272.079 305.089,274.246 301.5,275C 264.502,275.5 227.502,275.667 190.5,275.5C 175.5,275.5 160.5,275.5 145.5,275.5C 145.171,305.74 145.505,335.907 146.5,366C 219.334,366.832 292.001,366.666 364.5,365.5C 365.498,335.671 365.831,305.671 365.5,275.5C 354.828,275.667 344.161,275.5 333.5,275C 330.921,273.924 329.254,272.091 328.5,269.5C 327.875,266.03 328.875,263.196 331.5,261C 343.833,260.333 356.167,260.333 368.5,261C 373.185,262.35 376.685,265.183 379,269.5C 380.645,302.439 380.979,335.439 380,368.5C 377.859,374.641 373.693,378.807 367.5,381C 292.833,381.667 218.167,381.667 143.5,381C 137.333,378.833 133.167,374.667 131,368.5C 130.333,336.5 130.333,304.5 131,272.5C 132.743,267.09 136.243,263.256 141.5,261C 195.5,260.333 249.5,260.333 303.5,261C 306.359,262.691 307.692,265.191 307.5,268.5 Z"/></g>
<g><path style="opacity:0.997" fill="#040101" d="M 504.5,262.5 C 507.579,264.575 509.912,267.242 511.5,270.5C 511.5,303.833 511.5,337.167 511.5,370.5C 509.912,373.758 507.579,376.425 504.5,378.5C 502.407,379.045 500.407,379.878 498.5,381C 466.106,381.978 433.773,381.645 401.5,380C 396.856,377.359 393.689,373.525 392,368.5C 391.333,336.5 391.333,304.5 392,272.5C 393.769,267.065 397.269,263.232 402.5,261C 434.833,260.333 467.167,260.333 499.5,261C 501.154,261.608 502.821,262.108 504.5,262.5 Z"/></g>
<g><path style="opacity:1" fill="#ea7158" d="M 328.5,269.5 C 329.254,272.091 330.921,273.924 333.5,275C 344.161,275.5 354.828,275.667 365.5,275.5C 365.831,305.671 365.498,335.671 364.5,365.5C 306.5,365.5 248.5,365.5 190.5,365.5C 190.5,335.5 190.5,305.5 190.5,275.5C 227.502,275.667 264.502,275.5 301.5,275C 305.089,274.246 307.089,272.079 307.5,268.5C 314.698,266.86 321.698,267.193 328.5,269.5 Z"/></g>
<g><path style="opacity:1" fill="#db614d" d="M 59.5,275.5 C 59.5,305.5 59.5,335.5 59.5,365.5C 74.1667,365.5 88.8333,365.5 103.5,365.5C 74.0977,366.832 44.5977,366.832 15,365.5C 14.5,335.502 14.3334,305.502 14.5,275.5C 29.5,275.5 44.5,275.5 59.5,275.5 Z"/></g>
<g><path style="opacity:1" fill="#ea7158" d="M 59.5,275.5 C 74.5,275.5 89.5,275.5 104.5,275.5C 104.831,305.671 104.498,335.671 103.5,365.5C 88.8333,365.5 74.1667,365.5 59.5,365.5C 59.5,335.5 59.5,305.5 59.5,275.5 Z"/></g>
<g><path style="opacity:1" fill="#d9604c" d="M 190.5,275.5 C 190.5,305.5 190.5,335.5 190.5,365.5C 248.5,365.5 306.5,365.5 364.5,365.5C 292.001,366.666 219.334,366.832 146.5,366C 145.505,335.907 145.171,305.74 145.5,275.5C 160.5,275.5 175.5,275.5 190.5,275.5 Z"/></g>
<g><path style="opacity:1" fill="#db614d" d="M 451.5,275.5 C 451.5,305.5 451.5,335.5 451.5,365.5C 466.167,365.5 480.833,365.5 495.5,365.5C 466.098,366.832 436.598,366.832 407,365.5C 406.5,335.502 406.333,305.502 406.5,275.5C 421.5,275.5 436.5,275.5 451.5,275.5 Z"/></g>
<g><path style="opacity:1" fill="#ea7158" d="M 451.5,275.5 C 466.5,275.5 481.5,275.5 496.5,275.5C 496.831,305.671 496.498,335.671 495.5,365.5C 480.833,365.5 466.167,365.5 451.5,365.5C 451.5,335.5 451.5,305.5 451.5,275.5 Z"/></g>
<g><path style="opacity:1" fill="#c03f39" d="M 6.5,378.5 C 8.37156,379.511 10.3716,380.345 12.5,381C 28.1631,381.5 43.8298,381.667 59.5,381.5C 59.5,384.5 59.5,387.5 59.5,390.5C 43.4965,390.333 27.4965,390.5 11.5,391C 9.80678,391.847 8.14011,392.68 6.5,393.5C 6.5,388.5 6.5,383.5 6.5,378.5 Z"/></g>
<g><path style="opacity:0.996" fill="#000000" d="M 59.5,390.5 C 118.501,390.333 177.501,390.5 236.5,391C 242.87,392.436 247.037,396.269 249,402.5C 249.667,434.5 249.667,466.5 249,498.5C 248.427,500.641 247.594,502.641 246.5,504.5C 244.451,507.55 241.784,509.883 238.5,511.5C 183.5,511.5 128.5,511.5 73.5,511.5C 70.9046,509.986 69.5713,507.652 69.5,504.5C 69.5,504.167 69.5,503.833 69.5,503.5C 69.9005,499.93 71.9005,497.764 75.5,497C 128.167,496.667 180.833,496.333 233.5,496C 234.495,465.907 234.829,435.74 234.5,405.5C 176.167,405.5 117.833,405.5 59.5,405.5C 44.5884,405.176 29.755,405.509 15,406.5C 14.3333,436.167 14.3333,465.833 15,495.5C 24.4226,496.32 33.9226,496.82 43.5,497C 47.5181,497.863 49.5181,500.363 49.5,504.5C 49.4287,507.652 48.0954,509.986 45.5,511.5C 33.8333,511.5 22.1667,511.5 10.5,511.5C 5.5,509.167 1.83333,505.5 -0.5,500.5C -0.5,467.5 -0.5,434.5 -0.5,401.5C 0.374833,399.432 1.5415,397.432 3,395.5C 3.81595,394.177 4.98261,393.511 6.5,393.5C 8.14011,392.68 9.80678,391.847 11.5,391C 27.4965,390.5 43.4965,390.333 59.5,390.5 Z"/></g>
<g><path style="opacity:0.997" fill="#000000" d="M 504.5,393.5 C 506.017,393.511 507.184,394.177 508,395.5C 509.459,397.432 510.625,399.432 511.5,401.5C 511.5,434.5 511.5,467.5 511.5,500.5C 509.167,505.5 505.5,509.167 500.5,511.5C 424.5,511.5 348.5,511.5 272.5,511.5C 269.216,509.883 266.549,507.55 264.5,504.5C 263.406,502.641 262.573,500.641 262,498.5C 261.333,466.5 261.333,434.5 262,402.5C 263.833,396.667 267.667,392.833 273.5,391C 348.5,390.333 423.5,390.333 498.5,391C 500.641,391.573 502.641,392.406 504.5,393.5 Z"/></g>
<g><path style="opacity:1" fill="#dc624e" d="M 59.5,405.5 C 59.3334,436.502 59.5,467.502 60,498.5C 61.9449,502.39 65.1116,504.057 69.5,503.5C 69.5,503.833 69.5,504.167 69.5,504.5C 62.8333,504.5 56.1667,504.5 49.5,504.5C 49.5181,500.363 47.5181,497.863 43.5,497C 33.9226,496.82 24.4226,496.32 15,495.5C 14.3333,465.833 14.3333,436.167 15,406.5C 29.755,405.509 44.5884,405.176 59.5,405.5 Z"/></g>
<g><path style="opacity:1" fill="#ea7158" d="M 59.5,405.5 C 117.833,405.5 176.167,405.5 234.5,405.5C 234.829,435.74 234.495,465.907 233.5,496C 180.833,496.333 128.167,496.667 75.5,497C 71.9005,497.764 69.9005,499.93 69.5,503.5C 65.1116,504.057 61.9449,502.39 60,498.5C 59.5,467.502 59.3334,436.502 59.5,405.5 Z"/></g>
<g><path style="opacity:1" fill="#dc614d" d="M 281.5,405.5 C 294.833,405.5 308.167,405.5 321.5,405.5C 321.5,435.833 321.5,466.167 321.5,496.5C 310.167,496.5 298.833,496.5 287.5,496.5C 284.375,495.521 281.042,495.187 277.5,495.5C 277.5,465.833 277.5,436.167 277.5,406.5C 279.099,406.768 280.432,406.434 281.5,405.5 Z"/></g>
<g><path style="opacity:1" fill="#ea7158" d="M 321.5,405.5 C 379.501,405.333 437.501,405.5 495.5,406C 496.163,420.927 496.496,435.927 496.5,451C 496.496,466.073 496.163,481.073 495.5,496C 437.501,496.5 379.501,496.667 321.5,496.5C 321.5,466.167 321.5,435.833 321.5,405.5 Z"/></g>
<g><path style="opacity:1" fill="#c65846" d="M 281.5,405.5 C 280.432,406.434 279.099,406.768 277.5,406.5C 277.5,436.167 277.5,465.833 277.5,495.5C 281.042,495.187 284.375,495.521 287.5,496.5C 283.833,496.5 280.167,496.5 276.5,496.5C 276.5,466.167 276.5,435.833 276.5,405.5C 278.167,405.5 279.833,405.5 281.5,405.5 Z"/></g>
</svg>
