<?xml version="1.0" encoding="UTF-8"?>
<!DOCTYPE svg PUBLIC "-//W3C//DTD SVG 1.1//EN" "http://www.w3.org/Graphics/SVG/1.1/DTD/svg11.dtd">
<svg xmlns="http://www.w3.org/2000/svg" version="1.1" width="512px" height="512px" style="shape-rendering:geometricPrecision; text-rendering:geometricPrecision; image-rendering:optimizeQuality; fill-rule:evenodd; clip-rule:evenodd" xmlns:xlink="http://www.w3.org/1999/xlink">
<g><path style="opacity:0.993" fill="#010101" d="M 511.5,41.5 C 511.5,147.5 511.5,253.5 511.5,359.5C 507.612,385.029 501.112,410.029 492,434.5C 491.667,451.167 491.333,467.833 491,484.5C 488.27,491.053 483.437,493.22 476.5,491C 472.345,489.189 470.345,486.023 470.5,481.5C 470.333,465.163 470.5,448.83 471,432.5C 475.359,417.728 480.026,403.061 485,388.5C 487.972,377.003 489.972,365.336 491,353.5C 491.667,324.167 491.667,294.833 491,265.5C 485.132,256.728 478.798,256.395 472,264.5C 471.934,275.905 471.267,287.238 470,298.5C 463.042,305.638 457.042,304.971 452,296.5C 451.667,281.167 451.333,265.833 451,250.5C 447.723,244.891 442.89,243.058 436.5,245C 435,246.5 433.5,248 432,249.5C 431.667,264.833 431.333,280.167 431,295.5C 428.706,301.934 424.206,304.434 417.5,303C 415,301.833 413.167,300 412,297.5C 411.667,277.833 411.333,258.167 411,238.5C 405.48,230.045 399.146,229.378 392,236.5C 391.667,256.167 391.333,275.833 391,295.5C 387.966,302.734 382.799,304.901 375.5,302C 373.951,300.786 372.785,299.286 372,297.5C 371.667,256.167 371.333,214.833 371,173.5C 367.826,166.495 362.659,164.328 355.5,167C 353.383,168.731 351.883,170.898 351,173.5C 350.667,223.833 350.333,274.167 350,324.5C 347.232,330.172 342.732,332.006 336.5,330C 335.069,329.535 333.903,328.701 333,327.5C 325.079,313.326 317.412,298.992 310,284.5C 304.122,275.141 297.122,274.141 289,281.5C 288.015,283.366 287.515,285.366 287.5,287.5C 293.552,314.708 300.385,341.708 308,368.5C 310.745,374.325 313.745,379.992 317,385.5C 328,400.5 339,415.5 350,430.5C 350.168,447.672 350.668,464.672 351.5,481.5C 350.14,490.189 345.14,493.355 336.5,491C 334,489.833 332.167,488 331,485.5C 330.667,469.5 330.333,453.5 330,437.5C 320.333,424.5 310.667,411.5 301,398.5C 294.337,388.173 289.004,377.173 285,365.5C 281.181,350.892 277.681,336.226 274.5,321.5C 261.833,321.5 249.167,321.5 236.5,321.5C 232.761,340.123 227.928,358.457 222,376.5C 218.508,384.153 214.508,391.487 210,398.5C 200.333,411.5 190.667,424.5 181,437.5C 180.667,453.5 180.333,469.5 180,485.5C 176.723,491.109 171.89,492.942 165.5,491C 161.865,488.904 159.865,485.737 159.5,481.5C 160.332,464.672 160.832,447.672 161,430.5C 170.756,416.656 180.756,402.989 191,389.5C 199.703,377.423 205.703,364.09 209,349.5C 214.15,328.9 218.983,308.233 223.5,287.5C 221.655,277.706 215.988,274.539 206.5,278C 204.291,279.873 202.458,282.04 201,284.5C 193.588,298.992 185.921,313.326 178,327.5C 171.087,333.45 165.42,332.45 161,324.5C 160.667,274.167 160.333,223.833 160,173.5C 156.359,165.752 150.859,163.919 143.5,168C 141.959,169.579 140.792,171.413 140,173.5C 139.667,214.833 139.333,256.167 139,297.5C 134.036,304.495 128.37,305.162 122,299.5C 121.333,298.167 120.667,296.833 120,295.5C 119.667,275.833 119.333,256.167 119,236.5C 111.769,229.28 105.435,229.946 100,238.5C 99.6667,258.167 99.3333,277.833 99,297.5C 95.4685,303.182 90.6352,304.682 84.5,302C 82.3834,300.269 80.8834,298.102 80,295.5C 79.6667,280.167 79.3333,264.833 79,249.5C 75.5616,244.919 71.0616,243.419 65.5,245C 63,246.167 61.1667,248 60,250.5C 59.6667,265.833 59.3333,281.167 59,296.5C 53.9213,304.9 47.9213,305.567 41,298.5C 40.0226,286.808 39.0226,275.141 38,263.5C 31.1761,256.414 25.1761,257.081 20,265.5C 19.3333,294.833 19.3333,324.167 20,353.5C 21.0282,365.336 23.0282,377.003 26,388.5C 30.9741,403.061 35.6407,417.728 40,432.5C 40.4999,448.83 40.6666,465.163 40.5,481.5C 39.201,490.163 34.201,493.33 25.5,491C 22.6193,489.749 20.786,487.583 20,484.5C 19.6667,467.833 19.3333,451.167 19,434.5C 9.88813,410.029 3.38813,385.029 -0.5,359.5C -0.5,253.5 -0.5,147.5 -0.5,41.5C 2.98437,30.5167 10.3177,23.3501 21.5,20C 177.5,19.3333 333.5,19.3333 489.5,20C 500.682,23.3501 508.016,30.5167 511.5,41.5 Z"/></g>
<g><path style="opacity:1" fill="#d7d7e3" d="M 392.5,212.5 C 391.833,198.833 391.167,185.167 390.5,171.5C 387.037,155.375 377.037,146.708 360.5,145.5C 344.954,147.048 335.288,155.381 331.5,170.5C 330.833,206.833 330.167,243.167 329.5,279.5C 325.605,267.602 317.605,260.268 305.5,257.5C 306.962,250.921 304.629,246.421 298.5,244C 273.167,243.333 247.833,243.333 222.5,244C 217.611,246.737 215.611,250.903 216.5,256.5C 199.271,255.733 187.604,263.4 181.5,279.5C 180.833,243.167 180.167,206.833 179.5,170.5C 173.683,150.919 160.683,143.086 140.5,147C 129.189,151.469 122.522,159.636 120.5,171.5C 119.833,185.167 119.167,198.833 118.5,212.5C 103.04,209.152 91.2072,214.152 83,227.5C 75.0692,224.119 66.9025,223.619 58.5,226C 51.382,229.62 45.7153,234.787 41.5,241.5C 34.3833,239.357 27.2166,239.023 20,240.5C 19.3333,175.5 19.3333,110.5 20,45.5C 21.1667,43 23,41.1667 25.5,40C 178.167,39.3333 330.833,39.3333 483.5,40C 487.02,40.504 489.52,42.3374 491,45.5C 491.5,110.499 491.667,175.499 491.5,240.5C 484.03,238.843 476.696,239.176 469.5,241.5C 459.493,225.553 445.659,220.886 428,227.5C 419.731,214.239 407.897,209.239 392.5,212.5 Z"/></g>
<g><path style="opacity:1" fill="#020202" d="M 60.5,75.5 C 73.8375,75.3334 87.1708,75.5001 100.5,76C 106.777,78.3887 108.943,82.8887 107,89.5C 105.74,92.4281 103.573,94.2614 100.5,95C 87.1667,95.6667 73.8333,95.6667 60.5,95C 53.2176,91.1786 51.7176,85.6786 56,78.5C 57.6516,77.6006 59.1516,76.6006 60.5,75.5 Z"/></g>
<g><path style="opacity:1" fill="#020202" d="M 171.5,75.5 C 184.171,75.3334 196.838,75.5001 209.5,76C 216.498,79.1823 218.331,84.349 215,91.5C 213.421,93.0412 211.587,94.2078 209.5,95C 196.833,95.6667 184.167,95.6667 171.5,95C 165.458,91.2519 163.958,86.0852 167,79.5C 168.397,77.9297 169.897,76.5964 171.5,75.5 Z"/></g>
<g><path style="opacity:1" fill="#020202" d="M 252.5,75.5 C 264.243,75.0645 275.91,75.5645 287.5,77C 292.833,82.6667 292.833,88.3333 287.5,94C 286.5,94.3333 285.5,94.6667 284.5,95C 273.833,95.6667 263.167,95.6667 252.5,95C 245.218,91.1786 243.718,85.6786 248,78.5C 249.652,77.6006 251.152,76.6006 252.5,75.5 Z"/></g>
<g><path style="opacity:1" fill="#020203" d="M 337.5,75.5 C 347.912,75.0738 358.246,75.5738 368.5,77C 373.833,82.6667 373.833,88.3333 368.5,94C 358.241,95.5925 347.907,95.9258 337.5,95C 331.458,91.2519 329.958,86.0852 333,79.5C 334.397,77.9297 335.897,76.5964 337.5,75.5 Z"/></g>
<g><path style="opacity:1" fill="#010101" d="M 411.5,75.5 C 424.171,75.3334 436.838,75.5001 449.5,76C 458.101,79.4207 459.768,85.0874 454.5,93C 452.913,93.8624 451.246,94.5291 449.5,95C 436.833,95.6667 424.167,95.6667 411.5,95C 402.237,88.5136 402.237,82.0136 411.5,75.5 Z"/></g>
<g><path style="opacity:1" fill="#060606" d="M 133.5,75.5 C 143.503,75.0016 147.67,79.6683 146,89.5C 143.259,94.4186 139.092,96.2519 133.5,95C 127.975,92.0812 126.142,87.5812 128,81.5C 129.36,78.9774 131.193,76.9774 133.5,75.5 Z"/></g>
<g><path style="opacity:1" fill="#020202" d="M 60.5,131.5 C 76.5035,131.333 92.5035,131.5 108.5,132C 116.674,135.212 118.508,140.712 114,148.5C 112.352,149.717 110.519,150.55 108.5,151C 92.5,151.667 76.5,151.667 60.5,151C 53.2176,147.179 51.7176,141.679 56,134.5C 57.6516,133.601 59.1516,132.601 60.5,131.5 Z"/></g>
<g><path style="opacity:1" fill="#030303" d="M 187.5,131.5 C 194.841,131.334 202.174,131.5 209.5,132C 216.498,135.182 218.331,140.349 215,147.5C 213.421,149.041 211.587,150.208 209.5,151C 201.395,151.934 193.395,151.601 185.5,150C 179.721,143.067 180.388,136.901 187.5,131.5 Z"/></g>
<g><path style="opacity:1" fill="#020202" d="M 239.5,131.5 C 251.243,131.064 262.91,131.564 274.5,133C 280.34,137.561 281.006,142.894 276.5,149C 274.913,149.862 273.246,150.529 271.5,151C 260.833,151.667 250.167,151.667 239.5,151C 233.458,147.252 231.958,142.085 235,135.5C 236.397,133.93 237.897,132.596 239.5,131.5 Z"/></g>
<g><path style="opacity:1" fill="#060606" d="M 313.5,131.5 C 323.503,131.002 327.67,135.668 326,145.5C 323.259,150.419 319.092,152.252 313.5,151C 307.975,148.081 306.142,143.581 308,137.5C 309.36,134.977 311.193,132.977 313.5,131.5 Z"/></g>
<g><path style="opacity:1" fill="#020202" d="M 406.5,131.5 C 421.17,131.333 435.837,131.5 450.5,132C 456.795,134.425 458.962,138.925 457,145.5C 455.749,148.381 453.583,150.214 450.5,151C 435.833,151.667 421.167,151.667 406.5,151C 400.458,147.252 398.958,142.085 402,135.5C 403.667,134.267 405.167,132.933 406.5,131.5 Z"/></g>
<g><path style="opacity:1" fill="#fdc69d" d="M 159.5,481.5 C 119.833,481.5 80.1667,481.5 40.5,481.5C 40.6666,465.163 40.4999,448.83 40,432.5C 35.6407,417.728 30.9741,403.061 26,388.5C 23.0282,377.003 21.0282,365.336 20,353.5C 19.3333,324.167 19.3333,294.833 20,265.5C 25.1761,257.081 31.1761,256.414 38,263.5C 39.0226,275.141 40.0226,286.808 41,298.5C 47.9213,305.567 53.9213,304.9 59,296.5C 59.3333,281.167 59.6667,265.833 60,250.5C 61.1667,248 63,246.167 65.5,245C 71.0616,243.419 75.5616,244.919 79,249.5C 79.3333,264.833 79.6667,280.167 80,295.5C 80.8834,298.102 82.3834,300.269 84.5,302C 90.6352,304.682 95.4685,303.182 99,297.5C 99.3333,277.833 99.6667,258.167 100,238.5C 105.435,229.946 111.769,229.28 119,236.5C 119.333,256.167 119.667,275.833 120,295.5C 120.667,296.833 121.333,298.167 122,299.5C 128.37,305.162 134.036,304.495 139,297.5C 139.333,256.167 139.667,214.833 140,173.5C 140.792,171.413 141.959,169.579 143.5,168C 150.859,163.919 156.359,165.752 160,173.5C 160.333,223.833 160.667,274.167 161,324.5C 165.42,332.45 171.087,333.45 178,327.5C 185.921,313.326 193.588,298.992 201,284.5C 202.458,282.04 204.291,279.873 206.5,278C 215.988,274.539 221.655,277.706 223.5,287.5C 218.983,308.233 214.15,328.9 209,349.5C 205.703,364.09 199.703,377.423 191,389.5C 180.756,402.989 170.756,416.656 161,430.5C 160.832,447.672 160.332,464.672 159.5,481.5 Z"/></g>
<g><path style="opacity:1" fill="#fdc69d" d="M 470.5,481.5 C 430.833,481.5 391.167,481.5 351.5,481.5C 350.668,464.672 350.168,447.672 350,430.5C 339,415.5 328,400.5 317,385.5C 313.745,379.992 310.745,374.325 308,368.5C 300.385,341.708 293.552,314.708 287.5,287.5C 287.515,285.366 288.015,283.366 289,281.5C 297.122,274.141 304.122,275.141 310,284.5C 317.412,298.992 325.079,313.326 333,327.5C 333.903,328.701 335.069,329.535 336.5,330C 342.732,332.006 347.232,330.172 350,324.5C 350.333,274.167 350.667,223.833 351,173.5C 351.883,170.898 353.383,168.731 355.5,167C 362.659,164.328 367.826,166.495 371,173.5C 371.333,214.833 371.667,256.167 372,297.5C 372.785,299.286 373.951,300.786 375.5,302C 382.799,304.901 387.966,302.734 391,295.5C 391.333,275.833 391.667,256.167 392,236.5C 399.146,229.378 405.48,230.045 411,238.5C 411.333,258.167 411.667,277.833 412,297.5C 413.167,300 415,301.833 417.5,303C 424.206,304.434 428.706,301.934 431,295.5C 431.333,280.167 431.667,264.833 432,249.5C 433.5,248 435,246.5 436.5,245C 442.89,243.058 447.723,244.891 451,250.5C 451.333,265.833 451.667,281.167 452,296.5C 457.042,304.971 463.042,305.638 470,298.5C 471.267,287.238 471.934,275.905 472,264.5C 478.798,256.395 485.132,256.728 491,265.5C 491.667,294.833 491.667,324.167 491,353.5C 489.972,365.336 487.972,377.003 485,388.5C 480.026,403.061 475.359,417.728 471,432.5C 470.5,448.83 470.333,465.163 470.5,481.5 Z"/></g>
<g><path style="opacity:1" fill="#646469" d="M 120.5,171.5 C 120.833,185.516 120.499,199.516 119.5,213.5C 118.893,213.376 118.56,213.043 118.5,212.5C 119.167,198.833 119.833,185.167 120.5,171.5 Z"/></g>
<g><path style="opacity:1" fill="#545459" d="M 179.5,170.5 C 180.167,206.833 180.833,243.167 181.5,279.5C 181.217,280.289 180.717,280.956 180,281.5C 179.5,244.502 179.333,207.502 179.5,170.5 Z"/></g>
<g><path style="opacity:1" fill="#535358" d="M 331.5,170.5 C 331.667,207.502 331.5,244.502 331,281.5C 330.283,280.956 329.783,280.289 329.5,279.5C 330.167,243.167 330.833,206.833 331.5,170.5 Z"/></g>
<g><path style="opacity:1" fill="#646469" d="M 390.5,171.5 C 391.167,185.167 391.833,198.833 392.5,212.5C 392.44,213.043 392.107,213.376 391.5,213.5C 390.501,199.516 390.167,185.516 390.5,171.5 Z"/></g>
<g><path style="opacity:1" fill="#040404" d="M 59.5,187.5 C 67.5069,187.334 75.5069,187.5 83.5,188C 89.7952,190.425 91.9618,194.925 90,201.5C 88.7494,204.381 86.5827,206.214 83.5,207C 75.8333,207.667 68.1667,207.667 60.5,207C 54.743,204.318 52.5763,199.818 54,193.5C 55.3597,190.977 57.193,188.977 59.5,187.5 Z"/></g>
<g><path style="opacity:1" fill="#030303" d="M 211.5,187.5 C 220.582,187.086 229.582,187.586 238.5,189C 243.472,192.527 244.638,197.027 242,202.5C 240.363,204.81 238.196,206.31 235.5,207C 227.5,207.667 219.5,207.667 211.5,207C 202.209,200.418 202.209,193.918 211.5,187.5 Z"/></g>
<g><path style="opacity:1" fill="#030303" d="M 280.5,187.5 C 290.247,187.08 299.914,187.58 309.5,189C 315.34,193.561 316.006,198.894 311.5,205C 309.913,205.862 308.246,206.529 306.5,207C 297.833,207.667 289.167,207.667 280.5,207C 272.53,200.423 272.53,193.923 280.5,187.5 Z"/></g>
<g><path style="opacity:1" fill="#030303" d="M 423.5,187.5 C 432.915,187.083 442.248,187.583 451.5,189C 456.833,194.667 456.833,200.333 451.5,206C 442.242,207.584 432.909,207.917 423.5,207C 417.614,203.194 416.114,198.028 419,191.5C 420.667,190.267 422.167,188.933 423.5,187.5 Z"/></g>
<g><path style="opacity:1" fill="#d6d6e1" d="M 232.5,264.5 C 247.661,263.339 262.994,263.172 278.5,264C 267.408,274.46 264.408,286.96 269.5,301.5C 260.167,301.5 250.833,301.5 241.5,301.5C 245.175,290.258 244.009,279.592 238,269.5C 236.296,267.627 234.463,265.96 232.5,264.5 Z"/></g>
</svg>
