<?xml version="1.0" encoding="UTF-8"?>
<!DOCTYPE svg PUBLIC "-//W3C//DTD SVG 1.1//EN" "http://www.w3.org/Graphics/SVG/1.1/DTD/svg11.dtd">
<svg xmlns="http://www.w3.org/2000/svg" version="1.1" width="512px" height="512px" style="shape-rendering:geometricPrecision; text-rendering:geometricPrecision; image-rendering:optimizeQuality; fill-rule:evenodd; clip-rule:evenodd" xmlns:xlink="http://www.w3.org/1999/xlink">
<g><path style="opacity:0.967" fill="#030302" d="M 201.5,-0.5 C 234.167,-0.5 266.833,-0.5 299.5,-0.5C 299.5,16.1667 299.5,32.8333 299.5,49.5C 319.686,54.2288 338.686,61.8954 356.5,72.5C 368.486,61.0142 380.319,49.3475 392,37.5C 415.041,60.7077 438.207,83.7077 461.5,106.5C 449.833,118.5 438.167,130.5 426.5,142.5C 436.967,160.399 444.801,179.399 450,199.5C 466.756,200.492 483.589,200.825 500.5,200.5C 500.5,232.833 500.5,265.167 500.5,297.5C 483.5,297.5 466.5,297.5 449.5,297.5C 444.978,318.062 437.312,337.395 426.5,355.5C 432.318,361.819 438.318,367.986 444.5,374C 474.951,376.788 495.784,392.288 507,420.5C 513.299,441.24 511.133,460.907 500.5,479.5C 485.681,465.181 471.014,450.681 456.5,436C 450.548,436.78 444.715,438.28 439,440.5C 436.812,446.377 435.478,452.377 435,458.5C 449.5,473 464,487.5 478.5,502C 470.414,506.08 462.08,509.247 453.5,511.5C 445.833,511.5 438.167,511.5 430.5,511.5C 394.054,502.539 374.887,479.206 373,441.5C 367.623,435.788 361.957,430.455 356,425.5C 338.557,435.596 320.057,443.262 300.5,448.5C 299.501,465.153 299.167,481.82 299.5,498.5C 266.833,498.5 234.167,498.5 201.5,498.5C 201.5,481.833 201.5,465.167 201.5,448.5C 181.191,443.675 162.024,436.008 144,425.5C 132.208,436.291 120.708,447.458 109.5,459C 108.5,459.667 107.5,459.667 106.5,459C 84.3333,436.833 62.1667,414.667 40,392.5C 39.3333,391.5 39.3333,390.5 40,389.5C 51.5,378 63,366.5 74.5,355C 63.3627,337.552 55.3627,318.719 50.5,298.5C 33.8467,297.501 17.18,297.167 0.5,297.5C 0.5,265.167 0.5,232.833 0.5,200.5C 17.18,200.833 33.8467,200.499 50.5,199.5C 55.5462,179.578 63.2128,160.745 73.5,143C 62.709,131.208 51.5424,119.708 40,108.5C 39.3333,107.5 39.3333,106.5 40,105.5C 62.6667,82.8333 85.3333,60.1667 108,37.5C 119.708,49.5422 131.708,61.2089 144,72.5C 162.005,61.9135 181.172,54.2468 201.5,49.5C 201.5,32.8333 201.5,16.1667 201.5,-0.5 Z M 241.5,168.5 C 283.044,167.507 311.544,186.174 327,224.5C 331.954,241.032 331.621,257.365 326,273.5C 324.977,272.4 324.477,271.067 324.5,269.5C 330.48,231.618 316.146,204.784 281.5,189C 260.285,182.764 239.952,184.764 220.5,195C 235.5,210 250.5,225 265.5,240C 263.799,245.824 261.799,251.49 259.5,257C 253.866,258.826 248.2,260.16 242.5,261C 228.167,246.667 213.833,232.333 199.5,218C 198.668,217.312 198.002,217.479 197.5,218.5C 182.022,251.883 187.355,281.383 213.5,307C 230.758,319.815 250.091,324.815 271.5,322C 272.5,323 273.5,324 274.5,325C 237.463,334.988 207.297,324.821 184,294.5C 163.418,260.088 165.418,227.088 190,195.5C 204.109,180.53 221.275,171.53 241.5,168.5 Z"/></g>
<g><path style="opacity:1" fill="#88878f" d="M 250.5,14.5 C 250.5,42.1667 250.5,69.8333 250.5,97.5C 252.099,97.2322 253.432,97.5655 254.5,98.5C 218.812,97.3415 186.812,107.508 158.5,129C 161.667,132.833 164.833,136.667 168,140.5C 192.34,121.998 219.84,112.998 250.5,113.5C 250.5,126.5 250.5,139.5 250.5,152.5C 248.585,152.216 246.919,152.549 245.5,153.5C 205.575,156.923 177.408,176.923 161,213.5C 146.357,259.117 157.524,296.95 194.5,327C 211.171,339.168 229.838,345.001 250.5,344.5C 250.5,358.5 250.5,372.5 250.5,386.5C 197.203,384.78 157.036,361.113 130,315.5C 115.608,287.349 110.774,257.683 115.5,226.5C 110.452,226.158 105.452,225.492 100.5,224.5C 92.7594,294.514 118.759,347.681 178.5,384C 202.316,396.454 227.649,402.287 254.5,401.5C 253.432,402.434 252.099,402.768 250.5,402.5C 250.5,429.167 250.5,455.833 250.5,482.5C 239.5,482.5 228.5,482.5 217.5,482.5C 217.83,466.991 217.496,451.658 216.5,436.5C 189.711,431.027 164.878,420.694 142,405.5C 130.375,416.124 119.041,427.124 108,438.5C 92.6667,423.167 77.3333,407.833 62,392.5C 61.3333,391.5 61.3333,390.5 62,389.5C 72.8759,378.959 83.3759,368.125 93.5,357C 78.3186,334.297 68.3186,309.463 63.5,282.5C 47.5,282.5 31.5,282.5 15.5,282.5C 15.5,260.167 15.5,237.833 15.5,215.5C 31.5,215.5 47.5,215.5 63.5,215.5C 68.2474,188.347 78.2474,163.347 93.5,140.5C 83.5766,129.074 73.0766,118.074 62,107.5C 61.3333,106.833 61.3333,106.167 62,105.5C 77.3333,90.1667 92.6667,74.8333 108,59.5C 119.014,70.6809 130.181,81.6809 141.5,92.5C 153.021,85.2374 165.021,78.7374 177.5,73C 189.89,68.2361 202.556,64.4028 215.5,61.5C 216.499,45.8475 216.833,30.1808 216.5,14.5C 227.833,14.5 239.167,14.5 250.5,14.5 Z"/></g>
<g><path style="opacity:1" fill="#56555b" d="M 250.5,14.5 C 261.5,14.5 272.5,14.5 283.5,14.5C 283.175,30.4111 283.509,46.2444 284.5,62C 311.375,66.9418 336.042,77.1084 358.5,92.5C 369.527,81.6384 380.694,70.9717 392,60.5C 408.126,75.6251 423.959,91.1251 439.5,107C 428.319,118.014 417.319,129.181 406.5,140.5C 422.06,163.294 432.394,188.294 437.5,215.5C 453.167,215.5 468.833,215.5 484.5,215.5C 484.5,237.833 484.5,260.167 484.5,282.5C 468.83,282.333 453.163,282.5 437.5,283C 432.43,308.713 422.763,332.547 408.5,354.5C 407.998,355.521 407.332,355.688 406.5,355C 383.653,332.32 360.986,309.486 338.5,286.5C 354.475,242.567 345.142,205.067 310.5,174C 291.401,159.122 269.734,152.289 245.5,153.5C 246.919,152.549 248.585,152.216 250.5,152.5C 250.5,139.5 250.5,126.5 250.5,113.5C 266.29,113.576 281.623,116.243 296.5,121.5C 298.774,116.679 300.44,111.679 301.5,106.5C 286.21,101.74 270.543,99.073 254.5,98.5C 253.432,97.5655 252.099,97.2322 250.5,97.5C 250.5,69.8333 250.5,42.1667 250.5,14.5 Z"/></g>
<g><path style="opacity:1" fill="#fcfcfc" d="M 254.5,98.5 C 270.543,99.073 286.21,101.74 301.5,106.5C 300.44,111.679 298.774,116.679 296.5,121.5C 281.623,116.243 266.29,113.576 250.5,113.5C 219.84,112.998 192.34,121.998 168,140.5C 164.833,136.667 161.667,132.833 158.5,129C 186.812,107.508 218.812,97.3415 254.5,98.5 Z"/></g>
<g><path style="opacity:1" fill="#fcfcfc" d="M 144.5,140.5 C 148.298,143.796 151.964,147.296 155.5,151C 152.353,155.314 148.686,159.148 144.5,162.5C 140.543,159.878 136.876,156.878 133.5,153.5C 136.814,148.854 140.481,144.521 144.5,140.5 Z"/></g>
<g><path style="opacity:1" fill="#fbd022" d="M 425.5,427.5 C 419.203,419.867 412.536,412.534 405.5,405.5C 405.611,404.883 405.944,404.383 406.5,404C 403,400.5 399.5,397 396,393.5C 395.617,394.056 395.117,394.389 394.5,394.5C 386.194,385.86 377.861,377.193 369.5,368.5C 371.461,366.037 373.628,363.703 376,361.5C 376.667,360.833 376.667,360.167 376,359.5C 364.833,348.333 353.667,337.167 342.5,326C 341.833,325.333 341.167,325.333 340.5,326C 338.297,328.372 335.963,330.539 333.5,332.5C 329.472,328.141 325.472,323.807 321.5,319.5C 323.127,317.37 324.96,315.37 327,313.5C 327.667,312.5 327.667,311.5 327,310.5C 323.985,307.317 320.818,304.317 317.5,301.5C 315.147,303.523 312.814,305.523 310.5,307.5C 298.175,294.876 285.842,282.209 273.5,269.5C 276.493,258.175 279.493,246.842 282.5,235.5C 271.5,224.167 260.5,212.833 249.5,201.5C 276.209,198.726 295.376,209.393 307,233.5C 311.959,247.982 311.625,262.315 306,276.5C 303.908,279.681 301.575,282.681 299,285.5C 298.018,286.759 297.685,288.092 298,289.5C 301.015,292.683 304.182,295.683 307.5,298.5C 310.658,295.172 313.658,291.672 316.5,288C 317.167,287.333 317.833,287.333 318.5,288C 353.167,322.667 387.833,357.333 422.5,392C 444.111,386.432 463.277,390.932 480,405.5C 492.348,418.54 497.015,433.874 494,451.5C 483.167,440.667 472.333,429.833 461.5,419C 449.427,421.25 437.427,424.084 425.5,427.5 Z"/></g>
<g><path style="opacity:1" fill="#fcfcfd" d="M 250.5,386.5 C 255.167,386.5 259.833,386.5 264.5,386.5C 264.5,391.5 264.5,396.5 264.5,401.5C 261.167,401.5 257.833,401.5 254.5,401.5C 227.649,402.287 202.316,396.454 178.5,384C 118.759,347.681 92.7594,294.514 100.5,224.5C 105.452,225.492 110.452,226.158 115.5,226.5C 110.774,257.683 115.608,287.349 130,315.5C 157.036,361.113 197.203,384.78 250.5,386.5 Z"/></g>
<g><path style="opacity:1" fill="#fb9712" d="M 273.5,269.5 C 285.842,282.209 298.175,294.876 310.5,307.5C 308.891,308.898 308.058,310.565 308,312.5C 311.333,315.833 314.667,319.167 318,322.5C 319.039,321.29 320.206,320.29 321.5,319.5C 325.472,323.807 329.472,328.141 333.5,332.5C 332.2,333.601 331.7,334.934 332,336.5C 343.167,347.667 354.333,358.833 365.5,370C 367.066,370.3 368.399,369.8 369.5,368.5C 377.861,377.193 386.194,385.86 394.5,394.5C 390.472,399.201 386.805,404.201 383.5,409.5C 382.998,410.521 382.332,410.688 381.5,410C 346.5,375 311.5,340 276.5,305C 252.746,311.19 232.58,305.357 216,287.5C 206.543,275.007 203.043,261.007 205.5,245.5C 215.986,256.486 226.652,267.319 237.5,278C 249.527,275.494 261.527,272.661 273.5,269.5 Z"/></g>
<g><path style="opacity:1" fill="#fffdf8" d="M 321.5,319.5 C 320.206,320.29 319.039,321.29 318,322.5C 314.667,319.167 311.333,315.833 308,312.5C 308.058,310.565 308.891,308.898 310.5,307.5C 312.814,305.523 315.147,303.523 317.5,301.5C 320.818,304.317 323.985,307.317 327,310.5C 327.667,311.5 327.667,312.5 327,313.5C 324.96,315.37 323.127,317.37 321.5,319.5 Z"/></g>
<g><path style="opacity:1" fill="#fffefc" d="M 369.5,368.5 C 368.399,369.8 367.066,370.3 365.5,370C 354.333,358.833 343.167,347.667 332,336.5C 331.7,334.934 332.2,333.601 333.5,332.5C 335.963,330.539 338.297,328.372 340.5,326C 341.167,325.333 341.833,325.333 342.5,326C 353.667,337.167 364.833,348.333 376,359.5C 376.667,360.167 376.667,360.833 376,361.5C 373.628,363.703 371.461,366.037 369.5,368.5 Z"/></g>
<g><path style="opacity:1" fill="#57565c" d="M 216.5,436.5 C 217.496,451.658 217.83,466.991 217.5,482.5C 228.5,482.5 239.5,482.5 250.5,482.5C 250.5,455.833 250.5,429.167 250.5,402.5C 252.099,402.768 253.432,402.434 254.5,401.5C 257.833,401.5 261.167,401.5 264.5,401.5C 264.5,396.5 264.5,391.5 264.5,386.5C 259.833,386.5 255.167,386.5 250.5,386.5C 250.5,372.5 250.5,358.5 250.5,344.5C 256.88,344.607 263.213,344.107 269.5,343C 275.892,341.153 282.225,339.487 288.5,338C 311.167,360.667 333.833,383.333 356.5,406C 334.473,421.401 310.139,431.235 283.5,435.5C 283.5,451.5 283.5,467.5 283.5,483.5C 261.167,483.5 238.833,483.5 216.5,483.5C 216.5,467.833 216.5,452.167 216.5,436.5 Z"/></g>
<g><path style="opacity:1" fill="#fafafa" d="M 300.5,376.5 C 301.978,376.238 303.311,376.571 304.5,377.5C 306.167,381.5 307.833,385.5 309.5,389.5C 303.508,392.581 297.175,394.581 290.5,395.5C 289.332,390.842 288.499,386.176 288,381.5C 292.438,380.303 296.604,378.637 300.5,376.5 Z"/></g>
<g><path style="opacity:1" fill="#fb9710" d="M 405.5,405.5 C 412.536,412.534 419.203,419.867 425.5,427.5C 423.652,436.226 421.485,444.892 419,453.5C 418.003,456.801 417.67,460.134 418,463.5C 428.681,474.348 439.514,485.014 450.5,495.5C 419.822,498.077 399.655,484.744 390,455.5C 387.291,444.118 388.291,433.118 393,422.5C 396.644,416.37 400.811,410.703 405.5,405.5 Z"/></g>
</svg>
