<?xml version="1.0" encoding="UTF-8"?>
<!DOCTYPE svg PUBLIC "-//W3C//DTD SVG 1.1//EN" "http://www.w3.org/Graphics/SVG/1.1/DTD/svg11.dtd">
<svg xmlns="http://www.w3.org/2000/svg" version="1.1" width="512px" height="512px" style="shape-rendering:geometricPrecision; text-rendering:geometricPrecision; image-rendering:optimizeQuality; fill-rule:evenodd; clip-rule:evenodd" xmlns:xlink="http://www.w3.org/1999/xlink">
<g><path style="opacity:0.917" fill="#000000" d="M 384.5,8.5 C 433.233,8.44115 469.066,29.7745 492,72.5C 500.22,89.6003 503.553,107.6 502,126.5C 497.667,130.5 493.333,130.5 489,126.5C 487.379,81.2559 466.213,49.0892 425.5,30C 412.233,25.2888 398.567,22.6222 384.5,22C 380.541,17.5015 380.541,13.0015 384.5,8.5 Z"/></g>
<g><path style="opacity:0.913" fill="#000000" d="M 386.5,41.5 C 427.604,43.1147 454.437,63.4481 467,102.5C 468.659,109.764 469.325,117.097 469,124.5C 465.797,129.916 461.464,130.916 456,127.5C 455.091,97.2979 441.258,75.4645 414.5,62C 404.39,58.5578 394.056,56.2245 383.5,55C 380.127,49.3914 381.127,44.8914 386.5,41.5 Z"/></g>
<g><path style="opacity:0.913" fill="#000000" d="M 385.5,75.5 C 413.183,76.0133 429.85,89.8466 435.5,117C 433.797,124.451 429.464,126.451 422.5,123C 420.803,113.271 416.469,104.938 409.5,98C 401.64,92.699 392.973,89.5323 383.5,88.5C 381.564,85.792 381.064,82.792 382,79.5C 382.69,77.6498 383.856,76.3164 385.5,75.5 Z"/></g>
<g><path style="opacity:0.981" fill="#020202" d="M 246.5,99.5 C 302.882,99.1765 340.882,125.343 360.5,178C 407.926,205.101 455.093,232.601 502,260.5C 503.922,266.383 502.089,270.549 496.5,273C 471.755,286.788 447.255,300.954 423,315.5C 422.667,346.167 422.333,376.833 422,407.5C 368.582,438.793 315.082,469.96 261.5,501C 257.5,503 253.5,503 249.5,501C 196.664,470.081 143.664,439.414 90.5,409C 88.9963,407.509 88.1629,405.676 88,403.5C 87.8332,373.828 87.3332,344.161 86.5,314.5C 60.2751,299.764 34.4418,284.431 9,268.5C 7.7728,264.409 8.60614,260.909 11.5,258C 57.6701,231.081 104.003,204.414 150.5,178C 166.94,132.636 198.94,106.469 246.5,99.5 Z"/></g>
<g><path style="opacity:1" fill="#63ceea" d="M 247.5,118.5 C 248.494,127.986 248.827,137.652 248.5,147.5C 240.373,147.541 232.373,146.541 224.5,144.5C 229.39,133.283 237.056,124.616 247.5,118.5 Z"/></g>
<g><path style="opacity:1" fill="#63ceeb" d="M 262.5,119.5 C 268.505,120.984 273.338,124.318 277,129.5C 280.666,134.162 283.833,139.162 286.5,144.5C 278.602,146.218 270.602,147.218 262.5,147.5C 262.5,138.167 262.5,128.833 262.5,119.5 Z"/></g>
<g><path style="opacity:1" fill="#61c9e5" d="M 222.5,119.5 C 223.239,119.369 223.906,119.536 224.5,120C 218.572,126.52 213.906,133.853 210.5,142C 204.907,141.359 199.573,139.692 194.5,137C 203.09,129.877 212.423,124.044 222.5,119.5 Z"/></g>
<g><path style="opacity:1" fill="#61cae6" d="M 286.5,120.5 C 297.487,123.507 307.487,129.007 316.5,137C 311.366,139.044 306.199,140.877 301,142.5C 298.7,138.187 296.367,133.853 294,129.5C 291.958,126.06 289.458,123.06 286.5,120.5 Z"/></g>
<g><path style="opacity:1" fill="#64d1ee" d="M 198.5,199.5 C 186.833,199.5 175.167,199.5 163.5,199.5C 163.5,198.5 163.5,197.5 163.5,196.5C 165.163,178.186 171.996,162.186 184,148.5C 191.151,151.216 198.318,153.716 205.5,156C 200.89,170.098 198.557,184.598 198.5,199.5 Z"/></g>
<g><path style="opacity:1" fill="#64d1ee" d="M 347.5,196.5 C 347.5,197.5 347.5,198.5 347.5,199.5C 335.833,199.5 324.167,199.5 312.5,199.5C 312.483,184.606 310.15,170.106 305.5,156C 312.645,153.584 319.812,151.084 327,148.5C 339.021,162.217 345.855,178.217 347.5,196.5 Z"/></g>
<g><path style="opacity:1" fill="#63cfec" d="M 218.5,158.5 C 228.462,159.876 238.462,160.876 248.5,161.5C 248.5,174.5 248.5,187.5 248.5,200.5C 236.5,200.5 224.5,200.5 212.5,200.5C 212.558,186.212 214.558,172.212 218.5,158.5 Z"/></g>
<g><path style="opacity:1" fill="#63cfeb" d="M 286.5,158.5 C 288.5,158.5 290.5,158.5 292.5,158.5C 296.442,172.212 298.442,186.212 298.5,200.5C 286.5,200.5 274.5,200.5 262.5,200.5C 262.5,187.167 262.5,173.833 262.5,160.5C 268.842,160.666 275.175,160.5 281.5,160C 283.382,159.802 285.048,159.302 286.5,158.5 Z"/></g>
<g><path style="opacity:1" fill="#c49c7e" d="M 146.5,196.5 C 148.369,205.452 149.536,214.785 150,224.5C 151.137,231.217 152.97,237.717 155.5,244C 155.167,244.167 154.833,244.333 154.5,244.5C 139.833,235.833 125.167,227.167 110.5,218.5C 122.528,211.156 134.528,203.822 146.5,196.5 Z"/></g>
<g><path style="opacity:1" fill="#c39b7e" d="M 362.5,196.5 C 375.474,203.32 388.141,210.653 400.5,218.5C 385.833,227.167 371.167,235.833 356.5,244.5C 357.912,238.151 359.412,231.485 361,224.5C 362.128,215.2 362.628,205.866 362.5,196.5 Z"/></g>
<g><path style="opacity:1" fill="#3b7b8d" d="M 163.5,196.5 C 163.5,197.5 163.5,198.5 163.5,199.5C 175.167,199.5 186.833,199.5 198.5,199.5C 186.678,200.495 174.678,200.828 162.5,200.5C 162.232,198.901 162.566,197.568 163.5,196.5 Z"/></g>
<g><path style="opacity:1" fill="#3b7b8d" d="M 347.5,196.5 C 348.434,197.568 348.768,198.901 348.5,200.5C 336.322,200.828 324.322,200.495 312.5,199.5C 324.167,199.5 335.833,199.5 347.5,199.5C 347.5,198.5 347.5,197.5 347.5,196.5 Z"/></g>
<g><path style="opacity:1" fill="#295560" d="M 198.5,214.5 C 186.833,214.5 175.167,214.5 163.5,214.5C 163.5,215.833 163.5,217.167 163.5,218.5C 162.549,217.081 162.216,215.415 162.5,213.5C 174.678,213.172 186.678,213.505 198.5,214.5 Z"/></g>
<g><path style="opacity:1" fill="#285460" d="M 312.5,214.5 C 324.322,213.505 336.322,213.172 348.5,213.5C 348.784,215.415 348.451,217.081 347.5,218.5C 347.5,217.167 347.5,215.833 347.5,214.5C 335.833,214.5 324.167,214.5 312.5,214.5 Z"/></g>
<g><path style="opacity:1" fill="#64d1ee" d="M 198.5,214.5 C 199.344,230.074 201.677,245.407 205.5,260.5C 200.166,261.125 194.999,262.459 190,264.5C 185.716,262.383 181.549,260.05 177.5,257.5C 169.67,245.679 165.003,232.679 163.5,218.5C 163.5,217.167 163.5,215.833 163.5,214.5C 175.167,214.5 186.833,214.5 198.5,214.5 Z"/></g>
<g><path style="opacity:1" fill="#65d2ef" d="M 212.5,214.5 C 224.5,214.5 236.5,214.5 248.5,214.5C 248.5,227.833 248.5,241.167 248.5,254.5C 239.618,254.535 230.785,255.201 222,256.5C 221.167,256.167 220.333,255.833 219.5,255.5C 215.402,242.148 213.068,228.481 212.5,214.5 Z"/></g>
<g><path style="opacity:1" fill="#65d2ef" d="M 262.5,214.5 C 274.5,214.5 286.5,214.5 298.5,214.5C 298.001,228.496 295.667,242.163 291.5,255.5C 290.5,255.833 289.5,256.167 288.5,256.5C 279.873,255.291 271.207,254.625 262.5,254.5C 262.5,241.167 262.5,227.833 262.5,214.5 Z"/></g>
<g><path style="opacity:1" fill="#64d1ee" d="M 312.5,214.5 C 324.167,214.5 335.833,214.5 347.5,214.5C 347.5,215.833 347.5,217.167 347.5,218.5C 345.954,232.139 341.62,244.806 334.5,256.5C 330.122,259.689 325.455,262.355 320.5,264.5C 315.699,262.407 310.699,261.073 305.5,260.5C 309.322,245.413 311.655,230.08 312.5,214.5 Z"/></g>
<g><path style="opacity:1" fill="#edc5a3" d="M 94.5,226.5 C 143.772,254.138 192.772,282.304 241.5,311C 219.657,323.516 197.823,336.016 176,348.5C 127.357,321.346 79.0235,293.679 31,265.5C 30.9115,263.887 31.7448,262.72 33.5,262C 54.2241,250.645 74.5574,238.812 94.5,226.5 Z"/></g>
<g><path style="opacity:1" fill="#edc5a3" d="M 414.5,226.5 C 436.772,238.638 458.772,251.304 480.5,264.5C 432.734,293.079 384.567,321.079 336,348.5C 313.606,336.387 291.44,323.887 269.5,311C 317.896,282.807 366.23,254.64 414.5,226.5 Z"/></g>
<g><path style="opacity:1" fill="#63cfeb" d="M 234.5,268.5 C 239.167,268.5 243.833,268.5 248.5,268.5C 248.666,277.506 248.5,286.506 248,295.5C 237.043,289.717 229.543,281.051 225.5,269.5C 228.713,269.81 231.713,269.477 234.5,268.5 Z"/></g>
<g><path style="opacity:1" fill="#64d0ed" d="M 262.5,268.5 C 270.399,268.128 278.066,269.128 285.5,271.5C 280.581,281.919 273.081,289.919 263,295.5C 262.5,286.506 262.334,277.506 262.5,268.5 Z"/></g>
<g><path style="opacity:1" fill="#5bbdd6" d="M 207.5,273.5 C 209.958,273.227 211.625,274.227 212.5,276.5C 211.998,277.521 211.332,277.688 210.5,277C 208.937,276.241 207.937,275.074 207.5,273.5 Z"/></g>
<g><path style="opacity:1" fill="#5bbed8" d="M 299.5,273.5 C 304.45,273.993 304.45,275.327 299.5,277.5C 298.708,276.3 298.708,274.967 299.5,273.5 Z"/></g>
<g><path style="opacity:1" fill="#d4a788" d="M 102.5,323.5 C 123.941,335.39 145.275,347.557 166.5,360C 172.5,364.667 178.5,364.667 184.5,360C 205.5,347.833 226.5,335.667 247.5,323.5C 248.667,376.83 248.833,430.164 248,483.5C 199.963,455.3 151.796,427.3 103.5,399.5C 102.5,374.175 102.167,348.842 102.5,323.5 Z"/></g>
<g><path style="opacity:1" fill="#c79e80" d="M 262.5,323.5 C 283.941,335.39 305.275,347.557 326.5,360C 332.5,364.667 338.5,364.667 344.5,360C 365.5,347.833 386.5,335.667 407.5,323.5C 408.833,348.833 408.833,374.167 407.5,399.5C 359.204,427.3 311.037,455.3 263,483.5C 262.5,430.168 262.333,376.834 262.5,323.5 Z"/></g>
</svg>
