<?xml version="1.0" encoding="UTF-8"?>
<!DOCTYPE svg PUBLIC "-//W3C//DTD SVG 1.1//EN" "http://www.w3.org/Graphics/SVG/1.1/DTD/svg11.dtd">
<svg xmlns="http://www.w3.org/2000/svg" version="1.1" width="512px" height="512px" style="shape-rendering:geometricPrecision; text-rendering:geometricPrecision; image-rendering:optimizeQuality; fill-rule:evenodd; clip-rule:evenodd" xmlns:xlink="http://www.w3.org/1999/xlink">
<g><path style="opacity:0.915" fill="#000000" d="M 198.5,-0.5 C 201.167,-0.5 203.833,-0.5 206.5,-0.5C 208.488,1.46486 209.988,3.7982 211,6.5C 218.138,24.2476 225.471,41.9143 233,59.5C 235.234,66.2502 232.901,70.2502 226,71.5C 223.516,71.1742 221.349,70.1742 219.5,68.5C 211.058,49.282 202.891,29.9487 195,10.5C 193.663,5.87205 194.83,2.20539 198.5,-0.5 Z"/></g>
<g><path style="opacity:0.915" fill="#000000" d="M 372.5,-0.5 C 375.167,-0.5 377.833,-0.5 380.5,-0.5C 384.793,3.33434 385.626,8.00101 383,13.5C 375.459,31.9563 367.626,50.2896 359.5,68.5C 355.295,72.4463 351.128,72.4463 347,68.5C 345.543,65.634 345.21,62.634 346,59.5C 353.943,41.2815 361.609,22.9482 369,4.5C 369.997,2.67694 371.164,1.01027 372.5,-0.5 Z"/></g>
<g><path style="opacity:0.968" fill="#020100" d="M 454.5,246.5 C 453.814,242.713 454.814,239.546 457.5,237C 464.833,234.333 472.167,231.667 479.5,229C 481.187,227.087 481.687,224.92 481,222.5C 478.489,220.437 475.656,218.937 472.5,218C 451.091,210.53 429.757,202.864 408.5,195C 396.976,187.393 392.809,176.893 396,163.5C 406.061,141.712 416.394,120.045 427,98.5C 428.481,92.1429 425.981,89.6429 419.5,91C 417.273,91.941 415.273,93.1077 413.5,94.5C 394.522,103.322 375.522,112.155 356.5,121C 342.294,126.152 331.128,122.319 323,109.5C 314.667,86.1667 306.333,62.8333 298,39.5C 295.503,37.5218 292.669,37.0218 289.5,38C 280.475,62.0733 271.642,86.24 263,110.5C 255.032,121.267 244.532,125.101 231.5,122C 209.955,111.394 188.288,101.061 166.5,91C 161.16,90.0112 158.66,92.1778 159,97.5C 169.606,119.045 179.939,140.712 190,162.5C 194.067,177.661 189.233,188.828 175.5,196C 152.197,203.822 129.197,212.322 106.5,221.5C 104.273,226.615 105.94,229.615 111.5,230.5C 136.83,224.672 161.997,225.339 187,232.5C 189.281,231.224 191.281,229.557 193,227.5C 198.793,220.039 204.959,212.872 211.5,206C 218.139,202.723 224.806,202.723 231.5,206C 240,213.167 248.5,220.333 257,227.5C 266.914,215.425 279.081,212.591 293.5,219C 299.351,225.429 306.351,227.096 314.5,224C 318.535,220.3 322.202,216.3 325.5,212C 334.681,208.675 338.515,211.842 337,221.5C 332.135,228.102 326.302,233.602 319.5,238C 313.338,240.264 307.004,240.93 300.5,240C 295.055,238.112 290.055,235.445 285.5,232C 278.493,229.225 272.826,230.892 268.5,237C 277.631,244.462 286.464,252.295 295,260.5C 297.929,266.662 298.263,272.995 296,279.5C 288.441,288.055 281.274,296.888 274.5,306C 288.892,336.027 292.559,367.361 285.5,400C 286.267,403.634 287.434,407.134 289,410.5C 291.795,413.113 294.629,413.113 297.5,410.5C 306.235,385.795 315.068,361.129 324,336.5C 330.147,325.351 339.314,321.851 351.5,326C 372.072,336.12 392.738,345.953 413.5,355.5C 416.852,357.852 420.518,359.019 424.5,359C 427.207,357.136 428.041,354.636 427,351.5C 415.786,328.405 405.119,305.072 395,281.5C 394.169,269.327 399.003,260.16 409.5,254C 415.605,251.632 421.771,249.465 428,247.5C 431.463,248.137 434.296,249.803 436.5,252.5C 436.846,255.602 436.179,258.435 434.5,261C 427.354,263.742 420.354,266.742 413.5,270C 410.82,273.423 409.987,277.256 411,281.5C 421.193,302.414 431.193,323.414 441,344.5C 445.941,357.146 442.441,366.646 430.5,373C 426.259,374.457 421.926,374.791 417.5,374C 393.046,362.94 368.713,351.607 344.5,340C 342.711,339.48 341.044,339.813 339.5,341C 330.278,365.331 321.445,389.831 313,414.5C 309.122,423.031 302.455,427.698 293,428.5C 288.067,427.912 283.567,426.246 279.5,423.5C 266.375,453.455 245.708,476.621 217.5,493C 213.59,494.041 210.59,492.875 208.5,489.5C 206.885,486.254 207.218,483.254 209.5,480.5C 259.25,448.655 280.084,403.322 272,344.5C 270.765,338.201 268.931,332.201 266.5,326.5C 254.28,293.234 232.28,268.734 200.5,253C 141.707,229.909 90.8732,241.409 48,287.5C 19.2166,324.525 11.8833,365.525 26,410.5C 28.9664,418.431 32.4664,426.098 36.5,433.5C 64.8617,477.85 105.528,498.683 158.5,496C 166.608,495.078 174.608,493.578 182.5,491.5C 186.615,491.62 189.282,493.62 190.5,497.5C 191.297,500.753 190.297,503.586 187.5,506C 179.488,508.383 171.488,510.216 163.5,511.5C 152.167,511.5 140.833,511.5 129.5,511.5C 68.7949,501.371 28.6283,467.038 9,408.5C -5.39171,348.855 10.1083,298.689 55.5,258C 66.8896,248.633 79.5562,241.299 93.5,236C 88.4115,227.296 88.9115,218.796 95,210.5C 97.0795,208.877 99.2462,207.377 101.5,206C 123.167,198.333 144.833,190.667 166.5,183C 175.662,179.511 178.162,173.344 174,164.5C 163.454,143.408 153.454,122.074 144,100.5C 142.364,85.4671 149.031,76.8005 164,74.5C 166.135,75.1271 168.302,75.6271 170.5,76C 192.5,86.3333 214.5,96.6667 236.5,107C 242.343,108.325 246.843,106.492 250,101.5C 258.388,77.7248 267.055,54.0581 276,30.5C 282.659,22.1729 291.159,19.6729 301.5,23C 304.902,24.3999 307.736,26.5665 310,29.5C 319.257,52.9364 327.924,76.6031 336,100.5C 339.741,107.423 345.241,109.256 352.5,106C 373.379,95.7272 394.379,85.7272 415.5,76C 431.242,73.2356 440.575,79.7356 443.5,95.5C 442.936,97.8193 442.436,100.153 442,102.5C 431.667,124.5 421.333,146.5 411,168.5C 409.537,174.74 411.703,179.24 417.5,182C 441.397,190.076 465.064,198.743 488.5,208C 497.738,217.21 498.905,227.377 492,238.5C 490.442,240.359 488.609,241.859 486.5,243C 478.256,246.137 469.922,248.97 461.5,251.5C 457.846,251.52 455.512,249.853 454.5,246.5 Z"/></g>
<g><path style="opacity:1" fill="#fca412" d="M 413.5,94.5 C 402.346,120.812 391.179,147.145 380,173.5C 378.054,183.663 380.888,192.163 388.5,199C 401.452,204.092 414.118,209.759 426.5,216C 431.153,219.788 432.653,224.622 431,230.5C 429.062,233.106 426.562,234.939 423.5,236C 415.597,238.643 407.597,240.976 399.5,243C 380.307,249.554 374.14,262.387 381,281.5C 391.571,306.305 402.404,330.972 413.5,355.5C 392.738,345.953 372.072,336.12 351.5,326C 339.314,321.851 330.147,325.351 324,336.5C 315.068,361.129 306.235,385.795 297.5,410.5C 294.629,413.113 291.795,413.113 289,410.5C 287.434,407.134 286.267,403.634 285.5,400C 292.559,367.361 288.892,336.027 274.5,306C 281.274,296.888 288.441,288.055 296,279.5C 298.263,272.995 297.929,266.662 295,260.5C 286.464,252.295 277.631,244.462 268.5,237C 272.826,230.892 278.493,229.225 285.5,232C 290.055,235.445 295.055,238.112 300.5,240C 307.004,240.93 313.338,240.264 319.5,238C 326.302,233.602 332.135,228.102 337,221.5C 338.515,211.842 334.681,208.675 325.5,212C 322.202,216.3 318.535,220.3 314.5,224C 306.351,227.096 299.351,225.429 293.5,219C 279.081,212.591 266.914,215.425 257,227.5C 248.5,220.333 240,213.167 231.5,206C 224.806,202.723 218.139,202.723 211.5,206C 204.959,212.872 198.793,220.039 193,227.5C 191.281,229.557 189.281,231.224 187,232.5C 161.997,225.339 136.83,224.672 111.5,230.5C 105.94,229.615 104.273,226.615 106.5,221.5C 129.197,212.322 152.197,203.822 175.5,196C 189.233,188.828 194.067,177.661 190,162.5C 179.939,140.712 169.606,119.045 159,97.5C 158.66,92.1778 161.16,90.0112 166.5,91C 188.288,101.061 209.955,111.394 231.5,122C 244.532,125.101 255.032,121.267 263,110.5C 271.642,86.24 280.475,62.0733 289.5,38C 292.669,37.0218 295.503,37.5218 298,39.5C 306.333,62.8333 314.667,86.1667 323,109.5C 331.128,122.319 342.294,126.152 356.5,121C 375.522,112.155 394.522,103.322 413.5,94.5 Z"/></g>
<g><path style="opacity:1" fill="#fb9701" d="M 454.5,246.5 C 448.567,248.7 442.567,250.7 436.5,252.5C 434.296,249.803 431.463,248.137 428,247.5C 421.771,249.465 415.605,251.632 409.5,254C 399.003,260.16 394.169,269.327 395,281.5C 405.119,305.072 415.786,328.405 427,351.5C 428.041,354.636 427.207,357.136 424.5,359C 420.518,359.019 416.852,357.852 413.5,355.5C 402.404,330.972 391.571,306.305 381,281.5C 374.14,262.387 380.307,249.554 399.5,243C 407.597,240.976 415.597,238.643 423.5,236C 426.562,234.939 429.062,233.106 431,230.5C 432.653,224.622 431.153,219.788 426.5,216C 414.118,209.759 401.452,204.092 388.5,199C 380.888,192.163 378.054,183.663 380,173.5C 391.179,147.145 402.346,120.812 413.5,94.5C 415.273,93.1077 417.273,91.941 419.5,91C 425.981,89.6429 428.481,92.1429 427,98.5C 416.394,120.045 406.061,141.712 396,163.5C 392.809,176.893 396.976,187.393 408.5,195C 429.757,202.864 451.091,210.53 472.5,218C 475.656,218.937 478.489,220.437 481,222.5C 481.687,224.92 481.187,227.087 479.5,229C 472.167,231.667 464.833,234.333 457.5,237C 454.814,239.546 453.814,242.713 454.5,246.5 Z"/></g>
<g><path style="opacity:0.913" fill="#000000" d="M 78.5,131.5 C 81.5184,131.335 84.5184,131.502 87.5,132C 106.167,140.333 124.833,148.667 143.5,157C 146.394,159.909 147.227,163.409 146,167.5C 143.293,171.035 139.793,172.202 135.5,171C 116.5,162.667 97.5,154.333 78.5,146C 73.2721,141.177 73.2721,136.344 78.5,131.5 Z"/></g>
<g><path style="opacity:0.913" fill="#000000" d="M 495.5,131.5 C 503.614,130.121 507.447,133.454 507,141.5C 506.215,143.286 505.049,144.786 503.5,146C 484.5,154.333 465.5,162.667 446.5,171C 440.074,172.459 436.408,169.959 435.5,163.5C 435.556,160.889 436.556,158.722 438.5,157C 457.59,148.45 476.59,139.95 495.5,131.5 Z"/></g>
<g><path style="opacity:1" fill="#050300" d="M 315.5,154.5 C 342.63,153.147 363.463,163.814 378,186.5C 392.034,217.14 386.868,243.973 362.5,267C 352.814,274.088 341.98,278.588 330,280.5C 323.46,278.215 321.794,273.882 325,267.5C 333.442,265.129 341.609,261.962 349.5,258C 366.709,245.066 373.543,227.899 370,206.5C 360.764,179.624 341.931,167.458 313.5,170C 303.728,172.219 295.061,176.553 287.5,183C 279.885,183.659 277.051,180.159 279,172.5C 289.209,162.311 301.376,156.311 315.5,154.5 Z"/></g>
<g><path style="opacity:1" fill="#979797" d="M 219.5,218.5 C 221.655,218.372 223.655,218.872 225.5,220C 244.667,236.5 263.833,253 283,269.5C 283.667,270.5 283.667,271.5 283,272.5C 277.833,278.333 272.667,284.167 267.5,290C 266.551,290.617 265.718,290.451 265,289.5C 249.38,266.55 228.88,249.383 203.5,238C 208.668,231.335 214.001,224.835 219.5,218.5 Z"/></g>
<g><path style="opacity:1" fill="#595959" d="M 266.5,326.5 C 268.055,387.394 241.889,431.728 188,459.5C 144.555,477.596 102.389,475.096 61.5,452C 52.7512,446.303 44.4178,440.136 36.5,433.5C 32.4664,426.098 28.9664,418.431 26,410.5C 11.8833,365.525 19.2166,324.525 48,287.5C 90.8732,241.409 141.707,229.909 200.5,253C 232.28,268.734 254.28,293.234 266.5,326.5 Z"/></g>
<g><path style="opacity:0.916" fill="#000000" d="M 438.5,279.5 C 459.316,285.827 479.982,292.661 500.5,300C 505.224,302.435 506.724,306.269 505,311.5C 502.487,315.212 498.987,316.378 494.5,315C 474.051,308.52 453.884,301.354 434,293.5C 430.854,287.055 432.354,282.388 438.5,279.5 Z"/></g>
<g><path style="opacity:1" fill="#4e4e4e" d="M 266.5,326.5 C 268.931,332.201 270.765,338.201 272,344.5C 280.084,403.322 259.25,448.655 209.5,480.5C 207.218,483.254 206.885,486.254 208.5,489.5C 202.736,492.716 196.736,495.383 190.5,497.5C 189.282,493.62 186.615,491.62 182.5,491.5C 174.608,493.578 166.608,495.078 158.5,496C 105.528,498.683 64.8617,477.85 36.5,433.5C 44.4178,440.136 52.7512,446.303 61.5,452C 102.389,475.096 144.555,477.596 188,459.5C 241.889,431.728 268.055,387.394 266.5,326.5 Z"/></g>
</svg>
