<?xml version="1.0" encoding="UTF-8"?>
<!DOCTYPE svg PUBLIC "-//W3C//DTD SVG 1.1//EN" "http://www.w3.org/Graphics/SVG/1.1/DTD/svg11.dtd">
<svg xmlns="http://www.w3.org/2000/svg" version="1.1" width="512px" height="512px" style="shape-rendering:geometricPrecision; text-rendering:geometricPrecision; image-rendering:optimizeQuality; fill-rule:evenodd; clip-rule:evenodd" xmlns:xlink="http://www.w3.org/1999/xlink">
<g><path style="opacity:0.981" fill="#000101" d="M 383.5,-0.5 C 390.5,-0.5 397.5,-0.5 404.5,-0.5C 422.092,3.58286 435.259,13.5829 444,29.5C 451.871,53.2803 459.038,77.2803 465.5,101.5C 465.026,104.764 463.693,107.598 461.5,110C 353.306,142.064 244.973,173.73 136.5,205C 248.5,205.333 360.5,205.667 472.5,206C 475.738,206.232 478.238,207.732 480,210.5C 481.661,294.752 481.994,379.085 481,463.5C 475.988,488.676 461.155,504.676 436.5,511.5C 391.167,511.5 345.833,511.5 300.5,511.5C 297.268,508.928 295.268,505.595 294.5,501.5C 295.711,497.607 298.044,494.44 301.5,492C 345.167,491.667 388.833,491.333 432.5,491C 449.236,486.437 458.57,475.604 460.5,458.5C 461.499,412.336 461.832,366.003 461.5,319.5C 330.666,319.167 199.999,319.5 69.5,320.5C 69.3333,368.168 69.5,415.834 70,463.5C 74.1667,477.667 83.3333,486.833 97.5,491C 140.5,491.333 183.5,491.667 226.5,492C 231.803,493.133 234.803,496.3 235.5,501.5C 235.531,506.113 233.531,509.447 229.5,511.5C 184.5,511.5 139.5,511.5 94.5,511.5C 70.5144,505.68 55.681,490.68 50,466.5C 48.6942,382.519 48.0276,298.519 48,214.5C 42.822,196.121 37.4887,177.788 32,159.5C 26.1406,123.692 40.3073,100.192 74.5,89C 177.668,59.2962 280.668,29.4628 383.5,-0.5 Z"/></g>
<g><path style="opacity:1" fill="#48a8eb" d="M 386.5,19.5 C 407.923,17.9541 422.09,27.2874 429,47.5C 433.811,63.4313 438.311,79.4313 442.5,95.5C 429.08,98.2511 415.913,101.918 403,106.5C 378.551,83.72 354.385,60.5533 330.5,37C 349.135,30.8452 367.801,25.0119 386.5,19.5 Z"/></g>
<g><path style="opacity:1" fill="#48a8eb" d="M 303.5,43.5 C 305.199,43.3398 306.866,43.5065 308.5,44C 332.649,66.3152 356.315,89.1485 379.5,112.5C 361.824,118.007 344.157,123.174 326.5,128C 302.654,104.987 278.988,81.8205 255.5,58.5C 271.588,53.469 287.588,48.469 303.5,43.5 Z"/></g>
<g><path style="opacity:1" fill="#48a8eb" d="M 227.5,65.5 C 229.527,65.3379 231.527,65.5045 233.5,66C 257.47,88.3022 281.137,110.969 304.5,134C 289.316,138.966 273.983,143.632 258.5,148C 255.874,148.995 253.207,149.328 250.5,149C 226.988,126.321 203.654,103.487 180.5,80.5C 196.158,75.2797 211.825,70.2797 227.5,65.5 Z"/></g>
<g><path style="opacity:1" fill="#48a8eb" d="M 155.5,86.5 C 159.94,89.7635 164.273,93.2635 168.5,97C 188.833,116.667 209.167,136.333 229.5,156C 211.751,162.145 193.751,167.145 175.5,171C 151.833,148 128.167,125 104.5,102C 121.572,96.6952 138.572,91.5285 155.5,86.5 Z"/></g>
<g><path style="opacity:1" fill="#48a9ec" d="M 79.5,108.5 C 80.552,108.351 81.552,108.517 82.5,109C 106.197,132.364 130.197,155.364 154.5,178C 125.137,186.67 95.804,195.003 66.5,203C 61.1063,185.597 55.9396,168.097 51,150.5C 49.8151,129.192 59.3151,115.192 79.5,108.5 Z"/></g>
<g><path style="opacity:1" fill="#17354a" d="M 69.5,226.5 C 98.6694,225.17 128.003,225.17 157.5,226.5C 157.376,227.107 157.043,227.44 156.5,227.5C 127.671,226.502 98.6715,226.169 69.5,226.5 Z"/></g>
<g><path style="opacity:1" fill="#163348" d="M 258.5,226.5 C 277.004,225.172 295.671,225.172 314.5,226.5C 314.376,227.107 314.043,227.44 313.5,227.5C 295.341,226.503 277.008,226.17 258.5,226.5 Z"/></g>
<g><path style="opacity:1" fill="#17354a" d="M 337.5,226.5 C 355.671,225.173 374.004,225.173 392.5,226.5C 392.376,227.107 392.043,227.44 391.5,227.5C 373.674,226.503 355.674,226.17 337.5,226.5 Z"/></g>
<g><path style="opacity:1" fill="#48a9ed" d="M 69.5,226.5 C 98.6715,226.169 127.671,226.502 156.5,227.5C 143.098,251.303 129.431,274.969 115.5,298.5C 100.181,299.499 84.8478,299.833 69.5,299.5C 69.5,275.167 69.5,250.833 69.5,226.5 Z"/></g>
<g><path style="opacity:1" fill="#48a9ec" d="M 179.5,226.5 C 198.17,226.333 216.836,226.5 235.5,227C 221.5,251 207.5,275 193.5,299C 175.158,299.833 156.824,299.666 138.5,298.5C 152.696,274.771 166.363,250.771 179.5,226.5 Z"/></g>
<g><path style="opacity:1" fill="#48a9ec" d="M 258.5,226.5 C 277.008,226.17 295.341,226.503 313.5,227.5C 299.592,250.976 285.926,274.642 272.5,298.5C 253.842,299.666 235.176,299.833 216.5,299C 230.727,274.946 244.727,250.779 258.5,226.5 Z"/></g>
<g><path style="opacity:1" fill="#48a9ec" d="M 337.5,226.5 C 355.674,226.17 373.674,226.503 391.5,227.5C 377.833,251.5 364.167,275.5 350.5,299.5C 331.992,299.83 313.659,299.497 295.5,298.5C 309.136,274.218 323.136,250.218 337.5,226.5 Z"/></g>
<g><path style="opacity:1" fill="#48a9ed" d="M 415.5,226.5 C 430.5,226.5 445.5,226.5 460.5,226.5C 460.5,250.833 460.5,275.167 460.5,299.5C 431.498,299.667 402.498,299.5 373.5,299C 387.385,274.724 401.385,250.557 415.5,226.5 Z"/></g>
<g><path style="opacity:1" fill="#255679" d="M 415.5,226.5 C 430.658,225.504 445.991,225.17 461.5,225.5C 461.831,250.339 461.498,275.006 460.5,299.5C 460.5,275.167 460.5,250.833 460.5,226.5C 445.5,226.5 430.5,226.5 415.5,226.5 Z"/></g>
<g><path style="opacity:1" fill="#11293a" d="M 295.5,298.5 C 313.659,299.497 331.992,299.83 350.5,299.5C 331.996,300.828 313.329,300.828 294.5,299.5C 294.624,298.893 294.957,298.56 295.5,298.5 Z"/></g>
<g><path style="opacity:1" fill="#cfd6de" d="M 69.5,320.5 C 199.833,320.5 330.167,320.5 460.5,320.5C 460.5,366.5 460.5,412.5 460.5,458.5C 458.57,475.604 449.236,486.437 432.5,491C 388.833,491.333 345.167,491.667 301.5,492C 298.044,494.44 295.711,497.607 294.5,501.5C 288.167,501.5 281.833,501.5 275.5,501.5C 273.028,491.933 267.361,489.433 258.5,494C 256.501,496.255 255.168,498.755 254.5,501.5C 248.167,501.5 241.833,501.5 235.5,501.5C 234.803,496.3 231.803,493.133 226.5,492C 183.5,491.667 140.5,491.333 97.5,491C 83.3333,486.833 74.1667,477.667 70,463.5C 69.5,415.834 69.3333,368.168 69.5,320.5 Z"/></g>
<g><path style="opacity:1" fill="#888c92" d="M 69.5,320.5 C 199.999,319.5 330.666,319.167 461.5,319.5C 461.832,366.003 461.499,412.336 460.5,458.5C 460.5,412.5 460.5,366.5 460.5,320.5C 330.167,320.5 199.833,320.5 69.5,320.5 Z"/></g>
<g><path style="opacity:1" fill="#020202" d="M 232.5,344.5 C 238.394,343.943 243.727,345.443 248.5,349C 275.336,364.919 302.336,380.586 329.5,396C 336.342,402.313 336.009,408.313 328.5,414C 300.003,430.081 271.67,446.414 243.5,463C 236.415,467.292 230.915,465.792 227,458.5C 226.333,422.5 226.333,386.5 227,350.5C 228.36,347.977 230.193,345.977 232.5,344.5 Z"/></g>
<g><path style="opacity:1" fill="#f75a64" d="M 246.5,371.5 C 265.609,382.224 284.609,393.224 303.5,404.5C 285.198,415.989 266.532,426.989 247.5,437.5C 246.5,415.51 246.167,393.51 246.5,371.5 Z"/></g>
<g><path style="opacity:0.945" fill="#040404" d="M 275.5,501.5 C 275.531,506.113 273.531,509.447 269.5,511.5C 266.5,511.5 263.5,511.5 260.5,511.5C 257.268,508.928 255.268,505.595 254.5,501.5C 255.168,498.755 256.501,496.255 258.5,494C 267.361,489.433 273.028,491.933 275.5,501.5 Z"/></g>
</svg>
