<?xml version="1.0" encoding="UTF-8"?>
<!DOCTYPE svg PUBLIC "-//W3C//DTD SVG 1.1//EN" "http://www.w3.org/Graphics/SVG/1.1/DTD/svg11.dtd">
<svg xmlns="http://www.w3.org/2000/svg" version="1.1" width="100px" height="100px" style="shape-rendering:geometricPrecision; text-rendering:geometricPrecision; image-rendering:optimizeQuality; fill-rule:evenodd; clip-rule:evenodd" xmlns:xlink="http://www.w3.org/1999/xlink">
<g><path style="opacity:1" fill="#6a2d9e" d="M 65.5,8.5 C 67.1439,8.28649 68.6439,8.61983 70,9.5C 70.4983,12.8168 70.665,16.1501 70.5,19.5C 66.8333,17.8333 64.1667,15.1667 62.5,11.5C 63.1667,10.1667 64.1667,9.16667 65.5,8.5 Z"/></g>
<g><path style="opacity:0.981" fill="#c08cf6" d="M 65.5,8.5 C 67.2884,7.37753 69.2884,7.21086 71.5,8C 78.5261,10.5952 85.0261,14.0952 91,18.5C 91.4993,23.4889 91.6659,28.4889 91.5,33.5C 84.5,33.5 77.5,33.5 70.5,33.5C 70.8195,38.3633 70.4861,43.03 69.5,47.5C 69.5,42.8333 69.5,38.1667 69.5,33.5C 70.441,28.9296 70.7744,24.263 70.5,19.5C 70.665,16.1501 70.4983,12.8168 70,9.5C 68.6439,8.61983 67.1439,8.28649 65.5,8.5 Z"/></g>
<g><path style="opacity:0.968" fill="#7d33bc" d="M 62.5,11.5 C 64.1667,15.1667 66.8333,17.8333 70.5,19.5C 70.7744,24.263 70.441,28.9296 69.5,33.5C 64.1667,37.8333 58.8333,42.1667 53.5,46.5C 49.8333,42.5 46.1667,38.5 42.5,34.5C 48.9406,26.6059 55.6072,18.9392 62.5,11.5 Z"/></g>
<g><path style="opacity:0.957" fill="#9952d2" d="M 35.5,38.5 C 35.4369,43.2964 34.7703,48.2964 33.5,53.5C 31.7541,51.7484 29.7541,50.4151 27.5,49.5C 24.9587,45.7482 21.9587,42.4148 18.5,39.5C 16.7956,35.9482 14.4623,32.7815 11.5,30C 10.0715,29.4209 8.7382,29.5876 7.5,30.5C 7.51056,28.9826 8.17723,27.8159 9.5,27C 12.6221,25.0958 15.9555,24.4291 19.5,25C 25.3175,28.989 30.6508,33.489 35.5,38.5 Z"/></g>
<g><path style="opacity:0.989" fill="#bc86f5" d="M 91.5,33.5 C 91.5,40.5 91.5,47.5 91.5,54.5C 84.5,54.5 77.5,54.5 70.5,54.5C 70.5,58.5 70.5,62.5 70.5,66.5C 69.8333,66.5 69.5,66.1667 69.5,65.5C 69.5,59.5 69.5,53.5 69.5,47.5C 70.4861,43.03 70.8195,38.3633 70.5,33.5C 77.5,33.5 84.5,33.5 91.5,33.5 Z"/></g>
<g><path style="opacity:1" fill="#6f2daa" d="M 42.5,34.5 C 46.1667,38.5 49.8333,42.5 53.5,46.5C 52.1667,47.1667 51.1667,48.1667 50.5,49.5C 46.7978,47.9764 43.4645,45.8097 40.5,43C 38.8588,41.871 37.8588,40.371 37.5,38.5C 39.1667,37.1667 40.8333,35.8333 42.5,34.5 Z"/></g>
<g><path style="opacity:0.957" fill="#591c96" d="M 18.5,39.5 C 18.5,46.1667 18.5,52.8333 18.5,59.5C 16.7956,63.0518 14.4623,66.2185 11.5,69C 10.0715,69.5791 8.7382,69.4124 7.5,68.5C 7.5,55.8333 7.5,43.1667 7.5,30.5C 8.7382,29.5876 10.0715,29.4209 11.5,30C 14.4623,32.7815 16.7956,35.9482 18.5,39.5 Z"/></g>
<g><path style="opacity:0.97" fill="#702db4" d="M 27.5,49.5 C 29.7541,50.4151 31.7541,51.7484 33.5,53.5C 34.2026,55.7157 35.5359,57.549 37.5,59C 36.944,59.3826 36.6107,59.8826 36.5,60.5C 30.9962,65.1666 25.3295,69.6666 19.5,74C 16.7433,74.5837 14.0766,74.2504 11.5,73C 9.24896,72.2525 7.91563,70.7525 7.5,68.5C 8.7382,69.4124 10.0715,69.5791 11.5,69C 14.4623,66.2185 16.7956,63.0518 18.5,59.5C 22.2119,56.7891 25.2119,53.4558 27.5,49.5 Z"/></g>
<g><path style="opacity:0.962" fill="#8847ca" d="M 35.5,38.5 C 36.1667,38.5 36.8333,38.5 37.5,38.5C 37.8588,40.371 38.8588,41.871 40.5,43C 43.4645,45.8097 46.7978,47.9764 50.5,49.5C 55.9789,54.7352 61.6456,59.7352 67.5,64.5C 65.3047,72.5544 64.3047,80.8877 64.5,89.5C 56.4955,81.66 48.9955,73.3266 42,64.5C 40.549,62.5359 38.7157,61.2026 36.5,60.5C 36.6107,59.8826 36.944,59.3826 37.5,59C 35.5359,57.549 34.2026,55.7157 33.5,53.5C 34.7703,48.2964 35.4369,43.2964 35.5,38.5 Z"/></g>
<g><path style="opacity:0.983" fill="#b87ef4" d="M 91.5,54.5 C 91.6664,63.1731 91.4998,71.8397 91,80.5C 85.0261,84.9048 78.5261,88.4048 71.5,91C 69.2884,91.7891 67.2884,91.6225 65.5,90.5C 67.1439,90.7135 68.6439,90.3802 70,89.5C 70.4997,81.8406 70.6664,74.1739 70.5,66.5C 70.5,62.5 70.5,58.5 70.5,54.5C 77.5,54.5 84.5,54.5 91.5,54.5 Z"/></g>
<g><path style="opacity:1" fill="#793fb8" d="M 67.5,64.5 C 68.1667,64.8333 68.8333,65.1667 69.5,65.5C 69.5,66.1667 69.8333,66.5 70.5,66.5C 70.6664,74.1739 70.4997,81.8406 70,89.5C 68.6439,90.3802 67.1439,90.7135 65.5,90.5C 64.8333,90.5 64.5,90.1667 64.5,89.5C 64.3047,80.8877 65.3047,72.5544 67.5,64.5 Z"/></g>
</svg>
