<?xml version="1.0" encoding="UTF-8"?>
<!DOCTYPE svg PUBLIC "-//W3C//DTD SVG 1.1//EN" "http://www.w3.org/Graphics/SVG/1.1/DTD/svg11.dtd">
<svg xmlns="http://www.w3.org/2000/svg" version="1.1" width="512px" height="512px" style="shape-rendering:geometricPrecision; text-rendering:geometricPrecision; image-rendering:optimizeQuality; fill-rule:evenodd; clip-rule:evenodd" xmlns:xlink="http://www.w3.org/1999/xlink">
<g><path style="opacity:0.989" fill="#2c1606" d="M 511.5,159.5 C 511.5,260.5 511.5,361.5 511.5,462.5C 505.372,485.123 490.705,498.623 467.5,503C 326.167,503.667 184.833,503.667 43.5,503C 20.295,498.623 5.62833,485.123 -0.5,462.5C -0.5,319.167 -0.5,175.833 -0.5,32.5C 4.16032,19.6781 13.1603,11.5114 26.5,8C 83.8333,7.33333 141.167,7.33333 198.5,8C 200.081,8.70653 201.581,9.53986 203,10.5C 216.375,32.0842 229.875,53.5842 243.5,75C 295.167,75.3333 346.833,75.6667 398.5,76C 422.823,79.9887 437.823,93.9887 443.5,118C 461.744,115.911 478.41,119.911 493.5,130C 502.219,138.289 508.219,148.123 511.5,159.5 Z"/></g>
<g><path style="opacity:1" fill="#fec146" d="M 227.5,84.5 C 163.832,84.3333 100.166,84.5 36.5,85C 29.2232,86.4737 22.5565,89.3071 16.5,93.5C 16.3334,74.4971 16.5001,55.4971 17,36.5C 18.7735,31.7271 21.9402,28.2271 26.5,26C 81.5,25.3333 136.5,25.3333 191.5,26C 203.898,45.305 215.898,64.805 227.5,84.5 Z"/></g>
<g><path style="opacity:1" fill="#fea426" d="M 227.5,84.5 C 229.821,87.629 232.488,90.4623 235.5,93C 289.5,93.3333 343.5,93.6667 397.5,94C 411.272,95.9504 420.272,103.45 424.5,116.5C 298.003,118.166 171.337,119.166 44.5,119.5C 34.2698,120.796 25.2698,124.796 17.5,131.5C 16.5009,118.851 16.1676,106.184 16.5,93.5C 22.5565,89.3071 29.2232,86.4737 36.5,85C 100.166,84.5 163.832,84.3333 227.5,84.5 Z"/></g>
<g><path style="opacity:1" fill="#8e5815" d="M 424.5,116.5 C 425.404,117.209 425.737,118.209 425.5,119.5C 298.5,119.5 171.5,119.5 44.5,119.5C 171.337,119.166 298.003,118.166 424.5,116.5 Z"/></g>
<g><path style="opacity:1" fill="#f6e9aa" d="M 464.5,136.5 C 382.833,136.5 301.167,136.5 219.5,136.5C 191.165,136.333 162.831,136.5 134.5,137C 83.9765,165.024 44.6432,204.19 16.5,254.5C 16.3334,223.832 16.5,193.165 17,162.5C 20.7643,149.736 28.931,141.236 41.5,137C 112.798,135.841 184.131,135.341 255.5,135.5C 325.334,135.5 395.001,135.833 464.5,136.5 Z"/></g>
<g><path style="opacity:1" fill="#fee87a" d="M 219.5,136.5 C 122.393,193.48 71.7258,278.646 67.5,392C 67.9635,424.096 73.2968,455.263 83.5,485.5C 69.496,485.667 55.496,485.5 41.5,485C 27.1428,480.309 18.9761,470.476 17,455.5C 16.5,388.501 16.3333,321.501 16.5,254.5C 44.6432,204.19 83.9765,165.024 134.5,137C 162.831,136.5 191.165,136.333 219.5,136.5 Z"/></g>
<g><path style="opacity:1" fill="#fee35b" d="M 219.5,136.5 C 301.167,136.5 382.833,136.5 464.5,136.5C 479.754,138.916 489.587,147.582 494,162.5C 494.667,260.167 494.667,357.833 494,455.5C 491.927,470.905 483.427,480.739 468.5,485C 340.167,485.5 211.834,485.667 83.5,485.5C 73.2968,455.263 67.9635,424.096 67.5,392C 71.7258,278.646 122.393,193.48 219.5,136.5 Z"/></g>
<g><path style="opacity:1" fill="#2c1607" d="M 297.5,310.5 C 297.5,312.167 297.5,313.833 297.5,315.5C 303.5,315.5 309.5,315.5 315.5,315.5C 315.5,314.5 315.5,313.5 315.5,312.5C 317.225,302.218 322.891,295.051 332.5,291C 347.765,289.381 363.099,289.048 378.5,290C 395.436,294.675 402.769,305.841 400.5,323.5C 402.194,334.581 399.194,344.081 391.5,352C 388.211,354.478 384.544,356.144 380.5,357C 363.767,357.956 347.1,357.623 330.5,356C 320.827,351.156 315.827,343.323 315.5,332.5C 309.5,332.5 303.5,332.5 297.5,332.5C 297.712,342.571 293.379,350.071 284.5,355C 281.28,356.352 277.947,357.186 274.5,357.5C 270.833,357.5 267.167,357.5 263.5,357.5C 263.174,366.349 263.507,375.016 264.5,383.5C 281.564,381.441 292.731,388.441 298,404.5C 298.667,412.833 298.667,421.167 298,429.5C 295.603,440.897 288.77,448.063 277.5,451C 262.167,451.667 246.833,451.667 231.5,451C 219.889,446.897 213.889,438.73 213.5,426.5C 207.5,426.5 201.5,426.5 195.5,426.5C 194.817,439.027 188.484,447.193 176.5,451C 160.833,451.667 145.167,451.667 129.5,451C 119.566,448.067 113.4,441.567 111,431.5C 110.333,421.833 110.333,412.167 111,402.5C 117.262,387.78 128.429,381.446 144.5,383.5C 144.5,374.833 144.5,366.167 144.5,357.5C 127.582,360.135 116.415,353.468 111,337.5C 110.333,327.833 110.333,318.167 111,308.5C 114.591,299.241 121.091,293.075 130.5,290C 144.833,289.333 159.167,289.333 173.5,290C 186.438,292.104 193.771,299.604 195.5,312.5C 195.5,313.5 195.5,314.5 195.5,315.5C 201.5,315.5 207.5,315.5 213.5,315.5C 213.5,313.833 213.5,312.167 213.5,310.5C 215.806,300.024 222.14,293.191 232.5,290C 237.489,289.501 242.489,289.334 247.5,289.5C 247.5,277.833 247.5,266.167 247.5,254.5C 227.969,249.798 216.469,237.465 213,217.5C 212.276,193.452 223.443,177.952 246.5,171C 273.848,168.089 291.015,179.922 298,206.5C 299.115,231.198 287.949,247.198 264.5,254.5C 263.501,266.148 263.168,277.814 263.5,289.5C 275.142,287.769 284.976,291.103 293,299.5C 295.575,302.726 297.075,306.393 297.5,310.5 Z"/></g>
<g><path style="opacity:1" fill="#f4f3f3" d="M 248.5,187.5 C 265.196,185.59 276.029,192.59 281,208.5C 280.815,229.351 270.315,239.185 249.5,238C 235.609,233.05 229.109,223.217 230,208.5C 232.853,198.486 239.02,191.486 248.5,187.5 Z"/></g>
<g><path style="opacity:1" fill="#ffc347" d="M 149.5,204.5 C 158.658,203.491 162.492,207.491 161,216.5C 156.306,222.645 151.306,222.979 146,217.5C 143.319,212.055 144.485,207.722 149.5,204.5 Z"/></g>
<g><path style="opacity:1" fill="#ffc347" d="M 183.5,204.5 C 192.658,203.491 196.492,207.491 195,216.5C 189.208,223.408 183.874,223.074 179,215.5C 178.333,213.5 178.333,211.5 179,209.5C 180.707,207.963 182.207,206.296 183.5,204.5 Z"/></g>
<g><path style="opacity:1" fill="#ffc247" d="M 149.5,238.5 C 159.751,238.353 163.085,243.02 159.5,252.5C 154.59,256.817 150.09,256.483 146,251.5C 144.75,248.923 144.416,246.257 145,243.5C 146.707,241.963 148.207,240.296 149.5,238.5 Z"/></g>
<g><path style="opacity:1" fill="#06caa9" d="M 133.5,306.5 C 146.504,306.333 159.504,306.5 172.5,307C 174.939,307.774 176.773,309.274 178,311.5C 178.94,320.27 178.607,328.936 177,337.5C 176.097,338.701 174.931,339.535 173.5,340C 159.073,340.965 144.74,340.632 130.5,339C 129.107,337.829 128.273,336.329 128,334.5C 127.333,326.833 127.333,319.167 128,311.5C 129.73,309.598 131.563,307.931 133.5,306.5 Z"/></g>
<g><path style="opacity:1" fill="#f3f2f2" d="M 235.5,306.5 C 249.573,306.053 263.573,306.553 277.5,308C 279.049,309.214 280.215,310.714 281,312.5C 281.934,320.605 281.601,328.605 280,336.5C 278.833,337.667 277.667,338.833 276.5,340C 262.5,340.667 248.5,340.667 234.5,340C 232.622,338.457 231.122,336.624 230,334.5C 229.333,327.167 229.333,319.833 230,312.5C 231.36,309.977 233.193,307.977 235.5,306.5 Z"/></g>
<g><path style="opacity:1" fill="#fd626d" d="M 337.5,306.5 C 351.598,306.035 365.598,306.535 379.5,308C 380.667,309.167 381.833,310.333 383,311.5C 383.91,320.244 383.576,328.911 382,337.5C 381.097,338.701 379.931,339.535 378.5,340C 364.5,340.667 350.5,340.667 336.5,340C 334.951,338.786 333.785,337.286 333,335.5C 332.333,327.5 332.333,319.5 333,311.5C 334.366,309.638 335.866,307.972 337.5,306.5 Z"/></g>
<g><path style="opacity:1" fill="#baa13f" d="M 213.5,310.5 C 213.5,312.167 213.5,313.833 213.5,315.5C 207.5,315.5 201.5,315.5 195.5,315.5C 195.5,314.5 195.5,313.5 195.5,312.5C 200.87,314.379 206.537,315.045 212.5,314.5C 212.232,312.901 212.566,311.568 213.5,310.5 Z"/></g>
<g><path style="opacity:1" fill="#baa13f" d="M 297.5,310.5 C 298.434,311.568 298.768,312.901 298.5,314.5C 304.463,315.045 310.13,314.379 315.5,312.5C 315.5,313.5 315.5,314.5 315.5,315.5C 309.5,315.5 303.5,315.5 297.5,315.5C 297.5,313.833 297.5,312.167 297.5,310.5 Z"/></g>
<g><path style="opacity:1" fill="#fde25b" d="M 234.5,357.5 C 238.298,358.483 242.298,358.817 246.5,358.5C 246.5,366.833 246.5,375.167 246.5,383.5C 233.5,381.422 223.334,385.755 216,396.5C 214.293,398.909 213.46,401.575 213.5,404.5C 212.566,405.568 212.232,406.901 212.5,408.5C 206.833,408.5 201.167,408.5 195.5,408.5C 194.643,397.149 188.976,389.315 178.5,385C 172.899,383.783 167.232,383.283 161.5,383.5C 161.5,374.833 161.5,366.167 161.5,357.5C 176.368,359.982 187.202,354.649 194,341.5C 195.149,338.607 195.649,335.607 195.5,332.5C 201.5,332.5 207.5,332.5 213.5,332.5C 214.297,345.97 221.297,354.303 234.5,357.5 Z"/></g>
<g><path style="opacity:1" fill="#947b30" d="M 234.5,357.5 C 238.833,357.5 243.167,357.5 247.5,357.5C 247.826,366.349 247.493,375.016 246.5,383.5C 246.5,375.167 246.5,366.833 246.5,358.5C 242.298,358.817 238.298,358.483 234.5,357.5 Z"/></g>
<g><path style="opacity:1" fill="#937a30" d="M 274.5,357.5 C 271.375,358.479 268.042,358.813 264.5,358.5C 264.5,366.833 264.5,375.167 264.5,383.5C 263.507,375.016 263.174,366.349 263.5,357.5C 267.167,357.5 270.833,357.5 274.5,357.5 Z"/></g>
<g><path style="opacity:1" fill="#ffc247" d="M 353.5,375.5 C 365.504,374.709 368.838,379.542 363.5,390C 353.972,393.794 349.472,390.627 350,380.5C 350.997,378.677 352.164,377.01 353.5,375.5 Z"/></g>
<g><path style="opacity:1" fill="#f5f5f5" d="M 132.5,400.5 C 145.837,400.333 159.171,400.5 172.5,401C 175.057,401.685 176.891,403.185 178,405.5C 178.167,409.5 178.333,413.5 178.5,417.5C 178.609,422.278 178.109,426.944 177,431.5C 176.097,432.701 174.931,433.535 173.5,434C 159.073,434.965 144.74,434.632 130.5,433C 129.107,431.829 128.273,430.329 128,428.5C 127.333,420.833 127.333,413.167 128,405.5C 129.707,403.963 131.207,402.296 132.5,400.5 Z"/></g>
<g><path style="opacity:1" fill="#4995f3" d="M 235.5,400.5 C 249.598,400.035 263.598,400.535 277.5,402C 279.049,403.214 280.215,404.714 281,406.5C 281.934,414.605 281.601,422.605 280,430.5C 278.786,432.049 277.286,433.215 275.5,434C 261.833,434.667 248.167,434.667 234.5,434C 232.622,432.457 231.122,430.624 230,428.5C 229.333,421.167 229.333,413.833 230,406.5C 231.36,403.977 233.193,401.977 235.5,400.5 Z"/></g>
<g><path style="opacity:1" fill="#a18835" d="M 213.5,404.5 C 213.5,406.167 213.5,407.833 213.5,409.5C 207.31,409.823 201.31,409.49 195.5,408.5C 201.167,408.5 206.833,408.5 212.5,408.5C 212.232,406.901 212.566,405.568 213.5,404.5 Z"/></g>
<g><path style="opacity:1" fill="#ffc347" d="M 320.5,409.5 C 329.161,408.329 332.994,411.996 332,420.5C 327.175,428.061 321.841,428.394 316,421.5C 314.474,416.239 315.974,412.239 320.5,409.5 Z"/></g>
<g><path style="opacity:1" fill="#ffc347" d="M 354.5,409.5 C 364.543,408.701 368.043,413.034 365,422.5C 359.186,428.205 354.186,427.538 350,420.5C 348.776,415.626 350.276,411.959 354.5,409.5 Z"/></g>
</svg>
