<?xml version="1.0" encoding="UTF-8"?>
<!DOCTYPE svg PUBLIC "-//W3C//DTD SVG 1.1//EN" "http://www.w3.org/Graphics/SVG/1.1/DTD/svg11.dtd">
<svg xmlns="http://www.w3.org/2000/svg" version="1.1" width="512px" height="512px" style="shape-rendering:geometricPrecision; text-rendering:geometricPrecision; image-rendering:optimizeQuality; fill-rule:evenodd; clip-rule:evenodd" xmlns:xlink="http://www.w3.org/1999/xlink">
<g><path style="opacity:0.994" fill="#000000" d="M 25.5,-0.5 C 178.833,-0.5 332.167,-0.5 485.5,-0.5C 498.5,3.83333 507.167,12.5 511.5,25.5C 511.5,178.833 511.5,332.167 511.5,485.5C 507.167,498.5 498.5,507.167 485.5,511.5C 458.5,511.5 431.5,511.5 404.5,511.5C 401.905,509.986 400.571,507.652 400.5,504.5C 400.544,500.91 402.211,498.41 405.5,497C 430.833,496.667 456.167,496.333 481.5,496C 489,493.833 493.833,489 496,481.5C 496.667,330.5 496.667,179.5 496,28.5C 493.406,21.5724 488.573,17.0724 481.5,15C 449.835,14.5 418.168,14.3334 386.5,14.5C 267.166,14.3333 147.833,14.5 28.5,15C 22,17.5 17.5,22 15,28.5C 14.871,34.9138 14.2043,41.2472 13,47.5C 11.2658,49.4506 9.0991,50.4506 6.5,50.5C 3.34772,50.4287 1.01439,49.0954 -0.5,46.5C -0.5,39.5 -0.5,32.5 -0.5,25.5C 3.83333,12.5 12.5,3.83333 25.5,-0.5 Z"/></g>
<g><path style="opacity:1" fill="#6199cb" d="M 386.5,14.5 C 386.5,57.5 386.5,100.5 386.5,143.5C 380.167,143.5 373.833,143.5 367.5,143.5C 367.667,116.165 367.5,88.8313 367,61.5C 363.833,50.3333 356.667,43.1667 345.5,40C 320.167,39.3333 294.833,39.3333 269.5,40C 257.815,43.1831 250.815,50.6831 248.5,62.5C 247.502,89.3282 247.169,116.328 247.5,143.5C 185.331,143.168 123.331,143.501 61.5,144.5C 50.2581,147.241 43.0914,154.241 40,165.5C 39.3333,225.5 39.3333,285.5 40,345.5C 43.1667,356.667 50.3333,363.833 61.5,367C 86.1667,367.667 110.833,367.667 135.5,367C 148.557,363.78 156.223,355.613 158.5,342.5C 159.498,316.339 159.831,290.005 159.5,263.5C 188.833,263.5 218.167,263.5 247.5,263.5C 247.5,317.5 247.5,371.5 247.5,425.5C 169.833,425.5 92.1667,425.5 14.5,425.5C 14.6667,308.5 14.5,191.5 14,74.5C 11.8301,72.1769 9.33012,70.5103 6.5,69.5C 6.5,63.1667 6.5,56.8333 6.5,50.5C 9.0991,50.4506 11.2658,49.4506 13,47.5C 14.2043,41.2472 14.871,34.9138 15,28.5C 17.5,22 22,17.5 28.5,15C 147.833,14.5 267.166,14.3333 386.5,14.5 Z"/></g>
<g><path style="opacity:1" fill="#48709a" d="M 386.5,14.5 C 418.168,14.3334 449.835,14.5 481.5,15C 488.573,17.0724 493.406,21.5724 496,28.5C 496.667,179.5 496.667,330.5 496,481.5C 493.833,489 489,493.833 481.5,496C 456.167,496.333 430.833,496.667 405.5,497C 402.211,498.41 400.544,500.91 400.5,504.5C 393.167,504.5 385.833,504.5 378.5,504.5C 377.892,501.042 375.892,498.542 372.5,497C 257.833,496.667 143.167,496.333 28.5,496C 21.5724,493.406 17.0724,488.573 15,481.5C 14.5001,462.836 14.3334,444.17 14.5,425.5C 92.1667,425.5 169.833,425.5 247.5,425.5C 247.175,433.019 247.508,440.352 248.5,447.5C 250.289,459.799 257.289,467.632 269.5,471C 294.833,471.667 320.167,471.667 345.5,471C 356.75,467.917 363.75,460.751 366.5,449.5C 367.493,441.016 367.826,432.349 367.5,423.5C 377.22,420.798 383.387,414.465 386,404.5C 386.5,357.501 386.667,310.501 386.5,263.5C 407.007,263.83 427.34,263.497 447.5,262.5C 459.799,260.711 467.632,253.711 471,241.5C 471.667,216.167 471.667,190.833 471,165.5C 467.842,154.342 460.675,147.175 449.5,144C 428.503,143.5 407.503,143.333 386.5,143.5C 386.5,100.5 386.5,57.5 386.5,14.5 Z"/></g>
<g><path style="opacity:1" fill="#020100" d="M 386.5,143.5 C 407.503,143.333 428.503,143.5 449.5,144C 460.675,147.175 467.842,154.342 471,165.5C 471.667,190.833 471.667,216.167 471,241.5C 467.632,253.711 459.799,260.711 447.5,262.5C 420.5,262.5 393.5,262.5 366.5,262.5C 366.5,324.833 366.5,387.167 366.5,449.5C 363.75,460.751 356.75,467.917 345.5,471C 320.167,471.667 294.833,471.667 269.5,471C 257.289,467.632 250.289,459.799 248.5,447.5C 248.5,385.833 248.5,324.167 248.5,262.5C 218.5,262.5 188.5,262.5 158.5,262.5C 158.5,289.167 158.5,315.833 158.5,342.5C 156.223,355.613 148.557,363.78 135.5,367C 110.833,367.667 86.1667,367.667 61.5,367C 50.3333,363.833 43.1667,356.667 40,345.5C 39.3333,285.5 39.3333,225.5 40,165.5C 43.0914,154.241 50.2581,147.241 61.5,144.5C 123.833,144.5 186.167,144.5 248.5,144.5C 248.5,117.167 248.5,89.8333 248.5,62.5C 250.815,50.6831 257.815,43.1831 269.5,40C 294.833,39.3333 320.167,39.3333 345.5,40C 356.667,43.1667 363.833,50.3333 367,61.5C 367.5,88.8313 367.667,116.165 367.5,143.5C 373.833,143.5 380.167,143.5 386.5,143.5 Z"/></g>
<g><path style="opacity:1" fill="#f9d91d" d="M 271.5,54.5 C 295.502,54.3334 319.502,54.5 343.5,55C 347.667,56.5 350.5,59.3333 352,63.5C 352.5,90.1646 352.667,116.831 352.5,143.5C 322.5,143.5 292.5,143.5 262.5,143.5C 262.333,117.165 262.5,90.8312 263,64.5C 264.677,60.1215 267.511,56.7882 271.5,54.5 Z"/></g>
<g><path style="opacity:0.997" fill="#000000" d="M 6.5,69.5 C 9.33012,70.5103 11.8301,72.1769 14,74.5C 14.5,191.5 14.6667,308.5 14.5,425.5C 14.3334,444.17 14.5001,462.836 15,481.5C 17.0724,488.573 21.5724,493.406 28.5,496C 143.167,496.333 257.833,496.667 372.5,497C 375.892,498.542 377.892,501.042 378.5,504.5C 377.937,507.295 376.604,509.628 374.5,511.5C 258.167,511.5 141.833,511.5 25.5,511.5C 12.5,507.167 3.83333,498.5 -0.5,485.5C -0.5,348.167 -0.5,210.833 -0.5,73.5C 1.39043,71.4224 3.72376,70.0891 6.5,69.5 Z"/></g>
<g><path style="opacity:1" fill="#493c21" d="M 248.5,62.5 C 248.5,89.8333 248.5,117.167 248.5,144.5C 186.167,144.5 123.833,144.5 61.5,144.5C 123.331,143.501 185.331,143.168 247.5,143.5C 247.169,116.328 247.502,89.3282 248.5,62.5 Z"/></g>
<g><path style="opacity:1" fill="#f9d91d" d="M 63.5,159.5 C 90.1667,159.5 116.833,159.5 143.5,159.5C 143.5,188.833 143.5,218.167 143.5,247.5C 113.833,247.5 84.1667,247.5 54.5,247.5C 54.3334,220.831 54.5,194.165 55,167.5C 56.4129,163.252 59.2462,160.585 63.5,159.5 Z"/></g>
<g><path style="opacity:1" fill="#75580a" d="M 63.5,159.5 C 90.3282,158.502 117.328,158.169 144.5,158.5C 144.5,188.5 144.5,218.5 144.5,248.5C 114.329,248.831 84.3287,248.498 54.5,247.5C 84.1667,247.5 113.833,247.5 143.5,247.5C 143.5,218.167 143.5,188.833 143.5,159.5C 116.833,159.5 90.1667,159.5 63.5,159.5 Z"/></g>
<g><path style="opacity:1" fill="#ac8911" d="M 247.5,158.5 C 247.5,158.833 247.5,159.167 247.5,159.5C 218.167,159.5 188.833,159.5 159.5,159.5C 159.5,188.833 159.5,218.167 159.5,247.5C 159.167,247.5 158.833,247.5 158.5,247.5C 158.5,217.833 158.5,188.167 158.5,158.5C 188.167,158.5 217.833,158.5 247.5,158.5 Z"/></g>
<g><path style="opacity:1" fill="#fbdb1d" d="M 247.5,159.5 C 247.5,188.833 247.5,218.167 247.5,247.5C 218.167,247.5 188.833,247.5 159.5,247.5C 159.5,218.167 159.5,188.833 159.5,159.5C 188.833,159.5 218.167,159.5 247.5,159.5 Z"/></g>
<g><path style="opacity:1" fill="#fbda1d" d="M 263.5,159.5 C 292.833,159.5 322.167,159.5 351.5,159.5C 351.5,188.833 351.5,218.167 351.5,247.5C 351.5,218.167 351.5,188.833 351.5,159.5C 322.167,159.5 292.833,159.5 263.5,159.5 Z"/></g>
<g><path style="opacity:1" fill="#ac8911" d="M 263.5,159.5 C 263.5,159.167 263.5,158.833 263.5,158.5C 293.167,158.5 322.833,158.5 352.5,158.5C 352.5,188.167 352.5,217.833 352.5,247.5C 352.167,247.5 351.833,247.5 351.5,247.5C 351.5,218.167 351.5,188.833 351.5,159.5C 322.167,159.5 292.833,159.5 263.5,159.5 Z"/></g>
<g><path style="opacity:1" fill="#744e07" d="M 447.5,159.5 C 427.167,159.5 406.833,159.5 386.5,159.5C 380.167,159.5 373.833,159.5 367.5,159.5C 367.5,188.833 367.5,218.167 367.5,247.5C 373.833,247.5 380.167,247.5 386.5,247.5C 406.5,247.5 426.5,247.5 446.5,247.5C 420.005,248.498 393.339,248.831 366.5,248.5C 366.5,218.5 366.5,188.5 366.5,158.5C 393.672,158.169 420.672,158.502 447.5,159.5 Z"/></g>
<g><path style="opacity:1" fill="#fbdc1d" d="M 386.5,159.5 C 386.5,188.833 386.5,218.167 386.5,247.5C 380.167,247.5 373.833,247.5 367.5,247.5C 367.5,218.167 367.5,188.833 367.5,159.5C 373.833,159.5 380.167,159.5 386.5,159.5 Z"/></g>
<g><path style="opacity:1" fill="#fda410" d="M 386.5,159.5 C 406.833,159.5 427.167,159.5 447.5,159.5C 451.754,160.585 454.587,163.252 456,167.5C 456.667,191.167 456.667,214.833 456,238.5C 454.94,243.727 451.773,246.727 446.5,247.5C 426.5,247.5 406.5,247.5 386.5,247.5C 386.5,218.167 386.5,188.833 386.5,159.5 Z"/></g>
<g><path style="opacity:1" fill="#0b0701" d="M 95.5,174.5 C 102.011,173.92 108.011,175.42 113.5,179C 117.789,182.877 119.455,187.544 118.5,193C 115.5,193.667 112.5,193.667 109.5,193C 107.234,185.365 102.234,182.699 94.5,185C 91.8647,186.961 90.0314,189.461 89,192.5C 88.1367,200.564 88.47,208.564 90,216.5C 92.9188,222.025 97.4188,223.858 103.5,222C 108.257,219.261 110.257,215.094 109.5,209.5C 106.15,209.665 102.817,209.498 99.5,209C 98.1667,206.333 98.1667,203.667 99.5,201C 105.167,200.333 110.833,200.333 116.5,201C 117.416,201.374 118.25,201.874 119,202.5C 121.487,227.022 110.987,235.855 87.5,229C 79.9552,222.206 76.6218,213.706 77.5,203.5C 75.7205,188.682 81.7205,179.015 95.5,174.5 Z"/></g>
<g><path style="opacity:1" fill="#090501" d="M 201.5,174.5 C 205.493,174.245 208.326,175.911 210,179.5C 215.5,196 221,212.5 226.5,229C 226.355,229.772 226.022,230.439 225.5,231C 222.833,231.667 220.167,231.667 217.5,231C 215.359,227.425 213.693,223.591 212.5,219.5C 206.528,218.336 200.528,218.17 194.5,219C 193.413,223.266 191.746,227.266 189.5,231C 186.571,231.777 183.737,231.61 181,230.5C 185.697,213.405 191.03,196.405 197,179.5C 198.025,177.313 199.525,175.646 201.5,174.5 Z"/></g>
<g><path style="opacity:1" fill="#090500" d="M 320.5,229.5 C 320.667,218.495 320.5,207.495 320,196.5C 319.487,197.527 318.987,198.527 318.5,199.5C 316.029,204.442 313.529,209.442 311,214.5C 308.667,217.167 306.333,217.167 304,214.5C 301.215,209.265 298.715,203.932 296.5,198.5C 296.217,197.711 295.717,197.044 295,196.5C 294.5,207.495 294.333,218.495 294.5,229.5C 293.508,231.026 292.008,231.693 290,231.5C 287.966,231.646 286.299,230.98 285,229.5C 284.333,212.167 284.333,194.833 285,177.5C 288.619,174.657 291.952,174.99 295,178.5C 299.333,186.5 303.667,194.5 308,202.5C 312.078,194.009 316.412,185.676 321,177.5C 324,174.833 327,174.833 330,177.5C 330.667,194.833 330.667,212.167 330,229.5C 328.701,230.98 327.034,231.646 325,231.5C 322.992,231.693 321.492,231.026 320.5,229.5 Z"/></g>
<g><path style="opacity:1" fill="#100700" d="M 400.5,175.5 C 409.506,175.334 418.506,175.5 427.5,176C 430.167,179 430.167,182 427.5,185C 420.842,185.5 414.175,185.666 407.5,185.5C 407.5,189.5 407.5,193.5 407.5,197.5C 413.176,197.334 418.843,197.501 424.5,198C 427.167,201 427.167,204 424.5,207C 418.843,207.499 413.176,207.666 407.5,207.5C 407.5,212.167 407.5,216.833 407.5,221.5C 414.175,221.334 420.842,221.5 427.5,222C 430.167,225 430.167,228 427.5,231C 418.5,231.667 409.5,231.667 400.5,231C 399.667,230.167 398.833,229.333 398,228.5C 396.364,212.259 396.03,195.925 397,179.5C 398.102,178.051 399.269,176.718 400.5,175.5 Z"/></g>
<g><path style="opacity:1" fill="#dfbe19" d="M 202.5,190.5 C 203.117,190.611 203.617,190.944 204,191.5C 205.61,197.492 207.11,203.492 208.5,209.5C 204.774,209.823 201.107,209.489 197.5,208.5C 199.989,202.703 201.656,196.703 202.5,190.5 Z"/></g>
<g><path style="opacity:1" fill="#6c4f09" d="M 296.5,198.5 C 295.833,208.833 295.167,219.167 294.5,229.5C 294.333,218.495 294.5,207.495 295,196.5C 295.717,197.044 296.217,197.711 296.5,198.5 Z"/></g>
<g><path style="opacity:1" fill="#96750e" d="M 320.5,229.5 C 319.833,219.5 319.167,209.5 318.5,199.5C 318.987,198.527 319.487,197.527 320,196.5C 320.5,207.495 320.667,218.495 320.5,229.5 Z"/></g>
<g><path style="opacity:1" fill="#84650c" d="M 247.5,158.5 C 248.498,188.329 248.831,218.329 248.5,248.5C 218.329,248.831 188.329,248.498 158.5,247.5C 158.833,247.5 159.167,247.5 159.5,247.5C 188.833,247.5 218.167,247.5 247.5,247.5C 247.5,218.167 247.5,188.833 247.5,159.5C 247.5,159.167 247.5,158.833 247.5,158.5 Z"/></g>
<g><path style="opacity:1" fill="#84650c" d="M 263.5,158.5 C 263.5,158.833 263.5,159.167 263.5,159.5C 263.5,188.833 263.5,218.167 263.5,247.5C 292.833,247.5 322.167,247.5 351.5,247.5C 351.833,247.5 352.167,247.5 352.5,247.5C 322.671,248.498 292.671,248.831 262.5,248.5C 262.169,218.329 262.502,188.329 263.5,158.5 Z"/></g>
<g><path style="opacity:1" fill="#fada1d" d="M 54.5,263.5 C 84.1667,263.5 113.833,263.5 143.5,263.5C 143.5,289.167 143.5,314.833 143.5,340.5C 142.974,346.201 139.974,350.034 134.5,352C 110.833,352.667 87.1667,352.667 63.5,352C 59.3333,350.5 56.5,347.667 55,343.5C 54.5,316.835 54.3334,290.169 54.5,263.5 Z"/></g>
<g><path style="opacity:1" fill="#674b08" d="M 54.5,263.5 C 84.3287,262.502 114.329,262.169 144.5,262.5C 144.831,288.672 144.498,314.672 143.5,340.5C 143.5,314.833 143.5,289.167 143.5,263.5C 113.833,263.5 84.1667,263.5 54.5,263.5 Z"/></g>
<g><path style="opacity:1" fill="#5f563d" d="M 248.5,447.5 C 247.508,440.352 247.175,433.019 247.5,425.5C 247.5,371.5 247.5,317.5 247.5,263.5C 218.167,263.5 188.833,263.5 159.5,263.5C 159.831,290.005 159.498,316.339 158.5,342.5C 158.5,315.833 158.5,289.167 158.5,262.5C 188.5,262.5 218.5,262.5 248.5,262.5C 248.5,324.167 248.5,385.833 248.5,447.5 Z"/></g>
<g><path style="opacity:1" fill="#82630b" d="M 352.5,263.5 C 352.167,263.5 351.833,263.5 351.5,263.5C 322.167,263.5 292.833,263.5 263.5,263.5C 263.5,292.833 263.5,322.167 263.5,351.5C 263.5,351.833 263.5,352.167 263.5,352.5C 262.502,322.671 262.169,292.671 262.5,262.5C 292.671,262.169 322.671,262.502 352.5,263.5 Z"/></g>
<g><path style="opacity:1" fill="#fbdc1d" d="M 351.5,263.5 C 351.5,292.833 351.5,322.167 351.5,351.5C 322.167,351.5 292.833,351.5 263.5,351.5C 263.5,322.167 263.5,292.833 263.5,263.5C 292.833,263.5 322.167,263.5 351.5,263.5 Z"/></g>
<g><path style="opacity:1" fill="#503c1a" d="M 447.5,262.5 C 427.34,263.497 407.007,263.83 386.5,263.5C 380.167,263.5 373.833,263.5 367.5,263.5C 367.5,316.833 367.5,370.167 367.5,423.5C 367.826,432.349 367.493,441.016 366.5,449.5C 366.5,387.167 366.5,324.833 366.5,262.5C 393.5,262.5 420.5,262.5 447.5,262.5 Z"/></g>
<g><path style="opacity:1" fill="#6199cb" d="M 386.5,263.5 C 386.667,310.501 386.5,357.501 386,404.5C 383.387,414.465 377.22,420.798 367.5,423.5C 367.5,370.167 367.5,316.833 367.5,263.5C 373.833,263.5 380.167,263.5 386.5,263.5 Z"/></g>
<g><path style="opacity:1" fill="#aa8711" d="M 351.5,263.5 C 351.833,263.5 352.167,263.5 352.5,263.5C 352.5,293.167 352.5,322.833 352.5,352.5C 322.833,352.5 293.167,352.5 263.5,352.5C 263.5,352.167 263.5,351.833 263.5,351.5C 292.833,351.5 322.167,351.5 351.5,351.5C 351.5,322.167 351.5,292.833 351.5,263.5 Z"/></g>
<g><path style="opacity:1" fill="#fcdb1d" d="M 263.5,367.5 C 292.833,367.5 322.167,367.5 351.5,367.5C 351.5,386.833 351.5,406.167 351.5,425.5C 322.167,425.5 292.833,425.5 263.5,425.5C 263.5,406.167 263.5,386.833 263.5,367.5 Z"/></g>
<g><path style="opacity:1" fill="#8c690c" d="M 263.5,367.5 C 292.995,366.502 322.662,366.169 352.5,366.5C 352.831,393.339 352.498,420.005 351.5,446.5C 351.5,439.5 351.5,432.5 351.5,425.5C 351.5,406.167 351.5,386.833 351.5,367.5C 322.167,367.5 292.833,367.5 263.5,367.5 Z"/></g>
<g><path style="opacity:1" fill="#f9a110" d="M 263.5,367.5 C 263.5,386.833 263.5,406.167 263.5,425.5C 292.833,425.5 322.167,425.5 351.5,425.5C 351.5,432.5 351.5,439.5 351.5,446.5C 350.844,451.287 348.178,454.454 343.5,456C 319.5,456.667 295.5,456.667 271.5,456C 267.407,453.993 264.573,450.827 263,446.5C 262.17,419.997 262.337,393.663 263.5,367.5 Z"/></g>
</svg>
