<?xml version="1.0" encoding="UTF-8"?>
<!DOCTYPE svg PUBLIC "-//W3C//DTD SVG 1.1//EN" "http://www.w3.org/Graphics/SVG/1.1/DTD/svg11.dtd">
<svg xmlns="http://www.w3.org/2000/svg" version="1.1" width="512px" height="512px" style="shape-rendering:geometricPrecision; text-rendering:geometricPrecision; image-rendering:optimizeQuality; fill-rule:evenodd; clip-rule:evenodd" xmlns:xlink="http://www.w3.org/1999/xlink">
<g><path style="opacity:0.975" fill="#040303" d="M 62.5,4.5 C 156.501,4.33334 250.501,4.5 344.5,5C 356.559,8.05856 364.392,15.5586 368,27.5C 368.5,34.4921 368.666,41.4921 368.5,48.5C 404.351,43.3561 420.684,58.6895 417.5,94.5C 419.989,94.2978 422.323,94.7978 424.5,96C 442.695,113.862 460.529,132.028 478,150.5C 478.667,263.833 478.667,377.167 478,490.5C 474.977,498.192 469.477,503.025 461.5,505C 362.833,505.667 264.167,505.667 165.5,505C 155.897,502.397 150.064,496.231 148,486.5C 147.5,477.506 147.334,468.506 147.5,459.5C 135.829,459.667 124.162,459.5 112.5,459C 98.6667,455.833 90.1667,447.333 87,433.5C 86.5005,427.509 86.3338,421.509 86.5,415.5C 78.8261,415.666 71.1594,415.5 63.5,415C 49.2145,411.715 40.7145,402.881 38,388.5C 37.3333,269.5 37.3333,150.5 38,31.5C 40.2463,16.9374 48.413,7.93743 62.5,4.5 Z"/></g>
<g><path style="opacity:1" fill="#f3ddac" d="M 355.5,30.5 C 355.5,36.5 355.5,42.5 355.5,48.5C 274.332,48.1674 193.332,48.5007 112.5,49.5C 99.7867,51.7108 91.62,59.0441 88,71.5C 87.5,181.833 87.3333,292.166 87.5,402.5C 79.16,402.666 70.8267,402.5 62.5,402C 56.9122,399.414 53.0789,395.247 51,389.5C 50.3333,269.5 50.3333,149.5 51,29.5C 53.5,24.3333 57.3333,20.5 62.5,18C 156.167,17.3333 249.833,17.3333 343.5,18C 349.72,20.0534 353.72,24.2201 355.5,30.5 Z"/></g>
<g><path style="opacity:1" fill="#665d48" d="M 355.5,30.5 C 356.49,36.6446 356.823,42.9779 356.5,49.5C 275.167,49.5 193.833,49.5 112.5,49.5C 193.332,48.5007 274.332,48.1674 355.5,48.5C 355.5,42.5 355.5,36.5 355.5,30.5 Z"/></g>
<g><path style="opacity:1" fill="#f2ca82" d="M 404.5,74.5 C 404.5,81.1667 404.5,87.8333 404.5,94.5C 324.665,94.1674 244.998,94.5007 165.5,95.5C 157.233,97.3945 151.733,102.395 149,110.5C 148.5,222.5 148.333,334.5 148.5,446.5C 136.162,446.667 123.829,446.5 111.5,446C 105.471,443.309 101.638,438.809 100,432.5C 99.3333,312.833 99.3333,193.167 100,73.5C 101.833,67.6667 105.667,63.8333 111.5,62C 205.167,61.3333 298.833,61.3333 392.5,62C 398.72,64.0534 402.72,68.2201 404.5,74.5 Z"/></g>
<g><path style="opacity:1" fill="#74613e" d="M 404.5,74.5 C 405.491,81.3134 405.825,88.3134 405.5,95.5C 325.5,95.5 245.5,95.5 165.5,95.5C 244.998,94.5007 324.665,94.1674 404.5,94.5C 404.5,87.8333 404.5,81.1667 404.5,74.5 Z"/></g>
<g><path style="opacity:1" fill="#f3fdfe" d="M 432.5,159.5 C 443.321,160.495 454.321,160.828 465.5,160.5C 465.5,268.833 465.5,377.167 465.5,485.5C 465.201,488.642 463.534,490.809 460.5,492C 362.167,492.667 263.833,492.667 165.5,492C 163.19,490.363 161.69,488.196 161,485.5C 160.004,360.753 160.337,236.086 162,111.5C 163.167,110.333 164.333,109.167 165.5,108C 248.166,107.5 330.833,107.333 413.5,107.5C 413.333,119.171 413.5,130.838 414,142.5C 416.52,152.188 422.686,157.855 432.5,159.5 Z"/></g>
<g><path style="opacity:1" fill="#e9d4a4" d="M 425.5,116.5 C 436.426,125.758 446.76,135.758 456.5,146.5C 452.333,146.833 448.167,147.167 444,147.5C 439.056,147.612 434.223,147.112 429.5,146C 427.959,144.421 426.792,142.587 426,140.5C 425.5,132.507 425.334,124.507 425.5,116.5 Z"/></g>
<g><path style="opacity:1" fill="#010101" d="M 185.5,127.5 C 218.835,127.333 252.168,127.5 285.5,128C 290.414,131.171 290.747,134.837 286.5,139C 252.833,139.667 219.167,139.667 185.5,139C 181.555,135.169 181.555,131.336 185.5,127.5 Z"/></g>
<g><path style="opacity:1" fill="#070707" d="M 186.5,152.5 C 212.835,152.333 239.169,152.5 265.5,153C 270.403,156.272 270.737,159.939 266.5,164C 239.5,164.667 212.5,164.667 185.5,164C 181.307,159.683 181.64,155.85 186.5,152.5 Z"/></g>
<g><path style="opacity:1" fill="#bbc3c4" d="M 432.5,159.5 C 443.833,159.5 455.167,159.5 466.5,159.5C 466.833,268.335 466.499,377.001 465.5,485.5C 465.5,377.167 465.5,268.833 465.5,160.5C 454.321,160.828 443.321,160.495 432.5,159.5 Z"/></g>
<g><path style="opacity:1" fill="#040506" d="M 295.5,212.5 C 307.505,212.333 319.505,212.5 331.5,213C 338.521,217.553 341.354,224.053 340,232.5C 345.811,234.438 351.478,236.772 357,239.5C 360.211,236.627 363.711,234.127 367.5,232C 371.594,231.233 375.594,231.566 379.5,233C 388.069,240.9 395.903,249.4 403,258.5C 403.567,266.201 400.734,272.367 394.5,277C 397.919,282.758 400.253,288.925 401.5,295.5C 419.414,294.235 426.414,302.569 422.5,320.5C 422.333,325.833 422.167,331.167 422,336.5C 420.904,341.26 418.071,344.427 413.5,346C 409.833,346.333 406.167,346.667 402.5,347C 399.98,353.21 397.313,359.376 394.5,365.5C 397.907,368.738 400.741,372.405 403,376.5C 403.738,380.402 403.072,384.068 401,387.5C 393.1,396.069 384.6,403.903 375.5,411C 372.406,411.652 369.406,411.318 366.5,410C 363.322,407.486 360.156,404.986 357,402.5C 351.657,405.117 346.157,407.451 340.5,409.5C 341.383,418.908 337.716,425.741 329.5,430C 318.833,430.667 308.167,430.667 297.5,430C 288.988,425.807 285.654,418.974 287.5,409.5C 281.309,407.741 275.309,405.408 269.5,402.5C 266.027,406.071 262.027,408.904 257.5,411C 253.88,411.841 250.546,411.174 247.5,409C 240,401.5 232.5,394 225,386.5C 223.595,382.928 223.262,379.261 224,375.5C 226.132,371.569 228.965,368.236 232.5,365.5C 229.148,359.605 226.481,353.438 224.5,347C 217.061,348.062 210.894,345.895 206,340.5C 204.394,328.238 204.061,315.904 205,303.5C 209.446,296.381 215.946,293.381 224.5,294.5C 226.493,288.354 229.159,282.521 232.5,277C 224.596,271.618 222.096,264.451 225,255.5C 232.863,247.302 241.03,239.469 249.5,232C 252.833,231.333 256.167,231.333 259.5,232C 262.717,234.726 266.05,237.226 269.5,239.5C 275.048,236.893 280.714,234.56 286.5,232.5C 285.76,223.991 288.76,217.324 295.5,212.5 Z"/></g>
<g><path style="opacity:1" fill="#31d4f9" d="M 299.5,224.5 C 308.833,224.5 318.167,224.5 327.5,224.5C 327.334,229.844 327.501,235.177 328,240.5C 328.903,241.701 330.069,242.535 331.5,243C 340.986,245.416 349.986,248.916 358.5,253.5C 363.756,251.765 368.089,248.598 371.5,244C 372.167,243.333 372.833,243.333 373.5,244C 379.5,250 385.5,256 391.5,262C 386.855,265.801 383.188,270.301 380.5,275.5C 385.48,285.131 389.647,295.131 393,305.5C 393.5,306 394,306.5 394.5,307C 399.823,307.499 405.156,307.666 410.5,307.5C 410.5,316.5 410.5,325.5 410.5,334.5C 405.489,334.334 400.489,334.501 395.5,335C 394.584,335.374 393.75,335.874 393,336.5C 389.647,346.869 385.48,356.869 380.5,366.5C 383.188,371.699 386.855,376.199 391.5,380C 385.5,386 379.5,392 373.5,398C 372.451,398.492 371.451,398.326 370.5,397.5C 367.979,394.146 364.979,391.312 361.5,389C 359.833,388.333 358.167,388.333 356.5,389C 347.971,393.843 338.971,397.509 329.5,400C 329,400.5 328.5,401 328,401.5C 327.809,407.083 327.309,412.583 326.5,418C 317.833,418.667 309.167,418.667 300.5,418C 299.693,412.917 299.193,407.75 299,402.5C 298.692,401.692 298.192,401.025 297.5,400.5C 288.007,397.751 279.007,393.918 270.5,389C 268.029,388.294 265.695,388.627 263.5,390C 260.616,393.586 257.283,396.252 253.5,398C 247.5,392 241.5,386 235.5,380C 238.333,377.167 241.167,374.333 244,371.5C 244.958,369.801 245.458,367.967 245.5,366C 241.094,356.459 237.261,346.625 234,336.5C 233.25,335.874 232.416,335.374 231.5,335C 226.511,334.501 221.511,334.334 216.5,334.5C 216.5,325.5 216.5,316.5 216.5,307.5C 221.511,307.666 226.511,307.499 231.5,307C 233.333,306.5 234.5,305.333 235,303.5C 237.559,293.897 241.059,284.731 245.5,276C 245.333,274.833 245.167,273.667 245,272.5C 241.466,268.996 238.466,265.33 236,261.5C 242.014,255.318 248.181,249.318 254.5,243.5C 257.985,246.484 261.318,249.651 264.5,253C 265.5,253.167 266.5,253.333 267.5,253.5C 277.158,248.84 287.158,245.007 297.5,242C 298.126,241.25 298.626,240.416 299,239.5C 299.499,234.511 299.666,229.511 299.5,224.5 Z"/></g>
<g><path style="opacity:1" fill="#030506" d="M 306.5,270.5 C 335.473,269.654 354.306,282.988 363,310.5C 366.197,342.959 352.03,363.125 320.5,371C 291.135,372.745 272.301,359.578 264,331.5C 260.902,299.002 275.069,278.669 306.5,270.5 Z"/></g>
<g><path style="opacity:1" fill="#f2fcfd" d="M 306.5,282.5 C 329.057,281.248 343.89,291.248 351,312.5C 353.88,334.583 345.046,349.75 324.5,358C 300.072,362.537 283.906,353.037 276,329.5C 273.491,305.525 283.657,289.858 306.5,282.5 Z"/></g>
</svg>
