<?xml version="1.0" encoding="UTF-8"?>
<!DOCTYPE svg PUBLIC "-//W3C//DTD SVG 1.1//EN" "http://www.w3.org/Graphics/SVG/1.1/DTD/svg11.dtd">
<svg xmlns="http://www.w3.org/2000/svg" version="1.1" width="512px" height="512px" style="shape-rendering:geometricPrecision; text-rendering:geometricPrecision; image-rendering:optimizeQuality; fill-rule:evenodd; clip-rule:evenodd" xmlns:xlink="http://www.w3.org/1999/xlink">
<g><path style="opacity:0.965" fill="#010101" d="M 395.5,285.5 C 391.83,285.673 389.33,284.007 388,280.5C 387.833,262.491 387.333,244.491 386.5,226.5C 345.5,249.333 304.5,272.167 263.5,295C 262.167,302 262.167,309 263.5,316C 295.699,319.339 320.532,334.506 338,361.5C 343.381,371.249 347.881,381.249 351.5,391.5C 363.414,384.96 375.248,378.293 387,371.5C 387.333,350.833 387.667,330.167 388,309.5C 389.913,306.72 392.413,305.053 395.5,304.5C 398.195,304.933 400.362,306.266 402,308.5C 402.333,328.833 402.667,349.167 403,369.5C 432.086,385.96 461.253,402.293 490.5,418.5C 490.833,418 491.167,417.5 491.5,417C 488.922,408.523 486.422,400.023 484,391.5C 481.984,381.515 485.818,377.681 495.5,380C 497.049,381.214 498.215,382.714 499,384.5C 502.725,399.087 506.892,413.42 511.5,427.5C 511.5,430.833 511.5,434.167 511.5,437.5C 509.766,441.387 506.766,443.887 502.5,445C 488.5,449 474.5,453 460.5,457C 450.667,459.167 446.833,455.333 449,445.5C 449.833,444.667 450.667,443.833 451.5,443C 462.317,439.966 472.984,436.632 483.5,433C 454.5,416.833 425.5,400.667 396.5,384.5C 382.005,392.246 367.672,400.246 353.5,408.5C 352.597,454.203 331.263,486.036 289.5,504C 246.055,517.432 209.222,507.266 179,473.5C 164.555,454.331 157.388,432.665 157.5,408.5C 143.398,400.366 129.232,392.366 115,384.5C 85.7687,400.533 56.6021,416.699 27.5,433C 38.1095,436.322 48.7762,439.656 59.5,443C 62.9023,446.719 63.4023,450.886 61,455.5C 57.7441,457.429 54.2441,457.929 50.5,457C 34.2445,452.607 18.2445,447.607 2.5,442C 1.60064,440.348 0.60064,438.848 -0.5,437.5C -0.5,434.167 -0.5,430.833 -0.5,427.5C 4.10802,413.42 8.27469,399.087 12,384.5C 16.1482,377.379 21.1482,376.712 27,382.5C 27.6667,385.5 27.6667,388.5 27,391.5C 24.5776,400.023 22.0776,408.523 19.5,417C 19.8333,417.5 20.1667,418 20.5,418.5C 49.7475,402.293 78.9141,385.96 108,369.5C 108.333,315.5 108.667,261.5 109,207.5C 110.122,205.376 111.622,203.543 113.5,202C 132.167,191.667 150.833,181.333 169.5,171C 172.167,170.333 174.833,170.333 177.5,171C 178.381,171.708 179.047,172.542 179.5,173.5C 181.353,178.065 180.353,181.898 176.5,185C 160.509,193.327 144.843,202.16 129.5,211.5C 171.5,235.167 213.5,258.833 255.5,282.5C 297.5,258.833 339.5,235.167 381.5,211.5C 339.785,187.643 297.785,164.309 255.5,141.5C 238.043,150.729 220.71,160.229 203.5,170C 199.259,171.188 195.592,170.355 192.5,167.5C 190.848,163.579 191.515,160.079 194.5,157C 212.081,147.293 229.581,137.46 247,127.5C 247.667,94.1667 247.667,60.8333 247,27.5C 239.1,36.0695 230.6,43.9028 221.5,51C 213.298,51.4563 210.131,47.623 212,39.5C 224.167,27.3333 236.333,15.1667 248.5,3C 253.167,1 257.833,1 262.5,3C 274.667,15.1667 286.833,27.3333 299,39.5C 300.869,47.623 297.702,51.4563 289.5,51C 280.4,43.9028 271.9,36.0695 264,27.5C 263.333,60.8333 263.333,94.1667 264,127.5C 306.086,151.127 348.253,174.627 390.5,198C 394.44,199.886 397.94,202.386 401,205.5C 402.648,231.079 402.981,256.746 402,282.5C 400.491,284.919 398.325,285.919 395.5,285.5 Z"/></g>
<g><path style="opacity:1" fill="#c5cfd9" d="M 179.5,173.5 C 183.683,171.243 188.016,169.243 192.5,167.5C 195.592,170.355 199.259,171.188 203.5,170C 220.71,160.229 238.043,150.729 255.5,141.5C 297.785,164.309 339.785,187.643 381.5,211.5C 339.5,235.167 297.5,258.833 255.5,282.5C 213.5,258.833 171.5,235.167 129.5,211.5C 144.843,202.16 160.509,193.327 176.5,185C 180.353,181.898 181.353,178.065 179.5,173.5 Z"/></g>
<g><path style="opacity:1" fill="#e5eaef" d="M 123.5,226.5 C 165.187,249.095 206.687,272.095 248,295.5C 248.667,302.167 248.667,308.833 248,315.5C 202.646,322.353 173.146,347.686 159.5,391.5C 147.586,384.96 135.752,378.293 124,371.5C 123.5,323.168 123.333,274.834 123.5,226.5 Z"/></g>
<g><path style="opacity:0.999" fill="#7f8a94" d="M 395.5,285.5 C 395.5,291.833 395.5,298.167 395.5,304.5C 392.413,305.053 389.913,306.72 388,309.5C 387.667,330.167 387.333,350.833 387,371.5C 375.248,378.293 363.414,384.96 351.5,391.5C 347.881,381.249 343.381,371.249 338,361.5C 320.532,334.506 295.699,319.339 263.5,316C 262.167,309 262.167,302 263.5,295C 304.5,272.167 345.5,249.333 386.5,226.5C 387.333,244.491 387.833,262.491 388,280.5C 389.33,284.007 391.83,285.673 395.5,285.5 Z"/></g>
<g><path style="opacity:1" fill="#fcd84d" d="M 244.5,331.5 C 255.415,330.97 265.415,333.804 274.5,340C 312.442,366.142 325.276,401.642 313,446.5C 306.158,464.167 295.324,478.834 280.5,490.5C 245.077,500.194 215.244,491.194 191,463.5C 168.518,430.893 167.852,397.893 189,364.5C 202.888,345.785 221.388,334.785 244.5,331.5 Z"/></g>
<g><path style="opacity:1" fill="#fbad5b" d="M 244.5,331.5 C 286.695,328.502 316.195,346.502 333,385.5C 343.927,426.393 332.094,458.893 297.5,483C 292.047,486.062 286.38,488.562 280.5,490.5C 295.324,478.834 306.158,464.167 313,446.5C 325.276,401.642 312.442,366.142 274.5,340C 265.415,333.804 255.415,330.97 244.5,331.5 Z"/></g>
<g><path style="opacity:1" fill="#050301" d="M 206.5,405.5 C 215.167,405.5 223.833,405.5 232.5,405.5C 232.815,401.629 232.482,397.962 231.5,394.5C 222.827,394.666 214.16,394.5 205.5,394C 198.848,389.283 198.848,384.617 205.5,380C 215.833,379.333 226.167,379.333 236.5,380C 240.843,381.01 244.01,383.51 246,387.5C 246.667,403.833 246.667,420.167 246,436.5C 244.5,440.667 241.667,443.5 237.5,445C 226.5,445.667 215.5,445.667 204.5,445C 198.912,439.933 199.245,435.267 205.5,431C 214.16,430.5 222.827,430.334 231.5,430.5C 231.5,426.833 231.5,423.167 231.5,419.5C 222.494,419.666 213.494,419.5 204.5,419C 198.838,413.496 199.504,408.996 206.5,405.5 Z"/></g>
<g><path style="opacity:1" fill="#050401" d="M 265.5,379.5 C 299.817,374.651 314.65,389.317 310,423.5C 305.829,440.484 294.996,447.817 277.5,445.5C 273.5,445.333 269.5,445.167 265.5,445C 263.714,444.215 262.214,443.049 261,441.5C 259.372,422.899 259.039,404.232 260,385.5C 261.36,382.977 263.193,380.977 265.5,379.5 Z"/></g>
<g><path style="opacity:1" fill="#fcd84d" d="M 274.5,394.5 C 289.428,391.28 296.428,397.113 295.5,412C 296.886,427.44 289.886,433.606 274.5,430.5C 274.5,418.5 274.5,406.5 274.5,394.5 Z"/></g>
<g><path style="opacity:1" fill="#7c6a26" d="M 231.5,394.5 C 232.482,397.962 232.815,401.629 232.5,405.5C 223.833,405.5 215.167,405.5 206.5,405.5C 214.65,404.507 222.983,404.174 231.5,404.5C 231.5,401.167 231.5,397.833 231.5,394.5 Z"/></g>
</svg>
