<?xml version="1.0" encoding="UTF-8"?>
<!DOCTYPE svg PUBLIC "-//W3C//DTD SVG 1.1//EN" "http://www.w3.org/Graphics/SVG/1.1/DTD/svg11.dtd">
<svg xmlns="http://www.w3.org/2000/svg" version="1.1" width="100px" height="100px" style="shape-rendering:geometricPrecision; text-rendering:geometricPrecision; image-rendering:optimizeQuality; fill-rule:evenodd; clip-rule:evenodd" xmlns:xlink="http://www.w3.org/1999/xlink">
<g><path style="opacity:0.954" fill="#eae9eb" d="M 86.5,16.5 C 92.339,39.4924 86.339,58.9924 68.5,75C 55.3516,86.6048 40.0183,91.6048 22.5,90C 19.6642,89.0789 16.9976,87.9123 14.5,86.5C 8.54038,81.4907 5.54038,74.9907 5.5,67C 8.68138,40.6304 22.348,21.9637 46.5,11C 58.2935,5.71964 69.9602,5.71964 81.5,11C 83.3734,12.7038 85.0401,14.5372 86.5,16.5 Z"/></g>
<g><path style="opacity:1" fill="#4e4070" d="M 57.5,12.5 C 80.2364,10.2827 88.7364,20.2827 83,42.5C 74.3141,68.5118 56.3141,82.8451 29,85.5C 16.8739,84.705 11.0406,78.205 11.5,66C 13.1639,48.6692 20.8306,34.6692 34.5,24C 41.7265,19.0534 49.3931,15.2201 57.5,12.5 Z"/></g>
<g><path style="opacity:1" fill="#da5130" d="M 58.5,16.5 C 76.3937,12.7297 83.727,19.7297 80.5,37.5C 76.4562,27.1243 69.1228,20.1243 58.5,16.5 Z"/></g>
<g><path style="opacity:1" fill="#eededb" d="M 58.5,16.5 C 69.1228,20.1243 76.4562,27.1243 80.5,37.5C 80.7062,40.4951 80.0395,43.1617 78.5,45.5C 76.9898,33.1357 70.3231,24.6357 58.5,20C 56.1873,19.338 53.854,18.838 51.5,18.5C 53.5145,17.0762 55.8478,16.4095 58.5,16.5 Z"/></g>
<g><path style="opacity:1" fill="#db4f2d" d="M 51.5,18.5 C 53.854,18.838 56.1873,19.338 58.5,20C 70.3231,24.6357 76.9898,33.1357 78.5,45.5C 72.7378,62.9291 61.0711,74.2624 43.5,79.5C 30.0779,76.408 21.0779,68.408 16.5,55.5C 22.3598,37.6411 34.0264,25.3077 51.5,18.5 Z"/></g>
<g><path style="opacity:0.275" fill="#080808" d="M 86.5,16.5 C 88.7458,18.6489 90.2458,21.3156 91,24.5C 91.9767,59.6819 75.4767,82.1819 41.5,92C 35.5,92.6667 29.5,92.6667 23.5,92C 19.7996,91.1572 16.7996,89.3239 14.5,86.5C 16.9976,87.9123 19.6642,89.0789 22.5,90C 40.0183,91.6048 55.3516,86.6048 68.5,75C 86.339,58.9924 92.339,39.4924 86.5,16.5 Z"/></g>
<g><path style="opacity:1" fill="#cd7955" d="M 53.5,36.5 C 47.9592,33.8705 47.2926,34.8705 51.5,39.5C 47.5134,39.3482 46.0134,37.3482 47,33.5C 50.8363,30.5072 53.003,31.5072 53.5,36.5 Z"/></g>
<g><path style="opacity:1" fill="#a94741" d="M 58.5,41.5 C 57.1667,40.8333 56.1667,39.8333 55.5,38.5C 58.8701,36.1153 62.2034,33.782 65.5,31.5C 65.6495,32.552 65.4828,33.552 65,34.5C 62.6278,36.7032 60.4611,39.0365 58.5,41.5 Z"/></g>
<g><path style="opacity:1" fill="#453a6c" d="M 53.5,36.5 C 53.8333,37.5 54.5,38.1667 55.5,38.5C 56.1667,39.8333 57.1667,40.8333 58.5,41.5C 58.8333,42.5 59.5,43.1667 60.5,43.5C 63.1295,49.0408 62.1295,49.7074 57.5,45.5C 57.5,44.8333 57.1667,44.5 56.5,44.5C 55.8333,43.1667 54.8333,42.1667 53.5,41.5C 53.1667,40.5 52.5,39.8333 51.5,39.5C 47.2926,34.8705 47.9592,33.8705 53.5,36.5 Z"/></g>
<g><path style="opacity:1" fill="#d47850" d="M 46.5,44.5 C 45.1021,42.8912 43.4354,42.0579 41.5,42C 41.0426,42.414 40.7093,42.914 40.5,43.5C 41.5244,44.8518 42.5244,46.1851 43.5,47.5C 38.3323,46.6615 37.3323,44.1615 40.5,40C 44.3482,39.0134 46.3482,40.5134 46.5,44.5 Z"/></g>
<g><path style="opacity:1" fill="#5b4067" d="M 46.5,44.5 C 46.8333,45.5 47.5,46.1667 48.5,46.5C 48.8333,47.5 49.5,48.1667 50.5,48.5C 51.1667,49.8333 52.1667,50.8333 53.5,51.5C 56.1667,56.1667 55.1667,57.1667 50.5,54.5C 49.8333,53.1667 48.8333,52.1667 47.5,51.5C 47.0679,50.2905 46.4013,49.2905 45.5,48.5C 44.8333,48.1667 44.1667,47.8333 43.5,47.5C 42.5244,46.1851 41.5244,44.8518 40.5,43.5C 40.7093,42.914 41.0426,42.414 41.5,42C 43.4354,42.0579 45.1021,42.8912 46.5,44.5 Z"/></g>
<g><path style="opacity:1" fill="#a84742" d="M 53.5,41.5 C 54.8333,42.1667 55.8333,43.1667 56.5,44.5C 54.2459,45.4151 52.2459,46.7484 50.5,48.5C 49.5,48.1667 48.8333,47.5 48.5,46.5C 50.5,45.1667 52.1667,43.5 53.5,41.5 Z"/></g>
<g><path style="opacity:1" fill="#cc7855" d="M 60.5,43.5 C 64.7069,43.6938 66.0402,45.6938 64.5,49.5C 60.209,51.5146 57.8757,50.1813 57.5,45.5C 62.1295,49.7074 63.1295,49.0408 60.5,43.5 Z"/></g>
<g><path style="opacity:1" fill="#cd7955" d="M 38.5,52.5 C 33.8705,48.2926 32.8705,48.9592 35.5,54.5C 30.5072,54.003 29.5072,51.8363 32.5,48C 36.3482,47.0134 38.3482,48.5134 38.5,52.5 Z"/></g>
<g><path style="opacity:1" fill="#a74742" d="M 45.5,48.5 C 46.4013,49.2905 47.0679,50.2905 47.5,51.5C 45.7484,53.2459 44.4151,55.2459 43.5,57.5C 41.8333,56.5 40.5,55.1667 39.5,53.5C 42.7124,53.2876 44.7124,51.6209 45.5,48.5 Z"/></g>
<g><path style="opacity:1" fill="#463a6c" d="M 38.5,52.5 C 38.5,53.1667 38.8333,53.5 39.5,53.5C 40.5,55.1667 41.8333,56.5 43.5,57.5C 43.5,58.1667 43.8333,58.5 44.5,58.5C 48.7074,63.1295 48.0408,64.1295 42.5,61.5C 42.1667,60.5 41.5,59.8333 40.5,59.5C 39.8333,58.1667 38.8333,57.1667 37.5,56.5C 37.1667,55.5 36.5,54.8333 35.5,54.5C 32.8705,48.9592 33.8705,48.2926 38.5,52.5 Z"/></g>
<g><path style="opacity:1" fill="#d27c54" d="M 53.5,51.5 C 57.919,52.3229 58.5856,54.4895 55.5,58C 52.0743,59.2381 50.4077,58.0714 50.5,54.5C 55.1667,57.1667 56.1667,56.1667 53.5,51.5 Z"/></g>
<g><path style="opacity:1" fill="#efe2df" d="M 16.5,55.5 C 21.0779,68.408 30.0779,76.408 43.5,79.5C 41.7857,80.7384 39.7857,81.405 37.5,81.5C 26.952,77.9538 19.6186,70.9538 15.5,60.5C 15.2155,58.5853 15.5489,56.9187 16.5,55.5 Z"/></g>
<g><path style="opacity:1" fill="#ac4740" d="M 37.5,56.5 C 38.8333,57.1667 39.8333,58.1667 40.5,59.5C 37.7029,61.795 35.0362,64.295 32.5,67C 30.3333,67.5 29.5,66.6667 30,64.5C 32.3333,62.5 34.6667,60.5 37,58.5C 37.4643,57.9056 37.631,57.2389 37.5,56.5 Z"/></g>
<g><path style="opacity:1" fill="#cc7855" d="M 44.5,58.5 C 49.1813,58.8757 50.5146,61.209 48.5,65.5C 44.6938,67.0402 42.6938,65.7069 42.5,61.5C 48.0408,64.1295 48.7074,63.1295 44.5,58.5 Z"/></g>
<g><path style="opacity:1" fill="#da5130" d="M 15.5,60.5 C 19.6186,70.9538 26.952,77.9538 37.5,81.5C 19.5772,85.2408 12.2439,78.2408 15.5,60.5 Z"/></g>
</svg>
