<?xml version="1.0" encoding="UTF-8"?>
<!DOCTYPE svg PUBLIC "-//W3C//DTD SVG 1.1//EN" "http://www.w3.org/Graphics/SVG/1.1/DTD/svg11.dtd">
<svg xmlns="http://www.w3.org/2000/svg" version="1.1" width="128px" height="128px" style="shape-rendering:geometricPrecision; text-rendering:geometricPrecision; image-rendering:optimizeQuality; fill-rule:evenodd; clip-rule:evenodd" xmlns:xlink="http://www.w3.org/1999/xlink">
<g><path style="opacity:0.958" fill="#000200" d="M 46.5,-0.5 C 58.1667,-0.5 69.8333,-0.5 81.5,-0.5C 87.9387,1.64001 93.772,4.97335 99,9.5C 102.926,14.3471 106.093,19.6805 108.5,25.5C 116.55,31.1431 119.384,38.8098 117,48.5C 115.369,52.1212 113.035,55.1212 110,57.5C 109.767,76.8506 109.1,96.1839 108,115.5C 106.895,118.937 104.728,121.437 101.5,123C 80.8424,128.17 72.1758,120.337 75.5,99.5C 72.8333,99.5 70.1667,99.5 67.5,99.5C 67.6662,105.509 67.4995,111.509 67,117.5C 64.9777,122.02 61.811,125.353 57.5,127.5C 51.1667,127.5 44.8333,127.5 38.5,127.5C 34.6133,125.766 32.1133,122.766 31,118.5C 30.5005,112.175 30.3338,105.842 30.5,99.5C 26.1539,99.6657 21.8206,99.499 17.5,99C 14.2716,97.4371 12.1049,94.9371 11,91.5C 9.11207,73.1389 9.4454,54.8055 12,36.5C 13.0021,32.3197 15.5021,29.4864 19.5,28C 23.7533,27.8002 27.92,27.3002 32,26.5C 31.1457,14.1954 35.9791,5.19543 46.5,-0.5 Z"/></g>
<g><path style="opacity:1" fill="#4eeb37" d="M 100.5,60.5 C 99.1773,68.3122 95.8439,75.1455 90.5,81C 89.1667,81.6667 87.8333,82.3333 86.5,83C 77.5,83.6667 68.5,83.6667 59.5,83C 51.2829,75.7304 46.4496,66.5638 45,55.5C 42.8488,41.9217 42.0154,28.2551 42.5,14.5C 43.6141,11.5512 45.6141,9.38454 48.5,8C 58.8333,7.33333 69.1667,7.33333 79.5,8C 87.9551,10.3848 94.2884,15.3848 98.5,23C 86.8333,23.3333 75.1667,23.6667 63.5,24C 60,25.5 57.5,28 56,31.5C 53.3846,42.2017 55.8846,51.3683 63.5,59C 65.5,60 67.5,61 69.5,62C 79.8141,61.5405 90.1475,61.0405 100.5,60.5 Z"/></g>
<g><path style="opacity:1" fill="#14a33f" d="M 42.5,14.5 C 42.0154,28.2551 42.8488,41.9217 45,55.5C 46.4496,66.5638 51.2829,75.7304 59.5,83C 68.5,83.6667 77.5,83.6667 86.5,83C 87.8333,82.3333 89.1667,81.6667 90.5,81C 95.8439,75.1455 99.1773,68.3122 100.5,60.5C 101.657,69.3238 101.824,78.3238 101,87.5C 100.667,95.8333 100.333,104.167 100,112.5C 99.6924,113.308 99.1924,113.975 98.5,114.5C 84.3407,118.671 79.6741,113.671 84.5,99.5C 87.9845,97.4005 88.3178,94.9005 85.5,92C 78.5,91.3333 71.5,91.3333 64.5,92C 62.3333,92.8333 60.8333,94.3333 60,96.5C 59.9221,103.274 59.2554,109.941 58,116.5C 57.0975,117.701 55.9308,118.535 54.5,119C 50.1667,119.667 45.8333,119.667 41.5,119C 40.6667,118.167 39.8333,117.333 39,116.5C 38.3333,91.8333 38.3333,67.1667 39,42.5C 39.1903,32.8927 40.357,23.5593 42.5,14.5 Z"/></g>
<g><path style="opacity:1" fill="#91c5d7" d="M 67.5,31.5 C 78.8382,31.3335 90.1716,31.5001 101.5,32C 107.968,34.1165 110.301,38.2831 108.5,44.5C 98.4909,45.2237 88.4909,45.7237 78.5,46C 71.5778,43.6628 67.9112,38.8294 67.5,31.5 Z"/></g>
<g><path style="opacity:1" fill="#4a646d" d="M 67.5,31.5 C 67.9112,38.8294 71.5778,43.6628 78.5,46C 88.4909,45.7237 98.4909,45.2237 108.5,44.5C 107.857,47.9875 105.857,50.4875 102.5,52C 91.8362,53.1429 81.1695,53.8096 70.5,54C 67.2441,52.413 65.0774,49.913 64,46.5C 63.3333,42.1667 63.3333,37.8333 64,33.5C 64.8159,32.1772 65.9826,31.5106 67.5,31.5 Z"/></g>
<g><path style="opacity:1" fill="#f5fafb" d="M 87.5,33.5 C 92.1785,33.3342 96.8452,33.5008 101.5,34C 104.167,36 104.167,38 101.5,40C 96.8333,40.6667 92.1667,40.6667 87.5,40C 84.9387,37.8441 84.9387,35.6774 87.5,33.5 Z"/></g>
<g><path style="opacity:1" fill="#4eea37" d="M 30.5,47.5 C 27.1667,47.5 23.8333,47.5 20.5,47.5C 20.5,44.8333 20.5,42.1667 20.5,39.5C 20.5106,37.9826 21.1772,36.8159 22.5,36C 25.4816,35.502 28.4816,35.3354 31.5,35.5C 31.8168,39.7016 31.4834,43.7016 30.5,47.5 Z"/></g>
<g><path style="opacity:1" fill="#15a43f" d="M 20.5,39.5 C 20.5,42.1667 20.5,44.8333 20.5,47.5C 23.8333,47.5 27.1667,47.5 30.5,47.5C 30.5,62.1667 30.5,76.8333 30.5,91.5C 27.1501,91.665 23.8168,91.4983 20.5,91C 20,90.5 19.5,90 19,89.5C 18.3333,75.8333 18.3333,62.1667 19,48.5C 19.1805,45.3054 19.6805,42.3054 20.5,39.5 Z"/></g>
</svg>
