<?xml version="1.0" encoding="UTF-8"?>
<!DOCTYPE svg PUBLIC "-//W3C//DTD SVG 1.1//EN" "http://www.w3.org/Graphics/SVG/1.1/DTD/svg11.dtd">
<svg xmlns="http://www.w3.org/2000/svg" version="1.1" width="512px" height="512px" style="shape-rendering:geometricPrecision; text-rendering:geometricPrecision; image-rendering:optimizeQuality; fill-rule:evenodd; clip-rule:evenodd" xmlns:xlink="http://www.w3.org/1999/xlink">
<g><path style="opacity:0.971" fill="#000000" d="M 220.5,-0.5 C 254.167,-0.5 287.833,-0.5 321.5,-0.5C 323.144,0.316435 324.31,1.64977 325,3.5C 325.667,36.8333 325.667,70.1667 325,103.5C 324.167,105.667 322.667,107.167 320.5,108C 287.5,108.667 254.5,108.667 221.5,108C 219.333,107.167 217.833,105.667 217,103.5C 216.333,70.1667 216.333,36.8333 217,3.5C 218.032,1.97331 219.199,0.639972 220.5,-0.5 Z"/></g>
<g><path style="opacity:1" fill="#7d6b35" d="M 232.5,14.5 C 232.5,40.5 232.5,66.5 232.5,92.5C 250.833,92.5 269.167,92.5 287.5,92.5C 294.833,92.5 302.167,92.5 309.5,92.5C 309.5,66.5 309.5,40.5 309.5,14.5C 310.498,40.6614 310.831,66.9947 310.5,93.5C 284.167,93.5 257.833,93.5 231.5,93.5C 231.169,66.9947 231.502,40.6614 232.5,14.5 Z"/></g>
<g><path style="opacity:1" fill="#060502" d="M 287.5,30.5 C 291.745,38.3784 291.412,46.0451 286.5,53.5C 291.412,60.9604 291.746,68.6271 287.5,76.5C 282.067,83.873 274.734,86.7064 265.5,85C 255.229,80.9566 250.729,73.4566 252,62.5C 255.958,57.5639 260.291,57.2305 265,61.5C 265.798,64.5428 266.965,67.3761 268.5,70C 275.5,70.6667 277.167,68 273.5,62C 267.6,61.7341 264.266,58.7341 263.5,53C 263.99,50.4972 265.323,48.4972 267.5,47C 275.454,46.4305 277.12,43.0971 272.5,37C 271.5,36.3333 270.5,36.3333 269.5,37C 267.167,40 264.833,43 262.5,46C 254.385,47.218 250.885,43.718 252,35.5C 257.061,24.5536 265.561,20.387 277.5,23C 281.477,24.803 284.811,27.303 287.5,30.5 Z"/></g>
<g><path style="opacity:1" fill="#fed05a" d="M 287.5,14.5 C 294.833,14.5 302.167,14.5 309.5,14.5C 309.5,40.5 309.5,66.5 309.5,92.5C 302.167,92.5 294.833,92.5 287.5,92.5C 287.5,87.1667 287.5,81.8333 287.5,76.5C 291.746,68.6271 291.412,60.9604 286.5,53.5C 291.412,46.0451 291.745,38.3784 287.5,30.5C 287.5,25.1667 287.5,19.8333 287.5,14.5 Z"/></g>
<g><path style="opacity:1" fill="#fcde75" d="M 232.5,14.5 C 250.833,14.5 269.167,14.5 287.5,14.5C 287.5,19.8333 287.5,25.1667 287.5,30.5C 284.811,27.303 281.477,24.803 277.5,23C 265.561,20.387 257.061,24.5536 252,35.5C 250.885,43.718 254.385,47.218 262.5,46C 264.833,43 267.167,40 269.5,37C 270.5,36.3333 271.5,36.3333 272.5,37C 277.12,43.0971 275.454,46.4305 267.5,47C 265.323,48.4972 263.99,50.4972 263.5,53C 264.266,58.7341 267.6,61.7341 273.5,62C 277.167,68 275.5,70.6667 268.5,70C 266.965,67.3761 265.798,64.5428 265,61.5C 260.291,57.2305 255.958,57.5639 252,62.5C 250.729,73.4566 255.229,80.9566 265.5,85C 274.734,86.7064 282.067,83.873 287.5,76.5C 287.5,81.8333 287.5,87.1667 287.5,92.5C 269.167,92.5 250.833,92.5 232.5,92.5C 232.5,66.5 232.5,40.5 232.5,14.5 Z"/></g>
<g><path style="opacity:0.96" fill="#010101" d="M 300.5,170.5 C 297.406,172.347 294.072,172.847 290.5,172C 282.833,164.333 275.167,156.667 267.5,149C 261.424,144.324 254.757,143.324 247.5,146C 207.861,184.639 168.528,223.639 129.5,263C 121.529,268.058 113.196,268.725 104.5,265C 91.5289,253.03 78.8623,240.696 66.5,228C 55.9078,221.921 47.0745,223.755 40,233.5C 37.8425,239.949 38.1758,246.282 41,252.5C 46.3333,257.833 51.6667,263.167 57,268.5C 59.0349,272.281 58.8683,275.948 56.5,279.5C 53.3582,281.961 50.0248,282.128 46.5,280C 40.3333,273.833 34.1667,267.667 28,261.5C 20.1608,247.404 20.8275,233.737 30,220.5C 42.9374,208.476 57.4374,206.309 73.5,214C 86.4711,225.97 99.1377,238.304 111.5,251C 114.167,251.667 116.833,251.667 119.5,251C 124.5,246 129.5,241 134.5,236C 104.085,233.418 87.4179,216.918 84.5,186.5C 88.4056,152.552 107.406,136.386 141.5,138C 167.619,144.124 181.452,160.624 183,187.5C 200.5,170 218,152.5 235.5,135C 249.391,127.39 263.058,127.723 276.5,136C 284.333,143.833 292.167,151.667 300,159.5C 302.998,163.111 303.165,166.778 300.5,170.5 Z"/></g>
<g><path style="opacity:1" fill="#edebed" d="M 300.5,170.5 C 304.167,174.5 307.833,178.5 311.5,182.5C 309.344,185.768 309.177,189.101 311,192.5C 317.792,198.286 323.459,204.952 328,212.5C 328.938,231.949 320.104,238.782 301.5,233C 291.5,223 281.5,213 271.5,203C 254.03,192.493 240.863,196.326 232,214.5C 230.544,222.045 231.877,229.045 236,235.5C 259.5,259 283,282.5 306.5,306C 327.758,310.099 349.091,313.765 370.5,317C 377.043,317.354 382.209,320.188 386,325.5C 397.747,346.663 409.747,367.663 422,388.5C 428.307,395.602 436.14,398.102 445.5,396C 448.862,395.23 452.029,394.063 455,392.5C 456.627,392.625 458.127,393.125 459.5,394C 464.041,400.245 468.208,406.745 472,413.5C 473.443,418.212 472.277,422.045 468.5,425C 456.329,432.253 443.996,439.253 431.5,446C 423.49,448.665 416.657,446.832 411,440.5C 394.232,410.741 377.066,381.241 359.5,352C 335.337,346.952 311.003,342.786 286.5,339.5C 281.385,338.942 276.718,340.109 272.5,343C 265.667,349.833 258.833,356.667 252,363.5C 250.392,366.382 249.059,369.382 248,372.5C 247.333,381.167 247.333,389.833 248,398.5C 250.333,408.165 256.166,414.665 265.5,418C 288.5,418.333 311.5,418.667 334.5,419C 340.247,421.079 344.414,424.912 347,430.5C 347.667,446.833 347.667,463.167 347,479.5C 346.535,480.931 345.701,482.097 344.5,483C 335.268,484.611 325.935,484.945 316.5,484C 313.121,480.588 311.621,476.422 312,471.5C 309.654,463.279 304.487,457.779 296.5,455C 272.55,453.706 248.55,453.04 224.5,453C 218.912,450.414 215.079,446.247 213,440.5C 212.667,430.833 212.333,421.167 212,411.5C 210.563,408.292 208.063,406.625 204.5,406.5C 204.5,400.833 204.5,395.167 204.5,389.5C 207.958,388.892 210.458,386.892 212,383.5C 212.667,362.833 212.667,342.167 212,321.5C 211.194,318.554 209.861,315.888 208,313.5C 201.167,306.667 194.333,299.833 187.5,293C 173.674,285.132 160.341,285.798 147.5,295C 140.167,302.333 132.833,309.667 125.5,317C 118.806,320.277 112.139,320.277 105.5,317C 96.8333,308.333 88.1667,299.667 79.5,291C 75.356,288.954 71.356,289.12 67.5,291.5C 63.8333,287.5 60.1667,283.5 56.5,279.5C 58.8683,275.948 59.0349,272.281 57,268.5C 51.6667,263.167 46.3333,257.833 41,252.5C 38.1758,246.282 37.8425,239.949 40,233.5C 47.0745,223.755 55.9078,221.921 66.5,228C 78.8623,240.696 91.5289,253.03 104.5,265C 113.196,268.725 121.529,268.058 129.5,263C 168.528,223.639 207.861,184.639 247.5,146C 254.757,143.324 261.424,144.324 267.5,149C 275.167,156.667 282.833,164.333 290.5,172C 294.072,172.847 297.406,172.347 300.5,170.5 Z"/></g>
<g><path style="opacity:1" fill="#eceaec" d="M 124.5,153.5 C 145.95,150.478 160.117,159.145 167,179.5C 168.283,207.103 155.117,220.603 127.5,220C 107.203,213.588 98.3701,199.755 101,178.5C 104.589,166.08 112.423,157.747 124.5,153.5 Z"/></g>
<g><path style="opacity:0.958" fill="#020202" d="M 204.5,406.5 C 208.063,406.625 210.563,408.292 212,411.5C 212.333,421.167 212.667,430.833 213,440.5C 215.079,446.247 218.912,450.414 224.5,453C 248.55,453.04 272.55,453.706 296.5,455C 304.487,457.779 309.654,463.279 312,471.5C 311.621,476.422 313.121,480.588 316.5,484C 325.935,484.945 335.268,484.611 344.5,483C 345.701,482.097 346.535,480.931 347,479.5C 347.667,463.167 347.667,446.833 347,430.5C 344.414,424.912 340.247,421.079 334.5,419C 311.5,418.667 288.5,418.333 265.5,418C 256.166,414.665 250.333,408.165 248,398.5C 247.333,389.833 247.333,381.167 248,372.5C 249.059,369.382 250.392,366.382 252,363.5C 258.833,356.667 265.667,349.833 272.5,343C 276.718,340.109 281.385,338.942 286.5,339.5C 311.003,342.786 335.337,346.952 359.5,352C 377.066,381.241 394.232,410.741 411,440.5C 416.657,446.832 423.49,448.665 431.5,446C 443.996,439.253 456.329,432.253 468.5,425C 472.277,422.045 473.443,418.212 472,413.5C 468.208,406.745 464.041,400.245 459.5,394C 458.127,393.125 456.627,392.625 455,392.5C 452.029,394.063 448.862,395.23 445.5,396C 436.14,398.102 428.307,395.602 422,388.5C 409.747,367.663 397.747,346.663 386,325.5C 382.209,320.188 377.043,317.354 370.5,317C 349.091,313.765 327.758,310.099 306.5,306C 283,282.5 259.5,259 236,235.5C 231.877,229.045 230.544,222.045 232,214.5C 240.863,196.326 254.03,192.493 271.5,203C 281.5,213 291.5,223 301.5,233C 320.104,238.782 328.938,231.949 328,212.5C 323.459,204.952 317.792,198.286 311,192.5C 309.177,189.101 309.344,185.768 311.5,182.5C 315.019,180.035 318.686,179.868 322.5,182C 330.509,188.667 337.009,196.5 342,205.5C 347.742,225.172 341.576,239.672 323.5,249C 310.204,253.207 298.204,250.874 287.5,242C 278.167,232.667 268.833,223.333 259.5,214C 252.609,211.417 248.276,213.75 246.5,221C 247.329,222.816 248.163,224.649 249,226.5C 270.5,248 292,269.5 313.5,291C 335.45,295.214 357.45,299.214 379.5,303C 388.322,305.483 395.155,310.649 400,318.5C 411.454,339.245 423.288,359.745 435.5,380C 436.873,380.875 438.373,381.375 440,381.5C 453.3,374.611 464.966,376.611 475,387.5C 480.114,395.393 484.447,403.726 488,412.5C 489.852,423.285 486.352,431.785 477.5,438C 463.995,445.92 450.328,453.587 436.5,461C 420.152,465.44 406.985,460.94 397,447.5C 381.419,420.003 365.586,392.67 349.5,365.5C 327.62,361.02 305.62,357.52 283.5,355C 276.333,360.833 269.833,367.333 264,374.5C 263.333,382.167 263.333,389.833 264,397.5C 264.785,399.286 265.951,400.786 267.5,402C 291.117,403.293 314.784,403.96 338.5,404C 350.333,407.833 358.167,415.667 362,427.5C 363.595,444.789 363.928,462.122 363,479.5C 361.561,488.941 356.395,495.441 347.5,499C 337.545,500.498 327.545,500.831 317.5,500C 303.418,496.907 296.251,488.073 296,473.5C 294.833,472.333 293.667,471.167 292.5,470C 270.167,469.667 247.833,469.333 225.5,469C 211.482,466.246 202.315,458.08 198,444.5C 197.333,433.167 197.333,421.833 198,410.5C 199.272,407.778 201.439,406.444 204.5,406.5 Z"/></g>
<g><path style="opacity:0.955" fill="#030201" d="M 511.5,188.5 C 511.5,222.5 511.5,256.5 511.5,290.5C 509.887,292.27 507.887,293.436 505.5,294C 472.439,294.979 439.439,294.645 406.5,293C 404.951,291.786 403.785,290.286 403,288.5C 402.333,255.833 402.333,223.167 403,190.5C 404.167,188 406,186.167 408.5,185C 441.167,184.333 473.833,184.333 506.5,185C 508.323,185.997 509.99,187.164 511.5,188.5 Z"/></g>
<g><path style="opacity:1" fill="#fbde75" d="M 474.5,200.5 C 474.5,206.833 474.5,213.167 474.5,219.5C 467.425,207.968 457.758,205.135 445.5,211C 438.274,215.925 436.108,222.425 439,230.5C 445.226,233.89 449.559,232.224 452,225.5C 456.026,221.344 458.86,222.011 460.5,227.5C 460.423,229.299 459.923,230.966 459,232.5C 453.053,241.447 446.72,250.114 440,258.5C 437.633,262.999 438.467,266.832 442.5,270C 452.828,270.5 463.161,270.666 473.5,270.5C 473.5,273.167 473.5,275.833 473.5,278.5C 455.167,278.5 436.833,278.5 418.5,278.5C 418.5,252.5 418.5,226.5 418.5,200.5C 437.167,200.5 455.833,200.5 474.5,200.5 Z"/></g>
<g><path style="opacity:1" fill="#fed05a" d="M 474.5,200.5 C 481.833,200.5 489.167,200.5 496.5,200.5C 496.5,226.5 496.5,252.5 496.5,278.5C 488.833,278.5 481.167,278.5 473.5,278.5C 473.5,275.833 473.5,273.167 473.5,270.5C 477.936,266.878 478.603,262.544 475.5,257.5C 474.536,250.254 474.203,242.92 474.5,235.5C 475.775,230.153 475.775,224.82 474.5,219.5C 474.5,213.167 474.5,206.833 474.5,200.5 Z"/></g>
<g><path style="opacity:1" fill="#040402" d="M 474.5,219.5 C 475.775,224.82 475.775,230.153 474.5,235.5C 470.117,242.409 465.45,249.242 460.5,256C 465.549,256.272 470.549,256.772 475.5,257.5C 478.603,262.544 477.936,266.878 473.5,270.5C 463.161,270.666 452.828,270.5 442.5,270C 438.467,266.832 437.633,262.999 440,258.5C 446.72,250.114 453.053,241.447 459,232.5C 459.923,230.966 460.423,229.299 460.5,227.5C 458.86,222.011 456.026,221.344 452,225.5C 449.559,232.224 445.226,233.89 439,230.5C 436.108,222.425 438.274,215.925 445.5,211C 457.758,205.135 467.425,207.968 474.5,219.5 Z"/></g>
<g><path style="opacity:1" fill="#efd26d" d="M 474.5,235.5 C 474.203,242.92 474.536,250.254 475.5,257.5C 470.549,256.772 465.549,256.272 460.5,256C 465.45,249.242 470.117,242.409 474.5,235.5 Z"/></g>
<g><path style="opacity:0.97" fill="#020202" d="M 204.5,389.5 C 201.805,389.067 199.638,387.734 198,385.5C 197.667,365.833 197.333,346.167 197,326.5C 191.599,319.093 185.433,312.26 178.5,306C 172.682,301.944 166.682,301.611 160.5,305C 151.53,312.969 142.863,321.303 134.5,330C 121.833,337.333 109.167,337.333 96.5,330C 86.6667,320.167 76.8333,310.333 67,300.5C 66.3658,297.445 66.5325,294.445 67.5,291.5C 71.356,289.12 75.356,288.954 79.5,291C 88.1667,299.667 96.8333,308.333 105.5,317C 112.139,320.277 118.806,320.277 125.5,317C 132.833,309.667 140.167,302.333 147.5,295C 160.341,285.798 173.674,285.132 187.5,293C 194.333,299.833 201.167,306.667 208,313.5C 209.861,315.888 211.194,318.554 212,321.5C 212.667,342.167 212.667,362.833 212,383.5C 210.458,386.892 207.958,388.892 204.5,389.5 Z"/></g>
<g><path style="opacity:0.972" fill="#030201" d="M 104.5,511.5 C 70.5,511.5 36.5,511.5 2.5,511.5C 1.83333,510.167 0.833333,509.167 -0.5,508.5C -0.5,474.5 -0.5,440.5 -0.5,406.5C 1.01027,405.164 2.67694,403.997 4.5,403C 37.1667,402.333 69.8333,402.333 102.5,403C 105.333,403.833 107.167,405.667 108,408.5C 108.667,441.167 108.667,473.833 108,506.5C 107.003,508.323 105.836,509.99 104.5,511.5 Z"/></g>
<g><path style="opacity:1" fill="#fee076" d="M 70.5,418.5 C 70.5,444.5 70.5,470.5 70.5,496.5C 51.8333,496.5 33.1667,496.5 14.5,496.5C 14.5,470.5 14.5,444.5 14.5,418.5C 33.1667,418.5 51.8333,418.5 70.5,418.5 Z"/></g>
<g><path style="opacity:1" fill="#fed15a" d="M 70.5,418.5 C 77.8333,418.5 85.1667,418.5 92.5,418.5C 92.5,444.5 92.5,470.5 92.5,496.5C 85.1667,496.5 77.8333,496.5 70.5,496.5C 70.5,470.5 70.5,444.5 70.5,418.5 Z"/></g>
<g><path style="opacity:1" fill="#080703" d="M 51.5,482.5 C 51.5,468.5 51.5,454.5 51.5,440.5C 49.8333,440.5 48.1667,440.5 46.5,440.5C 43.1549,439.652 41.4883,437.485 41.5,434C 41.3006,430.726 42.6339,428.393 45.5,427C 50.8333,426.333 56.1667,426.333 61.5,427C 63.6667,427.833 65.1667,429.333 66,431.5C 66.6667,448.5 66.6667,465.5 66,482.5C 64.1664,487.343 60.6664,489.177 55.5,488C 53.5359,486.549 52.2026,484.716 51.5,482.5 Z"/></g>
<g><path style="opacity:1" fill="#a08c4a" d="M 46.5,440.5 C 48.1667,440.5 49.8333,440.5 51.5,440.5C 51.5,454.5 51.5,468.5 51.5,482.5C 50.5043,469.01 50.171,455.344 50.5,441.5C 48.901,441.768 47.5676,441.434 46.5,440.5 Z"/></g>
</svg>
