<?xml version="1.0" encoding="UTF-8"?>
<!DOCTYPE svg PUBLIC "-//W3C//DTD SVG 1.1//EN" "http://www.w3.org/Graphics/SVG/1.1/DTD/svg11.dtd">
<svg xmlns="http://www.w3.org/2000/svg" version="1.1" width="512px" height="512px" style="shape-rendering:geometricPrecision; text-rendering:geometricPrecision; image-rendering:optimizeQuality; fill-rule:evenodd; clip-rule:evenodd" xmlns:xlink="http://www.w3.org/1999/xlink">
<g><path style="opacity:0.979" fill="#030201" d="M 248.5,-0.5 C 253.167,-0.5 257.833,-0.5 262.5,-0.5C 338.407,47.5446 414.24,95.8779 490,144.5C 494.204,149.979 495.204,155.979 493,162.5C 487.429,171.073 480.262,177.906 471.5,183C 468.24,183.784 465.073,183.617 462,182.5C 462.827,191.053 459.66,197.553 452.5,202C 444.236,203.37 435.903,203.87 427.5,203.5C 428.167,230.677 429.167,257.844 430.5,285C 430.584,288.62 430.084,292.12 429,295.5C 427.736,297.607 425.903,298.607 423.5,298.5C 420.383,298.358 417.883,297.024 416,294.5C 414.112,264.194 412.779,233.86 412,203.5C 406.401,202.175 400.901,202.175 395.5,203.5C 392.613,266.469 390.28,329.469 388.5,392.5C 387.517,396.298 387.183,400.298 387.5,404.5C 398.346,404.828 409.013,404.494 419.5,403.5C 418.311,376.497 417.478,349.497 417,322.5C 418.913,319.72 421.413,318.053 424.5,317.5C 429.83,318.668 432.33,322.002 432,327.5C 433.166,352.825 434,378.158 434.5,403.5C 439.511,403.334 444.511,403.501 449.5,404C 455.667,405.5 459.5,409.333 461,415.5C 461.5,421.825 461.666,428.158 461.5,434.5C 470.441,432.648 477.941,434.981 484,441.5C 485.435,449.389 485.935,457.389 485.5,465.5C 491.762,464.872 497.762,465.705 503.5,468C 505.359,469.558 506.859,471.391 508,473.5C 509.542,482.104 509.876,490.77 509,499.5C 507.845,505.149 504.678,509.149 499.5,511.5C 422.5,511.5 345.5,511.5 268.5,511.5C 266.15,509.787 265.15,507.453 265.5,504.5C 265.544,500.91 267.211,498.41 270.5,497C 344.833,496.5 419.166,496.333 493.5,496.5C 493.5,491.167 493.5,485.833 493.5,480.5C 351.167,480.5 208.833,480.5 66.5,480.5C 50.1667,480.5 33.8333,480.5 17.5,480.5C 17.5,485.833 17.5,491.167 17.5,496.5C 33.8333,496.5 50.1667,496.5 66.5,496.5C 124.501,496.333 182.501,496.5 240.5,497C 243.789,498.41 245.456,500.91 245.5,504.5C 245.85,507.453 244.85,509.787 242.5,511.5C 165.5,511.5 88.5,511.5 11.5,511.5C 6.32183,509.149 3.15516,505.149 2,499.5C 1.12419,490.77 1.45752,482.104 3,473.5C 4.89172,469.942 7.72506,467.442 11.5,466C 16.1548,465.501 20.8215,465.334 25.5,465.5C 25.0648,457.389 25.5648,449.389 27,441.5C 33.0586,434.981 40.5586,432.648 49.5,434.5C 49.3338,428.158 49.5005,421.825 50,415.5C 51.5,409.333 55.3333,405.5 61.5,404C 66.4889,403.501 71.4889,403.334 76.5,403.5C 78.7309,336.83 81.0642,270.163 83.5,203.5C 75.097,203.87 66.7637,203.37 58.5,202C 51.3397,197.553 48.1731,191.053 49,182.5C 43.4396,184.215 38.2729,183.381 33.5,180C 27.5901,174.761 22.4234,168.928 18,162.5C 15.7959,155.979 16.7959,149.979 21,144.5C 96.7602,95.8779 172.593,47.5446 248.5,-0.5 Z M 131.5,203.5 C 148.5,203.5 165.5,203.5 182.5,203.5C 180.02,270.178 177.353,336.845 174.5,403.5C 162.5,403.5 150.5,403.5 138.5,403.5C 136.06,336.837 133.727,270.17 131.5,203.5 Z M 229.5,203.5 C 246.833,203.5 264.167,203.5 281.5,203.5C 278.647,270.155 275.98,336.822 273.5,403.5C 261.5,403.5 249.5,403.5 237.5,403.5C 235.02,336.822 232.353,270.155 229.5,203.5 Z M 328.5,203.5 C 345.5,203.5 362.5,203.5 379.5,203.5C 377.273,270.17 374.94,336.837 372.5,403.5C 360.5,403.5 348.5,403.5 336.5,403.5C 333.647,336.845 330.98,270.178 328.5,203.5 Z"/></g>
<g><path style="opacity:1" fill="#facb83" d="M 278.5,27.5 C 273.5,30.8333 268.5,34.1667 263.5,37.5C 261.084,35.9638 258.417,34.9638 255.5,34.5C 253.701,34.577 252.034,35.077 250.5,36C 183.5,79 116.5,122 49.5,165C 47.3502,166.59 45.0168,167.257 42.5,167C 38.7974,163.633 35.464,159.966 32.5,156C 105.167,109.333 177.833,62.6667 250.5,16C 253.03,14.5783 255.697,14.245 258.5,15C 265.317,18.9954 271.984,23.1621 278.5,27.5 Z"/></g>
<g><path style="opacity:1" fill="#f8e1bb" d="M 278.5,27.5 C 345.308,70.0733 411.975,112.907 478.5,156C 475.536,159.966 472.203,163.633 468.5,167C 465.983,167.257 463.65,166.59 461.5,165C 395.265,122.725 329.265,80.2251 263.5,37.5C 268.5,34.1667 273.5,30.8333 278.5,27.5 Z"/></g>
<g><path style="opacity:1" fill="#fdc064" d="M 274.5,63.5 C 225.193,93.4874 176.526,124.487 128.5,156.5C 115.989,156.829 103.655,156.495 91.5,155.5C 144.975,121.593 198.308,87.4268 251.5,53C 253.365,51.6986 255.365,51.3653 257.5,52C 263.344,55.6963 269.011,59.5297 274.5,63.5 Z"/></g>
<g><path style="opacity:1" fill="#fece85" d="M 274.5,63.5 C 322.974,93.9061 371.308,124.573 419.5,155.5C 322.668,156.499 225.668,156.833 128.5,156.5C 176.526,124.487 225.193,93.4874 274.5,63.5 Z"/></g>
<g><path style="opacity:1" fill="#665234" d="M 91.5,155.5 C 103.655,156.495 115.989,156.829 128.5,156.5C 225.668,156.833 322.668,156.499 419.5,155.5C 420.289,155.783 420.956,156.283 421.5,157C 310.833,157.667 200.167,157.667 89.5,157C 90.0442,156.283 90.7109,155.783 91.5,155.5 Z"/></g>
<g><path style="opacity:1" fill="#ffcf86" d="M 65.5,172.5 C 76.8333,172.5 88.1667,172.5 99.5,172.5C 99.5,177.5 99.5,182.5 99.5,187.5C 88.1667,187.5 76.8333,187.5 65.5,187.5C 65.5,182.5 65.5,177.5 65.5,172.5 Z"/></g>
<g><path style="opacity:1" fill="#f6dfb9" d="M 65.5,172.5 C 191.999,171.5 318.666,171.167 445.5,171.5C 445.5,176.833 445.5,182.167 445.5,187.5C 330.167,187.5 214.833,187.5 99.5,187.5C 99.5,182.5 99.5,177.5 99.5,172.5C 88.1667,172.5 76.8333,172.5 65.5,172.5 Z"/></g>
<g><path style="opacity:1" fill="#f9be63" d="M 99.5,203.5 C 103.5,203.5 107.5,203.5 111.5,203.5C 109.433,270.176 107.1,336.842 104.5,403.5C 100.167,403.5 95.8333,403.5 91.5,403.5C 93.5865,336.653 96.2532,269.986 99.5,203.5 Z"/></g>
<g><path style="opacity:1" fill="#faca82" d="M 99.5,203.5 C 104.64,202.512 109.974,202.179 115.5,202.5C 118.47,265.811 120.803,329.144 122.5,392.5C 122.5,396.167 122.5,399.833 122.5,403.5C 116.5,403.5 110.5,403.5 104.5,403.5C 107.1,336.842 109.433,270.176 111.5,203.5C 107.5,203.5 103.5,203.5 99.5,203.5 Z"/></g>
<g><path style="opacity:1" fill="#fbbf63" d="M 203.5,403.5 C 199.167,403.5 194.833,403.5 190.5,403.5C 192.48,339.153 194.813,274.82 197.5,210.5C 198.468,208.393 198.802,206.059 198.5,203.5C 202.5,203.5 206.5,203.5 210.5,203.5C 208.046,270.163 205.712,336.83 203.5,403.5 Z"/></g>
<g><path style="opacity:1" fill="#f9ca82" d="M 221.5,395.5 C 221.5,398.167 221.5,400.833 221.5,403.5C 215.5,403.5 209.5,403.5 203.5,403.5C 205.712,336.83 208.046,270.163 210.5,203.5C 206.5,203.5 202.5,203.5 198.5,203.5C 198.802,206.059 198.468,208.393 197.5,210.5C 197.5,207.833 197.5,205.167 197.5,202.5C 203.167,202.5 208.833,202.5 214.5,202.5C 217.077,266.825 219.411,331.158 221.5,395.5 Z"/></g>
<g><path style="opacity:1" fill="#fabe63" d="M 301.5,403.5 C 297.5,403.5 293.5,403.5 289.5,403.5C 289.5,399.5 289.5,395.5 289.5,391.5C 291.434,329.817 293.767,268.15 296.5,206.5C 297.404,205.791 297.737,204.791 297.5,203.5C 301.5,203.5 305.5,203.5 309.5,203.5C 306.634,270.156 303.967,336.822 301.5,403.5 Z"/></g>
<g><path style="opacity:1" fill="#f9ca82" d="M 320.5,403.5 C 314.167,403.5 307.833,403.5 301.5,403.5C 303.967,336.822 306.634,270.156 309.5,203.5C 305.5,203.5 301.5,203.5 297.5,203.5C 297.737,204.791 297.404,205.791 296.5,206.5C 296.5,205.167 296.5,203.833 296.5,202.5C 302.167,202.5 307.833,202.5 313.5,202.5C 316.073,269.491 318.406,336.491 320.5,403.5 Z"/></g>
<g><path style="opacity:1" fill="#fabe63" d="M 395.5,203.5 C 399.5,203.5 403.5,203.5 407.5,203.5C 404.962,270.159 402.628,336.826 400.5,403.5C 396.5,403.5 392.5,403.5 388.5,403.5C 388.5,399.833 388.5,396.167 388.5,392.5C 390.28,329.469 392.613,266.469 395.5,203.5 Z"/></g>
<g><path style="opacity:0.997" fill="#facb82" d="M 395.5,203.5 C 400.901,202.175 406.401,202.175 412,203.5C 412.779,233.86 414.112,264.194 416,294.5C 417.883,297.024 420.383,298.358 423.5,298.5C 424.32,304.797 424.653,311.131 424.5,317.5C 421.413,318.053 418.913,319.72 417,322.5C 417.478,349.497 418.311,376.497 419.5,403.5C 413.167,403.5 406.833,403.5 400.5,403.5C 402.628,336.826 404.962,270.159 407.5,203.5C 403.5,203.5 399.5,203.5 395.5,203.5 Z"/></g>
<g><path style="opacity:1" fill="#997a4c" d="M 122.5,392.5 C 123.483,396.298 123.817,400.298 123.5,404.5C 112.654,404.828 101.987,404.494 91.5,403.5C 95.8333,403.5 100.167,403.5 104.5,403.5C 110.5,403.5 116.5,403.5 122.5,403.5C 122.5,399.833 122.5,396.167 122.5,392.5 Z"/></g>
<g><path style="opacity:1" fill="#907246" d="M 221.5,395.5 C 222.477,398.287 222.81,401.287 222.5,404.5C 211.654,404.828 200.987,404.494 190.5,403.5C 194.833,403.5 199.167,403.5 203.5,403.5C 209.5,403.5 215.5,403.5 221.5,403.5C 221.5,400.833 221.5,398.167 221.5,395.5 Z"/></g>
<g><path style="opacity:1" fill="#8f7145" d="M 289.5,391.5 C 289.5,395.5 289.5,399.5 289.5,403.5C 293.5,403.5 297.5,403.5 301.5,403.5C 307.833,403.5 314.167,403.5 320.5,403.5C 310.013,404.494 299.346,404.828 288.5,404.5C 288.182,399.968 288.515,395.634 289.5,391.5 Z"/></g>
<g><path style="opacity:1" fill="#997949" d="M 388.5,392.5 C 388.5,396.167 388.5,399.833 388.5,403.5C 392.5,403.5 396.5,403.5 400.5,403.5C 406.833,403.5 413.167,403.5 419.5,403.5C 409.013,404.494 398.346,404.828 387.5,404.5C 387.183,400.298 387.517,396.298 388.5,392.5 Z"/></g>
<g><path style="opacity:1" fill="#ffb541" d="M 114.5,419.5 C 114.5,424.5 114.5,429.5 114.5,434.5C 98.1667,434.5 81.8333,434.5 65.5,434.5C 65.5,429.5 65.5,424.5 65.5,419.5C 81.8333,419.5 98.1667,419.5 114.5,419.5 Z"/></g>
<g><path style="opacity:1" fill="#fec264" d="M 114.5,419.5 C 224.833,419.5 335.167,419.5 445.5,419.5C 445.5,424.5 445.5,429.5 445.5,434.5C 335.167,434.5 224.833,434.5 114.5,434.5C 114.5,429.5 114.5,424.5 114.5,419.5 Z"/></g>
<g><path style="opacity:1" fill="#fec165" d="M 40.5,450.5 C 56.8333,450.5 73.1667,450.5 89.5,450.5C 89.5,455.5 89.5,460.5 89.5,465.5C 73.1667,465.5 56.8333,465.5 40.5,465.5C 40.5,460.5 40.5,455.5 40.5,450.5 Z"/></g>
<g><path style="opacity:1" fill="#f8c982" d="M 40.5,450.5 C 183.666,449.5 326.999,449.167 470.5,449.5C 470.5,454.833 470.5,460.167 470.5,465.5C 343.5,465.5 216.5,465.5 89.5,465.5C 89.5,460.5 89.5,455.5 89.5,450.5C 73.1667,450.5 56.8333,450.5 40.5,450.5 Z"/></g>
<g><path style="opacity:1" fill="#fbcc84" d="M 66.5,480.5 C 66.5,485.833 66.5,491.167 66.5,496.5C 50.1667,496.5 33.8333,496.5 17.5,496.5C 17.5,491.167 17.5,485.833 17.5,480.5C 33.8333,480.5 50.1667,480.5 66.5,480.5 Z"/></g>
<g><path style="opacity:0.998" fill="#f9e3bc" d="M 66.5,480.5 C 208.833,480.5 351.167,480.5 493.5,480.5C 493.5,485.833 493.5,491.167 493.5,496.5C 419.166,496.333 344.833,496.5 270.5,497C 267.211,498.41 265.544,500.91 265.5,504.5C 258.833,504.5 252.167,504.5 245.5,504.5C 245.456,500.91 243.789,498.41 240.5,497C 182.501,496.5 124.501,496.333 66.5,496.5C 66.5,491.167 66.5,485.833 66.5,480.5 Z"/></g>
</svg>
