<?xml version="1.0" encoding="UTF-8"?>
<svg version="1.1" xmlns="http://www.w3.org/2000/svg" width="100" height="100">
<path d="M0 0 C1.65 0.99 3.3 1.98 5 3 C5.33 2.01 5.66 1.02 6 0 C9 1 9 1 11 3 C11.66 2.01 12.32 1.02 13 0 C13.61875 0.33 14.2375 0.66 14.875 1 C16.91018344 2.14193235 16.91018344 2.14193235 19 2 C19.33 1.34 19.66 0.68 20 0 C20.99 0 21.98 0 23 0 C23.66 0.99 24.32 1.98 25 3 C26.32 2.34 27.64 1.68 29 1 C29.495 2.485 29.495 2.485 30 4 C30.99 3.34 31.98 2.68 33 2 C33.99 2 34.98 2 36 2 C36.66 3.32 37.32 4.64 38 6 C38.66 5.34 39.32 4.68 40 4 C42 4.375 42 4.375 44 5 C44.66 5 45.32 5 46 5 C46.99 5 47.98 5 49 5 C49.66 6.32 50.32 7.64 51 9 C52.65 8.67 54.3 8.34 56 8 C54.31767926 16.79012585 52.28219041 25.4859918 50.2109375 34.19140625 C48.6978191 40.6489065 47.4211872 47.0822123 46.4296875 53.64111328 C46 56 46 56 45 58 C45.804375 58.20625 46.60875 58.4125 47.4375 58.625 C50 60 50 60 51.125 62.75 C51 66 51 66 48.4375 68.5625 C46.89648525 69.98533554 46.89648525 69.98533554 46 72 C46.27551063 75.44818769 46.93692763 78.62271583 47.77734375 81.9765625 C48 85 48 85 46.32421875 87.2890625 C39.99883043 91.94539877 32.67215149 92.72012974 25 92 C24.01 91.67 23.02 91.34 22 91 C21.95875 90.236875 21.9175 89.47375 21.875 88.6875 C21.2381557 85.68365462 21.2381557 85.68365462 18 84.375 C16.515 83.694375 16.515 83.694375 15 83 C14.67 82.01 14.34 81.02 14 80 C13.13117187 80.03480469 12.26234375 80.06960937 11.3671875 80.10546875 C-0.52714169 80.38486574 -0.52714169 80.38486574 -5 77 C-7.75198721 73.24230317 -6.94940529 69.31723053 -6.5 64.9375 C-5.74855943 59.2025385 -5.74855943 59.2025385 -8 54 C-9.0164693 47.5447599 -7.56945321 40.94038723 -5 35 C-4.01 34.505 -4.01 34.505 -3 34 C-2.98018066 33.21874756 -2.96036133 32.43749512 -2.93994141 31.63256836 C-2.84424528 28.06722682 -2.73474661 24.50243558 -2.625 20.9375 C-2.57859375 19.09381836 -2.57859375 19.09381836 -2.53125 17.21289062 C-2.33533859 11.15596296 -2.08876869 5.71439565 0 0 Z " fill="#F8BB0F" transform="translate(27,5)"/>
<path d="M0 0 C1.65 0.99 3.3 1.98 5 3 C5.33 2.01 5.66 1.02 6 0 C9 1 9 1 11 3 C11.66 2.01 12.32 1.02 13 0 C13.61875 0.33 14.2375 0.66 14.875 1 C16.91018344 2.14193235 16.91018344 2.14193235 19 2 C19.33 1.34 19.66 0.68 20 0 C20.99 0 21.98 0 23 0 C23.66 0.99 24.32 1.98 25 3 C26.32 2.34 27.64 1.68 29 1 C29.495 2.485 29.495 2.485 30 4 C30.99 3.34 31.98 2.68 33 2 C33.99 2 34.98 2 36 2 C36.66 3.32 37.32 4.64 38 6 C38.66 5.34 39.32 4.68 40 4 C42 4.375 42 4.375 44 5 C44.66 5 45.32 5 46 5 C46.99 5 47.98 5 49 5 C49.66 6.32 50.32 7.64 51 9 C52.65 8.67 54.3 8.34 56 8 C54.31767926 16.79012585 52.28219041 25.4859918 50.2109375 34.19140625 C48.6978191 40.6489065 47.4211872 47.0822123 46.4296875 53.64111328 C46 56 46 56 45 58 C45.804375 58.20625 46.60875 58.4125 47.4375 58.625 C50 60 50 60 51.125 62.75 C51 66 51 66 48.4375 68.5625 C46.89648525 69.98533554 46.89648525 69.98533554 46 72 C46.27551063 75.44818769 46.93692763 78.62271583 47.77734375 81.9765625 C48 85 48 85 46.32421875 87.2890625 C39.99883043 91.94539877 32.67215149 92.72012974 25 92 C24.01 91.67 23.02 91.34 22 91 C21.95875 90.236875 21.9175 89.47375 21.875 88.6875 C21.2381557 85.68365462 21.2381557 85.68365462 18 84.375 C16.515 83.694375 16.515 83.694375 15 83 C14.67 82.01 14.34 81.02 14 80 C13.13117187 80.03480469 12.26234375 80.06960937 11.3671875 80.10546875 C-0.52714169 80.38486574 -0.52714169 80.38486574 -5 77 C-7.75198721 73.24230317 -6.94940529 69.31723053 -6.5 64.9375 C-5.74855943 59.2025385 -5.74855943 59.2025385 -8 54 C-9.0164693 47.5447599 -7.56945321 40.94038723 -5 35 C-4.01 34.505 -4.01 34.505 -3 34 C-2.98018066 33.21874756 -2.96036133 32.43749512 -2.93994141 31.63256836 C-2.84424528 28.06722682 -2.73474661 24.50243558 -2.625 20.9375 C-2.57859375 19.09381836 -2.57859375 19.09381836 -2.53125 17.21289062 C-2.33533859 11.15596296 -2.08876869 5.71439565 0 0 Z M13 4 C11.36323743 5.9600281 11.36323743 5.9600281 10 8 C9.34 7.01 8.68 6.02 8 5 C7.34 5 6.68 5 6 5 C6 6.32 6 7.64 6 9 C4.35 7.68 2.7 6.36 1 5 C0.23223525 9.0752634 -0.11902034 12.91005447 -0.09765625 17.0546875 C-0.09443359 18.16328125 -0.09121094 19.271875 -0.08789062 20.4140625 C-0.07951172 21.55617188 -0.07113281 22.69828125 -0.0625 23.875 C-0.05798828 25.0403125 -0.05347656 26.205625 -0.04882812 27.40625 C-0.03708781 30.27088645 -0.0206657 33.13541633 0 36 C-1.485 36.495 -1.485 36.495 -3 37 C-2.67 37.99 -2.34 38.98 -2 40 C-1.01 39.505 -1.01 39.505 0 39 C4.12169212 38.68294676 6.44657233 38.70114906 10.125 40.6875 C11.07375 41.120625 12.0225 41.55375 13 42 C15.50240018 40.69882448 15.50240018 40.69882448 18 39 C22.3558698 38.44561657 24.43700886 38.69194825 28.3125 40.8125 C30.99992673 42.99994036 32.79199441 44.55746769 33.30078125 48.0859375 C33.32520124 52.85597478 33.22328994 56.20112257 30 60 C25.8125583 62.51246502 21.77408959 62.86878309 17 62 C15.60349577 60.7304507 14.20785165 59.45724953 12.8828125 58.11328125 C8.60381165 55.58316664 2.80104112 56.67945571 -2 57 C-2.6814823 58.89179203 -2.6814823 58.89179203 -3 61 C-0.3144406 63.6855594 2.37621328 64.06049974 6 65 C5.36191406 64.98839844 4.72382813 64.97679687 4.06640625 64.96484375 C3.24011719 64.95582031 2.41382813 64.94679687 1.5625 64.9375 C0.73878906 64.92589844 -0.08492187 64.91429687 -0.93359375 64.90234375 C-2.99163938 64.76732652 -2.99163938 64.76732652 -4 66 C-4.62496542 71.10546258 -4.62496542 71.10546258 -2.80615234 75.6027832 C-0.373067 77.4849875 1.1711212 77.37304895 4.2265625 77.36328125 C5.25910156 77.36263672 6.29164062 77.36199219 7.35546875 77.36132812 C8.97388672 77.3371582 8.97388672 77.3371582 10.625 77.3125 C11.68074219 77.31572266 12.73648438 77.31894531 13.82421875 77.32226562 C20.18218931 77.27893373 25.85052675 76.61794317 32 75 C32.99 76.485 32.99 76.485 34 78 C33.47921875 77.81566406 32.9584375 77.63132812 32.421875 77.44140625 C29.17748514 76.85009003 26.49308719 77.38617518 23.25 77.9375 C22.07953125 78.13214844 20.9090625 78.32679687 19.703125 78.52734375 C18.81109375 78.68332031 17.9190625 78.83929688 17 79 C17.33 79.99 17.66 80.98 18 82 C19.65 82.33 21.3 82.66 23 83 C23.66 84.98 24.32 86.96 25 89 C32.59570439 89.58179863 38.14115041 88.26889853 45 85 C44.48994715 78.9599005 43.74900144 73.49800288 41 68 C41.598125 68.226875 42.19625 68.45375 42.8125 68.6875 C45.03905974 69.24450104 45.03905974 69.24450104 46.8125 67.875 C48.28399746 65.98646792 48.28399746 65.98646792 47.6875 63.3125 C47.460625 62.549375 47.23375 61.78625 47 61 C44.03 60.505 44.03 60.505 41 60 C41.66 59.67 42.32 59.34 43 59 C43.52038411 56.77133908 43.52038411 56.77133908 43.8125 53.9375 C45.16914982 44.14791488 47.34474275 34.52816147 49.3984375 24.86572266 C50.29735893 20.58344191 51.15314104 16.29284161 52 12 C50.02 12.99 50.02 12.99 48 14 C47.505 11.525 47.505 11.525 47 9 C45.68 9.33 44.36 9.66 43 10 C42.505 9.01 42.505 9.01 42 8 C41.34 8 40.68 8 40 8 C39.67 8.66 39.34 9.32 39 10 C38.34 10 37.68 10 37 10 C36.34 8.68 35.68 7.36 35 6 C34.34 6 33.68 6 33 6 C32.67 6.66 32.34 7.32 32 8 C30 8 30 8 28.375 6.5 C27.694375 5.7575 27.694375 5.7575 27 5 C26.01 5.99 25.02 6.98 24 8 C23.34 7.01 22.68 6.02 22 5 C21.01 5.33 20.02 5.66 19 6 C19 6.66 19 7.32 19 8 C18.38125 7.34 17.7625 6.68 17.125 6 C15.24362573 3.7715451 15.24362573 3.7715451 13 4 Z " fill="#0F0D06" transform="translate(27,5)"/>
<path d="M0 0 C1.65 0.99 3.3 1.98 5 3 C5.33 2.01 5.66 1.02 6 0 C9 1 9 1 11 3 C11.66 2.01 12.32 1.02 13 0 C13.61875 0.33 14.2375 0.66 14.875 1 C16.91018344 2.14193235 16.91018344 2.14193235 19 2 C19.33 1.34 19.66 0.68 20 0 C20.99 0 21.98 0 23 0 C23.66 0.99 24.32 1.98 25 3 C26.32 2.34 27.64 1.68 29 1 C29.495 2.485 29.495 2.485 30 4 C30.99 3.34 31.98 2.68 33 2 C33.99 2 34.98 2 36 2 C36.66 3.32 37.32 4.64 38 6 C38.66 5.34 39.32 4.68 40 4 C42 4.375 42 4.375 44 5 C44.66 5 45.32 5 46 5 C46.99 5 47.98 5 49 5 C49.66 6.32 50.32 7.64 51 9 C52.65 8.67 54.3 8.34 56 8 C54.31767926 16.79012585 52.28219041 25.4859918 50.2109375 34.19140625 C48.6978191 40.6489065 47.4211872 47.0822123 46.4296875 53.64111328 C46 56 46 56 45 58 C45.804375 58.20625 46.60875 58.4125 47.4375 58.625 C50 60 50 60 51.125 62.75 C51 66 51 66 48.4375 68.5625 C46.89648525 69.98533554 46.89648525 69.98533554 46 72 C46.27551063 75.44818769 46.93692763 78.62271583 47.77734375 81.9765625 C48 85 48 85 46.32421875 87.2890625 C39.99883043 91.94539877 32.67215149 92.72012974 25 92 C23.515 91.505 23.515 91.505 22 91 C21.95875 90.236875 21.9175 89.47375 21.875 88.6875 C21.2381557 85.68365462 21.2381557 85.68365462 18 84.375 C16.515 83.694375 16.515 83.694375 15 83 C14.67 82.01 14.34 81.02 14 80 C11.69 80 9.38 80 7 80 C7 79.67 7 79.34 7 79 C5.35 78.67 3.7 78.34 2 78 C2 77.67 2 77.34 2 77 C2.88353149 76.970271 2.88353149 76.970271 3.78491211 76.93994141 C6.50282351 76.84356723 9.22008103 76.73435288 11.9375 76.625 C12.86369141 76.5940625 13.78988281 76.563125 14.74414062 76.53125 C20.72821322 76.27928905 26.19061735 75.46575193 32 74 C32.66 75.32 33.32 76.64 34 78 C25.585 78.495 25.585 78.495 17 79 C17.89335797 81.35785318 17.89335797 81.35785318 21.0625 82.125 C22.031875 82.41375 23.00125 82.7025 24 83 C24.33 84.65 24.66 86.3 25 88 C32.2484945 88.41640288 38.16914355 87.44166784 45 85 C44.52294177 82.72872279 44.04328294 80.45799168 43.5625 78.1875 C43.29566406 76.92292969 43.02882812 75.65835938 42.75390625 74.35546875 C42.06572114 71.02954587 42.06572114 71.02954587 41 68 C42.98 68 44.96 68 47 68 C47 66.02 47 64.04 47 62 C44.69 61.67 42.38 61.34 40 61 C40.495 60.01 40.495 60.01 41 59 C41.66 59 42.32 59 43 59 C42.94070312 57.80375 42.88140625 56.6075 42.8203125 55.375 C42.8229099 48.73604666 44.41038693 42.44429749 45.875 36 C46.14441406 34.78054687 46.41382813 33.56109375 46.69140625 32.3046875 C47.45227584 28.86778388 48.22481655 25.43369851 49 22 C49.39925555 20.20851545 49.79781881 18.41687629 50.1953125 16.625 C50.46085937 15.42875 50.72640625 14.2325 51 13 C50.01 13.33 49.02 13.66 48 14 C47.34 12.68 46.68 11.36 46 10 C44.68 10 43.36 10 42 10 C42 9.34 42 8.68 42 8 C41.34 8 40.68 8 40 8 C39.67 8.99 39.34 9.98 39 11 C38.01 10.67 37.02 10.34 36 10 C35.3125 7.9375 35.3125 7.9375 35 6 C34.34 6 33.68 6 33 6 C32.67 6.99 32.34 7.98 32 9 C29 8 29 8 27 6 C25.68 6.99 24.36 7.98 23 9 C22.67 7.68 22.34 6.36 22 5 C21.01 5.99 20.02 6.98 19 8 C17.68 7.34 16.36 6.68 15 6 C15 5.34 15 4.68 15 4 C14.34 4 13.68 4 13 4 C12.34 5.65 11.68 7.3 11 9 C9.35 7.68 7.7 6.36 6 5 C6 6.32 6 7.64 6 9 C5.01 8.67 4.02 8.34 3 8 C2.67 7.34 2.34 6.68 2 6 C1.16897 9.68196566 0.81892266 13.18715455 0.68359375 16.95703125 C0.64169922 18.06884766 0.59980469 19.18066406 0.55664062 20.32617188 C0.51732422 21.47666016 0.47800781 22.62714844 0.4375 23.8125 C0.39431641 24.98232422 0.35113281 26.15214844 0.30664062 27.35742188 C0.20081721 30.23817031 0.09873175 33.11900123 0 36 C-1.65 36.66 -3.3 37.32 -5 38 C-5 37.01 -5 36.02 -5 35 C-4.01 34.505 -4.01 34.505 -3 34 C-2.98018066 33.21874756 -2.96036133 32.43749512 -2.93994141 31.63256836 C-2.84424528 28.06722682 -2.73474661 24.50243558 -2.625 20.9375 C-2.5940625 19.70837891 -2.563125 18.47925781 -2.53125 17.21289062 C-2.33533859 11.15596296 -2.08876869 5.71439565 0 0 Z " fill="#070601" transform="translate(27,5)"/>
<path d="M0 0 C2.91900256 2.00681426 4.65880061 3.37602216 5.40625 6.93359375 C5.60747018 11.36882187 4.88646228 14.49501008 2 18 C-1.42919572 20.57189679 -4.83939486 20.502142 -9 20 C-11.97239241 18.21523759 -14.42604027 16.14791945 -16 13 C-16.38482057 8.92090194 -16.44121857 6.70910127 -14.25 3.1875 C-9.7737364 -1.16442295 -6.09059215 -1.83320793 0 0 Z " fill="#CBD9D9" transform="translate(54,46)"/>
<path d="M0 0 C0.33 0 0.66 0 1 0 C-0.61702128 19.23404255 -0.61702128 19.23404255 -3 24 C-1.7934375 24.309375 -1.7934375 24.309375 -0.5625 24.625 C2 26 2 26 3.125 28.75 C3 32 3 32 0.4375 34.5625 C-1.10351475 35.98533554 -1.10351475 35.98533554 -2 38 C-1.72448937 41.44818769 -1.06307237 44.62271583 -0.22265625 47.9765625 C0 51 0 51 -1.67578125 53.2890625 C-8.00116957 57.94539877 -15.32784851 58.72012974 -23 58 C-24.485 57.505 -24.485 57.505 -26 57 C-26.04125 56.236875 -26.0825 55.47375 -26.125 54.6875 C-26.7618443 51.68365462 -26.7618443 51.68365462 -30 50.375 C-30.99 49.92125 -31.98 49.4675 -33 49 C-33.495 47.515 -33.495 47.515 -34 46 C-36.31 46 -38.62 46 -41 46 C-41 45.67 -41 45.34 -41 45 C-42.65 44.67 -44.3 44.34 -46 44 C-46 43.67 -46 43.34 -46 43 C-45.11646851 42.970271 -45.11646851 42.970271 -44.21508789 42.93994141 C-41.49717649 42.84356723 -38.77991897 42.73435288 -36.0625 42.625 C-35.13630859 42.5940625 -34.21011719 42.563125 -33.25585938 42.53125 C-27.27178678 42.27928905 -21.80938265 41.46575193 -16 40 C-15.34 41.32 -14.68 42.64 -14 44 C-22.415 44.495 -22.415 44.495 -31 45 C-30.10664203 47.35785318 -30.10664203 47.35785318 -26.9375 48.125 C-25.968125 48.41375 -24.99875 48.7025 -24 49 C-23.67 50.65 -23.34 52.3 -23 54 C-15.7515055 54.41640288 -9.83085645 53.44166784 -3 51 C-3.47705823 48.72872279 -3.95671706 46.45799168 -4.4375 44.1875 C-4.70433594 42.92292969 -4.97117188 41.65835938 -5.24609375 40.35546875 C-5.93427886 37.02954587 -5.93427886 37.02954587 -7 34 C-5.02 34 -3.04 34 -1 34 C-1 32.02 -1 30.04 -1 28 C-3.31 27.67 -5.62 27.34 -8 27 C-7.67 26.34 -7.34 25.68 -7 25 C-6.34 25 -5.68 25 -5 25 C-5.061875 23.80375 -5.12375 22.6075 -5.1875 21.375 C-5.1980057 14.78792324 -3.82698536 8.31064208 -2 2 C-1.34 1.34 -0.68 0.68 0 0 Z " fill="#0E0B01" transform="translate(75,39)"/>
<path d="M0 0 C1.20849609 0.10248047 1.20849609 0.10248047 2.44140625 0.20703125 C3.64603516 0.29017578 3.64603516 0.29017578 4.875 0.375 C7.00390625 1.01953125 7.00390625 1.01953125 8.2890625 3.0703125 C8.52496094 3.71355469 8.76085937 4.35679688 9.00390625 5.01953125 C8.67390625 5.34953125 8.34390625 5.67953125 8.00390625 6.01953125 C7.7719776 7.53422573 7.59175387 9.05707687 7.44140625 10.58203125 C7.35761719 11.40832031 7.27382813 12.23460937 7.1875 13.0859375 C7.12691406 13.72402344 7.06632812 14.36210938 7.00390625 15.01953125 C4.87952286 15.10031766 2.75427395 15.15862266 0.62890625 15.20703125 C-1.14613281 15.25923828 -1.14613281 15.25923828 -2.95703125 15.3125 C-4.46136719 15.16748047 -4.46136719 15.16748047 -5.99609375 15.01953125 C-8.34159049 11.50128614 -8.57600778 10.16177431 -7.99609375 6.01953125 C-5.55859375 3.20703125 -5.55859375 3.20703125 -2.99609375 1.01953125 C-1.99609375 0.01953125 -1.99609375 0.01953125 0 0 Z " fill="#C3D1D1" transform="translate(28.99609375,44.98046875)"/>
<path d="M0 0 C3.78171013 2.03630545 7.09528802 4.08475871 9 8 C9.73940087 12.77415625 9.45664981 16.10300929 7.25 20.4375 C4.5769931 23.48175786 2.71276859 24.85821452 -1.359375 25.1953125 C-2.54273438 25.16050781 -2.54273438 25.16050781 -3.75 25.125 C-4.54921875 25.10695313 -5.3484375 25.08890625 -6.171875 25.0703125 C-6.77515625 25.04710938 -7.3784375 25.02390625 -8 25 C-8 24.34 -8 23.68 -8 23 C-7.31292969 22.89042969 -6.62585937 22.78085938 -5.91796875 22.66796875 C-5.01691406 22.50941406 -4.11585937 22.35085937 -3.1875 22.1875 C-2.29417969 22.03667969 -1.40085937 21.88585937 -0.48046875 21.73046875 C2.21982025 20.93526553 3.26480552 20.17309845 5 18 C6.60396458 14.79207083 6.47551957 11.48025195 6 8 C4.36280652 5.3395606 3.12520896 4.36629143 0.1640625 3.40234375 C-3.65218121 2.64933014 -5.71299655 2.88307267 -9.375 4.375 C-12.54898714 7.54898714 -12.98128396 9.73291069 -13.578125 14.07421875 C-13.71734375 14.70972656 -13.8565625 15.34523438 -14 16 C-14.66 16.33 -15.32 16.66 -16 17 C-16 12.66666667 -16 8.33333333 -16 4 C-16.99 3.34 -17.98 2.68 -19 2 C-16.33333333 2 -13.66666667 2 -11 2 C-10.13375 1.505 -10.13375 1.505 -9.25 1 C-5.97353764 -0.4562055 -3.55223845 -0.36747294 0 0 Z " fill="#241D0A" transform="translate(52,43)"/>
<path d="M0 0 C0.33 0 0.66 0 1 0 C1.01417969 0.61488281 1.02835938 1.22976562 1.04296875 1.86328125 C1.22218825 7.00926556 1.22218825 7.00926556 4.125 11 C7.41729561 12.1451463 10.53573471 12.66036615 14 13 C12 15 12 15 9.9765625 15.08203125 C6.59928825 14.69493503 3.64160542 14.2726823 0.5 12.9375 C-1.78362954 9.98781184 -2.22346207 6.69457287 -2 3 C-1.34 2.01 -0.68 1.02 0 0 Z " fill="#050401" transform="translate(22,70)"/>
<path d="M0 0 C0.515625 0.37125 1.03125 0.7425 1.5625 1.125 C1.5625 1.785 1.5625 2.445 1.5625 3.125 C-9.24904832 4.1479267 -19.62297252 3.98539692 -30.4375 3.125 C-30.4375 2.795 -30.4375 2.465 -30.4375 2.125 C-29.83800537 2.10518066 -29.23851074 2.08536133 -28.62084961 2.06494141 C-25.87183529 1.96894997 -23.12350507 1.85957495 -20.375 1.75 C-19.43205078 1.7190625 -18.48910156 1.688125 -17.51757812 1.65625 C-13.32368893 1.48089575 -9.43262848 1.2740956 -5.40625 0.03125 C-2.4375 -0.875 -2.4375 -0.875 0 0 Z " fill="#382A04" transform="translate(59.4375,79.875)"/>
<path d="M0 0 C2.31 0 4.62 0 7 0 C7.6875 2.3125 7.6875 2.3125 8 5 C6.5625 6.8125 6.5625 6.8125 5 8 C3.68 7.34 2.36 6.68 1 6 C1.33 4.35 1.66 2.7 2 1 C1.34 0.67 0.68 0.34 0 0 Z " fill="#BA8C0B" transform="translate(67,66)"/>
<path d="M0 0 C0.99 0.33 1.98 0.66 3 1 C-0.93785773 7.46933769 -0.93785773 7.46933769 -5 9 C-7.359375 9.1953125 -7.359375 9.1953125 -9.75 9.125 C-10.54921875 9.10695313 -11.3484375 9.08890625 -12.171875 9.0703125 C-12.77515625 9.04710938 -13.3784375 9.02390625 -14 9 C-14 8.34 -14 7.68 -14 7 C-12.96939453 6.83564453 -12.96939453 6.83564453 -11.91796875 6.66796875 C-11.01691406 6.50941406 -10.11585937 6.35085937 -9.1875 6.1875 C-7.84751953 5.96126953 -7.84751953 5.96126953 -6.48046875 5.73046875 C-3.78017975 4.93526553 -2.73519448 4.17309845 -1 2 C-0.67 1.34 -0.34 0.68 0 0 Z " fill="#2E2304" transform="translate(58,59)"/>
<path d="M0 0 C2.1875 -0.375 2.1875 -0.375 5 0 C7.94003657 2.61336584 9.74867511 4.24700887 10.3125 8.1796875 C10.3125 10.12258607 10.16687234 12.06428088 10 14 C9.34 14 8.68 14 8 14 C7.9175 12.7625 7.835 11.525 7.75 10.25 C7.36830497 7.16372307 7.11351268 6.14378273 5.125 3.625 C3.46282218 2.35392285 1.74104853 1.16069902 0 0 Z " fill="#161511" transform="translate(51,45)"/>
<path d="M0 0 C1.24386556 3.73159669 0.77811718 6.18015204 0 10 C-0.99 10.495 -0.99 10.495 -2 11 C-2.05399736 9.54207116 -2.09279177 8.08357288 -2.125 6.625 C-2.15980469 5.40683594 -2.15980469 5.40683594 -2.1953125 4.1640625 C-2 2 -2 2 0 0 Z " fill="#151717" transform="translate(38,49)"/>
<path d="M0 0 C0.99 0.33 1.98 0.66 3 1 C-0.625 6.875 -0.625 6.875 -4 8 C-4 5 -4 5 -2.5625 3.4375 C-2.046875 2.963125 -1.53125 2.48875 -1 2 C-0.67 1.34 -0.34 0.68 0 0 Z " fill="#251F0D" transform="translate(58,59)"/>
</svg>
