<?xml version="1.0" encoding="UTF-8"?>
<svg version="1.1" xmlns="http://www.w3.org/2000/svg" width="400" height="400">
<path d="M0 0 C8.92128079 7.91933214 17.75362813 16.39837406 24.4453125 26.31640625 C27.83958313 30.85861755 32.28086659 32.96339869 37.23706055 35.42407227 C59.64222607 46.661023 81.64015389 69.76035974 92.1328125 92.50390625 C92.8134375 92.17390625 93.4940625 91.84390625 94.1953125 91.50390625 C97.64121488 90.3308331 100.51678672 90.36210132 104.1328125 90.50390625 C105.0078125 93.19140625 105.0078125 93.19140625 105.1328125 96.50390625 C103.35423689 98.74595434 101.56520719 99.88230979 99.1328125 101.50390625 C98.4728125 101.50390625 97.8128125 101.50390625 97.1328125 101.50390625 C97.34897217 102.01026611 97.56513184 102.51662598 97.7878418 103.03833008 C111.17276987 134.67510961 118.66131435 169.78734165 105.6003418 202.92675781 C100.9674309 213.99418936 94.45998599 225.06438594 85.359375 233.0625 C83.94220249 234.43541791 83.94220249 234.43541791 84.015625 236.44140625 C84.1771553 237.81701911 84.34382893 239.19203771 84.515625 240.56640625 C84.1328125 242.50390625 84.1328125 242.50390625 82.09765625 244.140625 C78.66310266 245.71988614 75.24525574 246.54000979 71.5703125 247.31640625 C66.43313638 248.4956402 61.93761976 249.8721004 57.2578125 252.37890625 C39.03994069 262.10165185 16.76530071 266.5424821 -3.7734375 266.7421875 C-4.60753143 266.75198135 -5.44162537 266.76177521 -6.30099487 266.77186584 C-24.44116836 266.9409861 -42.16431504 267.00324366 -59.8671875 262.50390625 C-61.1361084 262.18244629 -61.1361084 262.18244629 -62.43066406 261.85449219 C-73.94053916 258.81205887 -84.49700331 254.32032861 -94.8671875 248.50390625 C-95.86234375 247.94960938 -96.8575 247.3953125 -97.8828125 246.82421875 C-118.68830292 234.40036876 -133.66071788 214.06884288 -139.8671875 190.74609375 C-141.76048308 182.02601124 -142.50131957 173.3982818 -142.8671875 164.50390625 C-143.50785156 165.09558594 -144.14851563 165.68726563 -144.80859375 166.296875 C-157.8224479 178.18583565 -157.8224479 178.18583565 -162.6796875 178.94140625 C-164.8671875 178.50390625 -164.8671875 178.50390625 -166.8671875 176.50390625 C-166.802219 172.57331189 -166.29201243 170.94441263 -163.5390625 168.08984375 C-162.09273437 166.99542969 -162.09273437 166.99542969 -160.6171875 165.87890625 C-159.18632812 164.77675781 -159.18632812 164.77675781 -157.7265625 163.65234375 C-156.78296875 162.94335938 -155.839375 162.234375 -154.8671875 161.50390625 C-153.19788202 160.17387814 -151.53081132 158.84103427 -149.8671875 157.50390625 C-150.63385742 157.39320801 -151.40052734 157.28250977 -152.19042969 157.16845703 C-155.66709434 156.66238694 -159.14211165 156.1457688 -162.6171875 155.62890625 C-163.82375 155.45488281 -165.0303125 155.28085938 -166.2734375 155.1015625 C-167.43359375 154.92753906 -168.59375 154.75351563 -169.7890625 154.57421875 C-170.85737305 154.41711426 -171.92568359 154.26000977 -173.02636719 154.09814453 C-175.64031446 153.55136319 -177.56691545 152.82874648 -179.8671875 151.50390625 C-180.0546875 148.62890625 -180.0546875 148.62890625 -179.8671875 145.50390625 C-176.46023764 143.23260634 -175.93381048 143.33378413 -172.078125 143.89453125 C-171.13582031 144.02730469 -170.19351563 144.16007813 -169.22265625 144.296875 C-167.74732422 144.52310547 -167.74732422 144.52310547 -166.2421875 144.75390625 C-164.80166016 144.95693359 -164.80166016 144.95693359 -163.33203125 145.1640625 C-157.43744751 146.01985688 -151.66503126 147.14111411 -145.8671875 148.50390625 C-146.26099609 147.83335205 -146.65480469 147.16279785 -147.06054688 146.47192383 C-148.84066766 143.42649529 -150.60403269 140.37168594 -152.3671875 137.31640625 C-152.98722656 136.26130859 -153.60726562 135.20621094 -154.24609375 134.11914062 C-154.83261719 133.09755859 -155.41914063 132.07597656 -156.0234375 131.0234375 C-156.56806641 130.08604736 -157.11269531 129.14865723 -157.67382812 128.18286133 C-158.94650172 125.32585492 -159.2770678 123.59089993 -158.8671875 120.50390625 C-156.8671875 118.50390625 -156.8671875 118.50390625 -154.56640625 117.85546875 C-151.26225885 118.6492292 -151.01067752 119.34530778 -149.26171875 122.15234375 C-148.38206797 123.71735028 -147.52207682 125.29353211 -146.6796875 126.87890625 C-145.81352353 128.45050273 -144.94513035 130.02087323 -144.07421875 131.58984375 C-143.6975708 132.29157715 -143.32092285 132.99331055 -142.93286133 133.71630859 C-141.87106486 135.66355334 -141.87106486 135.66355334 -139.8671875 137.50390625 C-139.7220874 136.95154297 -139.5769873 136.39917969 -139.42749023 135.83007812 C-136.16447303 123.55594718 -132.47816539 111.9094402 -126.8671875 100.50390625 C-126.56055176 99.87291016 -126.25391602 99.24191406 -125.93798828 98.59179688 C-117.14357986 80.70208269 -105.05523282 66.37666167 -90.8671875 52.50390625 C-93.05898024 50.31211351 -97.99180211 50.36043095 -101.05664062 49.87304688 C-106.69885312 48.85377256 -110.5801594 46.63846581 -114.7421875 42.75390625 C-116.44053615 39.35720896 -116.49398743 36.1721104 -115.8671875 32.50390625 C-114.3046875 29.44140625 -114.3046875 29.44140625 -111.8671875 26.50390625 C-111.40441406 25.93800781 -110.94164063 25.37210938 -110.46484375 24.7890625 C-100.24812803 13.37331902 -86.29922448 11.33990839 -71.8671875 10.50390625 C-72.18816406 9.941875 -72.50914062 9.37984375 -72.83984375 8.80078125 C-74.64252219 4.77045836 -74.49178404 0.82403229 -73.8671875 -3.49609375 C-70.85078113 -11.14483847 -64.59506669 -16.39007981 -57.3046875 -19.80859375 C-35.91857412 -28.4349252 -15.51519571 -13.50709817 0 0 Z " fill="#F28D8D" transform="translate(223.8671875,77.49609375)"/>
<path d="M0 0 C8.92128079 7.91933214 17.75362813 16.39837406 24.4453125 26.31640625 C27.83958313 30.85861755 32.28086659 32.96339869 37.23706055 35.42407227 C59.64222607 46.661023 81.64015389 69.76035974 92.1328125 92.50390625 C92.8134375 92.17390625 93.4940625 91.84390625 94.1953125 91.50390625 C97.64121488 90.3308331 100.51678672 90.36210132 104.1328125 90.50390625 C105.0078125 93.19140625 105.0078125 93.19140625 105.1328125 96.50390625 C103.35423689 98.74595434 101.56520719 99.88230979 99.1328125 101.50390625 C98.4728125 101.50390625 97.8128125 101.50390625 97.1328125 101.50390625 C97.34897217 102.01026611 97.56513184 102.51662598 97.7878418 103.03833008 C111.17276987 134.67510961 118.66131435 169.78734165 105.6003418 202.92675781 C100.9674309 213.99418936 94.45998599 225.06438594 85.359375 233.0625 C83.94220249 234.43541791 83.94220249 234.43541791 84.015625 236.44140625 C84.1771553 237.81701911 84.34382893 239.19203771 84.515625 240.56640625 C84.1328125 242.50390625 84.1328125 242.50390625 82.09765625 244.140625 C78.66310266 245.71988614 75.24525574 246.54000979 71.5703125 247.31640625 C66.43313638 248.4956402 61.93761976 249.8721004 57.2578125 252.37890625 C39.03994069 262.10165185 16.76530071 266.5424821 -3.7734375 266.7421875 C-4.60753143 266.75198135 -5.44162537 266.76177521 -6.30099487 266.77186584 C-24.44116836 266.9409861 -42.16431504 267.00324366 -59.8671875 262.50390625 C-61.1361084 262.18244629 -61.1361084 262.18244629 -62.43066406 261.85449219 C-73.94053916 258.81205887 -84.49700331 254.32032861 -94.8671875 248.50390625 C-95.86234375 247.94960938 -96.8575 247.3953125 -97.8828125 246.82421875 C-118.68830292 234.40036876 -133.66071788 214.06884288 -139.8671875 190.74609375 C-141.76048308 182.02601124 -142.50131957 173.3982818 -142.8671875 164.50390625 C-143.50785156 165.09558594 -144.14851563 165.68726563 -144.80859375 166.296875 C-157.8224479 178.18583565 -157.8224479 178.18583565 -162.6796875 178.94140625 C-164.8671875 178.50390625 -164.8671875 178.50390625 -166.8671875 176.50390625 C-166.802219 172.57331189 -166.29201243 170.94441263 -163.5390625 168.08984375 C-162.09273437 166.99542969 -162.09273437 166.99542969 -160.6171875 165.87890625 C-159.18632812 164.77675781 -159.18632812 164.77675781 -157.7265625 163.65234375 C-156.78296875 162.94335938 -155.839375 162.234375 -154.8671875 161.50390625 C-153.19788202 160.17387814 -151.53081132 158.84103427 -149.8671875 157.50390625 C-150.63385742 157.39320801 -151.40052734 157.28250977 -152.19042969 157.16845703 C-155.66709434 156.66238694 -159.14211165 156.1457688 -162.6171875 155.62890625 C-163.82375 155.45488281 -165.0303125 155.28085938 -166.2734375 155.1015625 C-167.43359375 154.92753906 -168.59375 154.75351563 -169.7890625 154.57421875 C-170.85737305 154.41711426 -171.92568359 154.26000977 -173.02636719 154.09814453 C-175.64031446 153.55136319 -177.56691545 152.82874648 -179.8671875 151.50390625 C-180.0546875 148.62890625 -180.0546875 148.62890625 -179.8671875 145.50390625 C-176.46023764 143.23260634 -175.93381048 143.33378413 -172.078125 143.89453125 C-171.13582031 144.02730469 -170.19351563 144.16007813 -169.22265625 144.296875 C-167.74732422 144.52310547 -167.74732422 144.52310547 -166.2421875 144.75390625 C-164.80166016 144.95693359 -164.80166016 144.95693359 -163.33203125 145.1640625 C-157.43744751 146.01985688 -151.66503126 147.14111411 -145.8671875 148.50390625 C-146.26099609 147.83335205 -146.65480469 147.16279785 -147.06054688 146.47192383 C-148.84066766 143.42649529 -150.60403269 140.37168594 -152.3671875 137.31640625 C-152.98722656 136.26130859 -153.60726562 135.20621094 -154.24609375 134.11914062 C-154.83261719 133.09755859 -155.41914063 132.07597656 -156.0234375 131.0234375 C-156.56806641 130.08604736 -157.11269531 129.14865723 -157.67382812 128.18286133 C-158.94650172 125.32585492 -159.2770678 123.59089993 -158.8671875 120.50390625 C-156.8671875 118.50390625 -156.8671875 118.50390625 -154.56640625 117.85546875 C-151.26225885 118.6492292 -151.01067752 119.34530778 -149.26171875 122.15234375 C-148.38206797 123.71735028 -147.52207682 125.29353211 -146.6796875 126.87890625 C-145.81352353 128.45050273 -144.94513035 130.02087323 -144.07421875 131.58984375 C-143.6975708 132.29157715 -143.32092285 132.99331055 -142.93286133 133.71630859 C-141.87106486 135.66355334 -141.87106486 135.66355334 -139.8671875 137.50390625 C-139.7220874 136.95154297 -139.5769873 136.39917969 -139.42749023 135.83007812 C-136.16447303 123.55594718 -132.47816539 111.9094402 -126.8671875 100.50390625 C-126.56055176 99.87291016 -126.25391602 99.24191406 -125.93798828 98.59179688 C-117.14357986 80.70208269 -105.05523282 66.37666167 -90.8671875 52.50390625 C-93.05898024 50.31211351 -97.99180211 50.36043095 -101.05664062 49.87304688 C-106.69885312 48.85377256 -110.5801594 46.63846581 -114.7421875 42.75390625 C-116.44053615 39.35720896 -116.49398743 36.1721104 -115.8671875 32.50390625 C-114.3046875 29.44140625 -114.3046875 29.44140625 -111.8671875 26.50390625 C-111.40441406 25.93800781 -110.94164063 25.37210938 -110.46484375 24.7890625 C-100.24812803 13.37331902 -86.29922448 11.33990839 -71.8671875 10.50390625 C-72.18816406 9.941875 -72.50914062 9.37984375 -72.83984375 8.80078125 C-74.64252219 4.77045836 -74.49178404 0.82403229 -73.8671875 -3.49609375 C-70.85078113 -11.14483847 -64.59506669 -16.39007981 -57.3046875 -19.80859375 C-35.91857412 -28.4349252 -15.51519571 -13.50709817 0 0 Z M-63.4921875 -5.12109375 C-65.41604082 -1.44828287 -65.8842019 1.53165436 -64.8671875 5.50390625 C-60.05295681 15.42122147 -47.10633403 19.11984213 -37.50390625 22.7890625 C-30.39776796 25.16379487 -23.18269123 26.42554189 -15.78149414 27.46606445 C-10.07111021 28.29998354 -10.07111021 28.29998354 -7.8671875 30.50390625 C-7.7421875 33.12890625 -7.7421875 33.12890625 -7.8671875 35.50390625 C-23.2547345 34.34784702 -37.81908455 31.09977021 -51.71044922 24.22216797 C-64.0716762 18.13266583 -75.71632978 17.52477726 -89.0546875 21.12890625 C-97.20291685 24.06930922 -102.67466638 28.68872229 -107.8671875 35.50390625 C-106.92812392 37.8383135 -106.34509504 39.2158664 -104.15576172 40.53540039 C-97.42351894 42.74181152 -91.04119851 42.98622655 -83.9921875 42.94140625 C-82.88488281 42.96138672 -81.77757812 42.98136719 -80.63671875 43.00195312 C-72.46727804 42.99715322 -64.41736545 41.96152147 -57.73095703 36.88061523 C-55.33600575 35.1115387 -53.77431641 35.26164551 -50.8671875 35.50390625 C-50.8671875 37.48390625 -50.8671875 39.46390625 -50.8671875 41.50390625 C-63.90654302 48.54438667 -63.90654302 48.54438667 -70.9296875 49.69140625 C-78.57099394 51.32372805 -83.19610108 56.63756915 -88.45849609 62.06591797 C-89.61768241 63.24921214 -90.82453052 64.38562433 -92.04296875 65.5078125 C-107.74162623 80.03638371 -117.99077616 99.91597229 -125.8671875 119.50390625 C-126.45113281 120.93863281 -126.45113281 120.93863281 -127.046875 122.40234375 C-137.4605596 150.57580055 -136.51097618 180.33040368 -124.52734375 207.546875 C-118.33684415 219.98170463 -104.79335371 235.07491644 -91.8671875 240.50390625 C-87.98294387 239.29008011 -86.16361006 236.64907504 -83.7421875 233.50390625 C-68.51295879 214.38583001 -68.51295879 214.38583001 -59.8671875 211.50390625 C-60.43254907 214.96302639 -61.39364249 216.28431282 -64.1171875 218.44140625 C-72.74292224 225.67891244 -81.55011555 233.46054813 -86.8671875 243.50390625 C-47.0889177 263.01777446 0.53014904 263.61972897 42.1328125 249.50390625 C46.20986202 248.0109022 50.19972765 246.34423167 54.1328125 244.50390625 C54.1328125 244.17390625 54.1328125 243.84390625 54.1328125 243.50390625 C53.26068115 243.39320801 52.3885498 243.28250977 51.48999023 243.16845703 C48.22606126 242.75154526 44.96283477 242.3297715 41.69995117 241.90478516 C40.29297265 241.72252152 38.88574793 241.54214734 37.47827148 241.36376953 C35.44445772 241.10566768 33.41165354 240.84057476 31.37890625 240.57421875 C30.15872803 240.41711426 28.9385498 240.26000977 27.68139648 240.09814453 C18.12090749 238.4971655 18.12090749 238.4971655 15.59130859 235.9543457 C15.28273926 235.3480835 14.97416992 234.74182129 14.65625 234.1171875 C14.29797119 233.43374268 13.93969238 232.75029785 13.57055664 232.04614258 C13.04449829 230.9424231 13.04449829 230.9424231 12.5078125 229.81640625 C12.12810303 229.05545654 11.74839355 228.29450684 11.35717773 227.51049805 C5.71513553 215.90204746 2.45816713 204.34204292 1.1328125 191.50390625 C-10.61143161 190.75823996 -21.68905264 194.25155246 -32.8671875 197.50390625 C-32.5371875 196.51390625 -32.2071875 195.52390625 -31.8671875 194.50390625 C-29.34468188 193.47225043 -26.97914922 192.67030583 -24.3671875 191.94140625 C-23.61703369 191.72524658 -22.86687988 191.50908691 -22.09399414 191.28637695 C-14.12192561 189.10705199 -6.08363068 188.1928946 2.1328125 187.50390625 C2.1328125 186.51390625 2.1328125 185.52390625 2.1328125 184.50390625 C1.5140625 184.66890625 0.8953125 184.83390625 0.2578125 185.00390625 C-6.65301097 186.109638 -12.84491361 186.41346795 -19.0546875 182.8203125 C-25.33998799 178.2553421 -29.01210393 171.99719325 -30.8671875 164.50390625 C-32.10674895 154.09411975 -30.22661667 146.55723134 -23.8671875 138.31640625 C-20.03951045 134.12936214 -15.47435522 132.00932318 -10.34375 129.73046875 C-7.73921552 128.75048713 -7.73921552 128.75048713 -6.8671875 126.50390625 C-8.25164062 126.15779297 -8.25164062 126.15779297 -9.6640625 125.8046875 C-20.73177083 123.03776042 -31.79947917 120.27083333 -42.8671875 117.50390625 C-43.1971875 115.85390625 -43.5271875 114.20390625 -43.8671875 112.50390625 C-39.96495456 111.48398938 -37.23306914 111.60942236 -33.31640625 112.5078125 C-31.69847168 112.87241577 -31.69847168 112.87241577 -30.04785156 113.24438477 C-28.89510742 113.51565186 -27.74236328 113.78691895 -26.5546875 114.06640625 C-25.35424805 114.340896 -24.15380859 114.61538574 -22.91699219 114.89819336 C-14.14606477 116.92123236 -5.41651994 119.09842906 3.30908203 121.30712891 C10.45979634 123.10825317 17.62567215 124.82426756 24.8203125 126.44140625 C25.78291992 126.66513916 26.74552734 126.88887207 27.73730469 127.11938477 C28.63481445 127.31717529 29.53232422 127.51496582 30.45703125 127.71875 C31.6339856 127.98353149 31.6339856 127.98353149 32.8347168 128.25366211 C37.59944362 128.77250254 40.82225149 127.31385778 44.6953125 124.69140625 C50.02593862 121.18327798 55.45994852 117.88945888 60.9453125 114.62890625 C69.12100402 109.75445 77.17298393 104.7226018 85.1328125 99.50390625 C84.49762647 95.41048514 82.29542367 92.27493507 80.0703125 88.87890625 C79.66474121 88.2564502 79.25916992 87.63399414 78.84130859 86.99267578 C75.25043503 81.55522736 71.3841987 76.4457548 67.1328125 71.50390625 C66.32328125 70.54871094 65.51375 69.59351563 64.6796875 68.609375 C54.87817866 57.31411184 43.43260782 48.89747209 30.5078125 41.4765625 C24.33742217 37.87002648 19.86912174 34.43107451 15.3828125 28.94140625 C14.33193318 27.68779179 13.27983238 26.43520036 12.2265625 25.18359375 C11.70707031 24.56323242 11.18757812 23.94287109 10.65234375 23.30371094 C4.63404019 16.17534753 -1.5733222 9.34684136 -8.8671875 3.50390625 C-9.77210938 2.77300781 -10.67703125 2.04210937 -11.609375 1.2890625 C-22.37832232 -7.11631067 -33.96850393 -14.19684497 -48.015625 -13.9453125 C-54.24602641 -12.96381091 -58.91780692 -9.25981904 -63.4921875 -5.12109375 Z " fill="#24242D" transform="translate(223.8671875,77.49609375)"/>
<path d="M0 0 C0.11214844 1.22009766 0.11214844 1.22009766 0.2265625 2.46484375 C1.39186844 12.62128477 4.11458724 21.58088268 8 31 C8.28617187 31.71526855 8.57234375 32.43053711 8.8671875 33.16748047 C9.73239238 35.26588944 10.66307249 37.31937753 11.625 39.375 C11.8823291 39.99947021 12.1396582 40.62394043 12.40478516 41.26733398 C13.95361371 44.34318264 15.25471703 45.69501156 18.48242188 47.01586914 C25.92946506 49.00833365 33.60018554 49.86110328 41.25 50.6875 C42.38824219 50.81705078 43.52648437 50.94660156 44.69921875 51.08007812 C47.46542526 51.39389147 50.23222177 51.70042493 53 52 C48.80413749 55.382385 44.50815006 56.77638558 39.4375 58.4375 C38.51090576 58.74316895 37.58431152 59.04883789 36.62963867 59.36376953 C-2.22785366 71.8306722 -48.89117293 71.39219589 -85.89453125 53.1015625 C-86.58933594 52.73804688 -87.28414062 52.37453125 -88 52 C-83.72491825 44.92137799 -78.6581026 39.25563544 -72.75 33.5 C-71.9353125 32.69046875 -71.120625 31.8809375 -70.28125 31.046875 C-64.31058673 25.15529337 -64.31058673 25.15529337 -62 24 C-62 22.35 -62 20.7 -62 19 C-60.25 17.9375 -60.25 17.9375 -58 17 C-57.43152344 17.22042969 -56.86304688 17.44085938 -56.27734375 17.66796875 C-52.67891389 18.19261118 -50.2460786 16.22676058 -47.3125 14.375 C-46.71888672 14.03082031 -46.12527344 13.68664062 -45.51367188 13.33203125 C-42.62313653 11.54563426 -41.16550858 10.51314889 -40.10546875 7.2265625 C-40.05326172 6.12441406 -40.05326172 6.12441406 -40 5 C-38.35 4.67 -36.7 4.34 -35 4 C-34.505 4.99 -34.505 4.99 -34 6 C-33.27296875 5.81824219 -32.5459375 5.63648438 -31.796875 5.44921875 C-29.67524289 4.91881072 -27.55278074 4.39171642 -25.4296875 3.8671875 C-23.24099644 3.3137827 -21.05778784 2.73788083 -18.8828125 2.1328125 C-12.43891008 0.37538457 -6.67664308 -0.39882602 0 0 Z " fill="#E7D3C4" transform="translate(225,269)"/>
<path d="M0 0 C1.21042969 0.40734375 2.42085938 0.8146875 3.66796875 1.234375 C19.19138853 6.6635161 34.50860437 13.61097146 43.2578125 28.2734375 C44 30 44 30 44 33 C42.89938232 33.03963867 41.79876465 33.07927734 40.66479492 33.12011719 C12.45795108 34.10703401 12.45795108 34.10703401 -15.51098633 37.67871094 C-31.29762307 40.44329948 -31.29762307 40.44329948 -38.6875 37.5625 C-41.10309648 34.88575796 -41.44569511 34.29049405 -41.6875 30.875 C-41.03818146 21.88784115 -35.52963539 13.91594785 -29 8 C-19.73337386 1.00790937 -11.41831064 -3.8997414 0 0 Z " fill="#F5E35B" transform="translate(271,233)"/>
<path d="M0 0 C4.07001796 9.14455099 7.28410498 18.38270597 10 28 C10.32355469 29.08925781 10.64710938 30.17851562 10.98046875 31.30078125 C15.49302991 49.32984017 15.49142484 71.48121681 9 89 C8.56429687 90.21300781 8.12859375 91.42601562 7.6796875 92.67578125 C4.53006635 100.68752248 0.43880136 107.35144657 -5 114 C-5.72058594 114.88429688 -6.44117188 115.76859375 -7.18359375 116.6796875 C-11.10231938 121.29587438 -11.10231938 121.29587438 -13 123 C-13.99 123 -14.98 123 -16 123 C-25 97.31067961 -25 97.31067961 -25 86 C-14.77 86 -4.54 86 6 86 C4.26365429 78.76583628 4.26365429 78.76583628 1 72.75 C-0.82576518 69.88354867 -2.53579784 67.06919299 -4 64 C-3.40251953 63.38125 -3.40251953 63.38125 -2.79296875 62.75 C4.17731654 55.15221944 5.60100901 48.7166057 5.34765625 38.40625 C4.85743152 33.60314927 3.57457988 30.05617774 1 26 C0.61070312 25.36449219 0.22140625 24.72898438 -0.1796875 24.07421875 C-3.86108961 18.98778448 -8.48525081 17.21533179 -14.29296875 15.140625 C-16.9402042 14.02519534 -18.08749185 13.05320082 -20 11 C-17.0460832 9.15947576 -14.08617092 7.32882635 -11.125 5.5 C-10.28324219 4.97535156 -9.44148438 4.45070312 -8.57421875 3.91015625 C-7.76855469 3.41386719 -6.96289062 2.91757813 -6.1328125 2.40625 C-5.38918457 1.94541016 -4.64555664 1.48457031 -3.87939453 1.00976562 C-2 0 -2 0 0 0 Z " fill="#EE8B8B" transform="translate(314,184)"/>
<path d="M0 0 C1.35206543 0.24592896 1.35206543 0.24592896 2.73144531 0.49682617 C5.74631974 1.06480608 8.74734848 1.68328194 11.75 2.3125 C12.77738281 2.51294922 13.80476563 2.71339844 14.86328125 2.91992188 C16.34634766 3.23219727 16.34634766 3.23219727 17.859375 3.55078125 C18.75108398 3.73294189 19.64279297 3.91510254 20.56152344 4.1027832 C24.15333178 5.42435866 26.29738981 7.59477962 28 11 C28.06996014 12.70702735 28.08440154 14.41668003 28.0625 16.125 C28.05347656 17.03507812 28.04445313 17.94515625 28.03515625 18.8828125 C28.02355469 19.58148438 28.01195312 20.28015625 28 21 C27.05898438 21.44730469 26.11796875 21.89460938 25.1484375 22.35546875 C23.89041125 22.96570537 22.63261071 23.57640747 21.375 24.1875 C20.75753906 24.47947266 20.14007813 24.77144531 19.50390625 25.07226562 C16.22615581 26.67663821 13.43564207 28.35000524 10.6640625 30.73828125 C8 33 8 33 6 33 C5.67 33.99 5.34 34.98 5 36 C-3.41249195 36.62314755 -10.38520704 34.38458914 -17 29.0625 C-21.19019082 25.08921317 -22.09405331 21.75805553 -22.375 16.0625 C-22.23121224 11.20966301 -21.44513686 8.609191 -18 5 C-11.78012075 0.13179063 -7.83548225 -1.53085447 0 0 Z " fill="#FAFAFA" transform="translate(231,207)"/>
<path d="M0 0 C2.5234375 1.171875 2.5234375 1.171875 4.375 2.75 C5.00148438 3.26046875 5.62796875 3.7709375 6.2734375 4.296875 C10.14787128 8.11871466 11.77772441 11.15828797 12.4375 16.625 C12.32520119 22.17868638 9.70862126 26.02072985 6 30 C2.86801316 32.47761638 -0.23628398 34.62812253 -4 36 C-9.38643466 35.19270895 -14.52010294 33.35858366 -19.6875 31.6875 C-20.64978516 31.39166016 -21.61207031 31.09582031 -22.60351562 30.79101562 C-23.52197266 30.49259766 -24.44042969 30.19417969 -25.38671875 29.88671875 C-26.22420654 29.62076904 -27.06169434 29.35481934 -27.92456055 29.08081055 C-30.4755558 27.75234848 -31.03071071 26.66538453 -32 24 C-32.37109375 21.78125 -32.37109375 21.78125 -32.4375 19.5 C-32.47746094 18.7471875 -32.51742188 17.994375 -32.55859375 17.21875 C-31.1659321 11.68705895 -22.87497906 8.17710469 -18.25 5.25 C-17.48945313 4.74339844 -16.72890625 4.23679688 -15.9453125 3.71484375 C-10.61549119 0.36337984 -6.30890537 -1.1439224 0 0 Z " fill="#F8F8F8" transform="translate(295,200)"/>
<path d="M0 0 C2.31 0 4.62 0 7 0 C7.18792114 0.82854492 7.18792114 0.82854492 7.37963867 1.67382812 C9.83764458 12.43777599 12.46460031 23.0542459 15.88671875 33.5546875 C17.00626615 37.01939208 18.01823044 40.49432058 19 44 C13.76580912 46.13433026 9.1807984 46.31067258 3.625 46.25 C2.74593994 46.24468262 1.86687988 46.23936523 0.96118164 46.23388672 C-7.15523216 46.11790649 -14.98153013 45.22821202 -23 44 C-24.07507813 43.90203125 -25.15015625 43.8040625 -26.2578125 43.703125 C-32.90478159 42.95866446 -32.90478159 42.95866446 -35.53515625 40.65625 C-36.99563203 38.514845 -37.97067885 36.3836911 -39 34 C-39.6024267 32.7075209 -40.20675682 31.41592809 -40.8125 30.125 C-46.25917049 18.25805982 -46.25917049 18.25805982 -47 12 C-46.05125 12.845625 -45.1025 13.69125 -44.125 14.5625 C-28.36688499 27.93966721 -10.4251055 35.88916229 10 39 C9.42150764 34.32973241 8.09441623 30.63716945 6.125 26.375 C2.35547273 17.9200382 -0.63785047 9.35514025 0 0 Z " fill="#F1DE5A" transform="translate(278,271)"/>
<path d="M0 0 C7.35979155 3.12826054 11.57249974 8.49999943 14.8125 15.625 C17.09877338 22.3139827 17.03816691 29.98931595 14.75 36.625 C11.78935698 40.64301552 11.78935698 40.64301552 9 42 C4.41083748 42.60185738 1.33831191 42.60316842 -2.625 40.125 C-8.13492512 35.71201649 -11.83501143 28.63336681 -14 22 C-15.30171432 9.05853783 -15.30171432 9.05853783 -12.1875 4.25 C-8.16368692 0.11122083 -5.70095446 -0.65420789 0 0 Z " fill="#EC5A6A" transform="translate(169,225)"/>
<path d="M0 0 C0.14695312 0.8971875 0.29390625 1.794375 0.4453125 2.71875 C2.02987183 11.53399958 4.46872587 19.52037673 7.79296875 27.83203125 C9 31 9 31 9 33 C-8.19765544 32.38579802 -24.69730715 22.67709525 -36.96484375 11.1875 C-39.63904432 8.31311935 -41.34008256 5.54618725 -43 2 C-42.45472656 2.15984375 -41.90945312 2.3196875 -41.34765625 2.484375 C-32.25508507 4.48141227 -22.7324877 2.6849477 -13.71264648 1.06738281 C-9.05506199 0.24548485 -4.73092868 -0.15138972 0 0 Z " fill="#EB596A" transform="translate(274,272)"/>
<path d="M0 0 C0.66 0.33 1.32 0.66 2 1 C1.67 1.66 1.34 2.32 1 3 C0.28035922 10.00764958 0.43637243 16.35747134 5 22 C11.22819738 27.78524369 18.94100904 29.88249078 27 32 C25.41559652 36.87829492 23.98082679 41.00004518 19.3125 43.5625 C14.8575165 45.33624343 10.7173301 46.05540267 6 45 C-1.10175556 41.66605687 -5.33208929 37.16977678 -8.25 29.875 C-10.14656072 20.07610295 -9.61362919 12.4283951 -4 4 C-1.6875 1.375 -1.6875 1.375 0 0 Z " fill="#E8596A" transform="translate(205,215)"/>
<path d="M0 0 C4.59167451 1.03108684 7.47103217 4.01494609 10.41796875 7.54296875 C13.4323091 12.72386622 14.06717943 16.70007266 13.41796875 22.54296875 C11.67161078 25.6864131 9.94934149 28.01159601 7.41796875 30.54296875 C3.36269275 31.49368698 -0.20045681 31.32665494 -3.84765625 29.2578125 C-8.57197069 25.41711984 -11.37612019 21.53705609 -12.58203125 15.54296875 C-13.09764926 10.47272502 -12.64857521 7.63169403 -9.58203125 3.54296875 C-6.66009466 0.06042804 -4.41435823 -0.15122598 0 0 Z " fill="#E75869" transform="translate(139.58203125,248.45703125)"/>
<path d="M0 0 C7.35979155 3.12826054 11.57249974 8.49999943 14.8125 15.625 C17.09877338 22.3139827 17.03816691 29.98931595 14.75 36.625 C11.78935698 40.64301552 11.78935698 40.64301552 9 42 C4.41083748 42.60185738 1.33831191 42.60316842 -2.625 40.125 C-8.13492512 35.71201649 -11.83501143 28.63336681 -14 22 C-15.30171432 9.05853783 -15.30171432 9.05853783 -12.1875 4.25 C-8.16368692 0.11122083 -5.70095446 -0.65420789 0 0 Z M-8.3125 5.75 C-10.95460227 10.83849326 -10.88357984 15.39060678 -10 21 C-7.58256181 27.93771646 -4.46903396 34.22639686 2 38 C5.34913042 38.52535379 7.03999066 38.69517917 9.8125 36.6875 C13.46179937 31.50165352 12.39547029 24.29372766 11.375 18.375 C9.16536916 12.95136065 6.06447524 8.61129774 1.4375 5 C-2.62689003 3.33255794 -4.71950181 3.03097435 -8.3125 5.75 Z " fill="#2B262F" transform="translate(169,225)"/>
<path d="M0 0 C4.59167451 1.03108684 7.47103217 4.01494609 10.41796875 7.54296875 C13.4323091 12.72386622 14.06717943 16.70007266 13.41796875 22.54296875 C11.67161078 25.6864131 9.94934149 28.01159601 7.41796875 30.54296875 C3.36269275 31.49368698 -0.20045681 31.32665494 -3.84765625 29.2578125 C-8.57197069 25.41711984 -11.37612019 21.53705609 -12.58203125 15.54296875 C-13.09764926 10.47272502 -12.64857521 7.63169403 -9.58203125 3.54296875 C-6.66009466 0.06042804 -4.41435823 -0.15122598 0 0 Z M-7.51953125 6.04296875 C-9.04236049 9.62609636 -9.32511155 12.76621201 -8.58203125 16.54296875 C-6.60178327 20.86764825 -4.55715102 23.8928889 -0.58203125 26.54296875 C2.91796875 27.12630208 2.91796875 27.12630208 6.41796875 26.54296875 C8.75517457 24.27880061 9.37067211 22.66163706 9.5078125 19.41796875 C9.16108757 14.15486219 7.84654021 10.67742257 4.41796875 6.54296875 C0.50455014 3.93402301 -3.55360034 2.97257063 -7.51953125 6.04296875 Z " fill="#2D2730" transform="translate(139.58203125,248.45703125)"/>
<path d="M0 0 C4.41396359 3.50072975 5.82371921 7.65951349 7 13 C7.93524624 21.48915822 6.33060617 28.68988352 1.4140625 35.65234375 C-0.44200338 37.42124631 -1.42379818 37.88839559 -4 38 C-6.578125 36.56640625 -6.578125 36.56640625 -9.25 34.5625 C-10.14203125 33.90378906 -11.0340625 33.24507812 -11.953125 32.56640625 C-12.62859375 32.04949219 -13.3040625 31.53257812 -14 31 C-11.8195445 28.73803214 -9.50416874 26.78551831 -7.0625 24.8125 C-2.48905225 20.79494093 0.56644556 16.807739 1.26953125 10.6328125 C1.33688181 6.89791789 0.99852735 3.6044402 0 0 Z " fill="#E75869" transform="translate(309,208)"/>
<path d="M0 0 C2.88381579 2.58803981 3.8491179 4.19529549 4.5625 8 C3.78698584 12.13607554 2.38677089 13.54999553 -1 16 C-4.5 16.625 -4.5 16.625 -8 16 C-11.38677089 13.54999553 -12.78698584 12.13607554 -13.5625 8 C-12.87642343 4.34092496 -11.57265686 2.64832324 -9 0 C-5.77839187 -1.61080407 -3.42436421 -0.82657067 0 0 Z " fill="#272832" transform="translate(247,214)"/>
<path d="M0 0 C2.5 2.125 2.5 2.125 4 5 C4.07481382 9.26438773 3.64839572 11.23718151 0.875 14.5 C-2.97148295 16.50686067 -4.88546541 16.27176524 -9 15 C-11.87406793 12.42070826 -12.83879082 10.77380407 -13.625 7 C-12.90385191 3.53848918 -11.64268867 1.94288605 -8.78515625 -0.14453125 C-5.53599179 -1.70157067 -3.31572655 -1.10524218 0 0 Z " fill="#2C2E37" transform="translate(281,210)"/>
<path d="M0 0 C0.52207031 0.24234375 1.04414063 0.4846875 1.58203125 0.734375 C0.24695439 4.73960558 -2.29134652 5.89326919 -5.73046875 7.984375 C-6.31248047 8.36078125 -6.89449219 8.7371875 -7.49414062 9.125 C-11.83375123 11.79855398 -11.83375123 11.79855398 -14.8359375 11.46875 C-15.35800781 11.22640625 -15.88007813 10.9840625 -16.41796875 10.734375 C-15.08289189 6.72914442 -12.54459098 5.57548081 -9.10546875 3.484375 C-8.52345703 3.10796875 -7.94144531 2.7315625 -7.34179688 2.34375 C-3.00218627 -0.32980398 -3.00218627 -0.32980398 0 0 Z " fill="#292A32" transform="translate(183.41796875,276.265625)"/>
<path d="M0 0 C3.125 0.375 3.125 0.375 6 1 C6.125 3.875 6.125 3.875 6 7 C5.34 7.66 4.68 8.32 4 9 C1.375 8.625 1.375 8.625 -1 8 C-1.625 5.125 -1.625 5.125 -2 2 C-1.34 1.34 -0.68 0.68 0 0 Z " fill="#414143" transform="translate(274,213)"/>
<path d="M0 0 C2.5 0.125 2.5 0.125 3.5 1.125 C3.6875 3.5625 3.6875 3.5625 3.5 6.125 C2.84 6.785 2.18 7.445 1.5 8.125 C-2.03571429 7.58928571 -2.03571429 7.58928571 -3.5 6.125 C-3.625 3.625 -3.625 3.625 -3.5 1.125 C-2.5 0.125 -2.5 0.125 0 0 Z " fill="#434344" transform="translate(242.5,217.875)"/>
</svg>
