<?xml version="1.0" encoding="UTF-8"?>
<svg version="1.1" xmlns="http://www.w3.org/2000/svg" width="512" height="512">
<path d="M0 0 C168.96 0 337.92 0 512 0 C512 168.96 512 337.92 512 512 C343.04 512 174.08 512 0 512 C0 343.04 0 174.08 0 0 Z " fill="#FE6D2B" transform="translate(0,0)"/>
<path d="M0 0 C168.96 0 337.92 0 512 0 C512 168.96 512 337.92 512 512 C343.04 512 174.08 512 0 512 C0 343.04 0 174.08 0 0 Z M32 27 C31.38382813 27.47824219 30.76765625 27.95648438 30.1328125 28.44921875 C23.79159345 34.04358311 18.58594752 43.63392825 17 52 C16.90717448 54.26253147 16.87266886 56.52765211 16.87136555 58.7920866 C16.86961251 59.47779695 16.86785947 60.1635073 16.86605331 60.86999676 C16.86138385 63.17862524 16.86386125 65.487191 16.86628723 67.79582214 C16.86441973 69.4634048 16.86211927 71.13098702 16.85942191 72.79856855 C16.85328985 77.389798 16.85343916 81.98100928 16.85461628 86.5722419 C16.85481994 91.52058642 16.84930484 96.46892505 16.84455872 101.41726685 C16.83624354 111.11598038 16.83350347 120.81468783 16.83294634 130.51340463 C16.83247152 138.39652898 16.83041848 146.27965132 16.82724571 154.16277504 C16.81843622 176.5052515 16.81382671 198.84772315 16.81457619 221.19020136 C16.81461614 222.39530845 16.8146561 223.60041553 16.81469727 224.84204102 C16.81473815 226.0486172 16.81477903 227.25519338 16.81482115 228.49833248 C16.81522754 248.05001563 16.8056604 267.60167953 16.7915589 287.15335711 C16.77719903 307.2214188 16.77028852 327.28947109 16.77115268 347.35753804 C16.77148481 358.62714756 16.76873043 369.89673689 16.75797462 381.16634178 C16.74887467 390.7626721 16.74669017 400.35897308 16.75348405 409.95530584 C16.756752 414.8515384 16.75679602 419.74771465 16.7481308 424.64394188 C16.74027692 429.12786245 16.74168589 433.61168197 16.75041493 438.09560005 C16.75195239 439.71608794 16.75012451 441.33658333 16.74455485 442.95706239 C16.69608527 458.06195177 18.38012485 471.37037484 29.1875 482.875 C37.66050343 490.74789189 47.57201244 495.24627727 59.18967152 495.25447559 C59.88192055 495.25768207 60.57416959 495.26088855 61.28739586 495.26419219 C63.60027737 495.27247431 65.9128987 495.26657426 68.2257843 495.26069641 C69.90349424 495.26371792 71.5812028 495.2676074 73.25890893 495.27228898 C77.86425164 495.28257793 82.46951658 495.28038486 87.0748657 495.27610838 C92.0436324 495.27364278 97.0123803 495.2826533 101.98114014 495.29014587 C111.71387388 495.30289976 121.44658004 495.30468568 131.17932073 495.30234561 C139.09049437 495.30056296 147.00165963 495.30231095 154.91283226 495.30657005 C156.03856863 495.30716524 157.16430499 495.30776043 158.32415458 495.30837366 C160.61106553 495.3095854 162.89797648 495.31079954 165.18488743 495.31201603 C186.63539674 495.32289436 208.08589033 495.32072777 229.53640052 495.31463119 C249.15836072 495.3094625 268.78027128 495.32071569 288.40222166 495.33972941 C308.55061736 495.35910355 328.69898957 495.3673645 348.84739465 495.36360615 C360.15891827 495.36169337 371.47039964 495.36418913 382.78191566 495.37832069 C392.4121941 495.39023009 402.04240427 495.39164436 411.67268363 495.37953053 C416.58528693 495.3736386 421.49776533 495.37255112 426.41036034 495.38453293 C430.91029606 495.39538061 435.41000245 495.39230158 439.90992739 495.37827124 C441.53505344 495.37562124 443.1601974 495.37800039 444.78530589 495.38600711 C459.97836701 495.45564689 471.77577115 492.8675933 483.25 482.375 C491.03641463 474.1630121 495.24438684 463.03925558 495.25726891 451.8131218 C495.26077498 451.12117236 495.26428105 450.42922292 495.26789337 449.71630532 C495.27717565 447.40443735 495.27229235 445.09282305 495.26742554 442.78094482 C495.2711634 441.10394723 495.27576546 439.42695137 495.28115618 437.74995828 C495.29338479 433.14654992 495.29312587 428.54321424 495.29076743 423.93979335 C495.29035923 418.9730497 495.30139874 414.00632935 495.31088257 409.03959656 C495.32749282 399.31054095 495.33299213 389.58150958 495.33410732 379.85244098 C495.33505779 371.94365924 495.33916803 364.03488548 495.34550858 356.12610626 C495.36312111 333.70080748 495.37234743 311.27552783 495.37084763 288.85022208 C495.37076772 287.64136266 495.3706878 286.43250324 495.37060547 285.18701172 C495.37048283 283.37150729 495.37048283 283.37150729 495.37035771 281.519326 C495.36954482 261.90449471 495.38868314 242.28974022 495.4168822 222.67493114 C495.44561164 202.5321799 495.45942246 182.3894661 495.45769465 162.24669385 C495.45703077 150.93903438 495.46252239 139.63145541 495.48405075 128.32381439 C495.5022633 118.6961131 495.50660923 109.0685288 495.4930319 99.44081774 C495.48650265 94.53007827 495.4863836 89.61956325 495.5037384 84.70884514 C495.51947592 80.20941657 495.51659852 75.7103903 495.49917014 71.2109715 C495.49610175 69.58717163 495.49972656 67.96334168 495.51089029 66.33957729 C495.59598545 53.07952547 493.32738121 42.65742704 485 32 C484.52175781 31.38382813 484.04351562 30.76765625 483.55078125 30.1328125 C477.95666939 23.79187966 468.36591085 18.58539195 460 17 C457.72374021 16.90543168 455.44486889 16.86908656 453.16664791 16.86577892 C452.47647163 16.86342669 451.78629535 16.86107446 451.07520464 16.85865095 C448.75136886 16.85196849 446.42758909 16.85241895 444.10374451 16.85282898 C442.42521249 16.84952988 440.74668127 16.84580422 439.06815106 16.8416875 C434.44658189 16.83166453 429.82502572 16.82795022 425.20344722 16.82529819 C420.22234156 16.82139601 415.24124619 16.81181759 410.26014709 16.80308533 C398.22606309 16.7833182 386.19197824 16.77325426 374.15788206 16.76435754 C368.49143948 16.75997493 362.82499783 16.75460804 357.15855598 16.74936867 C338.32291451 16.73235592 319.48727361 16.71786171 300.65162563 16.71061993 C295.76311174 16.70871002 290.87459786 16.70678969 285.98608398 16.70483398 C284.77106058 16.70435024 283.55603717 16.7038665 282.30419488 16.7033681 C262.62127823 16.69506767 242.93842236 16.66973072 223.25553226 16.63725331 C203.04959955 16.60418456 182.84369772 16.58617132 162.63773781 16.58297569 C151.29202225 16.58081039 139.9463953 16.57205885 128.6007061 16.54651451 C118.93817041 16.52481005 109.27574485 16.51675587 99.61318754 16.52648129 C94.68423733 16.53102673 89.75551437 16.52912544 84.82659531 16.50971985 C80.31040093 16.49209297 75.79459967 16.49308209 71.27840114 16.50861714 C69.64845213 16.51099393 68.01847593 16.50666596 66.38856845 16.49478849 C53.10721233 16.40403392 42.67581523 18.65825084 32 27 Z " fill="#000000" transform="translate(0,0)"/>
<path d="M0 0 C0.83898496 -0.00750224 1.67796992 -0.01500447 2.54237866 -0.02273405 C5.35822059 -0.04409336 8.173646 -0.04395043 10.98956299 -0.04379272 C13.0067103 -0.05440456 15.02385151 -0.06623436 17.04098511 -0.07919312 C22.52459919 -0.1100054 28.00808277 -0.1211185 33.49177456 -0.12683535 C36.91778233 -0.131187 40.34375618 -0.13955996 43.7697525 -0.14933395 C55.72227207 -0.18309321 67.67469279 -0.20021675 79.6272583 -0.20297241 C90.76776758 -0.20600653 101.90772165 -0.2464411 113.04806972 -0.30412066 C122.612549 -0.35189667 132.17684502 -0.37270447 141.74144292 -0.37276304 C147.45395672 -0.37330124 153.16592715 -0.38490254 158.87831879 -0.42393875 C164.25315491 -0.45979651 169.62697798 -0.46208753 175.00187302 -0.43876648 C176.97230654 -0.43590588 178.94279965 -0.44496486 180.91311264 -0.46694565 C197.65875687 -0.64214314 197.65875687 -0.64214314 202.76478577 3.7464447 C203.79751704 4.93585182 204.79604693 6.15611546 205.7522583 7.40786743 C206.92262067 8.56436091 208.10593018 9.70802823 209.30670166 10.83291626 C210.48782204 12.00758158 211.66622397 13.18498568 212.84210205 14.36489868 C213.78709312 15.30845467 213.78709312 15.30845467 214.75117493 16.27107239 C216.06567033 17.58489375 217.37892985 18.89995273 218.690979 20.21621704 C220.70570602 22.236358 222.72579215 24.25103126 224.74639893 26.26528931 C226.0286212 27.54817144 227.31053375 28.83136324 228.59210205 30.11489868 C229.49822487 31.01798515 229.49822487 31.01798515 230.4226532 31.9393158 C235.16137633 36.70496716 235.90773561 39.03628966 235.97686768 45.57632446 C235.98825775 46.31479111 235.99964783 47.05325775 236.01138306 47.81410217 C236.12212509 55.54795502 236.16948455 63.28276366 236.21221924 71.01724243 C236.23447044 74.68406132 236.27620044 78.34985855 236.33526611 82.01626587 C236.4065065 86.44721993 236.4430737 90.87721466 236.45533752 95.30871201 C236.46571446 96.99361719 236.48808275 98.67849477 236.52293396 100.36307144 C236.8138724 115.19675105 236.8138724 115.19675105 232.57891846 120.04824829 C231.31986564 121.18664105 230.04469663 122.30752419 228.7522583 123.40786743 C227.73825119 124.60095943 226.75017943 125.81663749 225.79083252 127.05410767 C204.71131327 153.14692948 204.71131327 153.14692948 191.378479 155.21458435 C183.38325931 155.96624802 175.49093975 155.40867696 167.51750183 154.6477356 C160.34286445 154.06118469 156.14271103 156.08927164 150.40460205 160.01333618 C139.23512971 169.7860457 139.23512971 169.7860457 134.48101807 183.20083618 C134.45983073 184.66557962 134.44786707 186.13047679 134.44366455 187.59536743 C134.41851344 189.19693371 134.39311529 190.79849613 134.36749268 192.40005493 C134.33873424 194.9081835 134.31469572 197.41624529 134.29595947 199.92446899 C134.27426799 202.35677506 134.23484012 204.78832447 134.19366455 207.22036743 C134.19354874 207.96633179 134.19343292 208.71229614 134.1933136 209.48086548 C134.10870862 213.94765043 133.60247252 216.91085052 130.7522583 220.40786743 C127.10242359 222.91712666 123.30877784 222.6772337 119.04620361 222.63491821 C118.27508743 222.63521027 117.50397125 222.63550232 116.70948792 222.63580322 C114.1663377 222.63441236 111.6234822 222.6188627 109.0803833 222.60317993 C107.31490234 222.59944894 105.54941932 222.59660237 103.78393555 222.59460449 C99.14129908 222.58697486 94.49878811 222.5673321 89.85620117 222.54519653 C85.11714373 222.52472369 80.37806598 222.5155997 75.63897705 222.50552368 C66.34334905 222.4840856 57.04781412 222.44995771 47.7522583 222.40786743 C47.65307244 217.10600184 47.58064075 211.80468125 47.53253174 206.50210571 C47.51246797 204.69992662 47.48521017 202.89781222 47.45050049 201.09585571 C47.40175001 198.49917607 47.37923748 195.90336014 47.3616333 193.30630493 C47.34098816 192.50606903 47.32034302 191.70583313 47.29907227 190.88134766 C47.29642056 184.20797696 49.56168459 180.83565996 54.03535461 175.87753296 C54.8701384 175.04417419 55.70492218 174.21081543 56.56500244 173.35220337 C57.02893906 172.88636841 57.49287567 172.42053345 57.97087097 171.94058228 C59.48822735 170.41955525 61.01260206 168.90579166 62.53741455 167.39224243 C63.60104785 166.32980282 64.66431002 165.26699153 65.72721863 164.2038269 C67.94740816 161.98519565 70.17089877 159.76994689 72.39703369 157.55728149 C75.24915948 154.72219642 78.09460639 151.88052125 80.93784428 149.03652573 C83.12941763 146.84522425 85.32358698 144.65653814 87.51864433 142.46872711 C88.5690109 141.42153937 89.61877585 140.37374783 90.66792488 139.32534027 C92.13242353 137.86301058 93.6001681 136.40402088 95.06890869 134.94595337 C95.90289688 134.11577698 96.73688507 133.28560059 97.59614563 132.43026733 C101.08200506 129.16058581 103.07023181 128.15928327 107.76763916 128.18423462 C109.3008506 128.18347931 109.3008506 128.18347931 110.86503601 128.18270874 C112.5243087 128.19361542 112.5243087 128.19361542 114.21710205 128.20474243 C116.56801901 128.19418484 118.91893083 128.18242681 121.26983643 128.16958618 C124.96938718 128.15931577 128.66821994 128.1577502 132.36773682 128.17788696 C135.94313546 128.19276945 139.51681278 128.17005244 143.09210205 128.14224243 C144.18006577 128.15761047 145.26802948 128.17297852 146.38896179 128.18881226 C154.97251321 128.08167472 163.20574803 125.81792987 169.5353241 119.67831421 C174.32734498 113.35608327 175.06748156 106.97461301 175.0881958 99.35317993 C175.0948526 98.49280121 175.1015094 97.63242249 175.10836792 96.74597168 C175.11845733 94.93228278 175.12318609 93.11855703 175.12286377 91.30484009 C175.12723401 88.5481881 175.16358374 85.79314262 175.20147705 83.03677368 C175.20734682 81.26724786 175.21131514 79.49771449 175.2131958 77.72817993 C175.23475235 76.50592209 175.23475235 76.50592209 175.25674438 75.25897217 C175.19336169 67.21559415 172.16099298 61.3315952 166.57452393 55.63442993 C165.82718994 54.90353149 165.82718994 54.90353149 165.0647583 54.15786743 C164.34642822 53.40376587 164.34642822 53.40376587 163.61358643 52.63442993 C157.17054831 46.21659275 150.15882995 43.96693509 141.16944885 43.86575317 C140.10163681 43.8738501 139.03382477 43.88194702 137.93365479 43.89028931 C136.20994659 43.87977539 136.20994659 43.87977539 134.45141602 43.86904907 C130.67514463 43.85152818 126.89963028 43.86307094 123.12335205 43.87661743 C120.48736935 43.87392103 117.85138763 43.87003738 115.21540833 43.86502075 C109.70034671 43.85776479 104.18550009 43.86727881 98.67047119 43.88638306 C92.31109067 43.90815895 85.95222307 43.90108744 79.59285492 43.87907743 C73.45199738 43.85868155 67.31136574 43.86091189 61.17048836 43.87260437 C58.56743357 43.87526777 55.96436565 43.87201557 53.36132622 43.86268616 C49.72102295 43.85250047 46.0816979 43.86805148 42.44146729 43.89028931 C41.37163101 43.88219238 40.30179474 43.87409546 39.19953918 43.86575317 C30.30808849 43.96611523 24.29884488 46.37989833 17.9788208 52.63442993 C17.49155518 53.13716431 17.00428955 53.63989868 16.5022583 54.15786743 C15.99952393 54.64513306 15.49678955 55.13239868 14.9788208 55.63442993 C6.86205917 63.83618383 6.2171383 71.28087514 6.2522583 82.59536743 C6.25992667 85.08886698 6.25020122 87.58249574 6.2210083 90.07583618 C6.22552002 91.17178101 6.23003174 92.26772583 6.23468018 93.3968811 C5.64212065 97.0952802 4.32990696 98.74283576 1.7522583 101.40786743 C-3.48305342 104.02552329 -11.81260918 102.76410871 -17.64105225 102.81289673 C-19.58198834 102.83448613 -21.52282683 102.86860029 -23.46331787 102.91543579 C-26.26299465 102.98239546 -29.06065871 103.00988716 -31.86102295 103.02896118 C-33.15813957 103.07070717 -33.15813957 103.07070717 -34.48146057 103.11329651 C-38.79801729 103.09858392 -40.73325466 102.785386 -44.29510498 100.17178345 C-47.61586131 95.28766784 -46.93939446 89.22917643 -46.87664795 83.56411743 C-46.87905991 82.3216626 -46.88147186 81.07920776 -46.88395691 79.79910278 C-46.88272908 76.50645693 -46.85772421 73.21501349 -46.82421875 69.9225769 C-46.81025248 67.90942138 -46.81382248 65.89711044 -46.82415771 63.88394165 C-46.84294981 60.00610982 -46.83349426 56.12942882 -46.81414795 52.25161743 C-46.81910782 51.05460205 -46.82406769 49.85758667 -46.82917786 48.6242981 C-46.6805327 38.09880337 -42.64702884 33.49350966 -35.4352417 26.36489868 C-34.4591394 25.38948372 -34.4591394 25.38948372 -33.46331787 24.3943634 C-32.09402457 23.02807708 -30.72231583 21.66420769 -29.34832764 20.30264282 C-27.24910016 18.22171405 -25.1580276 16.13285187 -23.0680542 14.04263306 C-21.73258818 12.71208155 -20.39666614 11.38198754 -19.0602417 10.05239868 C-18.43722168 9.43049149 -17.81420166 8.80858429 -17.17230225 8.16783142 C-16.58489258 7.58680161 -15.99748291 7.00577179 -15.39227295 6.40713501 C-14.88027344 5.8989473 -14.36827393 5.39075958 -13.84075928 4.86717224 C-13.05221558 4.14481636 -13.05221558 4.14481636 -12.2477417 3.40786743 C-11.72499538 2.89118154 -11.20224907 2.37449564 -10.66366196 1.8421526 C-7.20676053 -0.21014297 -3.90701562 -0.01974203 0 0 Z " fill="#FDC100" transform="translate(165.24774169921875,93.59213256835938)"/>
<path d="M0 0 C1.29183108 -0.00657338 1.29183108 -0.00657338 2.60975975 -0.01327956 C5.5068454 -0.02667554 8.40390062 -0.03284827 11.30101013 -0.03897095 C13.37387225 -0.04687141 15.44673299 -0.05514032 17.51959229 -0.06375122 C24.33791285 -0.08998209 31.15623958 -0.10528187 37.97459412 -0.11953735 C40.32173606 -0.12489696 42.66887796 -0.13027447 45.01601982 -0.13566971 C54.78086216 -0.15730172 64.54570284 -0.17603764 74.31056309 -0.1872921 C88.30316891 -0.20352513 102.29549676 -0.23668385 116.28799778 -0.29369295 C126.12677437 -0.33241083 135.96547667 -0.35192712 145.80432743 -0.35721266 C151.68002707 -0.3608641 157.55543031 -0.3728635 163.43104744 -0.4053154 C168.9624636 -0.43542746 174.4934045 -0.44169639 180.02488518 -0.42993164 C182.050915 -0.42971116 184.07696706 -0.4379951 186.10292053 -0.45558548 C198.00565206 -0.55327323 206.49479816 -0.27239156 216.27644348 7.13723755 C216.91723846 7.77405457 217.55803345 8.41087158 218.21824646 9.06698608 C218.96536896 9.79834778 219.71249146 10.52970947 220.48225403 11.28323364 C221.24929657 12.06039734 222.01633911 12.83756104 222.80662537 13.63827515 C224.03634567 14.86082001 224.03634567 14.86082001 225.29090881 16.10806274 C227.00948814 17.82325997 228.72185155 19.54470607 230.4282074 21.27206421 C233.02950535 23.90017966 235.65646642 26.50049217 238.28709412 29.09921265 C239.9618769 30.77729914 241.63510817 32.45693583 243.30662537 34.13827515 C244.47540726 35.29187531 244.47540726 35.29187531 245.6678009 36.46878052 C256.02417156 47.04929644 256.27437749 56.62560767 256.22459412 70.8374939 C256.22983714 72.66155818 256.23611609 74.48561976 256.24337769 76.30967712 C256.25375144 80.12156995 256.24926426 83.93308876 256.23460388 87.7449646 C256.21742257 92.6081902 256.24091898 97.47023351 256.27609348 102.33332729 C256.2981487 106.09711909 256.29660641 109.86063152 256.28832817 113.62446785 C256.28751306 115.41646687 256.29429155 117.20848731 256.3090992 119.00042534 C256.40829012 133.17489872 254.61049976 141.66287573 244.40203857 152.13043213 C243.60613815 152.91934845 242.81023773 153.70826477 241.99021912 154.52108765 C241.15536484 155.36309723 240.32051056 156.20510681 239.46035767 157.07263184 C237.70236665 158.83836288 235.93803356 160.59780023 234.16770935 162.35116577 C231.4763485 165.02328 228.81565454 167.7234755 226.15623474 170.42733765 C224.43600155 172.14786119 222.71405208 173.86667081 220.99021912 175.58358765 C220.20443985 176.38464935 219.41866058 177.18571106 218.60906982 178.01104736 C212.42309499 184.07000724 206.14275035 188.15766524 197.28514099 188.54110718 C195.83615939 188.51539598 194.38740134 188.4718002 192.93943787 188.41171265 C191.33137978 188.39697329 189.72330465 188.384006 188.11521912 188.37265015 C185.63254732 188.33339066 183.15286069 188.27871396 180.67137146 188.19198608 C168.81335604 187.75112641 168.81335604 187.75112641 158.55662537 193.11483765 C152.74883562 200.16608044 153.46163863 207.99194175 153.78318787 216.65390015 C153.85496489 219.72685376 153.89786848 222.79892075 153.91600037 225.87265015 C153.92103577 226.60337738 153.92607117 227.33410461 153.93125916 228.0869751 C153.84759345 236.55232453 151.12749011 243.48833123 145.36912537 249.68515015 C138.66174312 255.44308559 131.38005131 256.30335022 122.83811951 256.34677124 C121.94823837 256.35494873 121.05835724 256.36312622 120.14151001 256.37155151 C117.2004615 256.39633963 114.2594609 256.41290126 111.31834412 256.42733765 C110.31325743 256.43266132 109.30817074 256.437985 108.27262688 256.44347 C102.95657489 256.47016805 97.64054617 256.48955696 92.32444763 256.5039978 C87.92352106 256.51735838 83.52305581 256.54525488 79.12229919 256.58602905 C73.80732058 256.63527141 68.49276163 256.66010786 63.17756462 256.66722488 C61.15253046 256.67394644 59.127506 256.68919188 57.10260201 256.71311569 C54.27045214 256.74467837 51.43992977 256.74481791 48.60765076 256.73739624 C47.77164337 256.75380157 46.93563599 256.77020691 46.07429504 256.78710938 C41.74474084 256.74064968 40.15646921 256.55485221 36.66134644 253.74243164 C34.00946786 250.31560797 33.52742337 248.68579854 33.44944763 244.43563843 C33.43015701 243.45346344 33.41086639 242.47128845 33.39099121 241.45935059 C33.33303951 236.93048805 33.28388667 232.40178581 33.25315857 227.87265015 C33.23167186 225.49457189 33.19768176 223.11657069 33.15061951 220.73886108 C33.08311952 217.29612164 33.05606798 213.85502346 33.03709412 210.41171265 C33.00926346 209.36435944 32.9814328 208.31700623 32.95275879 207.23791504 C32.98801251 194.35757361 39.25013834 185.78451314 48.06098938 176.99436951 C49.15274939 175.92330254 50.24505815 174.85279468 51.33787537 173.7828064 C52.47708616 172.64718337 53.61517758 171.51043646 54.75221252 170.37263489 C57.1217024 168.00780155 59.50080629 165.65327503 61.88816833 163.30648804 C64.93177931 160.31398818 67.95512051 157.30197225 70.97213554 154.28268528 C73.31514746 151.94049281 75.66592429 149.60622647 78.0193367 147.27448845 C79.13652379 146.16677207 80.25196971 145.05729649 81.36555099 143.94595528 C97.27113222 128.10739369 97.27113222 128.10739369 107.80052185 127.96444702 C109.37246559 127.93937073 109.37246559 127.93937073 110.97616577 127.91378784 C112.107444 127.9002124 113.23872223 127.88663696 114.40428162 127.87265015 C115.56694046 127.85424072 116.7295993 127.8358313 117.92749023 127.81686401 C121.65017079 127.75804516 125.3728974 127.70526222 129.09568787 127.65390015 C133.99031696 127.58627469 138.88479901 127.51258517 143.77928162 127.43515015 C145.47316261 127.41478699 145.47316261 127.41478699 147.20126343 127.39401245 C148.77793541 127.36893616 148.77793541 127.36893616 150.38645935 127.34335327 C151.77187172 127.32456116 151.77187172 127.32456116 153.18527222 127.3053894 C155.52663683 127.16195888 157.47055066 127.00680418 159.65818787 126.15390015 C161.48835022 120.66341307 161.04413451 114.59647298 161.1181488 108.84066772 C161.14469579 107.26646398 161.18555647 105.69243218 161.24119568 104.11898804 C161.88616917 93.49611909 161.88616917 93.49611909 157.37693787 84.2593689 C155.59861516 82.56639409 155.59861516 82.56639409 153.65818787 81.15390015 C153.05606318 80.63800701 152.4539385 80.12211388 151.83356762 79.59058762 C149.29736183 77.91559957 147.9592462 77.76543078 144.94781494 77.73257446 C143.5328775 77.70687881 143.5328775 77.70687881 142.08935547 77.68066406 C140.54718605 77.6756337 140.54718605 77.6756337 138.97386169 77.67050171 C137.88558075 77.65560699 136.7972998 77.64071228 135.67604065 77.62536621 C132.07237571 77.5815198 128.46910709 77.56109788 124.86521912 77.54452515 C122.35900869 77.52726716 119.85279836 77.509994 117.34658813 77.4927063 C112.76035927 77.46520917 108.17424385 77.4463077 103.58794194 77.43721604 C96.85430521 77.42379169 90.122501 77.37123244 83.38942128 77.28421426 C77.54384887 77.21131055 71.69888283 77.1883717 65.85289574 77.18318939 C63.37337464 77.17412473 60.89386035 77.15008837 58.41463661 77.11063385 C54.93818953 77.05926585 51.46616275 77.06512753 47.98948669 77.08456421 C46.9714949 77.05691986 45.95350311 77.02927551 44.90466309 77.00079346 C38.82657195 77.10686243 35.8967309 78.28710255 31.51248169 82.59573364 C27.75885671 86.77076713 26.54724148 88.83352287 26.48240662 94.4312439 C26.45855896 95.50309937 26.4347113 96.57495483 26.41014099 97.67929077 C26.36783975 99.91869263 26.33623488 102.15832733 26.31639099 104.39804077 C26.09467451 113.06560821 24.89914025 121.24813702 19.22068787 128.09140015 C18.37506287 128.77202515 17.52943787 129.45265015 16.65818787 130.15390015 C15.85381287 130.87577515 15.04943787 131.59765015 14.22068787 132.34140015 C8.23125148 136.57783076 2.13552996 136.47366449 -4.92774963 136.48983765 C-6.45137619 136.49982285 -6.45137619 136.49982285 -8.00578308 136.51000977 C-10.14902442 136.5201094 -12.29229703 136.52482762 -14.43556213 136.52450562 C-17.6991146 136.52887644 -20.96131131 136.56521918 -24.22462463 136.6031189 C-26.31316171 136.60898822 -28.40170516 136.61295684 -30.49024963 136.61483765 C-31.45820465 136.62920868 -32.42615967 136.64357971 -33.42344666 136.65838623 C-40.70733005 136.60972241 -45.79176057 134.90597552 -51.54884338 130.44296265 C-58.08942751 123.66367107 -60.4067494 117.56396538 -60.55055237 108.17709351 C-60.56984299 106.99493759 -60.58913361 105.81278168 -60.60900879 104.59480286 C-60.66713107 99.18784497 -60.71632796 93.78104264 -60.74684143 88.37387085 C-60.76458937 85.53095861 -60.79931183 82.68905055 -60.84938049 79.8465271 C-60.91014369 76.39115881 -60.94039206 72.93671383 -60.95001411 69.48083687 C-60.96254825 67.54886778 -61.00446506 65.61715931 -61.04724121 63.68562317 C-61.01956892 51.67499685 -56.92205172 43.09224335 -48.53092957 34.58628845 C-47.82141144 33.89832687 -47.11189331 33.2103653 -46.38087463 32.5015564 C-45.63147614 31.75353256 -44.88207764 31.00550873 -44.10997009 30.2348175 C-42.53875898 28.67258819 -40.96034493 27.11757171 -39.37501526 25.56967163 C-36.96351972 23.21318283 -34.57714217 20.83332438 -32.19337463 18.44882202 C-30.65311845 16.92330805 -29.11149746 15.39917058 -27.56837463 13.8765564 C-26.86290497 13.1744252 -26.1574353 12.47229401 -25.43058777 11.74888611 C-17.52132512 4.06199359 -11.19212494 0.0068835 0 0 Z M-17.34181213 28.15390015 C-18.50456113 29.29896446 -19.67975397 30.43176925 -20.87550354 31.54232788 C-24.6384568 35.27495946 -24.6384568 35.27495946 -28.39112854 39.01791382 C-29.99562224 40.62017007 -31.60804151 42.21418202 -33.22071838 43.80819702 C-34.25375654 44.83830875 -35.28632719 45.86888959 -36.31837463 46.8999939 C-37.2369928 47.81450317 -38.15561096 48.72901245 -39.10206604 49.67123413 C-42.69578327 53.65472122 -43.59042286 56.39221856 -43.64820862 61.74520874 C-43.66419601 62.86672333 -43.68018341 63.98823792 -43.69665527 65.14373779 C-43.70201797 66.35107574 -43.70738068 67.5584137 -43.71290588 68.80233765 C-43.72193436 70.04762238 -43.73096283 71.2929071 -43.74026489 72.57592773 C-43.75477414 75.21046409 -43.76445077 77.84456662 -43.76734924 80.47909546 C-43.77166186 83.17578304 -43.79254346 85.87151831 -43.82887268 88.56796265 C-43.87765197 92.45888403 -43.89313206 96.34864225 -43.90040588 100.23983765 C-43.9199382 101.44312714 -43.93947052 102.64641663 -43.95959473 103.88616943 C-44.02469222 110.75255652 -44.02469222 110.75255652 -41.38697815 116.9156189 C-37.20301844 119.99094501 -34.13551046 119.98975102 -29.06056213 119.88046265 C-27.72390503 119.88195816 -27.72390503 119.88195816 -26.36024475 119.88348389 C-24.48079993 119.87881387 -22.60134131 119.85942315 -20.72218323 119.82626343 C-17.85076183 119.77904731 -14.98305475 119.78514782 -12.11134338 119.7984314 C-10.28189424 119.7872772 -8.45246068 119.77305699 -6.62306213 119.75546265 C-5.76772888 119.75728546 -4.91239563 119.75910828 -4.03114319 119.76098633 C0.04511927 119.66437235 2.15658471 119.47182564 5.67576599 117.24130249 C8.90910639 113.8367384 8.78753246 111.72442707 8.83396912 107.11483765 C8.85781677 105.89409546 8.88166443 104.67335327 8.90623474 103.4156189 C8.94881213 100.84807341 8.98027269 98.28031673 8.99998474 95.7124939 C9.24825213 84.70789735 11.56493393 78.5058232 19.40818787 70.90390015 C19.89545349 70.40116577 20.38271912 69.8984314 20.88475037 69.38046265 C27.20477444 63.12593105 33.21401805 60.71214794 42.10546875 60.61178589 C43.71022316 60.62393127 43.71022316 60.62393127 45.34739685 60.63632202 C47.06847656 60.62580811 47.06847656 60.62580811 48.82432556 60.61508179 C52.60122685 60.59753763 56.37737325 60.60911354 60.15428162 60.62265015 C62.78929792 60.61995404 65.42431326 60.61607064 68.05932617 60.61105347 C73.57616788 60.60379277 79.09279484 60.6133219 84.60960388 60.63241577 C90.96837579 60.65417096 97.32663432 60.6471371 103.68539375 60.62511015 C109.82571181 60.60469911 115.9658041 60.6069512 122.10614204 60.61863708 C124.70837031 60.62129896 127.31061174 60.61805368 129.91282463 60.60871887 C133.55542681 60.59851962 137.19705443 60.61410408 140.83958435 60.63632202 C141.90739639 60.6282251 142.97520844 60.62012817 144.07537842 60.61178589 C153.06475952 60.71296781 160.07647788 62.96262546 166.51951599 69.38046265 C167.23784607 70.13456421 167.23784607 70.13456421 167.97068787 70.90390015 C168.71802185 71.63479858 168.71802185 71.63479858 169.48045349 72.38046265 C175.03052688 78.04051107 178.08336879 83.93990876 178.213974 91.92805481 C178.20587708 92.73348221 178.19778015 93.53890961 178.18943787 94.3687439 C178.19326477 95.22392105 178.19709167 96.07909821 178.20103455 96.96018982 C178.20374039 98.75776353 178.19647279 100.55537752 178.17967224 102.35287476 C178.15826885 105.08107709 178.1795044 107.80663863 178.20506287 110.53475952 C178.20241884 112.29192671 178.1972923 114.04909227 178.18943787 115.8062439 C178.19753479 116.60964706 178.20563171 117.41305023 178.213974 118.24079895 C178.09735874 125.40243809 175.91612248 131.23186711 171.53318787 136.90390015 C163.47179049 143.21281983 156.54934191 144.84666064 146.43943787 144.54452515 C144.10220383 144.53174863 141.76496361 144.52006301 139.42771912 144.5093689 C135.78696769 144.46368142 132.14744434 144.40366019 128.50730896 144.32235718 C124.96305547 144.25301205 121.42178721 144.23948786 117.87693787 144.23202515 C116.80061096 144.19176208 115.72428406 144.15149902 114.61534119 144.11001587 C108.54644374 144.12892098 105.13278648 145.00768042 100.53904724 149.07748413 C98.8900545 150.74815247 97.26334217 152.44106932 95.65818787 154.15390015 C93.97894695 155.7935425 92.29528222 157.42866543 90.60740662 159.05941772 C88.85072864 160.80296745 87.09691759 162.54940949 85.34568787 164.2984314 C84.40076936 165.24012506 83.45578092 166.18174857 82.51072693 167.12330627 C80.55275412 169.0753583 78.59678971 171.02939683 76.64207458 172.98471069 C74.14114789 175.48574003 71.6333453 177.97975479 69.12384033 180.47217274 C66.71413336 182.86810508 64.31161072 185.27119544 61.90818787 187.6734314 C61.00930847 188.56512527 60.11042908 189.45681915 59.18431091 190.37553406 C58.35584656 191.20707504 57.5273822 192.03861603 56.67381287 192.89535522 C55.94452576 193.62321732 55.21523865 194.35107941 54.46385193 195.10099792 C50.35681795 199.77038208 50.3855909 203.78842296 50.46287537 209.85702515 C50.46712021 211.11371002 50.46712021 211.11371002 50.47145081 212.39578247 C50.48262438 215.06530178 50.50772366 217.73448265 50.53318787 220.40390015 C50.54322132 222.21639529 50.55234653 224.02889571 50.56053162 225.84140015 C50.58255446 230.27903007 50.61706483 234.71640777 50.65818787 239.15390015 C60.87211114 239.22343053 71.08597804 239.27672689 81.30008984 239.30933666 C86.0429947 239.32498824 90.78573756 239.34621729 95.52854919 239.38021851 C100.10619002 239.41282999 104.68367508 239.43075698 109.26142311 239.43853188 C111.00732691 239.44407217 112.75322224 239.45489103 114.49905968 239.47109032 C116.94576268 239.49288857 119.3918232 239.4958661 121.83860779 239.49447632 C122.55933975 239.50526215 123.28007172 239.51604797 124.02264404 239.52716064 C128.41535642 239.50018664 131.14515429 238.81396937 134.65818787 236.15390015 C137.37378853 232.61430456 136.93736716 228.44107505 136.93162537 224.16952515 C136.95192395 222.5783724 136.97277491 220.98722662 136.99412537 219.39608765 C137.01665157 216.90351474 137.03317061 214.41121836 137.03904724 211.91854858 C137.04864169 209.50170618 137.08250697 207.08608911 137.11912537 204.66952515 C137.1140799 203.93590759 137.10903442 203.20229004 137.10383606 202.44644165 C137.25107397 194.59531804 140.52636895 188.79442491 146.03123474 183.33163452 C146.54750427 182.83985718 147.0637738 182.34807983 147.59568787 181.84140015 C148.10809021 181.33028687 148.62049255 180.81917358 149.14842224 180.29257202 C153.84603845 175.70239811 158.29698252 172.82226677 164.65818787 171.15390015 C168.16453552 171.40634155 168.16453552 171.40634155 172.07225037 172.00546265 C184.29724818 173.35627736 196.55113763 174.28011108 206.90135193 166.61434937 C217.80475421 157.59631507 232.24118704 144.98790179 238.65818787 132.15390015 C238.78724334 129.75576038 238.85743039 127.385199 238.88279724 124.98544312 C238.89988235 123.87774315 238.89988235 123.87774315 238.91731262 122.74766541 C239.02805466 115.01381256 239.07541411 107.27900392 239.1181488 99.54452515 C239.1404 95.87770626 239.18213001 92.21190903 239.24119568 88.54550171 C239.31243607 84.11454765 239.34900326 79.68455291 239.36126709 75.25305557 C239.37164402 73.56815038 239.39401232 71.88327281 239.42886353 70.19869614 C239.95361589 59.664737 239.95361589 59.664737 235.54808044 50.49984741 C234.27975278 49.35244785 232.98294859 48.23565328 231.65818787 47.15390015 C230.50491655 45.98036255 229.36305653 44.79549679 228.23313904 43.59945679 C227.05847371 42.41833641 225.88106962 41.23993448 224.70115662 40.0640564 C223.75760063 39.11906532 223.75760063 39.11906532 222.79498291 38.15498352 C221.48116155 36.84048812 220.16610257 35.5272286 218.84983826 34.21517944 C216.8296973 32.20045243 214.81502404 30.1803663 212.80076599 28.15975952 C211.51788385 26.87753725 210.23469206 25.5956247 208.95115662 24.3140564 C208.34909897 23.70997452 207.74704132 23.10589264 207.1267395 22.48350525 C202.10889766 17.49401664 199.56721594 16.9997832 192.6778717 16.95962524 C191.84341786 16.9510096 191.00896401 16.94239395 190.14922369 16.93351722 C187.33664112 16.90598592 184.52405605 16.88581559 181.71141052 16.86581421 C179.70105241 16.848098 177.6906968 16.83009605 175.68034363 16.81182861 C157.30015394 16.65260032 138.91920987 16.56843015 120.53847694 16.50183487 C106.95322163 16.45162389 93.36917582 16.36574969 79.78446925 16.23321366 C70.23190355 16.14315941 60.67966924 16.09537776 51.1266979 16.07825637 C45.42252021 16.06680235 39.71988829 16.03656814 34.01617813 15.96030426 C28.64268257 15.88923073 23.27149163 15.87068652 17.89759064 15.89142227 C15.93197542 15.88999948 13.96626548 15.86991867 12.00107193 15.82918167 C-1.71304973 15.55964625 -8.35915845 17.44435021 -17.34181213 28.15390015 Z " fill="#030200" transform="translate(162.34181213378906,76.84609985351563)"/>
<path d="M0 0 C11.58215192 -0.9390934 22.07998046 1.78661179 31.16015625 9.2734375 C39.87484464 17.45155272 46.35535247 26.17041309 47.25299966 38.46527737 C47.25440851 39.69248385 47.25581736 40.91969034 47.25726891 42.18408489 C47.26077498 42.87573473 47.26428105 43.56738458 47.26789337 44.2799935 C47.27717561 46.59085219 47.27229235 48.9014571 47.26742554 51.21232605 C47.27116341 52.88861095 47.27576548 54.56489412 47.28115618 56.24117452 C47.29338482 60.84265227 47.29312587 65.44405731 47.29076743 70.0455476 C47.29035923 75.01026537 47.3013988 79.97495984 47.31088257 84.93966675 C47.32749313 94.66504735 47.33299215 104.3904037 47.33410732 114.1157973 C47.33505783 122.02218678 47.33916828 129.92856827 47.34550858 137.83495522 C47.36312165 160.25518834 47.37234742 182.67540232 47.37084763 205.09564241 C47.37076772 206.30423911 47.3706878 207.5128358 47.37060547 208.75805664 C47.37052371 209.96813062 47.37044195 211.17820459 47.37035771 212.42494748 C47.36954494 232.0326367 47.38868021 251.64024907 47.4168822 271.24791607 C47.44561693 291.38502208 47.45942215 311.52209062 47.45769465 331.65921766 C47.45703092 342.96299663 47.46251569 354.26669506 47.48405075 365.57045555 C47.50227032 375.19556641 47.50660351 384.82056023 47.4930319 394.44568088 C47.48650603 399.35451902 47.48637135 404.26313266 47.5037384 409.17194939 C47.51949103 413.67081338 47.51658314 418.16927528 47.49917014 422.6681296 C47.49610505 424.29060139 47.49971403 425.91310334 47.51089029 427.53553953 C47.59710756 440.94592171 45.55083814 452.2438362 37 463 C36.52175781 463.61488281 36.04351562 464.22976563 35.55078125 464.86328125 C29.71968218 471.4875273 19.76825301 476.88813485 11 478 C9.06348981 478.06533435 7.12497139 478.08584303 5.1875 478.0625 C4.21167969 478.05347656 3.23585938 478.04445313 2.23046875 478.03515625 C1.12638672 478.01775391 1.12638672 478.01775391 0 478 C0.66 477.360625 1.32 476.72125 2 476.0625 C3.00191959 475.04355062 4.00162979 474.02242732 5 473 C5.62777344 472.37996094 6.25554687 471.75992187 6.90234375 471.12109375 C14.95683637 462.7264882 20.18985388 452.46655657 20.0625 440.75 C20.05347656 439.67234375 20.04445313 438.5946875 20.03515625 437.484375 C20.02355469 436.66453125 20.01195312 435.8446875 20 435 C19.34 435 18.68 435 18 435 C17.62875 436.0828125 17.62875 436.0828125 17.25 437.1875 C14.05181048 444.38342641 8.54979534 447.80964244 1.6875 451.11328125 C-6.21361654 453.72019034 -15.11362298 452.9291611 -22.5625 449.4375 C-30.07508148 445.11146315 -34.35394775 439.96261506 -37.3046875 431.8046875 C-39.54466079 422.76928961 -38.58090206 414.0914999 -34 406 C-29.96802057 399.73756387 -24.19319577 395.6845697 -17.109375 393.38671875 C-6.50872486 391.44326622 2.33894522 393.29854111 11.25 399.125 C14 402 14 402 20 412 C20 298.48 20 184.96 20 68 C19.34 68 18.68 68 18 68 C17.773125 68.70125 17.54625 69.4025 17.3125 70.125 C14.02811866 77.31935913 9.06175837 80.8291568 2 84 C-6.01961635 86.61257605 -15.22722261 85.76950909 -22.78515625 82.25390625 C-30.17068163 78.07268288 -34.97145138 72.25361487 -37.61328125 64.109375 C-39.43243278 54.18673027 -37.97364574 45.60519921 -32.8203125 37.0390625 C-28.62972646 31.36069444 -22.61610827 28.14739971 -16 26 C-6.51920938 24.62169191 1.01985224 25.6747263 9 31 C10.36125 31.8353125 10.36125 31.8353125 11.75 32.6875 C15.26357668 36.29867604 17.56444117 40.61432018 20 45 C20.7529908 30.6722584 17.68211924 18.55639027 7.90625 7.66796875 C5.97753446 5.72877106 4.01358831 3.8503244 2 2 C1.34 1.34 0.68 0.68 0 0 Z " fill="#DC5819" transform="translate(448,17)"/>
<path d="M0 0 C1.68525185 0.00104017 3.37050614 -0.00000667 5.05575562 -0.00302124 C8.56749257 -0.00284297 12.07829997 0.01777303 15.58984375 0.05419922 C20.06619319 0.09964232 24.54119282 0.10063717 29.01770973 0.08716393 C32.4907305 0.08044773 35.96344952 0.09381141 39.43641281 0.11342239 C41.08603711 0.12105855 42.73569515 0.12345134 44.38533401 0.1202507 C55.01568573 0.11679997 63.5599836 0.91225332 72.6484375 6.9140625 C77.6390528 12.13679945 81.38701192 18.57898548 81.54467773 25.91577148 C81.56396835 26.75772568 81.58325897 27.59967987 81.60313416 28.46714783 C81.66135101 32.34222763 81.71023181 36.21712687 81.7409668 40.0925293 C81.76244543 42.12427879 81.79642614 44.15593834 81.84350586 46.18725586 C82.13766825 59.01001442 82.36637873 69.37540418 73.71142578 79.65625 C64.99364762 88.08906752 53.17521266 87.18682783 41.9296875 87.16015625 C40.23775016 87.16472515 38.54581468 87.17003282 36.85388184 87.17604065 C33.32031683 87.18494005 29.78697822 87.18258433 26.25341797 87.17260742 C21.74447372 87.1611115 17.23631195 87.18135463 12.7274704 87.21052456 C9.23739736 87.22894318 5.74751 87.22858305 2.25740051 87.22288704 C0.59575807 87.22273457 -1.06589756 87.22871678 -2.72749329 87.24117851 C-14.15571049 87.3148395 -23.35459629 86.51658165 -32.16015625 78.5078125 C-36.2240466 73.69447744 -38.75657883 66.84730786 -38.84106445 60.58154297 C-38.85389969 59.74992645 -38.86673492 58.91830994 -38.87995911 58.06149292 C-38.88734604 57.16463776 -38.89473297 56.26778259 -38.90234375 55.34375 C-38.9104155 54.41490997 -38.91848724 53.48606995 -38.92680359 52.52908325 C-38.94063746 50.5604234 -38.95136273 48.59173962 -38.95922852 46.62304688 C-38.97637847 43.63364143 -39.02026327 40.64536036 -39.06445312 37.65625 C-39.07458617 35.73959143 -39.08310035 33.82292349 -39.08984375 31.90625 C-39.10735184 31.02154022 -39.12485992 30.13683044 -39.14289856 29.22531128 C-39.11615905 21.45152324 -36.76056941 13.95688657 -31.35678101 8.12924194 C-21.72609833 0.14872979 -11.82822925 -0.14575959 0 0 Z " fill="#040200" transform="translate(234.6640625,357.2734375)"/>
<path d="M0 0 C0.69480972 -0.00511093 1.38961945 -0.01022186 2.10548401 -0.01548767 C4.39731512 -0.029363 6.68884482 -0.02842851 8.98071289 -0.02612305 C10.57727673 -0.0300111 12.17383953 -0.03434599 13.770401 -0.03910828 C17.11519729 -0.04656603 20.45988802 -0.04628244 23.8046875 -0.04101562 C28.08647907 -0.03522132 32.36783802 -0.05215294 36.64955807 -0.0753603 C39.94644183 -0.09010726 43.24322162 -0.09096805 46.54013252 -0.08785057 C48.11855488 -0.08836329 49.69698314 -0.09359185 51.27537346 -0.10366249 C53.4846478 -0.11602872 55.69308239 -0.10923494 57.90234375 -0.09765625 C59.78620033 -0.09860039 59.78620033 -0.09860039 61.70811462 -0.0995636 C65.27898838 0.30442612 67.14990762 1.1547777 70.01586914 3.2746582 C72.85029373 6.89966206 72.32169226 11.40479122 72.31665039 15.80200195 C72.32093552 16.6279335 72.32522064 17.45386505 72.32963562 18.30482483 C72.3353698 20.04891037 72.3358859 21.79301982 72.33154297 23.53710938 C72.32838429 26.19939144 72.35184819 28.86056042 72.37719727 31.52270508 C72.37947055 33.21996931 72.38017362 34.91723651 72.37915039 36.61450195 C72.38836014 37.40735092 72.39756989 38.20019989 72.40705872 39.01707458 C72.36915984 43.56521533 72.03584425 46.63147975 69.01586914 50.2746582 C65.43916153 52.66044053 62.16282945 52.54575606 57.93994141 52.58105469 C57.23537811 52.5893782 56.53081482 52.59770172 55.80490112 52.60627747 C53.48063602 52.63033232 51.15665168 52.63914315 48.83227539 52.64575195 C47.2132916 52.65472054 45.59430864 52.66384243 43.97532654 52.67311096 C40.58346544 52.68959037 37.19170295 52.69729936 33.79980469 52.70019531 C29.45725011 52.70558335 25.11562388 52.74328417 20.77333164 52.78893948 C17.43011603 52.81870398 14.08712436 52.8259187 10.74378777 52.82692146 C9.14300209 52.8311237 7.54221575 52.84355834 5.94156075 52.86443901 C3.70074517 52.89134815 1.46208694 52.88653232 -0.77880859 52.87402344 C-2.68931252 52.88162941 -2.68931252 52.88162941 -4.63841248 52.88938904 C-8.85848246 52.11400783 -10.31020443 50.55038856 -12.98413086 47.2746582 C-14.6010615 44.04079693 -14.16849754 40.49663964 -14.18725586 36.94262695 C-14.19295593 36.11386551 -14.19865601 35.28510406 -14.20452881 34.43122864 C-14.21398334 32.67519407 -14.22051459 30.91914173 -14.22436523 29.16308594 C-14.23405492 26.48316225 -14.26506676 23.80401067 -14.29663086 21.12426758 C-14.30316259 19.41789192 -14.3084124 17.71151078 -14.31225586 16.00512695 C-14.32460266 15.20600388 -14.33694946 14.4068808 -14.34967041 13.58354187 C-14.3314782 9.01317686 -14.02718027 5.93327647 -10.98413086 2.2746582 C-7.42252203 -0.09634481 -4.20413219 0.01543299 0 0 Z " fill="#F9BD00" transform="translate(226.984130859375,374.725341796875)"/>
<path d="M0 0 C6.74202833 4.69962098 10.54803731 10.77777481 12.52734375 18.76171875 C13.74127171 28.84475307 12.09693531 37.4696294 5.83984375 45.57421875 C-0.3905469 52.28021173 -8.05183544 54.86770176 -16.97265625 55.19921875 C-25.5790523 55.10966208 -32.46126795 52.70173003 -38.66796875 46.60546875 C-40.46922391 44.40477207 -41.99731313 42.19042688 -43.47265625 39.76171875 C-44.11203125 38.73046875 -44.75140625 37.69921875 -45.41015625 36.63671875 C-48.37424399 28.55113765 -47.52600445 18.97067519 -44.03515625 11.26171875 C-40.82910733 5.6435717 -36.96388989 2.09742373 -31.47265625 -1.23828125 C-30.44140625 -1.87765625 -29.41015625 -2.51703125 -28.34765625 -3.17578125 C-18.87085191 -6.64987657 -8.51437182 -4.90290673 0 0 Z " fill="#030200" transform="translate(89.47265625,47.23828125)"/>
<path d="M0 0 C6.26243613 4.03197943 10.3154303 9.80680423 12.61328125 16.890625 C14.43243278 26.81326973 12.97364574 35.39480079 7.8203125 43.9609375 C3.62972646 49.63930556 -2.38389173 52.85260029 -9 55 C-18.46895833 56.37658792 -26.03389201 55.33651894 -34 50 C-34.928125 49.401875 -35.85625 48.80375 -36.8125 48.1875 C-43.67192669 41.32807331 -46.48408447 33.55354973 -46.50415039 23.95141602 C-46.24408359 15.60398022 -42.79515155 8.25797095 -36.75 2.5 C-25.73431085 -5.62948238 -11.99635442 -6.79158689 0 0 Z " fill="#030200" transform="translate(89,414)"/>
<path d="M0 0 C7.71068707 8.06117285 10.31816678 16.00474746 10.1015625 26.99609375 C9.60348641 32.49153325 7.78714368 36.34129277 4.75 40.875 C4.151875 41.803125 3.55375 42.73125 2.9375 43.6875 C-3.92192669 50.54692669 -11.69645027 53.35908447 -21.29858398 53.37915039 C-29.64601978 53.11908359 -36.99202905 49.67015155 -42.75 43.625 C-48.78373062 35.4491165 -50.45731601 26.90311465 -49.25 16.875 C-47.35460719 9.22953913 -43.60808787 2.79302405 -37.00390625 -1.62890625 C-24.72853898 -8.70387163 -11.77800391 -7.70100256 0 0 Z " fill="#030100" transform="translate(459.25,416.125)"/>
<path d="M0 0 C1.47982716 0.8815472 2.94222051 1.79388451 4.375 2.75 C5.73625 3.5853125 5.73625 3.5853125 7.125 4.4375 C14.75860974 12.28315446 16.87808024 20.58227813 16.78125 31.2578125 C15.93448812 38.53670786 12.45158731 45.20176167 7.125 50.25 C-1.0508835 56.28373062 -9.59688535 57.95731601 -19.625 56.75 C-27.27046087 54.85460719 -33.70697595 51.10808787 -38.12890625 44.50390625 C-42.95876739 36.12389077 -44.25380013 27.48857882 -41.94140625 17.921875 C-38.46522175 8.51742566 -33.15484843 3.07008213 -24.04296875 -1.140625 C-16.01091806 -3.74759917 -7.66466201 -3.6612448 0 0 Z " fill="#030200" transform="translate(452.625,45.25)"/>
<path d="M0 0 C0.88365234 0.00902344 1.76730469 0.01804688 2.67773438 0.02734375 C4.84777359 0.05080363 7.01767247 0.08667135 9.1875 0.125 C8.78700439 0.58680664 8.38650879 1.04861328 7.97387695 1.52441406 C1.32083468 9.23335072 -2.9218421 14.59372541 -3.0234375 25.1171875 C-3.05150578 26.7252706 -3.08017025 28.33334339 -3.109375 29.94140625 C-3.15061875 32.47151401 -3.18751488 35.00142909 -3.21386719 37.53173828 C-3.24153288 39.97729021 -3.28740029 42.4219725 -3.3359375 44.8671875 C-3.33919037 45.61942596 -3.34244324 46.37166443 -3.34579468 47.146698 C-3.45015796 51.62378743 -3.95318421 54.61963955 -6.8125 58.125 C-10.46257405 60.63401912 -14.25588212 60.39436725 -18.51855469 60.35205078 C-19.28967087 60.35234283 -20.06078705 60.35263489 -20.85527039 60.35293579 C-23.3984206 60.35154493 -25.9412761 60.33599527 -28.484375 60.3203125 C-30.24985596 60.3165815 -32.01533899 60.31373494 -33.78082275 60.31173706 C-38.42345922 60.30410743 -43.06597019 60.28446467 -47.70855713 60.2623291 C-53.28109646 60.2382556 -58.8536778 60.2290865 -64.42625427 60.21742249 C-72.88842341 60.1980399 -81.3503173 60.15971269 -89.8125 60.125 C-89.8125 47.585 -89.8125 35.045 -89.8125 22.125 C-89.4825 22.125 -89.1525 22.125 -88.8125 22.125 C-88.8125 34.335 -88.8125 46.545 -88.8125 59.125 C-60.5975 58.63 -60.5975 58.63 -31.8125 58.125 C-30.6058182 54.50495459 -30.63920703 51.15706499 -30.6015625 47.38671875 C-30.57348829 45.82876564 -30.54482379 44.27082307 -30.515625 42.71289062 C-30.47443147 40.26408244 -30.43753201 37.81546995 -30.41113281 35.36645508 C-30.38340407 32.99779908 -30.33753124 30.63002934 -30.2890625 28.26171875 C-30.28580963 27.53651535 -30.28255676 26.81131195 -30.27920532 26.06413269 C-30.1323983 19.94433244 -28.39153417 15.33771902 -24.0703125 10.984375 C-23.56113281 10.47132813 -23.05195313 9.95828125 -22.52734375 9.4296875 C-22.00269531 8.91664063 -21.47804688 8.40359375 -20.9375 7.875 C-20.42058594 7.34648437 -19.90367187 6.81796875 -19.37109375 6.2734375 C-13.1426709 0.09208082 -8.36758715 -0.1622351 0 0 Z " fill="#F7B400" transform="translate(302.8125,255.875)"/>
<path d="M0 0 C3.09752674 2.08902966 4.30015239 3.34413098 5.6875 6.8125 C6.27892284 10.86210359 6.11570633 13.89491502 4.375 17.625 C1.90636433 20.82508327 0.58079386 22.51473538 -3.3125 23.8125 C-12.1475 24.3825 -12.1475 24.3825 -16.3125 20.8125 C-19.54133266 16.02492054 -19.84506641 12.40444732 -19.3125 6.8125 C-15.72607199 -1.68167161 -8.0445336 -2.8838894 0 0 Z " fill="#FBB700" transform="translate(446.3125,428.1875)"/>
<path d="M0 0 C3.09752674 2.08902966 4.30015239 3.34413098 5.6875 6.8125 C6.21643989 12.36636885 5.97666231 16.09803403 2.6875 20.8125 C-1.08477648 23.4443208 -4.64250075 24.46525959 -9.28125 24.3046875 C-13.10313191 23.37861611 -15.82884655 20.77128715 -18.3125 17.8125 C-19.91538305 13.00385086 -20.08486515 8.64178589 -18.125 4 C-13.12650452 -2.03266696 -7.06594168 -2.53307343 0 0 Z " fill="#FBB700" transform="translate(79.3125,428.1875)"/>
<path d="M0 0 C3.52220364 1.26267677 5.44467775 2.35212404 7.875 5.1875 C9.63811564 9.59528911 9.88521229 13.56328659 8.2734375 18 C6.83553026 20.80567266 5.41429745 22.73530996 2.75 24.4375 C-2.0707682 25.42356622 -6.18740724 25.7250371 -10.8125 23.875 C-14.78353471 20.47125596 -15.8327921 17.1704553 -16.5625 12.0625 C-16.42057539 7.72127676 -14.40539639 5.42021501 -11.5078125 2.34765625 C-8.10471212 -0.69397491 -4.33696148 -0.44419531 0 0 Z " fill="#FBB700" transform="translate(76,60)"/>
<path d="M0 0 C4.10746873 1.77367968 6.69875485 4.16459142 9 8 C9.61595345 13.54358109 9.28102593 17.29719617 6 22 C1.28553403 25.28916231 -2.44613115 25.52893989 -8 25 C-11.46836902 23.61265239 -12.72347034 22.41002674 -14.8125 19.3125 C-16.59978568 14.32691364 -16.93275089 10.20914684 -14.8125 5.1875 C-10.64378527 0.15629256 -6.2852283 -0.93256436 0 0 Z " fill="#FCB700" transform="translate(443,60)"/>
</svg>
