<?xml version="1.0" encoding="UTF-8"?>
<svg version="1.1" xmlns="http://www.w3.org/2000/svg" width="512" height="512">
<path d="M0 0 C0.82404831 -0.00860046 1.64809662 -0.01720093 2.49711609 -0.02606201 C3.39274765 -0.03032196 4.28837921 -0.03458191 5.21115112 -0.03897095 C6.16127579 -0.04714844 7.11140045 -0.05532593 8.09031677 -0.06375122 C11.23459246 -0.08856132 14.37882306 -0.10511183 17.52316284 -0.11953735 C19.13727365 -0.12752287 19.13727365 -0.12752287 20.78399277 -0.13566971 C26.48187294 -0.16238473 32.17973134 -0.18176325 37.87765503 -0.19619751 C42.58390792 -0.2095253 47.28972608 -0.23735952 51.99581909 -0.27822876 C57.68687994 -0.32764752 63.37754708 -0.35233018 69.06881332 -0.35942459 C71.23205742 -0.36612107 73.39529329 -0.38130106 75.55841446 -0.4053154 C78.59546405 -0.43710302 81.6310086 -0.43698284 84.66818237 -0.42959595 C85.55166855 -0.44600128 86.43515472 -0.46240662 87.34541321 -0.47930908 C95.88799631 -0.39480957 102.65574859 2.86444811 108.82785034 8.71640015 C111.06419389 11.04413273 112.42814095 13.25840088 113.82785034 16.15390015 C141.6608265 16.29394367 169.49375001 16.39980923 197.32700729 16.46477318 C210.24993402 16.49573628 223.17264208 16.53796401 236.09542847 16.60653687 C247.35643508 16.66626335 258.61728336 16.70503142 269.87844396 16.71843112 C275.84349616 16.72626624 281.80809535 16.74473203 287.77300262 16.78828049 C293.3840079 16.82891446 298.99437228 16.84158767 304.60551071 16.83254623 C306.66793929 16.83420099 308.73038864 16.84619031 310.79269028 16.869133 C313.60344296 16.8988761 316.41175864 16.89185238 319.2225647 16.87542725 C320.45408205 16.90164282 320.45408205 16.90164282 321.71047854 16.928388 C324.27055571 16.95382322 324.27055571 16.95382322 327.82785034 16.15390015 C330.32703092 13.35246582 330.32703092 13.35246582 331.82785034 10.15390015 C333.72238159 8.1421814 333.72238159 8.1421814 335.64035034 6.46640015 C336.57814331 5.62528687 336.57814331 5.62528687 337.53488159 4.7671814 C343.7724855 0.37854356 349.1050271 -0.28802414 356.53585815 -0.25015259 C357.95929283 -0.26044746 357.95929283 -0.26044746 359.41148376 -0.27095032 C362.5348018 -0.28918443 365.65761571 -0.2853844 368.78097534 -0.2796936 C370.96422487 -0.28425812 373.14747297 -0.28956449 375.33071899 -0.295578 C379.90355266 -0.30450332 384.47621164 -0.30209377 389.04904175 -0.29214478 C394.8872896 -0.28067594 400.72493073 -0.300838 406.56309891 -0.33006191 C411.072355 -0.34848003 415.58146735 -0.34811992 420.09075165 -0.34242439 C422.2419698 -0.34227176 424.39319805 -0.3482679 426.54438019 -0.36071587 C442.51110598 -0.44007337 454.77641631 0.41142413 466.73410034 12.0015564 C472.76617131 18.42980152 476.90956323 26.25709717 476.98175049 35.2121582 C476.99035095 36.01096405 476.99895142 36.8097699 477.0078125 37.63278198 C477.01420242 38.934151 477.01420242 38.934151 477.02072144 40.2618103 C477.02889893 41.18267426 477.03707642 42.10353821 477.04550171 43.05230713 C477.07030785 46.09918577 477.08686144 49.1460179 477.10128784 52.19296265 C477.10927336 53.75742693 477.10927336 53.75742693 477.1174202 55.35349655 C477.14413372 60.8763124 477.16351256 66.39910581 477.177948 71.92196655 C477.1912745 76.48271802 477.21910645 81.04302073 477.25997925 85.60360718 C477.30940978 91.11960593 477.33408209 96.63519838 477.34117508 102.15140915 C477.34786973 104.24766857 477.36304495 106.34391956 477.38706589 108.44005203 C477.52820238 121.50349448 477.53154687 131.13354911 468.26535034 141.15390015 C465.93761775 143.3902437 463.72334961 144.75419075 460.82785034 146.15390015 C460.82571281 147.17081184 460.82571281 147.17081184 460.8235321 148.20826721 C460.80384389 155.26518194 460.74958818 162.32123069 460.67526245 169.3777771 C460.65206712 172.01117744 460.63768318 174.64467075 460.6322937 177.27816772 C460.62301606 181.06415858 460.58204658 184.84868389 460.53488159 188.6343689 C460.53881424 189.81162033 460.54274689 190.98887177 460.54679871 192.20179749 C460.38425782 201.3102953 460.38425782 201.3102953 457.47116089 204.43637085 C454.82785034 206.15390015 454.82785034 206.15390015 451.82785034 206.15390015 C451.82785034 210.77390015 451.82785034 215.39390015 451.82785034 220.15390015 C453.80785034 220.81390015 455.78785034 221.47390015 457.82785034 222.15390015 C460.18011702 225.20541375 460.07426133 228.16174402 460.06594849 231.92294312 C460.06844101 233.1006427 460.07093353 234.27834229 460.07350159 235.49172974 C460.0662355 236.78016785 460.05896942 238.06860596 460.05148315 239.39608765 C460.0509588 240.76948035 460.05139485 242.1428737 460.05271912 243.51626587 C460.05405197 246.47153856 460.04964668 249.42672813 460.04111481 252.38198853 C460.02873266 257.05454683 460.03568151 261.7269507 460.04653931 266.39950562 C460.07500691 279.6855178 460.08740099 292.97139677 460.05783081 306.25741577 C460.04165755 313.59693914 460.04675553 320.93612561 460.07562709 328.27561378 C460.08993597 332.15925677 460.09290944 336.04219863 460.0694046 339.92581177 C460.04730834 343.577065 460.05274981 347.22722786 460.07938957 350.87844086 C460.08644675 352.85768154 460.06368327 354.83695798 460.04008484 356.81607056 C460.07781576 360.04263666 460.15228308 362.99890095 460.82785034 366.15390015 C463.51837002 368.97835146 463.51837002 368.97835146 466.82785034 370.15390015 C472.23910497 374.64128203 476.16610856 380.21686242 477.11674881 387.30927658 C477.59538953 393.77802846 477.5029174 400.26184578 477.45675659 406.7437439 C477.45758649 408.85544456 477.46005044 410.96714515 477.46406555 413.07884216 C477.46691524 417.4926511 477.45230442 421.90595029 477.42477417 426.31967163 C477.3907144 431.95275043 477.39671089 437.58491721 477.41543674 443.21803951 C477.42605036 447.57549013 477.41702901 451.9327318 477.40205193 456.29016304 C477.39690023 458.36600688 477.39731496 460.44187282 477.40359688 462.51771355 C477.43329682 478.22844434 476.37122108 490.30788552 464.98019409 502.06015015 C458.50422263 508.13700607 450.66600352 512.23742016 441.65570068 512.30780029 C440.83165237 512.31640076 440.00760406 512.32500122 439.15858459 512.3338623 C437.81513725 512.34025223 437.81513725 512.34025223 436.44454956 512.34677124 C435.4944249 512.35494873 434.54430023 512.36312622 433.56538391 512.37155151 C430.42110822 512.39636161 427.27687762 512.41291212 424.13253784 512.42733765 C422.51842703 512.43532316 422.51842703 512.43532316 420.87170792 512.44347 C415.17382775 512.47018502 409.47596934 512.48956354 403.77804565 512.5039978 C399.07179276 512.51732559 394.36597461 512.54515981 389.65988159 512.58602905 C383.96882074 512.63544781 378.2781536 512.66013047 372.58688736 512.66722488 C370.42364326 512.67392136 368.26040739 512.68910135 366.09728622 512.71311569 C363.06023663 512.74490331 360.02469209 512.74478313 356.98751831 512.73739624 C356.10403214 512.75380157 355.22054596 512.77020691 354.31028748 512.78710938 C345.76770438 512.70260987 338.99995209 509.44335219 332.82785034 503.59140015 C330.59150679 501.26366756 329.22755973 499.04939941 327.82785034 496.15390015 C299.99487418 496.01385663 272.16195067 495.90799106 244.32869339 495.84302711 C231.40576667 495.81206402 218.48305861 495.76983629 205.56027222 495.70126343 C194.29926561 495.64153694 183.03841732 495.60276888 171.77725673 495.58936918 C165.81220453 495.58153405 159.84760533 495.56306826 153.88269806 495.51951981 C148.27169278 495.47888583 142.6613284 495.46621262 137.05018997 495.47525406 C134.98776139 495.4735993 132.92531204 495.46160998 130.86301041 495.4386673 C128.05225772 495.40892419 125.24394204 495.41594791 122.43313599 495.43237305 C121.61212442 495.414896 120.79111285 495.39741895 119.94522214 495.37941229 C117.38514498 495.35397707 117.38514498 495.35397707 113.82785034 496.15390015 C111.32866977 498.95533447 111.32866977 498.95533447 109.82785034 502.15390015 C107.93331909 504.1656189 107.93331909 504.1656189 106.01535034 505.84140015 C105.07755737 506.68251343 105.07755737 506.68251343 104.12081909 507.5406189 C97.88321519 511.92925674 92.55067358 512.59582444 85.11984253 512.55795288 C83.69640785 512.56824776 83.69640785 512.56824776 82.24421692 512.57875061 C79.12089888 512.59698473 75.99808498 512.59318469 72.87472534 512.5874939 C70.69147581 512.59205841 68.50822771 512.59736479 66.32498169 512.6033783 C61.75214803 512.61230362 57.17948905 512.60989406 52.60665894 512.59994507 C46.76841108 512.58847623 40.93076995 512.60863829 35.09260178 512.63786221 C30.58334568 512.65628033 26.07423334 512.65592021 21.56494904 512.65022469 C19.41373089 512.65007205 17.26250263 512.65606819 15.1113205 512.66851616 C-0.8554053 512.74787366 -13.12071562 511.89637617 -25.07839966 500.3062439 C-31.11047063 493.87799878 -35.25386254 486.05070312 -35.3260498 477.09564209 C-35.33465027 476.29683624 -35.34325073 475.4980304 -35.35211182 474.67501831 C-35.35637177 473.80743896 -35.36063171 472.93985962 -35.36502075 472.04598999 C-35.37319824 471.12512604 -35.38137573 470.20426208 -35.38980103 469.25549316 C-35.41460717 466.20861452 -35.43116075 463.1617824 -35.44558716 460.11483765 C-35.45091084 459.07186146 -35.45623451 458.02888527 -35.46171951 456.95430374 C-35.48843304 451.43148789 -35.50781188 445.90869448 -35.52224731 440.38583374 C-35.53557382 435.82508228 -35.56340577 431.26477956 -35.60427856 426.70419312 C-35.65370909 421.18819436 -35.6783814 415.67260191 -35.6854744 410.15639114 C-35.69216905 408.06013173 -35.70734426 405.96388074 -35.7313652 403.86774826 C-35.96773387 381.98971742 -35.96773387 381.98971742 -27.73464966 372.27890015 C-25.17214966 370.15390015 -25.17214966 370.15390015 -22.05349731 368.89584351 C-18.58395815 365.5941663 -18.69762064 364.64177432 -18.462677 359.99594116 C-18.44868268 357.37890706 -18.46583784 354.77343751 -18.50808716 352.1578064 C-18.50699288 350.76301984 -18.50268249 349.36823242 -18.49530029 347.97346497 C-18.48189763 344.30403783 -18.50071232 340.63559037 -18.52975464 336.96627808 C-18.57513021 331.09738577 -18.59069828 325.22902459 -18.5702095 319.3599987 C-18.57058152 317.31384331 -18.59631548 315.26907372 -18.62390137 313.22312927 C-18.62354889 311.97511032 -18.62319641 310.72709137 -18.62283325 309.44125366 C-18.63204803 308.34523331 -18.64126282 307.24921295 -18.65075684 306.11997986 C-18.05516975 302.42893874 -16.78743423 300.78154834 -14.17214966 298.15390015 C-13.18214966 297.82390015 -12.19214966 297.49390015 -11.17214966 297.15390015 C-10.84214966 292.53390015 -10.51214966 287.91390015 -10.17214966 283.15390015 C-11.82214966 282.82390015 -13.47214966 282.49390015 -15.17214966 282.15390015 C-17.40609588 280.00675803 -18.09629636 278.6890025 -18.53177071 275.61697578 C-18.5246903 274.65504248 -18.5176099 273.69310917 -18.51031494 272.70202637 C-18.50984665 271.59453033 -18.50937836 270.4870343 -18.50889587 269.34597778 C-18.49332138 268.13548767 -18.47774689 266.92499756 -18.46170044 265.67782593 C-18.45515361 263.7154323 -18.44861904 261.7530386 -18.44254565 259.79064345 C-18.4334567 257.6831963 -18.41725639 255.57590013 -18.39944839 253.46850967 C-18.36397052 249.0726505 -18.357646 244.67705187 -18.35717773 240.28106689 C-18.3522188 227.78156655 -18.32303493 215.2824774 -18.23074341 202.78329468 C-18.18000106 195.8780591 -18.16136329 188.97350994 -18.17833126 182.06809986 C-18.18585375 178.41534719 -18.17647348 174.76434362 -18.12707901 171.11188126 C-18.07196999 167.03659622 -18.08636449 162.96437287 -18.10623169 158.88876343 C-18.07851181 157.68232178 -18.05079193 156.47588013 -18.02223206 155.23287964 C-17.98783383 149.08641076 -17.98783383 149.08641076 -21.17132187 144.13087082 C-23.55110852 142.49614394 -23.55110852 142.49614394 -26.03030205 141.27923393 C-28.94430459 139.74820741 -30.1431358 137.83330114 -31.67214966 134.96640015 C-32.13621216 134.12722046 -32.60027466 133.28804077 -33.07839966 132.4234314 C-35.37254336 127.66308322 -35.33314353 123.35247094 -35.34915161 118.17538452 C-35.35572281 117.25627289 -35.36229401 116.33716125 -35.36906433 115.39019775 C-35.3888025 112.34268104 -35.40046422 109.29521375 -35.41043091 106.24765015 C-35.41450644 105.20500504 -35.41858196 104.16235992 -35.42278099 103.08811951 C-35.44364894 97.56414996 -35.4579447 92.04020528 -35.46731567 86.51620483 C-35.47835128 80.82810749 -35.51271634 75.14040444 -35.55248737 69.45244598 C-35.5787249 65.06502592 -35.5870141 60.67769852 -35.59059715 56.29020691 C-35.59544861 54.1947922 -35.60702115 52.09938123 -35.62563515 50.00404358 C-35.75741353 34.18000839 -34.80606027 22.09332589 -23.32449341 10.24765015 C-16.84852195 4.17079423 -9.01030284 0.07038013 0 0 Z " fill="#FE985C" transform="translate(35.172149658203125,-0.153900146484375)"/>
<path d="M0 0 C2.17376989 3.21261216 2.24653081 5.95362931 2.23809814 9.76904297 C2.24059067 10.94674255 2.24308319 12.12444214 2.24565125 13.33782959 C2.23838516 14.6262677 2.23111908 15.91470581 2.22363281 17.2421875 C2.22310846 18.6155802 2.22354451 19.98897356 2.22486877 21.36236572 C2.22620163 24.31763842 2.22179634 27.27282799 2.21326447 30.22808838 C2.20088232 34.90064669 2.20783117 39.57305055 2.21868896 44.24560547 C2.24715657 57.53161765 2.25955064 70.81749662 2.22998047 84.10351562 C2.2138072 91.44303899 2.21890519 98.78222547 2.24777675 106.12171364 C2.26208563 110.00535662 2.2650591 113.88829848 2.24155426 117.77191162 C2.219458 121.42316485 2.22489946 125.07332771 2.25153923 128.72454071 C2.25859641 130.70378139 2.23583293 132.68305783 2.2122345 134.66217041 C2.24996542 137.88873651 2.32443273 140.8450008 3 144 C5.69051968 146.82445131 5.69051968 146.82445131 9 148 C14.41125463 152.48738189 18.33825822 158.06296227 19.28889847 165.15537643 C19.76753919 171.62412831 19.67506706 178.10794564 19.62890625 184.58984375 C19.62973615 186.70154441 19.6322001 188.81324501 19.63621521 190.92494202 C19.6390649 195.33875096 19.62445408 199.75205015 19.59692383 204.16577148 C19.56286406 209.79885029 19.56886055 215.43101706 19.5875864 221.06413937 C19.59820001 225.42158998 19.58917867 229.77883166 19.57420158 234.13626289 C19.56904989 236.21210673 19.56946462 238.28797267 19.57574654 240.3638134 C19.60544648 256.07454419 18.54337074 268.15398537 7.15234375 279.90625 C0.67637229 285.98310592 -7.16184682 290.08352001 -16.17214966 290.15390015 C-16.99619797 290.16250061 -17.82024628 290.17110107 -18.66926575 290.17996216 C-20.01271309 290.18635208 -20.01271309 290.18635208 -21.38330078 290.19287109 C-22.33342545 290.20104858 -23.28355011 290.20922607 -24.26246643 290.21765137 C-27.40674212 290.24246146 -30.55097272 290.25901197 -33.6953125 290.2734375 C-34.77138638 290.27876118 -35.84746025 290.28408485 -36.95614243 290.28956985 C-42.65402259 290.31628488 -48.351881 290.33566339 -54.04980469 290.35009766 C-58.75605758 290.36342544 -63.46187573 290.39125967 -68.16796875 290.43212891 C-73.8590296 290.48154767 -79.54969674 290.50623033 -85.24096298 290.51332474 C-87.40420708 290.52002121 -89.56744295 290.53520121 -91.73056412 290.55921555 C-94.76761371 290.59100317 -97.80315826 290.59088298 -100.84033203 290.58349609 C-101.72381821 290.59990143 -102.60730438 290.61630676 -103.51756287 290.63320923 C-112.06014596 290.54870972 -118.82789825 287.28945204 -125 281.4375 C-127.23634355 279.10976741 -128.60029061 276.89549926 -130 274 C-157.83297616 273.85995648 -185.66589967 273.75409092 -213.49915695 273.68912697 C-226.42208367 273.65816387 -239.34479174 273.61593614 -252.26757812 273.54736328 C-263.52858473 273.4876368 -274.78943302 273.44886873 -286.05059361 273.43546903 C-292.01564581 273.42763391 -297.98024501 273.40916812 -303.94515228 273.36561966 C-309.55615756 273.32498569 -315.16652194 273.31231247 -320.77766037 273.32135391 C-322.84008895 273.31969916 -324.9025383 273.30770983 -326.96483994 273.28476715 C-329.77559262 273.25502404 -332.5839083 273.26204777 -335.39471436 273.2784729 C-336.21572592 273.26099585 -337.03673749 273.2435188 -337.8826282 273.22551215 C-340.44270536 273.20007692 -340.44270536 273.20007692 -344 274 C-346.49918057 276.80143432 -346.49918057 276.80143432 -348 280 C-349.89453125 282.01171875 -349.89453125 282.01171875 -351.8125 283.6875 C-352.75029297 284.52861328 -352.75029297 284.52861328 -353.70703125 285.38671875 C-359.94463515 289.77535659 -365.27717676 290.44192429 -372.70800781 290.40405273 C-374.13144249 290.41434761 -374.13144249 290.41434761 -375.58363342 290.42485046 C-378.70695146 290.44308458 -381.82976536 290.43928455 -384.953125 290.43359375 C-387.13637453 290.43815826 -389.31962263 290.44346464 -391.50286865 290.44947815 C-396.07570231 290.45840347 -400.6483613 290.45599391 -405.22119141 290.44604492 C-411.05943926 290.43457608 -416.89708039 290.45473814 -422.73524857 290.48396206 C-427.24450466 290.50238018 -431.75361701 290.50202006 -436.26290131 290.49632454 C-438.41411945 290.4961719 -440.56534771 290.50216804 -442.71652985 290.51461601 C-458.68325564 290.59397352 -470.94856597 289.74247602 -482.90625 278.15234375 C-488.93832097 271.72409863 -493.08171288 263.89680297 -493.15390015 254.94174194 C-493.16250061 254.1429361 -493.17110107 253.34413025 -493.17996216 252.52111816 C-493.18422211 251.65353882 -493.18848206 250.78595947 -493.19287109 249.89208984 C-493.20513733 248.51079391 -493.20513733 248.51079391 -493.21765137 247.10159302 C-493.24245751 244.05471437 -493.2590111 241.00788225 -493.2734375 237.9609375 C-493.27876118 236.91796131 -493.28408485 235.87498512 -493.28956985 234.80040359 C-493.31628338 229.27758774 -493.33566222 223.75479433 -493.35009766 218.23193359 C-493.36342416 213.67118213 -493.39125611 209.11087941 -493.43212891 204.55029297 C-493.48155943 199.03429421 -493.50623174 193.51870177 -493.51332474 188.002491 C-493.52001939 185.90623158 -493.53519461 183.80998059 -493.55921555 181.71384811 C-493.79558421 159.83581728 -493.79558421 159.83581728 -485.5625 150.125 C-483 148 -483 148 -479.88134766 146.74194336 C-476.41180849 143.44026616 -476.52547099 142.48787418 -476.29052734 137.84204102 C-476.27653302 135.22500691 -476.29368818 132.61953736 -476.3359375 130.00390625 C-476.33484322 128.60911969 -476.33053283 127.21433227 -476.32315063 125.81956482 C-476.30974797 122.15013769 -476.32856266 118.48169022 -476.35760498 114.81237793 C-476.40298055 108.94348563 -476.41854862 103.07512445 -476.39805984 97.20609856 C-476.39843186 95.15994316 -476.42416582 93.11517357 -476.45175171 91.06922913 C-476.45139923 89.82121017 -476.45104675 88.57319122 -476.45068359 87.28735352 C-476.45989838 86.19133316 -476.46911316 85.09531281 -476.47860718 83.96607971 C-475.88691655 80.29918618 -474.54963958 78.64791466 -472 76 C-470.125 75 -470.125 75 -468 75 C-464.10064011 76.55974396 -462.35514485 77.46728273 -460 81 C-459.75949097 83.67655945 -459.75949097 83.67655945 -459.77294922 86.94018555 C-459.77310028 88.16122482 -459.77325134 89.3822641 -459.77340698 90.64030457 C-459.78372955 91.95912125 -459.79405212 93.27793793 -459.8046875 94.63671875 C-459.80841839 96.00006401 -459.811265 97.36341196 -459.81326294 98.72676086 C-459.82089347 102.31234154 -459.84053685 105.89775979 -459.8626709 109.48327637 C-459.88314189 113.14312544 -459.89226733 116.80300079 -459.90234375 120.46289062 C-459.9237834 127.64200107 -459.95791221 134.82097776 -460 142 C-459.24493164 141.9685791 -458.48986328 141.9371582 -457.71191406 141.90478516 C-454.22492563 141.77853764 -450.73841974 141.7015484 -447.25 141.625 C-446.06277344 141.57472656 -444.87554687 141.52445313 -443.65234375 141.47265625 C-434.1722021 141.31724409 -426.15584797 143.33241164 -418.96850586 149.83911133 C-412.82617461 156.50252697 -410.90202841 163.28486602 -410.82421875 172.14453125 C-410.80101595 173.55795753 -410.77689842 174.97136903 -410.75195312 176.38476562 C-410.71692343 178.59653577 -410.68752882 180.80776219 -410.67407227 183.01977539 C-410.65848555 185.16618544 -410.61821624 187.31103896 -410.57421875 189.45703125 C-410.55963623 190.73553955 -410.54505371 192.01404785 -410.5300293 193.33129883 C-409.8574105 197.98696106 -408.77211467 200.1885955 -406 204 C-401.4770977 207.15847602 -397.31787663 207.39342953 -391.9609375 207.30078125 C-390.39452706 207.3084296 -388.82812055 207.31692057 -387.26171875 207.32617188 C-384.82634124 207.3239752 -382.39176762 207.31269127 -379.95654297 207.28491211 C-368.58783301 207.18421187 -359.19663921 207.88478779 -350.08935547 215.62353516 C-338.68859459 227.73881377 -342 240.47396225 -342 257 C-272.7 257 -203.4 257 -132 257 C-132 248.09 -132 239.18 -132 230 C-126.26906696 218.53813392 -123.44196625 213.21743647 -112.20166016 208.83398438 C-105.42815148 207.06958712 -98.27251422 207.4726861 -91.3125 207.5 C-88.20381905 207.51211713 -85.09681625 207.49823415 -81.98828125 207.46875 C-81.29019852 207.48006958 -80.59211578 207.49138916 -79.87287903 207.50305176 C-74.37404761 207.44700426 -71.34073414 206.19364221 -67 203 C-63.93921542 198.57531421 -63.59262216 194.56486453 -63.6640625 189.328125 C-63.65154404 187.84374568 -63.63850665 186.35937066 -63.625 184.875 C-63.62108796 182.56689845 -63.62494118 180.25923141 -63.63964844 177.95117188 C-63.67921089 167.69130807 -63.37816549 158.85002982 -56.06884766 150.89941406 C-48.58618624 143.59955055 -40.91163572 141.53678105 -30.61132812 141.6484375 C-28.7927832 141.69871094 -28.7927832 141.69871094 -26.9375 141.75 C-25.69033203 141.76804687 -24.44316406 141.78609375 -23.15820312 141.8046875 C-20.10465409 141.85148519 -17.0527444 141.91703632 -14 142 C-14.00368717 141.29339391 -14.00737434 140.58678782 -14.01117325 139.85876942 C-14.09950842 122.6659406 -14.16570182 105.47316941 -14.20724869 88.28016376 C-14.22787446 79.96574568 -14.25599524 71.65147907 -14.30175781 63.3371582 C-14.34162525 56.09043454 -14.36743271 48.84382057 -14.37635398 41.59699029 C-14.38156894 37.75975127 -14.39382591 33.92282608 -14.42292023 30.08568764 C-14.45008812 26.47332083 -14.4584424 22.86139687 -14.45243073 19.24893761 C-14.45405435 17.29248785 -14.47557004 15.33608623 -14.49768066 13.37976074 C-14.49218201 12.21173416 -14.48668335 11.04370758 -14.48101807 9.84028625 C-14.48470524 8.82723577 -14.48839241 7.81418528 -14.49219131 6.77043629 C-13.86635802 3.24775878 -12.44061062 1.5650919 -10 -1 C-6.39778361 -2.80110819 -3.53020469 -1.61161518 0 0 Z " fill="#010101" transform="translate(493,222)"/>
<path d="M0 0 C0.82404831 -0.00860046 1.64809662 -0.01720093 2.49711609 -0.02606201 C3.39274765 -0.03032196 4.28837921 -0.03458191 5.21115112 -0.03897095 C6.16127579 -0.04714844 7.11140045 -0.05532593 8.09031677 -0.06375122 C11.23459246 -0.08856132 14.37882306 -0.10511183 17.52316284 -0.11953735 C19.13727365 -0.12752287 19.13727365 -0.12752287 20.78399277 -0.13566971 C26.48187294 -0.16238473 32.17973134 -0.18176325 37.87765503 -0.19619751 C42.58390792 -0.2095253 47.28972608 -0.23735952 51.99581909 -0.27822876 C57.68687994 -0.32764752 63.37754708 -0.35233018 69.06881332 -0.35942459 C71.23205742 -0.36612107 73.39529329 -0.38130106 75.55841446 -0.4053154 C78.59546405 -0.43710302 81.6310086 -0.43698284 84.66818237 -0.42959595 C85.55166855 -0.44600128 86.43515472 -0.46240662 87.34541321 -0.47930908 C95.88799631 -0.39480957 102.65574859 2.86444811 108.82785034 8.71640015 C111.06419389 11.04413273 112.42814095 13.25840088 113.82785034 16.15390015 C141.6608265 16.29394367 169.49375001 16.39980923 197.32700729 16.46477318 C210.24993402 16.49573628 223.17264208 16.53796401 236.09542847 16.60653687 C247.35643508 16.66626335 258.61728336 16.70503142 269.87844396 16.71843112 C275.84349616 16.72626624 281.80809535 16.74473203 287.77300262 16.78828049 C293.3840079 16.82891446 298.99437228 16.84158767 304.60551071 16.83254623 C306.66793929 16.83420099 308.73038864 16.84619031 310.79269028 16.869133 C313.60344296 16.8988761 316.41175864 16.89185238 319.2225647 16.87542725 C320.45408205 16.90164282 320.45408205 16.90164282 321.71047854 16.928388 C324.27055571 16.95382322 324.27055571 16.95382322 327.82785034 16.15390015 C330.32703092 13.35246582 330.32703092 13.35246582 331.82785034 10.15390015 C333.72238159 8.1421814 333.72238159 8.1421814 335.64035034 6.46640015 C336.57814331 5.62528687 336.57814331 5.62528687 337.53488159 4.7671814 C343.7724855 0.37854356 349.1050271 -0.28802414 356.53585815 -0.25015259 C357.95929283 -0.26044746 357.95929283 -0.26044746 359.41148376 -0.27095032 C362.5348018 -0.28918443 365.65761571 -0.2853844 368.78097534 -0.2796936 C370.96422487 -0.28425812 373.14747297 -0.28956449 375.33071899 -0.295578 C379.90355266 -0.30450332 384.47621164 -0.30209377 389.04904175 -0.29214478 C394.8872896 -0.28067594 400.72493073 -0.300838 406.56309891 -0.33006191 C411.072355 -0.34848003 415.58146735 -0.34811992 420.09075165 -0.34242439 C422.2419698 -0.34227176 424.39319805 -0.3482679 426.54438019 -0.36071587 C442.51110598 -0.44007337 454.77641631 0.41142413 466.73410034 12.0015564 C472.76617131 18.42980152 476.90956323 26.25709717 476.98175049 35.2121582 C476.99035095 36.01096405 476.99895142 36.8097699 477.0078125 37.63278198 C477.01420242 38.934151 477.01420242 38.934151 477.02072144 40.2618103 C477.02889893 41.18267426 477.03707642 42.10353821 477.04550171 43.05230713 C477.07030785 46.09918577 477.08686144 49.1460179 477.10128784 52.19296265 C477.10927336 53.75742693 477.10927336 53.75742693 477.1174202 55.35349655 C477.14413372 60.8763124 477.16351256 66.39910581 477.177948 71.92196655 C477.1912745 76.48271802 477.21910645 81.04302073 477.25997925 85.60360718 C477.30940978 91.11960593 477.33408209 96.63519838 477.34117508 102.15140915 C477.34786973 104.24766857 477.36304495 106.34391956 477.38706589 108.44005203 C477.52820238 121.50349448 477.53154687 131.13354911 468.26535034 141.15390015 C465.93761775 143.3902437 463.72334961 144.75419075 460.82785034 146.15390015 C460.82571281 147.17081184 460.82571281 147.17081184 460.8235321 148.20826721 C460.80384389 155.26518194 460.74958818 162.32123069 460.67526245 169.3777771 C460.65206712 172.01117744 460.63768318 174.64467075 460.6322937 177.27816772 C460.62301606 181.06415858 460.58204658 184.84868389 460.53488159 188.6343689 C460.53881424 189.81162033 460.54274689 190.98887177 460.54679871 192.20179749 C460.38426989 201.30961926 460.38426989 201.30961926 457.47506714 204.4012146 C454.22402611 206.5536838 452.65148528 206.88608556 448.82785034 206.15390015 C446.52509478 204.28680104 445.14961164 202.79742274 443.82785034 200.15390015 C443.73745128 198.48909375 443.71029777 196.82066593 443.71432495 195.15341187 C443.71440048 194.11248383 443.71447601 193.07155579 443.71455383 191.99908447 C443.71971512 190.87197052 443.7248764 189.74485657 443.73019409 188.58358765 C443.73231651 186.85654099 443.73231651 186.85654099 443.73448181 185.09460449 C443.74009318 181.40601029 443.75264764 177.7174761 443.76535034 174.02890015 C443.77036388 171.53280727 443.77492704 169.03671345 443.77902222 166.5406189 C443.79006631 160.41169206 443.80681555 154.28280039 443.82785034 148.15390015 C442.99066467 148.17852325 442.153479 148.20314636 441.29092407 148.22851562 C438.98242151 148.29641276 436.67388712 148.36323417 434.36532593 148.42910767 C431.95551151 148.50225843 429.5462207 148.59323998 427.13742065 148.69442749 C417.78873889 148.82580062 410.15316358 146.64451845 402.90109253 140.52914429 C401.31002955 138.82228234 400.06124988 137.13256481 398.82785034 135.15390015 C398.2825769 134.29042969 398.2825769 134.29042969 397.72628784 133.40951538 C393.75799007 125.86009393 394.29336544 117.82342592 394.32785034 109.52890015 C394.33997497 106.59856816 394.32605824 103.67001524 394.29660034 100.73983765 C394.30111206 99.45125854 394.30562378 98.16267944 394.31027222 96.83505249 C393.69498593 92.14006941 392.62422642 89.98465597 389.82785034 86.15390015 C385.35486868 83.04792696 381.23518305 82.73641228 375.93722534 82.7828064 C374.40727529 82.76541543 372.87732742 82.74783114 371.34738159 82.73007202 C368.96696741 82.72004562 366.58670264 82.71639377 364.20626831 82.71810913 C352.65181023 82.70011153 342.32347466 82.30144088 333.36300659 73.99765015 C323.26695002 61.87210638 325.82785034 48.93698494 325.82785034 33.15390015 C256.52785034 33.15390015 187.22785034 33.15390015 115.82785034 33.15390015 C115.82785034 41.73390015 115.82785034 50.31390015 115.82785034 59.15390015 C111.21062683 70.69695893 108.32008829 75.63024437 97.52365112 80.8921814 C90.38058587 83.33077046 82.98674236 82.88785007 75.51535034 82.77890015 C73.09975667 82.75470792 70.68540835 82.73972396 68.2696991 82.74847412 C66.7803579 82.7529894 65.29079083 82.73885267 63.80189514 82.70214844 C58.23657571 82.70502693 55.21100409 83.91357775 50.82785034 87.15390015 C47.76763641 91.60150971 47.47695512 95.21521449 47.52706909 100.53671265 C47.51941997 101.96640474 47.51092887 103.39609252 47.50167847 104.82577515 C47.50387318 107.04389925 47.51512765 109.26113965 47.54293823 111.47909546 C47.64941486 122.4204873 46.54381452 131.25608019 39.23971558 140.07040405 C32.06097535 146.910614 23.32017119 148.6140888 13.70675659 148.50546265 C11.972323 148.45518921 11.972323 148.45518921 10.20285034 148.40390015 C9.0078894 148.38585327 7.81292847 148.3678064 6.58175659 148.34921265 C3.66292507 148.30251134 0.74583273 148.23703355 -2.17214966 148.15390015 C-2.17030607 148.81504444 -2.16846249 149.47618874 -2.16656303 150.15736771 C-2.122406 166.23996554 -2.08930381 182.3225423 -2.06852531 198.4051857 C-2.05821007 206.18261135 -2.044145 213.95999655 -2.02127075 221.73739624 C-2.00134447 228.51569608 -1.98843503 235.29396663 -1.98397267 242.07229495 C-1.98136399 245.66180214 -1.97522734 249.25122552 -1.96068954 252.84070587 C-1.944597 256.84650907 -1.94416948 260.8521663 -1.94509888 264.85800171 C-1.93790833 266.04986588 -1.93071777 267.24173004 -1.92330933 268.4697113 C-1.92605865 269.56063583 -1.92880798 270.65156036 -1.93164062 271.77554321 C-1.92979704 272.7231464 -1.92795345 273.67074959 -1.926054 274.64706802 C-2.18981715 277.33386848 -2.69721626 278.90357164 -4.17214966 281.15390015 C-7.90470414 283.6422698 -9.75655901 283.69616567 -14.17214966 283.15390015 C-16.94398268 280.95847936 -18.04185365 279.11649408 -18.51747704 275.60270882 C-18.64300931 272.24947719 -18.6285187 268.9195256 -18.57522583 265.56430054 C-18.56890323 263.60170437 -18.56259122 261.63910814 -18.55667841 259.67651069 C-18.54674351 257.57181109 -18.52716508 255.4673859 -18.50517845 253.36277962 C-18.46089902 248.9710242 -18.45243385 244.57965028 -18.45054626 240.18769836 C-18.44000622 227.70095286 -18.3864343 215.21470626 -18.28567505 202.72836304 C-18.23030338 195.82791077 -18.20721274 188.92810156 -18.21900159 182.02742952 C-18.22457758 177.66342833 -18.19023669 173.30215675 -18.12619913 168.93865025 C-18.08865426 165.58318366 -18.1099327 162.22853959 -18.12210083 158.87289429 C-18.09280991 157.66802368 -18.06351898 156.46315308 -18.03334045 155.22177124 C-17.99108161 149.08190186 -17.99108161 149.08190186 -21.1703434 144.13184929 C-23.5502163 142.49711096 -23.5502163 142.49711096 -26.02974415 141.27979183 C-28.94389395 139.74832777 -30.14295491 137.83364031 -31.67214966 134.96640015 C-32.13621216 134.12722046 -32.60027466 133.28804077 -33.07839966 132.4234314 C-35.37254336 127.66308322 -35.33314353 123.35247094 -35.34915161 118.17538452 C-35.35572281 117.25627289 -35.36229401 116.33716125 -35.36906433 115.39019775 C-35.3888025 112.34268104 -35.40046422 109.29521375 -35.41043091 106.24765015 C-35.41450644 105.20500504 -35.41858196 104.16235992 -35.42278099 103.08811951 C-35.44364894 97.56414996 -35.4579447 92.04020528 -35.46731567 86.51620483 C-35.47835128 80.82810749 -35.51271634 75.14040444 -35.55248737 69.45244598 C-35.5787249 65.06502592 -35.5870141 60.67769852 -35.59059715 56.29020691 C-35.59544861 54.1947922 -35.60702115 52.09938123 -35.62563515 50.00404358 C-35.75741353 34.18000839 -34.80606027 22.09332589 -23.32449341 10.24765015 C-16.84852195 4.17079423 -9.01030284 0.07038013 0 0 Z " fill="#010101" transform="translate(35.172149658203125,-0.153900146484375)"/>
<path d="M0 0 C5.61 0 11.22 0 17 0 C15.55763053 3.60592366 14.08515733 6.90236426 12.3125 10.33203125 C4.37620038 25.84460351 -3.0261835 41.50390354 -9.05810547 57.87109375 C-9.3985791 58.77988281 -9.73905273 59.68867187 -10.08984375 60.625 C-10.38624756 61.44226563 -10.68265137 62.25953125 -10.98803711 63.1015625 C-12 65 -12 65 -15 66 C-16.02651373 67.71519747 -16.02651373 67.71519747 -17 70 C-17.680625 71.010625 -18.36125 72.02125 -19.0625 73.0625 C-21.60496833 77.48293442 -21.35250569 81.40120385 -21.0625 86.375 C-20.740247 92.33908529 -21.05056414 96.95786091 -23.14233398 102.57470703 C-24.83185973 107.35231841 -25.86425695 112.31717876 -27 117.25 C-27.26127686 118.37865479 -27.52255371 119.50730957 -27.79174805 120.67016602 C-29.98982935 130.43019565 -31.53682802 140.21237588 -32.70629883 150.14428711 C-33 152 -33 152 -34 155 C-34.86774334 160.30854747 -35.4275967 165.65316347 -36 171 C-36.09458496 171.83837402 -36.18916992 172.67674805 -36.28662109 173.54052734 C-43.60867406 241.22911546 -35.08266317 309.51304858 -14 374 C-13.61424805 375.20994629 -13.61424805 375.20994629 -13.22070312 376.44433594 C-6.33332165 398.01481619 3.55989966 419.0593685 14.0612793 439.07250977 C15.15956221 441.32763164 16.06842365 443.67105914 17 446 C11.39 446 5.78 446 0 446 C-0.00386719 443.28523437 -0.00386719 443.28523437 -0.0078125 440.515625 C-0.04536132 438.09372606 -0.08450927 435.67185154 -0.125 433.25 C-0.12242187 432.06277344 -0.11984375 430.87554687 -0.1171875 429.65234375 C-0.32002904 420.3723433 -2.23810751 411.72225724 -9.05322266 404.96386719 C-15.59713401 399.66294288 -22.03747942 397.55903749 -30.3125 397.62890625 C-31.89843972 397.6115298 -33.48437718 397.59394536 -35.0703125 397.57617188 C-37.53877898 397.56610352 -40.00709976 397.5625049 -42.47558594 397.56420898 C-44.8799867 397.56062104 -47.28329529 397.53322544 -49.6875 397.50390625 C-50.78155151 397.51618004 -50.78155151 397.51618004 -51.89770508 397.52870178 C-57.33567808 397.45047479 -60.50095192 396.07632017 -65 393 C-70.65648561 386.515736 -69.56890262 378.21852684 -69.5625 370.0625 C-69.5258188 354.00854849 -69.5258188 354.00854849 -76.96386719 340.02392578 C-84.81919034 332.21569689 -94.69856614 331.10208701 -105.25 331.125 C-106.48363281 331.104375 -107.71726562 331.08375 -108.98828125 331.0625 C-111.99287557 331.01591714 -114.99512283 330.99551128 -118 331 C-118.00546844 329.8670047 -118.00546844 329.8670047 -118.01104736 328.71112061 C-118.04892923 321.58946433 -118.10578301 314.46833106 -118.18390274 307.34701157 C-118.22339643 303.68591277 -118.25557521 300.02505515 -118.27099609 296.36376953 C-118.28615087 292.82973078 -118.32057361 289.29635499 -118.36830902 285.76261139 C-118.39034624 283.75971038 -118.39247476 281.75662244 -118.39434814 279.75360107 C-118.41406677 278.53263733 -118.4337854 277.31167358 -118.45410156 276.05371094 C-118.46298401 274.97893494 -118.47186646 273.90415894 -118.48101807 272.79681396 C-119.12647642 269.31841362 -120.24480097 268.15482007 -123 266 C-123.99 265.67 -124.98 265.34 -126 265 C-126 260.05 -126 255.1 -126 250 C-123.03 249.01 -123.03 249.01 -120 248 C-118.58801012 245.0803274 -118.8636457 241.83253954 -118.84178162 238.62164307 C-118.82709839 236.98525627 -118.82709839 236.98525627 -118.81211853 235.31581116 C-118.80636307 234.12394699 -118.8006076 232.93208282 -118.79467773 231.70410156 C-118.78477814 230.44530685 -118.77487854 229.18651215 -118.76467896 227.88957214 C-118.73767249 224.44159208 -118.71663992 220.9935984 -118.69667697 217.54557133 C-118.67479111 213.94073575 -118.64741515 210.33594197 -118.62062073 206.73114014 C-118.57072898 199.90663934 -118.52577712 193.08211529 -118.48259836 186.25756907 C-118.4331959 178.48734266 -118.37828894 170.71715819 -118.32291877 162.94697237 C-118.20915274 146.96468703 -118.10230201 130.98236308 -118 115 C-117.26475098 114.9906543 -116.52950195 114.98130859 -115.77197266 114.97167969 C-112.38900851 114.91746722 -109.0073525 114.83392029 -105.625 114.75 C-104.46871094 114.73582031 -103.31242187 114.72164063 -102.12109375 114.70703125 C-93.26551989 114.4568738 -84.10836805 113.05458208 -77.36767578 106.69604492 C-69.80323468 97.3154358 -69.19105906 87.65953862 -69.375 76.1875 C-69.39921782 73.98585811 -69.41416498 71.78558575 -69.40542603 69.58381653 C-69.3988358 67.60034624 -69.42374789 65.61684326 -69.45068359 63.63354492 C-68.8302817 58.63168072 -67.34987909 55.00676496 -63.46339417 51.6877594 C-59.10696793 48.8760009 -54.98542856 48.47529139 -49.86328125 48.6015625 C-48.30012872 48.59682345 -46.73697759 48.59159953 -45.17382812 48.5859375 C-42.74948945 48.6005905 -40.32573722 48.62480697 -37.90161133 48.66015625 C-27.39951983 48.78021691 -18.90277099 48.379386 -10 42 C-1.52840673 33.50895534 -0.53371122 24.00298361 -0.3125 12.5 C-0.27833984 11.29601562 -0.24417969 10.09203125 -0.20898438 8.8515625 C-0.12703423 5.90135741 -0.06182815 2.95069537 0 0 Z " fill="#FE8A42" transform="translate(151,33)"/>
<path d="M0 0 C17.43217693 14.70839928 29.4639975 35.10822297 33.375 57.6875 C35.27647604 84.90863068 31.24102574 109.80570142 13.875 131.6875 C12.39737255 133.3740334 10.89809809 135.041915 9.375 136.6875 C8.67890625 137.46351563 7.9828125 138.23953125 7.265625 139.0390625 C-2.99352901 149.93473337 -17.16550947 159.22813792 -31.8503418 162.77563477 C-33.095979 163.07655029 -34.34161621 163.37746582 -35.625 163.6875 C-35.61500725 164.71321106 -35.61500725 164.71321106 -35.60481262 165.75964355 C-35.5382742 172.8976571 -35.49312247 180.03558204 -35.46020508 187.17382812 C-35.44684833 189.83546423 -35.42470186 192.49661286 -35.39868164 195.15820312 C-35.36215885 198.99094752 -35.34524108 202.8233629 -35.33203125 206.65625 C-35.31654739 207.83989136 -35.30106354 209.02353271 -35.28511047 210.24304199 C-35.28327203 219.33458273 -36.588158 226.26434551 -42.875 233.1484375 C-48.81037395 238.36838691 -55.90826602 240.11939564 -63.640625 240.02734375 C-71.05871452 239.18261366 -76.75385194 235.34877297 -81.37109375 229.62890625 C-84.94016701 224.10295793 -86.06681413 219.68463607 -86.02905273 213.14697266 C-86.03591599 212.3103862 -86.04277924 211.47379974 -86.04985046 210.61186218 C-86.06808659 207.85825416 -86.06428509 205.10521771 -86.05859375 202.3515625 C-86.06315753 200.42873958 -86.06846369 198.50591829 -86.07447815 196.58309937 C-86.08340334 192.55663418 -86.08099337 188.5303674 -86.07104492 184.50390625 C-86.05956415 179.35696253 -86.07975615 174.2107058 -86.10896206 169.06385231 C-86.12735516 165.09343145 -86.12702526 161.1231742 -86.12132454 157.15272141 C-86.12117166 155.25580253 -86.12718813 153.35887234 -86.13961601 151.46199417 C-86.15458075 148.80317025 -86.14380877 146.14560244 -86.12670898 143.48681641 C-86.13637695 142.71149063 -86.14604492 141.93616486 -86.15600586 141.13734436 C-86.06830317 134.58820326 -84.01950575 129.42615536 -79.6953125 124.48046875 C-79.05335938 123.95066406 -78.41140625 123.42085937 -77.75 122.875 C-76.79480469 122.06095703 -76.79480469 122.06095703 -75.8203125 121.23046875 C-70.88000707 117.75819002 -67.03923831 116.36800811 -61 116.25 C-47.56545707 115.51386066 -36.50022405 110.39887082 -27.19140625 100.6796875 C-19.2723565 90.6080781 -16.55878431 78.23838178 -17.625 65.6875 C-20.09516239 53.9021469 -26.61158273 43.50773048 -36.625 36.6875 C-48.59815438 30.36422917 -61.84475298 28.26463499 -75.1875 31.75 C-86.94039031 36.13173959 -95.46108763 45.13226695 -100.62890625 56.33203125 C-102.96614328 61.85890939 -103.70850049 66.66193399 -104 72.625 C-104.5682814 81.56596075 -107.13235607 87.12678307 -113.73046875 93.2109375 C-119.84709685 97.97812393 -126.54621681 98.35159614 -134.1484375 98.15625 C-140.70610268 97.27207043 -145.35894832 94.45402936 -149.53515625 89.35546875 C-156.75473807 78.79064335 -156.04644555 65.6244558 -154.01171875 53.203125 C-150.71017879 38.71707303 -144.0999546 25.12589576 -134.625 13.6875 C-133.92632812 12.83800781 -133.22765625 11.98851562 -132.5078125 11.11328125 C-98.34646641 -28.57952835 -40.34091681 -31.73634452 0 0 Z " fill="#040302" transform="translate(316.625,158.3125)"/>
<path d="M0 0 C2.28078551 0.00850767 4.55906131 -0.02026973 6.83959961 -0.05200195 C8.30118741 -0.0536144 9.7627796 -0.0530356 11.22436523 -0.05004883 C13.20327759 -0.05282837 13.20327759 -0.05282837 15.22216797 -0.05566406 C20.66375141 0.69619864 23.54719505 2.8550837 26.99424744 7.05401611 C29.32019658 11.29800991 29.41970141 14.31330256 29.37084961 19.0625 C29.37785889 19.90723373 29.38486816 20.75196747 29.39208984 21.62229919 C29.40963651 24.40373 29.39805591 27.1841357 29.38452148 29.96557617 C29.38721811 31.90842381 29.39110196 33.85127013 29.39611816 35.79411316 C29.40200935 39.86352402 29.39346524 43.93258322 29.37475586 48.00195312 C29.35201225 53.20039164 29.36506275 58.39800193 29.38904572 63.5964098 C29.40355291 67.60892385 29.39887441 71.62124413 29.38853455 75.63376427 C29.38587847 77.54938545 29.38909735 79.4650246 29.39845276 81.38062477 C29.40869456 84.06802021 29.39300988 86.75410738 29.37084961 89.44140625 C29.37894653 90.22248749 29.38704346 91.00356873 29.39538574 91.80831909 C29.28523376 99.07554682 26.66588328 104.67381512 22.72827148 110.69604492 C12.88713091 120.10930982 1.76299376 119.16951374 -11.03735352 119.07495117 C-13.07135139 119.07578087 -15.10534919 119.07824407 -17.13934326 119.08226013 C-21.3858273 119.08510809 -25.63178093 119.07050968 -29.87817383 119.04296875 C-35.3144582 119.00880073 -40.7498003 119.01494276 -46.18613052 119.03363132 C-50.37953523 119.04420695 -54.57272128 119.03525977 -58.76610565 119.02024651 C-60.77072246 119.01507425 -62.77536218 119.01553485 -64.77997589 119.02179146 C-67.58013468 119.02725389 -70.37894956 119.00683886 -73.17895508 118.97949219 C-74.00194092 118.98601807 -74.82492676 118.99254395 -75.67285156 118.99926758 C-80.95474052 118.91174408 -83.94632363 117.92399246 -88.14672852 114.44604492 C-91.88505343 109.9902204 -92.65741724 106.86960049 -92.67797852 101.10620117 C-92.68180542 100.42101913 -92.68563232 99.7358371 -92.6895752 99.02989197 C-92.69228272 97.58859783 -92.68500293 96.14725357 -92.66821289 94.70605469 C-92.64681452 92.51734145 -92.66803161 90.33192186 -92.69360352 88.14331055 C-92.72405111 74.83066928 -92.72405111 74.83066928 -88.14672852 69.44604492 C-84.00751478 66.28907318 -80.35755911 66.01839929 -75.31860352 66.03979492 C-74.19594086 66.02354065 -74.19594086 66.02354065 -73.05059814 66.00695801 C-70.66588709 65.97282421 -68.2816511 65.95714207 -65.89672852 65.94604492 C-46.94554436 66.06839269 -46.94554436 66.06839269 -31.14672852 56.44604492 C-25.69990952 49.05731655 -24.05109103 43.30220764 -23.97094727 34.16870117 C-23.94775533 32.75397265 -23.92363825 31.33925904 -23.89868164 29.92456055 C-23.86358434 27.71490349 -23.83421186 25.50580043 -23.82080078 23.29589844 C-23.80525328 21.14866856 -23.76502256 19.00301098 -23.72094727 16.85620117 C-23.70636475 15.5788208 -23.69178223 14.30144043 -23.67675781 12.98535156 C-22.90776316 7.85033755 -20.87466023 4.8455864 -16.86523438 1.59814453 C-11.56152348 -0.64956195 -5.67725817 -0.03236471 0 0 Z " fill="#75E4D4" transform="translate(468.146728515625,378.553955078125)"/>
<path d="M0 0 C0.88214172 -0.00861557 1.76428345 -0.01723114 2.67315674 -0.02610779 C5.57960652 -0.04874635 8.48509 -0.04203051 11.39160156 -0.03295898 C13.42173548 -0.03819708 15.45186696 -0.04447424 17.48199463 -0.05174255 C21.73550877 -0.06214411 25.98868836 -0.05759107 30.2421875 -0.04296875 C35.67380315 -0.02581863 41.1043572 -0.04923116 46.53585434 -0.08445835 C50.72942012 -0.10650286 54.92273493 -0.10497318 59.11634064 -0.09669304 C61.11766979 -0.09587666 63.11901795 -0.10267965 65.12029266 -0.11746407 C86.83042126 -0.25321756 86.83042126 -0.25321756 94.91351318 7.2888031 C100.85679586 13.47433218 102.48444484 19.99895112 102.42041016 28.31103516 C102.42566711 29.1607338 102.43092407 30.01043243 102.43634033 30.88587952 C102.44947344 33.6761448 102.44082687 36.46583309 102.43066406 39.25610352 C102.43268653 41.20470793 102.43559942 43.15331162 102.43936157 45.10191345 C102.4437757 49.17787918 102.4373825 53.25364717 102.42333984 57.32958984 C102.40623718 62.5472259 102.41610184 67.76439932 102.43405724 72.98201847 C102.44490996 77.00295991 102.44144208 81.02379209 102.43367386 85.04473686 C102.43167656 86.96841932 102.43411456 88.89211178 102.44111252 90.81578255 C102.44875274 93.50587288 102.43708739 96.19521884 102.42041016 98.88525391 C102.42648285 99.67554993 102.43255554 100.46584595 102.43881226 101.28009033 C102.3837258 106.08956418 101.65300778 109.35169941 99.03222656 113.53344727 C92.53074379 119.54731883 85.82691267 118.78360491 77.46362305 118.82861328 C75.97296656 118.84012853 74.48235115 118.86057356 72.99194336 118.89013672 C70.83191061 118.93296887 68.67310086 118.94900254 66.51269531 118.95922852 C64.57753052 118.98110229 64.57753052 118.98110229 62.60327148 119.00341797 C58.32338575 118.44015961 56.28952633 117.34575913 53.03222656 114.53344727 C50.14773977 110.15227125 49.65637746 106.67120162 49.62597656 101.48266602 C49.61514038 100.82442337 49.6043042 100.16618073 49.59313965 99.48799133 C49.55912832 97.39887612 49.54334915 95.31030167 49.53222656 93.22094727 C49.46521673 80.72943999 49.17666898 69.9450307 40.03222656 60.53344727 C33.18605423 55.1494315 26.42217368 53.24991431 17.74707031 53.22485352 C16.14875915 53.19970792 14.55045194 53.1743097 12.95214844 53.14868164 C10.45500598 53.11990535 7.9579318 53.09585889 5.46069336 53.07714844 C3.03497774 53.0554626 0.61002179 53.01604271 -1.81542969 52.97485352 C-2.92967064 52.97467979 -2.92967064 52.97467979 -4.06642151 52.97450256 C-8.5462017 52.88926076 -11.39894621 52.27756783 -14.96777344 49.53344727 C-20.16140501 43.42381561 -19.57834914 36.28810456 -19.48925781 28.66308594 C-19.46778637 26.47226706 -19.48912644 24.28471379 -19.51464844 22.09399414 C-19.51200551 20.68708594 -19.50688125 19.28017975 -19.49902344 17.87329102 C-19.49451172 16.60864014 -19.49 15.34398926 -19.48535156 14.04101562 C-18.69726225 8.7002236 -16.49375835 5.79696724 -12.38189697 2.39233398 C-8.04119492 0.02895337 -4.85611217 -0.03850662 0 0 Z " fill="#75E4D3" transform="translate(394.9677734375,14.466552734375)"/>
<path d="M0 0 C1.31843903 -0.00788544 1.31843903 -0.00788544 2.66351318 -0.01593018 C5.55116873 -0.02906813 8.43826718 -0.02041489 11.32592773 -0.01025391 C13.34179286 -0.01227624 15.35765727 -0.01518901 17.3735199 -0.01895142 C21.5907185 -0.02336621 25.80772601 -0.01697019 30.02490234 -0.00292969 C35.4241355 0.0141726 40.82292158 0.00430893 46.2221384 -0.01364708 C50.3820481 -0.02449831 54.54185215 -0.02103259 58.70176506 -0.0132637 C60.69243358 -0.01126598 62.68311177 -0.01370593 64.673769 -0.02070236 C67.45724965 -0.02834003 70.24001033 -0.01668062 73.0234375 0 C74.25095985 -0.00910904 74.25095985 -0.00910904 75.50328064 -0.0184021 C80.38329484 0.03564513 83.71091763 0.709275 87.94702148 3.38818359 C93.77848721 9.85007805 93.19758658 15.51517139 93.2421875 23.82641602 C93.25932446 26.05011737 93.30319798 28.27230161 93.34741211 30.49560547 C93.35754635 31.92202687 93.36606016 33.34846088 93.37280273 34.77490234 C93.38738525 36.06614014 93.40196777 37.35737793 93.41699219 38.68774414 C92.81793735 43.40456192 91.75731245 45.54481343 88.94702148 49.38818359 C84.52700581 52.44114795 80.47367773 52.81753375 75.23999023 52.79443359 C74.51515945 52.80526978 73.79032867 52.81610596 73.04353333 52.82727051 C70.74043817 52.86132416 68.43783435 52.87707165 66.13452148 52.88818359 C48.88622935 52.84743745 48.88622935 52.84743745 33.80639648 60.50927734 C27.11713139 67.26880783 24.85250223 74.27995484 24.77124023 83.53271484 C24.74803743 84.94614112 24.7239199 86.35955262 24.69897461 87.77294922 C24.66394491 89.98471937 24.63455031 92.19594578 24.62109375 94.40795898 C24.60550704 96.55436903 24.56523773 98.69922256 24.52124023 100.84521484 C24.50665771 102.12372314 24.4920752 103.40223145 24.47705078 104.71948242 C23.80443198 109.37514466 22.71913615 111.57677909 19.94702148 115.38818359 C13.88549564 119.54009533 7.2010788 118.87596175 0.15209961 118.83422852 C-2.04741652 118.82570515 -4.24434245 118.8545387 -6.44360352 118.88623047 C-7.85506108 118.88784259 -9.26652319 118.88726474 -10.67797852 118.88427734 C-11.94899414 118.88613037 -13.22000977 118.8879834 -14.52954102 118.88989258 C-19.89511354 118.12587848 -22.79049642 115.92324326 -26.19395447 111.78495789 C-28.52685689 107.52232181 -28.62558779 104.46622328 -28.58642578 99.69580078 C-28.59504135 98.84291977 -28.60365692 97.99003876 -28.61253357 97.11131287 C-28.63516554 94.30224927 -28.62845752 91.49418603 -28.61938477 88.68505859 C-28.62462321 86.72218532 -28.6309005 84.75931456 -28.63816833 82.79644775 C-28.64856871 78.68416495 -28.64401868 74.57222822 -28.62939453 70.45996094 C-28.61224587 65.2099341 -28.63565554 59.96100574 -28.67088413 54.71110153 C-28.69293407 50.6565028 -28.69139766 46.60216354 -28.68311882 42.5475235 C-28.68230271 40.61318002 -28.68910051 38.67881684 -28.70388985 36.74452972 C-28.84073284 15.59960884 -28.84073284 15.59960884 -21.29762268 7.5043335 C-15.00920747 1.47214699 -8.43242448 -0.06272941 0 0 Z " fill="#00CFB2" transform="translate(43.052978515625,14.61181640625)"/>
<path d="M0 0 C0.68518204 -0.0038269 1.37036407 -0.00765381 2.0763092 -0.01159668 C3.51760334 -0.0143042 4.9589476 -0.00702441 6.40014648 0.00976562 C8.58885972 0.031164 10.77427932 0.00994691 12.96289062 -0.015625 C26.27553189 -0.0460726 26.27553189 -0.0460726 31.66015625 4.53125 C34.71283631 8.60996092 35.03798218 11.66302132 35.06640625 16.703125 C35.07724243 17.38497864 35.08807861 18.06683228 35.09924316 18.76934814 C35.13334392 20.94007855 35.14905035 23.11028782 35.16015625 25.28125 C35.22355197 42.0385526 35.22355197 42.0385526 42.78125 56.671875 C49.76935582 63.58733939 56.98032376 65.64650321 66.49609375 65.7421875 C68.05079179 65.77025542 69.60547916 65.79891988 71.16015625 65.828125 C73.59797877 65.86934422 76.03560177 65.90625482 78.47363281 65.93261719 C80.83569871 65.96033872 83.19687467 66.0062026 85.55859375 66.0546875 C86.2806601 66.05794037 87.00272644 66.06119324 87.74667358 66.06454468 C92.43609132 66.1775667 95.67597278 67.05674604 99.66015625 69.53125 C104.82868275 75.50816501 104.23977475 82.43051213 104.12670898 89.97436523 C104.09767437 92.09242843 104.10613663 94.20799358 104.11914062 96.32617188 C104.06617263 107.88756303 104.06617263 107.88756303 100.66015625 113.53125 C95.37055805 118.42412834 91.07427485 118.68821153 84.12475586 118.72412109 C83.25280579 118.73229858 82.38085571 118.74047607 81.48248291 118.74890137 C78.59249554 118.77374107 75.7025574 118.79027142 72.8125 118.8046875 C71.82376955 118.81001118 70.8350391 118.81533485 69.81634712 118.82081985 C64.57882589 118.84755047 59.34132844 118.86692213 54.10375977 118.88134766 C49.77867379 118.89466511 45.45406205 118.92247753 41.12915039 118.96337891 C35.8995905 119.01283315 30.67045947 119.03748499 25.44067574 119.04457474 C23.45326622 119.05126705 21.46586552 119.06643614 19.47859001 119.09046555 C-2.11799044 119.33661789 -2.11799044 119.33661789 -10.22157288 111.77548218 C-16.19269715 105.56079033 -17.79100573 99.00889574 -17.74389648 90.66186523 C-17.75075974 89.80241302 -17.75762299 88.94296082 -17.76469421 88.0574646 C-17.78290007 85.23475325 -17.77913453 82.41260084 -17.7734375 79.58984375 C-17.77800141 77.61881836 -17.78330761 75.64779457 -17.7893219 73.67677307 C-17.79824013 69.55373655 -17.7958435 65.43089388 -17.78588867 61.30786133 C-17.77438498 56.0295992 -17.7946386 50.75200468 -17.82380581 45.47383022 C-17.84216511 41.4065579 -17.84187614 37.33944578 -17.83616829 33.27214241 C-17.83601513 31.32612228 -17.84205533 29.38009125 -17.85445976 27.43411064 C-17.86936746 24.7127289 -17.85869553 21.99258374 -17.84155273 19.27124023 C-17.85605469 18.0717701 -17.85605469 18.0717701 -17.87084961 16.84806824 C-17.80208152 11.62451067 -16.76672779 8.68891797 -13.33984375 4.53125 C-8.88401923 0.79292508 -5.76339932 0.02056128 0 0 Z " fill="#00D0B2" transform="translate(32.33984375,378.46875)"/>
<path d="M0 0 C0.96083496 0.00491455 1.92166992 0.0098291 2.91162109 0.01489258 C25.1550779 0.37895789 44.53803573 9.81388927 60.25 25.3125 C76.80523511 43.82130295 81.61608125 64.19053023 80.46875 88.29882812 C79.01994672 108.2586804 68.76006685 125.4321694 54.5 139 C44.77848438 147.38630746 34.40229338 152.42078396 22.25 156.3125 C16.40281296 158.05712599 16.40281296 158.05712599 12.25 162.3125 C11.95473455 165.12840083 11.95473455 165.12840083 12.01049805 168.35693359 C12.00676682 169.60187592 12.00303558 170.84681824 11.99919128 172.12948608 C12.00264588 173.12677294 12.00264588 173.12677294 12.00617027 174.144207 C12.01176865 176.22952599 12.00259675 178.3142898 11.9889679 180.39956665 C11.95186229 186.32760064 11.93329298 192.25544686 11.94458008 198.18359375 C11.95044077 201.81186332 11.93212502 205.43935248 11.89869118 209.06746292 C11.89075036 210.44768721 11.89199647 211.82799685 11.90271568 213.20820236 C11.9170853 215.14185863 11.89806506 217.07567508 11.87768555 219.00927734 C11.87705612 220.1083139 11.8764267 221.20735046 11.8757782 222.33969116 C11.0485358 226.2695716 9.28048385 227.77099308 6.25 230.3125 C3.42998673 231.72250664 1.37992745 231.55798451 -1.75 231.3125 C-5.24406769 229.64487678 -6.57670681 228.57243978 -8.75 225.3125 C-8.95442398 222.71181544 -9.04371916 220.21731758 -9.04052734 217.61572266 C-9.04724457 216.83327682 -9.05396179 216.05083099 -9.06088257 215.24467468 C-9.07989725 212.65523954 -9.08378855 210.06606313 -9.0859375 207.4765625 C-9.09236325 205.67678724 -9.09909144 203.87701304 -9.10610962 202.07723999 C-9.11809122 198.30277078 -9.12178956 194.52839314 -9.12060547 190.75390625 C-9.12040228 185.91935714 -9.14770012 181.0853959 -9.18214989 176.2509861 C-9.20439788 172.53290108 -9.20844365 168.81495797 -9.20738602 165.0968132 C-9.20974531 163.31462962 -9.21858732 161.53244231 -9.23405075 159.75032425 C-9.25366777 157.25582089 -9.24789015 154.76259067 -9.23583984 152.26806641 C-9.24707886 151.5333461 -9.25831787 150.79862579 -9.26989746 150.04164124 C-9.21040954 145.19066185 -8.20105967 142.71519043 -4.75 139.3125 C-2.2602756 138.0676378 0.06873903 138.00913764 2.81030273 137.76855469 C18.16869009 136.36340792 33.41194624 130.74125337 44.25 119.3125 C55.26268835 105.99539448 60.67421368 90.57122374 59.48828125 73.32861328 C57.71500092 58.32477215 49.94342442 43.80128181 38.25 34.3125 C22.67758955 23.42136631 7.99504623 20.98258986 -10.75 22.3125 C-15.11033876 23.094159 -18.77895661 24.37020447 -22.75 26.3125 C-24.25240234 27.04146484 -24.25240234 27.04146484 -25.78515625 27.78515625 C-40.71491545 35.76908563 -50.26128907 48.44055699 -55.1875 64.4375 C-56.61114789 69.91638732 -57.10216885 75.17077157 -57.41015625 80.8046875 C-57.87472787 84.23290567 -59.1770202 86.05139654 -61.75 88.3125 C-64.00984109 89.44242055 -65.54726487 89.61049956 -68.0625 89.75 C-68.82175781 89.81058594 -69.58101562 89.87117188 -70.36328125 89.93359375 C-73.38897186 89.14622091 -74.89112376 87.61851678 -76.75756836 85.15161133 C-78.54937704 81.8311452 -78.48940837 78.640971 -78.375 74.9375 C-78.36098145 74.15165527 -78.34696289 73.36581055 -78.33251953 72.55615234 C-77.51095131 52.20496742 -66.4422514 33.13690155 -51.8125 19.4375 C-36.85915776 6.73644689 -19.64032799 -0.11990644 0 0 Z " fill="#F6EA7E" transform="translate(254.75,151.6875)"/>
<path d="M0 0 C9.64155063 -0.45097576 17.76826432 2.27985353 25.046875 8.63671875 C30.076438 13.38548513 33.06739027 17.79695377 33.72265625 24.71484375 C33.93458394 32.52270586 32.83735117 37.47748349 27.56640625 43.328125 C22.43830481 48.25654815 17.26314686 51.1269517 10.484375 53.19921875 C9.58138672 53.48345703 9.58138672 53.48345703 8.66015625 53.7734375 C-1.85263481 55.83069823 -12.28145045 54.72096028 -21.515625 49.19921875 C-27.91437153 44.77301814 -32.66013493 39.90010889 -34.515625 32.19921875 C-35.67402472 24.62348959 -34.82374351 18.84447788 -30.49609375 12.4609375 C-23.6648042 4.65952399 -15.5386189 1.08512273 -5.40625 0.3671875 C-3.60305667 0.26240735 -1.80059769 0.14259392 0 0 Z " fill="#FEFEFD" transform="translate(349.515625,89.80078125)"/>
<path d="M0 0 C5.49556957 4.65928725 10.46456475 9.27597004 11.30859375 16.72265625 C11.64682336 24.82991746 10.49730305 31.00409977 5.08203125 37.19140625 C-0.01952163 42.0943146 -5.26057403 44.93976097 -12 47 C-12.90298828 47.28423828 -12.90298828 47.28423828 -13.82421875 47.57421875 C-24.33700981 49.63147948 -34.76582545 48.52174153 -44 43 C-50.38895428 38.58057298 -55.16291638 33.69883068 -57 26 C-57.96394852 18.98356706 -57.6986378 13.46442932 -53.4140625 7.671875 C-40.80057184 -7.24131285 -16.75840829 -12.07173479 0 0 Z " fill="#FEFEFD" transform="translate(186,96)"/>
<path d="M0 0 C7.10474322 3.61558107 12.04477866 9.953941 15.4375 17.0625 C17.28751943 25.80804641 16.51320822 33.4736236 12.125 41.3125 C7.84773717 47.77944911 2.51332584 51.89772484 -4.875 54.3125 C-11.48096093 55.56588606 -16.7409593 54.17402281 -22.55078125 50.91796875 C-29.53432961 46.09403871 -33.82252125 39.522415 -35.875 31.3125 C-36.91773956 23.70157622 -35.61138769 17.95207394 -31.875 11.3125 C-31.318125 10.260625 -30.76125 9.20875 -30.1875 8.125 C-22.61368274 -1.08639937 -11.2120109 -4.66540051 0 0 Z " fill="#040301" transform="translate(265.875,69.6875)"/>
<path d="M0 0 C5.55419366 3.8109066 10.09397894 9.01088622 12.140625 15.46875 C13.30862052 23.47259299 11.75155105 29.84852872 7.140625 36.46875 C2.08668806 42.15893078 -3.99567733 45.51297576 -11.671875 45.96875 C-18.27164025 45.73770799 -23.7902073 43.18900179 -28.71484375 38.82421875 C-34.31206316 32.70182813 -36.48879376 26.43450128 -36.1953125 18.171875 C-35.23051367 10.40861003 -30.90193192 6.131991 -25.17578125 1.1328125 C-17.68122943 -4.25113198 -8.10718954 -4.08275732 0 0 Z " fill="#040201" transform="translate(267.859375,416.53125)"/>
<path d="M0 0 C5.75070545 3.205011 9.60552611 7.75407834 11.6875 14 C12.34945937 21.44231462 12.85390113 28.22045388 8.1796875 34.38671875 C3.69426955 39.23613659 -0.66636288 42.64862008 -7.43359375 43.30078125 C-18.54102838 43.34003014 -18.54102838 43.34003014 -23.3125 40 C-24.158125 39.484375 -25.00375 38.96875 -25.875 38.4375 C-30.9104115 33.4020885 -33.59722846 27.50777631 -33.875 20.375 C-33.46187009 12.85391706 -30.87734086 8.18008064 -25.375 3.125 C-17.95565886 -3.21757792 -8.84366538 -3.96762631 0 0 Z " fill="#030404" transform="translate(471.3125,440)"/>
<path d="M0 0 C5.57196115 2.81098938 9.72616891 7.31938612 12.4140625 12.9296875 C14.48798428 19.30651242 13.98999542 25.70042425 11.3125 31.8125 C7.95321468 37.85728848 2.7308481 41.3397173 -3.75 43.5 C-10.9472125 44.18919956 -17.13903693 44.44521293 -23.1015625 39.9921875 C-27.89535411 35.65278372 -31.35675753 31.24857105 -32.05078125 24.6328125 C-32.08080721 16.92615024 -31.18894282 12.43983071 -27.125 5.875 C-19.42817747 -1.82182253 -10.25725473 -3.8900813 0 0 Z " fill="#010303" transform="translate(60.75,439.5)"/>
<path d="M0 0 C4.22617087 3.23566207 7.76842793 7.37246399 9.75 12.33984375 C10.7169038 19.8511596 10.2231045 26.53633756 6.44921875 33.17578125 C2.89247353 37.70552114 -1.83587055 40.53513393 -7.25 42.33984375 C-14.38677488 43.04314467 -20.40359718 42.75548132 -26.25 38.33984375 C-32.43041455 32.59914249 -35.19285529 27.54184759 -35.75 19.08984375 C-35.61899902 12.67952936 -33.2818373 8.23627635 -29.25 3.33984375 C-21.5014898 -3.90876257 -9.28708986 -5.43681719 0 0 Z " fill="#020303" transform="translate(473.25,31.66015625)"/>
<path d="M0 0 C7.26217378 3.19579726 10.67566557 8.27320613 14.13671875 15.1953125 C14.90492692 22.56255479 14.33891938 28.96243949 10.13671875 35.1953125 C4.51497062 41.45100244 -0.72454054 44.14233801 -9.11328125 44.6953125 C-16.68521991 44.56102164 -22.12230503 40.93628872 -27.36328125 35.6953125 C-31.40773539 28.9545556 -31.77250886 21.86281954 -30.86328125 14.1953125 C-28.50679258 7.86414553 -23.7277162 3.56762289 -18.0625 0.08984375 C-12.5059881 -2.170265 -5.67493451 -1.59486563 0 0 Z " fill="#010303" transform="translate(59.86328125,29.8046875)"/>
<path d="M0 0 C3.5633205 2.46691419 6.74632675 4.73751094 8 9 C8.4850824 14.23888993 7.85631117 17.56779301 5 22 C2.3589137 24.71246701 0.78832756 25.84904366 -2.9375 26.5625 C-7.13897518 25.79080048 -9.04020092 24.02706724 -12 21 C-14.28466838 17.05375462 -14.47409741 13.50392543 -14 9 C-10.67430795 2.82371477 -7.37415204 -1.17986433 0 0 Z " fill="#3F3B4C" transform="translate(259,83)"/>
<path d="M0 0 C2.71797416 2.01849551 4.68134797 3.61783637 5.46508789 7.01733398 C5.63729145 9.36428112 5.63313345 11.64809687 5.5625 14 C5.57345703 14.7940625 5.58441406 15.588125 5.59570312 16.40625 C5.54601501 20.38129937 5.26736462 22.5543923 3.18359375 26.02734375 C1 28 1 28 -2.5 28.5625 C-6 28 -6 28 -8.1875 26.58984375 C-10.98621088 22.59082368 -10.58165165 18.76301266 -10.5 14 C-10.51546875 13.09765625 -10.5309375 12.1953125 -10.546875 11.265625 C-10.50809731 4.7121956 -10.50809731 4.7121956 -8.15234375 1.41015625 C-5.1507863 -0.55638139 -3.52137671 -0.64678348 0 0 Z " fill="#070402" transform="translate(346,63)"/>
<path d="M0 0 C3.32930988 0.98646219 4.3443411 1.34556608 6.375 4 C7.00258159 7.28200521 6.83846507 10.60216925 6.8125 13.9375 C6.83248047 14.84435547 6.85246094 15.75121094 6.87304688 16.68554688 C6.86818509 23.2927108 6.86818509 23.2927108 4.56640625 26.59375 C1.30542597 28.68635767 -0.84198365 28.60798477 -4.625 28 C-7.76646248 25.16200617 -8.87819318 22.8772818 -9.19140625 18.75 C-9.21119638 17.16678981 -9.20934587 15.58318315 -9.1875 14 C-9.21134766 13.2059375 -9.23519531 12.411875 -9.25976562 11.59375 C-9.24898674 7.28219738 -8.98915255 5.48307208 -6.31640625 1.9375 C-3.625 0 -3.625 0 0 0 Z " fill="#060402" transform="translate(169.625,63)"/>
<path d="M0 0 C2.69990662 1.79993774 4.5418865 3.083773 6 6 C6.43023798 9.87214182 6.31669086 11.52496371 4.125 14.8125 C1.61855093 17.39266816 0.74538327 17.91717964 -2.8125 18.3125 C-6.7307645 17.92835642 -8.21293267 16.70743683 -11 14 C-12.42662219 11.14675563 -12.31033868 9.16545451 -12 6 C-8.54235344 0.81353016 -6.24330406 -0.61208863 0 0 Z " fill="#EFE37A" transform="translate(259,429)"/>
<path d="M0 0 C2.5 1.625 2.5 1.625 4 4 C4.5625 6.9375 4.5625 6.9375 4 10 C1.51397551 13.36344489 0.08574477 14.80057749 -4.0625 15.5625 C-7 15 -7 15 -9.375 13.5 C-11.80664499 9.75900771 -11.49174842 7.42573582 -11 3 C-8.88563468 -1.22873063 -4.1705953 -0.74684705 0 0 Z " fill="#F8F8F8" transform="translate(55,44)"/>
<path d="M0 0 C2.9375 2.0625 2.9375 2.0625 5 5 C5 8.51955419 4.63108355 10.84920059 2.9375 13.9375 C-0.26063137 15.69131398 -3.45325707 15.6502362 -7 15 C-9.91781637 12.72045596 -9.97820387 11.17436907 -10.4375 7.5 C-10 4 -10 4 -8.375 1.5625 C-5.24316508 -0.49791771 -3.68455227 -0.6767545 0 0 Z " fill="#F9F9F9" transform="translate(54,453)"/>
<path d="M0 0 C2.4375 1 2.4375 1 4 3 C4.45364856 6.1755399 4.68938436 7.98847886 4 11 C1.9375 13.5625 1.9375 13.5625 -1 15 C-4.8137751 15 -7.02424548 14.84985071 -9.9375 12.3125 C-11.33817538 9.26397123 -11.4842732 7.32073048 -11 4 C-8.04627097 -0.48966812 -5.14336369 -0.64292046 0 0 Z " fill="#F9F9F9" transform="translate(464,44)"/>
<path d="M0 0 C1.9375 1.125 1.9375 1.125 3 3 C3.49573337 6.89504791 3.58016848 9.09493717 1.4375 12.4375 C-1.96719488 14.61999672 -4.03430012 14.63734462 -8 14 C-10.5 11.9375 -10.5 11.9375 -12 9 C-12 5.19715329 -11.7968187 2.98069994 -9.375 0 C-5.91616747 -1.45635054 -3.58701629 -0.91305869 0 0 Z " fill="#FBFBFB" transform="translate(465,454)"/>
</svg>
