<?xml version="1.0" encoding="UTF-8"?>
<!DOCTYPE svg PUBLIC "-//W3C//DTD SVG 1.1//EN" "http://www.w3.org/Graphics/SVG/1.1/DTD/svg11.dtd">
<svg xmlns="http://www.w3.org/2000/svg" version="1.1" width="512px" height="512px" style="shape-rendering:geometricPrecision; text-rendering:geometricPrecision; image-rendering:optimizeQuality; fill-rule:evenodd; clip-rule:evenodd" xmlns:xlink="http://www.w3.org/1999/xlink">
<g><path style="opacity:0.976" fill="#030201" d="M 283.5,-0.5 C 312.5,-0.5 341.5,-0.5 370.5,-0.5C 398.49,1.66622 425.823,7.49955 452.5,17C 470.926,23.784 486.426,34.6174 499,49.5C 505.118,58.0612 509.285,67.3946 511.5,77.5C 511.5,85.5 511.5,93.5 511.5,101.5C 508.48,116.888 502.646,131.222 494,144.5C 493.178,146.788 492.511,149.122 492,151.5C 487.267,195.16 482.601,238.826 478,282.5C 474.193,306.642 460.36,321.475 436.5,327C 425.172,327.5 413.838,327.667 402.5,327.5C 400.887,337.179 397.054,345.845 391,353.5C 342.167,402.333 293.333,451.167 244.5,500C 237.123,505.284 229.123,509.117 220.5,511.5C 213.833,511.5 207.167,511.5 200.5,511.5C 190.931,508.881 182.264,504.381 174.5,498C 141.123,470.288 107.457,442.955 73.5,416C 51.3803,411.646 32.2137,401.813 16,386.5C 7.80709,376.781 2.30709,365.781 -0.5,353.5C -0.5,344.833 -0.5,336.167 -0.5,327.5C 4.96781,302.22 15.1345,278.887 30,257.5C 41.5293,240.965 54.196,225.298 68,210.5C 83.5249,195.974 98.6915,181.141 113.5,166C 126.656,154.509 140.656,144.176 155.5,135C 142.606,113.012 139.772,89.8452 147,65.5C 154.256,48.9085 165.756,36.0751 181.5,27C 199.743,17.0298 219.076,10.0298 239.5,6C 254.239,3.32752 268.906,1.16086 283.5,-0.5 Z"/></g>
<g><path style="opacity:1" fill="#fece9f" d="M 294.5,15.5 C 330.314,14.6847 365.314,19.518 399.5,30C 418.14,35.5576 433.64,45.7243 446,60.5C 457.134,78.0426 458.467,96.376 450,115.5C 445.061,125.045 440.394,134.711 436,144.5C 430.927,190.488 425.927,236.488 421,282.5C 418.711,293.76 412.545,302.094 402.5,307.5C 399.552,300.944 396.052,294.61 392,288.5C 363.667,253.5 335.333,218.5 307,183.5C 303.437,169.146 298.104,155.479 291,142.5C 272.262,114.35 246.095,103.517 212.5,110C 197.795,113.626 183.795,119.126 170.5,126.5C 161.211,112.231 157.711,96.5643 160,79.5C 163.54,66.25 170.706,55.4167 181.5,47C 203.386,32.7001 227.386,23.7001 253.5,20C 267.24,17.7384 280.907,16.2384 294.5,15.5 Z"/></g>
<g><path style="opacity:1" fill="#f5bb84" d="M 434.5,29.5 C 457.092,33.8632 475.259,45.5299 489,64.5C 496.048,77.9112 497.381,91.9112 493,106.5C 491.667,110.5 490.333,114.5 489,118.5C 484.378,127.409 480.045,136.409 476,145.5C 471.055,191.837 466.055,238.171 461,284.5C 454.992,302.583 442.492,311.416 423.5,311C 429.587,304.998 433.754,297.832 436,289.5C 441.439,242.871 446.439,196.205 451,149.5C 455.923,139.986 460.59,130.32 465,120.5C 479.227,81.688 469.06,51.3546 434.5,29.5 Z"/></g>
<g><path style="opacity:1" fill="#0b0806" d="M 348.5,79.5 C 359.167,80.0025 361.833,84.8359 356.5,94C 347.871,96.7651 343.704,93.5985 344,84.5C 345.025,82.313 346.525,80.6464 348.5,79.5 Z"/></g>
<g><path style="opacity:1" fill="#0c0a07" d="M 380.5,87.5 C 386.629,86.5548 390.296,89.0548 391.5,95C 391.333,100.5 388.5,103.333 383,103.5C 377.016,102.261 374.683,98.5942 376,92.5C 377.025,90.313 378.525,88.6464 380.5,87.5 Z"/></g>
<g><path style="opacity:1" fill="#0d0a07" d="M 396.5,119.5 C 407.167,120.003 409.833,124.836 404.5,134C 395.42,137.215 391.253,134.048 392,124.5C 393.025,122.313 394.525,120.646 396.5,119.5 Z"/></g>
<g><path style="opacity:1" fill="#f5bb84" d="M 221.5,124.5 C 242.393,121.849 259.56,128.515 273,144.5C 281.713,157.268 287.713,171.268 291,186.5C 292.413,189.661 294.08,192.661 296,195.5C 323.667,229.5 351.333,263.5 379,297.5C 389.913,314.953 388.413,331.286 374.5,346.5C 373.771,337.147 370.938,328.481 366,320.5C 337,284.5 308,248.5 279,212.5C 275.871,202.78 272.538,193.114 269,183.5C 252.046,146.937 223.546,131.77 183.5,138C 195.61,131.577 208.277,127.077 221.5,124.5 Z"/></g>
<g><path style="opacity:1" fill="#0c0907" d="M 348.5,151.5 C 359.167,152.003 361.833,156.836 356.5,166C 352.252,168.348 348.419,167.848 345,164.5C 342.325,159.011 343.492,154.678 348.5,151.5 Z"/></g>
<g><path style="opacity:1" fill="#fece9f" d="M 194.5,152.5 C 223.934,151.097 244.1,164.097 255,191.5C 258.489,201.129 261.823,210.796 265,220.5C 293.333,255.5 321.667,290.5 350,325.5C 357.099,335.027 359.432,345.693 357,357.5C 355.527,361.779 353.527,365.779 351,369.5C 311.167,409.333 271.333,449.167 231.5,489C 218.324,497.169 204.991,497.502 191.5,490C 155.456,460.287 119.123,430.954 82.5,402C 70.9455,398.612 59.6122,394.612 48.5,390C 19.9407,374.703 9.77405,351.203 18,319.5C 26.1111,294.936 38.1111,272.603 54,252.5C 84.5328,211.625 123.033,180.792 169.5,160C 177.723,156.7 186.057,154.2 194.5,152.5 Z"/></g>
<g><path style="opacity:1" fill="#0c0907" d="M 172.5,263.5 C 178.915,262.61 182.582,265.277 183.5,271.5C 183.113,276.72 180.279,279.387 175,279.5C 169.398,277.971 167.065,274.304 168,268.5C 169.025,266.313 170.525,264.646 172.5,263.5 Z"/></g>
<g><path style="opacity:1" fill="#0c0907" d="M 204.5,271.5 C 210.915,270.61 214.582,273.277 215.5,279.5C 215.113,284.72 212.279,287.387 207,287.5C 201.398,285.971 199.065,282.304 200,276.5C 201.025,274.313 202.525,272.646 204.5,271.5 Z"/></g>
<g><path style="opacity:1" fill="#0c0907" d="M 220.5,303.5 C 226.915,302.61 230.582,305.277 231.5,311.5C 231.113,316.72 228.279,319.387 223,319.5C 217.398,317.971 215.065,314.304 216,308.5C 217.025,306.313 218.525,304.646 220.5,303.5 Z"/></g>
<g><path style="opacity:1" fill="#0c0907" d="M 172.5,335.5 C 178.915,334.61 182.582,337.277 183.5,343.5C 183.113,348.72 180.279,351.387 175,351.5C 169.398,349.971 167.065,346.304 168,340.5C 169.025,338.313 170.525,336.646 172.5,335.5 Z"/></g>
</svg>
