<?xml version="1.0" encoding="UTF-8"?>
<!DOCTYPE svg PUBLIC "-//W3C//DTD SVG 1.1//EN" "http://www.w3.org/Graphics/SVG/1.1/DTD/svg11.dtd">
<svg xmlns="http://www.w3.org/2000/svg" version="1.1" width="512px" height="512px" style="shape-rendering:geometricPrecision; text-rendering:geometricPrecision; image-rendering:optimizeQuality; fill-rule:evenodd; clip-rule:evenodd" xmlns:xlink="http://www.w3.org/1999/xlink">
<g><path style="opacity:0.989" fill="#020100" d="M 78.5,-0.5 C 196.833,-0.5 315.167,-0.5 433.5,-0.5C 452.521,5.50794 463.021,18.5079 465,38.5C 465.333,84.8333 465.667,131.167 466,177.5C 478.744,181.911 487.077,190.577 491,203.5C 491.95,222.885 491.616,242.219 490,261.5C 485.872,272.795 478.038,280.129 466.5,283.5C 465.5,324.161 465.167,364.828 465.5,405.5C 479.185,409.018 487.685,417.685 491,431.5C 491.667,449.5 491.667,467.5 491,485.5C 486.983,498.682 478.483,507.349 465.5,511.5C 325.833,511.5 186.167,511.5 46.5,511.5C 32.6686,507.163 24.1686,497.829 21,483.5C 20.3333,466.5 20.3333,449.5 21,432.5C 24.0217,417.646 32.855,408.646 47.5,405.5C 47.5,364.833 47.5,324.167 47.5,283.5C 35.0842,280.254 26.5842,272.588 22,260.5C 20.3857,241.886 20.0523,223.219 21,204.5C 22.2058,199.208 24.3725,194.375 27.5,190C 20.2214,184.164 17.7214,176.664 20,167.5C 22.2634,160.903 26.7634,156.736 33.5,155C 38.122,153.844 42.7887,153.01 47.5,152.5C 47.3333,119.165 47.5,85.8317 48,52.5C 49.6379,50.2663 51.8045,48.933 54.5,48.5C 57.7872,49.0554 60.2872,50.722 62,53.5C 62.5,85.1649 62.6666,116.832 62.5,148.5C 66.9489,148.627 71.1156,147.627 75,145.5C 78.1065,131.863 81.1065,118.196 84,104.5C 89.8336,91.3413 99.3336,87.8413 112.5,94C 118.151,98.4672 121.317,104.301 122,111.5C 124.051,121.143 125.884,130.809 127.5,140.5C 130.518,140.704 133.518,141.037 136.5,141.5C 143.206,119.982 157.873,110.149 180.5,112C 185.285,112.706 189.785,114.206 194,116.5C 208.478,96.2897 226.978,91.7897 249.5,103C 251.96,104.458 254.127,106.291 256,108.5C 266.286,98.7411 278.452,95.2411 292.5,98C 303.53,100.866 312.196,107.032 318.5,116.5C 345.814,105.88 365.147,114.047 376.5,141C 398.794,138.729 414.294,147.895 423,168.5C 423.953,171.432 424.453,174.432 424.5,177.5C 432.833,177.5 441.167,177.5 449.5,177.5C 449.667,129.832 449.5,82.1655 449,34.5C 446.842,25.3505 441.342,19.1838 432.5,16C 315.889,14.3393 199.223,14.0059 82.5,15C 74.416,17.7472 68.0827,22.7472 63.5,30C 60.9865,31.2525 58.3198,31.7525 55.5,31.5C 50.3592,26.4983 50.1925,21.165 55,15.5C 61.0736,7.54916 68.9069,2.21582 78.5,-0.5 Z"/></g>
<g><path style="opacity:1" fill="#443f44" d="M 54.5,48.5 C 54.3748,42.7969 54.7081,37.1302 55.5,31.5C 58.3198,31.7525 60.9865,31.2525 63.5,30C 68.0827,22.7472 74.416,17.7472 82.5,15C 199.223,14.0059 315.889,14.3393 432.5,16C 441.342,19.1838 446.842,25.3505 449,34.5C 449.5,82.1655 449.667,129.832 449.5,177.5C 441.167,177.5 432.833,177.5 424.5,177.5C 424.453,174.432 423.953,171.432 423,168.5C 414.294,147.895 398.794,138.729 376.5,141C 365.147,114.047 345.814,105.88 318.5,116.5C 312.196,107.032 303.53,100.866 292.5,98C 278.452,95.2411 266.286,98.7411 256,108.5C 254.127,106.291 251.96,104.458 249.5,103C 226.978,91.7897 208.478,96.2897 194,116.5C 189.785,114.206 185.285,112.706 180.5,112C 157.873,110.149 143.206,119.982 136.5,141.5C 133.518,141.037 130.518,140.704 127.5,140.5C 125.884,130.809 124.051,121.143 122,111.5C 121.317,104.301 118.151,98.4672 112.5,94C 99.3336,87.8413 89.8336,91.3413 84,104.5C 81.1065,118.196 78.1065,131.863 75,145.5C 71.1156,147.627 66.9489,148.627 62.5,148.5C 62.6666,116.832 62.5,85.1649 62,53.5C 60.2872,50.722 57.7872,49.0554 54.5,48.5 Z"/></g>
<g><path style="opacity:1" fill="#020202" d="M 157.5,27.5 C 160.807,27.0632 163.807,27.7298 166.5,29.5C 170.802,36.9654 175.302,44.2988 180,51.5C 181.326,59.1712 178.159,62.6712 170.5,62C 169.069,61.5348 167.903,60.7014 167,59.5C 163,52.8333 159,46.1667 155,39.5C 152.523,34.6692 153.356,30.6692 157.5,27.5 Z"/></g>
<g><path style="opacity:1" fill="#020202" d="M 349.5,26.5 C 357.179,27.0177 360.012,31.0177 358,38.5C 354,45.1667 350,51.8333 346,58.5C 341.667,63.8333 337.333,63.8333 333,58.5C 331.699,56.6354 331.365,54.6354 332,52.5C 336.333,45.1667 340.667,37.8333 345,30.5C 346.397,28.9297 347.897,27.5964 349.5,26.5 Z"/></g>
<g><path style="opacity:1" fill="#010101" d="M 108.5,49.5 C 110.989,49.2978 113.323,49.7978 115.5,51C 125,60.5 134.5,70 144,79.5C 146.732,88.1061 143.566,91.9394 134.5,91C 124.667,81.1667 114.833,71.3333 105,61.5C 102.458,56.3612 103.624,52.3612 108.5,49.5 Z"/></g>
<g><path style="opacity:1" fill="#030303" d="M 398.5,49.5 C 407.61,49.7717 410.443,54.1051 407,62.5C 397.833,71.6667 388.667,80.8333 379.5,90C 372.536,93.4507 368.203,91.4507 366.5,84C 366.858,81.9676 367.692,80.1343 369,78.5C 378.728,68.6039 388.562,58.9372 398.5,49.5 Z"/></g>
<g><path style="opacity:1" fill="#010101" d="M 421.5,99.5 C 430.026,99.5653 432.859,103.565 430,111.5C 422.431,116.73 414.598,121.563 406.5,126C 398.839,126.67 395.673,123.17 397,115.5C 404.976,109.77 413.142,104.436 421.5,99.5 Z"/></g>
<g><path style="opacity:1" fill="#f7f0ac" d="M 99.5,106.5 C 102.044,106.104 104.211,106.771 106,108.5C 108.92,121.099 111.587,133.765 114,146.5C 115.341,153.368 119.175,158.201 125.5,161C 139.456,164.207 153.456,167.207 167.5,170C 169.648,172.075 169.982,174.408 168.5,177C 154.885,180.256 141.218,183.256 127.5,186C 120.572,188.594 116.072,193.427 114,200.5C 111.589,213.22 108.923,225.886 106,238.5C 102.385,242.765 99.7187,242.098 98,236.5C 95.2271,224.198 92.5604,211.865 90,199.5C 88.4891,193.635 84.9891,189.468 79.5,187C 65.1184,183.821 50.785,180.488 36.5,177C 33.6293,174.16 33.9626,171.826 37.5,170C 51.8825,166.791 66.2159,163.457 80.5,160C 85.1163,157.382 88.283,153.549 90,148.5C 92.4711,134.307 95.6377,120.307 99.5,106.5 Z"/></g>
<g><path style="opacity:1" fill="#e8af4c" d="M 247.5,121.5 C 229.965,125.544 222.632,136.544 225.5,154.5C 209.452,153.912 199.452,161.245 195.5,176.5C 192.167,176.5 188.833,176.5 185.5,176.5C 185.784,174.585 185.451,172.919 184.5,171.5C 184.037,165.748 181.371,161.248 176.5,158C 168.03,155.088 159.363,152.921 150.5,151.5C 152.023,133.212 162.023,125.045 180.5,127C 185.607,128.446 189.94,131.112 193.5,135C 196.634,135.79 199.634,135.457 202.5,134C 208.173,115.832 220.173,109.165 238.5,114C 242.275,115.611 245.275,118.111 247.5,121.5 Z"/></g>
<g><path style="opacity:1" fill="#f2db44" d="M 408.5,173.5 C 408.5,174.5 408.5,175.5 408.5,176.5C 337.5,176.5 266.5,176.5 195.5,176.5C 199.452,161.245 209.452,153.912 225.5,154.5C 222.632,136.544 229.965,125.544 247.5,121.5C 248.931,123.437 250.598,125.27 252.5,127C 254.833,127.667 257.167,127.667 259.5,127C 262.48,124.349 265.147,121.349 267.5,118C 278.434,110.706 289.434,110.706 300.5,118C 304.677,123.359 308.344,129.026 311.5,135C 316.918,136.267 321.252,134.601 324.5,130C 337.314,123.72 348.48,125.887 358,136.5C 361.496,141.988 363.162,147.988 363,154.5C 364.266,157.635 366.599,159.302 370,159.5C 384.994,151.843 397.328,154.843 407,168.5C 408.009,170.025 408.509,171.692 408.5,173.5 Z"/></g>
<g><path style="opacity:1" fill="#a2912e" d="M 184.5,171.5 C 185.451,172.919 185.784,174.585 185.5,176.5C 188.833,176.5 192.167,176.5 195.5,176.5C 266.5,176.5 337.5,176.5 408.5,176.5C 408.5,175.5 408.5,174.5 408.5,173.5C 409.434,174.568 409.768,175.901 409.5,177.5C 334.5,177.5 259.5,177.5 184.5,177.5C 184.5,175.5 184.5,173.5 184.5,171.5 Z"/></g>
<g><path style="opacity:1" fill="#e5a32d" d="M 178.5,268.5 C 147.832,268.667 117.165,268.5 86.5,268C 83.4333,264.703 81.2666,260.869 80,256.5C 79.1751,246.325 79.3417,236.325 80.5,226.5C 81.9725,234.022 84.1391,241.355 87,248.5C 96.6731,258.797 106.673,259.131 117,249.5C 118.275,247.283 119.275,244.949 120,242.5C 123.207,229.212 126.207,215.879 129,202.5C 129.903,201.299 131.069,200.465 132.5,200C 143.174,197.665 153.841,195.331 164.5,193C 264.167,192.333 363.833,192.333 463.5,193C 469.418,195.917 473.585,200.417 476,206.5C 476.667,222.5 476.667,238.5 476,254.5C 473.742,262.389 468.575,267.222 460.5,269C 418.163,269.833 375.829,269.667 333.5,268.5C 329.103,254.808 324.603,241.141 320,227.5C 314.073,215.582 304.573,208.082 291.5,205C 267.5,204.333 243.5,204.333 219.5,205C 206.656,208.51 197.489,216.343 192,228.5C 187.563,241.979 183.063,255.312 178.5,268.5 Z"/></g>
<g><path style="opacity:1" fill="#d98320" d="M 80.5,226.5 C 79.3417,236.325 79.1751,246.325 80,256.5C 81.2666,260.869 83.4333,264.703 86.5,268C 117.165,268.5 147.832,268.667 178.5,268.5C 157.503,269.167 136.336,269.5 115,269.5C 92.7719,269.651 70.6052,269.151 48.5,268C 41.7342,264.904 37.5676,259.737 36,252.5C 35.3333,237.5 35.3333,222.5 36,207.5C 37.4778,201.523 40.9778,197.19 46.5,194.5C 55.483,196.773 64.483,198.94 73.5,201C 74.7014,201.903 75.5348,203.069 76,204.5C 77.6949,211.808 79.1949,219.141 80.5,226.5 Z"/></g>
<g><path style="opacity:1" fill="#f1da44" d="M 221.5,219.5 C 245.565,219.03 269.565,219.53 293.5,221C 297.579,223.075 301.079,225.908 304,229.5C 311.593,249.944 318.593,270.611 325,291.5C 326.579,302.096 323.079,310.596 314.5,317C 298.11,329.056 281.443,340.723 264.5,352C 257.187,354.435 250.187,353.769 243.5,350C 225.717,337.218 208.217,324.051 191,310.5C 186.424,303.647 185.424,296.314 188,288.5C 193.799,270.104 199.799,251.771 206,233.5C 209.492,226.834 214.659,222.168 221.5,219.5 Z"/></g>
<g><path style="opacity:1" fill="#050401" d="M 247.5,231.5 C 276.154,231.312 288.654,245.312 285,273.5C 283.055,278.557 280.221,283.057 276.5,287C 281.459,295.084 286.293,303.251 291,311.5C 291.65,316.027 289.816,319.194 285.5,321C 264.833,321.667 244.167,321.667 223.5,321C 219.139,318.774 217.639,315.274 219,310.5C 223.633,302.732 228.133,294.899 232.5,287C 218.027,269.061 219.361,252.395 236.5,237C 240.259,235.121 243.925,233.287 247.5,231.5 Z"/></g>
<g><path style="opacity:1" fill="#433e43" d="M 250.5,246.5 C 267.153,246.315 273.653,254.315 270,270.5C 267.438,274.801 264.104,278.467 260,281.5C 259.159,285.12 259.826,288.454 262,291.5C 264.635,296.298 267.468,300.965 270.5,305.5C 260.167,306.833 249.833,306.833 239.5,305.5C 243.673,298.824 247.006,291.824 249.5,284.5C 249.333,283.167 249.167,281.833 249,280.5C 237.993,273.823 235.326,264.823 241,253.5C 243.529,250.115 246.696,247.782 250.5,246.5 Z"/></g>
<g><path style="opacity:1" fill="#443f44" d="M 171.5,298.5 C 143.833,298.5 116.167,298.5 88.5,298.5C 88.5,333.833 88.5,369.167 88.5,404.5C 79.8333,404.5 71.1667,404.5 62.5,404.5C 62.5,364.5 62.5,324.5 62.5,284.5C 99.506,284.167 136.506,284.5 173.5,285.5C 171.935,289.687 171.268,294.02 171.5,298.5 Z"/></g>
<g><path style="opacity:1" fill="#454045" d="M 449.5,298.5 C 413.167,298.5 376.833,298.5 340.5,298.5C 340.814,293.817 340.148,289.317 338.5,285C 375.498,284.5 412.498,284.333 449.5,284.5C 449.5,289.167 449.5,293.833 449.5,298.5 Z"/></g>
<g><path style="opacity:1" fill="#534e56" d="M 171.5,298.5 C 172.511,310.689 177.844,320.522 187.5,328C 203.343,339.088 219.01,350.422 234.5,362C 247.447,369.877 260.78,370.543 274.5,364C 292.779,351.387 310.779,338.387 328.5,325C 335.614,317.604 339.614,308.771 340.5,298.5C 376.833,298.5 413.167,298.5 449.5,298.5C 449.5,333.833 449.5,369.167 449.5,404.5C 443.158,404.334 436.825,404.5 430.5,405C 427.603,406.715 426.269,409.215 426.5,412.5C 420.167,412.5 413.833,412.5 407.5,412.5C 407.957,408.58 406.291,406.08 402.5,405C 297.834,404.5 193.167,404.333 88.5,404.5C 88.5,369.167 88.5,333.833 88.5,298.5C 116.167,298.5 143.833,298.5 171.5,298.5 Z"/></g>
<g><path style="opacity:1" fill="#e6a42d" d="M 407.5,412.5 C 413.833,412.5 420.167,412.5 426.5,412.5C 426.744,415.263 428.077,417.429 430.5,419C 441.905,419.066 453.238,419.733 464.5,421C 469.333,423.167 472.833,426.667 475,431.5C 476.623,448.1 476.956,464.767 476,481.5C 473.928,488.573 469.428,493.406 462.5,496C 337.5,496.5 212.5,496.667 87.5,496.5C 83.7113,492.593 81.2113,487.926 80,482.5C 79.3333,465.833 79.3333,449.167 80,432.5C 81.4877,427.517 83.9877,423.184 87.5,419.5C 192.834,419.667 298.167,419.5 403.5,419C 406.222,417.728 407.556,415.561 407.5,412.5 Z"/></g>
<g><path style="opacity:1" fill="#dc8420" d="M 87.5,419.5 C 83.9877,423.184 81.4877,427.517 80,432.5C 79.3333,449.167 79.3333,465.833 80,482.5C 81.2113,487.926 83.7113,492.593 87.5,496.5C 74.8289,496.667 62.1623,496.5 49.5,496C 41.6845,493.187 37.1845,487.687 36,479.5C 35.3333,464.5 35.3333,449.5 36,434.5C 38.1667,427 43,422.167 50.5,420C 62.8288,419.5 75.1622,419.333 87.5,419.5 Z"/></g>
</svg>
