<?xml version="1.0" encoding="UTF-8"?>
<!DOCTYPE svg PUBLIC "-//W3C//DTD SVG 1.1//EN" "http://www.w3.org/Graphics/SVG/1.1/DTD/svg11.dtd">
<svg xmlns="http://www.w3.org/2000/svg" version="1.1" width="512px" height="512px" style="shape-rendering:geometricPrecision; text-rendering:geometricPrecision; image-rendering:optimizeQuality; fill-rule:evenodd; clip-rule:evenodd" xmlns:xlink="http://www.w3.org/1999/xlink">
<g><path style="opacity:0.967" fill="#020100" d="M 232.5,-0.5 C 247.5,-0.5 262.5,-0.5 277.5,-0.5C 377.807,11.9842 449.307,63.9842 492,155.5C 502.135,180.377 508.635,206.043 511.5,232.5C 511.5,247.5 511.5,262.5 511.5,277.5C 508.051,312.276 498.217,345.276 482,376.5C 478.95,380.13 475.117,381.297 470.5,380C 462.864,373.365 455.53,366.365 448.5,359C 442.833,358.333 437.167,358.333 431.5,359C 439.097,365.925 445.931,373.425 452,381.5C 452.667,394.167 452.667,406.833 452,419.5C 414.93,464.47 367.763,493.303 310.5,506C 299.425,508.269 288.425,510.103 277.5,511.5C 262.833,511.5 248.167,511.5 233.5,511.5C 143.44,500.904 75.6069,456.57 30,378.5C 13.6164,346.942 3.44976,313.608 -0.5,278.5C -0.5,263.167 -0.5,247.833 -0.5,232.5C 3.1637,196.004 13.997,161.671 32,129.5C 32.7504,128.874 33.5838,128.374 34.5,128C 52.8333,127.667 71.1667,127.333 89.5,127C 91.8333,124.667 94.1667,122.333 96.5,120C 91.5,119.667 86.5,119.333 81.5,119C 74.0386,113.207 66.8719,107.041 60,100.5C 57.6786,95.4163 58.3453,90.7496 62,86.5C 107.729,35.8847 164.563,6.88474 232.5,-0.5 Z"/></g>
<g><path style="opacity:1" fill="#fd9601" d="M 334.5,30.5 C 407.605,67.4769 453.605,125.977 472.5,206C 472.472,207.07 472.139,207.903 471.5,208.5C 465.896,204.018 461.063,204.685 457,210.5C 455.616,218.273 458.782,222.106 466.5,222C 470.847,220.82 473.18,217.987 473.5,213.5C 476.009,226.234 477.343,239.234 477.5,252.5C 474.411,247.879 470.077,246.379 464.5,248C 459.167,253 459.167,258 464.5,263C 469.444,264.407 473.444,263.241 476.5,259.5C 477.009,271.904 476.009,284.237 473.5,296.5C 471.905,290.238 467.905,287.738 461.5,289C 455.697,293.286 455.031,298.286 459.5,304C 463.868,306.216 467.868,305.716 471.5,302.5C 472.097,302.735 472.43,303.235 472.5,304C 469.514,318.135 465.514,331.968 460.5,345.5C 458.535,343.512 456.202,342.012 453.5,341C 437.833,340.333 422.167,340.333 406.5,341C 402.724,342.605 400.724,345.438 400.5,349.5C 395.156,349.334 389.823,349.501 384.5,350C 395.333,360.833 406.167,371.667 417,382.5C 417.667,394.167 417.667,405.833 417,417.5C 393.376,443.712 365.876,464.712 334.5,480.5C 247.046,508.594 168.046,493.427 97.5,435C 37.142,378.616 10.642,309.116 18,226.5C 21.4048,197.876 29.9048,170.876 43.5,145.5C 61.8892,144.962 80.2225,144.128 98.5,143C 107.667,133.833 116.833,124.667 126,115.5C 129.002,109.007 127.169,104.507 120.5,102C 109.5,101.667 98.5,101.333 87.5,101C 84.5372,99.0394 81.8706,96.706 79.5,94C 142.293,29.0729 218.293,5.07294 307.5,22C 316.785,24.3307 325.785,27.1641 334.5,30.5 Z"/></g>
<g><path style="opacity:1" fill="#060300" d="M 252.5,33.5 C 261.207,33.0367 264.707,37.0367 263,45.5C 260.774,49.8608 257.274,51.3608 252.5,50C 247.931,47.4586 246.431,43.6253 248,38.5C 249.193,36.5029 250.693,34.8362 252.5,33.5 Z"/></g>
<g><path style="opacity:1" fill="#f17a00" d="M 334.5,30.5 C 399.395,54.2252 446.228,97.5585 475,160.5C 501.735,225.878 500.902,290.878 472.5,355.5C 471.998,356.521 471.332,356.688 470.5,356C 466.963,352.631 463.629,349.131 460.5,345.5C 465.514,331.968 469.514,318.135 472.5,304C 472.43,303.235 472.097,302.735 471.5,302.5C 472.73,300.703 473.396,298.703 473.5,296.5C 476.009,284.237 477.009,271.904 476.5,259.5C 477.219,257.236 477.552,254.903 477.5,252.5C 477.343,239.234 476.009,226.234 473.5,213.5C 473.107,211.716 472.441,210.05 471.5,208.5C 472.139,207.903 472.472,207.07 472.5,206C 453.605,125.977 407.605,67.4769 334.5,30.5 Z"/></g>
<g><path style="opacity:1" fill="#0c0600" d="M 211.5,37.5 C 218.985,37.4831 222.485,41.1498 222,48.5C 218.228,55.2321 213.228,56.2321 207,51.5C 203.973,45.2627 205.473,40.5961 211.5,37.5 Z"/></g>
<g><path style="opacity:1" fill="#0c0600" d="M 294.5,37.5 C 302.523,37.683 306.023,41.683 305,49.5C 302.459,54.0685 298.625,55.5685 293.5,54C 286.657,48.0515 286.991,42.5515 294.5,37.5 Z"/></g>
<g><path style="opacity:1" fill="#080400" d="M 169.5,50.5 C 181.484,49.6628 184.817,54.4962 179.5,65C 170.059,68.5439 165.559,65.3772 166,55.5C 166.997,53.6769 168.164,52.0103 169.5,50.5 Z"/></g>
<g><path style="opacity:1" fill="#090400" d="M 333.5,50.5 C 342.158,49.327 345.992,52.9937 345,61.5C 343.471,64.9338 340.804,66.6004 337,66.5C 331.634,66.3056 328.801,63.4722 328.5,58C 328.831,54.5199 330.498,52.0199 333.5,50.5 Z"/></g>
<g><path style="opacity:1" fill="#0b0500" d="M 133.5,69.5 C 143.582,69.5611 146.915,74.2278 143.5,83.5C 137.387,88.2335 132.554,87.2335 129,80.5C 128.333,78.5 128.333,76.5 129,74.5C 130.707,72.9625 132.207,71.2959 133.5,69.5 Z"/></g>
<g><path style="opacity:1" fill="#0a0400" d="M 370.5,69.5 C 380.642,69.6116 383.975,74.2783 380.5,83.5C 374.387,88.2335 369.554,87.2335 366,80.5C 365.333,78.5 365.333,76.5 366,74.5C 367.707,72.9625 369.207,71.2959 370.5,69.5 Z"/></g>
<g><path style="opacity:1" fill="#040200" d="M 240.5,76.5 C 276.166,74.6144 307.666,84.9477 335,107.5C 365.035,80.0183 378.035,86.685 374,127.5C 373.062,133.148 371.229,138.481 368.5,143.5C 384.542,151.901 392.708,165.235 393,183.5C 388.344,189.583 382.178,193.249 374.5,194.5C 374.179,201.14 371.679,206.807 367,211.5C 365.92,220.326 366.587,228.993 369,237.5C 374.667,246.833 380.333,256.167 386,265.5C 388.783,280.75 382.283,289.25 366.5,291C 366.043,291.414 365.709,291.914 365.5,292.5C 367.958,300.79 365.958,307.79 359.5,313.5C 365.149,324.554 362.816,333.554 352.5,340.5C 349.156,347.415 347.656,354.748 348,362.5C 343.438,379.033 332.605,385.867 315.5,383C 305.117,380.321 294.784,377.488 284.5,374.5C 284.167,374.833 283.833,375.167 283.5,375.5C 282.361,384.452 282.195,393.452 283,402.5C 284.415,412.166 286.582,421.666 289.5,431C 288.794,437.712 285.127,440.712 278.5,440C 251.113,419.139 220.78,403.806 187.5,394C 172.89,390.003 158.223,389.669 143.5,393C 139.271,394.115 135.271,395.781 131.5,398C 121.431,398.579 118.264,394.079 122,384.5C 126.619,380.94 131.786,378.607 137.5,377.5C 140.694,370.109 144.194,362.775 148,355.5C 156.806,336.775 158.473,317.441 153,297.5C 145.053,271.581 137.553,245.581 130.5,219.5C 119.503,220.175 108.503,220.342 97.5,220C 91.745,213.863 92.4117,208.53 99.5,204C 108.178,203.587 116.844,203.087 125.5,202.5C 122.325,189.871 124.825,178.537 133,168.5C 140.885,129.277 163.385,102.111 200.5,87C 213.505,81.7729 226.838,78.2729 240.5,76.5 Z"/></g>
<g><path style="opacity:1" fill="#fbdc00" d="M 279.5,97.5 C 291.085,103.556 301.585,111.223 311,120.5C 315.551,130.923 320.051,141.256 324.5,151.5C 324.5,152.5 324.5,153.5 324.5,154.5C 320.088,155.869 315.754,157.536 311.5,159.5C 311.167,159 310.833,158.5 310.5,158C 314.562,144.365 312.562,131.698 304.5,120C 294.483,119.784 285.483,122.784 277.5,129C 261.234,141.293 255.567,157.46 260.5,177.5C 255.524,178.41 250.691,179.743 246,181.5C 246.006,176.362 246.173,171.195 246.5,166C 247.413,156.975 245.08,148.975 239.5,142C 223.319,141.186 209.819,147.019 199,159.5C 192.871,170.109 190.871,181.443 193,193.5C 187.876,194.571 182.709,195.571 177.5,196.5C 180.617,184.33 180.117,172.33 176,160.5C 175.052,158.43 173.552,156.93 171.5,156C 165.352,155.179 159.352,155.679 153.5,157.5C 160.037,137.455 172.371,121.955 190.5,111C 218.443,93.8958 248.109,89.3958 279.5,97.5 Z"/></g>
<g><path style="opacity:1" fill="#0b0500" d="M 402.5,96.5 C 411.711,95.5418 415.545,99.5418 414,108.5C 407.625,115.623 402.291,114.956 398,106.5C 397.333,105.167 397.333,103.833 398,102.5C 399.332,100.34 400.832,98.34 402.5,96.5 Z"/></g>
<g><path style="opacity:1" fill="#f8bd07" d="M 279.5,97.5 C 296.737,101.701 311.904,109.701 325,121.5C 324.133,127.072 323.633,132.739 323.5,138.5C 323.649,142.859 323.983,147.192 324.5,151.5C 320.051,141.256 315.551,130.923 311,120.5C 301.585,111.223 291.085,103.556 279.5,97.5 Z"/></g>
<g><path style="opacity:1" fill="#f3e037" d="M 356.5,111.5 C 359.796,123.749 356.462,134.249 346.5,143C 344.783,144.559 342.783,145.392 340.5,145.5C 338.343,130.487 343.676,119.154 356.5,111.5 Z"/></g>
<g><path style="opacity:1" fill="#090400" d="M 429.5,128.5 C 437.545,128.048 441.378,131.714 441,139.5C 437.16,145.835 432.326,146.835 426.5,142.5C 423.219,136.836 424.219,132.17 429.5,128.5 Z"/></g>
<g><path style="opacity:1" fill="#f6e338" d="M 293.5,138.5 C 294.117,138.611 294.617,138.944 295,139.5C 297.83,155.521 291.663,166.188 276.5,171.5C 273.997,156.169 279.664,145.169 293.5,138.5 Z"/></g>
<g><path style="opacity:1" fill="#f5e237" d="M 226.5,159.5 C 229.907,160.174 231.24,162.341 230.5,166C 230.491,179.665 223.824,187.332 210.5,189C 207.715,179.466 210.049,171.466 217.5,165C 220.564,163.141 223.564,161.308 226.5,159.5 Z"/></g>
<g><path style="opacity:1" fill="#f7e438" d="M 350.5,160.5 C 362.03,157.514 369.863,161.514 374,172.5C 374.798,174.259 374.631,175.926 373.5,177.5C 359.243,184.04 349.909,179.707 345.5,164.5C 347.015,162.918 348.681,161.584 350.5,160.5 Z"/></g>
<g><path style="opacity:1" fill="#080400" d="M 55.5,165.5 C 64.1532,164.987 67.6532,168.987 66,177.5C 63.5258,181.319 60.0258,182.819 55.5,182C 50.8451,179.103 49.3451,174.937 51,169.5C 52.3968,167.93 53.8968,166.596 55.5,165.5 Z"/></g>
<g><path style="opacity:1" fill="#080400" d="M 449.5,165.5 C 460.895,166.091 463.562,171.258 457.5,181C 448.125,183.727 443.958,180.227 445,170.5C 446.025,168.313 447.525,166.646 449.5,165.5 Z"/></g>
<g><path style="opacity:1" fill="#f7e338" d="M 156.5,173.5 C 158.5,173.5 160.5,173.5 162.5,173.5C 165.581,188.038 160.081,197.038 146,200.5C 144.564,200.441 143.231,200.108 142,199.5C 141.161,194.079 141.494,188.746 143,183.5C 146.725,179.061 151.225,175.728 156.5,173.5 Z"/></g>
<g><path style="opacity:1" fill="#f6e338" d="M 285.5,186.5 C 300.11,184.321 308.61,190.321 311,204.5C 298.22,209.683 288.886,206.017 283,193.5C 280.505,189.84 281.338,187.507 285.5,186.5 Z"/></g>
<g><path style="opacity:1" fill="#f5ba07" d="M 340.5,189.5 C 343.781,192.148 347.448,194.314 351.5,196C 352.793,196.49 354.127,196.657 355.5,196.5C 355.256,199.263 353.923,201.429 351.5,203C 345.106,206.858 338.773,210.691 332.5,214.5C 331.623,210.09 333.123,206.757 337,204.5C 339.867,199.901 341.034,194.901 340.5,189.5 Z"/></g>
<g><path style="opacity:1" fill="#fddd00" d="M 340.5,189.5 C 341.034,194.901 339.867,199.901 337,204.5C 333.123,206.757 331.623,210.09 332.5,214.5C 332.5,216.833 332.5,219.167 332.5,221.5C 332.016,227.711 332.849,233.711 335,239.5C 341.252,249.67 347.252,260.003 353,270.5C 353.609,273.065 353.109,275.399 351.5,277.5C 347.38,277.688 344.046,279.355 341.5,282.5C 335.586,283.228 329.919,284.728 324.5,287C 330.295,291.088 332.962,296.588 332.5,303.5C 322.799,306.342 321.132,311.676 327.5,319.5C 328.39,321.782 328.556,324.115 328,326.5C 325.733,329.772 323.067,332.772 320,335.5C 315.278,343.47 313.278,352.137 314,361.5C 312.951,363.107 311.451,363.773 309.5,363.5C 287.056,358.519 265.056,352.019 243.5,344C 240.469,341.441 238.302,338.274 237,334.5C 236.605,328.741 236.939,323.075 238,317.5C 233.76,311.704 228.76,311.037 223,315.5C 215.587,341.664 225.087,358.331 251.5,365.5C 248.772,376.948 247.772,388.615 248.5,400.5C 226.829,388.553 203.829,380.053 179.5,375C 176.518,374.502 173.518,374.335 170.5,374.5C 166.5,373.833 162.5,373.167 158.5,372.5C 167.706,355.345 172.706,337.012 173.5,317.5C 173.433,309.997 172.266,302.664 170,295.5C 165.598,281.724 161.432,267.891 157.5,254C 157.833,253.5 158.167,253 158.5,252.5C 161.831,254.584 165.497,255.584 169.5,255.5C 172.477,255.902 175.143,256.902 177.5,258.5C 176.197,270.907 178.364,282.574 184,293.5C 190.547,302.349 199.047,305.182 209.5,302C 215.173,292.022 212.173,286.688 200.5,286C 198.19,284.363 196.69,282.196 196,279.5C 194.512,271.555 194.178,263.555 195,255.5C 195.249,252.823 196.249,250.49 198,248.5C 197.183,235.225 192.349,223.559 183.5,213.5C 188.198,211.161 193.198,210.328 198.5,211C 210.57,241.357 231.903,250.357 262.5,238C 266.137,232.025 266.304,225.859 263,219.5C 259.996,211.48 255.496,204.48 249.5,198.5C 254.184,196.453 259.017,194.786 264,193.5C 277.57,224.73 299.236,231.73 329,214.5C 330.761,208.786 330.428,203.119 328,197.5C 324.497,189.82 319.997,182.82 314.5,176.5C 319.637,173.929 324.971,171.929 330.5,170.5C 330.799,174.105 331.965,177.439 334,180.5C 336.385,183.379 338.552,186.379 340.5,189.5 Z"/></g>
<g><path style="opacity:1" fill="#0c0600" d="M 42.5,205.5 C 51.6584,204.491 55.4918,208.491 54,217.5C 48.2077,224.408 42.8744,224.074 38,216.5C 37.3333,214.833 37.3333,213.167 38,211.5C 39.332,209.34 40.832,207.34 42.5,205.5 Z"/></g>
<g><path style="opacity:1" fill="#0c0600" d="M 471.5,208.5 C 472.441,210.05 473.107,211.716 473.5,213.5C 473.18,217.987 470.847,220.82 466.5,222C 458.782,222.106 455.616,218.273 457,210.5C 461.063,204.685 465.896,204.018 471.5,208.5 Z"/></g>
<g><path style="opacity:1" fill="#f7e338" d="M 215.5,206.5 C 226.85,204.101 236.016,207.435 243,216.5C 244.914,219.298 245.914,222.298 246,225.5C 230.064,228.393 219.897,222.059 215.5,206.5 Z"/></g>
<g><path style="opacity:1" fill="#857a1e" d="M 155.5,218.5 C 152.612,217.99 150.279,218.656 148.5,220.5C 147.596,219.791 147.263,218.791 147.5,217.5C 150.385,217.194 153.052,217.527 155.5,218.5 Z"/></g>
<g><path style="opacity:1" fill="#fae739" d="M 155.5,218.5 C 167.103,220.106 174.77,226.439 178.5,237.5C 176.052,238.473 173.385,238.806 170.5,238.5C 159.907,236.582 152.574,230.582 148.5,220.5C 150.279,218.656 152.612,217.99 155.5,218.5 Z"/></g>
<g><path style="opacity:1" fill="#f9bd07" d="M 332.5,221.5 C 333.596,223.103 334.93,224.603 336.5,226C 340.997,226.729 345.33,226.229 349.5,224.5C 349.509,231.067 350.675,237.4 353,243.5C 358.301,252.964 363.801,262.297 369.5,271.5C 363.845,274.417 357.845,276.417 351.5,277.5C 353.109,275.399 353.609,273.065 353,270.5C 347.252,260.003 341.252,249.67 335,239.5C 332.849,233.711 332.016,227.711 332.5,221.5 Z"/></g>
<g><path style="opacity:1" fill="#8f8420" d="M 178.5,237.5 C 179.043,237.56 179.376,237.893 179.5,238.5C 176.355,239.803 173.355,239.803 170.5,238.5C 173.385,238.806 176.052,238.473 178.5,237.5 Z"/></g>
<g><path style="opacity:1" fill="#060300" d="M 38.5,247.5 C 45.3038,246.221 49.3038,248.888 50.5,255.5C 50.0963,260.737 47.263,263.403 42,263.5C 36.6339,263.306 33.8006,260.472 33.5,255C 34.313,251.858 35.9797,249.358 38.5,247.5 Z"/></g>
<g><path style="opacity:1" fill="#080300" d="M 477.5,252.5 C 477.552,254.903 477.219,257.236 476.5,259.5C 473.444,263.241 469.444,264.407 464.5,263C 459.167,258 459.167,253 464.5,248C 470.077,246.379 474.411,247.879 477.5,252.5 Z"/></g>
<g><path style="opacity:1" fill="#706200" d="M 169.5,255.5 C 172.5,255.5 175.5,255.5 178.5,255.5C 178.737,256.791 178.404,257.791 177.5,258.5C 175.143,256.902 172.477,255.902 169.5,255.5 Z"/></g>
<g><path style="opacity:1" fill="#f8bd07" d="M 341.5,282.5 C 340.677,284.455 340.51,286.455 341,288.5C 343.075,292.579 345.908,296.079 349.5,299C 343.858,300.66 338.192,302.16 332.5,303.5C 332.962,296.588 330.295,291.088 324.5,287C 329.919,284.728 335.586,283.228 341.5,282.5 Z"/></g>
<g><path style="opacity:1" fill="#0c0500" d="M 43.5,288.5 C 51.8652,288.36 55.3652,292.36 54,300.5C 51.3372,304.725 47.5039,306.225 42.5,305C 35.6707,299.003 36.004,293.503 43.5,288.5 Z"/></g>
<g><path style="opacity:1" fill="#0b0500" d="M 473.5,296.5 C 473.396,298.703 472.73,300.703 471.5,302.5C 467.868,305.716 463.868,306.216 459.5,304C 455.031,298.286 455.697,293.286 461.5,289C 467.905,287.738 471.905,290.238 473.5,296.5 Z"/></g>
<g><path style="opacity:1" fill="#f8bd07" d="M 309.5,363.5 C 311.451,363.773 312.951,363.107 314,361.5C 313.278,352.137 315.278,343.47 320,335.5C 323.067,332.772 325.733,329.772 328,326.5C 328.556,324.115 328.39,321.782 327.5,319.5C 332.195,320.692 336.861,320.359 341.5,318.5C 343.634,319.693 344.967,321.527 345.5,324C 340.189,327.991 336.355,333.157 334,339.5C 332.177,346.378 331.177,353.378 331,360.5C 328.185,366.169 323.685,368.002 317.5,366C 314.621,365.454 311.954,364.621 309.5,363.5 Z"/></g>
<g><path style="opacity:1" fill="#080400" d="M 55.5,328.5 C 64.2071,328.037 67.7071,332.037 66,340.5C 61.4865,346.747 56.4865,347.08 51,341.5C 49.3794,335.923 50.8794,331.589 55.5,328.5 Z"/></g>
<g><path style="opacity:1" fill="#f27a00" d="M 400.5,349.5 C 401.045,351.593 401.878,353.593 403,355.5C 413.333,365.833 423.667,376.167 434,386.5C 434.667,395.833 434.667,405.167 434,414.5C 406.545,445.124 373.378,467.124 334.5,480.5C 365.876,464.712 393.376,443.712 417,417.5C 417.667,405.833 417.667,394.167 417,382.5C 406.167,371.667 395.333,360.833 384.5,350C 389.823,349.501 395.156,349.334 400.5,349.5 Z"/></g>
<g><path style="opacity:1" fill="#080400" d="M 74.5,365.5 C 84.7897,365.445 88.1231,370.112 84.5,379.5C 79.5899,383.817 75.0899,383.483 71,378.5C 69.8495,376.246 69.5162,373.913 70,371.5C 71.332,369.34 72.832,367.34 74.5,365.5 Z"/></g>
<g><path style="opacity:1" fill="#f9bd07" d="M 251.5,365.5 C 256.457,366.989 261.457,368.323 266.5,369.5C 265.427,383.519 265.261,397.519 266,411.5C 260.187,407.683 254.353,404.017 248.5,400.5C 247.772,388.615 248.772,376.948 251.5,365.5 Z"/></g>
<g><path style="opacity:1" fill="#544901" d="M 158.5,372.5 C 162.5,373.167 166.5,373.833 170.5,374.5C 166.116,374.826 161.783,374.492 157.5,373.5C 157.624,372.893 157.957,372.56 158.5,372.5 Z"/></g>
<g><path style="opacity:1" fill="#0c0600" d="M 102.5,397.5 C 110.034,397.53 113.534,401.197 113,408.5C 110.549,414.089 106.383,415.922 100.5,414C 94.674,407.622 95.3406,402.122 102.5,397.5 Z"/></g>
<g><path style="opacity:1" fill="#0c0600" d="M 403.5,397.5 C 411.523,397.683 415.023,401.683 414,409.5C 411.459,414.069 407.625,415.569 402.5,414C 395.671,408.003 396.004,402.503 403.5,397.5 Z"/></g>
<g><path style="opacity:1" fill="#090400" d="M 133.5,424.5 C 143.255,424.071 146.755,428.404 144,437.5C 138.091,443.348 133.091,442.681 129,435.5C 128.333,433.5 128.333,431.5 129,429.5C 130.366,427.638 131.866,425.972 133.5,424.5 Z"/></g>
<g><path style="opacity:1" fill="#080400" d="M 370.5,424.5 C 378.879,423.715 382.712,427.381 382,435.5C 377.814,442.538 372.814,443.205 367,437.5C 364.319,432.055 365.485,427.722 370.5,424.5 Z"/></g>
<g><path style="opacity:1" fill="#080400" d="M 170.5,444.5 C 178.665,443.175 182.498,446.509 182,454.5C 180.877,458.819 178.044,460.819 173.5,460.5C 167.067,459.657 164.567,455.991 166,449.5C 167.025,447.313 168.525,445.646 170.5,444.5 Z"/></g>
<g><path style="opacity:1" fill="#080300" d="M 333.5,444.5 C 342.161,443.329 345.994,446.996 345,455.5C 342.565,460.224 338.731,461.724 333.5,460C 326.889,454.798 326.889,449.631 333.5,444.5 Z"/></g>
<g><path style="opacity:1" fill="#070300" d="M 209.5,456.5 C 221.484,455.663 224.817,460.496 219.5,471C 211.779,474.473 207.113,472.14 205.5,464C 205.927,460.977 207.261,458.477 209.5,456.5 Z"/></g>
<g><path style="opacity:1" fill="#060300" d="M 294.5,456.5 C 304.156,457.125 307.156,461.792 303.5,470.5C 296.843,475.478 292.009,474.145 289,466.5C 288.477,461.88 290.31,458.547 294.5,456.5 Z"/></g>
<g><path style="opacity:1" fill="#080300" d="M 252.5,460.5 C 261.207,460.037 264.707,464.037 263,472.5C 257.916,479.059 252.916,479.059 248,472.5C 246.309,467.131 247.809,463.131 252.5,460.5 Z"/></g>
</svg>
