<?xml version="1.0" encoding="UTF-8"?>
<!DOCTYPE svg PUBLIC "-//W3C//DTD SVG 1.1//EN" "http://www.w3.org/Graphics/SVG/1.1/DTD/svg11.dtd">
<svg xmlns="http://www.w3.org/2000/svg" version="1.1" width="512px" height="512px" style="shape-rendering:geometricPrecision; text-rendering:geometricPrecision; image-rendering:optimizeQuality; fill-rule:evenodd; clip-rule:evenodd" xmlns:xlink="http://www.w3.org/1999/xlink">
<g><path style="opacity:0.967" fill="#010000" d="M 112.5,-0.5 C 116.833,-0.5 121.167,-0.5 125.5,-0.5C 168.725,13.1288 212.059,26.7954 255.5,40.5C 298.669,26.9975 341.669,13.3308 384.5,-0.5C 389.5,-0.5 394.5,-0.5 399.5,-0.5C 418.711,9.36374 422.878,23.6971 412,42.5C 408.707,45.7869 404.873,48.2869 400.5,50C 381.655,55.6156 362.988,61.6156 344.5,68C 363.439,74.2018 382.439,80.2018 401.5,86C 415.097,92.782 420.263,103.615 417,118.5C 412.684,129.741 404.517,135.741 392.5,136.5C 386.713,136.244 381.213,134.91 376,132.5C 375.333,176.167 375.333,219.833 376,263.5C 387.201,265.693 395.201,272.026 400,282.5C 411,320.167 422,357.833 433,395.5C 438.019,411.102 434.185,423.935 421.5,434C 389.397,446.201 357.063,457.701 324.5,468.5C 324.667,480.505 324.5,492.505 324,504.5C 323.455,507.527 321.955,509.86 319.5,511.5C 276.833,511.5 234.167,511.5 191.5,511.5C 189.045,509.86 187.545,507.527 187,504.5C 186.5,492.505 186.333,480.505 186.5,468.5C 153.937,457.701 121.603,446.201 89.5,434C 76.8147,423.935 72.9814,411.102 78,395.5C 89,357.833 100,320.167 111,282.5C 115.799,272.026 123.799,265.693 135,263.5C 135.667,219.833 135.667,176.167 135,132.5C 121.126,139.396 108.793,137.396 98,126.5C 89.7242,112.541 91.5575,100.041 103.5,89C 124.512,81.079 145.845,74.079 167.5,68C 146.352,61.3953 125.352,54.3953 104.5,47C 94.2858,38.6866 91.1192,28.1866 95,15.5C 98.5029,7.49214 104.336,2.15881 112.5,-0.5 Z M 243.5,98.5 C 244.5,98.5 245.5,98.5 246.5,98.5C 246.5,145.167 246.5,191.833 246.5,238.5C 206.465,242.376 186.465,264.543 186.5,305C 186.544,328.463 193.378,349.63 207,368.5C 211.033,372.868 215.366,376.868 220,380.5C 220.667,391.833 220.667,403.167 220,414.5C 193.981,406.657 168.147,397.657 142.5,387.5C 151.869,356.857 160.536,326.024 168.5,295C 168.017,283.535 163.184,274.368 154,267.5C 153.5,220.501 153.333,173.501 153.5,126.5C 183.771,117.741 213.771,108.408 243.5,98.5 Z M 264.5,98.5 C 295.5,107.833 326.5,117.167 357.5,126.5C 357.667,173.501 357.5,220.501 357,267.5C 347.963,274.241 343.129,283.241 342.5,294.5C 350.385,325.707 359.052,356.707 368.5,387.5C 342.853,397.657 317.019,406.657 291,414.5C 290.333,403.167 290.333,391.833 291,380.5C 305.658,369.202 315.324,354.535 320,336.5C 326.985,312.977 325.651,289.977 316,267.5C 304.038,248.928 286.872,239.261 264.5,238.5C 264.5,191.833 264.5,145.167 264.5,98.5 Z"/></g>
<g><path style="opacity:1" fill="#fa9501" d="M 378.5,97.5 C 380.144,100.004 381.644,102.671 383,105.5C 383.667,108.167 383.667,110.833 383,113.5C 382.583,114.756 381.75,115.423 380.5,115.5C 290.997,88.5005 201.83,60.5005 113,31.5C 108.462,21.6966 111.628,16.8632 122.5,17C 207.825,43.9422 293.159,70.7756 378.5,97.5 Z"/></g>
<g><path style="opacity:1" fill="#ee7800" d="M 378.5,38.5 C 379.973,35.5531 381.473,32.5531 383,29.5C 383.747,26.0764 383.58,22.7431 382.5,19.5C 388.918,14.8745 394.752,15.5412 400,21.5C 400.931,25.4123 400.097,28.9123 397.5,32C 391.112,34.0736 384.779,36.2402 378.5,38.5 Z"/></g>
<g><path style="opacity:1" fill="#f99401" d="M 382.5,19.5 C 383.58,22.7431 383.747,26.0764 383,29.5C 381.473,32.5531 379.973,35.5531 378.5,38.5C 356.513,45.1641 334.513,51.8307 312.5,58.5C 303.011,56.1704 293.678,53.3371 284.5,50C 316.988,39.2122 349.655,29.0455 382.5,19.5 Z"/></g>
<g><path style="opacity:1" fill="#f99401" d="M 196.5,76.5 C 206.628,79.3766 216.628,82.5433 226.5,86C 192.367,96.2667 158.367,106.933 124.5,118C 114.899,120.715 110.399,117.215 111,107.5C 112.167,105 114,103.167 116.5,102C 143.38,93.7876 170.046,85.2876 196.5,76.5 Z"/></g>
<g><path style="opacity:1" fill="#ee7900" d="M 378.5,97.5 C 384.933,99.3665 391.266,101.533 397.5,104C 401.677,108.954 401.343,113.62 396.5,118C 390.75,119.065 385.416,118.231 380.5,115.5C 381.75,115.423 382.583,114.756 383,113.5C 383.667,110.833 383.667,108.167 383,105.5C 381.644,102.671 380.144,100.004 378.5,97.5 Z"/></g>
<g><path style="opacity:1" fill="#01a8f2" d="M 269.5,256.5 C 280.683,266.193 287.183,278.526 289,293.5C 291.61,319.141 285.61,342.474 271,363.5C 267.271,367.398 263.438,371.065 259.5,374.5C 246.232,375.856 234.899,371.856 225.5,362.5C 208.504,342.664 201.67,319.664 205,293.5C 208.167,271.667 220.667,259.167 242.5,256C 251.548,255.223 260.548,255.389 269.5,256.5 Z"/></g>
<g><path style="opacity:1" fill="#0275ba" d="M 269.5,256.5 C 290.893,259.726 303.06,272.06 306,293.5C 308.879,316.453 303.879,337.453 291,356.5C 283.254,367.291 272.754,373.291 259.5,374.5C 263.438,371.065 267.271,367.398 271,363.5C 285.61,342.474 291.61,319.141 289,293.5C 287.183,278.526 280.683,266.193 269.5,256.5 Z"/></g>
<g><path style="opacity:1" fill="#1565bf" d="M 125.5,400.5 C 119.686,399.173 114.019,397.34 108.5,395C 107.376,394.161 106.709,392.994 106.5,391.5C 114.865,361.042 123.698,330.709 133,300.5C 133.996,294.92 133.496,289.587 131.5,284.5C 139.285,279.427 145.451,281.094 150,289.5C 150.167,291.167 150.333,292.833 150.5,294.5C 141.652,326.552 132.486,358.552 123,390.5C 122.024,394.327 122.857,397.66 125.5,400.5 Z"/></g>
<g><path style="opacity:1" fill="#1464bd" d="M 391.5,426.5 C 398.861,419.763 401.694,411.43 400,401.5C 388.75,363.92 377.75,326.254 367,288.5C 366.392,286.934 365.558,285.6 364.5,284.5C 372.499,279.496 378.999,281.162 384,289.5C 395,327.167 406,364.833 417,402.5C 418.109,408.229 416.942,413.395 413.5,418C 406.339,421.33 399.006,424.164 391.5,426.5 Z"/></g>
<g><path style="opacity:1" fill="#2193ee" d="M 131.5,284.5 C 133.496,289.587 133.996,294.92 133,300.5C 123.698,330.709 114.865,361.042 106.5,391.5C 106.709,392.994 107.376,394.161 108.5,395C 114.019,397.34 119.686,399.173 125.5,400.5C 151.159,409.831 176.825,419.164 202.5,428.5C 196.883,435.397 192.549,443.063 189.5,451.5C 160.538,441.235 131.538,431.068 102.5,421C 94.9688,417.101 92.1355,410.934 94,402.5C 105.135,364.096 116.468,325.763 128,287.5C 129.039,286.29 130.206,285.29 131.5,284.5 Z"/></g>
<g><path style="opacity:1" fill="#2193ef" d="M 364.5,284.5 C 365.558,285.6 366.392,286.934 367,288.5C 377.75,326.254 388.75,363.92 400,401.5C 401.694,411.43 398.861,419.763 391.5,426.5C 368.188,434.82 344.854,443.153 321.5,451.5C 318.451,443.063 314.117,435.397 308.5,428.5C 333.043,419.374 357.71,410.541 382.5,402C 387.426,399.647 389.26,395.814 388,390.5C 379.153,360.11 370.153,329.776 361,299.5C 359.559,293.772 360.726,288.772 364.5,284.5 Z"/></g>
<g><path style="opacity:1" fill="#2194f0" d="M 253.5,391.5 C 255.379,396.87 256.045,402.537 255.5,408.5C 251.629,408.185 247.962,408.518 244.5,409.5C 242.5,409.5 240.5,409.5 238.5,409.5C 238.5,402.833 238.5,396.167 238.5,389.5C 243.364,391.041 248.364,391.708 253.5,391.5 Z"/></g>
<g><path style="opacity:1" fill="#1462b9" d="M 244.5,409.5 C 247.962,408.518 251.629,408.185 255.5,408.5C 256.045,402.537 255.379,396.87 253.5,391.5C 259.615,391.732 265.615,391.066 271.5,389.5C 272.497,396.134 272.83,402.8 272.5,409.5C 263.167,409.5 253.833,409.5 244.5,409.5 Z"/></g>
<g><path style="opacity:1" fill="#02a8f3" d="M 267.5,426.5 C 280.025,435.205 287.192,447.205 289,462.5C 289.5,473.161 289.667,483.828 289.5,494.5C 261.167,494.5 232.833,494.5 204.5,494.5C 204.333,482.829 204.5,471.162 205,459.5C 209.833,442.667 220.667,431.833 237.5,427C 247.494,426.5 257.494,426.334 267.5,426.5 Z"/></g>
<g><path style="opacity:1" fill="#0275ba" d="M 267.5,426.5 C 287.381,429.201 300.214,440.201 306,459.5C 306.5,471.162 306.667,482.829 306.5,494.5C 300.833,494.5 295.167,494.5 289.5,494.5C 289.667,483.828 289.5,473.161 289,462.5C 287.192,447.205 280.025,435.205 267.5,426.5 Z"/></g>
</svg>
