<?xml version="1.0" encoding="UTF-8"?>
<!DOCTYPE svg PUBLIC "-//W3C//DTD SVG 1.1//EN" "http://www.w3.org/Graphics/SVG/1.1/DTD/svg11.dtd">
<svg xmlns="http://www.w3.org/2000/svg" version="1.1" width="100px" height="100px" style="shape-rendering:geometricPrecision; text-rendering:geometricPrecision; image-rendering:optimizeQuality; fill-rule:evenodd; clip-rule:evenodd" xmlns:xlink="http://www.w3.org/1999/xlink">
<g><path style="opacity:0.96" fill="#484c54" d="M 46.5,-0.5 C 48.5,-0.5 50.5,-0.5 52.5,-0.5C 66.786,3.90059 72.1194,13.4006 68.5,28C 73.0464,26.8267 77.713,26.16 82.5,26C 90.7774,28.7219 93.6108,34.2219 91,42.5C 90.2155,44.286 89.0488,45.786 87.5,47C 81.3893,49.6109 75.0559,51.4443 68.5,52.5C 69.3392,62.5101 73.1726,71.1768 80,78.5C 84.958,86.1573 83.7913,92.6573 76.5,98C 72.3749,98.8538 68.3749,98.5204 64.5,97C 59.3086,90.6426 54.3086,84.1426 49.5,77.5C 45.1667,83.5 40.8333,89.5 36.5,95.5C 34.4749,97.5644 32.1416,98.8977 29.5,99.5C 28.1667,99.5 26.8333,99.5 25.5,99.5C 17.4211,96.6771 14.5878,91.0105 17,82.5C 21.0635,76.7638 24.7302,70.7638 28,64.5C 29.4698,60.6224 30.3031,56.6224 30.5,52.5C 23.9376,51.4429 17.6043,49.6096 11.5,47C 7.2237,42.1081 6.39036,36.6081 9,30.5C 11.6481,27.5093 14.9815,25.8426 19,25.5C 22.4661,26.4089 25.9661,27.0756 29.5,27.5C 27.0431,13.0602 32.7098,3.7269 46.5,-0.5 Z"/></g>
<g><path style="opacity:1" fill="#cf8669" d="M 72.5,33.5 C 73.9099,37.3967 74.9099,41.3967 75.5,45.5C 72.1849,46.3288 68.8516,47.1621 65.5,48C 63.9716,49.6477 63.3049,51.6477 63.5,54C 64.353,64.0736 68.0197,72.907 74.5,80.5C 70.8333,82.5 67.1667,84.5 63.5,86.5C 59.0106,80.8713 54.5106,75.2047 50,69.5C 48.395,70.1007 47.0616,71.1007 46,72.5C 42.9701,77.9164 39.4701,82.9164 35.5,87.5C 32.0026,84.917 28.3359,82.5836 24.5,80.5C 32.3755,71.3762 35.7088,60.8762 34.5,49C 31.02,47.8974 27.6867,46.7308 24.5,45.5C 24.8766,41.3269 25.8766,37.3269 27.5,33.5C 30.5212,34.0049 33.5212,34.6716 36.5,35.5C 39.0815,35.2534 39.9149,33.92 39,31.5C 34.7565,26.6065 33.4231,20.9398 35,14.5C 40.7355,5.11765 48.5688,2.95098 58.5,8C 64.1706,12.5297 66.004,18.363 64,25.5C 63.4818,28.0226 62.1485,30.0226 60,31.5C 59.1458,33.6073 59.8125,34.9407 62,35.5C 65.4019,34.2741 68.9019,33.6074 72.5,33.5 Z"/></g>
<g><path style="opacity:1" fill="#f8ede8" d="M 41.5,17.5 C 45.1612,17.3501 46.1612,18.8501 44.5,22C 41.2732,21.9444 40.2732,20.4444 41.5,17.5 Z"/></g>
<g><path style="opacity:1" fill="#fcf6f4" d="M 55.5,17.5 C 58.9563,18.5362 59.2896,20.2029 56.5,22.5C 54.2957,21.218 53.9624,19.5514 55.5,17.5 Z"/></g>
<g><path style="opacity:1" fill="#fcf7f5" d="M 42.5,26.5 C 44.8257,27.1511 47.1591,27.8178 49.5,28.5C 51.8409,27.8178 54.1743,27.1511 56.5,26.5C 56.4812,31.3495 53.9812,33.6828 49,33.5C 44.5858,33.2525 42.4191,30.9191 42.5,26.5 Z"/></g>
<g><path style="opacity:1" fill="#ce8569" d="M 22.5,31.5 C 21.3436,35.7925 20.3436,40.1259 19.5,44.5C 13.5896,43.6912 11.4229,40.3579 13,34.5C 15.5463,31.8144 18.713,30.8144 22.5,31.5 Z"/></g>
<g><path style="opacity:1" fill="#cf8569" d="M 77.5,31.5 C 85.0279,31.0231 87.6945,34.3564 85.5,41.5C 84.1502,42.9501 82.4835,43.6168 80.5,43.5C 79.1876,39.5837 78.1876,35.5837 77.5,31.5 Z"/></g>
<g><path style="opacity:1" fill="#f6f1ef" d="M 22.5,31.5 C 24.403,31.7959 26.0697,32.4625 27.5,33.5C 25.8766,37.3269 24.8766,41.3269 24.5,45.5C 22.7085,45.634 21.0418,45.3007 19.5,44.5C 20.3436,40.1259 21.3436,35.7925 22.5,31.5 Z"/></g>
<g><path style="opacity:1" fill="#f8f2f0" d="M 77.5,31.5 C 78.1876,35.5837 79.1876,39.5837 80.5,43.5C 79.0697,44.5375 77.403,45.2041 75.5,45.5C 74.9099,41.3967 73.9099,37.3967 72.5,33.5C 73.7804,32.0687 75.4471,31.4021 77.5,31.5 Z"/></g>
<g><path style="opacity:1" fill="#fbf6f4" d="M 48.5,44.5 C 51.9563,45.5362 52.2896,47.2029 49.5,49.5C 47.2957,48.218 46.9624,46.5514 48.5,44.5 Z"/></g>
<g><path style="opacity:1" fill="#fcf6f4" d="M 47.5,58.5 C 48.8333,58.5 50.1667,58.5 51.5,58.5C 51.5,59.8333 51.5,61.1667 51.5,62.5C 50.1667,62.5 48.8333,62.5 47.5,62.5C 47.5,61.1667 47.5,59.8333 47.5,58.5 Z"/></g>
<g><path style="opacity:1" fill="#f9f6f5" d="M 24.5,80.5 C 28.3359,82.5836 32.0026,84.917 35.5,87.5C 34.9744,89.2303 33.9744,90.5637 32.5,91.5C 29.2041,89.1792 25.8708,86.8458 22.5,84.5C 22.7329,82.9382 23.3995,81.6049 24.5,80.5 Z"/></g>
<g><path style="opacity:1" fill="#f9f6f5" d="M 74.5,80.5 C 75.4013,81.2905 76.0679,82.2905 76.5,83.5C 73.3495,86.5792 69.6829,88.9125 65.5,90.5C 64.3995,89.3951 63.7329,88.0618 63.5,86.5C 67.1667,84.5 70.8333,82.5 74.5,80.5 Z"/></g>
<g><path style="opacity:1" fill="#cf886d" d="M 76.5,83.5 C 78.8262,90.6823 76.1596,93.849 68.5,93C 67.0577,92.6232 66.0577,91.7899 65.5,90.5C 69.6829,88.9125 73.3495,86.5792 76.5,83.5 Z"/></g>
<g><path style="opacity:1" fill="#ce876b" d="M 22.5,84.5 C 25.8708,86.8458 29.2041,89.1792 32.5,91.5C 31.5081,93.0265 30.0081,93.6932 28,93.5C 22.0401,92.9042 20.2068,89.9042 22.5,84.5 Z"/></g>
</svg>
