<svg xmlns="http://www.w3.org/2000/svg" width="512" height="512" viewBox="0 0 512 512" version="1.1"><path d="M 116.715 2.010 C 114.628 3.651, 112.013 10.478, 102.443 39.260 C 95.999 58.642, 90.559 74.691, 90.354 74.926 C 90.150 75.160, 85.824 71.290, 80.741 66.326 C 75.610 61.315, 70.281 57.005, 68.758 56.634 C 62.043 54.998, 54.998 62.043, 56.634 68.758 C 57.005 70.281, 61.315 75.610, 66.326 80.741 C 71.290 85.824, 75.160 90.150, 74.926 90.354 C 74.691 90.559, 58.642 95.999, 39.260 102.443 C 0.400 115.364, -0 115.577, 0 123.361 C 0 127.425, 0.317 127.769, 48.250 175.754 C 81.814 209.354, 97.394 224.291, 99.438 224.826 C 101.387 225.336, 115.868 223.654, 142.438 219.830 C 164.472 216.660, 182.773 214.051, 183.108 214.033 C 183.442 214.015, 184.008 216.813, 184.366 220.250 C 184.725 223.697, 186.130 228.742, 187.499 231.500 C 190.503 237.548, 322.008 410.287, 329.332 417.805 C 336.480 425.141, 343.917 429.852, 353.956 433.401 C 361.580 436.096, 363.739 436.420, 374 436.408 C 383.825 436.397, 386.608 436.011, 393.106 433.753 C 397.289 432.300, 402.914 429.787, 405.606 428.169 L 410.500 425.227 454.026 468.614 L 497.553 512 501.853 512 C 507.924 512, 512 507.924, 512 501.853 L 512 497.553 468.609 454.026 L 425.218 410.500 427.191 407.500 C 432.768 399.023, 437 384.570, 437 374 C 437 358.524, 430.459 342.541, 419.516 331.279 C 411.383 322.909, 239.515 191.477, 231.500 187.498 C 228.744 186.130, 223.695 184.724, 220.250 184.366 C 216.813 184.008, 214.017 183.442, 214.038 183.108 C 214.060 182.773, 216.691 164.275, 219.886 142 C 223.920 113.880, 225.429 100.724, 224.824 98.962 C 224.345 97.566, 202.240 74.729, 175.702 48.212 C 127.767 0.315, 127.425 0, 123.361 0 C 120.777 0, 118.328 0.741, 116.715 2.010 M 117.013 60.461 L 106.553 91.946 126.777 112.324 L 147 132.702 147 137.164 C 147 143.309, 143.265 147, 137.046 147 C 132.735 147, 132.545 146.844, 112.319 126.772 L 91.937 106.544 60.462 117.022 L 28.986 127.500 67.431 165.933 L 105.875 204.366 148.509 198.279 C 171.957 194.931, 191.378 191.955, 191.667 191.667 C 191.955 191.378, 194.931 171.956, 198.279 148.506 L 204.367 105.870 165.919 67.423 L 127.472 28.976 117.013 60.461 M 158.923 158.923 C 151.225 166.621, 159.461 178.759, 169.528 174.553 C 171.963 173.535, 173.535 171.963, 174.553 169.528 C 178.759 159.461, 166.621 151.225, 158.923 158.923 M 213.619 205.059 C 206.794 207.044, 203.062 214.250, 205.378 220.972 C 206.344 223.776, 301.257 350.076, 307.403 356.736 C 308.285 357.692, 314.160 352.351, 333.323 333.177 L 358.104 308.382 291.802 257.847 C 255.336 230.053, 224.600 206.854, 223.500 206.295 C 220.197 204.614, 216.668 204.172, 213.619 205.059 M 347.114 347.386 C 328.331 366.179, 320.973 374.165, 321.547 375.136 C 321.990 375.886, 324.411 379.170, 326.927 382.434 C 329.442 385.697, 331.827 388.847, 332.226 389.434 C 332.966 390.521, 390.231 334.148, 389.752 332.803 C 389.449 331.952, 374.895 321, 374.067 321 C 373.747 321, 361.618 332.874, 347.114 347.386 M 375.600 375.900 L 345.781 405.731 349.196 408.336 C 360.885 417.252, 378.830 418.805, 392.485 412.082 C 413.321 401.825, 422.200 376.095, 412.036 355.427 C 406.325 343.815, 409.396 342.090, 375.600 375.900" stroke="none" fill="#050404" fill-rule="evenodd"/><path d="M 117.013 60.461 L 106.553 91.946 126.777 112.324 L 147 132.702 147 137.164 C 147 143.309, 143.265 147, 137.046 147 C 132.735 147, 132.545 146.844, 112.319 126.772 L 91.937 106.544 60.462 117.022 L 28.986 127.500 67.431 165.933 L 105.875 204.366 148.509 198.279 C 171.957 194.931, 191.378 191.955, 191.667 191.667 C 191.955 191.378, 194.931 171.956, 198.279 148.506 L 204.367 105.870 165.919 67.423 L 127.472 28.976 117.013 60.461 M 158.923 158.923 C 151.225 166.621, 159.461 178.759, 169.528 174.553 C 171.963 173.535, 173.535 171.963, 174.553 169.528 C 178.759 159.461, 166.621 151.225, 158.923 158.923 M 213.619 205.059 C 206.794 207.044, 203.062 214.250, 205.378 220.972 C 206.344 223.776, 301.257 350.076, 307.403 356.736 C 308.285 357.692, 314.160 352.351, 333.323 333.177 L 358.104 308.382 291.802 257.847 C 255.336 230.053, 224.600 206.854, 223.500 206.295 C 220.197 204.614, 216.668 204.172, 213.619 205.059 M 347.114 347.386 C 328.331 366.179, 320.973 374.165, 321.547 375.136 C 321.990 375.886, 324.411 379.170, 326.927 382.434 C 329.442 385.697, 331.827 388.847, 332.226 389.434 C 332.966 390.521, 390.231 334.148, 389.752 332.803 C 389.449 331.952, 374.895 321, 374.067 321 C 373.747 321, 361.618 332.874, 347.114 347.386 M 375.600 375.900 L 345.781 405.731 349.196 408.336 C 360.885 417.252, 378.830 418.805, 392.485 412.082 C 413.321 401.825, 422.200 376.095, 412.036 355.427 C 406.325 343.815, 409.396 342.090, 375.600 375.900" stroke="none" fill="#fa9a52" fill-rule="evenodd"/></svg>