<?xml version="1.0" encoding="UTF-8"?>
<!DOCTYPE svg PUBLIC "-//W3C//DTD SVG 1.1//EN" "http://www.w3.org/Graphics/SVG/1.1/DTD/svg11.dtd">
<svg xmlns="http://www.w3.org/2000/svg" version="1.1" width="512px" height="512px" style="shape-rendering:geometricPrecision; text-rendering:geometricPrecision; image-rendering:optimizeQuality; fill-rule:evenodd; clip-rule:evenodd" xmlns:xlink="http://www.w3.org/1999/xlink">
<g><path style="opacity:0.982" fill="#a2f4e3" d="M 103.5,5.5 C 105.467,5.26057 107.301,5.59391 109,6.5C 112,14.8333 115,23.1667 118,31.5C 125.443,36.1386 133.276,40.1386 141.5,43.5C 142.833,45.8333 142.833,48.1667 141.5,50.5C 133.307,53.8461 125.474,57.8461 118,62.5C 115.025,71.094 111.858,79.594 108.5,88C 105.472,89.1397 103.305,88.3064 102,85.5C 99.1361,77.9084 96.4694,70.2418 94,62.5C 86.6428,57.7383 78.8095,53.9049 70.5,51C 68.062,48.4377 68.062,45.9377 70.5,43.5C 78.6926,40.1539 86.5259,36.1539 94,31.5C 96.9048,22.6995 100.071,14.0328 103.5,5.5 Z"/></g>
<g><path style="opacity:0.971" fill="#a2f4e3" d="M 450.5,21.5 C 452.311,21.572 453.644,22.4053 454.5,24C 456.667,29.8333 458.833,35.6667 461,41.5C 466.27,44.5512 471.77,47.2179 477.5,49.5C 480.08,51.713 480.08,53.8797 477.5,56C 471.681,58.269 466.181,61.1023 461,64.5C 459,69.8333 457,75.1667 455,80.5C 453.776,83.473 451.776,84.1397 449,82.5C 446.667,76.1667 444.333,69.8333 442,63.5C 436.575,60.8713 431.075,58.3713 425.5,56C 424.167,54 424.167,52 425.5,50C 431.246,47.256 436.912,44.4227 442.5,41.5C 444.596,34.5316 447.263,27.8649 450.5,21.5 Z"/></g>
<g><path style="opacity:0.957" fill="#00ebc4" d="M 251.5,46.5 C 271.132,47.0939 277.966,56.7606 272,75.5C 264.604,83.8764 255.771,85.7097 245.5,81C 236.799,73.0337 235.299,63.867 241,53.5C 243.998,50.2623 247.498,47.9289 251.5,46.5 Z"/></g>
<g><path style="opacity:0.893" fill="#00eac4" d="M 389.5,75.5 C 398.158,74.327 401.992,77.9937 401,86.5C 397.108,92.2591 392.441,92.9258 387,88.5C 384.606,83.5272 385.44,79.1938 389.5,75.5 Z"/></g>
<g><path style="opacity:0.995" fill="#4e0425" d="M 511.5,181.5 C 511.5,273.5 511.5,365.5 511.5,457.5C 507.664,470.956 498.997,479.79 485.5,484C 432.198,485.307 378.865,485.974 325.5,486C 319.653,494.918 311.653,500.918 301.5,504C 286.218,505.135 270.885,505.635 255.5,505.5C 239.79,505.627 224.124,505.127 208.5,504C 198.801,500.638 191.134,494.638 185.5,486C 132.468,485.974 79.4684,485.307 26.5,484C 12.9922,479.658 3.99222,470.825 -0.5,457.5C -0.5,365.5 -0.5,273.5 -0.5,181.5C 6.87427,161.837 21.2076,152.504 42.5,153.5C 42.7022,135.461 51.7022,127.627 69.5,130C 85.6738,133.932 102.007,134.932 118.5,133C 137.596,128.413 156.596,123.413 175.5,118C 202.604,113.794 229.104,116.294 255,125.5C 264.78,122.796 274.614,120.296 284.5,118C 287.109,111.725 291.442,107.058 297.5,104C 306.095,102.877 314.761,102.377 323.5,102.5C 332.239,102.377 340.905,102.877 349.5,104C 358.723,108.445 363.723,115.778 364.5,126C 389.767,135.358 415.433,136.692 441.5,130C 459.298,127.627 468.298,135.461 468.5,153.5C 489.792,152.504 504.126,161.837 511.5,181.5 Z"/></g>
<g><path style="opacity:1" fill="#fd8abe" d="M 342.5,124.5 C 342.831,145.673 342.497,166.673 341.5,187.5C 337.709,184.882 334.043,182.049 330.5,179C 326.667,176.247 322.667,175.914 318.5,178C 313.729,181.138 309.229,184.638 305,188.5C 304.333,167.167 304.333,145.833 305,124.5C 310.925,123.19 317.092,122.523 323.5,122.5C 329.5,122.667 335.5,122.833 341.5,123C 342.056,123.383 342.389,123.883 342.5,124.5 Z"/></g>
<g><path style="opacity:1" fill="#8e345d" d="M 342.5,124.5 C 343.828,145.67 343.828,167.004 342.5,188.5C 341.893,188.376 341.56,188.043 341.5,187.5C 342.497,166.673 342.831,145.673 342.5,124.5 Z"/></g>
<g><path style="opacity:1" fill="#fdf0a4" d="M 244.5,144.5 C 245.164,219.174 244.497,293.507 242.5,367.5C 223.503,362.279 204.17,360.446 184.5,362C 161.888,367.87 139.222,373.537 116.5,379C 98.5354,380.606 80.8688,379.106 63.5,374.5C 63.5,299.833 63.5,225.167 63.5,150.5C 87.4497,155.581 111.45,155.748 135.5,151C 150.387,146.26 165.387,141.926 180.5,138C 202.426,134.6 223.759,136.767 244.5,144.5 Z"/></g>
<g><path style="opacity:1" fill="#fdf0a4" d="M 281.5,140.5 C 283.163,160.646 284.163,180.979 284.5,201.5C 287.273,211.729 293.94,215.562 304.5,213C 310.972,208.694 317.306,204.194 323.5,199.5C 329.694,204.194 336.028,208.694 342.5,213C 352.874,215.562 359.707,211.728 363,201.5C 363.333,183.5 363.667,165.5 364,147.5C 382.612,153.917 401.779,156.25 421.5,154.5C 422.5,154.5 423.5,154.5 424.5,154.5C 424.5,163.833 424.5,173.167 424.5,182.5C 411.323,182.171 398.323,182.505 385.5,183.5C 382.862,184.242 381.529,186.075 381.5,189C 381.515,191.842 382.848,193.675 385.5,194.5C 398.323,195.495 411.323,195.829 424.5,195.5C 424.5,206.833 424.5,218.167 424.5,229.5C 419.035,224.536 413.702,219.37 408.5,214C 405.97,212.578 403.303,212.245 400.5,213C 394,219.5 387.5,226 381,232.5C 380.333,234.833 380.333,237.167 381,239.5C 385.682,244.015 390.182,248.681 394.5,253.5C 390.182,258.319 385.682,262.985 381,267.5C 379.176,274.328 381.676,277.494 388.5,277C 393.348,271.985 398.348,267.152 403.5,262.5C 408.319,266.818 412.985,271.318 417.5,276C 419.786,277.664 422.119,277.83 424.5,276.5C 424.828,287.014 424.494,297.347 423.5,307.5C 422.942,306.21 421.942,305.377 420.5,305C 406.833,304.333 393.167,304.333 379.5,305C 374.167,309 374.167,313 379.5,317C 393.167,317.667 406.833,317.667 420.5,317C 421.942,316.623 422.942,315.79 423.5,314.5C 424.493,322.65 424.826,330.983 424.5,339.5C 423.317,338.496 421.984,337.662 420.5,337C 406.833,336.333 393.167,336.333 379.5,337C 374.629,340.178 374.296,343.845 378.5,348C 392.833,348.667 407.167,348.667 421.5,348C 422.416,347.722 423.082,347.222 423.5,346.5C 425.153,350.717 423.819,353.884 419.5,356C 400.384,361.725 381.051,362.725 361.5,359C 344.688,353.839 327.688,349.505 310.5,346C 303.833,345.333 297.167,345.333 290.5,346C 282.818,347.502 275.151,349.002 267.5,350.5C 266.501,282.002 266.167,213.335 266.5,144.5C 271.192,142.421 276.192,141.088 281.5,140.5 Z"/></g>
<g><path style="opacity:1" fill="#c3a07a" d="M 281.5,140.5 C 282.209,139.596 283.209,139.263 284.5,139.5C 284.5,160.167 284.5,180.833 284.5,201.5C 284.163,180.979 283.163,160.646 281.5,140.5 Z"/></g>
<g><path style="opacity:1" fill="#e6d193" d="M 244.5,144.5 C 245.499,218.998 245.833,293.665 245.5,368.5C 244.209,368.737 243.209,368.404 242.5,367.5C 244.497,293.507 245.164,219.174 244.5,144.5 Z"/></g>
<g><path style="opacity:1" fill="#e7d294" d="M 266.5,144.5 C 266.167,213.335 266.501,282.002 267.5,350.5C 267.158,351.338 266.492,351.672 265.5,351.5C 265.167,282.331 265.501,213.331 266.5,144.5 Z"/></g>
<g><path style="opacity:1" fill="#fffefd" d="M 183.5,145.5 C 194.339,143.533 199.839,147.866 200,158.5C 199.214,161.583 197.381,163.749 194.5,165C 189.917,166.145 185.251,166.811 180.5,167C 167.604,170.299 154.771,173.799 142,177.5C 134.087,176.168 131.087,171.502 133,163.5C 134.167,161 136,159.167 138.5,158C 153.421,153.024 168.421,148.857 183.5,145.5 Z"/></g>
<g><path style="opacity:1" fill="#fbb4a6" d="M 265.5,351.5 C 266.492,351.672 267.158,351.338 267.5,350.5C 275.151,349.002 282.818,347.502 290.5,346C 297.167,345.333 303.833,345.333 310.5,346C 327.688,349.505 344.688,353.839 361.5,359C 381.051,362.725 400.384,361.725 419.5,356C 423.819,353.884 425.153,350.717 423.5,346.5C 424.369,344.283 424.702,341.95 424.5,339.5C 424.826,330.983 424.493,322.65 423.5,314.5C 424.833,312.167 424.833,309.833 423.5,307.5C 424.494,297.347 424.828,287.014 424.5,276.5C 426.387,275.232 427.387,273.399 427.5,271C 426.795,268.458 425.461,266.292 423.5,264.5C 424.833,257.167 424.833,249.833 423.5,242.5C 428.424,238.541 428.757,234.207 424.5,229.5C 424.5,218.167 424.5,206.833 424.5,195.5C 411.323,195.829 398.323,195.495 385.5,194.5C 399.504,194.667 413.504,194.5 427.5,194C 431.08,191.074 431.413,187.74 428.5,184C 414.171,183.5 399.837,183.333 385.5,183.5C 398.323,182.505 411.323,182.171 424.5,182.5C 424.5,173.167 424.5,163.833 424.5,154.5C 423.5,154.5 422.5,154.5 421.5,154.5C 429.993,152.904 438.66,151.571 447.5,150.5C 447.833,225.17 447.5,299.836 446.5,374.5C 428.766,378.966 410.766,380.466 392.5,379C 373.684,374.629 355.017,369.629 336.5,364C 312.746,359.502 289.412,361.002 266.5,368.5C 265.505,362.872 265.171,357.206 265.5,351.5 Z"/></g>
<g><path style="opacity:1" fill="#fffefd" d="M 80.5,162.5 C 88.9484,162.598 97.2818,163.431 105.5,165C 112.576,171.873 111.91,177.873 103.5,183C 95.7917,183.706 88.125,183.372 80.5,182C 72.5303,175.423 72.5303,168.923 80.5,162.5 Z"/></g>
<g><path style="opacity:1" fill="#01e8c2" d="M 53.5,437.5 C 53.3337,444.175 53.5004,450.842 54,457.5C 56.3336,461.74 59.8336,464.073 64.5,464.5C 53.1618,464.667 41.8284,464.5 30.5,464C 24.8356,461.668 21.3356,457.501 20,451.5C 19.3333,363.167 19.3333,274.833 20,186.5C 24.3824,176.182 32.2158,172.182 43.5,174.5C 43.3333,257.501 43.5,340.501 44,423.5C 45.0383,429.689 48.205,434.356 53.5,437.5 Z"/></g>
<g><path style="opacity:1" fill="#45afc4" d="M 401.5,464.5 C 372.963,456.661 343.796,451.995 314,450.5C 293.837,450.766 274.337,454.433 255.5,461.5C 233.902,453.296 211.569,449.796 188.5,451C 170.886,453.601 153.886,458.101 137.5,464.5C 113.167,464.5 88.8333,464.5 64.5,464.5C 59.8336,464.073 56.3336,461.74 54,457.5C 53.5004,450.842 53.3337,444.175 53.5,437.5C 80.8204,445.374 108.487,446.541 136.5,441C 150.108,436.797 163.774,432.797 177.5,429C 194.541,425.685 211.541,426.019 228.5,430C 237.377,432.356 246.211,434.856 255,437.5C 269.852,432.662 285.018,429.162 300.5,427C 307.5,426.333 314.5,426.333 321.5,427C 344.389,433.073 367.389,438.74 390.5,444C 410.059,445.616 429.393,444.283 448.5,440C 458.034,438.796 464.2,433.629 467,424.5C 467.5,341.167 467.667,257.834 467.5,174.5C 473.929,173.698 479.929,174.864 485.5,178C 487.969,180.441 489.802,183.274 491,186.5C 491.667,275.167 491.667,363.833 491,452.5C 489.141,458.36 485.307,462.193 479.5,464C 453.502,464.5 427.502,464.667 401.5,464.5 Z"/></g>
<g><path style="opacity:1" fill="#4f0425" d="M 385.5,183.5 C 399.837,183.333 414.171,183.5 428.5,184C 431.413,187.74 431.08,191.074 427.5,194C 413.504,194.5 399.504,194.667 385.5,194.5C 382.848,193.675 381.515,191.842 381.5,189C 381.529,186.075 382.862,184.242 385.5,183.5 Z"/></g>
<g><path style="opacity:1" fill="#500726" d="M 142.5,190.5 C 185.175,188.04 213.008,207.04 226,247.5C 231.152,290.719 213.318,319.552 172.5,334C 139.121,340.546 112.621,330.046 93,302.5C 72.9606,264.699 79.1273,231.866 111.5,204C 121.038,197.44 131.372,192.94 142.5,190.5 Z"/></g>
<g><path style="opacity:1" fill="#fbeda2" d="M 145.5,202.5 C 175.984,200.647 197.817,213.314 211,240.5C 212.318,243.43 212.985,246.43 213,249.5C 173.959,212.315 134.959,212.315 96,249.5C 98.2851,237.102 104.118,226.602 113.5,218C 122.796,209.854 133.463,204.688 145.5,202.5 Z"/></g>
<g><path style="opacity:1" fill="#510827" d="M 424.5,229.5 C 428.757,234.207 428.424,238.541 423.5,242.5C 419.521,245.812 415.854,249.479 412.5,253.5C 415.854,257.521 419.521,261.188 423.5,264.5C 425.461,266.292 426.795,268.458 427.5,271C 427.387,273.399 426.387,275.232 424.5,276.5C 422.119,277.83 419.786,277.664 417.5,276C 412.985,271.318 408.319,266.818 403.5,262.5C 398.348,267.152 393.348,271.985 388.5,277C 381.676,277.494 379.176,274.328 381,267.5C 385.682,262.985 390.182,258.319 394.5,253.5C 390.182,248.681 385.682,244.015 381,239.5C 380.333,237.167 380.333,234.833 381,232.5C 387.5,226 394,219.5 400.5,213C 403.303,212.245 405.97,212.578 408.5,214C 413.702,219.37 419.035,224.536 424.5,229.5 Z"/></g>
<g><path style="opacity:1" fill="#faeba1" d="M 402.5,227.5 C 406.235,229.725 409.568,232.558 412.5,236C 409.651,239.016 406.651,241.85 403.5,244.5C 400.349,241.85 397.349,239.016 394.5,236C 397.371,233.297 400.038,230.464 402.5,227.5 Z"/></g>
<g><path style="opacity:1" fill="#520a27" d="M 296.5,233.5 C 310.837,233.333 325.171,233.5 339.5,234C 342.825,236.635 343.325,239.802 341,243.5C 340.25,244.126 339.416,244.626 338.5,245C 324.833,245.667 311.167,245.667 297.5,245C 292.649,241.573 292.316,237.74 296.5,233.5 Z"/></g>
<g><path style="opacity:1" fill="#fbeda2" d="M 149.5,237.5 C 172.157,237.656 182.991,248.989 182,271.5C 176.424,288.062 164.924,295.228 147.5,293C 131.991,287.155 125.158,275.988 127,259.5C 130.455,247.876 137.955,240.543 149.5,237.5 Z"/></g>
<g><path style="opacity:1" fill="#f6e69e" d="M 423.5,242.5 C 424.833,249.833 424.833,257.167 423.5,264.5C 419.521,261.188 415.854,257.521 412.5,253.5C 415.854,249.479 419.521,245.812 423.5,242.5 Z"/></g>
<g><path style="opacity:1" fill="#f8e9a0" d="M 189.5,247.5 C 189.56,246.957 189.893,246.624 190.5,246.5C 197.825,252.492 204.825,258.825 211.5,265.5C 205.444,272.724 198.611,279.057 191,284.5C 192.982,278.078 194.149,271.411 194.5,264.5C 194.623,258.211 192.956,252.544 189.5,247.5 Z"/></g>
<g><path style="opacity:1" fill="#f8e8a0" d="M 117.5,246.5 C 118.239,246.369 118.906,246.536 119.5,247C 115.893,252.26 114.226,258.093 114.5,264.5C 114.851,271.411 116.018,278.078 118,284.5C 110.389,279.057 103.556,272.724 97.5,265.5C 103.816,258.698 110.483,252.364 117.5,246.5 Z"/></g>
<g><path style="opacity:1" fill="#520a28" d="M 357.5,250.5 C 361.013,249.876 363.847,250.876 366,253.5C 366.667,258.167 366.667,262.833 366,267.5C 361.837,271.747 358.171,271.414 355,266.5C 353.751,260.718 354.585,255.385 357.5,250.5 Z"/></g>
<g><path style="opacity:1" fill="#510827" d="M 150.5,253.5 C 163.052,253.535 167.885,259.535 165,271.5C 161.268,277.046 156.101,278.879 149.5,277C 143.636,273.434 141.47,268.267 143,261.5C 145.028,258.308 147.528,255.641 150.5,253.5 Z"/></g>
<g><path style="opacity:1" fill="#510927" d="M 331.5,268.5 C 334.97,267.875 337.804,268.875 340,271.5C 343.793,290.718 346.46,310.051 348,329.5C 344.333,333.5 340.667,333.5 337,329.5C 334.914,316.473 332.747,303.473 330.5,290.5C 327.952,293.759 325.286,296.926 322.5,300C 320.5,300.667 318.5,300.667 316.5,300C 314.167,298.167 311.833,296.333 309.5,294.5C 309.167,295.333 308.833,296.167 308.5,297C 310.085,308.347 311.752,319.68 313.5,331C 313.586,336.584 310.92,338.917 305.5,338C 303.667,337.5 302.5,336.333 302,334.5C 298.86,315.519 296.193,296.519 294,277.5C 295.544,274.311 298.044,273.145 301.5,274C 307.104,277.716 312.604,281.549 318,285.5C 322.981,280.199 327.481,274.532 331.5,268.5 Z"/></g>
<g><path style="opacity:1" fill="#faeba1" d="M 97.5,283.5 C 135.279,318.092 173.112,318.092 211,283.5C 201.11,309.728 181.943,323.062 153.5,323.5C 126.2,322.193 107.533,308.86 97.5,283.5 Z"/></g>
<g><path style="opacity:1" fill="#58142b" d="M 423.5,307.5 C 424.833,309.833 424.833,312.167 423.5,314.5C 422.942,315.79 421.942,316.623 420.5,317C 406.833,317.667 393.167,317.667 379.5,317C 374.167,313 374.167,309 379.5,305C 393.167,304.333 406.833,304.333 420.5,305C 421.942,305.377 422.942,306.21 423.5,307.5 Z"/></g>
<g><path style="opacity:1" fill="#500726" d="M 223.5,327.5 C 226.97,326.875 229.804,327.875 232,330.5C 232.667,334.833 232.667,339.167 232,343.5C 228.829,348.414 225.163,348.747 221,344.5C 220.333,339.833 220.333,335.167 221,330.5C 222.045,329.627 222.878,328.627 223.5,327.5 Z"/></g>
<g><path style="opacity:1" fill="#500726" d="M 424.5,339.5 C 424.702,341.95 424.369,344.283 423.5,346.5C 423.082,347.222 422.416,347.722 421.5,348C 407.167,348.667 392.833,348.667 378.5,348C 374.296,343.845 374.629,340.178 379.5,337C 393.167,336.333 406.833,336.333 420.5,337C 421.984,337.662 423.317,338.496 424.5,339.5 Z"/></g>
<g><path style="opacity:1" fill="#530c28" d="M 86.5,341.5 C 90.3547,340.845 93.1881,342.179 95,345.5C 95.6667,349.5 95.6667,353.5 95,357.5C 93.3088,361.213 90.4755,362.379 86.5,361C 85.3333,360.5 84.5,359.667 84,358.5C 83.3333,353.833 83.3333,349.167 84,344.5C 84.6979,343.309 85.5313,342.309 86.5,341.5 Z"/></g>
<g><path style="opacity:1" fill="#fbb3a6" d="M 186.5,373.5 C 206.578,372.32 226.078,374.987 245,381.5C 245.498,384.817 245.665,388.15 245.5,391.5C 227.244,385.883 208.577,383.716 189.5,385C 184.185,388.717 184.185,392.383 189.5,396C 208.237,395.948 226.571,398.615 244.5,404C 245.451,407.057 245.784,410.223 245.5,413.5C 220.436,405.954 195.103,404.787 169.5,410C 152.708,415.448 135.708,420.115 118.5,424C 100.281,425.46 82.2809,424.127 64.5,420C 63.5495,416.943 63.2161,413.777 63.5,410.5C 79.646,414.117 95.9794,415.284 112.5,414C 116.5,410.333 116.5,406.667 112.5,403C 96.595,403.453 80.9283,401.787 65.5,398C 63.6375,394.851 62.9709,391.351 63.5,387.5C 87.5028,392.792 111.503,392.792 135.5,387.5C 152.414,382.025 169.414,377.358 186.5,373.5 Z"/></g>
<g><path style="opacity:1" fill="#fcb4a6" d="M 296.5,373.5 C 310.981,372.919 325.314,374.086 339.5,377C 356.221,382.763 373.221,387.43 390.5,391C 402.5,391.667 414.5,391.667 426.5,391C 433.462,389.588 440.462,388.422 447.5,387.5C 447.82,390.898 447.487,394.232 446.5,397.5C 415.969,405.422 385.969,403.756 356.5,392.5C 351.818,394.234 350.318,397.567 352,402.5C 373.692,412.636 396.525,416.469 420.5,414C 429.554,413.159 438.554,411.992 447.5,410.5C 447.784,413.777 447.451,416.943 446.5,420C 424.952,425.087 403.285,425.754 381.5,422C 362.201,415.592 342.535,410.592 322.5,407C 303.373,405.355 284.706,407.522 266.5,413.5C 265.501,402.52 265.168,391.52 265.5,380.5C 275.92,378.047 286.254,375.714 296.5,373.5 Z"/></g>
<g><path style="opacity:1" fill="#02e9c3" d="M 401.5,464.5 C 375.165,464.333 348.831,464.5 322.5,465C 314.045,467.385 307.712,472.385 303.5,480C 301.112,481.861 298.446,483.194 295.5,484C 268.5,484.667 241.5,484.667 214.5,484C 212.275,483.439 210.275,482.439 208.5,481C 205.202,476.7 201.535,472.7 197.5,469C 194.134,466.816 190.467,465.483 186.5,465C 170.17,464.5 153.837,464.333 137.5,464.5C 153.886,458.101 170.886,453.601 188.5,451C 211.569,449.796 233.902,453.296 255.5,461.5C 274.337,454.433 293.837,450.766 314,450.5C 343.796,451.995 372.963,456.661 401.5,464.5 Z"/></g>
</svg>
