<?xml version="1.0" encoding="UTF-8"?>
<!DOCTYPE svg PUBLIC "-//W3C//DTD SVG 1.1//EN" "http://www.w3.org/Graphics/SVG/1.1/DTD/svg11.dtd">
<svg xmlns="http://www.w3.org/2000/svg" version="1.1" width="512px" height="490px" style="shape-rendering:geometricPrecision; text-rendering:geometricPrecision; image-rendering:optimizeQuality; fill-rule:evenodd; clip-rule:evenodd" xmlns:xlink="http://www.w3.org/1999/xlink">
<g><path style="opacity:0.989" fill="#363839" d="M 49.5,-0.5 C 170.167,-0.5 290.833,-0.5 411.5,-0.5C 424.156,3.42493 431.156,12.0916 432.5,25.5C 448.195,27.1947 456.861,35.8614 458.5,51.5C 473.661,53.1614 482.494,61.4948 485,76.5C 485.5,135.832 485.667,195.166 485.5,254.5C 498.847,255.825 507.514,262.825 511.5,275.5C 511.5,340.167 511.5,404.833 511.5,469.5C 507.833,479.167 501.167,485.833 491.5,489.5C 334.167,489.5 176.833,489.5 19.5,489.5C 9.83333,485.833 3.16667,479.167 -0.5,469.5C -0.5,379.5 -0.5,289.5 -0.5,199.5C 4.49525,186.162 14.1619,179.495 28.5,179.5C 28.3333,127.166 28.5,74.8323 29,22.5C 31.8169,11.1866 38.6503,3.51991 49.5,-0.5 Z"/></g>
<g><path style="opacity:1" fill="#f5f5f5" d="M 50.5,6.5 C 170.167,6.33333 289.834,6.5 409.5,7C 416.909,9.40839 422.076,14.2417 425,21.5C 425.667,161.167 425.667,300.833 425,440.5C 422.987,447.181 418.82,452.014 412.5,455C 404.92,456.396 397.253,456.896 389.5,456.5C 389.667,396.832 389.5,337.166 389,277.5C 385.929,264.429 377.763,256.929 364.5,255C 314.417,254.991 264.417,254.324 214.5,253C 211.847,249.529 209.847,245.696 208.5,241.5C 233.827,240.667 259.16,240.167 284.5,240C 291.536,237.631 295.703,232.798 297,225.5C 300.745,211.688 296.245,201.854 283.5,196C 251.5,195.667 219.5,195.333 187.5,195C 185.752,191.501 183.752,188.168 181.5,185C 178.205,182.566 174.538,180.899 170.5,180C 125.501,179.5 80.5012,179.333 35.5,179.5C 35.3333,127.166 35.5,74.8323 36,22.5C 38.5996,15.0704 43.4329,9.73709 50.5,6.5 Z"/></g>
<g><path style="opacity:1" fill="#e2e2e2" d="M 432.5,32.5 C 441.461,33.953 447.628,38.953 451,47.5C 451.667,178.5 451.667,309.5 451,440.5C 445.954,453.61 436.454,458.777 422.5,456C 427.337,451.498 430.503,445.998 432,439.5C 432.5,303.834 432.667,168.167 432.5,32.5 Z"/></g>
<g><path style="opacity:1" fill="#343434" d="M 85.5,44.5 C 181.834,44.3333 278.167,44.5 374.5,45C 380.9,46.3994 385.066,50.2327 387,56.5C 387.667,62.5 387.667,68.5 387,74.5C 385.909,81.8485 381.743,86.3485 374.5,88C 278.167,88.6667 181.833,88.6667 85.5,88C 76.6947,83.5593 72.6947,76.3926 73.5,66.5C 72.3017,56.2236 76.3017,48.8903 85.5,44.5 Z"/></g>
<g><path style="opacity:1" fill="#c9eaf7" d="M 87.5,50.5 C 182.501,50.3333 277.501,50.5 372.5,51C 375.539,52.0314 378.039,53.8647 380,56.5C 380.667,62.8333 380.667,69.1667 380,75.5C 378.437,78.7284 375.937,80.8951 372.5,82C 277.833,82.6667 183.167,82.6667 88.5,82C 81.6755,78.9117 79.0088,73.5784 80.5,66C 79.2156,59.0761 81.549,53.9094 87.5,50.5 Z"/></g>
<g><path style="opacity:1" fill="#3e3e3e" d="M 461.5,59.5 C 460.5,59.5 459.5,59.5 458.5,59.5C 458.833,186.334 458.5,313.001 457.5,439.5C 457.5,312.5 457.5,185.5 457.5,58.5C 459.099,58.2322 460.432,58.5655 461.5,59.5 Z"/></g>
<g><path style="opacity:1" fill="#cdcdcd" d="M 461.5,59.5 C 469.754,61.92 475.254,67.2533 478,75.5C 478.667,196.167 478.667,316.833 478,437.5C 474.296,452.284 464.796,458.451 449.5,456C 454.178,451.476 456.845,445.976 457.5,439.5C 458.5,313.001 458.833,186.334 458.5,59.5C 459.5,59.5 460.5,59.5 461.5,59.5 Z"/></g>
<g><path style="opacity:1" fill="#383939" d="M 84.5,120.5 C 181.501,120.333 278.501,120.5 375.5,121C 381.307,122.807 385.141,126.64 387,132.5C 387.667,138.5 387.667,144.5 387,150.5C 385.39,156.881 381.557,161.381 375.5,164C 278.833,164.667 182.167,164.667 85.5,164C 76.6947,159.559 72.6947,152.393 73.5,142.5C 73.4481,138.413 73.9481,134.413 75,130.5C 77.359,126.31 80.5257,122.977 84.5,120.5 Z"/></g>
<g><path style="opacity:1" fill="#cbecfa" d="M 87.5,126.5 C 182.501,126.333 277.501,126.5 372.5,127C 375.625,127.979 378.125,129.813 380,132.5C 380.667,138.833 380.667,145.167 380,151.5C 378.833,154 377,155.833 374.5,157C 278.5,157.667 182.5,157.667 86.5,157C 81.2253,153.434 79.2253,148.434 80.5,142C 79.2156,135.076 81.549,129.909 87.5,126.5 Z"/></g>
<g><path style="opacity:1" fill="#069de6" d="M 20.5,186.5 C 70.8344,186.333 121.168,186.5 171.5,187C 174.102,187.883 176.269,189.383 178,191.5C 187.94,212.38 197.607,233.38 207,254.5C 208.873,256.709 211.04,258.542 213.5,260C 264.775,261.32 316.108,261.987 367.5,262C 374.758,264.924 379.592,270.091 382,277.5C 382.667,340.5 382.667,403.5 382,466.5C 379.5,474.333 374.333,479.5 366.5,482C 251.167,482.667 135.833,482.667 20.5,482C 14,479.5 9.5,475 7,468.5C 6.33333,379.167 6.33333,289.833 7,200.5C 9.68734,193.981 14.1873,189.314 20.5,186.5 Z"/></g>
<g><path style="opacity:1" fill="#ccedfa" d="M 190.5,203.5 C 220.997,202.336 251.664,202.169 282.5,203C 285.913,204.077 288.413,206.244 290,209.5C 290.667,214.833 290.667,220.167 290,225.5C 289.111,229.112 286.945,231.612 283.5,233C 257.16,233.833 230.827,233.667 204.5,232.5C 200.059,222.62 195.392,212.953 190.5,203.5 Z"/></g>
<g><path style="opacity:1" fill="#008acf" d="M 486.5,482.5 C 450.996,482.832 415.663,482.498 380.5,481.5C 385.852,476.787 388.519,470.787 388.5,463.5C 412.836,463.667 437.169,463.5 461.5,463C 472.057,460.776 479.224,454.609 483,444.5C 484.489,383.559 484.989,322.559 484.5,261.5C 494.106,262.544 500.606,267.544 504,276.5C 504.667,339.833 504.667,403.167 504,466.5C 501.832,475.835 495.999,481.168 486.5,482.5 Z"/></g>
<g><path style="opacity:1" fill="#f3f5f6" d="M 184.5,307.5 C 190.842,307.334 197.175,307.5 203.5,308C 216.019,310.833 223.185,318.666 225,331.5C 225.94,359.864 225.606,388.198 224,416.5C 220.649,429.092 212.482,435.925 199.5,437C 179.106,438.896 167.606,429.729 165,409.5C 164.333,383.5 164.333,357.5 165,331.5C 167.048,319.665 173.548,311.665 184.5,307.5 Z"/></g>
<g><path style="opacity:1" fill="#f4f6f6" d="M 256.5,307.5 C 263.175,307.334 269.842,307.5 276.5,308C 286.406,310.907 292.573,317.407 295,327.5C 295.5,335.493 295.666,343.493 295.5,351.5C 289.5,351.5 283.5,351.5 277.5,351.5C 277.891,344.079 277.391,336.746 276,329.5C 271.53,325.163 266.363,324.33 260.5,327C 259.299,327.903 258.465,329.069 258,330.5C 257.333,357.833 257.333,385.167 258,412.5C 260.103,418.469 264.27,420.636 270.5,419C 273.728,417.437 275.895,414.937 277,411.5C 277.5,403.841 277.666,396.174 277.5,388.5C 283.5,388.5 289.5,388.5 295.5,388.5C 295.666,397.506 295.5,406.506 295,415.5C 292.132,428.701 283.966,435.867 270.5,437C 252.604,438.754 241.771,430.92 238,413.5C 237.333,385.167 237.333,356.833 238,328.5C 240.5,318.102 246.667,311.102 256.5,307.5 Z"/></g>
<g><path style="opacity:1" fill="#b5def2" d="M 130.5,309.5 C 118.167,309.5 105.833,309.5 93.5,309.5C 93.5,351.5 93.5,393.5 93.5,435.5C 92.5013,393.337 92.168,351.003 92.5,308.5C 105.344,308.171 118.011,308.505 130.5,309.5 Z"/></g>
<g><path style="opacity:1" fill="#f5f6f6" d="M 130.5,309.5 C 141.954,311.451 149.12,318.117 152,329.5C 152.959,358.54 152.626,387.54 151,416.5C 148.5,425.667 142.667,431.5 133.5,434C 120.212,435.381 106.879,435.881 93.5,435.5C 93.5,393.5 93.5,351.5 93.5,309.5C 105.833,309.5 118.167,309.5 130.5,309.5 Z"/></g>
<g><path style="opacity:1" fill="#119ee7" d="M 189.5,325.5 C 192.85,325.335 196.183,325.502 199.5,326C 202.428,327.26 204.261,329.427 205,332.5C 205.667,358.5 205.667,384.5 205,410.5C 202.542,418.544 197.375,421.044 189.5,418C 187.106,416.048 185.606,413.548 185,410.5C 184.333,384.5 184.333,358.5 185,332.5C 185.904,329.767 187.404,327.433 189.5,325.5 Z"/></g>
<g><path style="opacity:1" fill="#35aeea" d="M 125.5,327.5 C 121.5,327.5 117.5,327.5 113.5,327.5C 113.5,357.167 113.5,386.833 113.5,416.5C 117.5,416.5 121.5,416.5 125.5,416.5C 121.366,417.485 117.032,417.818 112.5,417.5C 112.5,387.167 112.5,356.833 112.5,326.5C 117.032,326.182 121.366,326.515 125.5,327.5 Z"/></g>
<g><path style="opacity:1" fill="#069de7" d="M 125.5,327.5 C 128.642,327.799 130.809,329.466 132,332.5C 132.667,358.833 132.667,385.167 132,411.5C 130.809,414.534 128.642,416.201 125.5,416.5C 121.5,416.5 117.5,416.5 113.5,416.5C 113.5,386.833 113.5,357.167 113.5,327.5C 117.5,327.5 121.5,327.5 125.5,327.5 Z"/></g>
<g><path style="opacity:1" fill="#224f67" d="M 380.5,481.5 C 415.663,482.498 450.996,482.832 486.5,482.5C 450.998,483.83 415.331,483.83 379.5,482.5C 379.624,481.893 379.957,481.56 380.5,481.5 Z"/></g>
</svg>
