<?xml version="1.0" encoding="UTF-8"?>
<!DOCTYPE svg PUBLIC "-//W3C//DTD SVG 1.1//EN" "http://www.w3.org/Graphics/SVG/1.1/DTD/svg11.dtd">
<svg xmlns="http://www.w3.org/2000/svg" version="1.1" width="100px" height="100px" style="shape-rendering:geometricPrecision; text-rendering:geometricPrecision; image-rendering:optimizeQuality; fill-rule:evenodd; clip-rule:evenodd" xmlns:xlink="http://www.w3.org/1999/xlink">
<g><path style="opacity:0.864" fill="#27262e" d="M 50.5,7.5 C 53.6907,8.09223 56.6907,9.25889 59.5,11C 67.5904,15.794 75.4237,20.9606 83,26.5C 85.6493,31.9569 86.1493,37.6236 84.5,43.5C 89.0175,63.9574 81.3509,77.7908 61.5,85C 37.2917,88.1213 23.4583,77.6213 20,53.5C 17,51.8333 14.6667,49.5 13,46.5C 10.7393,39.3084 9.07262,31.9751 8,24.5C 7.33333,21.5 7.33333,18.5 8,15.5C 8.64092,13.1868 9.97425,11.5202 12,10.5C 20.5428,14.5506 28.7095,19.2172 36.5,24.5C 39.8624,22.3787 43.5291,21.0454 47.5,20.5C 46.9624,15.7646 47.9624,11.4313 50.5,7.5 Z"/></g>
<g><path style="opacity:1" fill="#f2f2f2" d="M 51.5,10.5 C 60.4882,14.6313 69.1549,19.4646 77.5,25C 82.2906,28.7423 84.1239,33.5756 83,39.5C 75.9915,26.7413 65.1582,20.2413 50.5,20C 49.9186,19.1074 49.5852,18.1074 49.5,17C 50.0329,14.7739 50.6996,12.6073 51.5,10.5 Z"/></g>
<g><path style="opacity:1" fill="#fbfbfb" d="M 11.5,13.5 C 21.9836,18.3302 31.8169,24.3302 41,31.5C 45.4724,41.0825 42.9724,48.2492 33.5,53C 21.209,54.3773 14.709,48.8773 14,36.5C 11.3896,33.3338 10.8896,29.8338 12.5,26C 11.0471,24.2173 10.0471,22.2173 9.5,20C 10.0329,17.7739 10.6996,15.6073 11.5,13.5 Z"/></g>
<g><path style="opacity:1" fill="#f88b02" d="M 59.5,24.5 C 62.9178,23.8953 66.2511,24.7286 69.5,27C 71.0368,28.1096 71.7035,29.6096 71.5,31.5C 68.4843,34.3614 65.9843,34.0281 64,30.5C 63.3828,31.4491 63.5494,32.2825 64.5,33C 60.4786,32.9651 56.4786,32.4651 52.5,31.5C 56.3934,33.8757 60.7268,34.8757 65.5,34.5C 65.8333,36.5 66.1667,38.5 66.5,40.5C 59.7962,40.0098 53.4629,41.0098 47.5,43.5C 45.7609,40.2522 44.5942,36.5856 44,32.5C 42.9542,30.9095 41.7875,29.4095 40.5,28C 40.8333,27.6667 41.1667,27.3333 41.5,27C 40.5,26.6667 39.5,26.3333 38.5,26C 45.3877,22.1189 52.3877,21.6189 59.5,24.5 Z"/></g>
<g><path style="opacity:1" fill="#784c1c" d="M 59.5,24.5 C 61.4459,25.2544 62.2793,26.5878 62,28.5C 60.5187,27.5291 59.6854,26.1958 59.5,24.5 Z"/></g>
<g><path style="opacity:1" fill="#644320" d="M 47.5,29.5 C 45.6916,29.5086 44.0249,29.0086 42.5,28C 44.5348,27.4014 46.2015,27.9014 47.5,29.5 Z"/></g>
<g><path style="opacity:1" fill="#67431f" d="M 47.5,29.5 C 49.5529,29.4021 51.2196,30.0687 52.5,31.5C 50.4471,31.5979 48.7804,30.9313 47.5,29.5 Z"/></g>
<g><path style="opacity:1" fill="#f68a02" d="M 80.5,43.5 C 76.4848,41.9867 72.3181,40.6534 68,39.5C 67.5983,38.1279 67.0983,36.7946 66.5,35.5C 68.8474,34.8492 70.5141,33.5159 71.5,31.5C 72.4232,30.6971 73.4232,30.5304 74.5,31C 77.6384,34.1416 79.9717,37.8083 81.5,42C 81.4301,42.7648 81.0967,43.2648 80.5,43.5 Z"/></g>
<g><path style="opacity:1" fill="#5b3e22" d="M 71.5,31.5 C 70.5141,33.5159 68.8474,34.8492 66.5,35.5C 67.0983,36.7946 67.5983,38.1279 68,39.5C 72.3181,40.6534 76.4848,41.9867 80.5,43.5C 80.5,43.8333 80.5,44.1667 80.5,44.5C 77.0572,43.4297 73.5572,42.4297 70,41.5C 69.0546,41.9054 68.3879,42.572 68,43.5C 66.6472,42.2958 64.9806,41.6292 63,41.5C 57.7085,42.0585 52.5419,43.0585 47.5,44.5C 47.5,44.1667 47.5,43.8333 47.5,43.5C 53.4629,41.0098 59.7962,40.0098 66.5,40.5C 66.1667,38.5 65.8333,36.5 65.5,34.5C 60.7268,34.8757 56.3934,33.8757 52.5,31.5C 56.4786,32.4651 60.4786,32.9651 64.5,33C 63.5494,32.2825 63.3828,31.4491 64,30.5C 65.9843,34.0281 68.4843,34.3614 71.5,31.5 Z"/></g>
<g><path style="opacity:1" fill="#f68a03" d="M 80.5,44.5 C 81.7498,44.5774 82.5831,45.244 83,46.5C 84.4501,54.6643 83.1168,62.3309 79,69.5C 78.5172,68.552 78.3505,67.552 78.5,66.5C 78.6655,62.4862 78.4988,58.4862 78,54.5C 76.395,50.7241 73.5616,48.7241 69.5,48.5C 69.1667,44.5 68.8333,44.5 68.5,48.5C 65.0836,48.5275 62.0836,49.5275 59.5,51.5C 55.9796,52.3528 53.3129,54.3528 51.5,57.5C 51.5,58.8333 50.8333,59.5 49.5,59.5C 46.4275,61.5691 44.0941,64.2358 42.5,67.5C 41.9181,68.9311 41.0848,70.2644 40,71.5C 39.3292,72.2524 38.4959,72.5858 37.5,72.5C 35.7162,72.8925 34.0495,73.5592 32.5,74.5C 26.0512,69.6035 22.7179,62.9368 22.5,54.5C 32.3098,57.3455 39.6431,54.3455 44.5,45.5C 45.4168,44.8728 46.4168,44.5394 47.5,44.5C 52.5419,43.0585 57.7085,42.0585 63,41.5C 64.9806,41.6292 66.6472,42.2958 68,43.5C 68.3879,42.572 69.0546,41.9054 70,41.5C 73.5572,42.4297 77.0572,43.4297 80.5,44.5 Z"/></g>
<g><path style="opacity:1" fill="#5d3f21" d="M 78.5,66.5 C 78.1667,66.5 77.8333,66.5 77.5,66.5C 77.8674,62.0329 77.3674,57.6996 76,53.5C 74.5867,51.5864 72.7534,50.2531 70.5,49.5C 69.1765,62.7677 68.5099,62.7677 68.5,49.5C 65.5,50.1667 62.5,50.8333 59.5,51.5C 62.0836,49.5275 65.0836,48.5275 68.5,48.5C 68.8333,44.5 69.1667,44.5 69.5,48.5C 73.5616,48.7241 76.395,50.7241 78,54.5C 78.4988,58.4862 78.6655,62.4862 78.5,66.5 Z"/></g>
<g><path style="opacity:1" fill="#fa8c01" d="M 77.5,66.5 C 77.9534,70.4257 76.6201,73.5923 73.5,76C 69.4625,79.5187 64.7959,81.6854 59.5,82.5C 59.0618,82.5654 58.7284,82.3988 58.5,82C 59.8228,81.1841 60.4894,80.0174 60.5,78.5C 58.7376,79.2623 57.7376,80.5956 57.5,82.5C 48.5498,84.4074 40.5498,82.4074 33.5,76.5C 34.8333,75.1667 36.1667,73.8333 37.5,72.5C 38.4959,72.5858 39.3292,72.2524 40,71.5C 41.0848,70.2644 41.9181,68.9311 42.5,67.5C 45.5725,65.4309 47.9059,62.7642 49.5,59.5C 50.8333,59.5 51.5,58.8333 51.5,57.5C 54.4549,55.8777 57.1215,53.8777 59.5,51.5C 62.5,50.8333 65.5,50.1667 68.5,49.5C 68.5099,62.7677 69.1765,62.7677 70.5,49.5C 72.7534,50.2531 74.5867,51.5864 76,53.5C 77.3674,57.6996 77.8674,62.0329 77.5,66.5 Z"/></g>
<g><path style="opacity:1" fill="#6e471f" d="M 59.5,51.5 C 57.1215,53.8777 54.4549,55.8777 51.5,57.5C 53.3129,54.3528 55.9796,52.3528 59.5,51.5 Z"/></g>
<g><path style="opacity:1" fill="#6c461e" d="M 67.5,61.5 C 68.6211,63.0894 68.4544,64.7561 67,66.5C 66.6155,64.8034 66.7822,63.1368 67.5,61.5 Z"/></g>
<g><path style="opacity:1" fill="#6c461e" d="M 49.5,59.5 C 47.9059,62.7642 45.5725,65.4309 42.5,67.5C 44.0941,64.2358 46.4275,61.5691 49.5,59.5 Z"/></g>
<g><path style="opacity:1" fill="#68441f" d="M 62.5,75.5 C 62.795,73.5767 63.6283,71.9101 65,70.5C 65.2494,72.668 64.4161,74.3347 62.5,75.5 Z"/></g>
<g><path style="opacity:1" fill="#70481d" d="M 37.5,72.5 C 36.1667,73.8333 34.8333,75.1667 33.5,76.5C 32.6618,76.1583 32.3284,75.4916 32.5,74.5C 34.0495,73.5592 35.7162,72.8925 37.5,72.5 Z"/></g>
<g><path style="opacity:1" fill="#5d3f20" d="M 62.5,75.5 C 62.573,77.0269 61.9063,78.0269 60.5,78.5C 60.427,76.9731 61.0937,75.9731 62.5,75.5 Z"/></g>
<g><path style="opacity:1" fill="#67441e" d="M 60.5,78.5 C 60.4894,80.0174 59.8228,81.1841 58.5,82C 58.7284,82.3988 59.0618,82.5654 59.5,82.5C 58.8333,83.8333 58.1667,83.8333 57.5,82.5C 57.7376,80.5956 58.7376,79.2623 60.5,78.5 Z"/></g>
</svg>
