<?xml version="1.0" encoding="UTF-8"?>
<!DOCTYPE svg PUBLIC "-//W3C//DTD SVG 1.1//EN" "http://www.w3.org/Graphics/SVG/1.1/DTD/svg11.dtd">
<svg xmlns="http://www.w3.org/2000/svg" version="1.1" width="512px" height="512px" style="shape-rendering:geometricPrecision; text-rendering:geometricPrecision; image-rendering:optimizeQuality; fill-rule:evenodd; clip-rule:evenodd" xmlns:xlink="http://www.w3.org/1999/xlink">
<g><path style="opacity:0.977" fill="#333333" d="M 288.5,-0.5 C 294.833,-0.5 301.167,-0.5 307.5,-0.5C 309.97,1.08167 311.47,3.41501 312,6.5C 314.023,30.6171 319.356,53.9505 328,76.5C 330.577,82.6605 333.91,88.3271 338,93.5C 342.228,98.0869 347.394,99.5869 353.5,98C 358.996,94.0842 364.663,90.4175 370.5,87C 387.836,81.7751 401.003,86.9418 410,102.5C 420.491,129.231 422.824,156.564 417,184.5C 417.561,185.022 418.228,185.355 419,185.5C 429.512,178.536 439.512,179.203 449,187.5C 450.908,190.215 452.241,193.215 453,196.5C 459.87,226.461 463.703,256.794 464.5,287.5C 464.421,295.347 464.087,303.181 463.5,311C 462.894,316.64 465.394,319.474 471,319.5C 477.041,318.82 482.875,317.32 488.5,315C 499.17,313.002 506.837,316.835 511.5,326.5C 511.5,358.5 511.5,390.5 511.5,422.5C 504.692,459.488 484.359,486.321 450.5,503C 441.023,506.947 431.356,509.781 421.5,511.5C 415.5,511.5 409.5,511.5 403.5,511.5C 400.611,509.723 399.278,507.056 399.5,503.5C 399.544,499.91 401.211,497.41 404.5,496C 431.498,495.657 454.164,485.824 472.5,466.5C 484.863,452.972 492.363,436.972 495,418.5C 495.5,389.502 495.667,360.502 495.5,331.5C 489.726,332.147 484.06,333.313 478.5,335C 459.682,338.501 449.016,330.834 446.5,312C 448.93,294.559 449.097,277.059 447,259.5C 444.533,239.363 441.199,219.363 437,199.5C 436.196,198.196 435.029,197.529 433.5,197.5C 426.927,201.132 419.927,202.299 412.5,201C 398.869,192.996 395.702,181.83 403,167.5C 405.2,146.7 402.2,126.7 394,107.5C 389.591,102.475 384.091,100.642 377.5,102C 372.992,104.753 368.659,107.753 364.5,111C 348.777,118.862 335.277,116.028 324,102.5C 312.963,85.7379 305.63,67.4046 302,47.5C 300.056,37.5037 298.223,27.5037 296.5,17.5C 292.205,16.3391 287.871,16.1725 283.5,17C 259.885,22.6403 238.885,33.307 220.5,49C 206.853,61.3061 194.686,74.8061 184,89.5C 178.937,95.5627 172.437,98.2294 164.5,97.5C 156.666,97.3 149.166,95.6333 142,92.5C 139.497,92.99 137.497,94.3234 136,96.5C 132.813,105.625 130.48,114.958 129,124.5C 127.1,144.786 126.1,165.12 126,185.5C 122.225,197.061 114.225,203.061 102,203.5C 89.1577,200.887 76.3244,198.221 63.5,195.5C 60.0669,195.133 57.5669,196.466 56,199.5C 55.3333,261.833 55.3333,324.167 56,386.5C 57.9448,414.955 65.7782,441.622 79.5,466.5C 87.0739,479.575 97.2406,490.242 110,498.5C 111.009,500.025 111.509,501.692 111.5,503.5C 111.722,507.056 110.389,509.723 107.5,511.5C 104.833,511.5 102.167,511.5 99.5,511.5C 77.1449,495.172 61.3115,473.839 52,447.5C 45.4693,429.377 41.4693,410.71 40,391.5C 39.0105,325.109 39.3438,258.776 41,192.5C 45.5482,183.554 52.8816,178.887 63,178.5C 74.8818,180.762 86.7151,183.262 98.5,186C 102.591,187.227 106.091,186.394 109,183.5C 109.144,160.714 110.811,138.047 114,115.5C 115.947,104.662 119.28,94.3282 124,84.5C 130.618,77.1845 138.784,74.6845 148.5,77C 153.835,79.1119 159.335,80.6119 165,81.5C 166.627,81.3749 168.127,80.8749 169.5,80C 184.128,60.3716 201.128,43.0383 220.5,28C 240.898,12.9277 263.564,3.42769 288.5,-0.5 Z"/></g>
<g><path style="opacity:1" fill="#74eeed" d="M 472.5,466.5 C 471.668,443.004 471.168,419.337 471,395.5C 469.433,391.922 466.767,389.922 463,389.5C 457.553,391.137 452.053,392.637 446.5,394C 438.135,395.224 432.635,391.724 430,383.5C 430.968,360.826 430.635,338.159 429,315.5C 426.825,296.765 424.158,278.098 421,259.5C 418.378,252.438 413.545,250.105 406.5,252.5C 401.837,243.841 397.17,235.174 392.5,226.5C 394.067,203.63 390.567,181.63 382,160.5C 376.788,153.651 369.955,151.151 361.5,153C 356.27,157.077 350.936,160.91 345.5,164.5C 337.073,159.62 328.407,155.287 319.5,151.5C 307.973,124.042 301.473,95.3752 300,65.5C 298.82,64.3159 297.32,63.6493 295.5,63.5C 272.268,65.7855 251.935,74.6188 234.5,90C 216.568,107.253 200.901,126.253 187.5,147C 183.289,148.534 178.956,148.867 174.5,148C 170.104,145.634 165.437,144.134 160.5,143.5C 153.217,144.67 149.05,149.004 148,156.5C 145.328,166.357 143.495,176.357 142.5,186.5C 129.794,207.892 117.461,229.559 105.5,251.5C 99.5787,250.019 93.5787,249.519 87.5,250C 84.1679,252.491 81.6679,255.658 80,259.5C 79.5619,328.676 79.3953,397.676 79.5,466.5C 65.7782,441.622 57.9448,414.955 56,386.5C 55.3333,324.167 55.3333,261.833 56,199.5C 57.5669,196.466 60.0669,195.133 63.5,195.5C 76.3244,198.221 89.1577,200.887 102,203.5C 114.225,203.061 122.225,197.061 126,185.5C 126.1,165.12 127.1,144.786 129,124.5C 130.48,114.958 132.813,105.625 136,96.5C 137.497,94.3234 139.497,92.99 142,92.5C 149.166,95.6333 156.666,97.3 164.5,97.5C 172.437,98.2294 178.937,95.5627 184,89.5C 194.686,74.8061 206.853,61.3061 220.5,49C 238.885,33.307 259.885,22.6403 283.5,17C 287.871,16.1725 292.205,16.3391 296.5,17.5C 298.223,27.5037 300.056,37.5037 302,47.5C 305.63,67.4046 312.963,85.7379 324,102.5C 335.277,116.028 348.777,118.862 364.5,111C 368.659,107.753 372.992,104.753 377.5,102C 384.091,100.642 389.591,102.475 394,107.5C 402.2,126.7 405.2,146.7 403,167.5C 395.702,181.83 398.869,192.996 412.5,201C 419.927,202.299 426.927,201.132 433.5,197.5C 435.029,197.529 436.196,198.196 437,199.5C 441.199,219.363 444.533,239.363 447,259.5C 449.097,277.059 448.93,294.559 446.5,312C 449.016,330.834 459.682,338.501 478.5,335C 484.06,333.313 489.726,332.147 495.5,331.5C 495.667,360.502 495.5,389.502 495,418.5C 492.363,436.972 484.863,452.972 472.5,466.5 Z"/></g>
<g><path style="opacity:0.966" fill="#333333" d="M 36.5,85.5 C 38.3545,86.6896 40.1879,88.0229 42,89.5C 43.2373,104.721 51.404,110.555 66.5,107C 74.4811,105.709 77.6478,101.209 76,93.5C 73.1914,90.428 69.8581,88.0947 66,86.5C 63.0292,82.701 62.8625,78.8677 65.5,75C 65.1377,73.7753 64.6377,72.6086 64,71.5C 59.3801,78.0746 53.8801,79.0746 47.5,74.5C 46.4309,71.592 46.2642,68.592 47,65.5C 52.4514,61.2008 55.1181,55.5341 55,48.5C 59.0597,44.0266 63.5597,43.5266 68.5,47C 76.1024,55.3742 80.6024,65.2075 82,76.5C 91.1201,83.1772 94.7868,92.1772 93,103.5C 88.0906,115.225 79.2573,122.059 66.5,124C 51.9172,126.366 40.0839,121.866 31,110.5C 27.744,104.552 26.4107,98.2191 27,91.5C 28.8107,87.345 31.9774,85.345 36.5,85.5 Z"/></g>
<g><path style="opacity:1" fill="#58b3b2" d="M 319.5,151.5 C 307.005,148.688 294.338,146.854 281.5,146C 256.448,144.944 231.448,145.611 206.5,148C 180.462,153.243 159.128,166.077 142.5,186.5C 143.495,176.357 145.328,166.357 148,156.5C 149.05,149.004 153.217,144.67 160.5,143.5C 165.437,144.134 170.104,145.634 174.5,148C 178.956,148.867 183.289,148.534 187.5,147C 200.901,126.253 216.568,107.253 234.5,90C 251.935,74.6188 272.268,65.7855 295.5,63.5C 297.32,63.6493 298.82,64.3159 300,65.5C 301.473,95.3752 307.973,124.042 319.5,151.5 Z"/></g>
<g><path style="opacity:0.993" fill="#74edec" d="M 36.5,85.5 C 38.522,80.1446 42.1887,76.478 47.5,74.5C 53.8801,79.0746 59.3801,78.0746 64,71.5C 64.6377,72.6086 65.1377,73.7753 65.5,75C 62.8625,78.8677 63.0292,82.701 66,86.5C 69.8581,88.0947 73.1914,90.428 76,93.5C 77.6478,101.209 74.4811,105.709 66.5,107C 51.404,110.555 43.2373,104.721 42,89.5C 40.1879,88.0229 38.3545,86.6896 36.5,85.5 Z"/></g>
<g><path style="opacity:1" fill="#abf5f4" d="M 210.5,73.5 C 216.013,72.744 219.013,75.0774 219.5,80.5C 217.99,100.419 207.324,109.252 187.5,107C 184.793,105.136 183.959,102.636 185,99.5C 193.702,90.965 202.202,82.2983 210.5,73.5 Z"/></g>
<g><path style="opacity:0.967" fill="#333333" d="M 468.5,84.5 C 471.425,84.4598 474.091,85.2932 476.5,87C 484.102,95.3742 488.602,105.208 490,116.5C 501.71,125.644 504.377,136.977 498,150.5C 485.739,163.824 470.906,167.658 453.5,162C 437.593,154.348 431.76,141.848 436,124.5C 437.333,121.833 438.667,119.167 440,116.5C 445.759,110.738 452.092,105.738 459,101.5C 460.96,97.378 462.293,93.0447 463,88.5C 464.5,86.5313 466.333,85.198 468.5,84.5 Z"/></g>
<g><path style="opacity:1" fill="#aaf5f4" d="M 172.5,111.5 C 183.167,112.003 185.833,116.836 180.5,126C 171.42,129.215 167.253,126.048 168,116.5C 169.025,114.313 170.525,112.646 172.5,111.5 Z"/></g>
<g><path style="opacity:1" fill="#57b1b0" d="M 471.5,111.5 C 472.525,112.374 473.192,113.541 473.5,115C 470.791,119.164 471.124,123.164 474.5,127C 488.996,134.034 488.996,140.701 474.5,147C 469.833,147.667 465.167,147.667 460.5,147C 452.715,143.672 449.882,137.839 452,129.5C 455.603,123.896 460.437,119.729 466.5,117C 468.373,115.296 470.04,113.463 471.5,111.5 Z"/></g>
<g><path style="opacity:0.999" fill="#333434" d="M 319.5,151.5 C 328.407,155.287 337.073,159.62 345.5,164.5C 353.768,170.933 361.268,178.266 368,186.5C 376.03,200.005 384.197,213.338 392.5,226.5C 397.17,235.174 401.837,243.841 406.5,252.5C 413.461,277.341 419.961,302.341 426,327.5C 428.797,341.055 427.13,354.055 421,366.5C 408.819,383.526 396.152,400.193 383,416.5C 377.758,426.546 376.092,437.213 378,448.5C 379.299,460.821 380.465,473.155 381.5,485.5C 381.69,492.081 380.023,498.081 376.5,503.5C 373.154,507.171 369.154,509.838 364.5,511.5C 291.833,511.5 219.167,511.5 146.5,511.5C 141.846,509.838 137.846,507.171 134.5,503.5C 130.977,498.081 129.31,492.081 129.5,485.5C 131.862,466.556 133.028,447.556 133,428.5C 131.885,424.271 130.219,420.271 128,416.5C 114.848,400.193 102.181,383.526 90,366.5C 83.8697,354.055 82.203,341.055 85,327.5C 90.9092,301.859 97.7426,276.525 105.5,251.5C 117.461,229.559 129.794,207.892 142.5,186.5C 159.128,166.077 180.462,153.243 206.5,148C 231.448,145.611 256.448,144.944 281.5,146C 294.338,146.854 307.005,148.688 319.5,151.5 Z"/></g>
<g><path style="opacity:1" fill="#58b3b2" d="M 392.5,226.5 C 384.197,213.338 376.03,200.005 368,186.5C 361.268,178.266 353.768,170.933 345.5,164.5C 350.936,160.91 356.27,157.077 361.5,153C 369.955,151.151 376.788,153.651 382,160.5C 390.567,181.63 394.067,203.63 392.5,226.5 Z"/></g>
<g><path style="opacity:1" fill="#fefbf4" d="M 285.5,162.5 C 302.036,186.227 316.536,211.227 329,237.5C 331.135,244.039 332.635,250.706 333.5,257.5C 310.884,267.672 298.384,285.339 296,310.5C 295.333,317.5 295.333,324.5 296,331.5C 297.129,337.636 300.295,342.469 305.5,346C 312.528,350.178 319.528,354.345 326.5,358.5C 318.909,369.27 311.076,379.937 303,390.5C 299.284,397.365 297.45,404.699 297.5,412.5C 298.096,422.005 298.762,431.505 299.5,441C 299.467,443.61 298.8,445.777 297.5,447.5C 293.112,446.943 289.945,448.61 288,452.5C 287.5,461.494 287.334,470.494 287.5,479.5C 279.5,479.5 271.5,479.5 263.5,479.5C 263.666,470.494 263.5,461.494 263,452.5C 259.911,447.695 255.744,446.528 250.5,449C 249.299,449.903 248.465,451.069 248,452.5C 247.5,461.494 247.334,470.494 247.5,479.5C 239.5,479.5 231.5,479.5 223.5,479.5C 223.666,470.494 223.5,461.494 223,452.5C 219.911,447.695 215.744,446.528 210.5,449C 209.299,449.903 208.465,451.069 208,452.5C 207.5,461.494 207.334,470.494 207.5,479.5C 199.5,479.5 191.5,479.5 183.5,479.5C 183.666,470.494 183.5,461.494 183,452.5C 179.911,447.695 175.744,446.528 170.5,449C 169.299,449.903 168.465,451.069 168,452.5C 167.5,461.494 167.334,470.494 167.5,479.5C 160.5,479.5 153.5,479.5 146.5,479.5C 146.5,478.5 146.5,477.5 146.5,476.5C 147.499,463.171 148.499,449.837 149.5,436.5C 149.304,424.745 145.804,414.079 139,404.5C 127.667,389.833 116.333,375.167 105,360.5C 100.622,351.992 98.9558,342.992 100,333.5C 106.068,307.227 113.068,281.227 121,255.5C 131.747,236.336 142.747,217.336 154,198.5C 168.973,178.594 188.807,166.76 213.5,163C 237.501,161.295 261.501,161.128 285.5,162.5 Z"/></g>
<g><path style="opacity:1" fill="#d5d3cd" d="M 285.5,162.5 C 315.375,162.687 339.209,174.687 357,198.5C 368.253,217.336 379.253,236.336 390,255.5C 397.932,281.227 404.932,307.227 411,333.5C 412.268,343.033 410.602,352.033 406,360.5C 394.242,376.347 382.242,392.013 370,407.5C 366.518,413.467 363.851,419.801 362,426.5C 362.602,447.856 363.602,469.189 365,490.5C 364.167,492.667 362.667,494.167 360.5,495C 354.843,495.499 349.176,495.666 343.5,495.5C 343.667,481.163 343.5,466.829 343,452.5C 339.911,447.695 335.744,446.528 330.5,449C 329.299,449.903 328.465,451.069 328,452.5C 327.5,466.829 327.333,481.163 327.5,495.5C 319.5,495.5 311.5,495.5 303.5,495.5C 303.667,481.163 303.5,466.829 303,452.5C 301.648,450.251 299.815,448.584 297.5,447.5C 298.8,445.777 299.467,443.61 299.5,441C 298.762,431.505 298.096,422.005 297.5,412.5C 297.45,404.699 299.284,397.365 303,390.5C 311.076,379.937 318.909,369.27 326.5,358.5C 336.531,365.203 346.531,365.036 356.5,358C 365,349.5 373.5,341 382,332.5C 389.201,321.827 389.201,311.16 382,300.5C 375,288.5 368,276.5 361,264.5C 353.153,257.165 343.986,254.832 333.5,257.5C 332.635,250.706 331.135,244.039 329,237.5C 316.536,211.227 302.036,186.227 285.5,162.5 Z"/></g>
<g><path style="opacity:1" fill="#363636" d="M 156.5,207.5 C 161.152,206.984 164.652,208.651 167,212.5C 167.901,220.579 167.568,228.579 166,236.5C 160.167,242.333 154.333,248.167 148.5,254C 139.395,257.205 135.228,254.038 136,244.5C 140.633,238.865 145.633,233.532 151,228.5C 151.333,223.167 151.667,217.833 152,212.5C 153.025,210.313 154.525,208.646 156.5,207.5 Z"/></g>
<g><path style="opacity:1" fill="#353535" d="M 348.5,207.5 C 352.115,207.206 355.282,208.206 358,210.5C 359.245,216.39 359.912,222.39 360,228.5C 365.367,233.532 370.367,238.865 375,244.5C 375.742,254.039 371.575,257.205 362.5,254C 356.667,248.167 350.833,242.333 345,236.5C 343.432,228.579 343.099,220.579 344,212.5C 345.025,210.313 346.525,208.646 348.5,207.5 Z"/></g>
<g><path style="opacity:1" fill="#363636" d="M 228.5,239.5 C 232.115,239.206 235.282,240.206 238,242.5C 239.555,247.382 239.888,252.382 239,257.5C 236.273,263.954 233.273,270.288 230,276.5C 225.631,280.379 221.298,280.379 217,276.5C 216.077,274.966 215.577,273.299 215.5,271.5C 217.439,265.619 219.939,259.952 223,254.5C 223.333,251.167 223.667,247.833 224,244.5C 225.025,242.313 226.525,240.646 228.5,239.5 Z"/></g>
<g><path style="opacity:1" fill="#363636" d="M 276.5,239.5 C 281.152,238.984 284.652,240.651 287,244.5C 287.333,247.833 287.667,251.167 288,254.5C 291.061,259.952 293.561,265.619 295.5,271.5C 295.113,276.72 292.279,279.387 287,279.5C 285.373,279.375 283.873,278.875 282.5,278C 278.952,272.406 275.785,266.573 273,260.5C 271.494,255.254 271.161,249.921 272,244.5C 273.025,242.313 274.525,240.646 276.5,239.5 Z"/></g>
<g><path style="opacity:1" fill="#57b3b2" d="M 105.5,251.5 C 97.7426,276.525 90.9092,301.859 85,327.5C 82.203,341.055 83.8697,354.055 90,366.5C 102.181,383.526 114.848,400.193 128,416.5C 130.219,420.271 131.885,424.271 133,428.5C 133.028,447.556 131.862,466.556 129.5,485.5C 129.31,492.081 130.977,498.081 134.5,503.5C 126.833,503.5 119.167,503.5 111.5,503.5C 111.509,501.692 111.009,500.025 110,498.5C 97.2406,490.242 87.0739,479.575 79.5,466.5C 79.3953,397.676 79.5619,328.676 80,259.5C 81.6679,255.658 84.1679,252.491 87.5,250C 93.5787,249.519 99.5787,250.019 105.5,251.5 Z"/></g>
<g><path style="opacity:1" fill="#57b3b2" d="M 472.5,466.5 C 454.164,485.824 431.498,495.657 404.5,496C 401.211,497.41 399.544,499.91 399.5,503.5C 391.833,503.5 384.167,503.5 376.5,503.5C 380.023,498.081 381.69,492.081 381.5,485.5C 380.465,473.155 379.299,460.821 378,448.5C 376.092,437.213 377.758,426.546 383,416.5C 396.152,400.193 408.819,383.526 421,366.5C 427.13,354.055 428.797,341.055 426,327.5C 419.961,302.341 413.461,277.341 406.5,252.5C 413.545,250.105 418.378,252.438 421,259.5C 424.158,278.098 426.825,296.765 429,315.5C 430.635,338.159 430.968,360.826 430,383.5C 432.635,391.724 438.135,395.224 446.5,394C 452.053,392.637 457.553,391.137 463,389.5C 466.767,389.922 469.433,391.922 471,395.5C 471.168,419.337 471.668,443.004 472.5,466.5 Z"/></g>
<g><path style="opacity:1" fill="#353535" d="M 162.5,256.5 C 183.58,256.953 198.747,266.62 208,285.5C 214.501,300.179 216.835,315.512 215,331.5C 213.871,337.636 210.705,342.469 205.5,346C 197.667,350.416 190,355.082 182.5,360C 172.702,365.206 163.369,364.54 154.5,358C 144.266,348.436 134.766,338.269 126,327.5C 123.715,322.028 123.048,316.362 124,310.5C 132.368,294.149 141.535,278.316 151.5,263C 154.933,260.289 158.6,258.123 162.5,256.5 Z"/></g>
<g><path style="opacity:1" fill="#343434" d="M 326.5,358.5 C 319.528,354.345 312.528,350.178 305.5,346C 300.295,342.469 297.129,337.636 296,331.5C 295.333,324.5 295.333,317.5 296,310.5C 298.384,285.339 310.884,267.672 333.5,257.5C 343.986,254.832 353.153,257.165 361,264.5C 368,276.5 375,288.5 382,300.5C 389.201,311.16 389.201,321.827 382,332.5C 373.5,341 365,349.5 356.5,358C 346.531,365.036 336.531,365.203 326.5,358.5 Z"/></g>
<g><path style="opacity:1" fill="#727272" d="M 198.5,308.5 C 190.636,295.234 178.97,288.734 163.5,289C 160.098,290.4 157.264,292.567 155,295.5C 150.392,303.73 145.559,311.73 140.5,319.5C 139.378,317.712 139.211,315.712 140,313.5C 147.253,301.329 154.253,288.996 161,276.5C 162.743,274.129 165.077,272.795 168,272.5C 181.268,275.097 190.268,282.764 195,295.5C 196.638,299.722 197.805,304.055 198.5,308.5 Z"/></g>
<g><path style="opacity:1" fill="#717171" d="M 370.5,319.5 C 365.441,311.73 360.608,303.73 356,295.5C 349.067,287.949 340.9,286.449 331.5,291C 324.062,295.274 317.728,300.774 312.5,307.5C 314.999,291.19 323.666,279.69 338.5,273C 343.117,271.703 346.95,272.87 350,276.5C 356.414,288.329 363.08,299.996 370,311.5C 371.636,314.227 371.802,316.893 370.5,319.5 Z"/></g>
<g><path style="opacity:1" fill="#989898" d="M 198.5,308.5 C 199.996,316.224 199.83,323.891 198,331.5C 189.094,337.619 179.761,342.952 170,347.5C 168.373,347.375 166.873,346.875 165.5,346C 156.574,337.579 148.241,328.746 140.5,319.5C 145.559,311.73 150.392,303.73 155,295.5C 157.264,292.567 160.098,290.4 163.5,289C 178.97,288.734 190.636,295.234 198.5,308.5 Z"/></g>
<g><path style="opacity:1" fill="#989898" d="M 370.5,319.5 C 362.759,328.746 354.426,337.579 345.5,346C 343.305,347.373 340.971,347.706 338.5,347C 329.75,342.21 321.25,337.043 313,331.5C 311.196,323.569 311.029,315.569 312.5,307.5C 317.728,300.774 324.062,295.274 331.5,291C 340.9,286.449 349.067,287.949 356,295.5C 360.608,303.73 365.441,311.73 370.5,319.5 Z"/></g>
<g><path style="opacity:1" fill="#353534" d="M 251.5,361.5 C 257.583,361.124 262.749,363.124 267,367.5C 270,374.5 273,381.5 276,388.5C 277.72,397.228 274.553,403.394 266.5,407C 259.167,407.667 251.833,407.667 244.5,407C 236.447,403.394 233.28,397.228 235,388.5C 238,381.5 241,374.5 244,367.5C 246.114,364.879 248.614,362.879 251.5,361.5 Z"/></g>
<g><path style="opacity:1" fill="#909090" d="M 254.5,381.5 C 256.881,383.912 258.548,386.912 259.5,390.5C 256.833,391.833 254.167,391.833 251.5,390.5C 252.801,387.573 253.801,384.573 254.5,381.5 Z"/></g>
<g><path style="opacity:1" fill="#d4d2cc" d="M 146.5,476.5 C 146.5,477.5 146.5,478.5 146.5,479.5C 153.5,479.5 160.5,479.5 167.5,479.5C 167.5,484.833 167.5,490.167 167.5,495.5C 161.048,495.916 154.715,495.416 148.5,494C 147.299,493.097 146.465,491.931 146,490.5C 145.185,485.648 145.352,480.981 146.5,476.5 Z"/></g>
<g><path style="opacity:1" fill="#d5d4cd" d="M 183.5,479.5 C 191.5,479.5 199.5,479.5 207.5,479.5C 207.5,484.833 207.5,490.167 207.5,495.5C 199.5,495.5 191.5,495.5 183.5,495.5C 183.5,490.167 183.5,484.833 183.5,479.5 Z"/></g>
<g><path style="opacity:1" fill="#d5d4cd" d="M 223.5,479.5 C 231.5,479.5 239.5,479.5 247.5,479.5C 247.5,484.833 247.5,490.167 247.5,495.5C 239.5,495.5 231.5,495.5 223.5,495.5C 223.5,490.167 223.5,484.833 223.5,479.5 Z"/></g>
<g><path style="opacity:1" fill="#d5d4cd" d="M 263.5,479.5 C 271.5,479.5 279.5,479.5 287.5,479.5C 287.5,484.833 287.5,490.167 287.5,495.5C 279.5,495.5 271.5,495.5 263.5,495.5C 263.5,490.167 263.5,484.833 263.5,479.5 Z"/></g>
</svg>
