<?xml version="1.0" encoding="UTF-8"?>
<!DOCTYPE svg PUBLIC "-//W3C//DTD SVG 1.1//EN" "http://www.w3.org/Graphics/SVG/1.1/DTD/svg11.dtd">
<svg xmlns="http://www.w3.org/2000/svg" version="1.1" width="512px" height="512px" style="shape-rendering:geometricPrecision; text-rendering:geometricPrecision; image-rendering:optimizeQuality; fill-rule:evenodd; clip-rule:evenodd" xmlns:xlink="http://www.w3.org/1999/xlink">
<g><path style="opacity:0.987" fill="#020202" d="M 233.5,-0.5 C 248.167,-0.5 262.833,-0.5 277.5,-0.5C 290.525,1.11889 303.525,3.61889 316.5,7C 319.962,9.23932 321.295,12.406 320.5,16.5C 318.595,19.9565 315.595,21.6231 311.5,21.5C 222.349,1.7197 147.515,25.7197 87,93.5C 36.1008,159.172 24.1008,231.506 51,310.5C 64.3372,345.874 85.5039,375.541 114.5,399.5C 119.658,405.991 126.491,408.324 135,406.5C 139.5,406.333 144,406.167 148.5,406C 144.929,403.579 141.262,401.413 137.5,399.5C 76.0434,352.223 47.8767,289.556 53,211.5C 57.6158,169.449 73.7825,132.616 101.5,101C 104.407,100.282 107.074,100.782 109.5,102.5C 111.293,105.259 111.793,108.259 111,111.5C 101.454,123.226 93.2873,135.892 86.5,149.5C 87.0016,150.521 87.6683,150.688 88.5,150C 116.325,125.704 147.658,120.037 182.5,133C 222.513,151.858 237.013,182.691 226,225.5C 224.294,229.079 222.461,232.579 220.5,236C 232.138,240.636 240.971,248.469 247,259.5C 268.568,241.653 292.734,237.153 319.5,246C 328.732,249.53 336.898,254.696 344,261.5C 355.339,241.254 372.505,233.588 395.5,238.5C 397.022,233.289 398.689,228.122 400.5,223C 385.951,214.032 380.784,201.199 385,184.5C 388.882,175.227 395.549,168.894 405,165.5C 403.853,141.914 397.853,119.58 387,98.5C 345.248,58.6893 295.414,40.856 237.5,45C 196.764,49.5434 161.097,65.2101 130.5,92C 126.851,92.963 123.518,92.463 120.5,90.5C 117.512,84.9218 118.845,80.4218 124.5,77C 181.877,31.7915 245.877,19.1249 316.5,39C 364.636,54.6333 402.136,83.8 429,126.5C 463.627,187.012 467.96,249.678 442,314.5C 439.697,320.288 436.53,325.454 432.5,330C 430.115,330.556 427.782,330.39 425.5,329.5C 422.857,326.66 422.024,323.327 423,319.5C 444.991,275.094 449.491,229.094 436.5,181.5C 432.247,165.247 425.747,149.914 417,135.5C 419.525,148.333 420.858,161.333 421,174.5C 420.167,176.667 418.667,178.167 416.5,179C 403.228,180.261 397.395,187.427 399,200.5C 402.042,207.113 407.209,210.946 414.5,212C 416.429,215.256 416.929,218.756 416,222.5C 413.32,232.873 409.654,242.873 405,252.5C 403.786,254.049 402.286,255.215 400.5,256C 394.204,254.249 387.704,253.083 381,252.5C 369.053,253.1 361.053,259.1 357,270.5C 358.257,278.002 355.423,283.002 348.5,285.5C 347.062,285.281 345.729,284.781 344.5,284C 322.105,255.091 294.772,249.091 262.5,266C 242.458,281.672 238.291,300.839 250,323.5C 261.657,338.758 275.823,341.591 292.5,332C 303.112,321.261 303.112,310.594 292.5,300C 289.623,298.873 286.623,298.206 283.5,298C 277.347,293.748 277.014,289.081 282.5,284C 297.938,283.084 308.438,289.918 314,304.5C 317.591,334.089 304.424,350.089 274.5,352.5C 250.506,350.009 235.673,337.009 230,313.5C 227.011,300.981 228.344,288.981 234,277.5C 234.312,262.623 227.145,253.289 212.5,249.5C 210.701,249.577 209.034,250.077 207.5,251C 191.711,263.745 174.044,267.079 154.5,261C 132.85,252.023 122.683,235.856 124,212.5C 127.477,194.188 138.31,183.522 156.5,180.5C 164.336,179.501 167.503,182.835 166,190.5C 165.5,192.333 164.333,193.5 162.5,194C 144.95,196.574 137.117,206.741 139,224.5C 146.874,244.192 161.374,252.026 182.5,248C 204.533,239.269 215.533,222.936 215.5,199C 213.707,177.873 203.707,161.873 185.5,151C 142.138,132.234 107.305,142.401 81,181.5C 67.9753,204.171 63.6419,228.504 68,254.5C 77.4452,319.472 110.612,367.806 167.5,399.5C 171.493,402.163 175.827,404.33 180.5,406C 230.5,406.667 280.5,406.667 330.5,406C 362.173,391.99 388.173,370.99 408.5,343C 411.79,341.265 415.123,341.099 418.5,342.5C 422.281,346.214 422.447,350.214 419,354.5C 405.932,371.735 390.766,386.735 373.5,399.5C 369.738,401.413 366.071,403.579 362.5,406C 371.5,406.667 380.5,406.667 389.5,406C 451.173,354.785 479.007,288.951 473,208.5C 471.922,199.212 470.089,190.212 467.5,181.5C 451.485,118.617 415.152,71.4501 358.5,40C 351.586,36.4738 344.586,33.1404 337.5,30C 335.773,27.0964 335.107,23.9297 335.5,20.5C 337.902,16.9215 341.235,15.7549 345.5,17C 416.76,48.6023 462.594,102.102 483,177.5C 501.349,267.104 477.849,343.604 412.5,407C 424.243,411.076 432.41,418.909 437,430.5C 439.306,437.39 441.139,444.39 442.5,451.5C 454.545,453.718 463.711,460.051 470,470.5C 473.943,481.27 477.109,492.27 479.5,503.5C 479.218,506.731 477.885,509.398 475.5,511.5C 328.833,511.5 182.167,511.5 35.5,511.5C 33.1154,509.398 31.7821,506.731 31.5,503.5C 33.8906,492.27 37.0573,481.27 41,470.5C 47.2886,460.051 56.4552,453.718 68.5,451.5C 70.2016,440.002 74.0349,429.336 80,419.5C 85.0947,413.737 91.2613,409.571 98.5,407C 35.3579,346.571 11.1912,273.071 26,186.5C 44.8376,105.002 92.671,47.835 169.5,15C 190.363,7.28304 211.697,2.11638 233.5,-0.5 Z"/></g>
<g><path style="opacity:1" fill="#eeecef" d="M 320.5,16.5 C 325.624,17.4313 330.624,18.7646 335.5,20.5C 335.107,23.9297 335.773,27.0964 337.5,30C 344.586,33.1404 351.586,36.4738 358.5,40C 415.152,71.4501 451.485,118.617 467.5,181.5C 478.409,257.255 458.242,323.255 407,379.5C 400.167,385.667 393.333,391.833 386.5,398C 382.3,399.367 377.967,399.867 373.5,399.5C 390.766,386.735 405.932,371.735 419,354.5C 422.447,350.214 422.281,346.214 418.5,342.5C 421.075,338.353 423.409,334.02 425.5,329.5C 427.782,330.39 430.115,330.556 432.5,330C 436.53,325.454 439.697,320.288 442,314.5C 467.96,249.678 463.627,187.012 429,126.5C 402.136,83.8 364.636,54.6333 316.5,39C 245.877,19.1249 181.877,31.7915 124.5,77C 118.845,80.4218 117.512,84.9218 120.5,90.5C 116.833,94.5 113.167,98.5 109.5,102.5C 107.074,100.782 104.407,100.282 101.5,101C 73.7825,132.616 57.6158,169.449 53,211.5C 47.8767,289.556 76.0434,352.223 137.5,399.5C 129.833,399.5 122.167,399.5 114.5,399.5C 85.5039,375.541 64.3372,345.874 51,310.5C 24.1008,231.506 36.1008,159.172 87,93.5C 147.515,25.7197 222.349,1.7197 311.5,21.5C 315.595,21.6231 318.595,19.9565 320.5,16.5 Z"/></g>
<g><path style="opacity:1" fill="#707dd2" d="M 109.5,102.5 C 113.167,98.5 116.833,94.5 120.5,90.5C 123.518,92.463 126.851,92.963 130.5,92C 161.097,65.2101 196.764,49.5434 237.5,45C 295.414,40.856 345.248,58.6893 387,98.5C 397.853,119.58 403.853,141.914 405,165.5C 395.549,168.894 388.882,175.227 385,184.5C 380.784,201.199 385.951,214.032 400.5,223C 398.689,228.122 397.022,233.289 395.5,238.5C 372.505,233.588 355.339,241.254 344,261.5C 336.898,254.696 328.732,249.53 319.5,246C 292.734,237.153 268.568,241.653 247,259.5C 240.971,248.469 232.138,240.636 220.5,236C 222.461,232.579 224.294,229.079 226,225.5C 237.013,182.691 222.513,151.858 182.5,133C 147.658,120.037 116.325,125.704 88.5,150C 87.6683,150.688 87.0016,150.521 86.5,149.5C 93.2873,135.892 101.454,123.226 111,111.5C 111.793,108.259 111.293,105.259 109.5,102.5 Z"/></g>
<g><path style="opacity:1" fill="#030304" d="M 280.5,62.5 C 293.916,60.2893 303.416,65.2893 309,77.5C 310.823,98.344 301.323,107.844 280.5,106C 266.844,99.3536 262.344,88.8536 267,74.5C 270.454,69.206 274.954,65.206 280.5,62.5 Z"/></g>
<g><path style="opacity:1" fill="#05050a" d="M 233.5,65.5 C 241.033,65.5289 244.533,69.1956 244,76.5C 241.774,80.8608 238.274,82.3608 233.5,81C 229.139,78.7742 227.639,75.2742 229,70.5C 230.366,68.6383 231.866,66.9717 233.5,65.5 Z"/></g>
<g><path style="opacity:1" fill="#cdd1e9" d="M 283.5,77.5 C 294.765,76.9286 297.431,81.4286 291.5,91C 285.031,93.2111 281.031,91.0444 279.5,84.5C 280.071,81.6873 281.404,79.354 283.5,77.5 Z"/></g>
<g><path style="opacity:1" fill="#020203" d="M 329.5,82.5 C 334.347,81.8404 338.181,83.5071 341,87.5C 344.609,99.7079 347.776,112.041 350.5,124.5C 359.126,127.661 367.793,130.828 376.5,134C 383.983,141.895 382.649,148.229 372.5,153C 364.791,154.967 357.291,157.467 350,160.5C 347.588,171.892 344.922,183.225 342,194.5C 340.014,200.74 335.848,203.24 329.5,202C 327,200.833 325.167,199 324,196.5C 320.593,184.3 317.76,171.967 315.5,159.5C 306.945,157.777 298.612,155.277 290.5,152C 280.752,144.456 281.419,137.789 292.5,132C 300.017,129.494 307.517,126.994 315,124.5C 317.667,113.159 320.334,101.826 323,90.5C 324.305,87.0386 326.471,84.372 329.5,82.5 Z"/></g>
<g><path style="opacity:1" fill="#030307" d="M 164.5,91.5 C 173.207,91.0365 176.707,95.0365 175,103.5C 170.255,108.743 165.588,108.743 161,103.5C 159.593,98.6427 160.76,94.6427 164.5,91.5 Z"/></g>
<g><path style="opacity:1" fill="#f2ebbf" d="M 332.5,117.5 C 334.345,123.503 336.512,129.503 339,135.5C 343.489,138.499 348.322,140.832 353.5,142.5C 347.695,143.985 342.529,146.652 338,150.5C 335.704,156.019 333.87,161.685 332.5,167.5C 331.001,162.173 329.501,156.839 328,151.5C 323.039,146.895 317.205,143.895 310.5,142.5C 313.707,141.03 317.041,139.863 320.5,139C 323.102,138.117 325.269,136.617 327,134.5C 329.343,128.972 331.176,123.305 332.5,117.5 Z"/></g>
<g><path style="opacity:1" fill="#bc95e3" d="M 436.5,181.5 C 447.907,245.213 433.073,301.88 392,351.5C 377.533,367.648 361.033,381.148 342.5,392C 337.166,395.168 331.499,397.501 325.5,399C 272.834,399.5 220.168,399.667 167.5,399.5C 110.612,367.806 77.4452,319.472 68,254.5C 63.6419,228.504 67.9753,204.171 81,181.5C 107.305,142.401 142.138,132.234 185.5,151C 203.707,161.873 213.707,177.873 215.5,199C 215.533,222.936 204.533,239.269 182.5,248C 161.374,252.026 146.874,244.192 139,224.5C 137.117,206.741 144.95,196.574 162.5,194C 164.333,193.5 165.5,192.333 166,190.5C 167.503,182.835 164.336,179.501 156.5,180.5C 138.31,183.522 127.477,194.188 124,212.5C 122.683,235.856 132.85,252.023 154.5,261C 174.044,267.079 191.711,263.745 207.5,251C 209.034,250.077 210.701,249.577 212.5,249.5C 227.145,253.289 234.312,262.623 234,277.5C 228.344,288.981 227.011,300.981 230,313.5C 235.673,337.009 250.506,350.009 274.5,352.5C 304.424,350.089 317.591,334.089 314,304.5C 308.438,289.918 297.938,283.084 282.5,284C 277.014,289.081 277.347,293.748 283.5,298C 286.623,298.206 289.623,298.873 292.5,300C 303.112,310.594 303.112,321.261 292.5,332C 275.823,341.591 261.657,338.758 250,323.5C 238.291,300.839 242.458,281.672 262.5,266C 294.772,249.091 322.105,255.091 344.5,284C 345.729,284.781 347.062,285.281 348.5,285.5C 355.423,283.002 358.257,278.002 357,270.5C 361.053,259.1 369.053,253.1 381,252.5C 387.704,253.083 394.204,254.249 400.5,256C 402.286,255.215 403.786,254.049 405,252.5C 409.654,242.873 413.32,232.873 416,222.5C 416.929,218.756 416.429,215.256 414.5,212C 407.209,210.946 402.042,207.113 399,200.5C 397.395,187.427 403.228,180.261 416.5,179C 418.667,178.167 420.167,176.667 421,174.5C 420.858,161.333 419.525,148.333 417,135.5C 425.747,149.914 432.247,165.247 436.5,181.5 Z"/></g>
<g><path style="opacity:1" fill="#030305" d="M 363.5,171.5 C 373.855,171.038 376.855,175.538 372.5,185C 362.961,188.66 358.794,185.493 360,175.5C 360.69,173.65 361.856,172.316 363.5,171.5 Z"/></g>
<g><path style="opacity:1" fill="#d0d4ec" d="M 467.5,181.5 C 470.089,190.212 471.922,199.212 473,208.5C 479.007,288.951 451.173,354.785 389.5,406C 380.5,406.667 371.5,406.667 362.5,406C 366.071,403.579 369.738,401.413 373.5,399.5C 377.967,399.867 382.3,399.367 386.5,398C 393.333,391.833 400.167,385.667 407,379.5C 458.242,323.255 478.409,257.255 467.5,181.5 Z"/></g>
<g><path style="opacity:1" fill="#9b65d3" d="M 436.5,181.5 C 449.491,229.094 444.991,275.094 423,319.5C 422.024,323.327 422.857,326.66 425.5,329.5C 423.409,334.02 421.075,338.353 418.5,342.5C 415.123,341.099 411.79,341.265 408.5,343C 388.173,370.99 362.173,391.99 330.5,406C 280.5,406.667 230.5,406.667 180.5,406C 175.827,404.33 171.493,402.163 167.5,399.5C 220.168,399.667 272.834,399.5 325.5,399C 331.499,397.501 337.166,395.168 342.5,392C 361.033,381.148 377.533,367.648 392,351.5C 433.073,301.88 447.907,245.213 436.5,181.5 Z"/></g>
<g><path style="opacity:1" fill="#06060b" d="M 283.5,203.5 C 293.059,202.546 296.559,206.546 294,215.5C 288.885,221.075 284.219,220.742 280,214.5C 278.662,209.96 279.829,206.293 283.5,203.5 Z"/></g>
<g><path style="opacity:1" fill="#d0d4ec" d="M 114.5,399.5 C 122.167,399.5 129.833,399.5 137.5,399.5C 141.262,401.413 144.929,403.579 148.5,406C 144,406.167 139.5,406.333 135,406.5C 126.491,408.324 119.658,405.991 114.5,399.5 Z"/></g>
<g><path style="opacity:1" fill="#f7e782" d="M 416.5,427.5 C 418.469,432.372 419.636,437.372 420,442.5C 419.25,443.126 418.416,443.626 417.5,444C 307.167,444.5 196.834,444.667 86.5,444.5C 87.8122,433.69 93.4789,426.19 103.5,422C 204.5,421.333 305.5,421.333 406.5,422C 410.346,423.086 413.68,424.919 416.5,427.5 Z"/></g>
<g><path style="opacity:1" fill="#fdcf63" d="M 416.5,427.5 C 418.47,429.647 420.303,431.98 422,434.5C 423.974,440.062 425.474,445.729 426.5,451.5C 349.166,451.333 271.833,451.5 194.5,452C 191.037,454.15 189.704,457.316 190.5,461.5C 185.384,459.205 180.051,458.871 174.5,460.5C 175.154,456.317 173.488,453.484 169.5,452C 141.169,451.5 112.835,451.333 84.5,451.5C 84.4095,448.848 85.0762,446.515 86.5,444.5C 196.834,444.667 307.167,444.5 417.5,444C 418.416,443.626 419.25,443.126 420,442.5C 419.636,437.372 418.469,432.372 416.5,427.5 Z"/></g>
<g><path style="opacity:1" fill="#f7e782" d="M 190.5,461.5 C 191.023,463.708 192.356,465.208 194.5,466C 276.833,466.333 359.167,466.667 441.5,467C 445.858,468.172 449.525,470.339 452.5,473.5C 453.183,477.413 454.183,481.247 455.5,485C 455.561,486.711 454.894,488.044 453.5,489C 319.5,489.5 185.5,489.667 51.5,489.5C 52.4483,478.438 58.1149,470.938 68.5,467C 102.167,466.667 135.833,466.333 169.5,466C 172.079,464.924 173.746,463.091 174.5,460.5C 180.051,458.871 185.384,459.205 190.5,461.5 Z"/></g>
<g><path style="opacity:1" fill="#fecf63" d="M 452.5,473.5 C 454.86,475.713 456.694,478.379 458,481.5C 459.33,486.484 460.496,491.484 461.5,496.5C 324.167,496.5 186.833,496.5 49.5,496.5C 49.4095,493.848 50.0762,491.515 51.5,489.5C 185.5,489.667 319.5,489.5 453.5,489C 454.894,488.044 455.561,486.711 455.5,485C 454.183,481.247 453.183,477.413 452.5,473.5 Z"/></g>
</svg>
