<?xml version="1.0" encoding="UTF-8"?>
<!DOCTYPE svg PUBLIC "-//W3C//DTD SVG 1.1//EN" "http://www.w3.org/Graphics/SVG/1.1/DTD/svg11.dtd">
<svg xmlns="http://www.w3.org/2000/svg" version="1.1" width="512px" height="512px" style="shape-rendering:geometricPrecision; text-rendering:geometricPrecision; image-rendering:optimizeQuality; fill-rule:evenodd; clip-rule:evenodd" xmlns:xlink="http://www.w3.org/1999/xlink">
<g><path style="opacity:0.98" fill="#010101" d="M 343.5,-0.5 C 350.833,-0.5 358.167,-0.5 365.5,-0.5C 375.668,2.08244 385.001,6.58244 393.5,13C 428.366,52.2389 459.2,94.4056 486,139.5C 491.468,148.77 496.135,158.436 500,168.5C 504.721,178.635 505.388,188.968 502,199.5C 497.659,206.087 491.492,209.087 483.5,208.5C 472.253,207.382 461.586,204.215 451.5,199C 434.477,189.963 417.977,180.129 402,169.5C 397.229,174.936 391.395,178.769 384.5,181C 380.946,221.042 379.113,261.209 379,301.5C 416.392,312.942 450.225,330.775 480.5,355C 495.608,368.243 505.941,384.41 511.5,403.5C 511.5,410.167 511.5,416.833 511.5,423.5C 506.057,442.461 494.723,456.961 477.5,467C 474.833,467.667 472.167,467.667 469.5,467C 459.92,461.96 450.42,456.794 441,451.5C 441.325,456.164 439.492,459.664 435.5,462C 430.915,463.225 426.248,463.725 421.5,463.5C 423.057,470.008 424.724,476.508 426.5,483C 425.655,486.832 423.655,489.832 420.5,492C 379.404,503.008 337.737,509.508 295.5,511.5C 268.833,511.5 242.167,511.5 215.5,511.5C 191.906,509.762 168.24,507.262 144.5,504C 133.029,502.306 121.696,499.973 110.5,497C 108.333,496.167 106.833,494.667 106,492.5C 105.667,483.833 105.333,475.167 105,466.5C 97.1215,473.38 88.9548,479.88 80.5,486C 74.4848,487.035 68.8182,486.035 63.5,483C 41.1002,475.073 22.6002,461.907 8,443.5C 4.27617,437.07 1.44284,430.404 -0.5,423.5C -0.5,416.833 -0.5,410.167 -0.5,403.5C 5.05891,384.41 15.3922,368.243 30.5,355C 48.9852,339.579 69.3185,326.912 91.5,317C 105.725,311.203 120.059,305.703 134.5,300.5C 150.016,249.471 171.516,201.138 199,155.5C 225.508,109.671 257.008,67.504 293.5,29C 307.607,14.7053 324.273,4.87201 343.5,-0.5 Z"/></g>
<g><path style="opacity:1" fill="#7c9afe" d="M 349.5,19.5 C 360.686,18.366 370.686,21.1994 379.5,28C 404.681,56.3787 427.681,86.3787 448.5,118C 433.925,126.741 422.592,138.575 414.5,153.5C 401.029,144.529 387.696,135.362 374.5,126C 362.229,122.606 357.396,127.106 360,139.5C 368.05,145.725 376.216,151.725 384.5,157.5C 383.221,159.146 381.555,160.313 379.5,161C 375.833,162 372.167,163 368.5,164C 366.641,165.558 365.141,167.391 364,169.5C 362.82,196.197 361.154,222.864 359,249.5C 358.647,271.866 358.48,294.2 358.5,316.5C 290.014,338.624 221.348,339.124 152.5,318C 152.043,317.586 151.709,317.086 151.5,316.5C 159.936,284.359 171.436,253.359 186,223.5C 212.244,170.639 243.244,120.973 279,74.5C 292.203,58.2966 307.036,43.7966 323.5,31C 331.659,25.7482 340.325,21.9148 349.5,19.5 Z"/></g>
<g><path style="opacity:1" fill="#70d4fa" d="M 457.5,135.5 C 459.017,135.511 460.184,136.177 461,137.5C 467.858,149.215 474.191,161.215 480,173.5C 482.103,178.302 483.269,183.302 483.5,188.5C 464.731,183.615 447.731,175.282 432.5,163.5C 438.061,151.61 446.395,142.276 457.5,135.5 Z"/></g>
<g><path style="opacity:1" fill="#7c9afd" d="M 127.5,324.5 C 128.725,325.152 129.392,326.319 129.5,328C 125.47,348.669 123.303,369.503 123,390.5C 127.515,403.36 135.681,413.194 147.5,420C 175.283,434.696 204.95,442.363 236.5,443C 274.558,445.712 311.558,440.712 347.5,428C 363.414,422.318 375.914,412.485 385,398.5C 388.315,390.827 389.315,382.827 388,374.5C 386.3,358.937 384.134,343.437 381.5,328C 381.833,326.833 382.167,325.667 382.5,324.5C 411.171,334.166 437.504,347.999 461.5,366C 473.267,375.433 482.434,386.933 489,400.5C 494.29,419.465 488.79,434.465 472.5,445.5C 463.006,440.587 453.672,435.42 444.5,430C 440.13,427.311 435.463,425.478 430.5,424.5C 426.965,424.351 424.132,425.684 422,428.5C 420.621,433.036 420.121,437.703 420.5,442.5C 414.824,442.334 409.157,442.501 403.5,443C 399.181,444.979 396.848,448.313 396.5,453C 398.593,459.783 400.593,466.616 402.5,473.5C 402.167,474.167 401.833,474.833 401.5,475.5C 360.531,485.77 318.864,490.937 276.5,491C 225.823,492.299 175.489,488.799 125.5,480.5C 125.667,467.496 125.5,454.496 125,441.5C 121.252,435.458 116.085,433.958 109.5,437C 99.1667,445.333 88.8333,453.667 78.5,462C 76.9328,463.076 75.2662,463.909 73.5,464.5C 52.5586,458.029 35.7252,446.029 23,428.5C 18.7887,419.3 18.4554,409.967 22,400.5C 28.5659,386.933 37.7326,375.433 49.5,366C 73.086,347.706 99.086,333.873 127.5,324.5 Z"/></g>
<g><path style="opacity:1" fill="#f69300" d="M 359.5,336.5 C 360.822,336.33 361.989,336.663 363,337.5C 363.694,342.858 364.527,348.191 365.5,353.5C 365.182,354.647 364.516,355.481 363.5,356C 329.819,369.403 294.819,376.403 258.5,377C 250.588,379.605 248.421,384.772 252,392.5C 253.214,394.049 254.714,395.215 256.5,396C 294.748,396.051 331.748,389.217 367.5,375.5C 370.121,386.091 366.788,394.258 357.5,400C 340.725,409.816 322.725,416.482 303.5,420C 278.613,423.37 253.613,424.37 228.5,423C 208.958,421.031 189.958,416.698 171.5,410C 163.507,406.675 156.174,402.341 149.5,397C 143.131,391.21 140.797,384.043 142.5,375.5C 154.631,379.765 166.965,383.432 179.5,386.5C 188.682,385.173 191.849,380.173 189,371.5C 187.833,370.333 186.667,369.167 185.5,368C 172.046,364.126 158.713,359.959 145.5,355.5C 146.385,349.526 147.051,343.526 147.5,337.5C 182.308,347.449 217.808,352.782 254,353.5C 290.222,353.542 325.389,347.875 359.5,336.5 Z"/></g>
<g><path style="opacity:1" fill="#0a0500" d="M 215.5,374.5 C 225.458,373.369 229.958,377.702 229,387.5C 226.081,393.025 221.581,394.858 215.5,393C 207.547,386.836 207.547,380.669 215.5,374.5 Z"/></g>
</svg>
