<?xml version="1.0" encoding="UTF-8"?>
<!DOCTYPE svg PUBLIC "-//W3C//DTD SVG 1.1//EN" "http://www.w3.org/Graphics/SVG/1.1/DTD/svg11.dtd">
<svg xmlns="http://www.w3.org/2000/svg" version="1.1" width="512px" height="512px" style="shape-rendering:geometricPrecision; text-rendering:geometricPrecision; image-rendering:optimizeQuality; fill-rule:evenodd; clip-rule:evenodd" xmlns:xlink="http://www.w3.org/1999/xlink">
<g><path style="opacity:0.953" fill="#272726" d="M 461.5,63.5 C 462.167,64.8333 463.167,65.8333 464.5,66.5C 467.527,68.8605 470.194,71.5271 472.5,74.5C 473.551,77.9607 475.551,80.6273 478.5,82.5C 479.901,85.6339 481.568,88.6339 483.5,91.5C 478.305,102.598 469.638,107.098 457.5,105C 454.107,104.202 450.774,103.202 447.5,102C 434.802,95.6511 422.136,89.3178 409.5,83C 310.722,48.0151 211.722,46.5151 112.5,78.5C 110.62,78.2291 109.287,78.8958 108.5,80.5C 95.3883,84.3919 83.055,89.8919 71.5,97C 59.9507,104.044 47.6173,106.044 34.5,103C 27.9298,99.3449 25.7632,93.8449 28,86.5C 29.2271,81.799 31.3938,77.6323 34.5,74C 80.3098,38.0611 132.143,16.5611 190,9.5C 199.746,7.76816 209.579,6.43483 219.5,5.5C 221.5,6.83333 223.5,6.83333 225.5,5.5C 278.606,1.03511 330.94,5.86844 382.5,20C 409.233,27.8655 433.566,40.1988 455.5,57C 457.706,59.0367 459.706,61.2034 461.5,63.5 Z M 255.5,11.5 C 257.5,11.5 259.5,11.5 261.5,11.5C 256.498,15.0031 251.165,18.0031 245.5,20.5C 248.833,17.5 252.167,14.5 255.5,11.5 Z M 280.5,11.5 C 284.434,12.3597 288.434,12.693 292.5,12.5C 283.5,18.3357 274.167,23.6691 264.5,28.5C 269.833,22.8333 275.167,17.1667 280.5,11.5 Z M 226.5,12.5 C 228.833,12.5 231.167,12.5 233.5,12.5C 227.666,16.9209 221.332,20.5876 214.5,23.5C 218.5,19.8333 222.5,16.1667 226.5,12.5 Z M 308.5,14.5 C 312.481,15.0209 316.481,15.3542 320.5,15.5C 312.687,21.0716 304.353,25.5716 295.5,29C 300.411,24.5938 304.745,19.7605 308.5,14.5 Z M 201.5,15.5 C 192.098,21.5575 182.431,27.2242 172.5,32.5C 178.833,27.1667 185.167,21.8333 191.5,16.5C 194.833,16.1667 198.167,15.8333 201.5,15.5 Z M 334.5,18.5 C 337.539,19.01 340.539,19.6766 343.5,20.5C 337.338,24.4159 331.005,28.0825 324.5,31.5C 327.833,27.1667 331.167,22.8333 334.5,18.5 Z M 267.5,46.5 C 263.167,46.5 258.833,46.5 254.5,46.5C 262.801,40.8532 271.468,36.0198 280.5,32C 275.589,36.4062 271.255,41.2395 267.5,46.5 Z M 246.5,32.5 C 241.793,37.2046 237.46,42.2046 233.5,47.5C 229.167,47.5 224.833,47.5 220.5,47.5C 228.645,41.7091 237.312,36.7091 246.5,32.5 Z M 305.5,36.5 C 302.543,40.7921 299.21,44.7921 295.5,48.5C 292.609,47.5975 289.609,47.2641 286.5,47.5C 292.334,43.0791 298.668,39.4124 305.5,36.5 Z M 394.5,36.5 C 395.167,36.8333 395.833,37.1667 396.5,37.5C 394.669,39.7487 392.336,40.9154 389.5,41C 391.037,39.2927 392.704,37.7927 394.5,36.5 Z M 115.5,37.5 C 113.664,39.588 111.331,40.9213 108.5,41.5C 108.833,40.8333 109.167,40.1667 109.5,39.5C 111.5,38.8333 113.5,38.1667 115.5,37.5 Z M 108.5,41.5 C 108.027,42.9063 107.027,43.573 105.5,43.5C 105.973,42.0937 106.973,41.427 108.5,41.5 Z M 203.5,42.5 C 200.5,45.1667 197.5,47.8333 194.5,50.5C 192.236,51.2186 189.903,51.552 187.5,51.5C 192.502,47.9969 197.835,44.9969 203.5,42.5 Z M 408.5,43.5 C 409.609,43.5569 410.609,43.8902 411.5,44.5C 409.664,46.588 407.331,47.9213 404.5,48.5C 405.833,46.8333 407.167,45.1667 408.5,43.5 Z M 169.5,46.5 C 165.5,50.1667 161.5,53.8333 157.5,57.5C 153.888,58.4222 150.221,59.0889 146.5,59.5C 153.905,54.7744 161.572,50.4411 169.5,46.5 Z M 364.5,53.5 C 363.167,55.1667 361.833,56.8333 360.5,58.5C 359.391,58.4431 358.391,58.1098 357.5,57.5C 359.663,55.9172 361.996,54.5839 364.5,53.5 Z M 122.5,57.5 C 116.54,62.4896 110.54,67.4896 104.5,72.5C 96.6481,75.8951 88.6481,78.8951 80.5,81.5C 94.1665,72.9976 108.166,64.9976 122.5,57.5 Z M 383.5,57.5 C 381.748,59.2459 380.415,61.2459 379.5,63.5C 377.958,62.6993 376.292,62.366 374.5,62.5C 377.008,60.0764 380.008,58.4097 383.5,57.5 Z M 433.5,58.5 C 435.027,58.427 436.027,59.0937 436.5,60.5C 434.664,62.588 432.331,63.9213 429.5,64.5C 430.475,62.2048 431.808,60.2048 433.5,58.5 Z M 416.5,65.5 C 415.601,68.395 414.267,71.0616 412.5,73.5C 410.079,73.1218 407.746,72.4552 405.5,71.5C 408.678,68.7417 412.345,66.7417 416.5,65.5 Z M 427.5,79.5 C 426.508,79.6716 425.842,79.3382 425.5,78.5C 427.044,78.2969 428.378,77.6302 429.5,76.5C 429.984,77.7808 429.317,78.7808 427.5,79.5 Z M 448.5,81.5 C 447.833,83.5 447.167,85.5 446.5,87.5C 444.716,87.1075 443.05,86.4408 441.5,85.5C 443.336,83.412 445.669,82.0787 448.5,81.5 Z"/></g>
<g><path style="opacity:0.992" fill="#89682a" d="M 225.5,5.5 C 223.5,6.83333 221.5,6.83333 219.5,5.5C 221.5,4.16667 223.5,4.16667 225.5,5.5 Z"/></g>
<g><path style="opacity:0.965" fill="#d19e2c" d="M 255.5,11.5 C 252.167,14.5 248.833,17.5 245.5,20.5C 251.165,18.0031 256.498,15.0031 261.5,11.5C 267.833,11.5 274.167,11.5 280.5,11.5C 275.167,17.1667 269.833,22.8333 264.5,28.5C 274.167,23.6691 283.5,18.3357 292.5,12.5C 298.084,12.2549 303.417,12.9216 308.5,14.5C 304.745,19.7605 300.411,24.5938 295.5,29C 304.353,25.5716 312.687,21.0716 320.5,15.5C 325.375,16.0848 330.042,17.0848 334.5,18.5C 331.167,22.8333 327.833,27.1667 324.5,31.5C 331.005,28.0825 337.338,24.4159 343.5,20.5C 355.704,22.7182 367.704,25.8849 379.5,30C 380.126,30.7504 380.626,31.5838 381,32.5C 381.399,32.2716 381.565,31.9382 381.5,31.5C 386.29,32.2038 390.623,33.8705 394.5,36.5C 392.704,37.7927 391.037,39.2927 389.5,41C 392.336,40.9154 394.669,39.7487 396.5,37.5C 401.157,38.495 405.157,40.495 408.5,43.5C 407.167,45.1667 405.833,46.8333 404.5,48.5C 407.331,47.9213 409.664,46.588 411.5,44.5C 417.604,47.3865 423.604,50.5531 429.5,54C 431.635,54.8763 432.969,56.3763 433.5,58.5C 431.808,60.2048 430.475,62.2048 429.5,64.5C 432.331,63.9213 434.664,62.588 436.5,60.5C 437.552,60.3505 438.552,60.5172 439.5,61C 446,66.8333 452.5,72.6667 459,78.5C 459.333,79.8333 459.667,81.1667 460,82.5C 460.399,82.2716 460.565,81.9382 460.5,81.5C 464.521,84.5223 467.855,88.1889 470.5,92.5C 468.526,96.1699 465.526,97.3366 461.5,96C 456.018,93.6042 451.018,90.7708 446.5,87.5C 447.167,85.5 447.833,83.5 448.5,81.5C 445.669,82.0787 443.336,83.412 441.5,85.5C 436.296,84.56 431.63,82.56 427.5,79.5C 429.317,78.7808 429.984,77.7808 429.5,76.5C 428.378,77.6302 427.044,78.2969 425.5,78.5C 420.459,78.1619 416.126,76.4952 412.5,73.5C 414.267,71.0616 415.601,68.395 416.5,65.5C 412.345,66.7417 408.678,68.7417 405.5,71.5C 396.563,69.4078 387.897,66.7411 379.5,63.5C 380.415,61.2459 381.748,59.2459 383.5,57.5C 380.008,58.4097 377.008,60.0764 374.5,62.5C 369.555,61.7673 364.888,60.434 360.5,58.5C 361.833,56.8333 363.167,55.1667 364.5,53.5C 361.996,54.5839 359.663,55.9172 357.5,57.5C 351.5,57.4296 346.167,56.4296 341.5,54.5C 326.126,52.4952 310.793,50.4952 295.5,48.5C 299.21,44.7921 302.543,40.7921 305.5,36.5C 298.668,39.4124 292.334,43.0791 286.5,47.5C 279.978,47.8235 273.645,47.4902 267.5,46.5C 271.255,41.2395 275.589,36.4062 280.5,32C 271.468,36.0198 262.801,40.8532 254.5,46.5C 247.543,47.3864 240.543,47.7197 233.5,47.5C 237.46,42.2046 241.793,37.2046 246.5,32.5C 237.312,36.7091 228.645,41.7091 220.5,47.5C 219.508,47.3284 218.842,47.6618 218.5,48.5C 210.549,49.6796 202.549,50.3463 194.5,50.5C 197.5,47.8333 200.5,45.1667 203.5,42.5C 197.835,44.9969 192.502,47.9969 187.5,51.5C 177.56,53.7773 167.56,55.7773 157.5,57.5C 161.5,53.8333 165.5,50.1667 169.5,46.5C 161.572,50.4411 153.905,54.7744 146.5,59.5C 145.833,59.5 145.5,59.8333 145.5,60.5C 131.531,64.6134 117.864,68.6134 104.5,72.5C 110.54,67.4896 116.54,62.4896 122.5,57.5C 108.166,64.9976 94.1665,72.9976 80.5,81.5C 79.8333,81.5 79.5,81.8333 79.5,82.5C 78.5084,82.3284 77.8417,82.6618 77.5,83.5C 76.5084,83.3284 75.8417,83.6618 75.5,84.5C 68.0627,88.0527 60.7294,91.8861 53.5,96C 43.5492,97.7158 39.0492,93.5491 40,83.5C 60.175,64.1595 83.3416,49.4928 109.5,39.5C 109.167,40.1667 108.833,40.8333 108.5,41.5C 111.331,40.9213 113.664,39.588 115.5,37.5C 116.492,37.6716 117.158,37.3382 117.5,36.5C 118.492,36.6716 119.158,36.3382 119.5,35.5C 142.649,26.0458 166.649,19.7125 191.5,16.5C 185.167,21.8333 178.833,27.1667 172.5,32.5C 182.431,27.2242 192.098,21.5575 201.5,15.5C 209.628,13.0371 217.961,12.0371 226.5,12.5C 222.5,16.1667 218.5,19.8333 214.5,23.5C 221.332,20.5876 227.666,16.9209 233.5,12.5C 240.87,10.3589 248.203,10.0256 255.5,11.5 Z M 255.5,11.5 C 257.5,11.5 259.5,11.5 261.5,11.5C 256.498,15.0031 251.165,18.0031 245.5,20.5C 248.833,17.5 252.167,14.5 255.5,11.5 Z M 226.5,12.5 C 228.833,12.5 231.167,12.5 233.5,12.5C 227.666,16.9209 221.332,20.5876 214.5,23.5C 218.5,19.8333 222.5,16.1667 226.5,12.5 Z M 267.5,46.5 C 263.167,46.5 258.833,46.5 254.5,46.5C 262.801,40.8532 271.468,36.0198 280.5,32C 275.589,36.4062 271.255,41.2395 267.5,46.5 Z M 246.5,32.5 C 241.793,37.2046 237.46,42.2046 233.5,47.5C 229.167,47.5 224.833,47.5 220.5,47.5C 228.645,41.7091 237.312,36.7091 246.5,32.5 Z M 305.5,36.5 C 302.543,40.7921 299.21,44.7921 295.5,48.5C 292.609,47.5975 289.609,47.2641 286.5,47.5C 292.334,43.0791 298.668,39.4124 305.5,36.5 Z M 108.5,41.5 C 108.027,42.9063 107.027,43.573 105.5,43.5C 105.973,42.0937 106.973,41.427 108.5,41.5 Z M 203.5,42.5 C 200.5,45.1667 197.5,47.8333 194.5,50.5C 192.236,51.2186 189.903,51.552 187.5,51.5C 192.502,47.9969 197.835,44.9969 203.5,42.5 Z M 169.5,46.5 C 165.5,50.1667 161.5,53.8333 157.5,57.5C 153.888,58.4222 150.221,59.0889 146.5,59.5C 153.905,54.7744 161.572,50.4411 169.5,46.5 Z M 364.5,53.5 C 363.167,55.1667 361.833,56.8333 360.5,58.5C 359.391,58.4431 358.391,58.1098 357.5,57.5C 359.663,55.9172 361.996,54.5839 364.5,53.5 Z M 122.5,57.5 C 116.54,62.4896 110.54,67.4896 104.5,72.5C 96.6481,75.8951 88.6481,78.8951 80.5,81.5C 94.1665,72.9976 108.166,64.9976 122.5,57.5 Z M 383.5,57.5 C 381.748,59.2459 380.415,61.2459 379.5,63.5C 377.958,62.6993 376.292,62.366 374.5,62.5C 377.008,60.0764 380.008,58.4097 383.5,57.5 Z M 416.5,65.5 C 415.601,68.395 414.267,71.0616 412.5,73.5C 410.079,73.1218 407.746,72.4552 405.5,71.5C 408.678,68.7417 412.345,66.7417 416.5,65.5 Z M 427.5,79.5 C 426.508,79.6716 425.842,79.3382 425.5,78.5C 427.044,78.2969 428.378,77.6302 429.5,76.5C 429.984,77.7808 429.317,78.7808 427.5,79.5 Z M 448.5,81.5 C 447.833,83.5 447.167,85.5 446.5,87.5C 444.716,87.1075 443.05,86.4408 441.5,85.5C 443.336,83.412 445.669,82.0787 448.5,81.5 Z"/></g>
<g><path style="opacity:0.047" fill="#b08a2b" d="M 461.5,63.5 C 463.5,63.5 464.5,64.5 464.5,66.5C 463.167,65.8333 462.167,64.8333 461.5,63.5 Z"/></g>
<g><path style="opacity:0.866" fill="#cfa12c" d="M 472.5,74.5 C 477.929,74.7107 479.929,77.3774 478.5,82.5C 475.551,80.6273 473.551,77.9607 472.5,74.5 Z"/></g>
<g><path style="opacity:0.016" fill="#a99333" d="M 112.5,78.5 C 111.486,79.6737 110.153,80.3404 108.5,80.5C 109.287,78.8958 110.62,78.2291 112.5,78.5 Z"/></g>
<g><path style="opacity:0.962" fill="#272626" d="M 312.5,84.5 C 313.879,86.5969 315.545,86.9302 317.5,85.5C 369.717,96.7744 415.717,119.941 455.5,155C 473.844,163.92 489.678,176.086 503,191.5C 511.768,204.99 509.935,216.823 497.5,227C 486.631,234.186 474.964,239.853 462.5,244C 444.289,249.636 425.956,254.802 407.5,259.5C 411.021,266.85 415.521,273.516 421,279.5C 428.063,286.236 435.397,292.57 443,298.5C 445.686,302.957 447.186,307.79 447.5,313C 446.686,321.068 444.853,328.901 442,336.5C 435.212,352.076 427.879,367.41 420,382.5C 409.818,401.56 405.152,421.894 406,443.5C 403.874,460.792 394.708,466.792 378.5,461.5C 376.365,459.929 374.032,458.596 371.5,457.5C 360.547,449.69 352.714,439.357 348,426.5C 338.721,398.444 334.221,369.61 334.5,340C 334.848,317.01 336.848,294.177 340.5,271.5C 336.928,271.938 333.428,272.604 330,273.5C 313.46,331.256 286.46,383.256 249,429.5C 209.702,474.735 160.202,500.902 100.5,508C 74.2527,510.857 50.5861,504.523 29.5,489C 6.64565,467.444 -2.52101,440.944 2,409.5C 2.89371,394.484 7.56037,380.818 16,368.5C 27.3302,357.502 39.8302,356.002 53.5,364C 56.6621,368.445 58.3288,373.445 58.5,379C 55.0962,394.777 52.0962,410.61 49.5,426.5C 49.6579,441.833 57.3246,451 72.5,454C 103.709,456.374 131.375,447.707 155.5,428C 178.855,407.317 197.688,383.15 212,355.5C 224.955,330.461 236.455,304.794 246.5,278.5C 214.846,275.911 183.179,273.078 151.5,270C 117.743,266.478 85.41,257.812 54.5,244C 40.8316,237.343 28.8316,228.509 18.5,217.5C 17.7377,215.738 16.4044,214.738 14.5,214.5C 10.1663,209.329 5.99965,203.995 2,198.5C 0.608893,189.112 3.77556,181.612 11.5,176C 30.8269,168.172 49.8269,159.505 68.5,150C 97.572,132.128 127.572,115.794 158.5,101C 208.216,80.7072 259.549,75.2072 312.5,84.5 Z M 260.5,89.5 C 264.167,89.5 267.833,89.5 271.5,89.5C 261.666,96.2541 251.333,102.254 240.5,107.5C 246.868,101.13 253.535,95.1298 260.5,89.5 Z M 290.5,91.5 C 293.059,91.1984 295.393,91.5318 297.5,92.5C 285.836,100.001 273.836,107.001 261.5,113.5C 270.594,105.406 280.26,98.0725 290.5,91.5 Z M 212.5,95.5 C 191.996,108.255 170.996,120.255 149.5,131.5C 164.557,120.444 179.891,109.777 195.5,99.5C 201.126,98.0101 206.793,96.6768 212.5,95.5 Z M 314.5,95.5 C 317.206,95.5751 319.873,95.9084 322.5,96.5C 307.998,105.921 292.998,114.588 277.5,122.5C 289.529,113.145 301.863,104.145 314.5,95.5 Z M 347.5,104.5 C 348.492,104.328 349.158,104.662 349.5,105.5C 349.158,106.338 348.492,106.672 347.5,106.5C 347.5,105.833 347.5,105.167 347.5,104.5 Z M 324.5,117.5 C 323.833,118.5 323.167,119.5 322.5,120.5C 321.209,120.737 320.209,120.404 319.5,119.5C 321.05,118.559 322.716,117.893 324.5,117.5 Z M 211.5,118.5 C 209.473,121.194 207.139,123.527 204.5,125.5C 202.833,125.5 201.167,125.5 199.5,125.5C 203.164,122.665 207.164,120.332 211.5,118.5 Z M 277.5,122.5 C 277.027,123.906 276.027,124.573 274.5,124.5C 274.973,123.094 275.973,122.427 277.5,122.5 Z M 386.5,122.5 C 387.71,122.932 388.71,123.599 389.5,124.5C 382.189,130.358 381.189,129.691 386.5,122.5 Z M 350.5,127.5 C 349.833,128.5 349.167,129.5 348.5,130.5C 347.508,130.672 346.842,130.338 346.5,129.5C 347.514,128.326 348.847,127.66 350.5,127.5 Z M 149.5,131.5 C 149.027,132.906 148.027,133.573 146.5,133.5C 146.973,132.094 147.973,131.427 149.5,131.5 Z M 320.5,131.5 C 340.695,137.263 359.695,145.763 377.5,157C 400.165,171.174 421.832,186.674 442.5,203.5C 394.284,220.476 344.618,230.143 293.5,232.5C 323.387,212.714 334.887,185.048 328,149.5C 326.298,143.104 323.798,137.104 320.5,131.5 Z M 368.5,131.5 C 367.242,133.687 366.242,136.02 365.5,138.5C 363.632,137.737 361.965,136.737 360.5,135.5C 362.938,133.733 365.605,132.399 368.5,131.5 Z M 401.5,131.5 C 401.5,132.167 401.833,132.5 402.5,132.5C 402.158,133.338 401.492,133.672 400.5,133.5C 400.328,132.508 400.662,131.842 401.5,131.5 Z M 215.5,134.5 C 210.533,138.984 205.2,142.984 199.5,146.5C 199.833,145.167 200.167,143.833 200.5,142.5C 205.368,139.566 210.368,136.9 215.5,134.5 Z M 74.5,200.5 C 87.1667,191.833 99.8333,183.167 112.5,174.5C 136.975,160.263 162.308,147.596 188.5,136.5C 188.833,136.833 189.167,137.167 189.5,137.5C 174.034,171.672 180.034,201.505 207.5,227C 210.328,229.248 213.328,231.248 216.5,233C 167.111,231.156 119.778,220.322 74.5,200.5 Z M 305.5,136.5 C 306.87,138.25 307.87,140.25 308.5,142.5C 302.702,145.233 297.035,148.233 291.5,151.5C 291.443,150.391 291.11,149.391 290.5,148.5C 295.278,144.271 300.278,140.271 305.5,136.5 Z M 380.5,142.5 C 380.167,143.5 379.5,144.167 378.5,144.5C 377.833,144.5 377.167,144.5 376.5,144.5C 377.514,143.326 378.847,142.66 380.5,142.5 Z M 222.5,148.5 C 222.5,148.833 222.5,149.167 222.5,149.5C 213.759,156.247 204.759,162.581 195.5,168.5C 195.5,166.833 195.5,165.167 195.5,163.5C 204.366,158.234 213.366,153.234 222.5,148.5 Z M 312.5,152.5 C 313.15,154.435 313.483,156.435 313.5,158.5C 307.5,161.833 301.5,165.167 295.5,168.5C 295.5,167.167 295.5,165.833 295.5,164.5C 301.313,160.756 306.98,156.756 312.5,152.5 Z M 445.5,162.5 C 446.71,162.932 447.71,163.599 448.5,164.5C 441.123,170.325 440.123,169.658 445.5,162.5 Z M 60.5,165.5 C 50.666,172.254 40.3326,178.254 29.5,183.5C 30.8611,181.15 32.1944,178.816 33.5,176.5C 42.6136,173.11 51.6136,169.443 60.5,165.5 Z M 316.5,169.5 C 316.5,170.167 316.5,170.833 316.5,171.5C 314.95,172.441 313.284,173.107 311.5,173.5C 312.945,171.937 314.611,170.604 316.5,169.5 Z M 426.5,173.5 C 425.833,173.167 425.167,172.833 424.5,172.5C 429.547,168.348 430.213,168.682 426.5,173.5 Z M 216.5,170.5 C 216.5,171.167 216.5,171.833 216.5,172.5C 209.816,176.859 203.149,181.193 196.5,185.5C 196.167,184.167 195.833,182.833 195.5,181.5C 202.369,177.566 209.369,173.899 216.5,170.5 Z M 459.5,172.5 C 460.492,172.328 461.158,172.662 461.5,173.5C 460.395,174.6 459.062,175.267 457.5,175.5C 457.427,173.973 458.094,172.973 459.5,172.5 Z M 63.5,176.5 C 49.6931,186.907 35.3597,196.573 20.5,205.5C 19.0937,205.027 18.427,204.027 18.5,202.5C 33.0016,193.079 48.0016,184.412 63.5,176.5 Z M 439.5,183.5 C 438.833,183.5 438.5,183.167 438.5,182.5C 440.346,181.258 440.679,181.591 439.5,183.5 Z M 218.5,185.5 C 218.433,186.959 218.766,188.292 219.5,189.5C 213.615,193.602 207.948,197.936 202.5,202.5C 201.13,200.75 200.13,198.75 199.5,196.5C 205.997,193.086 212.33,189.419 218.5,185.5 Z M 315.5,185.5 C 315.5,187.167 315.5,188.833 315.5,190.5C 310.833,192.833 306.167,195.167 301.5,197.5C 305.847,193.155 310.514,189.155 315.5,185.5 Z M 478.5,185.5 C 478.833,186.167 479.167,186.833 479.5,187.5C 472.036,192.403 464.369,197.07 456.5,201.5C 455.599,200.71 454.932,199.71 454.5,198.5C 462.792,194.688 470.792,190.354 478.5,185.5 Z M 487.5,195.5 C 489.262,196.262 490.262,197.596 490.5,199.5C 478.795,206.686 466.795,213.353 454.5,219.5C 465.285,211.267 476.285,203.267 487.5,195.5 Z M 51.5,200.5 C 51.8333,201.167 52.1667,201.833 52.5,202.5C 45.8333,207.167 39.1667,211.833 32.5,216.5C 31.1667,215.833 30.1667,214.833 29.5,213.5C 36.4957,208.666 43.829,204.333 51.5,200.5 Z M 227.5,200.5 C 229.027,200.427 230.027,201.094 230.5,202.5C 224.482,206.858 218.482,211.191 212.5,215.5C 210.833,214.5 209.5,213.167 208.5,211.5C 214.57,207.442 220.903,203.775 227.5,200.5 Z M 267.5,211.5 C 259.873,218.312 251.873,224.646 243.5,230.5C 241.139,230.326 238.806,229.993 236.5,229.5C 246.334,222.746 256.667,216.746 267.5,211.5 Z M 77.5,213.5 C 78.1667,213.5 78.8333,213.5 79.5,213.5C 78.4863,214.674 77.153,215.34 75.5,215.5C 75.8333,214.5 76.5,213.833 77.5,213.5 Z M 235.5,215.5 C 231.65,218.261 227.983,221.261 224.5,224.5C 223.5,224.167 222.833,223.5 222.5,222.5C 226.577,219.773 230.91,217.439 235.5,215.5 Z M 423.5,217.5 C 424.833,217.5 426.167,217.5 427.5,217.5C 426.341,219.25 424.674,220.25 422.5,220.5C 423.11,219.609 423.443,218.609 423.5,217.5 Z M 92.5,218.5 C 94.4214,219.363 96.4214,220.029 98.5,220.5C 95.0012,222.75 91.3346,224.75 87.5,226.5C 89.1667,223.833 90.8333,221.167 92.5,218.5 Z M 471.5,222.5 C 468.453,225.545 465.787,228.878 463.5,232.5C 456.417,235.639 449.083,237.972 441.5,239.5C 451.167,233.331 461.167,227.664 471.5,222.5 Z M 54.5,225.5 C 54.1667,226.167 53.8333,226.833 53.5,227.5C 52.5084,227.672 51.8417,227.338 51.5,226.5C 52.391,225.89 53.391,225.557 54.5,225.5 Z M 388.5,227.5 C 377.998,234.588 366.998,240.921 355.5,246.5C 362.989,240.589 370.655,234.923 378.5,229.5C 381.679,228.207 385.012,227.54 388.5,227.5 Z M 69.5,235.5 C 68.2905,235.068 67.2905,234.401 66.5,233.5C 68.3307,231.251 70.6641,230.085 73.5,230C 72.3034,232.015 70.9701,233.849 69.5,235.5 Z M 126.5,229.5 C 128.099,229.232 129.432,229.566 130.5,230.5C 127.669,232.417 124.669,234.083 121.5,235.5C 122.701,233.091 124.367,231.091 126.5,229.5 Z M 146.5,233.5 C 149.01,233.927 151.343,234.593 153.5,235.5C 149.836,238.335 145.836,240.668 141.5,242.5C 142.738,239.262 144.404,236.262 146.5,233.5 Z M 347.5,234.5 C 348.5,234.5 349.5,234.5 350.5,234.5C 349.101,235.89 347.434,236.89 345.5,237.5C 346.167,236.5 346.833,235.5 347.5,234.5 Z M 171.5,238.5 C 174.059,238.198 176.393,238.532 178.5,239.5C 174.402,242.264 170.068,244.597 165.5,246.5C 167.147,243.527 169.147,240.86 171.5,238.5 Z M 322.5,238.5 C 312.165,245.003 301.498,251.003 290.5,256.5C 296.14,251.527 301.473,246.194 306.5,240.5C 311.859,239.997 317.193,239.33 322.5,238.5 Z M 99.5,247.5 C 98.0413,247.567 96.7079,247.234 95.5,246.5C 98.2065,244.265 101.206,242.765 104.5,242C 102.7,243.812 101.033,245.645 99.5,247.5 Z M 214.5,242.5 C 215.833,242.5 217.167,242.5 218.5,242.5C 216.664,244.588 214.331,245.921 211.5,246.5C 212.5,245.167 213.5,243.833 214.5,242.5 Z M 283.5,242.5 C 276.996,247.255 269.996,251.255 262.5,254.5C 264.412,250.583 266.745,246.917 269.5,243.5C 274.07,242.559 278.737,242.226 283.5,242.5 Z M 238.5,243.5 C 241.5,243.5 244.5,243.5 247.5,243.5C 243.005,247.251 238.005,250.251 232.5,252.5C 234.242,249.357 236.242,246.357 238.5,243.5 Z M 122.5,253.5 C 119.627,253.198 116.961,252.531 114.5,251.5C 118.674,248.746 123.007,246.58 127.5,245C 125.432,247.642 123.765,250.475 122.5,253.5 Z M 150.5,249.5 C 148.86,252.149 147.193,254.816 145.5,257.5C 143.097,257.552 140.764,257.219 138.5,256.5C 142.164,253.665 146.164,251.332 150.5,249.5 Z M 393.5,249.5 C 380.049,259.732 366.382,269.732 352.5,279.5C 353.167,276.833 353.833,274.167 354.5,271.5C 367.365,263.901 380.365,256.568 393.5,249.5 Z M 248.5,255.5 C 245.747,260.008 242.747,264.341 239.5,268.5C 236.124,267.924 232.791,267.257 229.5,266.5C 235.57,262.442 241.903,258.775 248.5,255.5 Z M 215.5,256.5 C 213.86,259.149 212.193,261.816 210.5,264.5C 207.615,264.806 204.948,264.473 202.5,263.5C 206.674,260.912 211.007,258.579 215.5,256.5 Z M 185.5,259.5 C 184.833,260.5 184.167,261.5 183.5,262.5C 182.833,262.5 182.5,262.167 182.5,261.5C 182.973,260.094 183.973,259.427 185.5,259.5 Z M 265.5,265.5 C 263.393,267.727 261.06,269.727 258.5,271.5C 257.167,271.5 255.833,271.5 254.5,271.5C 257.678,268.742 261.345,266.742 265.5,265.5 Z M 312.5,287.5 C 312.5,288.167 312.5,288.833 312.5,289.5C 310.833,290.167 309.167,290.833 307.5,291.5C 308.579,289.457 310.246,288.124 312.5,287.5 Z M 266.5,295.5 C 260.891,300.311 254.891,304.644 248.5,308.5C 248.833,307.167 249.167,305.833 249.5,304.5C 255.035,301.233 260.702,298.233 266.5,295.5 Z M 423.5,298.5 C 425.389,299.604 427.055,300.937 428.5,302.5C 418.3,308.433 407.967,314.1 397.5,319.5C 405.761,312.031 414.428,305.031 423.5,298.5 Z M 302.5,309.5 C 302.167,310.833 301.833,312.167 301.5,313.5C 296.632,316.434 291.632,319.1 286.5,321.5C 291.527,317.147 296.86,313.147 302.5,309.5 Z M 368.5,329.5 C 368.027,330.906 367.027,331.573 365.5,331.5C 365.973,330.094 366.973,329.427 368.5,329.5 Z M 365.5,331.5 C 360.109,337.224 354.109,342.224 347.5,346.5C 347.5,344.5 347.5,342.5 347.5,340.5C 353.5,337.5 359.5,334.5 365.5,331.5 Z M 292.5,332.5 C 292.443,333.609 292.11,334.609 291.5,335.5C 290.833,335.5 290.167,335.5 289.5,335.5C 290.167,334.167 291.167,333.167 292.5,332.5 Z M 289.5,335.5 C 289.027,336.906 288.027,337.573 286.5,337.5C 286.973,336.094 287.973,335.427 289.5,335.5 Z M 240.5,342.5 C 236.896,345.975 232.896,348.975 228.5,351.5C 228.557,350.391 228.89,349.391 229.5,348.5C 233.034,346.234 236.7,344.234 240.5,342.5 Z M 420.5,348.5 C 420.5,348.833 420.5,349.167 420.5,349.5C 419.609,350.11 418.609,350.443 417.5,350.5C 417.973,349.094 418.973,348.427 420.5,348.5 Z M 38.5,368.5 C 40.754,369.124 42.4206,370.457 43.5,372.5C 39.3262,375.254 34.9929,377.42 30.5,379C 33.3826,375.624 36.0493,372.124 38.5,368.5 Z M 368.5,374.5 C 363.722,378.729 358.722,382.729 353.5,386.5C 353.443,385.391 353.11,384.391 352.5,383.5C 357.85,380.472 363.184,377.472 368.5,374.5 Z M 266.5,384.5 C 266.443,385.609 266.11,386.609 265.5,387.5C 260.167,390.167 254.833,392.833 249.5,395.5C 254.648,391.089 260.314,387.422 266.5,384.5 Z M 367.5,402.5 C 365.451,405.55 362.784,407.883 359.5,409.5C 358.662,409.158 358.328,408.492 358.5,407.5C 361.366,405.568 364.366,403.901 367.5,402.5 Z M 18.5,410.5 C 17.8333,411.833 16.8333,412.833 15.5,413.5C 15.5,412.833 15.5,412.167 15.5,411.5C 16.391,410.89 17.391,410.557 18.5,410.5 Z M 249.5,410.5 C 247.758,413.643 245.758,416.643 243.5,419.5C 234.167,424.5 224.833,429.5 215.5,434.5C 226.533,426.144 237.866,418.144 249.5,410.5 Z M 375.5,414.5 C 371.527,417.806 367.86,421.473 364.5,425.5C 363.655,424.329 362.989,422.995 362.5,421.5C 366.701,418.9 371.034,416.566 375.5,414.5 Z M 370.5,440.5 C 369.833,439.167 369.167,437.833 368.5,436.5C 372.007,434.08 375.674,432.246 379.5,431C 376.268,434.062 373.268,437.229 370.5,440.5 Z M 22.5,453.5 C 22.573,455.027 21.9063,456.027 20.5,456.5C 20.1667,455.833 19.8333,455.167 19.5,454.5C 20.391,453.89 21.391,453.557 22.5,453.5 Z M 165.5,456.5 C 147.5,469.5 129.5,482.5 111.5,495.5C 106.527,496.164 101.527,496.497 96.5,496.5C 119.001,482.412 142.001,469.079 165.5,456.5 Z M 49.5,457.5 C 50.4916,457.328 51.1583,457.662 51.5,458.5C 50.609,459.11 49.609,459.443 48.5,459.5C 48.8333,458.833 49.1667,458.167 49.5,457.5 Z M 64.5,463.5 C 67.2372,463.401 69.9039,463.735 72.5,464.5C 67.8981,467.476 63.2314,470.476 58.5,473.5C 58.1667,473.333 57.8333,473.167 57.5,473C 59.9765,469.855 62.3098,466.688 64.5,463.5 Z M 105.5,463.5 C 98.6707,467.749 91.6707,471.749 84.5,475.5C 87.1667,471.833 89.8333,468.167 92.5,464.5C 96.8422,464.261 101.176,463.927 105.5,463.5 Z M 29.5,466.5 C 29.4431,467.609 29.1098,468.609 28.5,469.5C 27.6618,469.158 27.3284,468.492 27.5,467.5C 28.1667,467.167 28.8333,466.833 29.5,466.5 Z M 45.5,473.5 C 44.1891,476.135 42.5224,478.469 40.5,480.5C 38.9382,480.267 37.6049,479.6 36.5,478.5C 39.331,476.583 42.331,474.917 45.5,473.5 Z M 109.5,473.5 C 98.8333,480.833 88.1667,488.167 77.5,495.5C 75.8828,494.962 74.2161,494.629 72.5,494.5C 84.663,487.25 96.9964,480.25 109.5,473.5 Z M 167.5,474.5 C 163.352,478.404 159.019,482.071 154.5,485.5C 150.89,486.703 147.223,487.703 143.5,488.5C 151.164,483.332 159.164,478.665 167.5,474.5 Z M 63.5,482.5 C 61.5,485.167 59.5,487.833 57.5,490.5C 55.9505,489.559 54.2838,488.893 52.5,488.5C 55.678,485.742 59.3447,483.742 63.5,482.5 Z"/></g>
<g><path style="opacity:0.42" fill="#9f7f30" d="M 312.5,84.5 C 314.292,84.366 315.958,84.6993 317.5,85.5C 315.545,86.9302 313.879,86.5969 312.5,84.5 Z"/></g>
<g><path style="opacity:0.972" fill="#f0ba34" d="M 260.5,89.5 C 253.535,95.1298 246.868,101.13 240.5,107.5C 251.333,102.254 261.666,96.2541 271.5,89.5C 278.093,89.085 284.426,89.7517 290.5,91.5C 280.26,98.0725 270.594,105.406 261.5,113.5C 273.836,107.001 285.836,100.001 297.5,92.5C 302.03,92.403 306.53,92.7363 311,93.5C 312.681,93.6083 313.848,94.2749 314.5,95.5C 301.863,104.145 289.529,113.145 277.5,122.5C 292.998,114.588 307.998,105.921 322.5,96.5C 325.216,96.6785 327.883,97.1785 330.5,98C 336.443,99.7234 342.109,101.89 347.5,104.5C 347.5,105.167 347.5,105.833 347.5,106.5C 348.492,106.672 349.158,106.338 349.5,105.5C 354.428,106.128 359.095,107.628 363.5,110C 371.079,114.457 378.746,118.624 386.5,122.5C 381.189,129.691 382.189,130.358 389.5,124.5C 393.997,126 397.997,128.333 401.5,131.5C 400.662,131.842 400.328,132.508 400.5,133.5C 401.492,133.672 402.158,133.338 402.5,132.5C 412.98,139.578 423.313,146.911 433.5,154.5C 437.615,155.964 441.615,158.631 445.5,162.5C 440.123,169.658 441.123,170.325 448.5,164.5C 453.169,165.981 456.835,168.648 459.5,172.5C 458.094,172.973 457.427,173.973 457.5,175.5C 459.062,175.267 460.395,174.6 461.5,173.5C 462.552,173.351 463.552,173.517 464.5,174C 469.421,177.613 474.088,181.446 478.5,185.5C 470.792,190.354 462.792,194.688 454.5,198.5C 449.167,193.833 444.167,188.833 439.5,183.5C 440.679,181.591 440.346,181.258 438.5,182.5C 433.929,180.262 429.929,177.262 426.5,173.5C 430.213,168.682 429.547,168.348 424.5,172.5C 420.148,170.327 416.148,167.66 412.5,164.5C 407.062,161.947 401.729,159.113 396.5,156C 394.308,154.933 392.642,153.433 391.5,151.5C 391.167,150.167 390.833,150.167 390.5,151.5C 385.879,150.191 381.879,147.858 378.5,144.5C 379.5,144.167 380.167,143.5 380.5,142.5C 378.847,142.66 377.514,143.326 376.5,144.5C 372.571,142.867 368.904,140.867 365.5,138.5C 366.242,136.02 367.242,133.687 368.5,131.5C 365.605,132.399 362.938,133.733 360.5,135.5C 357.353,135.263 354.353,134.43 351.5,133C 350.058,132.623 349.058,131.79 348.5,130.5C 349.167,129.5 349.833,128.5 350.5,127.5C 348.847,127.66 347.514,128.326 346.5,129.5C 338.703,127.512 331.036,125.012 323.5,122C 322.944,121.617 322.611,121.117 322.5,120.5C 323.167,119.5 323.833,118.5 324.5,117.5C 322.716,117.893 321.05,118.559 319.5,119.5C 313.833,118.925 308.167,118.758 302.5,119C 296.898,120.6 296.232,123.1 300.5,126.5C 303.741,128.983 305.408,132.316 305.5,136.5C 300.278,140.271 295.278,144.271 290.5,148.5C 281.235,137.681 269.402,132.348 255,132.5C 242.741,132.715 232.574,137.381 224.5,146.5C 223.833,146.5 223.5,146.833 223.5,147.5C 222.833,147.5 222.5,147.833 222.5,148.5C 213.366,153.234 204.366,158.234 195.5,163.5C 195.424,157.472 196.757,151.805 199.5,146.5C 205.2,142.984 210.533,138.984 215.5,134.5C 210.368,136.9 205.368,139.566 200.5,142.5C 201.507,136.815 203.507,131.481 206.5,126.5C 206.043,125.702 205.376,125.369 204.5,125.5C 207.139,123.527 209.473,121.194 211.5,118.5C 207.164,120.332 203.164,122.665 199.5,125.5C 198.508,125.328 197.842,125.662 197.5,126.5C 177.193,131.817 157.859,139.65 139.5,150C 125.5,158.333 111.5,166.667 97.5,175C 95.3496,176.411 93.0163,177.245 90.5,177.5C 89.8333,177.5 89.5,177.833 89.5,178.5C 88.1667,179.167 86.8333,179.833 85.5,180.5C 84.8333,180.5 84.5,180.833 84.5,181.5C 84.1667,181.5 83.8333,181.5 83.5,181.5C 82.8333,181.5 82.5,181.833 82.5,182.5C 73.1387,187.847 63.4721,192.681 53.5,197C 52.1772,197.816 51.5106,198.983 51.5,200.5C 43.829,204.333 36.4957,208.666 29.5,213.5C 25.2662,212.269 22.2662,209.602 20.5,205.5C 35.3597,196.573 49.6931,186.907 63.5,176.5C 48.0016,184.412 33.0016,193.079 18.5,202.5C 17.2502,202.423 16.4169,201.756 16,200.5C 13.3906,186.582 19.224,178.582 33.5,176.5C 32.1944,178.816 30.8611,181.15 29.5,183.5C 40.3326,178.254 50.666,172.254 60.5,165.5C 61.4916,165.672 62.1583,165.338 62.5,164.5C 63.4916,164.672 64.1583,164.338 64.5,163.5C 65.4916,163.672 66.1583,163.338 66.5,162.5C 67.1667,162.5 67.5,162.167 67.5,161.5C 68.4916,161.672 69.1583,161.338 69.5,160.5C 70.4916,160.672 71.1583,160.338 71.5,159.5C 72.4916,159.672 73.1583,159.338 73.5,158.5C 99.485,143.505 125.818,129.005 152.5,115C 161.167,111.333 169.833,107.667 178.5,104C 184.002,101.775 189.669,100.275 195.5,99.5C 179.891,109.777 164.557,120.444 149.5,131.5C 170.996,120.255 191.996,108.255 212.5,95.5C 213.492,95.6716 214.158,95.3382 214.5,94.5C 229.612,91.0942 244.946,89.4276 260.5,89.5 Z M 260.5,89.5 C 264.167,89.5 267.833,89.5 271.5,89.5C 261.666,96.2541 251.333,102.254 240.5,107.5C 246.868,101.13 253.535,95.1298 260.5,89.5 Z M 324.5,117.5 C 323.833,118.5 323.167,119.5 322.5,120.5C 321.209,120.737 320.209,120.404 319.5,119.5C 321.05,118.559 322.716,117.893 324.5,117.5 Z M 211.5,118.5 C 209.473,121.194 207.139,123.527 204.5,125.5C 202.833,125.5 201.167,125.5 199.5,125.5C 203.164,122.665 207.164,120.332 211.5,118.5 Z M 277.5,122.5 C 277.027,123.906 276.027,124.573 274.5,124.5C 274.973,123.094 275.973,122.427 277.5,122.5 Z M 350.5,127.5 C 349.833,128.5 349.167,129.5 348.5,130.5C 347.508,130.672 346.842,130.338 346.5,129.5C 347.514,128.326 348.847,127.66 350.5,127.5 Z M 149.5,131.5 C 149.027,132.906 148.027,133.573 146.5,133.5C 146.973,132.094 147.973,131.427 149.5,131.5 Z M 368.5,131.5 C 367.242,133.687 366.242,136.02 365.5,138.5C 363.632,137.737 361.965,136.737 360.5,135.5C 362.938,133.733 365.605,132.399 368.5,131.5 Z M 215.5,134.5 C 210.533,138.984 205.2,142.984 199.5,146.5C 199.833,145.167 200.167,143.833 200.5,142.5C 205.368,139.566 210.368,136.9 215.5,134.5 Z M 305.5,136.5 C 306.87,138.25 307.87,140.25 308.5,142.5C 302.702,145.233 297.035,148.233 291.5,151.5C 291.443,150.391 291.11,149.391 290.5,148.5C 295.278,144.271 300.278,140.271 305.5,136.5 Z M 380.5,142.5 C 380.167,143.5 379.5,144.167 378.5,144.5C 377.833,144.5 377.167,144.5 376.5,144.5C 377.514,143.326 378.847,142.66 380.5,142.5 Z M 222.5,148.5 C 222.5,148.833 222.5,149.167 222.5,149.5C 213.759,156.247 204.759,162.581 195.5,168.5C 195.5,166.833 195.5,165.167 195.5,163.5C 204.366,158.234 213.366,153.234 222.5,148.5 Z M 312.5,152.5 C 313.15,154.435 313.483,156.435 313.5,158.5C 307.5,161.833 301.5,165.167 295.5,168.5C 295.5,167.167 295.5,165.833 295.5,164.5C 301.313,160.756 306.98,156.756 312.5,152.5 Z M 316.5,169.5 C 316.5,170.167 316.5,170.833 316.5,171.5C 314.95,172.441 313.284,173.107 311.5,173.5C 312.945,171.937 314.611,170.604 316.5,169.5 Z M 426.5,173.5 C 425.833,173.167 425.167,172.833 424.5,172.5C 429.547,168.348 430.213,168.682 426.5,173.5 Z M 216.5,170.5 C 216.5,171.167 216.5,171.833 216.5,172.5C 209.816,176.859 203.149,181.193 196.5,185.5C 196.167,184.167 195.833,182.833 195.5,181.5C 202.369,177.566 209.369,173.899 216.5,170.5 Z M 439.5,183.5 C 438.833,183.5 438.5,183.167 438.5,182.5C 440.346,181.258 440.679,181.591 439.5,183.5 Z M 315.5,185.5 C 315.5,187.167 315.5,188.833 315.5,190.5C 310.833,192.833 306.167,195.167 301.5,197.5C 305.847,193.155 310.514,189.155 315.5,185.5 Z"/></g>
<g><path style="opacity:0.963" fill="#272726" d="M 319.5,119.5 C 320.209,120.404 321.209,120.737 322.5,120.5C 322.611,121.117 322.944,121.617 323.5,122C 331.036,125.012 338.703,127.512 346.5,129.5C 346.842,130.338 347.508,130.672 348.5,130.5C 349.058,131.79 350.058,132.623 351.5,133C 354.353,134.43 357.353,135.263 360.5,135.5C 361.965,136.737 363.632,137.737 365.5,138.5C 368.904,140.867 372.571,142.867 376.5,144.5C 377.167,144.5 377.833,144.5 378.5,144.5C 381.879,147.858 385.879,150.191 390.5,151.5C 390.833,151.5 391.167,151.5 391.5,151.5C 392.642,153.433 394.308,154.933 396.5,156C 401.729,159.113 407.062,161.947 412.5,164.5C 416.148,167.66 420.148,170.327 424.5,172.5C 425.167,172.833 425.833,173.167 426.5,173.5C 429.929,177.262 433.929,180.262 438.5,182.5C 438.5,183.167 438.833,183.5 439.5,183.5C 444.167,188.833 449.167,193.833 454.5,198.5C 454.932,199.71 455.599,200.71 456.5,201.5C 456.5,203.5 456.5,205.5 456.5,207.5C 448.033,209.767 439.7,212.433 431.5,215.5C 430.833,215.5 430.5,215.833 430.5,216.5C 430.167,216.5 429.833,216.5 429.5,216.5C 428.508,216.328 427.842,216.662 427.5,217.5C 426.167,217.5 424.833,217.5 423.5,217.5C 412.358,220.035 401.358,223.035 390.5,226.5C 389.508,226.328 388.842,226.662 388.5,227.5C 385.012,227.54 381.679,228.207 378.5,229.5C 378.265,228.903 377.765,228.57 377,228.5C 368.113,230.363 359.279,232.363 350.5,234.5C 349.5,234.5 348.5,234.5 347.5,234.5C 339.063,235.276 330.73,236.61 322.5,238.5C 317.193,239.33 311.859,239.997 306.5,240.5C 298.741,240.353 291.075,241.02 283.5,242.5C 278.737,242.226 274.07,242.559 269.5,243.5C 262.308,242.257 254.975,242.257 247.5,243.5C 244.5,243.5 241.5,243.5 238.5,243.5C 232.021,242.509 225.354,242.176 218.5,242.5C 217.167,242.5 215.833,242.5 214.5,242.5C 202.637,241.504 190.637,240.504 178.5,239.5C 176.393,238.532 174.059,238.198 171.5,238.5C 165.767,236.656 159.767,235.656 153.5,235.5C 151.343,234.593 149.01,233.927 146.5,233.5C 141.449,231.656 136.116,230.656 130.5,230.5C 129.432,229.566 128.099,229.232 126.5,229.5C 122.217,227.188 117.55,225.855 112.5,225.5C 112.5,224.833 112.167,224.5 111.5,224.5C 107.229,223.015 102.896,221.682 98.5,220.5C 96.4214,220.029 94.4214,219.363 92.5,218.5C 88.3447,216.598 84.0114,214.931 79.5,213.5C 78.8333,213.5 78.1667,213.5 77.5,213.5C 76.9423,212.21 75.9423,211.377 74.5,211C 67.246,207.869 59.9126,205.036 52.5,202.5C 52.1667,201.833 51.8333,201.167 51.5,200.5C 51.5106,198.983 52.1772,197.816 53.5,197C 63.4721,192.681 73.1387,187.847 82.5,182.5C 83.1667,182.5 83.5,182.167 83.5,181.5C 83.8333,181.5 84.1667,181.5 84.5,181.5C 85.1667,181.5 85.5,181.167 85.5,180.5C 86.8333,179.833 88.1667,179.167 89.5,178.5C 90.1667,178.5 90.5,178.167 90.5,177.5C 93.0163,177.245 95.3496,176.411 97.5,175C 111.5,166.667 125.5,158.333 139.5,150C 157.859,139.65 177.193,131.817 197.5,126.5C 198.492,126.672 199.158,126.338 199.5,125.5C 201.167,125.5 202.833,125.5 204.5,125.5C 205.376,125.369 206.043,125.702 206.5,126.5C 203.507,131.481 201.507,136.815 200.5,142.5C 200.167,143.833 199.833,145.167 199.5,146.5C 196.757,151.805 195.424,157.472 195.5,163.5C 195.5,165.167 195.5,166.833 195.5,168.5C 194.206,172.934 194.206,177.267 195.5,181.5C 195.833,182.833 196.167,184.167 196.5,185.5C 196.432,189.57 197.432,193.237 199.5,196.5C 200.13,198.75 201.13,200.75 202.5,202.5C 203.246,206.323 205.246,209.323 208.5,211.5C 209.5,213.167 210.833,214.5 212.5,215.5C 214.707,219.364 218.041,221.698 222.5,222.5C 222.833,223.5 223.5,224.167 224.5,224.5C 227.983,227.237 231.983,228.903 236.5,229.5C 238.806,229.993 241.139,230.326 243.5,230.5C 243.611,231.117 243.944,231.617 244.5,232C 251.217,232.756 257.883,232.589 264.5,231.5C 280.988,230.918 294.822,224.251 306,211.5C 307.094,209.922 307.928,208.255 308.5,206.5C 308.5,206.167 308.5,205.833 308.5,205.5C 310.173,204.657 311.34,203.324 312,201.5C 313.632,197.968 314.799,194.301 315.5,190.5C 315.5,188.833 315.5,187.167 315.5,185.5C 316.486,181.03 316.819,176.363 316.5,171.5C 316.5,170.833 316.5,170.167 316.5,169.5C 316.543,166.09 316.043,162.757 315,159.5C 314.617,158.944 314.117,158.611 313.5,158.5C 313.483,156.435 313.15,154.435 312.5,152.5C 312.118,148.668 310.785,145.335 308.5,142.5C 307.87,140.25 306.87,138.25 305.5,136.5C 305.408,132.316 303.741,128.983 300.5,126.5C 296.232,123.1 296.898,120.6 302.5,119C 308.167,118.758 313.833,118.925 319.5,119.5 Z M 320.5,131.5 C 340.695,137.263 359.695,145.763 377.5,157C 400.165,171.174 421.832,186.674 442.5,203.5C 394.284,220.476 344.618,230.143 293.5,232.5C 323.387,212.714 334.887,185.048 328,149.5C 326.298,143.104 323.798,137.104 320.5,131.5 Z M 215.5,134.5 C 210.533,138.984 205.2,142.984 199.5,146.5C 199.833,145.167 200.167,143.833 200.5,142.5C 205.368,139.566 210.368,136.9 215.5,134.5 Z M 74.5,200.5 C 87.1667,191.833 99.8333,183.167 112.5,174.5C 136.975,160.263 162.308,147.596 188.5,136.5C 188.833,136.833 189.167,137.167 189.5,137.5C 174.034,171.672 180.034,201.505 207.5,227C 210.328,229.248 213.328,231.248 216.5,233C 167.111,231.156 119.778,220.322 74.5,200.5 Z M 305.5,136.5 C 306.87,138.25 307.87,140.25 308.5,142.5C 302.702,145.233 297.035,148.233 291.5,151.5C 291.443,150.391 291.11,149.391 290.5,148.5C 295.278,144.271 300.278,140.271 305.5,136.5 Z M 222.5,148.5 C 222.5,148.833 222.5,149.167 222.5,149.5C 213.759,156.247 204.759,162.581 195.5,168.5C 195.5,166.833 195.5,165.167 195.5,163.5C 204.366,158.234 213.366,153.234 222.5,148.5 Z M 312.5,152.5 C 313.15,154.435 313.483,156.435 313.5,158.5C 307.5,161.833 301.5,165.167 295.5,168.5C 295.5,167.167 295.5,165.833 295.5,164.5C 301.313,160.756 306.98,156.756 312.5,152.5 Z M 316.5,169.5 C 316.5,170.167 316.5,170.833 316.5,171.5C 314.95,172.441 313.284,173.107 311.5,173.5C 312.945,171.937 314.611,170.604 316.5,169.5 Z M 216.5,170.5 C 216.5,171.167 216.5,171.833 216.5,172.5C 209.816,176.859 203.149,181.193 196.5,185.5C 196.167,184.167 195.833,182.833 195.5,181.5C 202.369,177.566 209.369,173.899 216.5,170.5 Z M 218.5,185.5 C 218.433,186.959 218.766,188.292 219.5,189.5C 213.615,193.602 207.948,197.936 202.5,202.5C 201.13,200.75 200.13,198.75 199.5,196.5C 205.997,193.086 212.33,189.419 218.5,185.5 Z M 315.5,185.5 C 315.5,187.167 315.5,188.833 315.5,190.5C 310.833,192.833 306.167,195.167 301.5,197.5C 305.847,193.155 310.514,189.155 315.5,185.5 Z M 227.5,200.5 C 229.027,200.427 230.027,201.094 230.5,202.5C 224.482,206.858 218.482,211.191 212.5,215.5C 210.833,214.5 209.5,213.167 208.5,211.5C 214.57,207.442 220.903,203.775 227.5,200.5 Z M 267.5,211.5 C 259.873,218.312 251.873,224.646 243.5,230.5C 241.139,230.326 238.806,229.993 236.5,229.5C 246.334,222.746 256.667,216.746 267.5,211.5 Z M 235.5,215.5 C 231.65,218.261 227.983,221.261 224.5,224.5C 223.5,224.167 222.833,223.5 222.5,222.5C 226.577,219.773 230.91,217.439 235.5,215.5 Z"/></g>
<g><path style="opacity:0.997" fill="#292826" d="M 290.5,148.5 C 291.11,149.391 291.443,150.391 291.5,151.5C 293.006,155.88 294.34,160.214 295.5,164.5C 295.5,165.833 295.5,167.167 295.5,168.5C 291.075,197.734 274.075,210.567 244.5,207C 239.709,205.765 235.042,204.265 230.5,202.5C 230.027,201.094 229.027,200.427 227.5,200.5C 225.075,196.648 222.409,192.981 219.5,189.5C 218.766,188.292 218.433,186.959 218.5,185.5C 217.725,181.186 217.059,176.853 216.5,172.5C 216.5,171.833 216.5,171.167 216.5,170.5C 217.409,163.201 219.409,156.201 222.5,149.5C 222.5,149.167 222.5,148.833 222.5,148.5C 223.167,148.5 223.5,148.167 223.5,147.5C 224.167,147.5 224.5,147.167 224.5,146.5C 232.574,137.381 242.741,132.715 255,132.5C 269.402,132.348 281.235,137.681 290.5,148.5 Z"/></g>
<g><path style="opacity:0.999" fill="#d29f2d" d="M 247.5,139.5 C 270.904,139.738 282.737,151.405 283,174.5C 280.92,193.586 270.42,201.753 251.5,199C 227.763,189.38 221.596,173.214 233,150.5C 236.906,145.404 241.739,141.738 247.5,139.5 Z"/></g>
<g><path style="opacity:0.955" fill="#eeb934" d="M 308.5,142.5 C 310.785,145.335 312.118,148.668 312.5,152.5C 306.98,156.756 301.313,160.756 295.5,164.5C 294.34,160.214 293.006,155.88 291.5,151.5C 297.035,148.233 302.702,145.233 308.5,142.5 Z"/></g>
<g><path style="opacity:0.952" fill="#efb934" d="M 222.5,149.5 C 219.409,156.201 217.409,163.201 216.5,170.5C 209.369,173.899 202.369,177.566 195.5,181.5C 194.206,177.267 194.206,172.934 195.5,168.5C 204.759,162.581 213.759,156.247 222.5,149.5 Z"/></g>
<g><path style="opacity:0.959" fill="#efba34" d="M 313.5,158.5 C 314.117,158.611 314.617,158.944 315,159.5C 316.043,162.757 316.543,166.09 316.5,169.5C 314.611,170.604 312.945,171.937 311.5,173.5C 313.284,173.107 314.95,172.441 316.5,171.5C 316.819,176.363 316.486,181.03 315.5,185.5C 310.514,189.155 305.847,193.155 301.5,197.5C 306.167,195.167 310.833,192.833 315.5,190.5C 314.799,194.301 313.632,197.968 312,201.5C 311.34,203.324 310.173,204.657 308.5,205.5C 307.167,205.833 307.167,206.167 308.5,206.5C 307.928,208.255 307.094,209.922 306,211.5C 294.822,224.251 280.988,230.918 264.5,231.5C 257.883,232.589 251.217,232.756 244.5,232C 243.944,231.617 243.611,231.117 243.5,230.5C 251.873,224.646 259.873,218.312 267.5,211.5C 256.667,216.746 246.334,222.746 236.5,229.5C 231.983,228.903 227.983,227.237 224.5,224.5C 227.983,221.261 231.65,218.261 235.5,215.5C 230.91,217.439 226.577,219.773 222.5,222.5C 218.041,221.698 214.707,219.364 212.5,215.5C 218.482,211.191 224.482,206.858 230.5,202.5C 235.042,204.265 239.709,205.765 244.5,207C 274.075,210.567 291.075,197.734 295.5,168.5C 301.5,165.167 307.5,161.833 313.5,158.5 Z"/></g>
<g><path style="opacity:0.944" fill="#efba35" d="M 216.5,172.5 C 217.059,176.853 217.725,181.186 218.5,185.5C 212.33,189.419 205.997,193.086 199.5,196.5C 197.432,193.237 196.432,189.57 196.5,185.5C 203.149,181.193 209.816,176.859 216.5,172.5 Z"/></g>
<g><path style="opacity:0.886" fill="#e7b534" d="M 112.5,174.5 C 99.8333,183.167 87.1667,191.833 74.5,200.5C 72.6916,200.509 71.0249,200.009 69.5,199C 68.1667,198.333 68.1667,197.667 69.5,197C 83.887,189.474 98.2203,181.974 112.5,174.5 Z"/></g>
<g><path style="opacity:0.976" fill="#f0bb34" d="M 479.5,187.5 C 483.167,189.167 485.833,191.833 487.5,195.5C 476.285,203.267 465.285,211.267 454.5,219.5C 466.795,213.353 478.795,206.686 490.5,199.5C 495.215,203.093 496.549,207.759 494.5,213.5C 493.167,213.833 493.167,214.167 494.5,214.5C 493.137,218.702 490.47,221.869 486.5,224C 479.365,228.322 471.698,231.156 463.5,232.5C 465.787,228.878 468.453,225.545 471.5,222.5C 461.167,227.664 451.167,233.331 441.5,239.5C 440.508,239.328 439.842,239.662 439.5,240.5C 427.826,243.168 416.159,246.002 404.5,249C 392.445,254.013 390.278,261.846 398,272.5C 405.446,282.444 413.946,291.11 423.5,298.5C 414.428,305.031 405.761,312.031 397.5,319.5C 407.967,314.1 418.3,308.433 428.5,302.5C 433.412,305.461 436.079,309.961 436.5,316C 436.333,317.5 436.167,319 436,320.5C 431.257,329.576 426.424,338.576 421.5,347.5C 420.833,347.5 420.5,347.833 420.5,348.5C 418.973,348.427 417.973,349.094 417.5,350.5C 418.609,350.443 419.609,350.11 420.5,349.5C 415.762,361.307 410.762,372.973 405.5,384.5C 404.167,384.833 404.167,385.167 405.5,385.5C 403.04,392.482 400.707,399.482 398.5,406.5C 397.167,406.833 397.167,407.167 398.5,407.5C 394.826,420.878 392.992,434.545 393,448.5C 386.358,455.365 380.024,455.031 374,447.5C 372.295,445.423 371.128,443.09 370.5,440.5C 373.268,437.229 376.268,434.062 379.5,431C 375.674,432.246 372.007,434.08 368.5,436.5C 366,433.34 364.667,429.673 364.5,425.5C 367.86,421.473 371.527,417.806 375.5,414.5C 371.034,416.566 366.701,418.9 362.5,421.5C 360.686,417.721 359.686,413.721 359.5,409.5C 362.784,407.883 365.451,405.55 367.5,402.5C 364.366,403.901 361.366,405.568 358.5,407.5C 356.071,400.779 354.404,393.779 353.5,386.5C 358.722,382.729 363.722,378.729 368.5,374.5C 363.184,377.472 357.85,380.472 352.5,383.5C 351,379.674 350.334,375.674 350.5,371.5C 348.133,363.473 347.133,355.14 347.5,346.5C 354.109,342.224 360.109,337.224 365.5,331.5C 359.5,334.5 353.5,337.5 347.5,340.5C 346.414,320.076 348.08,299.743 352.5,279.5C 366.382,269.732 380.049,259.732 393.5,249.5C 380.365,256.568 367.365,263.901 354.5,271.5C 356.007,263.175 352.673,259.675 344.5,261C 337.829,262.501 331.162,264.001 324.5,265.5C 321.075,272.685 317.409,279.685 313.5,286.5C 312.833,286.5 312.5,286.833 312.5,287.5C 310.246,288.124 308.579,289.457 307.5,291.5C 309.167,290.833 310.833,290.167 312.5,289.5C 309.754,295.99 306.754,302.323 303.5,308.5C 302.833,308.5 302.5,308.833 302.5,309.5C 296.86,313.147 291.527,317.147 286.5,321.5C 291.632,319.1 296.632,316.434 301.5,313.5C 299.266,320.297 296.266,326.63 292.5,332.5C 291.167,333.167 290.167,334.167 289.5,335.5C 290.167,335.5 290.833,335.5 291.5,335.5C 285.101,352.299 277.101,368.299 267.5,383.5C 266.833,383.5 266.5,383.833 266.5,384.5C 260.314,387.422 254.648,391.089 249.5,395.5C 254.833,392.833 260.167,390.167 265.5,387.5C 261.383,396.085 256.05,403.752 249.5,410.5C 237.866,418.144 226.533,426.144 215.5,434.5C 224.833,429.5 234.167,424.5 243.5,419.5C 238.431,426.436 232.764,432.936 226.5,439C 217.314,446.43 208.314,454.096 199.5,462C 185.633,471.934 170.633,479.768 154.5,485.5C 159.019,482.071 163.352,478.404 167.5,474.5C 159.164,478.665 151.164,483.332 143.5,488.5C 142.508,488.328 141.842,488.662 141.5,489.5C 131.861,493.161 121.861,495.161 111.5,495.5C 129.5,482.5 147.5,469.5 165.5,456.5C 142.001,469.079 119.001,482.412 96.5,496.5C 89.9779,496.823 83.6446,496.49 77.5,495.5C 88.1667,488.167 98.8333,480.833 109.5,473.5C 96.9964,480.25 84.663,487.25 72.5,494.5C 67.0892,494.358 62.0892,493.024 57.5,490.5C 59.5,487.833 61.5,485.167 63.5,482.5C 59.3447,483.742 55.678,485.742 52.5,488.5C 47.3528,487.28 43.3528,484.613 40.5,480.5C 42.5224,478.469 44.1891,476.135 45.5,473.5C 42.331,474.917 39.331,476.583 36.5,478.5C 33.0969,476.1 30.4302,473.1 28.5,469.5C 29.1098,468.609 29.4431,467.609 29.5,466.5C 28.8333,466.833 28.1667,467.167 27.5,467.5C 26.5041,467.586 25.6708,467.252 25,466.5C 23.2138,463.264 21.7138,459.93 20.5,456.5C 21.9063,456.027 22.573,455.027 22.5,453.5C 21.391,453.557 20.391,453.89 19.5,454.5C 17.4249,450.526 16.4249,446.192 16.5,441.5C 15.7321,440.737 15.2321,439.737 15,438.5C 14.2274,430.118 14.3941,421.785 15.5,413.5C 16.8333,412.833 17.8333,411.833 18.5,410.5C 17.391,410.557 16.391,410.89 15.5,411.5C 14.4912,395.656 19.4912,382.156 30.5,371C 32.9088,369.293 35.5755,368.46 38.5,368.5C 36.0493,372.124 33.3826,375.624 30.5,379C 34.9929,377.42 39.3262,375.254 43.5,372.5C 44.1174,372.611 44.6174,372.944 45,373.5C 45.6667,378.167 45.6667,382.833 45,387.5C 35.7217,406.979 34.2217,426.979 40.5,447.5C 43.7979,449.833 46.7979,453.166 49.5,457.5C 49.1667,458.167 48.8333,458.833 48.5,459.5C 49.609,459.443 50.609,459.11 51.5,458.5C 56.0108,459.931 60.3441,461.597 64.5,463.5C 62.3098,466.688 59.9765,469.855 57.5,473C 57.8333,473.167 58.1667,473.333 58.5,473.5C 63.2314,470.476 67.8981,467.476 72.5,464.5C 79.1667,464.5 85.8333,464.5 92.5,464.5C 89.8333,468.167 87.1667,471.833 84.5,475.5C 91.6707,471.749 98.6707,467.749 105.5,463.5C 106.492,463.672 107.158,463.338 107.5,462.5C 129.719,457.058 149.386,446.892 166.5,432C 173.333,425.167 180.167,418.333 187,411.5C 196.05,399.957 204.883,388.29 213.5,376.5C 214.833,376.167 214.833,375.833 213.5,375.5C 217.904,367.695 222.571,360.028 227.5,352.5C 228.167,352.5 228.5,352.167 228.5,351.5C 232.896,348.975 236.896,345.975 240.5,342.5C 236.7,344.234 233.034,346.234 229.5,348.5C 232.23,340.723 235.564,333.723 239.5,327.5C 241.716,320.737 244.716,314.404 248.5,308.5C 254.891,304.644 260.891,300.311 266.5,295.5C 260.702,298.233 255.035,301.233 249.5,304.5C 253.075,294.607 256.741,284.774 260.5,275C 260.022,273.697 259.355,272.531 258.5,271.5C 261.06,269.727 263.393,267.727 265.5,265.5C 261.345,266.742 257.678,268.742 254.5,271.5C 249.38,270.969 244.38,269.969 239.5,268.5C 242.747,264.341 245.747,260.008 248.5,255.5C 241.903,258.775 235.57,262.442 229.5,266.5C 222.907,266.915 216.574,266.248 210.5,264.5C 212.193,261.816 213.86,259.149 215.5,256.5C 211.007,258.579 206.674,260.912 202.5,263.5C 196.042,264.418 189.708,264.085 183.5,262.5C 184.167,261.5 184.833,260.5 185.5,259.5C 183.973,259.427 182.973,260.094 182.5,261.5C 176.158,261.666 169.825,261.5 163.5,261C 157.207,260.608 151.207,259.441 145.5,257.5C 147.193,254.816 148.86,252.149 150.5,249.5C 146.164,251.332 142.164,253.665 138.5,256.5C 132.755,256.946 127.421,255.946 122.5,253.5C 123.765,250.475 125.432,247.642 127.5,245C 123.007,246.58 118.674,248.746 114.5,251.5C 110.753,251.608 107.086,251.108 103.5,250C 101.68,249.8 100.347,248.966 99.5,247.5C 101.033,245.645 102.7,243.812 104.5,242C 101.206,242.765 98.2065,244.265 95.5,246.5C 92.0534,246.186 88.7201,245.352 85.5,244C 79.7029,241.936 74.3695,239.103 69.5,235.5C 70.9701,233.849 72.3034,232.015 73.5,230C 70.6641,230.085 68.3307,231.251 66.5,233.5C 61.4939,232.829 57.1606,230.829 53.5,227.5C 53.8333,226.833 54.1667,226.167 54.5,225.5C 53.391,225.557 52.391,225.89 51.5,226.5C 44.4594,224.48 38.1261,221.147 32.5,216.5C 39.1667,211.833 45.8333,207.167 52.5,202.5C 59.9126,205.036 67.246,207.869 74.5,211C 75.9423,211.377 76.9423,212.21 77.5,213.5C 76.5,213.833 75.8333,214.5 75.5,215.5C 77.153,215.34 78.4863,214.674 79.5,213.5C 84.0114,214.931 88.3447,216.598 92.5,218.5C 90.8333,221.167 89.1667,223.833 87.5,226.5C 91.3346,224.75 95.0012,222.75 98.5,220.5C 102.896,221.682 107.229,223.015 111.5,224.5C 112.167,224.5 112.5,224.833 112.5,225.5C 117.55,225.855 122.217,227.188 126.5,229.5C 124.367,231.091 122.701,233.091 121.5,235.5C 124.669,234.083 127.669,232.417 130.5,230.5C 136.116,230.656 141.449,231.656 146.5,233.5C 144.404,236.262 142.738,239.262 141.5,242.5C 145.836,240.668 149.836,238.335 153.5,235.5C 159.767,235.656 165.767,236.656 171.5,238.5C 169.147,240.86 167.147,243.527 165.5,246.5C 170.068,244.597 174.402,242.264 178.5,239.5C 190.637,240.504 202.637,241.504 214.5,242.5C 213.5,243.833 212.5,245.167 211.5,246.5C 214.331,245.921 216.664,244.588 218.5,242.5C 225.354,242.176 232.021,242.509 238.5,243.5C 236.242,246.357 234.242,249.357 232.5,252.5C 238.005,250.251 243.005,247.251 247.5,243.5C 254.975,242.257 262.308,242.257 269.5,243.5C 266.745,246.917 264.412,250.583 262.5,254.5C 269.996,251.255 276.996,247.255 283.5,242.5C 291.075,241.02 298.741,240.353 306.5,240.5C 301.473,246.194 296.14,251.527 290.5,256.5C 301.498,251.003 312.165,245.003 322.5,238.5C 330.73,236.61 339.063,235.276 347.5,234.5C 346.833,235.5 346.167,236.5 345.5,237.5C 347.434,236.89 349.101,235.89 350.5,234.5C 359.279,232.363 368.113,230.363 377,228.5C 377.765,228.57 378.265,228.903 378.5,229.5C 370.655,234.923 362.989,240.589 355.5,246.5C 366.998,240.921 377.998,234.588 388.5,227.5C 389.492,227.672 390.158,227.338 390.5,226.5C 401.358,223.035 412.358,220.035 423.5,217.5C 423.443,218.609 423.11,219.609 422.5,220.5C 424.674,220.25 426.341,219.25 427.5,217.5C 428.492,217.672 429.158,217.338 429.5,216.5C 429.833,216.5 430.167,216.5 430.5,216.5C 431.167,216.5 431.5,216.167 431.5,215.5C 439.7,212.433 448.033,209.767 456.5,207.5C 456.5,205.5 456.5,203.5 456.5,201.5C 464.369,197.07 472.036,192.403 479.5,187.5 Z M 267.5,211.5 C 259.873,218.312 251.873,224.646 243.5,230.5C 241.139,230.326 238.806,229.993 236.5,229.5C 246.334,222.746 256.667,216.746 267.5,211.5 Z M 77.5,213.5 C 78.1667,213.5 78.8333,213.5 79.5,213.5C 78.4863,214.674 77.153,215.34 75.5,215.5C 75.8333,214.5 76.5,213.833 77.5,213.5 Z M 235.5,215.5 C 231.65,218.261 227.983,221.261 224.5,224.5C 223.5,224.167 222.833,223.5 222.5,222.5C 226.577,219.773 230.91,217.439 235.5,215.5 Z M 423.5,217.5 C 424.833,217.5 426.167,217.5 427.5,217.5C 426.341,219.25 424.674,220.25 422.5,220.5C 423.11,219.609 423.443,218.609 423.5,217.5 Z M 92.5,218.5 C 94.4214,219.363 96.4214,220.029 98.5,220.5C 95.0012,222.75 91.3346,224.75 87.5,226.5C 89.1667,223.833 90.8333,221.167 92.5,218.5 Z M 388.5,227.5 C 377.998,234.588 366.998,240.921 355.5,246.5C 362.989,240.589 370.655,234.923 378.5,229.5C 381.679,228.207 385.012,227.54 388.5,227.5 Z M 126.5,229.5 C 128.099,229.232 129.432,229.566 130.5,230.5C 127.669,232.417 124.669,234.083 121.5,235.5C 122.701,233.091 124.367,231.091 126.5,229.5 Z M 146.5,233.5 C 149.01,233.927 151.343,234.593 153.5,235.5C 149.836,238.335 145.836,240.668 141.5,242.5C 142.738,239.262 144.404,236.262 146.5,233.5 Z M 347.5,234.5 C 348.5,234.5 349.5,234.5 350.5,234.5C 349.101,235.89 347.434,236.89 345.5,237.5C 346.167,236.5 346.833,235.5 347.5,234.5 Z M 171.5,238.5 C 174.059,238.198 176.393,238.532 178.5,239.5C 174.402,242.264 170.068,244.597 165.5,246.5C 167.147,243.527 169.147,240.86 171.5,238.5 Z M 322.5,238.5 C 312.165,245.003 301.498,251.003 290.5,256.5C 296.14,251.527 301.473,246.194 306.5,240.5C 311.859,239.997 317.193,239.33 322.5,238.5 Z M 214.5,242.5 C 215.833,242.5 217.167,242.5 218.5,242.5C 216.664,244.588 214.331,245.921 211.5,246.5C 212.5,245.167 213.5,243.833 214.5,242.5 Z M 283.5,242.5 C 276.996,247.255 269.996,251.255 262.5,254.5C 264.412,250.583 266.745,246.917 269.5,243.5C 274.07,242.559 278.737,242.226 283.5,242.5 Z M 238.5,243.5 C 241.5,243.5 244.5,243.5 247.5,243.5C 243.005,247.251 238.005,250.251 232.5,252.5C 234.242,249.357 236.242,246.357 238.5,243.5 Z M 393.5,249.5 C 380.049,259.732 366.382,269.732 352.5,279.5C 353.167,276.833 353.833,274.167 354.5,271.5C 367.365,263.901 380.365,256.568 393.5,249.5 Z M 215.5,256.5 C 213.86,259.149 212.193,261.816 210.5,264.5C 207.615,264.806 204.948,264.473 202.5,263.5C 206.674,260.912 211.007,258.579 215.5,256.5 Z M 265.5,265.5 C 263.393,267.727 261.06,269.727 258.5,271.5C 257.167,271.5 255.833,271.5 254.5,271.5C 257.678,268.742 261.345,266.742 265.5,265.5 Z M 312.5,287.5 C 312.5,288.167 312.5,288.833 312.5,289.5C 310.833,290.167 309.167,290.833 307.5,291.5C 308.579,289.457 310.246,288.124 312.5,287.5 Z M 302.5,309.5 C 302.167,310.833 301.833,312.167 301.5,313.5C 296.632,316.434 291.632,319.1 286.5,321.5C 291.527,317.147 296.86,313.147 302.5,309.5 Z M 368.5,329.5 C 368.027,330.906 367.027,331.573 365.5,331.5C 365.973,330.094 366.973,329.427 368.5,329.5 Z M 365.5,331.5 C 360.109,337.224 354.109,342.224 347.5,346.5C 347.5,344.5 347.5,342.5 347.5,340.5C 353.5,337.5 359.5,334.5 365.5,331.5 Z M 292.5,332.5 C 292.443,333.609 292.11,334.609 291.5,335.5C 290.833,335.5 290.167,335.5 289.5,335.5C 290.167,334.167 291.167,333.167 292.5,332.5 Z M 289.5,335.5 C 289.027,336.906 288.027,337.573 286.5,337.5C 286.973,336.094 287.973,335.427 289.5,335.5 Z M 38.5,368.5 C 40.754,369.124 42.4206,370.457 43.5,372.5C 39.3262,375.254 34.9929,377.42 30.5,379C 33.3826,375.624 36.0493,372.124 38.5,368.5 Z M 368.5,374.5 C 363.722,378.729 358.722,382.729 353.5,386.5C 353.443,385.391 353.11,384.391 352.5,383.5C 357.85,380.472 363.184,377.472 368.5,374.5 Z M 266.5,384.5 C 266.443,385.609 266.11,386.609 265.5,387.5C 260.167,390.167 254.833,392.833 249.5,395.5C 254.648,391.089 260.314,387.422 266.5,384.5 Z M 367.5,402.5 C 365.451,405.55 362.784,407.883 359.5,409.5C 358.662,409.158 358.328,408.492 358.5,407.5C 361.366,405.568 364.366,403.901 367.5,402.5 Z M 249.5,410.5 C 247.758,413.643 245.758,416.643 243.5,419.5C 234.167,424.5 224.833,429.5 215.5,434.5C 226.533,426.144 237.866,418.144 249.5,410.5 Z M 375.5,414.5 C 371.527,417.806 367.86,421.473 364.5,425.5C 363.655,424.329 362.989,422.995 362.5,421.5C 366.701,418.9 371.034,416.566 375.5,414.5 Z M 370.5,440.5 C 369.833,439.167 369.167,437.833 368.5,436.5C 372.007,434.08 375.674,432.246 379.5,431C 376.268,434.062 373.268,437.229 370.5,440.5 Z M 49.5,457.5 C 50.4916,457.328 51.1583,457.662 51.5,458.5C 50.609,459.11 49.609,459.443 48.5,459.5C 48.8333,458.833 49.1667,458.167 49.5,457.5 Z M 64.5,463.5 C 67.2372,463.401 69.9039,463.735 72.5,464.5C 67.8981,467.476 63.2314,470.476 58.5,473.5C 58.1667,473.333 57.8333,473.167 57.5,473C 59.9765,469.855 62.3098,466.688 64.5,463.5 Z M 105.5,463.5 C 98.6707,467.749 91.6707,471.749 84.5,475.5C 87.1667,471.833 89.8333,468.167 92.5,464.5C 96.8422,464.261 101.176,463.927 105.5,463.5 Z"/></g>
<g><path style="opacity:0.951" fill="#f0ba35" d="M 219.5,189.5 C 222.409,192.981 225.075,196.648 227.5,200.5C 220.903,203.775 214.57,207.442 208.5,211.5C 205.246,209.323 203.246,206.323 202.5,202.5C 207.948,197.936 213.615,193.602 219.5,189.5 Z"/></g>
<g><path style="opacity:0.988" fill="#b18c31" d="M 14.5,214.5 C 16.4044,214.738 17.7377,215.738 18.5,217.5C 16.5956,217.262 15.2623,216.262 14.5,214.5 Z"/></g>
<g><path style="opacity:0.733" fill="#e5b234" d="M 371.5,457.5 C 374.032,458.596 376.365,459.929 378.5,461.5C 376.565,462.709 374.565,462.542 372.5,461C 371.663,459.989 371.33,458.822 371.5,457.5 Z"/></g>
</svg>
