<?xml version="1.0" encoding="UTF-8"?>
<!DOCTYPE svg PUBLIC "-//W3C//DTD SVG 1.1//EN" "http://www.w3.org/Graphics/SVG/1.1/DTD/svg11.dtd">
<svg xmlns="http://www.w3.org/2000/svg" version="1.1" width="100px" height="100px" style="shape-rendering:geometricPrecision; text-rendering:geometricPrecision; image-rendering:optimizeQuality; fill-rule:evenodd; clip-rule:evenodd" xmlns:xlink="http://www.w3.org/1999/xlink">
<g><path style="opacity:0.973" fill="#5a5b5b" d="M 78.5,49.5 C 77.8333,49.5 77.1667,49.5 76.5,49.5C 76.6661,43.8236 76.4994,38.1569 76,32.5C 73.8069,24.1383 68.3069,20.305 59.5,21C 50.7551,20.1977 42.0884,20.3643 33.5,21.5C 31.847,21.6596 30.5137,22.3263 29.5,23.5C 27.9826,23.5106 26.8159,24.1772 26,25.5C 24.7246,27.7173 23.7246,30.0506 23,32.5C 22.5006,38.1569 22.3339,43.8236 22.5,49.5C 21.8333,49.5 21.1667,49.5 20.5,49.5C 16.0149,44.6439 14.3483,38.8106 15.5,32C 14.9372,24.8305 16.1039,17.9971 19,11.5C 21.6717,8.15964 25.1717,6.32631 29.5,6C 42.8333,5.33333 56.1667,5.33333 69.5,6C 77.7665,7.26811 82.2665,12.1014 83,20.5C 83.6667,28.1667 83.6667,35.8333 83,43.5C 81.668,45.66 80.168,47.66 78.5,49.5 Z"/></g>
<g><path style="opacity:0.993" fill="#33c380" d="M 76.5,49.5 C 76.1765,56.0221 76.5098,62.3554 77.5,68.5C 77.9956,87.6708 68.6622,96.6708 49.5,95.5C 30.3378,96.6708 21.0044,87.6708 21.5,68.5C 22.4614,66.7354 22.7947,64.7354 22.5,62.5C 22.5,58.1667 22.5,53.8333 22.5,49.5C 22.3339,43.8236 22.5006,38.1569 23,32.5C 23.7246,30.0506 24.7246,27.7173 26,25.5C 26.8159,24.1772 27.9826,23.5106 29.5,23.5C 30.8098,25.1477 32.1431,26.8144 33.5,28.5C 32.8551,29.646 32.0217,30.646 31,31.5C 30.2172,33.3185 30.7172,34.6518 32.5,35.5C 33.8745,34.2887 35.3745,33.2887 37,32.5C 37.772,32.6448 38.4387,32.9781 39,33.5C 38.76,35.4665 37.9266,37.2998 36.5,39C 36.6135,40.2798 37.2801,41.1131 38.5,41.5C 40.1487,40.3523 41.6487,39.019 43,37.5C 44.1667,38.6667 45.3333,39.8333 46.5,41C 49.0915,41.3008 49.9248,40.1341 49,37.5C 47.9783,36.646 47.1449,35.646 46.5,34.5C 48.415,32.9288 49.415,30.9288 49.5,28.5C 46.6755,28.0807 44.5088,29.0807 43,31.5C 41.9783,30.646 41.1449,29.646 40.5,28.5C 42.1392,27.084 42.9725,25.4174 43,23.5C 40.6845,22.6327 38.6845,23.2993 37,25.5C 35.6244,24.2949 34.4577,22.9616 33.5,21.5C 42.0884,20.3643 50.7551,20.1977 59.5,21C 68.3069,20.305 73.8069,24.1383 76,32.5C 76.4994,38.1569 76.6661,43.8236 76.5,49.5 Z"/></g>
<g><path style="opacity:1" fill="#138f57" d="M 33.5,21.5 C 34.4577,22.9616 35.6244,24.2949 37,25.5C 38.6845,23.2993 40.6845,22.6327 43,23.5C 42.9725,25.4174 42.1392,27.084 40.5,28.5C 41.1449,29.646 41.9783,30.646 43,31.5C 44.5088,29.0807 46.6755,28.0807 49.5,28.5C 49.415,30.9288 48.415,32.9288 46.5,34.5C 47.1449,35.646 47.9783,36.646 49,37.5C 49.9248,40.1341 49.0915,41.3008 46.5,41C 45.3333,39.8333 44.1667,38.6667 43,37.5C 41.6487,39.019 40.1487,40.3523 38.5,41.5C 37.2801,41.1131 36.6135,40.2798 36.5,39C 37.9266,37.2998 38.76,35.4665 39,33.5C 38.4387,32.9781 37.772,32.6448 37,32.5C 35.3745,33.2887 33.8745,34.2887 32.5,35.5C 30.7172,34.6518 30.2172,33.3185 31,31.5C 32.0217,30.646 32.8551,29.646 33.5,28.5C 32.1431,26.8144 30.8098,25.1477 29.5,23.5C 30.5137,22.3263 31.847,21.6596 33.5,21.5 Z"/></g>
<g><path style="opacity:0.922" fill="#119358" d="M 20.5,49.5 C 21.1667,49.5 21.8333,49.5 22.5,49.5C 22.5,53.8333 22.5,58.1667 22.5,62.5C 19.8333,62.5 17.1667,62.5 14.5,62.5C 12.6325,57.8727 13.2992,53.7061 16.5,50C 17.7932,49.51 19.1266,49.3433 20.5,49.5 Z"/></g>
<g><path style="opacity:1" fill="#119259" d="M 68.5,56.5 C 68.5,55.5 68.5,54.5 68.5,53.5C 67.1667,53.5 65.8333,53.5 64.5,53.5C 61.5,53.5 58.5,53.5 55.5,53.5C 54.8333,53.5 54.1667,53.5 53.5,53.5C 50.8333,53.5 48.1667,53.5 45.5,53.5C 44.8333,53.5 44.1667,53.5 43.5,53.5C 40.8333,53.5 38.1667,53.5 35.5,53.5C 33.8333,53.5 32.1667,53.5 30.5,53.5C 30.5,54.5 30.5,55.5 30.5,56.5C 29.4324,57.4345 28.099,57.7678 26.5,57.5C 26.2317,54.8806 26.565,52.3806 27.5,50C 42.1667,49.3333 56.8333,49.3333 71.5,50C 72.435,52.3806 72.7683,54.8806 72.5,57.5C 70.901,57.7678 69.5676,57.4345 68.5,56.5 Z"/></g>
<g><path style="opacity:0.92" fill="#108c54" d="M 76.5,49.5 C 77.1667,49.5 77.8333,49.5 78.5,49.5C 83.1107,49.4438 85.4441,51.7771 85.5,56.5C 84.9849,60.2424 84.1516,63.9091 83,67.5C 81.3005,68.4061 79.4672,68.7394 77.5,68.5C 76.5098,62.3554 76.1765,56.0221 76.5,49.5 Z"/></g>
<g><path style="opacity:1" fill="#ecf5f0" d="M 35.5,53.5 C 35.7796,57.2253 37.7796,58.392 41.5,57C 42.8228,56.1841 43.4894,55.0174 43.5,53.5C 44.1667,53.5 44.8333,53.5 45.5,53.5C 44.6723,60.1607 41.0057,62.6607 34.5,61C 32.9297,59.6032 31.5964,58.1032 30.5,56.5C 30.5,55.5 30.5,54.5 30.5,53.5C 32.1667,53.5 33.8333,53.5 35.5,53.5 Z"/></g>
<g><path style="opacity:1" fill="#5f6462" d="M 35.5,53.5 C 38.1667,53.5 40.8333,53.5 43.5,53.5C 43.4894,55.0174 42.8228,56.1841 41.5,57C 37.7796,58.392 35.7796,57.2253 35.5,53.5 Z"/></g>
<g><path style="opacity:1" fill="#ebf6f1" d="M 53.5,53.5 C 54.1667,53.5 54.8333,53.5 55.5,53.5C 56.4615,57.1461 58.7949,58.3128 62.5,57C 63.305,55.8873 63.9717,54.7206 64.5,53.5C 65.8333,53.5 67.1667,53.5 68.5,53.5C 68.5,54.5 68.5,55.5 68.5,56.5C 64.7858,62.245 60.2858,62.9117 55,58.5C 53.9914,56.9751 53.4914,55.3084 53.5,53.5 Z"/></g>
<g><path style="opacity:1" fill="#606563" d="M 55.5,53.5 C 58.5,53.5 61.5,53.5 64.5,53.5C 63.9717,54.7206 63.305,55.8873 62.5,57C 58.7949,58.3128 56.4615,57.1461 55.5,53.5 Z"/></g>
<g><path style="opacity:0.911" fill="#0d7548" d="M 14.5,62.5 C 17.1667,62.5 19.8333,62.5 22.5,62.5C 22.7947,64.7354 22.4614,66.7354 21.5,68.5C 16.717,69.3848 14.3837,67.3848 14.5,62.5 Z"/></g>
<g><path style="opacity:1" fill="#585d5a" d="M 44.5,72.5 C 51.6509,71.5427 57.3176,73.876 61.5,79.5C 61,79.8333 60.5,80.1667 60,80.5C 52.8055,77.9122 45.6388,77.9122 38.5,80.5C 37.5923,79.21 37.759,77.8767 39,76.5C 41.0153,75.3034 42.8487,73.9701 44.5,72.5 Z"/></g>
</svg>
