<?xml version="1.0" encoding="UTF-8"?>
<svg version="1.1" xmlns="http://www.w3.org/2000/svg" width="512" height="512">
<path d="M0 0 C8.51025693 5.94318517 16.68141101 9.03566763 26.85668945 10.79907227 C36.82655954 12.73589104 46.97878967 15.45749504 53.30200195 24.02563477 C57.98510117 31.56201298 59.6316275 37.98809537 58.48168945 46.92407227 C55.7711339 57.39359309 47.55578785 65.25428874 39.48168945 71.92407227 C40.3344043 73.3994043 40.3344043 73.3994043 41.2043457 74.90454102 C45.47940194 82.50227516 49.16753956 90.08463656 51.8762207 98.38110352 C52.31730667 99.71951294 52.31730667 99.71951294 52.76730347 101.08496094 C56.49618451 112.70036129 59.26715009 124.56721435 62.10668945 136.42407227 C66.83730115 161.07167552 66.83730115 161.07167552 79.35668945 182.11157227 C80.42086926 183.28726548 81.48207276 184.46565956 82.5402832 185.64672852 C83.04672363 186.20505371 83.55316406 186.76337891 84.07495117 187.33862305 C91.57179031 195.7878548 96.99917053 205.54065768 98.23168945 216.86157227 C98.77752017 220.65817088 98.77752017 220.65817088 101.24731445 223.40454102 C102.77748059 224.18834989 104.33038485 224.92886003 105.8996582 225.63110352 C112.31486826 228.8435612 119.11790796 234.76267471 121.9230957 241.51391602 C124.97413617 254.67819553 120.78129896 265.01452062 115.21606445 276.67797852 C114.81766357 277.51361328 114.4192627 278.34924805 114.00878906 279.21020508 C113.2184241 280.8541642 112.41766381 282.49317932 111.60498047 284.1262207 C107.21519807 293.0889685 104.97144066 301.66732726 107.35668945 311.54907227 C110.4300257 316.43025336 114.7267593 318.79415539 119.48168945 321.92407227 C126.48751018 326.88601559 130.91931392 332.64778633 133.48168945 340.92407227 C134.64312909 348.2563384 134.88322052 356.76921935 130.7824707 363.20922852 C130.35321289 363.77512695 129.92395508 364.34102539 129.48168945 364.92407227 C129.04211914 365.5621582 128.60254883 366.20024414 128.1496582 366.85766602 C118.24306521 379.72369692 101.71563339 385.30413569 86.82788086 390.06738281 C86.0742627 390.30884033 85.32064453 390.55029785 84.54418945 390.79907227 C83.79830566 391.03730713 83.05242187 391.27554199 82.28393555 391.52099609 C74.27164589 394.16953662 66.90132817 397.94132342 59.48168945 401.92407227 C59.89161133 402.43196289 60.3015332 402.93985352 60.72387695 403.46313477 C65.6235235 409.72249184 68.28573564 414.74960274 67.48168945 422.92407227 C63.71146495 437.23378798 54.51418311 446.68484402 41.91918945 454.04907227 C24.03546471 464.06834079 2.04579303 470.6353672 -18.39331055 465.79907227 C-26.88594702 463.05333265 -33.4316857 459.08534565 -38.36206055 451.56079102 C-39.43461251 449.7690515 -39.43461251 449.7690515 -41.51831055 448.92407227 C-41.70393555 449.76969727 -41.88956055 450.61532227 -42.08081055 451.48657227 C-44.88357105 458.18882563 -50.08791754 462.12533701 -56.52612305 465.19750977 C-66.21202914 468.73001669 -76.504758 466.62232245 -85.6159668 462.43188477 C-98.36716269 455.80744114 -108.73668259 446.68246078 -119.08081055 436.86157227 C-131.63913975 424.96096243 -143.58644036 413.72121271 -161.76831055 413.73657227 C-162.5660791 413.73592773 -163.36384766 413.7352832 -164.18579102 413.73461914 C-169.42441726 413.78027166 -174.45554909 414.19984022 -179.64331055 414.92407227 C-193.76269432 416.87496128 -209.52411354 417.94541789 -221.77612305 409.35375977 C-228.18170589 404.0971604 -231.8330862 398.09018795 -233.51831055 389.92407227 C-234.1483786 382.61734297 -234.1428197 375.08954288 -232.51831055 367.92407227 C-231.66685977 359.55147291 -234.5465616 353.80678725 -239.6081543 347.19360352 C-241.13953285 345.33762507 -242.68268117 343.49129931 -244.23706055 341.65454102 C-254.61085715 329.23795912 -258.48440664 318.18668987 -257.51831055 301.92407227 C-255.44378122 286.64639445 -249.08904861 272.55125547 -242.2255249 258.89761353 C-221.8489794 218.21663233 -214.79846555 180.51009428 -214.13070679 135.25881958 C-213.4388569 90.75319549 -212.03650948 53.19522516 -179.51831055 19.92407227 C-178.74100586 19.08489258 -177.96370117 18.24571289 -177.1628418 17.38110352 C-130.57340611 -31.70558836 -54.57330793 -38.6107057 0 0 Z " fill="#CFFEFE" transform="translate(317.518310546875,33.075927734375)"/>
<path d="M0 0 C8.51025693 5.94318517 16.68141101 9.03566763 26.85668945 10.79907227 C36.82655954 12.73589104 46.97878967 15.45749504 53.30200195 24.02563477 C57.98510117 31.56201298 59.6316275 37.98809537 58.48168945 46.92407227 C55.7711339 57.39359309 47.55578785 65.25428874 39.48168945 71.92407227 C40.3344043 73.3994043 40.3344043 73.3994043 41.2043457 74.90454102 C45.47940194 82.50227516 49.16753956 90.08463656 51.8762207 98.38110352 C52.31730667 99.71951294 52.31730667 99.71951294 52.76730347 101.08496094 C56.49618451 112.70036129 59.26715009 124.56721435 62.10668945 136.42407227 C66.83730115 161.07167552 66.83730115 161.07167552 79.35668945 182.11157227 C80.42086926 183.28726548 81.48207276 184.46565956 82.5402832 185.64672852 C83.04672363 186.20505371 83.55316406 186.76337891 84.07495117 187.33862305 C91.57179031 195.7878548 96.99917053 205.54065768 98.23168945 216.86157227 C98.77752017 220.65817088 98.77752017 220.65817088 101.24731445 223.40454102 C102.77748059 224.18834989 104.33038485 224.92886003 105.8996582 225.63110352 C112.31486826 228.8435612 119.11790796 234.76267471 121.9230957 241.51391602 C124.97413617 254.67819553 120.78129896 265.01452062 115.21606445 276.67797852 C114.81766357 277.51361328 114.4192627 278.34924805 114.00878906 279.21020508 C113.2184241 280.8541642 112.41766381 282.49317932 111.60498047 284.1262207 C107.21519807 293.0889685 104.97144066 301.66732726 107.35668945 311.54907227 C110.4300257 316.43025336 114.7267593 318.79415539 119.48168945 321.92407227 C126.48751018 326.88601559 130.91931392 332.64778633 133.48168945 340.92407227 C134.64312909 348.2563384 134.88322052 356.76921935 130.7824707 363.20922852 C130.35321289 363.77512695 129.92395508 364.34102539 129.48168945 364.92407227 C129.04211914 365.5621582 128.60254883 366.20024414 128.1496582 366.85766602 C118.24306521 379.72369692 101.71563339 385.30413569 86.82788086 390.06738281 C86.0742627 390.30884033 85.32064453 390.55029785 84.54418945 390.79907227 C83.79830566 391.03730713 83.05242187 391.27554199 82.28393555 391.52099609 C74.27164589 394.16953662 66.90132817 397.94132342 59.48168945 401.92407227 C59.89161133 402.43196289 60.3015332 402.93985352 60.72387695 403.46313477 C65.6235235 409.72249184 68.28573564 414.74960274 67.48168945 422.92407227 C63.71146495 437.23378798 54.51418311 446.68484402 41.91918945 454.04907227 C24.03546471 464.06834079 2.04579303 470.6353672 -18.39331055 465.79907227 C-26.88594702 463.05333265 -33.4316857 459.08534565 -38.36206055 451.56079102 C-39.43461251 449.7690515 -39.43461251 449.7690515 -41.51831055 448.92407227 C-41.70393555 449.76969727 -41.88956055 450.61532227 -42.08081055 451.48657227 C-44.88357105 458.18882563 -50.08791754 462.12533701 -56.52612305 465.19750977 C-66.21202914 468.73001669 -76.504758 466.62232245 -85.6159668 462.43188477 C-98.36716269 455.80744114 -108.73668259 446.68246078 -119.08081055 436.86157227 C-131.63913975 424.96096243 -143.58644036 413.72121271 -161.76831055 413.73657227 C-162.5660791 413.73592773 -163.36384766 413.7352832 -164.18579102 413.73461914 C-169.42441726 413.78027166 -174.45554909 414.19984022 -179.64331055 414.92407227 C-193.76269432 416.87496128 -209.52411354 417.94541789 -221.77612305 409.35375977 C-228.18170589 404.0971604 -231.8330862 398.09018795 -233.51831055 389.92407227 C-234.1483786 382.61734297 -234.1428197 375.08954288 -232.51831055 367.92407227 C-231.66685977 359.55147291 -234.5465616 353.80678725 -239.6081543 347.19360352 C-241.13953285 345.33762507 -242.68268117 343.49129931 -244.23706055 341.65454102 C-254.61085715 329.23795912 -258.48440664 318.18668987 -257.51831055 301.92407227 C-255.44378122 286.64639445 -249.08904861 272.55125547 -242.2255249 258.89761353 C-221.8489794 218.21663233 -214.79846555 180.51009428 -214.13070679 135.25881958 C-213.4388569 90.75319549 -212.03650948 53.19522516 -179.51831055 19.92407227 C-178.74100586 19.08489258 -177.96370117 18.24571289 -177.1628418 17.38110352 C-130.57340611 -31.70558836 -54.57330793 -38.6107057 0 0 Z M-132.51831055 -2.07592773 C-133.48124023 -1.60541992 -134.44416992 -1.13491211 -135.4362793 -0.65014648 C-161.90781719 12.91030944 -187.22682013 36.60629203 -197.51831055 64.92407227 C-204.30082699 86.3358701 -203.83605414 109.09183011 -204.01831055 131.29907227 C-204.16076592 148.60849602 -204.53692039 165.71673837 -206.51831055 182.92407227 C-206.65333984 184.1307959 -206.78836914 185.33751953 -206.92749023 186.58081055 C-210.10081444 212.61593703 -219.76387778 235.4856764 -230.6696167 259.08459473 C-233.16725494 264.49803028 -235.6286539 269.92738256 -238.08081055 275.36157227 C-238.56904297 276.41965088 -239.05727539 277.47772949 -239.56030273 278.56787109 C-246.16895772 293.21828612 -250.68684398 307.42430581 -244.90893555 323.04907227 C-242.5253689 327.97689544 -239.12391709 331.84816922 -235.51831055 335.92407227 C-228.40187936 344.38128034 -222.36180992 351.95784522 -222.39331055 363.42407227 C-222.39073242 364.36250977 -222.3881543 365.30094727 -222.38549805 366.26782227 C-222.51831055 368.92407227 -222.51831055 368.92407227 -223.0065918 370.81860352 C-224.89381787 378.58360239 -224.52971584 388.07150644 -220.7019043 395.13110352 C-216.62770722 401.302907 -211.62116896 404.23941995 -204.51831055 405.92407227 C-193.18601986 406.91748736 -179.37727506 406.5437271 -168.51831055 402.92407227 C-152.6659907 401.39138941 -139.00214334 406.4691814 -126.75219727 416.34838867 C-119.42609937 422.39775489 -112.56025021 428.79686227 -105.90893555 435.58032227 C-98.86234166 442.48874764 -91.18769207 448.22815727 -82.51831055 452.92407227 C-81.44581055 453.54282227 -80.37331055 454.16157227 -79.26831055 454.79907227 C-72.75919427 456.75180715 -65.4174172 457.35965244 -58.94018555 454.97485352 C-55.05909953 452.69651228 -52.08592942 450.23502416 -50.51831055 445.92407227 C-49.55556367 438.51092131 -51.37873949 433.90821084 -55.74487305 427.81860352 C-56.53635742 426.8015332 -57.3278418 425.78446289 -58.14331055 424.73657227 C-62.33740966 419.3412506 -64.33347459 415.91119261 -63.51831055 408.92407227 C-60.16817699 402.79920977 -54.93098964 400.07242772 -48.51831055 397.92407227 C-47.87635742 397.69848633 -47.2344043 397.47290039 -46.57299805 397.24047852 C-41.2127193 395.7164777 -35.74021874 395.6885689 -30.20581055 395.61157227 C-29.41634033 395.59384766 -28.62687012 395.57612305 -27.81347656 395.55786133 C-24.39199941 395.56225112 -22.08224648 395.64079688 -18.9909668 397.19360352 C-17.51831055 398.92407227 -17.51831055 398.92407227 -17.06518555 400.79907227 C-17.87400151 409.2605316 -23.16355616 414.82381691 -28.3815918 421.20141602 C-32.34128584 426.42745613 -33.33906483 430.48968896 -32.97143555 437.05688477 C-31.99452519 443.23836927 -29.47036254 448.06211599 -24.31518555 451.82641602 C-13.56123902 458.39567466 -1.87582428 458.27389961 10.16918945 455.73657227 C26.50946754 451.39933796 44.07561427 443.94812531 54.04418945 429.54907227 C56.46101978 425.13572992 57.54737973 420.89169937 56.48168945 415.92407227 C54.84812317 413.25020418 53.00897278 410.81490301 51.12231445 408.31469727 C48.92812842 405.11745477 48.25394706 402.795693 48.48168945 398.92407227 C53.41427566 389.29378491 67.83386013 385.32144486 77.48168945 381.92407227 C79.64245426 381.23851822 81.80898927 380.57080467 83.98168945 379.92407227 C99.56495815 375.26634251 115.51836129 369.33696161 123.91918945 354.36157227 C125.27815737 348.47271128 124.68099785 344.11503993 121.80200195 338.90063477 C118.37003176 333.76283324 114.02337714 330.17134724 108.85668945 326.86157227 C103.10783868 323.15610553 99.21103547 319.07619388 96.98950195 312.37329102 C93.16010334 293.90380694 102.46006995 278.19935695 110.421875 262.28320312 C112.78649332 257.0195987 113.34883021 251.62487881 112.48168945 245.92407227 C108.3748666 236.70401147 98.38095897 232.40639512 89.48168945 228.92407227 C89.4559082 228.11325195 89.43012695 227.30243164 89.40356445 226.46704102 C88.65638603 211.88008052 84.16607178 202.99852476 74.1730957 192.49829102 C63.2936148 180.99502875 59.39493835 167.70596311 55.63793945 152.62719727 C55.46644379 151.93948242 55.29494812 151.25176758 55.11825562 150.54321289 C54.0205474 146.12927693 52.94252668 141.71082086 51.87503052 137.28948975 C51.1432672 134.26342811 50.40418759 131.23917374 49.66430664 128.21508789 C49.2927612 126.68856318 48.92459171 125.1612128 48.55981445 123.63305664 C45.27525227 109.89654835 41.32264377 96.42855793 34.48168945 83.98657227 C34.1484668 83.37740967 33.81524414 82.76824707 33.47192383 82.140625 C30.74236031 77.21971256 27.75514079 72.49946448 24.48168945 67.92407227 C25.20614258 67.66883789 25.9305957 67.41360352 26.67700195 67.15063477 C35.2577445 63.39805376 43.18095277 55.5209736 47.91918945 47.48657227 C48.98171307 42.64618688 49.67636949 38.2639973 47.34887695 33.70532227 C41.53828725 25.55224352 34.13775054 22.29008366 24.49487305 20.56958008 C20.11449662 19.84238537 20.11449662 19.84238537 15.72265625 19.18945312 C6.90484564 17.82424082 0.47282635 13.39303434 -6.58081055 8.17407227 C-43.92102482 -18.67851177 -90.99539786 -23.39850452 -132.51831055 -2.07592773 Z " fill="#FDFCFC" transform="translate(317.518310546875,33.075927734375)"/>
<path d="M0 0 C1.14460693 0.00563965 2.28921387 0.0112793 3.46850586 0.01708984 C29.63469798 0.38907737 53.6520072 9.38062742 74.26611328 25.5065918 C81.71516556 31.29212897 88.52023935 33.83658178 97.8125 35.3125 C109.62797321 37.41384781 118.1793339 39.05784331 125.4375 49.3125 C127.43712281 53.31174563 127.06310509 58.18066099 125.82421875 62.40234375 C121.66727061 71.65017992 112.95422116 78.24679224 104.4375 83.3125 C103.7775 83.3125 103.1175 83.3125 102.4375 83.3125 C102.88234741 84.00472656 102.88234741 84.00472656 103.33618164 84.7109375 C117.96394755 107.63069612 125.09836175 130.60904182 130.66455078 157.18725586 C134.68968064 176.21800357 139.61431997 193.67497755 152.9375 208.25 C159.65707331 215.64831809 166.65100665 223.99989731 166.34375 234.5234375 C166.24405514 238.15399192 166.26915641 240.86098114 167.4375 244.3125 C170.85779482 246.86644046 173.84591856 248.20405019 177.82421875 249.75 C183.31740441 252.12543163 188.15144298 255.59735746 190.4375 261.3125 C192.08179629 272.49777476 186.8062703 281.6803369 181.875 291.3125 C175.80369206 303.24905936 172.11881053 314.60861274 175.05859375 328.1796875 C177.58894572 335.57956126 182.36965311 339.35683597 188.5234375 343.828125 C194.40650732 348.1108195 200.59263296 352.93303183 202.4375 360.3125 C203.21241897 367.15761755 201.1408831 371.81090351 197.03515625 377.12890625 C186.07331811 389.10920368 168.75155868 393.9668505 153.625 398.3125 C144.04286652 401.16753466 134.80427516 405.46344843 127.4375 412.3125 C125.92403577 415.56807175 125.92403577 415.56807175 126.4375 419.3125 C128.13226323 422.56124741 130.21451486 425.40854979 132.4375 428.3125 C134.93819848 432.06354773 135.04517788 434.97305669 134.4375 439.3125 C130.81755572 451.15750755 119.64870613 457.67455918 109.4375 463.3125 C102.02149715 467.22312445 94.62633448 469.57618553 86.4375 471.3125 C85.65503906 471.49683594 84.87257813 471.68117188 84.06640625 471.87109375 C73.24063003 473.68879466 63.09942755 472.99293835 53.640625 467.21484375 C48.48544801 463.45054372 45.96128536 458.62679701 44.984375 452.4453125 C44.54301057 444.56093873 46.5360517 440.30315903 51.4375 434.3125 C58.12105942 426.13588007 58.12105942 426.13588007 60.890625 416.1875 C60.55794663 414.18741734 60.55794663 414.18741734 58.953125 412.5859375 C55.3429003 410.7584014 51.89171576 410.86664032 47.9375 410.9375 C47.13521973 410.94692627 46.33293945 410.95635254 45.50634766 410.96606445 C34.06255762 411.2539369 24.36818406 413.67835014 15.9375 421.6875 C13.93992143 425.18326249 13.94915924 427.33601097 14.4375 431.3125 C16.42805508 435.87131069 19.01502407 439.58394379 22.0625 443.5 C26.73189099 449.50674083 28.34431297 453.74708898 27.4375 461.3125 C25.46108645 465.50249673 22.94116169 468.50574451 18.72265625 470.6015625 C10.0447832 473.30134523 2.12185486 471.81167873 -5.8125 467.875 C-12.63980756 464.27641796 -18.0983856 459.75688836 -23.5625 454.3125 C-24.92821157 453.11432925 -26.302809 451.9261854 -27.6875 450.75 C-30.37512682 448.4164318 -32.89391483 445.98904195 -35.375 443.4375 C-48.45600123 430.22875462 -64.40528928 418.21817616 -83.6875 417.875 C-90.40685957 418.13372959 -96.9501112 419.14660905 -103.5625 420.3125 C-114.62410353 422.0966296 -126.59430831 423.28948279 -136.5625 417.3125 C-141.35402686 413.66677304 -144.0805928 409.10321345 -145.5625 403.3125 C-146.03878701 396.91570091 -146.21358849 390.55283446 -144.5625 384.3125 C-143.39296386 370.03066439 -148.73602033 361.89362123 -157.5625 351.3125 C-158.31917969 350.44367188 -159.07585937 349.57484375 -159.85546875 348.6796875 C-166.83835702 340.530801 -170.53910011 331.65016405 -169.9777832 320.77197266 C-168.40465519 307.66719669 -162.71368856 295.5584597 -157.06259155 283.78988647 C-155.02393846 279.53713511 -153.03229199 275.26246545 -151.0390625 270.98828125 C-150.64754501 270.15009354 -150.25602753 269.31190582 -149.85264587 268.44831848 C-133.93361053 234.23125549 -126.59410859 200.78376176 -126.3515625 162.91796875 C-126.32347098 160.38866566 -126.29480639 157.85936888 -126.265625 155.33007812 C-126.22471703 151.43237655 -126.18773746 147.53478972 -126.16113281 143.63696289 C-125.8516812 101.69826631 -121.41635386 68.77838349 -90.5625 38.3125 C-71.51813588 20.10814404 -48.23253721 7.87188231 -22.5625 2.3125 C-21.79059326 2.12776123 -21.01868652 1.94302246 -20.22338867 1.75268555 C-13.46097325 0.22603856 -6.91827407 -0.03580093 0 0 Z M-93.5625 47.3125 C-94.27664062 48.01375 -94.99078125 48.715 -95.7265625 49.4375 C-113.88122002 68.53243858 -120.55705072 93.20182968 -120.80859375 119 C-120.83979443 121.31600443 -120.87138484 123.63200363 -120.90332031 125.94799805 C-120.91866821 127.1511264 -120.93401611 128.35425476 -120.9498291 129.59384155 C-121.78872434 191.77261403 -121.78872434 191.77261403 -128.5625 222.3125 C-128.86317383 223.6722998 -128.86317383 223.6722998 -129.16992188 225.05957031 C-134.6407125 248.69159212 -145.8458029 271.1603839 -156.24829102 292.96508789 C-162.73320888 306.62822778 -168.65995583 319.75523799 -163.66015625 334.84765625 C-161.69625303 339.25770228 -158.7031843 342.68770251 -155.5625 346.3125 C-149.58924348 353.28303066 -144.63327567 360.05920187 -140.5625 368.3125 C-139.5725 367.9825 -138.5825 367.6525 -137.5625 367.3125 C-136.48489766 364.67412258 -135.64985503 362.1697263 -134.875 359.4375 C-134.50024536 358.14440918 -134.50024536 358.14440918 -134.11791992 356.82519531 C-127.80192362 334.36406508 -122.65826789 311.57621296 -120.5625 288.3125 C-118.8108336 319.57001375 -128.2338566 350.76272318 -138.43359375 380.00390625 C-140.33184837 385.56730302 -140.80414539 390.33963256 -140.875 396.1875 C-140.90400391 396.97769531 -140.93300781 397.76789063 -140.96289062 398.58203125 C-141.02151772 404.00278311 -140.14449678 407.00495278 -136.5625 411.3125 C-130.49093612 416.79171619 -125.49634387 416.50492905 -117.6875 416.5 C-116.11911377 416.5009668 -116.11911377 416.5009668 -114.51904297 416.50195312 C-108.0943921 416.45805118 -102.04792177 415.92348578 -95.72265625 414.7734375 C-80.02588374 412.48392062 -64.5483023 414.69048986 -51.5625 424.3125 C-44.16098228 430.10661741 -37.42205912 436.39125549 -30.87036133 443.12768555 C-19.41100612 454.90707352 -6.8279859 466.47024693 10.375 467.5625 C14.34609093 467.50995248 17.06287874 466.48189938 20.4375 464.3125 C23.15643059 460.23410412 23.30917097 457.10290047 22.4375 452.3125 C20.79714486 449.02081744 18.68966753 446.20965448 16.4375 443.3125 C12.86177084 438.43134591 10.31332477 434.94087104 10.3046875 428.734375 C10.30339844 427.81914062 10.30210937 426.90390625 10.30078125 425.9609375 C10.30464844 425.00445312 10.30851563 424.04796875 10.3125 423.0625 C10.30863281 422.15242188 10.30476562 421.24234375 10.30078125 420.3046875 C10.30801333 415.0831225 10.52467555 409.9265815 10.93969727 404.72143555 C11.63756761 395.01857297 11.5628782 385.3203193 11.53515625 375.59765625 C11.53328634 373.64611345 11.53186515 371.69457017 11.53086853 369.74302673 C11.5270884 364.65836239 11.51729773 359.57372756 11.50616455 354.48907471 C11.49585245 349.27982991 11.49135012 344.07058024 11.48632812 338.86132812 C11.47567046 328.6783726 11.45864961 318.49543877 11.4375 308.3125 C13.66470835 324.76789374 14.58957405 341.02335521 14.53515625 357.62109375 C14.53328544 359.32601377 14.53186468 361.03093434 14.53086853 362.7358551 C14.5270955 367.16950022 14.51731139 371.60311128 14.50616455 376.03674316 C14.49583669 380.58243347 14.49134683 385.12812941 14.48632812 389.67382812 C14.47568308 398.55340018 14.4586714 407.43294723 14.4375 416.3125 C15.37489014 415.82966553 16.31228027 415.34683105 17.27807617 414.84936523 C18.53290601 414.21051077 19.78787781 413.5719351 21.04296875 412.93359375 C21.65781128 412.61596069 22.27265381 412.29832764 22.90612793 411.97106934 C34.41020503 406.14511662 45.83432352 405.90497214 58.4375 406.3125 C57.83582164 400.4648038 57.04918525 394.72075511 55.984375 388.94140625 C55.693582 387.32160156 55.40366413 385.70163958 55.11450195 384.08154297 C54.9632486 383.23541443 54.81199524 382.38928589 54.65615845 381.51751709 C49.23757275 350.96497848 45.8436015 320.274437 43.125 289.375 C43.03755524 288.40270447 42.95011047 287.43040894 42.86001587 286.4286499 C41.72714472 273.6898422 41.21307475 261.1010448 41.4375 248.3125 C46.31784677 286.22569836 46.31784677 286.22569836 47.9375 303.4375 C50.83277714 333.29756581 55.35936159 362.62963713 61.13500977 392.07421875 C61.35235779 393.20088455 61.56970581 394.32755035 61.79364014 395.48835754 C62.20049278 397.59512709 62.61549678 399.70034731 63.04058838 401.80351257 C64.65687754 410.21720147 66.3696878 419.37433499 61.91796875 427.13671875 C59.24559157 431.06419656 56.38104138 434.83340707 53.4609375 438.578125 C50.07882843 443.14854266 48.90777127 446.26939182 49.06640625 451.93359375 C49.7237532 456.1475337 51.52400675 459.23172484 54.4375 462.3125 C64.48769097 469.07780365 77.67351123 468.71321962 89.2265625 466.62890625 C104.28325043 462.21447585 118.94106057 454.03414527 128.4375 441.3125 C129.94639469 438.29471063 129.93776276 436.68927363 129.4375 433.3125 C126.73568703 429.42341147 123.35995701 426.18883416 119.9375 422.9375 C96.37136073 398.19305377 91.03470519 355.14047022 84.9375 322.625 C84.80753632 321.93560333 84.67757263 321.24620667 84.54367065 320.53591919 C82.28057512 308.43098536 82.28057512 308.43098536 82.4375 303.3125 C82.68282471 304.28445313 82.92814941 305.25640625 83.1809082 306.2578125 C87.80450431 324.54748078 92.49218596 342.82121558 97.43759155 361.02685547 C97.88735159 362.68588595 98.33426507 364.34569141 98.77798462 366.00634766 C105.80837587 393.14878755 105.80837587 393.14878755 119.4375 417.3125 C120.4275 416.9825 121.4175 416.6525 122.4375 416.3125 C122.994375 415.11625 123.55125 413.92 124.125 412.6875 C128.93638759 402.67122843 138.4440455 398.85493378 148.4375 395.3125 C154.10518013 393.40144116 159.78537224 391.52814556 165.49145508 389.73486328 C176.48869065 386.20468914 190.16167169 381.78159281 196.625 371.40625 C198.15833803 367.45495584 197.95237368 363.47109512 197.4375 359.3125 C193.98188271 351.8253292 186.40854381 347.94288946 179.75 343.5625 C159.73660337 330.30393862 141.18524915 314.29266914 126.4375 295.3125 C125.66277344 294.31992187 124.88804687 293.32734375 124.08984375 292.3046875 C117.50519009 283.70836169 112.11288947 275.50042169 108.4375 265.3125 C109.31148438 266.80136719 109.31148438 266.80136719 110.203125 268.3203125 C116.11400739 278.1942285 122.67579043 286.8363813 130.4375 295.3125 C131.02144531 295.95670898 131.60539062 296.60091797 132.20703125 297.26464844 C140.89672483 306.87785099 140.89672483 306.87785099 150.43359375 315.62890625 C154.03683607 318.65619171 157.45897919 321.89226086 160.921875 325.078125 C164.67153128 328.84927877 164.67153128 328.84927877 169.4375 330.3125 C169.39109375 329.58289063 169.3446875 328.85328125 169.296875 328.1015625 C168.6887936 310.51063641 174.39931113 296.17527783 181.9765625 280.515625 C186.49094293 271.22826913 186.49094293 271.22826913 185.4375 261.3125 C181.25251766 256.41867815 175.77586735 253.73758986 169.9375 251.3125 C169.15576416 250.97565186 168.37402832 250.63880371 167.56860352 250.29174805 C162.54100153 248.14157544 157.46495166 246.12180207 152.375 244.125 C138.39470757 238.57750098 123.50814406 229.96523011 117.21875 215.51171875 C116.83203125 214.42310547 116.83203125 214.42310547 116.4375 213.3125 C117.16453125 214.27349609 117.16453125 214.27349609 117.90625 215.25390625 C118.5765625 216.11886719 119.246875 216.98382813 119.9375 217.875 C120.5871875 218.72191406 121.236875 219.56882813 121.90625 220.44140625 C127.7885256 227.11343181 134.14908871 231.63689193 142.0625 235.625 C142.88234375 236.05361328 143.7021875 236.48222656 144.546875 236.92382812 C150.12484657 239.79800801 155.04675733 242.3125 161.4375 242.3125 C162.52069606 228.30316425 157.25052972 220.68939451 148.4375 210.3125 C147.40689453 209.12720703 147.40689453 209.12720703 146.35546875 207.91796875 C132.70015976 191.75614033 129.5271909 170.27287779 124.81079102 150.20410156 C117.6199041 119.70364411 108.23088563 95.36539828 86.4375 72.3125 C85.75300781 71.57515625 85.06851563 70.8378125 84.36328125 70.078125 C79.89675308 65.42170746 75.11545966 61.30905561 70.0625 57.3125 C69.15141479 56.59042358 69.15141479 56.59042358 68.22192383 55.85375977 C65.6431906 53.85360929 63.55691291 52.3523043 60.4375 51.3125 C60.4375 50.6525 60.4375 49.9925 60.4375 49.3125 C73.34747557 55.79290112 83.57712474 63.82841833 93.18652344 74.52319336 C96.64295189 78.35482334 96.64295189 78.35482334 101.46875 79.53515625 C105.09256974 78.0427147 108.02641511 76.05457728 111.0625 73.625 C111.90167969 72.99174805 111.90167969 72.99174805 112.7578125 72.34570312 C117.00396521 69.0258927 120.39292248 65.41769219 122.15234375 60.1875 C122.72426938 55.37128416 122.26535016 52.46001357 119.4375 48.3125 C114.02791838 42.57506495 106.27080619 41.57193191 98.78369141 40.44506836 C86.47166839 38.50736582 77.14507457 33.02673923 67.0625 25.875 C54.8367901 17.21075761 41.9789742 10.95242301 27.4375 7.3125 C26.21160156 6.99410156 24.98570312 6.67570312 23.72265625 6.34765625 C-20.89102852 -3.64323084 -62.28338964 16.50304595 -93.5625 47.3125 Z " fill="#6E2335" transform="translate(239.5625,17.6875)"/>
<path d="M0 0 C12.93791407 10.20600393 20.12025198 28.60528774 22.75390625 44.54296875 C23.57972522 52.78805019 24.17606117 61.53606977 20 69 C15.97522496 73.70713632 11.34781352 75.72144585 5.3125 76.4375 C-3.90979162 76.09274143 -10.21045376 70.10271182 -16.52709961 64.0324707 C-26.04233636 55.05054083 -35.61491483 54.00100308 -48.1875 53.4375 C-49.52071289 53.37272461 -49.52071289 53.37272461 -50.88085938 53.30664062 C-54.59561193 53.13081086 -58.27950952 53 -62 53 C-57.05 56.96 -57.05 56.96 -52 61 C-52.99 61.495 -52.99 61.495 -54 62 C-63.52040709 57.84026089 -69.72427417 51.43619567 -73.8125 42 C-74.56703021 40.00943018 -75.29895426 38.01002958 -76 36 C-76.2475 35.32195312 -76.495 34.64390625 -76.75 33.9453125 C-79.50505463 25.0296496 -79.22659073 14.67472895 -75.25 6.23828125 C-70.06113685 -3.05302683 -62.28450869 -10.53662271 -51.81640625 -13.5703125 C-32.75393318 -16.47859549 -15.52145093 -11.3331229 0 0 Z " fill="#FE0001" transform="translate(284,101)"/>
<path d="M0 0 C10.91197697 7.51713969 19.71049119 18.79273767 22.8125 31.9375 C24.02344915 42.50807695 22.44413606 53.33364596 16.875 62.5625 C14.71971962 65.04433802 12.74173327 66.47288336 9.8125 67.9375 C10.080625 67.421875 10.34875 66.90625 10.625 66.375 C12.13470991 63.27612175 13.46196329 60.1084862 14.8125 56.9375 C5.49756405 63.07237247 -0.60716503 68.77363554 -5.16967773 79.09741211 C-7.3609246 83.95421868 -9.30953857 86.34588001 -14.1875 88.9375 C-18.19418667 90.30147844 -19.76730411 90.09968087 -23.75 88.5625 C-31.11338817 83.83237648 -33.80505776 73.80501379 -35.71313477 65.70654297 C-36.66705542 60.13816004 -36.37218822 54.44730959 -36.375 48.8125 C-36.38724609 47.5440625 -36.39949219 46.275625 -36.41210938 44.96875 C-36.43481051 30.28868388 -34.32885686 16.50561653 -23.80078125 5.40625 C-16.59586348 -1.15319087 -9.50831879 -3.1694396 0 0 Z " fill="#6E1F32" transform="translate(176.1875,103.0625)"/>
<path d="M0 0 C12.93791407 10.20600393 20.12025198 28.60528774 22.75390625 44.54296875 C23.57972522 52.78805019 24.17606117 61.53606977 20 69 C15.97522496 73.70713632 11.34781352 75.72144585 5.3125 76.4375 C-3.90979162 76.09274143 -10.21045376 70.10271182 -16.52709961 64.0324707 C-26.04233636 55.05054083 -35.61491483 54.00100308 -48.1875 53.4375 C-49.52071289 53.37272461 -49.52071289 53.37272461 -50.88085938 53.30664062 C-54.59561193 53.13081086 -58.27950952 53 -62 53 C-57.05 56.96 -57.05 56.96 -52 61 C-52.99 61.495 -52.99 61.495 -54 62 C-63.52040709 57.84026089 -69.72427417 51.43619567 -73.8125 42 C-74.56703021 40.00943018 -75.29895426 38.01002958 -76 36 C-76.2475 35.32195312 -76.495 34.64390625 -76.75 33.9453125 C-79.50505463 25.0296496 -79.22659073 14.67472895 -75.25 6.23828125 C-70.06113685 -3.05302683 -62.28450869 -10.53662271 -51.81640625 -13.5703125 C-32.75393318 -16.47859549 -15.52145093 -11.3331229 0 0 Z M-59.0625 -4.0625 C-63.90169676 3.58655294 -64.12435698 11.60138661 -62.5703125 20.4453125 C-60.53225544 26.86141807 -56.16820386 31.3105965 -50.296875 34.44140625 C-44.33131581 37.05719464 -38.34053557 38.71733525 -32.015625 40.19921875 C-20.38658144 43.28724197 -12.23422396 48.62865561 -3.9375 57.125 C0.95493587 62.09224375 4.59191675 65.60239029 11.75 66.4375 C14.91746168 66.25306612 14.91746168 66.25306612 16.875 64.75 C21.07624571 58.2147289 19.60754897 48.48021639 18.09375 41.30859375 C13.71581522 22.74762806 4.97678388 8.90925771 -11 -2 C-23.99441753 -9.77549272 -46.88337374 -17.92521136 -59.0625 -4.0625 Z " fill="#6D1F32" transform="translate(284,101)"/>
<path d="M0 0 C0.33 0 0.66 0 1 0 C5.50686423 23.7361516 -1.1996926 48.8120563 -6.59039307 71.93933105 C-7.24128175 75.21385106 -7.34043907 78.41832611 -7.375 81.75 C-7.40335938 83.00296875 -7.43171875 84.2559375 -7.4609375 85.546875 C-6.92109106 89.59114836 -5.86627056 91.15431307 -3 94 C5.91924275 99.07172627 14.38166329 96.9185837 23.8125 94.5 C39.34094737 90.80305732 50.59169562 91.01990783 64.625 99.625 C75.92074755 107.79901368 83.60035712 118.58342221 91.48388672 129.85986328 C94.31601589 133.8576804 97.30967288 137.73170754 100.29296875 141.6171875 C101.78214503 143.69590039 102.94671046 145.67736152 104 148 C100.38045197 145.9880851 97.61843928 143.8388066 94.7421875 140.8671875 C93.95706787 140.06498779 93.17194824 139.26278809 92.36303711 138.4362793 C91.54198486 137.59105713 90.72093262 136.74583496 89.875 135.875 C83.22539201 129.13702513 76.70654567 122.54065375 69 117 C67.81664062 116.14921875 67.81664062 116.14921875 66.609375 115.28125 C53.10757607 106.39619522 37.42202407 105.17326835 21.875 108 C15.59949652 109.1083799 9.41878065 109.26089554 3.0625 109.3125 C2.06653809 109.32990234 1.07057617 109.34730469 0.04443359 109.36523438 C-6.18775625 109.36101417 -10.88144986 108.91114063 -15.64453125 104.46484375 C-21.35742259 96.99413969 -20.83751958 89.12821223 -20 80 C-18.97517508 75.34039883 -17.44915665 70.93181031 -15.84765625 66.44921875 C-8.33489652 44.74184387 -3.69902481 22.61981056 0 0 Z " fill="#ABCEDD" transform="translate(119,325)"/>
<path d="M0 0 C0.72340576 0.37600342 1.44681152 0.75200684 2.19213867 1.1394043 C5.97559909 3.1807111 9.00458548 5.1580886 11.875 8.4375 C6.12252992 7.87719447 1.52758161 5.62124762 -3.625 3.1875 C-33.22689817 -10.40842321 -62.85339992 -12.33268723 -93.82080078 -1.44335938 C-122.00941927 9.33270923 -148.24678078 27.95377766 -162.125 55.4375 C-166.72920163 66.29594958 -169.26386416 76.23709944 -169.29858398 88.06030273 C-169.305271 89.01244156 -169.31195801 89.96458038 -169.31884766 90.9455719 C-169.33286325 93.00803302 -169.34476831 95.07050933 -169.35479546 97.1329937 C-169.37128923 100.40993076 -169.39453438 103.68675698 -169.41969299 106.96363831 C-169.49020869 116.27933148 -169.5502906 125.59507145 -169.60180664 134.91088867 C-169.6338363 140.61725944 -169.67517611 146.32350423 -169.72200203 152.0297718 C-169.7378865 154.19160733 -169.7502695 156.35347182 -169.75890923 158.51534843 C-169.81860064 173.24772562 -170.08367093 187.79000028 -174.1875 202.0625 C-174.39737549 202.79774902 -174.60725098 203.53299805 -174.82348633 204.29052734 C-179.60215057 220.22829767 -186.81534279 234.6965237 -196.125 248.4375 C-196.785 248.1075 -197.445 247.7775 -198.125 247.4375 C-197.84825439 246.77443848 -197.57150879 246.11137695 -197.28637695 245.42822266 C-191.70336604 231.97554829 -186.24336534 218.69405469 -183.125 204.4375 C-182.80257324 202.96482666 -182.80257324 202.96482666 -182.47363281 201.46240234 C-177.50893794 178.02351836 -176.24559087 154.68316534 -175.89453125 130.80859375 C-175.87609161 129.60093857 -175.85765198 128.39328339 -175.83865356 127.14903259 C-175.74917339 121.08325455 -175.67882378 115.01823196 -175.64160156 108.9519043 C-175.32822035 74.81051961 -167.28263484 48.66570055 -142.671875 23.9765625 C-103.5096726 -13.19235414 -48.85101679 -25.40833754 0 0 Z " fill="#E5F8F6" transform="translate(294.125,35.5625)"/>
<path d="M0 0 C5.72577617 1.94938639 9.36828311 7.67179743 12.1484375 12.80859375 C16.08021199 21.37872248 18.59715749 29.90230791 15.83984375 39.328125 C12.97183128 45.37639323 8.18246709 49.35799126 3.15527344 53.66479492 C-3.01561811 59.019644 -7.101004 64.29658515 -10.44140625 71.87109375 C-15.23046875 71.15234375 -15.23046875 71.15234375 -17.12890625 68.62109375 C-17.56203125 67.71359375 -17.99515625 66.80609375 -18.44140625 65.87109375 C-18.79203125 65.19046875 -19.14265625 64.50984375 -19.50390625 63.80859375 C-20.85586722 59.57244938 -20.781424 55.54267792 -20.75390625 51.12109375 C-20.7489917 50.19240479 -20.74407715 49.26371582 -20.73901367 48.30688477 C-20.47994257 32.77723305 -18.09895089 15.1724747 -7.03515625 3.37109375 C-3.2608093 -0.17217073 -3.2608093 -0.17217073 0 0 Z " fill="#FD0001" transform="translate(176.44140625,110.12890625)"/>
<path d="M0 0 C2.3242487 3.48637305 3.5053489 7.06434703 4.828125 11 C5.38640133 12.62641107 5.94500607 14.25270945 6.50390625 15.87890625 C7.37435949 18.42687162 8.24181405 20.9757514 9.10302734 23.52685547 C15.66743615 44.26821285 15.66743615 44.26821285 29.9375 59.9375 C34.49330156 61.51808422 38.34901054 61.65454759 42.8671875 59.86328125 C43.85976563 59.35152344 44.85234375 58.83976562 45.875 58.3125 C56.37434181 53.53699292 67.72062838 52.04165552 79 50 C80.85668395 49.66154773 82.71226273 49.31694747 84.56640625 48.96484375 C85.34701416 48.81909912 86.12762207 48.67335449 86.93188477 48.52319336 C90.2323187 47.68824708 92.38674879 46.14867322 95 44 C95.63292969 43.51660156 96.26585937 43.03320312 96.91796875 42.53515625 C99.84771755 40.04984041 101.77550322 38.30724674 102.44140625 34.4296875 C102.43774268 31.916476 102.27496182 29.49647876 102 27 C102 26.01 102 25.02 102 24 C106.65800047 29.49405184 108.38562717 32.12304472 108.26953125 39.46875 C107.69920069 44.82489783 104.49039888 47.77442757 100.5 51 C89.68414413 58.5143916 77.62301786 62.31728599 65.19433594 66.17724609 C51.87057858 70.33979647 40.11911802 74.6149503 33.125 87.4375 C32.75375 88.283125 32.3825 89.12875 32 90 C27.73324325 88.57774775 26.89424266 86.27626838 24.72265625 82.4453125 C16.23857353 65.47714706 11.68453719 46.9471968 6.80953979 28.70556641 C5.76517761 24.80178942 4.69572262 20.90714846 3.58740234 17.02099609 C3.35550705 16.20386642 3.12361176 15.38673676 2.88468933 14.54484558 C2.43843961 12.97712558 1.98805779 11.41057397 1.53291321 9.84541321 C0.55295543 6.39256692 0 3.62096334 0 0 Z " fill="#ABCDDD" transform="translate(329,345)"/>
<path d="M0 0 C0.33 0 0.66 0 1 0 C1.09498779 1.05348633 1.18997559 2.10697266 1.2878418 3.19238281 C4.13877985 34.56970851 7.80106059 65.71568185 13.38842773 96.73144531 C14.48336058 102.8157014 15.40215383 108.84608344 16 115 C14.9584375 114.95359375 13.916875 114.9071875 12.84375 114.859375 C-2.62526253 114.3826776 -14.52547788 117.25499608 -28 125 C-28.13306356 105.63413453 -27.84821884 86.35112023 -27 67 C-26.67 67 -26.34 67 -26 67 C-25.85304688 68.23363281 -25.85304688 68.23363281 -25.703125 69.4921875 C-24.71604669 76.86123762 -23.17185175 83.27220507 -20 90 C-19.67515625 90.72574219 -19.3503125 91.45148438 -19.015625 92.19921875 C-18.09047357 94.20631454 -18.09047357 94.20631454 -15.75 95.25 C-11.32149901 96.457773 -8.40377367 96.78350159 -4.3125 94.5 C1.16440708 88.57901937 1.43515345 81.70095886 1.328125 74.04296875 C1.32625183 73.10052811 1.32437866 72.15808746 1.32244873 71.18708801 C1.31575354 69.19605968 1.30188978 67.20504393 1.28125 65.21411133 C1.25048432 62.23440667 1.24030455 59.25523754 1.234375 56.27539062 C1.19332851 46.29247885 0.93325846 36.35065212 0.34980774 26.38473511 C0.00870524 20.5220137 -0.12442438 14.68578929 -0.0625 8.8125 C-0.05798828 7.94431641 -0.05347656 7.07613281 -0.04882812 6.18164062 C-0.03744371 4.12106092 -0.01954127 2.0605185 0 0 Z " fill="#AACBDB" transform="translate(282,309)"/>
<path d="M0 0 C1.13062613 3.3918784 0.74374269 4.58577182 0 8 C-0.75079335 16.81259077 -0.15483085 23.94682735 5.58984375 30.93359375 C12.56804958 37.79377495 21.84985647 40.33389214 31.16308594 42.46044922 C42.56970932 45.06790618 49.11862843 50.02392771 57.54199219 57.95117188 C62.85221247 62.91010591 68.47059644 66.83732015 75 70 C72.62530816 72.37469184 71.83779287 72.42586219 68.5625 72.625 C59.91510559 72.46278337 53.98737108 65.83894159 47.9375 60.3125 C41.6378198 54.62456561 33.94665434 50.93928884 25.44921875 50.7890625 C23.81243164 50.74652344 23.81243164 50.74652344 22.14257812 50.703125 C19.85106962 50.65131022 17.55937937 50.60696038 15.26757812 50.5703125 C8.52248051 50.37975059 3.55104712 50.04600931 -1.7578125 45.4921875 C-8.14968855 37.93151126 -10.73245397 31.21068361 -10.3828125 21.2109375 C-9.37459898 12.75428944 -5.38240125 6.42299882 0 0 Z " fill="#FCA0B9" transform="translate(220,100)"/>
<path d="M0 0 C0.33 0 0.66 0 1 0 C1.65344102 21.7077973 2.10499039 43.40660972 2.125 65.125 C2.12749756 66.06459564 2.12999512 67.00419128 2.13256836 67.97225952 C2.15435748 77.91213024 1.98799296 87.75261484 1.23583984 97.66699219 C0.88443084 102.63328173 0.7786256 107.58522388 0.75 112.5625 C0.729375 113.49384766 0.70875 114.42519531 0.6875 115.38476562 C0.6407171 123.60101211 3.2237761 128.20297767 8.125 134.75 C11.8876476 139.79442865 13.3936827 142.451408 13.36328125 148.734375 C12.79025123 152.30811064 10.79431681 153.88722387 8 156 C7.67 156 7.34 156 7 156 C6.96261719 155.27554688 6.92523438 154.55109375 6.88671875 153.8046875 C6.82097656 152.83789062 6.75523437 151.87109375 6.6875 150.875 C6.60048828 149.44800781 6.60048828 149.44800781 6.51171875 147.9921875 C5.28091921 140.79529861 0.74975053 136.17090085 -3.94140625 130.87890625 C-7.87417375 125.3790018 -8.31598567 119.53577838 -8.20703125 112.9453125 C-8.200168 112.17043488 -8.19330475 111.39555725 -8.18623352 110.59719849 C-8.04379039 100.67216418 -7.36197728 90.77518451 -6.6875 80.875 C-6.55126113 78.8195968 -6.41527909 76.76417657 -6.27954102 74.70874023 C-5.86445418 68.47168941 -5.43454162 62.23572232 -5 56 C-4.93256592 55.0288324 -4.86513184 54.05766479 -4.7956543 53.05706787 C-4.41368882 47.57068649 -4.02392479 42.08494081 -3.62295532 36.59991455 C-3.50158435 34.93930724 -3.38124327 33.27862425 -3.26205444 31.61785889 C-2.4972057 21.02812719 -1.42118567 10.52215383 0 0 Z " fill="#E6F9F7" transform="translate(249,328)"/>
<path d="M0 0 C-1 3 -1 3 -3.25 4.6875 C-11.17928198 11.3553053 -13.3981371 21.36253879 -16 31 C-16.25007812 31.90492188 -16.50015625 32.80984375 -16.7578125 33.7421875 C-19.6802658 46.62567879 -19.92513873 62.05453958 -14 74 C-13.67 74.99 -13.34 75.98 -13 77 C-12.34 77 -11.68 77 -11 77 C-11.33 78.32 -11.66 79.64 -12 81 C-14.125 81.8125 -14.125 81.8125 -17 82 C-24.21140835 77.73202363 -26.09018343 70.77541461 -28.08984375 63.00390625 C-29.39087982 56.93198477 -29.32971124 50.8732196 -29.3125 44.6875 C-29.32861328 43.54087891 -29.34472656 42.39425781 -29.36132812 41.21289062 C-29.36916297 27.3687111 -25.95831446 15.57766345 -17.5 4.5 C-11.84348606 -1.15651394 -7.48856643 -1.38122447 0 0 Z " fill="#FB9FB7" transform="translate(173,107)"/>
<path d="M0 0 C3.00480569 3.00480569 2.83192114 6.66914658 3.35546875 10.7265625 C4.80000361 21.07010931 6.68476602 31.28877103 8.74194336 41.52636719 C9.31045751 44.36480239 9.86553092 47.20565196 10.41992188 50.046875 C13.54780236 65.84250996 17.54330863 81.35088808 22.3997345 96.70455933 C23.42331934 100.61879104 23.53232761 104.47231099 23.5 108.5 C23.49500488 109.32806152 23.49000977 110.15612305 23.48486328 111.00927734 C23.29440583 117.6884232 21.87997064 122.49164789 18 128 C17.46117187 128.80953125 16.92234375 129.6190625 16.3671875 130.453125 C15.34628594 131.9820114 14.30449109 133.49733461 13.234375 134.9921875 C10.77364084 138.99477407 10.76096336 143.12909481 10.4375 147.75 C10.35371094 148.92046875 10.26992188 150.0909375 10.18359375 151.296875 C10.12300781 152.18890625 10.06242187 153.0809375 10 154 C5.1857844 152.38986739 3.41390162 150.6051844 0.9609375 146.26953125 C-0.69665961 142.35463725 -0.96347513 139.14294307 0 135 C2.81378084 128.71853151 7.10289135 123.36522278 11.484375 118.10546875 C16.08774263 111.71058434 15.60951283 104.71712834 14.63833618 97.20101929 C14.13997753 94.27142038 13.57698822 91.3619851 12.98828125 88.44921875 C12.55757048 86.21830215 12.12707776 83.98734344 11.69677734 81.75634766 C11.47028503 80.6016095 11.24379272 79.44687134 11.01043701 78.25714111 C7.49491423 60.27678697 4.20897178 42.29964173 1.875 24.125 C1.77313385 23.34498627 1.6712677 22.56497253 1.5663147 21.76132202 C0.62422878 14.4749173 -0.0960847 7.3540193 0 0 Z " fill="#ABCDDC" transform="translate(289,328)"/>
<path d="M0 0 C0.96468152 3.06689131 0.98725998 5.09148276 0.2590332 8.2109375 C0.07166092 9.03279541 -0.11571136 9.85465332 -0.3087616 10.70141602 C-0.52011246 11.58369873 -0.73146332 12.46598145 -0.94921875 13.375 C-1.16310745 14.29531006 -1.37699615 15.21562012 -1.59736633 16.16381836 C-2.05296602 18.1149594 -2.51306174 20.06505523 -2.97729492 22.01416016 C-3.67769184 24.95876459 -4.36246922 27.90666031 -5.04492188 30.85546875 C-7.27636393 40.399614 -9.58012619 49.79945975 -13 59 C-14.32 59 -15.64 59 -17 59 C-17.30550781 58.27296875 -17.61101562 57.5459375 -17.92578125 56.796875 C-20.78992786 50.50382048 -23.79929434 45.71419827 -28.5625 40.75 C-36.24438008 32.74396824 -40.92054152 25.79848801 -41.25 14.5 C-41.15821011 10.10173459 -40.22604472 6.21452871 -39 2 C-38.67 2 -38.34 2 -38 2 C-37.89042969 3.01320313 -37.78085938 4.02640625 -37.66796875 5.0703125 C-37.50840107 6.42194461 -37.34821167 7.77350343 -37.1875 9.125 C-37.11724609 9.79015625 -37.04699219 10.4553125 -36.97460938 11.140625 C-36.29734814 16.66707669 -35.05582224 21.22970862 -30.75 24.9375 C-27.01736626 26.37965394 -24.85321056 26.01400278 -21 25 C-10.93694513 19.86141879 -5.18955205 9.58445395 0 0 Z " fill="#AACDDC" transform="translate(115,326)"/>
<path d="M0 0 C5.46780185 1.48833988 8.76628323 5.2701025 12.625 9.1875 C13.33213135 9.90365479 14.0392627 10.61980957 14.76782227 11.35766602 C39.96952135 37.38349243 48.25709748 69.26906529 56.05615234 103.7175293 C60.55947504 123.43779753 66.69668304 138.44990062 80 154 C74.45956665 154 70.75561512 148.73795549 67 145 C52.79237686 129.61371754 49.11269985 107.51196039 45.4375 87.6875 C39.71764186 56.95952484 26.07692411 33.12398224 6.3046875 8.91015625 C4.01646453 6.02078996 1.99972104 3.0917346 0 0 Z " fill="#E6F9F7" transform="translate(312,79)"/>
<path d="M0 0 C3.51941823 2.47718708 6.77830981 5.14939454 10 8 C10.62519531 8.51949219 11.25039063 9.03898437 11.89453125 9.57421875 C15.92410865 13.18537502 18.66407676 17.41260619 21.375 22.0625 C21.72127441 22.65240723 22.06754883 23.24231445 22.42431641 23.85009766 C24.48706633 27.55064 25.55170613 30.79244185 26 35 C23.06528438 32.15421516 20.33241032 29.24308235 17.6875 26.125 C7.6310396 14.64728396 -5.50542096 6.00492882 -20.9765625 4.65234375 C-29.99344729 4.22465741 -38.21460605 4.90616389 -46 10 C-48.19755347 12.48227181 -48.19755347 12.48227181 -50 15 C-50.66 15.66 -51.32 16.32 -52 17 C-52.48037069 9.74106508 -52.35374176 4.04368099 -48 -2 C-35.26379307 -15.46399018 -13.47936297 -8.09856178 0 0 Z " fill="#C40001" transform="translate(273,99)"/>
<path d="M0 0 C0.66 0 1.32 0 2 0 C13.78658376 16.1317482 18.62297792 33.18862296 17 53 C15.52178657 60.84950044 11.4751052 65.51320993 5 70 C0.43017572 72.76594628 -4.80920878 72.61396455 -10 72 C-20.08876648 69.16906553 -27.85853686 59.35715813 -34.69921875 51.9453125 C-40.52968719 47.01564649 -46.59773211 46.48454582 -53.9375 46 C-60.50387664 45.56455076 -65.98648173 44.79511017 -72 42 C-72.66 41.01 -73.32 40.02 -74 39 C-72.81664062 39.23396484 -72.81664062 39.23396484 -71.609375 39.47265625 C-67.15225161 40.12385934 -62.74680787 40.27104473 -58.25 40.4375 C-43.04433207 41.14668632 -34.78311956 43.48528503 -23.5 54.125 C-17.92160897 59.29104135 -12.68946928 62.98722382 -4.9375 63.5 C1.28181345 62.71024591 5.40516293 60.92198313 9.4375 56.0625 C15.33236132 44.50857182 11.73747947 29.77524598 8 18 C5.75683674 11.81368458 2.98117562 5.86297872 0 0 Z " fill="#ABCCDB" transform="translate(294,113)"/>
<path d="M0 0 C3.20696825 1.41137967 5.87453296 3.3299268 8.66870117 5.42749023 C22.50852093 15.77535823 36.73063752 21.1259834 54 22 C53.7834375 22.93199219 53.566875 23.86398437 53.34375 24.82421875 C51.47959706 33.35962273 50.59996756 41.21410228 51 50 C42.80183178 46.36062626 36.04766394 39.24733525 29.8828125 32.8828125 C28.05815709 31.05815709 26.1644283 29.40677797 24.1875 27.75 C15.18518432 19.98329628 7.180511 10.44990707 0 1 C0 0.67 0 0.34 0 0 Z " fill="#AACCDC" transform="translate(358,298)"/>
<path d="M0 0 C2.6043716 2.6043716 2.68871205 4.46644228 3.41015625 8.0703125 C3.67320557 9.34398682 3.93625488 10.61766113 4.20727539 11.92993164 C4.34602081 12.61282257 4.48476624 13.2957135 4.62771606 13.9992981 C7.17923366 26.4739214 10.12795769 38.80204919 13.5625 51.0625 C13.7399173 51.70729309 13.91733459 52.35208618 14.10012817 53.01641846 C19.60808426 72.95425636 26.93728176 93.14762584 43.3984375 106.58984375 C45 108 45 108 46 110 C46.039992 111.99960012 46.04346799 114.00047242 46 116 C45.01 116 44.02 116 43 116 C42.938125 115.21625 42.87625 114.4325 42.8125 113.625 C42.544375 112.75875 42.27625 111.8925 42 111 C40.34750513 110.29894157 38.67632417 109.64199649 37 109 C12.17125927 90.93800203 6.19656883 51.99200758 1.55859375 23.6015625 C0.32476807 15.64640672 -0.13555803 8.05817181 0 0 Z " fill="#E5F8F6" transform="translate(323,341)"/>
<path d="M0 0 C0.639375 0.66 1.27875 1.32 1.9375 2 C12.84373037 12.81432394 23.8211742 19.19972209 38 25 C40.49013573 26.02070608 42.97900478 27.04416441 45.46508789 28.07470703 C47.11665253 28.75900166 48.77068968 29.43736844 50.42749023 30.10888672 C55.01429769 32.00764082 58.96918223 34.09879885 63 37 C63.598125 37.4125 64.19625 37.825 64.8125 38.25 C66.88495696 41.30414709 66.82615355 44.34922447 67 48 C66.01 48.99 66.01 48.99 65 50 C64.54625 49.113125 64.0925 48.22625 63.625 47.3125 C58.88545634 40.38172896 49.71879252 38.51277213 42.125 36.0625 C24.15057649 30.25127591 10.43307923 21.85485516 1.27734375 4.7890625 C0 2 0 2 0 0 Z " fill="#E7FAF9" transform="translate(359,239)"/>
<path d="M0 0 C2.85075158 1.98313153 3.07766501 3.33839755 3.875 6.8125 C4.34430271 12.04187311 2.29435358 15.20622689 -0.7109375 19.37109375 C-3.3212984 22.36899969 -6.19515124 24.6220308 -9.4375 26.875 C-9.99759766 27.29007813 -10.55769531 27.70515625 -11.13476562 28.1328125 C-13.67513465 29.91136724 -15.31713829 31.05098197 -18.47216797 30.81542969 C-21.36724121 29.88153509 -22.57172045 28.85587913 -24.63671875 26.6484375 C-25.29220703 25.96458984 -25.94769531 25.28074219 -26.62304688 24.57617188 C-27.30431641 23.84978516 -27.98558594 23.12339844 -28.6875 22.375 C-34.4063137 16.44651394 -39.88926407 11.23909257 -47 7 C-44 6 -44 6 -41.58203125 7.0390625 C-40.66808594 7.56242187 -39.75414062 8.08578125 -38.8125 8.625 C-37.83152344 9.17671875 -36.85054688 9.7284375 -35.83984375 10.296875 C-33.43636636 11.73830023 -31.16830994 13.26922161 -28.875 14.875 C-24.61852799 17.55918337 -20.91483985 17.91238708 -16 17 C-9.81623269 15.07817104 -5.52144275 11.38641736 -2 6 C-0.60794936 2.75381554 -0.60794936 2.75381554 0 0 Z " fill="#AACBDA" transform="translate(358,66)"/>
<path d="M0 0 C0.33 0 0.66 0 1 0 C1.18535803 9.34047547 0.64827049 18.46176889 -0.3125 27.75 C-0.45229388 29.13084466 -0.5919395 30.51170433 -0.73144531 31.89257812 C-1.1427393 35.92964654 -1.57032144 39.9648478 -2 44 C-2.10683105 45.02544922 -2.21366211 46.05089844 -2.32373047 47.10742188 C-5.50471943 77.21451608 -9.9251056 107.43666774 -16.0546875 137.0859375 C-16.87047664 141.08377223 -17.40053977 145.04820885 -17.75830078 149.11181641 C-18 151 -18 151 -19 154 C-19.33 154 -19.66 154 -20 154 C-20.17754086 147.04129714 -19.69134208 140.40817564 -18.6796875 133.52734375 C-18.5406752 132.54383942 -18.4016629 131.56033508 -18.25843811 130.54702759 C-17.80381116 127.342884 -17.3393629 124.14024569 -16.875 120.9375 C-16.55350892 118.68034381 -16.23263492 116.42309964 -15.91235352 114.16577148 C-14.45079096 103.89889463 -12.95498412 93.63748726 -11.41015625 83.3828125 C-10.91833079 80.10951535 -10.42754102 76.83606475 -9.9375 73.5625 C-9.81772797 72.7647113 -9.69795593 71.96692261 -9.57455444 71.1449585 C-6.94822083 53.55375782 -4.9058238 35.89593907 -2.91577148 18.22290039 C-2.79461975 17.15680542 -2.67346802 16.09071045 -2.54864502 14.99230957 C-2.32056423 12.9804976 -2.09584158 10.96830127 -1.87493896 8.95568848 C-1.72354462 7.62036072 -1.72354462 7.62036072 -1.5690918 6.25805664 C-1.48282028 5.48015274 -1.39654877 4.70224884 -1.30766296 3.90077209 C-1 2 -1 2 0 0 Z " fill="#E4F5F4" transform="translate(196,249)"/>
<path d="M0 0 C0.33 0 0.66 0 1 0 C1.59586715 30.96370155 -0.68900921 60.89798116 -5.4375 91.5 C-5.5825296 92.43614136 -5.7275592 93.37228271 -5.87698364 94.33679199 C-11.16248207 128.10597716 -11.16248207 128.10597716 -16.25 142.1875 C-16.6521875 143.34668945 -16.6521875 143.34668945 -17.0625 144.52929688 C-17.69804095 146.3564771 -18.34727197 148.1788888 -19 150 C-19.98757703 146.88665134 -19.96683027 144.85907868 -19.21484375 141.6953125 C-19.01705322 140.82318115 -18.8192627 139.9510498 -18.61547852 139.05249023 C-18.39174561 138.08641846 -18.1680127 137.12034668 -17.9375 136.125 C-8.19759479 91.51671545 -3.09323517 45.50576454 0 0 Z " fill="#712A3B" transform="translate(197,249)"/>
<path d="M0 0 C1.39497776 0.79317328 2.79075228 1.58494772 4.1875 2.375 C7.16442967 4.24913994 9.40958176 6.37406293 11.8125 8.9375 C16.20597205 13.55897659 21.30808964 16.23774939 27 19 C24.62530816 21.37469184 23.83779287 21.42586219 20.5625 21.625 C11.91510559 21.46278337 5.98737108 14.83894159 -0.0625 9.3125 C-6.39286483 3.59686068 -14.09185537 -0.04326055 -22.62109375 -0.24609375 C-23.72130859 -0.27896484 -24.82152344 -0.31183594 -25.95507812 -0.34570312 C-28.27268939 -0.40679551 -30.59040365 -0.46410048 -32.90820312 -0.51757812 C-34.00970703 -0.55173828 -35.11121094 -0.58589844 -36.24609375 -0.62109375 C-37.25341553 -0.6461499 -38.2607373 -0.67120605 -39.29858398 -0.69702148 C-41.99816145 -0.9997938 -43.68422121 -1.62169975 -46 -3 C-46 -3.33 -46 -3.66 -46 -4 C-12.12290301 -8.43770159 -12.12290301 -8.43770159 0 0 Z " fill="#FBD9D7" transform="translate(268,151)"/>
<path d="M0 0 C5.31363726 1.83591424 9.10587112 7.22196757 11.74609375 12.0390625 C12.42719318 13.62505118 13.01016208 15.25275151 13.56640625 16.88671875 C12.72078125 16.9846875 11.87515625 17.08265625 11.00390625 17.18359375 C-0.85752463 18.747146 -6.75839355 21.85065138 -15.4296875 30.05859375 C-17.43359375 31.88671875 -17.43359375 31.88671875 -18.43359375 31.88671875 C-17.88006318 20.81610738 -13.70163645 9.65238129 -5.49609375 1.94921875 C-2.43359375 -0.11328125 -2.43359375 -0.11328125 0 0 Z " fill="#C40001" transform="translate(176.43359375,110.11328125)"/>
<path d="M0 0 C12.90072131 13.79042622 11.57597812 40.72418695 11.06347656 58.14599609 C11.0425293 58.75781738 11.02158203 59.36963867 11 60 C10.67 59.34 10.34 58.68 10 58 C9.34 58 8.68 58 8 58 C4.98348518 50.31035976 2.52871292 42.69309387 0.75 34.625 C0.58725586 33.88910645 0.42451172 33.15321289 0.25683594 32.39501953 C-1.26974829 25.19803381 -2.14688116 18.12638177 -2.1875 10.75 C-2.20167969 9.56921875 -2.21585938 8.3884375 -2.23046875 7.171875 C-2.012093 4.16643241 -1.57799571 2.51980343 0 0 Z " fill="#AACBDA" transform="translate(236,216)"/>
<path d="M0 0 C-1 3 -1 3 -3.25 4.6875 C-13.43946861 13.25591678 -16.21033854 29.39223568 -18 42 C-18.33 42 -18.66 42 -19 42 C-19.09796875 41.41992188 -19.1959375 40.83984375 -19.296875 40.2421875 C-20.491502 34.00129126 -22.41856281 29.58143719 -27 25 C-26.37361505 16.42334451 -20.99352551 7.99352551 -15 2 C-9.88680121 -1.60248097 -5.86211125 -1.08123385 0 0 Z " fill="#EB7290" transform="translate(173,107)"/>
<path d="M0 0 C0.33 0 0.66 0 1 0 C1.01458252 0.78536133 1.02916504 1.57072266 1.04418945 2.37988281 C1.11953041 6.00370292 1.21590261 9.6266866 1.3125 13.25 C1.33505859 14.48492187 1.35761719 15.71984375 1.38085938 16.9921875 C1.73601714 29.26127391 3.47746966 41.16950194 11.375 50.9375 C14.51744153 53.4065612 15.9984774 54.07846123 20 54 C23.66283595 52.85629816 26.97128735 51.40132957 29.28198242 48.25366211 C30.34305952 46.17942422 31.27739368 44.08212798 32.1875 41.9375 C36.3975216 32.9709128 42.03521931 27.69968077 50 22 C50 25 50 25 48.78515625 26.4453125 C48.21667969 26.99960938 47.64820313 27.55390625 47.0625 28.125 C43.28374643 32.21611021 41.01527552 36.62306645 38.5625 41.5625 C34.89155149 48.86668987 31.15187482 55.28270839 23 58 C18.14425994 58.50981092 14.17554625 58.53232283 9.6875 56.5 C1.496983 48.88091442 -1.60744432 38.40263819 -2.11816406 27.47070312 C-2.19773656 24.58393377 -2.23421048 21.70030741 -2.25 18.8125 C-2.25918457 17.87414307 -2.26836914 16.93578613 -2.27783203 15.96899414 C-2.25280542 10.30647355 -1.60864814 5.43237925 0 0 Z " fill="#ABCCDB" transform="translate(139,138)"/>
<path d="M0 0 C3.19611485 3.02980118 5.76429748 6.27067661 8.375 9.8125 C21.39032462 27.0420757 37.06992474 41.42358731 54.46142578 54.1015625 C55.71028564 55.01421875 55.71028564 55.01421875 56.984375 55.9453125 C58.10924316 56.75766357 58.10924316 56.75766357 59.25683594 57.58642578 C61 59 61 59 62 61 C43.91150012 58.84017912 27.05059652 42.13925489 16.08203125 28.42578125 C0 7.55318248 0 7.55318248 0 0 Z " fill="#E7FAF9" transform="translate(356,301)"/>
<path d="M0 0 C27.35142985 -0.56524195 27.35142985 -0.56524195 37.87109375 8.63671875 C39.00154686 9.79850082 40.11752881 10.97453583 41.21875 12.1640625 C47.96031654 19.11260696 55.25291974 24.02529197 65 25 C64.42655063 27.86724686 64.1385485 28.8614515 62 31 C56.21494762 31.94449835 52.99467973 30.28489434 48.43359375 27.0390625 C45.66940394 24.72299977 43.27925159 22.1922528 40.8125 19.5625 C30.04904642 8.21003033 14.75830341 4.52101655 0 1 C0 0.67 0 0.34 0 0 Z " fill="#FC4C55" transform="translate(237,136)"/>
<path d="M0 0 C2.1222302 1.05620253 4.22829242 2.12378694 6.3125 3.25390625 C15.94004605 7.94173754 25.45746222 7.8854072 36 8 C36.33 7.01 36.66 6.02 37 5 C38.85131483 8.92857754 39.22004943 11.98775112 39.125 16.3125 C39.10695313 17.38113281 39.08890625 18.44976562 39.0703125 19.55078125 C39.04710937 20.35902344 39.02390625 21.16726563 39 22 C32.88718071 21.49196408 28.11738279 19.53803957 22.625 16.875 C21.78445068 16.47120117 20.94390137 16.06740234 20.07788086 15.65136719 C12.11335847 11.72756049 5.16181569 7.40608338 0 0 Z " fill="#ABCDDC" transform="translate(362,238)"/>
<path d="M0 0 C1.13062613 3.3918784 0.74374269 4.58577182 0 8 C-0.65611415 15.70127432 -0.47303695 22.47212255 4 29 C8.33987376 33.82940399 12.90999221 36.84312224 19 39 C19 39.33 19 39.66 19 40 C15.32052475 40.33939523 13.48139957 40.30851739 10.32421875 38.28515625 C9.01904297 37.18494141 9.01904297 37.18494141 7.6875 36.0625 C2.58358384 32.12300187 -0.55738576 30.79547256 -7 31 C-7.66 31.66 -8.32 32.32 -9 33 C-11.52332039 27.95335922 -10.61760766 20.5304268 -9.31640625 15.19921875 C-7.15215978 9.42490139 -3.94552196 4.70832287 0 0 Z " fill="#EA7290" transform="translate(220,100)"/>
<path d="M0 0 C0.66 0 1.32 0 2 0 C3.95162875 7.84784888 4.33501611 15.37222967 4.3125 23.4375 C4.32861328 24.58798828 4.34472656 25.73847656 4.36132812 26.92382812 C4.36556782 34.40688315 3.37420849 40.90073033 1 48 C0.34 48 -0.32 48 -1 48 C-6.37787056 12.75574113 -6.37787056 12.75574113 0 0 Z " fill="#E8FFFD" transform="translate(216,294)"/>
<path d="M0 0 C4.33481168 3.90592572 6.95556617 7.96099859 9.625 13.125 C10.01816406 13.87837646 10.41132813 14.63175293 10.81640625 15.40795898 C13.71542657 21.11388008 15.87173476 26.67327905 17 33 C17.12761719 33.6909375 17.25523437 34.381875 17.38671875 35.09375 C18.19312015 40.37201371 18.09816245 45.67741374 18 51 C17.34 51 16.68 51 16 51 C12.5787783 42.97818773 9.96948187 34.776388 7.4375 26.4375 C6.66705408 23.9148436 5.89411589 21.39296326 5.12109375 18.87109375 C4.75999512 17.6888623 4.39889648 16.50663086 4.02685547 15.28857422 C3.13621628 12.43624188 2.19657621 9.60980975 1.22265625 6.78515625 C0 3 0 3 0 0 Z " fill="#E9FFFD" transform="translate(288,215)"/>
<path d="M0 0 C0.66 0 1.32 0 2 0 C2.54699944 11.79087692 0.65697663 24.51090129 -7.53125 33.72265625 C-9.22675102 35.19720102 -10.99537211 35.99768605 -13 37 C-14.0194119 37.98020375 -15.02246356 38.97803008 -16 40 C-14.02096672 33.22995545 -11.88380668 26.53524577 -9.5625 19.875 C-9.27568359 19.03324219 -8.98886719 18.19148438 -8.69335938 17.32421875 C-4.08544515 4.08544515 -4.08544515 4.08544515 0 0 Z " fill="#ABCDDC" transform="translate(154,215)"/>
<path d="M0 0 C4.9375 2.9625 4.9375 2.9625 6.8125 4.6875 C6.8125 5.3475 6.8125 6.0075 6.8125 6.6875 C5.75675781 6.57921875 5.75675781 6.57921875 4.6796875 6.46875 C-9.62221895 5.12444548 -21.55233613 4.50158533 -34.25 12 C-35.219375 12.556875 -36.18875 13.11375 -37.1875 13.6875 C-37.8475 13.3575 -38.5075 13.0275 -39.1875 12.6875 C-30.42573598 0.99547715 -14.4110069 -6.022981 0 0 Z " fill="#6E2638" transform="translate(256.1875,71.3125)"/>
<path d="M0 0 C10.71052877 -0.75544482 17.69880922 0.67249732 26.0625 7.5 C28.10607306 10.13686846 28.82101224 11.68872638 29 15 C28.67 15.66 28.34 16.32 28 17 C19.86304398 16.72876813 14.06820635 13.91083499 7 10 C7 9.67 7 9.34 7 9 C8.65 9 10.3 9 12 9 C8.25572134 4.80186938 5.1596937 2.92223883 0 1 C0 0.67 0 0.34 0 0 Z " fill="#DFECEC" transform="translate(251,69)"/>
<path d="M0 0 C9.31350808 4.28137299 13.99662087 12.93048904 18 22 C21.51001717 32.46994848 21.51001717 32.46994848 20 37 C19.32845067 35.71086513 18.66291141 34.41859796 18 33.125 C17.62875 32.40570313 17.2575 31.68640625 16.875 30.9453125 C16 29 16 29 16 27 C15.01 27 14.02 27 13 27 C12.48050781 26.02160156 11.96101563 25.04320312 11.42578125 24.03515625 C10.72140857 22.71090856 10.01697761 21.38669187 9.3125 20.0625 C8.94962891 19.37897461 8.58675781 18.69544922 8.21289062 17.99121094 C5.83253089 13.52010894 3.3840056 9.09916739 0.8125 4.734375 C0 3 0 3 0 0 Z " fill="#AAC9D8" transform="translate(315,226)"/>
<path d="M0 0 C7.54024616 0.18850615 11.80100053 5.75102327 16.75 10.8125 C18.78447219 13.04943812 18.78447219 13.04943812 21.03125 13.87890625 C24.18385395 15.67413905 24.47295019 18.20100144 25.47265625 21.53515625 C26.23946982 25.11929967 26.19931169 28.34595241 26 32 C24.19140625 31.8203125 24.19140625 31.8203125 22 31 C20.40234375 28.7421875 20.40234375 28.7421875 18.9375 25.875 C18.15826172 24.37453125 18.15826172 24.37453125 17.36328125 22.84375 C16 20 16 20 14.625 16.375 C11.4347506 9.7490974 5.94591741 4.27362814 0 0 Z " fill="#ACD1E0" transform="translate(325,184)"/>
<path d="M0 0 C0.33 0 0.66 0 1 0 C1.23441945 14.16254136 0.98491946 27.96378382 -1 42 C-1.66 42 -2.32 42 -3 42 C-2.83822266 42.5762915 -2.67644531 43.15258301 -2.50976562 43.74633789 C-0.85500508 51.06199623 -2.37319322 58.76871019 -3.5 66.0625 C-3.64308594 67.02349609 -3.78617188 67.98449219 -3.93359375 68.97460938 C-4.28325586 71.3173455 -4.6388144 73.65901777 -5 76 C-5.99 76 -6.98 76 -8 76 C-7.8142194 74.30830373 -7.62821913 72.61663142 -7.44140625 70.92504883 C-7.26747309 69.34944852 -7.09433544 67.77376024 -6.921875 66.19799805 C-6.40314326 61.49610341 -5.85598793 56.79942203 -5.26953125 52.10546875 C-3.57490244 38.3459491 -2.40367129 24.62853399 -1.64648438 10.7902832 C-1.57494141 9.52788818 -1.50339844 8.26549316 -1.4296875 6.96484375 C-1.37022949 5.8368335 -1.31077148 4.70882324 -1.24951172 3.54663086 C-1 1 -1 1 0 0 Z " fill="#E3F9F7" transform="translate(199,265)"/>
<path d="M0 0 C2.61475349 0.3662909 3.75798921 0.73439316 5.5625 2.71484375 C9.99516762 9.56861516 14.3869333 16.60652384 14 25 C12.68 25 11.36 25 10 25 C4.86017368 19.78345986 0.20753883 9.34645602 -0.13671875 2.13671875 C-0.09160156 1.43160156 -0.04648437 0.72648437 0 0 Z " fill="#E9FFFD" transform="translate(319,124)"/>
<path d="M0 0 C0.61875 0.515625 1.2375 1.03125 1.875 1.5625 C1.875 1.8925 1.875 2.2225 1.875 2.5625 C0.35132813 2.78292969 0.35132813 2.78292969 -1.203125 3.0078125 C-9.57843473 4.33463466 -16.40428965 6.18280198 -23.8671875 10.453125 C-24.61226562 10.81921875 -25.35734375 11.1853125 -26.125 11.5625 C-26.785 11.2325 -27.445 10.9025 -28.125 10.5625 C-21.00056907 1.38979518 -11.89608596 -5.47219954 0 0 Z " fill="#6D2436" transform="translate(176.125,89.4375)"/>
<path d="M0 0 C13.58503427 0.94404475 24.82279638 7.71930945 34.1796875 17.22265625 C35.7923822 18.71522947 37.41702613 20.19501999 39.0546875 21.66015625 C39.75335938 22.29824219 40.45203125 22.93632812 41.171875 23.59375 C43.10407378 25.29373283 43.10407378 25.29373283 45.375 26.2578125 C47.1796875 27.22265625 47.1796875 27.22265625 48.1796875 30.22265625 C43.65206355 28.97005712 40.93015763 27.47053129 37.5546875 24.22265625 C36.69488281 23.42472656 35.83507812 22.62679687 34.94921875 21.8046875 C34.03527344 20.95261719 33.12132812 20.10054687 32.1796875 19.22265625 C20.95621448 8.95819829 10.96720265 5.32591857 -3.8203125 2.22265625 C-1.8203125 0.22265625 -1.8203125 0.22265625 0 0 Z " fill="#792134" transform="translate(244.8203125,138.77734375)"/>
<path d="M0 0 C-2.31 2.64 -4.62 5.28 -7 8 C-4.03 7.01 -1.06 6.02 2 5 C0.71135185 8.86594445 -0.85311663 9.52130566 -4.25 11.6875 C-5.68085938 12.62142578 -5.68085938 12.62142578 -7.140625 13.57421875 C-10.09378911 15.04676643 -11.75784127 15.31356645 -15 15 C-14.61880232 9.37733421 -14.26439336 6.03388561 -10 2 C-5.8686018 -0.58212387 -4.84235637 -1.21058909 0 0 Z " fill="#E8FBFA" transform="translate(156,92)"/>
<path d="M0 0 C0.33 0 0.66 0 1 0 C3.91037886 13.04129687 3.09787128 28.31874969 -1 41 C-1.28617188 41.91652344 -1.57234375 42.83304687 -1.8671875 43.77734375 C-2.54222236 45.86352291 -3.26474261 47.93427685 -4 50 C-5.13389327 46.59832018 -4.82067155 45.24151664 -4.12890625 41.77734375 C-2.80552653 34.39819622 -2.36127427 27.03935216 -1.9375 19.5625 C-1.78428278 16.91767134 -1.62555302 14.27330422 -1.46484375 11.62890625 C-1.36610962 9.8974939 -1.36610962 9.8974939 -1.26538086 8.13110352 C-1.02927028 5.34534617 -0.61503505 2.72381775 0 0 Z " fill="#722E3F" transform="translate(154,277)"/>
<path d="M0 0 C2.22013951 2.22013951 2.71598135 3.6952805 3.75 6.625 C6.02408439 12.48840416 9.03375243 17.8335799 14.1875 21.59765625 C14.785625 22.06042969 15.38375 22.52320313 16 23 C16 23.66 16 24.32 16 25 C13.875 25.8125 13.875 25.8125 11 26 C4.89721191 22.38814582 3.16448264 17.54894747 1 11 C0.67 10.01 0.34 9.02 0 8 C-0.12781786 5.32605036 -0.04391871 2.67904143 0 0 Z " fill="#FAD7D5" transform="translate(145,163)"/>
<path d="M0 0 C1.74272069 3.12344918 2.540769 6.0035422 3.21875 9.5078125 C3.53392578 11.11269531 3.53392578 11.11269531 3.85546875 12.75 C4.06816406 13.86375 4.28085938 14.9775 4.5 16.125 C4.71269531 17.21554688 4.92539063 18.30609375 5.14453125 19.4296875 C5.56593522 21.59099864 5.98411581 23.75294097 6.39892578 25.91552734 C6.956686 28.77772986 7.55030663 31.63040603 8.1484375 34.484375 C9.07552443 39.10022331 9.15164922 43.2988743 9 48 C6.87453759 44.32531165 5.99693574 40.41110609 5.0625 36.3125 C4.89137695 35.56863037 4.72025391 34.82476074 4.54394531 34.05834961 C-0.54741281 11.49566899 -0.54741281 11.49566899 0 0 Z " fill="#723041" transform="translate(238,228)"/>
<path d="M0 0 C0.33 0 0.66 0 1 0 C1.09796875 0.94101563 1.1959375 1.88203125 1.296875 2.8515625 C2.39067034 11.96023745 3.69201395 17.90001884 11.140625 23.83203125 C14.82161251 26.14424819 18.91723896 27.55570311 23 29 C23 29.66 23 30.32 23 31 C15.59575923 30.68492592 10.4786117 27.30098046 5.1640625 22.2578125 C-0.25730138 16.30753507 -1.22701816 10.97502929 -1.16796875 3.07421875 C-1 1 -1 1 0 0 Z " fill="#75192B" transform="translate(220,109)"/>
<path d="M0 0 C0.66 0 1.32 0 2 0 C4.49151132 3.73726697 4.5545813 7.66783595 4 12 C3.18884568 14.48972801 2.17663958 16.64672083 1 19 C0.34 19 -0.32 19 -1 19 C-1.81564858 15.41114625 -2.16216156 12.05414195 -2.1875 8.375 C-2.20167969 7.43398438 -2.21585938 6.49296875 -2.23046875 5.5234375 C-2 3 -2 3 0 0 Z " fill="#AFD4E2" transform="translate(252,270)"/>
<path d="M0 0 C5.42800853 0.13570021 8.22150143 2.33801193 12.02734375 5.89453125 C15.15592738 9.23375219 18.14085084 12.79163307 20 17 C19.65234375 19.26953125 19.65234375 19.26953125 19 21 C18.57589844 20.443125 18.15179688 19.88625 17.71484375 19.3125 C9.7611873 8.77928951 9.7611873 8.77928951 0 0 Z " fill="#722F40" transform="translate(325,184)"/>
<path d="M0 0 C1.37095998 2.60830945 2.38186557 5.12719305 3.25 7.9375 C4.85275413 12.38036768 7.19580413 14.29479405 11 17 C10.67 18.32 10.34 19.64 10 21 C7.6875 20.8125 7.6875 20.8125 5 20 C3.3125 17.75 3.3125 17.75 2 15 C1.608125 14.278125 1.21625 13.55625 0.8125 12.8125 C-0.41329649 8.5693583 -0.15331105 4.38639943 0 0 Z " fill="#FA4850" transform="translate(156,161)"/>
<path d="M0 0 C0.33 0 0.66 0 1 0 C1.34269509 5.04696403 0.17760482 8.91267122 -1.75 13.5 C-2.12898437 14.45712891 -2.12898437 14.45712891 -2.515625 15.43359375 C-4.24718601 19.66726042 -6.35264323 23.27068003 -9 27 C-10 25 -10 25 -9.30322266 22.58569336 C-8.73933838 21.1027478 -8.73933838 21.1027478 -8.1640625 19.58984375 C-7.75929687 18.51798828 -7.35453125 17.44613281 -6.9375 16.34179688 C-6.504375 15.21837891 -6.07125 14.09496094 -5.625 12.9375 C-4.98691406 11.24657227 -4.98691406 11.24657227 -4.3359375 9.52148438 C-1.15103407 1.15103407 -1.15103407 1.15103407 0 0 Z " fill="#733243" transform="translate(148,228)"/>
<path d="M0 0 C3.96561928 3.62375555 6.33672454 6.99505804 8.75 11.875 C9.34296875 13.04804688 9.9359375 14.22109375 10.546875 15.4296875 C12.05772025 19.14181805 12.61579577 22.04674072 13 26 C10.81333556 23.22548839 9.10191158 20.46059568 7.51953125 17.3046875 C7.07802734 16.42425781 6.63652344 15.54382813 6.18164062 14.63671875 C5.72982422 13.72535156 5.27800781 12.81398437 4.8125 11.875 C4.34908203 10.95589844 3.88566406 10.03679687 3.40820312 9.08984375 C2.97056641 8.21199219 2.53292969 7.33414063 2.08203125 6.4296875 C1.68218018 5.62772949 1.2823291 4.82577148 0.87036133 3.99951172 C0 2 0 2 0 0 Z " fill="#712D3F" transform="translate(323,237)"/>
<path d="M0 0 C0.33 0 0.66 0 1 0 C1 10.89 1 21.78 1 33 C0.01 32.67 -0.98 32.34 -2 32 C-1.4699529 21.32011479 -0.89918304 10.65627556 0 0 Z " fill="#7D4352" transform="translate(197,249)"/>
<path d="M0 0 C0.66 0.33 1.32 0.66 2 1 C3.29721449 4.89164348 3.13033993 7.89429226 3 12 C2.67 12.66 2.34 13.32 2 14 C0.68 13.34 -0.64 12.68 -2 12 C-2.17835515 7.45194365 -1.99785435 4.1205746 0 0 Z " fill="#E9FFFD" transform="translate(310,263)"/>
<path d="M0 0 C0.99 0 1.98 0 3 0 C4.51233701 6.46794133 5.21432579 12.35590042 5 19 C2.8172154 15.31773729 2.1441596 11.40189215 1.375 7.25 C1.2409375 6.55261719 1.106875 5.85523438 0.96875 5.13671875 C0.64056736 3.42548068 0.31956498 1.71286829 0 0 Z " fill="#763A4B" transform="translate(242,257)"/>
<path d="M0 0 C2.51005664 3.76508495 2.0258295 6.39461609 1.625 10.6875 C1.56828125 11.38939453 1.5115625 12.09128906 1.453125 12.81445312 C1.31195359 14.54380285 1.15728041 16.27204088 1 18 C0.01 18 -0.98 18 -2 18 C-1.34 12.06 -0.68 6.12 0 0 Z " fill="#DAE7E7" transform="translate(193,323)"/>
<path d="M0 0 C2.76691737 2.5200232 4.67255441 5.35719179 6.6875 8.5 C7.31011719 9.4590625 7.93273437 10.418125 8.57421875 11.40625 C10 14 10 14 10 17 C7 16 7 16 5.17578125 12.91015625 C4.54434632 11.6326637 3.92363056 10.3498293 3.3125 9.0625 C2.99216797 8.41603516 2.67183594 7.76957031 2.34179688 7.10351562 C0 2.29509262 0 2.29509262 0 0 Z " fill="#763848" transform="translate(346,280)"/>
<path d="M0 0 C4.75 0.75 4.75 0.75 7 3 C7 3.99 7 4.98 7 6 C6.01 6 5.02 6 4 6 C4 6.99 4 7.98 4 9 C2.68 9 1.36 9 0 9 C-0.33 7.68 -0.66 6.36 -1 5 C0.485 5.99 0.485 5.99 2 7 C1.34414811 3.39007621 1.34414811 3.39007621 0 0 Z " fill="#9B9AA8" transform="translate(342,197)"/>
<path d="M0 0 C1.78409802 3.06246747 2.22880021 5.22079273 2.125 8.75 C2.10695313 9.54921875 2.08890625 10.3484375 2.0703125 11.171875 C2.04710938 11.77515625 2.02390625 12.3784375 2 13 C1.01 13.495 1.01 13.495 0 14 C-1.31164842 11.37670316 -1.13262846 9.36301375 -1.125 6.4375 C-1.12757812 5.44621094 -1.13015625 4.45492188 -1.1328125 3.43359375 C-1 1 -1 1 0 0 Z " fill="#7A4050" transform="translate(119,283)"/>
<path d="M0 0 C0.99 0.33 1.98 0.66 3 1 C3 3.64 3 6.28 3 9 C1.68 9 0.36 9 -1 9 C-0.67 6.03 -0.34 3.06 0 0 Z " fill="#E9FFFD" transform="translate(336,143)"/>
<path d="M0 0 C0.33 0 0.66 0 1 0 C1.1799928 5.21979128 0.97094808 9.07262981 -1 14 C-1.33 14 -1.66 14 -2 14 C-2.3690205 4.58997722 -2.3690205 4.58997722 0 0 Z " fill="#E6FAF9" transform="translate(196,312)"/>
<path d="M0 0 C0.33 0 0.66 0 1 0 C1 4.95 1 9.9 1 15 C0.01 15.33 -0.98 15.66 -2 16 C-2.04241723 13.66705225 -2.04092937 11.33297433 -2 9 C-1.67 8.67 -1.34 8.34 -1 8 C-0.76924918 6.65252916 -0.58846937 5.29622435 -0.4375 3.9375 C-0.293125 2.638125 -0.14875 1.33875 0 0 Z " fill="#A1AEBD" transform="translate(139,146)"/>
<path d="M0 0 C1.90318884 2.85478326 2.4619099 4.41941308 3.125 7.6875 C3.29257812 8.49574219 3.46015625 9.30398438 3.6328125 10.13671875 C3.75398438 10.75160156 3.87515625 11.36648438 4 12 C3.34 12 2.68 12 2 12 C1.67 12.66 1.34 13.32 1 14 C0.04738513 9.23692563 -0.08333357 4.8333472 0 0 Z " fill="#845764" transform="translate(321,318)"/>
<path d="M0 0 C1.9955516 3.99110319 2.19546065 5.69986566 2 10 C1.34 10 0.68 10 0 10 C0.33 11.65 0.66 13.3 1 15 C0.01 15.495 0.01 15.495 -1 16 C-0.67 10.72 -0.34 5.44 0 0 Z " fill="#D6DEDF" transform="translate(196,297)"/>
<path d="M0 0 C0.33 0 0.66 0 1 0 C1 3.63 1 7.26 1 11 C0.01 11 -0.98 11 -2 11 C-1.85957123 9.35369672 -1.71250671 7.70795821 -1.5625 6.0625 C-1.48128906 5.14597656 -1.40007812 4.22945313 -1.31640625 3.28515625 C-1 1 -1 1 0 0 Z " fill="#6B1F32" transform="translate(196,280)"/>
<path d="M0 0 C0.33 0.66 0.66 1.32 1 2 C-2.0096463 8.48231511 -2.0096463 8.48231511 -5.75 10.4375 C-6.86375 10.7159375 -6.86375 10.7159375 -8 11 C-6.63629701 8.00779732 -5.05091917 5.70973471 -2.875 3.25 C-2.33617187 2.63640625 -1.79734375 2.0228125 -1.2421875 1.390625 C-0.62730469 0.70226562 -0.62730469 0.70226562 0 0 Z " fill="#C9F3F5" transform="translate(191,159)"/>
<path d="M0 0 C2.3828125 0.0234375 2.3828125 0.0234375 5.125 0.375 C6.03507813 0.48585937 6.94515625 0.59671875 7.8828125 0.7109375 C8.93082031 0.85402344 8.93082031 0.85402344 10 1 C9.34 1.66 8.68 2.32 8 3 C5.6171875 2.9765625 5.6171875 2.9765625 2.875 2.625 C1.96492187 2.51414063 1.05484375 2.40328125 0.1171875 2.2890625 C-0.58148438 2.19367188 -1.28015625 2.09828125 -2 2 C-1.34 1.34 -0.68 0.68 0 0 Z " fill="#87273A" transform="translate(243,139)"/>
<path d="M0 0 C0.33 0 0.66 0 1 0 C1.33 3.3 1.66 6.6 2 10 C1.34 10 0.68 10 0 10 C-0.33 10.99 -0.66 11.98 -1 13 C-1.07654536 8.48382401 -1.10228696 4.40914783 0 0 Z " fill="#825260" transform="translate(154,277)"/>
<path d="M0 0 C5.27272727 5.09090909 5.27272727 5.09090909 7 8 C6.57421875 10.125 6.57421875 10.125 6 12 C4.99466333 10.37829621 3.99588093 8.75252763 3 7.125 C2.443125 6.22007812 1.88625 5.31515625 1.3125 4.3828125 C0 2 0 2 0 0 Z " fill="#7D4655" transform="translate(354,228)"/>
<path d="M0 0 C0.99 0.495 0.99 0.495 2 1 C3.1577506 4.47325181 3.06866652 7.36067448 3 11 C0.2441427 6.86621405 -0.10756445 4.94796454 0 0 Z " fill="#7A4050" transform="translate(337,258)"/>
<path d="M0 0 C2 2 2 2 2.3125 5 C2.209375 5.99 2.10625 6.98 2 8 C1.01 8.66 0.02 9.32 -1 10 C-0.67 6.7 -0.34 3.4 0 0 Z " fill="#DBE9E9" transform="translate(190,344)"/>
<path d="M0 0 C0.99 0.33 1.98 0.66 3 1 C3.73046875 3.06640625 3.73046875 3.06640625 4.1875 5.5625 C4.34605469 6.38878906 4.50460937 7.21507812 4.66796875 8.06640625 C4.77753906 8.70449219 4.88710938 9.34257812 5 10 C2.35534962 6.8745041 1.15585285 3.91211733 0 0 Z " fill="#773A4B" transform="translate(331,253)"/>
<path d="M0 0 C3.3 1.65 6.6 3.3 10 5 C9.01 5.66 8.02 6.32 7 7 C5.82780457 6.21654285 4.66236332 5.42297164 3.5 4.625 C2.8503125 4.18414062 2.200625 3.74328125 1.53125 3.2890625 C1.0259375 2.86367187 0.520625 2.43828125 0 2 C0 1.34 0 0.68 0 0 Z " fill="#F8A2B8" transform="translate(285,165)"/>
<path d="M0 0 C0.33 0 0.66 0 1 0 C1.125 2.875 1.125 2.875 1 6 C0.34 6.66 -0.32 7.32 -1 8 C-1.66 8 -2.32 8 -3 8 C-1.125 1.125 -1.125 1.125 0 0 Z " fill="#7A4353" transform="translate(148,228)"/>
</svg>
