<?xml version="1.0" encoding="UTF-8"?>
<svg version="1.1" xmlns="http://www.w3.org/2000/svg" width="512" height="512">
<path d="M0 0 C0.88611969 0.00182281 1.77223938 0.00364563 2.68521118 0.00552368 C16.17699151 0.05225861 29.31194453 0.56954217 42.5625 3.3125 C43.88386963 3.57788574 43.88386963 3.57788574 45.23193359 3.84863281 C83.56539866 11.73460768 118.11433302 31.46300223 140.28955078 64.36816406 C175.83973443 118.66844457 178.16194505 187.77529678 178.7734375 250.5703125 C178.78788516 251.96436609 178.80237612 253.35841923 178.81690979 254.75247192 C178.8743216 260.39857351 178.93032384 266.04461685 178.96386719 271.69091797 C178.52230075 322.50546411 178.52230075 322.50546411 201.296875 366.1171875 C203.37575486 368.1315504 205.51359561 369.97728266 207.75 371.8125 C215.19683404 378.13192491 219.92288557 387.72369451 220.86401367 397.41845703 C221.00164489 400.93072436 221.02972067 404.42267669 221 407.9375 C220.98864014 409.80112183 220.98864014 409.80112183 220.97705078 411.70239258 C220.7575891 423.94338839 219.61650641 437.10471005 210.5625 446.3125 C202.59585004 452.33544082 196.1338238 453.83165324 186.27734375 452.93359375 C172.00373936 450.54715516 159.25323616 442.66470575 146.76171875 435.765625 C139.43455193 431.88018793 131.23414752 428.66126895 122.89453125 428.1484375 C118.84086986 430.17187317 117.96219336 434.19257603 116.5625 438.3125 C115.47489183 441.89162214 114.53851658 445.49806159 113.625 449.125 C109.65864348 464.16159781 105.03210654 478.15502223 91.5625 487.3125 C77.74797186 495.2634763 56.75674906 492.53199095 41.80859375 489.234375 C37.4757813 488.00387712 33.58616343 486.30472322 29.5625 484.3125 C24.14438098 481.8938669 19.58650859 480.49960058 13.74609375 482.23046875 C5.48701445 486.32307155 1.55247565 495.55687424 -2.29296875 503.45922852 C-5.72830278 510.41090376 -5.72830278 510.41090376 -9.4375 512.3125 C-18.19717149 514.46487642 -26.67636442 509.90801139 -34.4375 506.3125 C-35.08525391 506.01279297 -35.73300781 505.71308594 -36.40039062 505.40429688 C-53.2957868 497.47036707 -68.82860462 487.92219229 -83.4375 476.3125 C-83.97761719 475.88952637 -84.51773438 475.46655273 -85.07421875 475.03076172 C-100.37320472 462.97365785 -114.82522447 448.7501252 -126.25048828 432.95263672 C-127.4699619 431.26764622 -128.7155705 429.60439054 -129.96484375 427.94140625 C-136.02908601 419.77074804 -141.28916657 411.20491963 -146.28662109 402.34716797 C-147.3286631 400.50491551 -148.39095521 398.67604823 -149.45703125 396.84765625 C-162.9791731 372.80523296 -178.4375 338.44647778 -178.4375 310.3125 C-183.06144086 310.2069552 -187.67958656 310.16944119 -192.3046875 310.19042969 C-193.87186941 310.18850282 -195.43914379 310.16913634 -197.00585938 310.13085938 C-205.72118372 309.93025089 -212.38841573 310.09330201 -219.1171875 316.1015625 C-220.9040001 317.82477981 -222.67925753 319.56014141 -224.4375 321.3125 C-226.66767463 322.99206029 -228.91244699 324.37124679 -231.3125 325.8125 C-232.34117187 326.4415625 -233.36984375 327.070625 -234.4296875 327.71875 C-244.71017506 333.16607328 -256.66293306 332.52763377 -267.65234375 329.34765625 C-278.06744185 325.47668711 -284.09764123 319.59197501 -288.75 309.625 C-295.67946706 293.63167308 -292.29887055 271.73928612 -286.15234375 256.02734375 C-279.73744409 241.89312193 -268.48501741 231.95052944 -254.234375 226.2578125 C-249.51032648 224.66113688 -245.25131024 224.18866188 -240.27026367 224.19897461 C-239.04937546 224.19905014 -237.82848724 224.19912567 -236.57060242 224.19920349 C-235.26210831 224.20436478 -233.9536142 224.20952606 -232.60546875 224.21484375 C-231.24498039 224.21671039 -229.88449135 224.21813313 -228.52400208 224.21913147 C-224.95494713 224.22293725 -221.38593331 224.23275086 -217.81689453 224.24383545 C-214.17025305 224.25409137 -210.52360489 224.25863803 -206.87695312 224.26367188 C-199.73045199 224.27437497 -192.58397869 224.29142796 -185.4375 224.3125 C-185.38993057 223.38232559 -185.34236115 222.45215118 -185.29335022 221.49378967 C-182.62385572 169.83014077 -173.0718407 118.29101046 -142.4375 75.3125 C-142.02145508 74.72823242 -141.60541016 74.14396484 -141.17675781 73.54199219 C-123.88792377 49.58989618 -101.75063874 30.70850885 -75.4375 17.3125 C-74.76203125 16.96735352 -74.0865625 16.62220703 -73.390625 16.26660156 C-50.23818609 4.6795022 -25.70502431 -0.10934484 0 0 Z " fill="#EFF0F0" transform="translate(291.4375,-0.3125)"/>
<path d="M0 0 C0.88611969 0.00182281 1.77223938 0.00364563 2.68521118 0.00552368 C16.17699151 0.05225861 29.31194453 0.56954217 42.5625 3.3125 C43.88386963 3.57788574 43.88386963 3.57788574 45.23193359 3.84863281 C83.56539866 11.73460768 118.11433302 31.46300223 140.28955078 64.36816406 C175.83973443 118.66844457 178.16194505 187.77529678 178.7734375 250.5703125 C178.78788516 251.96436609 178.80237612 253.35841923 178.81690979 254.75247192 C178.8743216 260.39857351 178.93032384 266.04461685 178.96386719 271.69091797 C178.52230075 322.50546411 178.52230075 322.50546411 201.296875 366.1171875 C203.37575486 368.1315504 205.51359561 369.97728266 207.75 371.8125 C215.19683404 378.13192491 219.92288557 387.72369451 220.86401367 397.41845703 C221.00164489 400.93072436 221.02972067 404.42267669 221 407.9375 C220.98864014 409.80112183 220.98864014 409.80112183 220.97705078 411.70239258 C220.7575891 423.94338839 219.61650641 437.10471005 210.5625 446.3125 C202.59585004 452.33544082 196.1338238 453.83165324 186.27734375 452.93359375 C172.00373936 450.54715516 159.25323616 442.66470575 146.76171875 435.765625 C139.43455193 431.88018793 131.23414752 428.66126895 122.89453125 428.1484375 C118.84086986 430.17187317 117.96219336 434.19257603 116.5625 438.3125 C115.47489183 441.89162214 114.53851658 445.49806159 113.625 449.125 C109.65864348 464.16159781 105.03210654 478.15502223 91.5625 487.3125 C77.74797186 495.2634763 56.75674906 492.53199095 41.80859375 489.234375 C37.4757813 488.00387712 33.58616343 486.30472322 29.5625 484.3125 C24.14438098 481.8938669 19.58650859 480.49960058 13.74609375 482.23046875 C5.48701445 486.32307155 1.55247565 495.55687424 -2.29296875 503.45922852 C-5.72830278 510.41090376 -5.72830278 510.41090376 -9.4375 512.3125 C-18.19717149 514.46487642 -26.67636442 509.90801139 -34.4375 506.3125 C-35.08525391 506.01279297 -35.73300781 505.71308594 -36.40039062 505.40429688 C-53.2957868 497.47036707 -68.82860462 487.92219229 -83.4375 476.3125 C-83.97761719 475.88952637 -84.51773438 475.46655273 -85.07421875 475.03076172 C-100.37320472 462.97365785 -114.82522447 448.7501252 -126.25048828 432.95263672 C-127.4699619 431.26764622 -128.7155705 429.60439054 -129.96484375 427.94140625 C-136.02908601 419.77074804 -141.28916657 411.20491963 -146.28662109 402.34716797 C-147.3286631 400.50491551 -148.39095521 398.67604823 -149.45703125 396.84765625 C-162.9791731 372.80523296 -178.4375 338.44647778 -178.4375 310.3125 C-183.06144086 310.2069552 -187.67958656 310.16944119 -192.3046875 310.19042969 C-193.87186941 310.18850282 -195.43914379 310.16913634 -197.00585938 310.13085938 C-205.72118372 309.93025089 -212.38841573 310.09330201 -219.1171875 316.1015625 C-220.9040001 317.82477981 -222.67925753 319.56014141 -224.4375 321.3125 C-226.66767463 322.99206029 -228.91244699 324.37124679 -231.3125 325.8125 C-232.34117187 326.4415625 -233.36984375 327.070625 -234.4296875 327.71875 C-244.71017506 333.16607328 -256.66293306 332.52763377 -267.65234375 329.34765625 C-278.06744185 325.47668711 -284.09764123 319.59197501 -288.75 309.625 C-295.67946706 293.63167308 -292.29887055 271.73928612 -286.15234375 256.02734375 C-279.73744409 241.89312193 -268.48501741 231.95052944 -254.234375 226.2578125 C-249.51032648 224.66113688 -245.25131024 224.18866188 -240.27026367 224.19897461 C-239.04937546 224.19905014 -237.82848724 224.19912567 -236.57060242 224.19920349 C-235.26210831 224.20436478 -233.9536142 224.20952606 -232.60546875 224.21484375 C-231.24498039 224.21671039 -229.88449135 224.21813313 -228.52400208 224.21913147 C-224.95494713 224.22293725 -221.38593331 224.23275086 -217.81689453 224.24383545 C-214.17025305 224.25409137 -210.52360489 224.25863803 -206.87695312 224.26367188 C-199.73045199 224.27437497 -192.58397869 224.29142796 -185.4375 224.3125 C-185.38993057 223.38232559 -185.34236115 222.45215118 -185.29335022 221.49378967 C-182.62385572 169.83014077 -173.0718407 118.29101046 -142.4375 75.3125 C-142.02145508 74.72823242 -141.60541016 74.14396484 -141.17675781 73.54199219 C-123.88792377 49.58989618 -101.75063874 30.70850885 -75.4375 17.3125 C-74.76203125 16.96735352 -74.0865625 16.62220703 -73.390625 16.26660156 C-50.23818609 4.6795022 -25.70502431 -0.10934484 0 0 Z M-27.4375 24.3125 C-28.10587891 24.45703613 -28.77425781 24.60157227 -29.46289062 24.75048828 C-58.89383619 31.1698467 -84.70708061 45.51232117 -106.4375 66.3125 C-107.62859375 67.40884766 -107.62859375 67.40884766 -108.84375 68.52734375 C-119.9279534 79.06785996 -128.39982099 91.46208839 -135.59765625 104.88671875 C-137.4375 108.3125 -137.4375 108.3125 -139.24609375 111.14453125 C-139.63925781 111.85996094 -140.03242188 112.57539062 -140.4375 113.3125 C-140.1075 113.9725 -139.7775 114.6325 -139.4375 115.3125 C-139.02242187 114.8278125 -138.60734375 114.343125 -138.1796875 113.84375 C-125.78673266 100.36187444 -107.72671374 94.59024361 -90.4375 90.3125 C-89.65246094 90.0959375 -88.86742187 89.879375 -88.05859375 89.65625 C-79.55699105 87.32045613 -70.88733069 87.14687657 -62.125 86.9375 C-61.25262695 86.89931152 -60.38025391 86.86112305 -59.48144531 86.82177734 C-58.64581055 86.81098145 -57.81017578 86.80018555 -56.94921875 86.7890625 C-56.20115967 86.76924316 -55.45310059 86.74942383 -54.68237305 86.72900391 C-50.92962472 87.70443278 -49.67360407 89.13913425 -47.4375 92.3125 C-46.68031853 96.2692428 -46.71316829 100.17233635 -46.73828125 104.19140625 C-46.73112595 105.35445786 -46.72397064 106.51750946 -46.71659851 107.71580505 C-46.70881825 110.17779778 -46.71384033 112.63985943 -46.73071289 115.10180664 C-46.74981142 118.83810792 -46.71068298 122.57062385 -46.66601562 126.30664062 C-46.66572498 128.70573136 -46.66887229 131.10482545 -46.67578125 133.50390625 C-46.65285759 135.15925133 -46.65285759 135.15925133 -46.62947083 136.84803772 C-46.8026513 148.59645668 -51.8711349 157.56159735 -59.90234375 165.94140625 C-70.84123154 176.17238451 -83.75968797 183.41692466 -97.4375 189.3125 C-100.0851591 209.92641726 -99.63559583 230.57339035 -99.4375 251.3125 C-98.7775 251.3125 -98.1175 251.3125 -97.4375 251.3125 C-97.08558594 250.33410156 -96.73367187 249.35570312 -96.37109375 248.34765625 C-92.04971868 236.71706877 -86.58168465 227.8274015 -76.4375 220.3125 C-75.756875 219.80332031 -75.07625 219.29414063 -74.375 218.76953125 C-66.39681776 213.82472038 -56.49351676 213.94521904 -47.4375 215.3125 C-42.94066206 216.72317828 -39.30144256 218.63556059 -35.4375 221.3125 C-34.76589844 221.75722656 -34.09429687 222.20195312 -33.40234375 222.66015625 C-23.75590215 229.93208915 -17.50402211 243.62971166 -15.4375 255.3125 C-15.16818621 258.79702735 -15.15727576 262.25658118 -15.1875 265.75 C-15.17589844 267.08514648 -15.17589844 267.08514648 -15.1640625 268.44726562 C-15.20639108 282.93422073 -20.18896194 297.6695412 -30.31640625 308.28125 C-38.945546 316.2518057 -48.61090508 319.85985102 -60.3828125 319.625 C-69.31765441 318.71094968 -78.26487683 313.76217863 -84.37890625 307.2421875 C-88.37354998 302.28986461 -91.53785948 296.96479465 -94.4375 291.3125 C-94.7675 291.3125 -95.0975 291.3125 -95.4375 291.3125 C-93.9647914 308.34469514 -90.48944675 324.99561041 -85.4375 341.3125 C-85.19161133 342.11977539 -84.94572266 342.92705078 -84.69238281 343.75878906 C-76.20301545 371.35722174 -63.93634356 396.66570348 -47.4375 420.3125 C-47.03047852 420.8988623 -46.62345703 421.48522461 -46.20410156 422.08935547 C-41.32371268 429.08626098 -36.38417911 435.24330173 -29.4375 440.3125 C-28.7775 440.3125 -28.1175 440.3125 -27.4375 440.3125 C-27.19 441.199375 -26.9425 442.08625 -26.6875 443 C-24.45493305 448.91630241 -20.37096827 452.38409681 -15.67578125 456.3984375 C-13.23523394 458.48546749 -10.83465659 460.61332185 -8.4375 462.75 C-7.2928125 463.76900391 -7.2928125 463.76900391 -6.125 464.80859375 C-5.568125 465.30488281 -5.01125 465.80117188 -4.4375 466.3125 C-2.07593889 465.41169834 0.17904046 464.54190593 2.3515625 463.2421875 C10.10805559 458.78632977 19.94209867 458.84835097 28.5625 460.3125 C33.70332019 461.87011921 38.47712314 464.11240304 43.29296875 466.46484375 C47.32246336 468.34666114 51.13098046 469.1104458 55.5625 469.3125 C56.3867749 469.35044678 57.2110498 469.38839355 58.06030273 469.42749023 C60.77052014 469.51707805 63.47590792 469.54709323 66.1875 469.5625 C67.10273438 469.583125 68.01796875 469.60375 68.9609375 469.625 C74.26697252 469.65567072 77.98572327 469.30860031 82.5625 466.3125 C88.24021735 460.31034166 90.19780002 453.45727163 92 445.625 C98.743647 417.71694794 98.743647 417.71694794 110.73046875 409.37109375 C118.43192718 404.9209973 129.9020099 406.86237894 138.125 408.9375 C148.87887468 412.1412585 158.6631841 416.65995097 168.29516602 422.33300781 C172.44751564 424.75049163 176.66317037 426.88017185 181.0625 428.8125 C182.1659375 429.2971875 183.269375 429.781875 184.40625 430.28125 C187.73328964 431.36830255 190.09150875 431.74149892 193.5625 431.3125 C196.25940618 429.6753053 196.57721421 428.26472424 197.51171875 425.23046875 C201.04675107 408.14230368 201.04675107 408.14230368 196.5078125 391.80078125 C193.56887096 388.04153273 190.0834196 384.98966516 186.51074219 381.84326172 C163.55747989 361.48737652 159.62355097 329.42585186 157.77050781 300.49519348 C157.41953906 294.05371414 157.39210237 287.60877133 157.36278915 281.15922737 C157.34300217 276.98181087 157.30597303 272.80452207 157.27246094 268.62719727 C157.2659017 267.75768275 157.25934246 266.88816824 157.25258446 265.9923048 C157.05310414 220.57037937 157.05310414 220.57037937 153.5625 175.3125 C153.43681641 174.2287207 153.43681641 174.2287207 153.30859375 173.12304688 C148.02143548 128.26111442 135.48213683 80.03300321 98.35546875 50.7265625 C63.97773327 24.65790126 14.56883963 14.78686103 -27.4375 24.3125 Z " fill="#000000" transform="translate(291.4375,-0.3125)"/>
<path d="M0 0 C0.33 0 0.66 0 1 0 C1.14695313 1.32451172 1.14695313 1.32451172 1.296875 2.67578125 C2.85248985 15.16093144 5.08472342 25.53283082 15 34 C25.66856354 40.92609919 37.42315421 42.49517377 49.90234375 40.546875 C51.94980034 40.094041 53.97856997 39.55763587 56 39 C56.02792366 40.60405891 56.0467943 42.20827494 56.0625 43.8125 C56.07410156 44.70582031 56.08570313 45.59914062 56.09765625 46.51953125 C56.02078629 49.2591766 55.81797919 51.87450785 55.53125 54.59375 C54.66995939 63.59717912 54.63279513 72.65051681 54.4375 81.6875 C54.39421918 83.56446097 54.35060216 85.44141422 54.30664062 87.31835938 C54.20054977 91.87882646 54.09901254 96.43937398 54 101 C54.66 101 55.32 101 56 101 C56.17015625 99.69289062 56.17015625 99.69289062 56.34375 98.359375 C58.92670188 85.13712135 68.53971425 75.25468597 79.0078125 67.515625 C87.18566853 62.62701734 96.77418267 62.62247128 106 64 C110.5209508 65.38805408 114.13730585 67.2925041 118 70 C118.74507812 70.51820313 119.49015625 71.03640625 120.2578125 71.5703125 C130.19828163 79.39417983 136.81761906 92.66222028 139 105 C139.26931379 108.48452735 139.28022424 111.94408118 139.25 115.4375 C139.25773438 116.32759766 139.26546875 117.21769531 139.2734375 118.13476562 C139.23065919 132.77564309 134.14483232 147.50696852 123.8984375 158.19140625 C114.92154464 166.56675475 105.44236382 170.55963569 93.0546875 170.3125 C82.58918369 169.24186022 73.23936593 163.04342356 66.6875 155.0625 C63.75918243 151.19899118 61.24098397 147.29521927 59 143 C60.90171776 159.31673841 64.14228894 175.31045717 69 191 C69.24588867 191.80727539 69.49177734 192.61455078 69.74511719 193.44628906 C78.23448455 221.04472174 90.50115644 246.35320348 107 270 C107.40702148 270.5863623 107.81404297 271.17272461 108.23339844 271.77685547 C114.50534406 280.89517232 114.50534406 280.89517232 123 287.8125 C127.6106235 291.17441297 130.20695591 295.62086773 132 301 C133.31686582 301.69863197 134.65273721 302.36195205 136 303 C137.67578125 304.515625 137.67578125 304.515625 139.3125 306.25 C142.69808043 309.74550187 146.26855998 312.87777468 150 316 C149.154375 316.969375 148.30875 317.93875 147.4375 318.9375 C139.74713098 327.82784479 139.74713098 327.82784479 134 338 C110.92526741 331.40721926 89.69659721 316.1633389 72.2578125 300.0703125 C70.23524746 298.21571134 68.16516016 296.44964839 66.0625 294.6875 C30.38682786 263.46231412 9.62455556 215.59882782 -1.0625 170.5 C-1.31837891 169.43652344 -1.57425781 168.37304688 -1.83789062 167.27734375 C-4.43841605 156.38054056 -6.38604555 145.71080648 -7.5625 134.5625 C-7.75102539 132.83676758 -7.75102539 132.83676758 -7.94335938 131.07617188 C-8.30673044 127.71831882 -8.66363345 124.36067659 -9 121 C-9.08431274 120.18436081 -9.16862549 119.36872162 -9.25549316 118.52836609 C-9.89985558 111.97340522 -10.19973977 105.47147629 -10.2734375 98.88671875 C-10.28587494 97.85044846 -10.29831238 96.81417816 -10.31112671 95.74650574 C-10.50182932 76.00363674 -10.48213176 56.46003066 -7.75 36.875 C-7.64757996 36.13414154 -7.54515991 35.39328308 -7.43963623 34.62997437 C-3.51313082 7.02626165 -3.51313082 7.02626165 0 0 Z " fill="#7F8184" transform="translate(138,150)"/>
<path d="M0 0 C1.70397949 0.26901123 1.70397949 0.26901123 3.44238281 0.54345703 C12.40297038 2.03094006 20.75371338 4.08653687 29.25 7.3125 C30.47976563 7.7765625 31.70953125 8.240625 32.9765625 8.71875 C40.4753799 11.73754587 46.90634732 15.31312399 53.25 20.3125 C54.27673828 21.05886719 54.27673828 21.05886719 55.32421875 21.8203125 C59.77983122 25.30426882 62.96062133 29.42703965 66.0625 34.125 C66.43576416 34.68131104 66.80902832 35.23762207 67.19360352 35.81079102 C72.36415663 44.02243187 73.79389246 52.54461213 73.6875 62.125 C73.67992676 63.0855127 73.67235352 64.04602539 73.66455078 65.03564453 C73.4060603 76.23375399 71.16391949 85.95891831 63.25 94.3125 C62.48042969 95.14201172 62.48042969 95.14201172 61.6953125 95.98828125 C55.16031953 102.2887649 46.16206951 104.87098463 37.25 105.3125 C36.39277344 105.39886719 35.53554688 105.48523438 34.65234375 105.57421875 C15.45692585 106.73679453 -3.79752982 93.32407538 -17.75 81.3125 C-25.87969575 73.69548777 -32.77369689 64.52700786 -33.49462891 53.07250977 C-33.52026104 50.88311702 -33.51310291 48.69314411 -33.4765625 46.50390625 C-33.47755951 45.33415756 -33.47855652 44.16440887 -33.47958374 42.95921326 C-33.4749378 40.50960422 -33.45569267 38.05998239 -33.42236328 35.6105957 C-33.37480953 31.85997738 -33.38131111 28.11217519 -33.39453125 24.36132812 C-33.38338724 21.97133723 -33.36917349 19.58135824 -33.3515625 17.19140625 C-33.35338531 16.07367325 -33.35520813 14.95594025 -33.35708618 13.80433655 C-33.21661207 6.12623525 -33.21661207 6.12623525 -30.96240234 2.19506836 C-22.56991363 -4.94623383 -10.08281125 -1.60703292 0 0 Z " fill="#020202" transform="translate(299.75,86.6875)"/>
<path d="M0 0 C2.8046875 1.6796875 2.8046875 1.6796875 5.3125 3.4375 C6.05757813 3.95570313 6.80265625 4.47390625 7.5703125 5.0078125 C17.51078163 12.83167983 24.13011906 26.09972028 26.3125 38.4375 C26.58181379 41.92202735 26.59272424 45.38158118 26.5625 48.875 C26.57410156 50.21014648 26.57410156 50.21014648 26.5859375 51.57226562 C26.54315919 66.21314309 21.45733232 80.94446852 11.2109375 91.62890625 C2.23404464 100.00425475 -7.24513618 103.99713569 -19.6328125 103.75 C-30.00221479 102.68919158 -39.36399738 96.54123534 -45.9375 88.6875 C-57.28615289 73.6386899 -60.6074954 56.3418711 -58.2265625 37.859375 C-54.97062744 22.001056 -46.5658929 10.47989164 -33.6796875 0.953125 C-23.92923505 -4.87555875 -10.16462398 -4.80462531 0 0 Z " fill="#020202" transform="translate(250.6875,216.5625)"/>
<path d="M0 0 C1.08698181 -0.01007584 1.08698181 -0.01007584 2.19592285 -0.02035522 C4.56338565 -0.03917411 6.93056304 -0.04324991 9.2980957 -0.04541016 C10.95620334 -0.05184496 12.61430985 -0.05857382 14.27241516 -0.06558228 C17.73453405 -0.07751146 21.19655343 -0.08126717 24.65869141 -0.08007812 C29.09067664 -0.07987418 33.52202611 -0.10727334 37.95386028 -0.14162254 C41.37255279 -0.16386477 44.79109095 -0.16791664 48.2098484 -0.16685867 C49.84410626 -0.16921493 51.47836835 -0.17803991 53.11255455 -0.19352341 C55.39580444 -0.21314778 57.67766465 -0.2073627 59.9609375 -0.1953125 C61.25807175 -0.19816254 62.55520599 -0.20101257 63.89164734 -0.20394897 C68.4914124 0.46605281 70.89308388 2.45391375 73.66137695 6.10302734 C74.6225831 9.46724887 74.11482642 11.91755453 73.28637695 15.29052734 C71.46298643 17.99620361 70.21180259 19.82781453 67.28637695 21.29052734 C65.07269806 21.38584329 62.85611069 21.41567508 60.64038086 21.41650391 C59.61547043 21.41930611 59.61547043 21.41930611 58.56985474 21.42216492 C57.08243818 21.42617354 55.59501545 21.42824418 54.10759354 21.42862701 C50.9313042 21.43204806 47.7552185 21.45343012 44.57900047 21.47385788 C38.66714377 21.51179027 32.75549814 21.54315775 26.84350586 21.54101562 C22.73007063 21.54022239 18.61737338 21.56385873 14.50413132 21.60289764 C12.9454926 21.61327545 11.38676781 21.61494305 9.82811356 21.6072464 C-1.1652581 21.55843084 -11.0389636 22.80209762 -20.15112305 29.60302734 C-29.22280648 39.11723192 -32.05477196 51.83206818 -32.21362305 64.72802734 C-32.04278481 70.72503853 -31.58563123 76.46438534 -27.71362305 81.29052734 C-23.02872574 84.75992724 -19.0403582 85.09187054 -13.33081055 84.96240234 C-3.86190736 83.20359959 4.28542488 76.03755438 10.5402832 69.01708984 C16.01908033 63.5995768 21.19464856 63.83645012 28.53637695 63.85693359 C30.17268066 63.84907082 30.17268066 63.84907082 31.84204102 63.84104919 C34.14509226 63.83463467 36.4481763 63.83595858 38.7512207 63.84448242 C42.27394907 63.8529973 45.79505849 63.8242131 49.31762695 63.79248047 C51.5572098 63.79086847 53.79679552 63.79144597 56.03637695 63.79443359 C57.61467285 63.77758263 57.61467285 63.77758263 59.22485352 63.76039124 C66.53792679 63.83007339 66.53792679 63.83007339 70.40356445 66.20825195 C73.47424361 69.60423516 74.33171364 71.04376833 74.16137695 75.72802734 C73.21283229 79.5899592 72.03224422 81.46145198 69.28637695 84.29052734 C66.99912504 85.4341533 65.76215489 85.40391699 63.22314453 85.38476562 C61.96592339 85.38079269 61.96592339 85.38079269 60.68330383 85.3767395 C59.320868 85.36886917 59.320868 85.36886917 57.9309082 85.36083984 C56.0096752 85.36942763 54.08844989 85.37990487 52.16723633 85.39208984 C49.13629786 85.40875817 46.10706974 85.41559616 43.07617188 85.39013672 C40.15168495 85.3691024 37.23025078 85.39247235 34.3059082 85.42333984 C33.4077388 85.40594757 32.5095694 85.3885553 31.58418274 85.37063599 C26.55846974 85.46636047 23.93111372 86.09866208 20.31982422 89.71728516 C19.30330674 90.90378758 18.29153761 92.09438863 17.28637695 93.29052734 C6.09131175 102.2260381 -5.07441629 108.50724242 -19.71362305 107.29052734 C-30.70256711 105.60101269 -40.12576732 101.30275607 -47.24487305 92.57177734 C-55.66787266 79.48924603 -55.74417884 60.53344523 -52.63720703 45.74121094 C-48.69936046 29.93840122 -40.95056319 16.87061256 -27.2253418 7.79052734 C-18.63302602 2.65919102 -10.03128736 0.05884821 0 0 Z " fill="#020202" transform="translate(352.713623046875,223.70947265625)"/>
<path d="M0 0 C1.55797922 0.00560348 3.11596377 0.00987002 4.6739502 0.01286316 C8.75108742 0.02425287 12.82789801 0.05366849 16.90490723 0.0869751 C21.07458072 0.11780354 25.2443076 0.13139565 29.4140625 0.14648438 C37.57827398 0.17854466 45.74222122 0.22966872 53.90625 0.29296875 C53.24625 0.62296875 52.58625 0.95296875 51.90625 1.29296875 C51.90625 15.15296875 51.90625 29.01296875 51.90625 43.29296875 C48.6784375 43.29554688 45.450625 43.298125 42.125 43.30078125 C38.98067384 43.32363042 35.83660606 43.3566436 32.69238281 43.390625 C30.51601299 43.40873447 28.33952864 43.41636273 26.16308594 43.41308594 C23.02449815 43.4102144 19.8882609 43.44568028 16.75 43.48828125 C15.78509644 43.47918732 14.82019287 43.47009338 13.8260498 43.46072388 C6.82028315 43.60967346 3.00367154 45.54936903 -2.09375 50.29296875 C-2.88523437 50.99421875 -3.67671875 51.69546875 -4.4921875 52.41796875 C-5.14445312 53.03671875 -5.79671875 53.65546875 -6.46875 54.29296875 C-14.30543379 61.24702263 -20.34977654 65.33185448 -31.16796875 64.734375 C-35.21194278 64.12426944 -37.25629572 63.2759335 -40.09375 60.29296875 C-45.7709452 52.46667758 -45.07629024 42.32240687 -43.79638672 33.16552734 C-41.88456027 22.04193953 -38.14919743 12.5823677 -28.65625 5.85546875 C-19.36418558 -0.05125152 -10.66231354 -0.11306232 0 0 Z " fill="#CFD1D2" transform="translate(364.09375,244.70703125)"/>
<path d="M0 0 C1.27322113 0.00565979 2.54644226 0.01131958 3.85824585 0.01715088 C7.20903941 0.0356273 10.55869832 0.07142746 13.90917969 0.1159668 C17.34169828 0.1572191 20.77433511 0.17522513 24.20703125 0.1953125 C30.91697439 0.23922473 37.6263906 0.30602065 44.3359375 0.390625 C44.76632014 5.54987507 45.19346721 10.70937923 45.61767578 15.86914062 C45.76230366 17.62279415 45.90780074 19.37637622 46.05419922 21.12988281 C46.26500766 23.65671601 46.47264361 26.18379339 46.6796875 28.7109375 C46.74530884 29.48929962 46.81093018 30.26766174 46.87854004 31.0696106 C47.21284794 35.19021893 47.40501241 39.25188639 47.3359375 43.390625 C46.19640625 43.38426025 45.056875 43.37789551 43.8828125 43.37133789 C39.62561116 43.35682883 35.36974714 43.38838444 31.11279297 43.43334961 C29.27592537 43.44643087 27.43892593 43.44727736 25.60205078 43.43530273 C13.71483005 42.86136039 13.71483005 42.86136039 3.39453125 47.69140625 C2.34204092 48.89646927 1.31749554 50.12711536 0.3359375 51.390625 C-9.09732837 59.42070994 -15.88555765 64.98268785 -28.6484375 64.859375 C-33.65440272 64.08124569 -35.85928298 62.43380667 -38.9453125 58.43359375 C-41.54163026 53.44379556 -41.26226257 48.20574443 -41.1640625 42.703125 C-41.15197754 41.63255859 -41.13989258 40.56199219 -41.12744141 39.45898438 C-40.81146171 26.88873745 -37.81146088 17.94193042 -29.07421875 8.7109375 C-20.6535129 0.74594044 -11.15780956 -0.18927034 0 0 Z " fill="#CED0D1" transform="translate(62.6640625,244.609375)"/>
<path d="M0 0 C0 0.33 0 0.66 0 1 C-1.155 1.165 -2.31 1.33 -3.5 1.5 C-24.12055563 6.07873755 -44.10272185 21.87206485 -59 36 C-59.89589844 36.84304687 -60.79179687 37.68609375 -61.71484375 38.5546875 C-68.73633064 45.34967482 -76.57927618 53.15855237 -81 62 C-79.35 62.33 -77.7 62.66 -76 63 C-76 63.33 -76 63.66 -76 64 C-77.13876587 64.05945801 -77.13876587 64.05945801 -78.30053711 64.12011719 C-106.66545251 65.67388875 -136.65337329 69.49507404 -158.07421875 90.1796875 C-160 92 -160 92 -162 93 C-155.33355445 75.47582878 -143.87148641 60.44713429 -131 47 C-130.26910156 46.2059375 -129.53820312 45.411875 -128.78515625 44.59375 C-117.35175682 32.57060784 -103.69106885 23.53786463 -89 16 C-88.38833984 15.68192383 -87.77667969 15.36384766 -87.14648438 15.03613281 C-60.33059872 1.2537469 -29.88330443 -3.91912189 0 0 Z " fill="#7E8083" transform="translate(313,22)"/>
<path d="M0 0 C0.09940876 4.71388705 0.17172034 9.42715442 0.21972656 14.1418457 C0.23975347 15.74319091 0.26698354 17.3444638 0.30175781 18.94555664 C0.35067419 21.25685537 0.37305711 23.56718154 0.390625 25.87890625 C0.41127014 26.58648575 0.43191528 27.29406525 0.45318604 28.02308655 C0.45608824 34.55685866 -1.81572607 38.55827941 -6.12109375 43.37109375 C-17.89619089 53.8753541 -32.98907877 64.40819366 -49.2734375 64.21484375 C-54.14261988 63.83116892 -56.90076873 62.12976547 -60.25 58.6875 C-64.96612027 51.44488673 -64.94704967 43.36420859 -64 35 C-60.26074082 23.42293422 -52.95896263 16.46713994 -42.55078125 10.69921875 C-29.63959828 4.52059984 -14.40906619 0 0 0 Z " fill="#EC4035" transform="translate(224,107)"/>
<path d="M0 0 C18.87595558 -0.45862296 40.60703673 5.38371637 54.875 18.1875 C62.17432552 26.27594179 64.9199096 34.67440576 64.46484375 45.49609375 C63.64384066 51.68466323 61.74449875 56.81654737 57 61 C51.05567139 63.82355609 44.3441782 64.41886465 38.0625 62.3671875 C24.15308122 56.94040669 9.75732527 48.34101458 1 36 C-0.18975795 32.43072615 -0.12478155 29.20053028 -0.09765625 25.48828125 C-0.0962413 24.76005661 -0.09482635 24.03183197 -0.09336853 23.28153992 C-0.08777659 20.95848461 -0.07522562 18.63552612 -0.0625 16.3125 C-0.05748396 14.73632952 -0.05292123 13.16015752 -0.04882812 11.58398438 C-0.0378098 7.72261902 -0.02055074 3.86132592 0 0 Z " fill="#ED4035" transform="translate(288,108)"/>
<path d="M0 0 C7.64962151 2.90158057 11.42391666 9.04809422 15.10546875 16.125 C19.17354954 26.2092566 17.9743986 38.59885974 14 48.48828125 C10.88640098 55.40170012 7.12418319 59.78702365 0.4375 63.375 C-3.56347343 64.40089062 -6.30154218 64.77591418 -10.171875 63.0078125 C-17.49849999 58.65609229 -21.3372135 52.70933027 -24.140625 44.76953125 C-25.15867794 40.30398087 -25.33071954 36.18717371 -25.3125 31.625 C-25.32861328 30.82578125 -25.34472656 30.0265625 -25.36132812 29.203125 C-25.36805447 20.88935912 -23.24591813 13.55739766 -18 7 C-12.09132196 1.3562851 -8.31027503 -0.91727912 0 0 Z " fill="#EC4035" transform="translate(239,235)"/>
<path d="M0 0 C4.36878644 0.0932837 6.5064503 1.43384973 9.609375 4.41796875 C12.37430823 7.58051406 14.733396 11.00716177 17.15234375 14.4375 C26.01937886 26.40565987 36.9940749 35.72597522 49.37890625 43.9296875 C51.93790619 45.86270898 53.21967736 47.55634274 53.78125 50.7421875 C53.954707 55.49780029 53.94847227 57.70227915 50.9375 61.5625 C47.6817662 63.6772056 44.70690782 64.28659181 40.8515625 64.03515625 C30.73518579 61.59382244 22.63968895 52.46236428 15.375 45.4375 C14.59253906 44.70660156 13.81007812 43.97570312 13.00390625 43.22265625 C6.38501725 36.88692828 0.83546127 29.76894883 -4.625 22.4375 C-5.22183594 21.64730469 -5.81867188 20.85710937 -6.43359375 20.04296875 C-9.67909076 15.38158919 -10.55444885 12.10713798 -9.625 6.4375 C-7.1875 3.5 -7.1875 3.5 -4.625 1.4375 C-3.625 0.4375 -3.625 0.4375 0 0 Z " fill="#010101" transform="translate(212.625,394.5625)"/>
<path d="M0 0 C6.67962592 3.15375096 9.10742836 8.75121828 12.375 15.125 C12.92027344 16.12015625 13.46554688 17.1153125 14.02734375 18.140625 C17.29132096 24.4068068 19.32716874 29.88269129 18 37 C16.0625 40.125 16.0625 40.125 13 42 C8.23433238 43.05125021 5.23853663 42.79087279 1.08203125 40.13671875 C-3.18257344 36.33089959 -5.40314891 31.24874945 -7.875 26.1875 C-8.37257812 25.22779297 -8.87015625 24.26808594 -9.3828125 23.27929688 C-12.2183799 17.57310698 -13.85111713 13.38337845 -13 7 C-10.17276857 1.31316426 -6.14124351 -0.59050418 0 0 Z " fill="#020202" transform="translate(184,341)"/>
</svg>
