<?xml version="1.0" encoding="UTF-8"?>
<!DOCTYPE svg PUBLIC "-//W3C//DTD SVG 1.1//EN" "http://www.w3.org/Graphics/SVG/1.1/DTD/svg11.dtd">
<svg xmlns="http://www.w3.org/2000/svg" version="1.1" width="100px" height="100px" style="shape-rendering:geometricPrecision; text-rendering:geometricPrecision; image-rendering:optimizeQuality; fill-rule:evenodd; clip-rule:evenodd" xmlns:xlink="http://www.w3.org/1999/xlink">
<g><path style="opacity:0.757" fill="#100d06" d="M 36.5,-0.5 C 39.8333,-0.5 43.1667,-0.5 46.5,-0.5C 47.9361,0.428572 49.2695,1.59524 50.5,3C 53.8742,3.521 56.8742,4.85433 59.5,7C 63.7016,10.8666 67.5349,15.0332 71,19.5C 74.336,26.8697 77.6694,34.203 81,41.5C 81.8272,45.6872 80.9939,49.5206 78.5,53C 79.0539,55.6122 78.3872,58.1122 76.5,60.5C 79.636,63.1043 81.4693,66.4377 82,70.5C 85.2065,71.8197 86.2065,74.1531 85,77.5C 81.888,80.8057 78.0547,82.639 73.5,83C 72.8333,84 72.1667,85 71.5,86C 69.2199,86.7028 67.2199,87.8694 65.5,89.5C 64.513,92.7683 64.1796,96.1016 64.5,99.5C 60.1667,99.5 55.8333,99.5 51.5,99.5C 43.7952,97.6554 36.4619,94.6554 29.5,90.5C 29.1667,89.5 28.8333,88.5 28.5,87.5C 30.9405,81.4041 32.2738,75.0708 32.5,68.5C 26.9047,67.4399 25.0714,64.1065 27,58.5C 30.2319,55.8857 29.8986,53.5524 26,51.5C 25.6667,53.5 25.3333,55.5 25,57.5C 24.586,57.9574 24.086,58.2907 23.5,58.5C 22.5078,54.2172 22.1744,49.8839 22.5,45.5C 23.552,45.6495 24.552,45.4828 25.5,45C 19.9614,35.5558 19.2947,25.8891 23.5,16C 21.2867,7.52862 24.62,2.86195 33.5,2C 34.9423,1.62325 35.9423,0.789915 36.5,-0.5 Z M 38.5,2.5 C 40.5273,2.33788 42.5273,2.50454 44.5,3C 42.0301,5.01415 40.0301,4.84748 38.5,2.5 Z M 30.5,5.5 C 31.5983,6.60093 31.765,7.93426 31,9.5C 29.0448,10.4533 27.3782,11.7866 26,13.5C 25.6754,9.81663 27.1754,7.14996 30.5,5.5 Z"/></g>
<g><path style="opacity:1" fill="#f7ba0f" d="M 40.5,49.5 C 40.6716,50.4916 40.3382,51.1583 39.5,51.5C 37.7583,48.3566 35.7583,45.3566 33.5,42.5C 32.8333,45.5 32.1667,48.5 31.5,51.5C 26.1175,42.5251 23.2841,32.8584 23,22.5C 23.9336,19.0352 25.4336,18.7019 27.5,21.5C 27.8333,21.1667 28.1667,20.8333 28.5,20.5C 27.8333,19.5 27.1667,18.5 26.5,17.5C 27.8333,15.5 29.5,13.8333 31.5,12.5C 32.6667,14.1667 33.8333,15.8333 35,17.5C 34.5624,14.9402 34.729,12.4402 35.5,10C 42.1507,5.00087 49.1507,4.3342 56.5,8C 64.5061,14.9882 70.5061,23.3215 74.5,33C 69.1743,31.4993 64.5076,32.6659 60.5,36.5C 46.5238,29.8148 39.8571,34.1481 40.5,49.5 Z"/></g>
<g><path style="opacity:1" fill="#d0dede" d="M 47.5,35.5 C 58.1599,34.3278 62.3266,38.9945 60,49.5C 58.2003,53.235 55.2003,54.9017 51,54.5C 48.41,54.6243 46.0767,53.9577 44,52.5C 42.566,48.5935 42.2327,44.5935 43,40.5C 44.025,38.313 45.525,36.6464 47.5,35.5 Z"/></g>
<g><path style="opacity:1" fill="#cbdada" d="M 65.5,34.5 C 75.482,33.9817 79.6486,38.6484 78,48.5C 77.6121,49.428 76.9454,50.0946 76,50.5C 71.5536,49.5879 67.0536,49.2546 62.5,49.5C 62.7592,45.7604 62.4259,42.0938 61.5,38.5C 62.8665,37.16 64.1999,35.8267 65.5,34.5 Z"/></g>
<g><path style="opacity:1" fill="#1e1f1f" d="M 72.5,41.5 C 73.8333,41.5 75.1667,41.5 76.5,41.5C 76.7778,43.3464 76.1112,44.6798 74.5,45.5C 72.8888,44.6798 72.2222,43.3464 72.5,41.5 Z"/></g>
<g><path style="opacity:1" fill="#1b1d1d" d="M 47.5,43.5 C 48.8734,43.3433 50.2068,43.51 51.5,44C 52.6745,46.8288 51.6745,47.8288 48.5,47C 47.6634,45.9887 47.33,44.8221 47.5,43.5 Z"/></g>
<g><path style="opacity:1" fill="#f0b50f" d="M 39.5,51.5 C 40.3382,51.1583 40.6716,50.4916 40.5,49.5C 42.166,54.4261 45.666,56.7594 51,56.5C 55.8409,56.6604 59.5075,54.6604 62,50.5C 66.4675,51.1935 70.9675,51.8602 75.5,52.5C 76.8485,54.6114 76.5152,56.4447 74.5,58C 67.0885,58.1083 59.7552,58.775 52.5,60C 43.8386,64.1587 40.0052,70.992 41,80.5C 45.4253,88.4618 52.2586,91.7951 61.5,90.5C 61.5,92.8333 61.5,95.1667 61.5,97.5C 50.0977,97.3656 39.7643,94.0322 30.5,87.5C 33.5499,81.1832 35.0499,74.5166 35,67.5C 39.6116,63.3277 39.6116,59.3277 35,55.5C 33.7499,46.996 34.9166,46.496 38.5,54C 40.7615,54.2071 41.0948,53.3738 39.5,51.5 Z"/></g>
<g><path style="opacity:1" fill="#daa40e" d="M 30.5,57.5 C 36.3133,57.062 37.98,59.562 35.5,65C 28.712,65.9247 27.0453,63.4247 30.5,57.5 Z"/></g>
<g><path style="opacity:1" fill="#261c07" d="M 31.5,60.5 C 36.6876,60.968 36.6876,61.968 31.5,63.5C 30.4376,62.5754 30.4376,61.5754 31.5,60.5 Z"/></g>
<g><path style="opacity:1" fill="#9e7754" d="M 56.5,60.5 C 61.8437,60.334 67.1771,60.5006 72.5,61C 78.0829,65.4851 81.0829,70.9851 81.5,77.5C 72.5989,81.3264 63.5989,81.493 54.5,78C 53.8095,76.9326 53.3095,75.7659 53,74.5C 49.8501,76.1285 49.0168,78.4618 50.5,81.5C 51.1667,80.8333 51.8333,80.1667 52.5,79.5C 58.2541,81.7781 64.2541,82.9447 70.5,83C 61.6494,90.3956 52.816,90.229 44,82.5C 41.9469,75.0505 43.7803,68.8838 49.5,64C 51.9252,62.7874 54.2585,61.6207 56.5,60.5 Z"/></g>
</svg>
