<?xml version="1.0" encoding="UTF-8"?>
<!DOCTYPE svg PUBLIC "-//W3C//DTD SVG 1.1//EN" "http://www.w3.org/Graphics/SVG/1.1/DTD/svg11.dtd">
<svg xmlns="http://www.w3.org/2000/svg" version="1.1" width="512px" height="512px" style="shape-rendering:geometricPrecision; text-rendering:geometricPrecision; image-rendering:optimizeQuality; fill-rule:evenodd; clip-rule:evenodd" xmlns:xlink="http://www.w3.org/1999/xlink">
<g><path style="opacity:0.998" fill="#eaf2fe" d="M 91.5,-0.5 C 132.5,-0.5 173.5,-0.5 214.5,-0.5C 203.5,10.8333 192.5,22.1667 181.5,33.5C 178.167,33.5 174.833,33.5 171.5,33.5C 152.497,33.3334 133.497,33.5001 114.5,34C 72.199,41.9676 45.699,66.8009 35,108.5C 33.5695,129.794 33.0695,151.127 33.5,172.5C 33.5,175.5 33.5,178.5 33.5,181.5C 22.1667,192.5 10.8333,203.5 -0.5,214.5C -0.5,173.5 -0.5,132.5 -0.5,91.5C 9.82943,40.5039 40.4961,9.83724 91.5,-0.5 Z"/></g>
<g><path style="opacity:1" fill="#e4effe" d="M 214.5,-0.5 C 277.5,-0.5 340.5,-0.5 403.5,-0.5C 392.5,10.8333 381.5,22.1667 370.5,33.5C 342.167,33.5 313.833,33.5 285.5,33.5C 250.833,33.5 216.167,33.5 181.5,33.5C 192.5,22.1667 203.5,10.8333 214.5,-0.5 Z"/></g>
<g><path style="opacity:0.993" fill="#dcecfd" d="M 403.5,-0.5 C 408.833,-0.5 414.167,-0.5 419.5,-0.5C 457.837,6.51122 485.504,27.5112 502.5,62.5C 492.167,72.5 481.833,82.5 471.5,92.5C 469.769,88.705 467.769,85.0383 465.5,81.5C 460.323,71.9879 453.656,63.6546 445.5,56.5C 436.732,48.7791 426.732,43.1125 415.5,39.5C 408.553,36.5987 401.219,34.932 393.5,34.5C 386.018,33.508 378.352,33.1746 370.5,33.5C 381.5,22.1667 392.5,10.8333 403.5,-0.5 Z"/></g>
<g><path style="opacity:1" fill="#76cbf7" d="M 171.5,33.5 C 176.316,34.3261 181.316,34.8261 186.5,35C 182.296,39.0356 178.296,43.2022 174.5,47.5C 163.944,49.3945 158.944,55.7278 159.5,66.5C 158.732,65.7375 158.232,64.7375 158,63.5C 147.576,73.4203 137.743,83.7536 128.5,94.5C 118.389,88.7426 107.722,86.7426 96.5,88.5C 94.901,88.2322 93.5676,88.5655 92.5,89.5C 75.3075,94.5293 64.8075,105.863 61,123.5C 60.8188,129.895 60.6522,136.228 60.5,142.5C 43.7289,150.376 37.3955,163.376 41.5,181.5C 38.9438,182.543 36.7772,184.21 35,186.5C 34.8255,181.649 34.3255,176.982 33.5,172.5C 33.0695,151.127 33.5695,129.794 35,108.5C 45.699,66.8009 72.199,41.9676 114.5,34C 133.497,33.5001 152.497,33.3334 171.5,33.5 Z"/></g>
<g><path style="opacity:1" fill="#73c4f7" d="M 171.5,33.5 C 174.833,33.5 178.167,33.5 181.5,33.5C 216.167,33.5 250.833,33.5 285.5,33.5C 282.713,34.4767 279.713,34.81 276.5,34.5C 261.496,34.3334 246.496,34.5001 231.5,35C 219.244,46.7529 207.577,58.9196 196.5,71.5C 193.871,66.8074 191.705,61.8074 190,56.5C 188.951,54.3825 187.451,52.7158 185.5,51.5C 182.34,49 178.673,47.6667 174.5,47.5C 178.296,43.2022 182.296,39.0356 186.5,35C 181.316,34.8261 176.316,34.3261 171.5,33.5 Z"/></g>
<g><path style="opacity:1" fill="#6ebef7" d="M 276.5,34.5 C 245.167,66.5 213.5,98.1667 181.5,129.5C 179.5,127.833 177.5,126.167 175.5,124.5C 173.912,121.242 171.579,118.575 168.5,116.5C 162.991,111.324 156.657,109.658 149.5,111.5C 148.041,111.433 146.708,111.766 145.5,112.5C 143.469,111.461 142.136,109.795 141.5,107.5C 142.898,109.109 144.565,109.942 146.5,110C 153.702,102.631 161.035,95.4641 168.5,88.5C 168.833,89.5 169.5,90.1667 170.5,90.5C 179.087,97.449 187.254,96.7823 195,88.5C 197.615,83.0145 198.115,77.3478 196.5,71.5C 207.577,58.9196 219.244,46.7529 231.5,35C 246.496,34.5001 261.496,34.3334 276.5,34.5 Z"/></g>
<g><path style="opacity:1" fill="#6ab8f7" d="M 285.5,33.5 C 313.833,33.5 342.167,33.5 370.5,33.5C 378.352,33.1746 386.018,33.508 393.5,34.5C 387.167,34.5 380.833,34.5 374.5,34.5C 356.83,34.3334 339.164,34.5001 321.5,35C 290.627,65.3669 260.627,95.8669 231.5,126.5C 217.768,129.53 204.768,134.53 192.5,141.5C 192.167,141.5 191.833,141.5 191.5,141.5C 188.566,137.227 185.233,133.227 181.5,129.5C 213.5,98.1667 245.167,66.5 276.5,34.5C 279.713,34.81 282.713,34.4767 285.5,33.5 Z"/></g>
<g><path style="opacity:1" fill="#67b2f7" d="M 374.5,34.5 C 366.833,42.8333 358.833,50.8333 350.5,58.5C 348.114,53.7815 344.447,50.4481 339.5,48.5C 330.189,45.5674 323.355,48.5674 319,57.5C 316,64.3328 313.5,71.3328 311.5,78.5C 312.137,84.4535 314.804,89.1202 319.5,92.5C 318.448,92.3505 317.448,92.5172 316.5,93C 304.965,104.368 293.631,115.868 282.5,127.5C 274.92,126.019 267.253,125.353 259.5,125.5C 250.151,125.483 240.818,125.817 231.5,126.5C 260.627,95.8669 290.627,65.3669 321.5,35C 339.164,34.5001 356.83,34.3334 374.5,34.5 Z"/></g>
<g><path style="opacity:1" fill="#63abf7" d="M 374.5,34.5 C 380.833,34.5 387.167,34.5 393.5,34.5C 401.219,34.932 408.553,36.5987 415.5,39.5C 382.5,72.8333 349.5,106.167 316.5,139.5C 314.5,138.833 312.5,138.167 310.5,137.5C 308.351,136.264 306.018,135.264 303.5,134.5C 299.498,132.39 295.165,131.057 290.5,130.5C 287.98,129.082 285.313,128.082 282.5,127.5C 293.631,115.868 304.965,104.368 316.5,93C 317.448,92.5172 318.448,92.3505 319.5,92.5C 320.391,93.1098 321.391,93.4431 322.5,93.5C 329.625,95.822 335.792,94.1553 341,88.5C 346.212,79.0932 349.379,69.0932 350.5,58.5C 358.833,50.8333 366.833,42.8333 374.5,34.5 Z"/></g>
<g><path style="opacity:1" fill="#5fa5f7" d="M 415.5,39.5 C 426.732,43.1125 436.732,48.7791 445.5,56.5C 411.25,89.2483 377.417,122.582 344,156.5C 343.536,157.094 343.369,157.761 343.5,158.5C 340.991,157.079 338.657,155.412 336.5,153.5C 332.852,150.34 328.852,147.673 324.5,145.5C 323.341,143.75 321.674,142.75 319.5,142.5C 318.694,141.272 317.694,140.272 316.5,139.5C 349.5,106.167 382.5,72.8333 415.5,39.5 Z"/></g>
<g><path style="opacity:1" fill="#eec166" d="M 339.5,48.5 C 338.503,48.4701 337.836,48.9701 337.5,50C 332.435,64.1253 327.102,78.1253 321.5,92C 322.056,92.3826 322.389,92.8826 322.5,93.5C 321.391,93.4431 320.391,93.1098 319.5,92.5C 314.804,89.1202 312.137,84.4535 311.5,78.5C 313.5,71.3328 316,64.3328 319,57.5C 323.355,48.5674 330.189,45.5674 339.5,48.5 Z"/></g>
<g><path style="opacity:1" fill="#efc266" d="M 174.5,47.5 C 178.673,47.6667 182.34,49 185.5,51.5C 184.503,51.4701 183.836,51.9701 183.5,53C 178.657,65.3649 174.323,77.8649 170.5,90.5C 169.5,90.1667 168.833,89.5 168.5,88.5C 165.11,81.3325 162.11,73.9992 159.5,66.5C 158.944,55.7278 163.944,49.3945 174.5,47.5 Z"/></g>
<g><path style="opacity:1" fill="#ebb158" d="M 339.5,48.5 C 344.447,50.4481 348.114,53.7815 350.5,58.5C 349.379,69.0932 346.212,79.0932 341,88.5C 335.792,94.1553 329.625,95.822 322.5,93.5C 322.389,92.8826 322.056,92.3826 321.5,92C 327.102,78.1253 332.435,64.1253 337.5,50C 337.836,48.9701 338.503,48.4701 339.5,48.5 Z"/></g>
<g><path style="opacity:1" fill="#ebb35a" d="M 185.5,51.5 C 187.451,52.7158 188.951,54.3825 190,56.5C 191.705,61.8074 193.871,66.8074 196.5,71.5C 198.115,77.3478 197.615,83.0145 195,88.5C 187.254,96.7823 179.087,97.449 170.5,90.5C 174.323,77.8649 178.657,65.3649 183.5,53C 183.836,51.9701 184.503,51.4701 185.5,51.5 Z"/></g>
<g><path style="opacity:1" fill="#5b9ff7" d="M 445.5,56.5 C 453.656,63.6546 460.323,71.9879 465.5,81.5C 437.084,108.414 409.084,135.914 381.5,164C 382.416,164.278 383.082,164.778 383.5,165.5C 379.865,164.886 376.198,164.552 372.5,164.5C 365.132,164.317 357.799,164.65 350.5,165.5C 347.833,163.5 345.5,161.167 343.5,158.5C 343.369,157.761 343.536,157.094 344,156.5C 377.417,122.582 411.25,89.2483 445.5,56.5 Z"/></g>
<g><path style="opacity:0.998" fill="#d7eafd" d="M 502.5,62.5 C 506.6,71.9189 509.6,81.5856 511.5,91.5C 511.5,132.833 511.5,174.167 511.5,215.5C 500.167,226.5 488.833,237.5 477.5,248.5C 477.667,204.165 477.5,159.832 477,115.5C 476.257,110.356 475.09,105.356 473.5,100.5C 473.037,97.779 472.371,95.1123 471.5,92.5C 481.833,82.5 492.167,72.5 502.5,62.5 Z"/></g>
<g><path style="opacity:1" fill="#72c5f7" d="M 159.5,66.5 C 162.11,73.9992 165.11,81.3325 168.5,88.5C 161.035,95.4641 153.702,102.631 146.5,110C 144.565,109.942 142.898,109.109 141.5,107.5C 137.5,102.833 133.167,98.5 128.5,94.5C 137.743,83.7536 147.576,73.4203 158,63.5C 158.232,64.7375 158.732,65.7375 159.5,66.5 Z"/></g>
<g><path style="opacity:1" fill="#599af7" d="M 465.5,81.5 C 467.769,85.0383 469.769,88.705 471.5,92.5C 472.371,95.1123 473.037,97.779 473.5,100.5C 448.883,123.449 424.883,147.116 401.5,171.5C 399.254,170.545 396.921,169.878 394.5,169.5C 391.061,167.796 387.395,166.462 383.5,165.5C 383.082,164.778 382.416,164.278 381.5,164C 409.084,135.914 437.084,108.414 465.5,81.5 Z"/></g>
<g><path style="opacity:1" fill="#c1d4f0" d="M 96.5,88.5 C 107.722,86.7426 118.389,88.7426 128.5,94.5C 133.167,98.5 137.5,102.833 141.5,107.5C 142.136,109.795 143.469,111.461 145.5,112.5C 140.642,114.682 136.642,118.015 133.5,122.5C 129.899,120.8 127.399,118.133 126,114.5C 118.661,106.183 111.494,97.6832 104.5,89C 101.854,88.5026 99.1873,88.3359 96.5,88.5 Z"/></g>
<g><path style="opacity:1" fill="#e7f1fe" d="M 92.5,89.5 C 94.371,89.8588 95.871,90.8588 97,92.5C 106.167,104.333 115.333,116.167 124.5,128C 106.833,145.667 89.1667,163.333 71.5,181C 61.9138,182.42 52.2471,182.92 42.5,182.5C 41.8333,182.5 41.5,182.167 41.5,181.5C 37.3955,163.376 43.7289,150.376 60.5,142.5C 60.6522,136.228 60.8188,129.895 61,123.5C 64.8075,105.863 75.3075,94.5293 92.5,89.5 Z"/></g>
<g><path style="opacity:1" fill="#5796f7" d="M 473.5,100.5 C 475.09,105.356 476.257,110.356 477,115.5C 477.5,159.832 477.667,204.165 477.5,248.5C 477.5,258.833 477.5,269.167 477.5,279.5C 476.662,279.158 476.328,278.492 476.5,277.5C 476.5,255.5 476.5,233.5 476.5,211.5C 476.667,198.496 476.5,185.496 476,172.5C 463.667,184.833 451.333,197.167 439,209.5C 438.517,210.448 438.351,211.448 438.5,212.5C 437.167,210.5 435.833,208.5 434.5,206.5C 433.087,203.339 431.42,200.339 429.5,197.5C 429.833,197.5 430.167,197.5 430.5,197.5C 440.048,196.039 449.048,192.872 457.5,188C 466.35,177.804 465.35,168.804 454.5,161C 451.274,159.801 447.941,159.301 444.5,159.5C 436.637,162.095 428.97,165.262 421.5,169C 418.928,171.313 417.261,174.146 416.5,177.5C 415.842,178.398 415.176,179.398 414.5,180.5C 413.482,179.807 412.482,179.141 411.5,178.5C 408.167,176.167 404.833,173.833 401.5,171.5C 424.883,147.116 448.883,123.449 473.5,100.5 Z"/></g>
<g><path style="opacity:1" fill="#d9eafd" d="M 92.5,89.5 C 93.5676,88.5655 94.901,88.2322 96.5,88.5C 99.1873,88.3359 101.854,88.5026 104.5,89C 111.494,97.6832 118.661,106.183 126,114.5C 127.399,118.133 129.899,120.8 133.5,122.5C 136.642,118.015 140.642,114.682 145.5,112.5C 146.708,111.766 148.041,111.433 149.5,111.5C 151.833,111.5 154.167,111.5 156.5,111.5C 156.555,122.848 156.222,134.181 155.5,145.5C 159.938,144.115 164.271,142.448 168.5,140.5C 170.833,140.5 173.167,140.5 175.5,140.5C 175.833,140.5 176.167,140.5 176.5,140.5C 176.918,141.222 177.584,141.722 178.5,142C 165.5,155 152.5,168 139.5,181C 107.181,182.608 74.8477,183.775 42.5,184.5C 42.5,183.833 42.5,183.167 42.5,182.5C 52.2471,182.92 61.9138,182.42 71.5,181C 89.1667,163.333 106.833,145.667 124.5,128C 115.333,116.167 106.167,104.333 97,92.5C 95.871,90.8588 94.371,89.8588 92.5,89.5 Z"/></g>
<g><path style="opacity:1" fill="#bfd6f2" d="M 149.5,111.5 C 156.657,109.658 162.991,111.324 168.5,116.5C 168.5,124.5 168.5,132.5 168.5,140.5C 164.271,142.448 159.938,144.115 155.5,145.5C 156.222,134.181 156.555,122.848 156.5,111.5C 154.167,111.5 151.833,111.5 149.5,111.5 Z"/></g>
<g><path style="opacity:1" fill="#a3bfe7" d="M 168.5,116.5 C 171.579,118.575 173.912,121.242 175.5,124.5C 176.787,129.864 176.787,135.198 175.5,140.5C 173.167,140.5 170.833,140.5 168.5,140.5C 168.5,132.5 168.5,124.5 168.5,116.5 Z"/></g>
<g><path style="opacity:1" fill="#f5de7d" d="M 259.5,125.5 C 246.167,139.5 232.5,153.167 218.5,166.5C 209.833,158.167 201.167,149.833 192.5,141.5C 204.768,134.53 217.768,129.53 231.5,126.5C 240.818,125.817 250.151,125.483 259.5,125.5 Z"/></g>
<g><path style="opacity:1" fill="#f3d373" d="M 259.5,125.5 C 267.253,125.353 274.92,126.019 282.5,127.5C 285.313,128.082 287.98,129.082 290.5,130.5C 272.833,148.833 254.833,166.833 236.5,184.5C 234.5,182.833 232.5,181.167 230.5,179.5C 227.167,175.5 223.5,171.833 219.5,168.5C 219.167,167.833 218.833,167.167 218.5,166.5C 232.5,153.167 246.167,139.5 259.5,125.5 Z"/></g>
<g><path style="opacity:1" fill="#f2cb6d" d="M 290.5,130.5 C 295.165,131.057 299.498,132.39 303.5,134.5C 283.833,153.833 264.167,173.167 244.5,192.5C 241.5,190.167 238.833,187.5 236.5,184.5C 254.833,166.833 272.833,148.833 290.5,130.5 Z"/></g>
<g><path style="opacity:1" fill="#5a99e9" d="M 175.5,124.5 C 177.5,126.167 179.5,127.833 181.5,129.5C 185.233,133.227 188.566,137.227 191.5,141.5C 190.5,142.167 189.5,142.833 188.5,143.5C 184.584,142.188 180.584,141.188 176.5,140.5C 176.167,140.5 175.833,140.5 175.5,140.5C 176.787,135.198 176.787,129.864 175.5,124.5 Z"/></g>
<g><path style="opacity:1" fill="#efc066" d="M 303.5,134.5 C 306.018,135.264 308.351,136.264 310.5,137.5C 290.783,158.218 270.45,178.218 249.5,197.5C 247.5,196.167 245.833,194.5 244.5,192.5C 264.167,173.167 283.833,153.833 303.5,134.5 Z"/></g>
<g><path style="opacity:1" fill="#eaa758" d="M 319.5,142.5 C 321.674,142.75 323.341,143.75 324.5,145.5C 303.783,167.218 282.45,188.218 260.5,208.5C 258.5,207.167 256.833,205.5 255.5,203.5C 276.582,183.92 297.249,163.753 317.5,143C 318.094,142.536 318.761,142.369 319.5,142.5 Z"/></g>
<g><path style="opacity:1" fill="#d0e6fb" d="M 176.5,140.5 C 180.584,141.188 184.584,142.188 188.5,143.5C 200.607,150.713 206.107,161.38 205,175.5C 204.246,178.684 202.746,181.351 200.5,183.5C 151.94,182.794 103.44,184.127 55,187.5C 51.1652,187.11 47.3319,186.777 43.5,186.5C 43.1667,185.833 42.8333,185.167 42.5,184.5C 74.8477,183.775 107.181,182.608 139.5,181C 152.5,168 165.5,155 178.5,142C 177.584,141.722 176.918,141.222 176.5,140.5 Z"/></g>
<g><path style="opacity:1" fill="#df8547" d="M 336.5,153.5 C 338.657,155.412 340.991,157.079 343.5,158.5C 345.5,161.167 347.833,163.5 350.5,165.5C 336.045,170.319 323.545,178.319 313,189.5C 303.306,204.23 294.139,219.23 285.5,234.5C 285.167,233.5 284.5,232.833 283.5,232.5C 280.833,229.167 277.833,226.167 274.5,223.5C 272.833,221.5 271.167,219.5 269.5,217.5C 291.582,196.92 313.249,175.753 334.5,154C 335.094,153.536 335.761,153.369 336.5,153.5 Z"/></g>
<g><path style="opacity:1" fill="#edb45e" d="M 310.5,137.5 C 312.5,138.167 314.5,138.833 316.5,139.5C 317.694,140.272 318.694,141.272 319.5,142.5C 318.761,142.369 318.094,142.536 317.5,143C 297.249,163.753 276.582,183.92 255.5,203.5C 254.167,202.5 252.833,201.5 251.5,200.5C 250.833,199.5 250.167,198.5 249.5,197.5C 270.45,178.218 290.783,158.218 310.5,137.5 Z"/></g>
<g><path style="opacity:1" fill="#ebb159" d="M 444.5,159.5 C 447.941,159.301 451.274,159.801 454.5,161C 465.35,168.804 466.35,177.804 457.5,188C 449.048,192.872 440.048,196.039 430.5,197.5C 435.362,184.915 440.029,172.248 444.5,159.5 Z"/></g>
<g><path style="opacity:1" fill="#efc368" d="M 444.5,159.5 C 440.029,172.248 435.362,184.915 430.5,197.5C 430.167,197.5 429.833,197.5 429.5,197.5C 428.299,195.091 426.633,193.091 424.5,191.5C 422.588,188.081 420.088,185.081 417,182.5C 416.506,180.866 416.34,179.199 416.5,177.5C 417.261,174.146 418.928,171.313 421.5,169C 428.97,165.262 436.637,162.095 444.5,159.5 Z"/></g>
<g><path style="opacity:1" fill="#b9dd92" d="M 372.5,164.5 C 337.117,200.883 301.117,236.55 264.5,271.5C 271.765,259.302 278.765,246.968 285.5,234.5C 294.139,219.23 303.306,204.23 313,189.5C 323.545,178.319 336.045,170.319 350.5,165.5C 357.799,164.65 365.132,164.317 372.5,164.5 Z"/></g>
<g><path style="opacity:1" fill="#b4db8b" d="M 372.5,164.5 C 376.198,164.552 379.865,164.886 383.5,165.5C 387.395,166.462 391.061,167.796 394.5,169.5C 340.417,222.083 286.75,275.249 233.5,329C 232.906,329.464 232.239,329.631 231.5,329.5C 240.833,312.833 250.167,296.167 259.5,279.5C 261.653,277.206 263.32,274.54 264.5,271.5C 301.117,236.55 337.117,200.883 372.5,164.5 Z"/></g>
<g><path style="opacity:1" fill="#b0d985" d="M 394.5,169.5 C 396.921,169.878 399.254,170.545 401.5,171.5C 404.833,173.833 408.167,176.167 411.5,178.5C 340.25,248.25 269.416,318.583 199,389.5C 198.517,388.552 198.351,387.552 198.5,386.5C 203.597,378.068 208.264,369.402 212.5,360.5C 219.084,350.334 225.418,340 231.5,329.5C 232.239,329.631 232.906,329.464 233.5,329C 286.75,275.249 340.417,222.083 394.5,169.5 Z"/></g>
<g><path style="opacity:1" fill="#508cf7" d="M 476.5,211.5 C 467.778,219.221 459.778,227.554 452.5,236.5C 449.5,231.833 446.5,227.167 443.5,222.5C 441.847,219.193 440.18,215.86 438.5,212.5C 438.351,211.448 438.517,210.448 439,209.5C 451.333,197.167 463.667,184.833 476,172.5C 476.5,185.496 476.667,198.496 476.5,211.5 Z"/></g>
<g><path style="opacity:1" fill="#e08e52" d="M 219.5,168.5 C 223.5,171.833 227.167,175.5 230.5,179.5C 200.45,210.55 169.784,240.883 138.5,270.5C 133.972,270.23 129.639,269.563 125.5,268.5C 125.5,266.5 125.5,264.5 125.5,262.5C 157.167,231.5 188.5,200.167 219.5,168.5 Z"/></g>
<g><path style="opacity:1" fill="#acd77f" d="M 416.5,177.5 C 416.34,179.199 416.506,180.866 417,182.5C 420.088,185.081 422.588,188.081 424.5,191.5C 355.701,259.799 287.035,328.299 218.5,397C 214.833,398 211.167,399 207.5,400C 206.5,401 205.5,402 204.5,403C 200.315,403.331 196.315,404.164 192.5,405.5C 190.955,405.489 189.622,405.156 188.5,404.5C 191.33,398.17 194.663,392.17 198.5,386.5C 198.351,387.552 198.517,388.552 199,389.5C 269.416,318.583 340.25,248.25 411.5,178.5C 412.482,179.141 413.482,179.807 414.5,180.5C 415.176,179.398 415.842,178.398 416.5,177.5 Z"/></g>
<g><path style="opacity:1" fill="#e39252" d="M 230.5,179.5 C 232.5,181.167 234.5,182.833 236.5,184.5C 238.833,187.5 241.5,190.167 244.5,192.5C 245.833,194.5 247.5,196.167 249.5,197.5C 250.167,198.5 250.833,199.5 251.5,200.5C 222.45,228.55 194.116,257.216 166.5,286.5C 164.754,284.748 162.754,283.415 160.5,282.5C 155.877,277.686 150.21,274.686 143.5,273.5C 141.739,272.687 140.072,271.687 138.5,270.5C 169.784,240.883 200.45,210.55 230.5,179.5 Z"/></g>
<g><path style="opacity:1" fill="#e69a51" d="M 324.5,145.5 C 328.852,147.673 332.852,150.34 336.5,153.5C 335.761,153.369 335.094,153.536 334.5,154C 313.249,175.753 291.582,196.92 269.5,217.5C 267.5,215.833 265.5,214.167 263.5,212.5C 262.5,211.167 261.5,209.833 260.5,208.5C 282.45,188.218 303.783,167.218 324.5,145.5 Z"/></g>
<g><path style="opacity:1" fill="#e3effe" d="M 33.5,181.5 C 33.5,216.167 33.5,250.833 33.5,285.5C 33.1693,307.673 33.5026,329.673 34.5,351.5C 33.5422,357.744 33.2088,364.077 33.5,370.5C 22.1667,381.5 10.8333,392.5 -0.5,403.5C -0.5,340.5 -0.5,277.5 -0.5,214.5C 10.8333,203.5 22.1667,192.5 33.5,181.5 Z"/></g>
<g><path style="opacity:1" fill="#73c4f8" d="M 33.5,172.5 C 34.3255,176.982 34.8255,181.649 35,186.5C 36.7772,184.21 38.9438,182.543 41.5,181.5C 41.5,182.167 41.8333,182.5 42.5,182.5C 42.5,183.167 42.5,183.833 42.5,184.5C 42.8333,185.167 43.1667,185.833 43.5,186.5C 44.7997,189.432 46.7997,191.766 49.5,193.5C 50.9108,195.914 52.9108,197.581 55.5,198.5C 55.5,198.833 55.5,199.167 55.5,199.5C 57.1667,201.5 58.8333,203.5 60.5,205.5C 52.2023,214.298 43.7023,222.965 35,231.5C 34.5001,246.496 34.3334,261.496 34.5,276.5C 34.81,279.713 34.4767,282.713 33.5,285.5C 33.5,250.833 33.5,216.167 33.5,181.5C 33.5,178.5 33.5,175.5 33.5,172.5 Z"/></g>
<g><path style="opacity:1" fill="#bed5f2" d="M 200.5,183.5 C 198.522,187.478 195.522,190.478 191.5,192.5C 182.173,191.834 172.673,191.5 163,191.5C 125.181,192.946 87.348,193.613 49.5,193.5C 46.7997,191.766 44.7997,189.432 43.5,186.5C 47.3319,186.777 51.1652,187.11 55,187.5C 103.44,184.127 151.94,182.794 200.5,183.5 Z"/></g>
<g><path style="opacity:1" fill="#aec8eb" d="M 191.5,192.5 C 189.469,194.522 187.135,196.189 184.5,197.5C 175.506,196.834 166.34,196.5 157,196.5C 123.17,197.386 89.3364,198.052 55.5,198.5C 52.9108,197.581 50.9108,195.914 49.5,193.5C 87.348,193.613 125.181,192.946 163,191.5C 172.673,191.5 182.173,191.834 191.5,192.5 Z"/></g>
<g><path style="opacity:1" fill="#a7d579" d="M 424.5,191.5 C 426.633,193.091 428.299,195.091 429.5,197.5C 431.42,200.339 433.087,203.339 434.5,206.5C 370.701,269.799 307.035,333.299 243.5,397C 237.833,398.667 232.167,400.333 226.5,402C 225.5,403 224.5,404 223.5,405C 218.132,406.136 213.132,408.136 208.5,411C 203.79,411.375 199.123,412.042 194.5,413C 193.833,413.667 193.167,414.333 192.5,415C 189.167,415.667 185.833,416.333 182.5,417C 181.944,417.383 181.611,417.883 181.5,418.5C 181.167,418.5 180.833,418.5 180.5,418.5C 182.664,413.5 185.331,408.833 188.5,404.5C 189.622,405.156 190.955,405.489 192.5,405.5C 196.315,404.164 200.315,403.331 204.5,403C 205.5,402 206.5,401 207.5,400C 211.167,399 214.833,398 218.5,397C 287.035,328.299 355.701,259.799 424.5,191.5 Z"/></g>
<g><path style="opacity:1" fill="#a1bde5" d="M 184.5,197.5 C 181.672,199.47 178.672,201.303 175.5,203C 162.171,203.5 148.837,203.667 135.5,203.5C 112.164,203.667 88.831,203.5 65.5,203C 62.049,202.105 58.7157,200.938 55.5,199.5C 55.5,199.167 55.5,198.833 55.5,198.5C 89.3364,198.052 123.17,197.386 157,196.5C 166.34,196.5 175.506,196.834 184.5,197.5 Z"/></g>
<g><path style="opacity:1" fill="#5999ea" d="M 55.5,199.5 C 58.7157,200.938 62.049,202.105 65.5,203C 88.831,203.5 112.164,203.667 135.5,203.5C 127.095,222.263 123.762,241.929 125.5,262.5C 125.5,264.5 125.5,266.5 125.5,268.5C 124.833,268.5 124.167,268.5 123.5,268.5C 110.5,254.833 97.1667,241.5 83.5,228.5C 76.1667,220.5 68.5,212.833 60.5,205.5C 58.8333,203.5 57.1667,201.5 55.5,199.5 Z"/></g>
<g><path style="opacity:1" fill="#dc8751" d="M 191.5,141.5 C 191.833,141.5 192.167,141.5 192.5,141.5C 201.167,149.833 209.833,158.167 218.5,166.5C 218.833,167.167 219.167,167.833 219.5,168.5C 188.5,200.167 157.167,231.5 125.5,262.5C 123.762,241.929 127.095,222.263 135.5,203.5C 148.837,203.667 162.171,203.5 175.5,203C 178.672,201.303 181.672,199.47 184.5,197.5C 187.135,196.189 189.469,194.522 191.5,192.5C 195.522,190.478 198.522,187.478 200.5,183.5C 202.746,181.351 204.246,178.684 205,175.5C 206.107,161.38 200.607,150.713 188.5,143.5C 189.5,142.833 190.5,142.167 191.5,141.5 Z"/></g>
<g><path style="opacity:1" fill="#6dbef7" d="M 60.5,205.5 C 68.5,212.833 76.1667,220.5 83.5,228.5C 67.1667,244.5 50.8333,260.5 34.5,276.5C 34.3334,261.496 34.5001,246.496 35,231.5C 43.7023,222.965 52.2023,214.298 60.5,205.5 Z"/></g>
<g><path style="opacity:1" fill="#e28849" d="M 251.5,200.5 C 252.833,201.5 254.167,202.5 255.5,203.5C 256.833,205.5 258.5,207.167 260.5,208.5C 261.5,209.833 262.5,211.167 263.5,212.5C 262.761,212.369 262.094,212.536 261.5,213C 233.299,241.368 204.965,269.535 176.5,297.5C 176.167,297.5 175.833,297.5 175.5,297.5C 173.883,294.216 171.55,291.549 168.5,289.5C 167.833,288.5 167.167,287.5 166.5,286.5C 194.116,257.216 222.45,228.55 251.5,200.5 Z"/></g>
<g><path style="opacity:1" fill="#a3d373" d="M 434.5,206.5 C 435.833,208.5 437.167,210.5 438.5,212.5C 440.18,215.86 441.847,219.193 443.5,222.5C 385.035,280.465 326.701,338.632 268.5,397C 264.5,398.333 260.5,399.667 256.5,401C 255.5,402 254.5,403 253.5,404C 243.346,407.704 233.013,411.037 222.5,414C 224.473,414.495 226.473,414.662 228.5,414.5C 212.886,415.112 197.219,416.446 181.5,418.5C 181.611,417.883 181.944,417.383 182.5,417C 185.833,416.333 189.167,415.667 192.5,415C 193.167,414.333 193.833,413.667 194.5,413C 199.123,412.042 203.79,411.375 208.5,411C 213.132,408.136 218.132,406.136 223.5,405C 224.5,404 225.5,403 226.5,402C 232.167,400.333 237.833,398.667 243.5,397C 307.035,333.299 370.701,269.799 434.5,206.5 Z"/></g>
<g><path style="opacity:1" fill="#4d86f7" d="M 476.5,211.5 C 476.5,233.5 476.5,255.5 476.5,277.5C 474.926,276.016 473.593,274.349 472.5,272.5C 469.5,267.167 466.5,261.833 463.5,256.5C 460.321,250.13 456.654,244.13 452.5,238.5C 452.5,237.833 452.5,237.167 452.5,236.5C 459.778,227.554 467.778,219.221 476.5,211.5 Z"/></g>
<g><path style="opacity:1" fill="#d1e7fc" d="M 511.5,215.5 C 511.5,283.5 511.5,351.5 511.5,419.5C 510.596,420.209 510.263,421.209 510.5,422.5C 497.246,421.519 483.913,421.186 470.5,421.5C 470.5,420.833 470.5,420.167 470.5,419.5C 473.596,411.447 475.596,403.114 476.5,394.5C 477.499,356.337 477.832,318.004 477.5,279.5C 477.5,269.167 477.5,258.833 477.5,248.5C 488.833,237.5 500.167,226.5 511.5,215.5 Z"/></g>
<g><path style="opacity:1" fill="#df7b42" d="M 263.5,212.5 C 265.5,214.167 267.5,215.833 269.5,217.5C 271.167,219.5 272.833,221.5 274.5,223.5C 244.5,252.833 214.833,282.5 185.5,312.5C 183.5,309.833 181.5,307.167 179.5,304.5C 178.758,302.02 177.758,299.687 176.5,297.5C 204.965,269.535 233.299,241.368 261.5,213C 262.094,212.536 262.761,212.369 263.5,212.5 Z"/></g>
<g><path style="opacity:1" fill="#9fd16d" d="M 443.5,222.5 C 446.5,227.167 449.5,231.833 452.5,236.5C 452.5,237.167 452.5,237.833 452.5,238.5C 399.368,291.132 346.368,343.965 293.5,397C 289.167,398.667 284.833,400.333 280.5,402C 279.167,403.333 277.833,404.667 276.5,406C 272.051,406.996 267.718,408.162 263.5,409.5C 253.02,411.348 242.353,412.515 231.5,413C 230.756,414.039 229.756,414.539 228.5,414.5C 226.473,414.662 224.473,414.495 222.5,414C 233.013,411.037 243.346,407.704 253.5,404C 254.5,403 255.5,402 256.5,401C 260.5,399.667 264.5,398.333 268.5,397C 326.701,338.632 385.035,280.465 443.5,222.5 Z"/></g>
<g><path style="opacity:1" fill="#da6f3d" d="M 274.5,223.5 C 277.833,226.167 280.833,229.167 283.5,232.5C 252.45,262.55 222.117,293.216 192.5,324.5C 192.167,324.5 191.833,324.5 191.5,324.5C 189.754,320.673 187.754,317.007 185.5,313.5C 185.5,313.167 185.5,312.833 185.5,312.5C 214.833,282.5 244.5,252.833 274.5,223.5 Z"/></g>
<g><path style="opacity:1" fill="#69b7f7" d="M 83.5,228.5 C 97.1667,241.5 110.5,254.833 123.5,268.5C 97.2873,268.685 77.1206,279.685 63,301.5C 53.2351,318.031 43.7351,334.698 34.5,351.5C 33.5026,329.673 33.1693,307.673 33.5,285.5C 34.4767,282.713 34.81,279.713 34.5,276.5C 50.8333,260.5 67.1667,244.5 83.5,228.5 Z"/></g>
<g><path style="opacity:1" fill="#9bcf66" d="M 452.5,238.5 C 456.654,244.13 460.321,250.13 463.5,256.5C 416.035,303.465 368.701,350.632 321.5,398C 316.494,398.98 312.494,401.647 309.5,406C 305.124,405.615 301.791,407.281 299.5,411C 295.558,410.937 292.558,412.603 290.5,416C 287.408,415.893 285.075,417.059 283.5,419.5C 281.833,419.5 280.167,419.5 278.5,419.5C 264.54,421.114 250.54,421.614 236.5,421C 242.167,419.333 247.833,417.667 253.5,416C 255.412,413.212 258.079,411.879 261.5,412C 262.381,411.292 263.047,410.458 263.5,409.5C 267.718,408.162 272.051,406.996 276.5,406C 277.833,404.667 279.167,403.333 280.5,402C 284.833,400.333 289.167,398.667 293.5,397C 346.368,343.965 399.368,291.132 452.5,238.5 Z"/></g>
<g><path style="opacity:1" fill="#96cc60" d="M 463.5,256.5 C 466.5,261.833 469.5,267.167 472.5,272.5C 429.084,314.415 386.084,356.915 343.5,400C 340.692,400.019 338.359,401.019 336.5,403C 337.5,403.333 338.5,403.667 339.5,404C 334.844,404.634 331.177,406.967 328.5,411C 325.692,411.019 323.359,412.019 321.5,414C 322.766,414.309 323.933,414.809 325,415.5C 328.272,414.949 331.439,414.116 334.5,413C 342.367,412.976 350.034,412.143 357.5,410.5C 354.5,414.167 351.167,417.5 347.5,420.5C 333.772,422.59 320.106,424.09 306.5,425C 310.167,422.667 313.833,420.333 317.5,418C 306.004,417.369 294.671,417.869 283.5,419.5C 285.075,417.059 287.408,415.893 290.5,416C 292.558,412.603 295.558,410.937 299.5,411C 301.791,407.281 305.124,405.615 309.5,406C 312.494,401.647 316.494,398.98 321.5,398C 368.701,350.632 416.035,303.465 463.5,256.5 Z"/></g>
<g><path style="opacity:1" fill="#d46338" d="M 283.5,232.5 C 284.5,232.833 285.167,233.5 285.5,234.5C 278.765,246.968 271.765,259.302 264.5,271.5C 263.32,274.54 261.653,277.206 259.5,279.5C 239.866,297.624 220.366,316.624 201,336.5C 200.536,337.094 200.369,337.761 200.5,338.5C 197.331,334.167 194.664,329.5 192.5,324.5C 222.117,293.216 252.45,262.55 283.5,232.5 Z"/></g>
<g><path style="opacity:1" fill="#badf96" d="M 123.5,268.5 C 124.167,268.5 124.833,268.5 125.5,268.5C 129.639,269.563 133.972,270.23 138.5,270.5C 140.072,271.687 141.739,272.687 143.5,273.5C 107.201,309.299 71.0346,345.299 35,381.5C 34.501,385.821 34.3343,390.154 34.5,394.5C 33.5076,386.684 33.1743,378.684 33.5,370.5C 33.2088,364.077 33.5422,357.744 34.5,351.5C 43.7351,334.698 53.2351,318.031 63,301.5C 77.1206,279.685 97.2873,268.685 123.5,268.5 Z"/></g>
<g><path style="opacity:1" fill="#92ca5b" d="M 472.5,272.5 C 473.593,274.349 474.926,276.016 476.5,277.5C 476.328,278.492 476.662,279.158 477.5,279.5C 477.832,318.004 477.499,356.337 476.5,394.5C 476.5,378.5 476.5,362.5 476.5,346.5C 476.667,328.497 476.5,310.497 476,292.5C 436.632,332.035 397.132,371.368 357.5,410.5C 350.034,412.143 342.367,412.976 334.5,413C 331.439,414.116 328.272,414.949 325,415.5C 323.933,414.809 322.766,414.309 321.5,414C 323.359,412.019 325.692,411.019 328.5,411C 331.177,406.967 334.844,404.634 339.5,404C 338.5,403.667 337.5,403.333 336.5,403C 338.359,401.019 340.692,400.019 343.5,400C 386.084,356.915 429.084,314.415 472.5,272.5 Z"/></g>
<g><path style="opacity:1" fill="#b1da87" d="M 143.5,273.5 C 150.21,274.686 155.877,277.686 160.5,282.5C 122.701,320.799 84.7014,358.965 46.5,397C 42.8093,398.398 39.1426,399.898 35.5,401.5C 35.0074,399.194 34.6741,396.861 34.5,394.5C 34.3343,390.154 34.501,385.821 35,381.5C 71.0346,345.299 107.201,309.299 143.5,273.5 Z"/></g>
<g><path style="opacity:1" fill="#acd77f" d="M 160.5,282.5 C 162.754,283.415 164.754,284.748 166.5,286.5C 167.167,287.5 167.833,288.5 168.5,289.5C 131.595,327.239 94.2617,364.405 56.5,401C 49.7102,402.55 43.3768,405.05 37.5,408.5C 36.3882,406.401 35.7215,404.067 35.5,401.5C 39.1426,399.898 42.8093,398.398 46.5,397C 84.7014,358.965 122.701,320.799 160.5,282.5 Z"/></g>
<g><path style="opacity:1" fill="#cb5735" d="M 259.5,279.5 C 250.167,296.167 240.833,312.833 231.5,329.5C 225.418,340 219.084,350.334 212.5,360.5C 211.974,358.77 210.974,357.436 209.5,356.5C 207.003,350.835 204.003,345.502 200.5,340.5C 200.5,339.833 200.5,339.167 200.5,338.5C 200.369,337.761 200.536,337.094 201,336.5C 220.366,316.624 239.866,297.624 259.5,279.5 Z"/></g>
<g><path style="opacity:1" fill="#a7d579" d="M 168.5,289.5 C 171.55,291.549 173.883,294.216 175.5,297.5C 141.417,330.082 107.751,363.248 74.5,397C 66.9151,400.274 59.5817,403.94 52.5,408C 49.4734,410.889 45.8068,412.556 41.5,413C 40.6195,413.708 39.9528,414.542 39.5,415.5C 38.0762,413.485 37.4095,411.152 37.5,408.5C 43.3768,405.05 49.7102,402.55 56.5,401C 94.2617,364.405 131.595,327.239 168.5,289.5 Z"/></g>
<g><path style="opacity:1" fill="#a1d172" d="M 175.5,297.5 C 175.833,297.5 176.167,297.5 176.5,297.5C 177.758,299.687 178.758,302.02 179.5,304.5C 148.368,335.132 117.368,365.965 86.5,397C 76.7724,403.796 66.4391,409.463 55.5,414C 63.5394,412.992 71.5394,411.492 79.5,409.5C 73.8269,414.907 67.1603,418.74 59.5,421C 67.2449,421.648 74.9116,421.148 82.5,419.5C 78.9893,421.479 75.9893,424.145 73.5,427.5C 64.9205,429.309 56.2539,429.809 47.5,429C 47.1667,428.667 46.8333,428.333 46.5,428C 49.5,426.333 52.5,424.667 55.5,423C 51.3011,423.907 46.9677,424.407 42.5,424.5C 41.2163,421.598 40.2163,418.598 39.5,415.5C 39.9528,414.542 40.6195,413.708 41.5,413C 45.8068,412.556 49.4734,410.889 52.5,408C 59.5817,403.94 66.9151,400.274 74.5,397C 107.751,363.248 141.417,330.082 175.5,297.5 Z"/></g>
<g><path style="opacity:1" fill="#8cc752" d="M 476.5,346.5 C 458.701,363.798 441.035,381.298 423.5,399C 424.5,399.333 425.5,399.667 426.5,400C 425.167,401.333 423.833,402.667 422.5,404C 423.5,404.333 424.5,404.667 425.5,405C 423.833,406.667 422.167,408.333 420.5,410C 424.002,410.656 424.002,411.989 420.5,414C 420.728,414.399 421.062,414.565 421.5,414.5C 408.377,416.772 395.043,418.439 381.5,419.5C 370.965,419.437 360.632,420.437 350.5,422.5C 349.167,422.333 347.833,422.167 346.5,422C 347.056,421.617 347.389,421.117 347.5,420.5C 351.167,417.5 354.5,414.167 357.5,410.5C 397.132,371.368 436.632,332.035 476,292.5C 476.5,310.497 476.667,328.497 476.5,346.5 Z"/></g>
<g><path style="opacity:1" fill="#9fd16d" d="M 179.5,304.5 C 181.5,307.167 183.5,309.833 185.5,312.5C 185.5,312.833 185.5,313.167 185.5,313.5C 157.368,341.132 129.368,368.965 101.5,397C 98.5,398.667 95.5,400.333 92.5,402C 88.7059,405.52 84.3726,408.02 79.5,409.5C 71.5394,411.492 63.5394,412.992 55.5,414C 66.4391,409.463 76.7724,403.796 86.5,397C 117.368,365.965 148.368,335.132 179.5,304.5 Z"/></g>
<g><path style="opacity:1" fill="#9ace66" d="M 185.5,313.5 C 187.754,317.007 189.754,320.673 191.5,324.5C 166.084,348.414 141.084,372.914 116.5,398C 112.045,399.437 108.378,402.104 105.5,406C 98.4514,409.557 92.1181,414.057 86.5,419.5C 85.1667,419.5 83.8333,419.5 82.5,419.5C 74.9116,421.148 67.2449,421.648 59.5,421C 67.1603,418.74 73.8269,414.907 79.5,409.5C 84.3726,408.02 88.7059,405.52 92.5,402C 95.5,400.333 98.5,398.667 101.5,397C 129.368,368.965 157.368,341.132 185.5,313.5 Z"/></g>
<g><path style="opacity:1" fill="#93cb5c" d="M 191.5,324.5 C 191.833,324.5 192.167,324.5 192.5,324.5C 194.664,329.5 197.331,334.167 200.5,338.5C 200.5,339.167 200.5,339.833 200.5,340.5C 172.833,367.5 145.5,394.833 118.5,422.5C 111.427,422.403 104.593,423.403 98,425.5C 97.1667,425.333 96.3333,425.167 95.5,425C 98.5,422.667 101.5,420.333 104.5,418C 98.3166,417.386 92.3166,417.886 86.5,419.5C 92.1181,414.057 98.4514,409.557 105.5,406C 108.378,402.104 112.045,399.437 116.5,398C 141.084,372.914 166.084,348.414 191.5,324.5 Z"/></g>
<g><path style="opacity:1" fill="#8dc752" d="M 200.5,340.5 C 204.003,345.502 207.003,350.835 209.5,356.5C 192.207,373.301 175.873,389.468 160.5,405C 156.232,407.533 151.566,409.199 146.5,410C 146.833,410.333 147.167,410.667 147.5,411C 145.382,411.26 143.716,412.26 142.5,414C 142.833,414.333 143.167,414.667 143.5,415C 141.963,416.707 140.296,418.207 138.5,419.5C 131.621,419.691 124.954,420.691 118.5,422.5C 145.5,394.833 172.833,367.5 200.5,340.5 Z"/></g>
<g><path style="opacity:1" fill="#84c346" d="M 476.5,346.5 C 476.5,362.5 476.5,378.5 476.5,394.5C 475.596,403.114 473.596,411.447 470.5,419.5C 455.377,422.155 440.043,423.322 424.5,423C 420.998,422.344 420.998,421.011 424.5,419C 423.167,418.667 421.833,418.333 420.5,418C 421.5,417 422.5,416 423.5,415C 422.906,414.536 422.239,414.369 421.5,414.5C 421.062,414.565 420.728,414.399 420.5,414C 424.002,411.989 424.002,410.656 420.5,410C 422.167,408.333 423.833,406.667 425.5,405C 424.5,404.667 423.5,404.333 422.5,404C 423.833,402.667 425.167,401.333 426.5,400C 425.5,399.667 424.5,399.333 423.5,399C 441.035,381.298 458.701,363.798 476.5,346.5 Z"/></g>
<g><path style="opacity:1" fill="#84c24a" d="M 209.5,356.5 C 210.974,357.436 211.974,358.77 212.5,360.5C 208.264,369.402 203.597,378.068 198.5,386.5C 194.663,392.17 191.33,398.17 188.5,404.5C 185.331,408.833 182.664,413.5 180.5,418.5C 178.265,421.291 176.265,424.291 174.5,427.5C 173.974,429.23 172.974,430.564 171.5,431.5C 167.818,431.665 164.152,431.499 160.5,431C 163.276,429.221 162.943,428.221 159.5,428C 158.167,427.333 158.167,426.667 159.5,426C 158.167,425.833 156.833,425.667 155.5,425.5C 148.207,426.662 140.873,427.329 133.5,427.5C 134.625,425.871 135.959,424.371 137.5,423C 137.167,422.667 136.833,422.333 136.5,422C 137.381,421.292 138.047,420.458 138.5,419.5C 140.296,418.207 141.963,416.707 143.5,415C 143.167,414.667 142.833,414.333 142.5,414C 143.716,412.26 145.382,411.26 147.5,411C 147.167,410.667 146.833,410.333 146.5,410C 151.566,409.199 156.232,407.533 160.5,405C 175.873,389.468 192.207,373.301 209.5,356.5 Z"/></g>
<g><path style="opacity:0.999" fill="#dcebfc" d="M 33.5,370.5 C 33.1743,378.684 33.5076,386.684 34.5,394.5C 34.6741,396.861 35.0074,399.194 35.5,401.5C 35.7215,404.067 36.3882,406.401 37.5,408.5C 37.4095,411.152 38.0762,413.485 39.5,415.5C 40.2163,418.598 41.2163,421.598 42.5,424.5C 43.1667,425.833 43.8333,427.167 44.5,428.5C 30.8308,428.861 17.1641,429.361 3.5,430C 10.8333,430.333 18.1667,430.667 25.5,431C 17.7548,431.199 10.0881,431.699 2.5,432.5C 1.60846,428.025 0.608458,423.692 -0.5,419.5C -0.5,414.167 -0.5,408.833 -0.5,403.5C 10.8333,392.5 22.1667,381.5 33.5,370.5 Z"/></g>
<g><path style="opacity:1" fill="#97c96c" d="M 263.5,409.5 C 263.047,410.458 262.381,411.292 261.5,412C 258.079,411.879 255.412,413.212 253.5,416C 247.833,417.667 242.167,419.333 236.5,421C 250.54,421.614 264.54,421.114 278.5,419.5C 276.925,421.941 274.592,423.107 271.5,423C 269.959,424.371 268.625,425.871 267.5,427.5C 265.585,427.216 263.919,427.549 262.5,428.5C 248.51,429.43 234.51,429.596 220.5,429C 219.167,428.667 217.833,428.333 216.5,428C 220.658,426.194 224.991,424.861 229.5,424C 230.706,422.982 230.373,422.482 228.5,422.5C 210.558,424.717 192.558,426.384 174.5,427.5C 176.265,424.291 178.265,421.291 180.5,418.5C 180.833,418.5 181.167,418.5 181.5,418.5C 197.219,416.446 212.886,415.112 228.5,414.5C 229.756,414.539 230.756,414.039 231.5,413C 242.353,412.515 253.02,411.348 263.5,409.5 Z"/></g>
<g><path style="opacity:1" fill="#7dba4a" d="M 421.5,414.5 C 422.239,414.369 422.906,414.536 423.5,415C 422.5,416 421.5,417 420.5,418C 421.833,418.333 423.167,418.667 424.5,419C 420.998,421.011 420.998,422.344 424.5,423C 440.043,423.322 455.377,422.155 470.5,419.5C 470.5,420.167 470.5,420.833 470.5,421.5C 468.833,424.167 467.167,426.833 465.5,429.5C 454.67,431.277 443.67,431.777 432.5,431C 433.167,430.333 433.833,429.667 434.5,429C 431.086,428.703 427.753,428.036 424.5,427C 424.833,426.667 425.167,426.333 425.5,426C 423,425.833 420.5,425.667 418,425.5C 404.861,426.754 391.694,427.421 378.5,427.5C 379.625,425.871 380.959,424.371 382.5,423C 381.5,422.667 380.5,422.333 379.5,422C 380.381,421.292 381.047,420.458 381.5,419.5C 395.043,418.439 408.377,416.772 421.5,414.5 Z"/></g>
<g><path style="opacity:1" fill="#88c05a" d="M 118.5,422.5 C 124.954,420.691 131.621,419.691 138.5,419.5C 138.047,420.458 137.381,421.292 136.5,422C 136.833,422.333 137.167,422.667 137.5,423C 135.959,424.371 134.625,425.871 133.5,427.5C 127.289,428.956 120.955,429.956 114.5,430.5C 105.822,431.29 97.1551,431.79 88.5,432C 91.7965,431.382 93.4632,429.715 93.5,427C 86.8503,427.053 80.1836,427.22 73.5,427.5C 75.9893,424.145 78.9893,421.479 82.5,419.5C 83.8333,419.5 85.1667,419.5 86.5,419.5C 92.3166,417.886 98.3166,417.386 104.5,418C 101.5,420.333 98.5,422.667 95.5,425C 96.3333,425.167 97.1667,425.333 98,425.5C 104.593,423.403 111.427,422.403 118.5,422.5 Z"/></g>
<g><path style="opacity:1" fill="#88c05a" d="M 347.5,420.5 C 347.389,421.117 347.056,421.617 346.5,422C 347.833,422.167 349.167,422.333 350.5,422.5C 360.632,420.437 370.965,419.437 381.5,419.5C 381.047,420.458 380.381,421.292 379.5,422C 380.5,422.333 381.5,422.667 382.5,423C 380.959,424.371 379.625,425.871 378.5,427.5C 367.938,428.999 357.271,429.999 346.5,430.5C 330.825,431.257 315.158,431.757 299.5,432C 302.308,431.981 304.641,430.981 306.5,429C 303.057,428.779 302.724,427.779 305.5,426C 292.909,427.011 280.242,427.511 267.5,427.5C 268.625,425.871 269.959,424.371 271.5,423C 274.592,423.107 276.925,421.941 278.5,419.5C 280.167,419.5 281.833,419.5 283.5,419.5C 294.671,417.869 306.004,417.369 317.5,418C 313.833,420.333 310.167,422.667 306.5,425C 320.106,424.09 333.772,422.59 347.5,420.5 Z"/></g>
<g><path style="opacity:1" fill="#77b34f" d="M 171.5,431.5 C 170.091,435.316 168.424,438.983 166.5,442.5C 165.728,443.694 164.728,444.694 163.5,445.5C 156.029,445.455 148.362,445.289 140.5,445C 141.833,444.333 141.833,443.667 140.5,443C 137.893,442.182 135.226,441.682 132.5,441.5C 125.48,442.12 118.48,442.787 111.5,443.5C 110.391,442.71 109.058,442.21 107.5,442C 109.167,440.333 110.833,438.667 112.5,437C 111.5,436.667 110.5,436.333 109.5,436C 111.373,434.296 113.04,432.463 114.5,430.5C 120.955,429.956 127.289,428.956 133.5,427.5C 140.873,427.329 148.207,426.662 155.5,425.5C 156.833,425.667 158.167,425.833 159.5,426C 158.167,426.667 158.167,427.333 159.5,428C 162.943,428.221 163.276,429.221 160.5,431C 164.152,431.499 167.818,431.665 171.5,431.5 Z"/></g>
<g><path style="opacity:1" fill="#78b44e" d="M 465.5,429.5 C 463.925,433.078 461.925,436.411 459.5,439.5C 437.835,440.193 416.169,440.36 394.5,440C 395.167,439.333 395.833,438.667 396.5,438C 391.158,436.88 385.825,435.713 380.5,434.5C 367.511,435.546 354.511,436.046 341.5,436C 343.373,434.296 345.04,432.463 346.5,430.5C 357.271,429.999 367.938,428.999 378.5,427.5C 391.694,427.421 404.861,426.754 418,425.5C 420.5,425.667 423,425.833 425.5,426C 425.167,426.333 424.833,426.667 424.5,427C 427.753,428.036 431.086,428.703 434.5,429C 433.833,429.667 433.167,430.333 432.5,431C 443.67,431.777 454.67,431.277 465.5,429.5 Z"/></g>
<g><path style="opacity:1" fill="#83b960" d="M 73.5,427.5 C 80.1836,427.22 86.8503,427.053 93.5,427C 93.4632,429.715 91.7965,431.382 88.5,432C 97.1551,431.79 105.822,431.29 114.5,430.5C 113.04,432.463 111.373,434.296 109.5,436C 110.5,436.333 111.5,436.667 112.5,437C 110.833,438.667 109.167,440.333 107.5,442C 109.058,442.21 110.391,442.71 111.5,443.5C 101.491,443.844 91.4913,444.011 81.5,444C 81.8333,443.667 82.1667,443.333 82.5,443C 81.1824,442.306 80.3491,441.473 80,440.5C 71.6475,442.69 63.1475,443.69 54.5,443.5C 50.9186,438.672 47.5852,433.672 44.5,428.5C 43.8333,427.167 43.1667,425.833 42.5,424.5C 46.9677,424.407 51.3011,423.907 55.5,423C 52.5,424.667 49.5,426.333 46.5,428C 46.8333,428.333 47.1667,428.667 47.5,429C 56.2539,429.809 64.9205,429.309 73.5,427.5 Z"/></g>
<g><path style="opacity:1" fill="#89bc69" d="M 262.5,428.5 C 265.999,428.259 266.332,429.092 263.5,431C 257.833,432.667 252.167,434.333 246.5,436C 250.167,436.333 253.833,436.667 257.5,437C 253.69,438.039 250.024,439.206 246.5,440.5C 219.861,442.055 193.194,442.722 166.5,442.5C 168.424,438.983 170.091,435.316 171.5,431.5C 172.974,430.564 173.974,429.23 174.5,427.5C 192.558,426.384 210.558,424.717 228.5,422.5C 230.373,422.482 230.706,422.982 229.5,424C 224.991,424.861 220.658,426.194 216.5,428C 217.833,428.333 219.167,428.667 220.5,429C 234.51,429.596 248.51,429.43 262.5,428.5 Z"/></g>
<g><path style="opacity:1" fill="#7bb358" d="M 346.5,430.5 C 345.04,432.463 343.373,434.296 341.5,436C 354.511,436.046 367.511,435.546 380.5,434.5C 385.825,435.713 391.158,436.88 396.5,438C 395.833,438.667 395.167,439.333 394.5,440C 416.169,440.36 437.835,440.193 459.5,439.5C 458.136,441.191 456.803,442.858 455.5,444.5C 424.001,445.287 392.667,446.287 361.5,447.5C 361.167,447.5 360.833,447.5 360.5,447.5C 357.15,447.665 353.817,447.498 350.5,447C 351.5,446 352.5,445 353.5,444C 334.164,443.839 314.83,443.839 295.5,444C 295.833,443.667 296.167,443.333 296.5,443C 293.057,442.779 292.724,441.779 295.5,440C 279.162,439.554 262.829,439.721 246.5,440.5C 250.024,439.206 253.69,438.039 257.5,437C 253.833,436.667 250.167,436.333 246.5,436C 252.167,434.333 257.833,432.667 263.5,431C 266.332,429.092 265.999,428.259 262.5,428.5C 263.919,427.549 265.585,427.216 267.5,427.5C 280.242,427.511 292.909,427.011 305.5,426C 302.724,427.779 303.057,428.779 306.5,429C 304.641,430.981 302.308,431.981 299.5,432C 315.158,431.757 330.825,431.257 346.5,430.5 Z"/></g>
<g><path style="opacity:0.997" fill="#bcd6f3" d="M 470.5,421.5 C 483.913,421.186 497.246,421.519 510.5,422.5C 509.024,432.43 506.024,441.763 501.5,450.5C 501.5,449.5 501.5,448.5 501.5,447.5C 485.5,447.5 469.5,447.5 453.5,447.5C 454.167,446.5 454.833,445.5 455.5,444.5C 456.803,442.858 458.136,441.191 459.5,439.5C 461.925,436.411 463.925,433.078 465.5,429.5C 467.167,426.833 468.833,424.167 470.5,421.5 Z"/></g>
<g><path style="opacity:1" fill="#70a857" d="M 111.5,443.5 C 118.48,442.787 125.48,442.12 132.5,441.5C 135.226,441.682 137.893,442.182 140.5,443C 141.833,443.667 141.833,444.333 140.5,445C 148.362,445.289 156.029,445.455 163.5,445.5C 163.5,446.167 163.5,446.833 163.5,447.5C 162.521,448.765 161.521,450.099 160.5,451.5C 159,451.833 157.5,452.167 156,452.5C 152.198,451.684 148.365,451.017 144.5,450.5C 125.16,451.352 105.826,452.352 86.5,453.5C 78.8897,451.505 71.223,451.171 63.5,452.5C 60.1667,449.833 57.1667,446.833 54.5,443.5C 63.1475,443.69 71.6475,442.69 80,440.5C 80.3491,441.473 81.1824,442.306 82.5,443C 82.1667,443.333 81.8333,443.667 81.5,444C 91.4913,444.011 101.491,443.844 111.5,443.5 Z"/></g>
<g><path style="opacity:1" fill="#6ca553" d="M 455.5,444.5 C 454.833,445.5 454.167,446.5 453.5,447.5C 451.5,449.167 449.5,450.833 447.5,452.5C 438.086,452.584 428.752,451.917 419.5,450.5C 400.841,451.522 382.174,451.688 363.5,451C 363.833,450.667 364.167,450.333 364.5,450C 363.5,449.667 362.5,449.333 361.5,449C 362.738,448.31 362.738,447.81 361.5,447.5C 392.667,446.287 424.001,445.287 455.5,444.5 Z"/></g>
<g><path style="opacity:1" fill="#78ad60" d="M 360.5,447.5 C 339.931,448.178 319.265,448.844 298.5,449.5C 277.831,449.959 257.165,450.125 236.5,450C 238.285,448.837 240.285,448.17 242.5,448C 216.182,446.297 189.849,446.13 163.5,447.5C 163.5,446.833 163.5,446.167 163.5,445.5C 164.728,444.694 165.728,443.694 166.5,442.5C 193.194,442.722 219.861,442.055 246.5,440.5C 262.829,439.721 279.162,439.554 295.5,440C 292.724,441.779 293.057,442.779 296.5,443C 296.167,443.333 295.833,443.667 295.5,444C 314.83,443.839 334.164,443.839 353.5,444C 352.5,445 351.5,446 350.5,447C 353.817,447.498 357.15,447.665 360.5,447.5 Z"/></g>
<g><path style="opacity:1" fill="#bed3f0" d="M 44.5,428.5 C 47.5852,433.672 50.9186,438.672 54.5,443.5C 57.1667,446.833 60.1667,449.833 63.5,452.5C 63.5,453.167 63.8333,453.5 64.5,453.5C 65.5274,455.194 66.8608,456.527 68.5,457.5C 50.1356,456.847 32.1356,457.513 14.5,459.5C 9.17424,451.174 5.17424,442.174 2.5,432.5C 10.0881,431.699 17.7548,431.199 25.5,431C 18.1667,430.667 10.8333,430.333 3.5,430C 17.1641,429.361 30.8308,428.861 44.5,428.5 Z"/></g>
<g><path style="opacity:1" fill="#69a057" d="M 360.5,447.5 C 360.833,447.5 361.167,447.5 361.5,447.5C 362.738,447.81 362.738,448.31 361.5,449C 362.5,449.333 363.5,449.667 364.5,450C 364.167,450.333 363.833,450.667 363.5,451C 382.174,451.688 400.841,451.522 419.5,450.5C 428.752,451.917 438.086,452.584 447.5,452.5C 446.833,453.833 445.833,454.833 444.5,455.5C 403.57,455.43 362.57,456.097 321.5,457.5C 314.481,457.271 307.481,456.771 300.5,456C 301.5,455 302.5,454 303.5,453C 301.167,452.667 298.833,452.333 296.5,452C 297.381,451.292 298.047,450.458 298.5,449.5C 319.265,448.844 339.931,448.178 360.5,447.5 Z"/></g>
<g><path style="opacity:1" fill="#6ba05e" d="M 298.5,449.5 C 298.047,450.458 297.381,451.292 296.5,452C 298.833,452.333 301.167,452.667 303.5,453C 302.5,454 301.5,455 300.5,456C 307.481,456.771 314.481,457.271 321.5,457.5C 362.57,456.097 403.57,455.43 444.5,455.5C 442.469,457.522 440.135,459.189 437.5,460.5C 399.834,461.138 362.167,461.304 324.5,461C 320.5,460.667 316.5,460.333 312.5,460C 312.833,459.667 313.167,459.333 313.5,459C 312.5,458.667 311.5,458.333 310.5,458C 285.149,457.434 259.816,457.934 234.5,459.5C 230.833,459.333 227.167,459.167 223.5,459C 225.285,457.837 227.285,457.17 229.5,457C 224.769,456.835 220.936,456.002 218,454.5C 198.273,455.786 178.607,455.786 159,454.5C 157.833,456.333 156.667,458.167 155.5,460C 147.5,460.667 139.5,460.667 131.5,460C 130.377,458.956 129.044,458.29 127.5,458C 127.833,457.667 128.167,457.333 128.5,457C 115.321,456.275 102.154,456.442 89,457.5C 85.4483,457.359 81.9483,456.859 78.5,456C 79.1667,455.333 79.8333,454.667 80.5,454C 75.1771,453.501 69.8437,453.334 64.5,453.5C 63.8333,453.5 63.5,453.167 63.5,452.5C 71.223,451.171 78.8897,451.505 86.5,453.5C 105.826,452.352 125.16,451.352 144.5,450.5C 148.365,451.017 152.198,451.684 156,452.5C 157.5,452.167 159,451.833 160.5,451.5C 161.521,450.099 162.521,448.765 163.5,447.5C 189.849,446.13 216.182,446.297 242.5,448C 240.285,448.17 238.285,448.837 236.5,450C 257.165,450.125 277.831,449.959 298.5,449.5 Z"/></g>
<g><path style="opacity:1" fill="#63985f" d="M 64.5,453.5 C 69.8437,453.334 75.1771,453.501 80.5,454C 79.8333,454.667 79.1667,455.333 78.5,456C 81.9483,456.859 85.4483,457.359 89,457.5C 102.154,456.442 115.321,456.275 128.5,457C 128.167,457.333 127.833,457.667 127.5,458C 129.044,458.29 130.377,458.956 131.5,460C 139.5,460.667 147.5,460.667 155.5,460C 156.667,458.167 157.833,456.333 159,454.5C 178.607,455.786 198.273,455.786 218,454.5C 220.936,456.002 224.769,456.835 229.5,457C 227.285,457.17 225.285,457.837 223.5,459C 227.167,459.167 230.833,459.333 234.5,459.5C 259.816,457.934 285.149,457.434 310.5,458C 311.5,458.333 312.5,458.667 313.5,459C 313.167,459.333 312.833,459.667 312.5,460C 316.5,460.333 320.5,460.667 324.5,461C 362.167,461.304 399.834,461.138 437.5,460.5C 435.5,462.167 433.5,463.833 431.5,465.5C 430.833,465.5 430.167,465.5 429.5,465.5C 407.999,464.435 386.333,464.435 364.5,465.5C 339.744,463.239 314.911,462.239 290,462.5C 229.487,462.89 168.987,463.89 108.5,465.5C 100.065,464.384 91.5652,463.384 83,462.5C 80.9674,462.506 79.134,462.839 77.5,463.5C 74.5,461.5 71.5,459.5 68.5,457.5C 66.8608,456.527 65.5274,455.194 64.5,453.5 Z"/></g>
<g><path style="opacity:1" fill="#adc9ec" d="M 453.5,447.5 C 469.5,447.5 485.5,447.5 501.5,447.5C 501.5,448.5 501.5,449.5 501.5,450.5C 498.834,457.176 495.167,463.176 490.5,468.5C 490.414,467.504 490.748,466.671 491.5,466C 471.503,465.5 451.503,465.333 431.5,465.5C 433.5,463.833 435.5,462.167 437.5,460.5C 440.135,459.189 442.469,457.522 444.5,455.5C 445.833,454.833 446.833,453.833 447.5,452.5C 449.5,450.833 451.5,449.167 453.5,447.5 Z"/></g>
<g><path style="opacity:1" fill="#adc6ea" d="M 68.5,457.5 C 71.5,459.5 74.5,461.5 77.5,463.5C 83.0745,466.786 88.7412,469.786 94.5,472.5C 71.1424,471.844 48.1424,472.51 25.5,474.5C 20.6817,470.348 17.015,465.348 14.5,459.5C 32.1356,457.513 50.1356,456.847 68.5,457.5 Z"/></g>
<g><path style="opacity:1" fill="#588b5f" d="M 77.5,463.5 C 79.134,462.839 80.9674,462.506 83,462.5C 91.5652,463.384 100.065,464.384 108.5,465.5C 168.987,463.89 229.487,462.89 290,462.5C 314.911,462.239 339.744,463.239 364.5,465.5C 386.333,464.435 407.999,464.435 429.5,465.5C 424.04,469.227 418.04,471.893 411.5,473.5C 334.145,473.032 263.312,472.032 199,470.5C 165.652,470.856 132.486,471.856 99.5,473.5C 97.8828,472.962 96.2161,472.629 94.5,472.5C 88.7412,469.786 83.0745,466.786 77.5,463.5 Z"/></g>
<g><path style="opacity:1" fill="#508163" d="M 411.5,473.5 C 405.99,475.235 400.324,476.402 394.5,477C 301.167,477.667 207.833,477.667 114.5,477C 109.355,476.296 104.355,475.13 99.5,473.5C 132.486,471.856 165.652,470.856 199,470.5C 263.312,472.032 334.145,473.032 411.5,473.5 Z"/></g>
<g><path style="opacity:1" fill="#a1bee6" d="M 429.5,465.5 C 430.167,465.5 430.833,465.5 431.5,465.5C 451.503,465.333 471.503,465.5 491.5,466C 490.748,466.671 490.414,467.504 490.5,468.5C 486.766,474.623 482.1,479.956 476.5,484.5C 403.17,483.167 329.503,482.5 255.5,482.5C 181.497,482.5 107.83,483.167 34.5,484.5C 30.7881,481.789 27.7881,478.456 25.5,474.5C 48.1424,472.51 71.1424,471.844 94.5,472.5C 96.2161,472.629 97.8828,472.962 99.5,473.5C 104.355,475.13 109.355,476.296 114.5,477C 207.833,477.667 301.167,477.667 394.5,477C 400.324,476.402 405.99,475.235 411.5,473.5C 418.04,471.893 424.04,469.227 429.5,465.5 Z"/></g>
<g><path style="opacity:1" fill="#9bb8e3" d="M 476.5,484.5 C 473.455,487.547 470.122,490.213 466.5,492.5C 447.678,491.167 428.512,490.5 409,490.5C 288.496,490.97 167.996,491.804 47.5,493C 48.056,493.383 48.3893,493.883 48.5,494.5C 43.5105,491.667 38.8438,488.334 34.5,484.5C 107.83,483.167 181.497,482.5 255.5,482.5C 329.503,482.5 403.17,483.167 476.5,484.5 Z"/></g>
<g><path style="opacity:1" fill="#92b1e0" d="M 466.5,492.5 C 459.563,497.803 451.896,501.803 443.5,504.5C 443.611,503.883 443.944,503.383 444.5,503C 325.833,502.333 207.167,502.333 88.5,503C 81.654,503.172 74.9874,503.672 68.5,504.5C 60.9682,502.734 54.3015,499.401 48.5,494.5C 48.3893,493.883 48.056,493.383 47.5,493C 167.996,491.804 288.496,490.97 409,490.5C 428.512,490.5 447.678,491.167 466.5,492.5 Z"/></g>
<g><path style="opacity:1" fill="#8cacdd" d="M 443.5,504.5 C 435.597,507.472 427.597,509.806 419.5,511.5C 310.167,511.5 200.833,511.5 91.5,511.5C 83.6036,509.942 75.9369,507.609 68.5,504.5C 74.9874,503.672 81.654,503.172 88.5,503C 207.167,502.333 325.833,502.333 444.5,503C 443.944,503.383 443.611,503.883 443.5,504.5 Z"/></g>
</svg>
