<?xml version="1.0" encoding="UTF-8"?>
<!DOCTYPE svg PUBLIC "-//W3C//DTD SVG 1.1//EN" "http://www.w3.org/Graphics/SVG/1.1/DTD/svg11.dtd">
<svg xmlns="http://www.w3.org/2000/svg" version="1.1" width="512px" height="512px" style="shape-rendering:geometricPrecision; text-rendering:geometricPrecision; image-rendering:optimizeQuality; fill-rule:evenodd; clip-rule:evenodd" xmlns:xlink="http://www.w3.org/1999/xlink">
<g><path style="opacity:0.974" fill="#171d1c" d="M 45.5,11.5 C 137.834,11.3333 230.167,11.5 322.5,12C 342.165,16.8325 352.831,29.3325 354.5,49.5C 369.081,50.6051 380.247,57.2718 388,69.5C 389.927,72.9481 391.261,76.6148 392,80.5C 393.474,133.467 393.974,186.467 393.5,239.5C 412.627,240.902 429.627,247.569 444.5,259.5C 451.835,252.665 458.835,245.498 465.5,238C 468.167,236 470.833,236 473.5,238C 480.167,243.333 486.833,248.667 493.5,254C 498.062,256.925 499.229,260.758 497,265.5C 488.016,275.318 478.849,284.985 469.5,294.5C 484.392,338.314 473.726,374.48 437.5,403C 424.183,411.55 409.683,416.716 394,418.5C 393.893,435.534 393.227,452.534 392,469.5C 387.392,485.108 377.226,494.941 361.5,499C 268.5,499.667 175.5,499.667 82.5,499C 63.1901,493.862 52.8568,481.362 51.5,461.5C 29.9335,459.433 17.1002,447.767 13,426.5C 12.3333,299.833 12.3333,173.167 13,46.5C 16.4917,27.8468 27.3251,16.1802 45.5,11.5 Z"/></g>
<g><path style="opacity:1" fill="#04b3a3" d="M 342.5,46.5 C 342.5,47.5 342.5,48.5 342.5,49.5C 256.998,49.1673 171.665,49.5007 86.5,50.5C 67.3622,53.4901 55.8622,64.4901 52,83.5C 51.5,205.5 51.3333,327.5 51.5,449.5C 37.7118,448.217 28.8784,440.884 25,427.5C 24.3333,299.833 24.3333,172.167 25,44.5C 28.4878,33.1665 35.9878,25.9998 47.5,23C 137.833,22.3333 228.167,22.3333 318.5,23C 331.661,25.6613 339.661,33.4947 342.5,46.5 Z"/></g>
<g><path style="opacity:1" fill="#0b776c" d="M 342.5,46.5 C 343.434,47.5676 343.768,48.901 343.5,50.5C 257.833,50.5 172.167,50.5 86.5,50.5C 171.665,49.5007 256.998,49.1673 342.5,49.5C 342.5,48.5 342.5,47.5 342.5,46.5 Z"/></g>
<g><path style="opacity:1" fill="#fdd14e" d="M 84.5,61.5 C 176.167,61.3333 267.834,61.5 359.5,62C 370.667,65.1667 377.833,72.3333 381,83.5C 381.5,135.832 381.667,188.166 381.5,240.5C 343.744,243.468 317.577,262.468 303,297.5C 291.037,336.819 300.204,370.319 330.5,398C 345.316,410.069 362.316,416.569 381.5,417.5C 381.667,432.837 381.5,448.17 381,463.5C 378.194,476.973 370.027,485.14 356.5,488C 266.5,488.667 176.5,488.667 86.5,488C 73.563,484.73 65.7297,476.563 63,463.5C 62.3333,337.167 62.3333,210.833 63,84.5C 65.9182,72.7517 73.0849,65.085 84.5,61.5 Z"/></g>
<g><path style="opacity:1" fill="#191e1c" d="M 104.5,115.5 C 113.839,115.334 123.173,115.5 132.5,116C 136.566,119.745 136.233,123.078 131.5,126C 122.5,126.667 113.5,126.667 104.5,126C 100.552,122.422 100.552,118.922 104.5,115.5 Z"/></g>
<g><path style="opacity:1" fill="#171d1c" d="M 164.5,115.5 C 178.504,115.333 192.504,115.5 206.5,116C 210.566,119.745 210.233,123.078 205.5,126C 191.833,126.667 178.167,126.667 164.5,126C 160.58,122.458 160.58,118.958 164.5,115.5 Z"/></g>
<g><path style="opacity:1" fill="#181d1c" d="M 238.5,115.5 C 252.504,115.333 266.504,115.5 280.5,116C 284.566,119.745 284.233,123.078 279.5,126C 265.833,126.667 252.167,126.667 238.5,126C 235.713,123.833 234.88,120.999 236,117.5C 236.995,116.934 237.828,116.267 238.5,115.5 Z"/></g>
<g><path style="opacity:1" fill="#181d1c" d="M 311.5,115.5 C 320.839,115.334 330.173,115.5 339.5,116C 343.566,119.745 343.233,123.078 338.5,126C 329.833,126.667 321.167,126.667 312.5,126C 310.09,125.242 309.09,123.575 309.5,121C 309.395,118.822 310.061,116.988 311.5,115.5 Z"/></g>
<g><path style="opacity:1" fill="#1a1f1d" d="M 105.5,166.5 C 114.173,166.334 122.84,166.5 131.5,167C 136.395,169.823 136.729,173.157 132.5,177C 123.167,177.667 113.833,177.667 104.5,177C 100.514,173.105 100.847,169.605 105.5,166.5 Z"/></g>
<g><path style="opacity:1" fill="#181d1c" d="M 163.5,166.5 C 176.837,166.333 190.171,166.5 203.5,167C 204.416,167.374 205.25,167.874 206,168.5C 206.978,171.669 206.478,174.503 204.5,177C 190.5,177.667 176.5,177.667 162.5,177C 159.721,173.181 160.054,169.681 163.5,166.5 Z"/></g>
<g><path style="opacity:1" fill="#181d1c" d="M 235.5,166.5 C 248.837,166.333 262.171,166.5 275.5,167C 279.436,170.508 279.436,173.841 275.5,177C 261.833,177.667 248.167,177.667 234.5,177C 231.615,173.056 231.948,169.556 235.5,166.5 Z"/></g>
<g><path style="opacity:1" fill="#1b1f1d" d="M 306.5,166.5 C 315.506,166.334 324.506,166.5 333.5,167C 338.233,169.922 338.566,173.255 334.5,177C 325.167,177.667 315.833,177.667 306.5,177C 302.565,173.504 302.565,170.004 306.5,166.5 Z"/></g>
<g><path style="opacity:1" fill="#1d211d" d="M 105.5,217.5 C 114.173,217.334 122.84,217.5 131.5,218C 136.233,220.922 136.566,224.255 132.5,228C 123.167,228.667 113.833,228.667 104.5,228C 102.876,226.883 101.876,225.383 101.5,223.5C 102.432,221.235 103.765,219.235 105.5,217.5 Z"/></g>
<g><path style="opacity:1" fill="#1b1f1d" d="M 171.5,217.5 C 187.17,217.333 202.837,217.5 218.5,218C 222.925,220.549 223.592,223.882 220.5,228C 203.833,228.667 187.167,228.667 170.5,228C 167.711,224.225 168.045,220.725 171.5,217.5 Z"/></g>
<g><path style="opacity:1" fill="#1c201d" d="M 258.5,217.5 C 267.506,217.334 276.506,217.5 285.5,218C 289.01,221.048 289.343,224.381 286.5,228C 276.833,228.667 267.167,228.667 257.5,228C 254.64,224.151 254.973,220.651 258.5,217.5 Z"/></g>
<g><path style="opacity:1" fill="#fb4047" d="M 469.5,250.5 C 473.617,253.068 477.617,255.902 481.5,259C 483.007,259.837 483.507,261.004 483,262.5C 452.317,295.016 421.817,327.683 391.5,360.5C 390.635,361.583 389.635,361.749 388.5,361C 376.833,348 365.167,335 353.5,322C 357.378,317.786 361.545,313.952 366,310.5C 368.281,311.776 370.281,313.443 372,315.5C 376.79,321.959 381.957,328.126 387.5,334C 389.167,334.667 390.833,334.667 392.5,334C 418.373,306.297 444.039,278.463 469.5,250.5 Z"/></g>
<g><path style="opacity:1" fill="#e3e6fd" d="M 376.5,250.5 C 394.658,249.306 411.658,253.14 427.5,262C 430.909,264.034 433.909,266.534 436.5,269.5C 421.185,286.65 405.685,303.65 390,320.5C 384,313.167 378,305.833 372,298.5C 369.503,296.522 366.669,296.022 363.5,297C 355.904,304.051 348.404,311.218 341,318.5C 340.333,320.5 340.333,322.5 341,324.5C 356.05,341.428 371.216,358.261 386.5,375C 388.5,375.667 390.5,375.667 392.5,375C 415,351.167 437.5,327.333 460,303.5C 470.99,342.354 459.823,373.187 426.5,396C 389.808,414.561 356.975,409.394 328,380.5C 303.258,347.829 302.258,314.495 325,280.5C 338.559,264.142 355.726,254.142 376.5,250.5 Z"/></g>
<g><path style="opacity:1" fill="#1d211d" d="M 104.5,269.5 C 113.839,269.334 123.173,269.5 132.5,270C 136.566,273.745 136.233,277.078 131.5,280C 122.833,280.667 114.167,280.667 105.5,280C 100.669,276.866 100.336,273.366 104.5,269.5 Z"/></g>
<g><path style="opacity:1" fill="#1b201d" d="M 164.5,269.5 C 179.504,269.333 194.504,269.5 209.5,270C 212.343,273.619 212.01,276.952 208.5,280C 194.167,280.667 179.833,280.667 165.5,280C 161.983,276.777 161.65,273.277 164.5,269.5 Z"/></g>
<g><path style="opacity:1" fill="#1b201d" d="M 241.5,269.5 C 250.839,269.334 260.173,269.5 269.5,270C 273.582,273.697 273.249,277.03 268.5,280C 259.833,280.667 251.167,280.667 242.5,280C 238.935,276.784 238.602,273.284 241.5,269.5 Z"/></g>
<g><path style="opacity:1" fill="#1a1e1d" d="M 104.5,320.5 C 113.839,320.334 123.173,320.5 132.5,321C 136.729,324.843 136.395,328.177 131.5,331C 122.5,331.667 113.5,331.667 104.5,331C 100.552,327.422 100.552,323.922 104.5,320.5 Z"/></g>
<g><path style="opacity:1" fill="#171c1c" d="M 164.5,320.5 C 178.504,320.333 192.504,320.5 206.5,321C 209.661,323.079 210.328,325.913 208.5,329.5C 207.975,330.192 207.308,330.692 206.5,331C 192.5,331.667 178.5,331.667 164.5,331C 160.565,327.504 160.565,324.004 164.5,320.5 Z"/></g>
<g><path style="opacity:1" fill="#171d1c" d="M 239.5,320.5 C 248.506,320.334 257.506,320.5 266.5,321C 270.5,324.333 270.5,327.667 266.5,331C 257.5,331.667 248.5,331.667 239.5,331C 236.713,328.833 235.88,325.999 237,322.5C 237.995,321.934 238.828,321.267 239.5,320.5 Z"/></g>
<g><path style="opacity:1" fill="#1b201d" d="M 105.5,371.5 C 114.173,371.334 122.84,371.5 131.5,372C 136.233,374.922 136.566,378.255 132.5,382C 123.167,382.667 113.833,382.667 104.5,382C 100.514,378.105 100.847,374.605 105.5,371.5 Z"/></g>
<g><path style="opacity:1" fill="#191e1c" d="M 165.5,371.5 C 179.837,371.333 194.171,371.5 208.5,372C 212.01,375.048 212.343,378.381 209.5,382C 194.833,382.667 180.167,382.667 165.5,382C 161.55,378.551 161.55,375.051 165.5,371.5 Z"/></g>
<g><path style="opacity:1" fill="#191e1c" d="M 242.5,371.5 C 251.173,371.334 259.84,371.5 268.5,372C 273.408,374.873 273.741,378.206 269.5,382C 260.167,382.667 250.833,382.667 241.5,382C 238.711,378.225 239.045,374.725 242.5,371.5 Z"/></g>
<g><path style="opacity:1" fill="#24261f" d="M 105.5,422.5 C 114.173,422.334 122.84,422.5 131.5,423C 136.815,426.617 136.815,430.283 131.5,434C 122.833,434.667 114.167,434.667 105.5,434C 100.248,430.173 100.248,426.34 105.5,422.5 Z"/></g>
<g><path style="opacity:1" fill="#24261f" d="M 164.5,422.5 C 178.171,422.333 191.837,422.5 205.5,423C 210.833,426.667 210.833,430.333 205.5,434C 191.833,434.667 178.167,434.667 164.5,434C 160.555,430.169 160.555,426.336 164.5,422.5 Z"/></g>
<g><path style="opacity:1" fill="#24261f" d="M 238.5,422.5 C 252.171,422.333 265.837,422.5 279.5,423C 284.833,426.667 284.833,430.333 279.5,434C 265.833,434.667 252.167,434.667 238.5,434C 234.555,430.169 234.555,426.336 238.5,422.5 Z"/></g>
<g><path style="opacity:1" fill="#23261f" d="M 312.5,422.5 C 321.173,422.334 329.84,422.5 338.5,423C 343.833,426.667 343.833,430.333 338.5,434C 329.833,434.667 321.167,434.667 312.5,434C 308.555,430.169 308.555,426.336 312.5,422.5 Z"/></g>
</svg>
