<?xml version="1.0" encoding="UTF-8"?>
<!DOCTYPE svg PUBLIC "-//W3C//DTD SVG 1.1//EN" "http://www.w3.org/Graphics/SVG/1.1/DTD/svg11.dtd">
<svg xmlns="http://www.w3.org/2000/svg" version="1.1" width="512px" height="490px" style="shape-rendering:geometricPrecision; text-rendering:geometricPrecision; image-rendering:optimizeQuality; fill-rule:evenodd; clip-rule:evenodd" xmlns:xlink="http://www.w3.org/1999/xlink">
<g><path style="opacity:0.982" fill="#363839" d="M 49.5,-0.5 C 170.167,-0.5 290.833,-0.5 411.5,-0.5C 423.68,3.80393 430.68,12.4706 432.5,25.5C 448.202,27.202 456.869,35.8687 458.5,51.5C 473.661,53.1614 482.494,61.4948 485,76.5C 485.5,135.832 485.667,195.166 485.5,254.5C 498.847,255.825 507.514,262.825 511.5,275.5C 511.5,340.167 511.5,404.833 511.5,469.5C 507.833,479.167 501.167,485.833 491.5,489.5C 334.167,489.5 176.833,489.5 19.5,489.5C 9.83333,485.833 3.16667,479.167 -0.5,469.5C -0.5,379.5 -0.5,289.5 -0.5,199.5C 4.4826,186.166 14.1493,179.5 28.5,179.5C 28.3333,127.166 28.5,74.8323 29,22.5C 31.8169,11.1866 38.6503,3.51991 49.5,-0.5 Z"/></g>
<g><path style="opacity:1" fill="#f5f5f5" d="M 50.5,6.5 C 170.167,6.33333 289.834,6.5 409.5,7C 416.909,9.40839 422.076,14.2417 425,21.5C 425.667,161.167 425.667,300.833 425,440.5C 422.987,447.181 418.82,452.014 412.5,455C 404.92,456.396 397.253,456.896 389.5,456.5C 389.667,396.832 389.5,337.166 389,277.5C 385.929,264.429 377.763,256.929 364.5,255C 314.417,254.991 264.417,254.324 214.5,253C 211.847,249.529 209.847,245.696 208.5,241.5C 233.827,240.667 259.16,240.167 284.5,240C 290.36,238.141 294.193,234.307 296,228.5C 296.667,221.5 296.667,214.5 296,207.5C 293.341,201.508 288.841,197.675 282.5,196C 250.833,195.667 219.167,195.333 187.5,195C 183.816,185.31 176.816,180.31 166.5,180C 122.835,179.5 79.1679,179.333 35.5,179.5C 35.3333,127.166 35.5,74.8323 36,22.5C 38.5996,15.0704 43.4329,9.73709 50.5,6.5 Z"/></g>
<g><path style="opacity:1" fill="#e2e2e2" d="M 432.5,32.5 C 441.461,33.953 447.628,38.953 451,47.5C 451.667,178.833 451.667,310.167 451,441.5C 445.424,453.872 435.924,458.705 422.5,456C 427.337,451.498 430.503,445.998 432,439.5C 432.5,303.834 432.667,168.167 432.5,32.5 Z"/></g>
<g><path style="opacity:1" fill="#343434" d="M 85.5,44.5 C 181.834,44.3333 278.167,44.5 374.5,45C 380.9,46.3994 385.066,50.2327 387,56.5C 387.667,62.5 387.667,68.5 387,74.5C 385.909,81.8485 381.743,86.3485 374.5,88C 278.167,88.6667 181.833,88.6667 85.5,88C 76.6947,83.5593 72.6947,76.3926 73.5,66.5C 72.3017,56.2236 76.3017,48.8903 85.5,44.5 Z"/></g>
<g><path style="opacity:1" fill="#c9eaf7" d="M 87.5,50.5 C 182.501,50.3333 277.501,50.5 372.5,51C 375.539,52.0314 378.039,53.8647 380,56.5C 380.667,62.8333 380.667,69.1667 380,75.5C 378.437,78.7284 375.937,80.8951 372.5,82C 277.833,82.6667 183.167,82.6667 88.5,82C 81.6755,78.9117 79.0088,73.5784 80.5,66C 79.2156,59.0761 81.549,53.9094 87.5,50.5 Z"/></g>
<g><path style="opacity:1" fill="#414141" d="M 461.5,59.5 C 460.5,59.5 459.5,59.5 458.5,59.5C 458.833,186.334 458.5,313.001 457.5,439.5C 457.5,312.5 457.5,185.5 457.5,58.5C 459.099,58.2322 460.432,58.5655 461.5,59.5 Z"/></g>
<g><path style="opacity:1" fill="#cdcdcd" d="M 461.5,59.5 C 469.754,61.92 475.254,67.2533 478,75.5C 478.667,196.167 478.667,316.833 478,437.5C 474.296,452.284 464.796,458.451 449.5,456C 454.178,451.476 456.845,445.976 457.5,439.5C 458.5,313.001 458.833,186.334 458.5,59.5C 459.5,59.5 460.5,59.5 461.5,59.5 Z"/></g>
<g><path style="opacity:1" fill="#383839" d="M 85.5,120.5 C 182.167,120.333 278.834,120.5 375.5,121C 381.307,122.807 385.141,126.64 387,132.5C 387.667,138.833 387.667,145.167 387,151.5C 384.728,158.106 380.228,162.273 373.5,164C 278.167,164.667 182.833,164.667 87.5,164C 77.2215,160.634 72.5548,153.467 73.5,142.5C 72.3196,132.185 76.3196,124.852 85.5,120.5 Z"/></g>
<g><path style="opacity:1" fill="#ccedfb" d="M 87.5,126.5 C 182.501,126.333 277.501,126.5 372.5,127C 375.539,128.031 378.039,129.865 380,132.5C 380.667,138.833 380.667,145.167 380,151.5C 378.833,154 377,155.833 374.5,157C 278.5,157.667 182.5,157.667 86.5,157C 81.2253,153.434 79.2253,148.434 80.5,142C 79.2156,135.076 81.549,129.909 87.5,126.5 Z"/></g>
<g><path style="opacity:1" fill="#059de6" d="M 20.5,186.5 C 70.8344,186.333 121.168,186.5 171.5,187C 174.102,187.883 176.269,189.383 178,191.5C 187.94,212.38 197.607,233.38 207,254.5C 208.873,256.709 211.04,258.542 213.5,260C 264.775,261.32 316.108,261.987 367.5,262C 374.758,264.924 379.592,270.091 382,277.5C 382.667,340.5 382.667,403.5 382,466.5C 379.5,474.333 374.333,479.5 366.5,482C 251.167,482.667 135.833,482.667 20.5,482C 13.1272,479.296 8.62721,474.13 7,466.5C 6.33333,377.833 6.33333,289.167 7,200.5C 9.68734,193.981 14.1873,189.314 20.5,186.5 Z"/></g>
<g><path style="opacity:1" fill="#ccedfa" d="M 190.5,203.5 C 220.997,202.336 251.664,202.169 282.5,203C 285.937,204.105 288.437,206.272 290,209.5C 290.667,214.833 290.667,220.167 290,225.5C 289.111,229.112 286.945,231.612 283.5,233C 257.16,233.833 230.827,233.667 204.5,232.5C 200.059,222.62 195.392,212.953 190.5,203.5 Z"/></g>
<g><path style="opacity:1" fill="#008acf" d="M 486.5,482.5 C 450.996,482.832 415.663,482.498 380.5,481.5C 385.852,476.787 388.519,470.787 388.5,463.5C 412.836,463.667 437.169,463.5 461.5,463C 472.057,460.776 479.224,454.609 483,444.5C 484.489,383.559 484.989,322.559 484.5,261.5C 494.023,262.518 500.523,267.518 504,276.5C 504.667,339.833 504.667,403.167 504,466.5C 501.832,475.835 495.999,481.168 486.5,482.5 Z"/></g>
<g><path style="opacity:1" fill="#f6f7f6" d="M 128.5,309.5 C 134.833,309.5 141.167,309.5 147.5,309.5C 147.5,351.167 147.5,392.833 147.5,434.5C 141.167,434.5 134.833,434.5 128.5,434.5C 128.5,392.833 128.5,351.167 128.5,309.5 Z"/></g>
<g><path style="opacity:1" fill="#cde7f4" d="M 128.5,309.5 C 134.979,308.509 141.646,308.176 148.5,308.5C 148.5,350.833 148.5,393.167 148.5,435.5C 141.646,435.824 134.979,435.491 128.5,434.5C 134.833,434.5 141.167,434.5 147.5,434.5C 147.5,392.833 147.5,351.167 147.5,309.5C 141.167,309.5 134.833,309.5 128.5,309.5 Z"/></g>
<g><path style="opacity:1" fill="#f6f6f6" d="M 206.5,381.5 C 206.461,382.756 206.961,383.756 208,384.5C 208.5,359.502 208.667,334.502 208.5,309.5C 214.167,309.5 219.833,309.5 225.5,309.5C 225.5,351.5 225.5,393.5 225.5,435.5C 218.5,435.5 211.5,435.5 204.5,435.5C 197.642,405.733 190.308,376.066 182.5,346.5C 182.539,345.244 182.039,344.244 181,343.5C 180.5,374.165 180.333,404.832 180.5,435.5C 174.833,435.5 169.167,435.5 163.5,435.5C 163.5,393.167 163.5,350.833 163.5,308.5C 171.833,308.5 180.167,308.5 188.5,308.5C 194.653,332.779 200.653,357.113 206.5,381.5 Z"/></g>
<g><path style="opacity:1" fill="#a7d9f2" d="M 225.5,309.5 C 219.833,309.5 214.167,309.5 208.5,309.5C 208.667,334.502 208.5,359.502 208,384.5C 206.961,383.756 206.461,382.756 206.5,381.5C 207.498,357.339 207.831,333.006 207.5,308.5C 213.69,308.177 219.69,308.51 225.5,309.5 Z"/></g>
<g><path style="opacity:1" fill="#f6f7f6" d="M 240.5,309.5 C 246.833,309.5 253.167,309.5 259.5,309.5C 259.5,351.167 259.5,392.833 259.5,434.5C 253.167,434.5 246.833,434.5 240.5,434.5C 240.5,392.833 240.5,351.167 240.5,309.5 Z"/></g>
<g><path style="opacity:1" fill="#cde7f4" d="M 240.5,309.5 C 246.979,308.509 253.646,308.176 260.5,308.5C 260.5,350.833 260.5,393.167 260.5,435.5C 253.646,435.824 246.979,435.491 240.5,434.5C 246.833,434.5 253.167,434.5 259.5,434.5C 259.5,392.833 259.5,351.167 259.5,309.5C 253.167,309.5 246.833,309.5 240.5,309.5 Z"/></g>
<g><path style="opacity:1" fill="#68c2ee" d="M 182.5,346.5 C 181.833,376.167 181.167,405.833 180.5,435.5C 180.333,404.832 180.5,374.165 181,343.5C 182.039,344.244 182.539,345.244 182.5,346.5 Z"/></g>
<g><path style="opacity:1" fill="#224f67" d="M 380.5,481.5 C 415.663,482.498 450.996,482.832 486.5,482.5C 450.998,483.83 415.331,483.83 379.5,482.5C 379.624,481.893 379.957,481.56 380.5,481.5 Z"/></g>
</svg>
