<?xml version="1.0" encoding="UTF-8"?>
<!DOCTYPE svg PUBLIC "-//W3C//DTD SVG 1.1//EN" "http://www.w3.org/Graphics/SVG/1.1/DTD/svg11.dtd">
<svg xmlns="http://www.w3.org/2000/svg" version="1.1" width="512px" height="490px" style="shape-rendering:geometricPrecision; text-rendering:geometricPrecision; image-rendering:optimizeQuality; fill-rule:evenodd; clip-rule:evenodd" xmlns:xlink="http://www.w3.org/1999/xlink">
<g><path style="opacity:0.989" fill="#373737" d="M 49.5,-0.5 C 170.167,-0.5 290.833,-0.5 411.5,-0.5C 424.16,3.4377 431.16,12.1044 432.5,25.5C 448.195,27.1947 456.861,35.8614 458.5,51.5C 473.661,53.1614 482.494,61.4948 485,76.5C 485.5,135.832 485.667,195.166 485.5,254.5C 498.847,255.825 507.514,262.825 511.5,275.5C 511.5,340.167 511.5,404.833 511.5,469.5C 507.833,479.167 501.167,485.833 491.5,489.5C 334.167,489.5 176.833,489.5 19.5,489.5C 9.83333,485.833 3.16667,479.167 -0.5,469.5C -0.5,379.5 -0.5,289.5 -0.5,199.5C 4.49525,186.162 14.1619,179.495 28.5,179.5C 28.3333,127.166 28.5,74.8323 29,22.5C 31.8169,11.1866 38.6503,3.51991 49.5,-0.5 Z"/></g>
<g><path style="opacity:1" fill="#f5f5f5" d="M 50.5,6.5 C 170.167,6.33333 289.834,6.5 409.5,7C 416.909,9.40839 422.076,14.2417 425,21.5C 425.667,161.167 425.667,300.833 425,440.5C 422.987,447.181 418.82,452.014 412.5,455C 404.92,456.396 397.253,456.896 389.5,456.5C 389.667,396.832 389.5,337.166 389,277.5C 385.929,264.429 377.763,256.929 364.5,255C 314.417,254.991 264.417,254.324 214.5,253C 211.847,249.529 209.847,245.696 208.5,241.5C 233.827,240.667 259.16,240.167 284.5,240C 291.536,237.631 295.703,232.798 297,225.5C 300.43,211.869 295.93,202.036 283.5,196C 251.5,195.667 219.5,195.333 187.5,195C 184.472,186.989 178.805,181.989 170.5,180C 125.501,179.5 80.5012,179.333 35.5,179.5C 35.3333,127.166 35.5,74.8323 36,22.5C 38.5996,15.0704 43.4329,9.73709 50.5,6.5 Z"/></g>
<g><path style="opacity:1" fill="#e2e2e2" d="M 432.5,32.5 C 441.474,33.9681 447.64,38.9681 451,47.5C 451.667,178.5 451.667,309.5 451,440.5C 445.954,453.61 436.454,458.777 422.5,456C 427.337,451.498 430.503,445.998 432,439.5C 432.5,303.834 432.667,168.167 432.5,32.5 Z"/></g>
<g><path style="opacity:1" fill="#343434" d="M 85.5,44.5 C 182.167,44.3333 278.834,44.5 375.5,45C 381.333,46.8333 385.167,50.6667 387,56.5C 387.667,62.5 387.667,68.5 387,74.5C 385.909,81.8485 381.743,86.3485 374.5,88C 278.167,88.6667 181.833,88.6667 85.5,88C 76.6947,83.5593 72.6947,76.3926 73.5,66.5C 72.3017,56.2236 76.3017,48.8903 85.5,44.5 Z"/></g>
<g><path style="opacity:1" fill="#cbd4d9" d="M 87.5,50.5 C 182.501,50.3333 277.501,50.5 372.5,51C 375.539,52.0314 378.039,53.8647 380,56.5C 380.667,62.8333 380.667,69.1667 380,75.5C 378.437,78.7284 375.937,80.8951 372.5,82C 277.833,82.6667 183.167,82.6667 88.5,82C 81.8858,78.7722 79.2191,73.4389 80.5,66C 79.2156,59.0761 81.549,53.9094 87.5,50.5 Z"/></g>
<g><path style="opacity:1" fill="#cdcdcd" d="M 458.5,59.5 C 468.397,60.5534 474.897,65.8867 478,75.5C 478.667,196.167 478.667,316.833 478,437.5C 474.296,452.284 464.796,458.451 449.5,456C 454.043,451.415 456.876,445.915 458,439.5C 458.5,312.834 458.667,186.167 458.5,59.5 Z"/></g>
<g><path style="opacity:1" fill="#383838" d="M 85.5,120.5 C 182.167,120.333 278.834,120.5 375.5,121C 381.307,122.807 385.141,126.64 387,132.5C 388.102,140.691 387.435,148.691 385,156.5C 382.408,159.762 379.241,162.262 375.5,164C 278.833,164.667 182.167,164.667 85.5,164C 76.6947,159.559 72.6947,152.393 73.5,142.5C 72.3196,132.185 76.3196,124.852 85.5,120.5 Z"/></g>
<g><path style="opacity:1" fill="#ced7dc" d="M 87.5,126.5 C 182.501,126.333 277.501,126.5 372.5,127C 375.625,127.979 378.125,129.813 380,132.5C 380.667,138.833 380.667,145.167 380,151.5C 378.833,154 377,155.833 374.5,157C 278.5,157.667 182.5,157.667 86.5,157C 81.2253,153.434 79.2253,148.434 80.5,142C 79.2156,135.076 81.549,129.909 87.5,126.5 Z"/></g>
<g><path style="opacity:1" fill="#546f7a" d="M 20.5,186.5 C 70.1678,186.333 119.834,186.5 169.5,187C 172.973,187.319 175.806,188.819 178,191.5C 187.94,212.38 197.607,233.38 207,254.5C 208.873,256.709 211.04,258.542 213.5,260C 264.775,261.32 316.108,261.987 367.5,262C 374.758,264.924 379.592,270.091 382,277.5C 382.667,340.5 382.667,403.5 382,466.5C 379.5,474.333 374.333,479.5 366.5,482C 251.833,482.667 137.167,482.667 22.5,482C 14,480.167 8.83333,475 7,466.5C 6.33333,377.833 6.33333,289.167 7,200.5C 9.68734,193.981 14.1873,189.314 20.5,186.5 Z"/></g>
<g><path style="opacity:1" fill="#ced7dc" d="M 190.5,203.5 C 220.997,202.336 251.664,202.169 282.5,203C 285.913,204.077 288.413,206.244 290,209.5C 290.667,214.833 290.667,220.167 290,225.5C 289.111,229.112 286.945,231.612 283.5,233C 257.16,233.833 230.827,233.667 204.5,232.5C 200.059,222.62 195.392,212.953 190.5,203.5 Z"/></g>
<g><path style="opacity:1" fill="#435962" d="M 484.5,261.5 C 494.065,262.531 500.565,267.531 504,276.5C 504.986,341.211 504.652,405.878 503,470.5C 500.152,476.84 495.318,480.674 488.5,482C 452.5,482.667 416.5,482.667 380.5,482C 385.769,476.961 388.436,470.795 388.5,463.5C 412.502,463.667 436.502,463.5 460.5,463C 472.798,460.702 480.631,453.535 484,441.5C 484.5,381.501 484.667,321.501 484.5,261.5 Z"/></g>
<g><path style="opacity:1" fill="#f4f4f5" d="M 203.5,331.5 C 203.5,335.5 203.5,339.5 203.5,343.5C 197.5,343.5 191.5,343.5 185.5,343.5C 185.879,338.703 185.379,334.036 184,329.5C 179.252,324.956 173.919,324.29 168,327.5C 164.33,335.802 164.997,343.802 170,351.5C 177.946,359.446 185.946,367.446 194,375.5C 206.036,391.405 207.703,408.405 199,426.5C 190.521,435.84 180.021,439.34 167.5,437C 155.226,434.392 148.059,426.892 146,414.5C 145.501,409.177 145.334,403.844 145.5,398.5C 151.833,398.5 158.167,398.5 164.5,398.5C 164.149,404.262 164.649,409.928 166,415.5C 166.903,416.701 168.069,417.535 169.5,418C 174.351,419.258 178.685,418.424 182.5,415.5C 185.582,406.823 184.748,398.49 180,390.5C 172.054,382.554 164.054,374.554 156,366.5C 144.18,351.21 142.514,334.877 151,317.5C 163.702,305.009 177.869,303.176 193.5,312C 199.624,317.082 202.958,323.582 203.5,331.5 Z"/></g>
<g><path style="opacity:1" fill="#f4f4f4" d="M 239.5,306.5 C 251.778,305.431 261.944,309.431 270,318.5C 271.893,321.618 273.226,324.951 274,328.5C 274.968,358.548 274.635,388.548 273,418.5C 267.538,431.488 257.705,437.821 243.5,437.5C 227.291,436.79 217.791,428.457 215,412.5C 214.333,384.833 214.333,357.167 215,329.5C 218.25,316.412 226.417,308.745 239.5,306.5 Z"/></g>
<g><path style="opacity:1" fill="#c0c9cd" d="M 133.5,309.5 C 127.167,309.5 120.833,309.5 114.5,309.5C 114.5,351.5 114.5,393.5 114.5,435.5C 113.501,393.337 113.168,351.003 113.5,308.5C 120.354,308.176 127.021,308.509 133.5,309.5 Z"/></g>
<g><path style="opacity:1" fill="#f6f6f6" d="M 133.5,309.5 C 133.5,351.5 133.5,393.5 133.5,435.5C 127.167,435.5 120.833,435.5 114.5,435.5C 114.5,393.5 114.5,351.5 114.5,309.5C 120.833,309.5 127.167,309.5 133.5,309.5 Z"/></g>
<g><path style="opacity:1" fill="#546f7a" d="M 239.5,325.5 C 242.85,325.335 246.183,325.502 249.5,326C 251.552,326.93 253.052,328.43 254,330.5C 254.667,357.833 254.667,385.167 254,412.5C 252.561,417.141 249.394,419.141 244.5,418.5C 239.946,418.793 236.78,416.793 235,412.5C 234.333,385.5 234.333,358.5 235,331.5C 236.332,329.34 237.832,327.34 239.5,325.5 Z"/></g>
<g><path style="opacity:1" fill="#a4b2b7" d="M 203.5,331.5 C 204.485,335.634 204.818,339.968 204.5,344.5C 197.978,344.823 191.645,344.49 185.5,343.5C 191.5,343.5 197.5,343.5 203.5,343.5C 203.5,339.5 203.5,335.5 203.5,331.5 Z"/></g>
</svg>
