<?xml version="1.0" encoding="UTF-8"?>
<svg version="1.1" xmlns="http://www.w3.org/2000/svg" width="100" height="100">
<path d="M0 0 C1.921875 2.40625 1.921875 2.40625 3.75 5.5 C4.67039062 7.03140625 4.67039062 7.03140625 5.609375 8.59375 C6.06828125 9.3878125 6.5271875 10.181875 7 11 C7.33 10.34 7.66 9.68 8 9 C8.99 9 9.98 9 11 9 C11.66 11.31 12.32 13.62 13 16 C12.505 16.495 12.505 16.495 12 17 C12.82177734 17.09474609 12.82177734 17.09474609 13.66015625 17.19140625 C19.99421846 18.16983862 25.37386031 20.39165863 31.08886719 23.17651367 C36.96543054 26.03395923 42.9666699 28.46011887 49.05078125 30.8359375 C52 32 52 32 54 33 C54 33.99 54 34.98 54 36 C52.14375 36.44279297 52.14375 36.44279297 50.25 36.89453125 C47.52448593 37.91659903 46.28226692 38.56497809 44.68359375 41.02880859 C43.64423641 43.55434504 42.79155367 46.07384332 42 48.6875 C41.70222656 49.58017578 41.40445313 50.47285156 41.09765625 51.39257812 C40.36992735 53.58750238 39.67240366 55.78762639 39 58 C37.35 58 35.7 58 34 58 C33.95101562 59.03898437 33.90203125 60.07796875 33.8515625 61.1484375 C33.44790554 68.91953317 32.87783799 76.41572228 31 84 C24.02013687 83.68978386 18.92708478 80.5048042 13 77 C11.51289207 78.48710793 11.57761502 79.97395877 11.24609375 82.03515625 C11.11396484 82.84404297 10.98183594 83.65292969 10.84570312 84.48632812 C10.71099609 85.33646484 10.57628906 86.18660156 10.4375 87.0625 C10.22963867 88.34350586 10.22963867 88.34350586 10.01757812 89.65039062 C9.67476995 91.76634451 9.33692384 93.88310118 9 96 C4.60681267 95.49814204 2.68022702 94.1370003 -0.4375 91.0625 C-5.07155681 86.70021494 -9.94311736 83.04096361 -15.17749023 79.45141602 C-21.86803943 74.82621439 -21.86803943 74.82621439 -24 72 C-23.8647324 68.26543802 -22.44563469 65.768099 -20.4375 62.6875 C-17.76958277 58.39728631 -15.4649184 54.03237932 -13.25 49.5 C-10.21760257 43.32733035 -7.02229455 37.26484556 -3.6875 31.25 C-3.26694336 30.48751953 -2.84638672 29.72503906 -2.41308594 28.93945312 C-0.46463135 25.45010485 1.46968497 22.11171428 4 19 C3.34 19.33 2.68 19.66 2 20 C0.00039988 20.039992 -2.00047242 20.04346799 -4 20 C-4 19.01 -4 18.02 -4 17 C-2.35 16.34 -0.7 15.68 1 15 C-2.38168431 11.31993178 -5.42521756 9.0214155 -10 7 C-7.30725018 2.12740508 -5.90493851 0 0 0 Z " fill="#F7BB92" transform="translate(38,0)"/>
<path d="M0 0 C1.921875 2.40625 1.921875 2.40625 3.75 5.5 C4.67039062 7.03140625 4.67039062 7.03140625 5.609375 8.59375 C6.06828125 9.3878125 6.5271875 10.181875 7 11 C7.33 10.34 7.66 9.68 8 9 C8.99 9 9.98 9 11 9 C11.66 11.31 12.32 13.62 13 16 C12.505 16.495 12.505 16.495 12 17 C12.82177734 17.09474609 12.82177734 17.09474609 13.66015625 17.19140625 C19.99421846 18.16983862 25.37386031 20.39165863 31.08886719 23.17651367 C36.96543054 26.03395923 42.9666699 28.46011887 49.05078125 30.8359375 C52 32 52 32 54 33 C54 33.99 54 34.98 54 36 C52.14375 36.44279297 52.14375 36.44279297 50.25 36.89453125 C47.52448593 37.91659903 46.28226692 38.56497809 44.68359375 41.02880859 C43.64423641 43.55434504 42.79155367 46.07384332 42 48.6875 C41.70222656 49.58017578 41.40445313 50.47285156 41.09765625 51.39257812 C40.36992735 53.58750238 39.67240366 55.78762639 39 58 C37.35 58 35.7 58 34 58 C33.95101562 59.03898437 33.90203125 60.07796875 33.8515625 61.1484375 C33.44790554 68.91953317 32.87783799 76.41572228 31 84 C24.02013687 83.68978386 18.92708478 80.5048042 13 77 C11.51289207 78.48710793 11.57761502 79.97395877 11.24609375 82.03515625 C11.11396484 82.84404297 10.98183594 83.65292969 10.84570312 84.48632812 C10.71099609 85.33646484 10.57628906 86.18660156 10.4375 87.0625 C10.22963867 88.34350586 10.22963867 88.34350586 10.01757812 89.65039062 C9.67476995 91.76634451 9.33692384 93.88310118 9 96 C4.60681267 95.49814204 2.68022702 94.1370003 -0.4375 91.0625 C-5.07155681 86.70021494 -9.94311736 83.04096361 -15.17749023 79.45141602 C-21.86803943 74.82621439 -21.86803943 74.82621439 -24 72 C-23.8647324 68.26543802 -22.44563469 65.768099 -20.4375 62.6875 C-17.76958277 58.39728631 -15.4649184 54.03237932 -13.25 49.5 C-10.21760257 43.32733035 -7.02229455 37.26484556 -3.6875 31.25 C-3.26694336 30.48751953 -2.84638672 29.72503906 -2.41308594 28.93945312 C-0.46463135 25.45010485 1.46968497 22.11171428 4 19 C3.34 19.33 2.68 19.66 2 20 C0.00039988 20.039992 -2.00047242 20.04346799 -4 20 C-4 19.01 -4 18.02 -4 17 C-2.35 16.34 -0.7 15.68 1 15 C-2.38168431 11.31993178 -5.42521756 9.0214155 -10 7 C-7.30725018 2.12740508 -5.90493851 0 0 0 Z M23 29 C23.99 30.65 24.98 32.3 26 34 C24.8553125 34.12375 24.8553125 34.12375 23.6875 34.25 C20.93008933 34.78986281 20.93008933 34.78986281 19.1875 36.75 C17.80391706 39.37152557 17.75639573 41.07674878 18 44 C15.525 43.505 15.525 43.505 13 43 C13.185625 42.030625 13.37125 41.06125 13.5625 40.0625 C13.706875 39.051875 13.85125 38.04125 14 37 C12.94689723 35.72996677 12.94689723 35.72996677 10.5625 35.8125 C7.83265325 35.73160017 7.83265325 35.73160017 6 38 C5.94154191 40.46650198 5.94154191 40.46650198 7 43 C9.45633073 45.31607874 9.45633073 45.31607874 12 47 C8.56951998 47.72557587 5.74643344 47.98108104 2.23046875 47.71875 C-2.02414821 47.42147963 -6.0502713 47.17453799 -10 49 C-13.99950688 53.20312263 -16.1477296 58.76307115 -18.20068359 64.11474609 C-19 66 -19 66 -21 69 C-20.79378697 71.5265658 -20.40424382 72.62829157 -18.52880859 74.3527832 C-17.90828613 74.74812256 -17.28776367 75.14346191 -16.6484375 75.55078125 C-15.96491211 75.9988916 -15.28138672 76.44700195 -14.57714844 76.90869141 C-13.85043945 77.37194824 -13.12373047 77.83520508 -12.375 78.3125 C-3.46654482 84.17105474 -3.46654482 84.17105474 0.25 88.125 C2.83171886 91.3357685 2.83171886 91.3357685 7 92 C7.99 85.73 8.98 79.46 10 73 C14.79071677 74.91628671 19.01476014 77.20297224 23.4765625 79.7578125 C25.97982572 81.22082481 25.97982572 81.22082481 29 81 C29.66 75.06 30.32 69.12 31 63 C29.35 63.66 27.7 64.32 26 65 C28 62 28 62 30.125 61.3125 C31.053125 61.1578125 31.053125 61.1578125 32 61 C32 59.02 32 57.04 32 55 C33.65 55 35.3 55 37 55 C37.84442881 53.10908264 38.67511587 51.21202485 39.5 49.3125 C39.9640625 48.25675781 40.428125 47.20101562 40.90625 46.11328125 C41.94950801 43.14372184 42.23065301 41.10804937 42 38 C39.2118978 36.4933028 36.41896042 34.99580196 33.625 33.5 C32.8309375 33.07074219 32.036875 32.64148437 31.21875 32.19921875 C30.45820312 31.79316406 29.69765625 31.38710938 28.9140625 30.96875 C28.2123291 30.59169922 27.5105957 30.21464844 26.78759766 29.82617188 C25.02563289 28.86015672 25.02563289 28.86015672 23 29 Z " fill="#060403" transform="translate(38,0)"/>
<path d="M0 0 C3.64095915 1.3547755 5.81385413 3.39367002 8.6875 6 C7.62874926 9.40312738 6.67847846 12.01353231 4.6875 15 C0.9222642 14.74327938 -0.87089511 14.40674134 -3.6875 11.8125 C-5.59565544 8.50992328 -5.88370959 6.753663 -5.3125 3 C-3.73626923 0.42825506 -3.02259455 0 0 0 Z " fill="#16120E" transform="translate(68.3125,37)"/>
<path d="M0 0 C1.2065625 0.0309375 1.2065625 0.0309375 2.4375 0.0625 C3.38774979 3.75791586 3.38774979 6.36708414 2.4375 10.0625 C-0.47767292 8.98848892 -2.34060176 8.28439824 -4.5625 6.0625 C-3.83457637 0.09352625 -3.83457637 0.09352625 0 0 Z " fill="#EAB18A" transform="translate(48.5625,35.9375)"/>
<path d="M0 0 C2.02045442 0.60183749 4.02111039 1.27306096 6 2 C7.24546405 4.49092811 6.7767578 5.41080733 6 8 C2.83884224 6.63016497 2.0072908 6.0109362 0 3 C0 2.01 0 1.02 0 0 Z " fill="#B3BFBF" transform="translate(65,42)"/>
<path d="M0 0 C3.68802044 1.22934015 4.72356973 2.93859378 7 6 C6.67 6.66 6.34 7.32 6 8 C1.125 3.375 1.125 3.375 0 0 Z " fill="#231B16" transform="translate(63,44)"/>
<path d="M0 0 C0.33 0 0.66 0 1 0 C0.67 2.97 0.34 5.94 0 9 C-0.99 9 -1.98 9 -3 9 C-2.01 6.03 -1.02 3.06 0 0 Z " fill="#E0AA84" transform="translate(77,42)"/>
</svg>
