<?xml version="1.0" encoding="UTF-8"?>
<!DOCTYPE svg PUBLIC "-//W3C//DTD SVG 1.1//EN" "http://www.w3.org/Graphics/SVG/1.1/DTD/svg11.dtd">
<svg xmlns="http://www.w3.org/2000/svg" version="1.1" width="100px" height="100px" style="shape-rendering:geometricPrecision; text-rendering:geometricPrecision; image-rendering:optimizeQuality; fill-rule:evenodd; clip-rule:evenodd" xmlns:xlink="http://www.w3.org/1999/xlink">
<g><path style="opacity:0.72" fill="#0e0a02" d="M 42.5,5.5 C 64.5361,3.10094 81.0361,11.4343 92,30.5C 96.0603,39.0745 96.3937,47.7411 93,56.5C 91.3005,57.4061 89.4672,57.7394 87.5,57.5C 78.9741,90.2629 58.9741,100.43 27.5,88C 16.7483,81.0141 10.0816,71.1808 7.5,58.5C 4.3103,56.6633 2.64363,53.8299 2.5,50C 3.44038,23.8982 16.7737,9.06487 42.5,5.5 Z"/></g>
<g><path style="opacity:1" fill="#f7ba0f" d="M 37.5,8.5 C 45.84,8.3336 54.1733,8.50027 62.5,9C 77.0259,14.1926 86.8592,24.0259 92,38.5C 92.8392,43.9212 92.5059,49.2545 91,54.5C 89.2493,55.8088 87.7493,55.4755 86.5,53.5C 83.7584,70.8554 74.425,83.0221 58.5,90C 35.3355,93.5032 19.5022,84.3365 11,62.5C 10.6667,59.8333 10.3333,57.1667 10,54.5C 8.28587,55.9255 6.95254,55.5922 6,53.5C 3.89394,29.4697 14.3939,14.4697 37.5,8.5 Z"/></g>
<g><path style="opacity:1" fill="#19150f" d="M 63.5,23.5 C 78.2121,23.8918 83.3788,31.2251 79,45.5C 75.8827,48.7421 72.0494,50.4088 67.5,50.5C 67.6655,54.5138 67.4988,58.5138 67,62.5C 63.9877,71.0341 59.6544,71.7008 54,64.5C 49.4734,66.0697 45.14,65.7364 41,63.5C 39.6038,67.0643 37.1038,69.3976 33.5,70.5C 31.2339,70.0692 29.7339,68.7358 29,66.5C 28.4117,61.4724 28.5784,56.4724 29.5,51.5C 17.8623,50.3494 13.3623,44.0161 16,32.5C 20.9532,24.1221 27.7865,22.2888 36.5,27C 39.1027,30.0393 40.7694,33.5393 41.5,37.5C 46.1001,36.5565 50.7668,36.2232 55.5,36.5C 55.4003,30.3497 58.067,26.0164 63.5,23.5 Z"/></g>
<g><path style="opacity:1" fill="#d0dede" d="M 66.5,25.5 C 73.643,25.6399 77.643,29.3065 78.5,36.5C 78.6102,38.374 77.9436,39.874 76.5,41C 64.159,41.2059 60.8257,36.0393 66.5,25.5 Z"/></g>
<g><path style="opacity:1" fill="#cfdede" d="M 26.5,26.5 C 35.4775,26.3098 39.3108,30.6431 38,39.5C 32.7907,43.6444 27.7907,43.3111 23,38.5C 21.7452,33.7378 22.9119,29.7378 26.5,26.5 Z"/></g>
<g><path style="opacity:1" fill="#f5b80f" d="M 42.5,38.5 C 54.2649,35.8889 61.7649,40.2222 65,51.5C 65.6667,55.1667 65.6667,58.8333 65,62.5C 63.2813,68.0982 60.6146,68.7649 57,64.5C 54.9595,59.0525 53.9595,53.3859 54,47.5C 49.9022,44.9979 45.9022,44.9979 42,47.5C 41.6241,53.9959 39.9574,60.3292 37,66.5C 35,67.8333 33,67.8333 31,66.5C 29.1206,54.6173 32.9539,45.284 42.5,38.5 Z"/></g>
<g><path style="opacity:1" fill="#dca50e" d="M 43.5,52.5 C 46.5,52.5 49.5,52.5 52.5,52.5C 52.5,53.5 52.5,54.5 52.5,55.5C 49.5,55.5 46.5,55.5 43.5,55.5C 43.5,54.5 43.5,53.5 43.5,52.5 Z"/></g>
<g><path style="opacity:1" fill="#e05b1f" d="M 42.5,57.5 C 46.1667,57.5 49.8333,57.5 53.5,57.5C 54.5751,61.9225 52.9084,63.9225 48.5,63.5C 46.3659,63.4847 44.3659,62.9847 42.5,62C 41.2721,60.5098 41.2721,59.0098 42.5,57.5 Z"/></g>
</svg>
