<?xml version="1.0" encoding="UTF-8"?>
<!DOCTYPE svg PUBLIC "-//W3C//DTD SVG 1.1//EN" "http://www.w3.org/Graphics/SVG/1.1/DTD/svg11.dtd">
<svg xmlns="http://www.w3.org/2000/svg" version="1.1" width="512px" height="512px" style="shape-rendering:geometricPrecision; text-rendering:geometricPrecision; image-rendering:optimizeQuality; fill-rule:evenodd; clip-rule:evenodd" xmlns:xlink="http://www.w3.org/1999/xlink">
<g><path style="opacity:1" fill="#060400" d="M 26.5,-0.5 C 179.167,-0.5 331.833,-0.5 484.5,-0.5C 487.933,2.53028 489.933,6.36361 490.5,11C 476.165,154.183 461.665,297.35 447,440.5C 446.214,443.583 444.381,445.749 441.5,447C 384.362,468.431 327.362,489.931 270.5,511.5C 267.167,511.5 263.833,511.5 260.5,511.5C 197.709,490.069 134.709,468.903 71.5,448C 68.4384,446.939 65.9384,445.106 64,442.5C 49.1412,301.913 34.8079,161.246 21,20.5C 20.3333,15.5 20.3333,10.5 21,5.5C 22.3597,2.97739 24.193,0.977392 26.5,-0.5 Z"/></g>
<g><path style="opacity:1" fill="#a67d04" d="M 466.5,25.5 C 466.5,24.1667 466.5,22.8333 466.5,21.5C 325.163,20.8349 184.163,21.5016 43.5,23.5C 42.596,22.791 42.2627,21.791 42.5,20.5C 184.167,20.5 325.833,20.5 467.5,20.5C 467.784,22.4147 467.451,24.0813 466.5,25.5 Z"/></g>
<g><path style="opacity:1" fill="#fec006" d="M 466.5,25.5 C 454.018,160.317 440.352,294.984 425.5,429.5C 372.055,449.639 318.555,469.639 265,489.5C 204.575,469.192 144.075,449.192 83.5,429.5C 70.1665,294.165 56.8332,158.832 43.5,23.5C 184.163,21.5016 325.163,20.8349 466.5,21.5C 466.5,22.8333 466.5,24.1667 466.5,25.5 Z"/></g>
<g><path style="opacity:1" fill="#050300" d="M 231.5,368.5 C 232.209,369.404 233.209,369.737 234.5,369.5C 234.833,288.665 234.499,207.998 233.5,127.5C 194.165,127.667 154.832,127.5 115.5,127C 106.57,124.667 104.07,119.167 108,110.5C 109.214,108.951 110.714,107.785 112.5,107C 157.5,106.333 202.5,106.333 247.5,107C 251.307,108.14 253.807,110.64 255,114.5C 255.995,205.914 255.661,297.248 254,388.5C 249.86,393.211 244.694,394.711 238.5,393C 212.856,386.257 187.523,378.591 162.5,370C 160.932,367.696 159.765,365.196 159,362.5C 155.944,344.718 152.444,327.052 148.5,309.5C 150.985,298.51 157.152,295.843 167,301.5C 168,303.5 169,305.5 170,307.5C 173.047,323.07 176.214,338.57 179.5,354C 196.764,359.149 214.097,363.982 231.5,368.5 Z"/></g>
<g><path style="opacity:1" fill="#010000" d="M 298.5,127.5 C 297.502,162.996 297.168,198.663 297.5,234.5C 322.833,234.5 348.167,234.5 373.5,234.5C 381.769,236.695 384.603,242.029 382,250.5C 375.335,287.154 368.669,323.821 362,360.5C 361.75,363.754 360.75,366.754 359,369.5C 336.742,377.92 314.242,385.753 291.5,393C 282.875,395.362 277.875,392.195 276.5,383.5C 276.881,378.23 279.548,374.73 284.5,373C 303.758,366.692 322.924,360.192 342,353.5C 347.974,320.846 353.807,288.179 359.5,255.5C 334.831,255.667 310.164,255.5 285.5,255C 280.21,254.042 277.376,250.876 277,245.5C 276.333,202.167 276.333,158.833 277,115.5C 277.579,111.909 279.412,109.076 282.5,107C 321.584,106.012 360.584,106.346 399.5,108C 402.738,110.145 404.405,113.145 404.5,117C 400.726,133.263 396.559,149.43 392,165.5C 388.257,169.259 383.757,170.426 378.5,169C 374.869,166.691 372.869,163.357 372.5,159C 374.916,148.505 377.249,138.005 379.5,127.5C 352.5,127.5 325.5,127.5 298.5,127.5 Z"/></g>
<g><path style="opacity:1" fill="#4f3c02" d="M 233.5,127.5 C 234.499,207.998 234.833,288.665 234.5,369.5C 233.209,369.737 232.209,369.404 231.5,368.5C 233.497,288.507 234.164,208.174 233.5,127.5 Z"/></g>
<g><path style="opacity:1" fill="#ac8204" d="M 298.5,127.5 C 298.5,162.833 298.5,198.167 298.5,233.5C 323.672,233.169 348.672,233.502 373.5,234.5C 348.167,234.5 322.833,234.5 297.5,234.5C 297.168,198.663 297.502,162.996 298.5,127.5 Z"/></g>
</svg>
