<?xml version="1.0" encoding="UTF-8"?>
<!DOCTYPE svg PUBLIC "-//W3C//DTD SVG 1.1//EN" "http://www.w3.org/Graphics/SVG/1.1/DTD/svg11.dtd">
<svg xmlns="http://www.w3.org/2000/svg" version="1.1" width="512px" height="512px" style="shape-rendering:geometricPrecision; text-rendering:geometricPrecision; image-rendering:optimizeQuality; fill-rule:evenodd; clip-rule:evenodd" xmlns:xlink="http://www.w3.org/1999/xlink">
<g><path style="opacity:0.968" fill="#010100" d="M 397.5,-0.5 C 429.167,-0.5 460.833,-0.5 492.5,-0.5C 501.833,2.83333 508.167,9.16667 511.5,18.5C 511.5,50.1667 511.5,81.8333 511.5,113.5C 504.099,122.406 496.099,130.906 487.5,139C 485.913,139.862 484.246,140.529 482.5,141C 467.501,140.167 452.501,139 437.5,137.5C 438.59,149.319 439.59,161.153 440.5,173C 441.221,183.115 436.555,188.948 426.5,190.5C 413.831,189.106 401.165,187.773 388.5,186.5C 389.968,200.81 390.801,215.144 391,229.5C 388.565,235.932 383.899,239.265 377,239.5C 364.804,238.255 352.637,236.922 340.5,235.5C 340.167,237 339.833,238.5 339.5,240C 341.42,254.452 342.254,268.952 342,283.5C 335.95,290.045 330.116,296.712 324.5,303.5C 339.235,369.762 321.902,425.928 272.5,472C 245.227,494.802 213.894,507.969 178.5,511.5C 169.167,511.5 159.833,511.5 150.5,511.5C 87.0077,503.512 41.1744,470.846 13,413.5C 6.44565,397.604 1.94565,381.271 -0.5,364.5C -0.5,352.167 -0.5,339.833 -0.5,327.5C 11.6153,253.211 53.9486,205.711 126.5,185C 153.989,178.901 181.322,179.234 208.5,186C 269.5,125 330.5,64 391.5,3C 393.432,1.5415 395.432,0.374833 397.5,-0.5 Z M 116.5,357.5 C 143.9,359.731 155.4,374.398 151,401.5C 141.478,420.513 126.645,426.679 106.5,420C 90.049,410.589 84.549,396.756 90,378.5C 95.4813,367.177 104.315,360.177 116.5,357.5 Z"/></g>
<g><path style="opacity:1" fill="#fedb00" d="M 402.5,17.5 C 427.075,17.1723 451.575,17.5056 476,18.5C 477.643,48.7721 477.977,79.1054 477,109.5C 473.833,113.333 470.667,117.167 467.5,121C 464.183,121.498 460.85,121.665 457.5,121.5C 447.814,120.906 438.148,120.406 428.5,120C 424.952,122.047 422.285,124.88 420.5,128.5C 415.156,128.334 409.823,128.501 404.5,129C 404,129.5 403.5,130 403,130.5C 403.763,143.811 404.597,157.144 405.5,170.5C 396.505,169.792 387.505,169.625 378.5,170C 374.952,172.047 372.285,174.88 370.5,178.5C 366.812,178.45 363.145,178.116 359.5,177.5C 357.307,177.326 355.473,177.993 354,179.5C 354.301,191.179 355.134,202.846 356.5,214.5C 356.493,216.369 356.16,218.036 355.5,219.5C 346.838,218.822 338.171,218.656 329.5,219C 325.952,221.047 323.285,223.88 321.5,227.5C 317.637,227.538 313.804,227.205 310,226.5C 307.966,226.354 306.299,227.02 305,228.5C 306,245.501 307,262.501 308,279.5C 301.487,286.678 294.987,293.845 288.5,301C 303.803,357.718 292.303,408.218 254,452.5C 239.623,467.062 223.457,479.062 205.5,488.5C 144.62,503.371 93.1197,487.705 51,441.5C 14.9642,394.905 7.29755,343.905 28,288.5C 51.6859,237.824 91.1859,207.991 146.5,199C 168.333,196.73 189.666,198.897 210.5,205.5C 212.299,205.423 213.966,204.923 215.5,204C 277.701,141.632 340.035,79.4653 402.5,17.5 Z M 116.5,357.5 C 104.315,360.177 95.4813,367.177 90,378.5C 84.549,396.756 90.049,410.589 106.5,420C 126.645,426.679 141.478,420.513 151,401.5C 155.4,374.398 143.9,359.731 116.5,357.5 Z"/></g>
<g><path style="opacity:1" fill="#f9be07" d="M 402.5,17.5 C 430.997,16.3362 459.664,16.1696 488.5,17C 490.286,17.7845 491.786,18.9512 493,20.5C 494.65,49.4138 494.983,78.4138 494,107.5C 488.833,112.667 483.667,117.833 478.5,123C 471.303,123.419 464.303,122.919 457.5,121.5C 460.85,121.665 464.183,121.498 467.5,121C 470.667,117.167 473.833,113.333 477,109.5C 477.977,79.1054 477.643,48.7721 476,18.5C 451.575,17.5056 427.075,17.1723 402.5,17.5 Z"/></g>
<g><path style="opacity:1" fill="#0a0701" d="M 396.5,59.5 C 403.389,57.9352 407.722,60.4352 409.5,67C 408.246,74.4672 403.912,77.1339 396.5,75C 391.197,69.7603 391.197,64.5936 396.5,59.5 Z"/></g>
<g><path style="opacity:1" fill="#030200" d="M 375.5,79.5 C 385.371,79.5705 388.538,84.2372 385,93.5C 340.167,138.333 295.333,183.167 250.5,228C 239.471,230.635 235.638,226.468 239,215.5C 284.395,169.938 329.895,124.605 375.5,79.5 Z"/></g>
<g><path style="opacity:1" fill="#f8bd07" d="M 420.5,128.5 C 419.957,129.742 419.623,131.075 419.5,132.5C 421.162,145.452 422.162,158.452 422.5,171.5C 416.642,171.822 410.975,171.489 405.5,170.5C 404.597,157.144 403.763,143.811 403,130.5C 403.5,130 404,129.5 404.5,129C 409.823,128.501 415.156,128.334 420.5,128.5 Z"/></g>
<g><path style="opacity:1" fill="#f7bc07" d="M 370.5,178.5 C 371.801,192.812 372.801,207.145 373.5,221.5C 367.312,221.243 361.312,220.577 355.5,219.5C 356.16,218.036 356.493,216.369 356.5,214.5C 355.134,202.846 354.301,191.179 354,179.5C 355.473,177.993 357.307,177.326 359.5,177.5C 363.145,178.116 366.812,178.45 370.5,178.5 Z"/></g>
<g><path style="opacity:1" fill="#fabe07" d="M 321.5,227.5 C 322.532,242.854 323.866,258.188 325.5,273.5C 325.167,274.833 324.833,276.167 324.5,277.5C 317.816,283.35 311.65,289.683 306,296.5C 305.333,298.5 305.333,300.5 306,302.5C 318.904,349.073 311.904,392.406 285,432.5C 264.502,459.667 238.002,478.334 205.5,488.5C 223.457,479.062 239.623,467.062 254,452.5C 292.303,408.218 303.803,357.718 288.5,301C 294.987,293.845 301.487,286.678 308,279.5C 307,262.501 306,245.501 305,228.5C 306.299,227.02 307.966,226.354 310,226.5C 313.804,227.205 317.637,227.538 321.5,227.5 Z"/></g>
<g><path style="opacity:0.972" fill="#020100" d="M 110.5,340.5 C 141.441,338.302 161.274,351.969 170,381.5C 172.454,411.133 159.621,430.3 131.5,439C 104.997,443.332 85.8301,433.499 74,409.5C 64.7395,374.976 76.9062,351.976 110.5,340.5 Z M 116.5,357.5 C 104.315,360.177 95.4813,367.177 90,378.5C 84.549,396.756 90.049,410.589 106.5,420C 126.645,426.679 141.478,420.513 151,401.5C 155.4,374.398 143.9,359.731 116.5,357.5 Z"/></g>
</svg>
