<?xml version="1.0" encoding="UTF-8"?>
<svg version="1.1" xmlns="http://www.w3.org/2000/svg" width="512" height="512">
<path d="M0 0 C2.92182667 0.004029 5.84365144 0.00650803 8.76548004 0.00867462 C165.31055408 0.14232511 165.31055408 0.14232511 207.63260651 40.12897491 C231.6093348 65.36336577 235.39418703 100.00904093 238.43405914 132.9824295 C238.61694015 134.959602 238.8063526 136.93616749 238.99637604 138.91266632 C242.74484829 179.1514825 241.59628668 219.99173517 236.25760651 260.00397491 C236.15864075 260.75996979 236.05967499 261.51596466 235.95771027 262.29486847 C232.31275433 289.72450289 222.04656631 312.28281236 200.27323151 330.05475616 C197.79166878 331.88348948 195.26536972 333.52576269 192.63260651 335.12897491 C191.68772369 335.71420929 190.74284088 336.29944366 189.76932526 336.90241241 C129.71996895 370.48312693 28.28072251 358.94177504 -38.36739349 358.12897491 C-39.22588898 358.11930695 -40.08438446 358.10963898 -40.96889496 358.09967804 C-197.38358762 356.28200336 -197.38358762 356.28200336 -233.68770599 321.93366241 C-259.94578705 294.9634978 -256.25003278 249.64257585 -256.92989349 214.69147491 C-256.95040771 213.65492767 -256.97092194 212.61838043 -256.9920578 211.55042267 C-257.29896356 195.64833063 -257.4947982 179.74564878 -257.54363251 163.84061432 C-257.55100118 161.65727136 -257.56155531 159.47393625 -257.57567596 157.29062653 C-257.82855002 114.48075663 -253.12947562 70.32236912 -222.84004974 37.53913116 C-189.87900333 5.41122336 -139.71378292 5.10913392 -96.61739349 2.44147491 C-95.64376862 2.38062714 -94.67014374 2.31977936 -93.66701508 2.25708771 C-62.44809826 0.3410444 -31.26673257 -0.0454124 0 0 Z " fill="#6A1B2D" transform="translate(264.36739349365234,90.87102508544922)"/>
<path d="M0 0 C4.40661765 0.00008084 8.8131304 -0.00681076 13.21972656 -0.02050781 C149.84997548 -0.43820251 149.84997548 -0.43820251 181.02246094 26.18530273 C182.01826172 27.01288086 182.01826172 27.01288086 183.03417969 27.85717773 C207.07464241 49.68267647 206.0746436 90.48702854 207.64173889 120.29032898 C208.95188546 147.56371327 208.76484666 175.00724806 206.02246094 202.18530273 C205.90233643 203.4341626 205.90233643 203.4341626 205.77978516 204.70825195 C201.61894446 247.19123049 201.61894446 247.19123049 187.77246094 259.24780273 C185.02246094 261.18530273 185.02246094 261.18530273 183.02246094 261.18530273 C182.85605452 254.18899797 183.49761129 247.54724416 184.45996094 240.62280273 C187.04387737 222.0161318 187.26547632 203.47200689 187.31762695 184.72094727 C187.32875776 181.14183074 187.36331887 177.56332428 187.40279865 173.98442459 C187.42913303 171.18569926 187.43733247 168.387118 187.44090843 165.58827972 C187.44801343 163.63869788 187.47433604 161.68921548 187.501297 159.73980713 C187.47689278 149.65670694 186.08377792 139.12371978 178.765625 131.56420898 C172.80367372 126.84808842 165.30483895 125.30155139 157.95996094 124.18530273 C156.9312085 124.02505615 155.90245605 123.86480957 154.8425293 123.69970703 C142.97479229 121.98744647 131.02928325 121.00362081 119.08496094 119.99780273 C118.09140594 119.91312744 117.09785095 119.82845215 116.07418823 119.74121094 C88.5128501 117.42341043 61.0183554 117.01188086 33.37885666 117.05632782 C30.73720043 117.06035651 28.09554631 117.06283719 25.45388794 117.06500244 C-35.45802115 117.12233838 -96.52327303 117.35281385 -156.97753906 125.62280273 C-157.71524536 125.72017731 -158.45295166 125.81755188 -159.2130127 125.9178772 C-174.94643923 127.86784528 -174.94643923 127.86784528 -187.97753906 136.18530273 C-194.78435849 146.67019302 -194.30571394 158.49026117 -194.22753906 170.49780273 C-194.22476959 171.32566284 -194.22200012 172.15352295 -194.21914673 173.00646973 C-194.11172308 200.65632491 -192.3677806 228.07240247 -188.66772461 255.48022461 C-188.1946881 259.07045043 -187.85844527 262.56330012 -187.91503906 266.18530273 C-187.9240625 266.94842773 -187.93308594 267.71155273 -187.94238281 268.49780273 C-187.95398438 269.05467773 -187.96558594 269.61155273 -187.97753906 270.18530273 C-195.38983204 269.72203442 -201.53941026 263.12188982 -206.44238281 258.02905273 C-214.37970299 248.49618983 -214.45462611 235.65382192 -215.35522461 223.85180664 C-215.53647837 221.48185988 -215.72780769 219.11290483 -215.92089844 216.74389648 C-217.71149405 194.37052113 -218.18166808 172.06088188 -218.16503906 149.62280273 C-218.16491947 148.90813213 -218.16479988 148.19346153 -218.16467667 147.45713425 C-218.14456256 52.4037012 -218.14456256 52.4037012 -195.37597656 28.46264648 C-169.71211756 4.09451978 -130.20694206 4.56709633 -97.16503906 2.56030273 C-96.13723328 2.4976825 -95.10942749 2.43506226 -94.05047607 2.37054443 C-86.6949674 1.92931649 -79.33773965 1.53945028 -71.97753906 1.18530273 C-70.94447632 1.13477753 -69.91141357 1.08425232 -68.8470459 1.03219604 C-45.90895762 -0.04234791 -22.9580778 -0.00216273 0 0 Z " fill="#FEC422" transform="translate(260.9775390625,126.814697265625)"/>
<path d="M0 0 C2.92182667 0.004029 5.84365144 0.00650803 8.76548004 0.00867462 C165.31055408 0.14232511 165.31055408 0.14232511 207.63260651 40.12897491 C231.6093348 65.36336577 235.39418703 100.00904093 238.43405914 132.9824295 C238.61694015 134.959602 238.8063526 136.93616749 238.99637604 138.91266632 C242.74484829 179.1514825 241.59628668 219.99173517 236.25760651 260.00397491 C236.15864075 260.75996979 236.05967499 261.51596466 235.95771027 262.29486847 C232.31275433 289.72450289 222.04656631 312.28281236 200.27323151 330.05475616 C197.79166878 331.88348948 195.26536972 333.52576269 192.63260651 335.12897491 C191.68772369 335.71420929 190.74284088 336.29944366 189.76932526 336.90241241 C129.71996895 370.48312693 28.28072251 358.94177504 -38.36739349 358.12897491 C-39.22588898 358.11930695 -40.08438446 358.10963898 -40.96889496 358.09967804 C-197.38358762 356.28200336 -197.38358762 356.28200336 -233.68770599 321.93366241 C-259.94578705 294.9634978 -256.25003278 249.64257585 -256.92989349 214.69147491 C-256.95040771 213.65492767 -256.97092194 212.61838043 -256.9920578 211.55042267 C-257.29896356 195.64833063 -257.4947982 179.74564878 -257.54363251 163.84061432 C-257.55100118 161.65727136 -257.56155531 159.47393625 -257.57567596 157.29062653 C-257.82855002 114.48075663 -253.12947562 70.32236912 -222.84004974 37.53913116 C-189.87900333 5.41122336 -139.71378292 5.10913392 -96.61739349 2.44147491 C-95.64376862 2.38062714 -94.67014374 2.31977936 -93.66701508 2.25708771 C-62.44809826 0.3410444 -31.26673257 -0.0454124 0 0 Z M-125.36739349 28.12897491 C-126.38585358 28.22338867 -126.38585358 28.22338867 -127.42488861 28.31970978 C-157.8856605 31.17062257 -190.93312925 35.04805716 -211.87520599 60.13288116 C-224.98035884 78.23576179 -230.59490806 99.05355331 -232.36739349 121.12897491 C-232.44880585 122.1368103 -232.5302182 123.14464569 -232.6140976 124.18302155 C-233.35790544 134.2730079 -233.54554247 144.31492114 -233.57051849 154.42975616 C-233.57745301 156.17910536 -233.58444814 157.92845431 -233.59149933 159.67780304 C-233.61073122 165.26569613 -233.61541915 170.85355265 -233.61739349 176.44147491 C-233.61812992 177.38975033 -233.61886635 178.33802574 -233.61962509 179.31503677 C-233.63466737 203.05159869 -233.5351615 226.74279932 -232.05489349 250.44147491 C-231.99603973 251.41976257 -231.93718597 252.39805023 -231.87654877 253.40598297 C-230.59740358 273.88348418 -229.03573781 293.34889592 -213.30489349 308.12897491 C-202.62862998 317.16821136 -192.88651585 321.48758085 -179.36739349 324.12897491 C-178.62805573 324.28463928 -177.88871796 324.44030365 -177.12697601 324.60068512 C-171.33858 325.80652145 -165.58137553 326.68995804 -159.70723724 327.34772491 C-158.81188766 327.45058807 -157.91653809 327.55345123 -156.9940567 327.65943146 C-154.0983351 327.98890472 -151.20179689 328.31006839 -148.30489349 328.62897491 C-146.81149445 328.79472015 -146.81149445 328.79472015 -145.28792572 328.96381378 C-128.12449248 330.8558945 -110.99445022 332.26563059 -93.74289989 333.02323532 C-92.09196974 333.09672226 -90.44113191 333.17230096 -88.79037189 333.24951553 C-72.63241171 334.00106956 -56.51411919 334.27817784 -40.34004974 334.26178741 C-37.92699931 334.2624643 -35.51394895 334.26343749 -33.10089874 334.26468658 C-28.08661488 334.26614579 -23.07234905 334.26406725 -18.05806732 334.25934601 C-11.71085198 334.25365298 -5.36367898 334.25693656 0.98353481 334.26291847 C5.95398513 334.26657529 10.92442583 334.26536226 15.89487648 334.26279068 C18.23185545 334.26213532 20.56883536 334.26289959 22.90581322 334.26527023 C46.4020257 334.28388663 69.82164864 333.42718385 93.25760651 331.75397491 C94.18006165 331.68861542 95.10251678 331.62325592 96.05292511 331.55591583 C114.71560656 330.2206715 133.08454892 328.39608299 151.44510651 324.69147491 C152.4063443 324.49827667 153.36758209 324.30507843 154.3579483 324.1060257 C173.16590436 320.07985773 190.29541233 311.10853735 201.50760651 295.06647491 C218.82786102 265.14584059 216.99467354 224.69707728 216.82822418 191.36334991 C216.81736219 188.62449346 216.81780667 185.88568575 216.81821728 183.14681149 C216.81755963 162.07682433 216.4348602 141.12956276 213.94510651 120.19147491 C213.8595752 119.46872375 213.77404388 118.7459726 213.68592072 118.00131989 C210.27591244 89.80298136 202.71540232 65.55206352 179.88260651 47.31647491 C173.22359283 42.56494645 166.18814826 39.18213448 158.63260651 36.12897491 C156.92717682 35.43481476 156.92717682 35.43481476 155.18729401 34.72663116 C147.64791008 31.95207041 140.09591914 30.30483549 132.19510651 28.94147491 C131.31024567 28.78654572 130.42538483 28.63161652 129.51371002 28.47199249 C108.73968537 25.16191501 87.55659125 24.64097765 66.57010651 24.00397491 C65.21625436 23.96188712 63.86240306 23.91977248 62.50855255 23.87763214 C-0.01717614 21.95342325 -63.03671174 22.32064857 -125.36739349 28.12897491 Z " fill="#FEFDFD" transform="translate(264.36739349365234,90.87102508544922)"/>
<path d="M0 0 C8.25 0 16.5 0 25 0 C24.835 3.815625 24.67 7.63125 24.5 11.5625 C24.11478513 21.53776614 23.86810744 31.50853417 23.82275391 41.49093628 C23.81273954 43.45306658 23.79320508 45.41514098 23.7734375 47.37719727 C23.50605777 60.29583291 23.50605777 60.29583291 28.0625 72 C30.72675717 73.81396233 32.66320325 74.66284845 35.68359375 75.625 C36.4923999 75.88539063 37.30120605 76.14578125 38.13452148 76.4140625 C38.75012939 76.60742188 39.3657373 76.80078125 40 77 C40.27318765 94.17719899 39.90427362 111.27828757 39.125 128.4375 C39.08570374 129.36504089 39.04640747 130.29258179 39.00592041 131.24822998 C38.89110965 133.91473202 38.76400525 136.58035293 38.6328125 139.24609375 C38.59937744 140.04189346 38.56594238 140.83769318 38.53149414 141.65760803 C38.2979142 146.03732047 37.9722313 150.00598575 36 154 C31.55643388 157.09395227 25.46981216 156.2678963 20.265625 156.23046875 C19.2318573 156.23001053 18.1980896 156.22955231 17.13299561 156.2290802 C14.95437467 156.22606526 12.77575575 156.21820169 10.59716797 156.20581055 C7.24829554 156.18749068 3.89969869 156.18530139 0.55078125 156.18554688 C-1.56510658 156.18063388 -3.68099252 156.17480652 -5.796875 156.16796875 C-6.80409607 156.16685593 -7.81131714 156.1657431 -8.84906006 156.16459656 C-9.77382141 156.15821671 -10.69858276 156.15183685 -11.65136719 156.14526367 C-12.4690155 156.14145187 -13.28666382 156.13764008 -14.12908936 156.13371277 C-16 156 -16 156 -17 155 C-17.10605935 152.09058158 -17.1402122 149.210631 -17.125 146.30078125 C-17.12234131 145.37606522 -17.11968262 144.45134918 -17.11694336 143.49861145 C-17.03221477 130.38786828 -16.49189312 117.28786833 -16 104.1875 C-15.90329812 101.53712204 -15.80694176 98.88673145 -15.7109375 96.23632812 C-15.477931 89.82406807 -15.24070002 83.41197564 -15 77 C-14.31292969 76.75765625 -13.62585938 76.5153125 -12.91796875 76.265625 C-11.56638672 75.76289063 -11.56638672 75.76289063 -10.1875 75.25 C-9.29417969 74.92515625 -8.40085937 74.6003125 -7.48046875 74.265625 C-3.47113515 72.21991778 -2.28208903 69.80817863 -0.82470703 65.6328125 C0.54690155 59.46687543 0.24545826 53.15628284 0.1953125 46.875 C0.1915756 45.51880096 0.18873183 44.1625992 0.18673706 42.80639648 C0.1791538 39.26198685 0.15955195 35.71774492 0.1373291 32.17340088 C0.11675534 28.54661323 0.10771085 24.91979811 0.09765625 21.29296875 C0.07630019 14.19523792 0.0411623 7.09764766 0 0 Z " fill="#E4E4E4" transform="translate(288,256)"/>
<path d="M0 0 C7.26 0 14.52 0 22 0 C22 9.62929567 22 9.62929567 21 14 C20.90013334 15.57769643 20.84252992 17.15852448 20.82299805 18.73925781 C20.81016281 19.65080627 20.79732758 20.56235474 20.78410339 21.50152588 C20.77671646 22.47555359 20.76932953 23.4495813 20.76171875 24.453125 C20.753647 25.46791931 20.74557526 26.48271362 20.73725891 27.52825928 C20.72345121 29.67328194 20.71271429 31.81832627 20.70483398 33.96337891 C20.69331542 36.14736409 20.6728657 38.33132115 20.64331055 40.51513672 C20.60047414 43.68215942 20.58444274 46.84834794 20.57421875 50.015625 C20.55671066 50.98155579 20.53920258 51.94748657 20.52116394 52.94268799 C20.54140523 59.33670717 21.60987582 64.49928512 25 70 C28.32776386 72.71475473 31.9536116 73.66792448 36 75 C36.37911169 113.36318677 36.37911169 113.36318677 35.1875 131.6875 C35.08236084 133.46386841 35.08236084 133.46386841 34.97509766 135.27612305 C34.85400635 136.90868042 34.85400635 136.90868042 34.73046875 138.57421875 C34.62835083 139.97546997 34.62835083 139.97546997 34.52416992 141.4050293 C33.90244881 144.48293971 32.86121373 146.47954299 31 149 C26.32474145 150.55841952 21.52036906 150.67028834 16.625 151.0625 C15.51842041 151.15192871 14.41184082 151.24135742 13.27172852 151.33349609 C2.83107342 152.11693695 -7.53899818 152.16232228 -18 152 C-18.14992394 134.45097015 -17.73737568 116.9699678 -17 99.4375 C-16.90318664 97.04624251 -16.80683065 94.65496645 -16.7109375 92.26367188 C-16.47919761 86.50889122 -16.24193879 80.75436046 -16 75 C-15.30712891 74.80446533 -14.61425781 74.60893066 -13.90039062 74.4074707 C-12.54204102 74.01434692 -12.54204102 74.01434692 -11.15625 73.61328125 C-10.25712891 73.35587158 -9.35800781 73.09846191 -8.43164062 72.83325195 C-5.36486641 71.78235834 -3.83613196 70.67769244 -2 68 C-0.31886413 63.73559391 0.24570607 60.1979864 0.22705078 55.62744141 C0.22689972 54.38660797 0.22674866 53.14577454 0.22659302 51.86734009 C0.21638225 50.52874589 0.2059503 49.19015337 0.1953125 47.8515625 C0.19157813 46.47008469 0.18873316 45.08860422 0.18673706 43.7071228 C0.17913392 40.08706229 0.15951437 36.46716457 0.1373291 32.84716797 C0.11679878 29.14683229 0.10772004 25.44647008 0.09765625 21.74609375 C0.07626496 14.49731335 0.04111033 7.24870031 0 0 Z " fill="#E4E3E3" transform="translate(351,258)"/>
<path d="M0 0 C0.02763357 1.35404497 0.04667422 2.70826555 0.0625 4.0625 C0.07410156 4.81660156 0.08570313 5.57070313 0.09765625 6.34765625 C0 9 0 9 -0.4934082 12.07519531 C-1.0725088 16.56175977 -1.18040067 20.93135747 -1.203125 25.44921875 C-1.21167511 26.79002251 -1.21167511 26.79002251 -1.22039795 28.15791321 C-1.22980437 30.04300774 -1.2363645 31.92811839 -1.24023438 33.81323242 C-1.24991199 36.66159584 -1.28096564 39.50922818 -1.3125 42.35742188 C-1.36764553 51.96884565 -1.16121686 60.79911882 2 70 C2.33 70.99 2.66 71.98 3 73 C6.84291379 75.03448377 10.7331142 75.42561153 15 76 C16.70775213 77.70775213 16.21927615 79.95296621 16.29711914 82.29150391 C16.3570681 83.9906041 16.3570681 83.9906041 16.41822815 85.72402954 C16.45681442 86.96236542 16.4954007 88.20070129 16.53515625 89.4765625 C16.57813339 90.7491391 16.62111053 92.0217157 16.66539001 93.33285522 C16.75585672 96.04151842 16.84447312 98.75016604 16.92993164 101.45898438 C17.03817641 104.88680239 17.15266371 108.31437266 17.26950932 111.74190712 C17.3816957 115.04920167 17.48958252 118.35663093 17.59765625 121.6640625 C17.63826675 122.87405914 17.67887726 124.08405579 17.72071838 125.33071899 C17.91885245 131.66466744 18.0513706 137.996676 18.08764648 144.33349609 C18.09561752 145.5847226 18.10358856 146.8359491 18.11180115 148.12509155 C18 151 18 151 17 152 C8.45077796 152.55298706 -0.22274626 151.70977584 -8.75 151.125 C-10.02488281 151.04636719 -11.29976562 150.96773437 -12.61328125 150.88671875 C-25.46102801 150.01591214 -25.46102801 150.01591214 -30 148 C-32.77525217 144.27526473 -33.44420467 141.33257605 -33.73046875 136.7421875 C-33.81119629 135.49244141 -33.89192383 134.24269531 -33.97509766 132.95507812 C-34.04687274 131.59510315 -34.11764853 130.23507513 -34.1875 128.875 C-34.22736023 128.18623779 -34.26722046 127.49747559 -34.30828857 126.7878418 C-35.28618829 109.86867073 -35.19875416 92.93996957 -35 76 C-34.06788696 75.71431152 -34.06788696 75.71431152 -33.11694336 75.42285156 C-32.30362549 75.1647168 -31.49030762 74.90658203 -30.65234375 74.640625 C-29.44179321 74.26212402 -29.44179321 74.26212402 -28.20678711 73.87597656 C-24.98036999 72.59526137 -23.69952777 70.99116888 -22 68 C-20.16563837 62.67923502 -19.71672317 58.06955119 -19.76953125 52.5234375 C-19.76962692 51.72334763 -19.7697226 50.92325775 -19.76982117 50.09892273 C-19.77351533 47.52412399 -19.79237214 44.94971834 -19.8125 42.375 C-19.81934375 40.61124801 -19.8258534 38.84749469 -19.83203125 37.08374023 C-19.89268631 25.03785534 -20.18404303 13.02079459 -21 1 C-18.62515638 0.83079995 -16.25016522 0.66457137 -13.875 0.5 C-13.20984375 0.45230469 -12.5446875 0.40460938 -11.859375 0.35546875 C-7.89764586 0.08358538 -3.97061445 -0.04947806 0 0 Z " fill="#E4E3E4" transform="translate(158,259)"/>
<path d="M0 0 C4.85608947 0.01741017 9.71169285 0.00699755 14.56776619 -0.01071739 C18.35100009 -0.02153489 22.13411726 -0.01812373 25.91735458 -0.01033401 C27.71068252 -0.00834272 29.50402127 -0.01075337 31.29733658 -0.01777267 C33.77908174 -0.02538843 36.26001475 -0.01379634 38.74169922 0.00292969 C39.46983322 -0.00314301 40.19796722 -0.0092157 40.94816589 -0.01547241 C45.35175612 0.03953031 48.09493171 0.73228823 51.62011719 3.39111328 C55.86799903 8.05636343 55.06157103 14.01337836 54.99511719 19.95361328 C55.00671875 20.99453125 55.01832031 22.03544922 55.03027344 23.10791016 C55.02640625 24.11015625 55.02253906 25.11240234 55.01855469 26.14501953 C55.0151709 27.05582275 55.01178711 27.96662598 55.00830078 28.9050293 C54.51833688 32.04295534 53.98257634 33.24153827 51.62011719 35.39111328 C46.37414737 37.09118968 41.31739597 37.7503196 35.81542969 38.20751953 C35.09257782 38.2689061 34.36972595 38.33029266 33.62496948 38.39353943 C32.10082188 38.5217109 30.57640837 38.64675566 29.05175781 38.76879883 C26.78484693 38.95043002 24.5189023 39.14152405 22.25292969 39.33447266 C5.26989308 40.75925117 -11.61163129 41.55963192 -28.65771484 41.52148438 C-31.50916829 41.5161052 -34.36046522 41.52147919 -37.21191406 41.52783203 C-42.60227647 41.53144277 -47.99034987 41.48512736 -53.37988281 41.39111328 C-54.5820343 41.37123352 -54.5820343 41.37123352 -55.80847168 41.35095215 C-58.01883399 41.30277714 -60.22562258 41.22475743 -62.43457031 41.13330078 C-63.6641748 41.08802246 -64.8937793 41.04274414 -66.16064453 40.99609375 C-69.92997721 40.28773592 -71.65774877 39.04471676 -74.37988281 36.39111328 C-77.83632633 29.41988964 -77.52637244 18.42060428 -75.84472656 11.04345703 C-74.43158809 7.40636292 -72.64932471 5.40757249 -69.37988281 3.39111328 C-65.11835479 2.39110526 -60.74272068 2.12398773 -56.38769531 1.72705078 C-55.72123112 1.66424297 -55.05476692 1.60143517 -54.36810684 1.53672409 C-36.28228788 -0.12938399 -18.14681488 -0.06569623 0 0 Z " fill="#01E9EB" transform="translate(174.3798828125,169.60888671875)"/>
<path d="M0 0 C7.59 0 15.18 0 23 0 C22.98428955 1.83103271 22.9685791 3.66206543 22.95239258 5.54858398 C22.90383651 11.627384 22.8694641 17.7061378 22.84456348 23.785079 C22.82896886 27.46742616 22.80784567 31.1495617 22.77368164 34.83178711 C22.74086459 38.39148575 22.72310044 41.95098203 22.71536827 45.51082039 C22.7072029 47.51643174 22.68381983 49.52196273 22.66011047 51.52745056 C22.65865988 59.46949076 22.68451427 67.19694284 28.125 73.4375 C30.79900905 74.89076579 32.74117277 75.48391583 35.6796875 76.09765625 C36.89374268 76.35494507 36.89374268 76.35494507 38.13232422 76.61743164 C38.74865723 76.7436792 39.36499023 76.86992676 40 77 C40.30784824 94.69653776 39.81224012 112.32118182 39.0625 130 C39.01893372 131.05744415 38.97536743 132.11488831 38.93048096 133.20437622 C38.80394774 136.24067297 38.67091142 139.27660294 38.53515625 142.3125 C38.49655991 143.2311937 38.45796356 144.14988739 38.41819763 145.09642029 C38.37824173 145.94760941 38.33828583 146.79879852 38.29711914 147.67578125 C38.26380997 148.41739502 38.23050079 149.15900879 38.19618225 149.9230957 C37.99405957 152.06288895 37.68949209 153.9622831 37 156 C32.61289464 158.19355268 26.70043634 157.22710273 21.82421875 157.24023438 C19.64023646 157.24993234 17.45719855 157.28095131 15.2734375 157.3125 C13.88281808 157.31903108 12.49219194 157.32428114 11.1015625 157.328125 C9.83650879 157.3374707 8.57145508 157.34681641 7.26806641 157.35644531 C3.65796053 156.96269404 2.50663298 156.56135993 0 154 C-0.49219131 151.22578144 -0.49219131 151.22578144 -0.48101807 147.7928009 C-0.48651672 146.49289719 -0.49201538 145.19299347 -0.49768066 143.85369873 C-0.48352396 142.41003051 -0.46898472 140.96636599 -0.45410156 139.52270508 C-0.45297348 138.00504079 -0.45360619 136.48737432 -0.45587158 134.9697113 C-0.45702119 130.84586302 -0.43347236 126.72247832 -0.40557575 122.59873796 C-0.38060297 118.29059579 -0.37822336 113.98244349 -0.37347412 109.67424011 C-0.36103218 101.51439844 -0.32819418 93.35477065 -0.28807616 85.19502324 C-0.24339627 75.90616423 -0.22138095 66.61729511 -0.20129442 57.32835543 C-0.15946254 38.21877892 -0.08828299 19.10941447 0 0 Z " fill="#E4E4E4" transform="translate(226,256)"/>
<path d="M0 0 C0.78103511 8.0295011 1.14502674 15.96352231 1.12939453 24.02880859 C1.13114685 25.16565094 1.13289917 26.30249329 1.13470459 27.4737854 C1.13907263 31.1986854 1.13620098 34.92353709 1.1328125 38.6484375 C1.13348745 41.26901254 1.13445907 43.88958752 1.13571167 46.51016235 C1.1375242 51.99554963 1.13515392 57.48092338 1.13037109 62.96630859 C1.12495749 69.24635202 1.12667363 75.52636282 1.1321975 81.80640543 C1.13734549 87.91031524 1.13671947 94.01421099 1.13381577 100.1181221 C1.13315647 102.68448517 1.13393931 105.25084908 1.13629532 107.81721115 C1.14508532 120.0916115 1.08931443 132.35689386 0.61669922 144.62353516 C0.58635653 145.54874151 0.55601383 146.47394787 0.52475166 147.42719078 C0.46764928 148.68872191 0.46764928 148.68872191 0.40939331 149.97573853 C0.37881773 150.70888086 0.34824215 151.4420232 0.31674004 152.19738197 C0 154 0 154 -2 156 C-4.84155273 156.24291992 -4.84155273 156.24291992 -8.43359375 156.23046875 C-9.72201172 156.22853516 -11.01042969 156.22660156 -12.33789062 156.22460938 C-13.01053955 156.21840576 -13.68318848 156.21220215 -14.3762207 156.20581055 C-16.42607095 156.18760153 -18.47546808 156.18530058 -20.52539062 156.18554688 C-30.57901548 156.14032817 -30.57901548 156.14032817 -34 155 C-36.12791046 149.5182094 -36.4092686 144.14760285 -36.6328125 138.31640625 C-36.67446533 137.39107086 -36.71611816 136.46573547 -36.7590332 135.51235962 C-36.89015449 132.52938158 -37.00821085 129.54607079 -37.125 126.5625 C-37.21064069 124.52188565 -37.29641564 122.48127692 -37.38232422 120.44067383 C-37.94542723 106.6214123 -38.26513486 92.83120192 -38 79 C-36.01025391 78.55444336 -34.02050781 78.10888672 -32.03076172 77.66333008 C-28.75973449 76.59487841 -27.09646832 74.65141581 -25 72 C-23.02662936 68.02399868 -22.75607027 64.78762469 -22.77294922 60.3737793 C-22.77251114 59.40708061 -22.77251114 59.40708061 -22.77206421 58.42085266 C-22.77344995 56.30516779 -22.78897493 54.18984158 -22.8046875 52.07421875 C-22.80842033 50.60163058 -22.81126603 49.12903991 -22.81326294 47.65644836 C-22.82087817 43.79142328 -22.84050837 39.92654987 -22.8626709 36.06158447 C-22.88317492 32.11334281 -22.89227438 28.1650765 -22.90234375 24.21679688 C-22.9237564 16.47779563 -22.95786667 8.73891912 -23 1 C-20.29178874 0.83111377 -17.58345903 0.66482399 -14.875 0.5 C-14.11445313 0.45230469 -13.35390625 0.40460938 -12.5703125 0.35546875 C-11.82265625 0.31035156 -11.075 0.26523437 -10.3046875 0.21875 C-9.62390137 0.17685547 -8.94311523 0.13496094 -8.24169922 0.09179688 C-5.49317839 -0.02075418 -2.75056762 -0.00551798 0 0 Z " fill="#E4E3E3" transform="translate(219,256)"/>
<path d="M0 0 C2.37846433 0.22997874 4.75061266 0.48321491 7.125 0.75 C8.12273437 0.8428125 8.12273437 0.8428125 9.140625 0.9375 C14.05191425 1.51529873 17.15019655 2.93263083 21 6 C24.49622857 10.63014054 26.11974553 14.04981391 26.14526367 19.8215332 C26.15154785 20.80662872 26.15783203 21.79172424 26.16430664 22.80667114 C26.16551514 23.87722748 26.16672363 24.94778381 26.16796875 26.05078125 C26.1721582 27.16468231 26.17634766 28.27858337 26.18066406 29.42623901 C26.19048581 33.05502811 26.19044785 36.68369975 26.1875 40.3125 C26.18722809 41.54151031 26.18695618 42.77052063 26.18667603 44.03677368 C26.16133103 68.80653759 25.94604791 93.62947303 21 118 C20.85304688 118.74507813 20.70609375 119.49015625 20.5546875 120.2578125 C17.60561377 134.80324395 17.60561377 134.80324395 12 139 C9.01346103 140.12984552 6.01174273 140.7447317 2.875 141.3125 C2.03275879 141.47709717 1.19051758 141.64169434 0.32275391 141.8112793 C-5.7390532 142.93221865 -11.83828114 143.79971245 -18 143 C-19 142 -19 142 -19.12072754 139.54927063 C-19.0772366 131.36383592 -18.79008882 123.21581202 -18.34375 115.04296875 C-18.27716187 113.77399246 -18.21057373 112.50501617 -18.14196777 111.19758606 C-17.96685083 107.87183892 -17.78882939 104.54627481 -17.60931396 101.22076416 C-17.42584045 97.80811577 -17.2463044 94.39526028 -17.06640625 90.98242188 C-16.71450763 84.32142111 -16.35876895 77.66063407 -16 71 C-14.96069336 70.71213623 -14.96069336 70.71213623 -13.90039062 70.41845703 C-12.99482422 70.15919434 -12.08925781 69.89993164 -11.15625 69.6328125 C-10.25712891 69.37902832 -9.35800781 69.12524414 -8.43164062 68.86376953 C-4.9453874 67.62537958 -3.70612967 66.27008186 -2 63 C0.28659225 55.85504912 0.262931 48.7417141 0.1953125 41.30859375 C0.1924826 40.12274185 0.18965271 38.93688995 0.18673706 37.71510315 C0.17560994 33.95579616 0.15051898 30.19673407 0.125 26.4375 C0.11496056 23.87695658 0.1058364 21.31640941 0.09765625 18.75585938 C0.07569508 12.50382376 0.04229234 6.25192939 0 0 Z " fill="#E4E4E4" transform="translate(411,262)"/>
<path d="M0 0 C1.64207428 -0.00135956 1.64207428 -0.00135956 3.31732178 -0.00274658 C10.6712421 -0.00205741 18.0221372 0.06460562 25.375 0.1875 C26.39766968 0.20182068 27.42033936 0.21614136 28.47399902 0.230896 C31.4498579 0.28122276 34.42350796 0.36026868 37.3984375 0.44921875 C38.27456696 0.46257767 39.15069641 0.47593658 40.05337524 0.48970032 C46.0429653 0.71533084 51.26493212 1.92568215 56.375 5.1875 C58.28520443 7.45771217 59.15536589 9.40673423 60.375 12.1875 C60.9628125 13.425 60.9628125 13.425 61.5625 14.6875 C65.26257701 26.07235233 64.87006022 42.07672614 60.375 53.1875 C55.80990092 59.57863871 49.05178063 61.0115052 41.6875 62.25 C15.81645697 65.81432281 -10.21341047 66.37459285 -36.29541016 66.37280273 C-39.91450187 66.37502425 -43.53330407 66.39338433 -47.15234375 66.41210938 C-49.50260315 66.41503885 -51.85286396 66.41702662 -54.203125 66.41796875 C-55.78942719 66.42874702 -55.78942719 66.42874702 -57.40777588 66.43974304 C-78.56216394 66.37590164 -78.56216394 66.37590164 -85.265625 60.734375 C-93.3277264 51.56025961 -93.36147095 39.03975003 -92.81591797 27.52880859 C-92.2319459 20.36730964 -90.63178715 13.46880356 -85.1875 8.5 C-80.3514521 4.87576921 -75.2233279 3.78857794 -69.3125 3.1875 C-68.53438965 3.10773926 -67.7562793 3.02797852 -66.95458984 2.94580078 C-64.17937725 2.67590807 -61.40280079 2.42928591 -58.625 2.1875 C-57.59101074 2.09436523 -56.55702148 2.00123047 -55.49169922 1.90527344 C-36.99361163 0.30944485 -18.55865324 -0.00099182 0 0 Z M-60.5703125 14.4609375 C-61.8371286 14.56878571 -63.1039447 14.67663391 -64.40914917 14.78775024 C-66.14045578 14.96894913 -66.14045578 14.96894913 -67.90673828 15.15380859 C-68.89844025 15.25615814 -69.89014221 15.35850769 -70.91189575 15.46395874 C-74.2754992 16.36097767 -76.1154517 17.80407488 -78.625 20.1875 C-82.39610595 28.39987832 -81.22199759 38.64349233 -79.55078125 47.3203125 C-78.13241783 50.18097796 -76.26561509 51.41835952 -73.625 53.1875 C-70.30849371 53.88441431 -70.30849371 53.88441431 -66.62109375 53.92578125 C-65.92938583 53.95408524 -65.23767792 53.98238922 -64.52500916 54.0115509 C-62.22496839 54.09546066 -59.92617288 54.14554247 -57.625 54.1875 C-56.82668762 54.2043988 -56.02837524 54.22129761 -55.20587158 54.2387085 C-49.03289054 54.35821305 -42.86150055 54.38163417 -36.6875 54.375 C-35.73056244 54.37472809 -34.77362488 54.37445618 -33.78768921 54.37417603 C-11.20506946 54.3448872 11.16990732 53.24830404 33.625 50.75 C34.64940186 50.64002686 35.67380371 50.53005371 36.72924805 50.41674805 C41.55554603 49.8232321 45.47207114 49.34048592 49.375 46.1875 C51.35842115 42.22065769 50.60373705 37.23656262 50.625 32.875 C50.645625 31.82892578 50.66625 30.78285156 50.6875 29.70507812 C50.69265625 28.69251953 50.6978125 27.67996094 50.703125 26.63671875 C50.71714355 25.24972778 50.71714355 25.24972778 50.73144531 23.8347168 C50.16701381 19.64284643 48.60630709 17.1299893 45.25540161 14.56507874 C41.62318818 12.82793904 38.43749091 12.76644893 34.49658203 12.79931641 C33.71659348 12.79405945 32.93660492 12.78880249 32.13298035 12.78338623 C29.54938737 12.77017627 26.96641207 12.77894991 24.3828125 12.7890625 C22.55850102 12.7870368 20.73419033 12.78412126 18.90988159 12.78036499 C15.06809857 12.77593594 11.22652434 12.78237199 7.38476562 12.79638672 C2.55856717 12.81316828 -2.26712422 12.80353694 -7.09330368 12.78609085 C-24.95668998 12.7310021 -42.769159 12.84400082 -60.5703125 14.4609375 Z " fill="#681A2C" transform="translate(178.625,156.8125)"/>
<path d="M0 0 C4.40661765 0.00008084 8.8131304 -0.00681076 13.21972656 -0.02050781 C149.84997548 -0.43820251 149.84997548 -0.43820251 181.02246094 26.18530273 C182.01826172 27.01288086 182.01826172 27.01288086 183.03417969 27.85717773 C207.07464241 49.68267647 206.0746436 90.48702854 207.64173889 120.29032898 C208.95178077 147.56153407 208.77285635 175.00968297 206.02246094 202.18530273 C205.93706055 203.06041504 205.85166016 203.93552734 205.76367188 204.8371582 C204.9777043 212.72919733 203.98172339 220.48820025 202.02246094 228.18530273 C201.36246094 228.18530273 200.70246094 228.18530273 200.02246094 228.18530273 C200.0498082 227.4868222 200.07715546 226.78834167 200.10533142 226.06869507 C200.89066577 205.65041472 201.31864389 185.24103337 201.58496094 164.81030273 C201.59500656 164.04978481 201.60505219 163.28926689 201.61540222 162.50570297 C201.7354905 153.40835982 201.84770064 144.31094772 201.95168877 135.21340656 C202.00053096 130.96746642 202.05490646 126.72164232 202.11376953 122.47583008 C202.17593111 117.93044615 202.2230899 113.3852442 202.25363159 108.83953857 C202.26583941 107.32129812 202.28304791 105.80308641 202.30618286 104.28497314 C202.67203438 79.26072894 197.43553508 53.72467671 181.02246094 34.18530273 C180.25933594 33.15405273 179.49621094 32.12280273 178.70996094 31.06030273 C155.81849696 6.57175987 113.20785042 8.51808243 82.29431152 7.11468506 C78.96301176 6.96028651 75.63243744 6.79268604 72.30179977 6.62469482 C41.99058453 5.09917336 11.62667204 3.94641379 -18.72753906 4.06030273 C-19.98203354 4.0636261 -19.98203354 4.0636261 -21.26187134 4.0670166 C-27.16734356 4.08491969 -33.07232615 4.12836227 -38.97753906 4.18530273 C-39.71236511 4.19154663 -40.44719116 4.19779053 -41.20428467 4.20422363 C-59.78259119 4.37030444 -78.21726902 5.46463835 -96.72753906 7.06030273 C-97.67728607 7.14139282 -98.62703308 7.22248291 -99.6055603 7.30603027 C-110.00247484 8.20639141 -120.36311744 9.29032229 -130.70800781 10.66967773 C-131.58289856 10.78455536 -132.45778931 10.89943298 -133.35919189 11.01779175 C-152.50965672 13.66974274 -176.0040228 18.3621691 -189.16503906 33.62280273 C-199.33184129 47.39381969 -205.31991901 64.05837157 -207.61816406 80.92749023 C-207.97753906 83.18530273 -207.97753906 83.18530273 -208.97753906 85.18530273 C-213.1158614 111.39207974 -212.33795846 138.15464362 -212.0178833 164.58099365 C-211.97567797 168.35157027 -211.94393804 172.12212483 -211.91455078 175.89282227 C-211.86218606 182.51025452 -211.79282974 189.12731289 -211.71105957 195.7444458 C-211.68080464 198.29416579 -211.65440557 200.84393498 -211.63220215 203.39373779 C-211.45569701 222.20463211 -210.09106609 240.01596203 -204.97753906 258.18530273 C-213.66272899 250.90852199 -213.96479289 239.86894474 -214.97753906 229.18530273 C-215.76653482 220.1942839 -216.42982275 211.19413613 -216.97753906 202.18530273 C-217.02204193 201.47516022 -217.0665448 200.7650177 -217.11239624 200.03335571 C-218.13659565 183.23940199 -218.17750347 166.44143704 -218.16503906 149.62280273 C-218.16491947 148.90813213 -218.16479988 148.19346153 -218.16467667 147.45713425 C-218.14456256 52.4037012 -218.14456256 52.4037012 -195.37597656 28.46264648 C-169.71211756 4.09451978 -130.20694206 4.56709633 -97.16503906 2.56030273 C-96.13723328 2.4976825 -95.10942749 2.43506226 -94.05047607 2.37054443 C-86.6949674 1.92931649 -79.33773965 1.53945028 -71.97753906 1.18530273 C-70.94447632 1.13477753 -69.91141357 1.08425232 -68.8470459 1.03219604 C-45.90895762 -0.04234791 -22.9580778 -0.00216273 0 0 Z " fill="#F6D832" transform="translate(260.9775390625,126.814697265625)"/>
<path d="M0 0 C-0.00888245 0.70886353 -0.01776489 1.41772705 -0.0269165 2.14807129 C-0.10734581 8.85606315 -0.16810735 15.56391879 -0.20724869 22.27228546 C-0.22804893 25.72047132 -0.25622536 29.16825594 -0.30175781 32.61621094 C-0.35387244 36.58784035 -0.37300789 40.55931207 -0.390625 44.53125 C-0.41127014 45.75863892 -0.43191528 46.98602783 -0.45318604 48.25061035 C-0.45502723 55.32348682 0.1293969 60.01313441 4 66 C7.73756448 69.13147294 11.25699885 69.38279821 16 70 C16.03536362 70.68079117 16.07072723 71.36158234 16.10716248 72.06300354 C16.44423207 78.54820912 16.78236969 85.03335809 17.12164211 91.51844883 C17.29593692 94.85073045 17.46973217 98.18303632 17.64282227 101.51538086 C18.68050096 121.76618126 18.68050096 121.76618126 20 142 C16.83234214 141.71853097 13.66614788 141.42293807 10.5 141.125 C9.613125 141.04636719 8.72625 140.96773437 7.8125 140.88671875 C-5.61480831 139.60322604 -5.61480831 139.60322604 -10.37109375 136.40625 C-12.67992815 132.99559774 -13.34983809 129.4843562 -14.0625 125.5 C-14.2260498 124.62400146 -14.38959961 123.74800293 -14.55810547 122.84545898 C-18.15271925 102.60515319 -19.37860002 82.11481409 -20.35400391 61.61352539 C-20.42599401 60.10432404 -20.4980939 58.59512793 -20.5703125 57.0859375 C-20.6047496 56.36298996 -20.63918671 55.64004242 -20.67466736 54.89518738 C-20.86243621 51.13655938 -21.12395404 47.40470016 -21.53515625 43.6640625 C-22.14133922 38.11288892 -22.25938324 32.58080085 -22.3125 27 C-22.34150391 25.98421875 -22.37050781 24.9684375 -22.40039062 23.921875 C-22.45850403 16.9482663 -21.4358388 11.14761802 -18 5 C-15.625 3 -15.625 3 -13 2 C-12.05125 1.608125 -11.1025 1.21625 -10.125 0.8125 C-6.6416686 -0.09316616 -3.58516898 -0.05509125 0 0 Z " fill="#E4E3E3" transform="translate(99,265)"/>
<path d="M0 0 C5.90702497 0.00569989 11.81400488 0.00229887 17.72102833 -0.00343895 C40.64470328 -0.02231389 63.55981985 0.0611935 86.47827148 0.58349609 C87.37130037 0.60344509 88.26432926 0.62339409 89.18441963 0.6439476 C154.23445996 2.14024127 154.23445996 2.14024127 169.15014648 15.31787109 C176.46185475 23.66355831 177.17836681 35.30387003 177.10717773 45.88818359 C177.1008709 46.97789963 177.1008709 46.97789963 177.09443665 48.08963013 C177.07803726 50.43665752 177.05255904 52.78344811 177.02514648 55.13037109 C177.01723083 55.91585327 177.00931519 56.70133545 177.00115967 57.51062012 C176.6186154 93.75738086 176.6186154 93.75738086 174.65014648 111.50537109 C174.47938599 113.05973877 174.47938599 113.05973877 174.30517578 114.64550781 C173.48668976 121.23380158 172.38767996 127.89949762 170.02514648 134.13037109 C169.36514648 134.46037109 168.70514648 134.79037109 168.02514648 135.13037109 C168.11602539 134.36974365 168.2069043 133.60911621 168.30053711 132.82543945 C170.74049176 111.3303774 171.3869964 89.86890323 171.45358276 68.25392532 C171.46260481 66.1401347 171.47941858 64.02653504 171.49829102 61.91281128 C171.53238275 57.88092217 171.52921426 53.84990033 171.52124023 49.81787109 C171.53235336 48.61582535 171.54346649 47.4137796 171.55491638 46.17530823 C171.47503177 36.29476773 169.92063115 25.89748656 162.76831055 18.50927734 C156.80635927 13.79315678 149.30752449 12.24661975 141.96264648 11.13037109 C140.41951782 10.89000122 140.41951782 10.89000122 138.84521484 10.64477539 C126.97747784 8.93251483 115.0319688 7.94868917 103.08764648 6.94287109 C102.09409149 6.8581958 101.1005365 6.77352051 100.07687378 6.6862793 C72.51553565 4.36847879 45.02104095 3.95694922 17.38154221 4.00139618 C14.73988597 4.00542487 12.09823186 4.00790555 9.45657349 4.0100708 C-51.4553356 4.06740674 -112.52058748 4.29788221 -172.97485352 12.56787109 C-173.71255981 12.66524567 -174.45026611 12.76262024 -175.21032715 12.86294556 C-190.94375369 14.81291364 -190.94375369 14.81291364 -203.97485352 23.13037109 C-210.78167295 33.61526138 -210.30302839 45.43532953 -210.22485352 57.44287109 C-210.22208405 58.2707312 -210.21931458 59.09859131 -210.21646118 59.95153809 C-210.11525934 85.99995829 -208.71613392 111.92424164 -205.21850586 137.74731445 C-204.96520226 140.22476583 -204.93329843 142.64177534 -204.97485352 145.13037109 C-214.8112562 126.72405535 -214.10134294 99.27527934 -214.17797852 78.96240234 C-214.18367859 77.76153488 -214.18937866 76.56066742 -214.19525146 75.32341003 C-214.20462289 72.8066799 -214.21120378 70.28993794 -214.21508789 67.77319336 C-214.22485531 63.94216699 -214.25597879 60.11166416 -214.28735352 56.28076172 C-214.29387965 53.8204784 -214.29913165 51.36019131 -214.30297852 48.89990234 C-214.31532532 47.76736526 -214.32767212 46.63482819 -214.34039307 45.4679718 C-214.31221578 35.34244411 -212.77635328 26.01867634 -205.40844727 18.54052734 C-197.65282357 11.44421842 -189.1701154 10.18840818 -179.03735352 8.69287109 C-178.34454285 8.58809448 -177.65173218 8.48331787 -176.93792725 8.37536621 C-163.0469748 6.29940557 -149.09407333 5.02815043 -135.09985352 3.88037109 C-134.09076935 3.7975589 -133.08168518 3.7147467 -132.04202271 3.62942505 C-129.08513074 3.39000705 -126.12783947 3.1567971 -123.17016602 2.92724609 C-122.32293472 2.86079391 -121.47570343 2.79434174 -120.60279846 2.72587585 C-104.66321724 1.53035793 -88.70700013 0.91939273 -72.72875977 0.57568359 C-71.78123903 0.55474766 -70.8337183 0.53381172 -69.85748482 0.51224136 C-46.57303338 0.00980842 -23.28895518 -0.02263104 0 0 Z " fill="#FA9F22" transform="translate(276.974853515625,239.86962890625)"/>
<path d="M0 0 C0.88494141 -0.01224609 1.76988281 -0.02449219 2.68164062 -0.03710938 C3.52791016 -0.03904297 4.37417969 -0.04097656 5.24609375 -0.04296875 C6.02525146 -0.04707764 6.80440918 -0.05118652 7.60717773 -0.05541992 C9.5625 0.1875 9.5625 0.1875 11.5625 2.1875 C13.0080517 6.61745411 12.92811311 11.25747584 13.125 15.875 C13.1667334 16.8345459 13.2084668 17.7940918 13.25146484 18.78271484 C13.54759978 26.29245503 13.66876147 33.79721203 13.6875 41.3125 C13.69438843 42.82009888 13.69438843 42.82009888 13.70141602 44.3581543 C13.69534646 47.30383173 13.64496565 50.2429911 13.5625 53.1875 C13.5325293 54.26612305 13.50255859 55.34474609 13.47167969 56.45605469 C13.41657227 57.51985352 13.36146484 58.58365234 13.3046875 59.6796875 C13.25940918 60.63987793 13.21413086 61.60006836 13.16748047 62.58935547 C12.40815249 65.85035966 11.11211509 67.07989006 8.5625 69.1875 C5.7430932 70.5972034 3.32982774 70.35734647 0.1875 70.375 C-0.95460938 70.38917969 -2.09671875 70.40335937 -3.2734375 70.41796875 C-6.34216859 70.19444389 -7.96726692 69.9753171 -10.4375 68.1875 C-19.16339126 55.35199544 -14.56692493 22.01311885 -12.4375 7.1875 C-10.03536748 -0.97975055 -7.93341104 0.00575302 0 0 Z " fill="#FE2D5F" transform="translate(268.4375,255.8125)"/>
<path d="M0 0 C0.84755859 0.00966797 1.69511719 0.01933594 2.56835938 0.02929688 C3.44943359 0.05443359 4.33050781 0.07957031 5.23828125 0.10546875 C6.13095703 0.11900391 7.02363281 0.13253906 7.94335938 0.14648438 C10.14644291 0.18182796 12.34830707 0.23116382 14.55078125 0.29296875 C20.0636079 9.82810151 17.73699428 25.48347428 17.73608398 36.20581055 C17.73829012 39.11716934 17.75656708 42.02816001 17.77539062 44.93945312 C17.77832212 46.81380081 17.78030855 48.68815026 17.78125 50.5625 C17.78843552 51.42100052 17.79562103 52.27950104 17.80302429 53.16401672 C17.78285201 58.52948005 17.25516885 63.18335305 15.55078125 68.29296875 C11.83513287 70.77006767 8.91336025 70.62471709 4.61328125 70.60546875 C3.89720703 70.62158203 3.18113281 70.63769531 2.44335938 70.65429688 C-0.7517781 70.65725808 -3.0615797 70.50446462 -5.890625 68.9609375 C-8.57775002 66.0852423 -8.57509964 63.28398426 -8.57861328 59.53710938 C-8.58176544 58.57180298 -8.5849176 57.60649658 -8.58816528 56.61193848 C-8.58614105 55.56824097 -8.58411682 54.52454346 -8.58203125 53.44921875 C-8.58298798 52.36974976 -8.5839447 51.29028076 -8.58493042 50.17810059 C-8.58561165 47.88826438 -8.58376134 45.59842625 -8.57958984 43.30859375 C-8.57428234 39.83459008 -8.57951515 36.36071817 -8.5859375 32.88671875 C-8.5852759 30.6575518 -8.58399304 28.42838493 -8.58203125 26.19921875 C-8.58405548 25.17171509 -8.58607971 24.14421143 -8.58816528 23.08557129 C-8.57238538 18.12694946 -8.45235533 13.18502718 -8.12841797 8.23632812 C-8.07160858 7.35763062 -8.01479919 6.47893311 -7.95626831 5.5736084 C-6.93428995 0.97688935 -4.43488198 -0.08929293 0 0 Z " fill="#FE2E60" transform="translate(172.44921875,257.70703125)"/>
<path d="M0 0 C2.5390625 -0.328125 2.5390625 -0.328125 5.625 -0.25 C6.69621094 -0.22292969 7.76742188 -0.19585937 8.87109375 -0.16796875 C19.39709763 0.39709763 19.39709763 0.39709763 21 2 C22.90632674 13.97997266 23.31977791 25.95296316 23.26074219 38.06323242 C23.24985051 40.72401889 23.26080535 43.38415342 23.2734375 46.04492188 C23.27211832 47.7630223 23.26956096 49.48112233 23.265625 51.19921875 C23.26967346 51.98157394 23.27372192 52.76392914 23.27789307 53.56999207 C23.23194832 58.97903209 23.05213935 64.68245694 19.30859375 68.91015625 C16.14005304 70.40596481 13.55680513 70.43377075 10.0625 70.4375 C8.85722656 70.45683594 7.65195312 70.47617187 6.41015625 70.49609375 C2.44163512 69.91877166 0.8209612 68.78979036 -2 66 C-3.19543893 63.60912213 -3.1268362 62.13379933 -3.12939453 59.46533203 C-3.13254669 58.52319855 -3.13569885 57.58106506 -3.13894653 56.61038208 C-3.1369223 55.58653412 -3.13489807 54.56268616 -3.1328125 53.5078125 C-3.13376923 52.45149628 -3.13472595 51.39518005 -3.13571167 50.30685425 C-3.13639362 48.06231629 -3.13453832 45.81777638 -3.13037109 43.57324219 C-3.12507598 40.17378153 -3.13028788 36.77445623 -3.13671875 33.375 C-3.13605693 31.19010388 -3.13477364 29.00520784 -3.1328125 26.8203125 C-3.13483673 25.81670685 -3.13686096 24.8131012 -3.13894653 23.77908325 C-3.07690491 4.61535736 -3.07690491 4.61535736 0 0 Z " fill="#FE2E60" transform="translate(322,256)"/>
<path d="M0 0 C4.00969788 4.00969788 2.18030022 17.12458084 2.203125 22.51953125 C2.20882507 23.58112961 2.21452515 24.64272797 2.22039795 25.73649597 C2.22978032 27.96258567 2.23635473 30.18868883 2.24023438 32.41479492 C2.25002268 35.82039063 2.28114265 39.2254027 2.3125 42.63085938 C2.31902358 44.80207978 2.32427657 46.97330446 2.328125 49.14453125 C2.3404718 50.15916946 2.3528186 51.17380768 2.36553955 52.2191925 C2.3374962 61.08103192 2.3374962 61.08103192 -1 65 C-4.13058086 66.56529043 -7.44079008 66.26691314 -10.875 66.3125 C-11.95587891 66.35600586 -11.95587891 66.35600586 -13.05859375 66.40039062 C-16.50068966 66.44159435 -18.59039244 66.2859401 -21.4453125 64.29296875 C-24.67467604 59.53006323 -24.14714289 54.00538975 -24.1328125 48.4375 C-24.13376923 47.60976074 -24.13472595 46.78202148 -24.13571167 45.92919922 C-24.13639088 44.17757084 -24.13455465 42.42593992 -24.13037109 40.67431641 C-24.12507376 38.03672378 -24.13029646 35.39930572 -24.13671875 32.76171875 C-24.14032293 27.84003043 -24.09616673 22.92075303 -24 18 C-23.98674683 17.31518555 -23.97349365 16.63037109 -23.95983887 15.92480469 C-23.91241737 14.11570304 -23.8286275 12.30765751 -23.7421875 10.5 C-23.69690918 9.5203125 -23.65163086 8.540625 -23.60498047 7.53125 C-22.83258688 4.29954027 -21.57510238 3.04833685 -19 1 C-12.87846495 -0.53038376 -6.27472631 -0.33649952 0 0 Z " fill="#FD2E60" transform="translate(129,262)"/>
<path d="M0 0 C1.53447202 0.07858841 3.06837619 0.16893182 4.6015625 0.26953125 C5.36984375 0.30111328 6.138125 0.33269531 6.9296875 0.36523438 C11.15476662 0.61742335 14.19382912 0.82378693 17.2265625 4.08203125 C18.24136996 7.12645363 18.36498681 9.22071299 18.38769531 12.40795898 C18.39730286 13.49596298 18.4069104 14.58396698 18.41680908 15.7049408 C18.42105896 16.87996658 18.42530884 18.05499237 18.4296875 19.265625 C18.43538757 20.47267593 18.44108765 21.67972687 18.44696045 22.9233551 C18.45641185 25.47794721 18.46294498 28.03255152 18.46679688 30.5871582 C18.47651493 34.50037789 18.507543 38.41307522 18.5390625 42.32617188 C18.54559125 44.80598646 18.55084222 47.2858048 18.5546875 49.765625 C18.5670343 50.93862656 18.5793811 52.11162811 18.59210205 53.32017517 C18.58910095 54.41133133 18.58609985 55.50248749 18.58300781 56.62670898 C18.58665344 57.58584702 18.59029907 58.54498505 18.59405518 59.53318787 C18.15841121 62.5547127 17.3361995 63.90104331 15.2265625 66.08203125 C11.92321184 67.18314814 9.32824113 67.28429653 5.8515625 67.33203125 C4.16933594 67.37070312 4.16933594 67.37070312 2.453125 67.41015625 C-1.09983033 67.04883876 -2.93593867 66.20757583 -5.7734375 64.08203125 C-12.38764707 50.8536121 -8.20174862 25.43356046 -6.8984375 11.14453125 C-6.82004639 10.25693115 -6.74165527 9.36933105 -6.66088867 8.45483398 C-5.79969207 0.12608026 -5.79969207 0.12608026 0 0 Z " fill="#FE2E60" transform="translate(385.7734375,258.91796875)"/>
<path d="M0 0 C1.1648996 -0.0033284 2.32979919 -0.0066568 3.52999878 -0.01008606 C5.98223479 -0.01512 8.43447757 -0.01749549 10.88671875 -0.01733398 C14.58605591 -0.01951291 18.28509071 -0.03768635 21.984375 -0.05664062 C55.14332911 -0.13948919 55.14332911 -0.13948919 66.4921875 5.16796875 C66.4296875 7.48046875 66.4296875 7.48046875 65.4921875 10.16796875 C60.72051201 12.63558183 56.25146958 13.81251158 50.90234375 14.3359375 C50.11191177 14.41531052 49.3214798 14.49468353 48.50709534 14.57646179 C34.72445349 15.75837847 20.81443694 15.50420336 6.99194336 15.48364258 C2.75255364 15.47780165 -1.48640571 15.49493692 -5.72572422 15.51798725 C-9.02964261 15.5327785 -12.33345785 15.53358999 -15.63740349 15.53047752 C-17.200529 15.53098608 -18.763661 15.53613493 -20.32675362 15.54628944 C-28.79403033 15.59465414 -36.5437012 15.35586599 -44.5078125 12.16796875 C-44.8378125 10.51796875 -45.1678125 8.86796875 -45.5078125 7.16796875 C-41.04180475 4.68916135 -36.81667635 3.39754605 -31.8203125 2.54296875 C-31.17642578 2.42179688 -30.53253906 2.300625 -29.86914062 2.17578125 C-19.96501832 0.39439464 -10.04377308 0.01022637 0 0 Z " fill="#68FEFA" transform="translate(153.5078125,174.83203125)"/>
<path d="M0 0 C5.30617672 2.96678017 9.94320464 7.70461393 11.875 13.5 C12.77512998 21.9483628 11.75897445 28.45426637 6.875 35.5 C2.1411666 40.11837405 -1.84857858 41.79757437 -8.4375 41.875 C-15.29740107 41.74455445 -18.8301126 40.73358717 -23.8046875 35.8515625 C-28.38447596 30.83351677 -30.57704851 26.67141071 -30.37890625 19.68359375 C-29.67237451 13.60742082 -27.67186282 7.69710414 -23.125 3.5 C-15.5984065 -1.40451309 -8.52466562 -3.65577006 0 0 Z " fill="#6A1A2B" transform="translate(299.125,168.5)"/>
<path d="M0 0 C5.44346034 4.95054858 8.94563158 9.74511401 9.375 17.1875 C9.20021615 23.35634168 7.44679305 29.18792742 3.3515625 33.89453125 C-2.32842324 38.99163636 -7.63278193 40.53197614 -15.21484375 40.37890625 C-21.02338415 39.58868406 -25.06029799 36.28045051 -28.875 32 C-33.21625572 25.87116839 -33.81671183 20.36074459 -33 13 C-30.94220248 5.80386976 -25.9504791 1.28711948 -19.625 -2.375 C-12.92522194 -3.97018525 -5.96625635 -3.66221426 0 0 Z " fill="#6A1A2A" transform="translate(415,174)"/>
<path d="M0 0 C5.57125744 2.92244742 10.07247132 6.95745487 11.98828125 13.04296875 C12.8378417 20.56157873 12.44355414 26.78229116 7.98828125 33.04296875 C3.91489319 37.99708937 -0.34355989 40.59932712 -6.66015625 41.36328125 C-12.76584248 41.61419986 -17.29427931 41.07637947 -22.01171875 37.04296875 C-26.94758579 32.22135789 -29.99335426 27.87456641 -30.38671875 20.85546875 C-30.22748109 14.89400894 -28.5032863 9.05151861 -24.65625 4.40625 C-17.30737993 -2.15453749 -8.9778979 -3.71318884 0 0 Z " fill="#691A2B" transform="translate(354.01171875,168.95703125)"/>
<path d="M0 0 C4.62 0 9.24 0 14 0 C14 0.33 14 0.66 14 1 C12.02 1 10.04 1 8 1 C7.04766098 8.66712047 6.86525123 16.22192869 6.89892578 23.94189453 C6.90050186 25.19846863 6.90207794 26.45504272 6.90370178 27.74969482 C6.91115226 31.87744931 6.92704136 36.00509598 6.9453125 40.1328125 C6.95111273 41.56218324 6.95687907 42.99155413 6.96261215 44.42092514 C6.98722937 50.36614361 7.01468078 56.31133659 7.04995918 62.25650215 C7.1002524 70.74172766 7.13360607 79.22662859 7.14324772 87.71200097 C7.15140521 93.70137267 7.17859196 99.69047705 7.21985424 105.67971122 C7.24395982 109.24802926 7.25993934 112.81593579 7.25558853 116.38434219 C7.25125777 120.36220558 7.28632905 124.33920303 7.32470703 128.31689453 C7.31765244 129.48801788 7.31059784 130.65914124 7.30332947 131.86575317 C7.40694 138.6175558 8.123817 143.99432763 13 149 C17.78975211 151.82639841 22.57678097 151.62086508 28 151 C32.54650092 149.51378472 35.32687274 148.00969089 38 144 C38.152 153.12 38.152 153.12 37 156 C32.61289464 158.19355268 26.70043634 157.22710273 21.82421875 157.24023438 C19.64023646 157.24993234 17.45719855 157.28095131 15.2734375 157.3125 C13.88281808 157.31903108 12.49219194 157.32428114 11.1015625 157.328125 C9.83650879 157.3374707 8.57145508 157.34681641 7.26806641 157.35644531 C3.65796053 156.96269404 2.50663298 156.56135993 0 154 C-0.49219131 151.22578144 -0.49219131 151.22578144 -0.48101807 147.7928009 C-0.48651672 146.49289719 -0.49201538 145.19299347 -0.49768066 143.85369873 C-0.48352396 142.41003051 -0.46898472 140.96636599 -0.45410156 139.52270508 C-0.45297348 138.00504079 -0.45360619 136.48737432 -0.45587158 134.9697113 C-0.45702119 130.84586302 -0.43347236 126.72247832 -0.40557575 122.59873796 C-0.38060297 118.29059579 -0.37822336 113.98244349 -0.37347412 109.67424011 C-0.36103218 101.51439844 -0.32819418 93.35477065 -0.28807616 85.19502324 C-0.24339627 75.90616423 -0.22138095 66.61729511 -0.20129442 57.32835543 C-0.15946254 38.21877892 -0.08828299 19.10941447 0 0 Z " fill="#C3BFC0" transform="translate(226,256)"/>
<path d="M0 0 C-0.00666183 0.75088898 -0.01332367 1.50177795 -0.02018738 2.27542114 C-0.08040568 9.36670381 -0.1260287 16.45789726 -0.15543652 23.54936409 C-0.17106391 27.1948046 -0.19224805 30.84003307 -0.22631836 34.48535156 C-0.25901717 38.00613349 -0.27687501 41.52671201 -0.28463173 45.04763412 C-0.29283732 47.03842635 -0.31623998 49.02913725 -0.33988953 51.01980591 C-0.34011612 52.24061859 -0.34034271 53.46143127 -0.34057617 54.71923828 C-0.34723801 55.78957306 -0.35389984 56.85990784 -0.36076355 57.962677 C0.16639609 62.40091391 1.67432017 65.79860265 5 68.8125 C9.94889072 71.75090386 15.10944487 71.2579202 20.6875 71.3125 C21.65623047 71.34150391 22.62496094 71.37050781 23.62304688 71.40039062 C30.77399955 71.46324552 36.20489242 70.32590635 41.67456055 65.5324707 C43.44401576 63.48662978 43.6434502 61.63846849 44 59 C44.33 59 44.66 59 45 59 C45.05451714 61.04136395 45.09302485 63.08315856 45.125 65.125 C45.14820313 66.26195312 45.17140625 67.39890625 45.1953125 68.5703125 C44.99049691 72.16687428 44.57125182 74.75400073 43 78 C38.21663516 80.88921104 32.66196433 80.26927823 27.265625 80.23046875 C26.2318573 80.23001053 25.1980896 80.22955231 24.13299561 80.2290802 C21.95437467 80.22606526 19.77575575 80.21820169 17.59716797 80.20581055 C14.24829554 80.18749068 10.89969869 80.18530139 7.55078125 80.18554688 C5.43489342 80.18063388 3.31900748 80.17480652 1.203125 80.16796875 C0.19590393 80.16685593 -0.81131714 80.1657431 -1.84906006 80.16459656 C-2.77382141 80.15821671 -3.69858276 80.15183685 -4.65136719 80.14526367 C-5.4690155 80.14145187 -6.28666382 80.13764008 -7.12908936 80.13371277 C-9 80 -9 80 -10 79 C-10.10605935 76.09058158 -10.1402122 73.210631 -10.125 70.30078125 C-10.12234131 69.37606522 -10.11968262 68.45134918 -10.11694336 67.49861145 C-10.03221477 54.38786828 -9.49189312 41.28786833 -9 28.1875 C-8.90329812 25.53712204 -8.80694176 22.88673145 -8.7109375 20.23632812 C-8.477931 13.82406807 -8.24070002 7.41197564 -8 1 C-2.25 -1.125 -2.25 -1.125 0 0 Z " fill="#C5C3C3" transform="translate(281,332)"/>
<path d="M0 0 C0.66 0.33 1.32 0.66 2 1 C1.25130208 2.62760417 0.50260417 4.25520833 -0.24609375 5.8828125 C-2.84370777 13.17766638 -2.24089795 21.18339684 -2.25 28.8125 C-2.25167175 29.55188812 -2.25334351 30.29127625 -2.25506592 31.05307007 C-2.25699926 45.66857299 -1.51991858 60.22754942 -0.625 74.8125 C-0.53031433 76.38857529 -0.53031433 76.38857529 -0.43371582 77.99649048 C-0.21400729 103.89848199 -0.21400729 103.89848199 8.4375 127.125 C13.71278529 130.98496485 17.56273882 131.56164024 24 131 C26.42640172 130.48638212 28.64558969 129.80150138 31 129 C31.495 127.02 31.495 127.02 32 125 C32.495 132.425 32.495 132.425 33 140 C29.83249337 139.71589158 26.66621073 139.42294399 23.5 139.125 C22.613125 139.04636719 21.72625 138.96773437 20.8125 138.88671875 C7.38519169 137.60322604 7.38519169 137.60322604 2.62890625 134.40625 C0.32007185 130.99559774 -0.34983809 127.4843562 -1.0625 123.5 C-1.2260498 122.62400146 -1.38959961 121.74800293 -1.55810547 120.84545898 C-5.15271925 100.60515319 -6.37860002 80.11481409 -7.35400391 59.61352539 C-7.42599401 58.10432404 -7.4980939 56.59512793 -7.5703125 55.0859375 C-7.6047496 54.36298996 -7.63918671 53.64004242 -7.67466736 52.89518738 C-7.86243621 49.13655938 -8.12395404 45.40470016 -8.53515625 41.6640625 C-9.14133922 36.11288892 -9.25938324 30.58080085 -9.3125 25 C-9.34150391 23.98421875 -9.37050781 22.9684375 -9.40039062 21.921875 C-9.45838232 14.96287197 -8.46532798 9.12190324 -5 3 C-2.375 0.8125 -2.375 0.8125 0 0 Z " fill="#C4C2C2" transform="translate(86,267)"/>
<path d="M0 0 C-0.00666183 0.68602798 -0.01332367 1.37205597 -0.02018738 2.07887268 C-0.086669 9.23295393 -0.13185408 16.3869471 -0.16479492 23.54125977 C-0.17816361 26.20973072 -0.20031605 28.87771718 -0.22631836 31.54614258 C-0.26279585 35.38629252 -0.27974859 39.22611438 -0.29296875 43.06640625 C-0.30845261 44.25520889 -0.32393646 45.44401154 -0.33988953 46.6688385 C-0.34130177 53.65318798 -0.29514961 59.59122454 4.8125 64.875 C10.57855835 67.84040143 17.60848733 67.21626775 23.9375 67.25 C24.90107422 67.270625 25.86464844 67.29125 26.85742188 67.3125 C32.66686102 67.34426727 36.94905089 66.9861803 42 64 C43.4818964 61.9648239 43.4818964 61.9648239 44 60 C44.57433809 69.76374745 44.57433809 69.76374745 41 74 C36.32474145 75.55841952 31.52036906 75.67028834 26.625 76.0625 C24.96513062 76.19664307 24.96513062 76.19664307 23.27172852 76.33349609 C12.83107342 77.11693695 2.46100182 77.16232228 -8 77 C-8.14992394 59.45097015 -7.73737568 41.9699678 -7 24.4375 C-6.90318664 22.04624251 -6.80683065 19.65496645 -6.7109375 17.26367188 C-6.47919761 11.50889122 -6.24193879 5.75436046 -6 0 C-2.25 -1.125 -2.25 -1.125 0 0 Z " fill="#C4C2C3" transform="translate(341,333)"/>
<path d="M0 0 C1.59127807 2.93201448 2.50159614 5.70880918 3.3125 8.9375 C4.62042181 13.46184178 6.24077462 16.01189778 10 19 C12.98132481 20.4906624 15.68022612 20.1273727 19.00634766 20.12939453 C19.72886719 20.13114685 20.45138672 20.13289917 21.19580078 20.13470459 C23.60191205 20.13912776 26.00795037 20.13617678 28.4140625 20.1328125 C30.10248834 20.13348701 31.79091409 20.13445826 33.4793396 20.13571167 C37.03880731 20.13719055 40.59825003 20.13503389 44.15771484 20.13037109 C48.64687779 20.12476814 53.13598042 20.12800911 57.62514114 20.13377762 C80.73393314 20.16931127 80.73393314 20.16931127 103.8359375 19.6796875 C104.73341705 19.65770294 105.63089661 19.63571838 106.55557251 19.61306763 C115.79994872 19.22815837 124.30852243 17.69147757 131 11 C131.35630965 17.17603393 131.35630965 17.17603393 130 20.3125 C125.38885739 24.20315157 117.9835639 24.33541673 112.1953125 24.81640625 C111.47246063 24.87779282 110.74960876 24.93917938 110.00485229 25.00242615 C108.48070469 25.13059762 106.95629118 25.25564238 105.43164062 25.37768555 C103.16472974 25.55931674 100.89878511 25.75041077 98.6328125 25.94335938 C81.64977589 27.36813789 64.76825152 28.16851864 47.72216797 28.13037109 C44.87071452 28.12499192 42.0194176 28.13036591 39.16796875 28.13671875 C33.77760634 28.14032949 28.38953294 28.09401408 23 28 C21.79784851 27.98012024 21.79784851 27.98012024 20.57141113 27.95983887 C18.36104882 27.91166386 16.15426023 27.83364415 13.9453125 27.7421875 C12.71570801 27.69690918 11.48610352 27.65163086 10.21923828 27.60498047 C6.44990561 26.89662264 4.72213404 25.65360348 2 23 C-1.34989988 16.24366184 -0.18675709 7.29390199 0 0 Z " fill="#1BB9B7" transform="translate(98,183)"/>
<path d="M0 0 C-0.16113281 0.49371094 -0.32226562 0.98742187 -0.48828125 1.49609375 C-2.78487242 12.73361239 -0.97670626 25.66478436 -0.25 37 C-0.1883667 38.12027588 -0.1267334 39.24055176 -0.06323242 40.39477539 C0.51579242 48.50412951 1.4669006 58.35874052 7.9375 64.0625 C16.20518837 69.29307836 25.46862469 69.08433362 35 68 C40.30549425 66.41444999 43.90929088 64.63606368 47 60 C47.02685095 62.47923801 47.04676547 64.9581884 47.0625 67.4375 C47.07087891 68.14455078 47.07925781 68.85160156 47.08789062 69.58007812 C47.09653588 71.38693559 47.05220011 73.19387603 47 75 C46 76 46 76 44.01464844 76.12841797 C36.06963019 76.09481454 28.17525046 75.6684921 20.25 75.125 C18.97511719 75.04636719 17.70023438 74.96773438 16.38671875 74.88671875 C3.53897199 74.01591214 3.53897199 74.01591214 -1 72 C-3.77525217 68.27526473 -4.44420467 65.33257605 -4.73046875 60.7421875 C-4.81119629 59.49244141 -4.89192383 58.24269531 -4.97509766 56.95507812 C-5.04687274 55.59510315 -5.11764853 54.23507513 -5.1875 52.875 C-5.22736023 52.18623779 -5.26722046 51.49747559 -5.30828857 50.7878418 C-6.28618829 33.86867073 -6.19875416 16.93996957 -6 0 C-2.25 -1.125 -2.25 -1.125 0 0 Z " fill="#C4C1C2" transform="translate(129,335)"/>
<path d="M0 0 C-0.06058594 0.6305127 -0.12117188 1.26102539 -0.18359375 1.91064453 C-1.43962975 15.37679971 -2.22664086 28.79133639 -2.3125 42.3125 C-2.32990234 43.59850098 -2.34730469 44.88450195 -2.36523438 46.20947266 C-2.36458984 47.41522949 -2.36394531 48.62098633 -2.36328125 49.86328125 C-2.36626221 50.92844971 -2.36924316 51.99361816 -2.37231445 53.09106445 C-1.94568993 56.42433079 -0.97971938 58.30778676 1 61 C8.15646289 64.57823144 18.82507954 61.91611357 26.0859375 59.65625 C26.71757812 59.4396875 27.34921875 59.223125 28 59 C26.77824002 63.4797866 25.68621758 66.12972697 22 69 C19.03656493 70.06356642 16.02680476 70.6652366 12.9375 71.25 C12.09074707 71.41910889 11.24399414 71.58821777 10.37158203 71.76245117 C4.2869299 72.91415152 -1.80752884 73.8037037 -8 73 C-9 72 -9 72 -9.12072754 69.54927063 C-9.0772366 61.36383592 -8.79008882 53.21581202 -8.34375 45.04296875 C-8.27716187 43.77399246 -8.21057373 42.50501617 -8.14196777 41.19758606 C-7.96685083 37.87183892 -7.78882939 34.54627481 -7.60931396 31.22076416 C-7.42584045 27.80811577 -7.2463044 24.39526028 -7.06640625 20.98242188 C-6.71450763 14.32142111 -6.35876895 7.66063407 -6 1 C-3.92446352 0.4465236 -2.15634036 0 0 0 Z " fill="#C5C4C4" transform="translate(401,332)"/>
<path d="M0 0 C-0.48750732 0.55349121 -0.97501465 1.10698242 -1.47729492 1.67724609 C-3.28740839 4.43841645 -3.37408918 5.89072101 -3.36328125 9.1640625 C-3.36424805 10.19152588 -3.36521484 11.21898926 -3.36621094 12.27758789 C-3.34848633 13.38223389 -3.33076172 14.48687988 -3.3125 15.625 C-3.3012207 16.76767334 -3.28994141 17.91034668 -3.27832031 19.08764648 C-3.14842796 27.42411472 -2.79928275 35.74341767 -2.25 44.0625 C-2.18852783 45.12484863 -2.12705566 46.18719727 -2.0637207 47.28173828 C-1.49650106 54.66323492 -0.47308617 61.8950016 5.28515625 67.04296875 C8.78847644 68.27795213 11.72596665 68.36109006 15.4375 68.3125 C16.71496094 68.30863281 17.99242187 68.30476563 19.30859375 68.30078125 C22.89705586 68.00838804 25.69573913 67.41041603 29 66 C29.33 65.34 29.66 64.68 30 64 C30.05391993 65.79133978 30.09275571 67.58313899 30.125 69.375 C30.14820313 70.37273437 30.17140625 71.37046875 30.1953125 72.3984375 C30 75 30 75 28 77 C25.15844727 77.24291992 25.15844727 77.24291992 21.56640625 77.23046875 C20.27798828 77.22853516 18.98957031 77.22660156 17.66210938 77.22460938 C16.65313599 77.21530396 16.65313599 77.21530396 15.6237793 77.20581055 C13.57392905 77.18760153 11.52453192 77.18530058 9.47460938 77.18554688 C-0.57901548 77.14032817 -0.57901548 77.14032817 -4 76 C-6.12791046 70.5182094 -6.4092686 65.14760285 -6.6328125 59.31640625 C-6.67446533 58.39107086 -6.71611816 57.46573547 -6.7590332 56.51235962 C-6.89015449 53.52938158 -7.00821085 50.54607079 -7.125 47.5625 C-7.21064069 45.52188565 -7.29641564 43.48127692 -7.38232422 41.44067383 C-7.94542723 27.6214123 -8.26513486 13.83120192 -8 0 C-2.25 -1.125 -2.25 -1.125 0 0 Z " fill="#C4C2C2" transform="translate(189,335)"/>
<path d="M0 0 C2.04857724 -0.00107873 4.09712079 -0.00579346 6.14569092 -0.01112747 C47.41742754 -0.09276492 47.41742754 -0.09276492 55.07635498 6.78016281 C61.17805733 13.28076579 63.01892804 20.60027857 63.43963623 29.31141281 C63.50408936 30.56953781 63.56854248 31.82766281 63.63494873 33.12391281 C63.90371899 40.90999471 63.68068638 47.49543936 59.43963623 54.31141281 C58.18418393 50.6845506 58.78343409 48.04328348 59.43963623 44.31141281 C60.41570968 25.86853148 60.41570968 25.86853148 53.43963623 9.31141281 C47.4757412 5.44187401 41.36715018 4.68071561 34.41619873 4.57703781 C33.46709625 4.54894028 32.51799377 4.52084274 31.54013062 4.49189377 C28.50667206 4.40985067 25.47383635 4.35764778 22.43963623 4.31141281 C21.45684692 4.29215744 20.47405762 4.27290207 19.46148682 4.2530632 C12.2457082 4.11477191 5.0316506 4.06724014 -2.18536377 4.06141281 C-3.84784653 4.05890518 -3.84784653 4.05890518 -5.54391479 4.05634689 C-21.82038564 4.05489368 -38.01060789 4.5548798 -54.24786377 5.68641281 C-55.6335556 5.78109848 -55.6335556 5.78109848 -57.04724121 5.87769699 C-59.66063132 6.06100008 -62.27265414 6.25685575 -64.88458252 6.45985031 C-65.63546646 6.51516922 -66.3863504 6.57048813 -67.1599884 6.62748337 C-75.70881649 7.34418912 -84.19698527 8.24989376 -90.12286377 15.12391281 C-94.4671788 21.73482699 -95.07486312 30.59362657 -95.56036377 38.31141281 C-95.89036377 38.31141281 -96.22036377 38.31141281 -96.56036377 38.31141281 C-97.14689718 27.80594776 -97.43458507 19.12881895 -90.17364502 10.70203781 C-71.62006937 -6.58074499 -23.76010118 0.00467162 0 0 Z " fill="#F9A022" transform="translate(181.56036376953125,153.6885871887207)"/>
<path d="M0 0 C1.98 0 3.96 0 6 0 C7.11486411 10.24451257 7.14650274 20.42216115 7.1328125 30.7109375 C7.13348883 32.52763888 7.13446156 34.34434018 7.13571167 36.16104126 C7.13717994 39.96511702 7.13506673 43.76916919 7.13037109 47.57324219 C7.12474684 52.35315753 7.12799827 57.13301627 7.13382339 61.91292953 C7.15610926 83.62990254 6.94528921 105.30138882 6 127 C5.67 127 5.34 127 5 127 C4.67965937 123.45900038 4.37041376 119.91710008 4.0625 116.375 C3.97548828 115.41464844 3.88847656 114.45429688 3.79882812 113.46484375 C2.09074555 93.60047598 1.79573519 73.67481316 1.5 53.75 C1.23224525 35.82044122 0.77192369 17.91548358 0 0 Z " fill="#EFEEEE" transform="translate(213,256)"/>
<path d="M0 0 C0.33 0 0.66 0 1 0 C1.06731323 1.10118164 1.06731323 1.10118164 1.13598633 2.22460938 C1.2952431 28.97790957 1.2952431 28.97790957 11 53 C13.43661881 53.72348835 15.46821279 54 18 54 C18.66925305 52.33437022 19.33531651 50.66745857 20 49 C20.34160156 48.15824219 20.68320312 47.31648438 21.03515625 46.44921875 C24.19524969 37.95421471 24.77254199 29.96184551 25 21 C25.33 21 25.66 21 26 21 C26.02953391 24.91665027 26.04697503 28.83327113 26.0625 32.75 C26.07087891 33.84183594 26.07925781 34.93367188 26.08789062 36.05859375 C26.10419507 41.56949639 26.03300336 47.07414471 25.74609375 52.578125 C25.70025146 53.5259082 25.65440918 54.47369141 25.60717773 55.45019531 C24.83980126 58.67274451 23.5193866 59.91062265 21 62 C18.1805932 63.4097034 15.76732774 63.16984647 12.625 63.1875 C10.91183594 63.20876953 10.91183594 63.20876953 9.1640625 63.23046875 C6.09533141 63.00694389 4.47023308 62.7878171 2 61 C-7.12843993 47.57235932 -1.49039163 15.64911207 0 0 Z " fill="#E1114B" transform="translate(256,263)"/>
<path d="M0 0 C3.83475164 0.21912867 4.94164113 0.94028394 7.6875 3.75 C10.83978352 8.1802363 12.2487017 11.61107797 12.25878906 17.04858398 C12.26499771 18.03351837 12.27120636 19.01845276 12.27760315 20.03323364 C12.27365036 21.09347748 12.26969757 22.15372131 12.265625 23.24609375 C12.26839951 24.35725555 12.27117401 25.46841736 12.27403259 26.61325073 C12.27819273 30.22145938 12.26559527 33.82932596 12.25 37.4375 C12.24723053 38.66085052 12.24446106 39.88420105 12.24160767 41.1446228 C12.11176826 89.75849364 12.11176826 89.75849364 7 113 C6.67 113 6.34 113 6 113 C5.87473548 100.48746629 6.05223162 88.00002041 6.42935181 75.49401855 C6.79608022 63.19665659 7.14168592 50.8968692 7.23217773 38.59393311 C7.24933025 36.63883959 7.28158523 34.68389637 7.31445312 32.72900391 C7.35766552 21.15271118 5.87013721 10.12092623 0 0 Z " fill="#EDEAEB" transform="translate(425,265)"/>
<path d="M0 0 C0.33 0 0.66 0 1 0 C1.02187378 0.96317139 1.02187378 0.96317139 1.04418945 1.94580078 C1.33977387 13.70859828 1.81352421 25.39124973 3.375 37.0625 C3.48884033 37.94631348 3.60268066 38.83012695 3.7199707 39.74072266 C4.50309385 45.18549209 5.72600239 49.97592153 8 55 C11.68115537 57.45410358 13.65293598 57.23287843 18 57 C21.02229069 56.3275249 21.02229069 56.3275249 22.1484375 54.328125 C23.20638337 51.43575922 23.42477209 48.8201613 23.625 45.75 C23.69976562 44.67234375 23.77453125 43.5946875 23.8515625 42.484375 C23.92503906 41.25460937 23.92503906 41.25460937 24 40 C24.33 40 24.66 40 25 40 C25.0544207 42.68777802 25.09387266 45.37443212 25.125 48.0625 C25.14175781 48.81466797 25.15851563 49.56683594 25.17578125 50.34179688 C25.22407488 55.91971163 25.19162304 61.52493379 21.30859375 65.91015625 C18.14005304 67.40596481 15.55680513 67.43377075 12.0625 67.4375 C10.85722656 67.45683594 9.65195312 67.47617187 8.41015625 67.49609375 C4.44163512 66.91877166 2.8209612 65.78979036 0 63 C-1.19543893 60.60912213 -1.1268362 59.13379933 -1.12939453 56.46533203 C-1.13254669 55.52319855 -1.13569885 54.58106506 -1.13894653 53.61038208 C-1.1369223 52.58653412 -1.13489807 51.56268616 -1.1328125 50.5078125 C-1.13376923 49.45149628 -1.13472595 48.39518005 -1.13571167 47.30685425 C-1.13639362 45.06231629 -1.13453832 42.81777638 -1.13037109 40.57324219 C-1.12507598 37.17378153 -1.13028788 33.77445623 -1.13671875 30.375 C-1.13605693 28.19010388 -1.13477364 26.00520784 -1.1328125 23.8203125 C-1.13483673 22.81670685 -1.13686096 21.8131012 -1.13894653 20.77908325 C-1.11638559 13.81034584 -0.67200442 6.93548792 0 0 Z " fill="#E6124D" transform="translate(320,259)"/>
<path d="M0 0 C0.33 0 0.66 0 1 0 C1.01458252 0.71430176 1.02916504 1.42860352 1.04418945 2.16455078 C0.28808708 26.65092106 0.28808708 26.65092106 10 48 C13.42616073 48.31044613 13.42616073 48.31044613 17 47 C22.62318967 40.96678608 24.20039356 32.98524156 24.4140625 24.97265625 C24.45273438 23.68681641 24.49140625 22.40097656 24.53125 21.07617188 C24.56269499 19.73828582 24.59394259 18.40039511 24.625 17.0625 C24.66324342 15.69724244 24.7022987 14.33200736 24.7421875 12.96679688 C24.83609937 9.6446646 24.92177787 6.32253259 25 3 C25.33 3 25.66 3 26 3 C26.04965857 8.97736416 26.08584173 14.95460663 26.10986328 20.93212891 C26.11988386 22.96307468 26.13350401 24.99400617 26.15087891 27.02490234 C26.17530117 29.95413758 26.18652279 32.88318106 26.1953125 35.8125 C26.20563507 36.71178223 26.21595764 37.61106445 26.22659302 38.53759766 C26.22755682 44.02641162 25.75972082 48.77713107 24 54 C20.28435162 56.47709892 17.362579 56.33174834 13.0625 56.3125 C12.34642578 56.32861328 11.63035156 56.34472656 10.89257812 56.36132812 C7.69744065 56.36428933 5.38763905 56.21149587 2.55859375 54.66796875 C-0.17622075 51.74123744 -0.12312281 48.87975628 -0.11352539 45.06958008 C-0.11344986 44.06876907 -0.11337433 43.06795807 -0.11329651 42.03681946 C-0.10813522 40.95861435 -0.10297394 39.88040924 -0.09765625 38.76953125 C-0.0962413 37.66397385 -0.09482635 36.55841644 -0.09336853 35.4193573 C-0.08776514 31.88371083 -0.07521204 28.34812738 -0.0625 24.8125 C-0.05748544 22.41731862 -0.05292246 20.02213625 -0.04882812 17.62695312 C-0.03779461 11.75128053 -0.02105316 5.87564477 0 0 Z " fill="#E3124C" transform="translate(164,272)"/>
<path d="M0 0 C0.33 0 0.66 0 1 0 C1.0093457 0.87100342 1.01869141 1.74200684 1.02832031 2.6394043 C1.07289156 5.93702101 1.13474313 9.23344664 1.20751953 12.53051758 C1.23537918 13.94511503 1.25676369 15.35985803 1.27099609 16.7746582 C1.37932694 26.94692506 1.56281859 39.03769999 8.1875 47.375 C11.74631086 49.43120183 13.86262495 49.28155197 17.83984375 48.59765625 C20.57373737 47.84126254 22.72669864 46.68664295 25 45 C25.46782178 53.10891089 25.46782178 53.10891089 23.6875 56.5 C20.38520063 59.43537722 16.84616758 59.19204347 12.625 59.25 C11.50351562 59.27578125 10.38203125 59.3015625 9.2265625 59.328125 C5.67360717 58.96680751 3.83749883 58.12554458 1 56 C-6.01221007 41.97557986 -1.39747375 15.34725639 0 0 Z " fill="#E3114C" transform="translate(379,267)"/>
<path d="M0 0 C0.33 0 0.66 0 1 0 C1.03738281 0.7528125 1.07476562 1.505625 1.11328125 2.28125 C2.10613687 21.71644869 2.10613687 21.71644869 10 39 C12.91230119 40.65316967 12.91230119 40.65316967 16 40 C21.34022864 37.20273738 22.94939294 32.3613637 25 27 C25.33 27 25.66 27 26 27 C26.08139142 29.39652528 26.14067009 31.79025436 26.1875 34.1875 C26.21263672 34.86103516 26.23777344 35.53457031 26.26367188 36.22851562 C26.32907182 40.69751197 25.75630065 43.45618488 23 47 C19.86941914 48.56529043 16.55920992 48.26691314 13.125 48.3125 C12.40441406 48.34150391 11.68382813 48.37050781 10.94140625 48.40039062 C7.49931034 48.44159435 5.40960756 48.2859401 2.5546875 46.29296875 C-0.75025409 41.41859509 -0.13304818 35.65322564 -0.09765625 29.98046875 C-0.0962413 29.12189774 -0.09482635 28.26332672 -0.09336853 27.3787384 C-0.08779057 24.64828951 -0.07524214 21.91792393 -0.0625 19.1875 C-0.05748215 17.3313814 -0.05291974 15.4752615 -0.04882812 13.61914062 C-0.03782836 9.0793952 -0.02057893 4.5397117 0 0 Z " fill="#E5114C" transform="translate(105,280)"/>
<path d="M0 0 C3.375 2.0625 3.375 2.0625 6 5 C6.74744854 9.18571183 6.46546825 11.17647925 4.375 14.875 C1.46152755 17.48179114 -0.1038517 18 -4 18 C-7.60267091 16.40812216 -10.22301044 14.55397912 -12 11 C-12 6.76711284 -11.66316819 4.73895884 -8.8125 1.5625 C-5.41373205 -0.32570442 -3.82889966 -0.70326728 0 0 Z " fill="#03E9EB" transform="translate(348,180)"/>
<path d="M0 0 C3.34265205 1.20706879 3.94704566 1.92056849 6 5 C6.39951993 8.09627945 6.64950348 10.03987352 6 13 C3.4375 16.0625 3.4375 16.0625 0 18 C-4.00223835 18.06900411 -6.1118831 17.63103043 -9.375 15.3125 C-11.41374374 12.41121083 -11.92765204 10.54505011 -12 7 C-9.35053115 1.17116852 -6.31999676 -0.5159181 0 0 Z " fill="#DAA669" transform="translate(293,180)"/>
<path d="M0 0 C3.75979392 1.05909688 5.09536663 3.27164342 6.94140625 6.546875 C7.01015134 10.53409029 6.52472112 12.6719027 4.31640625 15.984375 C0.96525897 18.18907716 -1.12108391 18.09950796 -5.05859375 17.546875 C-7.81188396 15.75125095 -9.58486836 14.49432578 -11.05859375 11.546875 C-11.58840394 7.57329855 -11.37740849 6.00517119 -9.05859375 2.671875 C-5.73722082 0.31923584 -3.98871555 -0.27247393 0 0 Z " fill="#FD790E" transform="translate(405.05859375,183.453125)"/>
<path d="M0 0 C6.59114296 2.86030732 11.79695553 7.62768467 14.69140625 14.265625 C16.67657276 21.20746512 15.5883113 27.15886168 12.3125 33.4375 C11.0398955 30.892291 11.58208039 30.12387549 12.3125 27.4375 C13.06153004 20.90497572 12.14017891 15.8482313 8.3125 10.4375 C3.75738889 5.39616917 -1.38667419 3.4174753 -8.0625 3.0625 C-13.65211874 3.21306212 -18.11622065 5.05547725 -22.2265625 8.86328125 C-27.05029319 14.32171334 -27.97671411 19.44810539 -28.6875 26.4375 C-29.0175 26.4375 -29.3475 26.4375 -29.6875 26.4375 C-30.1644755 19.22987025 -30.14597712 13.37780334 -25.6875 7.4375 C-17.89830801 -0.67699467 -10.96310479 -1.67233802 0 0 Z " fill="#F89F22" transform="translate(410.6875,168.5625)"/>
<path d="M0 0 C5.3718509 5.22297744 8.26381019 10.03493121 8.4375 17.6875 C8.36615304 24.08494404 6.32825456 28.62724621 3 34 C2.01 33.505 2.01 33.505 1 33 C1.66 31.9275 2.32 30.855 3 29.75 C5.70719967 24.27738132 5.93314526 18.98500064 5 13 C2.97046185 7.87624796 -0.30197181 3.90830316 -5 1 C-11.90526181 -1.55750437 -17.35383034 -1.97931465 -24.125 1 C-29.19290877 3.70339814 -31.56579035 6.89830228 -34 12 C-34.37125 12.74121094 -34.7425 13.48242188 -35.125 14.24609375 C-35.41375 14.82488281 -35.7025 15.40367187 -36 16 C-36.64002407 10.87980746 -35.28512597 8.00331479 -32.48046875 3.89453125 C-28.88409821 -0.70768435 -25.12050368 -3.60533961 -19.20703125 -4.78125 C-12.12446536 -5.48323883 -5.60966324 -4.56728083 0 0 Z " fill="#F79D22" transform="translate(360,169)"/>
<path d="M0 0 C2.31 0.33 4.62 0.66 7 1 C7.02478762 6.58674804 7.04290152 12.1734638 7.05493164 17.76025391 C7.05994885 19.65934812 7.06676411 21.5584385 7.07543945 23.45751953 C7.08761963 26.19304352 7.09325454 28.92851626 7.09765625 31.6640625 C7.10281754 32.50804596 7.10797882 33.35202942 7.11329651 34.22158813 C7.11370954 38.59835842 6.88088964 42.69004167 6 47 C5.34 47 4.68 47 4 47 C3.9498877 46.10917725 3.89977539 45.21835449 3.84814453 44.30053711 C3.65507454 40.91743427 3.45683726 37.53470907 3.25537109 34.15209961 C3.17004481 32.70267129 3.08663574 31.25312851 3.00537109 29.8034668 C2.44206153 19.78559733 1.47106397 9.92832809 0 0 Z " fill="#EFECED" transform="translate(380,332)"/>
<path d="M0 0 C1.65 0 3.3 0 5 0 C5.20638953 30.5392995 5.20638953 30.5392995 4 42 C3.01 41.67 2.02 41.34 1 41 C0.05641745 31.89820483 -0.12224433 22.89547797 -0.0625 13.75 C-0.05746786 12.40755378 -0.05290802 11.0651057 -0.04882812 9.72265625 C-0.03717009 6.4817219 -0.02080774 3.24088631 0 0 Z " fill="#EFECED" transform="translate(261,333)"/>
<path d="M0 0 C4.60472878 4.29842753 7.66034425 8.60344247 8.30078125 15.0078125 C8.30658203 16.55082031 8.30658203 16.55082031 8.3125 18.125 C8.32925781 19.15882813 8.34601563 20.19265625 8.36328125 21.2578125 C8 24 8 24 6.48046875 25.8671875 C5.99191406 26.24101562 5.50335938 26.61484375 5 27 C5.04640625 26.07058594 5.0928125 25.14117187 5.140625 24.18359375 C5.51854743 14.33297904 5.51854743 14.33297904 1 6 C-3.47587044 1.43829095 -7.80586254 -1.0120575 -14.1875 -1.4375 C-19.84936387 -1.27681271 -24.44167666 0.69064135 -29 4 C-32.34887139 7.80100734 -34.52149557 11.8959527 -35 17 C-35.33 17 -35.66 17 -36 17 C-36.69062051 10.66931195 -35.6083638 7.14090072 -31.84765625 1.984375 C-23.47588656 -7.00687025 -9.65708118 -6.77012218 0 0 Z " fill="#F69D22" transform="translate(305,169)"/>
<path d="M0 0 C6.75381462 -0.10130722 13.32796347 -0.13298734 20 1 C22.05976237 3.05976237 21.74528338 7.04359157 22.0625 9.875 C22.15192871 10.66696777 22.24135742 11.45893555 22.33349609 12.27490234 C23.25029662 21.18271085 23.17845922 30.05721011 23 39 C22.67 39 22.34 39 22 39 C21.93006836 38.28457031 21.86013672 37.56914062 21.78808594 36.83203125 C21.45825654 33.55282708 21.10433047 30.2766436 20.75 27 C20.64042969 25.87464844 20.53085937 24.74929688 20.41796875 23.58984375 C19.67528483 16.90568843 18.7576512 11.6498018 15 6 C11.56388657 3.89671617 8.16661005 3.66264651 4.1875 3.375 C3.21167969 3.30023438 2.23585938 3.22546875 1.23046875 3.1484375 C0.49441406 3.09945313 -0.24164063 3.05046875 -1 3 C-0.67 2.01 -0.34 1.02 0 0 Z " fill="#F85F91" transform="translate(322,256)"/>
<path d="M0 0 C1.65 0 3.3 0 5 0 C5.78100524 14.34681694 6.13221626 28.63249973 6 43 C4.55378879 40.33081574 3.6702428 38.01681545 3.18359375 35.0234375 C3.05960205 34.27521729 2.93561035 33.52699707 2.80786133 32.75610352 C2.68564209 31.97033936 2.56342285 31.1845752 2.4375 30.375 C2.30819092 29.56538818 2.17888184 28.75577637 2.0456543 27.92163086 C0.5752494 18.54509497 -0.16255445 9.50040428 0 0 Z " fill="#F2F1F1" transform="translate(110,335)"/>
<path d="M0 0 C1.27617187 0.00483398 1.27617187 0.00483398 2.578125 0.00976562 C3.46757812 0.01814453 4.35703125 0.02652344 5.2734375 0.03515625 C6.170625 0.03966797 7.0678125 0.04417969 7.9921875 0.04882812 C10.21100398 0.06063034 12.42968768 0.0770947 14.6484375 0.09765625 C16.62012643 3.71355637 16.86346018 6.20661283 16.7734375 10.34765625 C16.75539062 11.4253125 16.73734375 12.50296875 16.71875 13.61328125 C16.69554687 14.433125 16.67234375 15.25296875 16.6484375 16.09765625 C16.20371094 15.49179687 15.75898438 14.8859375 15.30078125 14.26171875 C12.32381994 10.36281434 9.27554417 6.90576188 4.6484375 5.09765625 C1.82758022 4.85692431 1.82758022 4.85692431 -1.1015625 4.97265625 C-2.08640625 4.99070312 -3.07125 5.00875 -4.0859375 5.02734375 C-4.83359375 5.05054688 -5.58125 5.07375 -6.3515625 5.09765625 C-6.3515625 3.77765625 -6.3515625 2.45765625 -6.3515625 1.09765625 C-4.00303722 -0.07660639 -2.61382185 -0.01742548 0 0 Z " fill="#FA6193" transform="translate(172.3515625,257.90234375)"/>
<path d="M0 0 C1 1 1 1 1.11352539 2.76586914 C1.10828857 3.51473389 1.10305176 4.26359863 1.09765625 5.03515625 C1.09443359 5.84404297 1.09121094 6.65292969 1.08789062 7.48632812 C1.07951172 8.33646484 1.07113281 9.18660156 1.0625 10.0625 C1.05798828 10.91650391 1.05347656 11.77050781 1.04882812 12.65039062 C1.03700373 14.76695663 1.01906769 16.88348685 1 19 C-0.39701684 16.33730979 -1.45142716 13.73264303 -2.375 10.875 C-3.51512615 7.84474491 -3.51512615 7.84474491 -5.6875 5.5 C-11.59290993 4.22315461 -16.43345864 4.77338345 -22 7 C-21.67 5.35 -21.34 3.7 -21 2 C-13.94706603 0.11921761 -7.30334707 -0.50981156 0 0 Z " fill="#FA5F91" transform="translate(129,262)"/>
<path d="M0 0 C1.32 0 2.64 0 4 0 C4 14.19 4 28.38 4 43 C1.95426711 38.90853422 1.34614623 35.51952399 0.875 31.0625 C0.79008301 30.28922363 0.70516602 29.51594727 0.61767578 28.71923828 C-0.32619089 19.16092647 -0.17027258 9.59202184 0 0 Z " fill="#F2F1F1" transform="translate(170,336)"/>
<path d="M0 0 C2.75150737 0.08711104 5.49981633 0.19399615 8.25 0.3125 C9.02730469 0.33505859 9.80460937 0.35761719 10.60546875 0.38085938 C17.98422048 0.72772377 17.98422048 0.72772377 21 4 C21.92188461 6.76565382 22.11785222 8.38283702 22.09765625 11.23046875 C22.09443359 12.03291016 22.09121094 12.83535156 22.08789062 13.66210938 C22.07951172 14.49548828 22.07113281 15.32886719 22.0625 16.1875 C22.05798828 17.03248047 22.05347656 17.87746094 22.04882812 18.74804688 C22.03705403 20.83206155 22.0191189 22.91603977 22 25 C21.67 25 21.34 25 21 25 C20.90203125 24.13117188 20.8040625 23.26234375 20.703125 22.3671875 C19.66058732 13.40519666 19.66058732 13.40519666 15 6 C11.66404681 3.88324047 8.65195761 3.6294755 4.75 3.375 C3.67234375 3.30023438 2.5946875 3.22546875 1.484375 3.1484375 C0.66453125 3.09945313 -0.1553125 3.05046875 -1 3 C-0.67 2.01 -0.34 1.02 0 0 Z " fill="#F45B8C" transform="translate(382,259)"/>
<path d="M0 0 C3.12492251 -0.05791844 6.24970766 -0.09356746 9.375 -0.125 C10.26445312 -0.14175781 11.15390625 -0.15851563 12.0703125 -0.17578125 C12.92109375 -0.18222656 13.771875 -0.18867188 14.6484375 -0.1953125 C15.82672119 -0.21102295 15.82672119 -0.21102295 17.02880859 -0.22705078 C19 0 19 0 21 2 C21.1953125 4.6015625 21.1953125 4.6015625 21.125 7.625 C21.10695313 8.62789063 21.08890625 9.63078125 21.0703125 10.6640625 C21.04710937 11.43492187 21.02390625 12.20578125 21 13 C20.4225 12.236875 19.845 11.47375 19.25 10.6875 C15.74289603 6.49845914 12.8229988 4.33091592 7.30078125 3.68359375 C6.31464844 3.60238281 5.32851563 3.52117187 4.3125 3.4375 C3.31863281 3.35371094 2.32476562 3.26992188 1.30078125 3.18359375 C0.16189453 3.09271484 0.16189453 3.09271484 -1 3 C-0.67 2.01 -0.34 1.02 0 0 Z " fill="#FC6193" transform="translate(259,256)"/>
<path d="M0 0 C0.66 0.33 1.32 0.66 2 1 C1.34 1.66 0.68 2.32 0 3 C-0.3267107 6.07108055 -0.48138276 8.15050101 1.0625 10.875 C4.1069286 12.64273274 6.5631012 12.36823916 10 12 C12.62122831 10.19225634 13.71240983 7.87231652 15 5 C14.71574109 8.69536586 14.4523486 11.3214771 12.375 14.4375 C9.02385272 16.64220216 6.93750984 16.55263296 3 16 C0.24670979 14.20437595 -1.52627461 12.94745078 -3 10 C-3.30343947 6.51044604 -3.39470082 4.62494296 -1.5 1.625 C-1.005 1.08875 -0.51 0.5525 0 0 Z " fill="#E76005" transform="translate(397,185)"/>
<path d="M0 0 C0.33 0 0.66 0 1 0 C1.66 2.97 2.32 5.94 3 9 C5.1346875 9.0928125 5.1346875 9.0928125 7.3125 9.1875 C8.11300781 9.22230469 8.91351563 9.25710937 9.73828125 9.29296875 C12.06320684 9.18425327 12.06320684 9.18425327 13.75 7.65625 C15.36320877 5.51874838 15.64535 3.62441 16 1 C16.33 1 16.66 1 17 1 C17.29797657 3.93010297 17.50083081 6.14262846 17 9 C14.4375 12.0625 14.4375 12.0625 11 14 C6.99776165 14.06900411 4.8881169 13.63103043 1.625 11.3125 C-0.36335987 8.48291096 -0.78089232 6.43268698 -1 3 C-0.67 2.01 -0.34 1.02 0 0 Z " fill="#BD8450" transform="translate(282,184)"/>
<path d="M0 0 C5.71428571 0.71428571 5.71428571 0.71428571 7 2 C7.1875 4.4375 7.1875 4.4375 7 7 C5 9 5 9 2.5 9.3125 C1.2625 9.1578125 1.2625 9.1578125 0 9 C-2 6 -2 6 -1.6875 3.375 C-1 1 -1 1 0 0 Z " fill="#FFB354" transform="translate(401,186)"/>
<path d="M0 0 C0.33 0 0.66 0 1 0 C1.12117188 0.63808594 1.24234375 1.27617187 1.3671875 1.93359375 C1.53476562 2.75988281 1.70234375 3.58617187 1.875 4.4375 C2.03742188 5.26121094 2.19984375 6.08492187 2.3671875 6.93359375 C2.57601563 7.61550781 2.78484375 8.29742187 3 9 C5.77100394 10.38550197 7.9334706 10.1877467 11 10 C14.86107457 7.42595029 14.94319692 5.38979741 16 1 C16.33 1 16.66 1 17 1 C17.31215868 4.98002315 17.36368076 7.3565648 15.375 10.875 C12.46152755 13.48179114 10.8961483 14 7 14 C3.39732909 12.40812216 0.77698956 10.55397912 -1 7 C-0.6875 3.25 -0.6875 3.25 0 0 Z " fill="#20ACAD" transform="translate(337,184)"/>
<path d="M0 0 C2.5625 0.1875 2.5625 0.1875 4.5625 2.1875 C4.75 4.75 4.75 4.75 4.5625 7.1875 C3.5625 8.1875 3.5625 8.1875 0.625 8.375 C-2.4375 8.1875 -2.4375 8.1875 -4.4375 6.1875 C-3.71780303 0.28598485 -3.71780303 0.28598485 0 0 Z " fill="#F2C08B" transform="translate(290.4375,181.8125)"/>
<path d="M0 0 C3.125 0.375 3.125 0.375 6 1 C6.625 3.375 6.625 3.375 7 6 C5 8 5 8 1.9375 8.1875 C-1 8 -1 8 -2 7 C-2.1875 4.5625 -2.1875 4.5625 -2 2 C-1.34 1.34 -0.68 0.68 0 0 Z " fill="#65FDFA" transform="translate(342,182)"/>
<path d="M0 0 C0.33 0 0.66 0 1 0 C2.25676377 9.98678356 2.09367165 19.95631733 2 30 C1.67 30 1.34 30 1 30 C-0.36694639 19.83263014 -1.48587387 10.24048205 0 0 Z " fill="#EE5281" transform="translate(343,265)"/>
<path d="M0 0 C0.33 0 0.66 0 1 0 C1.31697773 4.04146606 1.35752198 6.37764693 -0.6875 9.9375 C-3 12 -3 12 -5.75 12.3125 C-6.86375 12.1578125 -6.86375 12.1578125 -8 12 C-6.06745228 9.9754262 -4.36841312 8.57894208 -2 7 C-0.7811879 3.44327821 -0.7811879 3.44327821 0 0 Z " fill="#1ABAB8" transform="translate(353,185)"/>
<path d="M0 0 C1.26457031 0.12761719 2.52914062 0.25523437 3.83203125 0.38671875 C5.74048828 0.56654297 5.74048828 0.56654297 7.6875 0.75 C8.66332031 0.85699219 9.63914063 0.96398437 10.64453125 1.07421875 C10.64453125 1.40421875 10.64453125 1.73421875 10.64453125 2.07421875 C2.22953125 2.56921875 2.22953125 2.56921875 -6.35546875 3.07421875 C-3.35546875 0.07421875 -3.35546875 0.07421875 0 0 Z " fill="#ED9522" transform="translate(122.35546875,156.92578125)"/>
<path d="M0 0 C0.66 0 1.32 0 2 0 C2.33951619 1.56116819 2.67132544 3.12401338 3 4.6875 C3.185625 5.55761719 3.37125 6.42773438 3.5625 7.32421875 C3.98972047 9.93712964 4.07616201 12.35813038 4 15 C1.32820751 10.22894198 0 5.46088946 0 0 Z " fill="#EB9723" transform="translate(68,370)"/>
<path d="M0 0 C-1 2 -1 2 -3.875 3.0625 C-4.90625 3.371875 -5.9375 3.68125 -7 4 C-7.99 4.33 -8.98 4.66 -10 5 C-7.62417533 -0.26075462 -5.61350876 -0.1220328 0 0 Z " fill="#08E0E3" transform="translate(348,180)"/>
<path d="M0 0 C2 3 2 3 2 7 C1.01 7.33 0.02 7.66 -1 8 C-1.04241723 5.66705225 -1.04092937 3.33297433 -1 1 C-0.67 0.67 -0.34 0.34 0 0 Z " fill="#ECC931" transform="translate(464,209)"/>
</svg>
