<?xml version="1.0" encoding="UTF-8"?>
<!DOCTYPE svg PUBLIC "-//W3C//DTD SVG 1.1//EN" "http://www.w3.org/Graphics/SVG/1.1/DTD/svg11.dtd">
<svg xmlns="http://www.w3.org/2000/svg" version="1.1" width="100px" height="100px" style="shape-rendering:geometricPrecision; text-rendering:geometricPrecision; image-rendering:optimizeQuality; fill-rule:evenodd; clip-rule:evenodd" xmlns:xlink="http://www.w3.org/1999/xlink">
<g><path style="opacity:0.955" fill="#e9e9ea" d="M 62.5,12.5 C 62.427,14.0269 63.0937,15.0269 64.5,15.5C 64.2291,17.3797 64.8958,18.713 66.5,19.5C 68.7815,20.6082 70.9481,21.9415 73,23.5C 76.7885,18.8468 81.6218,17.3468 87.5,19C 90.3714,21.7028 93.0381,24.5361 95.5,27.5C 97.6503,33.4838 96.317,38.4838 91.5,42.5C 95.8732,54.5423 93.2066,64.7089 83.5,73C 78.5971,86.8722 68.7638,93.7055 54,93.5C 46.0558,93.6785 38.5558,92.0119 31.5,88.5C 30.5084,88.6716 29.8417,88.3382 29.5,87.5C 29.3893,86.8826 29.056,86.3826 28.5,86C 23.9903,85.8542 19.657,85.0209 15.5,83.5C 8.47228,78.7636 6.80561,72.5969 10.5,65C 8.46823,61.049 6.96823,56.8823 6,52.5C 3.32165,49.786 1.15499,46.786 -0.5,43.5C -0.5,39.8333 -0.5,36.1667 -0.5,32.5C 2.50414,26.3033 7.50414,22.47 14.5,21C 25.781,5.18001 40.4477,0.846674 58.5,8C 60.0414,9.37121 61.3747,10.8712 62.5,12.5 Z"/></g>
<g><path style="opacity:1" fill="#4b4274" d="M 39.5,9.5 C 48.7414,8.20491 55.5747,11.5382 60,19.5C 60.4935,21.1341 60.6602,22.8008 60.5,24.5C 69.0762,24.9928 71.4095,28.9928 67.5,36.5C 65.677,37.7472 63.677,38.4139 61.5,38.5C 61.1547,41.488 62.488,42.8213 65.5,42.5C 69.8654,40.3606 74.5321,39.0272 79.5,38.5C 79.8333,37.8333 80.1667,37.1667 80.5,36.5C 74.7945,30.981 75.6278,26.6476 83,23.5C 86.7094,25.7083 89.5427,28.7083 91.5,32.5C 90.6579,37.6688 87.6579,39.6688 82.5,38.5C 84.2884,41.3875 86.1217,44.3875 88,47.5C 89.581,56.332 86.7476,63.332 79.5,68.5C 74.4059,84.7217 63.4059,91.2217 46.5,88C 39.3401,86.4201 33.0068,83.2534 27.5,78.5C 15.9451,80.4444 12.2784,75.9444 16.5,65C 13.9828,59.7663 12.3162,54.2663 11.5,48.5C 4.11533,43.7044 2.782,37.5377 7.5,30C 10.9638,27.9535 14.6305,26.2868 18.5,25C 23.7945,17.3692 30.7945,12.2025 39.5,9.5 Z"/></g>
<g><path style="opacity:1" fill="#d4e7f9" d="M 45.5,25.5 C 43.2625,24.4634 40.9291,24.2967 38.5,25C 37.1772,25.8159 36.5106,26.9826 36.5,28.5C 28.2059,30.9592 21.0392,35.2925 15,41.5C 14.1376,43.087 13.4709,44.7536 13,46.5C 6.49972,41.7182 5.99972,36.5516 11.5,31C 18.5265,29.3129 23.8599,25.3129 27.5,19C 34.6353,12.9498 42.6353,11.2831 51.5,14C 55.4286,16.3529 57.4286,19.8529 57.5,24.5C 53.4517,24.3946 49.4517,24.7279 45.5,25.5 Z"/></g>
<g><path style="opacity:0.106" fill="#1e1e1e" d="M 62.5,12.5 C 63.9063,12.9731 64.573,13.9731 64.5,15.5C 63.0937,15.0269 62.427,14.0269 62.5,12.5 Z"/></g>
<g><path style="opacity:0.175" fill="#090909" d="M 64.5,15.5 C 65.6737,16.5137 66.3404,17.847 66.5,19.5C 64.8958,18.713 64.2291,17.3797 64.5,15.5 Z"/></g>
<g><path style="opacity:1" fill="#f6b753" d="M 45.5,25.5 C 46.8333,27.8333 46.8333,30.1667 45.5,32.5C 42.8333,35.1667 40.1667,35.1667 37.5,32.5C 36.7659,31.2921 36.4326,29.9587 36.5,28.5C 36.5106,26.9826 37.1772,25.8159 38.5,25C 40.9291,24.2967 43.2625,24.4634 45.5,25.5 Z"/></g>
<g><path style="opacity:1" fill="#efb150" d="M 83.5,28.5 C 87.2647,29.3905 88.5981,31.5572 87.5,35C 84.9063,35.4493 82.9063,34.4493 81.5,32C 82.8228,31.1841 83.4894,30.0174 83.5,28.5 Z"/></g>
<g><path style="opacity:1" fill="#fac3a1" d="M 37.5,32.5 C 40.1667,35.1667 42.8333,35.1667 45.5,32.5C 46.675,32.281 47.675,32.6143 48.5,33.5C 46.898,36.5342 47.2313,39.2009 49.5,41.5C 49.4057,34.3722 51.9057,33.0388 57,37.5C 58.2587,40.3559 59.7587,43.0226 61.5,45.5C 60.1667,46.1667 58.8333,46.8333 57.5,47.5C 58.0934,44.4041 57.0934,42.0708 54.5,40.5C 51.8848,43.4125 52.2181,46.0792 55.5,48.5C 53.0645,51.3739 51.7312,54.7073 51.5,58.5C 47.1539,58.3343 42.8206,58.501 38.5,59C 34.9933,60.3296 33.3266,62.8296 33.5,66.5C 34.5,66.5 35.5,66.5 36.5,66.5C 36.2965,64.6096 36.9632,63.1096 38.5,62C 43.3514,61.8255 48.0181,61.3255 52.5,60.5C 56.8238,65.3214 61.8238,65.8214 67.5,62C 74.3068,56.8949 74.9735,51.3949 69.5,45.5C 69.9528,44.5416 70.6195,43.7083 71.5,43C 80.0733,40.9104 84.74,44.2437 85.5,53C 85.3293,59.1745 82.4959,63.6745 77,66.5C 72.5787,81.9664 62.4121,88.1331 46.5,85C 39.0589,83.6974 32.8922,80.1974 28,74.5C 22.7749,79.1538 19.2749,78.1538 17.5,71.5C 17.5984,69.0632 18.5984,67.0632 20.5,65.5C 16.2164,59.4774 14.7164,52.8108 16,45.5C 22.0392,39.2925 29.2059,34.9592 37.5,32.5 Z"/></g>
<g><path style="opacity:1" fill="#4d4171" d="M 32.5,37.5 C 34.1992,37.3398 35.8659,37.5065 37.5,38C 40.062,41.0652 43.062,43.5652 46.5,45.5C 49.5501,42.5658 50.7168,43.2324 50,47.5C 48.2739,48.5762 46.4406,48.7429 44.5,48C 41.3223,45.4861 38.1556,42.9861 35,40.5C 33.2443,41.8959 31.7443,43.5626 30.5,45.5C 29.3691,43.9255 29.2025,42.2588 30,40.5C 31.045,39.6266 31.8783,38.6266 32.5,37.5 Z"/></g>
<g><path style="opacity:1" fill="#4f4371" d="M 57.5,47.5 C 57.1583,48.3382 56.4916,48.6716 55.5,48.5C 52.2181,46.0792 51.8848,43.4125 54.5,40.5C 57.0934,42.0708 58.0934,44.4041 57.5,47.5 Z"/></g>
<g><path style="opacity:1" fill="#ea976f" d="M 69.5,45.5 C 74.9735,51.3949 74.3068,56.8949 67.5,62C 61.8238,65.8214 56.8238,65.3214 52.5,60.5C 52.6716,59.5084 52.3382,58.8417 51.5,58.5C 51.7312,54.7073 53.0645,51.3739 55.5,48.5C 56.4916,48.6716 57.1583,48.3382 57.5,47.5C 58.8333,46.8333 60.1667,46.1667 61.5,45.5C 64.1667,44.1667 66.8333,44.1667 69.5,45.5 Z"/></g>
<g><path style="opacity:0.272" fill="#060606" d="M 95.5,27.5 C 97.8942,29.3318 98.8942,31.8318 98.5,35C 98.704,39.2586 97.0374,42.592 93.5,45C 98.0378,56.607 95.5378,66.4404 86,74.5C 81.2529,88.9026 71.2529,95.9026 56,95.5C 46.8832,96.0169 38.7166,93.6835 31.5,88.5C 38.5558,92.0119 46.0558,93.6785 54,93.5C 68.7638,93.7055 78.5971,86.8722 83.5,73C 93.2066,64.7089 95.8732,54.5423 91.5,42.5C 96.317,38.4838 97.6503,33.4838 95.5,27.5 Z"/></g>
<g><path style="opacity:1" fill="#514472" d="M 39.5,50.5 C 42.1667,50.5 44.8333,50.5 47.5,50.5C 47.5,51.5 47.5,52.5 47.5,53.5C 44.6029,53.3187 41.7695,53.6521 39,54.5C 38.5,54.1667 38,53.8333 37.5,53.5C 38.1925,52.4822 38.8592,51.4822 39.5,50.5 Z"/></g>
<g><path style="opacity:1" fill="#4d4271" d="M 51.5,58.5 C 52.3382,58.8417 52.6716,59.5084 52.5,60.5C 48.0181,61.3255 43.3514,61.8255 38.5,62C 36.9632,63.1096 36.2965,64.6096 36.5,66.5C 35.5,66.5 34.5,66.5 33.5,66.5C 33.3266,62.8296 34.9933,60.3296 38.5,59C 42.8206,58.501 47.1539,58.3343 51.5,58.5 Z"/></g>
<g><path style="opacity:0.221" fill="#0a0a0a" d="M 15.5,83.5 C 19.657,85.0209 23.9903,85.8542 28.5,86C 29.056,86.3826 29.3893,86.8826 29.5,87.5C 26.4816,87.6646 23.4816,87.498 20.5,87C 18.4156,86.3028 16.7489,85.1361 15.5,83.5 Z"/></g>
</svg>
