<svg xmlns="http://www.w3.org/2000/svg" width="512" height="512" viewBox="0 0 512 512" version="1.1"><path d="M 442 0.682 C 334.712 4.751, 238.983 22.493, 170.353 51.027 C 124.700 70.009, 91.284 91.483, 62.412 120.394 C 38.122 144.717, 21.221 171.241, 10.730 201.500 C -1.397 236.479, -3.473 277.535, 5.118 312.500 C 10.480 334.325, 22.519 358.986, 35.385 374.500 C 37.666 377.250, 40.078 380.210, 40.745 381.078 C 41.751 382.385, 40.342 385.822, 32.547 401.078 C 13.022 439.295, 1.477 472.961, 0.265 495.218 L -0.264 504.936 3.268 508.468 C 6.188 511.388, 7.527 512, 10.996 512 C 15.552 512, 19.955 509.902, 21.885 506.812 C 22.557 505.737, 23.547 500.974, 24.087 496.227 C 26.468 475.267, 35.045 450.309, 51.548 416.314 L 60.013 398.877 64.257 402.286 C 98.601 429.878, 157.126 445.502, 212.500 441.862 C 286.585 436.993, 337.848 395.687, 369.946 315 C 378.251 294.123, 384.985 270.961, 393.059 235.500 C 400.123 204.471, 403.306 192.386, 408.330 177.500 C 426.632 123.283, 455.682 75.182, 494.066 35.542 C 502.077 27.269, 509.389 19.387, 510.316 18.027 C 511.262 16.639, 512 13.636, 512 11.177 C 512 7.533, 511.431 6.231, 508.600 3.400 L 505.200 0 477.350 0.199 C 462.033 0.308, 446.125 0.525, 442 0.682 M 431 25.108 C 316.069 31.575, 219.500 52.453, 152.500 85.317 C 120.675 100.927, 98.120 116.625, 76.960 137.892 C 40.711 174.325, 23.921 214.956, 23.815 266.500 C 23.765 290.425, 26.917 307.536, 34.934 326.879 C 38.711 335.991, 49.339 353.993, 53.029 357.528 L 55.765 360.149 59.571 353.824 C 77.577 323.907, 109.226 281.714, 135.950 252 C 186.279 196.040, 245.300 149.508, 302.304 120.847 C 314.872 114.528, 321.735 115.690, 324.912 124.674 C 326.193 128.298, 326.147 129.030, 324.412 132.583 C 322.823 135.837, 320.977 137.313, 313.500 141.308 C 284.698 156.698, 268.079 166.791, 248.632 180.702 C 198.059 216.877, 150.487 264.464, 110.873 318.500 C 99.870 333.508, 85.336 355.077, 77.346 368.254 L 71.805 377.392 75.152 380.202 C 82.023 385.969, 95.846 394.515, 106.500 399.584 C 129.465 410.509, 150.881 415.843, 180.932 418.123 C 258.659 424.021, 311.035 391.009, 343.748 315.500 C 353.219 293.640, 361.068 267.471, 372.546 219.500 C 380.054 188.118, 385.186 171.048, 393.291 150.500 C 410.051 108.009, 433.787 68.677, 463.746 33.750 L 472.110 24 458.805 24.146 C 451.487 24.226, 438.975 24.659, 431 25.108" stroke="none" fill="#040504" fill-rule="evenodd"/><path d="M 431 25.108 C 316.069 31.575, 219.500 52.453, 152.500 85.317 C 120.675 100.927, 98.120 116.625, 76.960 137.892 C 40.711 174.325, 23.921 214.956, 23.815 266.500 C 23.765 290.425, 26.917 307.536, 34.934 326.879 C 38.711 335.991, 49.339 353.993, 53.029 357.528 L 55.765 360.149 59.571 353.824 C 77.577 323.907, 109.226 281.714, 135.950 252 C 186.279 196.040, 245.300 149.508, 302.304 120.847 C 314.872 114.528, 321.735 115.690, 324.912 124.674 C 326.193 128.298, 326.147 129.030, 324.412 132.583 C 322.823 135.837, 320.977 137.313, 313.500 141.308 C 284.698 156.698, 268.079 166.791, 248.632 180.702 C 198.059 216.877, 150.487 264.464, 110.873 318.500 C 99.870 333.508, 85.336 355.077, 77.346 368.254 L 71.805 377.392 75.152 380.202 C 82.023 385.969, 95.846 394.515, 106.500 399.584 C 129.465 410.509, 150.881 415.843, 180.932 418.123 C 258.659 424.021, 311.035 391.009, 343.748 315.500 C 353.219 293.640, 361.068 267.471, 372.546 219.500 C 380.054 188.118, 385.186 171.048, 393.291 150.500 C 410.051 108.009, 433.787 68.677, 463.746 33.750 L 472.110 24 458.805 24.146 C 451.487 24.226, 438.975 24.659, 431 25.108" stroke="none" fill="#4bab53" fill-rule="evenodd"/></svg>