<?xml version="1.0" encoding="UTF-8"?>
<!DOCTYPE svg PUBLIC "-//W3C//DTD SVG 1.1//EN" "http://www.w3.org/Graphics/SVG/1.1/DTD/svg11.dtd">
<svg xmlns="http://www.w3.org/2000/svg" version="1.1" width="512px" height="512px" style="shape-rendering:geometricPrecision; text-rendering:geometricPrecision; image-rendering:optimizeQuality; fill-rule:evenodd; clip-rule:evenodd" xmlns:xlink="http://www.w3.org/1999/xlink">
<g><path style="opacity:0.975" fill="#020202" d="M 107.5,-0.5 C 198.167,-0.5 288.833,-0.5 379.5,-0.5C 394.124,3.9584 403.624,13.6251 408,28.5C 408.667,65.8333 408.667,103.167 408,140.5C 406.362,142.734 404.195,144.067 401.5,144.5C 399.611,143.678 397.611,142.845 395.5,142C 394.874,141.25 394.374,140.416 394,139.5C 393.667,103.5 393.333,67.5 393,31.5C 390.167,23.3333 384.667,17.8333 376.5,15C 360.17,14.5001 343.837,14.3334 327.5,14.5C 256.167,14.5 184.833,14.5 113.5,14.5C 111.51,38.1434 110.843,62.1434 111.5,86.5C 109.086,98.7477 101.753,106.248 89.5,109C 65.5023,109.5 41.5023,109.667 17.5,109.5C 17.3333,233.167 17.5,356.834 18,480.5C 20.4739,488.307 25.6405,493.474 33.5,496C 131.499,496.5 229.499,496.667 327.5,496.5C 343.837,496.667 360.17,496.5 376.5,496C 384.667,493.167 390.167,487.667 393,479.5C 393.333,473.5 393.667,467.5 394,461.5C 395.41,458.211 397.91,456.544 401.5,456.5C 404.263,456.744 406.429,458.077 408,460.5C 412.007,478.336 407.173,493.169 393.5,505C 389.123,508.025 384.456,510.192 379.5,511.5C 263.167,511.5 146.833,511.5 30.5,511.5C 14.0905,506.583 4.59048,495.583 2,478.5C 1.33333,355.5 1.33333,232.5 2,109.5C 3.17795,101.147 6.51128,93.8136 12,87.5C 39.8908,58.9414 68.3908,31.108 97.5,4C 100.893,2.37997 104.226,0.879972 107.5,-0.5 Z"/></g>
<g><path style="opacity:1" fill="#f2f9fd" d="M 113.5,14.5 C 184.833,14.5 256.167,14.5 327.5,14.5C 331.318,18.1208 334.151,22.4541 336,27.5C 337.376,36.0979 337.876,44.7646 337.5,53.5C 335.821,53.1077 334.154,52.6077 332.5,52C 277.833,51.3333 223.167,51.3333 168.5,52C 163.667,54.1667 160.167,57.6667 158,62.5C 157.333,74.1667 157.333,85.8333 158,97.5C 159.963,103.731 164.13,107.564 170.5,109C 176.5,109.667 182.5,109.667 188.5,109C 192.046,107.744 194.046,105.244 194.5,101.5C 201.167,101.5 207.833,101.5 214.5,101.5C 214.625,105.063 216.292,107.563 219.5,109C 256.833,109.667 294.167,109.667 331.5,109C 332.745,108.209 334.078,107.709 335.5,107.5C 337.491,132.478 338.157,157.811 337.5,183.5C 326.529,191.103 321.029,201.77 321,215.5C 316.86,220.334 311.694,223.834 305.5,226C 294.744,234.353 290.91,245.186 294,258.5C 296.746,263.984 298.913,269.651 300.5,275.5C 299.449,281.6 297.282,287.267 294,292.5C 291.247,305.906 295.08,317.072 305.5,326C 310.242,328.12 314.742,330.62 319,333.5C 322.04,338.692 323.707,344.359 324,350.5C 326.443,358.101 330.943,364.101 337.5,368.5C 337.667,405.502 337.5,442.502 337,479.5C 335.375,486.089 332.208,491.756 327.5,496.5C 229.499,496.667 131.499,496.5 33.5,496C 25.6405,493.474 20.4739,488.307 18,480.5C 17.5,356.834 17.3333,233.167 17.5,109.5C 41.5023,109.667 65.5023,109.5 89.5,109C 101.753,106.248 109.086,98.7477 111.5,86.5C 112.176,62.5978 112.843,38.5978 113.5,14.5 Z"/></g>
<g><path style="opacity:1" fill="#e2f4fd" d="M 327.5,14.5 C 343.837,14.3334 360.17,14.5001 376.5,15C 384.667,17.8333 390.167,23.3333 393,31.5C 393.333,67.5 393.667,103.5 394,139.5C 394.374,140.416 394.874,141.25 395.5,142C 397.611,142.845 399.611,143.678 401.5,144.5C 401.5,150.833 401.5,157.167 401.5,163.5C 389.857,164.161 380.524,169.328 373.5,179C 371.913,179.862 370.246,180.529 368.5,181C 363.064,181.443 357.731,180.943 352.5,179.5C 347.124,179.629 342.124,180.962 337.5,183.5C 338.157,157.811 337.491,132.478 335.5,107.5C 339.614,104.879 342.447,101.212 344,96.5C 344.667,85.1667 344.667,73.8333 344,62.5C 342.389,59.0624 340.223,56.0624 337.5,53.5C 337.876,44.7646 337.376,36.0979 336,27.5C 334.151,22.4541 331.318,18.1208 327.5,14.5 Z"/></g>
<g><path style="opacity:1" fill="#84888a" d="M 113.5,14.5 C 112.843,38.5978 112.176,62.5978 111.5,86.5C 110.843,62.1434 111.51,38.1434 113.5,14.5 Z"/></g>
<g><path style="opacity:1" fill="#673a3d" d="M 95.5,26.5 C 95.56,25.9569 95.8933,25.6236 96.5,25.5C 97.8279,45.6627 97.8279,65.6627 96.5,85.5C 96.8304,65.6596 96.4971,45.9929 95.5,26.5 Z"/></g>
<g><path style="opacity:1" fill="#e17f85" d="M 95.5,26.5 C 96.4971,45.9929 96.8304,65.6596 96.5,85.5C 95.5,89.8333 92.8333,92.5 88.5,93.5C 68.6596,93.8304 48.9929,93.4971 29.5,92.5C 51.8333,70.8333 73.8333,48.8333 95.5,26.5 Z"/></g>
<g><path style="opacity:1" fill="#060607" d="M 337.5,53.5 C 340.223,56.0624 342.389,59.0624 344,62.5C 344.667,73.8333 344.667,85.1667 344,96.5C 342.447,101.212 339.614,104.879 335.5,107.5C 334.078,107.709 332.745,108.209 331.5,109C 294.167,109.667 256.833,109.667 219.5,109C 216.292,107.563 214.625,105.063 214.5,101.5C 214.744,98.7374 216.077,96.5707 218.5,95C 255.167,94.6667 291.833,94.3333 328.5,94C 329.485,84.9172 329.818,75.7506 329.5,66.5C 277.167,66.5 224.833,66.5 172.5,66.5C 172.5,75.8333 172.5,85.1667 172.5,94.5C 178.509,94.3338 184.509,94.5005 190.5,95C 192.923,96.5707 194.256,98.7374 194.5,101.5C 194.046,105.244 192.046,107.744 188.5,109C 182.5,109.667 176.5,109.667 170.5,109C 164.13,107.564 159.963,103.731 158,97.5C 157.333,85.8333 157.333,74.1667 158,62.5C 160.167,57.6667 163.667,54.1667 168.5,52C 223.167,51.3333 277.833,51.3333 332.5,52C 334.154,52.6077 335.821,53.1077 337.5,53.5 Z"/></g>
<g><path style="opacity:1" fill="#c9dffc" d="M 214.5,101.5 C 207.833,101.5 201.167,101.5 194.5,101.5C 194.256,98.7374 192.923,96.5707 190.5,95C 184.509,94.5005 178.509,94.3338 172.5,94.5C 172.5,85.1667 172.5,75.8333 172.5,66.5C 224.833,66.5 277.167,66.5 329.5,66.5C 329.818,75.7506 329.485,84.9172 328.5,94C 291.833,94.3333 255.167,94.6667 218.5,95C 216.077,96.5707 214.744,98.7374 214.5,101.5 Z"/></g>
<g><path style="opacity:1" fill="#945357" d="M 29.5,92.5 C 48.9929,93.4971 68.6596,93.8304 88.5,93.5C 68.6627,94.8279 48.6627,94.8279 28.5,93.5C 28.6236,92.8933 28.9569,92.56 29.5,92.5 Z"/></g>
<g><path style="opacity:0.98" fill="#030202" d="M 401.5,163.5 C 406.397,163.724 411.064,164.891 415.5,167C 420.833,171.333 426.167,175.667 431.5,180C 439.824,179.779 448.157,179.779 456.5,180C 466.085,182.583 472.918,188.416 477,197.5C 478.424,203.936 480.091,210.269 482,216.5C 487.077,220.624 492.577,224.124 498.5,227C 507.732,236.031 510.898,246.864 508,259.5C 504.885,264.619 502.718,270.119 501.5,276C 503.215,281.609 505.381,287.109 508,292.5C 511.286,311.757 503.786,324.923 485.5,332C 484.333,333.167 483.167,334.333 482,335.5C 480.091,341.731 478.424,348.064 477,354.5C 472.483,364.181 464.983,370.181 454.5,372.5C 453.667,396.493 453.167,420.493 453,444.5C 449.517,454.161 442.684,457.994 432.5,456C 422.144,450.157 411.811,444.323 401.5,438.5C 401.483,436.972 400.816,436.472 399.5,437C 389.799,443.516 379.799,449.516 369.5,455C 359.532,457.434 352.699,453.934 349,444.5C 348.5,420.169 348.333,395.836 348.5,371.5C 344.588,371.376 340.921,370.376 337.5,368.5C 330.943,364.101 326.443,358.101 324,350.5C 323.707,344.359 322.04,338.692 319,333.5C 314.742,330.62 310.242,328.12 305.5,326C 295.08,317.072 291.247,305.906 294,292.5C 297.282,287.267 299.449,281.6 300.5,275.5C 298.913,269.651 296.746,263.984 294,258.5C 290.91,245.186 294.744,234.353 305.5,226C 311.694,223.834 316.86,220.334 321,215.5C 321.029,201.77 326.529,191.103 337.5,183.5C 342.124,180.962 347.124,179.629 352.5,179.5C 357.731,180.943 363.064,181.443 368.5,181C 370.246,180.529 371.913,179.862 373.5,179C 380.524,169.328 389.857,164.161 401.5,163.5 Z"/></g>
<g><path style="opacity:1" fill="#fccd63" d="M 386.5,363.5 C 398.367,356.636 408.367,347.636 416.5,336.5C 438.564,330.272 453.398,316.272 461,294.5C 468.144,265.596 459.977,242.096 436.5,224C 430.054,220.141 423.387,216.975 416.5,214.5C 408.053,204.054 398.053,195.387 386.5,188.5C 390.807,180.521 397.474,177.688 406.5,180C 410.466,182.964 414.133,186.297 417.5,190C 427.161,196.881 437.661,198.381 449,194.5C 455.878,194.707 460.544,198.041 463,204.5C 463.592,221.854 472.092,233.354 488.5,239C 493.654,244.344 494.82,250.511 492,257.5C 483.211,270.658 483.545,283.658 493,296.5C 494.65,302.926 493.15,308.426 488.5,313C 473.103,318.044 464.937,328.544 464,344.5C 462.601,350.9 458.767,355.066 452.5,357C 446.65,357.033 440.817,356.533 435,355.5C 423.874,356.65 415.041,361.816 408.5,371C 398.831,374.891 391.498,372.391 386.5,363.5 Z"/></g>
<g><path style="opacity:1" fill="#000000" d="M 62.5,181.5 C 128.834,181.333 195.168,181.5 261.5,182C 265.696,184.981 266.529,188.814 264,193.5C 263.25,194.126 262.416,194.626 261.5,195C 195.167,195.667 128.833,195.667 62.5,195C 57.2475,190.506 57.2475,186.006 62.5,181.5 Z"/></g>
<g><path style="opacity:1" fill="#fbdd7b" d="M 386.5,188.5 C 398.053,195.387 408.053,204.054 416.5,214.5C 378.739,209.117 353.239,224.117 340,259.5C 333.879,293.424 346.046,318.257 376.5,334C 389.553,338.977 402.886,339.81 416.5,336.5C 408.367,347.636 398.367,356.636 386.5,363.5C 376.093,355.654 364.593,353.654 352,357.5C 340.913,355.031 335.913,348.031 337,336.5C 333.5,325 326,317.5 314.5,314C 310.066,310.8 307.733,306.466 307.5,301C 309.586,294.663 312.086,288.496 315,282.5C 315.851,276.747 315.517,271.08 314,265.5C 303.253,250.745 306.419,240.245 323.5,234C 333.212,227.077 338.045,217.577 338,205.5C 340.639,199.188 345.306,195.521 352,194.5C 361.355,197.512 370.522,197.012 379.5,193C 381.734,191.25 384.068,189.75 386.5,188.5 Z"/></g>
<g><path style="opacity:1" fill="#040301" d="M 416.5,214.5 C 423.387,216.975 430.054,220.141 436.5,224C 459.977,242.096 468.144,265.596 461,294.5C 453.398,316.272 438.564,330.272 416.5,336.5C 402.886,339.81 389.553,338.977 376.5,334C 346.046,318.257 333.879,293.424 340,259.5C 353.239,224.117 378.739,209.117 416.5,214.5 Z"/></g>
<g><path style="opacity:1" fill="#e6ad4c" d="M 432.5,240.5 C 431.957,240.56 431.624,240.893 431.5,241.5C 439.408,264.326 439.408,287.159 431.5,310C 431.57,310.765 431.903,311.265 432.5,311.5C 417.313,324.16 400.313,326.993 381.5,320C 356.802,306.244 348.302,285.744 356,258.5C 372.545,228.155 396.379,220.655 427.5,236C 429.24,237.517 430.906,239.017 432.5,240.5 Z"/></g>
<g><path style="opacity:1" fill="#050505" d="M 63.5,233.5 C 129.168,233.333 194.834,233.5 260.5,234C 266.759,238.167 267.092,242.833 261.5,248C 195.5,248.667 129.5,248.667 63.5,248C 60.3649,246.734 58.6983,244.401 58.5,241C 59.2993,237.896 60.966,235.396 63.5,233.5 Z"/></g>
<g><path style="opacity:1" fill="#e09f2d" d="M 432.5,240.5 C 448.596,255.56 452.763,273.56 445,294.5C 442.128,301.193 437.961,306.86 432.5,311.5C 431.903,311.265 431.57,310.765 431.5,310C 439.408,287.159 439.408,264.326 431.5,241.5C 431.624,240.893 431.957,240.56 432.5,240.5 Z"/></g>
<g><path style="opacity:1" fill="#030303" d="M 63.5,286.5 C 129.168,286.333 194.834,286.5 260.5,287C 265.626,289.553 266.793,293.386 264,298.5C 263.097,299.701 261.931,300.535 260.5,301C 194.833,301.667 129.167,301.667 63.5,301C 56.9137,296.122 56.9137,291.288 63.5,286.5 Z"/></g>
<g><path style="opacity:1" fill="#09090a" d="M 62.5,339.5 C 128.834,339.333 195.168,339.5 261.5,340C 265.696,342.981 266.529,346.814 264,351.5C 263.097,352.701 261.931,353.535 260.5,354C 195.167,354.667 129.833,354.667 64.5,354C 57.4516,349.987 56.7849,345.154 62.5,339.5 Z"/></g>
<g><path style="opacity:1" fill="#e2f4fd" d="M 337.5,368.5 C 340.921,370.376 344.588,371.376 348.5,371.5C 348.333,395.836 348.5,420.169 349,444.5C 352.699,453.934 359.532,457.434 369.5,455C 379.799,449.516 389.799,443.516 399.5,437C 400.816,436.472 401.483,436.972 401.5,438.5C 401.5,444.5 401.5,450.5 401.5,456.5C 397.91,456.544 395.41,458.211 394,461.5C 393.667,467.5 393.333,473.5 393,479.5C 390.167,487.667 384.667,493.167 376.5,496C 360.17,496.5 343.837,496.667 327.5,496.5C 332.208,491.756 335.375,486.089 337,479.5C 337.5,442.502 337.667,405.502 337.5,368.5 Z"/></g>
<g><path style="opacity:1" fill="#e4ab4b" d="M 363.5,370.5 C 367.059,370.408 370.392,371.241 373.5,373C 385.423,388.412 400.089,391.745 417.5,383C 421.578,378.251 426.245,374.251 431.5,371C 433.81,370.503 436.143,370.337 438.5,370.5C 438.989,394.316 438.489,417.983 437,441.5C 428.918,436.208 420.751,431.042 412.5,426C 406.147,421.184 399.48,420.517 392.5,424C 383.385,430.555 373.719,436.055 363.5,440.5C 363.5,417.167 363.5,393.833 363.5,370.5 Z"/></g>
<g><path style="opacity:1" fill="#050505" d="M 63.5,416.5 C 97.5016,416.333 131.502,416.5 165.5,417C 169.212,419.513 170.378,423.013 169,427.5C 167.786,429.049 166.286,430.215 164.5,431C 130.833,431.667 97.1667,431.667 63.5,431C 56.9137,426.122 56.9137,421.288 63.5,416.5 Z"/></g>
</svg>
