<?xml version="1.0" encoding="UTF-8"?>
<!DOCTYPE svg PUBLIC "-//W3C//DTD SVG 1.1//EN" "http://www.w3.org/Graphics/SVG/1.1/DTD/svg11.dtd">
<svg xmlns="http://www.w3.org/2000/svg" version="1.1" width="512px" height="512px" style="shape-rendering:geometricPrecision; text-rendering:geometricPrecision; image-rendering:optimizeQuality; fill-rule:evenodd; clip-rule:evenodd" xmlns:xlink="http://www.w3.org/1999/xlink">
<g><path style="opacity:0.965" fill="#020201" d="M 212.5,-0.5 C 225.167,-0.5 237.833,-0.5 250.5,-0.5C 327.004,11.4989 377.838,54.1655 403,127.5C 418.411,185.715 408.411,239.048 373,287.5C 360.342,300.158 350.009,314.491 342,330.5C 334.829,349.35 327.662,368.183 320.5,387C 329.077,386.243 332.91,390.077 332,398.5C 331.065,401.102 329.232,402.602 326.5,403C 318.173,403.5 309.84,403.666 301.5,403.5C 301.5,408.5 301.5,413.5 301.5,418.5C 307.602,419.105 310.102,422.438 309,428.5C 307.964,431.702 305.797,433.702 302.5,434.5C 302.41,442.296 300.577,449.63 297,456.5C 294.042,460.145 290.375,462.812 286,464.5C 283.911,489.08 271.077,504.746 247.5,511.5C 236.5,511.5 225.5,511.5 214.5,511.5C 190.885,504.312 178.218,488.312 176.5,463.5C 169.187,461.019 164.354,456.019 162,448.5C 161.501,443.845 161.334,439.179 161.5,434.5C 154.733,433.318 152.233,429.318 154,422.5C 155.715,419.603 158.215,418.269 161.5,418.5C 161.5,413.5 161.5,408.5 161.5,403.5C 152.06,403.945 142.726,403.445 133.5,402C 130.098,398.281 129.598,394.114 132,389.5C 134.904,387.773 138.07,387.107 141.5,387.5C 133.951,364.357 125.118,341.69 115,319.5C 112.333,315.5 109.667,311.5 107,307.5C 57.5617,255.752 41.8951,195.086 60,125.5C 65.2298,108.792 72.5631,93.1252 82,78.5C 85.4211,75.4637 89.2544,74.797 93.5,76.5C 93.6854,78.1958 94.5187,79.5291 96,80.5C 96.6667,82.1667 96.6667,83.8333 96,85.5C 60.6541,141.772 58.3207,199.439 89,258.5C 97.3048,272.762 107.305,285.762 119,297.5C 122.916,302.996 126.582,308.663 130,314.5C 138.859,334.583 147.026,354.916 154.5,375.5C 155.066,380.8 157.733,384.633 162.5,387C 176.167,387.333 189.833,387.667 203.5,388C 206.789,389.41 208.456,391.91 208.5,395.5C 208.556,398.561 207.222,400.728 204.5,402C 195.173,402.5 185.839,402.666 176.5,402.5C 176.5,407.833 176.5,413.167 176.5,418.5C 198.167,418.5 219.833,418.5 241.5,418.5C 256.167,418.5 270.833,418.5 285.5,418.5C 286.488,413.36 286.821,408.026 286.5,402.5C 269.167,402.5 251.833,402.5 234.5,402.5C 231.092,401.422 229.092,399.089 228.5,395.5C 229.053,392.413 230.72,389.913 233.5,388C 255.5,387.667 277.5,387.333 299.5,387C 301.305,386.028 302.972,384.861 304.5,383.5C 313.364,360.747 322.531,338.08 332,315.5C 340.211,301.754 349.878,289.087 361,277.5C 396.708,227.81 404.042,174.144 383,116.5C 368.508,82.8474 345.675,56.5141 314.5,37.5C 267.227,10.8994 218.227,7.39937 167.5,27C 148.095,35.6941 130.762,47.3607 115.5,62C 111.763,63.8889 108.096,63.7222 104.5,61.5C 103.011,57.7567 103.178,54.09 105,50.5C 135.123,21.5226 170.956,4.52263 212.5,-0.5 Z"/></g>
<g><path style="opacity:1" fill="#fdd301" d="M 314.5,37.5 C 315.949,41.4724 318.449,44.8057 322,47.5C 359.594,94.7986 370.594,147.799 355,206.5C 345.865,235.118 330.865,260.118 310,281.5C 306.419,286.328 303.085,291.328 300,296.5C 293.392,310.716 287.059,325.049 281,339.5C 268.868,358.329 251.702,369.829 229.5,374C 204.528,375.409 179.528,375.909 154.5,375.5C 147.026,354.916 138.859,334.583 130,314.5C 126.582,308.663 122.916,302.996 119,297.5C 107.305,285.762 97.3048,272.762 89,258.5C 58.3207,199.439 60.6541,141.772 96,85.5C 96.6667,83.8333 96.6667,82.1667 96,80.5C 94.5187,79.5291 93.6854,78.1958 93.5,76.5C 96.7557,71.2375 100.422,66.2375 104.5,61.5C 108.096,63.7222 111.763,63.8889 115.5,62C 130.762,47.3607 148.095,35.6941 167.5,27C 218.227,7.39937 267.227,10.8994 314.5,37.5 Z"/></g>
<g><path style="opacity:0.898" fill="#000000" d="M 389.5,23.5 C 399.329,21.8281 403.162,25.8281 401,35.5C 398.124,41.4232 394.624,46.9232 390.5,52C 382.331,53.8198 378.498,50.6531 379,42.5C 382.005,35.8178 385.505,29.4844 389.5,23.5 Z"/></g>
<g><path style="opacity:1" fill="#f8c500" d="M 314.5,37.5 C 345.675,56.5141 368.508,82.8474 383,116.5C 404.042,174.144 396.708,227.81 361,277.5C 349.878,289.087 340.211,301.754 332,315.5C 322.531,338.08 313.364,360.747 304.5,383.5C 302.972,384.861 301.305,386.028 299.5,387C 277.5,387.333 255.5,387.667 233.5,388C 230.72,389.913 229.053,392.413 228.5,395.5C 221.833,395.5 215.167,395.5 208.5,395.5C 208.456,391.91 206.789,389.41 203.5,388C 189.833,387.667 176.167,387.333 162.5,387C 157.733,384.633 155.066,380.8 154.5,375.5C 179.528,375.909 204.528,375.409 229.5,374C 251.702,369.829 268.868,358.329 281,339.5C 287.059,325.049 293.392,310.716 300,296.5C 303.085,291.328 306.419,286.328 310,281.5C 330.865,260.118 345.865,235.118 355,206.5C 370.594,147.799 359.594,94.7986 322,47.5C 318.449,44.8057 315.949,41.4724 314.5,37.5 Z"/></g>
<g><path style="opacity:0.891" fill="#000000" d="M 427.5,64.5 C 437.033,64.2409 440.199,68.5742 437,77.5C 431.923,81.6242 426.423,85.1242 420.5,88C 410.932,88.7611 407.765,84.5944 411,75.5C 416.651,71.934 422.151,68.2673 427.5,64.5 Z"/></g>
<g><path style="opacity:0.906" fill="#000000" d="M 431.5,116.5 C 439.174,116.334 446.841,116.5 454.5,117C 459.343,121.38 459.677,126.046 455.5,131C 447.913,132.563 440.246,132.896 432.5,132C 427.776,129.565 426.276,125.731 428,120.5C 429.376,119.295 430.542,117.962 431.5,116.5 Z"/></g>
<g><path style="opacity:1" fill="#030200" d="M 342.5,207.5 C 327.368,222.131 312.368,236.965 297.5,252C 294.408,252.736 291.408,252.569 288.5,251.5C 286.537,248.482 286.037,245.149 287,241.5C 301.333,227.167 315.667,212.833 330,198.5C 339.278,183.811 336.778,171.644 322.5,162C 319.232,160.85 315.899,160.016 312.5,159.5C 306.516,159.439 301.183,161.272 296.5,165C 273.472,188.362 250.139,211.362 226.5,234C 224.5,234.667 222.5,234.667 220.5,234C 207.439,220.27 193.772,207.27 179.5,195C 163.361,189.487 152.194,194.653 146,210.5C 144.791,216.886 145.791,222.886 149,228.5C 165.673,246.34 182.84,263.673 200.5,280.5C 207.431,290.966 217.097,295.466 229.5,294C 232.618,292.941 235.618,291.608 238.5,290C 247.167,281.333 255.833,272.667 264.5,264C 268.072,263.153 271.406,263.653 274.5,265.5C 275.987,268.913 275.82,272.247 274,275.5C 265.5,284 257,292.5 248.5,301C 232.105,312.176 215.772,312.176 199.5,301C 179.299,280.632 158.965,260.465 138.5,240.5C 125.302,218.963 128.302,200.129 147.5,184C 163.202,175.029 178.536,175.696 193.5,186C 203.667,196.167 213.833,206.333 224,216.5C 244.833,195.667 265.667,174.833 286.5,154C 303.447,141.567 320.447,141.567 337.5,154C 352.971,170.478 354.638,188.312 342.5,207.5 Z"/></g>
<g><path style="opacity:1" fill="#05e09a" d="M 312.5,159.5 C 313.799,170.105 310.632,179.105 303,186.5C 274.167,215.333 245.333,244.167 216.5,273C 212.035,277.399 206.702,279.899 200.5,280.5C 182.84,263.673 165.673,246.34 149,228.5C 145.791,222.886 144.791,216.886 146,210.5C 152.194,194.653 163.361,189.487 179.5,195C 193.772,207.27 207.439,220.27 220.5,234C 222.5,234.667 224.5,234.667 226.5,234C 250.139,211.362 273.472,188.362 296.5,165C 301.183,161.272 306.516,159.439 312.5,159.5 Z"/></g>
<g><path style="opacity:1" fill="#0ed08f" d="M 312.5,159.5 C 315.899,160.016 319.232,160.85 322.5,162C 336.778,171.644 339.278,183.811 330,198.5C 315.667,212.833 301.333,227.167 287,241.5C 286.037,245.149 286.537,248.482 288.5,251.5C 283.5,255.833 278.833,260.5 274.5,265.5C 271.406,263.653 268.072,263.153 264.5,264C 255.833,272.667 247.167,281.333 238.5,290C 235.618,291.608 232.618,292.941 229.5,294C 217.097,295.466 207.431,290.966 200.5,280.5C 206.702,279.899 212.035,277.399 216.5,273C 245.333,244.167 274.167,215.333 303,186.5C 310.632,179.105 313.799,170.105 312.5,159.5 Z"/></g>
<g><path style="opacity:1" fill="#f6c300" d="M 342.5,207.5 C 341.061,215.782 337.227,222.782 331,228.5C 301.714,258.117 271.881,287.617 241.5,317C 233.347,321.289 224.681,322.622 215.5,321C 211.888,319.861 208.554,318.194 205.5,316C 185,295.5 164.5,275 144,254.5C 140.77,250.375 138.937,245.708 138.5,240.5C 158.965,260.465 179.299,280.632 199.5,301C 215.772,312.176 232.105,312.176 248.5,301C 257,292.5 265.5,284 274,275.5C 275.82,272.247 275.987,268.913 274.5,265.5C 278.833,260.5 283.5,255.833 288.5,251.5C 291.408,252.569 294.408,252.736 297.5,252C 312.368,236.965 327.368,222.131 342.5,207.5 Z"/></g>
<g><path style="opacity:1" fill="#b0c8e9" d="M 208.5,395.5 C 215.167,395.5 221.833,395.5 228.5,395.5C 229.092,399.089 231.092,401.422 234.5,402.5C 239.975,403.489 245.642,403.822 251.5,403.5C 249.407,409.36 246.074,414.36 241.5,418.5C 219.833,418.5 198.167,418.5 176.5,418.5C 176.5,413.167 176.5,407.833 176.5,402.5C 185.839,402.666 195.173,402.5 204.5,402C 207.222,400.728 208.556,398.561 208.5,395.5 Z"/></g>
<g><path style="opacity:1" fill="#5d7797" d="M 234.5,402.5 C 251.833,402.5 269.167,402.5 286.5,402.5C 286.821,408.026 286.488,413.36 285.5,418.5C 285.5,413.5 285.5,408.5 285.5,403.5C 274.167,403.5 262.833,403.5 251.5,403.5C 245.642,403.822 239.975,403.489 234.5,402.5 Z"/></g>
<g><path style="opacity:1" fill="#82aee3" d="M 251.5,403.5 C 262.833,403.5 274.167,403.5 285.5,403.5C 285.5,408.5 285.5,413.5 285.5,418.5C 270.833,418.5 256.167,418.5 241.5,418.5C 246.074,414.36 249.407,409.36 251.5,403.5 Z"/></g>
<g><path style="opacity:1" fill="#536f91" d="M 176.5,434.5 C 212.996,433.502 249.663,433.168 286.5,433.5C 286.813,437.042 286.479,440.375 285.5,443.5C 285.5,440.5 285.5,437.5 285.5,434.5C 249.167,434.5 212.833,434.5 176.5,434.5 Z"/></g>
<g><path style="opacity:1" fill="#81ade2" d="M 176.5,434.5 C 212.833,434.5 249.167,434.5 285.5,434.5C 285.5,437.5 285.5,440.5 285.5,443.5C 285.262,446.148 283.928,447.982 281.5,449C 247.833,449.667 214.167,449.667 180.5,449C 178.951,447.786 177.785,446.286 177,444.5C 176.502,441.183 176.335,437.85 176.5,434.5 Z"/></g>
<g><path style="opacity:1" fill="#003d74" d="M 192.5,465.5 C 218.328,464.502 244.328,464.169 270.5,464.5C 270.795,466.735 270.461,468.735 269.5,470.5C 269.5,468.833 269.5,467.167 269.5,465.5C 243.833,465.5 218.167,465.5 192.5,465.5 Z"/></g>
<g><path style="opacity:1" fill="#0066c3" d="M 192.5,465.5 C 218.167,465.5 243.833,465.5 269.5,465.5C 269.5,467.167 269.5,468.833 269.5,470.5C 266.082,483.752 257.749,492.252 244.5,496C 235.5,496.667 226.5,496.667 217.5,496C 202.178,491.504 193.844,481.337 192.5,465.5 Z"/></g>
</svg>
