<?xml version="1.0" encoding="UTF-8"?>
<svg version="1.1" xmlns="http://www.w3.org/2000/svg" width="512" height="512">
<path d="M0 0 C0.95302671 -0.00367669 1.90605341 -0.00735338 2.88795972 -0.01114148 C6.10152033 -0.02220994 9.31504864 -0.0260275 12.52862549 -0.02983093 C14.82457584 -0.03609317 17.12052518 -0.04273976 19.41647339 -0.04974365 C25.66862101 -0.06717519 31.92076098 -0.07771119 38.1729269 -0.08594918 C42.07629722 -0.09109454 45.97966513 -0.09717047 49.88303375 -0.10346031 C60.68840139 -0.12033291 71.49376607 -0.13496796 82.29914474 -0.14220905 C85.10382844 -0.14411898 87.90851213 -0.14603931 90.7131958 -0.147995 C91.41029479 -0.14847874 92.10739378 -0.14896248 92.82561699 -0.14946087 C104.11850889 -0.15776141 115.41129487 -0.18309815 126.70414051 -0.21557567 C138.29590407 -0.24864129 149.88760831 -0.26632455 161.47941899 -0.26985329 C167.98875832 -0.27220759 174.49793029 -0.28121742 181.00722504 -0.30631447 C187.1303398 -0.3295406 193.25317636 -0.33385029 199.3763237 -0.32355309 C201.62494454 -0.32305629 203.87357883 -0.32941871 206.12215805 -0.34310913 C209.19001025 -0.36074395 212.25685495 -0.35376288 215.32470703 -0.34057617 C216.21634764 -0.35154542 217.10798826 -0.36251466 218.02664828 -0.37381631 C223.48369828 -0.31711396 226.58599682 0.51696112 230.9163208 4.14717102 C235.4594481 9.30423444 236.0829637 12.47289731 236.17266846 19.19844055 C236.18727112 20.03134613 236.20187378 20.86425171 236.21691895 21.72239685 C236.34351162 29.44889717 236.41184558 37.17644247 236.46476173 44.90376472 C236.50036787 50.08740026 236.55327362 55.26946393 236.65020752 60.4523468 C236.74382194 65.47341685 236.79181165 70.49310213 236.80915451 75.51499557 C236.82312328 77.41663854 236.85247274 79.31824119 236.89845657 81.21937943 C237.19307746 94.03959461 235.38460036 102.73093141 228.09891701 113.3898468 C226.11153529 116.34307294 224.34003534 119.41884893 222.52960205 122.48310852 C221.10268732 124.83356344 219.66538259 127.177603 218.2288208 129.52217102 C217.1378419 131.30865202 216.04765369 133.09561345 214.95762634 134.88267517 C213.97807372 136.48772149 212.99670893 138.09166148 212.01519775 139.69551086 C209.28920026 144.16347967 206.60528127 148.65685518 203.9163208 153.14717102 C204.57729263 153.13828857 205.23826447 153.12940613 205.91926575 153.12025452 C212.81378511 153.0315933 219.70814186 152.97135852 226.60308838 152.92744446 C229.17444439 152.90735954 231.74575489 152.88008623 234.31695557 152.84541321 C238.01816046 152.79676022 241.71876013 152.77417019 245.42022705 152.75654602 C247.13780968 152.72557831 247.13780968 152.72557831 248.89009094 152.69398499 C255.48374334 152.69214146 259.57714036 153.17040214 264.9163208 157.14717102 C269.67772661 162.28447729 270.06969239 166.38180868 270.09332275 173.1476593 C270.09989395 173.96269424 270.10646515 174.77772919 270.11323547 175.61746216 C270.13296011 178.31747024 270.14463131 181.01742263 270.15460205 183.71748352 C270.15867758 184.64126675 270.16275311 185.56504997 270.16695213 186.51682663 C270.18781271 191.40955634 270.20211257 196.30225803 270.21148682 201.19502258 C270.22253072 206.23539978 270.2569073 211.27533301 270.29665852 216.31555367 C270.32287875 220.2019174 270.33118361 224.08817642 270.3347683 227.97462082 C270.33962295 229.83165855 270.35120479 231.68869195 270.36980629 233.54564285 C270.54409687 252.10332171 270.54409687 252.10332171 265.9163208 259.14717102 C265.08620483 260.54225891 265.08620483 260.54225891 264.23931885 261.9655304 C263.3736731 263.21559875 263.3736731 263.21559875 262.49053955 264.49092102 C261.44132324 266.02426086 261.44132324 266.02426086 260.37091064 267.58857727 C259.98191589 268.15141418 259.59292114 268.7142511 259.19213867 269.29414368 C256.70615902 272.90483794 254.26370086 276.54518012 251.81085205 280.17842102 C250.66647967 281.86993476 249.52194345 283.56133767 248.3772583 285.25263977 C236.94860168 302.1473106 225.6124445 319.0974699 214.4163208 336.14717102 C203.5902951 352.63147299 192.62893604 369.01833944 181.5803833 385.35420227 C173.64566122 397.08780704 165.76066208 408.85296896 157.9163208 420.64717102 C147.41929816 436.42752483 136.84252227 452.15285138 126.22735596 467.85395813 C120.84908849 475.81206231 115.48138818 483.77564634 110.1897583 491.79170227 C109.76132629 492.43966766 109.33289429 493.08763306 108.89147949 493.75523376 C106.95470598 496.68538833 105.02365602 499.61897656 103.1038208 502.56025696 C102.45155518 503.54929016 101.79928955 504.53832336 101.1272583 505.55732727 C100.57344482 506.4043219 100.01963135 507.25131653 99.44903564 508.12397766 C97.9163208 510.14717102 97.9163208 510.14717102 94.9163208 512.14717102 C89.32615687 512.77831856 89.32615687 512.77831856 86.9163208 512.14717102 C83.76353386 509.56849446 82.11319079 508.00823762 81.19392395 503.98756409 C81.15073532 502.78758789 81.10754669 501.58761169 81.06304932 500.35127258 C81.03381378 499.67826048 81.00457825 499.00524837 80.97445679 498.31184196 C80.88657553 496.05377548 80.83823656 493.79714027 80.79522705 491.53779602 C80.77435469 490.74029812 80.75348232 489.94280022 80.73197746 489.12113571 C80.57030908 482.87988743 80.51403906 476.64023393 80.4788208 470.39717102 C80.47036133 469.47255821 80.46190186 468.5479454 80.45318604 467.59531403 C80.00813736 416.22849127 89.85269985 366.32909868 99.9163208 316.14717102 C98.60388901 316.15383286 97.29145721 316.16049469 95.93925476 316.1673584 C83.56518314 316.22819816 71.19114192 316.27315753 58.81695461 316.30260754 C52.45540058 316.31825709 46.0939674 316.33948276 39.73248291 316.37348938 C33.59222795 316.40610761 27.45208915 316.42402938 21.31175423 316.43180275 C18.97021723 316.43734179 16.62868651 316.44815814 14.28719902 316.46436119 C11.00514913 316.48616773 7.72357807 316.48913653 4.44146729 316.48774719 C3.47545593 316.49853302 2.50944458 316.50931885 1.51416016 316.52043152 C-5.57137158 316.48801894 -10.39275352 315.47930661 -15.8961792 310.70967102 C-19.20842297 306.82961403 -20.33282195 304.20216532 -20.3409481 299.09584999 C-20.347397 298.07095109 -20.35384589 297.04605218 -20.3604902 295.99009573 C-20.357393 294.86579197 -20.35429579 293.7414882 -20.35110474 292.58311462 C-20.35563585 291.38744948 -20.36016696 290.19178433 -20.36483538 288.95988691 C-20.37531824 285.63977518 -20.37680309 282.31987979 -20.37444663 278.99976683 C-20.37403886 275.41957765 -20.38507374 271.83942092 -20.39456177 268.25924683 C-20.41118123 261.24461244 -20.41667173 254.23001166 -20.41778652 247.21535923 C-20.41873652 241.51422301 -20.42284438 235.81309789 -20.42918777 230.11196518 C-20.44680251 213.9520903 -20.45602624 197.79224199 -20.45452683 181.63235743 C-20.45444691 180.76100568 -20.454367 179.88965393 -20.45428467 178.99189758 C-20.45420291 178.11948332 -20.45412115 177.24706906 -20.45403691 176.34821801 C-20.45322387 162.20695332 -20.47236545 148.06579511 -20.5005614 133.92456122 C-20.52927708 119.40825871 -20.54310243 104.89200815 -20.54137385 90.37567651 C-20.54070951 82.22430385 -20.54622113 74.07304281 -20.56772995 65.92169571 C-20.58592444 58.98187345 -20.59030341 52.04221343 -20.5767111 45.10237767 C-20.57017268 41.56132702 -20.57009528 38.02058777 -20.5874176 34.47956657 C-20.60600099 30.6412977 -20.59361655 26.80348559 -20.57815552 22.9651947 C-20.58844264 21.84535238 -20.59872977 20.72551006 -20.60932863 19.57173312 C-20.55457004 13.43886608 -20.20884934 9.7997883 -16.0836792 5.14717102 C-10.60302342 0.31897426 -7.14764869 -0.00146326 0 0 Z " fill="#010100" transform="translate(131.08367919921875,-0.1471710205078125)"/>
<path d="M0 0 C3.95006545 0.00667182 7.90013377 0.00686908 11.85020399 0.00802541 C19.18593587 0.01101957 26.52165113 0.01905394 33.85737598 0.0293749 C42.27005413 0.04092958 50.68273351 0.04614083 59.09541774 0.05107033 C76.2674021 0.06126164 93.4393707 0.0786033 110.61134291 0.10139394 C109.64907012 1.87041309 108.68621561 3.63911581 107.72311354 5.40768361 C107.18698596 6.39266363 106.65085838 7.37764365 106.09848452 8.39247155 C104.56659713 11.1829012 102.98419031 13.93315726 101.34181166 16.65998769 C100.77228773 17.60769032 100.20276381 18.55539296 99.61598158 19.53181386 C99.01632582 20.52415029 98.41667006 21.51648671 97.79884291 22.53889394 C97.15213636 23.61308583 96.50542982 24.68727773 95.83912611 25.79402089 C90.6590722 34.38942684 85.44827891 42.96619844 80.23350477 51.5405724 C74.28025405 61.32963603 68.37342173 71.14582055 62.48899794 80.97639394 C58.31882844 87.94262101 54.13470591 94.89962723 49.90821791 101.83186269 C49.52419813 102.46214375 49.14017836 103.09242482 48.74452162 103.74180532 C46.92235478 106.73165175 45.09741948 109.71974504 43.26759291 112.70490956 C40.16075575 117.79633069 37.09622656 122.90815824 34.16212416 128.10139394 C33.68170668 128.95088613 33.2012892 129.80037831 32.70631361 130.67561269 C30.37910943 135.83126503 30.93733099 140.22125542 32.79884291 145.41389394 C35.16956481 148.92910227 37.82415053 151.20779775 41.61134291 153.10139394 C42.97941481 153.2045462 44.3522619 153.24781462 45.72416639 153.25961232 C46.58515944 153.26940114 47.44615248 153.27918996 48.33323622 153.28927541 C49.279821 153.29503087 50.22640577 153.30078633 51.20167494 153.3067162 C52.19683119 153.3166158 53.19198744 153.3265154 54.21729994 153.33671498 C57.51789394 153.36838887 60.81850236 153.39311069 64.11915541 153.41780019 C66.40316604 153.43836463 68.68717283 153.45936096 70.97117567 153.48077321 C76.99141786 153.53604653 83.01169469 153.58543259 89.0319972 153.6336205 C95.1717585 153.68379716 101.31146929 153.73950321 107.45118666 153.79475331 C119.50452897 153.90239922 131.55791507 154.00382987 143.61134291 154.10139394 C142.21900609 156.93045252 140.72758464 159.56352786 138.99195814 162.19782948 C138.46569334 162.9987502 137.93942854 163.79967092 137.39721632 164.62486196 C136.82721403 165.4872347 136.25721174 166.34960744 135.66993666 167.23811269 C135.07556303 168.14076863 134.4811894 169.04342458 133.86880445 169.97343373 C131.93138604 172.9136239 129.99037131 175.85141641 128.04884291 178.78889394 C127.38497572 179.79467488 126.72110853 180.80045583 126.03712416 181.83671498 C117.52273121 194.73503732 108.95395852 207.58960051 100.22462416 220.34358144 C93.87238246 229.62908561 87.58913569 238.96136664 81.29884291 248.28889394 C80.66494642 249.22871114 80.03104994 250.16852834 79.37794447 251.13682485 C71.36814454 263.01456472 63.38475391 274.90908781 55.45545912 286.84071279 C50.2038851 294.74172707 44.91939134 302.6197327 39.60743666 310.48030019 C38.68358671 311.84747937 38.68358671 311.84747937 37.74107313 313.24227834 C35.21690149 316.97721042 32.69252135 320.71200114 30.16737318 324.44627309 C21.31410963 337.54325812 12.55264336 350.69386096 3.98023939 363.97663808 C2.92365126 365.60653676 2.92365126 365.60653676 1.84571791 367.26936269 C1.23953627 368.21062001 0.63335463 369.15187734 0.00880384 370.12165761 C-0.68293932 371.10162709 -0.68293932 371.10162709 -1.38865709 372.10139394 C-1.71865709 372.10139394 -2.04865709 372.10139394 -2.38865709 372.10139394 C-1.79606307 366.33988 -1.04951798 360.63473725 -0.0851903 354.92414784 C0.04186796 354.15975392 0.16892622 353.39536 0.29983473 352.60780263 C0.71772784 350.09745561 1.13909388 347.58770556 1.56056166 345.07795644 C1.85883305 343.29139773 2.15690942 341.50480645 2.45480299 339.71818471 C3.08126669 335.96399856 3.70931401 332.21008216 4.33863783 328.45637441 C5.12618974 323.75881545 5.9110768 319.06081697 6.69489622 314.36263394 C9.74504137 296.08202675 12.81838894 277.80553276 15.95118666 259.53889394 C16.0743343 258.82079171 16.19748194 258.10268949 16.32436132 257.36282659 C17.9084617 248.1323368 19.51243591 238.90564562 21.16603041 229.68733144 C22.22520576 221.44677284 22.22520576 221.44677284 19.86134291 213.72639394 C16.963402 210.34546288 14.83596405 208.50960099 10.61134291 207.10139394 C8.94947456 207.00007625 7.28389843 206.95515333 5.61898756 206.94317555 C4.07622381 206.92851451 4.07622381 206.92851451 2.50229311 206.91355729 C1.37014722 206.90778704 0.23800133 206.90201678 -0.92845201 206.89607167 C-2.13810027 206.88603895 -3.34774853 206.87600623 -4.59405279 206.86566949 C-8.5190575 206.83422675 -12.44407229 206.80948944 -16.36912584 206.78498769 C-18.78860352 206.76658958 -21.20807791 206.74775319 -23.62754869 206.72846913 C-32.61037917 206.65995854 -41.59327283 206.5999461 -50.57615709 206.53889394 C-70.64428209 206.39451894 -90.71240709 206.25014394 -111.38865709 206.10139394 C-111.38865709 138.45139394 -111.38865709 70.80139394 -111.38865709 1.10139394 C-26.01334328 -0.05232652 -26.01334328 -0.05232652 0 0 Z " fill="#FEEA39" transform="translate(239.3886570930481,15.898606061935425)"/>
<path d="M0 0 C0.33 0 0.66 0 1 0 C1.2503167 6.11542961 1.43007651 12.22777646 1.54931641 18.34716797 C1.5990972 20.42093942 1.66695318 22.49436946 1.75439453 24.56689453 C2.33313033 38.65400465 1.1494923 47.92485636 -7.59594727 59.16522217 C-9.43423283 61.56744362 -11.08442343 64.0729231 -12.7449646 66.59979248 C-14.44213896 69.17765125 -16.18375611 71.72429986 -17.92266846 74.27410889 C-19.38033341 76.41198762 -20.83392155 78.55259211 -22.28662109 80.69384766 C-24.4093257 83.82245329 -26.53309018 86.95033468 -28.65771484 90.07763672 C-34.49242915 98.66844938 -40.31292946 107.26885379 -46.125 115.875 C-46.73203766 116.77376862 -47.33907532 117.67253723 -47.96450806 118.59854126 C-57.8487413 133.24214549 -67.5994269 147.97016405 -77.29776001 162.73736572 C-89.47124661 181.26828521 -101.85995668 199.64977774 -114.28292847 218.01400757 C-118.80199816 224.69791104 -123.28587018 231.40428962 -127.75 238.125 C-132.89606391 245.86283659 -138.06530748 253.58459571 -143.27429199 261.2802124 C-144.04361334 262.41764381 -144.81178088 263.55585655 -145.57873535 264.69488525 C-146.63118389 266.25717709 -147.68851054 267.81617947 -148.74609375 269.375 C-149.35122803 270.26960938 -149.9563623 271.16421875 -150.57983398 272.0859375 C-151.28281616 273.03339844 -151.28281616 273.03339844 -152 274 C-152.33 274 -152.66 274 -153 274 C-153.20432886 267.5084467 -153.34355041 261.01773394 -153.43945312 254.52368164 C-153.47946601 252.31893938 -153.53389642 250.11440644 -153.60351562 247.91040039 C-154.27399145 226.12486615 -154.27399145 226.12486615 -147.65673828 218.9519043 C-144.01440643 214.90490609 -141.21082186 210.42921173 -138.26171875 205.86328125 C-137.01725552 203.966154 -135.77179456 202.0696809 -134.52539062 200.17382812 C-133.24586668 198.22020078 -131.96657085 196.26642402 -130.6875 194.3125 C-116.2053715 172.20644211 -116.2053715 172.20644211 -109.14361572 162.00283813 C-102.99506676 153.11868094 -96.97503411 144.14728571 -90.9375 135.1875 C-89.97783325 133.7641333 -89.97783325 133.7641333 -88.9987793 132.31201172 C-80.95289125 120.3778619 -72.93293969 108.4275463 -64.96655273 96.44018555 C-57.23075153 84.81468648 -49.40732573 73.24831326 -41.59283447 61.67562866 C-33.9864096 50.41018898 -26.40016905 39.13238575 -18.875 27.8125 C-14.09297772 20.62499876 -9.3047865 13.44264777 -4.4375 6.3125 C-3.98938965 5.65161377 -3.5412793 4.99072754 -3.07958984 4.30981445 C-2.07975737 2.85450275 -1.04434321 1.42370797 0 0 Z " fill="#FBB000" transform="translate(383,201)"/>
<path d="M0 0 C38.61 0 77.22 0 117 0 C114.69745111 18.42039109 114.69745111 18.42039109 113.5625 24.90234375 C113.43689697 25.6352211 113.31129395 26.36809845 113.18188477 27.1231842 C112.92149677 28.63784248 112.65939082 30.15220648 112.39550781 31.66625977 C111.99613519 33.95969403 111.60315511 36.25416047 111.2109375 38.54882812 C110.95349535 40.04173058 110.69569583 41.53457146 110.4375 43.02734375 C110.322854 43.69628159 110.20820801 44.36521942 110.09008789 45.0544281 C109.21164172 50.07202192 108.13784049 55.03518379 107 60 C71.32413072 60.77923906 35.68564478 61.0988522 0 61 C0 40.87 0 20.74 0 0 Z " fill="#FCB100" transform="translate(128,238)"/>
<path d="M0 0 C32.34 0 64.68 0 98 0 C96.55392776 2.89214448 95.14339176 5.42092612 93.38061523 8.09643555 C92.85435043 8.89735626 92.32808563 9.69827698 91.78587341 10.52346802 C90.93086998 11.81702713 90.93086998 11.81702713 90.05859375 13.13671875 C89.46422012 14.03937469 88.8698465 14.94203064 88.25746155 15.87203979 C86.32004313 18.81222996 84.37902841 21.75002247 82.4375 24.6875 C81.77363281 25.69328094 81.10976563 26.69906189 80.42578125 27.73532104 C71.9113883 40.63364338 63.34261562 53.48820657 54.61328125 66.2421875 C48.26103955 75.52769167 41.97779279 84.85997271 35.6875 94.1875 C35.05360352 95.1273172 34.41970703 96.0671344 33.76660156 97.03543091 C25.75680163 108.91317078 17.77341101 120.80769387 9.84411621 132.73931885 C4.59254219 140.64033314 -0.69195157 148.51833876 -6.00390625 156.37890625 C-6.61980621 157.29035904 -7.23570618 158.20181183 -7.87026978 159.1408844 C-10.39444142 162.87581648 -12.91882156 166.61060721 -15.44396973 170.34487915 C-24.29723327 183.44186418 -33.05869954 196.59246702 -41.63110352 209.87524414 C-42.33549561 210.96184326 -43.0398877 212.04844238 -43.765625 213.16796875 C-44.37180664 214.10922607 -44.97798828 215.0504834 -45.60253906 216.02026367 C-46.29428223 217.00023315 -46.29428223 217.00023315 -47 218 C-47.33 218 -47.66 218 -48 218 C-47.23113685 210.66085176 -46.27029952 203.36184263 -45.1875 196.0625 C-45.03474609 194.92748047 -44.88199219 193.79246094 -44.72460938 192.62304688 C-44.56154297 191.54216797 -44.39847656 190.46128906 -44.23046875 189.34765625 C-44.02006958 187.87824585 -44.02006958 187.87824585 -43.80541992 186.37915039 C-43.40673706 185.20147095 -43.40673706 185.20147095 -43 184 C-42.07118011 183.54815842 -42.07118011 183.54815842 -41.12359619 183.08718872 C-38.59962929 181.79502764 -37.7494809 180.59116582 -36.21704102 178.22583008 C-35.70367691 177.44388275 -35.19031281 176.66193542 -34.66139221 175.85629272 C-34.11442184 175.00266144 -33.56745148 174.14903015 -33.00390625 173.26953125 C-32.42329941 172.38045074 -31.84269257 171.49137024 -31.24449158 170.5753479 C-29.99488651 168.65986974 -28.74947475 166.74165082 -27.5078125 164.8210144 C-24.88284735 160.76138621 -22.23727928 156.71535362 -19.59225464 152.66877747 C-18.2611519 150.63228742 -16.93101442 148.59516612 -15.60183716 146.55741882 C-10.3168205 138.46042446 -4.94496255 130.42755448 0.5 122.4375 C1.32088933 121.23101727 2.14168918 120.02447366 2.96240234 118.81787109 C4.23688646 116.94442896 5.51152158 115.07109088 6.78674316 113.19815063 C13.07220605 103.96279985 19.31603357 94.69924905 25.5625 85.4375 C26.49822342 84.05020691 26.49822342 84.05020691 27.45285034 82.6348877 C37.14662895 68.2600889 46.79699778 53.85724414 56.39486694 39.41825867 C59.4676975 34.79663438 62.54931675 30.18091998 65.6328125 25.56640625 C67.03146483 23.47234177 68.43003299 21.3782211 69.82858276 19.28408813 C70.72691712 17.93942107 71.62561289 16.59499538 72.52468872 15.25082397 C73.76099596 13.402288 74.99588777 11.55281416 76.23046875 9.703125 C76.93582764 8.64770508 77.64118652 7.59228516 78.36791992 6.50488281 C79.98061055 4.13342681 79.98061055 4.13342681 81 2 C54.27 1.67 27.54 1.34 0 1 C0 0.67 0 0.34 0 0 Z " fill="#F6D332" transform="translate(285,170)"/>
<path d="M0 0 C48.84 0 97.68 0 148 0 C141.2474996 12.37958406 141.2474996 12.37958406 138.73046875 16.55859375 C138.16094482 17.50629639 137.5914209 18.45399902 137.00463867 19.43041992 C136.40498291 20.42275635 135.80532715 21.41509277 135.1875 22.4375 C134.54079346 23.51169189 133.89408691 24.58588379 133.2277832 25.69262695 C128.04772929 34.28803291 122.836936 42.8648045 117.62216187 51.43917847 C111.66891114 61.22824209 105.76207882 71.04442661 99.87765503 80.875 C95.70748553 87.84122707 91.52336301 94.79823329 87.296875 101.73046875 C86.91285522 102.36074982 86.52883545 102.99103088 86.13317871 103.64041138 C84.31101187 106.63025781 82.48607658 109.61835111 80.65625 112.60351562 C77.55011893 117.69377963 74.48357632 122.80423002 71.54296875 127.9921875 C71.06110107 128.84022949 70.5792334 129.68827148 70.08276367 130.56201172 C67.78915757 135.72637486 68.56616133 140.70309185 70 146 C67.93816367 146.08150744 65.87538651 146.1394194 63.8125 146.1875 C62.66394531 146.22230469 61.51539063 146.25710937 60.33203125 146.29296875 C56.6955965 145.97323533 54.8894086 145.18158273 52 143 C50.57249412 140.14498823 50.72795431 138.17922376 51 135 C52.46655273 131.81958008 52.46655273 131.81958008 54.49609375 128.45703125 C54.8575499 127.85018997 55.21900604 127.24334869 55.59141541 126.61811829 C56.71538412 124.73772437 57.85672589 122.86870278 59 121 C59.99604248 119.33976807 59.99604248 119.33976807 61.01220703 117.64599609 C63.0143571 114.31739045 65.03608123 111.00138032 67.0625 107.6875 C68.56493557 105.22334605 70.06577405 102.75822125 71.56640625 100.29296875 C71.94105011 99.67779388 72.31569397 99.06261902 72.70169067 98.42880249 C76.32868869 92.46902943 79.91752866 86.48663083 83.5 80.5 C88.36516564 72.37184143 93.26472875 64.26549462 98.19204712 56.17489624 C104.9653454 45.05161922 111.66552686 33.88674855 118.3125 22.6875 C118.72109253 21.99937225 119.12968506 21.31124451 119.55065918 20.6022644 C123.41376684 14.09360632 127.24456947 7.57200343 131 1 C87.77 1 44.54 1 0 1 C0 0.67 0 0.34 0 0 Z " fill="#F3D032" transform="translate(202,16)"/>
<path d="M0 0 C0.33 0 0.66 0 1 0 C3.04091206 27.19492233 3.25571912 47.03214385 -13.79394531 69.06201172 C-17.13116523 73.50646772 -19.84897279 78.25675763 -22.625 83.0625 C-23.6025584 84.642923 -24.58163141 86.22241054 -25.5625 87.80078125 C-27.17633723 90.45678859 -28.26975124 92.71959208 -29.375 95.66796875 C-30.79641111 99.17263551 -32.04411714 100.66453756 -35 103 C-37.92504883 103.58959961 -37.92504883 103.58959961 -41.20703125 103.65234375 C-42.38120605 103.67780273 -43.55538086 103.70326172 -44.76513672 103.72949219 C-50.19154512 103.66744311 -55.58954542 103.4150279 -61 103 C-59.75052431 99.71162188 -58.3539948 96.70694453 -56.55859375 93.68359375 C-56.06609131 92.85134277 -55.57358887 92.0190918 -55.06616211 91.16162109 C-54.52870361 90.26266113 -53.99124512 89.36370117 -53.4375 88.4375 C-52.8710376 87.48439941 -52.3045752 86.53129883 -51.72094727 85.54931641 C-45.92009808 75.8143786 -40.02982121 66.13349133 -34.13807678 56.45341492 C-30.40271436 50.31574109 -26.68871156 44.16584005 -23 38 C-21.00187255 34.66554076 -19.00160316 31.33237398 -17 28 C-16.65890198 27.4320874 -16.31780396 26.8641748 -15.96636963 26.27905273 C-13.64342045 22.41295153 -11.31567941 18.54978459 -8.9831543 14.68945312 C-8.20515752 13.40052582 -7.4284558 12.11081589 -6.65307617 10.8203125 C-5.57031278 9.01874372 -4.48300062 7.22000039 -3.39453125 5.421875 C-2.44864136 3.85324707 -2.44864136 3.85324707 -1.48364258 2.25292969 C-0.7492395 1.13772949 -0.7492395 1.13772949 0 0 Z " fill="#FCB000" transform="translate(349,50)"/>
<path d="M0 0 C2.67558329 1.9775049 4.65594312 3.57686684 5.46303177 6.91525269 C5.65154608 9.26780958 5.67559815 11.57357154 5.64697266 13.93359375 C5.66011505 15.26863449 5.66011505 15.26863449 5.67352295 16.63064575 C5.69549348 19.5667627 5.68097254 22.50136828 5.6640625 25.4375 C5.66743131 27.48104135 5.67228446 29.52458074 5.67855835 31.56811523 C5.68592651 35.84866432 5.67522576 40.12869134 5.65185547 44.40917969 C5.62336801 49.89403335 5.63977224 55.37766374 5.66971779 60.86247253 C5.68779212 65.08159591 5.68203205 69.30042963 5.66907883 73.51956177 C5.6657452 75.54175969 5.66983034 77.56398399 5.68147659 79.58615112 C5.69418736 82.4136106 5.67480526 85.23909386 5.64697266 88.06640625 C5.65709381 88.90084259 5.66721497 89.73527893 5.67764282 90.59500122 C5.60004015 94.85378021 5.35864975 96.53219556 2.68222046 100.02319336 C0 102 0 102 -3.5625 102.5625 C-7.49416151 101.91913721 -8.65590239 101.15551602 -11 98 C-12.27593011 94.17220967 -12.16381597 90.55849757 -12.17700195 86.56884766 C-12.18357315 85.70837326 -12.19014435 84.84789886 -12.19691467 83.96134949 C-12.21663479 81.11225295 -12.22830617 78.26320903 -12.23828125 75.4140625 C-12.24235678 74.44115643 -12.2464323 73.46825035 -12.25063133 72.46586227 C-12.27148456 67.31838951 -12.28579066 62.17094336 -12.29516602 57.0234375 C-12.30624107 51.70466925 -12.34065578 46.38631813 -12.38033772 41.06769753 C-12.40646553 36.97904679 -12.41485434 32.89049614 -12.41844749 28.80176926 C-12.42332179 26.84094799 -12.43495969 24.88013144 -12.45348549 22.91939163 C-12.47779991 20.17590341 -12.47692631 17.4335041 -12.4699707 14.68994141 C-12.48278076 13.88041519 -12.49559082 13.07088898 -12.50878906 12.23683167 C-12.47375276 8.44551786 -12.1575256 6.24655051 -10.09562683 3.01937866 C-6.7758648 -0.17959575 -4.57564413 -0.53831107 0 0 Z " fill="#040401" transform="translate(157,34)"/>
<path d="M0 0 C3.9375 0.5625 3.9375 0.5625 6.15039062 2.02368164 C8.81673911 5.81157206 8.51137296 9.21637067 8.46875 13.74609375 C8.4725769 14.63861343 8.47640381 15.53113312 8.48034668 16.45069885 C8.48306546 18.33604054 8.47570659 20.22141997 8.45898438 22.10668945 C8.43759876 24.98669978 8.45877341 27.86420845 8.484375 30.74414062 C8.48173122 32.57813049 8.47660521 34.4121188 8.46875 36.24609375 C8.47684692 37.10456406 8.48494385 37.96303436 8.49328613 38.84751892 C8.42927773 42.9471499 8.25592581 45.0547135 6.02929688 48.60546875 C3.77149891 50.71780634 2.97426022 51.22582993 -0.0625 51.125 C-3.0997083 50.93270003 -3.96720089 50.63336344 -6.5 48.75 C-10.70358942 42.86497481 -9.36525782 34.34467923 -9.41259766 27.37548828 C-9.42916727 25.58694455 -9.45647079 23.79846731 -9.49462891 22.01025391 C-9.54945586 19.42575902 -9.57127694 16.8428109 -9.5859375 14.2578125 C-9.60860687 13.46182648 -9.63127625 12.66584045 -9.65463257 11.84573364 C-9.6383739 7.56303988 -9.43660212 6.03046041 -6.66088867 2.55834961 C-4.11254462 0.60093979 -3.13815822 -0.10606101 0 0 Z " fill="#040401" transform="translate(154.0625,153.4375)"/>
</svg>
