<?xml version="1.0" encoding="UTF-8"?>
<!DOCTYPE svg PUBLIC "-//W3C//DTD SVG 1.1//EN" "http://www.w3.org/Graphics/SVG/1.1/DTD/svg11.dtd">
<svg xmlns="http://www.w3.org/2000/svg" version="1.1" width="512px" height="512px" style="shape-rendering:geometricPrecision; text-rendering:geometricPrecision; image-rendering:optimizeQuality; fill-rule:evenodd; clip-rule:evenodd" xmlns:xlink="http://www.w3.org/1999/xlink">
<g><path style="opacity:0.975" fill="#020101" d="M 238.5,-0.5 C 249.833,-0.5 261.167,-0.5 272.5,-0.5C 342.154,12.321 383.321,53.6543 396,123.5C 396.5,143.164 396.667,162.831 396.5,182.5C 418.378,188.214 431.544,202.214 436,224.5C 436.667,241.833 436.667,259.167 436,276.5C 434.208,284.757 429.541,290.757 422,294.5C 421.5,339.499 421.333,384.499 421.5,429.5C 429.001,431.772 433.834,436.772 436,444.5C 436.912,456.225 436.579,467.892 435,479.5C 429.35,496.656 417.85,507.322 400.5,511.5C 389.833,511.5 379.167,511.5 368.5,511.5C 361.44,508.942 356.44,504.109 353.5,497C 347.5,496.667 341.5,496.333 335.5,496C 332.778,494.728 331.444,492.561 331.5,489.5C 331.544,485.91 333.211,483.41 336.5,482C 342.157,481.501 347.824,481.334 353.5,481.5C 348.595,461.37 354.262,445.203 370.5,433C 373.674,431.275 377.007,429.942 380.5,429C 388.827,428.5 397.16,428.334 405.5,428.5C 405.5,384.5 405.5,340.5 405.5,296.5C 394.162,296.667 382.828,296.5 371.5,296C 360.305,292.807 352.139,285.973 347,275.5C 344.389,267.496 342.889,259.33 342.5,251C 287.168,250.5 231.834,250.333 176.5,250.5C 173.552,250.223 170.719,250.556 168,251.5C 169.723,274.269 159.889,289.103 138.5,296C 127.505,296.5 116.505,296.667 105.5,296.5C 105.5,340.5 105.5,384.5 105.5,428.5C 114.9,428.114 124.234,428.614 133.5,430C 145.064,434.565 152.898,442.732 157,454.5C 157.5,463.494 157.666,472.494 157.5,481.5C 183.833,481.5 210.167,481.5 236.5,481.5C 259.502,481.333 282.502,481.5 305.5,482C 308.892,483.542 310.892,486.042 311.5,489.5C 310.999,492.155 309.666,494.322 307.5,496C 257.5,496.333 207.5,496.667 157.5,497C 154.56,504.109 149.56,508.942 142.5,511.5C 131.833,511.5 121.167,511.5 110.5,511.5C 93.1499,507.322 81.6499,496.656 76,479.5C 74.4213,467.892 74.088,456.225 75,444.5C 76.7158,436.344 81.5492,431.344 89.5,429.5C 89.6667,384.499 89.5,339.499 89,294.5C 81.4585,290.757 76.7919,284.757 75,276.5C 74.3333,258.833 74.3333,241.167 75,223.5C 79.9067,201.762 93.0734,188.095 114.5,182.5C 114.333,162.831 114.5,143.164 115,123.5C 118.518,94.9825 129.685,70.1492 148.5,49C 151.221,48.3985 153.887,48.5651 156.5,49.5C 156.685,51.1958 157.519,52.5291 159,53.5C 159.667,55.1667 159.667,56.8333 159,58.5C 137.02,86.2798 127.187,117.946 129.5,153.5C 129.5,162.5 129.5,171.5 129.5,180.5C 148.993,181.497 168.66,181.83 188.5,181.5C 188.5,165.167 188.5,148.833 188.5,132.5C 195.421,95.9097 217.421,76.243 254.5,73.5C 292.655,75.3216 315.321,94.9883 322.5,132.5C 322.5,148.833 322.5,165.167 322.5,181.5C 342.34,181.83 362.007,181.497 381.5,180.5C 381.5,171.5 381.5,162.5 381.5,153.5C 384.124,99.2361 362.457,58.0694 316.5,30C 269.324,6.69295 223.991,9.69295 180.5,39C 178.833,39.6667 177.167,39.6667 175.5,39C 173.922,37.9055 172.255,37.0722 170.5,36.5C 169.267,33.3945 169.433,30.3945 171,27.5C 190.963,12.0134 213.463,2.68004 238.5,-0.5 Z M 248.5,88.5 C 274.53,87.0897 293.03,98.0897 304,121.5C 305.313,125.42 306.313,129.42 307,133.5C 307.5,149.163 307.667,164.83 307.5,180.5C 272.833,180.5 238.167,180.5 203.5,180.5C 203.333,164.83 203.5,149.163 204,133.5C 209.013,108.654 223.847,93.6538 248.5,88.5 Z"/></g>
<g><path style="opacity:1" fill="#ecbf75" d="M 381.5,153.5 C 362.167,153.5 342.833,153.5 323.5,153.5C 323.825,146.313 323.491,139.313 322.5,132.5C 315.321,94.9883 292.655,75.3216 254.5,73.5C 217.421,76.243 195.421,95.9097 188.5,132.5C 187.509,139.313 187.175,146.313 187.5,153.5C 168.167,153.5 148.833,153.5 129.5,153.5C 127.187,117.946 137.02,86.2798 159,58.5C 159.667,56.8333 159.667,55.1667 159,53.5C 157.519,52.5291 156.685,51.1958 156.5,49.5C 161.193,45.1386 165.859,40.8052 170.5,36.5C 172.255,37.0722 173.922,37.9055 175.5,39C 177.167,39.6667 178.833,39.6667 180.5,39C 223.991,9.69295 269.324,6.69295 316.5,30C 362.457,58.0694 384.124,99.2361 381.5,153.5 Z"/></g>
<g><path style="opacity:1" fill="#f09a60" d="M 129.5,153.5 C 148.833,153.5 168.167,153.5 187.5,153.5C 187.5,162.5 187.5,171.5 187.5,180.5C 168.167,180.5 148.833,180.5 129.5,180.5C 129.5,171.5 129.5,162.5 129.5,153.5 Z"/></g>
<g><path style="opacity:1" fill="#f09a60" d="M 323.5,153.5 C 342.833,153.5 362.167,153.5 381.5,153.5C 381.5,162.5 381.5,171.5 381.5,180.5C 362.167,180.5 342.833,180.5 323.5,180.5C 323.5,171.5 323.5,162.5 323.5,153.5 Z"/></g>
<g><path style="opacity:1" fill="#99643d" d="M 188.5,132.5 C 188.5,148.833 188.5,165.167 188.5,181.5C 168.66,181.83 148.993,181.497 129.5,180.5C 148.833,180.5 168.167,180.5 187.5,180.5C 187.5,171.5 187.5,162.5 187.5,153.5C 187.175,146.313 187.509,139.313 188.5,132.5 Z"/></g>
<g><path style="opacity:1" fill="#99643d" d="M 322.5,132.5 C 323.491,139.313 323.825,146.313 323.5,153.5C 323.5,162.5 323.5,171.5 323.5,180.5C 342.833,180.5 362.167,180.5 381.5,180.5C 362.007,181.497 342.34,181.83 322.5,181.5C 322.5,165.167 322.5,148.833 322.5,132.5 Z"/></g>
<g><path style="opacity:1" fill="#7f7ace" d="M 118.5,196.5 C 209.834,196.333 301.167,196.5 392.5,197C 407.725,201.27 417.225,211.103 421,226.5C 421.667,241.833 421.667,257.167 421,272.5C 420.27,276.896 417.77,279.73 413.5,281C 400.167,281.667 386.833,281.667 373.5,281C 366.242,278.076 361.408,272.909 359,265.5C 358.667,259.5 358.333,253.5 358,247.5C 355.438,241.939 351.272,238.106 345.5,236C 285.5,235.333 225.5,235.333 165.5,236C 159.753,238.079 155.586,241.912 153,247.5C 152.667,253.5 152.333,259.5 152,265.5C 149.592,272.909 144.758,278.076 137.5,281C 123.833,281.667 110.167,281.667 96.5,281C 92.8345,279.332 90.6678,276.499 90,272.5C 89.0592,255.78 89.3925,239.113 91,222.5C 95.9011,209.164 105.068,200.497 118.5,196.5 Z"/></g>
<g><path style="opacity:1" fill="#edbf75" d="M 176.5,250.5 C 175.697,265.152 175.363,279.819 175.5,294.5C 176.791,294.263 177.791,294.596 178.5,295.5C 174.727,294.822 171.894,296.156 170,299.5C 168.954,306.703 169.454,313.703 171.5,320.5C 156.929,319.864 146.762,326.198 141,339.5C 140.283,352.792 146.117,361.959 158.5,367C 166.122,370.097 173.789,370.264 181.5,367.5C 185.317,412.469 203.651,450.469 236.5,481.5C 210.167,481.5 183.833,481.5 157.5,481.5C 157.666,472.494 157.5,463.494 157,454.5C 152.898,442.732 145.064,434.565 133.5,430C 124.234,428.614 114.9,428.114 105.5,428.5C 105.5,384.5 105.5,340.5 105.5,296.5C 116.505,296.667 127.505,296.5 138.5,296C 159.889,289.103 169.723,274.269 168,251.5C 170.719,250.556 173.552,250.223 176.5,250.5 Z"/></g>
<g><path style="opacity:1" fill="#f4e971" d="M 176.5,250.5 C 231.834,250.333 287.168,250.5 342.5,251C 342.889,259.33 344.389,267.496 347,275.5C 352.139,285.973 360.305,292.807 371.5,296C 382.828,296.5 394.162,296.667 405.5,296.5C 405.5,340.5 405.5,384.5 405.5,428.5C 397.16,428.334 388.827,428.5 380.5,429C 377.007,429.942 373.674,431.275 370.5,433C 354.262,445.203 348.595,461.37 353.5,481.5C 347.824,481.334 342.157,481.501 336.5,482C 333.211,483.41 331.544,485.91 331.5,489.5C 324.833,489.5 318.167,489.5 311.5,489.5C 310.892,486.042 308.892,483.542 305.5,482C 282.502,481.5 259.502,481.333 236.5,481.5C 203.651,450.469 185.317,412.469 181.5,367.5C 200.16,362.055 205.994,350.388 199,332.5C 194.195,326.859 188.361,322.859 181.5,320.5C 182.558,319.4 183.392,318.066 184,316.5C 184.667,311.167 184.667,305.833 184,300.5C 182.945,297.944 181.112,296.277 178.5,295.5C 177.791,294.596 176.791,294.263 175.5,294.5C 175.363,279.819 175.697,265.152 176.5,250.5 Z"/></g>
<g><path style="opacity:1" fill="#070603" d="M 178.5,295.5 C 181.112,296.277 182.945,297.944 184,300.5C 184.667,305.833 184.667,311.167 184,316.5C 183.392,318.066 182.558,319.4 181.5,320.5C 178.24,323.059 174.906,323.059 171.5,320.5C 169.454,313.703 168.954,306.703 170,299.5C 171.894,296.156 174.727,294.822 178.5,295.5 Z"/></g>
<g><path style="opacity:1" fill="#080604" d="M 340.5,319.5 C 337.024,322.869 333.358,323.202 329.5,320.5C 328.442,319.4 327.608,318.066 327,316.5C 326.333,311.167 326.333,305.833 327,300.5C 331.167,294.241 335.833,293.908 341,299.5C 341.756,306.217 341.589,312.883 340.5,319.5 Z"/></g>
<g><path style="opacity:1" fill="#050402" d="M 250.5,299.5 C 265.093,298.928 274.593,305.595 279,319.5C 280.904,334.872 274.737,345.372 260.5,351C 245.882,352.057 236.382,345.557 232,331.5C 230.221,316.038 236.388,305.372 250.5,299.5 Z"/></g>
<g><path style="opacity:1" fill="#3e4453" d="M 253.5,314.5 C 264.644,317.131 267.311,323.464 261.5,333.5C 256.225,337.945 251.725,337.278 248,331.5C 244.783,324.102 246.617,318.435 253.5,314.5 Z"/></g>
<g><path style="opacity:1" fill="#eca1aa" d="M 171.5,320.5 C 174.906,323.059 178.24,323.059 181.5,320.5C 188.361,322.859 194.195,326.859 199,332.5C 205.994,350.388 200.16,362.055 181.5,367.5C 173.789,370.264 166.122,370.097 158.5,367C 146.117,361.959 140.283,352.792 141,339.5C 146.762,326.198 156.929,319.864 171.5,320.5 Z"/></g>
<g><path style="opacity:1" fill="#eda1aa" d="M 340.5,319.5 C 354.583,320.11 364.416,326.777 370,339.5C 370.758,355.418 363.258,364.918 347.5,368C 331.269,371.458 318.769,366.291 310,352.5C 306.25,342.165 308.75,333.665 317.5,327C 321.434,324.536 325.434,322.369 329.5,320.5C 333.358,323.202 337.024,322.869 340.5,319.5 Z"/></g>
<g><path style="opacity:1" fill="#040402" d="M 248.5,367.5 C 266.187,365.585 278.02,372.919 284,389.5C 284.667,393.5 284.667,397.5 284,401.5C 282.34,405.977 280.84,410.477 279.5,415C 280.871,422.857 282.371,430.69 284,438.5C 285.175,447.987 281.342,454.487 272.5,458C 261.167,458.667 249.833,458.667 238.5,458C 229.674,454.523 225.841,448.023 227,438.5C 228.629,430.69 230.129,422.857 231.5,415C 221.051,393.17 226.718,377.337 248.5,367.5 Z"/></g>
<g><path style="opacity:1" fill="#7d78cb" d="M 250.5,382.5 C 263.502,381.67 269.669,387.67 269,400.5C 266.35,404.132 264.517,408.132 263.5,412.5C 265.759,422.794 267.759,433.128 269.5,443.5C 260.167,443.5 250.833,443.5 241.5,443.5C 243.241,433.128 245.241,422.794 247.5,412.5C 246.212,407.926 244.379,403.593 242,399.5C 241.075,392.017 243.908,386.35 250.5,382.5 Z"/></g>
<g><path style="opacity:1" fill="#7f7acd" d="M 93.5,443.5 C 137.031,435.525 152.698,452.691 140.5,495C 102.075,502.244 85.2418,486.41 90,447.5C 91.3756,446.295 92.5423,444.962 93.5,443.5 Z"/></g>
<g><path style="opacity:1" fill="#7e79cc" d="M 382.5,443.5 C 394.171,443.333 405.838,443.5 417.5,444C 418.667,445.167 419.833,446.333 421,447.5C 426.133,485.034 409.966,501.201 372.5,496C 370.333,495.167 368.833,493.667 368,491.5C 367.088,479.775 367.421,468.108 369,456.5C 372.076,450.589 376.576,446.255 382.5,443.5 Z"/></g>
</svg>
