<?xml version="1.0" encoding="UTF-8"?>
<svg version="1.1" xmlns="http://www.w3.org/2000/svg" width="512" height="512">
<path d="M0 0 C1.546875 0.8353125 1.546875 0.8353125 3.125 1.6875 C11.4905329 8.41629821 17.28800022 16.27577496 19 27 C19.11496113 28.91423648 19.17481717 30.83235652 19.1875 32.75 C19.20167969 33.71421875 19.21585937 34.6784375 19.23046875 35.671875 C19 39 19 39 18.19309998 40.90910339 C17.19072816 43.48138452 16.8193757 45.23029552 17 48 C19.65003095 52.24776568 23.24703281 55.52739767 26.8671875 58.94140625 C27.90376046 59.95744891 28.93792108 60.97595801 29.96975708 61.99681091 C32.68509969 64.67025965 35.431825 67.30903585 38.18652344 69.9418335 C40.99439905 72.63694343 43.77118436 75.36367829 46.55078125 78.08789062 C52.00397539 83.42330174 57.490723 88.72245371 63 94 C63.80425415 92.88286621 63.80425415 92.88286621 64.62475586 91.74316406 C65.33510986 90.76057617 66.04546387 89.77798828 66.77734375 88.765625 C67.47851318 87.79399414 68.17968262 86.82236328 68.90209961 85.82128906 C71.73423532 82.01258893 74.77950966 78.4814097 78 75 C78.495 74.42894531 78.99 73.85789062 79.5 73.26953125 C93.46193177 58.01612079 115.44585051 49.71898342 135.703125 48.72265625 C152.11048317 48.2364388 167.32133615 51.3979235 182 59 C182.350625 57.741875 182.70125 56.48375 183.0625 55.1875 C186.5601245 44.80850263 193.54746166 36.80166626 201 29 C201.54011719 28.38511719 202.08023437 27.77023438 202.63671875 27.13671875 C215.01430716 13.57437377 235.55143617 4.96410057 253.62890625 3.8359375 C279.82651953 2.76664716 302.00393424 9.12016234 322.30859375 26.41015625 C337.13432171 40.67642278 348.79550981 61.6708458 349.23828125 82.578125 C349.62419965 105.46101846 345.80663787 121.43984266 334 141 C335.05743408 140.97643433 335.05743408 140.97643433 336.13623047 140.95239258 C339.38240279 140.88938334 342.6284458 140.85080204 345.875 140.8125 C346.98359375 140.78736328 348.0921875 140.76222656 349.234375 140.73632812 C360.78664951 140.63439629 370.51656215 143.00341371 379.1328125 150.97265625 C386.50326937 158.68307884 390.41350734 167.94276003 390.2109375 178.69921875 C389.17558858 189.99219125 384.09576449 199.18197765 375.43359375 206.42578125 C370.68434651 209.49792674 365.34394796 211.23226112 360 213 C360.13631836 213.92389526 360.13631836 213.92389526 360.27539062 214.86645508 C363.83354821 239.65267208 363.9130724 263.27148339 360 288 C359.65827848 290.3322364 359.32843963 292.66584651 359 295 C366.3657019 300.23915248 373.74437608 305.16804117 381.63671875 309.58984375 C384 311 384 311 386 313 C386.78321678 319.82517483 386.78321678 319.82517483 384.25 323.625 C380.70690734 326.646164 376.29325758 328.34197704 372.12890625 330.33984375 C356.91451388 338.412399 346.74079293 352.41217017 338.83984375 367.26611328 C335.47677358 373.42074015 335.47677358 373.42074015 332 375 C330.71738281 374.75765625 329.43476563 374.5153125 328.11328125 374.265625 C326.03212195 373.83593824 326.03212195 373.83593824 324 374 C321.47013642 375.8186478 319.90892258 378.18160753 318.1875 380.75 C317.2655775 382.03735771 316.34243896 383.32384561 315.41796875 384.609375 C315.02375732 385.18655273 314.6295459 385.76373047 314.22338867 386.35839844 C313 388 313 388 311.35205078 389.57592773 C309.75788644 390.9358635 309.75788644 390.9358635 309.94921875 393.17578125 C311.51184347 397.37569824 314.13861778 400.6220614 316.8125 404.1875 C324.94080786 415.45878539 328.52480611 423.69511792 327 438 C325.11949518 445.63329175 320.15081106 452.14543198 313.7109375 456.57421875 C305.76999652 460.97324796 297.0593864 462.25527274 288.24609375 459.8359375 C275.25409884 455.00065592 268.13907662 444.33853346 261 433 C256.3431237 434.40987998 252.16688803 436.3733217 247.875 438.625 C198.79791825 463.56778603 142.09650183 467.37783873 89.67504883 450.88964844 C77.29297636 446.84348013 65.58139479 441.93867092 54 436 C52.49432149 435.24443365 50.98783383 434.49047723 49.48046875 433.73828125 C48.33191406 433.16464844 47.18335938 432.59101563 46 432 C45.75894531 432.70125 45.51789063 433.4025 45.26953125 434.125 C43.78979804 437.47602659 41.90127709 440.08302313 39.6875 443 C38.92824219 444.010625 38.16898437 445.02125 37.38671875 446.0625 C29.8554387 455.33176775 23.34732289 459.51794655 11.40234375 460.84375 C1.91323599 461.27952992 -4.48685966 457.67348633 -11.6875 451.8125 C-18.64998289 443.3446154 -20.56222347 435.04855892 -19.54296875 424.31640625 C-18.40815091 417.38503687 -15.00796295 412.36451593 -10.96484375 406.7421875 C-10.14560425 405.60281738 -10.14560425 405.60281738 -9.30981445 404.44042969 C-8.19736032 402.91159111 -7.06977344 401.39363645 -5.92651367 399.88769531 C-5.40677979 399.18483398 -4.8870459 398.48197266 -4.3515625 397.7578125 C-3.63734131 396.81639404 -3.63734131 396.81639404 -2.90869141 395.85595703 C-1.80062993 394.02129012 -1.80062993 394.02129012 -2.26391602 391.87524414 C-3.20633864 389.47433263 -4.50634019 388.15605442 -6.3125 386.3125 C-16.72029785 374.93479984 -24.9509509 361.66367637 -32 348 C-32.37753418 347.27087402 -32.75506836 346.54174805 -33.14404297 345.79052734 C-41.16076654 330.1032951 -46.8024737 313.89512372 -50.8125 296.75 C-51.0074707 295.92459717 -51.20244141 295.09919434 -51.40332031 294.2487793 C-54.48650581 280.24801762 -55.37613403 266.16660744 -55.3125 251.875 C-55.3122583 250.7512648 -55.3122583 250.7512648 -55.31201172 249.60482788 C-55.29262012 236.55930071 -54.22199598 223.86906008 -52 211 C-52.8971875 210.88914063 -53.794375 210.77828125 -54.71875 210.6640625 C-62.4170326 209.10607674 -68.64061106 203.35301193 -73 197 C-78.59379332 187.28257699 -79.89906617 176.07374417 -77.31640625 165.09375 C-76.3790336 162.88450658 -75.33404198 160.99277699 -74 159 C-73.34644531 157.96166016 -73.34644531 157.96166016 -72.6796875 156.90234375 C-66.94101262 148.51384358 -59.46333007 143.75930403 -49.6184845 141.43861389 C-46.80719717 140.96770422 -44.14164867 140.83971002 -41.29174805 140.79467773 C-40.17096359 140.77473251 -39.05017914 140.75478729 -37.89543152 140.73423767 C-36.0967437 140.70916893 -36.0967437 140.70916893 -34.26171875 140.68359375 C-32.40786308 140.6524221 -32.40786308 140.6524221 -30.51655579 140.62062073 C-27.24347874 140.56640069 -23.9703726 140.51612422 -20.69720459 140.46777344 C-17.3521174 140.4173843 -14.00712276 140.36171184 -10.66210938 140.30664062 C-4.10814229 140.19964057 2.44589013 140.09784108 9 140 C3.71224483 134.45708055 -1.60528491 128.94424806 -6.96205044 123.46801567 C-9.44878615 120.92393054 -11.92429799 118.37068124 -14.37670898 115.79345703 C-17.19849053 112.82898952 -20.06397597 109.91037948 -22.93359375 106.9921875 C-24.24196449 105.59865555 -24.24196449 105.59865555 -25.57676697 104.17697144 C-29.82316955 99.59943215 -29.82316955 99.59943215 -35.51664734 97.88401794 C-37.81294843 98.39278395 -39.82677186 99.11496911 -42 100 C-53.86746998 101.13233604 -63.73857513 98.57125794 -73 91 C-80.12692143 84.59007268 -84.60153606 76.48621885 -85.48046875 66.87109375 C-86.08668812 55.10673177 -83.50203437 45.88123933 -75.9375 36.625 C-71.1081033 31.60113095 -65.55498453 28.33361244 -59 26 C-57.68 26 -56.36 26 -55 26 C-54.95875 25.05125 -54.9175 24.1025 -54.875 23.125 C-53.66904901 14.85083629 -47.49846924 6.99784425 -41 2 C-28.60180462 -5.37759694 -12.95061393 -7.27363248 0 0 Z " fill="#1B2C3E" transform="translate(104,28)"/>
<path d="M0 0 C1.0904811 0.00092179 2.1809622 0.00184359 3.30448818 0.00279331 C4.55115765 0.00141865 5.79782711 0.00004398 7.08227444 -0.00137234 C8.47653127 0.00216727 9.87078785 0.00580209 11.26504421 0.00952244 C12.72330123 0.0098043 14.18155839 0.00964659 15.63981533 0.00907993 C19.61071618 0.00879193 23.58158708 0.01468906 27.55248094 0.02165389 C31.69783233 0.02788702 35.84318434 0.02849119 39.9885397 0.0296793 C47.84377459 0.03279274 55.69899564 0.04100629 63.55422443 0.05102879 C72.49482531 0.06218954 81.43542684 0.06770028 90.37603295 0.07272422 C108.77255694 0.0831889 127.16906802 0.10078858 145.56558132 0.12304783 C145.57983654 0.92739262 145.59409176 1.7317374 145.60877895 2.56045628 C145.68240783 6.24064237 145.77811127 9.91994425 145.87417507 13.59961033 C145.89620998 14.86490574 145.9182449 16.13020115 145.94094753 17.43383884 C146.24495176 28.0965701 147.81286224 36.31501414 155.59683132 44.17382908 C157.52087808 45.72416676 159.39754634 46.94611455 161.56558132 48.12304783 C162.61745632 48.72117283 163.66933132 49.31929783 164.75308132 49.93554783 C172.65363662 53.27133784 182.01011684 53.42425433 190.00308132 50.37304783 C193.64287762 48.73718432 196.55177324 46.7601299 199.56558132 44.12304783 C200.22558132 44.12304783 200.88558132 44.12304783 201.56558132 44.12304783 C201.85433132 43.54168064 202.14308132 42.96031345 202.44058132 42.36132908 C203.13623073 40.97727661 203.84249152 39.59843281 204.56558132 38.22851658 C204.89558132 37.59558689 205.22558132 36.9626572 205.56558132 36.31054783 C205.89558132 35.68535252 206.22558132 35.0601572 206.56558132 34.41601658 C209.70397003 27.21978935 209.96837948 20.45787352 210.19058132 12.68554783 C210.31433132 8.86992283 210.43808132 5.05429783 210.56558132 1.12304783 C221.45558132 1.12304783 232.34558132 1.12304783 243.56558132 1.12304783 C245.54558132 5.08304783 247.52558132 9.04304783 249.56558132 13.12304783 C252.38753589 15.71369465 254.35046726 17.32496552 257.56558132 19.12304783 C258.22042507 19.5329697 258.87526882 19.94289158 259.54995632 20.36523533 C267.25016163 24.56271566 276.29462202 24.23514786 284.69448757 22.46289158 C291.78269519 20.18559539 297.86160914 16.44133176 301.87417507 10.03320408 C302.86268409 8.08877424 303.7272959 6.13576283 304.56558132 4.12304783 C305.22558132 2.80304783 305.88558132 1.48304783 306.56558132 0.12304783 C329.00558132 0.12304783 351.44558132 0.12304783 374.56558132 0.12304783 C379.1417566 11.56348603 378.88440358 23.55601792 378.82632351 35.6992197 C378.81554379 38.38238925 378.8263071 41.06489773 378.83901882 43.74804783 C378.83769796 45.48242428 378.83513708 47.21680033 378.83120632 48.95117283 C378.83525478 49.73889072 378.83930325 50.52660862 378.84347439 51.33819675 C378.79791595 56.81729035 377.94370923 61.82408217 376.56558132 67.12304783 C373.15682361 64.069215 371.33093214 61.0571173 369.37808132 56.93554783 C367.83797767 53.2867172 367.83797767 53.2867172 365.56558132 50.12304783 C360.54284847 49.52247105 360.54284847 49.52247105 356.02651882 51.17382908 C354.31822556 53.45307597 353.1877014 55.8787571 352.01699734 58.46679783 C347.87158124 67.58947898 342.74736345 74.21032382 335.56558132 81.12304783 C334.83597195 81.86039158 334.10636257 82.59773533 333.35464382 83.35742283 C328.09095229 88.40587047 322.26278635 91.80604757 315.89761257 95.26367283 C309.14848865 98.58278813 309.14848865 98.58278813 305.50308132 104.62304783 C305.5741217 108.60130899 305.88157706 109.32926834 308.56558132 112.12304783 C311.65375223 113.87588952 311.65375223 113.87588952 315.19058132 115.43554783 C321.30775734 118.34234682 326.41908373 121.68606738 331.56558132 126.12304783 C332.57685085 126.91968845 332.57685085 126.91968845 333.60855007 127.73242283 C339.36105942 132.40564126 343.41592011 138.01995567 347.56558132 144.12304783 C344.88560721 149.02907933 341.98664694 153.44389519 338.50308132 157.81054783 C338.02338894 158.41431248 337.54369656 159.01807713 337.04946804 159.64013767 C308.40966693 195.2926227 268.64063187 220.32576316 223.56558132 229.12304783 C222.81985867 229.27402927 222.07413601 229.42501072 221.3058157 229.58056736 C196.4110527 234.4410234 170.24915627 233.54448149 145.56558132 228.12304783 C144.71818386 227.95176365 143.8707864 227.78047947 142.99771023 227.60400486 C104.64103862 219.82506561 66.7228539 197.15616292 41.56558132 167.12304783 C40.74444851 166.20136814 39.9233157 165.27968845 39.07730007 164.33007908 C22.23008108 145.28724013 10.85263839 123.01896522 2.56558132 99.12304783 C2.31292507 98.40713474 2.06026882 97.69122166 1.79995632 96.95361423 C-8.38990792 67.53745753 -10.33147787 31.57315286 -3.43441868 1.12304783 C-2.43441868 0.12304783 -2.43441868 0.12304783 0 0 Z " fill="#526781" transform="translate(71.43441867828369,239.87695217132568)"/>
<path d="M0 0 C14.3423294 12.27665839 23.66115099 27.42984623 26.6875 46.1875 C27.67319685 65.62635879 23.9646953 83.65960524 11.6875 99.1875 C11.32516266 99.75132385 10.96282532 100.31514771 10.58950806 100.89605713 C8.50850228 103.8134455 6.90864614 105.85647826 3.36750793 106.81639099 C0.55537938 107.02663664 -2.18494973 107.02620733 -5.00390625 106.94921875 C-6.02677231 106.95202347 -7.04963837 106.95482819 -8.10350037 106.9577179 C-11.36174479 106.96298604 -14.61712905 106.92242486 -17.875 106.875 C-21.13599428 106.84348467 -24.39605957 106.82222329 -27.6572113 106.82441711 C-29.68292447 106.82428735 -31.7087608 106.80409056 -33.73402405 106.76139832 C-35.11587135 106.75708549 -35.11587135 106.75708549 -36.52563477 106.75268555 C-37.33138443 106.74045456 -38.13713409 106.72822357 -38.96730042 106.71562195 C-42.33256247 107.39274696 -43.95551839 108.71980021 -46.3125 111.1875 C-47.04949297 113.98661589 -47.04949297 113.98661589 -46.92431641 117.13012695 C-46.93925644 118.92768181 -46.93925644 118.92768181 -46.95449829 120.7615509 C-46.94115448 122.05324692 -46.92781067 123.34494293 -46.9140625 124.67578125 C-46.9195662 126.02094302 -46.927694 127.36609639 -46.93832397 128.71122742 C-46.96120367 132.25148645 -46.95699681 135.79112808 -46.94451904 139.3314209 C-46.92621545 144.9864347 -46.93632932 150.64108293 -46.97037888 156.29601097 C-46.9764456 158.26288144 -46.96261539 160.22978108 -46.94839478 162.1966095 C-46.96777986 168.60134957 -47.02984375 173.60030312 -50.3125 179.1875 C-55.49874026 184.10777922 -59.73754836 185.65942456 -66.77734375 185.50390625 C-71.9385113 184.85975437 -75.1599476 182.43104337 -78.6875 178.625 C-80.84538806 175.38816791 -81.43104236 172.85814623 -81.5234375 169.0546875 C-81.55179688 168.24773437 -81.58015625 167.44078125 -81.609375 166.609375 C-81.66073318 164.93509822 -81.70520771 163.26059355 -81.7421875 161.5859375 C-82.08733481 152.49705841 -84.36595429 144.34068992 -90.80859375 137.62890625 C-98.09356053 130.88232038 -105.32771206 128.50242283 -115.21630859 128.57861328 C-123.97340277 129.00403419 -131.19510948 132.60241141 -137.3125 138.875 C-143.40092599 146.92771367 -144.89930298 155.67974483 -144.81640625 165.55078125 C-144.82582748 166.58639694 -144.83524872 167.62201263 -144.84495544 168.68901062 C-144.87335706 171.95954727 -144.87669151 175.22935066 -144.875 178.5 C-144.87861494 181.78839356 -144.88818129 185.07626351 -144.91575623 188.36454773 C-144.93247112 190.40013514 -144.93547848 192.43589563 -144.92274475 194.47151184 C-144.96236564 199.79604275 -145.28320554 203.60583331 -148.3125 208.1875 C-153.86911126 213.20200285 -157.64966666 213.65055531 -165.03125 213.6015625 C-169.16487195 213.07993878 -171.12143472 211.85064497 -174.04296875 208.98828125 C-177.58340226 203.96631248 -177.59275708 199.2455975 -177.55200195 193.32983398 C-177.55401611 192.4479541 -177.55603027 191.56607422 -177.55810547 190.6574707 C-177.5616439 188.74774425 -177.56089261 186.83800606 -177.55632973 184.92828178 C-177.55073087 181.9064013 -177.55990354 178.88490378 -177.5735321 175.86305237 C-177.6106448 167.27334843 -177.62917446 158.68377603 -177.61791992 150.09399414 C-177.61207546 144.83607198 -177.63029365 139.57869083 -177.66380882 134.32087898 C-177.67177168 132.317409 -177.67047389 130.31388019 -177.65978432 128.3104229 C-177.64548901 125.5116047 -177.66169298 122.71449482 -177.68481445 119.91577148 C-177.67304672 119.08709061 -177.66127899 118.25840973 -177.64915466 117.40461731 C-177.71147571 113.56415255 -177.94378117 111.60847092 -180.51217651 108.67610168 C-183.54737975 107.06264214 -185.33157933 106.67419137 -188.74536133 106.64160156 C-189.80608353 106.62188293 -190.86680573 106.60216431 -191.95967102 106.58184814 C-193.0931749 106.58061951 -194.22667877 106.57939087 -195.39453125 106.578125 C-196.56384689 106.56158875 -197.73316254 106.54505249 -198.93791199 106.52801514 C-202.66699453 106.47949024 -206.39566909 106.45815313 -210.125 106.4375 C-212.65561953 106.40934425 -215.18622002 106.37941739 -217.71679688 106.34765625 C-223.91529041 106.27372981 -230.113669 106.22211351 -236.3125 106.1875 C-236.36874339 103.36169553 -236.40936398 100.53703828 -236.44140625 97.7109375 C-236.45868774 96.92259521 -236.47596924 96.13425293 -236.49377441 95.32202148 C-236.63251944 78.93329124 -228.7298791 64.15697959 -217.60546875 52.4921875 C-216.84878906 51.73164062 -216.09210938 50.97109375 -215.3125 50.1875 C-214.64863281 49.48882812 -213.98476562 48.79015625 -213.30078125 48.0703125 C-208.82181972 43.68519587 -203.98249048 40.69802278 -198.4375 37.875 C-197.80191162 37.54935059 -197.16632324 37.22370117 -196.51147461 36.88818359 C-186.7224174 32.1530919 -177.25393739 30.64908261 -166.4375 30.75 C-164.71515137 30.76244751 -164.71515137 30.76244751 -162.95800781 30.77514648 C-154.68496368 30.94039566 -147.89690823 31.69970411 -140.3125 35.1875 C-139.14847656 35.68507812 -137.98445313 36.18265625 -136.78515625 36.6953125 C-128.72799761 40.30206512 -122.45324218 44.87994649 -116.3125 51.1875 C-115.54292969 51.93644531 -114.77335937 52.68539062 -113.98046875 53.45703125 C-108.71838184 58.86254812 -105.19165169 64.56355722 -101.87451172 71.27392578 C-100.29418511 74.86600644 -100.29418511 74.86600644 -97.3125 77.1875 C-94.12049279 77.46506584 -91.9054092 77.43714598 -88.9375 76.1875 C-86.8393876 73.60520782 -86.96803961 71.57372019 -87.04052734 68.32714844 C-87.48418934 64.83679503 -89.01721801 62.302335 -90.8125 59.3125 C-91.1727124 58.71171631 -91.5329248 58.11093262 -91.90405273 57.49194336 C-96.24686789 50.40997376 -101.18340192 44.05278241 -107.375 38.5 C-109.8714602 36.03216893 -110.27391324 35.58880226 -110.625 31.9375 C-103.98083082 12.95415949 -89.74239288 -0.82176233 -72 -9.5625 C-47.91224408 -19.871243 -20.68665912 -15.80230905 0 0 Z " fill="#AB57D0" transform="translate(410.3125,62.8125)"/>
<path d="M0 0 C5.21428044 2.94434132 8.59154012 6.43357521 10.75 12.0625 C11.59256583 17.50731615 11.63694891 22.76185448 9.25 27.8125 C7.45945081 31.69202324 6.66189754 34.91368933 7.75 39.0625 C12.30548099 45.83841593 19.07923379 51.30943871 24.99623299 56.89485359 C28.48210029 60.20030092 31.92629297 63.54929807 35.37726688 66.89109135 C38.39642314 69.81008627 41.42930667 72.71157813 44.49584961 75.58081055 C47.48534593 78.37961491 50.43057043 81.21887589 53.35104179 84.08956718 C54.46253826 85.16738747 55.5889235 86.23008895 56.73042488 87.27607918 C65.59933111 95.42715204 65.59933111 95.42715204 65.97521973 102.0018158 C65.60666976 105.77978057 64.69800539 109.3898402 63.75 113.0625 C63.56678813 114.63993654 63.41963129 116.22276022 63.3359375 117.80859375 C63.19307057 120.30876502 63.04714538 122.80876309 62.8984375 125.30859375 C62.82496094 126.67177734 62.82496094 126.67177734 62.75 128.0625 C59.56376483 128.29701412 56.37976186 128.43757571 53.1875 128.5625 C52.29224609 128.62953125 51.39699219 128.6965625 50.47460938 128.765625 C43.77997717 128.9618047 43.77997717 128.9618047 41.14497375 126.66110229 C40.66183212 126.03672272 40.17869049 125.41234314 39.6809082 124.76904297 C36.6962038 121.13583943 33.55053279 117.73754519 30.22949219 114.41259766 C29.72214696 113.90321089 29.21480173 113.39382412 28.69208241 112.86900139 C27.06252916 111.23599114 25.42985472 109.6061458 23.796875 107.9765625 C22.64806792 106.82708049 21.49940922 105.67745018 20.35089111 104.52767944 C17.95885384 102.13417708 15.56504034 99.74246975 13.16992188 97.35205078 C10.10100823 94.28886616 7.03664994 91.22116967 3.97358322 88.15213966 C1.60938906 85.78433521 -0.7571775 83.41891352 -3.12447357 81.05421066 C-4.25592171 79.92342883 -5.38662963 78.79190583 -6.51657867 77.65962601 C-8.09100299 76.082664 -9.66859364 74.50893949 -11.24707031 72.93603516 C-12.14306946 72.0408316 -13.0390686 71.14562805 -13.96221924 70.22329712 C-17.70662923 66.68672121 -19.9870058 65.68995845 -25.15625 65.79296875 C-27.77528234 66.1301203 -29.84364002 67.25230247 -32.2109375 68.37109375 C-37.624256 70.20664428 -43.61552558 70.16475784 -48.8828125 67.9609375 C-54.01383669 64.7942658 -56.74101135 61.49864207 -59.25 56.0625 C-59.58 55.4025 -59.91 54.7425 -60.25 54.0625 C-60.99802059 46.1938988 -59.70451929 41.1860924 -55.6875 34.4375 C-51.07379348 29.94209365 -45.26992351 27.01325178 -38.8125 26.5 C-35.28427222 26.44169128 -35.28427222 26.44169128 -33.6171875 24.40234375 C-32.02140989 21.67128435 -31.44638829 19.28213477 -30.8125 16.1875 C-29.02743685 8.65361808 -26.26893293 4.40292377 -19.93359375 0.04296875 C-13.75060542 -3.55779708 -6.32413578 -2.78415055 0 0 Z " fill="#D1DAE3" transform="translate(95.25,41.9375)"/>
<path d="M0 0 C1.59707104 0.00112925 3.19414415 0.00049309 4.79121399 -0.00177002 C9.11315897 -0.00291506 13.43465757 0.02056002 17.75649905 0.04852581 C22.27815901 0.07357459 26.79982983 0.0758842 31.32154846 0.08062744 C39.87791146 0.09304702 48.43406939 0.12585481 56.9903422 0.1660254 C66.73394191 0.21077483 76.47755155 0.23273812 86.22122848 0.25280714 C106.25903494 0.29458841 126.2965604 0.36792802 146.33422852 0.45410156 C146.33422852 12.99410156 146.33422852 25.53410156 146.33422852 38.45410156 C125.36747836 38.58964672 104.40108402 38.70012909 83.43400669 38.76497459 C73.69819493 38.79588643 63.96267513 38.83801573 54.22705078 38.90673828 C45.73948639 38.96662227 37.25213349 39.00527014 28.76436371 39.01863253 C24.27182226 39.02644113 19.77988572 39.04473673 15.28753853 39.0884819 C11.0545454 39.12936558 6.82240331 39.14173915 2.58923149 39.13274765 C1.04007204 39.1343913 -0.5091174 39.14623302 -2.05810547 39.16933441 C-10.03708154 39.28244272 -16.44109027 39.13825867 -23.00550938 34.10276222 C-27.43353994 29.7056735 -28.88649896 25.1753064 -29.29077148 19.01660156 C-29.05019758 13.04373221 -26.90907009 8.64757671 -22.66577148 4.45410156 C-15.87319647 -0.92448487 -8.25109721 -0.08163134 0 0 Z " fill="#314F67" transform="translate(70.665771484375,185.5458984375)"/>
<path d="M0 0 C20.85212432 -0.24065286 20.85212432 -0.24065286 29.77539062 -0.29296875 C35.85229118 -0.32876626 41.9286467 -0.37100577 48.00512695 -0.45263672 C52.90702326 -0.51807249 57.8083347 -0.55375714 62.71063423 -0.56926346 C64.57610843 -0.58030648 66.44155244 -0.60187128 68.30677605 -0.63438034 C85.94903907 -0.92949738 85.94903907 -0.92949738 92.52052307 4.45175171 C97.25733935 9.4087521 98.32765715 14.17032843 98.21484375 20.9140625 C97.58812145 26.99896628 94.57000587 31.17394857 90 35 C85.19022417 37.94638402 81.12425045 38.4184647 75.60791016 38.34057617 C74.78773407 38.34101425 73.96755798 38.34145233 73.12252808 38.34190369 C70.42779231 38.33982369 67.73368877 38.31653024 65.0390625 38.29296875 C63.16434062 38.28736998 61.28961433 38.28310121 59.41488647 38.28010559 C54.49273452 38.26867892 49.57085027 38.23923049 44.64880371 38.20599365 C38.73667431 38.16983493 32.82445515 38.15612125 26.9122467 38.13863373 C17.94131191 38.10959185 8.97096391 38.05208947 0 38 C0 25.46 0 12.92 0 0 Z " fill="#314F67" transform="translate(379,186)"/>
<path d="M0 0 C0.66 0 1.32 0 2 0 C3.24765698 1.60071099 4.42241864 3.25847108 5.5625 4.9375 C12.46053672 14.61460187 21.23111279 23.61555639 32 29 C32 29.66 32 30.32 32 31 C30.43935752 32.20444168 28.82318613 33.33712933 27.1875 34.4375 C17.63710648 41.23816582 10.09284909 49.26738648 3.55859375 58.98046875 C3.04425781 59.64691406 2.52992188 60.31335938 2 61 C1.34 61 0.68 61 0 61 C-1.18278132 59.45935151 -2.29444569 57.86399251 -3.375 56.25 C-10.62713283 46.05497269 -19.38496499 37.66962377 -30 31 C-26.77295898 27.6744676 -23.46935836 24.7162223 -19.8125 21.875 C-12.94476222 16.31584469 -6.66224475 10.10650049 -1.83984375 2.66796875 C-1.23269531 1.78753906 -0.62554687 0.90710938 0 0 Z " fill="#EBAC64" transform="translate(432,315)"/>
<path d="M0 0 C5.69039264 4.15773674 11.15765698 8.5482402 16.58203125 13.046875 C19.03643239 15.0902426 19.03643239 15.0902426 22 17 C20.39773315 21.7975389 17.74295221 25.56440045 14.8125 29.625 C14.35552734 30.29273438 13.89855469 30.96046875 13.42773438 31.6484375 C10.09531109 36.27038381 7.44922404 38.27018818 2 40 C-2.34583568 40.53369912 -4.37697048 40.33547744 -8.25 38.25 C-11.4548593 35.62784239 -13.65113202 33.69295627 -14.50390625 29.5546875 C-14.67449749 21.75298143 -12.52760756 17.23256438 -8 11 C-7.28070313 9.98679687 -6.56140625 8.97359375 -5.8203125 7.9296875 C-3.90601671 5.26602325 -1.96646078 2.62527505 0 0 Z " fill="#314F67" transform="translate(115,432)"/>
<path d="M0 0 C4.04104311 1.59824451 5.92632555 5.75175422 8.25048828 9.25341797 C9.06936523 10.40874023 9.06936523 10.40874023 9.90478516 11.58740234 C13.61388632 17.11658288 15.47938067 22.07860077 15.06298828 28.81591797 C13.83713917 32.86227103 11.78956771 35.30400974 8.31298828 37.75341797 C2.96724572 39.50106457 -0.96301574 39.80291596 -6.06201172 37.25341797 C-12.46908933 31.82133042 -17.53202407 24.94469976 -21.93701172 17.81591797 C-21.93701172 17.15591797 -21.93701172 16.49591797 -21.93701172 15.81591797 C-20.33974633 14.54407675 -18.68114277 13.34891356 -16.99951172 12.19091797 C-12.24282377 8.85020285 -8.03963171 5.27065811 -3.90966797 1.18701172 C-1.93701172 -0.18408203 -1.93701172 -0.18408203 0 0 Z " fill="#314F67" transform="translate(399.93701171875,433.18408203125)"/>
<path d="M0 0 C5.44178453 2.47353842 7.62639016 5.70502421 10 11 C10 12.98 10 14.96 10 17 C-0.23 17 -10.46 17 -21 17 C-21 7.97029703 -21 7.97029703 -18.25 5.125 C-17.73953125 4.57070312 -17.2290625 4.01640625 -16.703125 3.4453125 C-11.67186952 -0.82433091 -6.34539678 -0.72755638 0 0 Z " fill="#314F67" transform="translate(303,207)"/>
</svg>
