<?xml version="1.0" encoding="UTF-8"?>
<!DOCTYPE svg PUBLIC "-//W3C//DTD SVG 1.1//EN" "http://www.w3.org/Graphics/SVG/1.1/DTD/svg11.dtd">
<svg xmlns="http://www.w3.org/2000/svg" version="1.1" width="512px" height="512px" style="shape-rendering:geometricPrecision; text-rendering:geometricPrecision; image-rendering:optimizeQuality; fill-rule:evenodd; clip-rule:evenodd" xmlns:xlink="http://www.w3.org/1999/xlink">
<g><path style="opacity:0.98" fill="#020201" d="M 511.5,97.5 C 511.5,157.167 511.5,216.833 511.5,276.5C 510.667,335.332 510.167,394.332 510,453.5C 509.749,455.433 509.249,457.266 508.5,459C 464.833,459.667 421.167,459.667 377.5,459C 370.962,450.092 364.795,440.926 359,431.5C 358.667,440.167 358.333,448.833 358,457.5C 357.5,458 357,458.5 356.5,459C 305.5,459.667 254.5,459.667 203.5,459C 203,458.5 202.5,458 202,457.5C 201.833,453.833 201.667,450.167 201.5,446.5C 202.209,437.502 202.375,428.502 202,419.5C 193.559,432.939 184.725,446.106 175.5,459C 138.5,459.667 101.5,459.667 64.5,459C 34.9129,452.751 14.4129,435.584 3,407.5C 1.89052,403.353 0.723852,399.353 -0.5,395.5C -0.5,295.833 -0.5,196.167 -0.5,96.5C 10.9593,59.9234 35.6259,45.7567 73.5,54C 92.5822,61.582 104.249,75.4153 108.5,95.5C 129.503,95.3334 150.503,95.5 171.5,96C 179,104.833 186.5,113.667 194,122.5C 194.333,115.167 194.667,107.833 195,100.5C 195.273,98.8988 195.773,97.3988 196.5,96C 252.167,95.3333 307.833,95.3333 363.5,96C 374.961,105.125 386.127,114.625 397,124.5C 396.795,117.678 396.295,110.845 395.5,104C 395.667,101.833 395.833,99.6667 396,97.5C 396.5,97 397,96.5 397.5,96C 434.833,95.3333 472.167,95.3333 509.5,96C 510.044,96.7172 510.711,97.2172 511.5,97.5 Z"/></g>
<g><path style="opacity:1" fill="#fcc378" d="M 47.5,61.5 C 74.9361,60.4506 92.1027,73.1173 99,99.5C 99.6667,145.833 99.6667,192.167 99,238.5C 92.586,242.957 86.086,247.291 79.5,251.5C 76.8333,254.167 76.8333,256.833 79.5,259.5C 86.086,263.709 92.586,268.043 99,272.5C 99.6667,298.167 99.6667,323.833 99,349.5C 84.4144,330.302 65.2477,323.136 41.5,328C 28.651,331.832 18.151,338.999 10,349.5C 9.33333,266.167 9.33333,182.833 10,99.5C 14.6809,78.9864 27.1809,66.3197 47.5,61.5 Z"/></g>
<g><path style="opacity:1" fill="#fddeb3" d="M 109.5,105.5 C 128.503,105.333 147.503,105.5 166.5,106C 176.38,117.544 185.88,129.378 195,141.5C 198.556,144.514 201.556,144.18 204,140.5C 204.472,128.828 204.972,117.162 205.5,105.5C 256.834,105.333 308.168,105.5 359.5,106C 372.979,118.235 386.646,130.235 400.5,142C 406.203,144.306 409.203,142.306 409.5,136C 408.626,125.807 407.626,115.64 406.5,105.5C 438.167,105.5 469.833,105.5 501.5,105.5C 500.394,220.161 499.727,334.828 499.5,449.5C 460.499,449.667 421.499,449.5 382.5,449C 373.333,434.5 364.167,420 355,405.5C 348.997,403.002 346.164,405.002 346.5,411.5C 347.433,424.154 348.099,436.821 348.5,449.5C 302.833,449.5 257.167,449.5 211.5,449.5C 212.55,431.824 213.383,414.157 214,396.5C 211.916,393.549 209.249,392.883 206,394.5C 193.957,412.753 181.791,430.919 169.5,449C 135.5,449.667 101.5,449.667 67.5,449C 38.4064,442.574 19.5731,425.074 11,396.5C 6.00302,365.974 18.1697,346.141 47.5,337C 80.3033,336.466 97.8033,352.633 100,385.5C 103,388.167 106,388.167 109,385.5C 109.667,346.167 109.667,306.833 109,267.5C 103.804,263.145 98.3036,259.145 92.5,255.5C 98.3036,251.855 103.804,247.855 109,243.5C 109.5,197.501 109.667,151.501 109.5,105.5 Z"/></g>
<g><path style="opacity:1" fill="#010100" d="M 30.5,110.5 C 33.3646,110.055 35.8646,110.722 38,112.5C 38.6667,149.167 38.6667,185.833 38,222.5C 35,225.167 32,225.167 29,222.5C 28.3333,185.833 28.3333,149.167 29,112.5C 29.7172,111.956 30.2172,111.289 30.5,110.5 Z"/></g>
<g><path style="opacity:0.998" fill="#050302" d="M 248.5,134.5 C 254.842,134.334 261.175,134.5 267.5,135C 273.106,137.152 278.772,139.152 284.5,141C 286.049,142.214 287.215,143.714 288,145.5C 288.667,152.167 288.667,158.833 288,165.5C 281.078,178.344 274.411,191.344 268,204.5C 264.205,207.803 260.038,208.303 255.5,206C 248.333,200.167 241.167,194.333 234,188.5C 229.534,176.118 226.534,163.451 225,150.5C 225.785,148.714 226.951,147.214 228.5,146C 235.687,142.912 242.354,139.078 248.5,134.5 Z"/></g>
<g><path style="opacity:1" fill="#f9a42d" d="M 250.5,144.5 C 255.179,144.334 259.845,144.501 264.5,145C 269.084,146.484 273.751,147.65 278.5,148.5C 278.666,153.511 278.499,158.511 278,163.5C 272.254,174.66 266.254,185.66 260,196.5C 254.85,191.927 249.517,187.594 244,183.5C 240.371,173.982 237.204,164.316 234.5,154.5C 239.861,151.156 245.195,147.822 250.5,144.5 Z"/></g>
<g><path style="opacity:0.997" fill="#050402" d="M 412.5,149.5 C 415.518,149.335 418.518,149.502 421.5,150C 439.323,158.744 456.989,167.744 474.5,177C 478.663,179.821 480.163,183.655 479,188.5C 476.998,193.845 474.998,199.178 473,204.5C 468.156,208.097 462.656,210.264 456.5,211C 459.648,213.795 461.314,217.295 461.5,221.5C 460.322,229.892 458.822,238.226 457,246.5C 455.692,248.641 454.192,250.641 452.5,252.5C 442.517,261.316 432.683,270.316 423,279.5C 425.235,282.492 426.735,285.992 427.5,290C 426.079,297.516 424.579,305.016 423,312.5C 421.859,314.609 420.359,316.442 418.5,318C 416.167,318.667 413.833,318.667 411.5,318C 405.5,314.333 399.5,310.667 393.5,307C 391.661,302.82 389.661,298.654 387.5,294.5C 384.8,298.704 382.3,303.037 380,307.5C 375.467,310.136 370.967,310.136 366.5,307.5C 362.148,302.982 357.981,298.316 354,293.5C 353.167,294.333 352.333,295.167 351.5,296C 353.942,298.225 355.609,300.892 356.5,304C 353.759,318.85 350.926,333.683 348,348.5C 347.667,357.5 347.333,366.5 347,375.5C 346.215,377.286 345.049,378.786 343.5,380C 337.531,382.984 331.531,385.984 325.5,389C 321.388,391.146 317.388,390.98 313.5,388.5C 309.814,384.648 306.314,380.648 303,376.5C 301.72,365.767 300.053,355.1 298,344.5C 288.809,327.256 279.809,309.922 271,292.5C 270.333,286.5 270.333,280.5 271,274.5C 274.437,270.059 278.27,265.893 282.5,262C 280.036,259.274 279.203,256.107 280,252.5C 281.667,249.167 283.333,245.833 285,242.5C 290.41,238.212 295.91,234.045 301.5,230C 292.559,230.393 288.392,226.226 289,217.5C 293.194,210.446 296.861,203.112 300,195.5C 304.5,192.333 309,189.167 313.5,186C 317.072,184.595 320.739,184.262 324.5,185C 330.922,189.878 337.922,193.711 345.5,196.5C 368.075,181.057 390.408,165.391 412.5,149.5 Z"/></g>
<g><path style="opacity:1" fill="#f9a52d" d="M 415.5,159.5 C 434.059,167.446 452.059,176.446 469.5,186.5C 468.167,190.167 466.833,193.833 465.5,197.5C 460.367,199.617 455.033,201.117 449.5,202C 445.553,203.589 443.72,206.422 444,210.5C 446.903,214.48 449.403,218.647 451.5,223C 450.24,229.484 449.074,235.984 448,242.5C 445.872,245.63 443.372,248.463 440.5,251C 430.343,259.492 420.509,268.325 411,277.5C 410.333,278.833 410.333,280.167 411,281.5C 413.296,284.597 415.463,287.763 417.5,291C 416.387,296.841 415.221,302.674 414,308.5C 410.179,305.257 406.179,302.257 402,299.5C 399.211,291.786 396.044,284.286 392.5,277C 388.328,276.132 385.162,277.632 383,281.5C 380.354,287.458 377.188,293.124 373.5,298.5C 367.988,293.488 362.655,288.321 357.5,283C 353.647,282.951 350.147,284.118 347,286.5C 335.651,280.677 331.485,284.01 334.5,296.5C 338.538,299.512 342.538,302.512 346.5,305.5C 340.615,327.139 337.448,349.139 337,371.5C 331.454,374.023 325.954,376.689 320.5,379.5C 317.849,377.35 315.349,375.017 313,372.5C 311.333,362.167 309.667,351.833 308,341.5C 299.22,323.604 290.22,305.938 281,288.5C 280.176,285.118 280.343,281.784 281.5,278.5C 285.852,274.981 289.686,270.981 293,266.5C 293.667,264.5 293.667,262.5 293,260.5C 289.911,256.935 289.911,253.268 293,249.5C 300.821,243.257 308.821,237.257 317,231.5C 317.758,229.231 317.591,227.064 316.5,225C 311.535,221.017 305.868,219.017 299.5,219C 303.048,213.406 306.215,207.573 309,201.5C 312.937,198.295 317.104,195.795 321.5,194C 328.707,202.105 337.707,206.105 348.5,206C 371.248,190.971 393.582,175.471 415.5,159.5 Z"/></g>
<g><path style="opacity:0.998" fill="#050302" d="M 210.5,165.5 C 214.426,165.047 217.592,166.38 220,169.5C 226.554,182.479 230.22,196.146 231,210.5C 236.364,213.812 241.031,217.812 245,222.5C 250.036,234.15 249.369,245.483 243,256.5C 239.027,260.473 235.027,264.473 231,268.5C 231.379,273.422 229.879,277.588 226.5,281C 220.612,282.576 214.612,282.909 208.5,282C 206.91,280.954 205.41,279.787 204,278.5C 204.893,281.436 206.726,283.936 209.5,286C 216.071,287.976 222.738,289.643 229.5,291C 235.675,294.588 242.009,297.922 248.5,301C 250,302.5 251.5,304 253,305.5C 255.801,318.707 257.134,332.041 257,345.5C 248.668,361.313 240.168,376.98 231.5,392.5C 224.757,396.242 219.924,394.575 217,387.5C 213.82,375.112 210.487,362.778 207,350.5C 204.753,349.02 202.253,348.353 199.5,348.5C 191.404,351.188 184.904,349.188 180,342.5C 178.667,339.833 177.333,337.167 176,334.5C 173.758,322.618 170.758,310.951 167,299.5C 163.646,292.793 159.313,286.793 154,281.5C 153.667,276.5 153.333,271.5 153,266.5C 150.333,262.5 147.667,258.5 145,254.5C 144.667,249.5 144.333,244.5 144,239.5C 140.193,237.938 137.526,235.271 136,231.5C 135.333,220.833 135.333,210.167 136,199.5C 138.389,193.223 142.889,191.057 149.5,193C 154.434,194.977 159.268,197.143 164,199.5C 169.468,195.033 174.635,190.2 179.5,185C 184.056,183.028 188.722,181.361 193.5,180C 198.5,174.15 204.166,169.317 210.5,165.5 Z"/></g>
<g><path style="opacity:1" fill="#f9a52d" d="M 210.5,177.5 C 211.496,177.414 212.329,177.748 213,178.5C 215.529,184.421 217.863,190.421 220,196.5C 220.333,202.833 220.667,209.167 221,215.5C 225.667,218.833 230.333,222.167 235,225.5C 236.475,229.398 237.642,233.398 238.5,237.5C 237.489,241.877 236.322,246.21 235,250.5C 230.967,254.868 226.634,258.868 222,262.5C 220.684,265.688 220.184,269.022 220.5,272.5C 217.813,272.664 215.146,272.497 212.5,272C 206.407,264.279 198.907,262.445 190,266.5C 189.121,271.287 189.455,275.953 191,280.5C 195.5,285.667 200,290.833 204.5,296C 211.146,297.497 217.813,298.83 224.5,300C 230.745,303.039 236.912,306.206 243,309.5C 245.14,320.434 246.474,331.434 247,342.5C 240.078,355.344 233.411,368.344 227,381.5C 223.642,368.732 219.975,356.065 216,343.5C 213.293,341.064 210.127,339.564 206.5,339C 200.584,338.81 194.751,338.31 189,337.5C 187.392,334.618 186.059,331.618 185,328.5C 182.961,317.677 180.294,307.01 177,296.5C 173.902,289.299 169.569,282.965 164,277.5C 163.667,272.833 163.333,268.167 163,263.5C 160.333,259.5 157.667,255.5 155,251.5C 154.667,245.5 154.333,239.5 154,233.5C 151.154,231.743 148.488,229.743 146,227.5C 145.333,219.167 145.333,210.833 146,202.5C 152.896,206.02 160.063,208.52 167.5,210C 173.873,203.958 180.54,198.292 187.5,193C 196.912,190.42 204.579,185.254 210.5,177.5 Z"/></g>
<g><path style="opacity:0.997" fill="#060402" d="M 444.5,340.5 C 448.548,340.441 451.715,342.108 454,345.5C 457.955,351.123 462.288,356.457 467,361.5C 467.695,363.722 468.528,365.889 469.5,368C 465.471,377.891 461.305,387.724 457,397.5C 454.347,400.194 451.18,401.027 447.5,400C 443.278,396.934 438.944,394.101 434.5,391.5C 426.537,393.049 418.537,394.383 410.5,395.5C 408.366,395.485 406.366,394.985 404.5,394C 399.965,388.431 395.799,382.597 392,376.5C 390.859,369.916 391.526,363.583 394,357.5C 399.225,351.939 404.725,346.772 410.5,342C 418.949,342.054 427.283,343.221 435.5,345.5C 438.718,344.061 441.718,342.395 444.5,340.5 Z"/></g>
<g><path style="opacity:1" fill="#f9a42d" d="M 414.5,351.5 C 421.643,352.895 428.809,354.228 436,355.5C 439.487,355.256 442.487,353.923 445,351.5C 449.833,357 454.667,362.5 459.5,368C 456.151,375.032 452.984,382.199 450,389.5C 444.689,383.756 438.189,381.256 430.5,382C 424.278,382.898 418.111,384.065 412,385.5C 410.739,385.241 409.739,384.574 409,383.5C 407.056,379.89 404.723,376.557 402,373.5C 401.333,370.5 401.333,367.5 402,364.5C 406.37,360.298 410.537,355.964 414.5,351.5 Z"/></g>
</svg>
