<?xml version="1.0" encoding="UTF-8"?>
<!DOCTYPE svg PUBLIC "-//W3C//DTD SVG 1.1//EN" "http://www.w3.org/Graphics/SVG/1.1/DTD/svg11.dtd">
<svg xmlns="http://www.w3.org/2000/svg" version="1.1" width="512px" height="512px" style="shape-rendering:geometricPrecision; text-rendering:geometricPrecision; image-rendering:optimizeQuality; fill-rule:evenodd; clip-rule:evenodd" xmlns:xlink="http://www.w3.org/1999/xlink">
<g><path style="opacity:0.982" fill="#010102" d="M 357.5,-0.5 C 361.167,-0.5 364.833,-0.5 368.5,-0.5C 370.134,0.971672 371.634,2.63834 373,4.5C 388.546,43.4206 403.38,82.5873 417.5,122C 416.711,126.083 415.211,129.916 413,133.5C 403.5,150.5 394,167.5 384.5,184.5C 385,184.833 385.5,185.167 386,185.5C 407.115,181.564 428.282,177.897 449.5,174.5C 452.684,174.509 455.517,175.509 458,177.5C 469.588,199.009 480.922,220.676 492,242.5C 493.174,247.94 492.174,252.94 489,257.5C 474.913,282.005 461.08,306.672 447.5,331.5C 484.574,340.569 505.907,363.902 511.5,401.5C 511.5,411.833 511.5,422.167 511.5,432.5C 510.381,439.56 508.547,446.56 506,453.5C 502.613,457.039 498.447,458.372 493.5,457.5C 489.706,454.919 487.706,451.253 487.5,446.5C 491.98,429.256 492.48,411.923 489,394.5C 480.555,367.408 462.055,352.908 433.5,351C 417.517,349.997 401.684,351.164 386,354.5C 382.667,354.5 380,353.167 378,350.5C 360.167,307.333 329.667,276.833 286.5,259C 262.702,249.64 238.036,243.973 212.5,242C 201.479,241.666 190.479,240.999 179.5,240C 175.835,238.332 173.668,235.499 173,231.5C 171.647,195.145 152.813,175.312 116.5,172C 108.445,171.178 100.445,171.512 92.5,173C 75.5865,177.851 59.9199,185.184 45.5,195C 31.7652,205.961 23.2652,220.127 20,237.5C 19.2911,248.529 19.6244,259.529 21,270.5C 27.2538,295.93 33.9205,321.264 41,346.5C 41.8913,360.546 43.2246,374.546 45,388.5C 53.3246,424.495 74.8246,448.995 109.5,462C 130.249,469.26 151.583,471.927 173.5,470C 193.433,466.233 213.433,462.9 233.5,460C 256.163,458.166 278.163,461.166 299.5,469C 313.5,475 327.5,481 341.5,487C 370.067,492.432 398.734,492.932 427.5,488.5C 433.393,488.402 437.393,491.069 439.5,496.5C 439.67,501.503 437.67,505.337 433.5,508C 426.711,509.297 420.044,510.464 413.5,511.5C 398.5,511.5 383.5,511.5 368.5,511.5C 357.226,510.196 345.892,508.363 334.5,506C 319.385,499.942 304.385,493.609 289.5,487C 267.434,480.06 245.101,478.393 222.5,482C 207.64,485.465 192.64,488.132 177.5,490C 142.415,493.45 109.415,486.783 78.5,470C 47.7399,451.021 29.5733,423.521 24,387.5C 23.0332,375.829 22.0332,364.162 21,352.5C 16.8015,335.373 12.1348,318.373 7,301.5C 4.02698,289.792 1.52698,278.125 -0.5,266.5C -0.5,256.167 -0.5,245.833 -0.5,235.5C 4.23028,207.885 18.5636,186.718 42.5,172C 59.2358,161.967 77.2358,155.301 96.5,152C 112.453,150.386 128.12,151.719 143.5,156C 149.361,158.18 154.861,161.013 160,164.5C 185.613,116.767 212.113,69.6003 239.5,23C 278.942,15.0781 318.276,7.24475 357.5,-0.5 Z"/></g>
<g><path style="opacity:1" fill="#bad5f9" d="M 323.5,26.5 C 328.933,25.8126 329.599,26.9793 325.5,30C 308.019,44.6461 290.686,59.4794 273.5,74.5C 268.299,63.425 263.632,52.0917 259.5,40.5C 261.369,39.3764 263.369,38.5431 265.5,38C 285.065,34.5868 304.398,30.7535 323.5,26.5 Z"/></g>
<g><path style="opacity:1" fill="#9ec5fc" d="M 347.5,36.5 C 348.147,37.2739 348.48,38.2739 348.5,39.5C 344.382,65.544 340.048,91.544 335.5,117.5C 319.167,108.333 302.833,99.1667 286.5,90C 307.027,72.3015 327.36,54.4682 347.5,36.5 Z"/></g>
<g><path style="opacity:1" fill="#b9d5f8" d="M 367.5,49.5 C 368.117,49.6107 368.617,49.944 369,50.5C 377.069,71.5394 385.235,92.5394 393.5,113.5C 381.149,116.004 368.815,118.671 356.5,121.5C 358.85,97.3904 362.517,73.3904 367.5,49.5 Z"/></g>
<g><path style="opacity:1" fill="#7fb4fd" d="M 243.5,55.5 C 248.585,67.5207 253.585,79.6873 258.5,92C 241.065,134.697 224.065,177.53 207.5,220.5C 202.238,220.805 197.072,220.471 192,219.5C 190.115,204.338 184.615,190.671 175.5,178.5C 198.433,137.634 221.099,96.6337 243.5,55.5 Z"/></g>
<g><path style="opacity:1" fill="#bdd9fc" d="M 273.5,106.5 C 292.101,116.135 310.434,126.302 328.5,137C 305.922,167.489 283.589,198.156 261.5,229C 250.248,226.794 238.914,224.627 227.5,222.5C 243.407,184.026 258.74,145.359 273.5,106.5 Z"/></g>
<g><path style="opacity:1" fill="#7eb4fc" d="M 383.5,135.5 C 384.978,135.238 386.311,135.571 387.5,136.5C 365.96,175.747 344.294,214.914 322.5,254C 309.205,247.359 295.538,241.192 281.5,235.5C 304.167,204.5 326.833,173.5 349.5,142.5C 361,140.366 372.334,138.032 383.5,135.5 Z"/></g>
<g><path style="opacity:1" fill="#f4c5ae" d="M 493.5,457.5 C 489.605,464.396 484.939,470.729 479.5,476.5C 472.483,470.577 466.316,471.243 461,478.5C 460.612,481.849 460.779,485.183 461.5,488.5C 454.401,491.756 447.068,494.422 439.5,496.5C 437.393,491.069 433.393,488.402 427.5,488.5C 398.734,492.932 370.067,492.432 341.5,487C 327.5,481 313.5,475 299.5,469C 278.163,461.166 256.163,458.166 233.5,460C 213.433,462.9 193.433,466.233 173.5,470C 151.583,471.927 130.249,469.26 109.5,462C 74.8246,448.995 53.3246,424.495 45,388.5C 43.2246,374.546 41.8913,360.546 41,346.5C 33.9205,321.264 27.2538,295.93 21,270.5C 19.6244,259.529 19.2911,248.529 20,237.5C 23.2652,220.127 31.7652,205.961 45.5,195C 59.9199,185.184 75.5865,177.851 92.5,173C 100.445,171.512 108.445,171.178 116.5,172C 152.813,175.312 171.647,195.145 173,231.5C 173.668,235.499 175.835,238.332 179.5,240C 190.479,240.999 201.479,241.666 212.5,242C 238.036,243.973 262.702,249.64 286.5,259C 329.667,276.833 360.167,307.333 378,350.5C 380,353.167 382.667,354.5 386,354.5C 401.684,351.164 417.517,349.997 433.5,351C 462.055,352.908 480.555,367.408 489,394.5C 492.48,411.923 491.98,429.256 487.5,446.5C 487.706,451.253 489.706,454.919 493.5,457.5 Z"/></g>
<g><path style="opacity:1" fill="#9ec5fc" d="M 437.5,196.5 C 440.247,196.187 442.914,196.52 445.5,197.5C 452.167,210.167 458.833,222.833 465.5,235.5C 447.843,236.666 430.176,236.833 412.5,236C 402.803,226.637 393.47,216.97 384.5,207C 402.192,203.356 419.859,199.856 437.5,196.5 Z"/></g>
<g><path style="opacity:1" fill="#bcd8fc" d="M 365.5,216.5 C 375.785,227.119 386.118,237.786 396.5,248.5C 388.007,264.824 379.007,280.824 369.5,296.5C 360.315,285.148 349.982,274.982 338.5,266C 347.758,249.593 356.758,233.093 365.5,216.5 Z"/></g>
<g><path style="opacity:1" fill="#040303" d="M 77.5,225.5 C 96.2983,223.153 112.132,228.82 125,242.5C 128.039,253.464 123.872,258.298 112.5,257C 97.5744,242.957 81.9077,241.957 65.5,254C 54.128,255.298 49.9613,250.464 53,239.5C 60.1158,232.863 68.2825,228.196 77.5,225.5 Z"/></g>
<g><path style="opacity:1" fill="#5377a7" d="M 414.5,257.5 C 431.338,256.173 448.338,256.173 465.5,257.5C 465.376,258.107 465.043,258.44 464.5,258.5C 448.008,257.503 431.342,257.17 414.5,257.5 Z"/></g>
<g><path style="opacity:1" fill="#7fb4fd" d="M 414.5,257.5 C 431.342,257.17 448.008,257.503 464.5,258.5C 451.345,282.139 438.179,305.806 425,329.5C 415.335,330.102 405.668,331.102 396,332.5C 394.5,332.167 393,331.833 391.5,331.5C 388.5,326.167 385.5,320.833 382.5,315.5C 393.179,296.14 403.846,276.806 414.5,257.5 Z"/></g>
<g><path style="opacity:1" fill="#040302" d="M 232.5,305.5 C 255.903,303.949 273.403,313.283 285,333.5C 285.465,345.852 279.965,349.686 268.5,345C 261.69,330.515 250.357,324.182 234.5,326C 229.375,327.981 224.208,329.814 219,331.5C 212.748,330.847 209.581,327.347 209.5,321C 209.909,318.679 210.743,316.513 212,314.5C 218.478,310.507 225.311,307.507 232.5,305.5 Z"/></g>
<g><path style="opacity:1" fill="#040302" d="M 124.5,348.5 C 147.903,346.949 165.403,356.283 177,376.5C 177.49,388.842 171.99,392.675 160.5,388C 153.69,373.515 142.357,367.182 126.5,369C 121.375,370.981 116.208,372.814 111,374.5C 104.748,373.847 101.581,370.347 101.5,364C 101.909,361.679 102.743,359.513 104,357.5C 110.478,353.507 117.311,350.507 124.5,348.5 Z"/></g>
<g><path style="opacity:1" fill="#040302" d="M 353.5,396.5 C 376.903,394.949 394.403,404.283 406,424.5C 406.465,436.852 400.965,440.686 389.5,436C 382.69,421.515 371.357,415.182 355.5,417C 350.375,418.981 345.208,420.814 340,422.5C 333.748,421.847 330.581,418.347 330.5,412C 330.909,409.679 331.743,407.513 333,405.5C 339.478,401.507 346.311,398.507 353.5,396.5 Z"/></g>
<g><path style="opacity:0.948" fill="#040302" d="M 479.5,476.5 C 482.447,488.391 477.78,493.557 465.5,492C 464.295,490.624 462.962,489.458 461.5,488.5C 460.779,485.183 460.612,481.849 461,478.5C 466.316,471.243 472.483,470.577 479.5,476.5 Z"/></g>
</svg>
