<?xml version="1.0" encoding="UTF-8"?>
<!DOCTYPE svg PUBLIC "-//W3C//DTD SVG 1.1//EN" "http://www.w3.org/Graphics/SVG/1.1/DTD/svg11.dtd">
<svg xmlns="http://www.w3.org/2000/svg" version="1.1" width="512px" height="512px" style="shape-rendering:geometricPrecision; text-rendering:geometricPrecision; image-rendering:optimizeQuality; fill-rule:evenodd; clip-rule:evenodd" xmlns:xlink="http://www.w3.org/1999/xlink">
<g><path style="opacity:0.992" fill="#000000" d="M 99.5,39.5 C 203.167,39.3333 306.834,39.5 410.5,40C 438.883,46.0494 456.383,63.216 463,91.5C 463.667,198.167 463.667,304.833 463,411.5C 455.833,444 436,463.833 403.5,471C 303.131,471.989 202.798,471.655 102.5,470C 72.5974,461.431 54.4307,441.931 48,411.5C 47.3333,406.167 47.3333,400.833 48,395.5C 48.5,393.667 49.6667,392.5 51.5,392C 76.8311,391.5 102.164,391.333 127.5,391.5C 127.5,316.833 127.5,242.167 127.5,167.5C 99.4979,171.896 76.6645,163.229 59,141.5C 46.7997,122.479 44.1331,102.146 51,80.5C 60.2214,58.4916 76.388,44.8249 99.5,39.5 Z M 398.5,55.5 C 423.518,57.3544 439.352,70.3544 446,94.5C 448.577,123.246 436.077,141.746 408.5,150C 379.595,152.803 361.095,140.303 353,112.5C 349.797,85.3931 360.963,67.2265 386.5,58C 390.637,57.1606 394.637,56.3272 398.5,55.5 Z M 446.5,147.5 C 447.666,231.332 447.832,315.332 447,399.5C 445.826,422.652 434.993,439.485 414.5,450C 384.403,460.694 360.569,452.86 343,426.5C 338.301,416.705 335.634,406.371 335,395.5C 334.5,393.667 333.333,392.5 331.5,392C 268.834,391.5 206.168,391.333 143.5,391.5C 143.5,316.833 143.5,242.167 143.5,167.5C 232.501,167.667 321.501,167.5 410.5,167C 424.733,164.387 436.733,157.887 446.5,147.5 Z"/></g>
<g><path style="opacity:0.991" fill="#000000" d="M 211.5,191.5 C 267.501,191.333 323.501,191.5 379.5,192C 382.516,193.529 383.849,196.029 383.5,199.5C 383.849,202.971 382.516,205.471 379.5,207C 323.5,207.667 267.5,207.667 211.5,207C 208.484,205.471 207.151,202.971 207.5,199.5C 207.282,195.934 208.616,193.268 211.5,191.5 Z"/></g>
<g><path style="opacity:0.994" fill="#000000" d="M 163.5,223.5 C 251.501,223.333 339.501,223.5 427.5,224C 430.516,225.529 431.849,228.029 431.5,231.5C 431.849,234.971 430.516,237.471 427.5,239C 339.5,239.667 251.5,239.667 163.5,239C 160.484,237.471 159.151,234.971 159.5,231.5C 159.282,227.934 160.616,225.268 163.5,223.5 Z"/></g>
<g><path style="opacity:0.991" fill="#000000" d="M 211.5,255.5 C 267.501,255.333 323.501,255.5 379.5,256C 382.516,257.529 383.849,260.029 383.5,263.5C 383.849,266.971 382.516,269.471 379.5,271C 323.5,271.667 267.5,271.667 211.5,271C 208.484,269.471 207.151,266.971 207.5,263.5C 207.282,259.934 208.616,257.268 211.5,255.5 Z"/></g>
<g><path style="opacity:0.994" fill="#000000" d="M 163.5,287.5 C 251.501,287.333 339.501,287.5 427.5,288C 430.516,289.529 431.849,292.029 431.5,295.5C 431.849,298.971 430.516,301.471 427.5,303C 339.5,303.667 251.5,303.667 163.5,303C 160.484,301.471 159.151,298.971 159.5,295.5C 159.282,291.934 160.616,289.268 163.5,287.5 Z"/></g>
<g><path style="opacity:0.991" fill="#000000" d="M 211.5,319.5 C 267.501,319.333 323.501,319.5 379.5,320C 382.516,321.529 383.849,324.029 383.5,327.5C 383.849,330.971 382.516,333.471 379.5,335C 323.5,335.667 267.5,335.667 211.5,335C 208.484,333.471 207.151,330.971 207.5,327.5C 207.282,323.934 208.616,321.268 211.5,319.5 Z"/></g>
<g><path style="opacity:0.994" fill="#000000" d="M 163.5,351.5 C 251.501,351.333 339.501,351.5 427.5,352C 430.516,353.529 431.849,356.029 431.5,359.5C 431.849,362.971 430.516,365.471 427.5,367C 339.5,367.667 251.5,367.667 163.5,367C 160.484,365.471 159.151,362.971 159.5,359.5C 159.282,355.934 160.616,353.268 163.5,351.5 Z"/></g>
</svg>
