<?xml version="1.0" encoding="UTF-8"?>
<!DOCTYPE svg PUBLIC "-//W3C//DTD SVG 1.1//EN" "http://www.w3.org/Graphics/SVG/1.1/DTD/svg11.dtd">
<svg xmlns="http://www.w3.org/2000/svg" version="1.1" width="512px" height="512px" style="shape-rendering:geometricPrecision; text-rendering:geometricPrecision; image-rendering:optimizeQuality; fill-rule:evenodd; clip-rule:evenodd" xmlns:xlink="http://www.w3.org/1999/xlink">
<g><path style="opacity:0.981" fill="#2e4858" d="M 307.5,18.5 C 312.08,18.1134 316.414,18.9468 320.5,21C 325.923,24.4187 330.756,28.5854 335,33.5C 350.246,52.3074 363.246,72.6407 374,94.5C 404.621,151.374 427.121,211.207 441.5,274C 452.634,273.93 462.134,277.764 470,285.5C 482.487,280.229 492.154,283.562 499,295.5C 507.28,310.094 505.447,323.261 493.5,335C 490.072,336.94 486.406,338.106 482.5,338.5C 481.409,351.438 474.743,360.271 462.5,365C 461.643,365.689 460.977,366.522 460.5,367.5C 463.441,389.799 466.274,412.132 469,434.5C 473.24,439.317 477.24,444.317 481,449.5C 488.72,463.255 489.22,477.255 482.5,491.5C 452.527,493.045 422.527,493.712 392.5,493.5C 276.508,491.481 160.508,490.148 44.5,489.5C 47.5174,474.922 49.684,460.256 51,445.5C 49.257,443.415 47.257,441.748 45,440.5C 17.118,445.395 4.11799,433.728 6,405.5C 6.83397,400.332 9.33397,396.165 13.5,393C 19.2843,390.386 25.2843,388.386 31.5,387C 24.3556,379.914 22.8556,371.747 27,362.5C 34.7647,347.617 46.7647,341.617 63,344.5C 65.522,340.645 68.6887,337.478 72.5,335C 80.7201,286.18 88.8867,237.346 97,188.5C 101.465,164.916 110.798,143.583 125,124.5C 138.558,107.789 154.391,105.289 172.5,117C 181.918,123.083 190.085,130.583 197,139.5C 203,147.5 209,155.5 215,163.5C 225.923,130.326 240.589,98.9926 259,69.5C 269.32,53.8388 281.153,39.3388 294.5,26C 298.602,22.9539 302.935,20.4539 307.5,18.5 Z"/></g>
<g><path style="opacity:0.999" fill="#ccebf6" d="M 316.5,29.5 C 314.955,30.2297 314.122,31.563 314,33.5C 309.573,55.5644 305.739,77.731 302.5,100C 302.508,101.707 302.842,103.207 303.5,104.5C 301.243,111.365 297.743,117.365 293,122.5C 291.615,121.449 290.615,120.116 290,118.5C 287.58,108.644 286.246,98.644 286,88.5C 285.388,85.9683 283.888,85.1349 281.5,86C 275.198,93.3028 268.532,100.303 261.5,107C 258.834,109.335 255.834,111.169 252.5,112.5C 250.65,109.385 250.15,106.052 251,102.5C 263.151,76.0046 279.651,52.5046 300.5,32C 304.52,28.3191 309.187,26.9858 314.5,28C 315.416,28.2784 316.082,28.7784 316.5,29.5 Z"/></g>
<g><path style="opacity:0.998" fill="#fafafb" d="M 316.5,29.5 C 324.832,35.666 331.999,42.9993 338,51.5C 347.765,66.7772 356.932,82.4438 365.5,98.5C 364.21,99.4077 362.877,99.241 361.5,98C 354.531,92.0319 347.864,85.6986 341.5,79C 337.265,76.451 334.931,77.6177 334.5,82.5C 335.532,88.4764 335.698,94.4764 335,100.5C 334.163,102.007 332.996,102.507 331.5,102C 326.954,97.1226 322.787,91.956 319,86.5C 317.093,82.9904 314.26,81.8238 310.5,83C 307.475,89.9315 305.141,97.0982 303.5,104.5C 302.842,103.207 302.508,101.707 302.5,100C 305.739,77.731 309.573,55.5644 314,33.5C 314.122,31.563 314.955,30.2297 316.5,29.5 Z"/></g>
<g><path style="opacity:1" fill="#70afd9" d="M 350.5,96.5 C 352.228,101.515 354.061,106.515 356,111.5C 376.372,146.245 392.372,182.911 404,221.5C 409.707,242.678 415.541,263.678 421.5,284.5C 420.749,285.573 419.749,285.74 418.5,285C 408.682,278.125 398.682,277.791 388.5,284C 385.155,287.867 383.489,292.367 383.5,297.5C 367.049,296.125 355.882,303.125 350,318.5C 347.953,328.572 351.453,336.072 360.5,341C 364.346,342.669 368.346,343.836 372.5,344.5C 369.772,349.913 369.939,355.247 373,360.5C 390.438,377.491 408.271,377.824 426.5,361.5C 430.865,363.394 435.199,365.061 439.5,366.5C 438.275,367.152 437.608,368.319 437.5,370C 440.223,388.505 442.89,407.005 445.5,425.5C 438.313,424.446 431.146,424.446 424,425.5C 417.5,427.501 412.667,431.501 409.5,437.5C 399.961,427.195 388.295,423.861 374.5,427.5C 373.875,407.437 364.209,393.604 345.5,386C 338.312,383.552 330.978,381.885 323.5,381C 320.671,374.517 317.837,368.017 315,361.5C 314.333,359.833 314.333,358.167 315,356.5C 341.272,335.176 348.606,308.51 337,276.5C 330.38,258.382 318.213,245.715 300.5,238.5C 299.097,198.11 300.097,157.777 303.5,117.5C 306.232,107.304 309.565,97.3043 313.5,87.5C 317.539,91.3746 321.039,95.708 324,100.5C 326.685,104.927 330.518,106.76 335.5,106C 337.049,104.786 338.215,103.286 339,101.5C 339.333,95.8333 339.667,90.1667 340,84.5C 344.104,88.0954 347.604,92.0954 350.5,96.5 Z"/></g>
<g><path style="opacity:0.999" fill="#4d94c9" d="M 303.5,117.5 C 300.097,157.777 299.097,198.11 300.5,238.5C 295.375,236.384 290.041,234.884 284.5,234C 274.808,233.509 265.141,233.509 255.5,234C 243.357,212.877 231.357,191.711 219.5,170.5C 227.857,149.455 237.024,128.788 247,108.5C 247.311,110.556 247.811,112.556 248.5,114.5C 249.869,116.124 251.536,116.624 253.5,116C 264.217,109.452 273.55,101.286 281.5,91.5C 282.142,102.502 284.308,113.169 288,123.5C 289.864,126.207 292.364,127.041 295.5,126C 298.399,123.271 301.066,120.438 303.5,117.5 Z"/></g>
<g><path style="opacity:0.997" fill="#a6d1e7" d="M 350.5,96.5 C 356.453,101.062 362.953,104.728 370,107.5C 382.762,132.355 394.428,157.688 405,183.5C 415.571,213.88 425.738,244.38 435.5,275C 429.901,276.953 425.234,280.12 421.5,284.5C 415.541,263.678 409.707,242.678 404,221.5C 392.372,182.911 376.372,146.245 356,111.5C 354.061,106.515 352.228,101.515 350.5,96.5 Z"/></g>
<g><path style="opacity:0.999" fill="#ccebf6" d="M 173.5,129.5 C 170.789,145.608 168.789,161.942 167.5,178.5C 165.814,176.984 163.981,175.65 162,174.5C 160.739,174.759 159.739,175.426 159,176.5C 157.255,183.885 155.255,191.218 153,198.5C 152.121,201.346 150.454,202.013 148,200.5C 144.472,192.916 141.139,185.249 138,177.5C 135.936,176.409 133.769,176.242 131.5,177C 125.5,181.667 119.5,186.333 113.5,191C 110.89,192.481 108.223,193.648 105.5,194.5C 108.774,173.171 116.274,153.504 128,135.5C 132.925,128.573 139.092,123.073 146.5,119C 157.051,118.612 166.051,122.112 173.5,129.5 Z"/></g>
<g><path style="opacity:0.998" fill="#f9f9fa" d="M 173.5,129.5 C 191.249,145.312 205.916,163.645 217.5,184.5C 217.167,184.833 216.833,185.167 216.5,185.5C 205.798,180.487 196.131,173.987 187.5,166C 185.559,165.257 183.726,165.424 182,166.5C 181.667,173.833 181.333,181.167 181,188.5C 179.919,190.767 178.419,190.934 176.5,189C 173.137,185.748 170.137,182.248 167.5,178.5C 168.789,161.942 170.789,145.608 173.5,129.5 Z"/></g>
<g><path style="opacity:1" fill="#70afd9" d="M 215.5,190.5 C 214.448,190.351 213.448,190.517 212.5,191C 234.848,232.196 255.181,274.363 273.5,317.5C 268.373,319.285 263.04,320.785 257.5,322C 237.758,324.564 218.092,327.564 198.5,331C 181.795,335.691 166.128,342.525 151.5,351.5C 157.23,296.867 162.563,242.2 167.5,187.5C 170.471,189.657 173.471,191.824 176.5,194C 182.051,195.462 185.218,193.295 186,187.5C 186.333,182.167 186.667,176.833 187,171.5C 195.354,179.746 204.854,186.079 215.5,190.5 Z"/></g>
<g><path style="opacity:1" fill="#4d94c9" d="M 167.5,187.5 C 162.563,242.2 157.23,296.867 151.5,351.5C 149.114,354.04 146.281,356.04 143,357.5C 131.215,351.619 120.048,352.619 109.5,360.5C 104.72,358.388 99.7201,357.388 94.5,357.5C 94.1038,347.431 89.1038,340.764 79.5,337.5C 79.1667,336.667 78.8333,335.833 78.5,335C 88.29,289.76 96.6233,244.26 103.5,198.5C 107.511,198.498 111.178,197.332 114.5,195C 121.064,189.469 127.898,184.302 135,179.5C 137.781,187.729 141.115,195.729 145,203.5C 149.108,207.72 152.775,207.387 156,202.5C 158.468,195.596 160.635,188.596 162.5,181.5C 164.641,183.122 166.308,185.122 167.5,187.5 Z"/></g>
<g><path style="opacity:0.995" fill="#a6d1e7" d="M 215.5,190.5 C 220.342,189.842 223.509,191.842 225,196.5C 245.842,234.182 266.176,272.182 286,310.5C 286.749,311.635 286.583,312.635 285.5,313.5C 281.677,315.414 277.677,316.747 273.5,317.5C 255.181,274.363 234.848,232.196 212.5,191C 213.448,190.517 214.448,190.351 215.5,190.5 Z"/></g>
<g><path style="opacity:0.999" fill="#acacac" d="M 130.5,452.5 C 130.334,459.175 130.5,465.842 131,472.5C 134.267,474.988 136.267,473.988 137,469.5C 137.944,462.837 138.777,456.171 139.5,449.5C 155.927,439.83 161.26,425.997 155.5,408C 165.612,392.62 164.446,378.12 152,364.5C 150.759,363.123 150.592,361.79 151.5,360.5C 164.938,350.948 179.605,343.781 195.5,339C 217.383,334.683 239.383,331.017 261.5,328C 277.742,325.795 291.575,318.962 303,307.5C 309.531,294.331 308.531,281.664 300,269.5C 290.494,255.322 277.328,246.489 260.5,243C 259.643,242.311 258.977,241.478 258.5,240.5C 304.609,236.214 330.276,257.048 335.5,303C 335.022,321.957 327.355,337.29 312.5,349C 306.779,353.721 300.779,358.054 294.5,362C 273.654,372.589 252.654,382.923 231.5,393C 197.508,414.485 186.842,444.318 199.5,482.5C 157.849,484.982 116.182,485.149 74.5,483C 76.7888,475.132 79.2888,467.299 82,459.5C 82.8333,458.667 83.6667,457.833 84.5,457C 92.1866,455.937 99.52,453.77 106.5,450.5C 114.308,453.513 122.308,454.18 130.5,452.5 Z"/></g>
<g><path style="opacity:0.999" fill="#4e94c6" d="M 263.5,249.5 C 280.229,254.729 292.063,265.396 299,281.5C 303.009,292.763 300.509,302.097 291.5,309.5C 282.736,289.302 273.403,269.302 263.5,249.5 Z"/></g>
<g><path style="opacity:0.989" fill="#f1f1f1" d="M 291.5,249.5 C 294.022,249.128 296.022,249.961 297.5,252C 295.941,253.756 294.274,253.756 292.5,252C 291.748,251.329 291.414,250.496 291.5,249.5 Z"/></g>
<g><path style="opacity:0.994" fill="#efefef" d="M 305.5,259.5 C 307.729,260.055 309.395,261.389 310.5,263.5C 306.926,264.861 305.26,263.527 305.5,259.5 Z"/></g>
<g><path style="opacity:0.983" fill="#f9f9f9" d="M 316.5,272.5 C 319.893,274.073 321.226,276.74 320.5,280.5C 319.325,280.719 318.325,280.386 317.5,279.5C 316.626,277.253 316.292,274.92 316.5,272.5 Z"/></g>
<g><path style="opacity:0.999" fill="#fcfcfd" d="M 496.5,313.5 C 492.222,315.977 487.888,318.477 483.5,321C 478.167,321.333 472.833,321.667 467.5,322C 466.333,323.167 465.167,324.333 464,325.5C 463.322,333.875 460.488,341.375 455.5,348C 453.283,349.275 450.949,350.275 448.5,351C 442.843,351.499 437.176,351.666 431.5,351.5C 431.5,349.833 431.5,348.167 431.5,346.5C 424.4,347.21 417.734,349.377 411.5,353C 398.018,358.794 386.018,356.627 375.5,346.5C 375.263,345.209 375.596,344.209 376.5,343.5C 384.323,343.338 390.823,340.338 396,334.5C 396.483,333.552 396.649,332.552 396.5,331.5C 386.217,329.343 375.884,327.51 365.5,326C 364.667,325.167 363.833,324.333 363,323.5C 362.082,319.72 361.249,316.054 360.5,312.5C 365.797,304.003 373.464,300.836 383.5,303C 384.603,306.039 386.103,308.873 388,311.5C 386.899,304.722 387.566,298.055 390,291.5C 393.845,285.333 399.345,283.166 406.5,285C 410.637,285.651 414.137,287.485 417,290.5C 417.231,294.584 417.898,298.584 419,302.5C 422.297,287.774 431.463,280.607 446.5,281C 453.307,282.157 459.64,284.49 465.5,288C 467.7,290.234 469.533,292.734 471,295.5C 471.495,293.527 471.662,291.527 471.5,289.5C 487.725,289.393 496.058,297.393 496.5,313.5 Z"/></g>
<g><path style="opacity:1" fill="#f9f9f9" d="M 320.5,293.5 C 321.117,293.611 321.617,293.944 322,294.5C 322.495,296.473 322.662,298.473 322.5,300.5C 321.5,300.5 320.5,300.5 319.5,300.5C 319.298,298.05 319.631,295.717 320.5,293.5 Z"/></g>
<g><path style="opacity:0.992" fill="#f7f7f7" d="M 315.5,310.5 C 316.837,311.315 317.837,312.482 318.5,314C 316.873,316.754 315.373,319.588 314,322.5C 312.12,323.93 310.62,323.596 309.5,321.5C 310.763,317.327 312.763,313.661 315.5,310.5 Z"/></g>
<g><path style="opacity:0.997" fill="#cdecf7" d="M 360.5,312.5 C 361.249,316.054 362.082,319.72 363,323.5C 363.833,324.333 364.667,325.167 365.5,326C 375.884,327.51 386.217,329.343 396.5,331.5C 396.649,332.552 396.483,333.552 396,334.5C 390.823,340.338 384.323,343.338 376.5,343.5C 376.719,342.325 376.386,341.325 375.5,340.5C 368.519,338.594 362.352,335.261 357,330.5C 354.292,323.627 355.459,317.627 360.5,312.5 Z"/></g>
<g><path style="opacity:0.998" fill="#ccebf5" d="M 496.5,313.5 C 496.813,322.023 493.146,328.19 485.5,332C 483.741,332.798 482.074,332.631 480.5,331.5C 479.294,328.125 477.46,325.125 475,322.5C 480.085,345.578 470.919,358.578 447.5,361.5C 441.743,360.782 436.076,359.615 430.5,358C 429.657,356.213 429.49,354.38 430,352.5C 422.706,357.898 414.872,362.398 406.5,366C 393.203,369.092 383.037,364.926 376,353.5C 375.503,351.19 375.337,348.857 375.5,346.5C 386.018,356.627 398.018,358.794 411.5,353C 417.734,349.377 424.4,347.21 431.5,346.5C 431.5,348.167 431.5,349.833 431.5,351.5C 437.176,351.666 442.843,351.499 448.5,351C 450.949,350.275 453.283,349.275 455.5,348C 460.488,341.375 463.322,333.875 464,325.5C 465.167,324.333 466.333,323.167 467.5,322C 472.833,321.667 478.167,321.333 483.5,321C 487.888,318.477 492.222,315.977 496.5,313.5 Z"/></g>
<g><path style="opacity:0.996" fill="#f9f9f9" d="M 299.5,327.5 C 303.797,328.288 304.63,330.621 302,334.5C 298.946,338.067 295.113,340.067 290.5,340.5C 290.264,337.774 291.097,335.441 293,333.5C 295.063,331.266 297.229,329.266 299.5,327.5 Z"/></g>
<g><path style="opacity:1" fill="#fcfdfd" d="M 148.5,430.5 C 138.449,431.364 128.449,432.698 118.5,434.5C 117.5,434.333 116.5,434.167 115.5,434C 113.284,430.477 110.117,428.643 106,428.5C 100.332,430.469 94.8316,432.969 89.5,436C 78.142,440.059 67.642,438.559 58,431.5C 57.9467,428.798 58.4467,426.131 59.5,423.5C 59.3918,422.558 59.0585,421.725 58.5,421C 49.9808,420.037 41.6475,420.87 33.5,423.5C 28.5493,423.389 25.0493,421.055 23,416.5C 21.8225,411.457 20.4892,406.457 19,401.5C 18.2917,400.619 17.4584,399.953 16.5,399.5C 19.475,396.339 23.1417,394.172 27.5,393C 32.6381,390.328 37.9714,389.494 43.5,390.5C 47.3112,391.645 51.3112,391.812 55.5,391C 58.725,389.277 61.0584,386.777 62.5,383.5C 61.7814,381.272 60.448,379.439 58.5,378C 54.5378,375.436 50.3712,373.269 46,371.5C 45.5005,365.509 45.3338,359.509 45.5,353.5C 50.2087,349.04 55.8754,347.374 62.5,348.5C 62.3398,350.199 62.5065,351.866 63,353.5C 71.9623,339.153 80.9623,339.153 90,353.5C 90.7975,355.259 90.6309,356.926 89.5,358.5C 87.246,359.124 85.5794,360.457 84.5,362.5C 97.893,360.682 108.726,365.015 117,375.5C 117.832,371.33 116.998,367.497 114.5,364C 116.348,361.907 118.681,360.574 121.5,360C 137.114,358.89 148.281,365.39 155,379.5C 157.409,386.484 156.742,393.151 153,399.5C 150.5,402.667 148,405.833 145.5,409C 147.101,409.273 148.601,409.773 150,410.5C 153.67,417.597 153.17,424.264 148.5,430.5 Z"/></g>
<g><path style="opacity:0.992" fill="#f8f8f8" d="M 265.5,347.5 C 272.03,346.785 273.03,348.619 268.5,353C 263.513,356.588 258.18,357.588 252.5,356C 256.557,352.645 260.89,349.812 265.5,347.5 Z"/></g>
<g><path style="opacity:0.998" fill="#ccebf5" d="M 45.5,353.5 C 45.3338,359.509 45.5005,365.509 46,371.5C 50.3712,373.269 54.5378,375.436 58.5,378C 60.448,379.439 61.7814,381.272 62.5,383.5C 61.0584,386.777 58.725,389.277 55.5,391C 51.3112,391.812 47.3112,391.645 43.5,390.5C 45.1992,390.66 46.8659,390.494 48.5,390C 39.7406,386.908 34.074,380.908 31.5,372C 33.1789,363.435 37.8455,357.269 45.5,353.5 Z"/></g>
<g><path style="opacity:0.994" fill="#f9f9f9" d="M 223.5,359.5 C 230.964,358.89 232.297,361.39 227.5,367C 221.59,369.137 215.59,370.97 209.5,372.5C 205.961,371.365 205.628,369.532 208.5,367C 213.592,364.454 218.592,361.954 223.5,359.5 Z"/></g>
<g><path style="opacity:0.997" fill="#a5cfe6" d="M 304.5,384.5 C 302.438,379.375 300.104,374.375 297.5,369.5C 300.922,366.61 304.589,363.943 308.5,361.5C 311.702,367.911 314.369,374.578 316.5,381.5C 312.466,382.505 308.466,383.505 304.5,384.5 Z"/></g>
<g><path style="opacity:0.998" fill="#a5d0e6" d="M 439.5,366.5 C 444.5,366.5 449.5,366.5 454.5,366.5C 457.261,388.513 459.761,410.513 462,432.5C 456.663,429.747 451.163,427.414 445.5,425.5C 442.89,407.005 440.223,388.505 437.5,370C 437.608,368.319 438.275,367.152 439.5,366.5 Z"/></g>
<g><path style="opacity:1" fill="#71add7" d="M 297.5,369.5 C 300.104,374.375 302.438,379.375 304.5,384.5C 283.073,391.122 271.906,405.788 271,428.5C 255.99,420.673 240.823,420.506 225.5,428C 215.141,433.031 206.641,440.197 200,449.5C 203.799,427.086 215.632,410.253 235.5,399C 256.067,388.882 276.734,379.049 297.5,369.5 Z"/></g>
<g><path style="opacity:0.997" fill="#f9f9f9" d="M 180.5,374.5 C 182.527,374.338 184.527,374.505 186.5,375C 187.517,376.049 187.684,377.216 187,378.5C 182.533,384.335 177.033,388.502 170.5,391C 169.409,388.936 169.242,386.769 170,384.5C 173.396,380.935 176.896,377.602 180.5,374.5 Z"/></g>
<g><path style="opacity:0.998" fill="#b9d95e" d="M 334.5,391.5 C 335.091,392.151 335.757,392.818 336.5,393.5C 326.912,398.423 317.246,403.256 307.5,408C 301.575,412.008 297.742,417.508 296,424.5C 294.907,431.152 293.907,437.819 293,444.5C 289.087,450.617 284.754,450.951 280,445.5C 279.517,444.552 279.351,443.552 279.5,442.5C 280.458,442.953 281.292,443.619 282,444.5C 274.835,426.655 278.335,411.155 292.5,398C 305.648,389.483 319.648,387.316 334.5,391.5 Z"/></g>
<g><path style="opacity:1" fill="#d2e78b" d="M 334.5,391.5 C 336.415,391.216 338.081,391.549 339.5,392.5C 339.389,393.117 339.056,393.617 338.5,394C 344.623,397.789 349.79,402.622 354,408.5C 357.713,416.188 360.879,423.855 363.5,431.5C 360.723,433.951 358.723,436.951 357.5,440.5C 355.413,445.333 356.913,448.667 362,450.5C 366.823,447.683 371.657,444.849 376.5,442C 381.167,440.667 385.833,439.333 390.5,438C 392.584,437.303 394.251,436.136 395.5,434.5C 396.167,434.833 396.833,435.167 397.5,435.5C 401.81,442.778 406.144,450.111 410.5,457.5C 411.735,456.66 412.735,455.66 413.5,454.5C 414.404,453.791 414.737,452.791 414.5,451.5C 415.922,451.291 417.255,450.791 418.5,450C 421.5,445.667 425.167,442 429.5,439C 432.648,437.395 435.981,436.395 439.5,436C 435.829,433.61 431.829,432.11 427.5,431.5C 433.426,430.352 439.426,430.686 445.5,432.5C 444.878,434.335 443.544,435.502 441.5,436C 457.052,441.921 466.385,453.087 469.5,469.5C 389.515,471.437 309.515,472.27 229.5,472C 226.768,471.587 224.101,470.92 221.5,470C 220.484,469.481 219.818,468.647 219.5,467.5C 223.253,457.144 229.92,449.311 239.5,444C 244.42,441.804 249.42,439.804 254.5,438C 257.898,436.643 260.898,434.81 263.5,432.5C 269.514,434.835 274.848,438.169 279.5,442.5C 279.351,443.552 279.517,444.552 280,445.5C 284.754,450.951 289.087,450.617 293,444.5C 293.907,437.819 294.907,431.152 296,424.5C 297.742,417.508 301.575,412.008 307.5,408C 317.246,403.256 326.912,398.423 336.5,393.5C 335.757,392.818 335.091,392.151 334.5,391.5 Z"/></g>
<g><path style="opacity:0.991" fill="#e0ecbb" d="M 339.5,392.5 C 349.717,394.886 357.551,400.552 363,409.5C 366.642,415.117 369.475,421.117 371.5,427.5C 369.181,429.393 366.514,430.726 363.5,431.5C 360.879,423.855 357.713,416.188 354,408.5C 349.79,402.622 344.623,397.789 338.5,394C 339.056,393.617 339.389,393.117 339.5,392.5 Z"/></g>
<g><path style="opacity:0.998" fill="#ccebf5" d="M 16.5,399.5 C 17.4584,399.953 18.2917,400.619 19,401.5C 20.4892,406.457 21.8225,411.457 23,416.5C 25.0493,421.055 28.5493,423.389 33.5,423.5C 41.6475,420.87 49.9808,420.037 58.5,421C 59.0585,421.725 59.3918,422.558 59.5,423.5C 58.4467,426.131 57.9467,428.798 58,431.5C 67.642,438.559 78.142,440.059 89.5,436C 94.8316,432.969 100.332,430.469 106,428.5C 110.117,428.643 113.284,430.477 115.5,434C 116.5,434.167 117.5,434.333 118.5,434.5C 128.449,432.698 138.449,431.364 148.5,430.5C 145.281,437.547 139.948,442.38 132.5,445C 125.901,446.496 119.234,446.829 112.5,446C 111.692,445.692 111.025,445.192 110.5,444.5C 111.752,442.265 112.252,439.931 112,437.5C 94.3421,452.077 75.8421,453.244 56.5,441C 54.981,439.649 53.6477,438.149 52.5,436.5C 53.5,435.167 54.5,433.833 55.5,432.5C 55.1667,432.167 54.8333,431.833 54.5,431.5C 48.7661,433.945 42.7661,434.945 36.5,434.5C 18.8543,434.347 10.6877,425.347 12,407.5C 12.7542,404.316 14.2542,401.649 16.5,399.5 Z"/></g>
<g><path style="opacity:0.998" fill="#b8d85e" d="M 263.5,432.5 C 260.898,434.81 257.898,436.643 254.5,438C 249.42,439.804 244.42,441.804 239.5,444C 229.92,449.311 223.253,457.144 219.5,467.5C 219.818,468.647 220.484,469.481 221.5,470C 224.101,470.92 226.768,471.587 229.5,472C 309.515,472.27 389.515,471.437 469.5,469.5C 469.833,469.5 470.167,469.5 470.5,469.5C 472.992,472.469 475.492,475.469 478,478.5C 478.383,477.944 478.883,477.611 479.5,477.5C 479.917,480.079 479.25,482.246 477.5,484C 387.161,486.019 296.828,485.686 206.5,483C 198.398,471.658 198.565,460.491 207,449.5C 219.577,435.128 235.411,428.295 254.5,429C 257.865,429.505 260.865,430.672 263.5,432.5 Z"/></g>
<g><path style="opacity:0.996" fill="#b9d85e" d="M 427.5,431.5 C 431.829,432.11 435.829,433.61 439.5,436C 435.981,436.395 432.648,437.395 429.5,439C 425.167,442 421.5,445.667 418.5,450C 417.255,450.791 415.922,451.291 414.5,451.5C 410.511,439.772 414.844,433.105 427.5,431.5 Z"/></g>
<g><path style="opacity:0.998" fill="#b8d85e" d="M 395.5,434.5 C 394.251,436.136 392.584,437.303 390.5,438C 385.833,439.333 381.167,440.667 376.5,442C 371.657,444.849 366.823,447.683 362,450.5C 356.913,448.667 355.413,445.333 357.5,440.5C 358.15,440.804 358.817,441.137 359.5,441.5C 368.609,433.304 379.276,430.471 391.5,433C 392.901,433.41 394.234,433.91 395.5,434.5 Z"/></g>
<g><path style="opacity:0.993" fill="#e2edbd" d="M 445.5,432.5 C 464.55,437.878 475.883,450.212 479.5,469.5C 476.5,469.5 473.5,469.5 470.5,469.5C 470.167,469.5 469.833,469.5 469.5,469.5C 466.385,453.087 457.052,441.921 441.5,436C 443.544,435.502 444.878,434.335 445.5,432.5 Z"/></g>
<g><path style="opacity:0.979" fill="#dfebba" d="M 397.5,435.5 C 403.782,439.712 408.949,445.046 413,451.5C 413.483,452.448 413.649,453.448 413.5,454.5C 412.735,455.66 411.735,456.66 410.5,457.5C 406.144,450.111 401.81,442.778 397.5,435.5 Z"/></g>
<g><path style="opacity:0.996" fill="#f9fafa" d="M 139.5,449.5 C 138.777,456.171 137.944,462.837 137,469.5C 136.267,473.988 134.267,474.988 131,472.5C 130.5,465.842 130.334,459.175 130.5,452.5C 133.421,451.304 136.421,450.304 139.5,449.5 Z"/></g>
<g><path style="opacity:1" fill="#4e94c5" d="M 57.5,450.5 C 63.1798,452.226 68.8465,454.06 74.5,456C 75.5784,456.674 76.2451,457.674 76.5,459C 75.3853,466.907 73.8853,474.74 72,482.5C 65.9242,483.476 59.7576,483.81 53.5,483.5C 54.5068,472.459 55.8401,461.459 57.5,450.5 Z"/></g>
<g><path style="opacity:0.989" fill="#d2e78b" d="M 470.5,469.5 C 473.5,469.5 476.5,469.5 479.5,469.5C 479.5,472.167 479.5,474.833 479.5,477.5C 478.883,477.611 478.383,477.944 478,478.5C 475.492,475.469 472.992,472.469 470.5,469.5 Z"/></g>
</svg>
