<?xml version="1.0" encoding="UTF-8"?>
<!DOCTYPE svg PUBLIC "-//W3C//DTD SVG 1.1//EN" "http://www.w3.org/Graphics/SVG/1.1/DTD/svg11.dtd">
<svg xmlns="http://www.w3.org/2000/svg" version="1.1" width="512px" height="512px" style="shape-rendering:geometricPrecision; text-rendering:geometricPrecision; image-rendering:optimizeQuality; fill-rule:evenodd; clip-rule:evenodd" xmlns:xlink="http://www.w3.org/1999/xlink">
<g><path style="opacity:0.977" fill="#010000" d="M 98.5,-0.5 C 104.5,-0.5 110.5,-0.5 116.5,-0.5C 152.763,10.4293 174.763,34.4293 182.5,71.5C 194.838,71.3335 207.171,71.5001 219.5,72C 223.801,73.7854 225.801,76.9521 225.5,81.5C 225.248,87.3512 222.248,90.6845 216.5,91.5C 205.5,91.5 194.5,91.5 183.5,91.5C 183.5,94.5 183.5,97.5 183.5,100.5C 183.54,103.881 183.207,107.214 182.5,110.5C 181.957,110.56 181.624,110.893 181.5,111.5C 230.833,112.833 280.167,112.833 329.5,111.5C 329.376,110.893 329.043,110.56 328.5,110.5C 327.793,107.214 327.46,103.881 327.5,100.5C 327.5,97.5 327.5,94.5 327.5,91.5C 316.5,91.5 305.5,91.5 294.5,91.5C 288.768,90.7402 285.768,87.4068 285.5,81.5C 285.199,76.9521 287.199,73.7854 291.5,72C 303.829,71.5001 316.162,71.3335 328.5,71.5C 336.237,34.4293 358.237,10.4293 394.5,-0.5C 400.5,-0.5 406.5,-0.5 412.5,-0.5C 436.395,8.6197 446.229,25.953 442,51.5C 439.552,61.2267 434.052,68.7267 425.5,74C 420.195,76.3179 415.028,78.8179 410,81.5C 407.019,87.6458 406.685,93.9791 409,100.5C 411.479,106.125 414.479,111.458 418,116.5C 480.04,176.632 502.707,249.299 486,334.5C 479.621,361.587 468.621,386.587 453,409.5C 448.795,413.451 443.962,414.451 438.5,412.5C 437.155,410.303 435.989,407.97 435,405.5C 434.333,403.5 434.333,401.5 435,399.5C 479.545,329.965 483.211,258.298 446,184.5C 433.657,163.811 418.657,145.144 401,128.5C 392.531,117.265 387.698,104.598 386.5,90.5C 387.173,72.6571 396.173,61.4904 413.5,57C 419.953,53.2014 422.953,47.5348 422.5,40C 421.149,25.3136 413.149,18.6469 398.5,20C 365.698,31.2448 348.365,54.2448 346.5,89C 347.245,115.581 356.412,138.748 374,158.5C 429.73,211.762 444.397,274.762 418,347.5C 406.354,373.783 389.188,395.783 366.5,413.5C 365.167,429.5 365.167,445.5 366.5,461.5C 372.833,457.667 379.167,453.833 385.5,450C 389.702,449.432 393.369,450.599 396.5,453.5C 399.811,459.483 398.811,464.65 393.5,469C 358.411,493.049 319.744,507.216 277.5,511.5C 262.833,511.5 248.167,511.5 233.5,511.5C 157.054,502.71 97.2202,466.71 54,403.5C 14.3511,337.002 8.68447,267.669 37,195.5C 50.4953,165.513 69.162,139.179 93,116.5C 99.2312,109.143 102.731,100.643 103.5,91C 103.733,87.5411 102.899,84.3745 101,81.5C 90.8623,78.0969 82.1956,72.4302 75,64.5C 64.6736,47.0922 65.3402,30.0922 77,13.5C 82.8605,6.66386 90.0271,1.99719 98.5,-0.5 Z M 176.5,132.5 C 182.833,132.5 189.167,132.5 195.5,132.5C 195.5,227.833 195.5,323.167 195.5,418.5C 185.642,414.904 176.309,410.238 167.5,404.5C 166.333,320.502 166.167,236.502 167,152.5C 170.453,145.928 173.62,139.262 176.5,132.5 Z M 215.5,132.5 C 225.5,132.5 235.5,132.5 245.5,132.5C 245.5,231.833 245.5,331.167 245.5,430.5C 235.443,429.963 225.61,428.296 216,425.5C 215.5,327.834 215.333,230.167 215.5,132.5 Z M 265.5,132.5 C 275.5,132.5 285.5,132.5 295.5,132.5C 295.667,230.167 295.5,327.834 295,425.5C 285.39,428.296 275.557,429.963 265.5,430.5C 265.5,331.167 265.5,231.833 265.5,132.5 Z M 315.5,132.5 C 321.842,132.334 328.175,132.5 334.5,133C 337.268,139.37 340.435,145.537 344,151.5C 344.833,235.835 344.667,320.169 343.5,404.5C 334.573,409.881 325.407,414.881 316,419.5C 315.5,323.834 315.333,228.167 315.5,132.5 Z M 144.5,179.5 C 145.665,248.332 145.832,317.332 145,386.5C 101.358,341.297 90.0243,288.964 111,229.5C 119.223,210.793 130.389,194.126 144.5,179.5 Z M 365.5,179.5 C 403.279,216.906 417.112,261.906 407,314.5C 400.448,342.679 386.781,366.679 366,386.5C 365.5,317.501 365.333,248.501 365.5,179.5 Z"/></g>
<g><path style="opacity:1" fill="#fcbe58" d="M 102.5,19.5 C 137.652,24.8176 158.152,45.1509 164,80.5C 165.455,105.347 159.122,128.014 145,148.5C 135.703,159.466 126.036,170.132 116,180.5C 77.4652,231.765 69.7985,287.432 93,347.5C 104.646,373.783 121.812,395.783 144.5,413.5C 145.666,429.823 145.833,446.156 145,462.5C 66.8271,413.481 32.4938,342.815 42,250.5C 47.4327,219.519 59.0994,191.186 77,165.5C 88.1953,151.792 99.862,138.459 112,125.5C 120.444,113.502 124.444,100.169 124,85.5C 122.653,76.9702 118.819,69.8036 112.5,64C 106.5,61 100.5,58 94.5,55C 88.0113,47.3369 86.8446,38.8369 91,29.5C 93.8178,24.8388 97.6511,21.5055 102.5,19.5 Z"/></g>
<g><path style="opacity:0.999" fill="#fcbe58" d="M 438.5,412.5 C 434.874,417.461 430.874,422.128 426.5,426.5C 421.052,423.497 415.885,423.83 411,427.5C 409.455,429.209 408.622,431.209 408.5,433.5C 409.221,436.605 410.221,439.605 411.5,442.5C 406.762,446.578 401.762,450.244 396.5,453.5C 393.369,450.599 389.702,449.432 385.5,450C 379.167,453.833 372.833,457.667 366.5,461.5C 365.167,445.5 365.167,429.5 366.5,413.5C 389.188,395.783 406.354,373.783 418,347.5C 444.397,274.762 429.73,211.762 374,158.5C 356.412,138.748 347.245,115.581 346.5,89C 348.365,54.2448 365.698,31.2448 398.5,20C 413.149,18.6469 421.149,25.3136 422.5,40C 422.953,47.5348 419.953,53.2014 413.5,57C 396.173,61.4904 387.173,72.6571 386.5,90.5C 387.698,104.598 392.531,117.265 401,128.5C 418.657,145.144 433.657,163.811 446,184.5C 483.211,258.298 479.545,329.965 435,399.5C 434.333,401.5 434.333,403.5 435,405.5C 435.989,407.97 437.155,410.303 438.5,412.5 Z"/></g>
<g><path style="opacity:0.951" fill="#030100" d="M 265.5,81.5 C 265.097,88.0699 261.597,91.4032 255,91.5C 248.977,90.975 245.81,87.6416 245.5,81.5C 247.127,72.182 252.46,69.3487 261.5,73C 264.844,74.894 266.178,77.7273 265.5,81.5 Z"/></g>
<g><path style="opacity:0.998" fill="#fe9155" d="M 225.5,81.5 C 232.167,81.5 238.833,81.5 245.5,81.5C 245.81,87.6416 248.977,90.975 255,91.5C 261.597,91.4032 265.097,88.0699 265.5,81.5C 272.167,81.5 278.833,81.5 285.5,81.5C 285.768,87.4068 288.768,90.7402 294.5,91.5C 304.987,92.4944 315.654,92.8278 326.5,92.5C 326.194,95.3854 326.527,98.0521 327.5,100.5C 327.46,103.881 327.793,107.214 328.5,110.5C 279.833,111.833 231.167,111.833 182.5,110.5C 183.207,107.214 183.54,103.881 183.5,100.5C 184.473,98.0521 184.806,95.3854 184.5,92.5C 195.346,92.8278 206.013,92.4944 216.5,91.5C 222.248,90.6845 225.248,87.3512 225.5,81.5 Z"/></g>
<g><path style="opacity:1" fill="#c06e41" d="M 216.5,91.5 C 206.013,92.4944 195.346,92.8278 184.5,92.5C 184.806,95.3854 184.473,98.0521 183.5,100.5C 183.5,97.5 183.5,94.5 183.5,91.5C 194.5,91.5 205.5,91.5 216.5,91.5 Z"/></g>
<g><path style="opacity:1" fill="#c06e41" d="M 294.5,91.5 C 305.5,91.5 316.5,91.5 327.5,91.5C 327.5,94.5 327.5,97.5 327.5,100.5C 326.527,98.0521 326.194,95.3854 326.5,92.5C 315.654,92.8278 304.987,92.4944 294.5,91.5 Z"/></g>
<g><path style="opacity:1" fill="#321c10" d="M 182.5,110.5 C 231.167,111.833 279.833,111.833 328.5,110.5C 329.043,110.56 329.376,110.893 329.5,111.5C 280.167,112.833 230.833,112.833 181.5,111.5C 181.624,110.893 181.957,110.56 182.5,110.5 Z"/></g>
<g><path style="opacity:0.935" fill="#040301" d="M 426.5,426.5 C 431.421,434.236 429.754,440.069 421.5,444C 417.979,444.691 414.645,444.191 411.5,442.5C 410.221,439.605 409.221,436.605 408.5,433.5C 408.622,431.209 409.455,429.209 411,427.5C 415.885,423.83 421.052,423.497 426.5,426.5 Z"/></g>
<g><path style="opacity:1" fill="#fd9055" d="M 165.5,427.5 C 217.558,455.963 271.224,459.129 326.5,437C 333.027,434.487 339.193,431.32 345,427.5C 345.667,442.5 345.667,457.5 345,472.5C 295.75,493.367 245.25,496.867 193.5,483C 184.004,480.28 174.837,476.78 166,472.5C 165.5,457.504 165.333,442.504 165.5,427.5 Z"/></g>
</svg>
