<?xml version="1.0" encoding="UTF-8"?>
<svg version="1.1" xmlns="http://www.w3.org/2000/svg" width="512" height="512">
<path d="M0 0 C1.01790619 0.00215515 2.03581238 0.0043103 3.08456421 0.00653076 C17.69363523 0.05620146 32.02575853 0.30709809 46.375 3.3125 C47.34985352 3.51117676 48.32470703 3.70985352 49.32910156 3.91455078 C88.38660539 12.08468046 124.82400319 27.71035417 156.375 52.3125 C157.25929688 52.98539063 158.14359375 53.65828125 159.0546875 54.3515625 C174.64487101 66.4551235 189.25704477 80.75418497 201.375 96.3125 C202.52162109 97.71628906 202.52162109 97.71628906 203.69140625 99.1484375 C239.09831557 143.36444946 256.86420991 199.45469325 256.75 255.6875 C256.74918427 257.2031958 256.74918427 257.2031958 256.74835205 258.74951172 C256.70844717 274.9132241 255.90450253 290.47977371 252.375 306.3125 C252.06151611 307.74674316 252.06151611 307.74674316 251.74169922 309.20996094 C242.13623773 351.58911312 216.95094128 387.00755708 180.375 410.3125 C169.20447368 417.3125 169.20447368 417.3125 166.375 417.3125 C166.24544922 418.40691406 166.24544922 418.40691406 166.11328125 419.5234375 C162.66730727 445.13113403 153.52270346 470.15972543 133.375 487.3125 C129.8361287 489.90327827 126.1948135 492.16142941 122.375 494.3125 C121.24384766 494.96992187 121.24384766 494.96992187 120.08984375 495.640625 C86.22182436 513.99790481 43.11474274 512.84955088 5.68457031 512.70361328 C1.26157744 512.68652273 -3.16087354 512.69670358 -7.583848 512.71393394 C-106.59898697 513.04073439 -106.59898697 513.04073439 -138.98828125 480.97265625 C-148.37238155 470.98923526 -154.04306628 460.08313742 -158.625 447.3125 C-158.99496094 446.28640625 -159.36492187 445.2603125 -159.74609375 444.203125 C-163.22270637 433.75975945 -166.625 421.39469955 -166.625 410.3125 C-167.62660156 409.95865234 -167.62660156 409.95865234 -168.6484375 409.59765625 C-179.65069877 404.8473361 -189.6972728 397.17443651 -198.625 389.3125 C-199.91857422 388.18328125 -199.91857422 388.18328125 -201.23828125 387.03125 C-203.73085207 384.82235568 -206.18580279 382.58009539 -208.625 380.3125 C-209.30175781 379.68988281 -209.97851562 379.06726563 -210.67578125 378.42578125 C-238.44018484 351.88545959 -254.91408923 310.73422208 -255.78613281 272.61669922 C-255.80566455 270.95025099 -255.81942483 269.28372748 -255.828125 267.6171875 C-255.83518463 266.71532211 -255.84224426 265.81345673 -255.84951782 264.88426208 C-256.07866283 227.00675519 -256.07866283 227.00675519 -252.625 210.3125 C-252.42632324 209.33474609 -252.22764648 208.35699219 -252.02294922 207.34960938 C-241.6903699 157.96994191 -218.88652866 113.4309429 -183.625 77.3125 C-183.06103516 76.72807129 -182.49707031 76.14364258 -181.91601562 75.54150391 C-174.87535609 68.2534809 -167.63688425 61.54272048 -159.625 55.3125 C-158.63113281 54.51328125 -157.63726562 53.7140625 -156.61328125 52.890625 C-148.37352997 46.31857988 -139.71207915 40.64167717 -130.625 35.3125 C-129.81417969 34.83522461 -129.00335938 34.35794922 -128.16796875 33.86621094 C-88.78961971 10.9353438 -45.3820201 -0.17280644 0 0 Z " fill="#465055" transform="translate(255.625,-0.3125)"/>
<path d="M0 0 C0 0.33 0 0.66 0 1 C-1.23234375 1.24234375 -2.4646875 1.4846875 -3.734375 1.734375 C-38.65024823 8.73593759 -68.5189057 25.35442966 -89.11328125 55.046875 C-108.86062828 85.87574299 -115.53449987 121.16564257 -108 157 C-101.77092364 182.04079805 -88.67490093 203.25884412 -70 221 C-69.40316406 221.58007812 -68.80632812 222.16015625 -68.19140625 222.7578125 C-42.17539284 247.10307275 -7.85450505 255.20797797 26.84375 254.17480469 C56.39952692 252.53789749 83.83756449 237.99057426 105 218 C105.75023437 217.31421875 106.50046875 216.6284375 107.2734375 215.921875 C130.08015072 194.31551511 142.01603935 161.85544648 143.203125 130.8515625 C143.77812159 100.10913488 133.99428673 69.63259136 114 46 C113.36336426 45.23212158 113.36336426 45.23212158 112.71386719 44.44873047 C92.13680184 19.86518068 64.74171363 7.54079013 34 1 C34 0.67 34 0.34 34 0 C78.53971547 0.87645236 127.4533263 21.1549287 161.40283203 49.66308594 C162.98171311 50.9846929 164.5797561 52.27916656 166.18359375 53.5703125 C179.03019776 64.02968595 190.95214069 75.81632526 201 89 C201.55558594 89.67675781 202.11117188 90.35351562 202.68359375 91.05078125 C206.04661165 95.30695837 206.04661165 95.30695837 205.8515625 98.20703125 C204.70808134 101.95743965 202.99986141 105.31237831 201.25 108.8125 C194.81532733 122.13191294 191.45325934 135.46278079 189 150 C188.74198608 151.15604736 188.74198608 151.15604736 188.47875977 152.33544922 C183.01768555 182.72920953 192.03577228 216.56096089 207 243 C207.36963867 243.65806641 207.73927734 244.31613281 208.12011719 244.99414062 C216.21405044 259.18079754 228.9411761 278.47058805 244 286 C243.47500655 292.35825397 241.91734666 297.61311081 239.5 303.5 C238.96705322 304.80723022 238.96705322 304.80723022 238.42333984 306.14086914 C227.7751867 331.60859291 209.85960719 354.61507741 186 369 C185.34 369 184.68 369 184 369 C184.08121094 368.09378906 184.16242188 367.18757813 184.24609375 366.25390625 C184.73610348 357.58355773 184.73610348 357.58355773 180.9375 350.0625 C179.67165812 348.66462019 178.35005932 347.31672452 177 346 C176.23985596 345.21326904 176.23985596 345.21326904 175.46435547 344.41064453 C140.05125431 308.01579403 81.96628346 289.97479575 32.22241211 288.83886719 C30.5741116 288.8193927 28.92573621 288.80559972 27.27734375 288.796875 C26.38245239 288.78981537 25.48756104 288.78275574 24.56555176 288.77548218 C-3.84382562 288.5911796 -3.84382562 288.5911796 -32 292 C-33.0631543 292.19335938 -34.12630859 292.38671875 -35.22167969 292.5859375 C-66.91201965 298.54684905 -98.96728924 309.51131946 -125 329 C-125.59312988 329.43666992 -126.18625977 329.87333984 -126.79736328 330.32324219 C-143.44384838 341.90915574 -143.44384838 341.90915574 -152.625 358.75 C-152.810625 360.35875 -152.810625 360.35875 -153 362 C-180.51421767 345.15020778 -202.63413296 317.36189768 -211 286 C-210.04480469 285.14019531 -209.08960938 284.28039062 -208.10546875 283.39453125 C-181.41141282 259.11365403 -161.43661482 227.47310089 -157 191 C-156.88914063 190.18144531 -156.77828125 189.36289063 -156.6640625 188.51953125 C-153.20806695 158.39632684 -158.08848854 128.33574041 -172.8046875 101.73828125 C-174 99 -174 99 -173.95703125 96.99609375 C-168.90631071 86.46173377 -159.0166557 77.35874917 -151 69 C-150.10410156 68.05125 -149.20820313 67.1025 -148.28515625 66.125 C-141.38626182 58.99310326 -133.93737518 52.91306365 -126 47 C-125.4234668 46.56800293 -124.84693359 46.13600586 -124.25292969 45.69091797 C-93.4849714 22.76696486 -58.31775885 8.2389157 -20.5625 1.75 C-19.55558105 1.57452637 -18.54866211 1.39905273 -17.51123047 1.21826172 C-11.58883036 0.2451066 -6.00099849 -0.17376211 0 0 Z " fill="#D74747" transform="translate(240,22)"/>
<path d="M0 0 C0.90637207 0.30808594 1.81274414 0.61617188 2.74658203 0.93359375 C20.00511359 6.89355235 36.70293471 14.4860369 51 26 C52.43279297 27.13115234 52.43279297 27.13115234 53.89453125 28.28515625 C56.63758429 30.48473961 59.35065614 32.68827867 62 35 C62.55212158 35.40677979 63.10424316 35.81355957 63.6730957 36.23266602 C66.30617476 38.38623744 67.83890722 39.88277764 68.33569336 43.328125 C68.24742465 46.15693941 67.94974532 48.88391818 67.5625 51.6875 C67.38605957 53.21455566 67.38605957 53.21455566 67.20605469 54.77246094 C66.83784546 57.85368956 66.4220356 60.92574544 66 64 C65.79461504 65.68868586 65.59011848 67.37748012 65.38671875 69.06640625 C62.57741738 90.69201163 55.94088746 112.62594248 38.58984375 126.99609375 C-6.78783457 160.43606272 -91.52288923 151.09731313 -144 145 C-145.56693604 144.82380127 -145.56693604 144.82380127 -147.16552734 144.64404297 C-170.8227688 141.88610561 -193.71249895 135.47956429 -209.25 116.1875 C-217.86991245 103.90473524 -221.07465338 90.45825763 -224 76 C-224.1561377 75.26587891 -224.31227539 74.53175781 -224.47314453 73.77539062 C-230.27000497 45.99063127 -230.27000497 45.99063127 -226.42578125 37.5390625 C-223.8064338 34.86343155 -221.16409293 33.00099226 -218 31 C-216.84054838 30.11281098 -215.69114581 29.21237387 -214.55078125 28.30078125 C-192.64881995 11.03788982 -166.8051801 0.60132776 -139.875 -5.75 C-138.6367749 -6.04390625 -137.3985498 -6.3378125 -136.12280273 -6.640625 C-91.78116407 -16.77116663 -43.02391803 -14.80987573 0 0 Z " fill="#F2DBC9" transform="translate(336,343)"/>
<path d="M0 0 C0.65468262 0.21430664 1.30936523 0.42861328 1.98388672 0.64941406 C17.87377577 5.86630954 30.6709639 13.76082345 43 25 C43.99773437 25.87398437 43.99773437 25.87398437 45.015625 26.765625 C58.82697708 39.54435262 68.0354047 58.10436579 73 76 C73.28037109 76.93573853 73.28037109 76.93573853 73.56640625 77.89038086 C75.391812 84.73969811 75.30306361 91.65245862 75.26074219 98.69165039 C75.25007352 100.79798526 75.26065859 102.90345748 75.2734375 105.00976562 C75.28914199 117.08439067 73.86481344 128.02236492 69.4375 139.3125 C68.90805786 140.66915771 68.90805786 140.66915771 68.36791992 142.05322266 C56.90029655 170.51673648 35.32532461 190.54115892 7.375 202.55859375 C-18.1723731 212.3420764 -46.67886175 211.83569973 -71.921875 201.40234375 C-82.19347648 196.72276896 -91.23518256 191.11312557 -100 184 C-101.29744141 182.95199219 -101.29744141 182.95199219 -102.62109375 181.8828125 C-123.60114716 164.01212738 -135.50464258 137.12345024 -138 110 C-139.3857783 91.834617 -136.22410142 73.35394381 -128 57 C-127.24783203 55.44152344 -127.24783203 55.44152344 -126.48046875 53.8515625 C-114.46908198 30.16634551 -93.08319814 10.0999083 -67.6953125 1.46484375 C-46.06344494 -5.33701512 -21.69380408 -7.53549613 0 0 Z " fill="#F3F3F3" transform="translate(287,47)"/>
<path d="M0 0 C0.3403125 1.23492187 0.680625 2.46984375 1.03125 3.7421875 C7.54152833 26.75249614 17.13975715 46.92213028 33 65 C34.07701172 66.27617187 34.07701172 66.27617187 35.17578125 67.578125 C39.96558895 73.12511367 44.95557 77.45192198 51.0078125 81.6015625 C53 84 53 84 53.0234375 87.6796875 C52.07610119 92.48555025 50.35576893 96.9807036 48.5 101.5 C47.96705322 102.80723022 47.96705322 102.80723022 47.42333984 104.14086914 C36.7751867 129.60859291 18.85960719 152.61507741 -5 167 C-5.66 167 -6.32 167 -7 167 C-6.91878906 166.09378906 -6.83757812 165.18757812 -6.75390625 164.25390625 C-6.26389652 155.58355773 -6.26389652 155.58355773 -10.0625 148.0625 C-11.32834188 146.66462019 -12.64994068 145.31672452 -14 144 C-14.5067627 143.4755127 -15.01352539 142.95102539 -15.53564453 142.41064453 C-50.94874569 106.01579403 -109.03371654 87.97479575 -158.77758789 86.83886719 C-160.4258884 86.8193927 -162.07426379 86.80559972 -163.72265625 86.796875 C-164.61754761 86.78981537 -165.51243896 86.78275574 -166.43444824 86.77548218 C-194.84382562 86.5911796 -194.84382562 86.5911796 -223 90 C-224.0631543 90.19335938 -225.12630859 90.38671875 -226.22167969 90.5859375 C-257.91201965 96.54684905 -289.96728924 107.51131946 -316 127 C-316.59312988 127.43666992 -317.18625977 127.87333984 -317.79736328 128.32324219 C-334.44384838 139.90915574 -334.44384838 139.90915574 -343.625 156.75 C-343.74875 157.8225 -343.8725 158.895 -344 160 C-371.51421767 143.15020778 -393.63413296 115.36189768 -402 84 C-401.03320312 83.12859375 -400.06640625 82.2571875 -399.0703125 81.359375 C-391.78848048 74.71865163 -385.12180761 68.15901669 -379.24609375 60.23046875 C-376.43302558 57.43696975 -374.90109901 57.34620915 -371 57 C-368.30395508 57.43383789 -368.30395508 57.43383789 -365.51953125 58.22265625 C-364.45613525 58.51108398 -363.39273926 58.79951172 -362.29711914 59.09667969 C-361.14719482 59.41540039 -359.99727051 59.73412109 -358.8125 60.0625 C-322.13632295 69.69154192 -283.95770123 74.22672618 -246.06420898 74.13037109 C-243.56813467 74.1250121 -241.07224079 74.1303556 -238.57617188 74.13671875 C-221.6632735 74.14660854 -205.08107567 72.99535325 -188.3125 70.8125 C-187.04866989 70.64918686 -187.04866989 70.64918686 -185.75930786 70.48257446 C-122.12238217 62.18106545 -55.04457258 42.82082568 -4.37109375 1.765625 C-2 0 -2 0 0 0 Z " fill="#C13939" transform="translate(431,224)"/>
<path d="M0 0 C5.85421414 4.86103874 11.23479521 10.09293662 16.60717773 15.4777832 C17.55380499 16.42305286 18.50064428 17.36811021 19.44767761 18.31297302 C21.99909904 20.85986654 24.54738485 23.40987526 27.09495044 25.96062493 C29.7653349 28.63355263 32.43817125 31.30402677 35.11061096 33.97489929 C39.59010642 38.45258067 44.06750038 42.93235529 48.54370117 47.41333008 C53.72415536 52.59924539 58.90822909 57.78152155 64.09415859 62.96196109 C68.5504538 67.41372719 73.00480858 71.8674278 77.45752865 76.32276982 C80.11570007 78.98250257 82.77454818 81.64154939 85.43514824 84.29885292 C88.39248763 87.25278293 91.34574675 90.21075896 94.29858398 93.16918945 C95.18525757 94.05383881 96.07193115 94.93848816 96.98547363 95.84994507 C97.7831163 96.65040756 98.58075897 97.45087006 99.40257263 98.27558899 C100.10141791 98.9748113 100.8002632 99.6740336 101.52028561 100.39444447 C103 102 103 102 103 103 C77.44829889 104.45547665 45.53203242 98.46190692 25.45703125 81.90234375 C20.15905529 76.87059774 16.40975337 71.43251019 13 65 C12.62101562 64.32066406 12.24203125 63.64132812 11.8515625 62.94140625 C6.86843692 53.6308295 5.09092056 43.25377992 3 33 C2.80277344 32.08734375 2.60554688 31.1746875 2.40234375 30.234375 C0.25706854 20.12774512 -0.145584 10.3202878 0 0 Z " fill="#FCE6D4" transform="translate(109,386)"/>
<path d="M0 0 C3.34358754 2.76389435 4.95264715 6.49249269 6.8125 10.3125 C7.1643335 11.02962158 7.51616699 11.74674316 7.87866211 12.4855957 C23.77007307 45.16752268 32.21318436 79.74858772 32.3125 116.125 C32.31805908 117.3927124 32.32361816 118.6604248 32.3293457 119.96655273 C32.26407265 128.48719657 31.41050432 136.601565 30 145 C10.24800351 129.03030071 -1.56741997 106.23240475 -8 82 C-8.32097656 80.82953125 -8.64195312 79.6590625 -8.97265625 78.453125 C-14.81055777 53.14650074 -11.15632301 26.94926827 -2 3 C-1.34 2.01 -0.68 1.02 0 0 Z " fill="#D8D8D8" transform="translate(459,140)"/>
<path d="M0 0 C3.87357579 1.9367879 4.69098126 7.09665789 6 11 C7.52222102 16.28518436 8.79322852 21.63505299 10 27 C10.27251587 28.10384033 10.27251587 28.10384033 10.55053711 29.22998047 C17.72172161 60.51951286 8.61873543 94.71161081 -8.12109375 121.45703125 C-11.97778011 127.25237278 -16.21290596 132.59378121 -20.875 137.75 C-21.33946533 138.26401367 -21.80393066 138.77802734 -22.2824707 139.30761719 C-24.50931045 141.68801804 -25.85391473 142.95130491 -29 144 C-30.63895658 134.2581997 -31.3543541 124.88443907 -31.3125 115 C-31.31134186 114.3317923 -31.31018372 113.66358459 -31.30899048 112.97512817 C-31.26760989 100.8072461 -30.21610247 88.97060768 -28 77 C-27.77183594 75.74960938 -27.54367188 74.49921875 -27.30859375 73.2109375 C-26.61904132 69.78287686 -25.83210556 66.39619555 -25 63 C-24.83806152 62.30938477 -24.67612305 61.61876953 -24.50927734 60.90722656 C-19.40668081 39.26241726 -11.11480483 19.22959597 0 0 Z " fill="#F1F1F1" transform="translate(52,140)"/>
<path d="M0 0 C3.84020507 1.79635372 5.75323427 4.54172078 7.75 8.25 C10.17187013 15.51561038 11.30606509 22.30310718 11.265625 29.953125 C11.26849518 31.1862442 11.26849518 31.1862442 11.27142334 32.4442749 C11.27277463 34.17200021 11.26915266 35.89973604 11.26074219 37.62744141 C11.25008302 40.22973246 11.2606451 42.83132454 11.2734375 45.43359375 C11.29865495 73.8015372 11.29865495 73.8015372 2.8125 83.5 C-1.20298737 85.64159327 -4.54902468 85.87289445 -9 85 C-15.13583092 81.52688816 -17.12349298 76.63092625 -19 70 C-23.67729248 51.10480139 -24.26179405 24.20881849 -16.0625 6.125 C-11.82593107 -0.29404384 -7.39021557 -1.22586514 0 0 Z " fill="#465055" transform="translate(202,363)"/>
<path d="M0 0 C3.70251638 1.31645027 5.29498924 3.1152457 7.1875 6.4375 C11.7720964 16.99135227 11.31621376 28.6783574 11.26074219 39.96362305 C11.25000508 42.56127176 11.26070043 45.15823134 11.2734375 47.75585938 C11.29691074 73.76452532 11.29691074 73.76452532 3.55859375 82.65625 C0.46871782 85.32020318 -3.06082157 85.34904938 -7.0078125 85.26953125 C-10.3471429 84.81773949 -11.77382396 83.47352893 -14 81 C-21.50590323 70.35574002 -20.34768171 55.46693539 -20.31567383 43.01586914 C-20.31250048 40.43788824 -20.33611038 37.8610443 -20.36132812 35.28320312 C-20.40943143 22.7164602 -20.09316699 10.88129665 -11.3125 1.125 C-7.60426525 -0.67900609 -4.03967246 -0.50676895 0 0 Z " fill="#3C474D" transform="translate(319,363)"/>
<path d="M0 0 C3.34356902 2.76387904 4.95271244 6.49243237 6.8125 10.3125 C7.15853271 11.01802002 7.50456543 11.72354004 7.86108398 12.45043945 C8.91955239 14.62803418 9.96287764 16.81216569 11 19 C11.32033203 19.67256836 11.64066406 20.34513672 11.97070312 21.03808594 C12.85347837 22.91328049 13.71276902 24.79713607 14.5625 26.6875 C15.05878906 27.78449219 15.55507813 28.88148438 16.06640625 30.01171875 C17.12214423 33.39096376 17.25168841 34.7098476 16 38 C14.4392369 40.30658901 12.88037811 42.41617441 11.125 44.5625 C10.63829834 45.16876221 10.15159668 45.77502441 9.65014648 46.3996582 C-3.30193715 62.35331603 -3.30193715 62.35331603 -10 67 C-12.98183123 64.01816877 -11.24894944 54.47574635 -11.2510376 50.42440796 C-11.21461089 33.94681152 -9.43770066 14.15655099 0 0 Z " fill="#F0F0F0" transform="translate(459,140)"/>
<path d="M0 0 C0.33 0 0.66 0 1 0 C1 9.9 1 19.8 1 30 C2.65 30.33 4.3 30.66 6 31 C8.39228689 31.89305874 10.66943362 32.94896026 13 34 C11.60249952 37.15835107 9.94801766 39.32272825 7.5 41.75 C6.58734375 42.67039062 6.58734375 42.67039062 5.65625 43.609375 C4 45 4 45 2 45 C0.21596457 34.75637833 -0.25425093 24.98458359 -0.125 14.625 C-0.11493182 13.1953189 -0.10581288 11.76563079 -0.09765625 10.3359375 C-0.0759886 6.89047521 -0.04167943 3.4452854 0 0 Z " fill="#CACBCC" transform="translate(21,239)"/>
<path d="M0 0 C3.3 0 6.6 0 10 0 C9.01 0.495 9.01 0.495 8 1 C8 1.66 8 2.32 8 3 C5.36 2.34 2.72 1.68 0 1 C0 0.67 0 0.34 0 0 Z " fill="#C34A4B" transform="translate(285,24)"/>
<path d="M0 0 C3.3 0 6.6 0 10 0 C7.08235 1.9451 5.37462715 2.45276317 2 3 C2 2.34 2 1.68 2 1 C1.34 0.67 0.68 0.34 0 0 Z " fill="#C54F50" transform="translate(217,24)"/>
</svg>
