<?xml version="1.0" encoding="UTF-8"?>
<!DOCTYPE svg PUBLIC "-//W3C//DTD SVG 1.1//EN" "http://www.w3.org/Graphics/SVG/1.1/DTD/svg11.dtd">
<svg xmlns="http://www.w3.org/2000/svg" version="1.1" width="512px" height="512px" style="shape-rendering:geometricPrecision; text-rendering:geometricPrecision; image-rendering:optimizeQuality; fill-rule:evenodd; clip-rule:evenodd" xmlns:xlink="http://www.w3.org/1999/xlink">
<g><path style="opacity:0.979" fill="#010101" d="M 314.5,-0.5 C 320.5,-0.5 326.5,-0.5 332.5,-0.5C 328.909,23.5862 314.909,35.0862 290.5,34C 283.071,35.3825 276.404,38.3825 270.5,43C 264.398,49.858 258.064,56.5247 251.5,63C 242.228,69.801 231.895,74.1343 220.5,76C 187.786,76.0285 155.119,76.6952 122.5,78C 103.392,84.272 91.3921,97.1053 86.5,116.5C 85.596,117.209 85.2627,118.209 85.5,119.5C 137.003,119.832 188.336,119.499 239.5,118.5C 243.526,107.639 250.859,99.8054 261.5,95C 286.784,93.704 312.117,93.0373 337.5,93C 341.779,91.5272 345.779,89.5272 349.5,87C 354.123,80.7079 359.123,74.7079 364.5,69C 368.241,66.2677 372.241,63.9343 376.5,62C 385.744,60.1383 395.077,58.8049 404.5,58C 434.079,49.5959 449.745,30.0959 451.5,-0.5C 457.5,-0.5 463.5,-0.5 469.5,-0.5C 467.503,35.3262 449.836,59.8262 416.5,73C 405.211,75.3284 393.878,77.3284 382.5,79C 380.004,80.0804 377.67,81.4138 375.5,83C 370.877,89.2921 365.877,95.2921 360.5,101C 355.945,104.445 350.945,107.112 345.5,109C 321.216,110.294 296.883,110.961 272.5,111C 265.064,111.769 259.897,115.603 257,122.5C 255.699,208.76 266.699,293.427 290,376.5C 307.025,312.966 315.692,248.299 316,182.5C 322.177,154.655 339.011,136.822 366.5,129C 370.469,128.147 374.469,127.481 378.5,127C 389.865,112.981 404.532,104.647 422.5,102C 432.876,101.839 443.209,101.172 453.5,100C 457.729,98.8854 461.729,97.2187 465.5,95C 478.526,83.1549 493.86,76.6549 511.5,75.5C 511.5,81.5 511.5,87.5 511.5,93.5C 506.325,93.272 501.325,94.1053 496.5,96C 487.899,100.939 479.565,106.272 471.5,112C 456.771,117.89 441.438,120.224 425.5,119C 409.753,121.709 397.42,129.709 388.5,143C 364.394,143.962 346.894,155.128 336,176.5C 334.56,180.041 333.726,183.708 333.5,187.5C 365.526,187.931 397.526,187.431 429.5,186C 441.858,182.977 452.191,176.644 460.5,167C 475.628,155.8 492.628,151.3 511.5,153.5C 511.5,159.167 511.5,164.833 511.5,170.5C 496.785,169.021 483.452,172.521 471.5,181C 465.934,186.402 459.934,191.236 453.5,195.5C 452.4,258.361 460.566,320.027 478,380.5C 488.906,419.7 500.072,458.7 511.5,497.5C 511.5,500.833 511.5,504.167 511.5,507.5C 509.833,508.5 508.5,509.833 507.5,511.5C 339.833,511.5 172.167,511.5 4.5,511.5C 2.85774,510.197 1.19107,508.864 -0.5,507.5C -0.5,504.167 -0.5,500.833 -0.5,497.5C 17.3542,437.747 33.5208,377.414 48,316.5C 61.068,250.82 67.7347,184.487 68,117.5C 74.1759,86.9902 92.3426,67.8236 122.5,60C 155.14,58.7261 187.807,58.0594 220.5,58C 227.929,56.6175 234.596,53.6175 240.5,49C 247.87,39.9623 256.204,31.9623 265.5,25C 276.513,18.797 288.346,15.6303 301,15.5C 309.308,13.3599 313.808,8.02657 314.5,-0.5 Z"/></g>
<g><path style="opacity:1" fill="#dddddd" d="M 332.5,-0.5 C 372.167,-0.5 411.833,-0.5 451.5,-0.5C 449.745,30.0959 434.079,49.5959 404.5,58C 395.077,58.8049 385.744,60.1383 376.5,62C 372.241,63.9343 368.241,66.2677 364.5,69C 359.123,74.7079 354.123,80.7079 349.5,87C 345.779,89.5272 341.779,91.5272 337.5,93C 312.117,93.0373 286.784,93.704 261.5,95C 250.859,99.8054 243.526,107.639 239.5,118.5C 188.156,119.162 137.156,118.496 86.5,116.5C 91.3921,97.1053 103.392,84.272 122.5,78C 155.119,76.6952 187.786,76.0285 220.5,76C 231.895,74.1343 242.228,69.801 251.5,63C 258.064,56.5247 264.398,49.858 270.5,43C 276.404,38.3825 283.071,35.3825 290.5,34C 314.909,35.0862 328.909,23.5862 332.5,-0.5 Z"/></g>
<g><path style="opacity:1" fill="#dcdcdc" d="M 511.5,93.5 C 511.5,113.5 511.5,133.5 511.5,153.5C 492.628,151.3 475.628,155.8 460.5,167C 452.191,176.644 441.858,182.977 429.5,186C 397.526,187.431 365.526,187.931 333.5,187.5C 333.726,183.708 334.56,180.041 336,176.5C 346.894,155.128 364.394,143.962 388.5,143C 397.42,129.709 409.753,121.709 425.5,119C 441.438,120.224 456.771,117.89 471.5,112C 479.565,106.272 487.899,100.939 496.5,96C 501.325,94.1053 506.325,93.272 511.5,93.5 Z"/></g>
<g><path style="opacity:1" fill="#686868" d="M 86.5,116.5 C 137.156,118.496 188.156,119.162 239.5,118.5C 188.336,119.499 137.003,119.832 85.5,119.5C 85.2627,118.209 85.596,117.209 86.5,116.5 Z"/></g>
<g><path style="opacity:1" fill="#4297d0" d="M 84.5,136.5 C 135.833,136.5 187.167,136.5 238.5,136.5C 238.691,144.84 239.024,153.174 239.5,161.5C 187.833,161.5 136.167,161.5 84.5,161.5C 84.5,153.167 84.5,144.833 84.5,136.5 Z"/></g>
<g><path style="opacity:1" fill="#3272a0" d="M 240.5,186.5 C 239.532,184.393 239.198,182.059 239.5,179.5C 187.5,179.5 135.5,179.5 83.5,179.5C 83.8016,182.059 83.4682,184.393 82.5,186.5C 82.5,183.833 82.5,181.167 82.5,178.5C 135.167,178.5 187.833,178.5 240.5,178.5C 240.5,181.167 240.5,183.833 240.5,186.5 Z"/></g>
<g><path style="opacity:1" fill="#4297d0" d="M 240.5,186.5 C 244.588,246.284 253.755,305.284 268,363.5C 280.356,407.061 292.189,450.728 303.5,494.5C 208.833,494.5 114.167,494.5 19.5,494.5C 34.5082,439.974 49.0082,385.308 63,330.5C 73.192,282.99 79.692,234.99 82.5,186.5C 83.4682,184.393 83.8016,182.059 83.5,179.5C 135.5,179.5 187.5,179.5 239.5,179.5C 239.198,182.059 239.532,184.393 240.5,186.5 Z"/></g>
<g><path style="opacity:1" fill="#4297cf" d="M 331.5,204.5 C 366.167,204.5 400.833,204.5 435.5,204.5C 435.5,212.833 435.5,221.167 435.5,229.5C 400.833,229.5 366.167,229.5 331.5,229.5C 331.5,221.167 331.5,212.833 331.5,204.5 Z"/></g>
<g><path style="opacity:1" fill="#4297d0" d="M 490.5,491.5 C 466.843,492.833 442.843,493.5 418.5,493.5C 394.5,493.167 370.5,492.833 346.5,492.5C 334.428,449.951 322.762,407.284 311.5,364.5C 320.399,325.697 326.733,286.53 330.5,247C 365.833,246.333 401.167,246.333 436.5,247C 439.575,281.088 444.742,314.922 452,348.5C 464.68,396.22 477.513,443.886 490.5,491.5 Z"/></g>
<g><path style="opacity:1" fill="#3d8bc5" d="M 311.5,364.5 C 322.762,407.284 334.428,449.951 346.5,492.5C 370.5,492.833 394.5,493.167 418.5,493.5C 442.843,493.5 466.843,492.833 490.5,491.5C 491.404,492.209 491.737,493.209 491.5,494.5C 434.829,494.833 378.163,494.5 321.5,493.5C 314.03,465.759 306.363,438.093 298.5,410.5C 302.919,395.051 307.252,379.718 311.5,364.5 Z"/></g>
</svg>
