<?xml version="1.0" encoding="UTF-8"?>
<!DOCTYPE svg PUBLIC "-//W3C//DTD SVG 1.1//EN" "http://www.w3.org/Graphics/SVG/1.1/DTD/svg11.dtd">
<svg xmlns="http://www.w3.org/2000/svg" version="1.1" width="512px" height="512px" style="shape-rendering:geometricPrecision; text-rendering:geometricPrecision; image-rendering:optimizeQuality; fill-rule:evenodd; clip-rule:evenodd" xmlns:xlink="http://www.w3.org/1999/xlink">
<g><path style="opacity:0.949" fill="#050300" d="M 17.5,367.5 C 19.5816,367.624 21.0816,368.624 22,370.5C 22.3333,377.167 22.6667,383.833 23,390.5C 24.7425,395.91 28.2425,399.744 33.5,402C 43.0513,403.96 52.0513,407.293 60.5,412C 64.4217,415.251 67.5883,419.084 70,423.5C 73.1317,431.697 75.7984,440.03 78,448.5C 80.2047,451.04 82.7047,453.207 85.5,455C 149.5,455.667 213.5,455.667 277.5,455C 280.583,453.861 283.583,452.528 286.5,451C 293.556,442.6 302.223,436.6 312.5,433C 342.493,428.001 372.493,423.001 402.5,418C 403.308,417.692 403.975,417.192 404.5,416.5C 402.491,413.804 400.491,411.137 398.5,408.5C 396.397,405.28 394.064,402.28 391.5,399.5C 389.552,396.379 387.385,393.379 385,390.5C 383.332,384.507 385.498,382.007 391.5,383C 394.667,386.833 397.833,390.667 401,394.5C 403.259,389.643 405.259,384.643 407,379.5C 408.366,375.234 411.199,373.734 415.5,375C 416.894,375.956 417.561,377.289 417.5,379C 415.727,384.152 414.06,389.319 412.5,394.5C 409.836,398.146 408.836,402.146 409.5,406.5C 417.89,417.396 427.224,427.563 437.5,437C 440.554,439.194 443.888,440.861 447.5,442C 462.44,445.602 475.273,442.102 486,431.5C 488.434,428.205 490.101,424.538 491,420.5C 491.667,333.5 491.667,246.5 491,159.5C 489.861,155.888 488.194,152.554 486,149.5C 477.986,141.319 469.819,133.319 461.5,125.5C 456.072,133.351 451.405,141.684 447.5,150.5C 451.723,160.613 456.223,170.613 461,180.5C 461.835,186.99 459.168,188.99 453,186.5C 449.377,178.29 445.377,170.29 441,162.5C 438.455,167.761 435.288,172.594 431.5,177C 429.433,177.536 427.599,177.036 426,175.5C 425.333,173.167 425.333,170.833 426,168.5C 435.333,151.167 444.667,133.833 454,116.5C 454.667,103.167 454.667,89.8333 454,76.5C 451.673,71.5768 447.84,68.4101 442.5,67C 371.5,66.3333 300.5,66.3333 229.5,67C 227.754,67.4709 226.087,68.1376 224.5,69C 211.804,82.0295 198.804,94.6962 185.5,107C 183.043,108.562 180.376,109.562 177.5,110C 169.333,110.167 161.167,110.333 153,110.5C 143.762,110.626 134.596,110.126 125.5,109C 111.562,97.0639 98.2282,84.3972 85.5,71C 83.3772,70.1853 81.3772,69.1853 79.5,68C 63.5,67.3333 47.5,67.3333 31.5,68C 24.6667,69.5 20.5,73.6667 19,80.5C 18.3333,126.167 18.3333,171.833 19,217.5C 23.8605,229.554 29.5272,241.221 36,252.5C 42.8333,241 49.6667,229.5 56.5,218C 60.8052,216.461 63.4718,217.794 64.5,222C 62.2451,227.342 59.5784,232.509 56.5,237.5C 60.835,238.936 65.1684,240.436 69.5,242C 71.6801,244.418 72.0135,247.084 70.5,250C 64.297,250.769 58.297,249.936 52.5,247.5C 51.5581,247.608 50.7247,247.941 50,248.5C 41.6667,263.833 33.3333,279.167 25,294.5C 24.3333,296.5 23.6667,298.5 23,300.5C 22.6667,312.167 22.3333,323.833 22,335.5C 20.5913,336.781 19.0913,337.781 17.5,338.5C 15.629,338.141 14.129,337.141 13,335.5C 12.3333,323.167 12.3333,310.833 13,298.5C 17.4185,286.329 22.9185,274.663 29.5,263.5C 23.078,251.657 16.9113,239.657 11,227.5C 10.3333,224.833 9.66667,222.167 9,219.5C 8.33333,172.167 8.33333,124.833 9,77.5C 11.6144,66.552 18.4477,60.052 29.5,58C 46.8333,57.3333 64.1667,57.3333 81.5,58C 85.538,58.8993 89.2046,60.566 92.5,63C 104.167,74.6667 115.833,86.3333 127.5,98C 129.087,98.8624 130.754,99.5291 132.5,100C 146.5,100.667 160.5,100.667 174.5,100C 176.949,99.2754 179.283,98.2754 181.5,97C 193.5,85 205.5,73 217.5,61C 220.382,59.3921 223.382,58.0587 226.5,57C 299.5,56.3333 372.5,56.3333 445.5,57C 454.827,58.9949 460.993,64.4949 464,73.5C 465.26,87.1116 465.927,100.778 466,114.5C 475.333,123.833 484.667,133.167 494,142.5C 497.388,146.609 499.721,151.275 501,156.5C 502.154,201.13 502.654,245.797 502.5,290.5C 502.333,333.5 502.167,376.5 502,419.5C 498.831,436.338 488.998,447.171 472.5,452C 463.833,452.667 455.167,452.667 446.5,452C 440.427,451.296 435.094,448.962 430.5,445C 424.833,439.333 419.167,433.667 413.5,428C 380.039,432.243 346.706,437.576 313.5,444C 311.051,444.725 308.717,445.725 306.5,447C 300.792,452.377 294.792,457.377 288.5,462C 284.066,464.145 279.4,465.478 274.5,466C 212.167,466.667 149.833,466.667 87.5,466C 80.2003,464.934 74.367,461.434 70,455.5C 66.3949,447.099 63.3949,438.432 61,429.5C 57.71,422.879 52.5433,418.379 45.5,416C 38.7416,414.31 32.0749,412.31 25.5,410C 15.3678,403.231 11.0345,393.731 12.5,381.5C 12.6667,377.833 12.8333,374.167 13,370.5C 13.9184,368.624 15.4184,367.624 17.5,367.5 Z"/></g>
<g><path style="opacity:1" fill="#eebf20" d="M 409.5,406.5 C 413.146,405.717 416.812,405.55 420.5,406C 428.167,413.667 435.833,421.333 443.5,429C 445.5,430 447.5,431 449.5,432C 456.582,432.884 463.582,432.551 470.5,431C 475.731,428.768 479.231,424.935 481,419.5C 481.667,334.5 481.667,249.5 481,164.5C 478.333,161.833 475.667,161.833 473,164.5C 472.667,248.167 472.333,331.833 472,415.5C 471.214,418.583 469.381,420.749 466.5,422C 461.5,422.667 456.5,422.667 451.5,422C 442.196,413.697 433.196,405.031 424.5,396C 420.433,394.956 416.433,394.456 412.5,394.5C 414.06,389.319 415.727,384.152 417.5,379C 417.561,377.289 416.894,375.956 415.5,375C 411.199,373.734 408.366,375.234 407,379.5C 405.259,384.643 403.259,389.643 401,394.5C 397.833,390.667 394.667,386.833 391.5,383C 385.498,382.007 383.332,384.507 385,390.5C 387.385,393.379 389.552,396.379 391.5,399.5C 363.182,404.331 334.849,409.164 306.5,414C 293.704,418.228 282.704,425.228 273.5,435C 220.833,435.333 168.167,435.667 115.5,436C 111.915,438.528 111.582,441.528 114.5,445C 167.833,445.667 221.167,445.667 274.5,445C 276.949,444.275 279.283,443.275 281.5,442C 288.535,433.63 297.201,427.63 307.5,424C 337.771,418.399 368.104,413.233 398.5,408.5C 400.491,411.137 402.491,413.804 404.5,416.5C 403.975,417.192 403.308,417.692 402.5,418C 372.493,423.001 342.493,428.001 312.5,433C 302.223,436.6 293.556,442.6 286.5,451C 283.583,452.528 280.583,453.861 277.5,455C 213.5,455.667 149.5,455.667 85.5,455C 82.7047,453.207 80.2047,451.04 78,448.5C 75.7984,440.03 73.1317,431.697 70,423.5C 67.5883,419.084 64.4217,415.251 60.5,412C 52.0513,407.293 43.0513,403.96 33.5,402C 28.2425,399.744 24.7425,395.91 23,390.5C 22.6667,383.833 22.3333,377.167 22,370.5C 21.0816,368.624 19.5816,367.624 17.5,367.5C 17.5,364.5 17.5,361.5 17.5,358.5C 22.253,357.151 23.5863,354.151 21.5,349.5C 20.4231,348.295 19.0898,347.628 17.5,347.5C 17.5,344.5 17.5,341.5 17.5,338.5C 19.0913,337.781 20.5913,336.781 22,335.5C 22.3333,323.833 22.6667,312.167 23,300.5C 23.6667,298.5 24.3333,296.5 25,294.5C 33.3333,279.167 41.6667,263.833 50,248.5C 50.7247,247.941 51.5581,247.608 52.5,247.5C 58.297,249.936 64.297,250.769 70.5,250C 72.0135,247.084 71.6801,244.418 69.5,242C 65.1684,240.436 60.835,238.936 56.5,237.5C 59.5784,232.509 62.2451,227.342 64.5,222C 63.4718,217.794 60.8052,216.461 56.5,218C 49.6667,229.5 42.8333,241 36,252.5C 29.5272,241.221 23.8605,229.554 19,217.5C 18.3333,171.833 18.3333,126.167 19,80.5C 20.5,73.6667 24.6667,69.5 31.5,68C 47.5,67.3333 63.5,67.3333 79.5,68C 81.3772,69.1853 83.3772,70.1853 85.5,71C 98.2282,84.3972 111.562,97.0639 125.5,109C 134.596,110.126 143.762,110.626 153,110.5C 161.167,110.333 169.333,110.167 177.5,110C 180.376,109.562 183.043,108.562 185.5,107C 198.804,94.6962 211.804,82.0295 224.5,69C 226.087,68.1376 227.754,67.4709 229.5,67C 300.5,66.3333 371.5,66.3333 442.5,67C 447.84,68.4101 451.673,71.5768 454,76.5C 454.667,89.8333 454.667,103.167 454,116.5C 444.667,133.833 435.333,151.167 426,168.5C 425.333,170.833 425.333,173.167 426,175.5C 427.599,177.036 429.433,177.536 431.5,177C 435.288,172.594 438.455,167.761 441,162.5C 445.377,170.29 449.377,178.29 453,186.5C 459.168,188.99 461.835,186.99 461,180.5C 456.223,170.613 451.723,160.613 447.5,150.5C 451.405,141.684 456.072,133.351 461.5,125.5C 469.819,133.319 477.986,141.319 486,149.5C 488.194,152.554 489.861,155.888 491,159.5C 491.667,246.5 491.667,333.5 491,420.5C 490.101,424.538 488.434,428.205 486,431.5C 475.273,442.102 462.44,445.602 447.5,442C 443.888,440.861 440.554,439.194 437.5,437C 427.224,427.563 417.89,417.396 409.5,406.5 Z"/></g>
<g><path style="opacity:1" fill="#050400" d="M 364.5,196.5 C 363.957,196.56 363.624,196.893 363.5,197.5C 371.138,198.497 378.804,198.831 386.5,198.5C 390.784,200.513 391.45,203.346 388.5,207C 378.506,207.5 368.506,207.666 358.5,207.5C 358.667,224.17 358.5,240.837 358,257.5C 355,261.5 352,261.5 349,257.5C 348.5,240.837 348.333,224.17 348.5,207.5C 338.828,207.666 329.161,207.5 319.5,207C 316.833,204.333 316.833,201.667 319.5,199C 327.521,198.832 335.521,198.332 343.5,197.5C 336.78,187.896 332.114,177.396 329.5,166C 332.17,149.499 341.837,141.833 358.5,143C 372.368,147.582 378.535,157.082 377,171.5C 373.48,180.178 369.313,188.512 364.5,196.5 Z"/></g>
<g><path style="opacity:1" fill="#080501" d="M 207.5,146.5 C 223.006,145.694 238.339,146.86 253.5,150C 258.986,150.484 260.819,153.317 259,158.5C 258.25,159.126 257.416,159.626 256.5,160C 250.552,159.045 244.552,158.045 238.5,157C 227.833,156.333 217.167,156.333 206.5,157C 185.713,161.93 165.047,167.263 144.5,173C 138.554,174.459 132.554,175.126 126.5,175C 123.389,171.111 124.056,168.111 128.5,166C 145.828,164.168 162.495,159.835 178.5,153C 188.229,150.464 197.895,148.298 207.5,146.5 Z"/></g>
<g><path style="opacity:1" fill="#e9bb1f" d="M 350.5,152.5 C 360.168,152.005 365.835,156.505 367.5,166C 366.801,170.763 365.301,175.263 363,179.5C 360.387,184.6 357.22,189.267 353.5,193.5C 346.848,185.364 342.182,176.197 339.5,166C 340.467,159.208 344.134,154.708 350.5,152.5 Z"/></g>
<g><path style="opacity:1" fill="#f6e3ae" d="M 409.5,406.5 C 408.836,402.146 409.836,398.146 412.5,394.5C 416.433,394.456 420.433,394.956 424.5,396C 433.196,405.031 442.196,413.697 451.5,422C 456.5,422.667 461.5,422.667 466.5,422C 469.381,420.749 471.214,418.583 472,415.5C 472.333,331.833 472.667,248.167 473,164.5C 475.667,161.833 478.333,161.833 481,164.5C 481.667,249.5 481.667,334.5 481,419.5C 479.231,424.935 475.731,428.768 470.5,431C 463.582,432.551 456.582,432.884 449.5,432C 447.5,431 445.5,430 443.5,429C 435.833,421.333 428.167,413.667 420.5,406C 416.812,405.55 413.146,405.717 409.5,406.5 Z"/></g>
<g><path style="opacity:1" fill="#060402" d="M 209.5,168.5 C 225.048,165.958 237.881,170.625 248,182.5C 252.667,189.833 258.667,195.833 266,200.5C 267.271,204.166 266.104,206.666 262.5,208C 251.517,210.33 240.517,212.497 229.5,214.5C 229.667,228.837 229.5,243.171 229,257.5C 225.952,261.482 222.952,261.482 220,257.5C 219.667,243.833 219.333,230.167 219,216.5C 207.624,230.883 194.124,242.717 178.5,252C 164.931,259.986 150.597,261.986 135.5,258C 126.325,254.17 122.159,247.337 123,237.5C 124.82,232.468 127.82,231.468 132,234.5C 131.749,245.499 137.249,250.832 148.5,250.5C 162.202,249.1 174.536,244.267 185.5,236C 192.65,230.017 199.317,223.517 205.5,216.5C 191.576,213.358 178.242,208.525 165.5,202C 151.5,201.667 137.5,201.333 123.5,201C 120.833,198 120.833,195 123.5,192C 137.167,191.667 150.833,191.333 164.5,191C 178.487,181.34 193.487,173.84 209.5,168.5 Z"/></g>
<g><path style="opacity:1" fill="#a0a0a0" d="M 215.5,177.5 C 222.978,178.75 224.311,182.25 219.5,188C 214.16,188.989 211.66,186.822 212,181.5C 212.69,179.65 213.856,178.316 215.5,177.5 Z"/></g>
<g><path style="opacity:1" fill="#e6e6e6" d="M 199.5,182.5 C 200.497,182.47 201.164,182.97 201.5,184C 204.987,197.077 212.987,201.077 225.5,196C 229.949,192.603 232.449,188.103 233,182.5C 239.06,187.772 244.56,193.606 249.5,200C 224.282,209.83 199.615,208.497 175.5,196C 183.432,191.205 191.432,186.705 199.5,182.5 Z"/></g>
<g><path style="opacity:1" fill="#816711" d="M 364.5,196.5 C 371.833,197.167 379.167,197.833 386.5,198.5C 378.804,198.831 371.138,198.497 363.5,197.5C 363.624,196.893 363.957,196.56 364.5,196.5 Z"/></g>
<g><path style="opacity:1" fill="#070501" d="M 131.5,278.5 C 149.819,278.643 157.319,287.643 154,305.5C 152.871,308.265 151.371,310.765 149.5,313C 157.432,322.636 157.432,332.303 149.5,342C 157.476,351.779 157.476,361.612 149.5,371.5C 153.919,375.992 155.752,381.325 155,387.5C 153.334,390.379 150.834,391.212 147.5,390C 146.086,386.945 144.919,383.778 144,380.5C 137.958,374.881 132.291,375.215 127,381.5C 127.692,386.48 125.692,389.48 121,390.5C 119.289,390.561 117.956,389.894 117,388.5C 115.396,381.711 117.229,376.044 122.5,371.5C 114.581,361.603 114.581,351.769 122.5,342C 114.598,332.155 114.598,322.321 122.5,312.5C 112.121,297.57 115.121,286.237 131.5,278.5 Z"/></g>
<g><path style="opacity:1" fill="#070500" d="M 192.5,343.5 C 193.493,335.016 193.826,326.349 193.5,317.5C 190.167,317.5 186.833,317.5 183.5,317.5C 180.668,315.593 179.834,312.927 181,309.5C 184.922,307.688 189.089,307.021 193.5,307.5C 193.5,305.167 193.5,302.833 193.5,300.5C 189.818,300.665 186.152,300.499 182.5,300C 179.833,297 179.833,294 182.5,291C 186.152,290.501 189.818,290.335 193.5,290.5C 193.335,287.482 193.502,284.482 194,281.5C 196.952,277.518 199.952,277.518 203,281.5C 203.498,284.482 203.665,287.482 203.5,290.5C 206.85,290.335 210.183,290.502 213.5,291C 217.072,293.626 217.405,296.626 214.5,300C 210.848,300.499 207.182,300.665 203.5,300.5C 203.5,302.833 203.5,305.167 203.5,307.5C 206.85,307.335 210.183,307.502 213.5,308C 217.072,310.626 217.405,313.626 214.5,317C 210.848,317.499 207.182,317.665 203.5,317.5C 203.334,326.506 203.5,335.506 204,344.5C 211.333,357.833 218.667,371.167 226,384.5C 227.212,387.834 226.379,390.334 223.5,392C 206.833,392.667 190.167,392.667 173.5,392C 170.92,390.519 170.087,388.352 171,385.5C 178.448,371.603 185.615,357.603 192.5,343.5 Z"/></g>
<g><path style="opacity:1" fill="#e8ba1f" d="M 132.5,288.5 C 142.04,287.87 146.206,292.204 145,301.5C 142.081,307.025 137.581,308.858 131.5,307C 124.677,300.427 125.01,294.26 132.5,288.5 Z"/></g>
<g><path style="opacity:1" fill="#050400" d="M 307.5,293.5 C 309.527,293.338 311.527,293.505 313.5,294C 319.667,300.167 325.833,306.333 332,312.5C 338.167,306.333 344.333,300.167 350.5,294C 352.5,293.333 354.5,293.333 356.5,294C 362.667,300.167 368.833,306.333 375,312.5C 381.167,306.333 387.333,300.167 393.5,294C 395.5,293.333 397.5,293.333 399.5,294C 407,301.5 414.5,309 422,316.5C 423.72,322.444 421.553,324.944 415.5,324C 409.319,317.652 402.986,311.485 396.5,305.5C 390.348,311.152 384.348,316.985 378.5,323C 377.271,323.781 375.938,324.281 374.5,324.5C 367.229,318.567 360.229,312.233 353.5,305.5C 347.348,311.152 341.348,316.985 335.5,323C 334.271,323.781 332.938,324.281 331.5,324.5C 324.229,318.567 317.229,312.233 310.5,305.5C 304.014,311.485 297.681,317.652 291.5,324C 285.447,324.944 283.28,322.444 285,316.5C 292.702,308.965 300.202,301.298 307.5,293.5 Z"/></g>
<g><path style="opacity:1" fill="#e8b91f" d="M 133.5,317.5 C 141.796,317.96 145.63,322.293 145,330.5C 142.185,336.169 137.685,338.002 131.5,336C 126.845,333.103 125.345,328.937 127,323.5C 128.494,320.686 130.66,318.686 133.5,317.5 Z"/></g>
<g><path style="opacity:1" fill="#ae8b17" d="M 183.5,317.5 C 186.833,317.5 190.167,317.5 193.5,317.5C 193.826,326.349 193.493,335.016 192.5,343.5C 192.5,335.167 192.5,326.833 192.5,318.5C 189.287,318.81 186.287,318.477 183.5,317.5 Z"/></g>
<g><path style="opacity:1" fill="#080501" d="M 308.5,330.5 C 310.655,330.372 312.655,330.872 314.5,332C 320.348,338.015 326.348,343.848 332.5,349.5C 338.986,343.515 345.319,337.348 351.5,331C 353.635,330.365 355.635,330.699 357.5,332C 363.348,338.015 369.348,343.848 375.5,349.5C 382.229,342.767 389.229,336.433 396.5,330.5C 397.938,330.719 399.271,331.219 400.5,332C 408.916,339.745 416.583,348.078 423.5,357C 422.171,360.994 419.504,362.327 415.5,361C 409.319,354.652 402.986,348.485 396.5,342.5C 391.015,348.485 385.348,354.319 379.5,360C 377.305,361.373 374.971,361.706 372.5,361C 366.319,354.652 359.986,348.485 353.5,342.5C 348.015,348.485 342.348,354.319 336.5,360C 334.305,361.373 331.971,361.706 329.5,361C 323.319,354.652 316.986,348.485 310.5,342.5C 305.015,348.485 299.348,354.319 293.5,360C 287.141,363.225 284.308,361.392 285,354.5C 293.036,346.632 300.869,338.632 308.5,330.5 Z"/></g>
<g><path style="opacity:0.885" fill="#060401" d="M 17.5,347.5 C 19.0898,347.628 20.4231,348.295 21.5,349.5C 23.5863,354.151 22.253,357.151 17.5,358.5C 12.7432,357.095 11.4098,354.095 13.5,349.5C 14.5769,348.295 15.9102,347.628 17.5,347.5 Z"/></g>
<g><path style="opacity:1" fill="#e7b91e" d="M 131.5,347.5 C 144.249,347.07 147.916,352.57 142.5,364C 137.182,367.695 132.349,367.195 128,362.5C 125.206,356.408 126.373,351.408 131.5,347.5 Z"/></g>
<g><path style="opacity:1" fill="#eabb1f" d="M 197.5,355.5 C 198.376,355.369 199.043,355.702 199.5,356.5C 204.04,365.08 208.706,373.58 213.5,382C 203.5,382.667 193.5,382.667 183.5,382C 188.562,373.377 193.228,364.544 197.5,355.5 Z"/></g>
<g><path style="opacity:1" fill="#f6e3ad" d="M 391.5,399.5 C 394.064,402.28 396.397,405.28 398.5,408.5C 368.104,413.233 337.771,418.399 307.5,424C 297.201,427.63 288.535,433.63 281.5,442C 279.283,443.275 276.949,444.275 274.5,445C 221.167,445.667 167.833,445.667 114.5,445C 111.582,441.528 111.915,438.528 115.5,436C 168.167,435.667 220.833,435.333 273.5,435C 282.704,425.228 293.704,418.228 306.5,414C 334.849,409.164 363.182,404.331 391.5,399.5 Z"/></g>
<g><path style="opacity:1" fill="#f6e2ab" d="M 89.5,435.5 C 93.3076,435.163 96.9743,435.663 100.5,437C 102.013,439.916 101.68,442.582 99.5,445C 95.8333,445.667 92.1667,445.667 88.5,445C 85.6361,441.376 85.9694,438.209 89.5,435.5 Z"/></g>
</svg>
