<?xml version="1.0" encoding="UTF-8"?>
<svg version="1.1" xmlns="http://www.w3.org/2000/svg" width="512" height="512">
<path d="M0 0 C1.34788101 -0.01496269 1.34788101 -0.01496269 2.72299194 -0.03022766 C4.19043098 -0.03122467 4.19043098 -0.03122467 5.68751526 -0.03224182 C6.72369995 -0.04056534 7.75988464 -0.04888885 8.82746887 -0.0574646 C12.25554653 -0.08157665 15.68343404 -0.09033758 19.11158752 -0.09693909 C21.49285948 -0.10590333 23.87413084 -0.11502514 26.25540161 -0.1242981 C31.24792348 -0.14079312 36.24037824 -0.14848936 41.23292542 -0.15138245 C47.63351366 -0.15677169 54.03347243 -0.19447277 60.43388271 -0.24012661 C65.3520743 -0.26984958 70.2701133 -0.27710495 75.18838692 -0.2781086 C77.54833426 -0.28231908 79.90828171 -0.29478629 82.26814079 -0.31562614 C85.5672597 -0.34244507 88.86490596 -0.33774284 92.16407776 -0.32521057 C93.14034622 -0.34004486 94.11661469 -0.35487915 95.12246704 -0.37016296 C99.75088402 -0.32003001 101.82877795 -0.22315055 105.62612915 2.63070679 C107.49049377 5.27415466 107.49049377 5.27415466 107.64674377 8.16868591 C106.13676094 12.22421413 103.89416113 14.8068402 100.99049377 17.96165466 C99.88658704 19.20291611 98.78373129 20.44511301 97.68190002 21.68821716 C97.13678772 22.29697693 96.59167542 22.90573669 96.03004456 23.53294373 C93.92631382 25.9122345 91.92372 28.36644543 89.92799377 30.83665466 C86.66271075 34.85773557 83.34491534 38.82760628 79.99049377 42.77415466 C75.87296619 47.61951727 71.82643384 52.51631096 67.81471252 57.44993591 C64.74771475 61.1767248 61.62036649 64.85115731 58.47096252 68.50852966 C54.95406718 72.62561374 51.7015542 76.91544133 48.49049377 81.27415466 C49.6154425 81.25844421 50.74039124 81.24273376 51.89942932 81.22654724 C56.08327542 81.1721425 60.26709039 81.1377663 64.45118713 81.10935974 C66.26015994 81.09429712 68.06909637 81.0738429 69.87794495 81.0478363 C72.48195892 81.01134147 75.08548898 80.99440309 77.68971252 80.98118591 C78.8978083 80.95796013 78.8978083 80.95796013 80.13031006 80.93426514 C84.74673838 80.9328895 87.7338464 81.28372271 91.49049377 84.27415466 C92.7351547 86.76347652 92.59566558 87.89936059 91.84596252 90.57102966 C90.12801892 93.99701518 87.71224168 96.17666819 84.86549377 98.64915466 C84.32352356 99.13247253 83.78155334 99.61579041 83.22315979 100.11375427 C81.65350539 101.50985794 80.07404365 102.89385234 78.49049377 104.27415466 C77.76990784 104.90708435 77.0493219 105.54001404 76.30690002 106.19212341 C75.0568736 107.28622138 73.80427306 108.37738551 72.54908752 109.46556091 C70.00092728 111.70426717 67.49638785 113.98825678 64.99049377 116.27415466 C61.8278782 119.15835566 58.6560889 122.02592942 55.42799377 124.83665466 C52.28940079 127.57152822 49.1634822 130.31981793 46.05299377 133.08665466 C45.20865784 133.83559998 44.3643219 134.58454529 43.49440002 135.35618591 C41.42801143 137.11834037 41.42801143 137.11834037 40.49049377 139.27415466 C41.45084534 139.3759906 42.4111969 139.47782654 43.40065002 139.58274841 C48.1061355 140.26170805 52.45782511 141.75564115 56.92799377 143.33665466 C57.80399231 143.64538513 58.67999084 143.9541156 59.58253479 144.27220154 C67.26695837 147.05715105 74.49674332 150.454541 81.69264221 154.31419373 C83.39834604 155.22495248 85.11985557 156.10592677 86.84205627 156.98509216 C106.26984984 167.05351072 106.26984984 167.05351072 112.49049377 173.27415466 C112.66065002 172.62156677 112.83080627 171.96897888 113.00611877 171.2966156 C126.19533704 121.22318721 152.01425129 72.27371372 198.09693909 45.27488708 C210.70787848 38.08245454 225.87804173 31.38980694 240.61549377 30.96165466 C241.4636969 30.92427185 242.31190002 30.88688904 243.18580627 30.84837341 C245.49049377 31.27415466 245.49049377 31.27415466 247.09230042 33.04148865 C251.64146353 40.30569271 249.67666247 52.15323078 249.67579651 60.53050232 C249.67797009 62.8736271 249.6961481 65.21626974 249.71510315 67.55931091 C249.75246852 77.62980903 248.9976204 87.31283012 247.49049377 97.27415466 C247.29914856 98.55975281 247.10780334 99.84535095 246.91065979 101.16990662 C239.24375326 150.1000835 211.88878487 198.65260425 172.10768127 228.50852966 C169.49049377 230.27415466 169.49049377 230.27415466 167.49049377 230.27415466 C167.80687805 230.80033386 168.12326233 231.32651306 168.44923401 231.86863708 C189.45336163 267.05026593 203.99379237 306.90402124 194.64283752 348.24290466 C187.81245748 375.01135764 174.36582174 398.12597284 154.49049377 417.27415466 C153.68482971 418.07981873 152.87916565 418.88548279 152.04908752 419.71556091 C112.69720883 459.06743961 55.06707269 476.64338039 0.49049377 478.27415466 C-1.14919373 478.33602966 -1.14919373 478.33602966 -2.82200623 478.39915466 C-21.38959949 478.76322512 -40.29103041 476.79519739 -58.50950623 473.27415466 C-59.5089325 473.08562927 -59.5089325 473.08562927 -60.52854919 472.89329529 C-94.22401312 466.33562041 -126.75585906 451.82974266 -153.50950623 430.27415466 C-154.05477966 429.83571228 -154.6000531 429.3972699 -155.16184998 428.94554138 C-161.14542283 424.10339271 -166.94783143 419.24750404 -171.84934998 413.27415466 C-173.74597871 410.98927487 -175.78173446 408.86902029 -177.82200623 406.71165466 C-194.28996725 388.3672423 -206.78458683 362.87857391 -209.50950623 338.27415466 C-209.61778748 337.37954529 -209.72606873 336.48493591 -209.83763123 335.56321716 C-213.61087847 300.11455225 -201.63694556 265.29898212 -183.50950623 235.27415466 C-182.93845154 234.32153748 -182.36739685 233.36892029 -181.77903748 232.38743591 C-181.15061951 231.34136169 -181.15061951 231.34136169 -180.50950623 230.27415466 C-181.19915466 230.05501404 -181.8888031 229.83587341 -182.59934998 229.61009216 C-186.26875095 227.92561548 -189.06803674 225.54084267 -192.07200623 222.89915466 C-192.68406921 222.36532166 -193.2961322 221.83148865 -193.92674255 221.28147888 C-228.92734777 190.43241357 -250.25235909 148.75760428 -259.50950623 103.27415466 C-259.7028656 102.3344281 -259.89622498 101.39470154 -260.09544373 100.42649841 C-262.34488495 88.83698602 -262.67117729 77.37795658 -262.63987732 65.61277771 C-262.63450863 63.21272998 -262.63985687 60.81286868 -262.64622498 58.41282654 C-262.6619286 35.94065591 -262.6619286 35.94065591 -258.50950623 31.27415466 C-243.84818478 27.28627523 -222.82896588 38.584664 -210.45994568 45.62889099 C-167.67479803 70.85508407 -139.90861531 117.6103077 -127.63108826 164.63890076 C-126.90985431 167.51415273 -126.20104651 170.39163313 -125.50950623 173.27415466 C-124.82992859 172.75264832 -124.15035095 172.23114197 -123.45018005 171.6938324 C-115.57500456 165.70138867 -107.22500619 160.92214685 -98.50950623 156.27415466 C-97.53255798 155.74773376 -97.53255798 155.74773376 -96.53587341 155.2106781 C-77.77896662 145.17615776 -55.96545664 136.32936534 -34.50950623 135.27415466 C-34.25427185 134.43626404 -33.99903748 133.59837341 -33.73606873 132.73509216 C-32.39181705 128.94207629 -30.71936429 125.47190675 -28.88450623 121.89915466 C-28.55966248 121.2584906 -28.23481873 120.61782654 -27.90013123 119.95774841 C-27.10693216 118.39467966 -26.30873592 116.83414845 -25.50950623 115.27415466 C-26.60416199 115.27004578 -27.69881775 115.26593689 -28.8266449 115.26170349 C-32.89922267 115.23988414 -36.97083813 115.18556635 -41.04295349 115.12156677 C-42.80327613 115.09841102 -44.56373684 115.08399672 -46.32420349 115.07859802 C-48.85950002 115.06929024 -51.3926325 115.02826418 -53.92747498 114.98118591 C-55.10276009 114.98708488 -55.10276009 114.98708488 -56.30178833 114.99310303 C-60.39410457 114.88453086 -62.15388806 114.52308458 -65.60838318 112.10496521 C-67.50950623 109.27415466 -67.50950623 109.27415466 -67.48875427 106.27146912 C-66.52804409 103.33089598 -65.43851565 100.96132611 -63.84153748 98.31712341 C-63.28546814 97.38287537 -62.7293988 96.44862732 -62.15647888 95.48606873 C-61.55110291 94.48801208 -60.94572693 93.48995544 -60.32200623 92.46165466 C-59.03230021 90.29484277 -57.74459779 88.12683728 -56.45872498 85.95774841 C-55.46945007 84.2926825 -55.46945007 84.2926825 -54.46018982 82.59397888 C-51.43708249 77.44902099 -48.53292975 72.2400668 -45.63450623 67.02415466 C-39.0049185 55.12810697 -32.2856416 43.28573873 -25.49598694 31.48051453 C-23.48745753 27.98618402 -21.49303437 24.48426351 -19.50914001 20.97589111 C-17.93405335 18.19567558 -16.3454934 15.42316215 -14.75950623 12.64915466 C-14.18716248 11.62942566 -13.61481873 10.60969666 -13.02513123 9.55906677 C-12.48888123 8.62715515 -11.95263123 7.69524353 -11.40013123 6.73509216 C-10.93639099 5.91830994 -10.47265076 5.10152771 -9.99485779 4.25999451 C-7.3296165 0.69670183 -4.309545 0.02573148 0 0 Z " fill="#FED300" transform="translate(262.50950622558594,16.725845336914063)"/>
<path d="M0 0 C1.34788101 -0.01496269 1.34788101 -0.01496269 2.72299194 -0.03022766 C4.19043098 -0.03122467 4.19043098 -0.03122467 5.68751526 -0.03224182 C6.72369995 -0.04056534 7.75988464 -0.04888885 8.82746887 -0.0574646 C12.25554653 -0.08157665 15.68343404 -0.09033758 19.11158752 -0.09693909 C21.49285948 -0.10590333 23.87413084 -0.11502514 26.25540161 -0.1242981 C31.24792348 -0.14079312 36.24037824 -0.14848936 41.23292542 -0.15138245 C47.63351366 -0.15677169 54.03347243 -0.19447277 60.43388271 -0.24012661 C65.3520743 -0.26984958 70.2701133 -0.27710495 75.18838692 -0.2781086 C77.54833426 -0.28231908 79.90828171 -0.29478629 82.26814079 -0.31562614 C85.5672597 -0.34244507 88.86490596 -0.33774284 92.16407776 -0.32521057 C93.14034622 -0.34004486 94.11661469 -0.35487915 95.12246704 -0.37016296 C99.75088402 -0.32003001 101.82877795 -0.22315055 105.62612915 2.63070679 C107.49049377 5.27415466 107.49049377 5.27415466 107.64674377 8.16868591 C106.13676094 12.22421413 103.89416113 14.8068402 100.99049377 17.96165466 C99.88658704 19.20291611 98.78373129 20.44511301 97.68190002 21.68821716 C97.13678772 22.29697693 96.59167542 22.90573669 96.03004456 23.53294373 C93.92631382 25.9122345 91.92372 28.36644543 89.92799377 30.83665466 C86.66271075 34.85773557 83.34491534 38.82760628 79.99049377 42.77415466 C75.87296619 47.61951727 71.82643384 52.51631096 67.81471252 57.44993591 C64.74771475 61.1767248 61.62036649 64.85115731 58.47096252 68.50852966 C54.95406718 72.62561374 51.7015542 76.91544133 48.49049377 81.27415466 C49.6154425 81.25844421 50.74039124 81.24273376 51.89942932 81.22654724 C56.08327542 81.1721425 60.26709039 81.1377663 64.45118713 81.10935974 C66.26015994 81.09429712 68.06909637 81.0738429 69.87794495 81.0478363 C72.48195892 81.01134147 75.08548898 80.99440309 77.68971252 80.98118591 C78.8978083 80.95796013 78.8978083 80.95796013 80.13031006 80.93426514 C84.74673838 80.9328895 87.7338464 81.28372271 91.49049377 84.27415466 C92.7351547 86.76347652 92.59566558 87.89936059 91.84596252 90.57102966 C90.12801892 93.99701518 87.71224168 96.17666819 84.86549377 98.64915466 C84.32352356 99.13247253 83.78155334 99.61579041 83.22315979 100.11375427 C81.65350539 101.50985794 80.07404365 102.89385234 78.49049377 104.27415466 C77.76990784 104.90708435 77.0493219 105.54001404 76.30690002 106.19212341 C75.0568736 107.28622138 73.80427306 108.37738551 72.54908752 109.46556091 C70.00092728 111.70426717 67.49638785 113.98825678 64.99049377 116.27415466 C61.8278782 119.15835566 58.6560889 122.02592942 55.42799377 124.83665466 C52.28940079 127.57152822 49.1634822 130.31981793 46.05299377 133.08665466 C45.20865784 133.83559998 44.3643219 134.58454529 43.49440002 135.35618591 C41.42801143 137.11834037 41.42801143 137.11834037 40.49049377 139.27415466 C41.45084534 139.3759906 42.4111969 139.47782654 43.40065002 139.58274841 C48.1061355 140.26170805 52.45782511 141.75564115 56.92799377 143.33665466 C57.80399231 143.64538513 58.67999084 143.9541156 59.58253479 144.27220154 C67.26695837 147.05715105 74.49674332 150.454541 81.69264221 154.31419373 C83.39834604 155.22495248 85.11985557 156.10592677 86.84205627 156.98509216 C106.26984984 167.05351072 106.26984984 167.05351072 112.49049377 173.27415466 C112.66065002 172.62156677 112.83080627 171.96897888 113.00611877 171.2966156 C126.19533704 121.22318721 152.01425129 72.27371372 198.09693909 45.27488708 C210.70787848 38.08245454 225.87804173 31.38980694 240.61549377 30.96165466 C241.4636969 30.92427185 242.31190002 30.88688904 243.18580627 30.84837341 C245.49049377 31.27415466 245.49049377 31.27415466 247.09230042 33.04148865 C251.64146353 40.30569271 249.67666247 52.15323078 249.67579651 60.53050232 C249.67797009 62.8736271 249.6961481 65.21626974 249.71510315 67.55931091 C249.75246852 77.62980903 248.9976204 87.31283012 247.49049377 97.27415466 C247.29914856 98.55975281 247.10780334 99.84535095 246.91065979 101.16990662 C239.24375326 150.1000835 211.88878487 198.65260425 172.10768127 228.50852966 C169.49049377 230.27415466 169.49049377 230.27415466 167.49049377 230.27415466 C167.80687805 230.80033386 168.12326233 231.32651306 168.44923401 231.86863708 C189.45336163 267.05026593 203.99379237 306.90402124 194.64283752 348.24290466 C187.81245748 375.01135764 174.36582174 398.12597284 154.49049377 417.27415466 C153.68482971 418.07981873 152.87916565 418.88548279 152.04908752 419.71556091 C112.69720883 459.06743961 55.06707269 476.64338039 0.49049377 478.27415466 C-1.14919373 478.33602966 -1.14919373 478.33602966 -2.82200623 478.39915466 C-21.38959949 478.76322512 -40.29103041 476.79519739 -58.50950623 473.27415466 C-59.5089325 473.08562927 -59.5089325 473.08562927 -60.52854919 472.89329529 C-94.22401312 466.33562041 -126.75585906 451.82974266 -153.50950623 430.27415466 C-154.05477966 429.83571228 -154.6000531 429.3972699 -155.16184998 428.94554138 C-161.14542283 424.10339271 -166.94783143 419.24750404 -171.84934998 413.27415466 C-173.74597871 410.98927487 -175.78173446 408.86902029 -177.82200623 406.71165466 C-194.28996725 388.3672423 -206.78458683 362.87857391 -209.50950623 338.27415466 C-209.61778748 337.37954529 -209.72606873 336.48493591 -209.83763123 335.56321716 C-213.61087847 300.11455225 -201.63694556 265.29898212 -183.50950623 235.27415466 C-182.93845154 234.32153748 -182.36739685 233.36892029 -181.77903748 232.38743591 C-181.15061951 231.34136169 -181.15061951 231.34136169 -180.50950623 230.27415466 C-181.19915466 230.05501404 -181.8888031 229.83587341 -182.59934998 229.61009216 C-186.26875095 227.92561548 -189.06803674 225.54084267 -192.07200623 222.89915466 C-192.68406921 222.36532166 -193.2961322 221.83148865 -193.92674255 221.28147888 C-228.92734777 190.43241357 -250.25235909 148.75760428 -259.50950623 103.27415466 C-259.7028656 102.3344281 -259.89622498 101.39470154 -260.09544373 100.42649841 C-262.34488495 88.83698602 -262.67117729 77.37795658 -262.63987732 65.61277771 C-262.63450863 63.21272998 -262.63985687 60.81286868 -262.64622498 58.41282654 C-262.6619286 35.94065591 -262.6619286 35.94065591 -258.50950623 31.27415466 C-243.84818478 27.28627523 -222.82896588 38.584664 -210.45994568 45.62889099 C-167.67479803 70.85508407 -139.90861531 117.6103077 -127.63108826 164.63890076 C-126.90985431 167.51415273 -126.20104651 170.39163313 -125.50950623 173.27415466 C-124.82992859 172.75264832 -124.15035095 172.23114197 -123.45018005 171.6938324 C-115.57500456 165.70138867 -107.22500619 160.92214685 -98.50950623 156.27415466 C-97.53255798 155.74773376 -97.53255798 155.74773376 -96.53587341 155.2106781 C-77.77896662 145.17615776 -55.96545664 136.32936534 -34.50950623 135.27415466 C-34.25427185 134.43626404 -33.99903748 133.59837341 -33.73606873 132.73509216 C-32.39181705 128.94207629 -30.71936429 125.47190675 -28.88450623 121.89915466 C-28.55966248 121.2584906 -28.23481873 120.61782654 -27.90013123 119.95774841 C-27.10693216 118.39467966 -26.30873592 116.83414845 -25.50950623 115.27415466 C-26.60416199 115.27004578 -27.69881775 115.26593689 -28.8266449 115.26170349 C-32.89922267 115.23988414 -36.97083813 115.18556635 -41.04295349 115.12156677 C-42.80327613 115.09841102 -44.56373684 115.08399672 -46.32420349 115.07859802 C-48.85950002 115.06929024 -51.3926325 115.02826418 -53.92747498 114.98118591 C-55.10276009 114.98708488 -55.10276009 114.98708488 -56.30178833 114.99310303 C-60.39410457 114.88453086 -62.15388806 114.52308458 -65.60838318 112.10496521 C-67.50950623 109.27415466 -67.50950623 109.27415466 -67.48875427 106.27146912 C-66.52804409 103.33089598 -65.43851565 100.96132611 -63.84153748 98.31712341 C-63.28546814 97.38287537 -62.7293988 96.44862732 -62.15647888 95.48606873 C-61.55110291 94.48801208 -60.94572693 93.48995544 -60.32200623 92.46165466 C-59.03230021 90.29484277 -57.74459779 88.12683728 -56.45872498 85.95774841 C-55.46945007 84.2926825 -55.46945007 84.2926825 -54.46018982 82.59397888 C-51.43708249 77.44902099 -48.53292975 72.2400668 -45.63450623 67.02415466 C-39.0049185 55.12810697 -32.2856416 43.28573873 -25.49598694 31.48051453 C-23.48745753 27.98618402 -21.49303437 24.48426351 -19.50914001 20.97589111 C-17.93405335 18.19567558 -16.3454934 15.42316215 -14.75950623 12.64915466 C-14.18716248 11.62942566 -13.61481873 10.60969666 -13.02513123 9.55906677 C-12.48888123 8.62715515 -11.95263123 7.69524353 -11.40013123 6.73509216 C-10.93639099 5.91830994 -10.47265076 5.10152771 -9.99485779 4.25999451 C-7.3296165 0.69670183 -4.309545 0.02573148 0 0 Z M-189.50950623 79.27415466 C-189.5584906 80.57868591 -189.60747498 81.88321716 -189.65794373 83.22727966 C-190.88477054 113.16128055 -190.88477054 113.16128055 -198.99388123 121.86790466 C-204.27463422 126.54980938 -209.67858872 127.62617172 -216.50950623 128.33665466 C-217.25192566 128.41899353 -217.99434509 128.5013324 -218.75926208 128.58616638 C-225.33158971 129.29771648 -231.91311154 129.83821901 -238.50950623 130.27415466 C-233.86724349 156.41198749 -214.46505209 182.50670585 -196.50950623 201.27415466 C-195.71673279 202.14169373 -194.92395935 203.00923279 -194.10716248 203.90306091 C-184.9719406 213.56029547 -174.16230583 221.32961965 -162.44700623 227.58665466 C-160.13841248 228.89524841 -160.13841248 228.89524841 -158.50950623 230.27415466 C-157.88450623 234.14915466 -157.88450623 234.14915466 -158.50950623 237.27415466 C-161.23901397 238.63890854 -163.47945894 238.33475561 -166.50950623 238.27415466 C-167.82950623 238.27415466 -169.14950623 238.27415466 -170.50950623 238.27415466 C-187.08831427 258.04802208 -196.30955071 288.98937776 -197.50950623 314.27415466 C-197.56364685 315.40466248 -197.61778748 316.53517029 -197.67356873 317.69993591 C-198.53759362 353.63551671 -182.99112475 382.34952854 -159.51731873 408.49290466 C-140.81485585 428.07831643 -115.5925154 441.814312 -90.50950623 451.27415466 C-89.34677185 451.71372498 -88.18403748 452.15329529 -86.98606873 452.60618591 C-46.5736269 466.90946588 -0.48148588 470.40061193 41.49049377 461.27415466 C42.53253967 461.05984802 43.57458557 460.84554138 44.64820862 460.6247406 C59.49877049 457.53920121 73.5452713 453.23435931 87.49049377 447.27415466 C88.23734436 446.95720642 88.98419495 446.64025818 89.75367737 446.31370544 C128.51551126 429.61243728 161.09571241 400.60983512 177.49049377 361.27415466 C177.84885315 360.48653748 178.20721252 359.69892029 178.57643127 358.88743591 C184.2603474 345.27595255 185.33439789 328.86602404 184.49049377 314.27415466 C184.45327209 313.59884705 184.41605042 312.92353943 184.37770081 312.22776794 C182.9572499 289.45372537 174.73548437 268.96602796 164.24049377 248.96165466 C163.92354553 248.35724548 163.60659729 247.7528363 163.28004456 247.13011169 C161.33410509 243.53344353 159.13367624 240.39100478 156.49049377 237.27415466 C155.50049377 237.60415466 154.51049377 237.93415466 153.49049377 238.27415466 C149.86549377 238.39915466 149.86549377 238.39915466 146.49049377 238.27415466 C145.49049377 237.27415466 145.49049377 237.27415466 144.87721252 234.07884216 C145.49049377 230.27415466 145.49049377 230.27415466 147.09840393 228.72044373 C149.44490272 227.15893809 151.83849196 225.76686578 154.30299377 224.39915466 C156.06774891 223.35086411 157.82949215 222.29748614 159.58815002 221.23899841 C160.86649719 220.47692078 160.86649719 220.47692078 162.17066956 219.69944763 C192.69110252 200.94778613 213.80053656 165.30713981 225.49049377 132.27415466 C225.49049377 131.61415466 225.49049377 130.95415466 225.49049377 130.27415466 C220.93467729 129.17384769 216.46210017 129.0284093 211.80299377 128.83665466 C191.73768567 127.79573912 191.73768567 127.79573912 184.49049377 120.27415466 C175.6666508 108.73355596 176.96337352 93.07801428 176.49049377 79.27415466 C171.90698246 82.99488738 167.90622526 86.78395726 164.30299377 91.46165466 C163.84086487 92.05986023 163.37873596 92.6580658 162.90260315 93.2743988 C140.18112784 123.28123306 127.51188179 157.41596137 121.49049377 194.27415466 C118.85049377 194.27415466 116.21049377 194.27415466 113.49049377 194.27415466 C113.05736877 193.11915466 112.62424377 191.96415466 112.17799377 190.77415466 C107.27098753 181.07940968 94.56863416 175.64765293 85.39918518 170.37229919 C84.16630986 169.66297799 82.93656274 168.94817879 81.71070862 168.22679138 C71.28396124 162.11940385 60.33673944 157.98323093 48.91383362 154.10227966 C46.95821566 153.4339887 45.0134533 152.73397986 43.07252502 152.02415466 C16.44997669 142.82662109 -13.11893347 143.30480669 -40.50950623 148.27415466 C-41.7031781 148.49071716 -42.89684998 148.70727966 -44.12669373 148.93040466 C-70.96114949 154.55158742 -105.35889317 167.81781799 -124.50950623 188.27415466 C-125.7995931 191.39603185 -125.7995931 191.39603185 -126.50950623 194.27415466 C-129.14950623 194.27415466 -131.78950623 194.27415466 -134.50950623 194.27415466 C-134.61383972 193.62793152 -134.71817322 192.98170837 -134.82566833 192.31590271 C-140.13655493 160.30157468 -150.46624226 128.89302364 -169.50950623 102.27415466 C-170.23653748 101.24548279 -170.96356873 100.21681091 -171.71263123 99.15696716 C-176.83563378 92.11731679 -182.37498971 85.45735782 -188.50950623 79.27415466 C-188.83950623 79.27415466 -189.16950623 79.27415466 -189.50950623 79.27415466 Z " fill="#343739" transform="translate(262.50950622558594,16.725845336914063)"/>
<path d="M0 0 C0.2678833 0.59006836 0.5357666 1.18013672 0.81176758 1.78808594 C2.01173483 4.02184458 3.26612013 5.56273425 5.01171875 7.390625 C5.60162598 8.01404785 6.1915332 8.6374707 6.79931641 9.27978516 C7.42241699 9.92995605 8.04551758 10.58012695 8.6875 11.25 C9.96049871 12.59553794 11.23264369 13.94188413 12.50390625 15.2890625 C13.41487061 16.25247559 13.41487061 16.25247559 14.34423828 17.23535156 C18.05884469 21.19423908 21.66288094 25.23155221 24.9375 29.5625 C27.93852623 33.10916737 31.4528768 36.01249575 35 39 C35.13535156 38.32195312 35.27070312 37.64390625 35.41015625 36.9453125 C37.8566664 26.36818479 42.57755464 18.92802024 51.7890625 13.05859375 C58.34531211 9.9194707 66.79642279 10.01162349 73.7578125 11.6484375 C81.4712958 14.40830767 86.6311756 18.97628402 90.375 26.25 C93.68041178 33.43567778 94.46728377 40.6453114 91.90625 48.24609375 C88.56962066 55.35417913 84.95639599 60.93351541 77.5546875 64.01953125 C75.38299899 64.76498546 73.22229459 65.42552929 71 66 C71 66.66 71 67.32 71 68 C71.67804688 68.25523437 72.35609375 68.51046875 73.0546875 68.7734375 C75.83185398 69.92997633 78.48932683 71.23540477 81.16186523 72.61401367 C102.50918214 83.60757658 123.53130692 90.61085438 147.19943237 94.5160675 C148.98065599 94.82385939 150.75830232 95.15378082 152.52986145 95.51304626 C159.13284752 96.83725203 165.45055295 97.31906899 172.17578125 97.3359375 C173.211548 97.34431641 174.24731476 97.35269531 175.31446838 97.36132812 C178.64730282 97.38076601 181.97961857 97.38092539 185.3125 97.375 C186.45116516 97.37445618 187.58983032 97.37391235 188.76300049 97.37335205 C214.32792849 97.31714168 238.64322509 95.30501798 263 87 C264.22251465 86.59177002 264.22251465 86.59177002 265.46972656 86.17529297 C278.18721071 81.88345562 290.24311239 76.5614875 301.828125 69.76171875 C305 68 305 68 307 68 C307 67.34 307 66.68 307 66 C305.89978516 65.82984375 305.89978516 65.82984375 304.77734375 65.65625 C297.18482952 63.8622382 292.20647428 58.66333924 288.19140625 52.24609375 C284.47818948 45.24576706 283.62809554 38.25759793 285.65234375 30.5 C289.06265905 22.06934929 294.86845774 15.58082062 303.1953125 11.84765625 C311.31828454 9.39266331 319.30388129 10.32793821 326.921875 13.87890625 C333.91211762 17.64995819 338.45780573 23.53454196 341.046875 31.03125 C341.76979039 33.67739311 342.42839209 36.31745409 343 39 C348.04967312 34.69460977 352.76294691 30.33697183 357.05078125 25.26953125 C359.4888187 22.43085438 362.02424842 19.68610392 364.5625 16.9375 C372.17940962 9.10953162 372.17940962 9.10953162 378 0 C382.44363713 34.6365644 377.96366179 65.71929892 356.9765625 94.46875 C335.91178231 121.44499024 309.24791388 140.69719969 277.36816406 153.07421875 C275.60342462 153.76410452 273.84605383 154.47289699 272.09277344 155.19140625 C264.02502808 158.43126748 255.97142962 160.70291093 247.5 162.625 C246.30375 162.91117188 245.1075 163.19734375 243.875 163.4921875 C225.96615871 167.63078528 208.30680184 169.56841883 189.9375 169.4375 C189.00800537 169.43412628 188.07851074 169.43075256 187.12084961 169.42727661 C155.40700675 169.26163458 124.16709212 163.82549162 95 151 C94.30293945 150.70013184 93.60587891 150.40026367 92.88769531 150.09130859 C54.05974972 133.25874438 21.459044 104.48986455 5 65 C4.64164062 64.21238281 4.28328125 63.42476563 3.9140625 62.61328125 C-4.28394419 42.9812126 -2.63783781 20.56100366 0 0 Z " fill="#FEAF00" transform="translate(67,313)"/>
<path d="M0 0 C1.57234544 -0.01451474 3.14508999 -0.00115314 4.71711731 0.03364563 C6.00524574 0.03255043 6.00524574 0.03255043 7.31939697 0.03143311 C10.16069999 0.03491937 13.00036796 0.07382874 15.84138489 0.11299133 C17.81006983 0.12231578 19.77876636 0.12943363 21.74746704 0.13442993 C26.931259 0.15352868 32.11435142 0.20265448 37.29786682 0.25794983 C42.58636511 0.30908018 47.87497634 0.3319307 53.16365051 0.35713196 C63.54221322 0.41077025 73.92025653 0.49611802 84.29841614 0.60127258 C83.35517313 1.86789564 82.41067153 3.1335815 81.46565247 4.39888 C80.93982071 5.10381088 80.41398895 5.80874176 79.8722229 6.53503418 C77.67704909 9.41706044 75.34917454 12.16934348 72.98591614 14.91377258 C69.5463027 18.94223289 66.14059165 22.99105673 62.79841614 27.10127258 C59.05053816 31.70580839 55.22858169 36.2414645 51.38435364 40.76533508 C47.7475825 45.05225525 44.18524082 49.39595471 40.63825989 53.75752258 C37.44718764 57.63582074 34.19432604 61.46062914 30.92732239 65.27510071 C26.74849645 69.89172566 26.74849645 69.89172566 24.98591614 75.66377258 C25.08904114 76.63314758 25.19216614 77.60252258 25.29841614 78.60127258 C29.15446039 81.17196875 32.42587957 80.95192314 36.90388489 81.01533508 C37.74308975 81.03470123 38.58229462 81.05406738 39.44692993 81.07402039 C42.12648872 81.13378471 44.80609054 81.1801887 47.48591614 81.22627258 C49.30299213 81.26445529 51.12005008 81.30350719 52.93708801 81.34346008 C57.39071746 81.43948361 61.84443165 81.52352617 66.29841614 81.60127258 C62.27113695 85.64880235 58.1626709 89.58457046 53.98591614 93.47627258 C53.31729553 94.099776 52.64867493 94.72327942 51.95979309 95.36567688 C48.09102787 98.96311509 44.19309838 102.51367656 40.18904114 105.96064758 C37.84242781 107.99696493 35.54047472 110.08001003 33.23591614 112.16377258 C32.38900208 112.91658508 31.54208801 113.66939758 30.66950989 114.44502258 C29.22655942 115.75722795 27.81304023 117.10416737 26.45857239 118.50752258 C23.13521828 121.82305704 20.99910058 122.96778623 16.23591614 123.03877258 C13.61839293 122.89877539 11.13950549 122.57228701 8.55989075 122.10176086 C5.20921145 121.58758371 1.97472231 121.39363104 -1.41252136 121.28486633 C-2.65646667 121.2429718 -3.90041199 121.20107727 -5.18205261 121.15791321 C-6.46724792 121.1185968 -7.75244324 121.0792804 -9.07658386 121.03877258 C-10.3849823 120.99558899 -11.69338074 120.9524054 -13.04142761 120.90791321 C-16.26138183 120.80214829 -19.48140917 120.70005679 -22.70158386 120.60127258 C-21.60717559 117.16261624 -20.4871258 113.92979439 -18.75627136 110.76142883 C-18.22453308 109.75499329 -18.22453308 109.75499329 -17.68205261 108.72822571 C-16.94494658 107.3516867 -16.20012875 105.97924953 -15.44767761 104.61103821 C-13.03029575 99.99321902 -12.28024751 96.81361103 -12.70158386 91.60127258 C-16.53501046 89.08393023 -20.54046887 89.25389431 -24.96720886 89.18721008 C-25.76060669 89.16784393 -26.55400452 89.14847778 -27.3714447 89.12852478 C-29.89804943 89.06888897 -32.42470011 89.02240816 -34.95158386 88.97627258 C-36.66774923 88.93807803 -38.38389574 88.89902544 -40.10002136 88.85908508 C-44.30038842 88.76320072 -48.5008452 88.67911092 -52.70158386 88.60127258 C-51.25244015 84.74971754 -49.4833779 81.21605089 -47.49845886 77.61299133 C-47.18434052 77.04182083 -46.87022217 76.47065033 -46.54658508 75.88217163 C-45.51833752 74.01579397 -44.48528667 72.15213369 -43.45158386 70.28877258 C-42.9177005 69.32312378 -42.9177005 69.32312378 -42.37303162 68.33796692 C-37.00638681 58.63454558 -31.50216965 49.02042609 -25.87712097 39.46406555 C-20.87179687 30.94604447 -16.03352448 22.340996 -11.23039246 13.7077179 C-10.68076843 12.71997375 -10.13114441 11.73222961 -9.56486511 10.71455383 C-8.8423053 9.41191589 -8.8423053 9.41191589 -8.10514832 8.08296204 C-7.64197205 7.26400452 -7.17879578 6.445047 -6.70158386 5.60127258 C-6.17611465 4.30455627 -6.17611465 4.30455627 -5.64002991 2.98164368 C-3.70158386 0.60127258 -3.70158386 0.60127258 0 0 Z " fill="#FEAF00" transform="translate(265.7015838623047,29.398727416992188)"/>
<path d="M0 0 C3.63020982 3.1744692 5.07503786 5.87920568 6.70703125 10.3671875 C7.36703125 10.6971875 8.02703125 11.0271875 8.70703125 11.3671875 C8.70703125 15.9871875 8.70703125 20.6071875 8.70703125 25.3671875 C4.71254414 24.0356918 1.10976492 22.72636002 -2.6875 21.01171875 C-32.4845836 7.80241247 -64.59239941 -0.69188066 -97.36328125 -0.8359375 C-98.40201385 -0.84163757 -99.44074646 -0.84733765 -100.51095581 -0.85321045 C-102.70439658 -0.86260754 -104.89785112 -0.86917322 -107.09130859 -0.87304688 C-110.36062138 -0.88264415 -113.62927461 -0.91367385 -116.8984375 -0.9453125 C-131.57996371 -1.01840041 -145.78181919 0.17873521 -160.29296875 2.3671875 C-161.16912842 2.49672318 -162.04528809 2.62625885 -162.94799805 2.75971985 C-173.28943205 4.29572331 -183.26013506 6.36924259 -193.29296875 9.3671875 C-194.45699219 9.71394531 -195.62101562 10.06070313 -196.8203125 10.41796875 C-205.4815137 13.15456978 -213.75197514 16.5896964 -222.06103516 20.24487305 C-226.42403845 22.16292627 -230.72855028 23.96563372 -235.29296875 25.3671875 C-235.56869967 23.26623776 -235.81275851 21.16111115 -236.04296875 19.0546875 C-236.1821875 17.88292969 -236.32140625 16.71117187 -236.46484375 15.50390625 C-236.408125 14.46878906 -236.35140625 13.43367188 -236.29296875 12.3671875 C-234.43359375 10.82421875 -234.43359375 10.82421875 -232.29296875 9.3671875 C-231.98359375 8.40167969 -231.67421875 7.43617188 -231.35546875 6.44140625 C-227.38025728 -5.06040048 -204.1635743 -14.86516532 -193.78515625 -19.9440918 C-175.05994283 -28.79926941 -156.11267409 -34.63825167 -135.55395508 -37.3347168 C-133.52294506 -37.60249168 -131.49552863 -37.89719593 -129.46875 -38.1953125 C-84.04938586 -43.72310433 -36.19653766 -27.21593652 0 0 Z " fill="#FDF600" transform="translate(369.29296875,200.6328125)"/>
<path d="M0 0 C8.31268893 6.68748687 13.43317704 13.62530971 16 24 C17.279742 36.97254259 15.13515781 47.90906616 6.71875 58.2578125 C3.52109653 61.49907034 -0.02880534 63.80675851 -4 66 C-4.72703125 66.41507812 -5.4540625 66.83015625 -6.203125 67.2578125 C-14.47178143 71.27964199 -25.03817281 71.5833579 -33.8828125 69.234375 C-36.06464424 68.30247399 -38.0009791 67.27289952 -40 66 C-41.0725 65.360625 -42.145 64.72125 -43.25 64.0625 C-51.08343594 58.18742305 -58.19618429 49.90364204 -60 40 C-60.897624 26.66807639 -59.30755757 16.54814293 -50.3203125 6.03515625 C-36.87983101 -8.45789307 -16.63337766 -10.13251595 0 0 Z " fill="#353739" transform="translate(181,249)"/>
<path d="M0 0 C8.31268893 6.68748687 13.43317704 13.62530971 16 24 C17.279742 36.97254259 15.13515781 47.90906616 6.71875 58.2578125 C3.52109653 61.49907034 -0.02880534 63.80675851 -4 66 C-4.72703125 66.41507812 -5.4540625 66.83015625 -6.203125 67.2578125 C-14.47178143 71.27964199 -25.03817281 71.5833579 -33.8828125 69.234375 C-36.06464424 68.30247399 -38.0009791 67.27289952 -40 66 C-41.0725 65.360625 -42.145 64.72125 -43.25 64.0625 C-51.79807788 57.65144159 -58.71294479 48.87204151 -60.28369141 38.04443359 C-61.24849039 26.73046691 -59.09312453 17.0634369 -52 8 C-38.46497291 -7.83283401 -17.79558387 -10.8404944 0 0 Z " fill="#353739" transform="translate(375,249)"/>
<path d="M0 0 C1.59505208 0.74869792 3.19010417 1.49739583 4.78515625 2.24609375 C11.35884748 4.48369941 18.62458296 4.30047412 25.50390625 4.60546875 C26.26832031 4.64285156 27.03273438 4.68023437 27.8203125 4.71875 C28.50367676 4.74904297 29.18704102 4.77933594 29.89111328 4.81054688 C32.30904005 5.0277628 34.62838099 5.48895102 37 6 C29.48590219 33.01090462 14.12458224 56.74664815 -5 77 C-5.79535156 77.87140625 -6.59070313 78.7428125 -7.41015625 79.640625 C-17.01108271 89.77734977 -28.65607505 98.28641748 -41.21484375 104.42578125 C-43.35652594 106.01004641 -43.35652594 106.01004641 -43.8359375 109.4921875 C-45 113 -45 113 -48.01171875 114.70703125 C-49.83123047 115.25423828 -49.83123047 115.25423828 -51.6875 115.8125 C-52.88761719 116.19019531 -54.08773438 116.56789063 -55.32421875 116.95703125 C-56.53722656 117.30121094 -57.75023437 117.64539063 -59 118 C-60.31903315 118.37882709 -61.6380445 118.75773011 -62.95703125 119.13671875 C-63.96121094 119.42160156 -64.96539062 119.70648438 -66 120 C-67.32 118.02 -68.64 116.04 -70 114 C-69.34 114 -68.68 114 -68 114 C-67.73840088 113.29109619 -67.47680176 112.58219238 -67.20727539 111.85180664 C-65.92706989 108.82772567 -64.39913062 106.17086297 -62.68359375 103.37109375 C-61.67365356 101.7159375 -61.67365356 101.7159375 -60.64331055 100.02734375 C-59.90806435 98.83071443 -59.17279351 97.63410025 -58.4375 96.4375 C-57.67512914 95.19035346 -56.91317319 93.94295321 -56.15161133 92.6953125 C-54.56560206 90.09779018 -52.97780532 87.50137381 -51.38867188 84.90576172 C-48.00002596 79.36834839 -44.63019885 73.81952023 -41.26174927 68.26980591 C-40.18387784 66.49403255 -39.10550232 64.71856599 -38.02709961 62.94311523 C-33.53169691 55.53941994 -29.06344134 48.1199682 -24.61621094 40.68725586 C-19.34883933 31.89356128 -14.02181733 23.13609323 -8.69726562 14.37695312 C-8.34209366 13.79264023 -7.98692169 13.20832733 -7.62098694 12.60630798 C-6.65110497 11.01092627 -5.68090972 9.41573502 -4.71069336 7.82055664 C-3.13247384 5.21842019 -1.5633158 2.61111139 0 0 Z " fill="#FDAF00" transform="translate(451,141)"/>
<path d="M0 0 C2.93664343 3.52502715 5.38894463 7.12321563 7.73046875 11.06640625 C8.07790131 11.64874527 8.42533386 12.23108429 8.78329468 12.83106995 C9.5308919 14.08493095 10.27683513 15.33977935 11.02127075 16.59552002 C13.03004884 19.98355568 15.05136687 23.36411092 17.0703125 26.74609375 C17.48311966 27.43844116 17.89592682 28.13078857 18.32124329 28.84411621 C22.36667145 35.62574523 26.45837494 42.37877917 30.5625 49.125 C31.26294989 50.27684912 31.96338932 51.4287046 32.66381836 52.58056641 C33.71581677 54.31044955 34.76789701 56.04028264 35.82023621 57.7699585 C38.34682485 61.92338927 40.86784201 66.08016987 43.38671875 70.23828125 C44.48094651 72.04391966 45.57527465 73.84949716 46.66967773 75.6550293 C47.385002 76.83527392 48.10017341 78.01561118 48.81518555 79.19604492 C52.49553073 85.2702769 56.19492656 91.33139273 59.95703125 97.35546875 C60.56772461 98.33394775 61.17841797 99.31242676 61.80761719 100.32055664 C62.94862397 102.14397691 64.09359565 103.96492422 65.24316406 105.78295898 C65.74170898 106.57903564 66.24025391 107.3751123 66.75390625 108.1953125 C67.40854858 109.23196045 67.40854858 109.23196045 68.07641602 110.28955078 C69 112 69 112 69 114 C69.66 114.33 70.32 114.66 71 115 C69.35 116.65 67.7 118.3 66 120 C62.97983531 119.04361451 59.99110651 118.04165807 57 117 C55.94425781 116.64808594 54.88851562 116.29617188 53.80078125 115.93359375 C52.73214844 115.54300781 51.66351563 115.15242188 50.5625 114.75 C49.55316406 114.39421875 48.54382813 114.0384375 47.50390625 113.671875 C45 112 45 112 44.078125 108.59765625 C42.87798082 104.59282731 41.74812273 103.67028337 38.15258789 101.69506836 C37.50410889 101.3625708 36.85562988 101.03007324 36.1875 100.6875 C34.81167338 99.91755708 33.43932538 99.14136907 32.0703125 98.359375 C31.38227539 97.96814453 30.69423828 97.57691406 29.98535156 97.17382812 C-1.59163841 78.50410754 -23.55646569 42.70123875 -36 9 C-36 8.01 -36 7.02 -36 6 C-35.31486328 5.9498877 -34.62972656 5.89977539 -33.92382812 5.84814453 C-30.78197236 5.61425554 -27.64103087 5.36970822 -24.5 5.125 C-23.42234375 5.04636719 -22.3446875 4.96773437 -21.234375 4.88671875 C-10.19916612 4.04567921 -10.19916612 4.04567921 0 0 Z " fill="#FEAF00" transform="translate(60,141)"/>
<path d="M0 0 C6.32244831 3.41079449 11.33598374 9.10456652 13.7265625 15.98828125 C15.11029679 24.38293594 15.04461058 32.48390353 10.6875 39.9375 C5.98883344 46.31263254 -0.23530258 51.01910226 -7.921875 53.12109375 C-17.1012364 54.42666275 -25.24141048 52.12876263 -32.671875 46.62109375 C-38.70415261 40.91837049 -42.24089089 33.19516466 -42.546875 24.93359375 C-42.05068255 16.47626916 -38.73336875 10.04110831 -32.953125 3.91796875 C-23.40296987 -4.5302454 -11.40613918 -5.31673262 0 0 Z " fill="#FE1B19" transform="translate(393.921875,326.87890625)"/>
<path d="M0 0 C6.23471338 4.72689402 9.5611357 10.68340709 12 18 C13.15208863 27.31879288 11.20518892 34.22107021 6 42 C1.03792854 48.01243696 -6.11724275 51.32509138 -13.76953125 52.3828125 C-22.34536051 52.7426375 -28.58543591 50.14436562 -35.25 44.875 C-40.49937099 39.90909504 -43.56783308 34.73159511 -44.40625 27.4921875 C-44.57345675 20.9293227 -44.36194689 15.68053095 -41 10 C-40.67128906 9.41992188 -40.34257813 8.83984375 -40.00390625 8.2421875 C-36.49392153 2.63107006 -31.03989629 -1.9265976 -24.57421875 -3.64453125 C-15.76829102 -4.8605243 -7.79903679 -4.58210307 0 0 Z " fill="#FE1B19" transform="translate(148,328)"/>
<path d="M0 0 C29.04 0 58.08 0 88 0 C83.84472657 5.54036458 79.66000159 10.84824023 75.14453125 16.06640625 C74.69464844 16.59105469 74.24476563 17.11570312 73.78125 17.65625 C73.11393356 18.40430908 73.11393356 18.40430908 72.43313599 19.16748047 C70.93102001 20.9445496 70.93102001 20.9445496 70.05172729 23.04907227 C68.65022631 25.75061411 67.47565815 27.19315564 65 29 C58.9783343 30.16426901 53.02367049 29.93096162 46.9140625 29.78125 C45.12904397 29.7663191 43.34399254 29.75493608 41.55892944 29.74694824 C36.87270744 29.71648007 32.18848611 29.63796569 27.50305176 29.54931641 C22.71715357 29.4673084 17.93093034 29.43090501 13.14453125 29.390625 C3.76214434 29.30496407 -5.61876113 29.16852353 -15 29 C-12.3604318 18.44172722 -5.31757721 9.4956736 0 0 Z " fill="#FED300" transform="translate(262,30)"/>
<path d="M0 0 C0.76075836 -0.00524185 1.52151672 -0.0104837 2.30532837 -0.0158844 C3.91415182 -0.02230452 5.52302222 -0.02096766 7.13183594 -0.01245117 C9.58614434 -0.00395959 12.03811022 -0.03266839 14.4921875 -0.06445312 C16.05729097 -0.06606581 17.62239855 -0.06548632 19.1875 -0.0625 C20.28304703 -0.07935097 20.28304703 -0.07935097 21.40072632 -0.09654236 C26.28969908 -0.03013799 28.75284008 1.00954446 32.2265625 4.43359375 C32.2265625 7.12109375 32.2265625 7.12109375 31.2265625 10.43359375 C28.7871927 12.52947234 26.07859207 13.96861681 23.2265625 15.43359375 C21.4940625 16.33078125 21.4940625 16.33078125 19.7265625 17.24609375 C18.9015625 17.63796875 18.0765625 18.02984375 17.2265625 18.43359375 C16.67797247 25.25692558 16.67797247 25.25692558 19.0390625 31.49609375 C22.91632654 34.9302419 26.78191345 34.73287648 31.72265625 34.625 C35.45428136 34.33974317 37.31445086 33.86035345 40.2265625 31.43359375 C41.91240632 27.86171216 43.13237791 24.22462154 44.2265625 20.43359375 C50.8515625 19.18359375 50.8515625 19.18359375 54.2265625 21.43359375 C55.41717369 27.20430385 54.39469089 32.62542119 51.48828125 37.68359375 C47.89599375 42.6660854 42.99469208 45.58677715 37.2265625 47.43359375 C34.47430182 47.73940049 32.02713723 47.91110874 29.2890625 47.87109375 C28.5868457 47.8664209 27.88462891 47.86174805 27.16113281 47.85693359 C21.4364903 47.69341036 17.96413754 46.53123897 13.2265625 43.43359375 C11.90083589 42.75192581 10.56910441 42.08151615 9.2265625 41.43359375 C8.5046875 42.05234375 7.7828125 42.67109375 7.0390625 43.30859375 C-0.15637924 48.74514973 -9.11121603 48.48877122 -17.7734375 47.43359375 C-24.92797067 45.21683015 -29.37593626 40.54359588 -33.0859375 34.18359375 C-34.13239693 29.99775604 -34.28933217 25.72007155 -33.7734375 21.43359375 C-31.7734375 19.43359375 -31.7734375 19.43359375 -28.8359375 19.12109375 C-25.7734375 19.43359375 -25.7734375 19.43359375 -24.171875 20.671875 C-22.09499004 23.28828594 -21.55957241 26.08968841 -20.71484375 29.27734375 C-19.49947993 32.06108162 -18.44450966 32.98940389 -15.7734375 34.43359375 C-12.67212923 34.94563571 -12.67212923 34.94563571 -9.3359375 34.87109375 C-8.22347656 34.89042969 -7.11101562 34.90976562 -5.96484375 34.9296875 C-2.14694791 34.33620798 -0.51235903 33.10292381 2.2265625 30.43359375 C3.48893981 27.90883913 3.32512654 26.12158909 3.2890625 23.30859375 C3.28003906 22.39851563 3.27101562 21.4884375 3.26171875 20.55078125 C3.25011719 19.85210937 3.23851562 19.1534375 3.2265625 18.43359375 C2.31132812 17.96308594 1.39609375 17.49257813 0.453125 17.0078125 C-0.74760488 16.37930546 -1.9481143 15.75037712 -3.1484375 15.12109375 C-3.75171875 14.81236328 -4.355 14.50363281 -4.9765625 14.18554688 C-8.15602075 12.50749947 -9.73881302 11.48553047 -11.7734375 8.43359375 C-11.57555997 5.79522669 -11.15987055 4.02476012 -9.70849609 1.80444336 C-6.70759752 -0.32147709 -3.54686171 -0.01417772 0 0 Z " fill="#373938" transform="translate(245.7734375,302.56640625)"/>
<path d="M0 0 C3.68108797 2.57249777 6.51972004 4.65848631 9.0234375 8.4140625 C8.9609375 10.4140625 8.9609375 10.4140625 8.0234375 12.4140625 C2.96369147 16.20887202 -1.99558962 16.5543879 -8.1640625 16.5390625 C-9.73220703 16.54292969 -9.73220703 16.54292969 -11.33203125 16.546875 C-13.9765625 16.4140625 -13.9765625 16.4140625 -15.9765625 15.4140625 C-18.59106604 15.3152613 -21.17833836 15.27421309 -23.79296875 15.28125 C-24.95045876 15.27981491 -24.95045876 15.27981491 -26.1313324 15.27835083 C-27.76293011 15.27767004 -29.39453053 15.2795173 -31.02612305 15.28369141 C-33.53245071 15.28904837 -36.03859975 15.28373931 -38.54492188 15.27734375 C-40.12760456 15.27800441 -41.71028714 15.27928531 -43.29296875 15.28125 C-44.04711563 15.27922577 -44.80126251 15.27720154 -45.57826233 15.27511597 C-49.06888085 14.97187954 -49.06888085 14.97187954 -51.9765625 16.4140625 C-59.33365438 17.03511571 -66.26471832 16.6947397 -72.9765625 13.4140625 C-73.6365625 12.7540625 -74.2965625 12.0940625 -74.9765625 11.4140625 C-74.87547933 8.48265045 -73.86991869 7.28742297 -71.9765625 5.0390625 C-51.25950797 -13.08836022 -23.08368846 -14.954549 0 0 Z " fill="#FEF700" transform="translate(288.9765625,288.5859375)"/>
<path d="M0 0 C18.48 0 36.96 0 56 0 C56 8.05020006 54.51061537 12.98568764 49.203125 19.0546875 C43.19617652 24.65316348 36.85191086 28.13806798 28.5625 28.5 C20.69827144 28.17003237 13.40184931 25.36585494 7.60546875 19.96875 C2.62264598 13.85842718 0 7.84729769 0 0 Z " fill="#D61E1C" transform="translate(352,352)"/>
<path d="M0 0 C18.48 0 36.96 0 56 0 C56 7.84729769 53.37735402 13.85842718 48.39453125 19.96875 C42.59815069 25.36585494 35.30172856 28.17003237 27.4375 28.5 C19.14808914 28.13806798 12.80382348 24.65316348 6.796875 19.0546875 C1.48938463 12.98568764 0 8.05020006 0 0 Z " fill="#D61E1C" transform="translate(104,352)"/>
<path d="M0 0 C1.89050752 0.05021053 3.78114291 0.09582922 5.671875 0.13671875 C10.28442672 0.24643078 14.89080088 0.41866533 19.5 0.625 C16.70599168 3.43305757 13.90448002 6.22335144 11.01171875 8.9296875 C10.39143799 9.51000732 9.77115723 10.09032715 9.13208008 10.68823242 C8.49036865 11.28611572 7.84865723 11.88399902 7.1875 12.5 C6.19109497 13.42872925 6.19109497 13.42872925 5.17456055 14.3762207 C-4.05264383 22.95296984 -4.05264383 22.95296984 -8.5 26.625 C-9.045354 27.14143066 -9.59070801 27.65786133 -10.15258789 28.18994141 C-13.41672825 30.1854294 -15.86590471 29.96476347 -19.671875 29.91796875 C-20.6955014 29.91160149 -20.6955014 29.91160149 -21.73980713 29.90510559 C-23.91028004 29.88836972 -26.07980979 29.85072959 -28.25 29.8125 C-29.72524697 29.79744646 -31.20050855 29.78375922 -32.67578125 29.77148438 C-36.28415844 29.73848377 -39.8919871 29.68673767 -43.5 29.625 C-42.20423453 26.81865484 -40.79298167 24.61260024 -38.7421875 22.3046875 C-38.19820313 21.6859375 -37.65421875 21.0671875 -37.09375 20.4296875 C-36.5265625 19.79289062 -35.959375 19.15609375 -35.375 18.5 C-34.26613847 17.24924624 -33.15940165 15.9966059 -32.0546875 14.7421875 C-31.16958496 13.77563232 -31.16958496 13.77563232 -30.26660156 12.78955078 C-28.40025607 10.63413119 -28.40025607 10.63413119 -27.00683594 7.92529297 C-20.71957069 -2.53308129 -10.85188484 -0.50030436 0 0 Z " fill="#FDD200" transform="translate(312.5,110.375)"/>
<path d="M0 0 C-2.84303013 7.4691888 -7.02955606 11.60904507 -14.265625 15.08984375 C-20.80613092 17.26689786 -29.2686656 17.27925018 -35.5625 14.3125 C-40.67521882 11.21652527 -44.50215461 6.79334369 -48 2 C-48 1.34 -48 0.68 -48 0 C-31.76183679 -4.07774502 -16.21840675 -4.44484883 0 0 Z " fill="#6B5B4C" transform="translate(377,291)"/>
<path d="M0 0 C-3.42787976 8.90358379 -8.80021539 11.90010769 -17 16 C-25.1538197 16.6527336 -32.1645053 16.82309845 -39 12 C-39.9075 11.38125 -40.815 10.7625 -41.75 10.125 C-44.36848966 7.65198199 -46.17960378 5.10141579 -48 2 C-48 1.34 -48 0.68 -48 0 C-31.76183679 -4.07774502 -16.21840675 -4.44484883 0 0 Z " fill="#6B5B4C" transform="translate(183,291)"/>
<path d="M0 0 C2.0625 1.5625 2.0625 1.5625 3 4 C2.67272727 10.32727273 2.67272727 10.32727273 0 13 C-7.16065574 13.68196721 -7.16065574 13.68196721 -10 11.375 C-11.2766188 8.34303035 -11.41616519 6.25996064 -11 3 C-8.78821658 -1.1470939 -4.14616112 -0.75854923 0 0 Z " fill="#F7F7F8" transform="translate(341,264)"/>
<path d="M0 0 C2.4375 1.625 2.4375 1.625 4 4 C4.44912849 7.14389944 4.504106 9.05480125 3 11.875 C-0.22120939 13.68693028 -3.40450234 13.66666519 -7 13 C-9.7286109 10.78300364 -9.94936082 9.41355329 -10.375 5.9375 C-10 3 -10 3 -8.9375 1.125 C-5.84902396 -0.66830867 -3.48856031 -0.42841969 0 0 Z " fill="#F7F7F7" transform="translate(146,264)"/>
<path d="M0 0 C0.66 0 1.32 0 2 0 C1.45773019 3.79588866 -0.20127563 5.47211993 -3 8 C-3.66 7.67 -4.32 7.34 -5 7 C-4.21654285 5.82780457 -3.42297164 4.66236332 -2.625 3.5 C-2.18414062 2.8503125 -1.74328125 2.200625 -1.2890625 1.53125 C-0.65097656 0.77328125 -0.65097656 0.77328125 0 0 Z " fill="#ECD905" transform="translate(93,254)"/>
</svg>
