<svg xmlns="http://www.w3.org/2000/svg" width="512" height="512" viewBox="0 0 512 512" version="1.1"><path d="M 248.718 236.033 C 235.040 239.465, 225.002 252.179, 225.001 266.072 C 225 269.686, 225.716 274.746, 226.592 277.316 C 228.651 283.358, 235.914 291.391, 242.392 294.791 C 246.768 297.088, 248.717 297.472, 256 297.472 C 263.283 297.472, 265.232 297.088, 269.608 294.791 C 272.417 293.317, 276.763 289.833, 279.266 287.050 C 296.324 268.077, 283.911 237.516, 258.343 235.536 C 255.129 235.287, 250.798 235.511, 248.718 236.033 M 23.585 285.250 C 31.479 340.342, 54.359 385.838, 93.137 423.550 C 137.613 466.804, 194.464 490, 256 490 C 317.673 490, 374.504 466.770, 419.022 423.365 C 456.053 387.259, 478.224 344.926, 486.987 293.593 C 488.105 287.044, 488.811 281.478, 488.556 281.223 C 488.301 280.968, 486.071 281.062, 483.599 281.433 C 479.134 282.102, 479.103 282.136, 478.449 286.803 C 470.764 341.710, 442.540 392.598, 400.006 428.239 C 361.757 460.290, 309.901 479.900, 263.184 479.980 C 256.961 479.991, 251.003 479.537, 249.945 478.970 C 245.460 476.570, 243.523 467.553, 246.561 463.217 C 249.297 459.311, 252.914 458.305, 266.500 457.672 C 316.562 455.338, 362.307 434.879, 398.593 398.593 C 426.931 370.255, 445.211 337.001, 453.467 298.767 C 454.860 292.314, 456 286.744, 456 286.389 C 456 286.035, 454.253 286.024, 452.118 286.365 C 436.370 288.883, 376.001 294.849, 352.139 296.245 C 347.786 296.500, 347.775 296.510, 345.526 302.509 C 337.734 323.290, 319.765 342.603, 298.500 353.051 C 282.768 360.781, 275.625 362.343, 256 362.343 C 237.026 362.343, 230.005 360.910, 215.373 354.053 C 193.690 343.893, 175.605 325.103, 167.094 303.894 L 164.127 296.500 152.814 295.743 C 116.912 293.340, 70.616 288.253, 41.217 283.481 C 32.812 282.116, 25.269 281, 24.455 281 C 23.286 281, 23.104 281.891, 23.585 285.250" stroke="none" fill="#f5f7fa" fill-rule="evenodd"/><path d="M 223.564 1.625 C 189.375 6.003, 151.856 19.232, 122 37.434 C 90.271 56.778, 59.376 87.362, 38.593 120 C 25.175 141.071, 11.303 175.133, 5.605 201 C -1.983 235.443, -1.983 276.557, 5.605 311 C 11.274 336.734, 23.580 367.276, 37.434 390 C 56.786 421.739, 87.361 452.626, 120 473.408 C 132.904 481.624, 158.630 493.659, 174.500 498.904 C 202.799 508.257, 226.091 512, 256 512 C 297.697 512, 333.066 503.742, 369.961 485.392 C 396.453 472.216, 415.692 458.335, 437.014 437.014 C 458.817 415.211, 472.403 396.234, 486.065 368.500 C 498.566 343.124, 507.608 313.008, 510.283 287.838 C 510.916 281.877, 511.787 277, 512.217 277 C 512.648 277, 512.964 266.988, 512.921 254.750 C 512.878 242.512, 512.566 233.175, 512.229 234 C 511.891 234.825, 511.041 230.441, 510.338 224.258 C 506.535 190.766, 491.572 148.527, 473.407 120 C 457.835 95.545, 432.616 67.996, 411 51.828 C 373.922 24.095, 331.948 7.067, 287.030 1.536 C 271.561 -0.369, 238.774 -0.323, 223.564 1.625 M 236.500 21.617 C 204.926 24.913, 179.473 31.940, 153.500 44.530 C 96.604 72.110, 52.619 122.146, 33.096 181.500 C 28.797 194.570, 23 219.456, 23 224.839 C 23 226.265, 24.204 226.884, 28.487 227.660 L 33.974 228.655 34.560 225.077 C 39.196 196.788, 46.380 174.328, 57.552 153.194 C 91.594 88.801, 152.245 45.500, 223.104 35.002 C 238.450 32.729, 257.576 32.129, 260.699 33.823 C 267.595 37.564, 267.769 47.343, 261.010 51.335 C 259.125 52.449, 255.925 53.003, 251.346 53.008 C 234.862 53.028, 210.527 57.205, 192.600 63.091 C 149.539 77.229, 112.388 105.573, 86.550 144 C 78.432 156.074, 67.928 177.775, 63.230 192.179 C 58.375 207.064, 53.221 232, 54.999 232 C 55.358 232, 60.477 232.677, 66.375 233.505 C 83.478 235.906, 109.959 238.767, 130.500 240.432 C 140.950 241.280, 152.661 242.233, 156.525 242.551 L 163.551 243.129 164.826 238.314 C 168.198 225.578, 180.449 206.179, 191.265 196.449 C 203.093 185.808, 218.467 177.590, 233.623 173.807 C 246.155 170.679, 265.845 170.679, 278.377 173.807 C 299.692 179.128, 318.914 191.794, 331.971 209.122 C 338.440 217.707, 345.106 230.504, 347.170 238.299 L 348.441 243.099 356.471 242.481 C 400.168 239.117, 430.295 235.927, 459 231.622 C 487.732 227.314, 489 227.030, 489 224.904 C 489 219.463, 483.226 194.642, 478.904 181.500 C 451.584 98.443, 378.493 36.982, 291 23.496 C 280.919 21.942, 245.187 20.710, 236.500 21.617 M 237.230 194.015 C 233.231 195.063, 226.447 197.747, 222.155 199.980 C 197.632 212.739, 182.877 235.326, 181.304 262.518 C 180.510 276.244, 182.622 286.454, 188.961 299.533 C 199.538 321.357, 219.452 336.278, 243.627 340.494 C 254.409 342.374, 257.591 342.374, 268.373 340.494 C 296.997 335.503, 319.215 315.622, 328.157 287 C 331.516 276.248, 331.508 256.863, 328.141 246 C 320.109 220.087, 299.853 200.484, 274.377 193.968 C 264.092 191.338, 247.367 191.359, 237.230 194.015 M 242.568 215.532 C 203.175 226.342, 190.052 275.236, 218.854 303.889 C 229.606 314.585, 241.084 319.249, 256.567 319.216 C 276.888 319.172, 294.563 307.979, 303.492 289.500 C 317.934 259.614, 301.382 224.104, 268.992 215.485 C 262.247 213.690, 249.196 213.713, 242.568 215.532 M 0.428 256 C 0.428 268.375, 0.571 273.438, 0.747 267.250 C 0.922 261.063, 0.922 250.938, 0.747 244.750 C 0.571 238.563, 0.428 243.625, 0.428 256 M 247.929 235.308 C 241.846 237.027, 234.822 241.234, 231.558 245.114 C 226.398 251.245, 224.669 255.957, 224.203 265.153 C 223.815 272.809, 224.053 274.436, 226.267 279.273 C 229.666 286.696, 235.056 292.389, 241.839 295.720 C 246.689 298.102, 248.718 298.499, 256 298.490 C 262.540 298.483, 265.566 297.990, 269.122 296.353 C 275.838 293.262, 281.501 287.687, 284.964 280.757 C 290.497 269.683, 288.717 255.462, 280.549 245.494 C 273.506 236.900, 258.680 232.270, 247.929 235.308 M 21.196 252.594 L 21.500 258.444 34.500 260.662 C 50.803 263.443, 88.760 268.474, 108.500 270.470 C 124.733 272.112, 160.375 274.953, 160.700 274.631 C 160.810 274.522, 160.641 271.918, 160.323 268.845 L 159.747 263.256 149.123 262.573 C 130.680 261.388, 96.222 258.030, 76 255.447 C 53.967 252.632, 24.657 248.189, 22.395 247.321 C 21.144 246.841, 20.943 247.724, 21.196 252.594 M 476.500 249.579 C 450.093 254.243, 394.917 260.555, 362.750 262.592 L 352 263.273 352 266.011 C 352 267.518, 351.717 270.167, 351.370 271.899 L 350.740 275.048 356.120 274.531 C 359.079 274.247, 368.025 273.525, 376 272.926 C 406.922 270.607, 459.637 264.115, 483.500 259.689 L 490.500 258.390 490.800 252.695 C 490.965 249.563, 490.740 247.064, 490.300 247.142 C 489.860 247.220, 483.650 248.317, 476.500 249.579 M 22.004 280.427 C 22.014 282.976, 25.195 301.281, 27.144 310 C 30.440 324.747, 37.427 344.147, 44.971 359.500 C 84.590 440.126, 166.230 491, 256 491 C 320.412 491, 382.011 464.585, 426.357 417.945 C 459.818 382.754, 480.705 340.077, 488.486 291 C 489.314 285.775, 489.994 281.015, 489.996 280.422 C 489.999 279.665, 488.239 279.627, 484.095 280.294 L 478.190 281.245 477.551 285.873 C 472.051 325.706, 454.874 365.395, 429.673 396.500 C 421.830 406.180, 405.068 422.877, 395.500 430.539 C 355.642 462.460, 303.096 480.504, 254.173 479.068 C 252.893 479.031, 250.531 477.685, 248.923 476.077 C 244.957 472.111, 244.932 467.226, 248.856 462.835 L 251.712 459.639 265.106 458.849 C 281.480 457.883, 290.332 456.625, 304 453.320 C 372.267 436.816, 426.966 386.155, 449.027 319 C 452.873 307.291, 457.651 286.318, 456.691 285.357 C 456.400 285.066, 448.588 285.773, 439.331 286.927 C 406.092 291.072, 381.896 293.427, 360.248 294.623 C 353.290 295.008, 347.645 295.776, 347.184 296.400 C 346.737 297.005, 345.088 300.594, 343.520 304.376 C 336.679 320.870, 320.880 339.009, 305.193 348.380 C 296.154 353.779, 280.998 359.350, 271 360.947 C 241.725 365.622, 211.303 355.886, 189.926 335 C 180.362 325.656, 172.868 314.954, 168.480 304.376 C 166.912 300.594, 165.263 297.005, 164.816 296.400 C 164.356 295.777, 158.691 295, 151.752 294.608 C 121.150 292.879, 70.325 287.249, 38.750 282.091 C 27.863 280.312, 22.001 279.730, 22.004 280.427" stroke="none" fill="#000000" fill-rule="evenodd"/><path d="M 246.768 21.725 C 248.565 21.947, 251.265 21.943, 252.768 21.715 C 254.271 21.486, 252.800 21.304, 249.500 21.310 C 246.200 21.315, 244.971 21.502, 246.768 21.725 M 259.768 21.725 C 261.565 21.947, 264.265 21.943, 265.768 21.715 C 267.271 21.486, 265.800 21.304, 262.500 21.310 C 259.200 21.315, 257.971 21.502, 259.768 21.725 M 247.250 53.716 C 248.762 53.945, 251.238 53.945, 252.750 53.716 C 254.262 53.487, 253.025 53.300, 250 53.300 C 246.975 53.300, 245.738 53.487, 247.250 53.716 M 242 193.450 C 212.699 199.736, 190.060 221.483, 183.370 249.770 C 181.081 259.450, 181.314 275.529, 183.885 285.287 C 189.191 305.423, 203.924 323.855, 222.035 333.013 C 233.447 338.784, 241.233 340.500, 256 340.500 C 267.371 340.500, 270.677 340.130, 276.965 338.156 C 297.196 331.803, 312.514 319.116, 322.025 300.836 C 332.354 280.981, 333.096 256.616, 323.988 236.363 C 314.923 216.206, 295.829 200.031, 274.500 194.439 C 266.067 192.228, 249.978 191.738, 242 193.450 M 187.946 198.750 L 184.500 202.500 188.250 199.054 C 191.740 195.846, 192.460 195, 191.696 195 C 191.529 195, 189.842 196.688, 187.946 198.750 M 323 198.500 C 324.866 200.425, 326.617 202, 326.892 202 C 327.167 202, 325.866 200.425, 324 198.500 C 322.134 196.575, 320.383 195, 320.108 195 C 319.833 195, 321.134 196.575, 323 198.500 M 245 214.567 C 234.682 216.801, 226.410 221.423, 218.423 229.417 C 207.674 240.176, 203.034 251.352, 203.012 266.540 C 202.984 285.224, 211.478 301.002, 227.162 311.403 C 236.433 317.551, 242.888 319.324, 256 319.324 C 269.107 319.324, 275.567 317.550, 284.823 311.412 C 300.426 301.065, 309.016 285.116, 308.988 266.540 C 308.966 251.352, 304.326 240.176, 293.577 229.417 C 285.456 221.290, 277.268 216.782, 266.500 214.511 C 257.992 212.717, 253.489 212.728, 245 214.567 M 254.250 234.689 C 255.213 234.941, 256.788 234.941, 257.750 234.689 C 258.712 234.438, 257.925 234.232, 256 234.232 C 254.075 234.232, 253.287 234.438, 254.250 234.689 M 21.441 252.546 C 21.066 255.047, 20.940 257.273, 21.160 257.494 C 22.172 258.506, 61.039 264.547, 85 267.417 C 99.166 269.114, 135.623 272.525, 150.250 273.522 L 160 274.187 160 269.165 L 160 264.144 154.750 263.595 C 151.863 263.293, 143.200 262.559, 135.500 261.963 C 102.363 259.400, 58.625 254.209, 34.328 249.956 C 28.183 248.880, 22.923 248, 22.639 248 C 22.355 248, 21.816 250.046, 21.441 252.546 M 483 249.121 C 465.380 252.652, 413.801 258.972, 382 261.495 C 371.275 262.346, 360.137 263.290, 357.250 263.593 L 352 264.144 352 269.191 L 352 274.238 361.750 273.563 C 401.630 270.805, 452.309 264.839, 482.361 259.365 L 491.221 257.752 490.622 254.126 C 490.292 252.132, 490.017 249.938, 490.011 249.250 C 489.999 247.850, 489.396 247.839, 483 249.121 M 142.250 294.689 C 143.213 294.941, 144.787 294.941, 145.750 294.689 C 146.713 294.438, 145.925 294.232, 144 294.232 C 142.075 294.232, 141.287 294.438, 142.250 294.689 M 366.250 294.689 C 367.212 294.941, 368.788 294.941, 369.750 294.689 C 370.712 294.438, 369.925 294.232, 368 294.232 C 366.075 294.232, 365.288 294.438, 366.250 294.689 M 157.250 295.689 C 158.213 295.941, 159.787 295.941, 160.750 295.689 C 161.713 295.438, 160.925 295.232, 159 295.232 C 157.075 295.232, 156.287 295.438, 157.250 295.689 M 351.250 295.689 C 352.212 295.941, 353.788 295.941, 354.750 295.689 C 355.712 295.438, 354.925 295.232, 353 295.232 C 351.075 295.232, 350.288 295.438, 351.250 295.689 M 188 334.500 C 190.987 337.525, 193.657 340, 193.932 340 C 194.207 340, 191.987 337.525, 189 334.500 C 186.013 331.475, 183.343 329, 183.068 329 C 182.793 329, 185.013 331.475, 188 334.500 M 322.966 334.750 L 317.500 340.500 323.250 335.034 C 328.592 329.956, 329.458 329, 328.716 329 C 328.560 329, 325.972 331.587, 322.966 334.750 M 252.250 362.728 C 254.313 362.944, 257.688 362.944, 259.750 362.728 C 261.813 362.513, 260.125 362.336, 256 362.336 C 251.875 362.336, 250.188 362.513, 252.250 362.728 M 88.500 421 C 91.766 424.300, 94.662 427, 94.937 427 C 95.212 427, 92.766 424.300, 89.500 421 C 86.234 417.700, 83.338 415, 83.063 415 C 82.788 415, 85.234 417.700, 88.500 421 M 421.971 421.750 L 415.500 428.500 422.250 422.029 C 425.962 418.470, 429 415.432, 429 415.279 C 429 414.543, 427.982 415.480, 421.971 421.750 M 262.264 458.718 C 263.784 458.947, 266.034 458.941, 267.264 458.704 C 268.494 458.467, 267.250 458.279, 264.500 458.286 C 261.750 458.294, 260.744 458.488, 262.264 458.718 M 264.750 479.706 C 265.988 479.944, 268.012 479.944, 269.250 479.706 C 270.488 479.467, 269.475 479.272, 267 479.272 C 264.525 479.272, 263.512 479.467, 264.750 479.706 M 243.768 490.725 C 245.565 490.947, 248.265 490.943, 249.768 490.715 C 251.271 490.486, 249.800 490.304, 246.500 490.310 C 243.200 490.315, 241.971 490.502, 243.768 490.725 M 262.768 490.725 C 264.565 490.947, 267.265 490.943, 268.768 490.715 C 270.271 490.486, 268.800 490.304, 265.500 490.310 C 262.200 490.315, 260.971 490.502, 262.768 490.725" stroke="none" fill="#434a54" fill-rule="evenodd"/><path d="M 243 22.125 C 187.277 24.911, 135.036 47.484, 94.300 86.377 C 57.529 121.484, 33.712 165.895, 25.051 215.500 C 23.122 226.547, 23.051 226.361, 29.579 227.351 L 33.659 227.969 34.898 219.735 C 40.414 183.074, 58.872 142.523, 83.457 113.053 C 92.038 102.768, 110.747 84.818, 120.645 77.376 C 153.815 52.434, 193.075 37.053, 233.856 33.023 C 249.224 31.505, 259.120 31.695, 261.783 33.561 C 265.166 35.930, 267.274 40.727, 266.573 44.462 C 265.311 51.191, 259.424 53.919, 246 53.994 C 241.875 54.018, 233.863 54.696, 228.196 55.501 C 140.602 67.953, 71.471 134.773, 56.522 221.440 C 55.673 226.357, 55.322 230.692, 55.740 231.074 C 57.433 232.620, 121.895 239.626, 152.077 241.543 L 162.654 242.215 164.941 235.858 C 175.087 207.657, 196.785 185.748, 224 176.227 C 236.714 171.778, 244.636 170.685, 260.037 171.251 C 283.258 172.106, 301.169 179.087, 319.322 194.360 C 330.121 203.444, 341.503 220.364, 346.653 234.989 L 348.946 241.500 359.723 241.233 C 373.229 240.898, 408.428 237.683, 434 234.448 C 456.908 231.551, 484.820 227.221, 487.106 226.210 C 488.576 225.560, 488.563 224.651, 486.958 215.500 C 471.463 127.188, 407.076 55.617, 320.573 30.549 C 296.662 23.620, 270.317 20.759, 243 22.125 M 253.750 490.706 C 254.988 490.944, 257.012 490.944, 258.250 490.706 C 259.488 490.467, 258.475 490.272, 256 490.272 C 253.525 490.272, 252.512 490.467, 253.750 490.706" stroke="none" fill="#ed5564" fill-rule="evenodd"/><path d="M 248.718 236.033 C 235.040 239.465, 225.002 252.179, 225.001 266.072 C 225 269.686, 225.716 274.746, 226.592 277.316 C 228.651 283.358, 235.914 291.391, 242.392 294.791 C 246.768 297.088, 248.717 297.472, 256 297.472 C 263.283 297.472, 265.232 297.088, 269.608 294.791 C 272.417 293.317, 276.763 289.833, 279.266 287.050 C 296.324 268.077, 283.911 237.516, 258.343 235.536 C 255.129 235.287, 250.798 235.511, 248.718 236.033 M 23.585 285.250 C 31.479 340.342, 54.359 385.838, 93.137 423.550 C 137.613 466.804, 194.464 490, 256 490 C 317.673 490, 374.504 466.770, 419.022 423.365 C 456.053 387.259, 478.224 344.926, 486.987 293.593 C 488.105 287.044, 488.811 281.478, 488.556 281.223 C 488.301 280.968, 486.071 281.062, 483.599 281.433 C 479.134 282.102, 479.103 282.136, 478.449 286.803 C 470.764 341.710, 442.540 392.598, 400.006 428.239 C 361.757 460.290, 309.901 479.900, 263.184 479.980 C 256.961 479.991, 251.003 479.537, 249.945 478.970 C 245.460 476.570, 243.523 467.553, 246.561 463.217 C 249.297 459.311, 252.914 458.305, 266.500 457.672 C 316.562 455.338, 362.307 434.879, 398.593 398.593 C 426.931 370.255, 445.211 337.001, 453.467 298.767 C 454.860 292.314, 456 286.744, 456 286.389 C 456 286.035, 454.253 286.024, 452.118 286.365 C 436.370 288.883, 376.001 294.849, 352.139 296.245 C 347.786 296.500, 347.775 296.510, 345.526 302.509 C 337.734 323.290, 319.765 342.603, 298.500 353.051 C 282.768 360.781, 275.625 362.343, 256 362.343 C 237.026 362.343, 230.005 360.910, 215.373 354.053 C 193.690 343.893, 175.605 325.103, 167.094 303.894 L 164.127 296.500 152.814 295.743 C 116.912 293.340, 70.616 288.253, 41.217 283.481 C 32.812 282.116, 25.269 281, 24.455 281 C 23.286 281, 23.104 281.891, 23.585 285.250" stroke="none" fill="#f5f7fa" fill-rule="evenodd"/><path d="M 224.286 266.500 C 224.294 269.250, 224.488 270.256, 224.718 268.736 C 224.947 267.216, 224.941 264.966, 224.704 263.736 C 224.467 262.506, 224.279 263.750, 224.286 266.500 M 287.286 266.500 C 287.294 269.250, 287.488 270.256, 287.718 268.736 C 287.947 267.216, 287.941 264.966, 287.704 263.736 C 287.467 262.506, 287.279 263.750, 287.286 266.500 M 233.500 289 C 235.648 291.200, 237.631 293, 237.906 293 C 238.181 293, 236.648 291.200, 234.500 289 C 232.352 286.800, 230.369 285, 230.094 285 C 229.819 285, 231.352 286.800, 233.500 289 M 277.453 289.250 L 273.500 293.500 277.750 289.547 C 281.702 285.871, 282.460 285, 281.703 285 C 281.540 285, 279.627 286.913, 277.453 289.250 M 185 332.313 C 185 332.485, 186.463 333.948, 188.250 335.563 L 191.500 338.500 188.563 335.250 C 185.825 332.221, 185 331.540, 185 332.313 M 323.437 335.250 L 320.500 338.500 323.750 335.563 C 326.779 332.825, 327.460 332, 326.687 332 C 326.515 332, 325.052 333.462, 323.437 335.250 M 398 399.500 C 393.903 403.625, 390.775 407, 391.050 407 C 391.325 407, 394.903 403.625, 399 399.500 C 403.097 395.375, 406.225 392, 405.950 392 C 405.675 392, 402.097 395.375, 398 399.500 M 413.980 414.750 L 404.500 424.500 414.250 415.020 C 423.306 406.215, 424.455 405, 423.730 405 C 423.582 405, 419.194 409.387, 413.980 414.750 M 89.982 421.250 C 95.747 427.163, 100.585 432, 100.732 432 C 101.454 432, 100.235 430.718, 90.250 420.982 L 79.500 410.500 89.982 421.250 M 420.982 421.750 L 410.500 432.500 421.250 422.018 C 431.235 412.282, 432.454 411, 431.732 411 C 431.585 411, 426.747 415.837, 420.982 421.750" stroke="none" fill="#f3f3fb" fill-rule="evenodd"/><path d="M 246.250 32.716 C 247.762 32.945, 250.238 32.945, 251.750 32.716 C 253.262 32.487, 252.025 32.300, 249 32.300 C 245.975 32.300, 244.738 32.487, 246.250 32.716 M 94.453 85.250 L 90.500 89.500 94.750 85.547 C 98.702 81.871, 99.460 81, 98.703 81 C 98.540 81, 96.627 82.912, 94.453 85.250 M 416.500 85 C 418.648 87.200, 420.631 89, 420.906 89 C 421.181 89, 419.648 87.200, 417.500 85 C 415.352 82.800, 413.369 81, 413.094 81 C 412.819 81, 414.352 82.800, 416.500 85 M 102.946 92.750 L 99.500 96.500 103.250 93.054 C 105.313 91.158, 107 89.471, 107 89.304 C 107 88.540, 106.154 89.260, 102.946 92.750 M 84.453 95.250 L 80.500 99.500 84.750 95.547 C 88.702 91.871, 89.460 91, 88.703 91 C 88.540 91, 86.627 92.912, 84.453 95.250 M 427 95.500 C 428.866 97.425, 430.617 99, 430.892 99 C 431.167 99, 429.866 97.425, 428 95.500 C 426.134 93.575, 424.383 92, 424.108 92 C 423.833 92, 425.134 93.575, 427 95.500 M 91.437 104.250 L 88.500 107.500 91.750 104.563 C 93.537 102.948, 95 101.485, 95 101.313 C 95 100.540, 94.175 101.221, 91.437 104.250 M 111.469 113.250 L 105.500 119.500 111.750 113.531 C 115.188 110.249, 118 107.436, 118 107.281 C 118 106.542, 117.013 107.444, 111.469 113.250 M 202.462 214.250 L 197.500 219.500 202.750 214.538 C 207.628 209.926, 208.459 209, 207.712 209 C 207.554 209, 205.192 211.363, 202.462 214.250 M 308.500 214 C 311.209 216.750, 313.650 219, 313.925 219 C 314.200 219, 312.209 216.750, 309.500 214 C 306.791 211.250, 304.350 209, 304.075 209 C 303.800 209, 305.791 211.250, 308.500 214 M 253.250 213.716 C 254.762 213.945, 257.238 213.945, 258.750 213.716 C 260.262 213.487, 259.025 213.300, 256 213.300 C 252.975 213.300, 251.738 213.487, 253.250 213.716 M 232.437 244.250 L 229.500 247.500 232.750 244.563 C 235.779 241.825, 236.460 241, 235.687 241 C 235.515 241, 234.052 242.463, 232.437 244.250 M 21 249.500 C 21 250.875, 21.173 252, 21.383 252 C 21.594 252, 21.982 250.875, 22.245 249.500 C 22.508 248.125, 22.335 247, 21.861 247 C 21.388 247, 21 248.125, 21 249.500 M 489.787 250 C 490.029 251.650, 490.401 253, 490.613 253 C 490.826 253, 491 251.650, 491 250 C 491 248.350, 490.628 247, 490.173 247 C 489.718 247, 489.545 248.350, 489.787 250 M 181.232 261 C 181.232 262.925, 181.438 263.712, 181.689 262.750 C 181.941 261.788, 181.941 260.212, 181.689 259.250 C 181.438 258.288, 181.232 259.075, 181.232 261 M 330.232 261 C 330.232 262.925, 330.438 263.712, 330.689 262.750 C 330.941 261.788, 330.941 260.212, 330.689 259.250 C 330.438 258.288, 330.232 259.075, 330.232 261 M 119.250 260.689 C 120.213 260.941, 121.787 260.941, 122.750 260.689 C 123.713 260.438, 122.925 260.232, 121 260.232 C 119.075 260.232, 118.287 260.438, 119.250 260.689 M 390.250 260.689 C 391.212 260.941, 392.788 260.941, 393.750 260.689 C 394.712 260.438, 393.925 260.232, 392 260.232 C 390.075 260.232, 389.288 260.438, 390.250 260.689 M 142.762 262.707 C 144.006 262.946, 145.806 262.937, 146.762 262.687 C 147.718 262.437, 146.700 262.241, 144.500 262.252 C 142.300 262.263, 141.518 262.468, 142.762 262.707 M 365.762 262.707 C 367.006 262.946, 368.806 262.937, 369.762 262.687 C 370.718 262.437, 369.700 262.241, 367.500 262.252 C 365.300 262.263, 364.518 262.468, 365.762 262.707 M 330.252 272.500 C 330.263 274.700, 330.468 275.482, 330.707 274.238 C 330.946 272.994, 330.937 271.194, 330.687 270.238 C 330.437 269.282, 330.241 270.300, 330.252 272.500 M 181.232 273 C 181.232 274.925, 181.438 275.712, 181.689 274.750 C 181.941 273.788, 181.941 272.212, 181.689 271.250 C 181.438 270.288, 181.232 271.075, 181.232 273 M 120.250 271.689 C 121.213 271.941, 122.787 271.941, 123.750 271.689 C 124.713 271.438, 123.925 271.232, 122 271.232 C 120.075 271.232, 119.287 271.438, 120.250 271.689 M 160 272.427 C 160 273.211, 159.213 274.059, 158.250 274.311 C 156.933 274.655, 157.057 274.797, 158.750 274.884 C 160.372 274.968, 161 274.442, 161 273 C 161 271.900, 160.775 271, 160.500 271 C 160.225 271, 160 271.642, 160 272.427 M 351.116 272.750 C 351.027 274.482, 351.518 274.973, 353.250 274.884 C 354.844 274.802, 355.008 274.638, 353.811 274.323 C 352.883 274.077, 351.923 273.117, 351.677 272.189 C 351.362 270.992, 351.198 271.156, 351.116 272.750 M 389.250 271.689 C 390.212 271.941, 391.788 271.941, 392.750 271.689 C 393.712 271.438, 392.925 271.232, 391 271.232 C 389.075 271.232, 388.288 271.438, 389.250 271.689 M 131.250 272.689 C 132.213 272.941, 133.787 272.941, 134.750 272.689 C 135.713 272.438, 134.925 272.232, 133 272.232 C 131.075 272.232, 130.287 272.438, 131.250 272.689 M 377.250 272.689 C 378.212 272.941, 379.788 272.941, 380.750 272.689 C 381.712 272.438, 380.925 272.232, 379 272.232 C 377.075 272.232, 376.288 272.438, 377.250 272.689 M 144.750 273.706 C 145.988 273.944, 148.012 273.944, 149.250 273.706 C 150.488 273.467, 149.475 273.272, 147 273.272 C 144.525 273.272, 143.512 273.467, 144.750 273.706 M 363.750 273.706 C 364.988 273.944, 367.012 273.944, 368.250 273.706 C 369.488 273.467, 368.475 273.272, 366 273.272 C 363.525 273.272, 362.512 273.467, 363.750 273.706 M 252.750 341.723 C 254.537 341.945, 257.462 341.945, 259.250 341.723 C 261.038 341.502, 259.575 341.320, 256 341.320 C 252.425 341.320, 250.963 341.502, 252.750 341.723 M 402.946 395.750 L 399.500 399.500 403.250 396.054 C 406.740 392.846, 407.460 392, 406.696 392 C 406.529 392, 404.842 393.688, 402.946 395.750 M 394.946 403.750 L 391.500 407.500 395.250 404.054 C 397.313 402.158, 399 400.471, 399 400.304 C 399 399.540, 398.154 400.260, 394.946 403.750 M 417.946 409.750 L 414.500 413.500 418.250 410.054 C 420.313 408.158, 422 406.471, 422 406.304 C 422 405.540, 421.154 406.260, 417.946 409.750 M 409.453 418.250 L 405.500 422.500 409.750 418.547 C 413.702 414.871, 414.460 414, 413.703 414 C 413.540 414, 411.627 415.913, 409.453 418.250 M 258.250 479.689 C 259.212 479.941, 260.788 479.941, 261.750 479.689 C 262.712 479.438, 261.925 479.232, 260 479.232 C 258.075 479.232, 257.288 479.438, 258.250 479.689" stroke="none" fill="#0d0e0f" fill-rule="evenodd"/></svg>