<?xml version="1.0" encoding="UTF-8"?>
<!DOCTYPE svg PUBLIC "-//W3C//DTD SVG 1.1//EN" "http://www.w3.org/Graphics/SVG/1.1/DTD/svg11.dtd">
<svg xmlns="http://www.w3.org/2000/svg" version="1.1" width="512px" height="512px" style="shape-rendering:geometricPrecision; text-rendering:geometricPrecision; image-rendering:optimizeQuality; fill-rule:evenodd; clip-rule:evenodd" xmlns:xlink="http://www.w3.org/1999/xlink">
<g><path style="opacity:0.943" fill="#fdfcfc" d="M 109.5,31.5 C 116.391,30.9013 123.058,31.7346 129.5,34C 138.87,43.7016 147.87,53.7016 156.5,64C 165.889,63.1927 174.556,65.1927 182.5,70C 192.429,79.2572 201.595,89.0906 210,99.5C 214.025,107.445 215.359,115.778 214,124.5C 218.8,130.302 223.967,135.802 229.5,141C 235.809,142.883 242.142,142.883 248.5,141C 264.872,134.987 281.539,129.987 298.5,126C 315.623,122.486 330.456,126.652 343,138.5C 354.427,151.256 365.093,164.589 375,178.5C 395.06,208.23 414.727,238.23 434,268.5C 444.267,284.033 455.267,299.033 467,313.5C 475.479,329.246 477.812,345.913 474,363.5C 467.538,387.764 455.871,409.097 439,427.5C 417.018,452.074 390.184,468.907 358.5,478C 343.545,480.749 328.879,479.749 314.5,475C 268.167,440.667 221.833,406.333 175.5,372C 160.256,359.632 145.756,346.465 132,332.5C 125.17,322.532 122.504,311.532 124,299.5C 124.857,293.07 126.191,286.737 128,280.5C 132.333,268.167 136.667,255.833 141,243.5C 143.29,237.299 142.957,231.299 140,225.5C 134.949,219.946 129.449,214.946 123.5,210.5C 114.418,212.183 106.085,210.35 98.5,205C 90.6126,197.113 82.7792,189.279 75,181.5C 68.2654,172.321 65.5987,161.988 67,150.5C 57.7026,142.871 48.7026,134.871 40,126.5C 34.3496,116.11 34.0162,105.444 39,94.5C 46.7733,80.1359 56.6066,67.3025 68.5,56C 73.5434,51.2879 78.8767,46.9546 84.5,43C 92.4253,38.0336 100.759,34.2003 109.5,31.5 Z"/></g>
<g><path style="opacity:1" fill="#6c1e30" d="M 111.5,42.5 C 116.08,42.1134 120.414,42.9468 124.5,45C 133.876,55.3735 142.876,66.0402 151.5,77C 155.621,76.6474 159.788,76.1474 164,75.5C 167.817,75.6558 171.317,76.8224 174.5,79C 182,86.5 189.5,94 197,101.5C 198.935,104.371 200.601,107.371 202,110.5C 202.33,116.521 202.33,122.521 202,128.5C 208.857,136.356 216.024,143.856 223.5,151C 229.114,154.209 235.114,155.209 241.5,154C 245.186,153.441 248.853,152.774 252.5,152C 267.033,146.934 281.699,142.267 296.5,138C 310.444,133.86 322.777,136.527 333.5,146C 342.376,155.874 350.876,166.041 359,176.5C 383.726,212.895 408.059,249.562 432,286.5C 439.284,296.785 446.95,306.785 455,316.5C 459.042,322.252 461.709,328.585 463,335.5C 465.042,354.666 461.375,372.666 452,389.5C 430.122,426.38 398.955,451.88 358.5,466C 344.886,469.979 331.553,469.312 318.5,464C 274.398,429.897 229.731,396.563 184.5,364C 168.418,351.92 153.585,338.42 140,323.5C 135.75,314.977 134.416,305.977 136,296.5C 141.262,278.715 146.928,261.048 153,243.5C 156.352,232.945 154.352,223.611 147,215.5C 141.469,209.634 135.635,204.134 129.5,199C 125.498,198.641 121.498,198.808 117.5,199.5C 113.933,199.589 110.6,198.755 107.5,197C 99.0541,188.554 90.5541,180.054 82,171.5C 79.8002,167.607 78.6336,163.44 78.5,159C 78.9437,154.759 79.4437,150.593 80,146.5C 69.368,137.537 59.0346,128.203 49,118.5C 47.2993,116.1 46.466,113.433 46.5,110.5C 47.1338,105.563 48.6338,100.896 51,96.5C 65.4454,71.877 85.6121,53.877 111.5,42.5 Z"/></g>
<g><path style="opacity:1" fill="#a25f3e" d="M 120.5,48.5 C 120.363,55.7867 118.196,62.4534 114,68.5C 103.833,82.6667 91.6667,94.8333 77.5,105C 72.9454,107.628 68.1121,109.462 63,110.5C 57.6832,110.348 54.8499,107.681 54.5,102.5C 64.7307,82.43 79.3974,66.2633 98.5,54C 105.279,49.3402 112.612,47.5069 120.5,48.5 Z"/></g>
<g><path style="opacity:1" fill="#823a1e" d="M 120.5,48.5 C 122.68,50.0313 123.68,52.1979 123.5,55C 122.662,60.5128 120.829,65.6795 118,70.5C 105.793,87.0409 91.2928,101.208 74.5,113C 67.9522,117.394 60.9522,118.727 53.5,117C 50.7763,111.916 51.1096,107.083 54.5,102.5C 54.8499,107.681 57.6832,110.348 63,110.5C 68.1121,109.462 72.9454,107.628 77.5,105C 91.6667,94.8333 103.833,82.6667 114,68.5C 118.196,62.4534 120.363,55.7867 120.5,48.5 Z"/></g>
<g><path style="opacity:1" fill="#f39759" d="M 103.5,56.5 C 105.167,56.5 106.833,56.5 108.5,56.5C 107.185,63.4624 104.018,69.4624 99,74.5C 92.8025,81.0321 86.3025,87.1987 79.5,93C 75.1122,96.862 70.1122,99.6954 64.5,101.5C 63.5581,101.392 62.7247,101.059 62,100.5C 61.3333,98.8333 61.3333,97.1667 62,95.5C 72.5025,78.827 86.3359,65.827 103.5,56.5 Z"/></g>
<g><path style="opacity:1" fill="#da9e6d" d="M 150.5,84.5 C 153.693,95.4261 152.193,105.759 146,115.5C 136.638,131.532 123.138,142.365 105.5,148C 100.915,149.225 96.248,149.725 91.5,149.5C 81.2242,141.229 71.2242,132.563 61.5,123.5C 69.2235,120.805 76.5568,117.305 83.5,113C 101.276,99.8971 115.443,83.7304 126,64.5C 126.92,61.8987 127.587,59.2321 128,56.5C 136.093,65.4189 143.593,74.7522 150.5,84.5 Z"/></g>
<g><path style="opacity:1" fill="#f8c59f" d="M 129.5,77.5 C 138.376,83.624 141.209,91.9573 138,102.5C 130.215,116.286 119.215,126.619 105,133.5C 97.2755,135.497 90.1088,134.331 83.5,130C 81.1145,127.293 80.9478,124.46 83,121.5C 96.1683,113.007 108.168,103.007 119,91.5C 122.289,86.548 125.789,81.8813 129.5,77.5 Z"/></g>
<g><path style="opacity:1" fill="#a25f3e" d="M 176.5,100.5 C 176.66,98.8008 176.494,97.1341 176,95.5C 170.745,114.755 160.578,130.922 145.5,144C 136.045,152.562 125.712,159.895 114.5,166C 107.554,169.571 100.221,170.904 92.5,170C 89.0629,168.895 86.5629,166.728 85,163.5C 84.6012,163.728 84.4346,164.062 84.5,164.5C 83.2037,160.631 83.2037,156.631 84.5,152.5C 84.8333,152.167 85.1667,151.833 85.5,151.5C 87.1856,152.857 88.8523,154.19 90.5,155.5C 92.9081,162.705 97.9081,165.205 105.5,163C 126.319,154.33 143.819,141.164 158,123.5C 164.824,115.364 167.824,106.03 167,95.5C 166.252,93.249 164.752,91.9156 162.5,91.5C 160.384,88.2111 158.051,85.0444 155.5,82C 171.244,78.5868 178.244,84.7535 176.5,100.5 Z"/></g>
<g><path style="opacity:1" fill="#c78350" d="M 150.5,84.5 C 155.424,88.427 158.758,93.427 160.5,99.5C 157.841,109.152 153.341,117.818 147,125.5C 136.552,137.291 124.385,146.791 110.5,154C 106.259,155.457 101.926,155.791 97.5,155C 95.0038,153.669 93.0038,151.836 91.5,149.5C 96.248,149.725 100.915,149.225 105.5,148C 123.138,142.365 136.638,131.532 146,115.5C 152.193,105.759 153.693,95.4261 150.5,84.5 Z"/></g>
<g><path style="opacity:1" fill="#833b20" d="M 162.5,91.5 C 164.752,91.9156 166.252,93.249 167,95.5C 167.824,106.03 164.824,115.364 158,123.5C 143.819,141.164 126.319,154.33 105.5,163C 97.9081,165.205 92.9081,162.705 90.5,155.5C 96.0072,160.651 102.34,161.818 109.5,159C 129.957,149.55 146.457,135.384 159,116.5C 164.241,108.593 165.408,100.26 162.5,91.5 Z"/></g>
<g><path style="opacity:1" fill="#f1bd97" d="M 184.5,96.5 C 184.141,103.557 182.308,110.224 179,116.5C 166.931,139.403 149.431,156.737 126.5,168.5C 148.759,153.074 166.259,133.408 179,109.5C 180.313,105.58 181.313,101.58 182,97.5C 182.671,96.7476 183.504,96.4142 184.5,96.5 Z"/></g>
<g><path style="opacity:1" fill="#da9e6d" d="M 184.5,96.5 C 188.167,99.5 191.5,102.833 194.5,106.5C 194.243,117.103 191.077,126.77 185,135.5C 171.604,154.567 154.771,169.733 134.5,181C 123.435,185.906 112.102,186.74 100.5,183.5C 99.5244,182.185 98.5244,180.852 97.5,179.5C 107.679,177.218 117.346,173.551 126.5,168.5C 149.431,156.737 166.931,139.403 179,116.5C 182.308,110.224 184.141,103.557 184.5,96.5 Z"/></g>
<g><path style="opacity:1" fill="#c78350" d="M 194.5,106.5 C 196.689,109.212 198.022,112.378 198.5,116C 197.115,125.155 193.948,133.655 189,141.5C 175.426,160.073 158.926,175.573 139.5,188C 129.743,194.67 119.409,196.003 108.5,192C 105.629,189.297 102.962,186.464 100.5,183.5C 112.102,186.74 123.435,185.906 134.5,181C 154.771,169.733 171.604,154.567 185,135.5C 191.077,126.77 194.243,117.103 194.5,106.5 Z"/></g>
<g><path style="opacity:1" fill="#9182eb" d="M 329.5,149.5 C 320.331,146.922 310.997,146.089 301.5,147C 283.715,152.262 266.048,157.928 248.5,164C 236.778,164.905 225.111,166.238 213.5,168C 209.221,169.473 205.221,171.473 201.5,174C 195.833,179 190.167,184 184.5,189C 176.202,194.044 167.202,196.544 157.5,196.5C 180.877,189.788 194.877,174.454 199.5,150.5C 198.735,146.275 197.735,142.108 196.5,138C 196.658,135.851 197.492,134.017 199,132.5C 205.468,139.97 212.302,147.136 219.5,154C 221.956,155.711 224.623,157.044 227.5,158C 235.548,158.775 243.548,158.442 251.5,157C 267.992,151.391 284.659,146.391 301.5,142C 309.529,140.644 317.195,141.644 324.5,145C 326.618,146.049 328.284,147.549 329.5,149.5 Z"/></g>
<g><path style="opacity:1" fill="#a25f3e" d="M 192.5,160.5 C 182.415,171.945 171.748,181.945 160.5,190.5C 157.038,191.482 153.371,191.815 149.5,191.5C 161.95,183.567 173.117,173.9 183,162.5C 186.623,157.588 189.456,152.255 191.5,146.5C 192.008,144.767 192.841,144.434 194,145.5C 194.901,150.775 194.401,155.775 192.5,160.5 Z"/></g>
<g><path style="opacity:1" fill="#7660d1" d="M 329.5,149.5 C 342.939,163.442 355.106,178.442 366,194.5C 387.667,227.5 409.333,260.5 431,293.5C 438.091,303.346 445.424,313.013 453,322.5C 454.454,325.071 455.62,327.738 456.5,330.5C 458.428,355.554 451.928,378.22 437,398.5C 418.298,421.87 395.464,440.037 368.5,453C 355.807,457.139 342.807,458.472 329.5,457C 324.108,455.47 319.108,453.137 314.5,450C 267.27,416.215 220.937,381.215 175.5,345C 166.644,337.142 158.144,328.976 150,320.5C 146.01,314.85 142.843,308.85 140.5,302.5C 140.751,297.412 141.584,292.412 143,287.5C 148.263,274.046 152.929,260.379 157,246.5C 158.414,239.215 158.747,231.882 158,224.5C 157.194,221.554 155.861,218.888 154,216.5C 147.167,209.667 140.333,202.833 133.5,196C 137.795,192.816 142.129,192.816 146.5,196C 150.152,196.499 153.818,196.665 157.5,196.5C 167.202,196.544 176.202,194.044 184.5,189C 190.167,184 195.833,179 201.5,174C 205.221,171.473 209.221,169.473 213.5,168C 225.111,166.238 236.778,164.905 248.5,164C 266.048,157.928 283.715,152.262 301.5,147C 310.997,146.089 320.331,146.922 329.5,149.5 Z"/></g>
<g><path style="opacity:1" fill="#823a1e" d="M 191.5,146.5 C 189.456,152.255 186.623,157.588 183,162.5C 173.117,173.9 161.95,183.567 149.5,191.5C 148.244,191.539 147.244,191.039 146.5,190C 163.655,177.677 178.655,163.177 191.5,146.5 Z"/></g>
<g><path style="opacity:1" fill="#5a49b6" d="M 441.5,337.5 C 439.811,329.621 436.644,322.288 432,315.5C 423.758,305.347 415.758,295.014 408,284.5C 381.246,245.991 354.246,207.658 327,169.5C 324.635,166.131 321.468,163.964 317.5,163C 311.098,162.182 304.765,162.516 298.5,164C 278.617,171.604 260.617,182.27 244.5,196C 217.744,217.748 194.911,242.915 176,271.5C 170.922,279.657 166.922,288.324 164,297.5C 162.905,302.78 162.405,308.113 162.5,313.5C 161.778,313.082 161.278,312.416 161,311.5C 159.726,302.862 160.726,294.528 164,286.5C 188.624,238.871 223.457,200.371 268.5,171C 278.695,164.401 289.695,159.735 301.5,157C 307.167,156.333 312.833,156.333 318.5,157C 326.156,160.317 332.323,165.484 337,172.5C 366.508,215.517 396.508,258.184 427,300.5C 431.523,307.545 435.523,314.878 439,322.5C 441.033,327.295 441.866,332.295 441.5,337.5 Z"/></g>
<g><path style="opacity:1" fill="#e78e55" d="M 176.5,100.5 C 174.045,111.078 169.211,120.411 162,128.5C 148.916,144.927 133.416,158.427 115.5,169C 109.738,171.44 103.738,172.94 97.5,173.5C 90.8501,173.686 86.5168,170.686 84.5,164.5C 84.4346,164.062 84.6012,163.728 85,163.5C 86.5629,166.728 89.0629,168.895 92.5,170C 100.221,170.904 107.554,169.571 114.5,166C 125.712,159.895 136.045,152.562 145.5,144C 160.578,130.922 170.745,114.755 176,95.5C 176.494,97.1341 176.66,98.8008 176.5,100.5 Z"/></g>
<g><path style="opacity:1" fill="#6b1a2e" d="M 441.5,337.5 C 442.566,353.57 439.066,368.57 431,382.5C 414.473,410.701 390.973,430.535 360.5,442C 343.312,447.781 326.978,446.115 311.5,437C 299.5,427 287.5,417 275.5,407C 239.291,380.059 203.624,352.392 168.5,324C 165.554,320.931 163.554,317.431 162.5,313.5C 162.405,308.113 162.905,302.78 164,297.5C 166.922,288.324 170.922,279.657 176,271.5C 194.911,242.915 217.744,217.748 244.5,196C 260.617,182.27 278.617,171.604 298.5,164C 304.765,162.516 311.098,162.182 317.5,163C 321.468,163.964 324.635,166.131 327,169.5C 354.246,207.658 381.246,245.991 408,284.5C 415.758,295.014 423.758,305.347 432,315.5C 436.644,322.288 439.811,329.621 441.5,337.5 Z"/></g>
<g><path style="opacity:1" fill="#eb9156" d="M 192.5,160.5 C 186.018,174.983 175.351,184.983 160.5,190.5C 171.748,181.945 182.415,171.945 192.5,160.5 Z"/></g>
<g><path style="opacity:1" fill="#fd1350" d="M 318.5,168.5 C 321.678,182.954 318.344,195.788 308.5,207C 305.446,209.194 302.112,210.861 298.5,212C 265.308,207.353 239.474,218.853 221,246.5C 212.076,263.36 208.076,281.36 209,300.5C 203.597,310.876 194.93,315.876 183,315.5C 176.768,316.13 171.602,314.13 167.5,309.5C 168.503,295.661 173.003,282.995 181,271.5C 206.632,234.201 238.465,203.368 276.5,179C 286.678,172.574 297.678,168.408 309.5,166.5C 312.607,166.76 315.607,167.426 318.5,168.5 Z"/></g>
<g><path style="opacity:1" fill="#cd074d" d="M 318.5,168.5 C 321.26,170.095 323.093,172.428 324,175.5C 324.667,180.167 324.667,184.833 324,189.5C 319.712,202.912 313.212,215.079 304.5,226C 269.182,211.996 242.015,221.496 223,254.5C 215.533,270.938 215.7,287.272 223.5,303.5C 211.635,314.014 197.802,320.347 182,322.5C 172.774,322.835 167.94,318.501 167.5,309.5C 171.602,314.13 176.768,316.13 183,315.5C 194.93,315.876 203.597,310.876 209,300.5C 208.076,281.36 212.076,263.36 221,246.5C 239.474,218.853 265.308,207.353 298.5,212C 302.112,210.861 305.446,209.194 308.5,207C 318.344,195.788 321.678,182.954 318.5,168.5 Z"/></g>
<g><path style="opacity:1" fill="#ff5a8c" d="M 298.5,174.5 C 307.094,172.597 310.428,175.764 308.5,184C 306.774,190.464 302.774,194.797 296.5,197C 249.88,201.637 218.38,225.804 202,269.5C 200.203,276.409 198.87,283.409 198,290.5C 195.796,301.507 189.296,305.841 178.5,303.5C 176.987,301.465 176.321,299.131 176.5,296.5C 176.747,291.925 177.914,287.592 180,283.5C 188.112,266.934 198.445,251.934 211,238.5C 230.207,218.007 251.707,200.507 275.5,186C 282.98,181.593 290.646,177.76 298.5,174.5 Z"/></g>
<g><path style="opacity:1" fill="#fe5570" d="M 430.5,322.5 C 432.214,373.625 409.214,408.458 361.5,427C 344.294,433.919 327.627,432.919 311.5,424C 283.5,403 255.5,382 227.5,361C 220.783,355.98 213.783,351.48 206.5,347.5C 198.197,341.009 189.863,334.509 181.5,328C 197.939,324.779 212.939,318.279 226.5,308.5C 230.741,314.619 236.408,318.786 243.5,321C 254.576,320.711 265.576,320.044 276.5,319C 285.629,322.983 294.795,326.816 304,330.5C 310.896,329.469 316.729,326.469 321.5,321.5C 327.124,317.261 330.458,311.594 331.5,304.5C 328.618,295.735 325.452,287.069 322,278.5C 321.333,273.833 321.333,269.167 322,264.5C 325.307,256.663 325.974,248.663 324,240.5C 320.962,236.793 318.795,232.626 317.5,228C 320.329,220.18 323.163,212.347 326,204.5C 326.953,201.568 327.453,198.568 327.5,195.5C 328.329,190.846 329.163,186.18 330,181.5C 363.028,228.91 396.528,275.91 430.5,322.5 Z"/></g>
<g><path style="opacity:1" fill="#fc917d" d="M 327.5,195.5 C 327.453,198.568 326.953,201.568 326,204.5C 323.163,212.347 320.329,220.18 317.5,228C 318.795,232.626 320.962,236.793 324,240.5C 325.974,248.663 325.307,256.663 322,264.5C 321.333,269.167 321.333,273.833 322,278.5C 325.452,287.069 328.618,295.735 331.5,304.5C 330.458,311.594 327.124,317.261 321.5,321.5C 322.391,319.391 323.558,317.391 325,315.5C 327.815,310.317 328.148,304.984 326,299.5C 322.446,293.06 319.446,286.393 317,279.5C 318.157,268.53 319.157,257.53 320,246.5C 317.685,239.381 313.519,233.548 307.5,229C 315.856,218.78 322.522,207.613 327.5,195.5 Z"/></g>
<g><path style="opacity:1" fill="#edece8" d="M 270.5,223.5 C 288.955,221.983 303.455,228.65 314,243.5C 316.341,252.067 315.674,260.4 312,268.5C 311.333,271.833 311.333,275.167 312,278.5C 315.259,288.001 318.759,297.335 322.5,306.5C 320.098,318.748 312.765,324.915 300.5,325C 292.998,320.249 284.998,316.582 276.5,314C 265.527,314.823 254.527,315.49 243.5,316C 231.02,309.23 223.854,298.73 222,284.5C 221.432,259.385 232.266,240.885 254.5,229C 259.846,226.83 265.179,224.997 270.5,223.5 Z"/></g>
<g><path style="opacity:1" fill="#712334" d="M 300.5,246.5 C 306.897,258.48 303.897,267.647 291.5,274C 277.346,276.016 270.013,269.85 269.5,255.5C 276.02,239.408 286.354,236.408 300.5,246.5 Z"/></g>
<g><path style="opacity:1" fill="#cb084c" d="M 297.5,247.5 C 283.267,245.067 275.933,251.067 275.5,265.5C 270.031,253.119 274.198,245.453 288,242.5C 291.722,243.276 294.889,244.943 297.5,247.5 Z"/></g>
<g><path style="opacity:1" fill="#f81450" d="M 297.5,247.5 C 303.471,255.538 302.471,262.704 294.5,269C 286.783,274.289 280.45,273.122 275.5,265.5C 275.933,251.067 283.267,245.067 297.5,247.5 Z"/></g>
<g><path style="opacity:1" fill="#d1ccc5" d="M 300.5,246.5 C 286.354,236.408 276.02,239.408 269.5,255.5C 271.665,242.518 279.332,237.018 292.5,239C 296.313,240.385 298.979,242.885 300.5,246.5 Z"/></g>
<g><path style="opacity:1" fill="#ff5a8c" d="M 287.5,251.5 C 296.93,250.095 299.763,253.762 296,262.5C 293.179,266.663 289.345,268.163 284.5,267C 280.151,260.936 281.151,255.77 287.5,251.5 Z"/></g>
<g><path style="opacity:1" fill="#6e1e30" d="M 418.5,340.5 C 416.57,346.258 412.57,349.758 406.5,351C 396.168,350.959 385.835,350.959 375.5,351C 367.137,352.142 358.97,353.975 351,356.5C 346.165,373.485 344.165,390.818 345,408.5C 344.586,412.654 343.086,416.321 340.5,419.5C 337.157,421.668 333.491,422.501 329.5,422C 326.779,419.279 324.113,416.613 321.5,414C 317.128,415.809 312.461,416.475 307.5,416C 302.08,410.748 300.58,404.581 303,397.5C 306.27,391.236 309.936,385.236 314,379.5C 316.34,373.981 318.173,368.314 319.5,362.5C 312.364,363.356 305.364,364.856 298.5,367C 292.5,370.333 286.5,373.667 280.5,377C 267.42,379.264 263.086,374.264 267.5,362C 266.056,359.551 264.222,357.385 262,355.5C 260.05,348.569 262.55,343.736 269.5,341C 278.492,341.207 287.492,341.207 296.5,341C 307.562,338.318 318.562,335.485 329.5,332.5C 332.558,320.823 335.725,309.156 339,297.5C 339.055,289.831 339.055,282.164 339,274.5C 343.799,264.174 349.966,263.008 357.5,271C 361.826,270.907 366.159,270.907 370.5,271C 372.552,271.93 374.052,273.43 375,275.5C 376.267,283.699 373.934,290.699 368,296.5C 362.97,305.297 360.47,314.63 360.5,324.5C 372.719,321.223 384.052,316.057 394.5,309C 401.948,307.046 408.115,308.879 413,314.5C 412.079,319.394 411.412,324.394 411,329.5C 415.774,331.749 418.274,335.416 418.5,340.5 Z"/></g>
<g><path style="opacity:1" fill="#712032" d="M 266.5,272.5 C 276.029,282.269 275.696,291.769 265.5,301C 256.794,306.454 249.128,305.287 242.5,297.5C 236.489,282.855 241.156,273.521 256.5,269.5C 259.976,270.104 263.309,271.104 266.5,272.5 Z"/></g>
<g><path style="opacity:1" fill="#efeee9" d="M 369.5,276.5 C 369.085,281.991 366.585,286.325 362,289.5C 353.937,300.856 349.77,313.523 349.5,327.5C 344.894,328.444 340.394,329.777 336,331.5C 335.5,331.167 335,330.833 334.5,330.5C 337.969,319.593 341.135,308.593 344,297.5C 343.716,290.181 343.716,282.847 344,275.5C 344.737,272.595 346.571,270.928 349.5,270.5C 352.137,271.933 354.47,273.766 356.5,276C 361.021,276.03 365.355,276.197 369.5,276.5 Z"/></g>
<g><path style="opacity:1" fill="#d1cdc5" d="M 266.5,272.5 C 263.309,271.104 259.976,270.104 256.5,269.5C 241.156,273.521 236.489,282.855 242.5,297.5C 239.33,294.839 237.996,291.339 238.5,287C 240.809,270.522 249.809,265.022 265.5,270.5C 266.298,270.957 266.631,271.624 266.5,272.5 Z"/></g>
<g><path style="opacity:1" fill="#cd074c" d="M 267.5,277.5 C 253.921,275.072 246.254,280.738 244.5,294.5C 240.2,284.907 242.867,277.74 252.5,273C 258.568,271.377 263.568,272.877 267.5,277.5 Z"/></g>
<g><path style="opacity:1" fill="#fb1350" d="M 267.5,277.5 C 273.108,288.471 270.108,296.305 258.5,301C 252.498,301.856 247.831,299.689 244.5,294.5C 246.254,280.738 253.921,275.072 267.5,277.5 Z"/></g>
<g><path style="opacity:1" fill="#d2d0c7" d="M 369.5,276.5 C 370.638,279.304 370.805,282.304 370,285.5C 360.841,297.623 355.175,311.29 353,326.5C 351.989,327.337 350.822,327.67 349.5,327.5C 349.77,313.523 353.937,300.856 362,289.5C 366.585,286.325 369.085,281.991 369.5,276.5 Z"/></g>
<g><path style="opacity:1" fill="#ff598b" d="M 256.5,281.5 C 267.75,282.189 269.417,286.689 261.5,295C 253.111,298.895 249.611,296.395 251,287.5C 252.36,284.977 254.193,282.977 256.5,281.5 Z"/></g>
<g><path style="opacity:1" fill="#701e30" d="M 312.5,299.5 C 317.509,312.321 313.175,318.155 299.5,317C 297.138,315.489 294.805,313.989 292.5,312.5C 284.638,306.443 280.805,298.443 281,288.5C 282.596,284.736 285.429,282.736 289.5,282.5C 299.713,284.711 307.379,290.378 312.5,299.5 Z"/></g>
<g><path style="opacity:1" fill="#cb084c" d="M 304.5,293.5 C 290.152,290.182 286.152,295.182 292.5,308.5C 285.176,303.201 282.343,296.201 284,287.5C 287.183,285.477 290.683,284.977 294.5,286C 298.3,287.979 301.634,290.479 304.5,293.5 Z"/></g>
<g><path style="opacity:1" fill="#d0ccc3" d="M 312.5,299.5 C 307.379,290.378 299.713,284.711 289.5,282.5C 285.429,282.736 282.596,284.736 281,288.5C 280.805,298.443 284.638,306.443 292.5,312.5C 281.796,307.605 277.296,299.271 279,287.5C 283.815,280.377 290.315,278.544 298.5,282C 305.282,286.267 309.949,292.101 312.5,299.5 Z"/></g>
<g><path style="opacity:1" fill="#fb1450" d="M 304.5,293.5 C 307.147,296.117 309.314,299.117 311,302.5C 313.338,311.825 309.838,315.659 300.5,314C 297.379,312.694 294.713,310.86 292.5,308.5C 286.152,295.182 290.152,290.182 304.5,293.5 Z"/></g>
<g><path style="opacity:1" fill="#ff5a8c" d="M 295.5,297.5 C 304.822,297.64 308.822,302.14 307.5,311C 300.067,311.918 295.734,308.585 294.5,301C 294.648,299.744 294.982,298.577 295.5,297.5 Z"/></g>
<g><path style="opacity:1" fill="#5b49b5" d="M 140.5,302.5 C 142.843,308.85 146.01,314.85 150,320.5C 158.144,328.976 166.644,337.142 175.5,345C 220.937,381.215 267.27,416.215 314.5,450C 319.108,453.137 324.108,455.47 329.5,457C 342.807,458.472 355.807,457.139 368.5,453C 395.464,440.037 418.298,421.87 437,398.5C 451.928,378.22 458.428,355.554 456.5,330.5C 458.885,335.271 459.885,340.437 459.5,346C 458.541,363.211 453.374,379.045 444,393.5C 424.085,424.543 396.918,446.709 362.5,460C 349.579,464.144 336.579,464.478 323.5,461C 319.673,459.254 316.007,457.254 312.5,455C 304.167,448 295.833,441 287.5,434C 249.885,406.719 212.552,379.052 175.5,351C 165.064,342.567 155.231,333.401 146,323.5C 141.147,317.082 139.314,310.082 140.5,302.5 Z"/></g>
<g><path style="opacity:1" fill="#eeeee9" d="M 411.5,343.5 C 400.181,344.779 388.848,344.779 377.5,343.5C 373.14,343.766 368.807,344.266 364.5,345C 346.674,349.527 328.674,353.193 310.5,356C 305.178,357.665 299.845,359.331 294.5,361C 288.492,364.848 282.158,368.015 275.5,370.5C 274.558,370.392 273.725,370.059 273,369.5C 272.505,367.527 272.338,365.527 272.5,363.5C 272.68,359.153 270.847,355.819 267,353.5C 265.959,350.364 266.793,347.864 269.5,346C 277.839,345.858 286.172,345.858 294.5,346C 321.416,339.938 348.082,332.938 374.5,325C 382.857,320.131 391.524,315.965 400.5,312.5C 403.276,312.805 405.776,313.805 408,315.5C 407.401,318.928 406.568,322.428 405.5,326C 405.87,331.243 408.37,335.076 413,337.5C 413.748,339.84 413.248,341.84 411.5,343.5 Z"/></g>
<g><path style="opacity:1" fill="#dd3f58" d="M 430.5,322.5 C 433.564,325.824 435.397,329.824 436,334.5C 438.544,354.324 433.877,372.324 422,388.5C 407.453,408.714 388.953,424.214 366.5,435C 350.566,441.799 334.566,442.132 318.5,436C 281.555,405.874 244.221,376.374 206.5,347.5C 213.783,351.48 220.783,355.98 227.5,361C 255.5,382 283.5,403 311.5,424C 327.627,432.919 344.294,433.919 361.5,427C 409.214,408.458 432.214,373.625 430.5,322.5 Z"/></g>
<g><path style="opacity:1" fill="#d0ccc4" d="M 411.5,343.5 C 409.507,345.163 407.174,346.33 404.5,347C 389.76,345.776 375.093,346.442 360.5,349C 338.737,353.286 317.07,357.952 295.5,363C 290.5,366 285.5,369 280.5,372C 276.683,373.023 273.183,372.523 270,370.5C 269.705,367.758 270.538,365.425 272.5,363.5C 272.338,365.527 272.505,367.527 273,369.5C 273.725,370.059 274.558,370.392 275.5,370.5C 282.158,368.015 288.492,364.848 294.5,361C 299.845,359.331 305.178,357.665 310.5,356C 328.674,353.193 346.674,349.527 364.5,345C 368.807,344.266 373.14,343.766 377.5,343.5C 388.848,344.779 400.181,344.779 411.5,343.5 Z"/></g>
<g><path style="opacity:1" fill="#fa907c" d="M 418.5,340.5 C 419.88,348.011 416.547,352.511 408.5,354C 393.879,355.247 379.212,355.914 364.5,356C 355.917,357.585 351.084,362.752 350,371.5C 348.845,384.135 348.179,396.801 348,409.5C 347.044,412.377 345.711,415.044 344,417.5C 343.184,418.823 342.017,419.489 340.5,419.5C 343.086,416.321 344.586,412.654 345,408.5C 344.165,390.818 346.165,373.485 351,356.5C 358.97,353.975 367.137,352.142 375.5,351C 385.835,350.959 396.168,350.959 406.5,351C 412.57,349.758 416.57,346.258 418.5,340.5 Z"/></g>
<g><path style="opacity:1" fill="#d0ccc4" d="M 337.5,414.5 C 337.73,405.077 337.064,395.743 335.5,386.5C 335.715,377.378 337.381,368.544 340.5,360C 340.43,359.235 340.097,358.735 339.5,358.5C 341.686,357.035 344.019,356.702 346.5,357.5C 340.946,373.761 339.112,390.428 341,407.5C 340.861,410.445 339.694,412.779 337.5,414.5 Z"/></g>
<g><path style="opacity:1" fill="#eeede9" d="M 339.5,358.5 C 340.097,358.735 340.43,359.235 340.5,360C 337.381,368.544 335.715,377.378 335.5,386.5C 337.064,395.743 337.73,405.077 337.5,414.5C 336.481,416.101 334.981,417.101 333,417.5C 329.856,415.356 327.023,412.856 324.5,410C 322.966,409.077 321.299,408.577 319.5,408.5C 308.611,413.789 304.778,410.456 308,398.5C 315.974,387.217 321.807,374.884 325.5,361.5C 329.955,359.645 334.622,358.645 339.5,358.5 Z"/></g>
</svg>
