<?xml version="1.0" encoding="UTF-8"?>
<!DOCTYPE svg PUBLIC "-//W3C//DTD SVG 1.1//EN" "http://www.w3.org/Graphics/SVG/1.1/DTD/svg11.dtd">
<svg xmlns="http://www.w3.org/2000/svg" version="1.1" width="512px" height="512px" style="shape-rendering:geometricPrecision; text-rendering:geometricPrecision; image-rendering:optimizeQuality; fill-rule:evenodd; clip-rule:evenodd" xmlns:xlink="http://www.w3.org/1999/xlink">
<g><path style="opacity:0.991" fill="#010000" d="M 247.5,-0.5 C 252.833,-0.5 258.167,-0.5 263.5,-0.5C 277.931,4.26994 285.598,14.2699 286.5,29.5C 299.837,29.3334 313.171,29.5001 326.5,30C 340.614,33.1382 351.78,40.6382 360,52.5C 394.42,102.341 429.087,152.008 464,201.5C 468.076,212.047 467.076,222.047 461,231.5C 448.784,241.384 436.284,250.884 423.5,260C 415.752,266.41 410.419,274.41 407.5,284C 439.48,289.981 458.98,308.815 466,340.5C 466.167,363.507 466.667,386.507 467.5,409.5C 488.224,402.202 502.891,408.535 511.5,428.5C 511.5,455.167 511.5,481.833 511.5,508.5C 510.167,509.167 509.167,510.167 508.5,511.5C 339.833,511.5 171.167,511.5 2.5,511.5C 1.83333,510.167 0.833333,509.167 -0.5,508.5C -0.5,481.833 -0.5,455.167 -0.5,428.5C 8.10913,408.535 22.7758,402.202 43.5,409.5C 44.3331,386.507 44.8331,363.507 45,340.5C 52.0195,308.815 71.5195,289.981 103.5,284C 100.581,274.41 95.2476,266.41 87.5,260C 74.7159,250.884 62.2159,241.384 50,231.5C 43.9242,222.047 42.9242,212.047 47,201.5C 81.913,152.008 116.58,102.341 151,52.5C 159.22,40.6382 170.386,33.1382 184.5,30C 197.829,29.5001 211.163,29.3334 224.5,29.5C 225.402,14.2699 233.069,4.26994 247.5,-0.5 Z"/></g>
<g><path style="opacity:1" fill="#fccc53" d="M 250.5,14.5 C 260.121,13.0596 266.955,16.7263 271,25.5C 271.5,40.1629 271.667,54.8295 271.5,69.5C 260.833,69.5 250.167,69.5 239.5,69.5C 239.333,54.8295 239.5,40.1629 240,25.5C 242.357,20.6455 245.857,16.9788 250.5,14.5 Z"/></g>
<g><path style="opacity:1" fill="#fde172" d="M 187.5,44.5 C 199.833,44.5 212.167,44.5 224.5,44.5C 224.5,62.8333 224.5,81.1667 224.5,99.5C 209.5,99.5 194.5,99.5 179.5,99.5C 179.666,92.4921 179.5,85.4921 179,78.5C 177.587,75.3388 175.92,72.3388 174,69.5C 170.758,66.7945 167.258,64.4612 163.5,62.5C 169.377,53.5723 177.377,47.5723 187.5,44.5 Z"/></g>
<g><path style="opacity:1" fill="#ffe272" d="M 299.5,44.5 C 304.16,49.6736 307.327,55.6736 309,62.5C 309.5,74.4954 309.667,86.4954 309.5,98.5C 301.833,98.5 294.167,98.5 286.5,98.5C 286.5,80.5 286.5,62.5 286.5,44.5C 290.833,44.5 295.167,44.5 299.5,44.5 Z"/></g>
<g><path style="opacity:1" fill="#fccc53" d="M 299.5,44.5 C 307.174,44.3336 314.841,44.5003 322.5,45C 332.834,47.3432 341.001,52.8432 347,61.5C 347.688,62.3317 347.521,62.9984 346.5,63.5C 339.133,66.0344 334.299,71.0344 332,78.5C 331.5,85.4921 331.334,92.4921 331.5,99.5C 316.324,99.8294 301.324,99.4961 286.5,98.5C 294.167,98.5 301.833,98.5 309.5,98.5C 309.667,86.4954 309.5,74.4954 309,62.5C 307.327,55.6736 304.16,49.6736 299.5,44.5 Z"/></g>
<g><path style="opacity:1" fill="#fdcd53" d="M 153.5,77.5 C 155.857,77.3367 158.19,77.5034 160.5,78C 162.333,78.5 163.5,79.6667 164,81.5C 164.832,92.848 164.666,104.181 163.5,115.5C 150.975,112.679 141.809,117.012 136,128.5C 134.374,146.434 134.041,164.434 135,182.5C 137.431,200.094 147.265,210.761 164.5,214.5C 164.5,267.5 164.5,320.5 164.5,373.5C 138.712,368.878 123.879,353.544 120,327.5C 119.667,312.5 119.333,297.5 119,282.5C 116.442,271.381 111.275,261.714 103.5,253.5C 90.3465,243.091 77.0132,232.924 63.5,223C 59.9527,219.51 58.786,215.343 60,210.5C 90.6967,165.75 121.863,121.416 153.5,77.5 Z"/></g>
<g><path style="opacity:1" fill="#fdb835" d="M 350.5,77.5 C 355.589,76.4285 359.422,78.0952 362,82.5C 391.667,125.167 421.333,167.833 451,210.5C 452.214,215.343 451.047,219.51 447.5,223C 431.467,234.027 416.3,246.194 402,259.5C 397.303,266.562 393.969,274.229 392,282.5C 391.667,298.167 391.333,313.833 391,329.5C 386.232,354.435 371.398,369.102 346.5,373.5C 346.5,320.5 346.5,267.5 346.5,214.5C 363.752,210.746 373.585,200.079 376,182.5C 376.667,165.5 376.667,148.5 376,131.5C 370.841,117.669 361.008,112.336 346.5,115.5C 346.333,104.162 346.5,92.8284 347,81.5C 347.69,79.6498 348.856,78.3164 350.5,77.5 Z"/></g>
<g><path style="opacity:1" fill="#fcb735" d="M 239.5,84.5 C 250.167,84.5 260.833,84.5 271.5,84.5C 271.5,89.5 271.5,94.5 271.5,99.5C 260.833,99.5 250.167,99.5 239.5,99.5C 239.5,94.5 239.5,89.5 239.5,84.5 Z"/></g>
<g><path style="opacity:1" fill="#fceaae" d="M 308.5,114.5 C 308.5,119.5 308.5,124.5 308.5,129.5C 265.5,129.5 222.5,129.5 179.5,129.5C 179.5,124.5 179.5,119.5 179.5,114.5C 222.5,114.5 265.5,114.5 308.5,114.5 Z"/></g>
<g><path style="opacity:1" fill="#fce173" d="M 308.5,114.5 C 316.167,114.5 323.833,114.5 331.5,114.5C 331.5,119.5 331.5,124.5 331.5,129.5C 323.833,129.5 316.167,129.5 308.5,129.5C 308.5,124.5 308.5,119.5 308.5,114.5 Z"/></g>
<g><path style="opacity:1" fill="#fd892f" d="M 153.5,129.5 C 157.803,128.796 161.303,130.13 164,133.5C 164.833,155.508 164.666,177.508 163.5,199.5C 156.145,196.132 151.645,190.466 150,182.5C 149.333,166.167 149.333,149.833 150,133.5C 151.376,132.295 152.542,130.962 153.5,129.5 Z"/></g>
<g><path style="opacity:1" fill="#fc6d2f" d="M 350.5,129.5 C 354.803,128.796 358.303,130.13 361,133.5C 361.667,149.833 361.667,166.167 361,182.5C 359.355,190.466 354.855,196.132 347.5,199.5C 346.334,177.508 346.167,155.508 347,133.5C 348.376,132.295 349.542,130.962 350.5,129.5 Z"/></g>
<g><path style="opacity:1" fill="#fca132" d="M 309.5,144.5 C 309.5,163.167 309.5,181.833 309.5,200.5C 295.656,200.171 281.99,200.504 268.5,201.5C 264.917,202.422 263.25,204.756 263.5,208.5C 263.25,212.244 264.917,214.578 268.5,215.5C 281.656,216.496 294.99,216.829 308.5,216.5C 307.471,239.266 300.137,259.599 286.5,277.5C 252.269,291.154 222.436,284.487 197,257.5C 181.212,236.095 175.379,212.095 179.5,185.5C 211.168,185.667 242.835,185.5 274.5,185C 278.5,180.667 278.5,176.333 274.5,172C 242.835,171.5 211.168,171.333 179.5,171.5C 179.5,162.5 179.5,153.5 179.5,144.5C 222.833,144.5 266.167,144.5 309.5,144.5 Z"/></g>
<g><path style="opacity:1" fill="#f9872e" d="M 309.5,144.5 C 316.833,144.5 324.167,144.5 331.5,144.5C 331.5,163.5 331.5,182.5 331.5,201.5C 310.5,201.5 289.5,201.5 268.5,201.5C 281.99,200.504 295.656,200.171 309.5,200.5C 309.5,181.833 309.5,163.167 309.5,144.5 Z"/></g>
<g><path style="opacity:1" fill="#040200" d="M 221.5,201.5 C 229.174,201.334 236.841,201.5 244.5,202C 248.5,206.333 248.5,210.667 244.5,215C 236.833,215.667 229.167,215.667 221.5,215C 217.541,210.501 217.541,206.001 221.5,201.5 Z"/></g>
<g><path style="opacity:1" fill="#774917" d="M 268.5,215.5 C 289.5,215.5 310.5,215.5 331.5,215.5C 331.737,216.791 331.404,217.791 330.5,218.5C 323.576,216.537 316.243,215.87 308.5,216.5C 294.99,216.829 281.656,216.496 268.5,215.5 Z"/></g>
<g><path style="opacity:1" fill="#fb882f" d="M 308.5,216.5 C 316.243,215.87 323.576,216.537 330.5,218.5C 326.479,246.178 311.812,265.845 286.5,277.5C 300.137,259.599 307.471,239.266 308.5,216.5 Z"/></g>
<g><path style="opacity:1" fill="#fb5228" d="M 179.5,259.5 C 186.638,268.804 194.972,276.971 204.5,284C 196.173,284.5 187.84,284.666 179.5,284.5C 179.5,276.167 179.5,267.833 179.5,259.5 Z"/></g>
<g><path style="opacity:1" fill="#fa5228" d="M 330.5,259.5 C 331.493,267.65 331.826,275.983 331.5,284.5C 323.16,284.666 314.827,284.5 306.5,284C 316.043,277.291 324.043,269.124 330.5,259.5 Z"/></g>
<g><path style="opacity:1" fill="#fea232" d="M 224.5,352.5 C 219.5,352.5 214.5,352.5 209.5,352.5C 209.456,348.91 207.789,346.41 204.5,345C 196.173,344.5 187.84,344.334 179.5,344.5C 179.5,329.5 179.5,314.5 179.5,299.5C 230.167,299.5 280.833,299.5 331.5,299.5C 331.5,314.5 331.5,329.5 331.5,344.5C 297.498,344.333 263.498,344.5 229.5,345C 226.211,346.41 224.544,348.91 224.5,352.5 Z"/></g>
<g><path style="opacity:1" fill="#fca132" d="M 98.5,300.5 C 100.5,300.5 102.5,300.5 104.5,300.5C 104.334,309.839 104.5,319.173 105,328.5C 105.595,333.645 106.762,338.645 108.5,343.5C 92.5139,344.499 76.5139,344.833 60.5,344.5C 64.2221,322.111 76.8888,307.444 98.5,300.5 Z"/></g>
<g><path style="opacity:1" fill="#fda132" d="M 425.5,306.5 C 426.95,310.404 428.116,314.404 429,318.5C 429.5,327.16 429.666,335.827 429.5,344.5C 420.475,344.832 411.475,344.498 402.5,343.5C 404.238,338.645 405.405,333.645 406,328.5C 406.5,319.173 406.666,309.839 406.5,300.5C 413.232,301.3 419.565,303.3 425.5,306.5 Z"/></g>
<g><path style="opacity:1" fill="#fb872f" d="M 425.5,306.5 C 439.84,315.171 448.173,327.837 450.5,344.5C 443.5,344.5 436.5,344.5 429.5,344.5C 429.666,335.827 429.5,327.16 429,318.5C 428.116,314.404 426.95,310.404 425.5,306.5 Z"/></g>
<g><path style="opacity:1" fill="#fe892f" d="M 209.5,352.5 C 214.5,352.5 219.5,352.5 224.5,352.5C 224.84,355.675 226.507,357.841 229.5,359C 263.498,359.5 297.498,359.667 331.5,359.5C 331.5,364.5 331.5,369.5 331.5,374.5C 280.833,374.5 230.167,374.5 179.5,374.5C 179.5,369.5 179.5,364.5 179.5,359.5C 187.507,359.666 195.507,359.5 203.5,359C 207.065,358.268 209.065,356.102 209.5,352.5 Z"/></g>
<g><path style="opacity:1" fill="#fe892f" d="M 59.5,359.5 C 78.5029,359.333 97.5029,359.5 116.5,360C 119.787,365.621 124.121,370.288 129.5,374C 106.169,374.5 82.8357,374.667 59.5,374.5C 59.5,369.5 59.5,364.5 59.5,359.5 Z"/></g>
<g><path style="opacity:1" fill="#fe892f" d="M 428.5,359.5 C 428.5,364.5 428.5,369.5 428.5,374.5C 412.83,374.667 397.163,374.5 381.5,374C 386.879,370.288 391.213,365.621 394.5,360C 405.828,359.5 417.162,359.333 428.5,359.5 Z"/></g>
<g><path style="opacity:1" fill="#ff6e30" d="M 428.5,359.5 C 436.167,359.5 443.833,359.5 451.5,359.5C 451.5,364.5 451.5,369.5 451.5,374.5C 443.833,374.5 436.167,374.5 428.5,374.5C 428.5,369.5 428.5,364.5 428.5,359.5 Z"/></g>
<g><path style="opacity:1" fill="#fe6d2f" d="M 428.5,389.5 C 428.5,395.5 428.5,401.5 428.5,407.5C 422.8,409.1 417.967,412.1 414,416.5C 402.442,405.722 389.608,403.888 375.5,411C 373.04,412.458 370.873,414.291 369,416.5C 353.324,402.92 337.99,403.253 323,417.5C 319.146,422.539 316.979,428.205 316.5,434.5C 275.833,434.5 235.167,434.5 194.5,434.5C 190.609,414.202 178.276,405.036 157.5,407C 151.447,408.774 146.28,411.941 142,416.5C 132.794,407.59 121.961,404.757 109.5,408C 104.786,410.051 100.619,412.885 97,416.5C 86.0161,406.103 73.6828,404.103 60,410.5C 59.5004,403.508 59.3337,396.508 59.5,389.5C 182.5,389.5 305.5,389.5 428.5,389.5 Z"/></g>
<g><path style="opacity:1" fill="#fe5428" d="M 428.5,389.5 C 436.167,389.5 443.833,389.5 451.5,389.5C 451.666,396.508 451.5,403.508 451,410.5C 443.851,406.669 436.351,405.669 428.5,407.5C 428.5,401.5 428.5,395.5 428.5,389.5 Z"/></g>
<g><path style="opacity:1" fill="#fecd53" d="M 25.5,421.5 C 34.4787,420.729 40.6453,424.396 44,432.5C 44.5,453.831 44.6666,475.164 44.5,496.5C 34.5,496.5 24.5,496.5 14.5,496.5C 14.3334,475.164 14.5,453.831 15,432.5C 16.6844,426.984 20.1844,423.318 25.5,421.5 Z"/></g>
<g><path style="opacity:1" fill="#fecd53" d="M 115.5,421.5 C 124.479,420.729 130.645,424.396 134,432.5C 134.5,453.831 134.667,475.164 134.5,496.5C 124.5,496.5 114.5,496.5 104.5,496.5C 104.333,475.164 104.5,453.831 105,432.5C 106.684,426.984 110.184,423.318 115.5,421.5 Z"/></g>
<g><path style="opacity:1" fill="#fecd53" d="M 342.5,421.5 C 351.479,420.729 357.645,424.396 361,432.5C 361.5,453.831 361.667,475.164 361.5,496.5C 351.5,496.5 341.5,496.5 331.5,496.5C 331.333,475.164 331.5,453.831 332,432.5C 333.684,426.984 337.184,423.318 342.5,421.5 Z"/></g>
<g><path style="opacity:1" fill="#fecd53" d="M 432.5,421.5 C 441.479,420.729 447.645,424.396 451,432.5C 451.5,453.831 451.667,475.164 451.5,496.5C 441.5,496.5 431.5,496.5 421.5,496.5C 421.333,475.164 421.5,453.831 422,432.5C 423.684,426.984 427.184,423.318 432.5,421.5 Z"/></g>
<g><path style="opacity:1" fill="#fee272" d="M 70.5,421.5 C 79.4787,420.729 85.6453,424.396 89,432.5C 89.5,453.831 89.6666,475.164 89.5,496.5C 79.5,496.5 69.5,496.5 59.5,496.5C 59.3334,475.164 59.5,453.831 60,432.5C 61.6844,426.984 65.1844,423.318 70.5,421.5 Z"/></g>
<g><path style="opacity:1" fill="#feb835" d="M 160.5,421.5 C 169.479,420.729 175.645,424.396 179,432.5C 179.5,453.831 179.667,475.164 179.5,496.5C 169.5,496.5 159.5,496.5 149.5,496.5C 149.333,475.164 149.5,453.831 150,432.5C 151.684,426.984 155.184,423.318 160.5,421.5 Z"/></g>
<g><path style="opacity:1" fill="#fee272" d="M 387.5,421.5 C 396.479,420.729 402.645,424.396 406,432.5C 406.5,453.831 406.667,475.164 406.5,496.5C 396.5,496.5 386.5,496.5 376.5,496.5C 376.333,475.164 376.5,453.831 377,432.5C 378.684,426.984 382.184,423.318 387.5,421.5 Z"/></g>
<g><path style="opacity:1" fill="#feb835" d="M 477.5,421.5 C 486.479,420.729 492.645,424.396 496,432.5C 496.5,453.831 496.667,475.164 496.5,496.5C 486.5,496.5 476.5,496.5 466.5,496.5C 466.333,475.164 466.5,453.831 467,432.5C 468.684,426.984 472.184,423.318 477.5,421.5 Z"/></g>
<g><path style="opacity:1" fill="#fe8a2f" d="M 194.5,449.5 C 235.167,449.5 275.833,449.5 316.5,449.5C 316.5,465.167 316.5,480.833 316.5,496.5C 275.833,496.5 235.167,496.5 194.5,496.5C 194.5,480.833 194.5,465.167 194.5,449.5 Z"/></g>
</svg>
