<?xml version="1.0" encoding="UTF-8"?>
<svg version="1.1" xmlns="http://www.w3.org/2000/svg" width="512" height="512">
<path d="M0 0 C1.60706896 -0.01169993 1.60706896 -0.01169993 3.24660397 -0.02363622 C6.81327812 -0.04347603 10.3788758 -0.02782204 13.94555664 -0.01205444 C16.51206075 -0.01883406 19.07855999 -0.02773912 21.64505005 -0.03860474 C27.87823321 -0.06077235 34.11111437 -0.05606513 40.34430909 -0.04154153 C45.41265978 -0.03022362 50.48092617 -0.02872938 55.54928589 -0.03416061 C56.27218841 -0.03492678 56.99509092 -0.03569294 57.73989958 -0.03648233 C59.20872095 -0.03808104 60.67754229 -0.03970211 62.14636362 -0.04134528 C75.9013236 -0.0555838 89.65611665 -0.03923996 103.41104925 -0.01234345 C115.19900246 0.00999366 126.98670943 0.006113 138.7746582 -0.01693726 C152.48227901 -0.04372892 166.18975371 -0.05421068 179.89739704 -0.03887594 C181.36064464 -0.03728329 182.82389225 -0.03571143 184.28713989 -0.03416061 C185.00697978 -0.03338924 185.72681968 -0.03261786 186.4684729 -0.03182311 C191.52742883 -0.02751618 196.58629165 -0.03477084 201.64523315 -0.04655838 C208.46129168 -0.06209182 215.27687871 -0.05094369 222.09289169 -0.0220871 C224.59138087 -0.01548714 227.08990924 -0.01735516 229.58838272 -0.02840042 C233.00492075 -0.04210943 236.41998132 -0.02487271 239.83642578 0 C240.81990462 -0.01115361 241.80338346 -0.02230722 242.8166647 -0.03379881 C250.46869385 0.07390146 256.85002201 2.19453933 262.75944614 7.19200838 C270.7592955 15.67619417 270.35294456 26.27963787 270.30589294 37.26600647 C270.31006971 38.854699 270.3155491 40.44338855 270.32221276 42.0320726 C270.33664104 46.38209807 270.33243085 50.73193364 270.32504594 55.08196938 C270.32031012 59.77940586 270.33282776 64.47680151 270.34306335 69.17422485 C270.36024826 78.3706158 270.36109204 87.56693841 270.35585045 96.76334124 C270.35180713 104.23873481 270.35325424 111.7141082 270.35859871 119.18950081 C270.35934713 120.25390825 270.36009555 121.31831569 270.36086665 122.4149779 C270.36239815 124.57739178 270.3639365 126.73980566 270.36548162 128.90221954 C270.37920542 149.17482018 270.3737697 169.44738222 270.36229641 189.71998198 C270.35236304 208.26192368 270.36530673 226.8037656 270.3892306 245.34569191 C270.41361892 264.39126451 270.42323019 283.43679064 270.41657788 302.48237854 C270.41308521 313.17237345 270.41532095 323.86229161 270.4328289 334.5522747 C270.44754746 343.65185854 270.44819075 352.75131158 270.43075799 361.85089283 C270.42224302 366.49216188 270.42011065 371.13319723 270.43540955 375.77445412 C270.4492516 380.02642638 270.44449977 384.27796464 270.42517031 388.52991176 C270.42140853 390.06480252 270.42433745 391.59972799 270.43478196 393.13458782 C270.5004271 403.52333031 269.84011948 412.42240195 262.73071289 420.50991821 C257.7291368 425.54948096 251.09814039 427.84873692 244.12304688 428.08901978 C241.97002958 428.08839456 239.81693864 428.06627832 237.66430664 428.02554321 C236.52284683 428.01988342 235.38138702 428.01422363 234.20533752 428.00839233 C230.58835482 427.98614571 226.97239213 427.93596928 223.35571289 427.88491821 C220.89153457 427.86483816 218.4273406 427.84659004 215.96313477 427.83023071 C209.94781751 427.78631933 203.93308811 427.71952465 197.91821289 427.63491821 C197.46211891 428.57259789 197.46211891 428.57259789 196.99681091 429.52922058 C193.32492973 436.69766643 186.62219408 439.44060478 179.35180664 441.82632446 C175.69721778 442.98675125 172.02756006 444.09305287 168.35571289 445.19741821 C166.29311013 445.8348317 164.23111757 446.47422245 162.16967773 447.11538696 C157.59793464 448.53329696 153.02249462 449.93837116 148.4440918 451.33462524 C140.4839742 453.76361774 132.53453281 456.22636416 124.58618164 458.69351196 C121.70331863 459.58806134 118.82041461 460.48247851 115.9375 461.37686157 C115.21041745 461.60245915 114.4833349 461.82805674 113.73421955 462.06049061 C108.48222314 463.68967863 103.22891664 465.31459693 97.97509766 466.93789673 C78.24029343 473.03707683 58.52589901 479.19844877 38.82793045 485.41556454 C33.40622498 487.12671694 27.98330361 488.83396958 22.55981445 490.53945923 C19.57500943 491.47849919 16.5903156 492.41789169 13.60571289 493.35757446 C12.52192982 493.69877917 12.52192982 493.69877917 11.41625214 494.04687691 C2.98633276 496.70235928 -5.43352266 499.38543225 -13.83840942 502.11938477 C-18.01443595 503.47623584 -22.19514467 504.81824818 -26.37664795 506.15811157 C-28.22093453 506.75392802 -30.06276983 507.35740329 -31.90167236 507.96963501 C-56.12033239 516.03277805 -56.12033239 516.03277805 -67.58178711 511.13491821 C-77.04004716 504.87302257 -80.16391605 496.11179472 -83.37866211 485.69741821 C-83.84895315 484.22579192 -84.32089073 482.75469092 -84.79437256 481.28408813 C-86.01247694 477.48199459 -87.20539735 473.67253856 -88.38961792 469.85977173 C-89.05158944 467.7319832 -89.71887862 465.60595915 -90.38867188 463.48062134 C-93.18418075 454.60876938 -95.92828136 445.72162013 -98.65762329 436.82922363 C-100.80652079 429.83487403 -102.96850192 422.84454557 -105.12866211 415.85366821 C-105.37391632 415.05959061 -105.61917053 414.265513 -105.87185669 413.44737244 C-111.13421788 396.41292954 -116.49050013 379.40859483 -121.86320496 362.40869141 C-129.91070277 336.94440076 -137.8767392 311.45654413 -145.75963593 285.94082642 C-153.16247415 261.98017402 -160.65541592 238.04916514 -168.20678711 214.13491821 C-180.49191634 175.22673193 -180.49191634 175.22673193 -186.45678711 155.82241821 C-186.70076233 155.02964478 -186.94473755 154.23687134 -187.19610596 153.42007446 C-194.17644709 130.71622841 -194.17644709 130.71622841 -189.39819336 119.99429321 C-182.04634095 106.8176794 -164.79175689 104.56278176 -151.45678711 100.44741821 C-149.42588164 99.81734752 -147.39512526 99.18679611 -145.36450195 98.55581665 C-141.95497237 97.4964124 -138.54534124 96.43734483 -135.13528442 95.37963867 C-124.24267571 92.00018031 -113.35705485 88.59852922 -102.47241211 85.19351196 C-100.66529429 84.62826753 -98.85817556 84.06302604 -97.05105591 83.49778748 C-93.41619927 82.36081159 -89.78136407 81.22376722 -86.14654541 80.08666992 C-84.79886456 79.66506907 -84.79886456 79.66506907 -83.42395782 79.23495102 C-81.61332151 78.66851614 -79.80268816 78.10207175 -77.9920578 77.53561783 C-72.76700978 75.90102819 -67.54178365 74.26701009 -62.31630707 72.63379097 C-60.708477 72.13115189 -59.1007124 71.62830333 -57.4930191 71.12522697 C-52.69106443 69.62264435 -47.88710417 68.12671287 -43.08178711 66.63491821 C-42.04076843 66.30818115 -40.99974976 65.98144409 -39.92718506 65.64480591 C-39.03380432 65.36858398 -38.14042358 65.09236206 -37.2199707 64.80776978 C-36.47814545 64.57656433 -35.73632019 64.34535889 -34.97201538 64.10714722 C-33.08178711 63.63491821 -33.08178711 63.63491821 -30.08178711 63.63491821 C-30.10535278 61.84259766 -30.10535278 61.84259766 -30.12939453 60.0140686 C-30.18402486 55.54685303 -30.21825681 51.07966652 -30.24658203 46.61221313 C-30.26159363 44.68507915 -30.28200927 42.75797889 -30.30810547 40.83096313 C-30.34482654 38.04808182 -30.36159003 35.26565533 -30.37475586 32.48257446 C-30.39023972 31.63220108 -30.40572357 30.7818277 -30.42167664 29.90568542 C-30.42426767 20.52722503 -27.76575893 12.35897155 -21.08178711 5.63491821 C-14.24903147 1.03094214 -8.09863549 -0.09184642 0 0 Z " fill="#F34335" transform="translate(217.081787109375,-0.634918212890625)"/>
<path d="M0 0 C0.00059709 0.68888432 0.00119418 1.37776863 0.00180936 2.08752823 C0.03770072 42.91342644 0.0943357 83.73924997 0.17792095 124.56507975 C0.18793845 129.46672604 0.19778257 134.36837267 0.20751953 139.27001953 C0.2094609 140.24585208 0.21140228 141.22168463 0.21340248 142.22708786 C0.24442637 158.02910386 0.26140422 173.83110533 0.27319422 189.63314605 C0.28560376 205.84664406 0.31310072 222.06006582 0.35461307 238.2735157 C0.37975409 248.27866775 0.39311684 258.28369335 0.39142957 268.28887743 C0.39139983 275.1491482 0.40602075 282.00929014 0.43216428 288.86951071 C0.44681676 292.8279532 0.45500767 296.78613148 0.44580269 300.74459648 C0.43751303 304.37081354 0.44767746 307.99649986 0.47233662 311.62263823 C0.48070375 313.55132734 0.46948471 315.48007096 0.45750165 317.408741 C0.53723633 325.45353161 1.5151779 330.94036189 6.89453125 337.20703125 C7.52746094 337.73683594 8.16039062 338.26664062 8.8125 338.8125 C9.43769531 339.35519531 10.06289062 339.89789063 10.70703125 340.45703125 C16.17858828 344.13891375 20.729714 345.3744631 27.29563904 345.39872742 C28.34591635 345.40869766 28.34591635 345.40869766 29.41741139 345.41886932 C31.74514085 345.43740485 34.07235202 345.43490053 36.40014648 345.43237305 C38.07604187 345.44139601 39.75193067 345.45172454 41.42781067 345.46325684 C45.96445908 345.49079025 50.50098215 345.50010639 55.03770328 345.50611091 C59.78365449 345.51550409 64.52951242 345.54170826 69.27540588 345.56611633 C78.25664354 345.60975902 87.23786307 345.6383197 96.21917444 345.66143972 C106.44652363 345.68850333 116.67377887 345.73241414 126.90106094 345.77772844 C147.93399007 345.87054277 168.96694732 345.94223824 190 346 C187.33189793 347.77873471 185.53748949 348.58492396 182.53881836 349.50878906 C181.63614731 349.78958313 180.73347626 350.0703772 179.80345154 350.35968018 C178.82546097 350.65864197 177.8474704 350.95760376 176.83984375 351.265625 C175.82136856 351.58150574 174.80289337 351.89738647 173.7535553 352.22283936 C170.48293405 353.2364764 167.21035405 354.24359798 163.9375 355.25 C159.67496007 356.56506286 155.4133448 357.88308485 151.15234375 359.203125 C149.59379166 359.68537537 149.59379166 359.68537537 148.00375366 360.17736816 C140.88629916 362.38869523 133.80171717 364.68393511 126.74607849 367.08526611 C122.52800293 368.51689671 118.29191545 369.80843431 114 371 C108.60205405 372.49942943 103.30369439 374.20243915 98 376 C91.58660824 378.17366634 85.15120657 380.12466484 78.625 381.9375 C74.37673684 383.18268058 70.19210431 384.57918612 66 386 C59.58660824 388.17366634 53.15120657 390.12466484 46.625 391.9375 C41.67374772 393.38872912 36.79463979 395.0352463 31.91796875 396.71875 C26.2463756 398.65487827 20.50872215 400.29560363 14.7421875 401.92480469 C8.4649681 403.72835859 2.23419386 405.67884167 -4 407.625 C-5.28251093 408.02356994 -6.56506292 408.42200779 -7.84765625 408.8203125 C-14.54040951 410.88486614 -14.54040951 410.88486614 -21.171875 413.13427734 C-24.85122223 414.26056923 -27.29790621 413.97791157 -31 413 C-33.81271398 410.00467303 -34.88964227 406.85336638 -36.1027832 402.97143555 C-36.49291092 401.73652878 -36.88303864 400.50162201 -37.2849884 399.22929382 C-37.70708646 397.86515383 -38.12901178 396.50096038 -38.55078125 395.13671875 C-39.00073494 393.70164006 -39.45136925 392.26677461 -39.90263367 390.83210754 C-41.12569512 386.93653275 -42.33874088 383.0379032 -43.54998779 379.13864136 C-44.83558434 375.00601391 -46.13038235 370.87626969 -47.42382812 366.74609375 C-55.01754877 342.47867025 -62.53432871 318.18706577 -70.04202747 293.89290905 C-76.78630174 272.07135794 -83.62004855 250.27912527 -90.5 228.5 C-98.80344985 202.21372981 -107.02317785 175.90293162 -115.15043831 149.56163406 C-116.27139428 145.92887133 -117.39321394 142.29637591 -118.515625 138.6640625 C-118.73734249 137.94651039 -118.95905998 137.22895828 -119.18749619 136.48966217 C-122.51080771 125.74132294 -125.88498845 115.00976233 -129.28905106 104.28673935 C-130.03977325 101.92081885 -130.78921868 99.55449806 -131.53817749 97.1880188 C-131.7815365 96.41916037 -132.02489552 95.65030193 -132.27562904 94.85814476 C-132.76142034 93.32330897 -133.24716773 91.78845928 -133.7328701 90.25359535 C-135.13899185 85.81331855 -136.55414466 81.376049 -137.97610474 76.94082069 C-138.84759651 74.21568212 -139.71087893 71.48799317 -140.57202911 68.75957108 C-141.16096436 66.90278019 -141.76021736 65.0492717 -142.35980225 63.19589233 C-145.71486353 52.52144262 -145.71486353 52.52144262 -145 47 C-141.61983123 43.26132848 -137.73438174 41.98450953 -133 40.5 C-131.80375 40.1184375 -130.6075 39.736875 -129.375 39.34375 C-127.91724798 38.89394505 -126.45885663 38.44620934 -125 38 C-112.14580818 34.06647682 -99.32441361 30.02933511 -86.5 26 C-60.18067015 17.73066284 -60.18067015 17.73066284 -50.48486328 14.76123047 C-47.0481445 13.7084019 -43.61765695 12.63651447 -40.1875 11.5625 C-39.52645264 11.35568604 -38.86540527 11.14887207 -38.18432617 10.93579102 C-36.12279351 10.29081641 -34.06137984 9.64546285 -32 9 C-27.95118651 7.73222846 -23.9021659 6.46516752 -19.8515625 5.203125 C-17.3021393 4.40859977 -14.75613474 3.60504072 -12.2109375 2.796875 C-11.04820312 2.43078125 -9.88546875 2.0646875 -8.6875 1.6875 C-7.66011719 1.36136719 -6.63273438 1.03523438 -5.57421875 0.69921875 C-3 0 -3 0 0 0 Z " fill="#FEDE00" transform="translate(188,81)"/>
<path d="M0 0 C1.60706896 -0.01169993 1.60706896 -0.01169993 3.24660397 -0.02363622 C6.81327812 -0.04347603 10.3788758 -0.02782204 13.94555664 -0.01205444 C16.51206075 -0.01883406 19.07855999 -0.02773912 21.64505005 -0.03860474 C27.87823321 -0.06077235 34.11111437 -0.05606513 40.34430909 -0.04154153 C45.41265978 -0.03022362 50.48092617 -0.02872938 55.54928589 -0.03416061 C56.27218841 -0.03492678 56.99509092 -0.03569294 57.73989958 -0.03648233 C59.20872095 -0.03808104 60.67754229 -0.03970211 62.14636362 -0.04134528 C75.9013236 -0.0555838 89.65611665 -0.03923996 103.41104925 -0.01234345 C115.19900246 0.00999366 126.98670943 0.006113 138.7746582 -0.01693726 C152.48227901 -0.04372892 166.18975371 -0.05421068 179.89739704 -0.03887594 C181.36064464 -0.03728329 182.82389225 -0.03571143 184.28713989 -0.03416061 C185.00697978 -0.03338924 185.72681968 -0.03261786 186.4684729 -0.03182311 C191.52742883 -0.02751618 196.58629165 -0.03477084 201.64523315 -0.04655838 C208.46129168 -0.06209182 215.27687871 -0.05094369 222.09289169 -0.0220871 C224.59138087 -0.01548714 227.08990924 -0.01735516 229.58838272 -0.02840042 C233.00492075 -0.04210943 236.41998132 -0.02487271 239.83642578 0 C240.81990462 -0.01115361 241.80338346 -0.02230722 242.8166647 -0.03379881 C250.46869385 0.07390146 256.85002201 2.19453933 262.75944614 7.19200838 C270.7592955 15.67619417 270.35294456 26.27963787 270.30589294 37.26600647 C270.31006971 38.854699 270.3155491 40.44338855 270.32221276 42.0320726 C270.33664104 46.38209807 270.33243085 50.73193364 270.32504594 55.08196938 C270.32031012 59.77940586 270.33282776 64.47680151 270.34306335 69.17422485 C270.36024826 78.3706158 270.36109204 87.56693841 270.35585045 96.76334124 C270.35180713 104.23873481 270.35325424 111.7141082 270.35859871 119.18950081 C270.35934713 120.25390825 270.36009555 121.31831569 270.36086665 122.4149779 C270.36239815 124.57739178 270.3639365 126.73980566 270.36548162 128.90221954 C270.37920542 149.17482018 270.3737697 169.44738222 270.36229641 189.71998198 C270.35236304 208.26192368 270.36530673 226.8037656 270.3892306 245.34569191 C270.41361892 264.39126451 270.42323019 283.43679064 270.41657788 302.48237854 C270.41308521 313.17237345 270.41532095 323.86229161 270.4328289 334.5522747 C270.44754746 343.65185854 270.44819075 352.75131158 270.43075799 361.85089283 C270.42224302 366.49216188 270.42011065 371.13319723 270.43540955 375.77445412 C270.4492516 380.02642638 270.44449977 384.27796464 270.42517031 388.52991176 C270.42140853 390.06480252 270.42433745 391.59972799 270.43478196 393.13458782 C270.5004271 403.52333031 269.84011948 412.42240195 262.73071289 420.50991821 C257.7291368 425.54948096 251.09814039 427.84873692 244.12304688 428.08901978 C241.97002958 428.08839456 239.81693864 428.06627832 237.66430664 428.02554321 C236.52284683 428.01988342 235.38138702 428.01422363 234.20533752 428.00839233 C230.58835482 427.98614571 226.97239213 427.93596928 223.35571289 427.88491821 C220.89153457 427.86483816 218.4273406 427.84659004 215.96313477 427.83023071 C209.94781751 427.78631933 203.93308811 427.71952465 197.91821289 427.63491821 C197.46211891 428.57259789 197.46211891 428.57259789 196.99681091 429.52922058 C193.32492973 436.69766643 186.62219408 439.44060478 179.35180664 441.82632446 C175.69721778 442.98675125 172.02756006 444.09305287 168.35571289 445.19741821 C166.29311013 445.8348317 164.23111757 446.47422245 162.16967773 447.11538696 C157.59793464 448.53329696 153.02249462 449.93837116 148.4440918 451.33462524 C140.4839742 453.76361774 132.53453281 456.22636416 124.58618164 458.69351196 C121.70331863 459.58806134 118.82041461 460.48247851 115.9375 461.37686157 C115.21041745 461.60245915 114.4833349 461.82805674 113.73421955 462.06049061 C108.48222314 463.68967863 103.22891664 465.31459693 97.97509766 466.93789673 C78.24029343 473.03707683 58.52589901 479.19844877 38.82793045 485.41556454 C33.40622498 487.12671694 27.98330361 488.83396958 22.55981445 490.53945923 C19.57500943 491.47849919 16.5903156 492.41789169 13.60571289 493.35757446 C12.52192982 493.69877917 12.52192982 493.69877917 11.41625214 494.04687691 C2.98633276 496.70235928 -5.43352266 499.38543225 -13.83840942 502.11938477 C-18.01443595 503.47623584 -22.19514467 504.81824818 -26.37664795 506.15811157 C-28.22093453 506.75392802 -30.06276983 507.35740329 -31.90167236 507.96963501 C-56.12033239 516.03277805 -56.12033239 516.03277805 -67.58178711 511.13491821 C-77.04004716 504.87302257 -80.16391605 496.11179472 -83.37866211 485.69741821 C-83.84895315 484.22579192 -84.32089073 482.75469092 -84.79437256 481.28408813 C-86.01247694 477.48199459 -87.20539735 473.67253856 -88.38961792 469.85977173 C-89.05158944 467.7319832 -89.71887862 465.60595915 -90.38867188 463.48062134 C-93.18418075 454.60876938 -95.92828136 445.72162013 -98.65762329 436.82922363 C-100.80652079 429.83487403 -102.96850192 422.84454557 -105.12866211 415.85366821 C-105.37391632 415.05959061 -105.61917053 414.265513 -105.87185669 413.44737244 C-111.13421788 396.41292954 -116.49050013 379.40859483 -121.86320496 362.40869141 C-129.91070277 336.94440076 -137.8767392 311.45654413 -145.75963593 285.94082642 C-153.16247415 261.98017402 -160.65541592 238.04916514 -168.20678711 214.13491821 C-180.49191634 175.22673193 -180.49191634 175.22673193 -186.45678711 155.82241821 C-186.70076233 155.02964478 -186.94473755 154.23687134 -187.19610596 153.42007446 C-194.17644709 130.71622841 -194.17644709 130.71622841 -189.39819336 119.99429321 C-182.04634095 106.8176794 -164.79175689 104.56278176 -151.45678711 100.44741821 C-149.42588164 99.81734752 -147.39512526 99.18679611 -145.36450195 98.55581665 C-141.95497237 97.4964124 -138.54534124 96.43734483 -135.13528442 95.37963867 C-124.24267571 92.00018031 -113.35705485 88.59852922 -102.47241211 85.19351196 C-100.66529429 84.62826753 -98.85817556 84.06302604 -97.05105591 83.49778748 C-93.41619927 82.36081159 -89.78136407 81.22376722 -86.14654541 80.08666992 C-84.79886456 79.66506907 -84.79886456 79.66506907 -83.42395782 79.23495102 C-81.61332151 78.66851614 -79.80268816 78.10207175 -77.9920578 77.53561783 C-72.76700978 75.90102819 -67.54178365 74.26701009 -62.31630707 72.63379097 C-60.708477 72.13115189 -59.1007124 71.62830333 -57.4930191 71.12522697 C-52.69106443 69.62264435 -47.88710417 68.12671287 -43.08178711 66.63491821 C-42.04076843 66.30818115 -40.99974976 65.98144409 -39.92718506 65.64480591 C-39.03380432 65.36858398 -38.14042358 65.09236206 -37.2199707 64.80776978 C-36.47814545 64.57656433 -35.73632019 64.34535889 -34.97201538 64.10714722 C-33.08178711 63.63491821 -33.08178711 63.63491821 -30.08178711 63.63491821 C-30.10535278 61.84259766 -30.10535278 61.84259766 -30.12939453 60.0140686 C-30.18402486 55.54685303 -30.21825681 51.07966652 -30.24658203 46.61221313 C-30.26159363 44.68507915 -30.28200927 42.75797889 -30.30810547 40.83096313 C-30.34482654 38.04808182 -30.36159003 35.26565533 -30.37475586 32.48257446 C-30.39023972 31.63220108 -30.40572357 30.7818277 -30.42167664 29.90568542 C-30.42426767 20.52722503 -27.76575893 12.35897155 -21.08178711 5.63491821 C-14.24903147 1.03094214 -8.09863549 -0.09184642 0 0 Z M-12.08178711 22.63491821 C-12.824015 25.75019722 -12.824015 25.75019722 -12.7081995 29.20202637 C-12.71516711 29.85125635 -12.72213472 30.50048634 -12.72931346 31.16938996 C-12.74658137 33.34844129 -12.72818257 35.52571991 -12.7099762 37.70474243 C-12.71502057 39.2811762 -12.72224855 40.85760425 -12.73147434 42.43401909 C-12.75043939 46.76866264 -12.73813914 51.10274361 -12.7207514 55.43737316 C-12.70740302 60.11093846 -12.72280539 64.78442006 -12.73457336 69.45797729 C-12.75297324 78.61452416 -12.74442199 87.77085793 -12.72648514 96.9273982 C-12.71247178 104.36766028 -12.70856362 111.80786442 -12.71192741 119.24813843 C-12.71240486 120.30620536 -12.7128823 121.36427229 -12.71337421 122.45440185 C-12.71440052 124.60369954 -12.71545587 126.75299721 -12.71653997 128.90229487 C-12.72511179 147.91672764 -12.70841641 166.93105739 -12.67871094 185.94546509 C-12.64987239 204.40514453 -12.64278938 222.86467555 -12.65820312 241.32437134 C-12.67495595 261.41534996 -12.67900886 281.50625809 -12.66149276 301.59723854 C-12.65964834 303.73872502 -12.65781361 305.8802115 -12.65598869 308.021698 C-12.6550766 309.07540962 -12.65416451 310.12912124 -12.65322478 311.21476352 C-12.64761368 318.64793832 -12.65093192 326.08107876 -12.65753365 333.51425171 C-12.66525713 342.57017224 -12.65854982 351.62594654 -12.63335861 360.68183756 C-12.62084066 365.304223 -12.61474477 369.92638053 -12.62590027 374.54877472 C-12.63591398 378.77784028 -12.62754469 383.00645055 -12.60431909 387.23546052 C-12.59914404 388.76768369 -12.60074991 390.29994739 -12.60971374 391.83215308 C-12.62086789 393.91125398 -12.60752157 395.98880443 -12.58794498 398.06781006 C-12.5867535 399.22362642 -12.58556202 400.37944279 -12.58433443 401.57028389 C-11.97366074 405.29429448 -10.68751464 406.95613523 -8.08178711 409.63491821 C-5.77919555 410.78621399 -4.4782828 410.76409321 -1.91687393 410.7719326 C-0.59972755 410.77954442 -0.59972755 410.77954442 0.74402785 410.78731 C1.71462842 410.78780776 2.68522899 410.78830552 3.6852417 410.78881836 C4.71177235 410.79320061 5.738303 410.79758287 6.79594064 410.80209792 C10.25824933 410.81552245 13.72053255 410.82167296 17.18286133 410.82778931 C19.65614946 410.83568735 22.12943643 410.84395611 24.60272217 410.85256958 C32.04135389 410.87655585 39.47998143 410.89172222 46.91863859 410.90462965 C49.01919401 410.90834088 51.11974877 410.91231417 53.22030354 410.91638231 C66.26078318 410.94161827 79.30126386 410.96367427 92.34176254 410.97611046 C95.36301426 410.97904022 98.38426594 410.98200187 101.40551758 410.98501587 C102.15644763 410.98576192 102.90737769 410.98650797 103.68106321 410.98727663 C115.84695693 410.99993151 128.01270454 411.03315568 140.17852995 411.0748177 C152.66526025 411.11722858 165.15191574 411.14080451 177.63871789 411.14603102 C184.65110849 411.14944614 191.66327076 411.16121279 198.67559052 411.19413376 C205.27147041 411.22504864 211.86702422 411.23055586 218.46298981 411.21875 C220.88577253 411.21852857 223.30857329 411.22689063 225.73129272 411.24440384 C229.03576215 411.26699335 232.33877398 411.25884665 235.64324951 411.24291992 C236.60492719 411.25680201 237.56660488 411.2706841 238.55742431 411.28498685 C243.11693094 411.23073667 247.47920245 411.09242834 250.89378834 407.65025783 C253.49559543 402.53175019 252.72489639 396.13944976 252.66665649 390.520401 C252.67213689 388.93912707 252.68024038 387.35786041 252.6907438 385.77661186 C252.71194825 381.42854298 252.69564131 377.08129453 252.67324281 372.73326123 C252.65558112 368.04539396 252.6724392 363.35763537 252.68496704 358.66976929 C252.70395994 349.48544479 252.6907291 340.30143418 252.66644116 331.11713295 C252.63922358 320.42758146 252.64247484 309.73810506 252.64670782 299.04852773 C252.65308998 279.97968514 252.62973804 260.9109919 252.59057617 241.8421936 C252.55256145 223.32717338 252.53840215 204.81232818 252.54956055 186.29727173 C252.56166827 166.14733413 252.56133686 145.99747354 252.53858888 125.84754235 C252.53617423 123.70017596 252.53376226 121.55280958 252.531353 119.40544319 C252.53014592 118.34882675 252.52893884 117.2922103 252.52769519 116.20357518 C252.51992748 108.74739147 252.52072772 101.29123639 252.52452469 93.83505058 C252.52876306 84.75274401 252.51836254 75.67059096 252.48929758 66.5883277 C252.47478177 61.95189405 252.46667905 57.31568431 252.4757843 52.67923164 C252.48391005 48.43849148 252.4736849 44.19821453 252.44853215 39.95754481 C252.44265437 38.41995905 252.44357411 36.88232988 252.4518183 35.34475499 C252.46198121 33.26081014 252.44773082 31.17843061 252.42716408 29.09459591 C252.42543052 27.93536206 252.42369697 26.77612821 252.42191088 25.58176607 C251.81031097 22.00364603 250.72423218 20.85857675 247.91821289 18.63491821 C245.61119487 17.4814092 244.30181688 17.50572335 241.73488903 17.49790382 C240.41159251 17.49029201 240.41159251 17.49029201 239.06156272 17.48252642 C237.59880226 17.48177979 237.59880226 17.48177979 236.10649109 17.48101807 C234.55951144 17.47444469 234.55951144 17.47444469 232.98127967 17.46773851 C229.50281748 17.45431391 226.02438063 17.44816347 222.54589844 17.44204712 C220.0611357 17.43414913 217.57637413 17.42588037 215.09161377 17.41726685 C207.61887507 17.39328139 200.14614054 17.37811494 192.67337653 17.36520678 C190.56343454 17.36149567 188.45349321 17.35752238 186.34355187 17.35345411 C173.24627445 17.32821979 160.14899601 17.30616268 147.05169964 17.29372597 C144.01737654 17.29079618 140.98305348 17.28783453 137.94873047 17.28482056 C137.19454749 17.28407451 136.4403645 17.28332846 135.66332749 17.2825598 C123.4417931 17.26990198 111.22040405 17.23667368 98.99893763 17.19501872 C86.45684155 17.15262066 73.91481992 17.12903346 61.37265235 17.1238054 C54.32843606 17.12038898 47.28444697 17.10860684 40.24030113 17.07570267 C33.61569749 17.04480924 26.99141861 17.03927333 20.36672974 17.05108643 C17.93223915 17.05130802 15.49773069 17.04293259 13.06330299 17.02543259 C9.74534729 17.00287522 6.42884683 17.01097463 3.11088562 17.0269165 C2.14240415 17.01303442 1.17392268 16.99915233 0.17609328 16.98484957 C-0.71392765 16.99542151 -1.60394857 17.00599345 -2.52093983 17.01688576 C-3.28651103 17.01552923 -4.05208223 17.0141727 -4.84085256 17.01277506 C-8.34578789 17.98583851 -9.86501773 19.81065902 -12.08178711 22.63491821 Z M-36.47631836 83.02554321 C-37.77508911 83.46845703 -37.77508911 83.46845703 -39.10009766 83.9203186 C-40.02218018 84.23863647 -40.9442627 84.55695435 -41.89428711 84.88491821 C-49.08714443 87.32972093 -56.26774583 89.59110974 -63.58959961 91.61538696 C-67.64992145 92.80078294 -71.64127403 94.14586446 -75.64428711 95.50991821 C-81.76844765 97.58860828 -87.91181277 99.47251689 -94.14428711 101.19741821 C-111.15277204 105.93781339 -127.93340836 111.48036663 -144.74017334 116.88320923 C-146.90550497 117.57832781 -149.07177968 118.27039426 -151.23852539 118.96109009 C-154.64798671 120.05061492 -158.05323153 121.1521079 -161.45678711 122.25991821 C-162.8979187 122.71890503 -162.8979187 122.71890503 -164.36816406 123.18716431 C-165.66113403 123.61376343 -165.66113403 123.61376343 -166.98022461 124.04898071 C-167.70902832 124.28568481 -168.43783203 124.52238892 -169.1887207 124.76626587 C-171.50104417 125.82729848 -172.64345622 126.5087636 -174.08178711 128.63491821 C-174.34927898 133.38473653 -173.85639874 137.21353014 -172.41137695 141.72866821 C-172.04103836 142.90330124 -171.67069977 144.07793427 -171.28913879 145.28816223 C-170.87379521 146.57045563 -170.45831948 147.85270623 -170.04272461 149.13491821 C-169.60934816 150.49780514 -169.17693415 151.86099842 -168.7454071 153.22447205 C-167.81570824 156.15588561 -166.87998865 159.08528035 -165.93948364 162.01324463 C-164.43163186 166.7083482 -162.9377186 171.40780975 -161.44677734 176.10830688 C-161.19390929 176.90541297 -160.94104124 177.70251905 -160.68051052 178.52377987 C-160.1646649 180.14989349 -159.64885541 181.77601857 -159.13308144 183.40215492 C-158.34529791 185.88435662 -157.55622857 188.36614655 -156.76689148 190.84785461 C-151.92864253 206.06744865 -147.19924064 221.31977485 -142.49176025 236.58023071 C-134.61086126 262.12682325 -126.63474896 287.64206945 -118.58178711 313.13491821 C-111.45174969 335.70611237 -104.37582214 358.29280258 -97.38473511 380.90744019 C-96.03138132 385.28453781 -94.67518641 389.66075165 -93.31835938 394.03677368 C-92.64230851 396.21755076 -91.96628367 398.39833589 -91.29026985 400.57912445 C-90.83903068 402.03478682 -90.38776093 403.4904397 -89.93646049 404.94608307 C-87.04226305 414.28266801 -84.16188128 423.62337603 -81.29463863 432.96827412 C-79.27847273 439.53646572 -77.25076426 446.10103049 -75.21521854 452.66324139 C-74.00221647 456.57547959 -72.79483748 460.48924984 -71.60128784 464.4074707 C-70.49308264 468.04535609 -69.3703711 471.67843679 -68.23638916 475.30836678 C-67.82383523 476.63816648 -67.41666204 477.96964954 -67.01535034 479.30288506 C-64.4491985 488.71422015 -64.4491985 488.71422015 -58.08178711 495.63491821 C-51.08803749 495.73493883 -44.4708685 493.01066655 -37.89428711 490.82241821 C-35.65225321 490.0901769 -33.4100674 489.35840054 -31.16772461 488.62710571 C-30.10650391 488.27873657 -29.0452832 487.93036743 -27.9519043 487.57144165 C-24.65088294 486.49431355 -21.34070538 485.45973965 -18.01928711 484.44741821 C-13.43027795 483.04862933 -8.84778101 481.63021491 -4.26928711 480.19741821 C-3.59696045 479.98705933 -2.92463379 479.77670044 -2.23193359 479.55996704 C-0.8646406 479.13206556 0.50262813 478.70408657 1.86987305 478.27603149 C5.21894647 477.22779945 8.56860474 476.18144 11.91821289 475.13491821 C13.25154912 474.71826082 14.58488245 474.30159414 15.91821289 473.88491821 C39.91821289 466.38491821 63.91821289 458.88491821 87.91821289 451.38491821 C88.54087036 451.19033524 89.16352783 450.99575226 89.80505371 450.79527283 C91.77961212 450.17823045 93.75418538 449.56123562 95.72875977 448.94424438 C98.27705839 448.14791943 100.82522829 447.35118749 103.37329102 446.55410767 C115.38439443 442.79776791 127.40123281 439.05990756 139.41821289 435.32241821 C141.51326795 434.67073507 143.60832005 434.01904242 145.70336914 433.36734009 C150.77494974 431.78975687 155.84656651 430.21228997 160.91821289 428.63491821 C160.91821289 428.30491821 160.91821289 427.97491821 160.91821289 427.63491821 C160.05129633 427.63437345 159.18437977 427.63382868 158.29119301 427.6332674 C137.17421646 427.61828475 116.05745068 427.5757778 94.94059181 427.50282764 C84.72851815 427.4682093 74.51657903 427.44282626 64.30444336 427.43936157 C55.40108484 427.43631729 46.49796614 427.41576446 37.59470022 427.37439364 C32.88264289 427.35310407 28.17092615 427.34044222 23.45882034 427.34876442 C19.01812036 427.3563302 14.57810904 427.34037972 10.1375351 427.30685806 C8.51307326 427.29865512 6.88854255 427.2988389 5.26408768 427.308321 C-5.07650682 427.36267518 -13.31296707 426.51622748 -21.51928711 419.57241821 C-22.03491211 418.93304321 -22.55053711 418.29366821 -23.08178711 417.63491821 C-23.61803711 416.99554321 -24.15428711 416.35616821 -24.70678711 415.69741821 C-27.4915276 411.52030748 -28.33204088 407.89948422 -28.34350014 402.91279888 C-28.35096563 401.76377329 -28.35843112 400.61474769 -28.36612284 399.43090314 C-28.36322074 397.54423931 -28.36322074 397.54423931 -28.36026001 395.61946106 C-28.36526362 394.26633267 -28.37113961 392.91320726 -28.37781274 391.56008607 C-28.39361891 387.84305286 -28.39704376 384.12609522 -28.39846134 380.40903246 C-28.40215431 376.40019936 -28.41730928 372.39140776 -28.43107605 368.38259888 C-28.45335593 361.43747072 -28.46836484 354.49235732 -28.47844315 347.54720116 C-28.4930252 337.50566158 -28.5185607 327.4641734 -28.54677443 317.42266396 C-28.59225103 301.13120568 -28.62886225 284.83973999 -28.65991211 268.54824829 C-28.69009409 252.7220632 -28.72444275 236.89589621 -28.7644043 221.06973267 C-28.76809662 219.60658176 -28.76809662 219.60658176 -28.77186354 218.11387225 C-28.78423807 213.22043395 -28.79669462 208.32699586 -28.80919194 203.43355787 C-28.91277273 162.83403649 -29.00197171 122.23449283 -29.08178711 81.63491821 C-32.029506 81.63491821 -33.72655578 82.07531857 -36.47631836 83.02554321 Z " fill="#020100" transform="translate(217.081787109375,-0.634918212890625)"/>
<path d="M0 0 C2.06183633 -0.08150744 4.12461349 -0.1394194 6.1875 -0.1875 C7.33605469 -0.22230469 8.48460937 -0.25710937 9.66796875 -0.29296875 C13.3044035 0.02676467 15.1105914 0.81841727 18 3 C19.39686165 5.7937233 19.13206294 8.08627234 19.1398077 11.21358204 C19.14423484 12.18476728 19.14423484 12.18476728 19.14875141 13.17557243 C19.15747991 15.36606865 19.15902643 17.55651231 19.16062927 19.74702454 C19.16535768 21.32498701 19.17050823 22.90294826 19.17604691 24.4809081 C19.18998561 28.83353633 19.19754577 33.18615617 19.2040199 37.53880107 C19.21038146 41.26801044 19.22045282 44.99720597 19.23058056 48.72640673 C19.26393664 61.0140103 19.28543064 73.30162229 19.30378041 85.58925632 C19.30857336 88.7871744 19.31355691 91.98509214 19.31858563 95.18300986 C19.34955201 115.02739946 19.3762467 134.87179193 19.39300442 154.71619892 C19.39695413 159.3146242 19.4009571 163.91304943 19.4050293 168.51147461 C19.40603766 169.65443751 19.40704602 170.79740041 19.40808494 171.97499856 C19.4251016 190.5013913 19.46622082 209.0276507 19.51705229 227.5539783 C19.5687718 246.55974395 19.5979391 265.56544092 19.6052013 284.57127637 C19.60987045 295.2484275 19.62469389 305.92536018 19.6649456 316.60244179 C19.69917485 325.69321006 19.7132138 334.7837205 19.70052146 343.87454955 C19.69467804 348.5152776 19.69867614 353.15545988 19.7286911 357.79610634 C19.75593007 362.04208078 19.75564941 366.28711853 19.73318065 370.53311267 C19.72994167 372.07150343 19.73691916 373.60995553 19.75497787 375.1482437 C19.87765294 386.2696128 19.87765294 386.2696128 17.97728205 390.01639849 C14.56102862 393.46174126 10.19172305 393.59436572 5.62988722 393.64540654 C4.6668453 393.63084234 3.70380338 393.61627813 2.71157837 393.60127258 C1.67739663 393.60554471 0.64321488 393.60981683 -0.4223057 393.61421841 C-3.88663309 393.62245227 -7.34974905 393.5949552 -10.81396484 393.56762695 C-13.29757661 393.56621658 -15.78119047 393.56700825 -18.26480103 393.56983948 C-23.61127668 393.57097796 -28.95737546 393.55679974 -34.3037529 393.52865028 C-42.03360491 393.48797802 -49.76330947 393.4749893 -57.49325688 393.46871033 C-70.03513909 393.45777295 -82.5768585 393.42451397 -95.11865234 393.37719727 C-107.3002847 393.3312872 -119.4818728 393.2959024 -131.66357422 393.2746582 C-132.41472076 393.27334459 -133.16586731 393.27203097 -133.93977587 393.27067754 C-137.70813774 393.26415226 -141.47649992 393.25783374 -145.24486232 393.25161803 C-176.49669325 393.19980237 -207.74832188 393.11138014 -239 393 C-239 392.67 -239 392.34 -239 392 C-159.8 392 -80.6 392 1 392 C1.02912306 322.93457092 1.02912306 322.93457092 1.04882812 253.86914062 C1.05078611 244.56811522 1.05280663 235.26708982 1.05493164 225.96606445 C1.05519539 224.80026999 1.05545914 223.63447553 1.05573088 222.43335396 C1.06008478 203.59195258 1.06797113 184.75055425 1.0771528 165.90915468 C1.08649155 146.58479832 1.09205608 127.26044356 1.09408849 107.93608505 C1.09546326 96.00392726 1.09981135 84.07177805 1.10791647 72.1396229 C1.11318665 63.96656609 1.11480367 55.79351374 1.11350138 47.62045535 C1.11285843 42.89918156 1.1138707 38.17792282 1.11920547 33.45665169 C1.12404827 29.13945005 1.12433279 24.82227367 1.12089889 20.5050709 C1.12047408 18.93840558 1.1217624 17.37173872 1.12488318 15.80507644 C1.12886319 13.68478643 1.12675328 11.56458907 1.12304783 9.44430065 C1.12361741 7.67347489 1.12361741 7.67347489 1.1241985 5.86687487 C1.12842804 2.92716549 1.12842804 2.92716549 0 0 Z " fill="#C61E1E" transform="translate(450,17)"/>
<path d="M0 0 C0.00059709 0.68888432 0.00119418 1.37776863 0.00180936 2.08752823 C0.03770072 42.91342644 0.0943357 83.73924997 0.17792095 124.56507975 C0.18793845 129.46672604 0.19778257 134.36837267 0.20751953 139.27001953 C0.2094609 140.24585208 0.21140228 141.22168463 0.21340248 142.22708786 C0.24442637 158.02910386 0.26140422 173.83110533 0.27319422 189.63314605 C0.28560376 205.84664406 0.31310072 222.06006582 0.35461307 238.2735157 C0.37975409 248.27866775 0.39311684 258.28369335 0.39142957 268.28887743 C0.39139983 275.1491482 0.40602075 282.00929014 0.43216428 288.86951071 C0.44681676 292.8279532 0.45500767 296.78613148 0.44580269 300.74459648 C0.43751303 304.37081354 0.44767746 307.99649986 0.47233662 311.62263823 C0.48070375 313.55132734 0.46948471 315.48007096 0.45750165 317.408741 C0.52716923 324.43781644 1.29213998 328.99274965 5 335 C5.33 335.66 5.66 336.32 6 337 C-0.64481073 337.54966265 -5.55682714 337.42683011 -11.24609375 333.77734375 C-16.73708855 328.21297263 -17.46266591 323.3279217 -17.51632524 315.74720722 C-17.50467387 314.52638461 -17.4930225 313.30556199 -17.48101807 312.04774475 C-17.48443577 310.73911057 -17.48785347 309.4304764 -17.49137473 308.08218664 C-17.5002982 304.46072149 -17.48434778 300.83973156 -17.46426249 297.21832693 C-17.4469637 293.30907512 -17.4528359 289.39984939 -17.45587158 285.49057007 C-17.45796741 278.72111237 -17.44543392 271.95180908 -17.42292023 265.18239021 C-17.39039065 255.39501375 -17.37999223 245.60771183 -17.37496826 235.82028716 C-17.36621711 219.94028911 -17.33960642 204.06037332 -17.30175781 188.18041992 C-17.26503307 172.75594494 -17.23672357 157.33149231 -17.21972656 141.90698242 C-17.21867567 140.9559699 -17.21762477 140.00495737 -17.21654204 139.02512629 C-17.21132183 134.25410214 -17.20626701 129.48307783 -17.20129442 124.71205342 C-17.159838 85.14131135 -17.08939446 45.57066111 -17 6 C-17.66 5.67 -18.32 5.34 -19 5 C-16.39741676 4.16142312 -13.79314353 3.32896656 -11.1875 2.5 C-10.08051758 2.14228516 -10.08051758 2.14228516 -8.95117188 1.77734375 C-5.86744804 0.80059864 -3.25504191 0 0 0 Z " fill="#F9BD07" transform="translate(188,81)"/>
<path d="M0 0 C3.38677089 2.45000447 4.78698584 3.86392446 5.5625 8 C4.85524081 11.77204904 3.6628603 13.24748753 1 16 C-2.11621094 17.39379883 -2.11621094 17.39379883 -5.734375 18.45703125 C-6.37240051 18.64972092 -7.01042603 18.84241058 -7.66778564 19.04093933 C-9.69074168 19.64784783 -11.71978085 20.23040751 -13.75 20.8125 C-15.12937966 21.22171489 -16.50829262 21.63250646 -17.88671875 22.04492188 C-21.25260604 23.048246 -24.62437471 24.02987244 -28 25 C-26.95686781 30.10574107 -25.73287497 35.04313659 -24.04443359 39.97363281 C-19.39607564 53.61017233 -19.39607564 53.61017233 -21 60 C-23.53491894 63.13137045 -25.07490393 63.82654449 -29 64.5625 C-33.25124797 63.76539101 -34.40882523 62.47762929 -37 59 C-40.16528123 52.15551735 -41.98533323 44.74925734 -43.98046875 37.5 C-44.9627781 34.12778092 -46.11222048 30.8622375 -47.3125 27.5625 C-48.9099661 22.80179744 -49.6944612 19.78436105 -48 15 C-43.66185079 10.53790367 -38.35970338 9.23126265 -32.5625 7.5 C-31.58273193 7.19956787 -30.60296387 6.89913574 -29.59350586 6.58959961 C-27.63429948 5.99163803 -25.6734615 5.39899318 -23.7109375 4.81201172 C-21.36489986 4.10929907 -19.0254785 3.38908849 -16.6875 2.66015625 C-10.93242064 0.9175083 -6.07338339 -0.42355747 0 0 Z " fill="#FFFEFA" transform="translate(113,124)"/>
<path d="M0 0 C0.86653702 -0.00478363 1.73307404 -0.00956726 2.62586975 -0.01449585 C4.45396749 -0.01789007 6.28212632 -0.00872098 8.11010742 0.01220703 C10.89836021 0.03894936 13.68257609 0.01246244 16.47070312 -0.01953125 C18.25131092 -0.01622643 20.03191621 -0.00981869 21.8125 0 C22.64079819 -0.01012115 23.46909637 -0.02024231 24.32249451 -0.03067017 C28.49466429 0.05317774 31.19242531 0.41364555 34.51342773 3.05859375 C36.97265625 5.6640625 36.97265625 5.6640625 37.48046875 8.015625 C37.29097656 9.14097656 37.29097656 9.14097656 37.09765625 10.2890625 C36.99710937 11.04445313 36.8965625 11.79984375 36.79296875 12.578125 C35.69125085 15.37963623 34.56935217 16.14312532 31.97265625 17.6640625 C28.85644531 18.00463867 28.85644531 18.00463867 25.23828125 17.95703125 C23.94277344 17.94736328 22.64726562 17.93769531 21.3125 17.92773438 C19.94921271 17.90267033 18.58593146 17.87727552 17.22265625 17.8515625 C15.84376441 17.83650768 14.4648569 17.82282067 13.0859375 17.81054688 C9.7144471 17.77518159 6.34374971 17.72582154 2.97265625 17.6640625 C2.9883667 18.48608154 3.00407715 19.30810059 3.02026367 20.1550293 C3.08270698 23.88713678 3.12167761 27.61913422 3.16015625 31.3515625 C3.18529297 32.64513672 3.21042969 33.93871094 3.23632812 35.27148438 C3.24599609 36.51865234 3.25566406 37.76582031 3.265625 39.05078125 C3.28133545 40.19764404 3.2970459 41.34450684 3.31323242 42.52612305 C2.93441092 46.01644048 2.06107527 47.87051249 -0.02734375 50.6640625 C-3.16605563 52.23341844 -5.56590197 52.01607353 -9.02734375 51.6640625 C-11.78781879 49.66902152 -13.69779169 48.07774562 -14.49420166 44.66137695 C-14.68957227 42.22159464 -14.72036713 39.83028101 -14.69140625 37.3828125 C-14.69618988 36.49170776 -14.70097351 35.60060303 -14.7059021 34.68249512 C-14.70929647 32.80312326 -14.70012637 30.923692 -14.67919922 29.04443359 C-14.65242531 26.17281052 -14.67896086 23.30509571 -14.7109375 20.43359375 C-14.70763332 18.60415807 -14.70122691 16.77472481 -14.69140625 14.9453125 C-14.7015274 14.08997925 -14.71164856 13.234646 -14.72207642 12.35339355 C-14.64149137 8.24082711 -14.33856095 6.14232023 -12.05004883 2.62548828 C-7.93861834 -0.0424087 -4.80840971 -0.05861176 0 0 Z " fill="#FEFCFC" transform="translate(236.02734375,33.3359375)"/>
</svg>
