<?xml version="1.0" encoding="UTF-8"?>
<!DOCTYPE svg PUBLIC "-//W3C//DTD SVG 1.1//EN" "http://www.w3.org/Graphics/SVG/1.1/DTD/svg11.dtd">
<svg xmlns="http://www.w3.org/2000/svg" version="1.1" width="512px" height="512px" style="shape-rendering:geometricPrecision; text-rendering:geometricPrecision; image-rendering:optimizeQuality; fill-rule:evenodd; clip-rule:evenodd" xmlns:xlink="http://www.w3.org/1999/xlink">
<g><path style="opacity:0.986" fill="#062a75" d="M 92.5,-0.5 C 102.5,-0.5 112.5,-0.5 122.5,-0.5C 140.573,2.69629 157.239,9.52962 172.5,20C 204,50.1667 234.833,81 265,112.5C 286.948,145.188 291.615,180.188 279,217.5C 284.015,222.682 289.181,227.682 294.5,232.5C 331.48,219.665 366.147,224.165 398.5,246C 430,276.167 460.833,307 491,338.5C 501.47,353.761 508.304,370.427 511.5,388.5C 511.5,398.5 511.5,408.5 511.5,418.5C 500.833,469.833 469.833,500.833 418.5,511.5C 408.5,511.5 398.5,511.5 388.5,511.5C 370.427,508.304 353.761,501.47 338.5,491C 307.333,461.167 276.833,430.667 247,399.5C 224.548,366.672 219.548,331.339 232,293.5C 226.985,288.318 221.819,283.318 216.5,278.5C 176.946,292.065 140.613,286.232 107.5,261C 79.6667,233.167 51.8333,205.333 24,177.5C 10.9005,161.306 2.73388,142.973 -0.5,122.5C -0.5,112.5 -0.5,102.5 -0.5,92.5C 10.1667,41.1667 41.1667,10.1667 92.5,-0.5 Z M 100.5,78.5 C 110.133,76.9673 118.8,79.134 126.5,85C 149.167,107.667 171.833,130.333 194.5,153C 171.79,157.04 157.29,170.206 151,192.5C 129,170.5 107,148.5 85,126.5C 75.3999,111.73 76.5666,97.8969 88.5,85C 92.4339,82.5361 96.4339,80.3694 100.5,78.5 Z M 357.5,316.5 C 382.524,340.357 406.691,365.024 430,390.5C 435.816,405.708 432.316,418.208 419.5,428C 407.414,434.494 395.748,433.827 384.5,426C 361.833,403.333 339.167,380.667 316.5,358C 334.851,355.912 347.684,346.412 355,329.5C 356.631,325.312 357.464,320.979 357.5,316.5 Z"/></g>
<g><path style="opacity:1" fill="#ba99f3" d="M 263.5,159.5 C 254.594,150.092 244.928,141.592 234.5,134C 222.07,127.059 208.737,123.559 194.5,123.5C 175.701,105.202 157.035,86.7017 138.5,68C 110.916,50.8094 86.7495,54.6427 66,79.5C 54.2647,99.5535 54.9313,119.22 68,138.5C 86.7017,157.035 105.202,175.701 123.5,194.5C 123.658,214.805 130.491,232.472 144,247.5C 149.37,252.702 154.536,258.035 159.5,263.5C 144.934,260.55 131.934,254.383 120.5,245C 93.6667,218.167 66.8333,191.333 40,164.5C 18.3062,135.976 13.9729,104.976 27,71.5C 45.7403,34.5395 75.9069,17.3728 117.5,20C 135.14,22.2076 150.807,28.8743 164.5,40C 191.333,66.8333 218.167,93.6667 245,120.5C 254.385,131.938 260.552,144.938 263.5,159.5 Z"/></g>
<g><path style="opacity:0.953" fill="#fdcb4f" d="M 329.5,33.5 C 338.803,33.6348 342.97,38.3014 342,47.5C 338.254,65.562 334.254,83.562 330,101.5C 326.345,106.275 321.512,107.775 315.5,106C 310.789,101.86 309.289,96.6938 311,90.5C 314.539,73.8049 318.206,57.1383 322,40.5C 323.632,37.1234 326.132,34.79 329.5,33.5 Z"/></g>
<g><path style="opacity:0.969" fill="#fdcc4e" d="M 424.5,73.5 C 431.927,73.2092 436.26,76.7092 437.5,84C 437.109,87.1766 435.943,90.01 434,92.5C 416.833,109.667 399.667,126.833 382.5,144C 377.704,147.91 372.704,148.243 367.5,145C 362.545,139.612 362.378,134.112 367,128.5C 384.167,111.333 401.333,94.1667 418.5,77C 420.432,75.5415 422.432,74.3748 424.5,73.5 Z"/></g>
<g><path style="opacity:1" fill="#6763f5" d="M 194.5,123.5 C 208.737,123.559 222.07,127.059 234.5,134C 244.928,141.592 254.594,150.092 263.5,159.5C 266.295,173.544 265.795,187.544 262,201.5C 250,189.5 238,177.5 226,165.5C 224.217,159.933 221.883,154.599 219,149.5C 210.995,140.662 202.828,131.995 194.5,123.5 Z"/></g>
<g><path style="opacity:0.955" fill="#fdcb4f" d="M 464.5,168.5 C 476.458,169.531 479.958,175.531 475,186.5C 473.581,187.46 472.081,188.293 470.5,189C 452.257,193.282 433.924,197.115 415.5,200.5C 405.99,199.812 402.49,194.812 405,185.5C 406.167,183.667 407.667,182.167 409.5,181C 427.99,176.958 446.323,172.791 464.5,168.5 Z"/></g>
<g><path style="opacity:1" fill="#b998f2" d="M 192.5,173.5 C 199.51,173.006 205.843,174.839 211.5,179C 251.667,219.167 291.833,259.333 332,299.5C 341.305,315.26 337.805,327.427 321.5,336C 312.842,338.892 305.175,337.225 298.5,331C 259,291.5 219.5,252 180,212.5C 169.174,194.809 173.341,181.809 192.5,173.5 Z"/></g>
<g><path style="opacity:1" fill="#6763f5" d="M 123.5,194.5 C 130.965,201.464 138.298,208.631 145.5,216C 151.609,220.388 158.276,223.721 165.5,226C 177,237.5 188.5,249 200,260.5C 200.432,261.6 199.932,262.267 198.5,262.5C 185.514,265.909 172.514,266.242 159.5,263.5C 154.536,258.035 149.37,252.702 144,247.5C 130.491,232.472 123.658,214.805 123.5,194.5 Z"/></g>
<g><path style="opacity:1" fill="#6763f5" d="M 351.5,247.5 C 360.908,256.406 369.408,266.072 377,276.5C 383.986,288.936 387.486,302.269 387.5,316.5C 379.702,309.202 372.035,301.702 364.5,294C 358.561,290.197 352.227,287.197 345.5,285C 334,273.5 322.5,262 311,250.5C 310.544,249.256 311.044,248.423 312.5,248C 325.485,244.903 338.485,244.737 351.5,247.5 Z"/></g>
<g><path style="opacity:1" fill="#ba99f3" d="M 351.5,247.5 C 366.062,250.448 379.062,256.615 390.5,266C 417.333,292.833 444.167,319.667 471,346.5C 493.715,375.689 497.715,407.355 483,441.5C 463.401,477.693 432.901,494.193 391.5,491C 374.126,488.311 358.793,481.311 345.5,470C 319.333,443.833 293.167,417.667 267,391.5C 257.569,379.638 251.069,366.305 247.5,351.5C 256.406,360.908 266.072,369.408 276.5,377C 288.936,383.986 302.269,387.486 316.5,387.5C 334.965,405.465 353.299,423.632 371.5,442C 392.759,457.19 414.093,457.19 435.5,442C 452.623,425.958 457.457,406.791 450,384.5C 448.066,380.241 445.732,376.241 443,372.5C 424.298,353.965 405.798,335.299 387.5,316.5C 387.486,302.269 383.986,288.936 377,276.5C 369.408,266.072 360.908,256.406 351.5,247.5 Z"/></g>
<g><path style="opacity:0.955" fill="#fdcb50" d="M 90.5,310.5 C 102.542,308.71 107.709,313.71 106,325.5C 104.833,327.333 103.333,328.833 101.5,330C 82.3906,334.402 63.2239,338.569 44,342.5C 33.7931,339.713 31.2931,333.713 36.5,324.5C 37.6651,323.416 38.9984,322.583 40.5,322C 57.3386,318.336 74.0052,314.503 90.5,310.5 Z"/></g>
<g><path style="opacity:1" fill="#6763f5" d="M 316.5,387.5 C 302.269,387.486 288.936,383.986 276.5,377C 266.072,369.408 256.406,360.908 247.5,351.5C 244.514,338.236 244.847,325.07 248.5,312C 248.85,310.743 249.517,310.409 250.5,311C 262,322.5 273.5,334 285,345.5C 286.783,351.067 289.117,356.401 292,361.5C 300.005,370.338 308.172,379.005 316.5,387.5 Z"/></g>
<g><path style="opacity:0.969" fill="#fdcc51" d="M 135.5,363.5 C 142.692,363.693 146.692,367.359 147.5,374.5C 146.932,377.452 145.766,380.119 144,382.5C 126.833,399.667 109.667,416.833 92.5,434C 83.154,439.827 76.8206,437.493 73.5,427C 73.8907,423.823 75.0573,420.99 77,418.5C 94.1667,401.333 111.333,384.167 128.5,367C 130.713,365.384 133.047,364.217 135.5,363.5 Z"/></g>
<g><path style="opacity:0.954" fill="#fdcb4f" d="M 185.5,404.5 C 194.612,402.474 199.612,405.974 200.5,415C 197.181,433.596 193.347,452.096 189,470.5C 185.558,476.871 180.392,478.705 173.5,476C 170.335,473.844 168.668,470.844 168.5,467C 172.254,448.816 176.088,430.649 180,412.5C 181.104,409.279 182.937,406.612 185.5,404.5 Z"/></g>
</svg>
