<?xml version="1.0" encoding="UTF-8"?>
<!DOCTYPE svg PUBLIC "-//W3C//DTD SVG 1.1//EN" "http://www.w3.org/Graphics/SVG/1.1/DTD/svg11.dtd">
<svg xmlns="http://www.w3.org/2000/svg" version="1.1" width="100px" height="100px" style="shape-rendering:geometricPrecision; text-rendering:geometricPrecision; image-rendering:optimizeQuality; fill-rule:evenodd; clip-rule:evenodd" xmlns:xlink="http://www.w3.org/1999/xlink">
<g><path style="opacity:0.715" fill="#0c0b0d" d="M 18.5,1.5 C 26.9283,4.97224 34.7616,9.63891 42,15.5C 46.5,11 51,6.5 55.5,2C 56.5,1.33333 57.5,1.33333 58.5,2C 59.4945,8.09487 60.3279,14.2615 61,20.5C 68.9684,17.5372 77.1351,16.2039 85.5,16.5C 82.5,23.1667 79.5,29.8333 76.5,36.5C 82.1604,38.9948 87.4937,41.9948 92.5,45.5C 88.0356,48.5701 83.369,51.4034 78.5,54C 82.295,56.2129 85.6284,58.8796 88.5,62C 88.3552,62.772 88.0219,63.4387 87.5,64C 84.3435,64.742 81.6768,66.242 79.5,68.5C 81.8688,71.561 83.3688,74.8943 84,78.5C 80.2328,79.3682 76.3994,80.0349 72.5,80.5C 72.5,82.5 72.5,84.5 72.5,86.5C 70.2655,86.6199 68.0989,86.2865 66,85.5C 59.8613,93.6595 51.6946,96.4929 41.5,94C 34.9889,92.1558 30.3222,88.1558 27.5,82C 23.1275,81.9213 18.7942,82.4213 14.5,83.5C 13.8003,79.6744 14.8003,76.1744 17.5,73C 13.2934,71.4607 9.2934,69.6274 5.5,67.5C 8.66138,64.5085 11.9947,61.6752 15.5,59C 11.3179,54.985 7.31786,50.8183 3.5,46.5C 7.2934,44.3726 11.2934,42.5393 15.5,41C 11.3333,35.5 7.16667,30 3,24.5C 2.50999,23.2068 2.34332,21.8734 2.5,20.5C 9.16803,21.5003 15.8347,22.5003 22.5,23.5C 21.2951,16.1421 19.9617,8.80877 18.5,1.5 Z"/></g>
<g><path style="opacity:1" fill="#9b9bc3" d="M 22.5,5.5 C 29.149,9.80717 35.8157,14.1405 42.5,18.5C 47.1667,14.1667 51.8333,9.83333 56.5,5.5C 57.3703,11.1523 58.037,16.8189 58.5,22.5C 66.1179,20.8431 73.7846,19.6764 81.5,19C 78.5672,24.8669 75.9006,30.8669 73.5,37C 73.6448,37.772 73.9781,38.4387 74.5,39C 79.0875,40.6935 83.4209,42.8602 87.5,45.5C 83.1667,48.1667 78.8333,50.8333 74.5,53.5C 77.5203,56.5162 80.8536,59.1829 84.5,61.5C 81.6295,63.0967 78.9628,64.93 76.5,67C 78.2698,70.3662 79.6031,73.8662 80.5,77.5C 76.8333,77.5 73.1667,77.5 69.5,77.5C 69.5,79.5 69.5,81.5 69.5,83.5C 68.1667,83.5 66.8333,83.5 65.5,83.5C 66.1949,79.0549 67.3616,74.7215 69,70.5C 75.4767,66.6623 75.9767,62.3289 70.5,57.5C 69.5171,51.1892 68.6838,44.8559 68,38.5C 63.4089,24.9439 53.9089,19.1105 39.5,21C 33.7284,23.1055 29.5617,26.9389 27,32.5C 25.3619,40.7525 24.1953,49.0859 23.5,57.5C 19.5261,60.0623 18.6927,63.3957 21,67.5C 25.4263,70.2675 27.2596,74.2675 26.5,79.5C 23.1105,79.6321 19.7772,79.7988 16.5,80C 18.0406,77.0844 19.7073,74.2511 21.5,71.5C 17.5159,70.0021 13.5159,68.5021 9.5,67C 13.1983,64.814 16.5317,62.1473 19.5,59C 15.5,55 11.5,51 7.5,47C 11.5159,45.4979 15.5159,43.9979 19.5,42.5C 15.1667,36.5 10.8333,30.5 6.5,24.5C 6.83333,24.1667 7.16667,23.8333 7.5,23.5C 13.4233,24.9317 19.4233,25.9317 25.5,26.5C 24.3703,19.5184 23.3703,12.5184 22.5,5.5 Z"/></g>
<g><path style="opacity:1" fill="#454557" d="M 26.5,16.5 C 28.0863,18.0808 29.0863,20.0808 29.5,22.5C 29.1667,22.8333 28.8333,23.1667 28.5,23.5C 27.5793,21.2235 26.9126,18.8901 26.5,16.5 Z"/></g>
<g><path style="opacity:1" fill="#393947" d="M 11.5,27.5 C 12.0768,26.2267 12.7435,26.2267 13.5,27.5C 15.1392,28.916 15.9725,30.5826 16,32.5C 14.264,30.9368 12.764,29.2701 11.5,27.5 Z"/></g>
<g><path style="opacity:1" fill="#f6cfae" d="M 39.5,22.5 C 60.4222,22.7666 69.7556,33.4333 67.5,54.5C 67.866,65.2489 66.0326,75.5822 62,85.5C 51.7464,95.0781 41.7464,94.7448 32,84.5C 27.6648,75.0224 25.8315,65.0224 26.5,54.5C 25.8478,45.744 27.3478,37.4107 31,29.5C 33.4412,26.5464 36.2745,24.2131 39.5,22.5 Z"/></g>
<g><path style="opacity:1" fill="#655447" d="M 49.5,28.5 C 54.0214,28.3262 54.3548,28.9929 50.5,30.5C 49.7025,30.0431 49.3691,29.3764 49.5,28.5 Z"/></g>
<g><path style="opacity:1" fill="#30303c" d="M 19.5,36.5 C 21.0847,37.0024 21.5847,38.0024 21,39.5C 19.9614,38.7562 19.4614,37.7562 19.5,36.5 Z"/></g>
<g><path style="opacity:1" fill="#2a272b" d="M 46.5,34.5 C 51.8437,34.334 57.1771,34.5006 62.5,35C 63.3802,36.3561 63.7135,37.8561 63.5,39.5C 52.8335,40.0787 42.1668,40.2454 31.5,40C 30.6198,38.6439 30.2865,37.1439 30.5,35.5C 36.0262,35.8214 41.3595,35.4881 46.5,34.5 Z"/></g>
<g><path style="opacity:1" fill="#9e9ec7" d="M 50.5,35.5 C 54.2396,35.2408 57.9062,35.5741 61.5,36.5C 61.8333,36.8333 62.1667,37.1667 62.5,37.5C 52.5356,38.9146 42.5356,39.4146 32.5,39C 32.0426,38.586 31.7093,38.086 31.5,37.5C 37.9875,36.8332 44.3208,36.1666 50.5,35.5 Z"/></g>
<g><path style="opacity:1" fill="#847263" d="M 33.5,47.5 C 33.5,48.1667 33.8333,48.5 34.5,48.5C 34.1583,49.3382 33.4916,49.6716 32.5,49.5C 31.4489,48.7777 30.7822,47.7777 30.5,46.5C 30.8256,43.9986 32.1589,42.8319 34.5,43C 33.3128,44.0195 32.3128,45.1861 31.5,46.5C 31.9569,47.2975 32.6236,47.6309 33.5,47.5 Z"/></g>
<g><path style="opacity:1" fill="#847263" d="M 52.5,47.5 C 52.5,48.1667 52.8333,48.5 53.5,48.5C 53.1583,49.3382 52.4916,49.6716 51.5,49.5C 50.4489,48.7777 49.7822,47.7777 49.5,46.5C 49.8256,43.9986 51.1589,42.8319 53.5,43C 52.3128,44.0195 51.3128,45.1861 50.5,46.5C 50.9569,47.2975 51.6236,47.6309 52.5,47.5 Z"/></g>
<g><path style="opacity:1" fill="#2d2925" d="M 30.5,46.5 C 30.7822,47.7777 31.4489,48.7777 32.5,49.5C 31.5028,49.4701 30.8361,49.9701 30.5,51C 31.1242,53.0851 32.1242,54.9184 33.5,56.5C 31.5891,56.4257 30.4224,55.4257 30,53.5C 29.2042,50.9615 29.3709,48.6282 30.5,46.5 Z"/></g>
<g><path style="opacity:1" fill="#2d2925" d="M 49.5,46.5 C 49.7822,47.7777 50.4489,48.7777 51.5,49.5C 50.5028,49.4701 49.8361,49.9701 49.5,51C 50.1242,53.0851 51.1242,54.9184 52.5,56.5C 50.5891,56.4257 49.4224,55.4257 49,53.5C 48.2042,50.9615 48.3709,48.6282 49.5,46.5 Z"/></g>
<g><path style="opacity:1" fill="#f4f4f4" d="M 34.5,48.5 C 35.7564,48.9038 36.9231,49.5705 38,50.5C 39.9214,48.9972 42.088,48.3305 44.5,48.5C 44.2111,55.7871 40.5445,58.4538 33.5,56.5C 32.1242,54.9184 31.1242,53.0851 30.5,51C 30.8361,49.9701 31.5028,49.4701 32.5,49.5C 33.4916,49.6716 34.1583,49.3382 34.5,48.5 Z"/></g>
<g><path style="opacity:1" fill="#f4f4f4" d="M 53.5,48.5 C 54.7564,48.9038 55.9231,49.5705 57,50.5C 58.9214,48.9972 61.088,48.3305 63.5,48.5C 63.2111,55.7871 59.5445,58.4538 52.5,56.5C 51.1242,54.9184 50.1242,53.0851 49.5,51C 49.8361,49.9701 50.5028,49.4701 51.5,49.5C 52.4916,49.6716 53.1583,49.3382 53.5,48.5 Z"/></g>
<g><path style="opacity:1" fill="#463e38" d="M 33.5,56.5 C 40.5445,58.4538 44.2111,55.7871 44.5,48.5C 42.088,48.3305 39.9214,48.9972 38,50.5C 36.9231,49.5705 35.7564,48.9038 34.5,48.5C 33.8333,48.5 33.5,48.1667 33.5,47.5C 37.1817,47.6653 40.8484,47.4986 44.5,47C 43.7433,45.4878 42.7433,44.1545 41.5,43C 41.8333,42.8333 42.1667,42.6667 42.5,42.5C 47.7686,47.2877 47.7686,52.121 42.5,57C 39.1868,59.1406 36.1868,58.9739 33.5,56.5 Z"/></g>
<g><path style="opacity:1" fill="#463e38" d="M 52.5,56.5 C 59.5445,58.4538 63.2111,55.7871 63.5,48.5C 61.088,48.3305 58.9214,48.9972 57,50.5C 55.9231,49.5705 54.7564,48.9038 53.5,48.5C 52.8333,48.5 52.5,48.1667 52.5,47.5C 56.1817,47.6653 59.8484,47.4986 63.5,47C 62.7433,45.4878 61.7433,44.1545 60.5,43C 60.8333,42.8333 61.1667,42.6667 61.5,42.5C 66.7686,47.2877 66.7686,52.121 61.5,57C 58.1868,59.1406 55.1868,58.9739 52.5,56.5 Z"/></g>
<g><path style="opacity:1" fill="#ebc5a6" d="M 22.5,59.5 C 23.7479,60.3339 24.4146,61.6672 24.5,63.5C 23.9155,68.6125 22.9155,68.6125 21.5,63.5C 21.8457,62.1508 22.179,60.8175 22.5,59.5 Z"/></g>
<g><path style="opacity:1" fill="#ebc5a6" d="M 69.5,59.5 C 73.0172,61.6103 73.3505,64.277 70.5,67.5C 69.52,64.9135 69.1866,62.2469 69.5,59.5 Z"/></g>
<g><path style="opacity:1" fill="#69584a" d="M 31.5,60.5 C 31.56,59.9569 31.8933,59.6236 32.5,59.5C 35.1092,60.2305 37.7759,60.7305 40.5,61C 37.4526,62.8985 34.4526,62.7319 31.5,60.5 Z"/></g>
<g><path style="opacity:1" fill="#635346" d="M 60.5,59.5 C 62.3786,59.3932 62.7119,59.8932 61.5,61C 58.5,63 55.5,63 52.5,61C 55.3647,60.8171 58.0314,60.3171 60.5,59.5 Z"/></g>
<g><path style="opacity:1" fill="#3e352d" d="M 43.5,58.5 C 44.3171,60.9686 44.8171,63.6353 45,66.5C 46,67.8333 47,67.8333 48,66.5C 48.3333,63.8333 48.6667,61.1667 49,58.5C 49.6667,61.5 49.6667,64.5 49,67.5C 47.3333,70.1667 45.6667,70.1667 44,67.5C 43.502,64.5184 43.3354,61.5184 43.5,58.5 Z"/></g>
<g><path style="opacity:1" fill="#4d4136" d="M 38.5,76.5 C 43.8437,76.334 49.1771,76.5006 54.5,77C 56.0441,77.2896 57.3774,77.9563 58.5,79C 50.8476,76.9088 43.1809,77.0755 35.5,79.5C 35.1667,79.3333 34.8333,79.1667 34.5,79C 35.8584,78.0656 37.1917,77.2323 38.5,76.5 Z"/></g>
</svg>
