<?xml version="1.0" encoding="UTF-8"?>
<svg version="1.1" xmlns="http://www.w3.org/2000/svg" width="480" height="480">
<path d="M0 0 C0.81130875 -0.00902847 1.62261749 -0.01805695 2.45851135 -0.02735901 C4.17583517 -0.04187719 5.89321449 -0.05075214 7.6105957 -0.05444336 C10.24069154 -0.06634644 12.86844619 -0.11551744 15.49804688 -0.16601562 C17.16535311 -0.17547888 18.83267378 -0.18271439 20.5 -0.1875 C21.28757187 -0.20703232 22.07514374 -0.22656464 22.88658142 -0.24668884 C25.11108398 -0.22827148 25.11108398 -0.22827148 28.81640625 0.37109375 C32.56987297 4.95191761 32.94738815 9.36861442 32.87890625 15.12109375 C32.86988281 16.1059375 32.86085937 17.09078125 32.8515625 18.10546875 C32.83416016 19.22695313 32.83416016 19.22695313 32.81640625 20.37109375 C33.86828125 20.43296875 34.92015625 20.49484375 36.00390625 20.55859375 C40.62588238 21.54360506 41.91744286 22.68862674 44.81640625 26.37109375 C45.01363281 27.04398438 45.21085938 27.716875 45.4140625 28.41015625 C46.21828063 31.05877883 46.79842921 32.43664953 48.81640625 34.37109375 C52.26809122 35.12556041 55.53663239 35.46832458 59.04858398 35.72875977 C74.12434482 36.88867914 87.38149171 44.88897816 97.6640625 55.78515625 C121.46128925 84.37637968 124.57682443 123.77903226 126.81640625 159.37109375 C128.02586914 159.67813232 129.23533203 159.9851709 130.48144531 160.30151367 C135.02385396 161.45724729 139.56310738 162.62498911 144.1015625 163.79614258 C146.05581668 164.29870646 148.01088125 164.79813105 149.96679688 165.29418945 C170.66709863 170.54863721 191.16522638 176.18565203 202.82421875 195.73828125 C206.54071965 202.64130584 209.25535726 209.68592951 210.81640625 217.37109375 C210.99945313 218.23347656 211.1825 219.09585938 211.37109375 219.984375 C214.37395396 242.8219171 212.23911187 275.29475652 197.81640625 294.37109375 C197.29304688 295.07363281 196.7696875 295.77617187 196.23046875 296.5 C185.11701329 310.24833575 167.57045943 317.16874071 150.37890625 319.12109375 C149.20328125 319.20359375 148.02765625 319.28609375 146.81640625 319.37109375 C146.89890625 320.52609375 146.98140625 321.68109375 147.06640625 322.87109375 C147.02509778 328.72656945 144.96939352 332.82136436 141.2265625 337.25390625 C133.03861868 345.25143277 121.82461619 347.79421508 110.81640625 349.37109375 C110.11591417 361.91207034 109.43008517 374.45378425 108.75390625 386.99609375 C108.66212227 388.69661528 108.57032545 390.39713612 108.47851562 392.09765625 C108.25766533 396.18879416 108.03698558 400.27994123 107.81640625 404.37109375 C108.69901123 404.42515381 109.58161621 404.47921387 110.4909668 404.53491211 C111.654104 404.61362549 112.81724121 404.69233887 114.015625 404.7734375 C115.16635498 404.84812256 116.31708496 404.92280762 117.50268555 404.99975586 C121.72146581 405.47251537 124.96372602 406.63361051 128.81640625 408.37109375 C129.76474529 413.20762284 129.87194063 415.91743594 127.81640625 420.37109375 C126.0796778 428.18637178 126.87211103 435.68930333 127.890625 443.5390625 C127.79901033 447.03488551 126.91189914 448.60204958 124.81640625 451.37109375 C98.56469373 474.8467631 54.82204455 478.97924696 21.46459961 478.70727539 C18.38303333 478.68362542 15.302338 478.68675954 12.22070312 478.69335938 C1.77448401 478.67933086 -8.60162086 478.32710872 -19.015625 477.48828125 C-20.44883339 477.37478081 -20.44883339 477.37478081 -21.91099548 477.25898743 C-51.77064684 474.6050105 -77.38676801 463.52437855 -101.21435547 445.79931641 C-102.99658475 444.50672512 -104.80571366 443.29319992 -106.65625 442.1015625 C-109.18359375 440.37109375 -109.18359375 440.37109375 -110.18359375 438.37109375 C-110.28730858 436.82590782 -110.32952495 435.27640112 -110.34130859 433.7277832 C-110.35689064 432.25760239 -110.35689064 432.25760239 -110.37278748 430.75772095 C-110.38355064 429.1374147 -110.38355064 429.1374147 -110.39453125 427.484375 C-110.4205348 425.12784152 -110.44717729 422.77131503 -110.47436523 420.41479492 C-110.49429031 418.52837784 -110.49429031 418.52837784 -110.51461792 416.60385132 C-110.7712084 393.72990473 -111.40476198 370.89574362 -112.52368927 348.04757309 C-112.61919324 346.09740168 -112.713388 344.1471663 -112.80755615 342.19692993 C-113.54755139 327.02359368 -114.46306681 311.86796881 -115.49528503 296.71206665 C-117.41011133 268.43832214 -117.13008437 240.92879221 -114.19140625 212.71875 C-113.82923241 209.18672806 -113.47322577 205.65413047 -113.12109375 202.12109375 C-113.03100037 201.22435944 -112.94090698 200.32762512 -112.8480835 199.40371704 C-110.8991297 179.52865479 -110.64750972 159.65780295 -110.59936523 139.69824219 C-110.47451641 113.29762878 -107.80216754 87.95455145 -88.75390625 67.80859375 C-75.95964582 55.67543492 -58.71949982 43.58063849 -41.39453125 39.47265625 C-38.09067172 38.68977492 -38.09067172 38.68977492 -36.65234375 36.19921875 C-36.33265625 35.3484375 -36.01296875 34.49765625 -35.68359375 33.62109375 C-32.72850105 26.95047734 -28.8115447 23.25577427 -22.05859375 20.49609375 C-19.02820586 19.48792968 -16.39870667 19.06967691 -13.18359375 19.37109375 C-12.99796875 17.66953125 -12.99796875 17.66953125 -12.80859375 15.93359375 C-10.80132701 0.07335939 -10.80132701 0.07335939 0 0 Z " fill="#040404" transform="translate(209.18359375,0.62890625)"/>
<path d="M0 0 C15.44125918 -0.94925774 26.03818373 2.83153176 38 13 C57.68744136 31.24346086 65.54538797 63.62284444 66.91650391 89.50048828 C67.22260861 98.66393859 67.14478283 107.83413303 67 117 C60.47107219 120.18021642 53.98530908 122.28898803 46.9375 124 C45.90544434 124.25418701 44.87338867 124.50837402 43.81005859 124.77026367 C24.09625927 129.48923016 4.51062182 132.2134021 -15.75 132.1875 C-16.83882477 132.18759064 -16.83882477 132.18759064 -17.949646 132.18768311 C-30.39457987 132.17298208 -42.63880075 131.49347823 -55 130 C-56.35796431 129.85315883 -57.71603165 129.70726606 -59.07421875 129.5625 C-65.81920207 128.77311846 -72.29512761 127.50385851 -78.875 125.875 C-88.83555632 123.06637298 -88.83555632 123.06637298 -98.51171875 125.29296875 C-112.82144655 134.64027974 -119.37433323 149.02042389 -124 165 C-124.21398437 165.71671875 -124.42796875 166.4334375 -124.6484375 167.171875 C-128.76120051 182.07319025 -127.33864178 198.19256179 -125.93395996 213.37878418 C-125.75436304 215.32765503 -125.58650691 217.27759656 -125.41894531 219.22753906 C-124.44940975 228.95597595 -122.94943311 240.32247618 -115 247 C-103.98615805 255.04788123 -92.019143 259.5546992 -79.05761719 263.36621094 C-77.12681768 263.96093751 -75.22192415 264.63799324 -73.3203125 265.3203125 C-42.52952661 276.16894824 -5.62214425 272.5357223 26.41456842 272.66146421 C33.25678726 272.6888793 40.09887439 272.73280978 46.94099712 272.77772844 C60.96059235 272.86941753 74.98022916 272.94161327 89 273 C88.36033879 278.2973885 87.95641346 281.24647953 84 285 C75.24914653 290.8195331 64.05701075 293.05209081 53.83203125 294.56640625 C51.19090721 294.97077145 48.60947507 295.49232762 46 296.0625 C33.97336562 298.46107034 21.69516209 298.18628449 9.48510742 298.18530273 C6.4684411 298.18747769 3.4521483 298.20565562 0.43554688 298.22460938 C-23.26955454 298.29344297 -46.21685502 295.12956419 -69.2824707 289.77734375 C-85.78203746 285.94999606 -101.15717948 282.87978921 -116.65625 291.47265625 C-128.256303 298.86244905 -134.33327321 311.13049251 -137.8125 324.125 C-140.52883196 337.28516002 -140.60832098 352.4356679 -133.62109375 364.3515625 C-132.47111367 365.94384261 -131.2437619 367.47984657 -130 369 C-130 369.66 -130 370.32 -130 371 C-129.4225 371.27199219 -128.845 371.54398437 -128.25 371.82421875 C-126.00343412 372.99820543 -124.05751337 374.33561067 -122 375.8125 C-105.67342363 386.75902999 -84.92898417 389.46293443 -66 393 C-64.72382813 393.23976563 -63.44765625 393.47953125 -62.1328125 393.7265625 C-26.77070008 399.7552178 11.21228317 396.69161221 45.93994141 388.48632812 C47.96211119 388.0089446 49.98634272 387.5416988 52.01171875 387.078125 C55.00918502 386.39113814 58.00518604 385.69843718 61 385 C61.04254356 383.00045254 61.04080783 380.99958364 61 379 C60.67 378.67 60.34 378.34 60 378 C59.85806663 374.99668982 59.95763622 372.00782866 60 369 C62.97 369 65.94 369 69 369 C69 378.57 69 388.14 69 398 C22.75325392 425.01137382 -39.46805769 429.98483773 -91.27172852 416.59106445 C-96.2311512 415.20296619 -101.12049622 413.64486943 -106 412 C-106.74652832 411.75910645 -107.49305664 411.51821289 -108.26220703 411.27001953 C-118.25969908 407.99772418 -126.64448373 402.81873216 -134.92041016 396.43725586 C-137.02057492 394.89797428 -137.02057492 394.89797428 -139.66943359 393.76782227 C-142.84660367 392.13069635 -144.76369039 390.80854574 -147 388 C-148.22243592 382.51628275 -148.2007936 377.23917508 -148.06710815 371.64077759 C-147.99856912 368.75219559 -147.98843673 365.86858883 -147.99438477 362.97924805 C-148.00060413 359.89449111 -148.00361253 356.81015733 -147.98963928 353.72541809 C-147.9418682 341.57448021 -148.4359042 329.45100736 -148.9375 317.3125 C-149.02560525 315.08928258 -149.11349721 312.8660567 -149.20117188 310.64282227 C-150.30240228 281.85610355 -150.30240228 281.85610355 -152.5703125 253.14453125 C-156.02255233 218.99180283 -156.92752033 180.32187758 -149.47981262 146.64804077 C-148.93083488 143.61828419 -148.86045222 140.77059223 -148.84228516 137.69116211 C-148.83202301 136.43472397 -148.82176086 135.17828583 -148.81118774 133.8837738 C-148.80774982 133.21583738 -148.8043119 132.54790096 -148.80076981 131.85972404 C-148.78885721 129.74082917 -148.76936437 127.62212709 -148.74765015 125.50331116 C-148.68652018 119.47973384 -148.6325397 113.45616999 -148.59863281 107.43237305 C-148.25179924 49.11485906 -148.25179924 49.11485906 -128 28 C-125.43389397 25.71375282 -122.74812238 23.62468953 -120 21.5625 C-119.25669434 21.00119385 -118.51338867 20.4398877 -117.74755859 19.86157227 C-94.36165245 2.50067055 -94.36165245 2.50067055 -82.140625 3.23046875 C-78.03485148 3.85756565 -74.44538279 5.23769309 -70.625 6.875 C-60.57921179 11.15575343 -52.01099266 13.48716676 -41 13.3125 C-39.98421875 13.31572266 -38.9684375 13.31894531 -37.921875 13.32226562 C-28.85973378 13.25836591 -20.66131212 11.90585944 -12.1875 8.625 C-11.12917969 8.22539063 -10.07085937 7.82578125 -8.98046875 7.4140625 C-5.27086381 5.65406645 -1.88023889 3.76047778 0 0 Z " fill="#BABABA" transform="translate(257,47)"/>
<path d="M0 0 C6.37318229 0.49642199 12.30028094 2.01764639 18.4375 3.75 C19.39889893 4.01876953 20.36029785 4.28753906 21.35083008 4.56445312 C23.3055818 5.11263244 25.25961247 5.66338987 27.21289062 6.21679688 C29.74672553 6.92882757 32.28551645 7.61699895 34.828125 8.296875 C50.1449374 12.46929905 62.06713585 18.2655393 70.4296875 32.140625 C82.68029887 54.44770839 78.6405132 80.38273196 72.04150391 103.86083984 C70.28087556 109.66639895 68.03294437 114.40186865 64 119 C63.42636719 119.680625 62.85273438 120.36125 62.26171875 121.0625 C51.0086151 133.36402946 35.22408143 138.19919136 18.98301315 139.1826992 C15.83381111 139.25016766 12.69040401 139.25918796 9.54052734 139.24291992 C7.76710464 139.24576744 7.76710464 139.24576744 5.95785522 139.24867249 C2.08381321 139.2523499 -1.79003739 139.24171432 -5.6640625 139.23046875 C-8.38390134 139.22826126 -11.10373832 139.2287737 -13.82357788 139.2290802 C-19.51408206 139.22814731 -25.20453252 139.21951947 -30.89501953 139.20581055 C-37.42508158 139.19013465 -43.95508476 139.18481118 -50.48516428 139.1855461 C-57.49824805 139.18622816 -64.51130985 139.17924634 -71.52438688 139.1700995 C-73.51603966 139.1679931 -75.50769387 139.16741789 -77.49934769 139.16686058 C-160.73343654 139.1180833 -160.73343654 139.1180833 -186 115 C-190.79002857 109.7057579 -191.20684087 103.84807931 -192 97 C-192.09023437 96.24734863 -192.18046875 95.49469727 -192.2734375 94.71923828 C-195.38765544 68.1589572 -196.05860557 41.34488456 -180.0625 18.375 C-176.97254828 14.70466052 -173.52567828 10.74739436 -169 9 C-163.91182717 9.02254452 -158.95357852 10.14593498 -154.03442383 11.35839844 C-109.22135701 22.39861841 -62.00172795 18.27595643 -18 6 C-16.99662598 5.72269043 -15.99325195 5.44538086 -14.95947266 5.15966797 C-6.94015542 3.5696766 -6.94015542 3.5696766 0 0 Z " fill="#040504" transform="translate(333,171)"/>
<path d="M0 0 C6.37318229 0.49642199 12.30028094 2.01764639 18.4375 3.75 C19.39889893 4.01876953 20.36029785 4.28753906 21.35083008 4.56445312 C23.3055818 5.11263244 25.25961247 5.66338987 27.21289062 6.21679688 C29.74672553 6.92882757 32.28551645 7.61699895 34.828125 8.296875 C50.1449374 12.46929905 62.06713585 18.2655393 70.4296875 32.140625 C82.68029887 54.44770839 78.6405132 80.38273196 72.04150391 103.86083984 C70.28087556 109.66639895 68.03294437 114.40186865 64 119 C63.42636719 119.680625 62.85273438 120.36125 62.26171875 121.0625 C51.0086151 133.36402946 35.22408143 138.19919136 18.98301315 139.1826992 C15.83381111 139.25016766 12.69040401 139.25918796 9.54052734 139.24291992 C7.76710464 139.24576744 7.76710464 139.24576744 5.95785522 139.24867249 C2.08381321 139.2523499 -1.79003739 139.24171432 -5.6640625 139.23046875 C-8.38390134 139.22826126 -11.10373832 139.2287737 -13.82357788 139.2290802 C-19.51408206 139.22814731 -25.20453252 139.21951947 -30.89501953 139.20581055 C-37.42508158 139.19013465 -43.95508476 139.18481118 -50.48516428 139.1855461 C-57.49824805 139.18622816 -64.51130985 139.17924634 -71.52438688 139.1700995 C-73.51603966 139.1679931 -75.50769387 139.16741789 -77.49934769 139.16686058 C-160.73343654 139.1180833 -160.73343654 139.1180833 -186 115 C-190.79002857 109.7057579 -191.20684087 103.84807931 -192 97 C-192.09023437 96.24734863 -192.18046875 95.49469727 -192.2734375 94.71923828 C-195.38765544 68.1589572 -196.05860557 41.34488456 -180.0625 18.375 C-176.97254828 14.70466052 -173.52567828 10.74739436 -169 9 C-163.91182717 9.02254452 -158.95357852 10.14593498 -154.03442383 11.35839844 C-109.22135701 22.39861841 -62.00172795 18.27595643 -18 6 C-16.99662598 5.72269043 -15.99325195 5.44538086 -14.95947266 5.15966797 C-6.94015542 3.5696766 -6.94015542 3.5696766 0 0 Z M-84.34452057 28.68206024 C-87.30513693 28.8121764 -90.26591166 28.9379918 -93.22674561 29.06304932 C-97.93167658 29.26348785 -102.63569687 29.47892976 -107.33940315 29.70626259 C-109.08064387 29.78893665 -110.82207669 29.86767576 -112.56368828 29.94212914 C-131.03018346 30.61111297 -131.03018346 30.61111297 -146.1875 40.3125 C-151.03487524 47.49998742 -152.04397746 54.84630337 -153.1875 63.3125 C-153.35967041 64.58109863 -153.53184082 65.84969727 -153.70922852 67.15673828 C-154.80644011 75.89429578 -155.3950317 84.56377944 -155.4375 93.375 C-155.44740967 94.44274658 -155.45731934 95.51049316 -155.4675293 96.6105957 C-155.3760027 104.80387261 -153.90013322 110.93597419 -148 117 C-136.22579867 125.76802227 -117.50765154 123.51285566 -103.56640625 123.8515625 C-101.16493722 123.91538867 -98.76348375 123.97980286 -96.36204529 124.04476929 C-91.32652456 124.17922495 -86.2909023 124.30807006 -81.25512695 124.43261719 C-74.92063821 124.58950637 -68.5865245 124.75792096 -62.25243568 124.93011856 C-40.37851476 125.52241454 -18.4994603 126.11232836 3.3834095 126.20087814 C4.94793344 126.20743092 6.51244867 126.21694808 8.07693291 126.22987747 C24.40937819 126.34959652 41.34495998 125.48688248 54 114 C54.55558594 113.49855469 55.11117187 112.99710937 55.68359375 112.48046875 C62.70361956 105.28537995 64.47696613 95.28546401 64.50537109 85.56274414 C64.4717749 83.95387329 64.4717749 83.95387329 64.4375 82.3125 C64.42283691 81.18126709 64.40817383 80.05003418 64.39306641 78.88452148 C64.0475086 63.41695808 62.53493087 49.1588073 51.8125 37.125 C37.2805976 23.89398843 14.28753697 26.60079102 -3.875 26.625 C-5.85226578 26.62432022 -5.85226578 26.62432022 -7.86947632 26.62362671 C-33.38330932 26.6346549 -58.85840457 27.55330269 -84.34452057 28.68206024 Z " fill="#B9B9B9" transform="translate(333,171)"/>
<path d="M0 0 C9.65399099 -0.97086878 17.2617526 4.28683807 25.30761719 8.98583984 C27.70243712 10.37796614 30.11921944 11.7208273 32.546875 13.0546875 C34.05579433 13.9003719 35.56365394 14.74795063 37.0703125 15.59765625 C37.75697998 15.97647949 38.44364746 16.35530273 39.15112305 16.74560547 C44.47391132 19.83940607 49.76020923 23.76354994 51.44921875 29.9375 C50.67936722 44.33139072 48.47002005 63.6979487 37.7578125 74.41015625 C36.00232933 74.51087135 34.24274377 74.54097739 32.484375 74.54296875 C30.80130249 74.54598999 30.80130249 74.54598999 29.08422852 74.54907227 C27.86276123 74.54447998 26.64129395 74.5398877 25.3828125 74.53515625 C24.13234131 74.53249756 22.88187012 74.52983887 21.59350586 74.52709961 C12.83002097 74.48369698 4.07787426 74.29379578 -4.6796875 73.97265625 C-6.28239502 73.91392334 -6.28239502 73.91392334 -7.91748047 73.85400391 C-13.3708978 73.63219591 -18.8193416 73.3408977 -24.265625 72.984375 C-25.31024902 72.91694092 -26.35487305 72.84950684 -27.43115234 72.7800293 C-31.64803074 72.22517688 -33.92130004 71.06686622 -37.2421875 68.41015625 C-39.83458069 63.18379531 -39.58516637 58.25290219 -39.5546875 52.53515625 C-39.55122314 51.48320068 -39.54775879 50.43124512 -39.54418945 49.34741211 C-39.4427654 41.82578201 -38.88680105 34.43238575 -37.9296875 26.97265625 C-37.81214111 26.04533691 -37.69459473 25.11801758 -37.57348633 24.16259766 C-35.53415176 9.82601047 -35.53415176 9.82601047 -30.9296875 4.97265625 C-22.97877153 0.35003069 -14.41273562 0.81214238 -5.49511719 0.52001953 C-3.65741163 0.4304045 -1.82534109 0.23091664 0 0 Z " fill="#D2E0A7" transform="translate(227.2421875,210.58984375)"/>
<path d="M0 0 C6.45249761 0.12300932 10.69002928 0.70257224 15.37255859 5.48046875 C16.21753906 6.49173828 16.21753906 6.49173828 17.07958984 7.5234375 C18.00191406 8.42642578 18.00191406 8.42642578 18.94287109 9.34765625 C28.01351556 18.61253294 32.53436382 30.8578585 32.51342773 43.63305664 C32.19822228 55.91560617 28.13698707 67.14859855 20.07958984 76.5234375 C19.68682861 77.05122803 19.29406738 77.57901855 18.8894043 78.12280273 C16.15202304 80.24129137 13.89678054 79.87810716 10.47412109 79.8515625 C9.80965469 79.85005188 9.14518829 79.84854126 8.46058655 79.84698486 C6.2706945 79.83756373 4.08175151 79.8059358 1.89208984 79.7734375 C0.37598329 79.76148386 -1.14013058 79.75042677 -2.65625 79.74023438 C-18.08347934 79.60886634 -33.50473818 79.11357115 -48.92041016 78.5234375 C-47.76801055 75.01665384 -46.55421943 71.64020199 -45.04541016 68.2734375 C-40.41488421 56.69712265 -35.2392808 39.1980512 -39.84619141 27.09033203 C-40.82536737 24.87550866 -41.84255721 22.69172654 -42.92041016 20.5234375 C-42.13561279 20.03315063 -42.13561279 20.03315063 -41.33496094 19.53295898 C-10.24524827 0.08222236 -10.24524827 0.08222236 0 0 Z " fill="#D2E0A7" transform="translate(325.92041015625,207.4765625)"/>
<path d="M0 0 C9.30714646 -0.43177484 18.11766982 -0.29154106 25.8125 5.5625 C34.29975168 13.68944382 35.97261325 25.24509875 36.30078125 36.48046875 C36.31517094 38.71610294 36.31898021 40.9518289 36.3125 43.1875 C36.32861328 44.31091797 36.34472656 45.43433594 36.36132812 46.59179688 C36.36670299 55.74519092 35.01824603 62.56866335 28.671875 69.46484375 C22.10581585 75.49395881 14.66079596 77.29864814 6 77 C6.59748047 75.7315625 6.59748047 75.7315625 7.20703125 74.4375 C14.58085672 58.64926055 19.8347704 41.97676988 14.4375 24.5625 C10.93016709 15.68223157 5.70918106 7.61224142 0 0 Z " fill="#363736" transform="translate(351,209)"/>
<path d="M0 0 C0 6.93 0 13.86 0 21 C-13.46559887 23.65768399 -26.57771966 24.14128135 -40.25 24.0625 C-41.78515478 24.05747043 -43.32031116 24.05291012 -44.85546875 24.04882812 C-48.57038631 24.03880947 -52.28507386 24.01921514 -56 24 C-56 16.74 -56 9.48 -56 2 C-53.0609375 1.93941406 -50.121875 1.87882812 -47.09375 1.81640625 C-44.22751626 1.75448721 -41.361317 1.69115342 -38.49511719 1.62768555 C-36.51272693 1.58454093 -34.53030439 1.54285268 -32.54785156 1.50268555 C-29.68805235 1.4444836 -26.82841258 1.3809366 -23.96875 1.31640625 C-23.09134155 1.29969376 -22.21393311 1.28298126 -21.30993652 1.26576233 C-17.42048709 1.17343942 -13.60965775 0.99888502 -9.75195312 0.48022461 C-6 0 -6 0 0 0 Z " fill="#D0DEA6" transform="translate(282,384)"/>
<path d="M0 0 C5.77519758 0 10.43892666 0.27854433 15.9375 1.49609375 C17.02405884 1.72559471 17.02405884 1.72559471 18.13256836 1.95973206 C20.42340789 2.44473976 22.71175194 2.94042286 25 3.4375 C27.2885605 3.92932278 29.57758806 4.41874169 31.86743164 4.90455627 C33.28411098 5.20565578 34.70003181 5.51035714 36.11499023 5.81944275 C39.54715549 6.55420864 42.94932603 7.14072137 46.43359375 7.53930664 C50 8 50 8 51 9 C51.08700342 10.63472882 51.10701063 12.27314055 51.09765625 13.91015625 C51.09443359 14.89951172 51.09121094 15.88886719 51.08789062 16.90820312 C51.07532227 18.46958008 51.07532227 18.46958008 51.0625 20.0625 C51.05798828 21.10728516 51.05347656 22.15207031 51.04882812 23.22851562 C51.03699913 25.8190666 51.02051689 28.40950559 51 31 C33.42915792 31.22383238 16.99001288 27.11800617 0 23 C0 15.41 0 7.82 0 0 Z " fill="#D1DFA7" transform="translate(165,343)"/>
<path d="M0 0 C5.4941088 0.6867636 10.60124121 1.53021053 15.9375 2.8125 C27.51523654 5.50220129 39.25528957 7.2164737 51 9 C51 16.26 51 23.52 51 31 C33.86129869 29.92883117 16.98551116 27.45842925 0 25 C0 16.75 0 8.5 0 0 Z " fill="#D0DDA5" transform="translate(165,376)"/>
<path d="M0 0 C2.413125 0.144375 4.82625 0.28875 7.3125 0.4375 C22.85885383 1.30586536 38.43618731 1.59410099 54 2 C54.61343945 6.72072435 55.12212881 11.22969529 55.0625 16 C55.05347656 16.94875 55.04445313 17.8975 55.03515625 18.875 C55.02355469 19.57625 55.01195312 20.2775 55 21 C43.99791566 24.66736145 30.73240685 23.1164319 19.25 23.0625 C17.37760537 23.05747365 15.50520942 23.05291276 13.6328125 23.04882812 C9.08848211 23.0387743 4.54433724 23.01918341 0 23 C0 15.41 0 7.82 0 0 Z " fill="#CEDBA4" transform="translate(226,353)"/>
<path d="M0 0 C2.0474328 0.70872674 4.05986093 1.47383973 6.0703125 2.28125 C16.52873344 6.17669424 27.37629198 4.05337731 37.72265625 0.97265625 C40.49136647 0.15095322 43.13935744 -0.60897692 46 -1 C48.5618832 0.80280669 49.91849546 3.088257 51 6 C51.03237434 7.99973796 51.03546509 10.00031447 51 12 C49.33762104 12.80063104 47.66981875 13.59000368 46 14.375 C44.6078125 15.03628906 44.6078125 15.03628906 43.1875 15.7109375 C28.64176454 21.59340404 10.52775017 21.10403859 -3.97265625 15.37890625 C-7.71436991 13.67461603 -11.39767124 11.98495666 -15 10 C-13.75892597 5.03570389 -12.23893588 2.86128172 -8 0 C-5.04078442 -1.47960779 -3.21319624 -0.71404361 0 0 Z " fill="#B8B8B8" transform="translate(197,32)"/>
<path d="M0 0 C0 4.95 0 9.9 0 15 C-6.14399925 16.70626817 -12.08902225 17.59014857 -18.4375 18.125 C-19.41726807 18.20991699 -20.39703613 18.29483398 -21.40649414 18.38232422 C-32.93073016 19.2863642 -44.44984144 19.17426895 -56 19 C-56 13.72 -56 8.44 -56 3 C-53.82664063 2.95101563 -51.65328125 2.90203125 -49.4140625 2.8515625 C-28.78823191 2.38843972 -28.78823191 2.38843972 -8.265625 0.40234375 C-5 0 -5 0 0 0 Z " fill="#CFDDA5" transform="translate(282,415)"/>
<path d="M0 0 C9.10082037 0.67216943 18.15171067 1.65600837 27.21191406 2.72949219 C29.5236977 3.00280165 31.83603045 3.27108444 34.1484375 3.5390625 C35.63024358 3.71324209 37.11201574 3.88771053 38.59375 4.0625 C39.2791687 4.14169678 39.9645874 4.22089355 40.67077637 4.30249023 C43.87607929 4.68602388 46.85759849 5.21439962 50 6 C50 11.28 50 16.56 50 22 C38.38948152 21.51216309 27.3788854 20.30554349 16 18 C15.31083496 17.86271484 14.62166992 17.72542969 13.91162109 17.58398438 C2.245842 15.245842 2.245842 15.245842 1 14 C0.76472227 11.65012738 0.58613583 9.29443961 0.4375 6.9375 C0.35371094 5.64714844 0.26992187 4.35679687 0.18359375 3.02734375 C0.12300781 2.02832031 0.06242188 1.02929688 0 0 Z " fill="#CEDCA4" transform="translate(166,411)"/>
<path d="M0 0 C0.55945313 0.17015625 1.11890625 0.3403125 1.6953125 0.515625 C9.1080826 2.75614072 16.55127142 4.88222423 24 7 C24 15.58 24 24.16 24 33 C15.62824381 32.06980487 10.35377965 30.58522221 3 27 C2.23429688 26.62875 1.46859375 26.2575 0.6796875 25.875 C-1.83157214 24.4109458 -3.69960508 22.99991596 -4.55859375 20.140625 C-4.9768657 13.19477561 -2.23880663 6.46655307 0 0 Z " fill="#CEDBA4" transform="translate(131,365)"/>
<path d="M0 0 C6.6 0 13.2 0 20 0 C20 6.6 20 13.2 20 20 C13.4 20 6.8 20 0 20 C0 13.4 0 6.8 0 0 Z " fill="#010101" transform="translate(300,240)"/>
<path d="M0 0 C6.6 0 13.2 0 20 0 C20 6.6 20 13.2 20 20 C13.4 20 6.8 20 0 20 C0 13.4 0 6.8 0 0 Z " fill="#010101" transform="translate(200,240)"/>
<path d="M0 0 C3.64581687 -0.02887512 7.29160463 -0.04675585 10.9375 -0.0625 C12.49887695 -0.07506836 12.49887695 -0.07506836 14.09179688 -0.08789062 C15.08115234 -0.09111328 16.07050781 -0.09433594 17.08984375 -0.09765625 C18.46450806 -0.10551147 18.46450806 -0.10551147 19.86694336 -0.11352539 C22 0 22 0 23 1 C23.07244053 3.01964199 23.08377188 5.04167124 23.0625 7.0625 C23.05347656 8.16722656 23.04445312 9.27195312 23.03515625 10.41015625 C23.02355469 11.26480469 23.01195312 12.11945312 23 13 C18.07073055 15.61996885 13.17702885 15.26073405 7.75 15.1875 C6.36554688 15.1865332 6.36554688 15.1865332 4.953125 15.18554688 C-1.85953692 15.14046308 -1.85953692 15.14046308 -3 14 C-3.45497007 8.31287407 -2.29269672 5.03186595 0 0 Z " fill="#B6B6B6" transform="translate(209,11)"/>
<path d="M0 0 C0.09706112 6.11485027 -0.22959149 11.93303301 -1 18 C-2.5188459 18.34227513 -4.04022533 18.67331214 -5.5625 19 C-6.40941406 19.185625 -7.25632812 19.37125 -8.12890625 19.5625 C-11 20 -11 20 -18 20 C-18.33 14.06 -18.66 8.12 -19 2 C-5.875 -0.14285714 -5.875 -0.14285714 0 0 Z " fill="#CFDCA5" transform="translate(309,352)"/>
<path d="M0 0 C0 6.6 0 13.2 0 20 C-11.625 23 -11.625 23 -15 23 C-15 16.07 -15 9.14 -15 2 C-2.25 0 -2.25 0 0 0 Z " fill="#CCDAA3" transform="translate(307,380)"/>
<path d="M0 0 C1.96875 0.65625 1.96875 0.65625 3.9375 1.3125 C4.75992188 1.58578125 5.58234375 1.8590625 6.4296875 2.140625 C8.06202186 2.68639029 9.69248119 3.23782182 11.3203125 3.796875 C15.02600962 5.06223499 18.6805278 6.19103397 22.5 7.0625 C24.2325 7.5265625 24.2325 7.5265625 26 8 C27.32229189 10.64458379 27.09677194 12.67761301 27.0625 15.625 C27.05347656 16.62789063 27.04445312 17.63078125 27.03515625 18.6640625 C27.02355469 19.43492187 27.01195312 20.20578125 27 21 C16.62421707 19.32648662 9.1724867 14.96081411 2.27734375 7.02734375 C0.80637456 4.69268623 0.38111033 2.71482297 0 0 Z " fill="#CBD9A2" transform="translate(130,401)"/>
<path d="M0 0 C1.1859375 0.00451172 2.371875 0.00902344 3.59375 0.01367188 C6.47922228 0.02530684 9.36458213 0.0416516 12.25 0.0625 C8.91336815 3.53134317 5.41098481 5.99418547 1.25 8.375 C0.63382812 8.74689453 0.01765625 9.11878906 -0.6171875 9.50195312 C-5.19640133 12.14040573 -5.19640133 12.14040573 -7.71386719 11.78613281 C-9.84155485 11.0299618 -11.68147912 10.11786276 -13.640625 8.99609375 C-14.34960938 8.59326172 -15.05859375 8.19042969 -15.7890625 7.77539062 C-16.51867187 7.35451172 -17.24828125 6.93363281 -18 6.5 C-18.74507813 6.07525391 -19.49015625 5.65050781 -20.2578125 5.21289062 C-22.09098961 4.16703958 -23.92082677 3.11533808 -25.75 2.0625 C-25.75 1.7325 -25.75 1.4025 -25.75 1.0625 C-17.14421862 0.19230756 -8.6460185 -0.06357367 0 0 Z " fill="#333433" transform="translate(281.75,208.9375)"/>
<path d="M0 0 C0 6.27 0 12.54 0 19 C-5.01199737 18.28400038 -8.03286618 17.80796094 -12.4375 15.9375 C-13.30246094 15.57527344 -14.16742188 15.21304687 -15.05859375 14.83984375 C-15.69925781 14.56269531 -16.33992187 14.28554688 -17 14 C-17 10 -17 10 -15.171875 7.9296875 C-13.97304687 6.91261719 -13.97304687 6.91261719 -12.75 5.875 C-11.96109375 5.19179688 -11.1721875 4.50859375 -10.359375 3.8046875 C-6.59473346 0.92511069 -4.82997367 0 0 0 Z " fill="#C6D39E" transform="translate(155,343)"/>
<path d="M0 0 C0 4.95 0 9.9 0 15 C-11.625 18 -11.625 18 -15 18 C-15 13.05 -15 8.1 -15 3 C-2.25 0 -2.25 0 0 0 Z " fill="#C5D39D" transform="translate(307,410)"/>
</svg>
