<?xml version="1.0" encoding="UTF-8"?>
<!DOCTYPE svg PUBLIC "-//W3C//DTD SVG 1.1//EN" "http://www.w3.org/Graphics/SVG/1.1/DTD/svg11.dtd">
<svg xmlns="http://www.w3.org/2000/svg" version="1.1" width="512px" height="512px" style="shape-rendering:geometricPrecision; text-rendering:geometricPrecision; image-rendering:optimizeQuality; fill-rule:evenodd; clip-rule:evenodd" xmlns:xlink="http://www.w3.org/1999/xlink">
<g><path style="opacity:0.984" fill="#020001" d="M 251.5,-0.5 C 254.167,-0.5 256.833,-0.5 259.5,-0.5C 332.189,41.5994 405.022,83.5994 478,125.5C 479.162,168.751 479.662,212.084 479.5,255.5C 479.662,298.916 479.162,342.249 478,385.5C 405.022,427.401 332.189,469.401 259.5,511.5C 256.833,511.5 254.167,511.5 251.5,511.5C 178.811,469.401 105.978,427.401 33,385.5C 31.8383,342.249 31.3383,298.916 31.5,255.5C 31.3383,212.084 31.8383,168.751 33,125.5C 105.978,83.5994 178.811,41.5994 251.5,-0.5 Z"/></g>
<g><path style="opacity:1" fill="#e4636d" d="M 246.5,20.5 C 247.832,32.6483 248.499,45.1483 248.5,58C 248.167,70.5 247.833,83 247.5,95.5C 204.81,119.871 162.143,144.205 119.5,168.5C 97.544,156.521 75.8774,144.021 54.5,131C 118.726,94.3925 182.726,57.5591 246.5,20.5 Z"/></g>
<g><path style="opacity:1" fill="#fc7e85" d="M 293.5,120.5 C 288.368,118.1 283.368,115.434 278.5,112.5C 278.789,109.351 278.289,106.351 277,103.5C 272.582,100.707 268.082,98.0407 263.5,95.5C 262.167,70.5 262.167,45.5 263.5,20.5C 327.833,57.3333 392.167,94.1667 456.5,131C 435.123,144.021 413.456,156.521 391.5,168.5C 361.871,151.683 332.204,134.85 302.5,118C 298.858,116.93 295.858,117.764 293.5,120.5 Z"/></g>
<g><path style="opacity:1" fill="#e3636d" d="M 278.5,112.5 C 283.368,115.434 288.368,118.1 293.5,120.5C 291.848,124.421 292.515,127.921 295.5,131C 324.962,147.633 354.296,164.467 383.5,181.5C 384.833,230.833 384.833,280.167 383.5,329.5C 341.337,353.414 299.337,377.581 257.5,402C 252.492,401.173 247.826,399.173 243.5,396C 239.259,394.812 235.592,395.645 232.5,398.5C 227.632,395.566 222.632,392.9 217.5,390.5C 219.296,386.518 218.629,383.018 215.5,380C 186.038,363.367 156.704,346.533 127.5,329.5C 126.167,280.167 126.167,230.833 127.5,181.5C 169.663,157.586 211.663,133.419 253.5,109C 258.508,109.827 263.174,111.827 267.5,115C 271.741,116.188 275.408,115.355 278.5,112.5 Z"/></g>
<g><path style="opacity:1" fill="#fe7f86" d="M 254.5,127.5 C 292.189,148.43 329.689,169.763 367,191.5C 367.667,234.167 367.667,276.833 367,319.5C 329.877,340.976 292.711,362.309 255.5,383.5C 218.289,362.309 181.123,340.976 144,319.5C 143.333,276.833 143.333,234.167 144,191.5C 180.978,170.266 217.811,148.933 254.5,127.5 Z"/></g>
<g><path style="opacity:1" fill="#db4554" d="M 46.5,144.5 C 67.8911,156.948 89.3911,169.281 111,181.5C 111.667,230.5 111.667,279.5 111,328.5C 89.8318,341.419 68.4984,354.085 47,366.5C 46.5,292.501 46.3333,218.501 46.5,144.5 Z"/></g>
<g><path style="opacity:1" fill="#db4554" d="M 462.5,145.5 C 463.833,218.833 463.833,292.167 462.5,365.5C 441.555,353.727 420.721,341.727 400,329.5C 399.333,280.167 399.333,230.833 400,181.5C 420.721,169.273 441.555,157.273 462.5,145.5 Z"/></g>
<g><path style="opacity:1" fill="#cd414f" d="M 462.5,145.5 C 462.56,144.957 462.893,144.624 463.5,144.5C 464.833,218.5 464.833,292.5 463.5,366.5C 462.893,366.376 462.56,366.043 462.5,365.5C 463.833,292.167 463.833,218.833 462.5,145.5 Z"/></g>
<g><path style="opacity:1" fill="#c6404f" d="M 217.5,390.5 C 222.632,392.9 227.632,395.566 232.5,398.5C 232.211,401.649 232.711,404.649 234,407.5C 238.418,410.293 242.918,412.959 247.5,415.5C 248.833,440.5 248.833,465.5 247.5,490.5C 183.003,453.753 118.67,416.753 54.5,379.5C 75.8333,366.833 97.1667,354.167 118.5,341.5C 148.337,358.92 178.337,376.086 208.5,393C 211.81,393.256 214.81,392.423 217.5,390.5 Z"/></g>
<g><path style="opacity:1" fill="#e4636d" d="M 389.5,342.5 C 391.655,342.372 393.655,342.872 395.5,344C 415.998,355.748 436.331,367.748 456.5,380C 392.167,416.833 327.833,453.667 263.5,490.5C 262.167,465.5 262.167,440.5 263.5,415.5C 305.89,391.645 347.89,367.312 389.5,342.5 Z"/></g>
</svg>
