<?xml version="1.0" encoding="UTF-8"?>
<!DOCTYPE svg PUBLIC "-//W3C//DTD SVG 1.1//EN" "http://www.w3.org/Graphics/SVG/1.1/DTD/svg11.dtd">
<svg xmlns="http://www.w3.org/2000/svg" version="1.1" width="100px" height="100px" style="shape-rendering:geometricPrecision; text-rendering:geometricPrecision; image-rendering:optimizeQuality; fill-rule:evenodd; clip-rule:evenodd" xmlns:xlink="http://www.w3.org/1999/xlink">
<g><path style="opacity:0.886" fill="#262731" d="M 42.5,8.5 C 57.9828,6.14913 68.4828,12.1491 74,26.5C 88.5049,39.6509 92.5049,55.3176 86,73.5C 81.2978,78.6002 75.4645,81.1002 68.5,81C 65.5,84 62.5,87 59.5,90C 52.8333,89.3333 46.1667,89.3333 39.5,90C 36.5,87 33.5,84 30.5,81C 13.3229,79.1918 6.48952,69.6918 10,52.5C 12.428,42.3059 17.428,33.6392 25,26.5C 27.6834,17.318 33.5167,11.318 42.5,8.5 Z"/></g>
<g><path style="opacity:1" fill="#dddcdd" d="M 68.5,58.5 C 69.0522,60.3307 69.0522,61.9974 68.5,63.5C 69.6888,64.4287 71.0222,64.762 72.5,64.5C 71.6148,72.2699 68.1148,78.6032 62,83.5C 61.1385,80.0507 59.9718,76.7174 58.5,73.5C 58.8627,72.8165 59.1961,72.1499 59.5,71.5C 59.3284,70.5084 59.6618,69.8417 60.5,69.5C 62.0878,68.3647 62.4212,67.0314 61.5,65.5C 59.6639,66.0276 57.9972,66.6942 56.5,67.5C 50.01,67.9798 43.6767,67.3131 37.5,65.5C 36.5788,67.0314 36.9122,68.3647 38.5,69.5C 38.3284,70.4916 38.6618,71.1583 39.5,71.5C 39.3729,75.3855 38.5396,79.3855 37,83.5C 30.8852,78.6032 27.3852,72.2699 26.5,64.5C 27.9778,64.762 29.3112,64.4287 30.5,63.5C 29.9478,61.9974 29.9478,60.3307 30.5,58.5C 31.431,54.757 31.431,51.0903 30.5,47.5C 29.3112,46.5713 27.9778,46.238 26.5,46.5C 26.3338,40.4908 26.5005,34.4908 27,28.5C 34.0619,10.5875 46.2285,6.08746 63.5,15C 67.7386,18.65 70.5719,23.15 72,28.5C 72.4995,34.4908 72.6662,40.4908 72.5,46.5C 71.0222,46.238 69.6888,46.5713 68.5,47.5C 67.569,51.0903 67.569,54.757 68.5,58.5 Z"/></g>
<g><path style="opacity:1" fill="#494b53" d="M 51.5,25.5 C 53.5273,25.3379 55.5273,25.5045 57.5,26C 54.6069,26.2734 51.9403,27.1068 49.5,28.5C 45.555,26.9061 45.555,26.5728 49.5,27.5C 50.5223,27.1445 51.189,26.4778 51.5,25.5 Z"/></g>
<g><path style="opacity:1" fill="#53545c" d="M 52.5,31.5 C 52.0377,32.8799 51.0377,33.5466 49.5,33.5C 46.2153,31.2797 42.5487,30.113 38.5,30C 42.6237,28.9443 46.2904,29.7776 49.5,32.5C 50.4168,31.8728 51.4168,31.5394 52.5,31.5 Z"/></g>
<g><path style="opacity:1" fill="#5c5d65" d="M 52.5,31.5 C 53.3143,29.7274 54.6476,29.2274 56.5,30C 55.255,30.7914 53.9217,31.2914 52.5,31.5 Z"/></g>
<g><path style="opacity:1" fill="#4c6b8d" d="M 23.5,31.5 C 24.8147,36.6803 24.8147,42.0136 23.5,47.5C 20.3116,49.2092 18.6449,51.8759 18.5,55.5C 23.1241,62.3808 26.7908,69.8808 29.5,78C 22.9016,78.6184 17.735,76.1184 14,70.5C 10.5614,61.7382 10.8947,53.0715 15,44.5C 17.3463,39.7964 20.1796,35.463 23.5,31.5 Z"/></g>
<g><path style="opacity:1" fill="#4c6b8d" d="M 74.5,31.5 C 84.0846,40.7459 88.2513,52.0793 87,65.5C 84.1088,74.0112 78.2754,78.1779 69.5,78C 72.2092,69.8808 75.8759,62.3808 80.5,55.5C 80.3551,51.8759 78.6884,49.2092 75.5,47.5C 74.5052,42.2079 74.1718,36.8746 74.5,31.5 Z"/></g>
<g><path style="opacity:1" fill="#33303a" d="M 62.5,40.5 C 57.8333,40.5 55.5,42.8333 55.5,47.5C 54.5655,46.4324 54.2322,45.099 54.5,43.5C 52.5165,43.6168 50.8498,42.9501 49.5,41.5C 48.1502,42.9501 46.4835,43.6168 44.5,43.5C 44.7678,45.099 44.4345,46.4324 43.5,47.5C 42.6807,40.1789 39.514,38.8455 34,43.5C 33.51,44.7932 33.3433,46.1266 33.5,47.5C 32.0584,45.1831 32.3918,43.0164 34.5,41C 30.1667,41.3333 29.8333,40.3333 33.5,38C 35.5,37.3333 37.5,37.3333 39.5,38C 41.8175,39.9927 44.4842,41.1594 47.5,41.5C 47.67,40.1779 47.3366,39.0113 46.5,38C 47.676,36.0858 48.676,36.2524 49.5,38.5C 50.324,36.2524 51.324,36.0858 52.5,38C 51.6634,39.0113 51.33,40.1779 51.5,41.5C 55.1592,40.1813 58.8259,38.848 62.5,37.5C 64.8541,37.5111 66.8541,38.3444 68.5,40C 68,40.5 67.5,41 67,41.5C 65.6534,39.5339 64.1534,39.2006 62.5,40.5 Z"/></g>
<g><path style="opacity:1" fill="#593e47" d="M 62.5,40.5 C 64.5,40.5 65.5,41.5 65.5,43.5C 64.1667,42.8333 63.1667,41.8333 62.5,40.5 Z"/></g>
<g><path style="opacity:1" fill="#e45768" d="M 43.5,47.5 C 42.1667,48.1667 41.1667,49.1667 40.5,50.5C 39.1667,50.5 37.8333,50.5 36.5,50.5C 35.8333,49.1667 34.8333,48.1667 33.5,47.5C 33.3433,46.1266 33.51,44.7932 34,43.5C 39.514,38.8455 42.6807,40.1789 43.5,47.5 Z"/></g>
<g><path style="opacity:1" fill="#e45768" d="M 62.5,40.5 C 63.1667,41.8333 64.1667,42.8333 65.5,43.5C 65.5,44.8333 65.5,46.1667 65.5,47.5C 64.1667,48.1667 63.1667,49.1667 62.5,50.5C 61.1667,50.5 59.8333,50.5 58.5,50.5C 57.8333,49.1667 56.8333,48.1667 55.5,47.5C 55.5,42.8333 57.8333,40.5 62.5,40.5 Z"/></g>
<g><path style="opacity:1" fill="#2c242f" d="M 38.5,43.5 C 41.1402,44.7936 41.1402,46.127 38.5,47.5C 37.6919,47.1924 37.0253,46.6924 36.5,46C 37.756,45.5831 38.4226,44.7498 38.5,43.5 Z"/></g>
<g><path style="opacity:1" fill="#2c242f" d="M 60.5,43.5 C 63.1402,44.7936 63.1402,46.127 60.5,47.5C 59.6919,47.1924 59.0253,46.6924 58.5,46C 59.756,45.5831 60.4226,44.7498 60.5,43.5 Z"/></g>
<g><path style="opacity:1" fill="#583e47" d="M 33.5,47.5 C 34.8333,48.1667 35.8333,49.1667 36.5,50.5C 34.5,50.5 33.5,49.5 33.5,47.5 Z"/></g>
<g><path style="opacity:1" fill="#583e47" d="M 55.5,47.5 C 56.8333,48.1667 57.8333,49.1667 58.5,50.5C 56.5,50.5 55.5,49.5 55.5,47.5 Z"/></g>
<g><path style="opacity:1" fill="#e55868" d="M 30.5,58.5 C 29.5788,59.981 28.4121,61.3144 27,62.5C 26.5,62.1667 26,61.8333 25.5,61.5C 27.5056,58.5195 27.839,55.5195 26.5,52.5C 26.4606,51.4168 26.1272,50.4168 25.5,49.5C 26.5,48.1667 27.5,48.1667 28.5,49.5C 30.1298,52.2761 30.7965,55.2761 30.5,58.5 Z"/></g>
<g><path style="opacity:1" fill="#533e48" d="M 43.5,47.5 C 43.5,49.5 42.5,50.5 40.5,50.5C 41.1667,49.1667 42.1667,48.1667 43.5,47.5 Z"/></g>
<g><path style="opacity:1" fill="#533e48" d="M 65.5,47.5 C 65.5,49.5 64.5,50.5 62.5,50.5C 63.1667,49.1667 64.1667,48.1667 65.5,47.5 Z"/></g>
<g><path style="opacity:1" fill="#e15767" d="M 73.5,51.5 C 72.0069,52.3121 71.3402,53.6455 71.5,55.5C 71.3402,57.3545 72.0069,58.6879 73.5,59.5C 73.5,60.5 73.5,61.5 73.5,62.5C 72.325,62.719 71.325,62.3857 70.5,61.5C 70.0576,60.2613 69.3909,59.2613 68.5,58.5C 68.2035,55.2761 68.8702,52.2761 70.5,49.5C 71.325,48.6143 72.325,48.281 73.5,48.5C 73.5,49.5 73.5,50.5 73.5,51.5 Z"/></g>
<g><path style="opacity:1" fill="#dad9da" d="M 26.5,52.5 C 26.9838,55.7977 25.9838,58.4643 23.5,60.5C 22.6919,60.1924 22.0253,59.6924 21.5,59C 24.1667,56.6667 24.1667,54.3333 21.5,52C 23.2729,50.198 24.9395,50.3647 26.5,52.5 Z"/></g>
<g><path style="opacity:1" fill="#dcdbdc" d="M 73.5,59.5 C 72.1667,56.8333 72.1667,54.1667 73.5,51.5C 74.9848,50.0651 76.3181,50.2317 77.5,52C 74.8333,54.3333 74.8333,56.6667 77.5,59C 76.3181,60.7683 74.9848,60.9349 73.5,59.5 Z"/></g>
<g><path style="opacity:1" fill="#da5565" d="M 20.5,53.5 C 22.8519,54.5426 23.0185,55.8759 21,57.5C 20.51,56.2068 20.3433,54.8734 20.5,53.5 Z"/></g>
<g><path style="opacity:1" fill="#4c3b45" d="M 73.5,51.5 C 72.1667,54.1667 72.1667,56.8333 73.5,59.5C 72.0069,58.6879 71.3402,57.3545 71.5,55.5C 71.3402,53.6455 72.0069,52.3121 73.5,51.5 Z"/></g>
<g><path style="opacity:1" fill="#da5464" d="M 77.5,53.5 C 78.5983,54.6009 78.765,55.9343 78,57.5C 76.2317,56.3181 76.0651,54.9848 77.5,53.5 Z"/></g>
<g><path style="opacity:1" fill="#52535b" d="M 44.5,61.5 C 47.6395,64.0714 50.8061,64.0714 54,61.5C 54.1667,61.8333 54.3333,62.1667 54.5,62.5C 51.737,64.6813 48.737,65.0146 45.5,63.5C 44.7025,63.0431 44.3691,62.3764 44.5,61.5 Z"/></g>
<g><path style="opacity:1" fill="#47343e" d="M 56.5,67.5 C 50.9627,68.8078 45.2961,68.8078 39.5,67.5C 38.7025,67.9569 38.3691,68.6236 38.5,69.5C 36.9122,68.3647 36.5788,67.0314 37.5,65.5C 43.6767,67.3131 50.01,67.9798 56.5,67.5 Z"/></g>
<g><path style="opacity:1" fill="#4b3a43" d="M 60.5,69.5 C 59.8166,67.8235 58.4832,67.1568 56.5,67.5C 57.9972,66.6942 59.6639,66.0276 61.5,65.5C 62.4212,67.0314 62.0878,68.3647 60.5,69.5 Z"/></g>
<g><path style="opacity:1" fill="#e15768" d="M 56.5,67.5 C 58.4832,67.1568 59.8166,67.8235 60.5,69.5C 59.6618,69.8417 59.3284,70.5084 59.5,71.5C 52.8333,70.1667 46.1667,70.1667 39.5,71.5C 38.6618,71.1583 38.3284,70.4916 38.5,69.5C 38.3691,68.6236 38.7025,67.9569 39.5,67.5C 45.2961,68.8078 50.9627,68.8078 56.5,67.5 Z"/></g>
<g><path style="opacity:1" fill="#e25767" d="M 55.5,74.5 C 52.2139,75.2071 48.8806,75.5405 45.5,75.5C 44.5084,75.6716 43.8417,75.3382 43.5,74.5C 43.3893,73.8826 43.056,73.3826 42.5,73C 47.1667,72.3333 51.8333,72.3333 56.5,73C 55.944,73.3826 55.6107,73.8826 55.5,74.5 Z"/></g>
<g><path style="opacity:1" fill="#dcdbdc" d="M 43.5,74.5 C 43.8417,75.3382 44.5084,75.6716 45.5,75.5C 46.6216,76.1558 47.9549,76.4892 49.5,76.5C 51.8825,76.639 53.8825,75.9723 55.5,74.5C 58.7342,77.7185 59.9009,81.7185 59,86.5C 55.5871,89.256 52.4205,88.9227 49.5,85.5C 42.5017,90.6419 39.335,88.9753 40,80.5C 40.353,77.8475 41.5197,75.8475 43.5,74.5 Z"/></g>
<g><path style="opacity:1" fill="#413841" d="M 55.5,74.5 C 53.8825,75.9723 51.8825,76.639 49.5,76.5C 47.9549,76.4892 46.6216,76.1558 45.5,75.5C 48.8806,75.5405 52.2139,75.2071 55.5,74.5 Z"/></g>
</svg>
