<?xml version="1.0" encoding="UTF-8"?>
<!DOCTYPE svg PUBLIC "-//W3C//DTD SVG 1.1//EN" "http://www.w3.org/Graphics/SVG/1.1/DTD/svg11.dtd">
<svg xmlns="http://www.w3.org/2000/svg" version="1.1" width="512px" height="512px" style="shape-rendering:geometricPrecision; text-rendering:geometricPrecision; image-rendering:optimizeQuality; fill-rule:evenodd; clip-rule:evenodd" xmlns:xlink="http://www.w3.org/1999/xlink">
<g><path style="opacity:0.967" fill="#282726" d="M 365.5,500.5 C 363.735,499.539 361.735,499.205 359.5,499.5C 353.114,499.161 346.78,498.495 340.5,497.5C 337.167,496.167 333.833,496.167 330.5,497.5C 323.217,496.822 315.883,496.822 308.5,497.5C 305.833,497.5 303.167,497.5 300.5,497.5C 297.5,497.5 294.5,497.5 291.5,497.5C 288.833,496.167 286.167,496.167 283.5,497.5C 279.167,497.5 274.833,497.5 270.5,497.5C 268.052,496.527 265.385,496.194 262.5,496.5C 256.167,496.5 249.833,496.5 243.5,496.5C 240.5,496.5 237.5,496.5 234.5,496.5C 230.5,496.5 226.5,496.5 222.5,496.5C 219.287,496.19 216.287,496.523 213.5,497.5C 205.833,497.5 198.167,497.5 190.5,497.5C 187.287,497.19 184.287,497.523 181.5,498.5C 173.082,498.198 164.748,498.531 156.5,499.5C 153.833,498.167 151.167,498.167 148.5,499.5C 143.786,499.353 139.119,499.686 134.5,500.5C 131.604,499.225 128.604,499.225 125.5,500.5C 117.192,501.343 108.859,502.01 100.5,502.5C 97.6146,502.194 94.9479,502.527 92.5,503.5C 85.7585,503.511 79.0918,504.178 72.5,505.5C 70.1667,505.5 67.8333,505.5 65.5,505.5C 58.6963,506.178 53.1963,503.845 49,498.5C 48.2552,495.455 46.9219,492.789 45,490.5C 34.2451,490.553 23.4118,490.386 12.5,490C 7.18378,489.345 3.68378,486.512 2,481.5C 0.624429,470.529 0.291096,459.529 1,448.5C 2.76447,436.736 9.59781,430.57 21.5,430C 30.5274,429.284 39.5274,429.451 48.5,430.5C 50.7524,422.247 56.0857,416.914 64.5,414.5C 78.3165,371.291 85.4831,326.958 86,281.5C 87.3452,272.975 91.1785,265.808 97.5,260C 103.834,256.835 109.834,253.169 115.5,249C 117.594,246.579 119.26,243.912 120.5,241C 119.167,239.667 117.833,238.333 116.5,237C 110.105,235.202 103.772,233.202 97.5,231C 89.1587,228.153 84.8254,222.32 84.5,213.5C 84.4666,200.354 90.7999,191.854 103.5,188C 114.495,185.252 125.161,181.586 135.5,177C 138.542,172.048 139.042,166.882 137,161.5C 136.097,160.299 134.931,159.465 133.5,159C 127.915,157.814 122.249,157.148 116.5,157C 110.297,153.803 104.964,149.47 100.5,144C 93.4463,142.241 86.4463,140.241 79.5,138C 76.4686,135.441 74.3019,132.274 73,128.5C 71.0901,118.277 68.4234,108.277 65,98.5C 54.3962,97.0629 48.2295,91.0629 46.5,80.5C 36.8142,80.6349 27.1475,80.8016 17.5,81C 11.6131,81.1391 6.77979,78.9725 3,74.5C 0.247006,61.2551 -0.0863276,47.9218 2,34.5C 4.54053,27.6289 9.37386,23.1289 16.5,21C 26.8494,20.8323 37.1827,20.3323 47.5,19.5C 49.8204,10.6803 55.487,5.5136 64.5,4C 70.5,3.33333 76.5,3.33333 82.5,4C 164.529,11.5365 246.696,13.7032 329,10.5C 336.027,10.7194 342.86,11.0527 349.5,11.5C 371.17,9.04714 392.837,6.54714 414.5,4C 423.833,3.33333 433.167,3.33333 442.5,4C 454.575,4.76074 462.575,10.7607 466.5,22C 475.565,22.7043 484.565,22.2043 493.5,20.5C 505.299,21.4606 510.799,27.794 510,39.5C 510.667,46.8333 510.667,54.1667 510,61.5C 508.786,69.7115 504.286,75.2115 496.5,78C 485.852,79.8355 475.185,80.6689 464.5,80.5C 463.068,85.2007 460.734,89.3673 457.5,93C 453.224,95.6348 448.891,97.9681 444.5,100C 428.968,156.789 422.134,214.622 424,273.5C 423.443,275.615 422.609,277.615 421.5,279.5C 414.884,283.612 409.884,289.112 406.5,296C 407.439,297.944 408.773,299.611 410.5,301C 422.2,305.354 428.533,313.687 429.5,326C 429.319,332.419 429.152,338.919 429,345.5C 428.535,346.931 427.701,348.097 426.5,349C 420.154,352.085 414.654,356.252 410,361.5C 409.35,366.027 411.184,369.194 415.5,371C 421.053,373.61 426.719,375.943 432.5,378C 436.145,381.453 438.645,385.62 440,390.5C 441.622,398.281 443.622,405.947 446,413.5C 452.514,414.445 457.847,417.445 462,422.5C 463.707,424.909 464.54,427.575 464.5,430.5C 477.561,430.078 490.561,430.578 503.5,432C 508.809,437.162 511.142,443.495 510.5,451C 509.864,460.492 509.364,469.992 509,479.5C 506.399,486.053 501.566,489.553 494.5,490C 484.793,490.557 475.127,490.557 465.5,490C 457.413,500.156 446.747,505.156 433.5,505C 410.714,505.363 388.047,503.863 365.5,500.5 Z M 437.5,13.5 C 438.5,13.5 439.5,13.5 440.5,13.5C 439.486,14.6737 438.153,15.3404 436.5,15.5C 436.833,14.8333 437.167,14.1667 437.5,13.5 Z M 86.5,15.5 C 87.8333,15.5 89.1667,15.5 90.5,15.5C 88.6644,17.588 86.3311,18.9213 83.5,19.5C 84.5116,18.1283 85.5116,16.795 86.5,15.5 Z M 436.5,15.5 C 436.027,16.9063 435.027,17.573 433.5,17.5C 433.973,16.0937 434.973,15.427 436.5,15.5 Z M 391.5,17.5 C 380.998,24.588 369.998,30.9214 358.5,36.5C 366.124,30.8782 373.457,24.8782 380.5,18.5C 384.179,18.2756 387.846,17.9422 391.5,17.5 Z M 346.5,19.5 C 350.833,19.5 355.167,19.5 359.5,19.5C 346.994,27.5896 333.994,34.9229 320.5,41.5C 328.873,33.7912 337.54,26.4579 346.5,19.5 Z M 315.5,20.5 C 318.5,20.5 321.5,20.5 324.5,20.5C 314.666,27.2541 304.333,33.2541 293.5,38.5C 301.124,32.8782 308.457,26.8782 315.5,20.5 Z M 450.5,20.5 C 450.833,22.5 451.167,24.5 451.5,26.5C 442.833,31.1667 434.167,35.8333 425.5,40.5C 433.612,33.6039 441.945,26.9372 450.5,20.5 Z M 197.5,21.5 C 199.833,21.5 202.167,21.5 204.5,21.5C 196.336,26.4166 188.003,31.0833 179.5,35.5C 185.5,30.8333 191.5,26.1667 197.5,21.5 Z M 224.5,21.5 C 228.833,21.5 233.167,21.5 237.5,21.5C 223.666,30.5873 209.333,38.9206 194.5,46.5C 204.5,38.1667 214.5,29.8333 224.5,21.5 Z M 257.5,21.5 C 261.167,21.5 264.833,21.5 268.5,21.5C 257.33,28.922 245.663,35.5886 233.5,41.5C 241.792,35.21 249.792,28.5434 257.5,21.5 Z M 288.5,21.5 C 290.5,21.5 292.5,21.5 294.5,21.5C 288.83,25.337 282.83,28.6704 276.5,31.5C 280.5,28.1667 284.5,24.8333 288.5,21.5 Z M 478.5,28.5 C 474.728,30.9339 470.728,32.9339 466.5,34.5C 466.5,32.1667 466.5,29.8333 466.5,27.5C 470.702,27.1832 474.702,27.5166 478.5,28.5 Z M 276.5,31.5 C 276.027,32.9063 275.027,33.573 273.5,33.5C 273.973,32.0937 274.973,31.427 276.5,31.5 Z M 320.5,41.5 C 320.027,42.9063 319.027,43.573 317.5,43.5C 317.973,42.0937 318.973,41.427 320.5,41.5 Z M 497.5,42.5 C 497.5,44.1667 497.5,45.8333 497.5,47.5C 494.663,49.2581 491.663,50.4248 488.5,51C 491.369,47.9621 494.369,45.1288 497.5,42.5 Z M 471.5,54.5 C 470.167,56.5 468.5,58.1667 466.5,59.5C 466.557,58.391 466.89,57.391 467.5,56.5C 468.514,55.3263 469.847,54.6596 471.5,54.5 Z M 163.5,57.5 C 160.399,60.9331 156.732,63.5998 152.5,65.5C 152.167,64.8333 151.833,64.1667 151.5,63.5C 155.272,61.0661 159.272,59.0661 163.5,57.5 Z M 282.5,57.5 C 280.24,59.6503 277.907,61.8169 275.5,64C 274.092,64.3152 272.759,63.9819 271.5,63C 274.91,60.6284 278.577,58.7951 282.5,57.5 Z M 385.5,57.5 C 385.027,58.9063 384.027,59.573 382.5,59.5C 382.973,58.0937 383.973,57.427 385.5,57.5 Z M 382.5,59.5 C 380.996,61.8356 378.996,63.669 376.5,65C 375.275,65.5628 374.275,65.2295 373.5,64C 376.243,61.9617 379.243,60.4617 382.5,59.5 Z M 454.5,59.5 C 454.5,60.5 454.5,61.5 454.5,62.5C 453.167,62.8333 451.833,63.1667 450.5,63.5C 451.5,61.8333 452.833,60.5 454.5,59.5 Z M 191.5,60.5 C 191.027,61.9063 190.027,62.573 188.5,62.5C 188.973,61.0937 189.973,60.427 191.5,60.5 Z M 307.5,61.5 C 306.024,63.5 304.191,65.1666 302,66.5C 301.383,65.5509 301.549,64.7175 302.5,64C 304.078,62.9055 305.745,62.0722 307.5,61.5 Z M 24.5,71.5 C 21.9506,72.6496 19.6173,72.3162 17.5,70.5C 21.8077,67.1816 26.4743,64.6816 31.5,63C 28.8001,65.5881 26.4668,68.4214 24.5,71.5 Z M 188.5,62.5 C 184.521,66.4942 179.855,69.4942 174.5,71.5C 174.414,70.5041 174.748,69.6708 175.5,69C 179.744,66.5723 184.078,64.4056 188.5,62.5 Z M 244.5,62.5 C 243.998,64.0847 242.998,64.5847 241.5,64C 242.244,62.9614 243.244,62.4614 244.5,62.5 Z M 206.5,69.5 C 203.839,72.5023 200.505,74.5023 196.5,75.5C 199.494,73.0002 202.827,71.0002 206.5,69.5 Z M 196.5,75.5 C 194.664,77.588 192.331,78.9213 189.5,79.5C 191.336,77.412 193.669,76.0787 196.5,75.5 Z M 370.5,93.5 C 373.5,93.5 376.5,93.5 379.5,93.5C 356.5,107.336 333.167,120.669 309.5,133.5C 329.284,119.434 349.617,106.101 370.5,93.5 Z M 399.5,95.5 C 401.167,95.5 402.833,95.5 404.5,95.5C 387.501,106.002 370.168,116.002 352.5,125.5C 367.961,115.264 383.628,105.264 399.5,95.5 Z M 423.5,97.5 C 426.713,97.19 429.713,97.5233 432.5,98.5C 407.167,113.167 381.833,127.833 356.5,142.5C 355.167,142.5 353.833,142.5 352.5,142.5C 375.961,127.264 399.628,112.264 423.5,97.5 Z M 315.5,93.5 C 315.027,94.9063 314.027,95.573 312.5,95.5C 312.973,94.0937 313.973,93.427 315.5,93.5 Z M 343.5,91.5 C 345.167,91.5 346.833,91.5 348.5,91.5C 334.666,100.587 320.333,108.921 305.5,116.5C 317.787,107.683 330.454,99.3495 343.5,91.5 Z M 319.5,90.5 C 320.167,90.5 320.833,90.5 321.5,90.5C 320.486,91.6737 319.153,92.3404 317.5,92.5C 317.833,91.5 318.5,90.8333 319.5,90.5 Z M 275.5,89.5 C 277.833,89.5 280.167,89.5 282.5,89.5C 270.836,97.0014 258.836,104.001 246.5,110.5C 255.863,103.145 265.53,96.1448 275.5,89.5 Z M 217.5,89.5 C 219.167,89.5 220.833,89.5 222.5,89.5C 217.498,93.0031 212.165,96.0031 206.5,98.5C 209.983,95.2608 213.65,92.2608 217.5,89.5 Z M 121.5,114.5 C 114.683,120.406 107.683,126.073 100.5,131.5C 98.0504,131.702 95.717,131.369 93.5,130.5C 102.5,124.664 111.833,119.331 121.5,114.5 Z M 155.5,122.5 C 145.04,131.231 134.04,139.231 122.5,146.5C 120.77,145.974 119.436,144.974 118.5,143.5C 130.572,136.108 142.905,129.108 155.5,122.5 Z M 352.5,125.5 C 352.027,126.906 351.027,127.573 349.5,127.5C 349.973,126.094 350.973,125.427 352.5,125.5 Z M 347.5,128.5 C 347.027,129.906 346.027,130.573 344.5,130.5C 344.973,129.094 345.973,128.427 347.5,128.5 Z M 167.5,133.5 C 159.889,139.646 151.889,145.312 143.5,150.5C 142.29,150.068 141.29,149.401 140.5,148.5C 149.366,143.234 158.366,138.234 167.5,133.5 Z M 194.5,133.5 C 180.89,143.979 166.89,153.979 152.5,163.5C 151.962,161.883 151.629,160.216 151.5,158.5C 165.569,149.775 179.903,141.442 194.5,133.5 Z M 307.5,134.5 C 307.027,135.906 306.027,136.573 304.5,136.5C 304.973,135.094 305.973,134.427 307.5,134.5 Z M 343.5,147.5 C 344.5,147.5 345.5,147.5 346.5,147.5C 341.335,151.586 335.668,154.92 329.5,157.5C 334.167,154.167 338.833,150.833 343.5,147.5 Z M 419.5,152.5 C 418.781,154.764 418.448,157.097 418.5,159.5C 385.465,179.018 352.131,198.018 318.5,216.5C 351.652,194.42 385.318,173.087 419.5,152.5 Z M 415.5,173.5 C 415.5,174.167 415.5,174.833 415.5,175.5C 410.833,177.833 406.167,180.167 401.5,182.5C 405.819,179.004 410.485,176.004 415.5,173.5 Z M 219.5,178.5 C 219.027,179.906 218.027,180.573 216.5,180.5C 216.973,179.094 217.973,178.427 219.5,178.5 Z M 216.5,180.5 C 188.879,199.317 160.879,217.651 132.5,235.5C 131.752,233.668 130.752,232.001 129.5,230.5C 158.003,213.078 187.003,196.412 216.5,180.5 Z M 401.5,182.5 C 400.341,184.25 398.674,185.25 396.5,185.5C 397.659,183.75 399.326,182.75 401.5,182.5 Z M 181.5,183.5 C 160.792,197.527 139.792,211.193 118.5,224.5C 116.139,224.326 113.806,223.993 111.5,223.5C 134.5,209.664 157.833,196.331 181.5,183.5 Z M 394.5,186.5 C 394.027,187.906 393.027,188.573 391.5,188.5C 391.973,187.094 392.973,186.427 394.5,186.5 Z M 414.5,187.5 C 413.735,190.096 413.401,192.763 413.5,195.5C 378.635,215.765 343.635,235.765 308.5,255.5C 325.563,243.773 342.897,232.44 360.5,221.5C 378.5,210.167 396.5,198.833 414.5,187.5 Z M 115.5,194.5 C 115.027,195.906 114.027,196.573 112.5,196.5C 112.5,196.167 112.5,195.833 112.5,195.5C 113.391,194.89 114.391,194.557 115.5,194.5 Z M 133.5,196.5 C 133.027,197.906 132.027,198.573 130.5,198.5C 130.973,197.094 131.973,196.427 133.5,196.5 Z M 128.5,199.5 C 128.027,200.906 127.027,201.573 125.5,201.5C 125.973,200.094 126.973,199.427 128.5,199.5 Z M 125.5,201.5 C 117.684,207.579 109.35,212.912 100.5,217.5C 100.167,216.833 99.8333,216.167 99.5,215.5C 107.932,210.403 116.598,205.736 125.5,201.5 Z M 412.5,208.5 C 412.483,210.565 412.15,212.565 411.5,214.5C 380.501,233.002 349.168,251.002 317.5,268.5C 348.652,247.753 380.319,227.753 412.5,208.5 Z M 175.5,223.5 C 159.844,233.997 143.844,243.997 127.5,253.5C 128.752,251.999 129.752,250.332 130.5,248.5C 145.366,239.901 160.366,231.568 175.5,223.5 Z M 199.5,226.5 C 166.348,248.58 132.682,269.913 98.5,290.5C 98.448,288.097 98.7814,285.764 99.5,283.5C 132.85,264.472 166.184,245.472 199.5,226.5 Z M 411.5,226.5 C 411.5,227.833 411.5,229.167 411.5,230.5C 395.072,240.262 378.405,249.595 361.5,258.5C 377.876,247.473 394.543,236.806 411.5,226.5 Z M 410.5,243.5 C 410.5,244.167 410.5,244.833 410.5,245.5C 399.462,252.352 388.129,258.686 376.5,264.5C 387.299,256.715 398.632,249.715 410.5,243.5 Z M 308.5,255.5 C 307.341,257.25 305.674,258.25 303.5,258.5C 304.659,256.75 306.326,255.75 308.5,255.5 Z M 411.5,257.5 C 411.5,258.167 411.5,258.833 411.5,259.5C 403.792,264.354 395.792,268.688 387.5,272.5C 394.963,266.716 402.963,261.716 411.5,257.5 Z M 361.5,258.5 C 360.341,260.25 358.674,261.25 356.5,261.5C 357.659,259.75 359.326,258.75 361.5,258.5 Z M 376.5,264.5 C 375.341,266.25 373.674,267.25 371.5,267.5C 372.659,265.75 374.326,264.75 376.5,264.5 Z M 371.5,267.5 C 371.027,268.906 370.027,269.573 368.5,269.5C 368.973,268.094 369.973,267.427 371.5,267.5 Z M 317.5,268.5 C 317.027,269.906 316.027,270.573 314.5,270.5C 314.973,269.094 315.973,268.427 317.5,268.5 Z M 411.5,271.5 C 411.567,272.959 411.234,274.292 410.5,275.5C 398.993,282.088 387.326,288.421 375.5,294.5C 387.125,286.348 399.125,278.681 411.5,271.5 Z M 387.5,272.5 C 386.341,274.25 384.674,275.25 382.5,275.5C 383.659,273.75 385.326,272.75 387.5,272.5 Z M 380.5,276.5 C 380.027,277.906 379.027,278.573 377.5,278.5C 377.973,277.094 378.973,276.427 380.5,276.5 Z M 198.5,279.5 C 197.341,281.25 195.674,282.25 193.5,282.5C 194.659,280.75 196.326,279.75 198.5,279.5 Z M 193.5,282.5 C 187.881,286.983 181.881,290.983 175.5,294.5C 174.5,294.5 173.5,294.5 172.5,294.5C 179.004,289.745 186.004,285.745 193.5,282.5 Z M 375.5,294.5 C 375.027,295.906 374.027,296.573 372.5,296.5C 372.973,295.094 373.973,294.427 375.5,294.5 Z M 370.5,297.5 C 370.027,298.906 369.027,299.573 367.5,299.5C 367.973,298.094 368.973,297.427 370.5,297.5 Z M 101.5,301.5 C 101.027,302.906 100.027,303.573 98.5,303.5C 98.5,303.167 98.5,302.833 98.5,302.5C 99.391,301.89 100.391,301.557 101.5,301.5 Z M 160.5,301.5 C 161.5,301.5 162.5,301.5 163.5,301.5C 141.016,316.913 118.016,331.579 94.5,345.5C 94.5,343.167 94.5,340.833 94.5,338.5C 116.5,326.167 138.5,313.833 160.5,301.5 Z M 397.5,305.5 C 398.167,305.833 398.833,306.167 399.5,306.5C 391.168,312.002 382.501,317.002 373.5,321.5C 381.205,315.808 389.205,310.474 397.5,305.5 Z M 199.5,311.5 C 199.027,312.906 198.027,313.573 196.5,313.5C 196.973,312.094 197.973,311.427 199.5,311.5 Z M 409.5,313.5 C 411.167,314.5 412.5,315.833 413.5,317.5C 392.167,329.5 370.833,341.5 349.5,353.5C 369.148,339.673 389.148,326.34 409.5,313.5 Z M 194.5,314.5 C 194.027,315.906 193.027,316.573 191.5,316.5C 191.973,315.094 192.973,314.427 194.5,314.5 Z M 191.5,316.5 C 157.18,338.997 122.513,360.997 87.5,382.5C 87.8333,379.833 88.1667,377.167 88.5,374.5C 122.833,355.167 157.167,335.833 191.5,316.5 Z M 415.5,328.5 C 415.5,330.167 415.5,331.833 415.5,333.5C 403.167,340.167 390.833,346.833 378.5,353.5C 390.307,344.427 402.64,336.093 415.5,328.5 Z M 179.5,342.5 C 179.027,343.906 178.027,344.573 176.5,344.5C 176.973,343.094 177.973,342.427 179.5,342.5 Z M 174.5,345.5 C 143.79,365.528 112.79,385.194 81.5,404.5C 82.0147,402.106 82.6814,399.772 83.5,397.5C 113.698,379.902 144.031,362.569 174.5,345.5 Z M 415.5,345.5 C 415.249,347.17 414.582,348.67 413.5,350C 408.76,352.36 404.426,355.193 400.5,358.5C 395.833,360.833 391.167,363.167 386.5,365.5C 395.607,358.106 405.274,351.439 415.5,345.5 Z M 113.5,347.5 C 112.341,349.25 110.674,350.25 108.5,350.5C 109.659,348.75 111.326,347.75 113.5,347.5 Z M 108.5,350.5 C 107.341,352.25 105.674,353.25 103.5,353.5C 104.659,351.75 106.326,350.75 108.5,350.5 Z M 103.5,353.5 C 99.8811,356.65 95.8811,359.316 91.5,361.5C 91.5,360.833 91.5,360.167 91.5,359.5C 95.2717,357.066 99.2717,355.066 103.5,353.5 Z M 378.5,353.5 C 377.341,355.25 375.674,356.25 373.5,356.5C 374.659,354.75 376.326,353.75 378.5,353.5 Z M 397.5,372.5 C 398.71,372.932 399.71,373.599 400.5,374.5C 394.167,377.833 387.833,381.167 381.5,384.5C 386.527,380.147 391.86,376.147 397.5,372.5 Z M 411.5,379.5 C 413.819,379.992 415.819,380.992 417.5,382.5C 406.671,389.083 395.671,395.416 384.5,401.5C 392.91,393.459 401.91,386.126 411.5,379.5 Z M 141.5,382.5 C 141.027,383.906 140.027,384.573 138.5,384.5C 138.973,383.094 139.973,382.427 141.5,382.5 Z M 136.5,385.5 C 136.027,386.906 135.027,387.573 133.5,387.5C 133.973,386.094 134.973,385.427 136.5,385.5 Z M 133.5,387.5 C 119.341,396.804 105.008,405.97 90.5,415C 88.8659,415.494 87.1992,415.66 85.5,415.5C 85.1667,415.5 84.8333,415.5 84.5,415.5C 100.337,405.411 116.67,396.078 133.5,387.5 Z M 425.5,391.5 C 426.038,393.117 426.371,394.784 426.5,396.5C 420.127,400.687 413.461,404.353 406.5,407.5C 412.608,401.939 418.941,396.606 425.5,391.5 Z M 263.5,397.5 C 251.481,406.166 239.147,414.499 226.5,422.5C 224.885,421.846 223.218,421.346 221.5,421C 235.393,412.889 249.393,405.056 263.5,397.5 Z M 128.5,405.5 C 128.027,406.906 127.027,407.573 125.5,407.5C 125.973,406.094 126.973,405.427 128.5,405.5 Z M 175.5,407.5 C 170.011,411.47 164.344,415.304 158.5,419C 157.167,419.667 155.833,419.667 154.5,419C 161.554,415.142 168.554,411.309 175.5,407.5 Z M 277.5,407.5 C 271.015,412.47 264.348,417.303 257.5,422C 255.926,422.699 254.593,422.365 253.5,421C 261.393,416.223 269.393,411.723 277.5,407.5 Z M 123.5,408.5 C 119.21,411.985 114.543,414.985 109.5,417.5C 108.833,417.5 108.167,417.5 107.5,417.5C 112.502,413.997 117.835,410.997 123.5,408.5 Z M 143.5,411.5 C 143.027,412.906 142.027,413.573 140.5,413.5C 140.973,412.094 141.973,411.427 143.5,411.5 Z M 299.5,411.5 C 299.027,412.906 298.027,413.573 296.5,413.5C 296.973,412.094 297.973,411.427 299.5,411.5 Z M 296.5,413.5 C 292.223,417.312 287.557,420.645 282.5,423.5C 281.167,423.5 279.833,423.5 278.5,423.5C 284.17,419.663 290.17,416.33 296.5,413.5 Z M 138.5,414.5 C 138.027,415.906 137.027,416.573 135.5,416.5C 135.973,415.094 136.973,414.427 138.5,414.5 Z M 349.5,415.5 C 346.833,417.833 344.167,420.167 341.5,422.5C 341.167,422.5 340.833,422.5 340.5,422.5C 339.402,421.603 339.402,420.77 340.5,420C 343.243,417.962 346.243,416.462 349.5,415.5 Z M 135.5,416.5 C 134.564,417.974 133.23,418.974 131.5,419.5C 130.833,419.5 130.167,419.5 129.5,419.5C 131.181,417.992 133.181,416.992 135.5,416.5 Z M 203.5,417.5 C 203.027,418.906 202.027,419.573 200.5,419.5C 200.973,418.094 201.973,417.427 203.5,417.5 Z M 376.5,418.5 C 376.167,419.167 375.833,419.833 375.5,420.5C 374.5,420.5 373.5,420.5 372.5,420.5C 373.514,419.326 374.847,418.66 376.5,418.5 Z M 200.5,419.5 C 199.564,420.974 198.23,421.974 196.5,422.5C 196.167,422.5 195.833,422.5 195.5,422.5C 196.659,420.75 198.326,419.75 200.5,419.5 Z M 312.5,420.5 C 311.833,421.5 311.167,422.5 310.5,423.5C 309.833,423.5 309.167,423.5 308.5,423.5C 309.262,421.738 310.596,420.738 312.5,420.5 Z M 440.5,422.5 C 442.674,422.75 444.341,423.75 445.5,425.5C 442.932,428.213 439.932,428.88 436.5,427.5C 437.612,425.581 438.946,423.914 440.5,422.5 Z M 97.5,423.5 C 98.1667,423.5 98.8333,423.5 99.5,423.5C 94.0327,427.953 88.0327,431.619 81.5,434.5C 85.7815,429.355 91.1148,425.688 97.5,423.5 Z M 120.5,424.5 C 121.167,424.5 121.833,424.5 122.5,424.5C 122.027,425.906 121.027,426.573 119.5,426.5C 119.833,425.833 120.167,425.167 120.5,424.5 Z M 364.5,426.5 C 365.5,426.5 366.5,426.5 367.5,426.5C 360.616,433.714 352.616,439.38 343.5,443.5C 350.317,437.594 357.317,431.927 364.5,426.5 Z M 183.5,428.5 C 184.5,428.5 185.5,428.5 186.5,428.5C 176.833,434.669 166.833,440.336 156.5,445.5C 156.953,444.542 157.619,443.708 158.5,443C 166.861,438.155 175.194,433.322 183.5,428.5 Z M 451.5,435.5 C 452.234,436.708 452.567,438.041 452.5,439.5C 445.14,443.512 437.806,447.512 430.5,451.5C 436.952,445.441 443.952,440.108 451.5,435.5 Z M 42.5,439.5 C 44.1788,439.285 45.1788,439.952 45.5,441.5C 43.1169,443.358 40.4502,444.692 37.5,445.5C 39.1667,443.5 40.8333,441.5 42.5,439.5 Z M 476.5,439.5 C 473.506,442 470.173,444 466.5,445.5C 466.5,443.5 466.5,441.5 466.5,439.5C 469.833,439.5 473.167,439.5 476.5,439.5 Z M 408.5,446.5 C 410.498,444.4 412.665,442.4 415,440.5C 415.749,441.635 415.583,442.635 414.5,443.5C 412.466,444.559 410.466,445.559 408.5,446.5 Z M 57.5,442.5 C 58.1667,442.5 58.8333,442.5 59.5,442.5C 59.1667,443.5 58.5,444.167 57.5,444.5C 57.5,443.833 57.5,443.167 57.5,442.5 Z M 248.5,452.5 C 251.318,449.495 254.484,446.828 258,444.5C 258.5,445 259,445.5 259.5,446C 256.108,448.694 252.441,450.86 248.5,452.5 Z M 156.5,445.5 C 156.027,446.906 155.027,447.573 153.5,447.5C 153.973,446.094 154.973,445.427 156.5,445.5 Z M 282.5,450.5 C 283.508,448.661 285.008,447.328 287,446.5C 286.872,449.031 285.372,450.365 282.5,450.5 Z M 201.5,449.5 C 202.314,447.727 203.648,447.227 205.5,448C 204.255,448.791 202.922,449.291 201.5,449.5 Z M 454.5,451.5 C 454.5,452.167 454.5,452.833 454.5,453.5C 453.167,453.833 451.833,454.167 450.5,454.5C 451.436,453.026 452.77,452.026 454.5,451.5 Z M 43.5,460.5 C 43.5,460.833 43.5,461.167 43.5,461.5C 43.1583,462.338 42.4916,462.672 41.5,462.5C 41.8333,461.5 42.5,460.833 43.5,460.5 Z M 60.5,460.5 C 60.0269,461.906 59.0269,462.573 57.5,462.5C 57.5,462.167 57.5,461.833 57.5,461.5C 58.391,460.89 59.391,460.557 60.5,460.5 Z M 24.5,465.5 C 21.1383,469.192 17.8049,472.859 14.5,476.5C 14.5,474.5 14.5,472.5 14.5,470.5C 17.8599,468.82 21.1932,467.153 24.5,465.5 Z M 362.5,467.5 C 351.833,475.833 341.167,484.167 330.5,492.5C 327.119,492.54 323.786,492.207 320.5,491.5C 334.166,482.998 348.166,474.998 362.5,467.5 Z M 210.5,468.5 C 200.833,476.5 191.167,484.5 181.5,492.5C 177.167,492.5 172.833,492.5 168.5,492.5C 182.166,483.998 196.166,475.998 210.5,468.5 Z M 240.5,469.5 C 231.5,476.833 222.5,484.167 213.5,491.5C 209.833,491.5 206.167,491.5 202.5,491.5C 214.832,483.665 227.498,476.332 240.5,469.5 Z M 388.5,470.5 C 379.015,478.407 369.349,486.074 359.5,493.5C 355.833,493.5 352.167,493.5 348.5,493.5C 361.499,485.331 374.832,477.665 388.5,470.5 Z M 150.5,474.5 C 141.833,481.5 133.167,488.5 124.5,495.5C 120.466,495.505 116.466,495.838 112.5,496.5C 124.832,488.665 137.498,481.332 150.5,474.5 Z M 283.5,474.5 C 276.718,480.064 269.718,485.398 262.5,490.5C 260.5,490.5 258.5,490.5 256.5,490.5C 264.997,484.414 273.997,479.081 283.5,474.5 Z M 472.5,477.5 C 471.488,478.872 470.488,480.205 469.5,481.5C 467.901,481.768 466.568,481.434 465.5,480.5C 467.713,479.227 470.046,478.227 472.5,477.5 Z M 35.5,478.5 C 35.4431,479.609 35.1098,480.609 34.5,481.5C 33.1667,481.5 31.8333,481.5 30.5,481.5C 31.8993,480.11 33.5659,479.11 35.5,478.5 Z M 88.5,481.5 C 81.4703,487.188 74.137,492.522 66.5,497.5C 65.8333,496.5 65.1667,495.5 64.5,494.5C 72.2077,489.646 80.2077,485.312 88.5,481.5 Z M 396.5,483.5 C 396.027,484.906 395.027,485.573 393.5,485.5C 393.973,484.094 394.973,483.427 396.5,483.5 Z M 393.5,485.5 C 390.167,488.5 386.833,491.5 383.5,494.5C 381.5,494.5 379.5,494.5 377.5,494.5C 382.502,490.997 387.835,487.997 393.5,485.5 Z M 436.5,485.5 C 433.143,489.852 429.809,494.185 426.5,498.5C 422.936,497.577 419.269,497.244 415.5,497.5C 422.004,492.745 429.004,488.745 436.5,485.5 Z M 286.5,488.5 C 286.027,489.906 285.027,490.573 283.5,490.5C 283.973,489.094 284.973,488.427 286.5,488.5 Z M 236.5,489.5 C 236.167,490.167 235.833,490.833 235.5,491.5C 234.5,491.5 233.5,491.5 232.5,491.5C 233.514,490.326 234.847,489.66 236.5,489.5 Z M 98.5,491.5 C 98.0269,492.906 97.0269,493.573 95.5,493.5C 95.9731,492.094 96.9731,491.427 98.5,491.5 Z M 147.5,494.5 C 146.5,494.5 145.5,494.5 144.5,494.5C 146.043,492.443 147.043,492.443 147.5,494.5 Z M 95.5,493.5 C 93.6329,494.76 92.2995,496.427 91.5,498.5C 89.8333,498.5 88.1667,498.5 86.5,498.5C 89.0078,496.076 92.0078,494.41 95.5,493.5 Z M 447.5,496.5 C 447.306,498.912 445.973,499.912 443.5,499.5C 444.795,498.512 446.128,497.512 447.5,496.5 Z"/></g>
<g><path style="opacity:0.986" fill="#fcb96f" d="M 86.5,15.5 C 85.5116,16.795 84.5116,18.1283 83.5,19.5C 86.3311,18.9213 88.6644,17.588 90.5,15.5C 126.3,17.7333 161.967,19.7333 197.5,21.5C 191.5,26.1667 185.5,30.8333 179.5,35.5C 188.003,31.0833 196.336,26.4166 204.5,21.5C 211.167,21.5 217.833,21.5 224.5,21.5C 214.5,29.8333 204.5,38.1667 194.5,46.5C 209.333,38.9206 223.666,30.5873 237.5,21.5C 244.167,21.5 250.833,21.5 257.5,21.5C 249.792,28.5434 241.792,35.21 233.5,41.5C 245.663,35.5886 257.33,28.922 268.5,21.5C 275.167,21.5 281.833,21.5 288.5,21.5C 284.5,24.8333 280.5,28.1667 276.5,31.5C 282.83,28.6704 288.83,25.337 294.5,21.5C 301.443,20.5733 308.443,20.24 315.5,20.5C 308.457,26.8782 301.124,32.8782 293.5,38.5C 304.333,33.2541 314.666,27.2541 324.5,20.5C 331.791,19.6076 339.124,19.2743 346.5,19.5C 337.54,26.4579 328.873,33.7912 320.5,41.5C 333.994,34.9229 346.994,27.5896 359.5,19.5C 366.443,18.5733 373.443,18.24 380.5,18.5C 373.457,24.8782 366.124,30.8782 358.5,36.5C 369.998,30.9214 380.998,24.588 391.5,17.5C 406.8,15.8667 422.134,14.5333 437.5,13.5C 437.167,14.1667 436.833,14.8333 436.5,15.5C 438.153,15.3404 439.486,14.6737 440.5,13.5C 445.445,13.4345 448.779,15.7679 450.5,20.5C 441.945,26.9372 433.612,33.6039 425.5,40.5C 434.167,35.8333 442.833,31.1667 451.5,26.5C 453.861,37.2328 454.861,48.2328 454.5,59.5C 452.833,60.5 451.5,61.8333 450.5,63.5C 451.833,63.1667 453.167,62.8333 454.5,62.5C 454.547,69.1947 453.047,75.528 450,81.5C 448.039,84.1353 445.539,85.9686 442.5,87C 403.207,84.6844 363.874,82.6844 324.5,81C 279.501,80.5 234.501,80.3333 189.5,80.5C 189.5,80.1667 189.5,79.8333 189.5,79.5C 188.508,79.3284 187.842,79.6618 187.5,80.5C 169.17,81.3766 150.836,82.3766 132.5,83.5C 137.647,79.197 142.98,75.0304 148.5,71C 150.464,69.549 151.797,67.7157 152.5,65.5C 156.732,63.5998 160.399,60.9331 163.5,57.5C 159.272,59.0661 155.272,61.0661 151.5,63.5C 139.392,70.0566 127.392,76.8899 115.5,84C 112.964,84.1862 110.631,84.6862 108.5,85.5C 96.3014,86.0483 84.1347,87.0483 72,88.5C 66.4319,88.2772 62.4319,85.6106 60,80.5C 55.4038,60.1536 55.4038,39.8203 60,19.5C 63.8452,13.333 69.3452,11.1663 76.5,13C 79.9913,13.738 83.3246,14.5713 86.5,15.5 Z M 437.5,13.5 C 438.5,13.5 439.5,13.5 440.5,13.5C 439.486,14.6737 438.153,15.3404 436.5,15.5C 436.833,14.8333 437.167,14.1667 437.5,13.5 Z M 86.5,15.5 C 87.8333,15.5 89.1667,15.5 90.5,15.5C 88.6644,17.588 86.3311,18.9213 83.5,19.5C 84.5116,18.1283 85.5116,16.795 86.5,15.5 Z M 436.5,15.5 C 436.027,16.9063 435.027,17.573 433.5,17.5C 433.973,16.0937 434.973,15.427 436.5,15.5 Z M 391.5,17.5 C 380.998,24.588 369.998,30.9214 358.5,36.5C 366.124,30.8782 373.457,24.8782 380.5,18.5C 384.179,18.2756 387.846,17.9422 391.5,17.5 Z M 346.5,19.5 C 350.833,19.5 355.167,19.5 359.5,19.5C 346.994,27.5896 333.994,34.9229 320.5,41.5C 328.873,33.7912 337.54,26.4579 346.5,19.5 Z M 315.5,20.5 C 318.5,20.5 321.5,20.5 324.5,20.5C 314.666,27.2541 304.333,33.2541 293.5,38.5C 301.124,32.8782 308.457,26.8782 315.5,20.5 Z M 197.5,21.5 C 199.833,21.5 202.167,21.5 204.5,21.5C 196.336,26.4166 188.003,31.0833 179.5,35.5C 185.5,30.8333 191.5,26.1667 197.5,21.5 Z M 224.5,21.5 C 228.833,21.5 233.167,21.5 237.5,21.5C 223.666,30.5873 209.333,38.9206 194.5,46.5C 204.5,38.1667 214.5,29.8333 224.5,21.5 Z M 257.5,21.5 C 261.167,21.5 264.833,21.5 268.5,21.5C 257.33,28.922 245.663,35.5886 233.5,41.5C 241.792,35.21 249.792,28.5434 257.5,21.5 Z M 288.5,21.5 C 290.5,21.5 292.5,21.5 294.5,21.5C 288.83,25.337 282.83,28.6704 276.5,31.5C 280.5,28.1667 284.5,24.8333 288.5,21.5 Z M 276.5,31.5 C 276.027,32.9063 275.027,33.573 273.5,33.5C 273.973,32.0937 274.973,31.427 276.5,31.5 Z M 320.5,41.5 C 320.027,42.9063 319.027,43.573 317.5,43.5C 317.973,42.0937 318.973,41.427 320.5,41.5 Z M 163.5,57.5 C 160.399,60.9331 156.732,63.5998 152.5,65.5C 152.167,64.8333 151.833,64.1667 151.5,63.5C 155.272,61.0661 159.272,59.0661 163.5,57.5 Z M 282.5,57.5 C 278.577,58.7951 274.91,60.6284 271.5,63C 272.759,63.9819 274.092,64.3152 275.5,64C 277.907,61.8169 280.24,59.6503 282.5,57.5 Z M 385.5,57.5 C 385.027,58.9063 384.027,59.573 382.5,59.5C 382.973,58.0937 383.973,57.427 385.5,57.5 Z M 382.5,59.5 C 379.243,60.4617 376.243,61.9617 373.5,64C 374.275,65.2295 375.275,65.5628 376.5,65C 378.996,63.669 380.996,61.8356 382.5,59.5 Z M 191.5,60.5 C 191.027,61.9063 190.027,62.573 188.5,62.5C 188.973,61.0937 189.973,60.427 191.5,60.5 Z M 307.5,61.5 C 305.745,62.0722 304.078,62.9055 302.5,64C 301.549,64.7175 301.383,65.5509 302,66.5C 304.191,65.1666 306.024,63.5 307.5,61.5 Z M 188.5,62.5 C 184.521,66.4942 179.855,69.4942 174.5,71.5C 174.414,70.5041 174.748,69.6708 175.5,69C 179.744,66.5723 184.078,64.4056 188.5,62.5 Z M 244.5,62.5 C 243.244,62.4614 242.244,62.9614 241.5,64C 242.998,64.5847 243.998,64.0847 244.5,62.5 Z M 206.5,69.5 C 203.839,72.5023 200.505,74.5023 196.5,75.5C 199.494,73.0002 202.827,71.0002 206.5,69.5 Z M 196.5,75.5 C 194.664,77.588 192.331,78.9213 189.5,79.5C 191.336,77.412 193.669,76.0787 196.5,75.5 Z"/></g>
<g><path style="opacity:0.971" fill="#653628" d="M 497.5,42.5 C 494.369,45.1288 491.369,47.9621 488.5,51C 491.663,50.4248 494.663,49.2581 497.5,47.5C 497.661,56.0135 496.661,64.3468 494.5,72.5C 493.508,72.3284 492.842,72.6618 492.5,73.5C 486.167,73.5 479.833,73.5 473.5,73.5C 473.167,72.1667 472.833,72.1667 472.5,73.5C 470.167,73.5 467.833,73.5 465.5,73.5C 465.283,68.7697 465.617,64.1031 466.5,59.5C 468.5,58.1667 470.167,56.5 471.5,54.5C 469.847,54.6596 468.514,55.3263 467.5,56.5C 466.508,49.3524 466.175,42.0191 466.5,34.5C 470.728,32.9339 474.728,30.9339 478.5,28.5C 490.871,24.5436 497.204,29.2102 497.5,42.5 Z"/></g>
<g><path style="opacity:0.978" fill="#653628" d="M 43.5,29.5 C 44.7251,30.1522 45.3917,31.3189 45.5,33C 44.7178,46.3289 44.3845,59.4956 44.5,72.5C 44.1667,71.1667 43.8333,71.1667 43.5,72.5C 36.9779,72.8235 30.6446,72.4902 24.5,71.5C 26.4668,68.4214 28.8001,65.5881 31.5,63C 26.4743,64.6816 21.8077,67.1816 17.5,70.5C 16.5041,70.5858 15.6708,70.2524 15,69.5C 14.1854,56.1213 14.352,42.7879 15.5,29.5C 25.0482,28.365 34.3816,28.365 43.5,29.5 Z"/></g>
<g><path style="opacity:0.996" fill="#e6a462" d="M 151.5,63.5 C 151.833,64.1667 152.167,64.8333 152.5,65.5C 151.797,67.7157 150.464,69.549 148.5,71C 142.98,75.0304 137.647,79.197 132.5,83.5C 124.507,84.24 116.507,84.9067 108.5,85.5C 110.631,84.6862 112.964,84.1862 115.5,84C 127.392,76.8899 139.392,70.0566 151.5,63.5 Z"/></g>
<g><path style="opacity:0.953" fill="#e9a562" d="M 379.5,93.5 C 386.363,93.6377 393.03,94.3044 399.5,95.5C 383.628,105.264 367.961,115.264 352.5,125.5C 370.168,116.002 387.501,106.002 404.5,95.5C 411.072,95.239 417.406,95.9057 423.5,97.5C 399.628,112.264 375.961,127.264 352.5,142.5C 334.333,142.064 316.333,141.398 298.5,140.5C 299.167,140.5 299.5,140.167 299.5,139.5C 300.492,139.672 301.158,139.338 301.5,138.5C 302.167,138.5 302.5,138.167 302.5,137.5C 303.492,137.672 304.158,137.338 304.5,136.5C 306.027,136.573 307.027,135.906 307.5,134.5C 308.492,134.672 309.158,134.338 309.5,133.5C 333.167,120.669 356.5,107.336 379.5,93.5 Z M 399.5,95.5 C 401.167,95.5 402.833,95.5 404.5,95.5C 387.501,106.002 370.168,116.002 352.5,125.5C 367.961,115.264 383.628,105.264 399.5,95.5 Z M 352.5,125.5 C 352.027,126.906 351.027,127.573 349.5,127.5C 349.973,126.094 350.973,125.427 352.5,125.5 Z M 347.5,128.5 C 347.027,129.906 346.027,130.573 344.5,130.5C 344.973,129.094 345.973,128.427 347.5,128.5 Z"/></g>
<g><path style="opacity:0.978" fill="#e9a562" d="M 248.5,89.5 C 247.817,90.6441 248.151,90.6441 249.5,89.5C 258.295,88.2115 266.962,88.2115 275.5,89.5C 265.53,96.1448 255.863,103.145 246.5,110.5C 258.836,104.001 270.836,97.0014 282.5,89.5C 295.011,89.1714 307.345,89.5048 319.5,90.5C 318.5,90.8333 317.833,91.5 317.5,92.5C 319.153,92.3404 320.486,91.6737 321.5,90.5C 329.019,90.175 336.352,90.5084 343.5,91.5C 330.454,99.3495 317.787,107.683 305.5,116.5C 320.333,108.921 334.666,100.587 348.5,91.5C 356.028,91.6262 363.361,92.2929 370.5,93.5C 349.617,106.101 329.284,119.434 309.5,133.5C 308.508,133.328 307.842,133.662 307.5,134.5C 305.973,134.427 304.973,135.094 304.5,136.5C 303.508,136.328 302.842,136.662 302.5,137.5C 301.833,137.5 301.5,137.833 301.5,138.5C 300.508,138.328 299.842,138.662 299.5,139.5C 298.833,139.5 298.5,139.833 298.5,140.5C 262.165,140.333 225.832,140.5 189.5,141C 188.167,141.667 186.833,142.333 185.5,143C 184.549,143.718 184.383,144.551 185,145.5C 187.596,147.02 190.429,147.853 193.5,148C 243.501,148.425 293.501,148.258 343.5,147.5C 338.833,150.833 334.167,154.167 329.5,157.5C 335.668,154.92 341.335,151.586 346.5,147.5C 351.223,146.333 355.89,145.166 360.5,144C 358.942,143.79 357.609,143.29 356.5,142.5C 381.833,127.833 407.167,113.167 432.5,98.5C 431.363,103.241 430.03,107.907 428.5,112.5C 427.833,112.5 427.5,112.833 427.5,113.5C 426.167,113.833 426.167,114.167 427.5,114.5C 425.048,127.21 422.382,139.877 419.5,152.5C 385.318,173.087 351.652,194.42 318.5,216.5C 317.508,216.328 316.842,216.662 316.5,217.5C 282.373,218.823 248.373,218.823 214.5,217.5C 205.038,218.792 195.705,218.792 186.5,217.5C 187.183,216.356 186.849,216.356 185.5,217.5C 181.261,217.695 177.928,219.362 175.5,222.5C 175.5,222.833 175.5,223.167 175.5,223.5C 160.366,231.568 145.366,239.901 130.5,248.5C 133.235,244.489 133.902,240.155 132.5,235.5C 160.879,217.651 188.879,199.317 216.5,180.5C 187.003,196.412 158.003,213.078 129.5,230.5C 125.316,229.245 121.65,227.245 118.5,224.5C 139.792,211.193 160.792,197.527 181.5,183.5C 157.833,196.331 134.5,209.664 111.5,223.5C 108.834,223.067 106.168,222.567 103.5,222C 101.859,220.871 100.859,219.371 100.5,217.5C 109.35,212.912 117.684,207.579 125.5,201.5C 116.598,205.736 107.932,210.403 99.5,215.5C 94.6708,203.191 99.0041,196.525 112.5,195.5C 112.5,195.833 112.5,196.167 112.5,196.5C 114.027,196.573 115.027,195.906 115.5,194.5C 116.492,194.672 117.158,194.338 117.5,193.5C 127.287,190.739 136.62,186.905 145.5,182C 149.953,176.6 152.287,170.434 152.5,163.5C 166.89,153.979 180.89,143.979 194.5,133.5C 179.903,141.442 165.569,149.775 151.5,158.5C 148.5,156.167 145.833,153.5 143.5,150.5C 151.889,145.312 159.889,139.646 167.5,133.5C 158.366,138.234 149.366,143.234 140.5,148.5C 134.824,148.666 129.157,148.499 123.5,148C 122.944,147.617 122.611,147.117 122.5,146.5C 134.04,139.231 145.04,131.231 155.5,122.5C 142.905,129.108 130.572,136.108 118.5,143.5C 117.761,143.631 117.094,143.464 116.5,143C 112.681,136.936 107.347,133.102 100.5,131.5C 107.683,126.073 114.683,120.406 121.5,114.5C 111.833,119.331 102.5,124.664 93.5,130.5C 89.2808,129.452 86.4475,126.785 85,122.5C 82.3138,114.716 80.8138,106.716 80.5,98.5C 79.7109,98.2172 79.0442,97.7172 78.5,97C 79.7932,96.51 81.1266,96.3433 82.5,96.5C 82.8333,97.8333 83.1667,97.8333 83.5,96.5C 111.897,93.1834 140.23,91.5167 168.5,91.5C 167.817,92.6441 168.151,92.6441 169.5,91.5C 170.167,91.5 170.5,91.1667 170.5,90.5C 186.138,89.5627 201.805,89.2294 217.5,89.5C 213.65,92.2608 209.983,95.2608 206.5,98.5C 212.165,96.0031 217.498,93.0031 222.5,89.5C 231.167,88.1667 239.833,88.1667 248.5,89.5 Z M 315.5,93.5 C 315.027,94.9063 314.027,95.573 312.5,95.5C 312.973,94.0937 313.973,93.427 315.5,93.5 Z M 343.5,91.5 C 345.167,91.5 346.833,91.5 348.5,91.5C 334.666,100.587 320.333,108.921 305.5,116.5C 317.787,107.683 330.454,99.3495 343.5,91.5 Z M 319.5,90.5 C 320.167,90.5 320.833,90.5 321.5,90.5C 320.486,91.6737 319.153,92.3404 317.5,92.5C 317.833,91.5 318.5,90.8333 319.5,90.5 Z M 275.5,89.5 C 277.833,89.5 280.167,89.5 282.5,89.5C 270.836,97.0014 258.836,104.001 246.5,110.5C 255.863,103.145 265.53,96.1448 275.5,89.5 Z M 217.5,89.5 C 219.167,89.5 220.833,89.5 222.5,89.5C 217.498,93.0031 212.165,96.0031 206.5,98.5C 209.983,95.2608 213.65,92.2608 217.5,89.5 Z M 352.5,125.5 C 352.027,126.906 351.027,127.573 349.5,127.5C 349.973,126.094 350.973,125.427 352.5,125.5 Z M 347.5,128.5 C 347.027,129.906 346.027,130.573 344.5,130.5C 344.973,129.094 345.973,128.427 347.5,128.5 Z M 307.5,134.5 C 307.027,135.906 306.027,136.573 304.5,136.5C 304.973,135.094 305.973,134.427 307.5,134.5 Z M 343.5,147.5 C 344.5,147.5 345.5,147.5 346.5,147.5C 341.335,151.586 335.668,154.92 329.5,157.5C 334.167,154.167 338.833,150.833 343.5,147.5 Z M 219.5,178.5 C 219.027,179.906 218.027,180.573 216.5,180.5C 216.973,179.094 217.973,178.427 219.5,178.5 Z M 133.5,196.5 C 133.027,197.906 132.027,198.573 130.5,198.5C 130.973,197.094 131.973,196.427 133.5,196.5 Z M 128.5,199.5 C 128.027,200.906 127.027,201.573 125.5,201.5C 125.973,200.094 126.973,199.427 128.5,199.5 Z"/></g>
<g><path style="opacity:0.997" fill="#302c29" d="M 298.5,140.5 C 316.333,141.398 334.333,142.064 352.5,142.5C 353.833,142.5 355.167,142.5 356.5,142.5C 357.609,143.29 358.942,143.79 360.5,144C 355.89,145.166 351.223,146.333 346.5,147.5C 345.5,147.5 344.5,147.5 343.5,147.5C 293.501,148.258 243.501,148.425 193.5,148C 190.429,147.853 187.596,147.02 185,145.5C 184.383,144.551 184.549,143.718 185.5,143C 186.833,142.333 188.167,141.667 189.5,141C 225.832,140.5 262.165,140.333 298.5,140.5 Z"/></g>
<g><path style="opacity:0.952" fill="#e9a562" d="M 418.5,159.5 C 418.078,164.335 417.078,169.002 415.5,173.5C 410.485,176.004 405.819,179.004 401.5,182.5C 406.167,180.167 410.833,177.833 415.5,175.5C 415.763,179.6 415.43,183.6 414.5,187.5C 396.5,198.833 378.5,210.167 360.5,221.5C 359.737,220.732 358.737,220.232 357.5,220C 344.002,219.274 330.669,218.441 317.5,217.5C 318.167,217.5 318.5,217.167 318.5,216.5C 352.131,198.018 385.465,179.018 418.5,159.5 Z M 401.5,182.5 C 400.341,184.25 398.674,185.25 396.5,185.5C 397.659,183.75 399.326,182.75 401.5,182.5 Z M 394.5,186.5 C 394.027,187.906 393.027,188.573 391.5,188.5C 391.973,187.094 392.973,186.427 394.5,186.5 Z"/></g>
<g><path style="opacity:0.974" fill="#e9a562" d="M 413.5,195.5 C 413.706,199.898 413.373,204.232 412.5,208.5C 380.319,227.753 348.652,247.753 317.5,268.5C 349.168,251.002 380.501,233.002 411.5,214.5C 412.791,218.399 412.791,222.399 411.5,226.5C 394.543,236.806 377.876,247.473 361.5,258.5C 378.405,249.595 395.072,240.262 411.5,230.5C 411.769,234.931 411.436,239.265 410.5,243.5C 398.632,249.715 387.299,256.715 376.5,264.5C 388.129,258.686 399.462,252.352 410.5,245.5C 411.483,249.298 411.817,253.298 411.5,257.5C 402.963,261.716 394.963,266.716 387.5,272.5C 395.792,268.688 403.792,264.354 411.5,259.5C 412.791,263.399 412.791,267.399 411.5,271.5C 399.125,278.681 387.125,286.348 375.5,294.5C 387.326,288.421 398.993,282.088 410.5,275.5C 410.313,277.564 409.813,279.564 409,281.5C 403.536,285.721 398.536,290.388 394,295.5C 393.333,296.833 393.333,298.167 394,299.5C 395.421,301.405 396.588,303.405 397.5,305.5C 389.205,310.474 381.205,315.808 373.5,321.5C 382.501,317.002 391.168,312.002 399.5,306.5C 403.41,308.088 406.743,310.421 409.5,313.5C 389.148,326.34 369.148,339.673 349.5,353.5C 370.833,341.5 392.167,329.5 413.5,317.5C 414.903,320.909 415.57,324.575 415.5,328.5C 402.64,336.093 390.307,344.427 378.5,353.5C 390.833,346.833 403.167,340.167 415.5,333.5C 416.482,336.962 416.815,340.629 416.5,344.5C 415.833,344.5 415.5,344.833 415.5,345.5C 405.274,351.439 395.607,358.106 386.5,365.5C 391.167,363.167 395.833,360.833 400.5,358.5C 396.505,362.456 395.505,367.123 397.5,372.5C 391.86,376.147 386.527,380.147 381.5,384.5C 387.833,381.167 394.167,377.833 400.5,374.5C 404.497,375.603 408.164,377.269 411.5,379.5C 401.91,386.126 392.91,393.459 384.5,401.5C 395.671,395.416 406.671,389.083 417.5,382.5C 419.39,382.297 420.89,382.963 422,384.5C 423.705,386.577 424.872,388.91 425.5,391.5C 418.941,396.606 412.608,401.939 406.5,407.5C 413.461,404.353 420.127,400.687 426.5,396.5C 427.117,396.611 427.617,396.944 428,397.5C 429.347,403.889 430.847,410.222 432.5,416.5C 413.529,418.207 394.529,419.54 375.5,420.5C 375.833,419.833 376.167,419.167 376.5,418.5C 374.847,418.66 373.514,419.326 372.5,420.5C 362.237,421.871 351.904,422.537 341.5,422.5C 344.167,420.167 346.833,417.833 349.5,415.5C 346.243,416.462 343.243,417.962 340.5,420C 339.402,420.77 339.402,421.603 340.5,422.5C 330.527,423.366 320.527,423.699 310.5,423.5C 311.167,422.5 311.833,421.5 312.5,420.5C 310.596,420.738 309.262,421.738 308.5,423.5C 299.833,424.833 291.167,424.833 282.5,423.5C 287.557,420.645 292.223,417.312 296.5,413.5C 290.17,416.33 284.17,419.663 278.5,423.5C 258.372,424.815 238.372,424.815 218.5,423.5C 210.981,423.825 203.648,423.492 196.5,422.5C 198.23,421.974 199.564,420.974 200.5,419.5C 198.326,419.75 196.659,420.75 195.5,422.5C 192.367,423.011 189.2,423.344 186,423.5C 167.526,421.999 149.359,420.666 131.5,419.5C 133.23,418.974 134.564,417.974 135.5,416.5C 133.181,416.992 131.181,417.992 129.5,419.5C 123.824,419.666 118.157,419.499 112.5,419C 111.263,418.768 110.263,418.268 109.5,417.5C 114.543,414.985 119.21,411.985 123.5,408.5C 117.835,410.997 112.502,413.997 107.5,417.5C 101.824,417.666 96.1569,417.499 90.5,417C 88.6183,416.802 86.9516,416.302 85.5,415.5C 87.1992,415.66 88.8659,415.494 90.5,415C 105.008,405.97 119.341,396.804 133.5,387.5C 116.67,396.078 100.337,405.411 84.5,415.5C 82.076,415.808 79.7427,415.474 77.5,414.5C 78.5387,410.972 79.8721,407.639 81.5,404.5C 112.79,385.194 143.79,365.528 174.5,345.5C 144.031,362.569 113.698,379.902 83.5,397.5C 83.5776,392.089 84.9109,387.089 87.5,382.5C 122.513,360.997 157.18,338.997 191.5,316.5C 157.167,335.833 122.833,355.167 88.5,374.5C 88.8573,369.972 89.8573,365.638 91.5,361.5C 95.8811,359.316 99.8811,356.65 103.5,353.5C 99.2717,355.066 95.2717,357.066 91.5,359.5C 91.4387,354.507 92.4387,349.841 94.5,345.5C 118.016,331.579 141.016,316.913 163.5,301.5C 180.881,301.181 198.214,301.514 215.5,302.5C 257.789,301.228 300.122,300.394 342.5,300C 348.216,299.718 353.883,299.052 359.5,298C 348.224,296.757 336.891,296.09 325.5,296C 275.193,295.476 225.193,294.976 175.5,294.5C 181.881,290.983 187.881,286.983 193.5,282.5C 186.004,285.745 179.004,289.745 172.5,294.5C 165.441,295.002 158.441,295.836 151.5,297C 150.167,297.667 150.167,298.333 151.5,299C 154.628,299.841 157.628,300.675 160.5,301.5C 138.5,313.833 116.5,326.167 94.5,338.5C 95.956,326.807 97.2894,315.14 98.5,303.5C 100.027,303.573 101.027,302.906 101.5,301.5C 100.391,301.557 99.391,301.89 98.5,302.5C 97.2092,298.601 97.2092,294.601 98.5,290.5C 132.682,269.913 166.348,248.58 199.5,226.5C 200.492,226.672 201.158,226.338 201.5,225.5C 235.835,225.274 270.168,224.94 304.5,224.5C 304.833,225.833 305.167,225.833 305.5,224.5C 314.807,223.193 324.141,223.193 333.5,224.5C 342.548,223.83 351.548,222.83 360.5,221.5C 342.897,232.44 325.563,243.773 308.5,255.5C 343.635,235.765 378.635,215.765 413.5,195.5 Z M 308.5,255.5 C 307.341,257.25 305.674,258.25 303.5,258.5C 304.659,256.75 306.326,255.75 308.5,255.5 Z M 361.5,258.5 C 360.341,260.25 358.674,261.25 356.5,261.5C 357.659,259.75 359.326,258.75 361.5,258.5 Z M 376.5,264.5 C 375.341,266.25 373.674,267.25 371.5,267.5C 372.659,265.75 374.326,264.75 376.5,264.5 Z M 371.5,267.5 C 371.027,268.906 370.027,269.573 368.5,269.5C 368.973,268.094 369.973,267.427 371.5,267.5 Z M 317.5,268.5 C 317.027,269.906 316.027,270.573 314.5,270.5C 314.973,269.094 315.973,268.427 317.5,268.5 Z M 387.5,272.5 C 386.341,274.25 384.674,275.25 382.5,275.5C 383.659,273.75 385.326,272.75 387.5,272.5 Z M 380.5,276.5 C 380.027,277.906 379.027,278.573 377.5,278.5C 377.973,277.094 378.973,276.427 380.5,276.5 Z M 198.5,279.5 C 197.341,281.25 195.674,282.25 193.5,282.5C 194.659,280.75 196.326,279.75 198.5,279.5 Z M 193.5,282.5 C 187.881,286.983 181.881,290.983 175.5,294.5C 174.5,294.5 173.5,294.5 172.5,294.5C 179.004,289.745 186.004,285.745 193.5,282.5 Z M 375.5,294.5 C 375.027,295.906 374.027,296.573 372.5,296.5C 372.973,295.094 373.973,294.427 375.5,294.5 Z M 370.5,297.5 C 370.027,298.906 369.027,299.573 367.5,299.5C 367.973,298.094 368.973,297.427 370.5,297.5 Z M 199.5,311.5 C 199.027,312.906 198.027,313.573 196.5,313.5C 196.973,312.094 197.973,311.427 199.5,311.5 Z M 194.5,314.5 C 194.027,315.906 193.027,316.573 191.5,316.5C 191.973,315.094 192.973,314.427 194.5,314.5 Z M 179.5,342.5 C 179.027,343.906 178.027,344.573 176.5,344.5C 176.973,343.094 177.973,342.427 179.5,342.5 Z M 113.5,347.5 C 112.341,349.25 110.674,350.25 108.5,350.5C 109.659,348.75 111.326,347.75 113.5,347.5 Z M 108.5,350.5 C 107.341,352.25 105.674,353.25 103.5,353.5C 104.659,351.75 106.326,350.75 108.5,350.5 Z M 378.5,353.5 C 377.341,355.25 375.674,356.25 373.5,356.5C 374.659,354.75 376.326,353.75 378.5,353.5 Z M 141.5,382.5 C 141.027,383.906 140.027,384.573 138.5,384.5C 138.973,383.094 139.973,382.427 141.5,382.5 Z M 136.5,385.5 C 136.027,386.906 135.027,387.573 133.5,387.5C 133.973,386.094 134.973,385.427 136.5,385.5 Z M 133.5,387.5 C 119.341,396.804 105.008,405.97 90.5,415C 88.8659,415.494 87.1992,415.66 85.5,415.5C 85.1667,415.5 84.8333,415.5 84.5,415.5C 100.337,405.411 116.67,396.078 133.5,387.5 Z M 263.5,397.5 C 249.393,405.056 235.393,412.889 221.5,421C 223.218,421.346 224.885,421.846 226.5,422.5C 239.147,414.499 251.481,406.166 263.5,397.5 Z M 128.5,405.5 C 128.027,406.906 127.027,407.573 125.5,407.5C 125.973,406.094 126.973,405.427 128.5,405.5 Z M 175.5,407.5 C 168.554,411.309 161.554,415.142 154.5,419C 155.833,419.667 157.167,419.667 158.5,419C 164.344,415.304 170.011,411.47 175.5,407.5 Z M 277.5,407.5 C 269.393,411.723 261.393,416.223 253.5,421C 254.593,422.365 255.926,422.699 257.5,422C 264.348,417.303 271.015,412.47 277.5,407.5 Z M 123.5,408.5 C 119.21,411.985 114.543,414.985 109.5,417.5C 108.833,417.5 108.167,417.5 107.5,417.5C 112.502,413.997 117.835,410.997 123.5,408.5 Z M 143.5,411.5 C 143.027,412.906 142.027,413.573 140.5,413.5C 140.973,412.094 141.973,411.427 143.5,411.5 Z M 299.5,411.5 C 299.027,412.906 298.027,413.573 296.5,413.5C 296.973,412.094 297.973,411.427 299.5,411.5 Z M 296.5,413.5 C 292.223,417.312 287.557,420.645 282.5,423.5C 281.167,423.5 279.833,423.5 278.5,423.5C 284.17,419.663 290.17,416.33 296.5,413.5 Z M 138.5,414.5 C 138.027,415.906 137.027,416.573 135.5,416.5C 135.973,415.094 136.973,414.427 138.5,414.5 Z M 349.5,415.5 C 346.833,417.833 344.167,420.167 341.5,422.5C 341.167,422.5 340.833,422.5 340.5,422.5C 339.402,421.603 339.402,420.77 340.5,420C 343.243,417.962 346.243,416.462 349.5,415.5 Z M 135.5,416.5 C 134.564,417.974 133.23,418.974 131.5,419.5C 130.833,419.5 130.167,419.5 129.5,419.5C 131.181,417.992 133.181,416.992 135.5,416.5 Z M 203.5,417.5 C 203.027,418.906 202.027,419.573 200.5,419.5C 200.973,418.094 201.973,417.427 203.5,417.5 Z M 376.5,418.5 C 376.167,419.167 375.833,419.833 375.5,420.5C 374.5,420.5 373.5,420.5 372.5,420.5C 373.514,419.326 374.847,418.66 376.5,418.5 Z M 200.5,419.5 C 199.564,420.974 198.23,421.974 196.5,422.5C 196.167,422.5 195.833,422.5 195.5,422.5C 196.659,420.75 198.326,419.75 200.5,419.5 Z M 312.5,420.5 C 311.833,421.5 311.167,422.5 310.5,423.5C 309.833,423.5 309.167,423.5 308.5,423.5C 309.262,421.738 310.596,420.738 312.5,420.5 Z"/></g>
<g><path style="opacity:0.995" fill="#2d2a28" d="M 185.5,217.5 C 185.833,217.5 186.167,217.5 186.5,217.5C 195.705,218.792 205.038,218.792 214.5,217.5C 248.373,218.823 282.373,218.823 316.5,217.5C 316.833,217.5 317.167,217.5 317.5,217.5C 330.669,218.441 344.002,219.274 357.5,220C 358.737,220.232 359.737,220.732 360.5,221.5C 351.548,222.83 342.548,223.83 333.5,224.5C 324.141,223.193 314.807,223.193 305.5,224.5C 305.167,224.5 304.833,224.5 304.5,224.5C 270.168,224.94 235.835,225.274 201.5,225.5C 201.167,225.5 200.833,225.5 200.5,225.5C 192.66,224.662 184.66,223.995 176.5,223.5C 176.5,222.833 176.167,222.5 175.5,222.5C 177.928,219.362 181.261,217.695 185.5,217.5 Z"/></g>
<g><path style="opacity:0.951" fill="#e9a562" d="M 175.5,223.5 C 175.833,223.5 176.167,223.5 176.5,223.5C 184.66,223.995 192.66,224.662 200.5,225.5C 199.833,225.5 199.5,225.833 199.5,226.5C 166.184,245.472 132.85,264.472 99.5,283.5C 99.4615,274.903 103.128,268.57 110.5,264.5C 111.492,264.672 112.158,264.338 112.5,263.5C 113.167,263.5 113.5,263.167 113.5,262.5C 114.492,262.672 115.158,262.338 115.5,261.5C 116.71,261.068 117.71,260.401 118.5,259.5C 119.71,259.068 120.71,258.401 121.5,257.5C 122.492,257.672 123.158,257.338 123.5,256.5C 124.167,256.5 124.5,256.167 124.5,255.5C 125.492,255.672 126.158,255.338 126.5,254.5C 127.167,254.5 127.5,254.167 127.5,253.5C 143.844,243.997 159.844,233.997 175.5,223.5 Z"/></g>
<g><path style="opacity:0.995" fill="#2b2927" d="M 172.5,294.5 C 173.5,294.5 174.5,294.5 175.5,294.5C 225.193,294.976 275.193,295.476 325.5,296C 336.891,296.09 348.224,296.757 359.5,298C 353.883,299.052 348.216,299.718 342.5,300C 300.122,300.394 257.789,301.228 215.5,302.5C 198.214,301.514 180.881,301.181 163.5,301.5C 162.5,301.5 161.5,301.5 160.5,301.5C 157.628,300.675 154.628,299.841 151.5,299C 150.167,298.333 150.167,297.667 151.5,297C 158.441,295.836 165.441,295.002 172.5,294.5 Z"/></g>
<g><path style="opacity:0.999" fill="#2a2827" d="M 151.5,376.5 C 150.781,374.305 151.781,372.805 154.5,372C 209.833,371.333 265.167,371.333 320.5,372C 333.53,372.406 346.53,373.239 359.5,374.5C 353.257,375.937 346.923,376.771 340.5,377C 280.17,378.195 219.837,378.528 159.5,378C 156.793,377.605 154.127,377.105 151.5,376.5 Z"/></g>
<g><path style="opacity:0.983" fill="#fdb970" d="M 70.5,422.5 C 71.1667,423.833 71.8333,423.833 72.5,422.5C 73.4916,422.672 74.1583,422.338 74.5,421.5C 82.4106,421.079 90.0773,421.745 97.5,423.5C 91.1148,425.688 85.7815,429.355 81.5,434.5C 88.0327,431.619 94.0327,427.953 99.5,423.5C 106.588,423.205 113.588,423.538 120.5,424.5C 120.167,425.167 119.833,425.833 119.5,426.5C 121.027,426.573 122.027,425.906 122.5,424.5C 142.972,426.05 163.305,427.383 183.5,428.5C 175.194,433.322 166.861,438.155 158.5,443C 157.619,443.708 156.953,444.542 156.5,445.5C 166.833,440.336 176.833,434.669 186.5,428.5C 245.77,430.163 305.103,429.496 364.5,426.5C 357.317,431.927 350.317,437.594 343.5,443.5C 352.616,439.38 360.616,433.714 367.5,426.5C 391.422,423.673 415.422,421.839 439.5,421C 440.056,421.383 440.389,421.883 440.5,422.5C 438.946,423.914 437.612,425.581 436.5,427.5C 439.932,428.88 442.932,428.213 445.5,425.5C 446.496,425.414 447.329,425.748 448,426.5C 449.953,429.255 451.12,432.255 451.5,435.5C 443.952,440.108 436.952,445.441 430.5,451.5C 437.806,447.512 445.14,443.512 452.5,439.5C 453.222,439.918 453.722,440.584 454,441.5C 454.498,444.817 454.665,448.15 454.5,451.5C 452.77,452.026 451.436,453.026 450.5,454.5C 451.833,454.167 453.167,453.833 454.5,453.5C 455.097,467.88 453.264,481.88 449,495.5C 448.617,496.056 448.117,496.389 447.5,496.5C 446.128,497.512 444.795,498.512 443.5,499.5C 437.797,499.625 432.13,499.292 426.5,498.5C 429.809,494.185 433.143,489.852 436.5,485.5C 429.004,488.745 422.004,492.745 415.5,497.5C 404.612,497.289 393.945,496.289 383.5,494.5C 386.833,491.5 390.167,488.5 393.5,485.5C 387.835,487.997 382.502,490.997 377.5,494.5C 371.31,494.823 365.31,494.49 359.5,493.5C 369.349,486.074 379.015,478.407 388.5,470.5C 374.832,477.665 361.499,485.331 348.5,493.5C 342.409,493.789 336.409,493.455 330.5,492.5C 341.167,484.167 351.833,475.833 362.5,467.5C 348.166,474.998 334.166,482.998 320.5,491.5C 308.211,492.211 295.877,492.211 283.5,491.5C 283.5,491.167 283.5,490.833 283.5,490.5C 282.508,490.328 281.842,490.662 281.5,491.5C 274.978,491.823 268.645,491.49 262.5,490.5C 269.718,485.398 276.718,480.064 283.5,474.5C 273.997,479.081 264.997,484.414 256.5,490.5C 249.543,491.386 242.543,491.72 235.5,491.5C 235.833,490.833 236.167,490.167 236.5,489.5C 234.847,489.66 233.514,490.326 232.5,491.5C 226.167,491.5 219.833,491.5 213.5,491.5C 222.5,484.167 231.5,476.833 240.5,469.5C 227.498,476.332 214.832,483.665 202.5,491.5C 195.543,492.386 188.543,492.72 181.5,492.5C 191.167,484.5 200.833,476.5 210.5,468.5C 196.166,475.998 182.166,483.998 168.5,492.5C 161.666,494.283 154.666,494.95 147.5,494.5C 147.043,492.443 146.043,492.443 144.5,494.5C 137.877,495.38 131.211,495.713 124.5,495.5C 133.167,488.5 141.833,481.5 150.5,474.5C 137.498,481.332 124.832,488.665 112.5,496.5C 105.485,497.126 98.4851,497.792 91.5,498.5C 92.2995,496.427 93.6329,494.76 95.5,493.5C 92.0078,494.41 89.0078,496.076 86.5,498.5C 80.8812,499.708 75.2145,500.208 69.5,500C 68.0577,499.623 67.0577,498.79 66.5,497.5C 74.137,492.522 81.4703,487.188 88.5,481.5C 80.2077,485.312 72.2077,489.646 64.5,494.5C 63.6236,494.631 62.9569,494.298 62.5,493.5C 57.645,483.652 55.9783,473.319 57.5,462.5C 59.0269,462.573 60.0269,461.906 60.5,460.5C 59.391,460.557 58.391,460.89 57.5,461.5C 56.2383,455.963 56.2383,450.297 57.5,444.5C 58.5,444.167 59.1667,443.5 59.5,442.5C 58.8333,442.5 58.1667,442.5 57.5,442.5C 57.8588,434.38 60.3588,427.047 65,420.5C 66.5843,421.861 68.4176,422.528 70.5,422.5 Z M 312.5,420.5 C 311.833,421.5 311.167,422.5 310.5,423.5C 309.833,423.5 309.167,423.5 308.5,423.5C 309.262,421.738 310.596,420.738 312.5,420.5 Z M 97.5,423.5 C 98.1667,423.5 98.8333,423.5 99.5,423.5C 94.0327,427.953 88.0327,431.619 81.5,434.5C 85.7815,429.355 91.1148,425.688 97.5,423.5 Z M 120.5,424.5 C 121.167,424.5 121.833,424.5 122.5,424.5C 122.027,425.906 121.027,426.573 119.5,426.5C 119.833,425.833 120.167,425.167 120.5,424.5 Z M 364.5,426.5 C 365.5,426.5 366.5,426.5 367.5,426.5C 360.616,433.714 352.616,439.38 343.5,443.5C 350.317,437.594 357.317,431.927 364.5,426.5 Z M 183.5,428.5 C 184.5,428.5 185.5,428.5 186.5,428.5C 176.833,434.669 166.833,440.336 156.5,445.5C 156.953,444.542 157.619,443.708 158.5,443C 166.861,438.155 175.194,433.322 183.5,428.5 Z M 408.5,446.5 C 410.466,445.559 412.466,444.559 414.5,443.5C 415.583,442.635 415.749,441.635 415,440.5C 412.665,442.4 410.498,444.4 408.5,446.5 Z M 248.5,452.5 C 252.441,450.86 256.108,448.694 259.5,446C 259,445.5 258.5,445 258,444.5C 254.484,446.828 251.318,449.495 248.5,452.5 Z M 156.5,445.5 C 156.027,446.906 155.027,447.573 153.5,447.5C 153.973,446.094 154.973,445.427 156.5,445.5 Z M 282.5,450.5 C 285.372,450.365 286.872,449.031 287,446.5C 285.008,447.328 283.508,448.661 282.5,450.5 Z M 201.5,449.5 C 202.922,449.291 204.255,448.791 205.5,448C 203.648,447.227 202.314,447.727 201.5,449.5 Z M 362.5,467.5 C 351.833,475.833 341.167,484.167 330.5,492.5C 327.119,492.54 323.786,492.207 320.5,491.5C 334.166,482.998 348.166,474.998 362.5,467.5 Z M 210.5,468.5 C 200.833,476.5 191.167,484.5 181.5,492.5C 177.167,492.5 172.833,492.5 168.5,492.5C 182.166,483.998 196.166,475.998 210.5,468.5 Z M 240.5,469.5 C 231.5,476.833 222.5,484.167 213.5,491.5C 209.833,491.5 206.167,491.5 202.5,491.5C 214.832,483.665 227.498,476.332 240.5,469.5 Z M 388.5,470.5 C 379.015,478.407 369.349,486.074 359.5,493.5C 355.833,493.5 352.167,493.5 348.5,493.5C 361.499,485.331 374.832,477.665 388.5,470.5 Z M 150.5,474.5 C 141.833,481.5 133.167,488.5 124.5,495.5C 120.466,495.505 116.466,495.838 112.5,496.5C 124.832,488.665 137.498,481.332 150.5,474.5 Z M 283.5,474.5 C 276.718,480.064 269.718,485.398 262.5,490.5C 260.5,490.5 258.5,490.5 256.5,490.5C 264.997,484.414 273.997,479.081 283.5,474.5 Z M 396.5,483.5 C 396.027,484.906 395.027,485.573 393.5,485.5C 393.973,484.094 394.973,483.427 396.5,483.5 Z M 393.5,485.5 C 390.167,488.5 386.833,491.5 383.5,494.5C 381.5,494.5 379.5,494.5 377.5,494.5C 382.502,490.997 387.835,487.997 393.5,485.5 Z M 436.5,485.5 C 433.143,489.852 429.809,494.185 426.5,498.5C 422.936,497.577 419.269,497.244 415.5,497.5C 422.004,492.745 429.004,488.745 436.5,485.5 Z M 286.5,488.5 C 286.027,489.906 285.027,490.573 283.5,490.5C 283.973,489.094 284.973,488.427 286.5,488.5 Z M 236.5,489.5 C 236.167,490.167 235.833,490.833 235.5,491.5C 234.5,491.5 233.5,491.5 232.5,491.5C 233.514,490.326 234.847,489.66 236.5,489.5 Z M 98.5,491.5 C 98.0269,492.906 97.0269,493.573 95.5,493.5C 95.9731,492.094 96.9731,491.427 98.5,491.5 Z M 147.5,494.5 C 146.5,494.5 145.5,494.5 144.5,494.5C 146.043,492.443 147.043,492.443 147.5,494.5 Z M 95.5,493.5 C 93.6329,494.76 92.2995,496.427 91.5,498.5C 89.8333,498.5 88.1667,498.5 86.5,498.5C 89.0078,496.076 92.0078,494.41 95.5,493.5 Z"/></g>
<g><path style="opacity:0.985" fill="#643628" d="M 469.5,481.5 C 470.488,480.205 471.488,478.872 472.5,477.5C 470.046,478.227 467.713,479.227 465.5,480.5C 466.106,468.843 466.439,457.176 466.5,445.5C 470.173,444 473.506,442 476.5,439.5C 477.492,439.672 478.158,439.338 478.5,438.5C 483.205,437.099 487.871,437.266 492.5,439C 493.618,440.074 494.618,441.24 495.5,442.5C 496.759,455.846 496.759,469.18 495.5,482.5C 486.748,482.548 478.081,482.215 469.5,481.5 Z"/></g>
<g><path style="opacity:0.964" fill="#653628" d="M 42.5,439.5 C 40.8333,441.5 39.1667,443.5 37.5,445.5C 40.4502,444.692 43.1169,443.358 45.5,441.5C 45.0346,447.9 44.3679,454.234 43.5,460.5C 42.5,460.833 41.8333,461.5 41.5,462.5C 42.4916,462.672 43.1583,462.338 43.5,461.5C 44.8127,467.959 45.4793,474.626 45.5,481.5C 41.8333,481.5 38.1667,481.5 34.5,481.5C 35.1098,480.609 35.4431,479.609 35.5,478.5C 33.5659,479.11 31.8993,480.11 30.5,481.5C 26.5369,482.44 22.5369,482.607 18.5,482C 15.7854,481.125 14.4521,479.292 14.5,476.5C 17.8049,472.859 21.1383,469.192 24.5,465.5C 21.1932,467.153 17.8599,468.82 14.5,470.5C 14.5,459.833 14.5,449.167 14.5,438.5C 23.9447,438.522 33.278,438.855 42.5,439.5 Z M 35.5,478.5 C 35.4431,479.609 35.1098,480.609 34.5,481.5C 33.1667,481.5 31.8333,481.5 30.5,481.5C 31.8993,480.11 33.5659,479.11 35.5,478.5 Z"/></g>
<g><path style="opacity:0.966" fill="#ffbb71" d="M 234.5,496.5 C 237.5,496.5 240.5,496.5 243.5,496.5C 242.508,498.026 241.008,498.693 239,498.5C 236.992,498.693 235.492,498.026 234.5,496.5 Z"/></g>
<g><path style="opacity:0.843" fill="#fab76f" d="M 262.5,496.5 C 265.385,496.194 268.052,496.527 270.5,497.5C 267.466,499.102 264.799,498.769 262.5,496.5 Z"/></g>
<g><path style="opacity:0.791" fill="#ffb972" d="M 181.5,498.5 C 184.287,497.523 187.287,497.19 190.5,497.5C 187.778,499.673 184.778,500.006 181.5,498.5 Z"/></g>
<g><path style="opacity:0.763" fill="#f7b66e" d="M 222.5,496.5 C 219.677,499.685 216.677,500.019 213.5,497.5C 216.287,496.523 219.287,496.19 222.5,496.5 Z"/></g>
<g><path style="opacity:0.737" fill="#e2ab63" d="M 283.5,497.5 C 286.167,496.167 288.833,496.167 291.5,497.5C 288.747,499.994 286.08,499.994 283.5,497.5 Z"/></g>
<g><path style="opacity:0.82" fill="#ffc06c" d="M 300.5,497.5 C 303.167,497.5 305.833,497.5 308.5,497.5C 305.833,500.167 303.167,500.167 300.5,497.5 Z"/></g>
<g><path style="opacity:0.815" fill="#e9ac6a" d="M 340.5,497.5 C 338.801,499.016 336.801,500.016 334.5,500.5C 332.583,500.246 331.249,499.246 330.5,497.5C 333.833,496.167 337.167,496.167 340.5,497.5 Z"/></g>
<g><path style="opacity:1" fill="#daa264" d="M 156.5,499.5 C 153.693,500.657 151.026,500.657 148.5,499.5C 151.167,498.167 153.833,498.167 156.5,499.5 Z"/></g>
<g><path style="opacity:0.617" fill="#dea663" d="M 134.5,500.5 C 132.634,501.014 130.8,501.68 129,502.5C 127.541,502.192 126.374,501.525 125.5,500.5C 128.604,499.225 131.604,499.225 134.5,500.5 Z"/></g>
<g><path style="opacity:0.212" fill="#edb16b" d="M 359.5,499.5 C 361.735,499.205 363.735,499.539 365.5,500.5C 363.32,501.794 361.32,501.461 359.5,499.5 Z"/></g>
<g><path style="opacity:0.697" fill="#f8b46b" d="M 92.5,503.5 C 94.9479,502.527 97.6146,502.194 100.5,502.5C 98.1186,504.64 95.4519,504.973 92.5,503.5 Z"/></g>
<g><path style="opacity:0.613" fill="#ffba71" d="M 65.5,505.5 C 67.8333,505.5 70.1667,505.5 72.5,505.5C 70.0837,508.034 67.7504,508.034 65.5,505.5 Z"/></g>
</svg>
