<?xml version="1.0" encoding="UTF-8"?>
<!DOCTYPE svg PUBLIC "-//W3C//DTD SVG 1.1//EN" "http://www.w3.org/Graphics/SVG/1.1/DTD/svg11.dtd">
<svg xmlns="http://www.w3.org/2000/svg" version="1.1" width="512px" height="512px" style="shape-rendering:geometricPrecision; text-rendering:geometricPrecision; image-rendering:optimizeQuality; fill-rule:evenodd; clip-rule:evenodd" xmlns:xlink="http://www.w3.org/1999/xlink">
<g><path style="opacity:0.988" fill="#000000" d="M 26.5,-0.5 C 40.1667,-0.5 53.8333,-0.5 67.5,-0.5C 73.1478,1.64984 76.9812,5.64984 79,11.5C 79.4998,21.1609 79.6665,30.8276 79.5,40.5C 166.167,40.3333 252.834,40.5 339.5,41C 342.446,41.8061 345.112,43.1395 347.5,45C 355.375,53.2103 363.542,61.0436 372,68.5C 380.791,60.7101 389.291,52.5434 397.5,44C 398.833,43.3333 400.167,42.6667 401.5,42C 411.42,40.5766 421.42,40.0766 431.5,40.5C 431.334,30.8276 431.5,21.1609 432,11.5C 434.019,5.64984 437.852,1.64984 443.5,-0.5C 457.167,-0.5 470.833,-0.5 484.5,-0.5C 490.148,1.64984 493.981,5.64984 496,11.5C 496.168,21.1838 496.668,30.8505 497.5,40.5C 504.269,42.1948 508.936,46.1948 511.5,52.5C 511.5,187.833 511.5,323.167 511.5,458.5C 508.936,464.805 504.269,468.805 497.5,470.5C 496.668,480.149 496.168,489.816 496,499.5C 493.981,505.35 490.148,509.35 484.5,511.5C 470.833,511.5 457.167,511.5 443.5,511.5C 437.852,509.35 434.019,505.35 432,499.5C 431.5,489.839 431.334,480.172 431.5,470.5C 366.166,470.667 300.832,470.5 235.5,470C 232.211,468.59 230.544,466.09 230.5,462.5C 231.039,459.958 232.372,457.792 234.5,456C 295.166,455.5 355.832,455.333 416.5,455.5C 416.333,355.166 416.5,254.833 417,154.5C 418.451,152.536 420.284,151.203 422.5,150.5C 426.273,149.822 429.106,151.156 431,154.5C 431.333,254.167 431.667,353.833 432,453.5C 432.5,454 433,454.5 433.5,455C 453.833,455.667 474.167,455.667 494.5,455C 495,454.5 495.5,454 496,453.5C 496.667,321.5 496.667,189.5 496,57.5C 495.5,57 495,56.5 494.5,56C 474.167,55.3333 453.833,55.3333 433.5,56C 433,56.5 432.5,57 432,57.5C 431.667,82.5 431.333,107.5 431,132.5C 429.15,135.841 426.317,137.174 422.5,136.5C 420.284,135.797 418.451,134.464 417,132.5C 416.5,106.835 416.333,81.1688 416.5,55.5C 413.022,55.1842 409.688,55.6842 406.5,57C 398.5,65 390.5,73 382.5,81C 376,85.1474 369.333,85.4807 362.5,82C 353.912,72.908 344.912,64.408 335.5,56.5C 255.335,55.5007 175.002,55.1674 94.5,55.5C 94.3333,187.834 94.5,320.167 95,452.5C 101.833,445.667 108.667,438.833 115.5,432C 118.726,429.425 122.393,427.925 126.5,427.5C 130.829,428.11 134.829,429.61 138.5,432C 146.167,439.667 153.833,447.333 161.5,455C 178.833,455.333 196.167,455.667 213.5,456C 216.023,457.563 217.69,459.73 218.5,462.5C 217.943,465.792 216.276,468.292 213.5,470C 195.167,470.667 176.833,470.667 158.5,470C 156.051,469.275 153.717,468.275 151.5,467C 143.625,458.79 135.458,450.956 127,443.5C 118.542,450.956 110.375,458.79 102.5,467C 100.283,468.275 97.9494,469.275 95.5,470C 90.1771,470.499 84.8437,470.666 79.5,470.5C 79.6665,480.172 79.4998,489.839 79,499.5C 76.9812,505.35 73.1478,509.35 67.5,511.5C 53.8333,511.5 40.1667,511.5 26.5,511.5C 20.8522,509.35 17.0188,505.35 15,499.5C 14.8321,489.816 14.3321,480.149 13.5,470.5C 6.73054,468.805 2.06387,464.805 -0.5,458.5C -0.5,323.167 -0.5,187.833 -0.5,52.5C 2.06387,46.1948 6.73054,42.1948 13.5,40.5C 14.3321,30.8505 14.8321,21.1838 15,11.5C 17.0188,5.64984 20.8522,1.64984 26.5,-0.5 Z"/></g>
<g><path style="opacity:1" fill="#6d472d" d="M 47.5,14.5 C 46.5301,23.0823 46.1968,31.7489 46.5,40.5C 52.5,40.5 58.5,40.5 64.5,40.5C 53.012,41.4949 41.3453,41.8283 29.5,41.5C 29.3336,32.8269 29.5002,24.1603 30,15.5C 35.7412,14.5251 41.5746,14.1918 47.5,14.5 Z"/></g>
<g><path style="opacity:1" fill="#94613d" d="M 47.5,14.5 C 53.0934,14.1934 58.5934,14.5268 64,15.5C 64.4997,23.8267 64.6664,32.16 64.5,40.5C 58.5,40.5 52.5,40.5 46.5,40.5C 46.1968,31.7489 46.5301,23.0823 47.5,14.5 Z"/></g>
<g><path style="opacity:1" fill="#6d472d" d="M 464.5,14.5 C 463.53,23.0823 463.197,31.7489 463.5,40.5C 469.5,40.5 475.5,40.5 481.5,40.5C 470.012,41.4949 458.345,41.8283 446.5,41.5C 446.334,32.8269 446.5,24.1603 447,15.5C 452.741,14.5251 458.575,14.1918 464.5,14.5 Z"/></g>
<g><path style="opacity:1" fill="#94613d" d="M 464.5,14.5 C 470.093,14.1934 475.593,14.5268 481,15.5C 481.5,23.8267 481.666,32.16 481.5,40.5C 475.5,40.5 469.5,40.5 463.5,40.5C 463.197,31.7489 463.53,23.0823 464.5,14.5 Z"/></g>
<g><path style="opacity:1" fill="#f9c153" d="M 16.5,56.5 C 26.8333,56.5 37.1667,56.5 47.5,56.5C 47.5,189.167 47.5,321.833 47.5,454.5C 37.1667,454.5 26.8333,454.5 16.5,454.5C 15.8826,454.389 15.3826,454.056 15,453.5C 14.3333,321.5 14.3333,189.5 15,57.5C 15.3826,56.944 15.8826,56.6107 16.5,56.5 Z"/></g>
<g><path style="opacity:1" fill="#fdd375" d="M 16.5,56.5 C 36.6625,55.3374 56.9958,55.1708 77.5,56C 78,56.5 78.5,57 79,57.5C 79.6667,189.5 79.6667,321.5 79,453.5C 78.5,454 78,454.5 77.5,455C 56.9958,455.829 36.6625,455.663 16.5,454.5C 26.8333,454.5 37.1667,454.5 47.5,454.5C 47.5,321.833 47.5,189.167 47.5,56.5C 37.1667,56.5 26.8333,56.5 16.5,56.5 Z"/></g>
<g><path style="opacity:1" fill="#e28a25" d="M 335.5,56.5 C 265.833,56.5 196.167,56.5 126.5,56.5C 126.5,180.167 126.5,303.833 126.5,427.5C 122.393,427.925 118.726,429.425 115.5,432C 108.667,438.833 101.833,445.667 95,452.5C 94.5,320.167 94.3333,187.834 94.5,55.5C 175.002,55.1674 255.335,55.5007 335.5,56.5 Z"/></g>
<g><path style="opacity:1" fill="#f8c052" d="M 422.5,136.5 C 423.833,141.167 423.833,145.833 422.5,150.5C 420.284,151.203 418.451,152.536 417,154.5C 416.5,254.833 416.333,355.166 416.5,455.5C 355.832,455.333 295.166,455.5 234.5,456C 232.372,457.792 231.039,459.958 230.5,462.5C 226.5,462.5 222.5,462.5 218.5,462.5C 217.69,459.73 216.023,457.563 213.5,456C 196.167,455.667 178.833,455.333 161.5,455C 153.833,447.333 146.167,439.667 138.5,432C 134.829,429.61 130.829,428.11 126.5,427.5C 126.5,303.833 126.5,180.167 126.5,56.5C 196.167,56.5 265.833,56.5 335.5,56.5C 344.912,64.408 353.912,72.908 362.5,82C 369.333,85.4807 376,85.1474 382.5,81C 390.5,73 398.5,65 406.5,57C 409.688,55.6842 413.022,55.1842 416.5,55.5C 416.333,81.1688 416.5,106.835 417,132.5C 418.451,134.464 420.284,135.797 422.5,136.5 Z"/></g>
<g><path style="opacity:1" fill="#fed475" d="M 422.5,150.5 C 423.833,145.833 423.833,141.167 422.5,136.5C 426.317,137.174 429.15,135.841 431,132.5C 431.333,107.5 431.667,82.5 432,57.5C 432.5,57 433,56.5 433.5,56C 453.833,55.3333 474.167,55.3333 494.5,56C 495,56.5 495.5,57 496,57.5C 496.667,189.5 496.667,321.5 496,453.5C 495.5,454 495,454.5 494.5,455C 474.167,455.667 453.833,455.667 433.5,455C 433,454.5 432.5,454 432,453.5C 431.667,353.833 431.333,254.167 431,154.5C 429.106,151.156 426.273,149.822 422.5,150.5 Z"/></g>
<g><path style="opacity:1" fill="#e58c25" d="M 255.5,84.5 C 277.083,82.0689 297.417,85.9022 316.5,96C 336.217,107.46 353.05,122.294 367,140.5C 367.949,148.55 364.449,151.717 356.5,150C 299.408,82.7183 242.408,82.7183 185.5,150C 173.571,151.604 161.571,151.937 149.5,151C 142.426,147.225 141.759,142.558 147.5,137C 157.833,136.667 168.167,136.333 178.5,136C 198.613,110.294 224.279,93.1277 255.5,84.5 Z"/></g>
<g><path style="opacity:1" fill="#e58b25" d="M 257.5,114.5 C 275.236,112.214 291.903,115.381 307.5,124C 327.529,135.694 344.029,151.194 357,170.5C 357.706,172.971 357.373,175.305 356,177.5C 344.667,192.833 331.333,206.167 316,217.5C 315.667,234.167 315.333,250.833 315,267.5C 310.38,272.823 305.714,272.823 301,267.5C 300.5,253.837 300.333,240.171 300.5,226.5C 270.766,241.694 240.099,254.861 208.5,266C 195.505,270.5 182.172,272.166 168.5,271C 147.48,262.126 139.98,246.626 146,224.5C 158.541,203.433 175.707,198.599 197.5,210C 207.616,217.728 212.116,227.895 211,240.5C 205.854,247.406 201.187,247.073 197,239.5C 195.16,223.312 186.327,216.812 170.5,220C 158.955,226.259 155.789,235.425 161,247.5C 166.949,256.138 175.116,258.971 185.5,256C 209.82,250.511 233.153,242.177 255.5,231C 239.825,226.31 225.825,218.643 213.5,208C 204.951,199.953 196.951,191.453 189.5,182.5C 176.179,181.667 162.846,181.167 149.5,181C 142.426,177.225 141.759,172.558 147.5,167C 160.833,166.667 174.167,166.333 187.5,166C 199.622,150.208 213.956,136.875 230.5,126C 239.244,121.262 248.244,117.429 257.5,114.5 Z"/></g>
<g><path style="opacity:1" fill="#f8c052" d="M 260.5,129.5 C 282.295,127.931 301.295,134.431 317.5,149C 325.868,156.367 333.535,164.367 340.5,173C 326.017,193.399 307.017,207.732 283.5,216C 266.957,219.366 251.623,216.366 237.5,207C 223.766,197.769 211.766,186.602 201.5,173.5C 216.427,152.231 236.094,137.564 260.5,129.5 Z"/></g>
<g><path style="opacity:1" fill="#e58b25" d="M 262.5,136.5 C 284.678,134.331 299.511,143.665 307,164.5C 309.726,189.431 298.892,204.597 274.5,210C 251.664,210.167 238.164,199 234,176.5C 234.046,156.306 243.546,142.973 262.5,136.5 Z"/></g>
<g><path style="opacity:1" fill="#f8c052" d="M 264.5,151.5 C 277.528,149.595 286.695,154.595 292,166.5C 294.174,185.688 285.674,195.188 266.5,195C 253.528,190.89 247.694,182.057 249,168.5C 251.453,160.194 256.62,154.527 264.5,151.5 Z"/></g>
<g><path style="opacity:1" fill="#e58b25" d="M 158.5,298.5 C 162.909,297.618 166.409,298.952 169,302.5C 169.667,322.167 169.667,341.833 169,361.5C 166.398,365.212 162.898,366.378 158.5,365C 156.513,363.681 155.346,361.848 155,359.5C 154.333,340.5 154.333,321.5 155,302.5C 156.376,301.295 157.542,299.962 158.5,298.5 Z"/></g>
<g><path style="opacity:1" fill="#e58b25" d="M 189.5,298.5 C 193.909,297.618 197.409,298.952 200,302.5C 200.667,322.167 200.667,341.833 200,361.5C 197.398,365.212 193.898,366.378 189.5,365C 187.513,363.681 186.346,361.848 186,359.5C 185.333,340.833 185.333,322.167 186,303.5C 186.997,301.677 188.164,300.01 189.5,298.5 Z"/></g>
<g><path style="opacity:1" fill="#e58c26" d="M 220.5,298.5 C 222.857,298.337 225.19,298.503 227.5,299C 229.333,299.5 230.5,300.667 231,302.5C 231.667,322.167 231.667,341.833 231,361.5C 228.487,365.212 224.987,366.378 220.5,365C 218.513,363.681 217.346,361.848 217,359.5C 216.333,340.833 216.333,322.167 217,303.5C 217.997,301.677 219.164,300.01 220.5,298.5 Z"/></g>
<g><path style="opacity:1" fill="#e58b25" d="M 252.5,298.5 C 256.684,297.704 259.85,299.037 262,302.5C 262.667,322.167 262.667,341.833 262,361.5C 259.019,365.696 255.186,366.529 250.5,364C 249.874,363.25 249.374,362.416 249,361.5C 248.333,341.833 248.333,322.167 249,302.5C 249.69,300.65 250.856,299.316 252.5,298.5 Z"/></g>
<g><path style="opacity:1" fill="#e58c26" d="M 283.5,298.5 C 288.28,297.641 291.78,299.308 294,303.5C 294.667,322.167 294.667,340.833 294,359.5C 291.567,365.448 287.4,366.948 281.5,364C 280.874,363.25 280.374,362.416 280,361.5C 279.333,341.833 279.333,322.167 280,302.5C 280.69,300.65 281.856,299.316 283.5,298.5 Z"/></g>
<g><path style="opacity:1" fill="#e58b25" d="M 314.5,298.5 C 319.439,297.352 322.939,299.019 325,303.5C 325.667,322.167 325.667,340.833 325,359.5C 323.542,365.059 320.042,366.892 314.5,365C 313.333,363.833 312.167,362.667 311,361.5C 310.333,341.833 310.333,322.167 311,302.5C 312.376,301.295 313.542,299.962 314.5,298.5 Z"/></g>
<g><path style="opacity:1" fill="#e58b25" d="M 345.5,298.5 C 349.909,297.618 353.409,298.952 356,302.5C 356.667,321.5 356.667,340.5 356,359.5C 354.542,365.059 351.042,366.892 345.5,365C 344.333,363.833 343.167,362.667 342,361.5C 341.333,341.833 341.333,322.167 342,302.5C 343.376,301.295 344.542,299.962 345.5,298.5 Z"/></g>
<g><path style="opacity:1" fill="#e58b25" d="M 147.5,391.5 C 150.187,391.336 152.854,391.503 155.5,392C 161.316,396.982 166.983,402.149 172.5,407.5C 177.652,402.848 182.652,398.015 187.5,393C 191.167,391 194.833,391 198.5,393C 203.365,398.2 208.532,403.033 214,407.5C 219.802,402.7 225.302,397.533 230.5,392C 234.533,390.96 238.199,391.626 241.5,394C 246.015,398.682 250.681,403.182 255.5,407.5C 260.319,403.182 264.985,398.682 269.5,394C 272.801,391.626 276.467,390.96 280.5,392C 285.718,397.72 291.384,402.887 297.5,407.5C 302.652,402.848 307.652,398.015 312.5,393C 316.167,391 319.833,391 323.5,393C 328.348,398.015 333.348,402.848 338.5,407.5C 344.017,402.149 349.684,396.982 355.5,392C 365.128,390.409 368.295,394.242 365,403.5C 357.53,409.968 350.364,416.802 343.5,424C 340.167,426 336.833,426 333.5,424C 328.623,418.787 323.456,413.954 318,409.5C 312.878,413.62 308.044,418.12 303.5,423C 300.541,425.33 297.207,425.996 293.5,425C 287.655,419.82 281.822,414.654 276,409.5C 270.178,414.654 264.345,419.82 258.5,425C 255.697,425.755 253.03,425.422 250.5,424C 245.623,418.787 240.456,413.954 235,409.5C 229.178,414.654 223.345,419.82 217.5,425C 215.167,425.667 212.833,425.667 210.5,425C 204.655,419.82 198.822,414.654 193,409.5C 187.544,413.954 182.377,418.787 177.5,424C 174.167,426 170.833,426 167.5,424C 160.636,416.802 153.47,409.968 146,403.5C 143.784,399.132 144.284,395.132 147.5,391.5 Z"/></g>
<g><path style="opacity:1" fill="#6d472d" d="M 64.5,470.5 C 58.5,470.5 52.5,470.5 46.5,470.5C 46.1968,479.251 46.5301,487.918 47.5,496.5C 41.5746,496.808 35.7412,496.475 30,495.5C 29.5002,486.84 29.3336,478.173 29.5,469.5C 41.3453,469.172 53.012,469.505 64.5,470.5 Z"/></g>
<g><path style="opacity:1" fill="#94613d" d="M 64.5,470.5 C 64.6664,478.84 64.4997,487.173 64,495.5C 58.5934,496.473 53.0934,496.807 47.5,496.5C 46.5301,487.918 46.1968,479.251 46.5,470.5C 52.5,470.5 58.5,470.5 64.5,470.5 Z"/></g>
<g><path style="opacity:1" fill="#6d472d" d="M 481.5,470.5 C 475.5,470.5 469.5,470.5 463.5,470.5C 463.197,479.251 463.53,487.918 464.5,496.5C 458.575,496.808 452.741,496.475 447,495.5C 446.5,486.84 446.334,478.173 446.5,469.5C 458.345,469.172 470.012,469.505 481.5,470.5 Z"/></g>
<g><path style="opacity:1" fill="#94613d" d="M 481.5,470.5 C 481.666,478.84 481.5,487.173 481,495.5C 475.593,496.473 470.093,496.807 464.5,496.5C 463.53,487.918 463.197,479.251 463.5,470.5C 469.5,470.5 475.5,470.5 481.5,470.5 Z"/></g>
</svg>
