<svg xmlns="http://www.w3.org/2000/svg" width="512" height="512" viewBox="0 0 512 512" version="1.1"><path d="M 70.072 16.486 C 52.388 20.506, 36.549 33.121, 29.069 49.144 C 22.609 62.982, 21.423 75.727, 24.986 92.998 C 26.629 100.963, 28.675 106.004, 37.667 124.248 L 48.389 146 76.195 146 C 102.667 146, 104.096 146.096, 106 148 C 108.694 150.694, 108.642 156.109, 105.897 158.595 C 103.990 160.323, 101.587 160.546, 80.055 161 L 56.316 161.500 91.104 231.827 C 122.266 294.822, 125.789 302.432, 124.901 304.827 C 124.356 306.297, 123.235 308.014, 122.410 308.643 C 121.111 309.633, 121.401 310.777, 124.580 317.202 C 127.975 324.063, 128.455 324.587, 131.010 324.212 C 136.017 323.477, 137.764 325.552, 146.022 342.044 L 154.012 358 171.933 358 L 189.855 358 191.927 360.635 C 195.298 364.920, 194.521 369.162, 189.928 371.537 C 187.886 372.593, 183.608 373, 174.550 373 C 167.647 373, 162 373.182, 162 373.404 C 162 373.626, 165.104 380.165, 168.898 387.934 C 176.467 403.431, 179.349 412.659, 181.048 426.829 C 182.268 436.999, 181.304 448.245, 178.364 458.148 C 174.809 470.122, 165.663 484.640, 156.780 492.411 L 151.534 497 293.017 496.983 C 413.592 496.968, 435.534 496.748, 441.500 495.496 C 467.611 490.013, 487.116 466.917, 488.709 439.592 C 489.290 429.631, 487.328 416.407, 484.046 408.165 C 483.024 405.599, 456.303 351.413, 424.664 287.750 L 367.139 172 355.570 172 C 345.333 172, 343.770 171.770, 342 170 C 339.220 167.220, 339.424 162.485, 342.455 159.455 C 344.596 157.313, 345.808 157, 351.955 157 C 355.830 157, 359 156.770, 359 156.488 C 359 156.207, 355.397 148.782, 350.994 139.988 L 342.988 124 320.244 123.985 C 303.996 123.975, 296.791 123.612, 295.017 122.714 C 292.025 121.200, 290.465 117.267, 291.392 113.575 C 292.810 107.926, 291.678 108, 376.869 108 L 454.802 108 456.962 104.340 C 460.569 98.226, 464.032 86.400, 464.681 77.975 L 465.296 70 443.599 70 C 426.511 70, 421.300 69.689, 419.072 68.537 C 414.479 66.162, 413.702 61.920, 417.073 57.635 L 419.145 55 440.140 55 L 461.135 55 460.454 52.750 C 457.260 42.190, 443.767 27.457, 431.978 21.654 C 417.871 14.712, 425.830 15.037, 269.363 15.017 L 128.226 15 135.442 22.250 C 146.068 32.925, 153.213 46.516, 156.469 62.250 L 157.038 65 183.565 65 L 210.091 65 212.545 67.455 C 215.674 70.583, 215.674 74.417, 212.545 77.545 L 210.091 80 183.675 80 L 157.258 80 156.592 85.750 C 156.022 90.672, 153.210 100.226, 150.567 106.219 C 149.856 107.833, 153.488 107.956, 209.492 108.219 L 269.174 108.500 271.587 111.306 C 274.633 114.847, 274.633 117.153, 271.587 120.694 L 269.174 123.500 207.233 123.772 C 138.698 124.073, 139.345 124.125, 135.211 118 C 132.104 113.398, 132.601 109.187, 137.628 97.500 C 141.495 88.511, 141.500 88.483, 141.475 75 C 141.453 63.561, 141.112 60.594, 139.236 55.568 C 132.436 37.341, 119.150 24.492, 100.275 17.890 C 92.613 15.209, 78.561 14.556, 70.072 16.486 M 368.655 56.829 C 366.008 59.754, 366.513 65.471, 369.635 67.927 C 374.795 71.987, 391.542 70.243, 393.379 65.455 C 394.473 62.604, 394.052 60.336, 391.927 57.635 C 389.941 55.110, 389.449 55, 380.082 55 C 371.885 55, 370.043 55.295, 368.655 56.829 M 149.455 204.455 C 148.105 205.805, 147 208.075, 147 209.500 C 147 210.925, 148.105 213.195, 149.455 214.545 C 151.656 216.747, 152.743 217, 160 217 C 167.257 217, 168.344 216.747, 170.545 214.545 C 171.895 213.195, 173 210.925, 173 209.500 C 173 208.075, 171.895 205.805, 170.545 204.455 C 168.344 202.253, 167.257 202, 160 202 C 152.743 202, 151.656 202.253, 149.455 204.455 M 199 204 C 196.250 206.750, 196.346 212.313, 199.189 214.961 C 201.350 216.975, 202.287 217, 275.578 217 C 346.585 217, 349.878 216.919, 352.089 215.129 C 355.300 212.529, 355.300 206.471, 352.089 203.871 C 349.878 202.080, 346.581 202, 275.389 202 C 202.333 202, 200.964 202.036, 199 204 M 149.455 259.455 C 148.105 260.805, 147 263.075, 147 264.500 C 147 265.925, 148.105 268.195, 149.455 269.545 L 151.909 272 267.344 272 C 378.639 272, 382.861 271.933, 385.089 270.129 C 388.300 267.529, 388.300 261.471, 385.089 258.871 C 382.861 257.067, 378.639 257, 267.344 257 L 151.909 257 149.455 259.455 M 201.073 312.635 C 199.933 314.084, 199 315.863, 199 316.588 C 199 319.232, 201.280 322.806, 203.657 323.890 C 205.388 324.678, 233.333 325, 300.093 325 L 394.091 325 396.545 322.545 C 399.576 319.515, 399.780 314.780, 397 312 C 395.028 310.028, 393.667 310, 299.073 310 L 203.145 310 201.073 312.635 M 324.500 348.359 C 320.558 350.180, 318.488 352.648, 311.541 363.809 C 308.355 368.928, 305.242 372.926, 304.624 372.693 C 304.006 372.460, 297.326 370.792, 289.779 368.987 C 276.104 365.717, 276.043 365.712, 271.445 367.468 C 266.433 369.382, 263.455 373.121, 262.371 378.861 C 261.512 383.406, 263.428 387.119, 272.678 398.838 C 276.873 404.152, 280.726 409.044, 281.240 409.708 C 281.879 410.534, 279.615 415.111, 274.088 424.163 C 267.094 435.617, 266.001 438.024, 266.004 441.955 C 266.008 447.408, 268.696 452.275, 272.906 454.451 C 278.375 457.280, 282.969 456.434, 296.258 450.153 L 308.629 444.306 317.564 455.370 C 324.227 463.619, 327.443 466.790, 330.207 467.836 C 335.312 469.767, 340.358 468.618, 344.831 464.505 L 348.500 461.130 348.327 443.207 L 348.154 425.283 359.168 419.964 C 371.654 413.934, 374.421 412.019, 376.520 407.961 C 379.443 402.309, 377.344 393.582, 372.261 390.251 C 370.919 389.372, 364.349 387.268, 357.660 385.576 L 345.500 382.500 344.771 370.129 C 343.990 356.872, 342.837 353.451, 337.913 349.781 C 334.545 347.271, 328.292 346.608, 324.500 348.359 M 325.115 370.604 C 323.295 373.648, 321.961 376.285, 322.153 376.465 C 322.344 376.644, 324.188 377.252, 326.250 377.815 L 330 378.839 329.985 373.169 C 329.962 364.741, 328.943 364.205, 325.115 370.604 M 279.981 383.606 C 282.027 386.249, 289.220 395.318, 290.101 396.365 C 290.748 397.132, 295.311 390.960, 296.621 387.546 C 296.971 386.633, 294.939 385.733, 289.810 384.530 C 285.790 383.588, 281.604 382.568, 280.508 382.264 C 278.689 381.760, 278.643 381.876, 279.981 383.606 M 307.661 398.860 C 304.703 403.612, 301.962 408.071, 301.570 408.769 C 300.991 409.803, 306.211 417.524, 312.162 424.433 C 312.638 424.985, 316.826 423.559, 322.438 420.933 L 331.911 416.500 331.948 412 C 331.969 409.525, 331.704 404.512, 331.359 400.861 L 330.732 394.222 325.616 393.129 C 322.802 392.527, 318.822 391.627, 316.770 391.128 L 313.040 390.220 307.661 398.860 M 346.393 400.582 C 346.727 401.452, 347 403.665, 347 405.499 L 347 408.835 354.005 405.723 C 357.858 404.011, 360.670 402.323, 360.255 401.973 C 359.393 401.244, 349.624 399, 347.317 399 C 346.332 399, 346.002 399.564, 346.393 400.582 M 54.707 408.250 C 52.105 412.702, 48 424.856, 48 428.105 C 48 429.904, 49.053 430, 68.826 430 C 89.302 430, 89.688 430.039, 91.826 432.314 C 94.509 435.170, 94.612 439.021, 92.090 442.139 C 90.208 444.466, 89.876 444.504, 69.090 444.806 C 44.729 445.160, 46.260 444.244, 50.287 456.058 C 58.973 481.536, 84.079 498.461, 110.500 496.649 C 136.051 494.897, 157.675 476.811, 164.525 451.465 C 167.694 439.741, 166.176 419.842, 161.113 406.750 L 160.050 404 108.620 404 L 57.190 404 54.707 408.250 M 207 408 C 204.022 410.978, 204.333 416.330, 207.635 418.927 C 210.100 420.867, 211.551 421, 230.180 421 C 249.987 421, 250.104 420.987, 252.545 418.545 C 253.895 417.195, 255 414.925, 255 413.500 C 255 412.075, 253.895 409.805, 252.545 408.455 C 250.099 406.008, 250.026 406, 229.545 406 C 210.333 406, 208.870 406.130, 207 408 M 403.455 408.455 C 402.105 409.805, 401 412.075, 401 413.500 C 401 414.925, 402.105 417.195, 403.455 418.545 L 405.909 421 433.373 421 C 448.478 421, 461.565 420.720, 462.455 420.379 C 464.897 419.442, 467.138 414.398, 466.407 411.485 C 465.080 406.200, 463.888 406, 433.732 406 L 405.909 406 403.455 408.455 M 289.670 427.750 C 288.375 429.813, 286.114 433.413, 284.645 435.750 C 283.177 438.087, 282.216 440, 282.510 440 C 282.804 440, 286.647 438.189, 291.049 435.975 L 299.054 431.950 295.860 427.975 C 294.103 425.789, 292.521 424, 292.345 424 C 292.169 424, 290.965 425.688, 289.670 427.750 M 327.500 435.170 C 325.300 436.314, 323.350 437.382, 323.167 437.542 C 322.984 437.701, 325.234 440.892, 328.167 444.632 C 333.410 451.317, 333.506 451.381, 333.840 448.470 C 334.286 444.585, 333.031 432.987, 332.170 433.044 C 331.802 433.069, 329.700 434.025, 327.500 435.170" stroke="none" fill="#fae2c0" fill-rule="evenodd"/><path d="M 64.112 2.038 C 42.810 7.637, 25.069 21.999, 15.675 41.250 C 9.677 53.542, 7.865 61.474, 7.894 75.321 C 7.922 88.466, 9.644 98.291, 13.975 110 C 15.704 114.675, 38.580 161.250, 64.809 213.500 C 116.586 316.639, 114.409 312.908, 120.863 309.571 C 122.469 308.740, 124.251 306.718, 124.823 305.077 C 125.790 302.303, 123.426 297.168, 91.089 231.797 L 56.316 161.500 80.055 161 C 101.587 160.546, 103.990 160.323, 105.897 158.595 C 108.642 156.109, 108.694 150.694, 106 148 C 104.096 146.096, 102.667 146, 76.195 146 L 48.389 146 37.667 124.248 C 28.675 106.004, 26.629 100.963, 24.986 92.998 C 21.423 75.727, 22.609 62.982, 29.069 49.144 C 34.342 37.848, 45.311 26.654, 56.148 21.507 C 89.164 5.828, 126.370 21.080, 139.236 55.568 C 141.112 60.594, 141.453 63.561, 141.475 75 C 141.500 88.483, 141.495 88.511, 137.628 97.500 C 132.601 109.187, 132.104 113.398, 135.211 118 C 139.345 124.125, 138.698 124.073, 207.233 123.772 L 269.174 123.500 271.587 120.694 C 274.633 117.153, 274.633 114.847, 271.587 111.306 L 269.174 108.500 209.492 108.219 C 153.488 107.956, 149.856 107.833, 150.567 106.219 C 153.210 100.226, 156.022 90.672, 156.592 85.750 L 157.258 80 183.675 80 L 210.091 80 212.545 77.545 C 215.674 74.417, 215.674 70.583, 212.545 67.455 L 210.091 65 183.565 65 L 157.038 65 156.469 62.250 C 153.213 46.516, 146.068 32.925, 135.442 22.250 L 128.226 15 269.363 15.017 C 425.830 15.037, 417.871 14.712, 431.978 21.654 C 443.767 27.457, 457.260 42.190, 460.454 52.750 L 461.135 55 440.140 55 L 419.145 55 417.073 57.635 C 413.702 61.920, 414.479 66.162, 419.072 68.537 C 421.300 69.689, 426.511 70, 443.599 70 L 465.296 70 464.681 77.975 C 464.032 86.400, 460.569 98.226, 456.962 104.340 L 454.802 108 376.869 108 C 291.678 108, 292.810 107.926, 291.392 113.575 C 290.465 117.267, 292.025 121.200, 295.017 122.714 C 296.791 123.612, 303.996 123.975, 320.244 123.985 L 342.988 124 350.994 139.988 C 355.397 148.782, 359 156.207, 359 156.488 C 359 156.770, 355.830 157, 351.955 157 C 345.808 157, 344.596 157.313, 342.455 159.455 C 339.424 162.485, 339.220 167.220, 342 170 C 343.770 171.770, 345.333 172, 355.570 172 L 367.139 172 424.664 287.750 C 456.303 351.413, 483.024 405.599, 484.046 408.165 C 487.328 416.407, 489.290 429.631, 488.709 439.592 C 487.116 466.917, 467.611 490.013, 441.500 495.496 C 435.534 496.748, 413.592 496.968, 293.017 496.983 L 151.534 497 156.780 492.411 C 174.255 477.124, 183.941 450.951, 181.048 426.829 C 179.349 412.659, 176.467 403.431, 168.898 387.934 C 165.104 380.165, 162 373.626, 162 373.404 C 162 373.182, 167.647 373, 174.550 373 C 183.608 373, 187.886 372.593, 189.928 371.537 C 194.521 369.162, 195.298 364.920, 191.927 360.635 L 189.855 358 171.933 358 L 154.012 358 146.022 342.044 C 141.627 333.268, 137.154 325.618, 136.082 325.044 C 131.018 322.334, 124.910 325.303, 124.840 330.508 C 124.815 332.377, 129.716 343.540, 137.900 360.256 C 145.105 374.971, 151 387.234, 151 387.506 C 151 387.778, 128.928 388, 101.950 388 C 46.660 388, 49.366 387.638, 44.169 395.737 C 35.154 409.786, 31.533 423.452, 32.221 440.839 C 33.002 460.595, 39.754 475.920, 53.917 490.083 C 62.572 498.738, 71.955 504.640, 83.500 508.692 L 91.500 511.500 265 511.779 C 458.514 512.090, 445.330 512.541, 460.646 505.088 C 477.249 497.008, 488.729 485.609, 496.488 469.500 C 502.261 457.512, 504.093 449.491, 504.078 436.257 C 504.065 423.979, 502.340 413.738, 498.506 403.165 C 497.043 399.131, 465.505 335.050, 428.423 260.764 C 391.340 186.478, 361 125.316, 361 124.849 C 361 124.382, 382.869 124, 409.599 124 C 464.654 124, 462.699 124.263, 467.897 116.157 C 482.031 94.121, 483.985 66.222, 473.007 43.207 C 463.773 23.849, 448.812 10.437, 428.500 3.308 L 420.500 0.500 246 0.298 C 76.098 0.101, 71.305 0.147, 64.112 2.038 M 368.655 56.829 C 366.008 59.754, 366.513 65.471, 369.635 67.927 C 374.795 71.987, 391.542 70.243, 393.379 65.455 C 394.473 62.604, 394.052 60.336, 391.927 57.635 C 389.941 55.110, 389.449 55, 380.082 55 C 371.885 55, 370.043 55.295, 368.655 56.829 M 149.455 204.455 C 148.105 205.805, 147 208.075, 147 209.500 C 147 210.925, 148.105 213.195, 149.455 214.545 C 151.656 216.747, 152.743 217, 160 217 C 167.257 217, 168.344 216.747, 170.545 214.545 C 171.895 213.195, 173 210.925, 173 209.500 C 173 208.075, 171.895 205.805, 170.545 204.455 C 168.344 202.253, 167.257 202, 160 202 C 152.743 202, 151.656 202.253, 149.455 204.455 M 199 204 C 196.250 206.750, 196.346 212.313, 199.189 214.961 C 201.350 216.975, 202.287 217, 275.578 217 C 346.585 217, 349.878 216.919, 352.089 215.129 C 355.300 212.529, 355.300 206.471, 352.089 203.871 C 349.878 202.080, 346.581 202, 275.389 202 C 202.333 202, 200.964 202.036, 199 204 M 149.455 259.455 C 148.105 260.805, 147 263.075, 147 264.500 C 147 265.925, 148.105 268.195, 149.455 269.545 L 151.909 272 267.344 272 C 378.639 272, 382.861 271.933, 385.089 270.129 C 388.300 267.529, 388.300 261.471, 385.089 258.871 C 382.861 257.067, 378.639 257, 267.344 257 L 151.909 257 149.455 259.455 M 201.073 312.635 C 199.933 314.084, 199 315.863, 199 316.588 C 199 319.232, 201.280 322.806, 203.657 323.890 C 205.388 324.678, 233.333 325, 300.093 325 L 394.091 325 396.545 322.545 C 399.576 319.515, 399.780 314.780, 397 312 C 395.028 310.028, 393.667 310, 299.073 310 L 203.145 310 201.073 312.635 M 324.500 348.359 C 320.558 350.180, 318.488 352.648, 311.541 363.809 C 308.355 368.928, 305.242 372.926, 304.624 372.693 C 304.006 372.460, 297.326 370.792, 289.779 368.987 C 276.104 365.717, 276.043 365.712, 271.445 367.468 C 266.433 369.382, 263.455 373.121, 262.371 378.861 C 261.512 383.406, 263.428 387.119, 272.678 398.838 C 276.873 404.152, 280.726 409.044, 281.240 409.708 C 281.879 410.534, 279.615 415.111, 274.088 424.163 C 267.094 435.617, 266.001 438.024, 266.004 441.955 C 266.008 447.408, 268.696 452.275, 272.906 454.451 C 278.375 457.280, 282.969 456.434, 296.258 450.153 L 308.629 444.306 317.564 455.370 C 324.227 463.619, 327.443 466.790, 330.207 467.836 C 335.312 469.767, 340.358 468.618, 344.831 464.505 L 348.500 461.130 348.327 443.207 L 348.154 425.283 359.168 419.964 C 371.654 413.934, 374.421 412.019, 376.520 407.961 C 379.443 402.309, 377.344 393.582, 372.261 390.251 C 370.919 389.372, 364.349 387.268, 357.660 385.576 L 345.500 382.500 344.771 370.129 C 343.990 356.872, 342.837 353.451, 337.913 349.781 C 334.545 347.271, 328.292 346.608, 324.500 348.359 M 325.115 370.604 C 323.295 373.648, 321.961 376.285, 322.153 376.465 C 322.344 376.644, 324.188 377.252, 326.250 377.815 L 330 378.839 329.985 373.169 C 329.962 364.741, 328.943 364.205, 325.115 370.604 M 279.981 383.606 C 282.027 386.249, 289.220 395.318, 290.101 396.365 C 290.748 397.132, 295.311 390.960, 296.621 387.546 C 296.971 386.633, 294.939 385.733, 289.810 384.530 C 285.790 383.588, 281.604 382.568, 280.508 382.264 C 278.689 381.760, 278.643 381.876, 279.981 383.606 M 307.661 398.860 C 304.703 403.612, 301.962 408.071, 301.570 408.769 C 300.991 409.803, 306.211 417.524, 312.162 424.433 C 312.638 424.985, 316.826 423.559, 322.438 420.933 L 331.911 416.500 331.948 412 C 331.969 409.525, 331.704 404.512, 331.359 400.861 L 330.732 394.222 325.616 393.129 C 322.802 392.527, 318.822 391.627, 316.770 391.128 L 313.040 390.220 307.661 398.860 M 346.393 400.582 C 346.727 401.452, 347 403.665, 347 405.499 L 347 408.835 354.005 405.723 C 357.858 404.011, 360.670 402.323, 360.255 401.973 C 359.393 401.244, 349.624 399, 347.317 399 C 346.332 399, 346.002 399.564, 346.393 400.582 M 54.707 408.250 C 52.105 412.702, 48 424.856, 48 428.105 C 48 429.904, 49.053 430, 68.826 430 C 89.302 430, 89.688 430.039, 91.826 432.314 C 94.509 435.170, 94.612 439.021, 92.090 442.139 C 90.208 444.466, 89.876 444.504, 69.090 444.806 C 44.729 445.160, 46.260 444.244, 50.287 456.058 C 58.973 481.536, 84.079 498.461, 110.500 496.649 C 136.051 494.897, 157.675 476.811, 164.525 451.465 C 167.694 439.741, 166.176 419.842, 161.113 406.750 L 160.050 404 108.620 404 L 57.190 404 54.707 408.250 M 207 408 C 204.022 410.978, 204.333 416.330, 207.635 418.927 C 210.100 420.867, 211.551 421, 230.180 421 C 249.987 421, 250.104 420.987, 252.545 418.545 C 253.895 417.195, 255 414.925, 255 413.500 C 255 412.075, 253.895 409.805, 252.545 408.455 C 250.099 406.008, 250.026 406, 229.545 406 C 210.333 406, 208.870 406.130, 207 408 M 403.455 408.455 C 402.105 409.805, 401 412.075, 401 413.500 C 401 414.925, 402.105 417.195, 403.455 418.545 L 405.909 421 433.373 421 C 448.478 421, 461.565 420.720, 462.455 420.379 C 464.897 419.442, 467.138 414.398, 466.407 411.485 C 465.080 406.200, 463.888 406, 433.732 406 L 405.909 406 403.455 408.455 M 289.670 427.750 C 288.375 429.813, 286.114 433.413, 284.645 435.750 C 283.177 438.087, 282.216 440, 282.510 440 C 282.804 440, 286.647 438.189, 291.049 435.975 L 299.054 431.950 295.860 427.975 C 294.103 425.789, 292.521 424, 292.345 424 C 292.169 424, 290.965 425.688, 289.670 427.750 M 327.500 435.170 C 325.300 436.314, 323.350 437.382, 323.167 437.542 C 322.984 437.701, 325.234 440.892, 328.167 444.632 C 333.410 451.317, 333.506 451.381, 333.840 448.470 C 334.286 444.585, 333.031 432.987, 332.170 433.044 C 331.802 433.069, 329.700 434.025, 327.500 435.170" stroke="none" fill="#050505" fill-rule="evenodd"/></svg>