<?xml version="1.0" encoding="UTF-8"?>
<!DOCTYPE svg PUBLIC "-//W3C//DTD SVG 1.1//EN" "http://www.w3.org/Graphics/SVG/1.1/DTD/svg11.dtd">
<svg xmlns="http://www.w3.org/2000/svg" version="1.1" width="512px" height="512px" style="shape-rendering:geometricPrecision; text-rendering:geometricPrecision; image-rendering:optimizeQuality; fill-rule:evenodd; clip-rule:evenodd" xmlns:xlink="http://www.w3.org/1999/xlink">
<g><path style="opacity:0.999" fill="#231f20" d="M 16.5,-0.5 C 106.5,-0.5 196.5,-0.5 286.5,-0.5C 300.5,5.48968 306.167,16.1563 303.5,31.5C 307.514,31.3345 311.514,31.5012 315.5,32C 322.794,34.9314 330.127,37.7648 337.5,40.5C 337.833,41.1667 338.167,41.8333 338.5,42.5C 337.822,44.516 337.156,46.516 336.5,48.5C 335.009,51.0209 333.342,53.3542 331.5,55.5C 323.743,53.123 316.077,50.4564 308.5,47.5C 306.813,47.7605 305.313,48.4272 304,49.5C 289.465,89.2729 275.631,129.273 262.5,169.5C 258.129,180.272 254.129,191.272 250.5,202.5C 226.108,272.843 201.608,343.176 177,413.5C 174.856,417.482 175.022,421.315 177.5,425C 238.167,448.333 298.833,471.667 359.5,495C 362.257,495.782 364.757,495.282 367,493.5C 370.137,485.255 372.971,476.922 375.5,468.5C 378.426,469.461 381.426,470.127 384.5,470.5C 386.701,471.566 389.035,472.233 391.5,472.5C 388.858,482.788 385.358,492.788 381,502.5C 377.839,506.509 374.006,509.509 369.5,511.5C 364.833,511.5 360.167,511.5 355.5,511.5C 338.757,504.469 321.757,497.802 304.5,491.5C 301.585,501.075 295.585,507.742 286.5,511.5C 196.5,511.5 106.5,511.5 16.5,511.5C 8.5,508.167 2.83333,502.5 -0.5,494.5C -0.5,335.167 -0.5,175.833 -0.5,16.5C 2.83333,8.5 8.5,2.83333 16.5,-0.5 Z"/></g>
<g><path style="opacity:1" fill="#ae6f28" d="M 64.5,15.5 C 64.5441,19.0897 66.2108,21.5897 69.5,23C 113.833,23.6667 158.167,23.6667 202.5,23C 206.062,21.6922 208.062,19.1922 208.5,15.5C 211.167,15.5 213.833,15.5 216.5,15.5C 217.529,21.9471 221.363,24.6138 228,23.5C 234.689,24.4225 238.856,21.7559 240.5,15.5C 253.167,15.5 265.833,15.5 278.5,15.5C 276.611,21.6682 274.611,27.8349 272.5,34C 272.164,35.0299 271.497,35.5299 270.5,35.5C 269.547,33.39 267.881,32.2233 265.5,32C 189.167,31.3333 112.833,31.3333 36.5,32C 34.3333,32.8333 32.8333,34.3333 32,36.5C 31.3333,182.167 31.3333,327.833 32,473.5C 32.3981,476.232 33.8981,478.065 36.5,479C 76.832,479.5 117.165,479.667 157.5,479.5C 170.5,484.833 183.5,490.167 196.5,495.5C 137.832,495.667 79.1657,495.5 20.5,495C 17.8981,494.065 16.3981,492.232 16,489.5C 15.3333,333.167 15.3333,176.833 16,20.5C 16.8333,18.3333 18.3333,16.8333 20.5,16C 35.1629,15.5001 49.8295,15.3334 64.5,15.5 Z"/></g>
<g><path style="opacity:1" fill="#e09025" d="M 64.5,15.5 C 112.5,15.5 160.5,15.5 208.5,15.5C 208.062,19.1922 206.062,21.6922 202.5,23C 158.167,23.6667 113.833,23.6667 69.5,23C 66.2108,21.5897 64.5441,19.0897 64.5,15.5 Z"/></g>
<g><path style="opacity:1" fill="#df9025" d="M 216.5,15.5 C 224.5,15.5 232.5,15.5 240.5,15.5C 238.856,21.7559 234.689,24.4225 228,23.5C 221.363,24.6138 217.529,21.9471 216.5,15.5 Z"/></g>
<g><path style="opacity:1" fill="#8b5921" d="M 278.5,15.5 C 282.433,15.4113 285.266,17.078 287,20.5C 287.667,30.1667 287.667,39.8333 287,49.5C 279.235,71.6361 271.401,93.6361 263.5,115.5C 263.5,103.5 263.5,91.5 263.5,79.5C 266.167,79.5 268.833,79.5 271.5,79.5C 271.816,64.755 271.483,50.0884 270.5,35.5C 271.497,35.5299 272.164,35.0299 272.5,34C 274.611,27.8349 276.611,21.6682 278.5,15.5 Z"/></g>
<g><path style="opacity:1" fill="#231f20" d="M 270.5,35.5 C 271.483,50.0884 271.816,64.755 271.5,79.5C 268.833,79.5 266.167,79.5 263.5,79.5C 260.833,79.5 258.167,79.5 255.5,79.5C 255.5,74.1667 255.5,68.8333 255.5,63.5C 255.5,58.1667 255.5,52.8333 255.5,47.5C 186.167,47.5 116.833,47.5 47.5,47.5C 47.5,186.167 47.5,324.833 47.5,463.5C 92.8333,463.5 138.167,463.5 183.5,463.5C 183.5,466.167 183.5,468.833 183.5,471.5C 183.5,474.167 183.5,476.833 183.5,479.5C 174.833,479.5 166.167,479.5 157.5,479.5C 117.165,479.667 76.832,479.5 36.5,479C 33.8981,478.065 32.3981,476.232 32,473.5C 31.3333,327.833 31.3333,182.167 32,36.5C 32.8333,34.3333 34.3333,32.8333 36.5,32C 112.833,31.3333 189.167,31.3333 265.5,32C 267.881,32.2233 269.547,33.39 270.5,35.5 Z"/></g>
<g><path style="opacity:1" fill="#373737" d="M 255.5,63.5 C 229.833,63.5 204.167,63.5 178.5,63.5C 160.482,52.8354 142.482,52.8354 124.5,63.5C 104.167,63.5 83.8333,63.5 63.5,63.5C 63.5,90.5 63.5,117.5 63.5,144.5C 58.4989,153.502 55.8322,163.169 55.5,173.5C 58.3861,196.815 61.0528,220.148 63.5,243.5C 63.5,311.5 63.5,379.5 63.5,447.5C 76.5,447.5 89.5,447.5 102.5,447.5C 107.624,451.058 113.29,453.558 119.5,455C 140.5,455.667 161.5,455.667 182.5,455C 187.522,454.037 192.355,452.537 197,450.5C 215.605,456.641 233.772,463.641 251.5,471.5C 239.5,471.5 227.5,471.5 215.5,471.5C 215.5,468.833 215.5,466.167 215.5,463.5C 210.167,463.5 204.833,463.5 199.5,463.5C 199.5,466.167 199.5,468.833 199.5,471.5C 194.167,471.5 188.833,471.5 183.5,471.5C 183.5,468.833 183.5,466.167 183.5,463.5C 138.167,463.5 92.8333,463.5 47.5,463.5C 47.5,324.833 47.5,186.167 47.5,47.5C 116.833,47.5 186.167,47.5 255.5,47.5C 255.5,52.8333 255.5,58.1667 255.5,63.5 Z"/></g>
<g><path style="opacity:1" fill="#df9024" d="M 331.5,55.5 C 336.989,58.072 342.656,60.4053 348.5,62.5C 353.751,64.6951 359.084,66.6951 364.5,68.5C 370.252,70.6393 375.919,72.9726 381.5,75.5C 419.267,89.1443 456.767,103.478 494,118.5C 494.875,119.873 495.375,121.373 495.5,123C 457.595,232.881 419.595,342.714 381.5,452.5C 379.546,457.761 377.546,463.094 375.5,468.5C 372.971,476.922 370.137,485.255 367,493.5C 364.757,495.282 362.257,495.782 359.5,495C 298.833,471.667 238.167,448.333 177.5,425C 175.022,421.315 174.856,417.482 177,413.5C 201.608,343.176 226.108,272.843 250.5,202.5C 251.124,202.917 251.457,203.584 251.5,204.5C 237.774,270.848 223.941,337.181 210,403.5C 208.151,418.301 213.985,428.801 227.5,435C 241.5,440.333 255.5,445.667 269.5,451C 276.947,452.299 283.947,451.132 290.5,447.5C 307.728,454.818 322.562,451.485 335,437.5C 369.511,370.478 403.511,303.144 437,235.5C 446.482,208.113 439.315,186.447 415.5,170.5C 419.589,161.405 421.923,151.905 422.5,142C 420.01,115.51 405.51,101.01 379,98.5C 366.073,99.3057 355.573,104.639 347.5,114.5C 331.146,116.189 320.479,124.855 315.5,140.5C 305.779,143.193 297.446,148.193 290.5,155.5C 278.991,156.849 269.824,162.183 263,171.5C 262.536,170.906 262.369,170.239 262.5,169.5C 275.631,129.273 289.465,89.2729 304,49.5C 305.313,48.4272 306.813,47.7605 308.5,47.5C 316.077,50.4564 323.743,53.123 331.5,55.5 Z"/></g>
<g><path style="opacity:0.974" fill="#251f1f" d="M 368.5,60.5 C 366.612,62.7938 365.278,65.4605 364.5,68.5C 359.084,66.6951 353.751,64.6951 348.5,62.5C 349.499,59.8382 350.499,57.1716 351.5,54.5C 351.818,51.6946 352.985,49.3613 355,47.5C 360.147,49.3284 365.313,50.9951 370.5,52.5C 370.416,55.3274 369.75,57.994 368.5,60.5 Z"/></g>
<g><path style="opacity:1" fill="#b96b02" d="M 336.5,48.5 C 341.5,50.5 346.5,52.5 351.5,54.5C 350.499,57.1716 349.499,59.8382 348.5,62.5C 342.656,60.4053 336.989,58.072 331.5,55.5C 333.342,53.3542 335.009,51.0209 336.5,48.5 Z"/></g>
<g><path style="opacity:0.988" fill="#241f1f" d="M 511.5,116.5 C 511.5,121.167 511.5,125.833 511.5,130.5C 472.928,239.545 434.928,348.879 397.5,458.5C 394.779,458.037 392.112,457.371 389.5,456.5C 386.921,454.975 384.254,453.641 381.5,452.5C 419.595,342.714 457.595,232.881 495.5,123C 495.375,121.373 494.875,119.873 494,118.5C 456.767,103.478 419.267,89.1443 381.5,75.5C 381.756,72.4021 382.422,69.4021 383.5,66.5C 383.818,63.6946 384.985,61.3613 387,59.5C 425.657,73.9409 464.157,88.7742 502.5,104C 506.882,107.299 509.882,111.466 511.5,116.5 Z"/></g>
<g><path style="opacity:1" fill="#b96b03" d="M 368.5,60.5 C 373.387,62.7768 378.387,64.7768 383.5,66.5C 382.422,69.4021 381.756,72.4021 381.5,75.5C 375.919,72.9726 370.252,70.6393 364.5,68.5C 365.278,65.4605 366.612,62.7938 368.5,60.5 Z"/></g>
<g><path style="opacity:1" fill="#1f1f1e" d="M 124.5,63.5 C 121.367,65.6043 118.7,68.271 116.5,71.5C 115.675,72.3857 114.675,72.719 113.5,72.5C 109.644,80.0651 106.31,87.8984 103.5,96C 103.594,103.683 103.594,111.516 103.5,119.5C 86.723,121.874 73.3897,130.207 63.5,144.5C 63.5,117.5 63.5,90.5 63.5,63.5C 83.8333,63.5 104.167,63.5 124.5,63.5 Z"/></g>
<g><path style="opacity:1" fill="#1f1f1e" d="M 178.5,63.5 C 204.167,63.5 229.833,63.5 255.5,63.5C 255.5,68.8333 255.5,74.1667 255.5,79.5C 258.167,79.5 260.833,79.5 263.5,79.5C 263.5,91.5 263.5,103.5 263.5,115.5C 258.784,131.736 253.284,147.736 247,163.5C 243.29,150.711 236.456,139.544 226.5,130C 218.119,124.114 209.119,120.614 199.5,119.5C 202.955,96.1141 195.955,77.4474 178.5,63.5 Z"/></g>
<g><path style="opacity:1" fill="#f5d1a2" d="M 175.5,82.5 C 175.91,91.2498 175.41,99.9164 174,108.5C 172.829,109.893 171.329,110.727 169.5,111C 157.167,111.667 144.833,111.667 132.5,111C 131.069,110.535 129.903,109.701 129,108.5C 127.59,99.9164 127.09,91.2498 127.5,82.5C 141.397,69.2207 156.397,68.054 172.5,79C 173.71,80.0391 174.71,81.2058 175.5,82.5 Z"/></g>
<g><path style="opacity:1" fill="#d7ab74" d="M 127.5,82.5 C 127.09,91.2498 127.59,99.9164 129,108.5C 129.903,109.701 131.069,110.535 132.5,111C 144.833,111.667 157.167,111.667 169.5,111C 171.329,110.727 172.829,109.893 174,108.5C 175.41,99.9164 175.91,91.2498 175.5,82.5C 179.272,86.3714 181.772,91.0381 183,96.5C 183.5,104.159 183.666,111.826 183.5,119.5C 162.167,119.5 140.833,119.5 119.5,119.5C 119.334,111.826 119.5,104.159 120,96.5C 121.228,91.0381 123.728,86.3714 127.5,82.5 Z"/></g>
<g><path style="opacity:1" fill="#252020" d="M 290.5,447.5 C 279.05,442.734 267.384,438.234 255.5,434C 241.412,427.184 234.079,415.85 233.5,400C 248.289,325.768 263.456,251.601 279,177.5C 281.541,169.414 285.375,162.081 290.5,155.5C 297.446,148.193 305.779,143.193 315.5,140.5C 322.474,139.306 329.474,139.306 336.5,140.5C 338.544,131.086 342.211,122.419 347.5,114.5C 355.573,104.639 366.073,99.3057 379,98.5C 405.51,101.01 420.01,115.51 422.5,142C 421.923,151.905 419.589,161.405 415.5,170.5C 439.315,186.447 446.482,208.113 437,235.5C 403.511,303.144 369.511,370.478 335,437.5C 322.562,451.485 307.728,454.818 290.5,447.5 Z"/></g>
<g><path style="opacity:1" fill="#b76a01" d="M 347.5,114.5 C 342.211,122.419 338.544,131.086 336.5,140.5C 329.474,139.306 322.474,139.306 315.5,140.5C 320.479,124.855 331.146,116.189 347.5,114.5 Z"/></g>
<g><path style="opacity:1" fill="#fccf4d" d="M 374.5,115.5 C 376.735,115.205 378.735,115.539 380.5,116.5C 373.372,137.885 366.038,159.218 358.5,180.5C 339.928,181.406 329.928,191.073 328.5,209.5C 324.32,209.189 320.32,209.855 316.5,211.5C 317.448,216.435 317.781,221.435 317.5,226.5C 328.164,225.333 338.831,224.5 349.5,224C 359.054,227.95 361.887,234.783 358,244.5C 356.833,245.667 355.667,246.833 354.5,248C 335.269,253.808 315.936,259.308 296.5,264.5C 297.765,269.962 299.432,275.296 301.5,280.5C 309.654,277.754 317.821,275.087 326,272.5C 309.158,322.859 291.991,373.192 274.5,423.5C 265.21,422.11 257.71,417.776 252,410.5C 250.427,407.523 249.594,404.357 249.5,401C 264.154,327.065 279.32,253.232 295,179.5C 303.668,158.247 318.835,151.247 340.5,158.5C 342.299,158.423 343.966,157.923 345.5,157C 350.182,146.633 354.682,136.133 359,125.5C 363.164,120.508 368.331,117.175 374.5,115.5 Z"/></g>
<g><path style="opacity:1" fill="#a78a3c" d="M 374.5,115.5 C 376.693,114.203 379.027,114.203 381.5,115.5C 381.376,116.107 381.043,116.44 380.5,116.5C 378.735,115.539 376.735,115.205 374.5,115.5 Z"/></g>
<g><path style="opacity:1" fill="#f5f8f9" d="M 435.5,117.5 C 452.35,117.515 460.516,125.848 460,142.5C 456.199,149.101 450.699,150.934 443.5,148C 433.109,143.048 428.609,134.882 430,123.5C 431.36,120.977 433.193,118.977 435.5,117.5 Z"/></g>
<g><path style="opacity:1" fill="#f9b314" d="M 395.5,121.5 C 401.144,124.412 404.644,129.079 406,135.5C 406.667,140.5 406.667,145.5 406,150.5C 401.89,159.155 399.223,168.155 398,177.5C 398.774,179.939 400.274,181.773 402.5,183C 414.101,186.268 421.268,193.768 424,205.5C 424.667,211.833 424.667,218.167 424,224.5C 390.626,292.249 356.959,359.916 323,427.5C 319.308,432.619 314.308,435.286 308,435.5C 301.86,434.676 296.026,432.842 290.5,430C 289.978,429.439 289.645,428.772 289.5,428C 307.742,373.935 326.742,320.268 346.5,267C 350.356,265.911 354.19,264.744 358,263.5C 360.902,266.959 363.568,270.626 366,274.5C 370.33,271.662 374.496,268.662 378.5,265.5C 375.95,261.451 373.617,257.284 371.5,253C 379.46,236.509 376.127,222.843 361.5,212C 356.187,209.132 350.521,207.965 344.5,208.5C 345.447,201.552 349.447,197.552 356.5,196.5C 359.702,197.099 362.702,198.266 365.5,200C 371.983,207.317 378.65,214.484 385.5,221.5C 390.054,218.133 393.554,214.133 396,209.5C 388.842,201.342 381.342,193.509 373.5,186C 380.943,164.502 388.277,143.002 395.5,121.5 Z"/></g>
<g><path style="opacity:1" fill="#e5c193" d="M 106.5,135.5 C 137.502,135.333 168.502,135.5 199.5,136C 206.666,136.652 212.666,139.485 217.5,144.5C 212.441,157.343 207.774,170.343 203.5,183.5C 178.167,183.5 152.833,183.5 127.5,183.5C 127.5,186.167 127.5,188.833 127.5,191.5C 122.167,191.5 116.833,191.5 111.5,191.5C 111.5,188.833 111.5,186.167 111.5,183.5C 103.445,183.23 95.445,183.563 87.5,184.5C 85.2636,164.669 91.5969,148.336 106.5,135.5 Z"/></g>
<g><path style="opacity:1" fill="#c49d6a" d="M 106.5,135.5 C 91.5969,148.336 85.2636,164.669 87.5,184.5C 82.2885,186.361 77.7885,189.361 74,193.5C 67.3001,173.285 71.8001,156.118 87.5,142C 93.0527,137.557 99.386,135.391 106.5,135.5 Z"/></g>
<g><path style="opacity:1" fill="#f5f8f9" d="M 187.5,144.5 C 194.743,144.078 199.076,147.412 200.5,154.5C 200.094,159.54 197.428,161.374 192.5,160C 188.321,157.826 185.654,154.493 184.5,150C 184.863,147.808 185.863,145.974 187.5,144.5 Z"/></g>
<g><path style="opacity:1" fill="#c59d6a" d="M 217.5,144.5 C 228.607,154.314 233.107,166.648 231,181.5C 230.519,185.531 229.853,189.531 229,193.5C 222.044,186.346 213.544,183.013 203.5,183.5C 207.774,170.343 212.441,157.343 217.5,144.5 Z"/></g>
<g><path style="opacity:1" fill="#b96a00" d="M 290.5,155.5 C 285.375,162.081 281.541,169.414 279,177.5C 263.456,251.601 248.289,325.768 233.5,400C 234.079,415.85 241.412,427.184 255.5,434C 267.384,438.234 279.05,442.734 290.5,447.5C 283.947,451.132 276.947,452.299 269.5,451C 255.5,445.667 241.5,440.333 227.5,435C 213.985,428.801 208.151,418.301 210,403.5C 223.941,337.181 237.774,270.848 251.5,204.5C 251.457,203.584 251.124,202.917 250.5,202.5C 254.129,191.272 258.129,180.272 262.5,169.5C 262.369,170.239 262.536,170.906 263,171.5C 269.824,162.183 278.991,156.849 290.5,155.5 Z"/></g>
<g><path style="opacity:1" fill="#f5f7f7" d="M 431.5,157.5 C 441.318,157.8 445.318,162.633 443.5,172C 435.544,174.407 430.878,171.407 429.5,163C 429.395,160.822 430.061,158.988 431.5,157.5 Z"/></g>
<g><path style="opacity:1" fill="#f4f5f5" d="M 175.5,165.5 C 181.545,165.029 183.545,167.529 181.5,173C 178.72,173.269 176.554,172.102 175,169.5C 174.421,168.072 174.588,166.738 175.5,165.5 Z"/></g>
<g><path style="opacity:1" fill="#fee3c1" d="M 111.5,191.5 C 116.833,191.5 122.167,191.5 127.5,191.5C 127.5,194.167 127.5,196.833 127.5,199.5C 150.833,199.5 174.167,199.5 197.5,199.5C 193.969,210.095 190.635,220.761 187.5,231.5C 156.802,231.19 126.135,231.523 95.5,232.5C 93.3456,222.035 91.6789,211.368 90.5,200.5C 97.4122,199.538 104.412,199.205 111.5,199.5C 111.5,196.833 111.5,194.167 111.5,191.5 Z"/></g>
<g><path style="opacity:1" fill="#e3c091" d="M 197.5,199.5 C 212.056,197.612 221.722,203.612 226.5,217.5C 225.857,225.595 223.691,233.261 220,240.5C 210.591,232.758 199.758,229.758 187.5,231.5C 190.635,220.761 193.969,210.095 197.5,199.5 Z"/></g>
<g><path style="opacity:1" fill="#e2bf91" d="M 90.5,200.5 C 91.6789,211.368 93.3456,222.035 95.5,232.5C 90.0416,234.769 85.2083,238.103 81,242.5C 78.7456,233.577 77.4123,224.577 77,215.5C 80.1319,209.212 84.6319,204.212 90.5,200.5 Z"/></g>
<g><path style="opacity:1" fill="#1f1f1e" d="M 63.5,243.5 C 64.2829,245.343 64.9495,247.343 65.5,249.5C 65.2907,250.086 64.9574,250.586 64.5,251C 65.7437,255.621 66.7437,260.287 67.5,265C 66.9034,266.628 67.2367,268.295 68.5,270C 67.5119,272.42 67.8452,274.753 69.5,277C 69.0426,277.414 68.7093,277.914 68.5,278.5C 69.9505,285.757 71.2838,293.09 72.5,300.5C 72.2907,301.086 71.9574,301.586 71.5,302C 73.1787,309.312 74.512,316.478 75.5,323.5C 79.7414,356.954 84.2414,390.621 89,424.5C 90.8171,433.8 95.3171,441.467 102.5,447.5C 89.5,447.5 76.5,447.5 63.5,447.5C 63.5,379.5 63.5,311.5 63.5,243.5 Z"/></g>
<g><path style="opacity:1" fill="#e5c192" d="M 181.5,247.5 C 177.436,258.024 173.77,268.691 170.5,279.5C 147.167,279.5 123.833,279.5 100.5,279.5C 99.9361,269.452 98.9361,259.452 97.5,249.5C 98.4734,249.013 99.4734,248.513 100.5,248C 127.498,247.5 154.498,247.333 181.5,247.5 Z"/></g>
<g><path style="opacity:1" fill="#c69e6a" d="M 181.5,247.5 C 188.175,247.334 194.842,247.5 201.5,248C 206.496,249.986 210.663,253.153 214,257.5C 211.198,267.74 207.698,277.74 203.5,287.5C 194.167,287.5 184.833,287.5 175.5,287.5C 175.5,284.833 175.5,282.167 175.5,279.5C 173.833,279.5 172.167,279.5 170.5,279.5C 173.77,268.691 177.436,258.024 181.5,247.5 Z"/></g>
<g><path style="opacity:1" fill="#c49d6a" d="M 97.5,249.5 C 98.9361,259.452 99.9361,269.452 100.5,279.5C 95.4562,280.272 90.9562,282.272 87,285.5C 85.212,279.468 84.0453,273.301 83.5,267C 86.497,259.836 91.1637,254.002 97.5,249.5 Z"/></g>
<g><path style="opacity:1" fill="#e5c192" d="M 175.5,287.5 C 184.833,287.5 194.167,287.5 203.5,287.5C 198.368,303.562 193.035,319.562 187.5,335.5C 183.5,335.5 179.5,335.5 175.5,335.5C 175.5,332.833 175.5,330.167 175.5,327.5C 168.167,327.5 160.833,327.5 153.5,327.5C 157.167,316.833 160.833,306.167 164.5,295.5C 168.167,295.5 171.833,295.5 175.5,295.5C 175.5,292.833 175.5,290.167 175.5,287.5 Z"/></g>
<g><path style="opacity:1" fill="#fee3c1" d="M 103.5,295.5 C 123.833,295.5 144.167,295.5 164.5,295.5C 160.833,306.167 157.167,316.833 153.5,327.5C 138.167,327.5 122.833,327.5 107.5,327.5C 106.346,316.808 105.013,306.142 103.5,295.5 Z"/></g>
<g><path style="opacity:1" fill="#e2bf91" d="M 103.5,295.5 C 105.013,306.142 106.346,316.808 107.5,327.5C 102.397,328.931 97.73,331.264 93.5,334.5C 92.7022,332.922 92.2022,331.256 92,329.5C 91.214,321.803 90.5474,314.137 90,306.5C 92.6228,300.364 97.1228,296.697 103.5,295.5 Z"/></g>
<g><path style="opacity:1" fill="#c69e6a" d="M 175.5,335.5 C 179.5,335.5 183.5,335.5 187.5,335.5C 182.738,348.617 178.072,361.784 173.5,375C 161.505,375.5 149.505,375.667 137.5,375.5C 140.625,364.79 143.958,354.123 147.5,343.5C 156.833,343.5 166.167,343.5 175.5,343.5C 175.5,340.833 175.5,338.167 175.5,335.5 Z"/></g>
<g><path style="opacity:1" fill="#e5c192" d="M 110.5,343.5 C 122.833,343.5 135.167,343.5 147.5,343.5C 143.958,354.123 140.625,364.79 137.5,375.5C 129.833,375.5 122.167,375.5 114.5,375.5C 112.987,364.866 111.654,354.199 110.5,343.5 Z"/></g>
<g><path style="opacity:1" fill="#c49d6a" d="M 110.5,343.5 C 111.654,354.199 112.987,364.866 114.5,375.5C 109.215,376.892 104.382,379.226 100,382.5C 98.7744,375.382 97.6077,368.215 96.5,361C 98.0578,352.616 102.725,346.782 110.5,343.5 Z"/></g>
<g><path style="opacity:1" fill="#e4c192" d="M 116.5,391.5 C 117.79,401.178 119.29,410.845 121,420.5C 124.673,410.981 127.84,401.315 130.5,391.5C 142.833,391.5 155.167,391.5 167.5,391.5C 164.227,400.654 161.56,409.987 159.5,419.5C 159.535,427.699 162.868,434.199 169.5,439C 153.167,439.667 136.833,439.667 120.5,439C 107.268,432.707 101.768,422.207 104,407.5C 105.082,399.633 109.248,394.3 116.5,391.5 Z"/></g>
<g><path style="opacity:1" fill="#fee2c0" d="M 116.5,391.5 C 121.167,391.5 125.833,391.5 130.5,391.5C 127.84,401.315 124.673,410.981 121,420.5C 119.29,410.845 117.79,401.178 116.5,391.5 Z"/></g>
<g><path style="opacity:1" fill="#ba6c02" d="M 381.5,452.5 C 384.254,453.641 386.921,454.975 389.5,456.5C 387.462,460.94 385.796,465.607 384.5,470.5C 381.426,470.127 378.426,469.461 375.5,468.5C 377.546,463.094 379.546,457.761 381.5,452.5 Z"/></g>
<g><path style="opacity:1" fill="#221f1f" d="M 215.5,471.5 C 215.5,474.167 215.5,476.833 215.5,479.5C 210.167,479.5 204.833,479.5 199.5,479.5C 199.5,476.833 199.5,474.167 199.5,471.5C 199.5,468.833 199.5,466.167 199.5,463.5C 204.833,463.5 210.167,463.5 215.5,463.5C 215.5,466.167 215.5,468.833 215.5,471.5 Z"/></g>
<g><path style="opacity:1" fill="#8b5921" d="M 183.5,471.5 C 188.833,471.5 194.167,471.5 199.5,471.5C 199.5,474.167 199.5,476.833 199.5,479.5C 204.833,479.5 210.167,479.5 215.5,479.5C 215.5,476.833 215.5,474.167 215.5,471.5C 227.5,471.5 239.5,471.5 251.5,471.5C 263.245,475.36 274.912,479.527 286.5,484C 288.095,487.757 287.429,491.09 284.5,494C 255.23,495.476 225.897,495.976 196.5,495.5C 183.5,490.167 170.5,484.833 157.5,479.5C 166.167,479.5 174.833,479.5 183.5,479.5C 183.5,476.833 183.5,474.167 183.5,471.5 Z"/></g>
</svg>
