<?xml version="1.0" encoding="UTF-8"?>
<!DOCTYPE svg PUBLIC "-//W3C//DTD SVG 1.1//EN" "http://www.w3.org/Graphics/SVG/1.1/DTD/svg11.dtd">
<svg xmlns="http://www.w3.org/2000/svg" version="1.1" width="512px" height="512px" style="shape-rendering:geometricPrecision; text-rendering:geometricPrecision; image-rendering:optimizeQuality; fill-rule:evenodd; clip-rule:evenodd" xmlns:xlink="http://www.w3.org/1999/xlink">
<g><path style="opacity:0.895" fill="#000000" d="M 86.5,0.5 C 87.552,0.350549 88.552,0.517215 89.5,1C 171.833,83.3333 254.167,165.667 336.5,248C 332.5,252 328.5,256 324.5,260C 323.833,260.667 323.167,260.667 322.5,260C 240.333,177.833 158.167,95.6667 76,13.5C 75.3333,12.8333 75.3333,12.1667 76,11.5C 79.7039,7.96427 83.2039,4.2976 86.5,0.5 Z"/></g>
<g><path style="opacity:0.95" fill="#010000" d="M 216.5,14.5 C 231.743,12.8637 241.909,19.197 247,33.5C 249.565,48.5406 243.732,58.7073 229.5,64C 206.865,66.2781 196.365,56.1114 198,33.5C 201.009,23.9924 207.175,17.6591 216.5,14.5 Z"/></g>
<g><path style="opacity:0.954" fill="#000000" d="M 351.5,22.5 C 355.803,21.7962 359.303,23.1295 362,26.5C 366.265,38.4625 370.432,50.4625 374.5,62.5C 387.821,63.3327 401.154,63.8327 414.5,64C 420.822,66.6286 422.656,71.1286 420,77.5C 409.127,87.375 397.961,96.875 386.5,106C 391.227,119.517 395.561,133.183 399.5,147C 397.193,154.986 392.193,157.319 384.5,154C 374.94,146.102 365.107,138.602 355,131.5C 343.919,138.96 333.085,146.794 322.5,155C 312.779,156.278 308.945,152.111 311,142.5C 314.843,130.306 318.676,118.139 322.5,106C 311.574,96.9521 300.741,87.7854 290,78.5C 288.517,75.2976 288.183,71.9643 289,68.5C 290.109,66.1853 291.943,64.6853 294.5,64C 307.833,63.6667 321.167,63.3333 334.5,63C 338.859,50.9245 343.025,38.7578 347,26.5C 348.397,24.9297 349.897,23.5964 351.5,22.5 Z"/></g>
<g><path style="opacity:1" fill="#f87e6b" d="M 218.5,31.5 C 231.15,31.6518 233.817,36.8184 226.5,47C 217.333,48.5 213.5,44.6667 215,35.5C 216.376,34.2949 217.542,32.9616 218.5,31.5 Z"/></g>
<g><path style="opacity:1" fill="#f5d16c" d="M 321.5,82.5 C 328.5,81.8333 335.5,81.1667 342.5,80.5C 344.17,80.2488 345.67,79.5822 347,78.5C 349.405,71.785 351.905,65.1183 354.5,58.5C 356.959,64.376 359.126,70.376 361,76.5C 362.167,77.6667 363.333,78.8333 364.5,80C 372.833,80.3333 381.167,80.6667 389.5,81C 382.531,87.0592 375.698,93.2259 369,99.5C 368.333,101.5 368.333,103.5 369,105.5C 371.468,111.708 373.134,118.042 374,124.5C 368.184,119.018 361.684,114.685 354.5,111.5C 347.376,114.771 340.876,119.105 335,124.5C 336.22,118.152 337.887,111.818 340,105.5C 340.667,103.5 340.667,101.5 340,99.5C 334.289,93.2872 328.123,87.6205 321.5,82.5 Z"/></g>
<g><path style="opacity:0.958" fill="#010000" d="M 77.5,72.5 C 82.5355,71.5021 86.7022,72.8354 90,76.5C 93.9746,88.7578 98.1413,100.924 102.5,113C 116.167,113.333 129.833,113.667 143.5,114C 148.609,117.366 149.776,121.866 147,127.5C 136.104,137.071 125.271,146.571 114.5,156C 118,167.167 121.5,178.333 125,189.5C 128.722,199.258 125.555,204.425 115.5,205C 104.053,197.22 92.8861,189.053 82,180.5C 71.5627,187.97 61.396,195.804 51.5,204C 42.0176,206.848 37.5176,203.348 38,193.5C 42.0355,181.06 45.8688,168.56 49.5,156C 38.729,146.571 27.8957,137.071 17,127.5C 14.391,121.966 15.5576,117.466 20.5,114C 34.496,113.5 48.496,113.333 62.5,113.5C 66.0243,101.426 69.8576,89.4261 74,77.5C 74.9973,75.6769 76.1639,74.0103 77.5,72.5 Z"/></g>
<g><path style="opacity:1" fill="#988143" d="M 342.5,80.5 C 335.5,81.1667 328.5,81.8333 321.5,82.5C 320.711,82.2172 320.044,81.7172 319.5,81C 327.159,80.5003 334.826,80.3336 342.5,80.5 Z"/></g>
<g><path style="opacity:1" fill="#f6d26d" d="M 81.5,107.5 C 84.1291,112.872 86.2957,118.539 88,124.5C 88.7739,126.939 90.2739,128.773 92.5,130C 100.5,130.333 108.5,130.667 116.5,131C 109.949,136.89 103.449,142.724 97,148.5C 96.3333,151.167 96.3333,153.833 97,156.5C 99.1389,162.052 100.472,167.718 101,173.5C 95.3954,168.206 89.0621,164.206 82,161.5C 80.0326,161.542 78.1992,162.042 76.5,163C 72.0905,166.621 67.5905,170.121 63,173.5C 63.8226,167.018 65.4893,160.684 68,154.5C 68.6667,152.833 68.6667,151.167 68,149.5C 61.721,142.768 54.8877,136.601 47.5,131C 55.1667,130.667 62.8333,130.333 70.5,130C 71.8333,129.333 73.1667,128.667 74.5,128C 77.1281,121.283 79.4615,114.449 81.5,107.5 Z"/></g>
<g><path style="opacity:0.907" fill="#000000" d="M 342.5,165.5 C 354.58,176.077 366.247,187.244 377.5,199C 373.333,203.167 369.167,207.333 365,211.5C 353.652,200.319 342.486,188.986 331.5,177.5C 335.189,173.48 338.855,169.48 342.5,165.5 Z"/></g>
<g><path style="opacity:0.914" fill="#000000" d="M 180.5,179.5 C 186.5,179.5 192.5,179.5 198.5,179.5C 198.5,184.833 198.5,190.167 198.5,195.5C 203.833,195.5 209.167,195.5 214.5,195.5C 214.5,201.5 214.5,207.5 214.5,213.5C 209.167,213.5 203.833,213.5 198.5,213.5C 198.807,219.093 198.473,224.593 197.5,230C 191.843,230.499 186.176,230.666 180.5,230.5C 180.5,224.833 180.5,219.167 180.5,213.5C 175.167,213.5 169.833,213.5 164.5,213.5C 164.5,207.5 164.5,201.5 164.5,195.5C 169.833,195.5 175.167,195.5 180.5,195.5C 180.5,190.167 180.5,184.833 180.5,179.5 Z"/></g>
<g><path style="opacity:0.914" fill="#000000" d="M 445.5,195.5 C 451.167,195.5 456.833,195.5 462.5,195.5C 462.5,201.167 462.5,206.833 462.5,212.5C 467.833,212.5 473.167,212.5 478.5,212.5C 478.5,218.5 478.5,224.5 478.5,230.5C 473.167,230.5 467.833,230.5 462.5,230.5C 462.5,235.833 462.5,241.167 462.5,246.5C 456.5,246.5 450.5,246.5 444.5,246.5C 444.5,241.167 444.5,235.833 444.5,230.5C 439.167,230.5 433.833,230.5 428.5,230.5C 428.5,224.5 428.5,218.5 428.5,212.5C 433.833,212.5 439.167,212.5 444.5,212.5C 444.214,206.741 444.548,201.075 445.5,195.5 Z"/></g>
<g><path style="opacity:0.851" fill="#000000" d="M 119.5,223.5 C 120.552,223.351 121.552,223.517 122.5,224C 127.879,229.044 132.879,234.377 137.5,240C 134.031,244.636 130.031,248.803 125.5,252.5C 119.5,247.167 113.833,241.5 108.5,235.5C 112.189,231.48 115.855,227.48 119.5,223.5 Z"/></g>
<g><path style="opacity:0.963" fill="#000000" d="M 511.5,325.5 C 511.5,329.833 511.5,334.167 511.5,338.5C 510.625,340.568 509.459,342.568 508,344.5C 487.653,364.68 467.486,385.014 447.5,405.5C 457.943,430.72 468.11,456.054 478,481.5C 480.977,495.504 475.81,505.004 462.5,510C 457.411,510.826 452.411,510.492 447.5,509C 421.922,496.295 396.422,483.461 371,470.5C 345.578,483.461 320.078,496.295 294.5,509C 279.826,513.411 269.659,508.578 264,494.5C 263.333,490.5 263.333,486.5 264,482.5C 274.069,456.794 284.235,431.127 294.5,405.5C 274.514,385.014 254.347,364.68 234,344.5C 228.458,334.104 229.625,324.604 237.5,316C 240.126,313.854 243.126,312.521 246.5,312C 272.498,311.5 298.498,311.333 324.5,311.5C 333.638,286.591 343.472,261.924 354,237.5C 361.274,229.488 370.107,227.321 380.5,231C 383.63,233.128 386.463,235.628 389,238.5C 398.838,262.684 408.671,286.85 418.5,311C 444.167,311.333 469.833,311.667 495.5,312C 503.174,313.849 508.508,318.349 511.5,325.5 Z"/></g>
<g><path style="opacity:0.851" fill="#000000" d="M 37.5,239.5 C 44.0896,244.419 50.0896,250.086 55.5,256.5C 51.8027,261.031 47.6361,265.031 43,268.5C 36.8333,263.667 31.3333,258.167 26.5,252C 29.9899,247.677 33.6566,243.51 37.5,239.5 Z"/></g>
<g><path style="opacity:1" fill="#fdc528" d="M 368.5,246.5 C 371.044,246.104 373.211,246.771 375,248.5C 385.5,274.833 396,301.167 406.5,327.5C 435.733,328.171 464.899,328.837 494,329.5C 494.667,331.167 494.667,332.833 494,334.5C 471.833,356.667 449.667,378.833 427.5,401C 439.426,429.779 450.759,458.779 461.5,488C 461.151,493.09 458.485,494.757 453.5,493C 425.922,479.295 398.422,465.461 371,451.5C 343.578,465.461 316.078,479.295 288.5,493C 281.495,494.324 278.995,491.49 281,484.5C 292.167,456.833 303.333,429.167 314.5,401.5C 292.514,379.014 270.347,356.68 248,334.5C 247.333,332.833 247.333,331.167 248,329.5C 277.101,328.837 306.267,328.171 335.5,327.5C 346.312,300.391 357.312,273.391 368.5,246.5 Z"/></g>
<g><path style="opacity:0.881" fill="#000000" d="M 152.5,256.5 C 153.552,256.351 154.552,256.517 155.5,257C 174.333,275.833 193.167,294.667 212,313.5C 212.667,314.167 212.667,314.833 212,315.5C 208.5,319 205,322.5 201.5,326C 200.5,326.667 199.5,326.667 198.5,326C 179.667,307.167 160.833,288.333 142,269.5C 141.333,268.833 141.333,268.167 142,267.5C 145.704,263.964 149.204,260.298 152.5,256.5 Z"/></g>
<g><path style="opacity:0.908" fill="#000000" d="M 235.5,256.5 C 247.58,267.077 259.247,278.244 270.5,290C 266.833,293.667 263.167,297.333 259.5,301C 258.5,301.667 257.5,301.667 256.5,301C 246,290.5 235.5,280 225,269.5C 224.333,268.833 224.333,268.167 225,267.5C 228.704,263.964 232.204,260.298 235.5,256.5 Z"/></g>
<g><path style="opacity:0.886" fill="#000000" d="M 70.5,272.5 C 93.0821,293.58 115.249,315.247 137,337.5C 137.667,338.5 137.667,339.5 137,340.5C 133.5,344 130,347.5 126.5,351C 125.833,351.667 125.167,351.667 124.5,351C 103,329.5 81.5,308 60,286.5C 59.3333,285.5 59.3333,284.5 60,283.5C 63.7039,279.964 67.2039,276.298 70.5,272.5 Z"/></g>
<g><path style="opacity:0.945" fill="#010000" d="M -0.5,377.5 C -0.5,372.5 -0.5,367.5 -0.5,362.5C 7.45669,345.698 20.1234,340.865 37.5,348C 49.1264,356.662 52.2931,367.828 47,381.5C 36.8263,396.069 23.993,398.902 8.5,390C 4.60895,386.349 1.60895,382.182 -0.5,377.5 Z"/></g>
<g><path style="opacity:0.961" fill="#000000" d="M 154.5,352.5 C 157.579,352.804 160.413,353.804 163,355.5C 167.796,368.053 172.296,380.72 176.5,393.5C 190.488,394.333 204.488,394.833 218.5,395C 222.327,398.308 223.494,402.474 222,407.5C 210.981,417.353 199.814,427.02 188.5,436.5C 192.432,448.464 196.266,460.464 200,472.5C 201.833,482.667 197.667,486.833 187.5,485C 177.167,477.167 166.833,469.333 156.5,461.5C 145.808,468.848 135.474,476.681 125.5,485C 117.731,487.455 113.064,484.789 111.5,477C 116.054,463.275 119.887,449.441 123,435.5C 112.333,426.167 101.667,416.833 91,407.5C 88.5063,402.318 89.673,398.151 94.5,395C 108.512,394.833 122.512,394.333 136.5,393.5C 140.634,381.932 144.467,370.266 148,358.5C 149.436,355.558 151.603,353.558 154.5,352.5 Z"/></g>
<g><path style="opacity:1" fill="#f57d69" d="M 21.5,361.5 C 29.3716,361.201 32.8716,364.868 32,372.5C 27.33,379.977 22.33,380.311 17,373.5C 15.3087,368.131 16.8087,364.131 21.5,361.5 Z"/></g>
<g><path style="opacity:1" fill="#f6d26d" d="M 167.5,410.5 C 175.167,411.167 182.833,411.833 190.5,412.5C 183.846,417.987 177.346,423.653 171,429.5C 170.333,431.833 170.333,434.167 171,436.5C 173.312,442.426 174.979,448.426 176,454.5C 171.41,451.121 166.91,447.621 162.5,444C 158.426,440.774 154.426,440.774 150.5,444C 146.09,447.621 141.59,451.121 137,454.5C 138.225,448.141 139.891,441.808 142,435.5C 142.667,433.5 142.667,431.5 142,429.5C 135.628,423.624 129.128,417.958 122.5,412.5C 129.833,411.833 137.167,411.167 144.5,410.5C 146.17,410.249 147.67,409.582 149,408.5C 151.405,401.785 153.905,395.118 156.5,388.5C 158.764,394.791 160.93,401.124 163,407.5C 164.129,409.141 165.629,410.141 167.5,410.5 Z"/></g>
<g><path style="opacity:1" fill="#554925" d="M 144.5,410.5 C 137.167,411.167 129.833,411.833 122.5,412.5C 121.957,412.44 121.624,412.107 121.5,411.5C 129.138,410.503 136.804,410.169 144.5,410.5 Z"/></g>
<g><path style="opacity:1" fill="#463b1f" d="M 167.5,410.5 C 175.528,410.169 183.528,410.502 191.5,411.5C 191.376,412.107 191.043,412.44 190.5,412.5C 182.833,411.833 175.167,411.167 167.5,410.5 Z"/></g>
</svg>
