<?xml version="1.0" encoding="UTF-8"?>
<!DOCTYPE svg PUBLIC "-//W3C//DTD SVG 1.1//EN" "http://www.w3.org/Graphics/SVG/1.1/DTD/svg11.dtd">
<svg xmlns="http://www.w3.org/2000/svg" version="1.1" width="512px" height="512px" style="shape-rendering:geometricPrecision; text-rendering:geometricPrecision; image-rendering:optimizeQuality; fill-rule:evenodd; clip-rule:evenodd" xmlns:xlink="http://www.w3.org/1999/xlink">
<g><path style="opacity:0.972" fill="#020201" d="M 37.5,-0.5 C 43.5,-0.5 49.5,-0.5 55.5,-0.5C 64.6701,1.91236 73.3368,5.74569 81.5,11C 107.585,9.0339 129.585,17.7006 147.5,37C 179.547,35.8587 205.881,47.5253 226.5,72C 286.565,72.4442 329.065,99.9442 354,154.5C 357.919,164.508 360.419,174.841 361.5,185.5C 396.207,182.906 427.873,191.406 456.5,211C 474.827,225.464 487.327,243.964 494,266.5C 510.464,323.216 507.464,378.882 485,433.5C 476.338,453.823 463.505,470.99 446.5,485C 424.391,500.768 400.225,504.935 374,497.5C 354.121,504.014 333.954,508.681 313.5,511.5C 299.833,511.5 286.167,511.5 272.5,511.5C 221.536,505.85 177.536,485.35 140.5,450C 114.903,424.065 94.4034,394.565 79,361.5C 67.7619,334.642 62.4286,306.642 63,277.5C 38.7489,242.162 29.0822,203.162 34,160.5C 15.8598,133.776 10.0264,104.609 16.5,73C 12.1473,64.6097 8.9806,55.7763 7,46.5C 4.55884,22.474 14.7255,6.80735 37.5,-0.5 Z"/></g>
<g><path style="opacity:1" fill="#e3c29b" d="M 41.5,14.5 C 49.0588,13.6506 56.0588,15.1506 62.5,19C 47.5895,27.7794 35.2562,39.2794 25.5,53.5C 17.3669,34.7846 22.7003,21.7846 41.5,14.5 Z"/></g>
<g><path style="opacity:1" fill="#f3dab2" d="M 117.5,55.5 C 117.586,56.4959 117.252,57.3292 116.5,58C 112.929,60.4206 109.262,62.5873 105.5,64.5C 101.632,60.8249 97.6324,60.6582 93.5,64C 81.8646,74.7945 71.198,86.2945 61.5,98.5C 51.6201,84.8649 46.2868,69.5316 45.5,52.5C 56.7892,37.3571 71.7892,28.6904 90.5,26.5C 105.449,26.8697 118.449,32.0363 129.5,42C 125.103,43.6166 121.269,46.1166 118,49.5C 117.505,51.4727 117.338,53.4727 117.5,55.5 Z"/></g>
<g><path style="opacity:1" fill="#e8c69e" d="M 45.5,52.5 C 46.2868,69.5316 51.6201,84.8649 61.5,98.5C 53.1452,110.553 46.4785,123.553 41.5,137.5C 40.7261,138.711 39.8928,138.711 39,137.5C 30.4211,120.12 27.4211,101.787 30,82.5C 32.4409,70.9521 37.6075,60.9521 45.5,52.5 Z"/></g>
<g><path style="opacity:1" fill="#e9c79f" d="M 192.5,91.5 C 187.932,93.4027 183.598,95.736 179.5,98.5C 177.142,94.9229 173.809,93.7563 169.5,95C 135.988,118.008 109.321,147.174 89.5,182.5C 77.387,172.288 69.887,159.288 67,143.5C 65.8839,136.208 65.3839,128.874 65.5,121.5C 69.48,114.217 73.98,107.217 79,100.5C 87.6637,90.8364 96.6637,81.5031 106,72.5C 106.722,69.7395 106.555,67.0728 105.5,64.5C 109.262,62.5873 112.929,60.4206 116.5,58C 117.252,57.3292 117.586,56.4959 117.5,55.5C 119.134,58.2365 121.634,59.5698 125,59.5C 156.556,46.4113 184.389,51.9113 208.5,76C 203.628,77.1029 198.962,78.7696 194.5,81C 191.515,84.0789 190.848,87.5789 192.5,91.5 Z"/></g>
<g><path style="opacity:1" fill="#f4dbb3" d="M 309.5,417.5 C 309.5,418.833 309.5,420.167 309.5,421.5C 256.031,412.805 210.864,388.805 174,349.5C 134.805,306.778 109.638,256.778 98.5,199.5C 106.224,183.049 115.724,167.716 127,153.5C 142.427,135.405 159.76,119.405 179,105.5C 179.497,103.19 179.663,100.857 179.5,98.5C 183.598,95.736 187.932,93.4027 192.5,91.5C 194.045,93.3716 196.045,94.3716 198.5,94.5C 253.437,79.0901 297.27,94.7568 330,141.5C 344.596,165.144 350.263,190.811 347,218.5C 346.088,227.64 344.421,236.64 342,245.5C 326.297,285.605 315.297,326.938 309,369.5C 308.342,385.511 308.509,401.511 309.5,417.5 Z"/></g>
<g><path style="opacity:1" fill="#dead85" d="M 65.5,121.5 C 65.3839,128.874 65.8839,136.208 67,143.5C 69.887,159.288 77.387,172.288 89.5,182.5C 78.1796,204.294 70.3463,227.294 66,251.5C 46.3336,214.831 43.3336,176.831 57,137.5C 59.6076,131.947 62.4409,126.613 65.5,121.5 Z"/></g>
<g><path style="opacity:1" fill="#dead85" d="M 341.5,468.5 C 338.448,465.424 335.614,462.09 333,458.5C 332.184,457.177 331.017,456.511 329.5,456.5C 330.29,455.599 331.29,454.932 332.5,454.5C 396.99,470.878 439.157,447.212 459,383.5C 469.967,345.458 468.967,307.792 456,270.5C 443.53,240.375 421.03,223.542 388.5,220C 379.442,220.142 370.775,219.309 362.5,217.5C 362.5,211.833 362.5,206.167 362.5,200.5C 390.449,198.589 416.449,204.755 440.5,219C 456.946,229.718 468.779,244.218 476,262.5C 493.862,313.103 493.862,363.77 476,414.5C 468.737,434.877 457.57,452.71 442.5,468C 417.721,488.244 391.055,490.911 362.5,476C 358.167,473 353.833,470 349.5,467C 346.593,466.282 343.926,466.782 341.5,468.5 Z"/></g>
<g><path style="opacity:1" fill="#eac89f" d="M 98.5,199.5 C 109.638,256.778 134.805,306.778 174,349.5C 210.864,388.805 256.031,412.805 309.5,421.5C 309.5,420.167 309.5,418.833 309.5,417.5C 311.46,429.976 315.293,441.976 321,453.5C 323.196,456.125 326.03,457.125 329.5,456.5C 331.017,456.511 332.184,457.177 333,458.5C 335.614,462.09 338.448,465.424 341.5,468.5C 339.158,471.717 338.991,475.05 341,478.5C 344.69,481.691 348.523,484.691 352.5,487.5C 266.847,510.053 194.68,488.387 136,422.5C 117.213,400.612 102.213,376.279 91,349.5C 72.1828,298.278 74.6828,248.278 98.5,199.5 Z"/></g>
<g><path style="opacity:1" fill="#957669" d="M 362.5,217.5 C 370.775,219.309 379.442,220.142 388.5,220C 421.03,223.542 443.53,240.375 456,270.5C 468.967,307.792 469.967,345.458 459,383.5C 439.157,447.212 396.99,470.878 332.5,454.5C 333.575,452.843 334.242,451.009 334.5,449C 330.494,439.478 327.494,429.645 325.5,419.5C 339.61,418.124 353.943,416.291 368.5,414C 403.38,402.444 424.546,378.611 432,342.5C 438.43,314.738 433.763,289.071 418,265.5C 407.688,252.879 394.522,244.712 378.5,241C 372.231,239.415 365.898,238.248 359.5,237.5C 360.145,230.646 361.145,223.979 362.5,217.5 Z"/></g>
<g><path style="opacity:1" fill="#4b3e4d" d="M 359.5,237.5 C 365.898,238.248 372.231,239.415 378.5,241C 394.522,244.712 407.688,252.879 418,265.5C 433.763,289.071 438.43,314.738 432,342.5C 424.546,378.611 403.38,402.444 368.5,414C 353.943,416.291 339.61,418.124 325.5,419.5C 322.064,392.789 323.23,366.122 329,339.5C 331.159,331.196 333.159,322.863 335,314.5C 343.083,288.753 351.25,263.087 359.5,237.5 Z"/></g>
</svg>
