<?xml version="1.0" encoding="UTF-8"?>
<!DOCTYPE svg PUBLIC "-//W3C//DTD SVG 1.1//EN" "http://www.w3.org/Graphics/SVG/1.1/DTD/svg11.dtd">
<svg xmlns="http://www.w3.org/2000/svg" version="1.1" width="100px" height="100px" style="shape-rendering:geometricPrecision; text-rendering:geometricPrecision; image-rendering:optimizeQuality; fill-rule:evenodd; clip-rule:evenodd" xmlns:xlink="http://www.w3.org/1999/xlink">
<g><path style="opacity:0.955" fill="#eaeaeb" d="M 97.5,33.5 C 97.9831,40.2168 96.1498,46.2168 92,51.5C 91.8533,56.9605 91.02,62.2938 89.5,67.5C 90.4453,71.1482 89.4453,74.3149 86.5,77C 81.6156,79.22 77.2822,82.22 73.5,86C 63.014,90.7712 52.6806,90.6046 42.5,85.5C 41.5084,85.6716 40.8417,85.3382 40.5,84.5C 39.653,83.0337 38.3197,82.2004 36.5,82C 27.4867,81.4481 18.4867,81.6147 9.5,82.5C 5.20207,78.1644 4.70207,73.1644 8,67.5C 9.51059,65.1384 11.0106,62.8051 12.5,60.5C 13.8847,59.6977 13.718,59.0311 12,58.5C 9.20939,57.5938 6.37606,56.9272 3.5,56.5C 0.646509,53.4497 -0.186824,49.7831 1,45.5C 5.76297,38.3648 12.263,33.5314 20.5,31C 16.521,28.0375 15.521,24.2041 17.5,19.5C 29.6925,12.4577 42.6925,10.6243 56.5,14C 65.1213,16.6439 72.4546,21.3106 78.5,28C 82.5,28.3333 86.5,28.6667 90.5,29C 93.2387,30.0259 95.572,31.5259 97.5,33.5 Z"/></g>
<g><path style="opacity:1" fill="#494376" d="M 35.5,17.5 C 52.3885,16.1274 66.3885,21.794 77.5,34.5C 93.0393,31.271 96.206,35.9376 87,48.5C 86.9128,54.8764 85.7462,61.0431 83.5,67C 84.3295,68.4651 84.4962,69.9651 84,71.5C 78.8846,74.4933 74.0513,77.9933 69.5,82C 59.2954,86.3152 49.9621,84.9819 41.5,78C 31.5667,74.9223 21.5667,74.7556 11.5,77.5C 11.5016,73.4885 12.6683,69.8219 15,66.5C 17.7087,63.6223 20.542,60.9557 23.5,58.5C 18.1736,54.6582 12.1736,52.3248 5.5,51.5C 6.36603,47.1141 8.69936,43.6141 12.5,41C 18.6213,37.8186 24.9547,35.3186 31.5,33.5C 28.3662,30.1041 25.0329,26.9374 21.5,24C 22.444,22.5232 23.7774,21.5232 25.5,21C 28.98,19.8974 32.3133,18.7308 35.5,17.5 Z"/></g>
<g><path style="opacity:1" fill="#6e79bc" d="M 78.5,67.5 C 80.8006,62.3211 81.4673,56.9878 80.5,51.5C 77.6971,53.9687 75.6971,56.9687 74.5,60.5C 73.5,61.1667 72.5,61.8333 71.5,62.5C 69.7259,63.881 68.2259,63.5477 67,61.5C 65.393,56.0116 63.393,50.6783 61,45.5C 55.6512,41.0574 50.9845,41.7241 47,47.5C 44.9212,52.9363 45.0879,58.2697 47.5,63.5C 45.0968,63.393 43.2635,64.393 42,66.5C 41.404,69.6863 41.904,72.6863 43.5,75.5C 34.2436,72.8202 24.9102,71.8202 15.5,72.5C 18.0525,65.9418 22.7192,61.9418 29.5,60.5C 29.4386,58.4078 28.4386,56.9078 26.5,56C 21.0312,53.012 15.3645,50.512 9.5,48.5C 16.7189,40.7534 25.7189,37.0868 36.5,37.5C 34.7554,32.0712 31.422,27.7379 26.5,24.5C 45.9122,17.1461 62.4122,21.4794 76,37.5C 80.4969,36.2771 84.9969,36.2771 89.5,37.5C 88.887,42.0557 86.7204,45.7223 83,48.5C 84.1388,54.7174 83.3055,60.7174 80.5,66.5C 80.0431,67.2975 79.3764,67.6309 78.5,67.5 Z"/></g>
<g><path style="opacity:1" fill="#f4c0a4" d="M 48.5,28.5 C 52.1911,29.3535 54.8578,31.5201 56.5,35C 53.0971,35.1004 49.9304,35.9337 47,37.5C 46.6968,34.3764 47.1968,31.3764 48.5,28.5 Z"/></g>
<g><path style="opacity:0.266" fill="#080808" d="M 97.5,33.5 C 98.1667,34.1667 98.8333,34.8333 99.5,35.5C 99.5,38.8333 99.5,42.1667 99.5,45.5C 97.7715,48.6065 95.7715,51.6065 93.5,54.5C 93.8333,55.1667 94.1667,55.8333 94.5,56.5C 93.3411,62.4359 92.5078,68.4359 92,74.5C 90.8783,76.6238 89.3783,78.4571 87.5,80C 84.2677,81.2305 81.6011,83.2305 79.5,86C 69.0265,92.0937 58.0265,93.0937 46.5,89C 44.6763,88.34 43.343,87.1733 42.5,85.5C 52.6806,90.6046 63.014,90.7712 73.5,86C 77.2822,82.22 81.6156,79.22 86.5,77C 89.4453,74.3149 90.4453,71.1482 89.5,67.5C 91.02,62.2938 91.8533,56.9605 92,51.5C 96.1498,46.2168 97.9831,40.2168 97.5,33.5 Z"/></g>
<g><path style="opacity:1" fill="#f9f9fb" d="M 71.5,62.5 C 72.4558,67.5762 73.7892,67.4096 75.5,62C 75.4301,61.2352 75.0967,60.7352 74.5,60.5C 75.6971,56.9687 77.6971,53.9687 80.5,51.5C 81.4673,56.9878 80.8006,62.3211 78.5,67.5C 77.1667,68.1667 75.8333,68.8333 74.5,69.5C 68.5637,68.721 62.5637,68.5544 56.5,69C 53.8057,66.6535 50.8057,64.8202 47.5,63.5C 45.0879,58.2697 44.9212,52.9363 47,47.5C 50.9845,41.7241 55.6512,41.0574 61,45.5C 63.393,50.6783 65.393,56.0116 67,61.5C 68.2259,63.5477 69.7259,63.881 71.5,62.5 Z"/></g>
<g><path style="opacity:1" fill="#4c4477" d="M 57.5,52.5 C 57.3055,54.9775 57.6389,57.6441 58.5,60.5C 56.4709,65.9717 55.1376,65.805 54.5,60C 54.5476,57.078 55.5476,54.578 57.5,52.5 Z"/></g>
<g><path style="opacity:0.173" fill="#020202" d="M 3.5,56.5 C 6.37606,56.9272 9.20939,57.5938 12,58.5C 13.718,59.0311 13.8847,59.6977 12.5,60.5C 9.11135,59.9119 6.11135,58.5786 3.5,56.5 Z"/></g>
<g><path style="opacity:1" fill="#4b4476" d="M 74.5,60.5 C 75.0967,60.7352 75.4301,61.2352 75.5,62C 73.7892,67.4096 72.4558,67.5762 71.5,62.5C 72.5,61.8333 73.5,61.1667 74.5,60.5 Z"/></g>
<g><path style="opacity:1" fill="#fac3a2" d="M 47.5,63.5 C 50.8057,64.8202 53.8057,66.6535 56.5,69C 62.5637,68.5544 68.5637,68.721 74.5,69.5C 73.9107,71.3977 73.744,73.3977 74,75.5C 63.7656,83.4822 53.5989,83.4822 43.5,75.5C 41.904,72.6863 41.404,69.6863 42,66.5C 43.2635,64.393 45.0968,63.393 47.5,63.5 Z"/></g>
<g><path style="opacity:1" fill="#ff7a78" d="M 48.5,70.5 C 51.4044,72.7825 54.7377,74.2825 58.5,75C 52.2729,79.4074 48.9396,77.9074 48.5,70.5 Z"/></g>
<g><path style="opacity:0.253" fill="#030303" d="M 40.5,84.5 C 31.8889,82.9386 23.3889,83.2719 15,85.5C 12.9419,84.7709 11.1086,83.7709 9.5,82.5C 18.4867,81.6147 27.4867,81.4481 36.5,82C 38.3197,82.2004 39.653,83.0337 40.5,84.5 Z"/></g>
</svg>
