<svg xmlns="http://www.w3.org/2000/svg" width="512" height="512" viewBox="0 0 512 512" version="1.1"><path d="M 340.500 87.109 C 317.496 90.427, 296.900 104.472, 285.269 124.773 C 276.663 139.793, 273.743 161.006, 277.893 178.352 C 281.268 192.458, 287.662 203.698, 298.480 214.540 C 308.800 224.883, 318.719 230.576, 332.410 234.014 C 343.040 236.683, 358.914 236.707, 369.226 234.070 C 395.415 227.372, 416.354 206.571, 423.654 180 C 426.416 169.948, 426.161 150.768, 423.136 141 C 419.100 127.965, 413.461 118.399, 404.533 109.437 C 391.602 96.459, 377.070 89.200, 359.644 87.015 C 350.567 85.876, 348.995 85.884, 340.500 87.109 M 121 138.525 C 93.355 140.771, 79.082 142.331, 76.033 143.440 C 69.753 145.724, 64.033 149.268, 60.337 153.165 C 56.440 157.274, 4.467 235.760, 1.899 241.415 C -2.347 250.765, 0.478 264.489, 8.128 271.663 C 14.650 277.779, 17.528 278.555, 55.500 284.435 C 75.300 287.502, 91.795 290.008, 92.155 290.005 C 92.516 290.002, 92.568 293.541, 92.272 297.868 C 91.349 311.332, 89.890 309.487, 146.678 366.660 C 202.935 423.298, 199.556 420.630, 213.983 419.795 C 218.392 419.540, 222 419.676, 222 420.099 C 222 422.750, 233.215 492.094, 234.060 494.666 C 235.665 499.554, 242.850 507.021, 248.462 509.634 C 254.907 512.635, 264.594 512.822, 270.673 510.061 C 278.361 506.571, 357.386 453.519, 360.899 449.490 C 365.138 444.628, 368.701 436.960, 370 429.905 C 371.125 423.796, 377.368 343.035, 376.762 342.429 C 376.547 342.213, 371.449 345.875, 365.435 350.566 C 344.838 366.631, 323.845 380.046, 302.730 390.635 L 291.679 396.178 203.751 308.249 L 115.822 220.321 121.365 209.270 C 131.682 188.698, 146.799 164.942, 160.874 147.183 C 171.399 133.903, 170.953 134.981, 165.872 135.118 C 163.467 135.183, 143.275 136.716, 121 138.525" stroke="none" fill="#386690" fill-rule="evenodd"/><path d="M 427 1.103 C 389.005 4.416, 348.278 13.753, 315.515 26.661 C 272.160 43.742, 234.548 69.317, 195.972 107.945 C 163.872 140.088, 142.108 169.367, 123.181 205.865 L 115.732 220.230 203.738 308.236 L 291.743 396.242 305.622 389.117 C 341.077 370.914, 373.265 347, 404.557 315.614 C 448.772 271.266, 474.988 229.817, 492.543 176.500 C 506.241 134.898, 512.502 91.725, 511.833 43.500 L 511.500 19.500 508.564 14.199 C 506.948 11.284, 503.802 7.557, 501.571 5.916 C 494.296 0.566, 490.329 -0.014, 462.068 0.138 C 448.006 0.213, 432.225 0.648, 427 1.103 M 340.500 87.109 C 317.496 90.427, 296.900 104.472, 285.269 124.773 C 276.663 139.793, 273.743 161.006, 277.893 178.352 C 281.268 192.458, 287.662 203.698, 298.480 214.540 C 308.800 224.883, 318.719 230.576, 332.410 234.014 C 343.040 236.683, 358.914 236.707, 369.226 234.070 C 395.415 227.372, 416.354 206.571, 423.654 180 C 426.416 169.948, 426.161 150.768, 423.136 141 C 419.100 127.965, 413.461 118.399, 404.533 109.437 C 391.602 96.459, 377.070 89.200, 359.644 87.015 C 350.567 85.876, 348.995 85.884, 340.500 87.109 M 122 342.500 C 134.916 355.425, 145.709 366, 145.984 366 C 146.259 366, 135.916 355.425, 123 342.500 C 110.084 329.575, 99.291 319, 99.016 319 C 98.741 319, 109.084 329.575, 122 342.500 M 56.500 344.894 C 54.850 345.932, 41.721 358.643, 27.326 373.141 C 4.738 395.887, 1.056 400.019, 0.458 403.285 C -2.168 417.617, 11.831 427.018, 24.054 419.132 C 26.499 417.554, 39.592 405.058, 53.149 391.364 C 74.034 370.266, 77.971 365.823, 78.927 362.269 C 80.198 357.551, 79.623 353.965, 76.856 349.356 C 73.226 343.311, 62.689 341.001, 56.500 344.894 M 104.554 388.533 C 101.447 389.609, 90.230 400.263, 51.739 438.699 C 24.861 465.540, 2.224 488.715, 1.435 490.200 C -2.023 496.708, 0.707 506.021, 7.241 510.005 C 11.097 512.357, 17.928 512.621, 21.800 510.569 C 23.285 509.781, 46.888 486.708, 74.250 459.295 C 127.079 406.368, 124.760 409.106, 124.056 400.500 C 123.317 391.466, 113.494 385.439, 104.554 388.533 M 149.536 433.025 C 146.268 434.036, 93.887 485.580, 91.434 490.200 C 87.045 498.465, 92.552 509.760, 101.880 511.626 C 109.898 513.230, 110.681 512.656, 139.357 484.175 C 154.129 469.504, 166.841 456.052, 167.607 454.282 C 170.632 447.295, 168.390 438.631, 162.644 435.100 C 158.700 432.676, 153.387 431.835, 149.536 433.025" stroke="none" fill="#e3e3fb" fill-rule="evenodd"/></svg>