<?xml version="1.0" encoding="UTF-8"?>
<svg version="1.1" xmlns="http://www.w3.org/2000/svg" width="512" height="512">
<path d="M0 0 C1.45440945 -0.00445677 2.90881648 -0.00977225 4.36321998 -0.01586872 C8.34675223 -0.0300063 12.3302063 -0.03171282 16.31376004 -0.03127182 C20.61520061 -0.03292375 24.91660932 -0.04599718 29.21803284 -0.0574646 C38.61682498 -0.08028335 48.0155945 -0.08823164 57.41441059 -0.09329104 C63.28610125 -0.09655128 69.15778539 -0.10307568 75.02947235 -0.11029243 C91.29605523 -0.12985321 107.56263205 -0.14626084 123.82922745 -0.14916897 C124.86949451 -0.14935654 125.90976157 -0.14954411 126.98155187 -0.14973736 C129.09028641 -0.1501036 131.19902096 -0.1504673 133.3077555 -0.15082847 C134.35448903 -0.15101128 135.40122256 -0.1511941 136.47967529 -0.15138245 C138.05169821 -0.15165327 138.05169821 -0.15165327 139.65547916 -0.15192956 C156.63771896 -0.15547136 173.61983197 -0.18249646 190.6020278 -0.21988034 C208.04973727 -0.25798078 225.49738384 -0.27732657 242.94513583 -0.27762848 C252.7365103 -0.27821261 262.52773345 -0.28667608 272.31906891 -0.31562614 C280.6559372 -0.34016308 288.99259895 -0.3474072 297.32949361 -0.33237862 C301.58019633 -0.32521955 305.83049138 -0.32602368 310.08114815 -0.34878922 C313.97868954 -0.36946297 317.87551203 -0.36670156 321.77304634 -0.34591437 C323.17678539 -0.34243545 324.58057719 -0.3472613 325.98424712 -0.36161881 C337.79394249 -0.47455052 348.22793467 1.86827728 356.97137451 10.26634216 C366.19192067 20.86893886 368.18396651 32.30569332 368.18621826 45.98118591 C368.19383179 47.26474472 368.20144531 48.54830353 368.20928955 49.87075806 C368.22263537 52.56773186 368.22434515 55.26441323 368.21844482 57.96141052 C368.21251414 61.40938914 368.24332108 64.85597639 368.28356171 68.30368519 C368.31564753 71.61289702 368.31132251 74.92181903 368.31121826 78.23118591 C368.32761353 79.46456192 368.34400879 80.69793793 368.36090088 81.96868896 C368.28403481 91.45628293 368.28403481 91.45628293 365.36785889 94.58934021 C362.71746826 96.27415466 362.71746826 96.27415466 359.71746826 96.27415466 C359.71746826 102.54415466 359.71746826 108.81415466 359.71746826 115.27415466 C361.36746826 115.60415466 363.01746826 115.93415466 364.71746826 116.27415466 C367.48637585 119.71172278 368.09274194 122.39060484 368.09499168 126.73966694 C368.10281493 127.83150801 368.11063817 128.92334908 368.11869848 130.04827625 C368.11200631 131.24223095 368.10531415 132.43618565 368.09841919 133.6663208 C368.10309916 134.93901673 368.10777913 136.21171267 368.11260092 137.52297515 C368.12513095 141.05360523 368.1189315 144.58399221 368.10964227 148.11462319 C368.10286007 151.92319333 368.11332902 155.7317214 368.12158203 159.5402832 C368.13493158 167.00131803 368.13203586 174.46226239 368.12334411 181.92330078 C368.11657125 187.98814769 368.11564912 194.05296923 368.11891556 200.11781883 C368.11937526 200.98074431 368.11983496 201.84366978 368.12030859 202.73274451 C368.12126776 204.485755 368.1222404 206.23876548 368.12322636 207.99177595 C368.13178423 224.43628447 368.1219407 240.88074284 368.10582526 257.32524314 C368.09242886 271.43169257 368.09474381 285.53806791 368.10858154 299.64451599 C368.12464266 316.02519519 368.13095269 332.40583039 368.12174475 348.78651637 C368.12078911 350.5340253 368.119846 352.28153425 368.11891556 354.0290432 C368.11845273 354.88884497 368.1179899 355.74864673 368.11751305 356.6345031 C368.11492423 362.68968368 368.119292 368.74483633 368.12635422 374.80001259 C368.13477564 382.18293876 368.13247589 389.56576926 368.11651199 396.94868449 C368.10863679 400.7147344 368.10552468 404.48062491 368.11545944 408.24667358 C368.1260722 412.33159988 368.11338524 416.416125 368.09841919 420.5010376 C368.10511135 421.68830014 368.11180352 422.87556267 368.11869848 424.09880286 C368.05941757 432.43155031 367.13382229 439.26076163 361.27996826 445.64915466 C360.70375732 446.29626404 360.12754639 446.94337341 359.53387451 447.61009216 C357.71746826 449.27415466 357.71746826 449.27415466 353.71746826 451.27415466 C353.38746826 456.88415466 353.05746826 462.49415466 352.71746826 468.27415466 C354.36746826 468.93415466 356.01746826 469.59415466 357.71746826 470.27415466 C363.12781121 475.02469969 367.11147155 480.07847791 367.95574951 487.31712341 C368.21284926 494.74595299 366.12336304 500.34806642 361.40496826 506.08665466 C353.28689563 512.6943882 346.74889259 512.84728328 336.61282349 512.78208923 C335.05686663 512.78670023 333.50091414 512.79305449 331.94497073 512.80099821 C327.6759704 512.81768856 323.40732798 512.80944645 319.13832641 512.79705334 C314.53145285 512.7880035 309.92464087 512.80197256 305.31777954 512.81297302 C296.29387566 512.83076606 287.27010482 512.82691402 278.24619572 512.81532246 C270.9090293 512.80628815 263.57190015 512.80506414 256.23472977 512.80941772 C255.19034505 512.81003066 254.14596032 512.81064359 253.06992758 512.81127509 C250.94818681 512.81255401 248.82644606 512.81385087 246.70470531 512.81516546 C226.80350683 512.82657443 206.90238202 512.81345433 187.00119562 512.79196399 C169.93832115 512.77410847 152.87555559 512.77718377 135.81268311 512.79563904 C115.9918983 512.81706729 96.17117817 512.82545919 76.3503834 512.81318998 C74.23462273 512.81191582 72.11886204 512.81065834 70.00310135 512.80941772 C68.96216184 512.80880062 67.92122233 512.80818352 66.8487392 512.80754772 C59.5264973 512.80409951 52.20429653 512.80991209 44.882061 512.81933594 C35.94939273 512.83057971 27.01686498 512.82746661 18.08421271 512.80621296 C13.52967566 512.79573209 8.97537249 512.79152971 4.4208374 512.80480957 C0.24448571 512.81680201 -3.93141719 512.81005908 -8.10772865 512.78889936 C-9.61177397 512.78446193 -11.11585786 512.78663459 -12.61987801 512.79640251 C-29.65409719 512.89847153 -42.78249293 508.34440709 -55.47003174 496.83665466 C-59.44429234 492.68491511 -62.19581912 488.35739435 -64.78253174 483.27415466 C-65.10890625 482.6342157 -65.43528076 481.99427673 -65.77154541 481.33494568 C-70.5774883 471.19219317 -70.58549035 460.63600287 -70.58892822 449.62254333 C-70.59656284 448.06269439 -70.60499254 446.50284917 -70.614151 444.94300842 C-70.63595695 440.73471393 -70.64487441 436.526492 -70.64997745 432.31814742 C-70.65363334 429.68646824 -70.65987931 427.05480776 -70.66697884 424.42313576 C-70.69141146 415.23617855 -70.7045147 406.04927745 -70.70806885 396.86228943 C-70.71171365 388.30511217 -70.74169208 379.74829143 -70.78347343 371.19122332 C-70.81814341 363.83218095 -70.8336166 356.47325717 -70.83431488 349.11413366 C-70.83510792 344.72370724 -70.84386096 340.33364587 -70.87231255 335.94330406 C-70.89844158 331.82019075 -70.90072788 327.69774693 -70.88465691 323.57458878 C-70.88283909 322.06247436 -70.88956327 320.5503218 -70.90547562 319.03829002 C-70.92588736 316.97286197 -70.91541905 314.90978852 -70.89726257 312.84439087 C-70.8992739 311.68946734 -70.90128523 310.53454382 -70.90335751 309.34462261 C-70.08843724 305.31420587 -68.47008221 303.78821347 -65.28253174 301.27415466 C-64.29253174 301.27415466 -63.30253174 301.27415466 -62.28253174 301.27415466 C-62.28253174 295.00415466 -62.28253174 288.73415466 -62.28253174 282.27415466 C-64.26253174 281.61415466 -66.24253174 280.95415466 -68.28253174 280.27415466 C-71.25387057 276.80069395 -70.56325739 272.02888592 -70.54322815 267.68714905 C-70.5470537 266.81156196 -70.55087924 265.93597487 -70.55482072 265.03385484 C-70.56515594 262.09387453 -70.56115743 259.15408934 -70.55718994 256.21409607 C-70.5615364 254.10816771 -70.56671932 252.00224094 -70.57267761 249.89631653 C-70.58609306 244.16850557 -70.58664293 238.4407605 -70.58411431 232.71293688 C-70.58304528 227.9273082 -70.58792677 223.14169288 -70.59271973 218.35606706 C-70.60382595 207.0561291 -70.60424754 195.75622436 -70.59820557 184.45628357 C-70.59217816 172.81848455 -70.60444286 161.1808068 -70.62577564 149.54302847 C-70.64343088 139.54195469 -70.6493864 129.54091935 -70.64613789 119.53983057 C-70.6443295 113.57133147 -70.64691593 107.60291868 -70.66085243 101.63443375 C-70.67348821 96.01195926 -70.67143245 90.38967229 -70.65844154 84.76720047 C-70.65608785 82.71222875 -70.65876675 80.65724361 -70.66706467 78.60228729 C-70.72010476 64.4362388 -70.43314807 50.75151733 -63.53253174 37.96165466 C-63.18327637 37.29142273 -62.834021 36.6211908 -62.47418213 35.9306488 C-59.61254767 30.58119992 -56.35916003 25.78187468 -52.28253174 21.27415466 C-51.75272705 20.6644281 -51.22292236 20.05470154 -50.67706299 19.42649841 C-37.29270748 4.96122109 -18.99272111 -0.03672467 0 0 Z " fill="#020102" transform="translate(107.28253173828125,-0.2741546630859375)"/>
<path d="M0 0 C82.15943931 -0.20165675 82.15943931 -0.20165675 116.4609375 -0.24414062 C124.31217501 -0.25392985 132.16341202 -0.26403222 140.01464844 -0.2746582 C140.99866056 -0.27597695 141.98267268 -0.27729569 142.99650335 -0.2786544 C158.87853409 -0.30039551 174.76047424 -0.33981158 190.64245127 -0.38576398 C206.9440528 -0.43253681 223.24560693 -0.46029715 239.5472728 -0.47044247 C249.60470525 -0.47729991 259.66188173 -0.49895125 269.71923538 -0.53958233 C276.61780115 -0.56603089 283.51623476 -0.5739962 290.41484754 -0.56750689 C294.3938855 -0.56430727 298.37247642 -0.56917999 302.35143471 -0.59602737 C305.99876147 -0.62045675 309.64534292 -0.62152587 313.29270484 -0.60449447 C315.22792618 -0.60139959 317.16313946 -0.62287798 319.09823215 -0.64540654 C326.7065294 -0.58044441 332.71944196 0.48854526 339 5 C343.90332765 10.24972241 346.11192951 14.43727516 346.15771484 21.69311523 C346.17310806 23.44524574 346.17310806 23.44524574 346.18881226 25.23277283 C346.19611359 26.49529373 346.20341492 27.75781464 346.2109375 29.05859375 C346.23181612 31.03833162 346.25271203 33.0180695 346.27463722 34.99779606 C346.32781319 39.8836343 346.37204754 44.76947693 346.40136719 49.65551758 C346.4182583 52.39679648 346.44294095 55.13779273 346.47622681 57.87892151 C346.50725875 60.46192486 346.52662846 63.04509949 346.53329468 65.62828064 C346.55814438 67.38513939 346.55814438 67.38513939 346.58349609 69.17749023 C346.59562637 70.72278664 346.59562637 70.72278664 346.60800171 72.29930115 C347.06222763 75.42872148 347.75629789 76.78932329 350 79 C351.32 79.33 352.64 79.66 354 80 C354 86.93 354 93.86 354 101 C352.35 101.66 350.7 102.32 349 103 C346.62515978 106.56226033 346.69402283 109.1111972 346.68115234 113.2253418 C346.67110672 113.95729767 346.6610611 114.68925354 346.65071106 115.44338989 C346.61982815 117.86199155 346.60282996 120.28048225 346.5859375 122.69921875 C346.56722994 124.37645933 346.54765683 126.05369046 346.5272522 127.73091125 C346.47588141 132.14493238 346.43628223 136.55898405 346.39910889 140.97314453 C346.3591002 145.4776162 346.30799358 149.98196033 346.2578125 154.48632812 C346.16099468 163.32412922 346.07660867 172.16200225 346 181 C335.38632272 181.32567065 324.77384974 181.5737665 314.15617752 181.72537041 C309.22454541 181.79817168 304.29635188 181.89673087 299.36669922 182.05615234 C294.60067284 182.20930162 289.83793189 182.29217838 285.06963348 182.3282814 C283.25923688 182.35397363 281.4490026 182.40415413 279.64002228 182.48022079 C265.85296165 183.03641976 265.85296165 183.03641976 261.10121155 179.64466095 C257.63506105 176.36515348 254.95230151 172.65246542 252.28144073 168.71954727 C241.74485953 154.58065737 222.20192008 146.3695744 206 141 C205.33871094 140.7740918 204.67742187 140.54818359 203.99609375 140.31542969 C177.1505559 131.48894224 145.99292526 136.38843991 121.15869141 148.81811523 C106.30595847 156.55605093 93.0692545 167.57432734 83 181 C55.61 181 28.22 181 0 181 C0 121.27 0 61.54 0 0 Z " fill="#B08BD8" transform="translate(113,15)"/>
<path d="M0 0 C20.08546228 16.02266333 33.89612579 40.01855195 36.83984375 65.65234375 C38.45102527 96.01859666 30.30399796 121.84715019 10.4296875 144.90625 C-0.17908599 156.15507015 -13.61938939 164.51828152 -28.16015625 169.65234375 C-29.3925 170.11898437 -30.62484375 170.585625 -31.89453125 171.06640625 C-55.43159869 179.23782909 -82.22285102 176.14256514 -104.4375 165.56640625 C-114.18549457 160.68615223 -122.32283846 154.16196881 -130.16015625 146.65234375 C-130.79695313 146.06710937 -131.43375 145.481875 -132.08984375 144.87890625 C-144.97277644 132.6830633 -152.41719407 115.47353755 -157.16015625 98.65234375 C-157.40636719 97.79125 -157.65257812 96.93015625 -157.90625 96.04296875 C-163.41346882 72.19101412 -157.48961243 46.38822054 -145.01513672 25.75878906 C-131.11462527 3.82159175 -109.19755263 -12.40016213 -84.00366211 -18.95776367 C-54.43976919 -25.4931878 -24.00595269 -17.83384124 0 0 Z " fill="#F9F2AD" transform="translate(347.16015625,186.34765625)"/>
<path d="M0 0 C20.35299247 -0.40108809 20.35299247 -0.40108809 29.06445312 -0.48828125 C34.9970909 -0.54794364 40.92817772 -0.61832418 46.85961914 -0.75439453 C51.64491745 -0.86347809 56.42855214 -0.92292834 61.21499825 -0.94877243 C63.03598783 -0.96717544 64.8568916 -1.00311619 66.67716789 -1.05730057 C80.90681467 -1.46382472 80.90681467 -1.46382472 86.17800903 2.22247314 C92 8.51239931 92 8.51239931 92 12 C92.56847656 12.24492187 93.13695312 12.48984375 93.72265625 12.7421875 C96.39490603 14.21811276 98.24433873 16.00210865 100.4375 18.125 C106.13555577 23.3377588 112.28523397 27.2224439 119 31 C119.96808594 31.5465625 120.93617188 32.093125 121.93359375 32.65625 C145.32164504 45.09602762 176.19072194 48.67230355 201.7734375 41.38671875 C220.07120095 35.56391363 243.99936421 26.19814503 254.83987427 9.09767151 C260.34850291 0.91134153 260.34850291 0.91134153 264.96630859 -0.67583656 C270.64710478 -1.69702049 276.39177192 -1.37756033 282.1328125 -1.171875 C283.97934423 -1.14945898 285.82594793 -1.13239372 287.6725769 -1.12042236 C292.50453006 -1.07486741 297.33206924 -0.95724975 302.16229248 -0.82397461 C307.97269462 -0.6788971 313.78458342 -0.62440813 319.59628296 -0.55453491 C328.40058015 -0.43863631 337.19521808 -0.20862581 346 0 C346 25.08 346 50.16 346 76 C231.82 76 117.64 76 0 76 C0 50.92 0 25.84 0 0 Z " fill="#B08BD8" transform="translate(113,331)"/>
<path d="M0 0 C1.3033116 -0.00445784 2.6066232 -0.00891569 3.94942909 -0.01350862 C5.39401504 -0.01341933 6.83860099 -0.01322949 8.28318691 -0.01294994 C9.8190781 -0.01625024 11.35496842 -0.01997616 12.89085764 -0.02409142 C17.11322522 -0.03409975 21.33557858 -0.0378263 25.55795634 -0.04048073 C30.11082253 -0.04438697 34.6636775 -0.05396474 39.21653652 -0.0626936 C50.20899916 -0.0824437 61.2014627 -0.09252005 72.19393864 -0.10142139 C77.36816334 -0.1058046 82.54238702 -0.11117113 87.71661091 -0.11641026 C104.91040904 -0.1334172 122.10420653 -0.14791387 139.29801178 -0.155159 C143.7584378 -0.15706892 148.21886382 -0.15898926 152.67928982 -0.16094494 C154.34223774 -0.16167055 154.34223774 -0.16167055 156.03878056 -0.16241082 C174.01920227 -0.17072064 191.99955766 -0.19607597 209.97995038 -0.22852562 C228.4309718 -0.26155399 246.88195946 -0.27960372 265.33301061 -0.28280324 C275.69648062 -0.2849717 286.05985377 -0.29376997 296.42329502 -0.31926441 C305.24389398 -0.34091336 314.06437254 -0.34905038 322.88499505 -0.33929763 C327.38778697 -0.3347367 331.89033015 -0.33674282 336.39308834 -0.35605907 C340.51166553 -0.37357541 344.62981039 -0.37278787 348.74839144 -0.35716178 C350.241579 -0.35476811 351.73479561 -0.35919953 353.22793854 -0.37099043 C355.25136822 -0.38598454 357.27494442 -0.37411242 359.29838562 -0.36076355 C360.98711331 -0.36222876 360.98711331 -0.36222876 362.70995671 -0.36372358 C366.2644793 0.25163155 367.44157981 1.27690058 369.58627224 4.13422108 C370.14877224 7.63422108 370.14877224 7.63422108 369.58627224 11.13422108 C367.01571463 13.74792892 365.33772308 15.00473604 361.69936538 15.63167375 C360.09192265 15.62988653 360.09192265 15.62988653 358.45200634 15.6280632 C356.59049077 15.64060934 356.59049077 15.64060934 354.69136882 15.65340894 C353.31703939 15.64247188 351.94271278 15.6311751 350.56838894 15.61955738 C349.10618006 15.62185206 347.64397306 15.62591616 346.18177342 15.63159806 C342.16273649 15.64217782 338.14410979 15.62792036 334.1251142 15.60973132 C329.7909669 15.59451573 325.456857 15.6024357 321.12269497 15.60776234 C313.61113613 15.61403615 306.09969784 15.60625643 298.5881567 15.58951092 C287.7179076 15.56573568 276.84778852 15.56868472 265.97752431 15.57913936 C248.32870589 15.59585066 230.67991941 15.59840542 213.03109646 15.58856678 C211.97461652 15.58798384 210.91813657 15.58740089 209.82964209 15.58680028 C198.04553436 15.58007354 186.2614294 15.57100352 174.47732449 15.56049061 C170.20586052 15.55675074 165.93439649 15.55309114 161.6629324 15.54950428 C160.60895121 15.54861337 159.55497003 15.54772245 158.46905002 15.54680454 C140.89148283 15.53251073 123.31397739 15.5376386 105.7364161 15.55742699 C94.8948025 15.56875299 84.05345662 15.56297121 73.21187147 15.53514815 C65.78118591 15.51725221 58.35063658 15.51712204 50.91994277 15.53093677 C46.63317772 15.53828783 42.34682123 15.53742328 38.06010151 15.5146513 C34.13299539 15.49392786 30.20659599 15.49632297 26.27949491 15.51680792 C24.86158679 15.52013988 23.44362772 15.51506506 22.02578983 15.50056546 C13.69521437 15.42066196 7.32935364 15.92257583 0.58627224 21.13422108 C-3.90208028 25.75058365 -5.78835287 30.87062318 -6.03872776 37.25922108 C-5.6146909 44.60919335 -3.44529918 49.52222837 1.96127224 54.50922108 C7.91496375 59.55998307 14.66792936 59.42497069 22.07556057 59.40164661 C23.13142136 59.40617773 24.18728216 59.41070884 25.27513874 59.41537726 C28.81265092 59.42803634 32.35000945 59.42639992 35.88754177 59.42474842 C38.42377833 59.43073253 40.96001306 59.4375378 43.49624538 59.44510365 C49.6690574 59.46094263 55.84181313 59.46721227 62.01464356 59.4683284 C67.03068103 59.4692793 72.0467059 59.47339168 77.06273937 59.47972965 C91.28411655 59.49733346 105.50546357 59.50656933 119.72685172 59.5050687 C120.49305326 59.50498879 121.25925481 59.50490888 122.04867458 59.50482655 C122.81581094 59.50474478 123.5829473 59.50466302 124.37333022 59.50457878 C136.81836186 59.50376509 149.2632727 59.52292594 161.70826937 59.55110328 C174.4866675 59.57980745 187.26500664 59.59364509 200.04343784 59.59191573 C207.21774233 59.59125119 214.39192001 59.59677166 221.56619549 59.61827183 C228.30823498 59.63834754 235.04996154 59.63783549 241.79202938 59.62323856 C244.27047141 59.62113939 246.7489299 59.62591675 249.22734356 59.63795948 C252.60219974 59.65330021 255.97611654 59.64417747 259.35095119 59.6286974 C260.33907177 59.63898452 261.32719235 59.64927165 262.34525597 59.65987051 C267.61579168 59.65472558 267.61579168 59.65472558 272.19863605 57.29472256 C274.07916526 54.36680372 274.09462 52.54741319 273.58627224 49.13422108 C272.02451324 47.0667789 271.14280781 46.23732613 268.57153857 45.7609669 C267.40625536 45.76218454 267.40625536 45.76218454 266.21743107 45.76342678 C264.8702476 45.75386721 264.8702476 45.75386721 263.4958483 45.74411452 C262.01411141 45.75650178 262.01411141 45.75650178 260.50244045 45.76913929 C259.45393205 45.76602029 258.40542365 45.76290129 257.32514226 45.75968778 C253.79436743 45.7527162 250.26399392 45.76710497 246.7332449 45.78119373 C244.20892667 45.78036338 241.68460856 45.77814859 239.16029263 45.77464771 C233.71567142 45.76968883 228.27116604 45.77354025 222.82655621 45.78466129 C214.94909094 45.80030014 207.07174579 45.79475963 199.19427876 45.78304486 C186.40697364 45.76414131 173.61968483 45.75493301 160.83236599 45.75531483 C160.06678605 45.75533227 159.30120611 45.75534971 158.51242678 45.75536768 C149.97167036 45.75581986 141.43091979 45.75914677 132.89016628 45.76624012 C132.12250483 45.7668725 131.35484337 45.76750489 130.56391945 45.76815643 C129.79704873 45.768789 129.03017802 45.76942156 128.24006879 45.77007329 C126.69368609 45.77134305 125.14730339 45.77260846 123.60092068 45.77386951 C122.45485666 45.7748118 122.45485666 45.7748118 121.28563984 45.77577312 C108.54911166 45.7857244 95.81268078 45.77640812 83.07617319 45.7516855 C75.2180835 45.7372413 67.36033586 45.73934413 59.5022658 45.76264749 C53.48210508 45.77912462 47.46226751 45.76997497 41.44210148 45.75128078 C38.97053292 45.74781948 36.49893545 45.75296698 34.02740574 45.76724911 C30.65912882 45.78551174 27.29230633 45.77325282 23.92407131 45.75327015 C22.94070817 45.76598977 21.95734502 45.77870939 20.94418299 45.79181445 C16.33234079 45.73265106 14.25216111 45.63664875 10.47531605 42.78693676 C8.58627224 40.13422108 8.58627224 40.13422108 8.02377224 37.07172108 C8.72150553 33.42800279 9.70417795 32.41963845 12.58627224 30.13422108 C15.27598023 29.63742709 15.27598023 29.63742709 18.4196043 29.64202976 C19.61888978 29.63406557 20.81817526 29.62610137 22.05380273 29.61789584 C24.03238216 29.63537289 24.03238216 29.63537289 26.05093288 29.65320301 C27.46506997 29.65145911 28.8792058 29.64795754 30.29333472 29.64284635 C34.18380056 29.63388669 38.07382734 29.64992324 41.96423721 29.66995859 C46.15779845 29.68720512 50.3513342 29.68138888 54.54492092 29.67834949 C61.81207316 29.67625036 69.07908193 29.68881842 76.34619808 29.71130085 C86.85325106 29.74378561 97.36023455 29.75422425 107.86733231 29.75925282 C124.91365892 29.76801101 141.95990904 29.7946408 159.00619411 29.83246326 C175.56673709 29.86916979 192.1272593 29.8974882 208.68783474 29.91449451 C209.70833633 29.91554541 210.72883793 29.9165963 211.78026381 29.91767904 C216.89973351 29.92289913 222.01920336 29.92795397 227.13867331 29.93292665 C269.62125978 29.97440501 312.10376087 30.04516469 354.58627224 30.13422108 C354.58627224 35.08422108 354.58627224 40.03422108 354.58627224 45.13422108 C352.90033962 45.15404041 351.21440701 45.17385975 349.47738552 45.19427967 C343.91326868 45.26199192 338.34932651 45.33876245 332.7854166 45.42174816 C329.4112972 45.47174006 326.03720955 45.51806945 322.6629324 45.55609608 C318.78562595 45.60159436 314.90868172 45.65961386 311.03158474 45.72015858 C309.20967113 45.73748539 309.20967113 45.73748539 307.35095119 45.75516224 C305.66943462 45.78496677 305.66943462 45.78496677 303.95394802 45.81537342 C302.96355526 45.82869709 301.9731625 45.84202076 300.95275784 45.85574818 C298.39891529 45.90849554 298.39891529 45.90849554 296.58627224 48.13422108 C296.23018032 50.27240569 296.23018032 50.27240569 296.27377224 52.63422108 C296.25701443 53.42828358 296.24025661 54.22234608 296.22299099 55.04047108 C296.3428738 55.73140858 296.46275661 56.42234608 296.58627224 57.13422108 C300.15130426 59.51090909 301.69171023 59.38497659 305.9219656 59.38959217 C307.23019787 59.39655109 308.53843014 59.40351002 309.88630581 59.41067982 C310.58518854 59.40999878 311.28407127 59.40931774 312.00413227 59.40861607 C314.19417984 59.40765061 316.38373688 59.42059427 318.57371426 59.43759632 C324.79946 59.48386606 331.02515539 59.50847787 337.25106716 59.51508045 C341.06079565 59.52009487 344.87001151 59.54433944 348.67956638 59.58040714 C350.13038525 59.59020621 351.58127462 59.59253644 353.03211689 59.58723545 C355.06182323 59.58016692 357.09156951 59.59953355 359.12118435 59.62006092 C360.2757362 59.62291096 361.43028805 59.62576099 362.61982632 59.6286974 C366.23446399 60.24468197 367.41483518 61.22322175 369.58627224 64.13422108 C370.14877224 67.63422108 370.14877224 67.63422108 369.58627224 71.13422108 C366.98385665 73.79650437 365.3072117 75.01301654 361.61074764 75.63446707 C359.94032501 75.63462807 359.94032501 75.63462807 358.23615646 75.63479233 C356.94699524 75.64460662 355.65783402 75.65442091 354.32960731 75.6645326 C352.90094376 75.65519359 351.47228264 75.64547803 350.04362392 75.63542652 C348.52437894 75.63931903 347.0051376 75.64495908 345.48590487 75.65219742 C341.30919771 75.6669782 337.13286655 75.65675529 332.95617139 75.6424607 C328.45225776 75.63136916 323.94839766 75.6432877 319.44448757 75.65230274 C310.61916416 75.66625132 301.79398364 75.65866628 292.96866701 75.64362716 C282.6904327 75.62677841 272.4122341 75.62997607 262.13399025 75.63372124 C243.79082554 75.63960317 225.44772942 75.6254172 207.10458279 75.60077381 C189.30963473 75.57686961 171.51477838 75.56976232 153.71981716 75.580266 C134.34551911 75.5916814 114.97126351 75.5935962 95.59696597 75.5791679 C93.52981484 75.57764207 91.46266371 75.57612172 89.39551258 75.5746069 C87.86990064 75.57347017 87.86990064 75.57347017 86.31346825 75.57231049 C79.15165309 75.5675711 71.9898569 75.56941678 64.82804203 75.57367229 C56.09434822 75.57860482 47.36074106 75.57258895 38.62706707 75.552778 C34.1721907 75.54292126 29.71744611 75.53778328 25.26256275 75.54567051 C21.18072275 75.55274922 17.09914813 75.54587167 13.01734301 75.52806688 C11.54424724 75.52403638 10.07112711 75.52499867 8.59804056 75.53158575 C-6.04983903 75.59145572 -16.20628975 72.81551514 -27.16372776 62.94672108 C-34.44244637 55.38023918 -36.82539356 45.19440146 -36.93936253 35.03705311 C-36.71906722 25.38669737 -32.62973641 17.30475852 -26.16372776 10.13422108 C-18.47811571 3.28324563 -10.18187177 0.01617345 0 0 Z " fill="#555C73" transform="translate(89.41372776031494,421.86577892303467)"/>
<path d="M0 0 C39.27 0 78.54 0 119 0 C117.02 2.64 115.04 5.28 113 8 C107.38525422 15.62929577 103.00080039 23.99759884 100 33 C100.969375 32.505 101.93875 32.01 102.9375 31.5 C108.30456516 29.25833423 113.02455481 29.06961155 118.5859375 30.80859375 C126.03026986 34.03894218 129.45406082 38.90812163 133 46 C133.69093988 53.02455546 133.69093988 53.02455546 130.875 57 C128 59 128 59 124.9375 59.625 C122 59 122 59 119.75 56.875 C117.97558001 53.95988145 117.00973759 51.2455851 116 48 C114.17796419 45.77033253 114.17796419 45.77033253 111.5625 45.6875 C109.03417835 45.81099153 109.03417835 45.81099153 107.3125 47.0625 C105.76222131 49.12322494 105.76222131 49.12322494 105.0625 52.5 C104 56 104 56 102.3125 58 C98.8989819 59.47611594 96.54077054 58.91797755 93 58 C92.34 57.01 91.68 56.02 91 55 C83.07886684 55.56579523 77.00980758 57.40941667 71.625 63.5 C67.4650657 68.61276841 66.48030243 72.61880127 66.62890625 79.18359375 C67.43184049 85.277442 70.88869848 89.32727009 75.4375 93.25 C79.18637156 95.83466384 82.90747771 96.98004629 87.28515625 98.171875 C89.1724646 98.69152832 89.1724646 98.69152832 91.09790039 99.22167969 C92.05559326 99.47852539 93.01328613 99.73537109 94 100 C94.34038759 108.70948374 94.63037223 117.41880883 94.85746098 126.13198757 C94.96448475 130.17872131 95.08831879 134.22342934 95.25170898 138.26831055 C95.4089884 142.1776947 95.52062014 146.08604858 95.60171318 149.99772835 C95.64034755 151.48403256 95.69496539 152.97001631 95.76637459 154.45510674 C96.31007781 166.08941761 96.31007781 166.08941761 93.0553894 170.83596802 C90.80800635 173.07355794 88.46534352 175.01151509 86 177 C85.01 178.32 84.02 179.64 83 181 C55.61 181 28.22 181 0 181 C0 121.27 0 61.54 0 0 Z " fill="#9869CB" transform="translate(113,15)"/>
<path d="M0 0 C1.2065625 -0.01933594 1.2065625 -0.01933594 2.4375 -0.0390625 C6.28819931 0.95883214 8.5853424 2.54404615 11 5.625 C13.4043877 10.22200171 15.29570245 14.99065771 17.1875 19.8125 C17.71143786 21.1028044 18.23681835 22.39252399 18.76367188 23.68164062 C21.54714765 30.57485994 23.93145739 37.48633124 26 44.625 C26.82565964 44.61167633 26.82565964 44.61167633 27.66799927 44.5980835 C33.41072172 44.50940709 39.15324883 44.44918197 44.89648438 44.40527344 C47.03816634 44.38519112 49.1797937 44.35791963 51.32128906 44.32324219 C54.40443415 44.27457602 57.48685262 44.2519971 60.5703125 44.234375 C61.52366486 44.21372986 62.47701721 44.19308472 63.45925903 44.17181396 C69.30801391 44.16985162 72.51651206 44.78458004 77 48.625 C79.38132088 51.65577204 79.37440992 54.88474111 79.234375 58.6796875 C78.64184014 63.59772687 75.73618963 65.98257573 72.0625 68.9375 C67.50281536 72.3498614 62.77763167 75.49772475 58.01953125 78.625 C53.61916124 81.53960471 49.31085698 84.58039324 45 87.625 C46.58025014 93.69082751 48.67805769 99.47385452 51.1015625 105.25 C51.38489441 105.92756348 51.66822632 106.60512695 51.96014404 107.30322266 C53.142819 110.12205906 54.33067456 112.93845117 55.53515625 115.74804688 C62.50458241 132.05529726 62.50458241 132.05529726 62 139.625 C60.5985952 142.91830129 58.74982092 145.33348257 56 147.625 C52.25855136 148.87214955 48.88339005 149.17604586 45 148.625 C42.38471283 147.2794114 40.32578745 146.03527001 38 144.3125 C37.04504639 143.64069702 37.04504639 143.64069702 36.07080078 142.95532227 C34.72342561 142.00670043 33.38120598 141.05071831 32.04394531 140.08789062 C29.35612299 138.16416495 26.62733911 136.30378132 23.89648438 134.44189453 C20.58766949 132.18406795 17.29455792 129.90355663 14 127.625 C13.02595215 126.95162598 13.02595215 126.95162598 12.03222656 126.26464844 C8.35303607 123.72066593 4.67567732 121.17405704 1 118.625 C-2.76540855 120.35505258 -6.13610994 122.62901342 -9.5625 124.9375 C-10.20437256 125.36756348 -10.84624512 125.79762695 -11.50756836 126.24072266 C-17.85777126 130.50638111 -24.17012932 134.82780822 -30.47680664 139.1574707 C-31.97599501 140.18668611 -33.47602902 141.21467122 -34.97705078 142.24121094 C-36.24852209 143.11095501 -37.51803086 143.98358223 -38.78466797 144.86035156 C-43.64904231 148.1871105 -48.07916655 149.63232516 -54 148.625 C-57.67647537 146.61379903 -60.80086859 143.7020468 -62 139.625 C-62.56993057 133.22348613 -60.76048449 128.66155456 -58.31640625 122.89453125 C-57.94144516 121.98168869 -57.56648407 121.06884613 -57.18016052 120.12834167 C-55.98573508 117.22649888 -54.77482274 114.3319055 -53.5625 111.4375 C-52.35709323 108.53110629 -51.15513761 105.62332386 -49.95555115 102.71452332 C-49.20955355 100.9087105 -48.4595884 99.10453042 -47.70521545 97.30220032 C-47.3649382 96.4842247 -47.02466095 95.66624908 -46.67407227 94.82348633 C-46.3742897 94.10735672 -46.07450714 93.39122711 -45.76564026 92.65339661 C-45.0139377 90.66192488 -44.47188495 88.69886432 -44 86.625 C-44.71478516 86.36831543 -45.42957031 86.11163086 -46.16601562 85.84716797 C-49.1951782 84.54082856 -51.64326204 82.96209562 -54.34375 81.0703125 C-55.34277344 80.37292969 -56.34179688 79.67554688 -57.37109375 78.95703125 C-58.91990234 77.86455078 -58.91990234 77.86455078 -60.5 76.75 C-61.53253906 76.02941406 -62.56507813 75.30882812 -63.62890625 74.56640625 C-77.69976801 64.70772504 -77.69976801 64.70772504 -79 59.625 C-79.5257197 56.07639202 -79.71635067 53.73248692 -77.7265625 50.65625 C-73.86130742 46.05565371 -73.86130742 46.05565371 -71 44.625 C-69.54962893 44.53550583 -68.09521371 44.5074156 -66.64208984 44.51147461 C-65.29091568 44.51158791 -65.29091568 44.51158791 -63.91244507 44.51170349 C-62.93844757 44.51686478 -61.96445007 44.52202606 -60.9609375 44.52734375 C-59.96494537 44.5287587 -58.96895325 44.53017365 -57.94277954 44.53163147 C-54.75348947 44.53724064 -51.56426894 44.5497947 -48.375 44.5625 C-46.21614685 44.56751382 -44.05729259 44.57207693 -41.8984375 44.57617188 C-36.5989345 44.58721305 -31.29947222 44.60396012 -26 44.625 C-25.81484329 44.0596051 -25.62968658 43.49421021 -25.43891907 42.91168213 C-23.15618585 35.99411128 -20.63207383 29.18558452 -17.97631836 22.40332031 C-17.44871867 21.04668206 -16.92824311 19.68725248 -16.41479492 18.32519531 C-15.66179806 16.32964594 -14.88621008 14.34420801 -14.10546875 12.359375 C-13.65324951 11.18600586 -13.20103027 10.01263672 -12.73510742 8.80371094 C-9.954796 3.71018981 -6.13929885 -0.0983862 0 0 Z " fill="#030302" transform="translate(286,182.375)"/>
<path d="M0 0 C0 59.4 0 118.8 0 180 C-7.92 181.98 -7.92 181.98 -16 184 C-25.54505783 187.5316714 -35.71471337 191.69256964 -43 199 C-43.66 199 -44.32 199 -45 199 C-45.11708851 178.64121448 -45.20511271 158.28249781 -45.25906086 137.92344475 C-45.28478191 128.46919333 -45.31981502 119.0151518 -45.37719727 109.56103516 C-45.42721985 101.31550387 -45.45933528 93.07012467 -45.47044247 84.82444584 C-45.47692951 80.46316441 -45.49204665 76.10231788 -45.52865028 71.74117661 C-45.56290883 67.62560303 -45.57299369 63.51063824 -45.56553841 59.39493561 C-45.56689977 57.89465385 -45.57665323 56.39434902 -45.59602737 54.89419174 C-45.79748695 38.47186121 -41.14569868 25.99317655 -29.9765625 13.7890625 C-22.10537998 6.15196719 -11.00934446 0 0 0 Z " fill="#FAE19F" transform="translate(98,16)"/>
<path d="M0 0 C20.35299247 -0.40108809 20.35299247 -0.40108809 29.06445312 -0.48828125 C34.9970909 -0.54794364 40.92817772 -0.61832418 46.85961914 -0.75439453 C51.64491745 -0.86347809 56.42855214 -0.92292834 61.21499825 -0.94877243 C63.03598783 -0.96717544 64.8568916 -1.00311619 66.67716789 -1.05730057 C80.90681467 -1.46382472 80.90681467 -1.46382472 86.17800903 2.22247314 C92 8.51239931 92 8.51239931 92 12 C92.99 12.33 93.98 12.66 95 13 C94.67 33.46 94.34 53.92 94 75 C175.51 75 257.02 75 341 75 C341 75.33 341 75.66 341 76 C228.47 76 115.94 76 0 76 C0 50.92 0 25.84 0 0 Z " fill="#9668C8" transform="translate(113,331)"/>
<path d="M0 0 C24.09 0 48.18 0 73 0 C70.36 6.93 67.72 13.86 65 21 C57.38006629 51.47973485 61.68275697 75.29223704 73 105 C48.91 105 24.82 105 0 105 C0 70.35 0 35.7 0 0 Z " fill="#7F48BE" transform="translate(113,211)"/>
<path d="M0 0 C24.09 0 48.18 0 73 0 C73 34.65 73 69.3 73 105 C48.91 105 24.82 105 0 105 C2.64 98.4 5.28 91.8 8 85 C15.99040036 55.43551868 12.28779049 27.64752859 0 0 Z " fill="#9869CB" transform="translate(386,211)"/>
<path d="M0 0 C1.19928548 -0.00796419 2.39857096 -0.01592839 3.63419843 -0.02413392 C5.61277785 -0.00665687 5.61277785 -0.00665687 7.63132858 0.01117325 C9.04546567 0.00942935 10.4596015 0.00592778 11.87373042 0.00081658 C15.76419626 -0.00814307 19.65422304 0.00789347 23.54463291 0.02792883 C27.73819415 0.04517536 31.9317299 0.03935912 36.12531662 0.03631973 C43.39246886 0.03422059 50.65947763 0.04678866 57.92659378 0.06927109 C68.43364676 0.10175584 78.94063025 0.11219449 89.44772801 0.11722305 C106.49405462 0.12598125 123.54030474 0.15261104 140.58658981 0.1904335 C157.14713279 0.22714003 173.707655 0.25545844 190.26823044 0.27246475 C191.28873203 0.27351565 192.30923363 0.27456654 193.36065951 0.27564928 C198.48012921 0.28086936 203.59959906 0.28592421 208.719069 0.29089689 C251.20165548 0.33237524 293.68415657 0.40313493 336.16666794 0.49219131 C336.16666794 5.44219131 336.16666794 10.39219131 336.16666794 15.49219131 C333.65347946 15.49049942 333.65347946 15.49049942 331.0895195 15.48877335 C324.87953859 15.49244135 318.67033772 15.5352032 312.46061325 15.58984756 C309.7716491 15.61137553 307.08324777 15.61811584 304.394207 15.6123085 C300.53116237 15.60945755 296.67006801 15.64471404 292.80729294 15.68750381 C291.00086319 15.67386292 291.00086319 15.67386292 289.15793991 15.65994644 C286.04272066 15.71433081 283.20501156 15.80046882 280.16666794 16.49219131 C277.6020693 19.3421977 277.6020693 19.3421977 276.16666794 22.49219131 C273.9242363 23.25268936 273.9242363 23.25268936 271.50651169 23.25391006 C270.63059372 23.25713272 269.75467575 23.26035538 268.85221481 23.26367569 C267.49193161 23.22210342 267.49193161 23.22210342 266.10416794 23.17969131 C265.19344528 23.19451553 264.28272263 23.20933975 263.34440231 23.22461319 C260.83439291 23.19316871 258.60475289 23.09200542 256.16666794 22.49219131 C254.10807419 20.01172256 254.10807419 20.01172256 253.16666794 17.49219131 C252.19309934 16.30012676 252.19309934 16.30012676 250.40033126 16.36733413 C249.62271634 16.36738645 248.84510143 16.36743877 248.04392242 16.36749268 C247.14978221 16.36510173 246.25564199 16.36271078 245.33440661 16.36024737 C243.84393121 16.36389611 243.84393121 16.36389611 242.32334518 16.36761856 C241.27654563 16.36620841 240.22974608 16.36479826 239.15122533 16.36334538 C235.61436749 16.35967122 232.07754921 16.36303796 228.54069138 16.36621475 C226.01666863 16.36482101 223.49264613 16.36292237 220.96862411 16.36055374 C216.22609643 16.35663136 211.48357639 16.35422399 206.74104723 16.35413775 C197.42075993 16.35393531 188.10052484 16.34149243 178.78025436 16.32452774 C177.31423594 16.32192187 175.8482175 16.31932306 174.38219905 16.31673121 C172.16012343 16.31279263 169.93804784 16.30884614 167.71597229 16.30486999 C159.33186378 16.2899138 150.94775367 16.27629461 142.56364059 16.26416397 C141.41357418 16.26249363 141.41357418 16.26249363 140.2402741 16.26078954 C127.81827751 16.24321813 115.3963135 16.24034509 102.97430655 16.24201438 C90.22878487 16.24329294 77.48338459 16.22556886 64.73790956 16.19099641 C56.87230419 16.17032789 49.00698933 16.16502281 41.14136848 16.17932472 C35.11380695 16.18877547 29.08660722 16.17219254 23.05908394 16.14583778 C20.58430335 16.13917578 18.10948289 16.14110035 15.63471794 16.15213585 C12.26192407 16.1659305 8.89062625 16.1492006 5.51792526 16.12469864 C4.53319788 16.13605402 3.54847049 16.1474094 2.53390288 16.15910888 C-2.07979751 16.0937115 -4.16727684 15.99478871 -7.94512939 13.14406586 C-9.83333206 10.49219131 -9.83333206 10.49219131 -10.39583206 7.42969131 C-9.24869098 1.43906566 -5.71738624 -0.00837099 0 0 Z " fill="#F2F4FB" transform="translate(107.83333206176758,451.50780868530273)"/>
<path d="M0 0 C0 34.65 0 69.3 0 105 C-4.29 105.99 -8.58 106.98 -13 108 C-24.93529228 111.3921357 -34.76353875 117.07260628 -45 124 C-45.00410889 123.14768799 -45.00821777 122.29537598 -45.01245117 121.41723633 C-45.0395042 118.23904652 -45.0886643 115.06216708 -45.15258789 111.88452148 C-45.17570978 110.51224569 -45.19015003 109.13979391 -45.19555664 107.76733398 C-45.20488665 105.78865529 -45.24857019 103.81023376 -45.29296875 101.83203125 C-45.3086792 100.64327393 -45.32438965 99.4545166 -45.34057617 98.22973633 C-46.17927442 94.12194693 -47.81527845 92.6352057 -51 90 C-51.66 89.67 -52.32 89.34 -53 89 C-53 82.4 -53 75.8 -53 69 C-51.02 68.01 -49.04 67.02 -47 66 C-45.4842579 62.96851581 -45.8848431 59.82402806 -45.89453125 56.5 C-45.88105935 54.9570174 -45.86603335 53.41404775 -45.84960938 51.87109375 C-45.82691834 49.44632492 -45.81238075 47.0230035 -45.82495117 44.59814453 C-45.86286054 34.6290053 -45.65896657 27.0289637 -39 19 C-38.46648926 18.35135986 -37.93297852 17.70271973 -37.38330078 17.03442383 C-28.17208483 6.46221261 -13.80702617 0 0 0 Z " fill="#F7CF70" transform="translate(98,212)"/>
<path d="M0 0 C0.33 0 0.66 0 1 0 C1.103125 1.11375 1.20625 2.2275 1.3125 3.375 C1.539375 4.57125 1.76625 5.7675 2 7 C5.56503202 9.37668801 7.10543799 9.25075551 11.33569336 9.25537109 C12.64392563 9.26233002 13.9521579 9.26928894 15.30003357 9.27645874 C15.9989163 9.2757777 16.69779903 9.27509666 17.41786003 9.27439499 C19.6079076 9.27342954 21.79746464 9.28637319 23.98744202 9.30337524 C30.21318776 9.34964498 36.43888315 9.37425679 42.66479492 9.38085938 C46.47452341 9.38587379 50.28373927 9.41011837 54.09329414 9.44618607 C55.54411301 9.45598514 56.99500238 9.45831537 58.44584465 9.45301437 C60.47555099 9.44594584 62.50529727 9.46531247 64.53491211 9.48583984 C65.68946396 9.48868988 66.84401581 9.49153992 68.03355408 9.49447632 C71.64819175 10.1104609 72.82856294 11.08900067 75 14 C75.5625 17.5 75.5625 17.5 75 21 C72.87159995 23.45224671 71.13086801 24.80779261 67.88190401 25.36000109 C65.19047614 25.50624907 62.52711788 25.51352865 59.83183289 25.48101807 C58.79850557 25.48443577 57.76517825 25.48785347 56.70053798 25.49137473 C53.23326453 25.49797055 49.76676284 25.47594854 46.29956055 25.45410156 C43.81609617 25.45297346 41.33263047 25.45360622 38.84916687 25.45587158 C33.50000243 25.45678286 28.15107885 25.44542757 22.80197716 25.42292023 C15.06813537 25.39039984 7.33438793 25.37999319 -0.39951482 25.37496826 C-12.9474677 25.36621565 -25.49531651 25.33960104 -38.04321289 25.30175781 C-50.23168416 25.26503682 -62.42012715 25.2367255 -74.60864258 25.21972656 C-75.36005185 25.21867567 -76.11146111 25.21762477 -76.88564036 25.21654204 C-80.65527297 25.21132185 -84.42490577 25.20626703 -88.19453871 25.20129442 C-119.46310148 25.15983345 -150.73153493 25.08908847 -182 25 C-182.98783094 22.03650719 -183.13410525 20.0287337 -183.125 16.9375 C-183.12757813 16.05964844 -183.13015625 15.18179687 -183.1328125 14.27734375 C-183 12 -183 12 -182 10 C-180.7918268 9.99780016 -180.7918268 9.99780016 -179.55924606 9.99555588 C-159.97154882 9.95852324 -140.38403045 9.89955574 -120.79647446 9.81609726 C-111.32411154 9.77626788 -101.85183218 9.74389524 -92.37939453 9.72900391 C-84.12434337 9.71600755 -75.86947575 9.68909468 -67.61452794 9.64538693 C-63.2425244 9.62272656 -58.8707476 9.60709205 -54.49868011 9.60811615 C-50.38472854 9.60886008 -46.27127906 9.59101774 -42.15745735 9.55883217 C-40.64658204 9.55030351 -39.13565061 9.54860331 -37.62476158 9.55419731 C-35.56303274 9.56081481 -33.50291204 9.54297492 -31.44134521 9.51898193 C-30.2872604 9.51529476 -29.13317558 9.51160759 -27.9441185 9.50780869 C-24.35266708 8.88834645 -23.19837592 7.85414455 -21 5 C-20.67 4.01 -20.34 3.02 -20 2 C-13.4 2 -6.8 2 0 2 C0 1.34 0 0.68 0 0 Z " fill="#6E768E" transform="translate(384,472)"/>
<path d="M0 0 C0.87733994 -0.00445784 1.75467988 -0.00891569 2.65860587 -0.01350862 C4.12092235 -0.01323207 4.12092235 -0.01323207 5.61278057 -0.01294994 C7.15341161 -0.01846498 7.15341161 -0.01846498 8.7251665 -0.02409142 C12.19525238 -0.03517728 15.66530837 -0.03898036 19.13540936 -0.04278088 C21.61179482 -0.04904178 24.08817933 -0.05568824 26.5645628 -0.0626936 C34.01695368 -0.08195814 41.46933661 -0.09252722 48.92174509 -0.10142139 C52.42834327 -0.10580089 55.93493993 -0.11116859 59.4415369 -0.11641026 C71.09355163 -0.13342512 82.74556539 -0.14792007 94.39759064 -0.155159 C97.42315262 -0.157069 100.44871459 -0.15898931 103.47427654 -0.16094494 C104.60230681 -0.16167055 104.60230681 -0.16167055 105.75312557 -0.16241082 C117.93980907 -0.17071399 130.12639451 -0.19605455 142.31303517 -0.22852562 C154.81554533 -0.26156757 167.31800561 -0.27960518 179.82055968 -0.28280324 C186.84404177 -0.28497106 193.86738088 -0.29375913 200.8908205 -0.31926441 C207.49568299 -0.34319372 214.10033387 -0.3468151 220.70524693 -0.33650303 C223.13370017 -0.33600535 225.56216571 -0.3423936 227.99058056 -0.35605907 C231.2978223 -0.37363325 234.60412382 -0.36674288 237.91136456 -0.35352612 C239.36364278 -0.36997998 239.36364278 -0.36997998 240.84525996 -0.38676625 C247.29310684 -0.32425995 247.29310684 -0.32425995 250.55277824 1.94204903 C252.59205218 5.13574515 252.42375691 7.43186557 251.95254803 11.13422108 C250.40324489 13.22048315 249.5261348 14.02742995 246.9512971 14.50681657 C246.18084455 14.5056774 245.410392 14.50453824 244.61659241 14.50336456 C243.28045897 14.51232428 243.28045897 14.51232428 241.91733295 14.521465 C240.9377706 14.51272648 239.95820826 14.50398795 238.94896221 14.49498463 C237.90917664 14.4975479 236.86939106 14.50011118 235.79809684 14.50275213 C232.29709774 14.50771255 228.79652529 14.49115958 225.29556561 14.47479725 C222.79269197 14.47395147 220.28981759 14.47442516 217.78694439 14.47612476 C212.3897711 14.47680899 206.99273184 14.46827334 201.59559345 14.45141125 C193.79222638 14.4270473 185.98891194 14.41921866 178.18551096 14.41544727 C165.52555146 14.40887869 152.86564989 14.38890651 140.20572186 14.36053944 C127.90657116 14.33300939 115.60743619 14.31177066 103.30826092 14.299016 C102.55035221 14.29822783 101.79244351 14.29743966 101.01156787 14.2966276 C97.20942577 14.29271254 93.40728356 14.2889214 89.60514128 14.28519189 C58.05423473 14.25408331 26.50340017 14.20101371 -5.04745197 14.13422108 C-5.07431136 11.98845471 -5.09378285 9.84259462 -5.10995197 7.69672108 C-5.12155354 6.50176014 -5.1331551 5.3067992 -5.14510822 4.07562733 C-4.99859969 -0.33720962 -4.00639406 0.0093919 0 0 Z " fill="#6D758E" transform="translate(207.04745197296143,421.86577892303467)"/>
<path d="M0 0 C0 24.75 0 49.5 0 75 C-8.415 75.495 -8.415 75.495 -17 76 C-28.03447407 78.60814842 -36.03035161 83.25120489 -45 90 C-45.16311807 82.23685851 -45.28703236 74.47412795 -45.3626852 66.70969677 C-45.39901994 63.10312507 -45.44819429 59.49773657 -45.52807617 55.8918457 C-45.60486198 52.4033653 -45.64613835 48.91601316 -45.6641407 45.42675209 C-45.68312525 43.46634772 -45.73765404 41.50638942 -45.79307556 39.54667664 C-45.79740625 29.55016962 -42.87139675 23.19158353 -36.05271912 15.92472839 C-26.61870131 6.84574671 -13.18723432 0 0 0 Z " fill="#F9E19E" transform="translate(98,332)"/>
<path d="M0 0 C0.680625 0.804375 0.680625 0.804375 1.375 1.625 C3.09959944 3.40270581 3.09959944 3.40270581 6.5625 2.8125 C10.04248777 2.30784082 10.04248777 2.30784082 12 0 C17.63020302 0.53397932 21.81367207 3.35716025 26 7 C29.40198983 11.22124453 31.68452582 15.20179718 32.625 20.5625 C31.24132593 28.17270738 27.89085486 35.10228741 21.58203125 39.80078125 C11.71627974 45.18589526 0.89142548 45.88021935 -10 43 C-16.23489213 40.44054039 -21.13224387 35.54694018 -25.0625 30.1875 C-26.67121743 24.71786075 -27.21068948 19.13703096 -25.12109375 13.72265625 C-20.9133492 6.48755754 -15.12062126 1.71387754 -7.078125 -0.59765625 C-4.37726655 -1.12056681 -2.55210717 -1.05086766 0 0 Z " fill="#FDA0AC" transform="translate(205,70)"/>
<path d="M0 0 C5.97919652 -1.1958393 11.08339124 1.89313822 16 5 C20.66270988 8.83283307 24.63362178 12.58364207 25.30078125 18.8046875 C25.3315735 26.87225734 24.37210004 31.5667111 18.875 37.625 C11.31300905 44.64240312 4.07763419 45.62623668 -5.97070312 45.54101562 C-15.66143631 45.16682656 -21.88634664 41.71199284 -28.625 34.84375 C-32.85608581 29.17024857 -32.72162938 22.79071746 -32 16 C-29.11873189 9.6371996 -22.50264917 3.70380423 -16 1 C-12.94134325 1.37074627 -11.64831694 2.23445537 -9 4 C-5.42823885 3.91832511 -5.42823885 3.91832511 -2 3 C-1.34 2.01 -0.68 1.02 0 0 Z " fill="#FEA0AC" transform="translate(368,69)"/>
<path d="M0 0 C1.53706352 -0.00087616 1.53706352 -0.00087616 3.10517883 -0.00177002 C6.49266416 0.001017 9.87926992 0.03213932 13.26660156 0.06347656 C15.61500569 0.07093672 17.96341604 0.07663072 20.31182861 0.08062744 C26.49335919 0.09590132 32.67451393 0.13519881 38.855896 0.17944336 C45.16331905 0.22035791 51.47080281 0.23863033 57.77832031 0.25878906 C70.15478754 0.30169091 82.5309758 0.36996389 94.90722656 0.45410156 C94.90722656 5.07410156 94.90722656 9.69410156 94.90722656 14.45410156 C144.40722656 14.45410156 193.90722656 14.45410156 244.90722656 14.45410156 C244.90722656 14.78410156 244.90722656 15.11410156 244.90722656 15.45410156 C212.63426892 15.56813137 180.36136853 15.6566327 148.08825656 15.70942821 C144.27929636 15.71568184 140.47033656 15.72215345 136.66137695 15.72875977 C135.52392005 15.73072709 135.52392005 15.73072709 134.36348423 15.73273417 C122.08039972 15.75449877 109.79743207 15.79392605 97.51441691 15.83986554 C84.91363178 15.88660094 72.3129079 15.91439076 59.71203965 15.92454404 C51.93473811 15.9314093 44.15776681 15.95310264 36.38056692 15.9936839 C30.41992356 16.0232046 24.45945029 16.02638306 18.49873161 16.01963997 C16.05133656 16.02101867 13.60392932 16.03100607 11.15660858 16.05012894 C7.82104814 16.07491995 4.48691322 16.06905647 1.15132141 16.05537415 C-0.30928358 16.07722046 -0.30928358 16.07722046 -1.79939574 16.09950811 C-6.39148348 16.04841453 -8.43729884 15.94936972 -12.19787312 13.10792828 C-14.09277344 10.45410156 -14.09277344 10.45410156 -14.65527344 7.39160156 C-13.09500606 -0.75646143 -6.86605271 -0.10206396 0 0 Z " fill="#E4E7F4" transform="translate(112.0927734375,451.5458984375)"/>
<path d="M0 0 C0.33 0 0.66 0 1 0 C1.89354611 24.94734884 2.03368399 49.81341303 1.60510254 74.77130127 C1.53234664 79.11111766 1.46880319 83.45107017 1.40429688 87.79101562 C1.27813337 96.19416153 1.14245476 104.59711448 1 113 C-2.57244388 109.59388919 -4.78242541 106.09445298 -6.9375 101.6875 C-7.28377441 100.98471924 -7.63004883 100.28193848 -7.98681641 99.55786133 C-11.34918645 92.55670843 -13.89186039 85.4766409 -16 78 C-16.24621094 77.13890625 -16.49242187 76.2778125 -16.74609375 75.390625 C-22.03934034 52.46539148 -16.79792802 27.05861494 -5 7 C-3.41519276 4.57967306 -1.76043973 2.30165599 0 0 Z " fill="#F8DF9D" transform="translate(206,207)"/>
<path d="M0 0 C1.39120471 0.00015906 2.78241534 0.00585033 4.17358398 0.01586914 C4.90463852 0.01728409 5.63569305 0.01869904 6.38890076 0.02015686 C8.73253406 0.02577131 11.07607313 0.03832617 13.41967773 0.05102539 C15.00496282 0.05603853 16.59024939 0.06060176 18.17553711 0.06469727 C22.06945383 0.07574542 25.96329979 0.09301967 29.85717773 0.11352539 C31.22968134 3.35608191 32.57689321 6.60856191 33.91967773 9.86352539 C34.30961914 10.78391602 34.69956055 11.70430664 35.10131836 12.65258789 C35.46547852 13.54204102 35.82963867 14.43149414 36.20483398 15.34790039 C36.54522705 16.16484375 36.88562012 16.98178711 37.23632812 17.82348633 C37.94556138 20.43953351 37.93573657 21.63727871 36.85717773 24.11352539 C35.38598633 25.49804688 35.38598633 25.49804688 33.50561523 26.73461914 C32.81854492 27.19545898 32.13147461 27.65629883 31.42358398 28.13110352 C30.70041992 28.59967773 29.97725586 29.06825195 29.23217773 29.55102539 C27.82293007 30.48663088 26.41407296 31.4228249 25.00561523 32.35961914 C23.97259277 33.04000244 23.97259277 33.04000244 22.91870117 33.73413086 C19.84603486 35.79009541 16.852916 37.9473157 13.85717773 40.11352539 C4.56316111 35.77484938 -3.7956576 29.0230225 -12.14282227 23.11352539 C-4.75479394 0.17175322 -4.75479394 0.17175322 0 0 Z " fill="#F8F1AC" transform="translate(273.142822265625,241.886474609375)"/>
<path d="M0 0 C5.97598982 3.23932158 8.84725141 8.13200283 11.8125 14.0625 C12.50343988 21.08705546 12.50343988 21.08705546 9.6875 25.0625 C6.8125 27.0625 6.8125 27.0625 3.75 27.6875 C0.8125 27.0625 0.8125 27.0625 -1.4375 24.9375 C-3.21191999 22.02238145 -4.17776241 19.3080851 -5.1875 16.0625 C-7.00953581 13.83283253 -7.00953581 13.83283253 -9.625 13.75 C-12.15332165 13.87349153 -12.15332165 13.87349153 -13.875 15.125 C-15.42527869 17.18572494 -15.42527869 17.18572494 -16.125 20.5625 C-17.1875 24.0625 -17.1875 24.0625 -18.875 26.0625 C-22.32761307 27.55552187 -24.6101815 27.03813232 -28.1875 26.0625 C-30.9111771 23.77812566 -31.15033614 22.33857436 -31.625 18.8125 C-30.80931993 11.82095653 -27.64789092 6.53009257 -22.1875 2.0625 C-14.82687708 -2.86072367 -8.15284405 -3.5202685 0 0 Z " fill="#040305" transform="translate(234.1875,46.9375)"/>
<path d="M0 0 C4.43717526 3.27899731 6.8775803 7.8489106 9.3046875 12.703125 C9.75427428 19.67172004 9.75427428 19.67172004 8.2421875 23.140625 C5.2654235 25.54124113 3.09159441 25.7684165 -0.6953125 25.703125 C-4.91755869 22.60681113 -6.27134223 19.63225287 -7.6953125 14.703125 C-9.51734831 12.47345753 -9.51734831 12.47345753 -12.1328125 12.390625 C-14.66113415 12.51411653 -14.66113415 12.51411653 -16.3828125 13.765625 C-17.93309119 15.82634994 -17.93309119 15.82634994 -18.6328125 19.203125 C-19.6953125 22.703125 -19.6953125 22.703125 -21.5078125 24.640625 C-24.22068661 25.95830671 -25.71588212 26.22452532 -28.6953125 25.703125 C-31.0078125 24.390625 -31.0078125 24.390625 -32.6953125 21.703125 C-33.49637347 16.51645748 -33.38354383 12.16217542 -31.1328125 7.390625 C-22.00006888 -2.67881027 -12.75979383 -6.91652376 0 0 Z " fill="#030204" transform="translate(359.6953125,48.296875)"/>
<path d="M0 0 C3.69734899 1.12240951 5.67418742 2.47889993 8.5 5.0625 C11.36608129 6.49554064 13.31300783 6.36894155 16.5 6.0625 C19.70212693 4.26117777 19.70212693 4.26117777 22.5 2.0625 C25.5 0.0625 25.5 0.0625 29 0.25 C32.5 1.0625 32.5 1.0625 34.4375 2.1875 C36.26229439 5.4077254 36.10540497 7.43007018 35.5 11.0625 C31.36114427 17.60544354 24.78522663 20.32351229 17.5 22.0625 C9.78306139 23.28560955 3.83691972 20.88068566 -2.5859375 16.70703125 C-5.93779596 14.1555145 -7.32845676 12.55139823 -8.75 8.5 C-8.5 5.0625 -8.5 5.0625 -6.5 2.0625 C-3.5 0.0625 -3.5 0.0625 0 0 Z " fill="#040305" transform="translate(272.5,74.9375)"/>
<path d="M0 0 C3.14947226 2.61433966 4.25066822 5.58623188 5.734375 9.34765625 C5.97665833 9.96015732 6.21894165 10.57265839 6.46856689 11.20372009 C6.97657225 12.49407632 7.48062695 13.78599407 7.98095703 15.0793457 C8.75040518 17.06354484 9.53638055 19.04061966 10.32421875 21.01757812 C10.8161067 22.27304517 11.30702624 23.52889216 11.796875 24.78515625 C12.46734863 26.50037476 12.46734863 26.50037476 13.15136719 28.25024414 C14 31 14 31 13 33 C12.41476562 32.56171875 11.82953125 32.1234375 11.2265625 31.671875 C6.6407248 28.28413904 2.02813668 24.99541636 -2.73828125 21.8671875 C-3.96248779 21.0632959 -3.96248779 21.0632959 -5.21142578 20.24316406 C-6.85555825 19.16869058 -8.5036613 18.10026721 -10.15576172 17.03808594 C-10.91260254 16.5434082 -11.66944336 16.04873047 -12.44921875 15.5390625 C-13.13330811 15.09771973 -13.81739746 14.65637695 -14.5222168 14.20166016 C-15.00988525 13.8051123 -15.49755371 13.40856445 -16 13 C-16 12.34 -16 11.68 -16 11 C-14.53125 9.76318359 -14.53125 9.76318359 -12.5 8.3984375 C-11.778125 7.90859375 -11.05625 7.41875 -10.3125 6.9140625 C-9.549375 6.40617187 -8.78625 5.89828125 -8 5.375 C-7.236875 4.859375 -6.47375 4.34375 -5.6875 3.8125 C-3.79568048 2.53552182 -1.89980102 1.26506032 0 0 Z " fill="#F2EBA8" transform="translate(316,279)"/>
<path d="M0 0 C4.29377852 2.43085763 8.41307957 4.88328956 12.4375 7.75 C13.30246094 8.36359375 14.16742188 8.9771875 15.05859375 9.609375 C15.69925781 10.06828125 16.33992188 10.5271875 17 11 C15.6231394 15.13058181 12.76705778 16.39209838 9.25 18.625 C7.88861715 19.50933113 6.52795448 20.39477179 5.16796875 21.28125 C4.47622559 21.72984375 3.78448242 22.1784375 3.07177734 22.640625 C-0.13703615 24.74605436 -3.28907894 26.93067278 -6.4375 29.125 C-8.04431641 30.24261719 -8.04431641 30.24261719 -9.68359375 31.3828125 C-10.83021484 32.18332031 -10.83021484 32.18332031 -12 33 C-12.33 32.34 -12.66 31.68 -13 31 C-12.16129201 28.61338938 -11.25826898 26.33995069 -10.25390625 24.0234375 C-9.96394272 23.33819 -9.67397919 22.6529425 -9.37522888 21.94692993 C-8.44492538 19.75311067 -7.50386693 17.56409162 -6.5625 15.375 C-5.93092835 13.89092792 -5.30005973 12.40655644 -4.66992188 10.921875 C-3.12142587 7.27772228 -1.56326719 3.63783922 0 0 Z " fill="#F3ECA9" transform="translate(255,279)"/>
<path d="M0 0 C1.71987972 2.57981959 2.8028204 4.74936391 3.9453125 7.59765625 C4.29980469 8.48130859 4.65429688 9.36496094 5.01953125 10.27539062 C5.38433594 11.19513672 5.74914062 12.11488281 6.125 13.0625 C6.49753906 13.98611328 6.87007813 14.90972656 7.25390625 15.86132812 C7.60582031 16.74369141 7.95773437 17.62605469 8.3203125 18.53515625 C8.64273926 19.343479 8.96516602 20.15180176 9.29736328 20.98461914 C10 23 10 23 10 25 C3.4 25 -3.2 25 -10 25 C-8.08153552 19.24460657 -6.14006985 13.61145444 -3.875 8 C-3.47861328 7.00033203 -3.47861328 7.00033203 -3.07421875 5.98046875 C-1.12683355 1.12683355 -1.12683355 1.12683355 0 0 Z " fill="#EDE6A4" transform="translate(286,202)"/>
<path d="M0 0 C8.25 0 16.5 0 25 0 C19.375 4.5 19.375 4.5 16.44921875 6.578125 C15.83369141 7.01640625 15.21816406 7.4546875 14.58398438 7.90625 C13.95814453 8.3496875 13.33230469 8.793125 12.6875 9.25 C12.04232422 9.70890625 11.39714844 10.1678125 10.73242188 10.640625 C9.15587664 11.76172383 7.57806777 12.88104532 6 14 C3.2079853 12.60399265 2.99837067 10.99583616 1.875 8.125 C1.34519531 6.79855469 1.34519531 6.79855469 0.8046875 5.4453125 C0 3 0 3 0 0 Z " fill="#F5EEAA" transform="translate(319,242)"/>
<path d="M0 0 C8.25 0 16.5 0 25 0 C23.35 4.29 21.7 8.58 20 13 C15.84731056 11.96182764 13.52271341 10.56092816 10 8.1875 C8.96875 7.50042969 7.9375 6.81335938 6.875 6.10546875 C4 4 4 4 0 0 Z " fill="#F6EFAA" transform="translate(229,242)"/>
</svg>
