<svg xmlns="http://www.w3.org/2000/svg" width="512" height="512" viewBox="0 0 512 512" version="1.1"><path d="M 179.707 174.016 C 176.760 176.334, 174.538 182.124, 175.371 185.312 C 175.804 186.966, 174.804 188.688, 171.221 192.461 L 166.500 197.432 172.058 192.341 C 175.115 189.541, 179.126 186.469, 180.971 185.515 C 185.126 183.366, 190.711 183.946, 194.953 186.967 L 198 189.136 198 183.968 C 198 179.424, 197.589 178.389, 194.600 175.400 C 191.749 172.549, 190.480 172, 186.735 172 C 183.772 172, 181.407 172.678, 179.707 174.016 M 317.400 175.400 C 314.411 178.389, 314 179.424, 314 183.968 L 314 189.136 317.047 186.967 C 321.462 183.823, 326.680 183.447, 331.446 185.929 C 334.469 187.504, 335.576 187.694, 336.181 186.742 C 337.350 184.901, 337.169 182.340, 335.606 178.599 C 333.718 174.082, 330.429 172, 325.177 172 C 321.533 172, 320.231 172.569, 317.400 175.400 M 340 192.500 C 341.866 194.425, 343.617 196, 343.892 196 C 344.167 196, 342.866 194.425, 341 192.500 C 339.134 190.575, 337.383 189, 337.108 189 C 336.833 189, 338.134 190.575, 340 192.500 M 253.750 324.706 C 254.988 324.944, 257.012 324.944, 258.250 324.706 C 259.488 324.467, 258.475 324.272, 256 324.272 C 253.525 324.272, 252.512 324.467, 253.750 324.706 M 186 347.500 C 187.866 349.425, 189.617 351, 189.892 351 C 190.167 351, 188.866 349.425, 187 347.500 C 185.134 345.575, 183.383 344, 183.108 344 C 182.833 344, 184.134 345.575, 186 347.500" stroke="none" fill="#6b4f4f" fill-rule="evenodd"/><path d="M 169 266.134 C 169 271.565, 171.214 276.962, 175.387 281.703 C 183.078 290.439, 178.359 289.956, 256 289.956 C 333.641 289.956, 328.922 290.439, 336.613 281.703 C 340.786 276.962, 343 271.565, 343 266.134 L 343 263 256 263 L 169 263 169 266.134" stroke="none" fill="#ffffff" fill-rule="evenodd"/><path d="M 354.252 279.500 C 354.263 281.700, 354.468 282.482, 354.707 281.238 C 354.946 279.994, 354.937 278.194, 354.687 277.238 C 354.437 276.282, 354.241 277.300, 354.252 279.500 M 203.435 346.250 C 201.246 348.587, 198.434 351.673, 197.187 353.107 L 194.921 355.713 201.210 359.796 C 228.316 377.393, 259.597 381.396, 289.335 371.074 C 296.502 368.587, 309.359 361.806, 313.775 358.185 L 317.049 355.500 310.917 349 C 307.545 345.425, 305.339 343.288, 306.015 344.250 C 307.182 345.910, 304.605 346, 255.967 346 C 204.753 346, 204.692 345.998, 206.500 344 C 207.495 342.900, 208.109 342, 207.863 342 C 207.617 342, 205.625 343.913, 203.435 346.250 M 364.723 407.777 C 331.326 441.178, 304.004 468.955, 304.008 469.503 C 304.012 470.051, 305.025 470.981, 306.258 471.569 C 307.491 472.158, 318.400 477.634, 330.500 483.738 C 357.644 497.433, 360.925 498.492, 376 498.430 C 385.753 498.390, 388.654 497.983, 395.096 495.750 C 416.859 488.207, 433.133 471.055, 438.635 449.863 C 441.639 438.293, 440.940 429.779, 433.513 387.500 C 429.745 366.050, 426.389 348.173, 426.054 347.773 C 425.720 347.374, 398.121 374.375, 364.723 407.777" stroke="none" fill="#ff8412" fill-rule="evenodd"/><path d="M 181.135 158.083 C 171.736 159.356, 161.604 165.222, 151.902 175.007 C 141.167 185.834, 137.322 192.852, 138.950 198.646 C 140.823 205.315, 145.215 209, 151.288 209 C 156.609 209, 158.157 207.950, 164.435 200.082 L 169.920 193.207 168.336 189.174 C 165.383 181.655, 168.260 172.954, 175.535 167.406 C 178.460 165.175, 180.550 164.496, 185.464 164.183 C 198.374 163.361, 206.714 171.679, 205.752 184.418 C 205.500 187.763, 204.995 191.181, 204.631 192.013 C 203.764 193.992, 212.884 206.171, 216.449 207.795 C 220.513 209.646, 225.356 209.234, 229.088 206.720 C 233.676 203.628, 235.164 200.453, 234.690 194.762 C 234.364 190.838, 233.310 188.737, 228.552 182.525 C 214.683 164.419, 197.967 155.802, 181.135 158.083 M 319.121 158.155 C 307.082 160.092, 293.545 169.343, 283.437 182.539 C 277.751 189.962, 277.500 190.538, 277.500 196.126 C 277.500 201.330, 277.839 202.300, 280.628 205.090 C 282.908 207.370, 284.965 208.354, 288.213 208.721 C 294.404 209.418, 297.872 207.334, 303.391 199.600 C 307.442 193.924, 307.881 192.817, 307.001 190.504 C 304.461 183.821, 306.747 173.169, 311.644 168.871 C 318.384 162.954, 329.749 162.283, 336.465 167.406 C 343.659 172.893, 346.442 181.175, 343.777 189.169 L 342.345 193.464 346.772 199.477 C 352.187 206.832, 355.297 208.987, 360.500 208.987 C 366.950 208.987, 372.037 204.753, 373.463 198.197 C 374.482 193.515, 370.663 186.225, 362.530 177.323 C 348.900 162.407, 333.889 155.778, 319.121 158.155 M 163.817 263.776 C 157.768 270.480, 156.685 278.198, 159.517 294.436 C 163.217 315.653, 173.247 334.454, 188.712 349.161 L 194.665 354.822 203.682 346.043 C 213.891 336.102, 225.158 329.647, 237.636 326.589 L 244.716 324.854 243.424 321.103 C 238.217 305.990, 258.760 296.020, 267.529 309.404 C 269.377 312.225, 269.706 319.812, 268.110 322.795 C 267.136 324.614, 267.584 324.901, 273.776 326.427 C 277.474 327.338, 284.775 330.184, 290 332.751 C 297.841 336.604, 301.051 338.948, 308.383 346.178 L 317.265 354.936 321.699 351.034 C 340.417 334.557, 351.977 310.598, 353.663 284.784 C 354.408 273.381, 353.002 268.332, 347.629 263.125 L 344.283 259.882 343.774 266.221 C 343.492 269.739, 342.335 274.382, 341.175 276.658 C 338.486 281.928, 331.213 288.320, 326.193 289.824 C 320.617 291.495, 191.383 291.495, 185.807 289.824 C 180.812 288.328, 173.518 281.936, 170.861 276.727 C 169.730 274.512, 168.512 269.773, 168.153 266.196 L 167.500 259.694 163.817 263.776" stroke="none" fill="#573b3b" fill-rule="evenodd"/><path d="M 178.239 165.653 C 171.873 168.791, 167.023 176.618, 167.006 183.782 C 167.003 185.037, 167.684 187.701, 168.519 189.701 L 170.039 193.337 172.997 190.503 C 175.174 188.417, 175.804 187.067, 175.382 185.388 C 174.555 182.090, 176.737 176.352, 179.707 174.016 C 181.407 172.678, 183.772 172, 186.735 172 C 190.480 172, 191.749 172.549, 194.600 175.400 C 197.544 178.344, 198 179.459, 198 183.712 C 198 188.014, 198.374 188.900, 201.010 190.850 L 204.021 193.075 205.010 190.473 C 207.413 184.154, 205.674 174.821, 201.129 169.644 C 196.453 164.315, 185.003 162.319, 178.239 165.653 M 316.500 165.610 C 312.038 168.050, 309.997 170.090, 307.894 174.210 C 305.825 178.263, 305.382 186.243, 306.990 190.473 L 307.979 193.075 310.990 190.850 C 313.626 188.900, 314 188.014, 314 183.712 C 314 179.459, 314.456 178.344, 317.400 175.400 C 320.251 172.549, 321.520 172, 325.265 172 C 328.228 172, 330.593 172.678, 332.293 174.016 C 335.329 176.404, 337.440 182.111, 336.570 185.579 C 336.091 187.485, 336.585 188.612, 338.724 190.494 C 340.251 191.838, 341.779 192.951, 342.120 192.968 C 342.461 192.986, 343.295 191.017, 343.974 188.594 C 346.238 180.506, 343.489 172.763, 336.445 167.391 C 333.368 165.044, 331.571 164.499, 326.110 164.260 C 321.421 164.054, 318.628 164.446, 316.500 165.610 M 249.304 304.956 C 243.565 308.455, 241.259 314.667, 243.346 321 L 244.500 324.500 255.800 324.591 C 265.995 324.674, 267.200 324.494, 268.133 322.752 C 269.709 319.806, 269.366 312.207, 267.529 309.404 C 265.197 305.845, 260.082 303.007, 256 303.007 C 254.075 303.007, 251.062 303.884, 249.304 304.956" stroke="none" fill="#604747" fill-rule="evenodd"/><path d="M 392.560 334.927 C 327.143 400.353, 273.255 453.658, 272.810 453.383 C 272.364 453.107, 272 453.095, 272 453.355 C 272 453.954, 303.135 470.271, 303.345 469.782 C 303.430 469.583, 331.091 441.733, 364.813 407.894 L 426.125 346.368 424.512 337.068 C 423.624 331.953, 423.034 327.675, 423.199 327.560 C 423.365 327.445, 440.200 311.558, 460.611 292.255 C 498.862 256.079, 502.439 252.073, 507.720 239.500 C 510.298 233.360, 512.277 223.608, 511.832 219.231 C 511.511 216.079, 507.543 219.928, 392.560 334.927 M 210.184 341 L 204.500 345.500 230.250 345.767 C 244.412 345.914, 267.586 345.914, 281.746 345.767 L 307.492 345.500 301.996 341.220 L 296.500 336.940 256.184 336.720 L 215.867 336.500 210.184 341" stroke="none" fill="#ff9009" fill-rule="evenodd"/><path d="M 416.256 219.320 L 355.158 280.500 353.972 290 C 350.310 319.346, 334.599 344.877, 310.561 360.546 C 296.799 369.516, 281.547 374.857, 264.896 376.536 L 258.292 377.202 197.396 438.154 L 136.500 499.106 143 498.435 C 146.575 498.067, 152.200 496.884, 155.500 495.808 C 162.080 493.661, 216.040 466.554, 217.079 464.873 C 217.433 464.299, 217.898 463.934, 218.112 464.061 C 218.989 464.586, 223 462.791, 223 461.874 C 223 461.328, 223.450 461.160, 224 461.500 C 224.550 461.840, 225 461.615, 225 461 C 225 460.385, 225.563 460.206, 226.250 460.601 C 226.938 460.997, 227.144 460.930, 226.709 460.453 C 226.274 459.975, 288.320 397.182, 364.589 320.911 L 503.260 182.238 500.202 177.793 C 496.314 172.142, 485.971 162.536, 481.099 160.050 L 477.354 158.140 416.256 219.320 M 247 326 C 244.062 326.457, 247.186 326.705, 256 326.716 C 266.008 326.728, 268.207 326.531, 264.500 325.954 C 258.565 325.030, 253.150 325.044, 247 326" stroke="none" fill="#ffa711" fill-rule="evenodd"/><path d="M 274.067 122.433 L 222.641 173.867 225.344 177.183 C 235.556 189.711, 237.925 196.610, 234.103 202.696 C 231.620 206.649, 228.251 208.923, 223.808 209.644 C 218.556 210.496, 213.738 207.913, 209.252 201.842 C 207.081 198.902, 204.652 195.956, 203.854 195.294 C 202.650 194.295, 191.887 204.608, 140.553 255.947 L 78.702 317.804 83.680 323.152 L 88.658 328.500 79.865 378 C 74.898 405.963, 71.064 430.328, 71.053 434 C 71.030 442.009, 73.237 452.793, 76.116 458.741 L 78.281 463.212 133.941 407.559 L 189.601 351.905 184.750 346.703 C 177.740 339.184, 168.842 325.573, 165.170 316.753 C 158.151 299.894, 155.319 276.588, 159.367 269 C 161.990 264.083, 164.865 261.147, 169.500 258.653 C 173.440 256.532, 174.343 256.496, 229.500 256.226 L 285.500 255.953 314.736 226.746 L 343.972 197.540 339.298 192.795 C 331.516 184.894, 325.411 183.193, 318.210 186.921 C 314.318 188.936, 306.334 196.813, 301.554 203.356 C 298.560 207.454, 293.850 210.002, 289.282 209.996 C 283.007 209.988, 276.011 202.725, 276.004 196.210 C 275.992 186.319, 295.094 165.834, 310 159.752 C 314.438 157.941, 317.442 157.507, 325.554 157.504 C 335.197 157.500, 335.926 157.657, 343.351 161.327 C 348.065 163.658, 353.642 167.540, 357.611 171.252 L 364.129 177.350 380.814 160.746 C 391.949 149.667, 398.332 144.036, 400 143.821 C 401.375 143.645, 393.050 142.203, 381.500 140.618 C 369.950 139.033, 359.982 137.233, 359.349 136.618 C 358.717 136.003, 351.094 121.550, 342.411 104.500 C 333.727 87.450, 326.254 73.349, 325.805 73.165 C 325.355 72.980, 325.242 72.418, 325.553 71.915 C 325.864 71.412, 325.977 71, 325.805 71 C 325.633 71, 302.351 94.145, 274.067 122.433" stroke="none" fill="#ffda26" fill-rule="evenodd"/><path d="M 215.103 52.276 C 193.435 73.962, 175.885 91.896, 176.103 92.127 C 176.321 92.359, 175.903 93.213, 175.174 94.025 C 174.445 94.836, 169.006 104.945, 163.088 116.490 L 152.329 137.480 140.414 139.224 C 133.861 140.183, 127.509 141.072, 126.298 141.198 C 125.086 141.325, 124.317 141.650, 124.588 141.921 C 124.858 142.192, 99.790 167.707, 68.879 198.621 L 12.678 254.829 15.089 257.678 C 18.891 262.171, 33.627 276, 34.613 276 C 35.102 276, 92.576 218.926, 162.332 149.168 L 289.161 22.336 286.631 20.678 C 282.177 17.760, 269.325 14, 261.798 13.414 L 254.500 12.846 215.103 52.276" stroke="none" fill="#ffed93" fill-rule="evenodd"/><path d="M 161.938 149.501 L 34.500 276.872 53.886 295.186 C 70.246 310.640, 82.704 321.880, 79.710 318.483 C 79.275 317.990, 106.725 289.752, 140.710 255.731 L 202.500 193.876 198.128 189.944 C 192.435 184.823, 187.381 183.396, 182.364 185.493 C 176.970 187.746, 170.839 193.107, 165.492 200.243 C 158.280 209.869, 152.437 212.059, 145.046 207.906 C 137.131 203.457, 135.679 194.920, 141.395 186.432 C 149.943 173.739, 164.540 161.699, 175.228 158.525 C 189.176 154.383, 203.425 158.079, 217.404 169.465 L 222.716 173.792 273.547 122.953 C 301.504 94.992, 324.741 72.340, 325.186 72.615 C 327.787 74.222, 312.835 45.653, 306.986 37.839 C 303.276 32.882, 294.864 25.068, 291.028 23.015 C 289.696 22.302, 264.652 46.842, 161.938 149.501" stroke="none" fill="#ffea83" fill-rule="evenodd"/><path d="M 384.740 161.760 C 374.983 171.528, 367 179.808, 367 180.160 C 367 180.511, 368.575 183.139, 370.500 186 C 373.255 190.094, 373.999 192.190, 373.996 195.850 C 373.992 201.654, 371.392 206.112, 366.717 208.330 C 360.180 211.432, 353.288 209.727, 348.684 203.871 L 346.034 200.500 318.269 228.250 L 290.505 256 312.309 256 C 325.050 256, 335.958 256.464, 338.549 257.117 C 343.596 258.388, 351.134 264.489, 352.878 268.716 C 353.510 270.247, 354.358 273.416, 354.763 275.758 L 355.500 280.015 416.457 219.048 C 449.983 185.516, 477.141 157.808, 476.809 157.475 C 474.284 154.951, 459.201 151.588, 434.396 148.018 C 419.053 145.811, 405.595 144.004, 404.490 144.002 C 403.215 144.001, 395.983 150.504, 384.740 161.760 M 136.031 410.469 L 79.742 466.765 82.799 471.208 C 92.763 485.690, 112.343 497.062, 129.951 498.593 L 136.500 499.162 197.497 438.081 L 258.494 377 253.378 377 C 245.901 377, 232.248 374.405, 223.838 371.386 C 214.142 367.905, 207.996 364.782, 199.411 358.971 L 192.321 354.172 136.031 410.469" stroke="none" fill="#ffba18" fill-rule="evenodd"/><path d="M 363.499 322.045 C 287.049 398.520, 225.672 460.656, 227.104 460.125 C 228.537 459.594, 235.626 456.195, 242.858 452.571 L 256.008 445.982 264 450 C 268.395 452.210, 272.274 454.070, 272.620 454.133 C 272.966 454.197, 326.968 400.531, 392.624 334.876 C 511.501 216.002, 512 215.486, 511.985 211.502 C 511.977 209.301, 511.286 204.595, 510.449 201.044 C 508.903 194.485, 504.233 183, 503.112 183 C 502.774 183, 439.948 245.570, 363.499 322.045 M 236.548 327.777 C 233.772 328.479, 228.125 330.729, 224 332.777 L 216.500 336.500 236.250 336.771 C 247.113 336.920, 264.888 336.920, 275.750 336.771 L 295.500 336.500 289.500 333.389 C 278.671 327.774, 274.656 326.938, 257.419 326.710 C 247.205 326.574, 239.807 326.953, 236.548 327.777 M 325.453 348.250 L 321.500 352.500 325.750 348.547 C 329.702 344.871, 330.460 344, 329.703 344 C 329.540 344, 327.627 345.913, 325.453 348.250" stroke="none" fill="#ff9e0d" fill-rule="evenodd"/><path d="M 242.500 14.480 C 226.053 18.100, 212.459 26.809, 203.584 39.409 C 198.722 46.312, 176.432 89, 177.690 89 C 178.141 89, 195.605 71.900, 216.500 51 C 258.074 9.415, 256.693 11.355, 242.500 14.480 M 122.500 141.714 C 72.001 148.695, 48.231 152.372, 43.845 153.881 C 22.982 161.059, 8.727 175.910, 2.114 197.355 C -0.538 205.957, -0.805 223.106, 1.571 232.276 C 3.110 238.213, 7.067 246.815, 10.741 252.210 L 12.587 254.919 69.540 197.960 C 100.865 166.632, 126.270 141.067, 125.997 141.150 C 125.724 141.232, 124.150 141.486, 122.500 141.714 M 172.250 258.119 C 170 258.769, 169 259.664, 169 261.029 C 169 262.975, 170.087 263, 256 263 C 341.635 263, 343 262.969, 343 261.047 C 343 259.642, 341.948 258.802, 339.250 258.053 C 334.424 256.712, 176.905 256.775, 172.250 258.119 M 223.250 290.750 C 241.262 290.902, 270.738 290.902, 288.750 290.750 C 306.762 290.597, 292.025 290.472, 256 290.472 C 219.975 290.472, 205.238 290.597, 223.250 290.750" stroke="none" fill="#f9f1b8" fill-rule="evenodd"/><path d="M 380.719 160.781 C 366.579 174.939, 364.158 177.792, 365.230 179.031 C 366.308 180.278, 369.214 177.744, 384.470 162.250 C 399.502 146.983, 402.034 144, 399.959 144 C 398.082 144, 393.397 148.086, 380.719 160.781 M 289.453 174.250 L 285.500 178.500 289.750 174.547 C 293.702 170.871, 294.460 170, 293.703 170 C 293.540 170, 291.627 171.912, 289.453 174.250 M 219 171.313 C 219 171.485, 220.463 172.948, 222.250 174.563 L 225.500 177.500 222.563 174.250 C 219.825 171.221, 219 170.540, 219 171.313 M 202 193.500 C 203.866 195.425, 205.617 197, 205.892 197 C 206.167 197, 204.866 195.425, 203 193.500 C 201.134 191.575, 199.383 190, 199.108 190 C 198.833 190, 200.134 191.575, 202 193.500 M 340 193.500 C 341.866 195.425, 343.617 197, 343.892 197 C 344.167 197, 342.866 195.425, 341 193.500 C 339.134 191.575, 337.383 190, 337.108 190 C 336.833 190, 338.134 191.575, 340 193.500 M 314.508 226.992 L 285.530 255.983 230.515 256.250 C 199.024 256.403, 209.922 256.526, 256 256.537 C 300.275 256.548, 326.259 256.319, 313.741 256.028 L 290.983 255.500 318.377 228.121 C 337.859 208.650, 346.166 200.973, 347.136 201.543 C 347.886 201.983, 347.643 201.366, 346.595 200.172 C 345.547 198.977, 344.419 198, 344.089 198 C 343.758 198, 330.447 211.046, 314.508 226.992 M 168.232 264 C 168.232 265.925, 168.438 266.712, 168.689 265.750 C 168.941 264.788, 168.941 263.212, 168.689 262.250 C 168.438 261.288, 168.232 262.075, 168.232 264 M 343.232 264 C 343.232 265.925, 343.438 266.712, 343.689 265.750 C 343.941 264.788, 343.941 263.212, 343.689 262.250 C 343.438 261.288, 343.232 262.075, 343.232 264 M 157.286 279.500 C 157.294 282.250, 157.488 283.256, 157.718 281.736 C 157.947 280.216, 157.941 277.966, 157.704 276.736 C 157.467 275.506, 157.279 276.750, 157.286 279.500 M 133.500 408 C 102.704 438.800, 78.094 464, 78.812 464 C 79.530 464, 79.840 464.450, 79.500 465 C 76.858 469.276, 87.459 459.047, 136.384 410.116 C 186.119 360.375, 193.873 352, 190.188 352 C 189.806 352, 164.296 377.200, 133.500 408" stroke="none" fill="#fbbb2a" fill-rule="evenodd"/></svg>