<?xml version="1.0" encoding="UTF-8"?>
<!DOCTYPE svg PUBLIC "-//W3C//DTD SVG 1.1//EN" "http://www.w3.org/Graphics/SVG/1.1/DTD/svg11.dtd">
<svg xmlns="http://www.w3.org/2000/svg" version="1.1" width="100px" height="100px" style="shape-rendering:geometricPrecision; text-rendering:geometricPrecision; image-rendering:optimizeQuality; fill-rule:evenodd; clip-rule:evenodd" xmlns:xlink="http://www.w3.org/1999/xlink">
<g><path style="opacity:0.921" fill="#272832" d="M 34.5,12.5 C 44.5056,12.3335 54.5056,12.5002 64.5,13C 70.6667,15.1667 74.8333,19.3333 77,25.5C 78.2626,34.4698 79.2626,43.4698 80,52.5C 84.6122,58.9012 84.6122,65.2345 80,71.5C 80.3374,81.8293 75.3374,86.8293 65,86.5C 59.7353,85.9476 54.5686,84.9476 49.5,83.5C 46.2054,83.2952 43.2054,84.1285 40.5,86C 34.0072,87.3802 28.0072,86.3802 22.5,83C 20.0064,79.6486 18.8397,75.8152 19,71.5C 14.3878,65.2345 14.3878,58.9012 19,52.5C 19.7374,43.4698 20.7374,34.4698 22,25.5C 24.3531,19.3154 28.5198,14.982 34.5,12.5 Z"/></g>
<g><path style="opacity:1" fill="#faf9eb" d="M 36.5,14.5 C 45.1731,14.3336 53.8397,14.5002 62.5,15C 71.7607,18.6844 76.0941,25.5177 75.5,35.5C 58.1667,35.5 40.8333,35.5 23.5,35.5C 23.0287,25.4289 27.362,18.4289 36.5,14.5 Z"/></g>
<g><path style="opacity:1" fill="#34363e" d="M 33.5,20.5 C 34.347,19.0337 35.6803,18.2004 37.5,18C 42.8333,17.3333 48.1667,17.3333 53.5,18C 46.6951,18.0624 40.0285,18.8957 33.5,20.5 Z"/></g>
<g><path style="opacity:1" fill="#5d5e61" d="M 61.5,19.5 C 62.8488,18.2035 64.1821,18.3702 65.5,20C 64.1807,20.195 62.8474,20.0283 61.5,19.5 Z"/></g>
<g><path style="opacity:1" fill="#6b6c6d" d="M 33.5,20.5 C 32.1652,22.6851 30.4986,24.1851 28.5,25C 29.4113,22.5852 31.078,21.0852 33.5,20.5 Z"/></g>
<g><path style="opacity:1" fill="#b0bdcf" d="M 22.5,36.5 C 40.5123,36.1671 58.5123,36.5005 76.5,37.5C 67.5,37.8333 58.5,38.1667 49.5,38.5C 40.141,38.4983 31.141,37.8316 22.5,36.5 Z"/></g>
<g><path style="opacity:1" fill="#f5f4e7" d="M 26.5,40.5 C 26.4175,44.9176 28.5842,47.2509 33,47.5C 38.7093,46.734 43.2093,44.0673 46.5,39.5C 48.5,39.5 50.5,39.5 52.5,39.5C 57.052,45.9526 63.052,48.1193 70.5,46C 71.8613,44.4157 72.528,42.5824 72.5,40.5C 72.56,39.9569 72.8933,39.6236 73.5,39.5C 74.4287,40.6888 74.762,42.0222 74.5,43.5C 75.1614,42.2825 75.8281,40.9492 76.5,39.5C 76.8333,41.3333 77.1667,43.1667 77.5,45C 77.2931,48.5774 76.2931,51.7441 74.5,54.5C 72.7073,56.4261 71.7073,58.7594 71.5,61.5C 70.8485,62.0906 70.1818,62.7573 69.5,63.5C 64.5,59.6667 59.5,55.8333 54.5,52C 52.3225,50.7978 49.9892,50.2978 47.5,50.5C 46.8333,50.5 46.5,50.8333 46.5,51.5C 41.4462,54.3741 36.7795,57.8741 32.5,62C 30.4434,64.0807 28.7767,63.914 27.5,61.5C 27.762,62.9778 27.4287,64.3112 26.5,65.5C 25.1451,66.1882 24.1451,67.1882 23.5,68.5C 22.5416,68.9528 21.7083,69.6195 21,70.5C 15.798,63.4115 16.6314,57.0782 23.5,51.5C 21.331,47.7099 20.9977,43.7099 22.5,39.5C 23.2811,40.7287 23.7811,42.062 24,43.5C 24.2189,42.062 24.7189,40.7287 25.5,39.5C 26.1067,39.6236 26.44,39.9569 26.5,40.5 Z"/></g>
<g><path style="opacity:1" fill="#424244" d="M 46.5,39.5 C 43.2093,44.0673 38.7093,46.734 33,47.5C 28.5842,47.2509 26.4175,44.9176 26.5,40.5C 33.0779,39.5399 39.7446,39.2066 46.5,39.5 Z"/></g>
<g><path style="opacity:1" fill="#424245" d="M 52.5,39.5 C 59.2554,39.2066 65.9221,39.5399 72.5,40.5C 72.528,42.5824 71.8613,44.4157 70.5,46C 63.052,48.1193 57.052,45.9526 52.5,39.5 Z"/></g>
<g><path style="opacity:1" fill="#5d5e61" d="M 55.5,47.5 C 53.516,46.8443 51.516,46.1776 49.5,45.5C 47.484,46.1776 45.484,46.8443 43.5,47.5C 44.8984,45.4672 46.8984,44.4672 49.5,44.5C 52.1016,44.4672 54.1016,45.4672 55.5,47.5 Z"/></g>
<g><path style="opacity:1" fill="#606164" d="M 55.5,47.5 C 57.0269,47.427 58.0269,48.0937 58.5,49.5C 56.9731,49.573 55.9731,48.9063 55.5,47.5 Z"/></g>
<g><path style="opacity:1" fill="#5d5e61" d="M 74.5,43.5 C 74.539,46.089 73.539,48.089 71.5,49.5C 71.9925,47.1815 72.9925,45.1815 74.5,43.5 Z"/></g>
<g><path style="opacity:1" fill="#5f6063" d="M 43.5,47.5 C 43.0269,48.9063 42.0269,49.573 40.5,49.5C 40.9731,48.0937 41.9731,47.427 43.5,47.5 Z"/></g>
<g><path style="opacity:1" fill="#535459" d="M 40.5,49.5 C 36.99,52.8334 32.99,53.3334 28.5,51C 24.5851,45.8264 24.9184,45.4931 29.5,50C 33.2375,51.8889 36.9041,51.7222 40.5,49.5 Z"/></g>
<g><path style="opacity:1" fill="#4f5055" d="M 58.5,49.5 C 60.6073,50.3004 62.7739,50.9671 65,51.5C 67.2261,50.9671 69.3927,50.3004 71.5,49.5C 68.7964,52.3033 65.4631,53.1366 61.5,52C 60.0577,51.6232 59.0577,50.7899 58.5,49.5 Z"/></g>
<g><path style="opacity:1" fill="#373941" d="M 46.5,51.5 C 45.6314,53.717 45.298,56.0504 45.5,58.5C 44.4168,58.5394 43.4168,58.8728 42.5,59.5C 41.7492,58.624 41.2492,57.624 41,56.5C 39.7592,57.9375 39.2592,59.4375 39.5,61C 33.9936,63.2547 28.6603,65.7547 23.5,68.5C 24.1451,67.1882 25.1451,66.1882 26.5,65.5C 27.4287,64.3112 27.762,62.9778 27.5,61.5C 28.7767,63.914 30.4434,64.0807 32.5,62C 36.7795,57.8741 41.4462,54.3741 46.5,51.5 Z"/></g>
<g><path style="opacity:1" fill="#9fa8b7" d="M 47.5,50.5 C 47.702,52.9496 47.3686,55.283 46.5,57.5C 46.5,58.1667 46.1667,58.5 45.5,58.5C 45.298,56.0504 45.6314,53.717 46.5,51.5C 46.5,50.8333 46.8333,50.5 47.5,50.5 Z"/></g>
<g><path style="opacity:1" fill="#646568" d="M 27.5,61.5 C 25.5381,59.575 24.7048,57.2417 25,54.5C 26.4114,56.6504 27.2447,58.9837 27.5,61.5 Z"/></g>
<g><path style="opacity:1" fill="#696a6c" d="M 74.5,54.5 C 74.2927,57.2406 73.2927,59.5739 71.5,61.5C 71.7073,58.7594 72.7073,56.4261 74.5,54.5 Z"/></g>
<g><path style="opacity:1" fill="#36373f" d="M 47.5,50.5 C 49.9892,50.2978 52.3225,50.7978 54.5,52C 59.5,55.8333 64.5,59.6667 69.5,63.5C 70.1818,62.7573 70.8485,62.0906 71.5,61.5C 71.3234,63.9806 72.3234,65.8139 74.5,67C 69.4978,65.344 64.4978,63.344 59.5,61C 59.7408,59.4375 59.2408,57.9375 58,56.5C 57.7508,57.624 57.2508,58.624 56.5,59.5C 53.3404,57.9733 50.007,57.3067 46.5,57.5C 47.3686,55.283 47.702,52.9496 47.5,50.5 Z"/></g>
<g><path style="opacity:1" fill="#afbbce" d="M 51.5,52.5 C 52.5862,52.62 53.2528,53.2867 53.5,54.5C 53.1667,55.1667 52.8333,55.8333 52.5,56.5C 51.5713,55.3112 51.238,53.9778 51.5,52.5 Z"/></g>
<g><path style="opacity:1" fill="#f5f4e8" d="M 70.5,76.5 C 73.0613,78.6774 73.0613,80.8441 70.5,83C 65.6231,85.2965 60.9564,84.9631 56.5,82C 57.5914,79.9361 57.7581,77.7695 57,75.5C 55.3394,72.3417 52.8394,70.0084 49.5,68.5C 46.1606,70.0084 43.6606,72.3417 42,75.5C 41.2419,77.7695 41.4086,79.9361 42.5,82C 37.9872,84.7537 33.3205,85.0871 28.5,83C 27.1068,81.8289 26.2735,80.3289 26,78.5C 25.7787,81.9431 24.7787,82.2764 23,79.5C 21.1111,75.7625 21.2778,72.0959 23.5,68.5C 28.6603,65.7547 33.9936,63.2547 39.5,61C 39.2592,59.4375 39.7592,57.9375 41,56.5C 41.2492,57.624 41.7492,58.624 42.5,59.5C 43.4168,58.8728 44.4168,58.5394 45.5,58.5C 46.1667,58.5 46.5,58.1667 46.5,57.5C 50.007,57.3067 53.3404,57.9733 56.5,59.5C 57.2508,58.624 57.7508,57.624 58,56.5C 59.2408,57.9375 59.7408,59.4375 59.5,61C 64.4978,63.344 69.4978,65.344 74.5,67C 72.3234,65.8139 71.3234,63.9806 71.5,61.5C 73.2927,59.5739 74.2927,57.2406 74.5,54.5C 75.2216,54.0825 75.7216,53.4158 76,52.5C 83.1076,58.5506 83.2743,64.7172 76.5,71C 77.9369,75.0259 77.1036,78.5259 74,81.5C 73.6667,80.1667 73.3333,78.8333 73,77.5C 72.3292,76.7476 71.4959,76.4142 70.5,76.5 Z"/></g>
<g><path style="opacity:1" fill="#5a5c60" d="M 70.5,76.5 C 69.1001,77.0998 68.1001,78.0998 67.5,79.5C 67.6499,75.8388 66.1499,74.8388 63,76.5C 62.5172,77.448 62.3505,78.448 62.5,79.5C 53.8333,62.1667 45.1667,62.1667 36.5,79.5C 36.6499,75.8388 35.1499,74.8388 32,76.5C 31.5172,77.448 31.3505,78.448 31.5,79.5C 30.8141,78.1516 29.8141,76.985 28.5,76C 31.7699,75.0052 35.1033,74.1719 38.5,73.5C 42.0243,65.738 47.691,63.5714 55.5,67C 57.7411,68.7391 59.4078,70.9058 60.5,73.5C 64.1209,74.0133 67.4542,75.0133 70.5,76.5 Z"/></g>
<g><path style="opacity:1" fill="#919bac" d="M 36.5,79.5 C 34.8333,82.1667 33.1667,82.1667 31.5,79.5C 31.3505,78.448 31.5172,77.448 32,76.5C 35.1499,74.8388 36.6499,75.8388 36.5,79.5 Z"/></g>
<g><path style="opacity:1" fill="#919bac" d="M 67.5,79.5 C 65.8333,82.1667 64.1667,82.1667 62.5,79.5C 62.3505,78.448 62.5172,77.448 63,76.5C 66.1499,74.8388 67.6499,75.8388 67.5,79.5 Z"/></g>
</svg>
