<?xml version="1.0" encoding="UTF-8"?>
<!DOCTYPE svg PUBLIC "-//W3C//DTD SVG 1.1//EN" "http://www.w3.org/Graphics/SVG/1.1/DTD/svg11.dtd">
<svg xmlns="http://www.w3.org/2000/svg" version="1.1" width="512px" height="512px" style="shape-rendering:geometricPrecision; text-rendering:geometricPrecision; image-rendering:optimizeQuality; fill-rule:evenodd; clip-rule:evenodd" xmlns:xlink="http://www.w3.org/1999/xlink">
<g><path style="opacity:0.976" fill="#010102" d="M 429.5,258.5 C 433.221,258.369 436.554,259.369 439.5,261.5C 443.354,264.021 447.188,266.688 451,269.5C 446.703,252.431 441.87,235.431 436.5,218.5C 433.899,224.304 431.899,230.304 430.5,236.5C 428.102,242.696 426.102,249.029 424.5,255.5C 411.689,294.107 397.022,331.94 380.5,369C 308.552,390.124 235.552,406.791 161.5,419C 157.418,436.741 153.585,454.575 150,472.5C 149.654,474.848 148.487,476.681 146.5,478C 113.06,488.869 79.3929,499.035 45.5,508.5C 32.7188,505.015 29.5522,497.349 36,485.5C 83.7048,401.245 132.538,317.745 182.5,235C 147.319,163.805 112.819,92.3051 79,20.5C 76.6881,8.61586 81.5215,3.44919 93.5,5C 154.413,34.4565 215.08,64.4565 275.5,95C 278.531,97.559 280.698,100.726 282,104.5C 296.242,139.977 310.742,175.311 325.5,210.5C 330.667,201.5 335.833,192.5 341,183.5C 341.903,182.299 343.069,181.465 344.5,181C 377.768,177.96 411.101,176.627 444.5,177C 450.333,178.167 453.833,181.667 455,187.5C 463.458,221.45 469.458,255.783 473,290.5C 470.335,295.434 466.502,296.601 461.5,294C 450.333,284.167 439.833,273.667 430,262.5C 429.51,261.207 429.343,259.873 429.5,258.5 Z"/></g>
<g><path style="opacity:1" fill="#8a70cb" d="M 111.5,39.5 C 115.966,41.5665 120.299,43.8998 124.5,46.5C 122.5,49.1667 120.167,51.5 117.5,53.5C 114.954,49.0743 112.954,44.4077 111.5,39.5 Z"/></g>
<g><path style="opacity:1" fill="#9276d5" d="M 128.5,49.5 C 131.516,49.8406 134.182,51.0073 136.5,53C 132,57.5 127.5,62 123,66.5C 121.36,64.421 120.194,62.0876 119.5,59.5C 122.522,56.1467 125.522,52.8134 128.5,49.5 Z"/></g>
<g><path style="opacity:1" fill="#8a70cb" d="M 140.5,55.5 C 143.727,55.7799 146.393,57.1132 148.5,59.5C 142.833,65.8333 136.833,71.8333 130.5,77.5C 128.091,76.2993 126.091,74.6326 124.5,72.5C 129.855,66.813 135.188,61.1463 140.5,55.5 Z"/></g>
<g><path style="opacity:1" fill="#9276d6" d="M 153.5,61.5 C 155.473,62.4867 157.473,63.4867 159.5,64.5C 160.521,65.0016 160.688,65.6683 160,66.5C 154.5,72 149,77.5 143.5,83C 140.478,83.1637 137.811,82.1637 135.5,80C 141.703,73.9648 147.703,67.7981 153.5,61.5 Z"/></g>
<g><path style="opacity:1" fill="#8b71cc" d="M 164.5,68.5 C 167.928,68.5465 170.928,69.7132 173.5,72C 167.5,78 161.5,84 155.5,90C 153.063,89.7965 150.729,88.9632 148.5,87.5C 147.479,86.9984 147.312,86.3317 148,85.5C 153.703,79.9647 159.203,74.2981 164.5,68.5 Z"/></g>
<g><path style="opacity:1" fill="#9277d6" d="M 177.5,74.5 C 180.223,75.3519 182.89,76.5186 185.5,78C 179,84.5 172.5,91 166,97.5C 163.572,96.37 161.405,94.87 159.5,93C 165.703,86.9648 171.703,80.7981 177.5,74.5 Z"/></g>
<g><path style="opacity:1" fill="#8b71cc" d="M 189.5,80.5 C 191.928,81.2122 194.261,82.2122 196.5,83.5C 197.521,84.0016 197.688,84.6683 197,85.5C 190.667,91.8333 184.333,98.1667 178,104.5C 175.749,102.623 173.249,101.123 170.5,100C 177.036,93.6315 183.369,87.1315 189.5,80.5 Z"/></g>
<g><path style="opacity:1" fill="#aa90e8" d="M 129.5,82.5 C 166.658,102.909 203.325,124.076 239.5,146C 221.953,173.224 204.786,200.724 188,228.5C 168.776,179.719 149.276,131.052 129.5,82.5 Z"/></g>
<g><path style="opacity:1" fill="#9276d6" d="M 202.5,86.5 C 204.473,87.4867 206.473,88.4867 208.5,89.5C 209.521,90.0016 209.688,90.6683 209,91.5C 202.833,97.6667 196.667,103.833 190.5,110C 188.402,109.968 186.402,109.301 184.5,108C 183.549,107.282 183.383,106.449 184,105.5C 190.369,99.2981 196.536,92.9648 202.5,86.5 Z"/></g>
<g><path style="opacity:1" fill="#8b71cc" d="M 213.5,93.5 C 216.691,94.0922 219.691,95.2589 222.5,97C 215.833,103.667 209.167,110.333 202.5,117C 199.393,116.78 196.727,115.447 194.5,113C 201.036,106.631 207.369,100.131 213.5,93.5 Z"/></g>
<g><path style="opacity:1" fill="#9276d6" d="M 226.5,99.5 C 229.262,100.38 231.929,101.546 234.5,103C 227.333,110.167 220.167,117.333 213,124.5C 210.833,123 208.667,121.5 206.5,120C 213.369,113.298 220.036,106.465 226.5,99.5 Z"/></g>
<g><path style="opacity:1" fill="#8c71cc" d="M 238.5,105.5 C 240.928,106.212 243.261,107.212 245.5,108.5C 246.521,109.002 246.688,109.668 246,110.5C 239.5,117 233,123.5 226.5,130C 223.983,130.257 221.65,129.59 219.5,128C 218.549,127.282 218.383,126.449 219,125.5C 225.703,118.965 232.203,112.298 238.5,105.5 Z"/></g>
<g><path style="opacity:1" fill="#9176d4" d="M 250.5,111.5 C 253.626,112.229 256.293,113.729 258.5,116C 253.841,124.845 248.341,133.012 242,140.5C 237.897,138.535 234.064,136.202 230.5,133.5C 237.58,126.426 244.247,119.092 250.5,111.5 Z"/></g>
<g><path style="opacity:1" fill="#9277d6" d="M 330.5,287.5 C 326.731,287.244 323.064,287.577 319.5,288.5C 319.67,287.178 319.337,286.011 318.5,285C 311.416,283.903 305.916,280.403 302,274.5C 285.333,234.5 268.667,194.5 252,154.5C 250.75,151.923 250.416,149.257 251,146.5C 254.667,139.167 258.333,131.833 262,124.5C 285.123,178.701 307.957,233.035 330.5,287.5 Z"/></g>
<g><path style="opacity:1" fill="#aa90e8" d="M 319.5,288.5 C 323.064,287.577 326.731,287.244 330.5,287.5C 337.68,302.765 344.014,318.098 349.5,333.5C 299.665,303.748 249.665,274.248 199.5,245C 215.206,215.087 231.039,185.254 247,155.5C 264,196.167 281,236.833 298,277.5C 303.151,285.658 310.318,289.324 319.5,288.5 Z"/></g>
<g><path style="opacity:1" fill="#9377d7" d="M 424.5,216.5 C 424.201,213.358 422.534,211.191 419.5,210C 403.167,209.333 386.833,209.333 370.5,210C 369.069,210.465 367.903,211.299 367,212.5C 363.877,218.582 360.377,224.415 356.5,230C 354.913,230.862 353.246,231.529 351.5,232C 345.509,232.499 339.509,232.666 333.5,232.5C 331.895,229.88 330.562,227.047 329.5,224C 336.833,216 344.167,208 351.5,200C 378.5,200.606 405.5,201.606 432.5,203C 429.681,207.481 427.014,211.981 424.5,216.5 Z"/></g>
<g><path style="opacity:1" fill="#ab91e8" d="M 424.5,216.5 C 405.602,253.63 387.769,291.297 371,329.5C 358.392,297.17 345.892,264.837 333.5,232.5C 339.509,232.666 345.509,232.499 351.5,232C 353.246,231.529 354.913,230.862 356.5,230C 360.377,224.415 363.877,218.582 367,212.5C 367.903,211.299 369.069,210.465 370.5,210C 386.833,209.333 403.167,209.333 419.5,210C 422.534,211.191 424.201,213.358 424.5,216.5 Z"/></g>
<g><path style="opacity:1" fill="#8e73d0" d="M 439.5,261.5 C 437.471,252.74 434.471,244.406 430.5,236.5C 431.899,230.304 433.899,224.304 436.5,218.5C 441.87,235.431 446.703,252.431 451,269.5C 447.188,266.688 443.354,264.021 439.5,261.5 Z"/></g>
<g><path style="opacity:1" fill="#f9f7fd" d="M 401.5,228.5 C 395.143,253.931 385.31,278.264 372,301.5C 379.016,276.12 388.849,251.787 401.5,228.5 Z"/></g>
<g><path style="opacity:0.99" fill="#a88ee4" d="M 430.5,236.5 C 434.471,244.406 437.471,252.74 439.5,261.5C 436.554,259.369 433.221,258.369 429.5,258.5C 427.668,257.752 426.001,256.752 424.5,255.5C 426.102,249.029 428.102,242.696 430.5,236.5 Z"/></g>
<g><path style="opacity:1" fill="#ab91e8" d="M 329.5,342.5 C 324.156,342.334 318.823,342.501 313.5,343C 266.217,353.604 218.884,364.104 171.5,374.5C 170.584,374.457 169.917,374.124 169.5,373.5C 175.805,337.143 182.305,300.809 189,264.5C 191.667,259.833 194.333,255.167 197,250.5C 241.07,281.42 285.237,312.086 329.5,342.5 Z"/></g>
<g><path style="opacity:1" fill="#f8f6fd" d="M 206.5,274.5 C 206.56,273.957 206.893,273.624 207.5,273.5C 230.199,284.506 251.199,298.006 270.5,314C 261.39,310.779 252.724,306.445 244.5,301C 231.63,292.403 218.963,283.57 206.5,274.5 Z"/></g>
<g><path style="opacity:1" fill="#a98fe6" d="M 150.5,379.5 C 144.393,381.144 139.893,384.811 137,390.5C 128.609,410.949 119.942,431.282 111,451.5C 109.173,456.11 109.007,460.777 110.5,465.5C 97.8061,468.706 85.1394,472.039 72.5,475.5C 72.1667,475.167 71.8333,474.833 71.5,474.5C 105.668,416.14 138.835,357.14 171,297.5C 171.654,296.304 172.154,296.304 172.5,297.5C 164.543,324.661 157.21,351.994 150.5,379.5 Z"/></g>
<g><path style="opacity:1" fill="#f7f4fd" d="M 279.5,319.5 C 284.045,319.441 287.378,321.441 289.5,325.5C 283.947,327.291 280.614,325.291 279.5,319.5 Z"/></g>
<g><path style="opacity:1" fill="#9478d8" d="M 329.5,342.5 C 334.996,345.082 339.996,348.415 344.5,352.5C 283.102,369.077 222.435,388.077 162.5,409.5C 164.087,397.234 166.421,385.234 169.5,373.5C 169.917,374.124 170.584,374.457 171.5,374.5C 218.884,364.104 266.217,353.604 313.5,343C 318.823,342.501 324.156,342.334 329.5,342.5 Z"/></g>
<g><path style="opacity:1" fill="#9377d6" d="M 150.5,379.5 C 143.681,406.442 137.015,433.442 130.5,460.5C 123.639,461.549 116.973,463.215 110.5,465.5C 109.007,460.777 109.173,456.11 111,451.5C 119.942,431.282 128.609,410.949 137,390.5C 139.893,384.811 144.393,381.144 150.5,379.5 Z"/></g>
</svg>
