<?xml version="1.0" encoding="UTF-8" standalone="no"?> <svg width="64" height="64" viewBox="0 0 64 64" fill="none" xmlns="http://www.w3.org/2000/svg">
<path d="M23.9999 25L19.6069 57.6C21.3329 58.72 21.9999 61 24.7409 61C27.5479 61 28.1869 58.608 30.0119 57.526C30.6142 57.182 31.2958 57.001 31.9894 57.001C32.683 57.001 33.3647 57.182 33.9669 57.526C35.7999 58.606 36.4329 61 39.2419 61C41.9879 61 42.6559 58.706 44.3939 57.594L39.9999 25H23.9999Z" fill="#A97C50"/>
<path d="M36 11H28V21H36V11Z" fill="#F1F2F2"/>
<path d="M36 11H40H43L32 3L21 11H24H28H36Z" fill="#ED1C24"/>
<path d="M42 21H22V25H42V21Z" fill="#FF9811"/>
<path d="M28 11H24V21H28V11Z" fill="#808285"/>
<path d="M40 11H36V21H40V11Z" fill="#808285"/>
<path d="M36 33C36 31.9391 35.5786 30.9217 34.8284 30.1716C34.0783 29.4214 33.0609 29 32 29C30.9391 29 29.9217 29.4214 29.1716 30.1716C28.4214 30.9217 28 31.9391 28 33V34H36V33Z" fill="#FF9811"/>
<path d="M36 42C36 40.9391 35.5786 39.9217 34.8284 39.1716C34.0783 38.4214 33.0609 38 32 38C30.9391 38 29.9217 38.4214 29.1716 39.1716C28.4214 39.9217 28 40.9391 28 42V43H36V42Z" fill="#FF9811"/>
<path d="M28 51V52H36V51C36 49.9391 35.5786 48.9217 34.8284 48.1716C34.0783 47.4214 33.0609 47 32 47C30.9391 47 29.9217 47.4214 29.1716 48.1716C28.4214 48.9217 28 49.9391 28 51Z" fill="#FF9811"/>
<path d="M40.27 27L40 25H24L23.731 27H40.27Z" fill="#8B5E3C"/>
<path d="M60.9999 24.9999C60.9075 25.0002 60.8156 24.9874 60.7269 24.9619L58.7999 24.4169C58.6715 24.383 58.5512 24.3238 58.4459 24.2428C58.3407 24.1619 58.2526 24.0607 58.1869 23.9454C58.1211 23.83 58.079 23.7027 58.063 23.5709C58.047 23.4391 58.0574 23.3054 58.0935 23.1777C58.1297 23.0499 58.191 22.9307 58.2738 22.8268C58.3566 22.723 58.4592 22.6367 58.5756 22.573C58.6921 22.5092 58.8201 22.4693 58.9522 22.4556C59.0843 22.4419 59.2177 22.4545 59.3449 22.4929L61.2679 23.0379C61.4996 23.1037 61.6998 23.2509 61.8317 23.4525C61.9636 23.6542 62.0183 23.8966 61.9856 24.1353C61.953 24.374 61.8354 24.5929 61.6542 24.7517C61.4731 24.9106 61.2408 24.9987 60.9999 24.9999ZM55.2279 23.3649C55.1352 23.3647 55.0429 23.3516 54.9539 23.3259L53.0289 22.7809C52.7778 22.7051 52.5666 22.5337 52.4408 22.3037C52.3149 22.0737 52.2844 21.8034 52.3559 21.5511C52.4273 21.2988 52.595 21.0847 52.8228 20.9549C53.0507 20.825 53.3204 20.7899 53.5739 20.8569L55.4999 21.3999C55.7327 21.4651 55.934 21.6124 56.0666 21.8146C56.1992 22.0168 56.254 22.2602 56.221 22.4997C56.1879 22.7392 56.0692 22.9586 55.8868 23.1173C55.7044 23.2761 55.4706 23.3633 55.2289 23.3629L55.2279 23.3649ZM49.4549 21.7289C49.3625 21.7288 49.2706 21.7157 49.1819 21.6899L47.2569 21.1449C47.1285 21.111 47.0082 21.0518 46.9029 20.9708C46.7977 20.8899 46.7096 20.7887 46.6439 20.6734C46.5781 20.558 46.536 20.4307 46.52 20.2989C46.504 20.1671 46.5144 20.0334 46.5506 19.9057C46.5867 19.7779 46.648 19.6587 46.7308 19.5548C46.8136 19.451 46.9162 19.3647 47.0326 19.301C47.1491 19.2372 47.2771 19.1973 47.4092 19.1836C47.5413 19.1699 47.6747 19.1825 47.8019 19.2209L49.7269 19.7659C49.9598 19.8311 50.1612 19.9785 50.2938 20.1808C50.4263 20.3831 50.4811 20.6266 50.4479 20.8662C50.4147 21.1058 50.2958 21.3252 50.1132 21.4838C49.9306 21.6425 49.6967 21.7295 49.4549 21.7289Z" fill="#231F20"/>
<path d="M47.3789 12.8799C47.1312 12.8804 46.8921 12.7891 46.708 12.6234C46.5239 12.4578 46.4077 12.2298 46.3821 11.9835C46.3564 11.7371 46.4231 11.49 46.5692 11.2901C46.7153 11.0901 46.9304 10.9514 47.1729 10.9009L49.0529 10.5009C49.3124 10.446 49.5831 10.4965 49.8054 10.6411C50.0277 10.7858 50.1835 11.0129 50.2384 11.2724C50.2933 11.5319 50.2428 11.8026 50.0981 12.0249C49.9535 12.2473 49.7264 12.403 49.4669 12.4579L47.5869 12.8579C47.5185 12.8725 47.4488 12.8799 47.3789 12.8799ZM53.1719 11.6549C52.9242 11.6554 52.6851 11.5641 52.501 11.3984C52.3169 11.2328 52.2007 11.0048 52.1751 10.7585C52.1494 10.5121 52.2161 10.265 52.3622 10.0651C52.5083 9.86506 52.7234 9.7264 52.9659 9.67592L54.9229 9.26292C55.1824 9.20802 55.4531 9.25846 55.6754 9.40314C55.8977 9.54783 56.0535 9.7749 56.1084 10.0344C56.1633 10.2939 56.1128 10.5646 55.9681 10.7869C55.8235 11.0093 55.5964 11.165 55.3369 11.2199L53.3799 11.6329C53.3115 11.6475 53.2418 11.6549 53.1719 11.6549V11.6549ZM59.0419 10.4139C58.7942 10.4144 58.5552 10.3231 58.371 10.1574C58.1869 9.99184 58.0707 9.76378 58.0451 9.51745C58.0194 9.27112 58.0861 9.02404 58.2322 8.82405C58.3783 8.62406 58.5934 8.4854 58.8359 8.43492L60.7929 8.02092C61.0525 7.96602 61.3233 8.01651 61.5457 8.16129C61.7682 8.30607 61.924 8.53327 61.9789 8.79292C62.0338 9.05256 61.9833 9.32338 61.8385 9.5458C61.6937 9.76822 61.4665 9.92402 61.2069 9.97892L59.2499 10.3919C59.1815 10.4065 59.1118 10.4139 59.0419 10.4139V10.4139Z" fill="#231F20"/>
<path d="M61 55.9999C60.141 56.0236 59.2991 56.2464 58.5408 56.6507C57.7825 57.055 57.1284 57.6299 56.63 58.3299C55.79 59.2599 55.12 59.9999 53.75 59.9999C52.38 59.9999 51.71 59.2599 50.86 58.3299C50.3616 57.6299 49.7075 57.055 48.9492 56.6507C48.1909 56.2464 47.349 56.0236 46.49 55.9999C46.1026 56.0028 45.7168 56.0498 45.34 56.1399L41.15 25.9999H42C42.2652 25.9999 42.5196 25.8946 42.7071 25.7071C42.8946 25.5195 43 25.2652 43 24.9999V20.9999C43 20.7347 42.8946 20.4804 42.7071 20.2928C42.5196 20.1053 42.2652 19.9999 42 19.9999H41V11.9999H43C43.2109 11.9998 43.4163 11.933 43.5869 11.809C43.7576 11.6851 43.8846 11.5104 43.95 11.3099C44.0142 11.109 44.014 10.8931 43.9495 10.6923C43.8849 10.4915 43.7592 10.3158 43.59 10.1899L32.59 2.18995C32.4174 2.06795 32.2113 2.00244 32 2.00244C31.7887 2.00244 31.5826 2.06795 31.41 2.18995L20.41 10.1899C20.2408 10.3158 20.1151 10.4915 20.0505 10.6923C19.986 10.8931 19.9858 11.109 20.05 11.3099C20.1154 11.5104 20.2424 11.6851 20.4131 11.809C20.5837 11.933 20.7891 11.9998 21 11.9999H23V19.9999H22C21.7348 19.9999 21.4804 20.1053 21.2929 20.2928C21.1054 20.4804 21 20.7347 21 20.9999V24.9999C21 25.2652 21.1054 25.5195 21.2929 25.7071C21.4804 25.8946 21.7348 25.9999 22 25.9999H22.85L18.66 56.1399C18.2767 56.0486 17.8841 56.0016 17.49 55.9999C16.6326 56.0248 15.7926 56.2481 15.0361 56.6524C14.2796 57.0567 13.6271 57.6309 13.13 58.3299C12.28 59.2599 11.62 59.9999 10.25 59.9999C8.88 59.9999 8.21 59.2599 7.37 58.3299C6.87161 57.6299 6.2175 57.055 5.45918 56.6507C4.70087 56.2464 3.85904 56.0236 3 55.9999C2.73478 55.9999 2.48043 56.1053 2.29289 56.2928C2.10536 56.4804 2 56.7347 2 56.9999C2 57.2652 2.10536 57.5195 2.29289 57.7071C2.48043 57.8946 2.73478 57.9999 3 57.9999C4.37 57.9999 5.04 58.7399 5.88 59.6699C6.37839 60.37 7.0325 60.9449 7.79082 61.3492C8.54913 61.7535 9.39096 61.9763 10.25 61.9999C11.1074 61.9751 11.9474 61.7518 12.7039 61.3475C13.4604 60.9432 14.1129 60.369 14.61 59.6699C15.46 58.7399 16.13 57.9999 17.49 57.9999C18.85 57.9999 19.53 58.7399 20.38 59.6699C20.8771 60.369 21.5296 60.9432 22.2861 61.3475C23.0426 61.7518 23.8826 61.9751 24.74 61.9999C25.599 61.9763 26.4409 61.7535 27.1992 61.3492C27.9575 60.9449 28.6116 60.37 29.11 59.6699C29.95 58.7399 30.62 57.9999 31.99 57.9999C33.36 57.9999 34.03 58.7399 34.88 59.6699C35.3603 60.3869 36.0098 60.9745 36.7711 61.3808C37.5324 61.7871 38.3821 61.9997 39.245 61.9997C40.1079 61.9997 40.9576 61.7871 41.7189 61.3808C42.4802 60.9745 43.1297 60.3869 43.61 59.6699C44.45 58.7399 45.12 57.9999 46.49 57.9999C47.86 57.9999 48.53 58.7399 49.38 59.6699C49.8603 60.3869 50.5098 60.9745 51.2711 61.3808C52.0324 61.7871 52.8821 61.9997 53.745 61.9997C54.6079 61.9997 55.4576 61.7871 56.2189 61.3808C56.9802 60.9745 57.6297 60.3869 58.11 59.6699C58.96 58.7399 59.63 57.9999 61 57.9999C61.2652 57.9999 61.5196 57.8946 61.7071 57.7071C61.8946 57.5195 62 57.2652 62 56.9999C62 56.7347 61.8946 56.4804 61.7071 56.2928C61.5196 56.1053 61.2652 55.9999 61 55.9999ZM32 4.23994L39.92 9.99995H24.08L32 4.23994ZM39 11.9999V19.9999H37V11.9999H39ZM35 11.9999V19.9999H29V11.9999H35ZM27 11.9999V19.9999H25V11.9999H27ZM23 21.9999H41V23.9999H23V21.9999ZM42.13 58.3299C41.28 59.2599 40.61 59.9999 39.24 59.9999C37.87 59.9999 37.2 59.2599 36.36 58.3299C35.8616 57.6299 35.2075 57.055 34.4492 56.6507C33.6909 56.2464 32.849 56.0236 31.99 55.9999C31.1315 56.0261 30.2906 56.25 29.5326 56.6541C28.7747 57.0582 28.1202 57.6317 27.62 58.3299C26.78 59.2599 26.11 59.9999 24.74 59.9999C23.37 59.9999 22.71 59.2599 21.86 58.3299C21.4617 57.8722 21.0269 57.4474 20.56 57.0599L24.87 25.9999H39.13L43.45 57.0499C42.972 57.4355 42.5301 57.864 42.13 58.3299V58.3299Z" fill="#231F20"/>
<path d="M32 28C30.6744 28.0016 29.4036 28.5289 28.4662 29.4662C27.5289 30.4036 27.0016 31.6744 27 33V34C27 34.2652 27.1054 34.5196 27.2929 34.7071C27.4804 34.8946 27.7348 35 28 35H36C36.2652 35 36.5196 34.8946 36.7071 34.7071C36.8946 34.5196 37 34.2652 37 34V33C36.9984 31.6744 36.4711 30.4036 35.5338 29.4662C34.5964 28.5289 33.3256 28.0016 32 28V28ZM29 33C29 32.2044 29.3161 31.4413 29.8787 30.8787C30.4413 30.3161 31.2044 30 32 30C32.7956 30 33.5587 30.3161 34.1213 30.8787C34.6839 31.4413 35 32.2044 35 33H29Z" fill="#231F20"/>
<path d="M32 37C30.6744 37.0016 29.4036 37.5289 28.4662 38.4662C27.5289 39.4036 27.0016 40.6744 27 42V43C27 43.2652 27.1054 43.5196 27.2929 43.7071C27.4804 43.8946 27.7348 44 28 44H36C36.2652 44 36.5196 43.8946 36.7071 43.7071C36.8946 43.5196 37 43.2652 37 43V42C36.9984 40.6744 36.4711 39.4036 35.5338 38.4662C34.5964 37.5289 33.3256 37.0016 32 37V37ZM29 42C29 41.2044 29.3161 40.4413 29.8787 39.8787C30.4413 39.3161 31.2044 39 32 39C32.7956 39 33.5587 39.3161 34.1213 39.8787C34.6839 40.4413 35 41.2044 35 42H29Z" fill="#231F20"/>
<path d="M32 46C30.6744 46.0016 29.4036 46.5289 28.4662 47.4662C27.5289 48.4036 27.0016 49.6744 27 51V52C27 52.2652 27.1054 52.5196 27.2929 52.7071C27.4804 52.8946 27.7348 53 28 53H36C36.2652 53 36.5196 52.8946 36.7071 52.7071C36.8946 52.5196 37 52.2652 37 52V51C36.9984 49.6744 36.4711 48.4036 35.5338 47.4662C34.5964 46.5289 33.3256 46.0016 32 46V46ZM29 51C29 50.2044 29.3161 49.4413 29.8787 48.8787C30.4413 48.3161 31.2044 48 32 48C32.7956 48 33.5587 48.3161 34.1213 48.8787C34.6839 49.4413 35 50.2044 35 51H29Z" fill="#231F20"/>
<path d="M61 17H59C58.7348 17 58.4804 16.8946 58.2929 16.7071C58.1054 16.5196 58 16.2652 58 16C58 15.7348 58.1054 15.4804 58.2929 15.2929C58.4804 15.1054 58.7348 15 59 15H61C61.2652 15 61.5196 15.1054 61.7071 15.2929C61.8946 15.4804 62 15.7348 62 16C62 16.2652 61.8946 16.5196 61.7071 16.7071C61.5196 16.8946 61.2652 17 61 17ZM55 17H53C52.7348 17 52.4804 16.8946 52.2929 16.7071C52.1054 16.5196 52 16.2652 52 16C52 15.7348 52.1054 15.4804 52.2929 15.2929C52.4804 15.1054 52.7348 15 53 15H55C55.2652 15 55.5196 15.1054 55.7071 15.2929C55.8946 15.4804 56 15.7348 56 16C56 16.2652 55.8946 16.5196 55.7071 16.7071C55.5196 16.8946 55.2652 17 55 17ZM49 17H48C47.7348 17 47.4804 16.8946 47.2929 16.7071C47.1054 16.5196 47 16.2652 47 16C47 15.7348 47.1054 15.4804 47.2929 15.2929C47.4804 15.1054 47.7348 15 48 15H49C49.2652 15 49.5196 15.1054 49.7071 15.2929C49.8946 15.4804 50 15.7348 50 16C50 16.2652 49.8946 16.5196 49.7071 16.7071C49.5196 16.8946 49.2652 17 49 17Z" fill="#231F20"/>
<path d="M3.14894 24.9581C2.91014 24.9544 2.68055 24.8654 2.50168 24.7071C2.32282 24.5489 2.20649 24.3318 2.17375 24.0953C2.14101 23.8587 2.19401 23.6182 2.32317 23.4174C2.45233 23.2165 2.64912 23.0685 2.87794 23.0001L4.79994 22.4501C5.05343 22.383 5.32313 22.4181 5.55094 22.548C5.77876 22.6778 5.94646 22.8919 6.01792 23.1442C6.08939 23.3965 6.0589 23.6668 5.93302 23.8968C5.80714 24.1269 5.59595 24.2982 5.34494 24.3741L3.41994 24.9191C3.33182 24.9444 3.24063 24.9575 3.14894 24.9581V24.9581ZM8.92194 23.3221C8.68006 23.3227 8.44617 23.2356 8.26358 23.077C8.08099 22.9183 7.96209 22.6989 7.92889 22.4593C7.89569 22.2197 7.95045 21.9762 8.08303 21.7739C8.21561 21.5716 8.41701 21.4242 8.64994 21.3591L10.5749 20.8141C10.702 20.7757 10.8355 20.763 10.9676 20.7767C11.0997 20.7905 11.2277 20.8304 11.3441 20.8941C11.4606 20.9578 11.5632 21.0441 11.646 21.148C11.7288 21.2518 11.7901 21.371 11.8262 21.4988C11.8624 21.6266 11.8728 21.7602 11.8568 21.892C11.8408 22.0238 11.7986 22.1511 11.7329 22.2665C11.6671 22.3819 11.5791 22.483 11.4738 22.5639C11.3686 22.6449 11.2483 22.7041 11.1199 22.7381L9.19994 23.2831C9.10959 23.3092 9.01598 23.3223 8.92194 23.3221V23.3221ZM14.6999 21.6861C14.4588 21.6856 14.2259 21.5979 14.0443 21.4393C13.8626 21.2807 13.7444 21.0618 13.7114 20.8229C13.6784 20.584 13.7328 20.3412 13.8647 20.1393C13.9965 19.9374 14.1969 19.7899 14.4289 19.7241L16.3529 19.1781C16.6064 19.111 16.8761 19.1461 17.1039 19.276C17.3318 19.4058 17.4995 19.6199 17.5709 19.8722C17.6424 20.1245 17.6119 20.3948 17.486 20.6248C17.3601 20.8549 17.149 21.0262 16.8979 21.1021L14.9739 21.6471C14.8849 21.6727 14.7926 21.6858 14.6999 21.6861V21.6861Z" fill="#231F20"/>
<path d="M16.6209 12.8799C16.551 12.8799 16.4813 12.8725 16.4129 12.8579L14.4559 12.4449C14.1964 12.39 13.9693 12.2343 13.8246 12.0119C13.68 11.7896 13.6295 11.5189 13.6844 11.2594C13.7393 10.9999 13.8951 10.7728 14.1174 10.6281C14.3397 10.4835 14.6104 10.433 14.8699 10.4879L16.8269 10.9009C17.0694 10.9514 17.2845 11.0901 17.4306 11.2901C17.5767 11.49 17.6433 11.7371 17.6177 11.9835C17.5921 12.2298 17.4759 12.4578 17.2918 12.6234C17.1076 12.7891 16.8686 12.8804 16.6209 12.8799V12.8799ZM10.7509 11.6389C10.681 11.6389 10.6113 11.6315 10.5429 11.6169L8.58592 11.1999C8.45105 11.1797 8.32175 11.1321 8.20595 11.06C8.09016 10.988 7.99033 10.893 7.91259 10.781C7.83486 10.6689 7.78086 10.5422 7.75393 10.4085C7.72699 10.2748 7.72769 10.137 7.75597 10.0036C7.78425 9.87019 7.83952 9.74398 7.91838 9.63272C7.99724 9.52145 8.09802 9.4275 8.21453 9.35662C8.33105 9.28575 8.46082 9.23946 8.59589 9.22059C8.73095 9.20173 8.86844 9.21068 8.99992 9.24692L10.9569 9.65992C11.1994 9.7104 11.4145 9.84906 11.5606 10.0491C11.7067 10.249 11.7733 10.4961 11.7477 10.7425C11.7221 10.9888 11.6059 11.2168 11.4218 11.3824C11.2376 11.5481 10.9986 11.6394 10.7509 11.6389V11.6389ZM4.88092 10.3999C4.81103 10.4003 4.74131 10.3933 4.67292 10.3789L2.79292 9.97892C2.66435 9.95173 2.5424 9.89949 2.43403 9.82518C2.32565 9.75087 2.23297 9.65593 2.16129 9.5458C2.01651 9.32338 1.96602 9.05256 2.02092 8.79292C2.07582 8.53327 2.23161 8.30607 2.45403 8.16129C2.67645 8.01651 2.94727 7.96602 3.20692 8.02092L5.08692 8.42092C5.32938 8.4714 5.54448 8.61006 5.69057 8.81005C5.83665 9.01004 5.90333 9.25712 5.87769 9.50345C5.85205 9.74978 5.73591 9.97784 5.55177 10.1434C5.36763 10.3091 5.12858 10.4004 4.88092 10.3999Z" fill="#231F20"/>
<path d="M2 16C2 15.7348 2.10536 15.4804 2.29289 15.2929C2.48043 15.1054 2.73478 15 3 15H5C5.26522 15 5.51957 15.1054 5.70711 15.2929C5.89464 15.4804 6 15.7348 6 16C6 16.2652 5.89464 16.5196 5.70711 16.7071C5.51957 16.8946 5.26522 17 5 17H3C2.73478 17 2.48043 16.8946 2.29289 16.7071C2.10536 16.5196 2 16.2652 2 16V16ZM8 16C8 15.7348 8.10536 15.4804 8.29289 15.2929C8.48043 15.1054 8.73478 15 9 15H11C11.2652 15 11.5196 15.1054 11.7071 15.2929C11.8946 15.4804 12 15.7348 12 16C12 16.2652 11.8946 16.5196 11.7071 16.7071C11.5196 16.8946 11.2652 17 11 17H9C8.73478 17 8.48043 16.8946 8.29289 16.7071C8.10536 16.5196 8 16.2652 8 16ZM14 16C14 15.7348 14.1054 15.4804 14.2929 15.2929C14.4804 15.1054 14.7348 15 15 15H16C16.2652 15 16.5196 15.1054 16.7071 15.2929C16.8946 15.4804 17 15.7348 17 16C17 16.2652 16.8946 16.5196 16.7071 16.7071C16.5196 16.8946 16.2652 17 16 17H15C14.7348 17 14.4804 16.8946 14.2929 16.7071C14.1054 16.5196 14 16.2652 14 16Z" fill="#231F20"/>
</svg>
