<svg xmlns="http://www.w3.org/2000/svg" width="512" height="512" viewBox="0 0 512 512" version="1.1"><path d="M 247 1.584 C 242.683 3.442, 150.920 94.691, 147.528 100.500 C 141.977 110.006, 143.727 120.942, 152.104 129.101 C 160.938 137.705, 172.796 142.980, 186.747 144.511 C 198.625 145.813, 203.405 151.564, 202.714 163.720 C 202.165 173.388, 198.154 181.526, 189.840 189.840 C 181.526 198.154, 173.388 202.165, 163.720 202.714 C 151.564 203.405, 145.813 198.625, 144.511 186.747 C 142.980 172.796, 137.705 160.938, 129.101 152.104 C 120.944 143.729, 110.016 141.979, 100.500 147.522 C 94.936 150.763, 50.296 195.869, 49.515 199.039 C 48.029 205.069, 54.409 211.118, 60.613 209.561 C 62.451 209.100, 71.680 200.676, 87.054 185.426 C 100.043 172.542, 111.179 162, 111.800 162 C 114.083 162, 119.676 168.007, 122.391 173.373 C 124.266 177.079, 125.622 182.040, 126.523 188.488 C 128.068 199.550, 130.477 205.190, 136.156 211.041 C 151.812 227.174, 181.827 223.356, 202.592 202.592 C 223.356 181.827, 227.174 151.812, 211.041 136.156 C 205.190 130.477, 199.550 128.068, 188.488 126.523 C 182.040 125.622, 177.079 124.266, 173.373 122.391 C 167.947 119.646, 162 114.076, 162 111.740 C 162 109.991, 254.208 18, 255.961 18 C 256.781 18, 278.162 38.651, 303.476 63.892 C 334.564 94.890, 350.960 110.534, 354 112.096 C 363.333 116.894, 374.203 114.670, 382.161 106.335 C 389.747 98.389, 394.251 88.155, 396.430 73.910 C 397.989 63.724, 399.656 60.829, 405.633 57.936 C 415.891 52.970, 432.481 58.272, 443.321 69.980 C 454.371 81.916, 458.746 96.696, 454.081 106.333 C 451.174 112.337, 448.417 113.927, 438.149 115.518 C 426.612 117.306, 421.345 119.038, 414.144 123.413 C 398.585 132.864, 393.601 145.291, 400.135 158.342 C 401.477 161.022, 418.526 178.857, 448.108 208.524 C 473.349 233.838, 494 255.176, 494 255.943 C 494 256.709, 488.825 262.623, 482.500 269.084 C 471.769 280.046, 471 281.095, 471 284.770 C 471 290.205, 474.542 294, 479.613 294 C 483.013 294, 484.342 292.991, 495.581 281.880 C 509.709 267.913, 513 262.712, 513 254.349 C 513 251.342, 512.598 249.130, 512.107 249.434 C 511.615 249.738, 510.908 248.752, 510.534 247.243 C 510.084 245.425, 493.860 228.466, 462.428 196.956 C 434.940 169.401, 415 148.653, 415 147.607 C 415 145.020, 420.626 140.090, 426.849 137.225 C 429.791 135.871, 436.165 134.170, 441.014 133.446 C 452.666 131.705, 458.874 128.911, 464.534 122.860 C 470.768 116.195, 473.233 110.286, 473.804 100.641 C 474.763 84.442, 468.395 69.268, 455.175 56.252 C 442.974 44.239, 430.156 38.586, 415 38.534 C 402.761 38.493, 396.811 40.492, 389.620 47.064 C 383.100 53.024, 380.350 58.968, 378.554 70.986 C 377.830 75.835, 376.129 82.209, 374.775 85.151 C 371.906 91.383, 366.979 97, 364.383 97 C 363.325 97, 342.980 77.445, 315.535 50.046 C 283.385 17.952, 267.323 2.604, 264.782 1.546 C 260.102 -0.400, 251.571 -0.382, 247 1.584 M 28.500 219.436 C 25.496 220.796, 5.726 240.318, 2.640 244.973 C 0.331 248.453, 0.331 263.546, 2.639 267.027 C 3.540 268.387, 25.140 290.436, 50.639 316.025 C 77.837 343.319, 97 363.304, 97 364.374 C 97 366.979, 91.392 371.902, 85.151 374.775 C 82.209 376.129, 75.835 377.830, 70.986 378.554 C 58.968 380.350, 53.024 383.100, 47.064 389.620 C 40.492 396.811, 38.493 402.761, 38.534 415 C 38.559 422.323, 39.096 425.989, 40.877 431 C 47.330 449.151, 62.849 464.670, 81 471.123 C 89.583 474.174, 103.911 474.399, 111.931 471.608 C 122.447 467.950, 133 454.195, 133 444.146 C 133 439.241, 135.126 429.674, 137.056 425.890 C 139.590 420.924, 145.316 415, 147.583 415 C 148.686 415, 168.399 433.936, 196.465 461.954 C 228.615 494.048, 244.677 509.396, 247.218 510.454 C 252.404 512.611, 260.498 512.422, 265.434 510.029 C 268.116 508.729, 285.719 491.788, 317.131 460.279 C 368.540 408.711, 367.430 410.058, 367.328 399.355 C 367.181 383.778, 348.992 369.994, 325.253 367.469 C 313.622 366.232, 308.665 360.362, 309.201 348.461 C 310.061 329.355, 329.355 310.061, 348.461 309.201 C 360.362 308.665, 366.232 313.622, 367.469 325.253 C 368.851 338.253, 372.697 347.762, 380.392 357.209 C 386.111 364.229, 392.123 367.333, 400 367.333 C 409.508 367.333, 412.246 365.322, 438.250 339.232 C 460.792 316.617, 462 315.214, 462 311.654 C 462 306.506, 458.229 303, 452.693 303 C 448.792 303, 448.014 303.659, 425.543 326 C 400.419 350.978, 399.685 351.461, 394.792 346.250 C 389.967 341.111, 386.882 333.571, 385.471 323.472 C 384.737 318.214, 383.178 311.933, 382.007 309.514 C 378.995 303.293, 372.755 297.245, 366.155 294.151 C 361.081 291.772, 359.370 291.505, 349.500 291.549 C 340.436 291.589, 337.444 292.008, 332.500 293.931 C 315.562 300.517, 300.621 315.464, 293.948 332.500 C 292.004 337.464, 291.589 340.399, 291.549 349.500 C 291.505 359.370, 291.772 361.081, 294.151 366.155 C 297.245 372.755, 303.293 378.995, 309.514 382.007 C 311.933 383.178, 318.214 384.737, 323.472 385.471 C 337.448 387.423, 349 393.971, 349 399.941 C 349 401.993, 339.821 411.685, 303.246 448.254 C 278.081 473.414, 256.830 494, 256.020 494 C 255.211 494, 233.838 473.349, 208.524 448.108 C 176.894 416.569, 161.093 401.505, 158 399.942 C 151.937 396.878, 143.045 396.772, 137.475 399.697 C 129.094 404.099, 120.042 416.719, 117.175 428 C 116.546 430.475, 115.618 435.711, 115.113 439.636 C 113.999 448.297, 112.214 451.234, 106.333 454.081 C 96.696 458.746, 81.916 454.371, 69.980 443.321 C 58.272 432.481, 52.970 415.891, 57.936 405.633 C 60.829 399.656, 63.724 397.989, 73.910 396.430 C 88.155 394.251, 98.389 389.747, 106.335 382.161 C 114.670 374.203, 116.894 363.333, 112.096 354 C 110.534 350.960, 94.890 334.564, 63.892 303.476 C 38.651 278.162, 18 256.825, 18 256.060 C 18 255.295, 22.873 249.681, 28.830 243.585 C 35.100 237.166, 39.954 231.326, 40.358 229.712 C 41.367 225.689, 38.590 220.401, 34.770 219.070 C 33.082 218.481, 31.656 218.018, 31.601 218.039 C 31.545 218.061, 30.150 218.689, 28.500 219.436" stroke="none" fill="#242424" fill-rule="evenodd"/><path d="M 208.235 64.275 C 182.806 89.726, 162 111.086, 162 111.740 C 162 114.076, 167.947 119.646, 173.373 122.391 C 177.079 124.266, 182.040 125.622, 188.488 126.523 C 199.550 128.068, 205.190 130.477, 211.041 136.156 C 227.174 151.812, 223.356 181.827, 202.592 202.592 C 181.827 223.356, 151.812 227.174, 136.156 211.041 C 130.477 205.190, 128.068 199.550, 126.523 188.488 C 125.622 182.040, 124.266 177.079, 122.391 173.373 C 119.676 168.007, 114.083 162, 111.800 162 C 111.179 162, 100.043 172.542, 87.054 185.426 C 71.680 200.676, 62.451 209.100, 60.613 209.561 C 58.796 210.017, 56.629 209.717, 54.535 208.718 L 51.281 207.166 44.617 213.882 L 37.953 220.598 39.514 223.727 C 42.046 228.804, 40.546 231.592, 28.830 243.585 C 22.873 249.681, 18 255.295, 18 256.060 C 18 256.825, 38.651 278.162, 63.892 303.476 C 94.890 334.564, 110.534 350.960, 112.096 354 C 116.894 363.333, 114.670 374.203, 106.335 382.161 C 98.389 389.747, 88.155 394.251, 73.910 396.430 C 63.724 397.989, 60.829 399.656, 57.936 405.633 C 52.970 415.891, 58.272 432.481, 69.980 443.321 C 81.916 454.371, 96.696 458.746, 106.333 454.081 C 112.214 451.234, 113.999 448.297, 115.113 439.636 C 115.618 435.711, 116.546 430.475, 117.175 428 C 120.042 416.719, 129.094 404.099, 137.475 399.697 C 143.045 396.772, 151.937 396.878, 158 399.942 C 161.093 401.505, 176.894 416.569, 208.524 448.108 C 233.838 473.349, 255.215 494, 256.028 494 C 256.842 494, 278.094 473.411, 303.254 448.246 C 339.743 411.750, 349 401.974, 349 399.933 C 349 393.971, 337.439 387.422, 323.472 385.471 C 318.214 384.737, 311.933 383.178, 309.514 382.007 C 303.293 378.995, 297.245 372.755, 294.151 366.155 C 291.772 361.081, 291.505 359.370, 291.549 349.500 C 291.589 340.436, 292.008 337.444, 293.931 332.500 C 300.517 315.562, 315.464 300.621, 332.500 293.948 C 337.464 292.004, 340.399 291.589, 349.500 291.549 C 359.370 291.505, 361.081 291.772, 366.155 294.151 C 372.755 297.245, 378.995 303.293, 382.007 309.514 C 383.178 311.933, 384.737 318.214, 385.471 323.472 C 386.882 333.571, 389.967 341.111, 394.792 346.250 C 399.685 351.461, 400.419 350.978, 425.543 326 C 447.300 304.369, 448.896 303, 452.352 303 C 454.373 303, 456.921 303.558, 458.014 304.241 C 459.796 305.354, 460.692 304.789, 466.741 298.741 C 472.789 292.692, 473.354 291.796, 472.241 290.014 C 471.558 288.921, 471 286.408, 471 284.430 C 471 281.189, 472.141 279.666, 482.500 269.084 C 488.825 262.623, 494 256.709, 494 255.943 C 494 255.176, 473.349 233.838, 448.108 208.524 C 418.526 178.857, 401.477 161.022, 400.135 158.342 C 393.601 145.291, 398.585 132.864, 414.144 123.413 C 421.345 119.038, 426.612 117.306, 438.149 115.518 C 448.417 113.927, 451.174 112.337, 454.081 106.333 C 458.746 96.696, 454.371 81.916, 443.321 69.980 C 432.481 58.272, 415.891 52.970, 405.633 57.936 C 399.656 60.829, 397.989 63.724, 396.430 73.910 C 394.251 88.155, 389.747 98.389, 382.161 106.335 C 374.203 114.670, 363.333 116.894, 354 112.096 C 350.960 110.534, 334.564 94.890, 303.476 63.892 C 278.162 38.651, 256.781 18, 255.961 18 C 255.142 18, 233.665 38.824, 208.235 64.275" stroke="none" fill="#fbdf68" fill-rule="evenodd"/></svg>