<?xml version="1.0" encoding="UTF-8"?>
<!DOCTYPE svg PUBLIC "-//W3C//DTD SVG 1.1//EN" "http://www.w3.org/Graphics/SVG/1.1/DTD/svg11.dtd">
<svg xmlns="http://www.w3.org/2000/svg" version="1.1" width="100px" height="100px" style="shape-rendering:geometricPrecision; text-rendering:geometricPrecision; image-rendering:optimizeQuality; fill-rule:evenodd; clip-rule:evenodd" xmlns:xlink="http://www.w3.org/1999/xlink">
<g><path style="opacity:0.936" fill="#f45374" d="M 76.5,36.5 C 71.9119,34.5741 68.2452,31.5741 65.5,27.5C 73.9805,21.7545 82.3139,15.7545 90.5,9.5C 91.4077,10.79 91.241,12.1233 90,13.5C 84.9725,20.893 80.4725,28.5597 76.5,36.5 Z"/></g>
<g><path style="opacity:0.975" fill="#3ed8ea" d="M 65.5,27.5 C 68.2452,31.5741 71.9119,34.5741 76.5,36.5C 82.0129,42.1757 88.0129,47.3424 94.5,52C 99.0242,58.9467 98.3576,65.28 92.5,71C 84.5437,74.4331 78.5437,72.4331 74.5,65C 68.4148,63.812 62.4148,62.312 56.5,60.5C 53.4849,71.3922 50.6516,82.3922 48,93.5C 37.6957,88.5973 27.5291,83.5973 17.5,78.5C 25.4344,58.6539 37.7677,41.9873 54.5,28.5C 52.8103,26.4807 51.1436,24.4807 49.5,22.5C 49.5,22.1667 49.5,21.8333 49.5,21.5C 52.5012,18.5074 55.8346,15.8407 59.5,13.5C 60.2282,16.8019 60.3949,20.1352 60,23.5C 61.9917,24.6647 63.825,25.998 65.5,27.5 Z"/></g>
<g><path style="opacity:0.973" fill="#f5bb00" d="M 49.5,21.5 C 49.5,21.8333 49.5,22.1667 49.5,22.5C 31.833,36.5013 18.4996,53.8346 9.5,74.5C 6.27347,74.2201 3.60681,72.8868 1.5,70.5C 10.7791,49.0514 24.4457,30.8847 42.5,16C 43.1667,15.3333 43.8333,15.3333 44.5,16C 46.3003,17.8119 47.9669,19.6452 49.5,21.5 Z"/></g>
<g><path style="opacity:1" fill="#e97c03" d="M 49.5,22.5 C 51.1436,24.4807 52.8103,26.4807 54.5,28.5C 37.7677,41.9873 25.4344,58.6539 17.5,78.5C 14.5152,77.6743 11.8485,76.341 9.5,74.5C 18.4996,53.8346 31.833,36.5013 49.5,22.5 Z"/></g>
</svg>
