<?xml version="1.0" encoding="UTF-8"?>
<!DOCTYPE svg PUBLIC "-//W3C//DTD SVG 1.1//EN" "http://www.w3.org/Graphics/SVG/1.1/DTD/svg11.dtd">
<svg xmlns="http://www.w3.org/2000/svg" version="1.1" width="100px" height="100px" style="shape-rendering:geometricPrecision; text-rendering:geometricPrecision; image-rendering:optimizeQuality; fill-rule:evenodd; clip-rule:evenodd" xmlns:xlink="http://www.w3.org/1999/xlink">
<g><path style="opacity:0.91" fill="#070707" d="M 78.5,4.5 C 79.8221,4.33003 80.9887,4.66337 82,5.5C 86.8952,19.1623 89.8952,33.1623 91,47.5C 90.3645,48.9663 89.5312,50.2997 88.5,51.5C 91.3617,55.7332 92.195,60.3999 91,65.5C 88.2028,76.2247 85.2028,86.8914 82,97.5C 81.2753,98.0585 80.4419,98.3918 79.5,98.5C 67.7895,95.4891 56.1229,92.3224 44.5,89C 42.6372,86.636 40.9705,84.136 39.5,81.5C 35.8776,80.6747 32.211,80.1747 28.5,80C 20.3333,71.8333 12.1667,63.6667 4,55.5C 3.33333,52.8333 3.33333,50.1667 4,47.5C 12.1667,39.3333 20.3333,31.1667 28.5,23C 32.211,22.8253 35.8776,22.3253 39.5,21.5C 40.9705,18.864 42.6372,16.364 44.5,14C 56.0395,11.1186 67.3728,7.95192 78.5,4.5 Z M 58.5,29.5 C 56.1942,33.4828 53.8609,37.4828 51.5,41.5C 45.5276,42.6636 39.5276,42.8303 33.5,42C 36.5,39 39.5,36 42.5,33C 47.7788,31.5132 53.1121,30.3465 58.5,29.5 Z M 73.5,35.5 C 76.0352,40.6154 77.7019,46.1154 78.5,52C 77.4049,57.2851 75.9049,62.4517 74,67.5C 70.5815,62.3318 67.4148,56.9984 64.5,51.5C 67.5559,46.1325 70.5559,40.7992 73.5,35.5 Z M 58.5,73.5 C 53.1121,72.6535 47.7788,71.4868 42.5,70C 39.5,67 36.5,64 33.5,61C 39.5276,60.1697 45.5276,60.3364 51.5,61.5C 53.8609,65.5172 56.1942,69.5172 58.5,73.5 Z"/></g>
<g><path style="opacity:1" fill="#f2f2f2" d="M 36.5,70.5 C 34.7354,71.4614 32.7354,71.7947 30.5,71.5C 23.5215,64.1872 16.5215,56.8539 9.5,49.5C 16.5215,42.1461 23.5215,34.8128 30.5,27.5C 32.7354,27.2053 34.7354,27.5386 36.5,28.5C 31.202,33.2969 26.0354,38.2969 21,43.5C 20.3333,44.5 20.3333,45.5 21,46.5C 31.7567,47.6529 42.59,47.8196 53.5,47C 59.3439,38.3138 64.6772,29.3138 69.5,20C 69.3333,18.5 68.5,17.6667 67,17.5C 59.5648,20.4062 52.0648,22.0729 44.5,22.5C 45.3974,19.4349 47.3974,17.6016 50.5,17C 58.2807,15.3781 65.9474,13.3781 73.5,11C 75.4406,10.2571 77.2739,10.4238 79,11.5C 82.4566,21.6529 84.7899,31.9863 86,42.5C 85.0853,43.3279 84.4186,44.3279 84,45.5C 81.4687,38.239 79.1354,30.9057 77,23.5C 76.4387,22.9781 75.772,22.6448 75,22.5C 73.2326,23.34 71.8993,24.6734 71,26.5C 66.3081,33.8839 62.1415,41.5506 58.5,49.5C 62.427,57.2698 66.5936,64.9365 71,72.5C 71.8993,74.3266 73.2326,75.66 75,76.5C 75.772,76.3552 76.4387,76.0219 77,75.5C 78.7973,68.4415 80.7973,61.4415 83,54.5C 83.6667,53.1667 84.3333,53.1667 85,54.5C 85.7811,55.7287 86.2811,57.062 86.5,58.5C 83.9841,68.2326 81.3174,77.8993 78.5,87.5C 77.6667,87.8333 76.8333,88.1667 76,88.5C 66.4808,86.0785 56.9808,83.5785 47.5,81C 45.4372,79.4284 44.7706,77.595 45.5,75.5C 53.3145,78.1208 61.3145,79.7875 69.5,80.5C 65.2686,70.4219 59.9353,60.9219 53.5,52C 42.59,51.1804 31.7567,51.3471 21,52.5C 20.3333,53.5 20.3333,54.5 21,55.5C 26.1455,60.6307 31.3122,65.6307 36.5,70.5 Z M 58.5,29.5 C 53.1121,30.3465 47.7788,31.5132 42.5,33C 39.5,36 36.5,39 33.5,42C 39.5276,42.8303 45.5276,42.6636 51.5,41.5C 53.8609,37.4828 56.1942,33.4828 58.5,29.5 Z"/></g>
<g><path style="opacity:1" fill="#626262" d="M 30.5,27.5 C 32.6934,26.2031 35.0268,26.2031 37.5,27.5C 37.3764,28.1067 37.0431,28.44 36.5,28.5C 34.7354,27.5386 32.7354,27.2053 30.5,27.5 Z"/></g>
<g><path style="opacity:1" fill="#565656" d="M 36.5,70.5 C 37.0431,70.56 37.3764,70.8933 37.5,71.5C 35.0268,72.7969 32.6934,72.7969 30.5,71.5C 32.7354,71.7947 34.7354,71.4614 36.5,70.5 Z"/></g>
</svg>
