<?xml version="1.0" encoding="UTF-8"?>
<!DOCTYPE svg PUBLIC "-//W3C//DTD SVG 1.1//EN" "http://www.w3.org/Graphics/SVG/1.1/DTD/svg11.dtd">
<svg xmlns="http://www.w3.org/2000/svg" version="1.1" width="512px" height="512px" style="shape-rendering:geometricPrecision; text-rendering:geometricPrecision; image-rendering:optimizeQuality; fill-rule:evenodd; clip-rule:evenodd" xmlns:xlink="http://www.w3.org/1999/xlink">
<g><path style="opacity:0.979" fill="#020202" d="M 247.5,-0.5 C 252.833,-0.5 258.167,-0.5 263.5,-0.5C 269.774,1.39436 275.274,4.7277 280,9.5C 296.799,-0.0752929 311.799,2.25804 325,16.5C 326.757,19.0139 328.257,21.6806 329.5,24.5C 354.09,22.4142 367.423,33.7475 369.5,58.5C 388.798,66.0925 396.298,80.0925 392,100.5C 390.819,104.363 388.986,107.863 386.5,111C 397.269,124.235 398.269,138.235 389.5,153C 400.729,166.478 404.896,181.978 402,199.5C 400.747,213.956 394.914,226.122 384.5,236C 376.018,240.879 367.185,241.712 358,238.5C 348.84,273.492 327.673,298.158 294.5,312.5C 292.873,318.726 293.373,324.726 296,330.5C 297.214,332.049 298.714,333.215 300.5,334C 314.368,333.92 328.034,335.42 341.5,338.5C 346.186,335.812 351.186,334.979 356.5,336C 376.333,341.493 391.166,353.326 401,371.5C 404.468,376.765 404.301,381.765 400.5,386.5C 397.813,386.664 395.146,386.497 392.5,386C 388.277,380.776 384.444,375.276 381,369.5C 373.826,360.337 364.659,354.337 353.5,351.5C 350.136,351.696 347.136,352.696 344.5,354.5C 302.27,372.116 259.937,389.449 217.5,406.5C 218.699,410.099 219.699,413.765 220.5,417.5C 263.913,412.651 305.913,402.151 346.5,386C 351.212,384.557 355.045,385.723 358,389.5C 358.959,393.421 357.792,396.588 354.5,399C 310.778,415.847 265.778,427.513 219.5,434C 243.748,447.228 269.748,453.562 297.5,453C 303.29,456.532 303.957,460.865 299.5,466C 267.438,468.486 237.438,461.653 209.5,445.5C 200.701,451.566 191.367,452.9 181.5,449.5C 179.723,465.159 178.057,480.825 176.5,496.5C 246.167,496.5 315.833,496.5 385.5,496.5C 392.833,496.5 400.167,496.5 407.5,496.5C 409.249,468.136 406.916,440.136 400.5,412.5C 401.401,408.942 403.401,406.275 406.5,404.5C 411.023,404.345 414.189,406.345 416,410.5C 422.454,441.853 424.787,473.519 423,505.5C 422.436,507.887 421.27,509.887 419.5,511.5C 316.167,511.5 212.833,511.5 109.5,511.5C 103.45,509.275 99.6169,504.942 98,498.5C 97.3333,473.5 97.3333,448.5 98,423.5C 98.4253,418.431 99.2586,413.431 100.5,408.5C 100.392,407.558 100.059,406.725 99.5,406C 90.7047,403.239 86.8714,397.405 88,388.5C 97.3545,367.629 111.521,350.796 130.5,338C 136.161,334.669 142.161,332.169 148.5,330.5C 151.272,331.026 153.938,331.859 156.5,333C 158.758,335.767 161.425,337.934 164.5,339.5C 179.581,335.658 194.915,333.824 210.5,334C 213.728,332.437 215.895,329.937 217,326.5C 217.499,321.845 217.666,317.179 217.5,312.5C 183.836,298.656 162.336,273.989 153,238.5C 136.681,243.511 124.347,238.511 116,223.5C 106.101,202.122 106.101,180.788 116,159.5C 117.715,157.241 119.548,155.074 121.5,153C 112.755,138.106 113.755,123.94 124.5,110.5C 115.777,97.8991 115.277,84.8991 123,71.5C 125.5,69 128,66.5 130.5,64C 133.5,63.3333 136.5,63.3333 139.5,64C 140.381,64.7083 141.047,65.5416 141.5,66.5C 143.346,72.4925 141.513,77.1592 136,80.5C 130.992,91.3745 133.325,100.374 143,107.5C 143.667,109.833 143.667,112.167 143,114.5C 140.473,117.939 137.473,120.939 134,123.5C 130.723,130.139 130.723,136.806 134,143.5C 137.086,146.517 140.086,149.517 143,152.5C 143.667,154.5 143.667,156.5 143,158.5C 139.301,163.09 138.635,168.09 141,173.5C 148.057,179.324 154.057,178.324 159,170.5C 159.667,168.167 159.667,165.833 159,163.5C 155.369,160.244 154.036,156.244 155,151.5C 158,147.833 161,144.167 164,140.5C 164.881,134.782 165.881,129.115 167,123.5C 167.903,122.299 169.069,121.465 170.5,121C 178.001,120.998 184.168,118.165 189,112.5C 189.898,108.205 191.731,104.372 194.5,101C 199.051,99.7852 203.718,99.1186 208.5,99C 211.618,97.9413 214.618,96.6079 217.5,95C 220.385,90.8724 223.719,87.2057 227.5,84C 230.167,83.3333 232.833,83.3333 235.5,84C 248.82,93.9977 262.154,93.9977 275.5,84C 278.167,83.3333 280.833,83.3333 283.5,84C 287.281,87.2057 290.615,90.8724 293.5,95C 296.382,96.6079 299.382,97.9413 302.5,99C 307.282,99.1186 311.949,99.7852 316.5,101C 319.269,104.372 321.102,108.205 322,112.5C 327.515,118.507 334.348,121.674 342.5,122C 343.701,122.903 344.535,124.069 345,125.5C 345.333,129.167 345.667,132.833 346,136.5C 346.24,138.852 347.073,140.852 348.5,142.5C 352.58,145.75 355.246,149.916 356.5,155C 355.87,158.296 354.37,161.13 352,163.5C 350.6,171.267 353.767,175.933 361.5,177.5C 369.878,176.418 373.045,171.751 371,163.5C 367.98,160.377 366.98,156.71 368,152.5C 370.914,149.517 373.914,146.517 377,143.5C 382.421,132.039 379.755,123.039 369,116.5C 367.543,113.634 367.21,110.634 368,107.5C 376.107,101.846 379.107,94.1794 377,84.5C 373.49,76.4908 367.324,72.6574 358.5,73C 356.376,71.8783 354.543,70.3783 353,68.5C 356.399,45.2279 346.732,36.2279 324,41.5C 322.408,41.3948 320.908,41.0614 319.5,40.5C 318.026,39.5637 317.026,38.2303 316.5,36.5C 314.103,22.9452 306.103,17.4452 292.5,20C 289.064,21.2739 286.397,23.4406 284.5,26.5C 279.424,29.6511 274.924,28.9844 271,24.5C 264.389,13.8423 255.556,11.6756 244.5,18C 242.167,21 239.833,24 237.5,27C 234.134,28.8789 230.8,28.8789 227.5,27C 222.022,20.2849 215.022,17.9516 206.5,20C 198.859,23.7626 194.526,29.9293 193.5,38.5C 192.5,39.3333 191.5,40.1667 190.5,41C 183.238,40.0358 175.904,39.7025 168.5,40C 164.33,42.0828 160.996,45.0828 158.5,49C 155.986,50.2525 153.32,50.7525 150.5,50.5C 146.18,47.0233 145.347,42.69 148,37.5C 156.502,26.3869 167.668,22.0536 181.5,24.5C 191.052,6.3668 205.719,0.200136 225.5,6C 227.587,6.79217 229.421,7.95884 231,9.5C 235.726,4.7277 241.226,1.39436 247.5,-0.5 Z"/></g>
<g><path style="opacity:1" fill="#ba7b62" d="M 284.5,26.5 C 286.271,27.8664 287.938,29.3664 289.5,31C 299.151,30.2471 308.151,32.0805 316.5,36.5C 317.026,38.2303 318.026,39.5637 319.5,40.5C 324.553,47.6235 326.887,55.6235 326.5,64.5C 348.945,70.7272 355.111,84.3939 345,105.5C 344.333,108.833 344.333,112.167 345,115.5C 351.029,122.438 353.029,130.438 351,139.5C 350.764,141.119 349.931,142.119 348.5,142.5C 347.073,140.852 346.24,138.852 346,136.5C 345.667,132.833 345.333,129.167 345,125.5C 344.535,124.069 343.701,122.903 342.5,122C 334.348,121.674 327.515,118.507 322,112.5C 321.102,108.205 319.269,104.372 316.5,101C 311.949,99.7852 307.282,99.1186 302.5,99C 299.382,97.9413 296.382,96.6079 293.5,95C 290.615,90.8724 287.281,87.2057 283.5,84C 280.833,83.3333 278.167,83.3333 275.5,84C 262.154,93.9977 248.82,93.9977 235.5,84C 232.833,83.3333 230.167,83.3333 227.5,84C 223.719,87.2057 220.385,90.8724 217.5,95C 214.618,96.6079 211.618,97.9413 208.5,99C 203.718,99.1186 199.051,99.7852 194.5,101C 191.731,104.372 189.898,108.205 189,112.5C 184.168,118.165 178.001,120.998 170.5,121C 169.069,121.465 167.903,122.299 167,123.5C 165.881,129.115 164.881,134.782 164,140.5C 161,144.167 158,147.833 155,151.5C 154.036,156.244 155.369,160.244 159,163.5C 159.667,165.833 159.667,168.167 159,170.5C 154.057,178.324 148.057,179.324 141,173.5C 138.635,168.09 139.301,163.09 143,158.5C 143.667,156.5 143.667,154.5 143,152.5C 140.086,149.517 137.086,146.517 134,143.5C 130.723,136.806 130.723,130.139 134,123.5C 137.473,120.939 140.473,117.939 143,114.5C 143.667,112.167 143.667,109.833 143,107.5C 133.325,100.374 130.992,91.3745 136,80.5C 141.513,77.1592 143.346,72.4925 141.5,66.5C 144.43,65.701 147.43,65.3677 150.5,65.5C 149.409,60.4693 149.409,55.4693 150.5,50.5C 153.32,50.7525 155.986,50.2525 158.5,49C 160.996,45.0828 164.33,42.0828 168.5,40C 175.904,39.7025 183.238,40.0358 190.5,41C 191.5,40.1667 192.5,39.3333 193.5,38.5C 194.526,29.9293 198.859,23.7626 206.5,20C 215.022,17.9516 222.022,20.2849 227.5,27C 230.8,28.8789 234.134,28.8789 237.5,27C 239.833,24 242.167,21 244.5,18C 255.556,11.6756 264.389,13.8423 271,24.5C 274.924,28.9844 279.424,29.6511 284.5,26.5 Z"/></g>
<g><path style="opacity:1" fill="#a6684f" d="M 316.5,36.5 C 308.151,32.0805 299.151,30.2471 289.5,31C 287.938,29.3664 286.271,27.8664 284.5,26.5C 286.397,23.4406 289.064,21.2739 292.5,20C 306.103,17.4452 314.103,22.9452 316.5,36.5 Z"/></g>
<g><path style="opacity:1" fill="#a86950" d="M 348.5,142.5 C 349.931,142.119 350.764,141.119 351,139.5C 353.029,130.438 351.029,122.438 345,115.5C 344.333,112.167 344.333,108.833 345,105.5C 355.111,84.3939 348.945,70.7272 326.5,64.5C 326.887,55.6235 324.553,47.6235 319.5,40.5C 320.908,41.0614 322.408,41.3948 324,41.5C 346.732,36.2279 356.399,45.2279 353,68.5C 354.543,70.3783 356.376,71.8783 358.5,73C 367.324,72.6574 373.49,76.4908 377,84.5C 379.107,94.1794 376.107,101.846 368,107.5C 367.21,110.634 367.543,113.634 369,116.5C 379.755,123.039 382.421,132.039 377,143.5C 373.914,146.517 370.914,149.517 368,152.5C 366.98,156.71 367.98,160.377 371,163.5C 373.045,171.751 369.878,176.418 361.5,177.5C 353.767,175.933 350.6,171.267 352,163.5C 354.37,161.13 355.87,158.296 356.5,155C 355.246,149.916 352.58,145.75 348.5,142.5 Z"/></g>
<g><path style="opacity:1" fill="#fdccbd" d="M 320.5,130.5 C 321.638,162.81 321.804,195.144 321,227.5C 315.75,261.224 298.25,286.224 268.5,302.5C 230.08,308.046 200.247,294.38 179,261.5C 172.595,250.284 168.595,238.284 167,225.5C 166.333,212.167 166.333,198.833 167,185.5C 174.873,176.419 176.373,166.419 171.5,155.5C 176.951,149.593 179.951,142.593 180.5,134.5C 191.616,131.888 199.616,125.388 204.5,115C 216.085,113.874 225.751,109.041 233.5,100.5C 248.096,108.33 262.763,108.33 277.5,100.5C 285.266,109.05 294.933,113.883 306.5,115C 309.61,121.609 314.277,126.775 320.5,130.5 Z"/></g>
<g><path style="opacity:1" fill="#fcae9d" d="M 320.5,130.5 C 323.834,132.663 327.5,133.996 331.5,134.5C 331.098,142.692 333.765,149.692 339.5,155.5C 334.629,166.457 336.129,176.457 344,185.5C 345.086,202.917 344.419,220.25 342,237.5C 330.743,274.263 306.243,295.929 268.5,302.5C 298.25,286.224 315.75,261.224 321,227.5C 321.804,195.144 321.638,162.81 320.5,130.5 Z"/></g>
<g><path style="opacity:1" fill="#060504" d="M 209.5,148.5 C 217.228,148.189 224.895,148.689 232.5,150C 238.689,152.766 240.022,157.1 236.5,163C 234.634,163.985 232.634,164.485 230.5,164.5C 220.833,163.491 211.166,163.325 201.5,164C 197.5,159.667 197.5,155.333 201.5,151C 204.379,150.454 207.046,149.621 209.5,148.5 Z"/></g>
<g><path style="opacity:1" fill="#060504" d="M 283.5,148.5 C 292.303,148.027 300.97,148.861 309.5,151C 313.5,155.333 313.5,159.667 309.5,164C 307.833,164.167 306.167,164.333 304.5,164.5C 295.161,163.419 285.827,163.252 276.5,164C 272.066,160.733 271.4,156.733 274.5,152C 277.459,150.396 280.459,149.229 283.5,148.5 Z"/></g>
<g><path style="opacity:1" fill="#faac9b" d="M 125.5,176.5 C 130.819,187.132 139.486,192.465 151.5,192.5C 151.666,202.506 151.5,212.506 151,222.5C 139.989,227.505 132.323,224.172 128,212.5C 123.412,200.701 122.579,188.701 125.5,176.5 Z"/></g>
<g><path style="opacity:1" fill="#faac9b" d="M 384.5,176.5 C 386.726,180.069 387.726,184.069 387.5,188.5C 387.159,196.72 385.659,204.72 383,212.5C 380.431,219.741 375.431,224.075 368,225.5C 365.019,225.343 362.352,224.343 360,222.5C 359.5,212.506 359.334,202.506 359.5,192.5C 371.555,192.747 379.889,187.414 384.5,176.5 Z"/></g>
<g><path style="opacity:1" fill="#050403" d="M 209.5,185.5 C 213.603,184.769 217.103,185.769 220,188.5C 220.667,193.167 220.667,197.833 220,202.5C 215.594,206.423 211.261,206.423 207,202.5C 206.333,197.833 206.333,193.167 207,188.5C 208.045,187.627 208.878,186.627 209.5,185.5 Z"/></g>
<g><path style="opacity:1" fill="#050403" d="M 293.5,185.5 C 297.603,184.769 301.103,185.769 304,188.5C 304.667,193.167 304.667,197.833 304,202.5C 299.594,206.423 295.261,206.423 291,202.5C 290.333,197.833 290.333,193.167 291,188.5C 292.045,187.627 292.878,186.627 293.5,185.5 Z"/></g>
<g><path style="opacity:1" fill="#050404" d="M 245.5,229.5 C 252.175,229.334 258.842,229.5 265.5,230C 268.394,232.909 269.227,236.409 268,240.5C 265.958,242.604 263.458,243.771 260.5,244C 255.428,244.751 250.428,244.418 245.5,243C 241.541,238.501 241.541,234.001 245.5,229.5 Z"/></g>
<g><path style="opacity:1" fill="#060404" d="M 239.5,255.5 C 244.644,256.269 249.811,256.935 255,257.5C 260.488,256.553 265.988,256.053 271.5,256C 275.212,258.513 276.378,262.013 275,266.5C 272.97,268.737 270.47,270.237 267.5,271C 259.479,272.849 251.479,272.849 243.5,271C 236.904,269.751 234.404,265.917 236,259.5C 236.69,257.65 237.856,256.316 239.5,255.5 Z"/></g>
<g><path style="opacity:1" fill="#fdccbd" d="M 255.5,319.5 C 254.308,330.291 258.641,337.791 268.5,342C 274.157,342.499 279.824,342.666 285.5,342.5C 293.581,349.026 302.915,351.86 313.5,351C 279.167,365.333 244.833,379.667 210.5,394C 207.173,396.133 204.006,395.966 201,393.5C 192.912,379.652 184.078,366.318 174.5,353.5C 177.367,352.226 180.367,351.393 183.5,351C 192.833,350.667 202.167,350.333 211.5,350C 227.411,345.027 234.411,334.194 232.5,317.5C 240.087,318.981 247.753,319.648 255.5,319.5 Z"/></g>
<g><path style="opacity:1" fill="#fbad9b" d="M 285.5,342.5 C 279.824,342.666 274.157,342.499 268.5,342C 258.641,337.791 254.308,330.291 255.5,319.5C 263.239,319.55 270.905,318.883 278.5,317.5C 276.762,327.066 279.096,335.4 285.5,342.5 Z"/></g>
<g><path style="opacity:1" fill="#e9f0f1" d="M 147.5,346.5 C 161.536,360.395 173.536,375.895 183.5,393C 182.407,394.365 181.074,394.699 179.5,394C 168.749,383.911 157.416,374.578 145.5,366C 137.839,365.33 134.673,368.83 136,376.5C 147.127,385.291 157.96,394.458 168.5,404C 164.828,408.513 162.662,413.68 162,419.5C 142.631,410.232 123.465,400.566 104.5,390.5C 114.163,371.172 128.496,356.505 147.5,346.5 Z"/></g>
<g><path style="opacity:1" fill="#dceaef" d="M 400.5,386.5 C 402.698,392.426 404.698,398.426 406.5,404.5C 403.401,406.275 401.401,408.942 400.5,412.5C 406.916,440.136 409.249,468.136 407.5,496.5C 400.167,496.5 392.833,496.5 385.5,496.5C 387.266,459.886 382.433,424.219 371,389.5C 365.763,376.18 357.93,364.68 347.5,355C 346.552,354.517 345.552,354.351 344.5,354.5C 347.136,352.696 350.136,351.696 353.5,351.5C 364.659,354.337 373.826,360.337 381,369.5C 384.444,375.276 388.277,380.776 392.5,386C 395.146,386.497 397.813,386.664 400.5,386.5 Z"/></g>
<g><path style="opacity:1" fill="#ecf3f4" d="M 344.5,354.5 C 345.552,354.351 346.552,354.517 347.5,355C 357.93,364.68 365.763,376.18 371,389.5C 382.433,424.219 387.266,459.886 385.5,496.5C 315.833,496.5 246.167,496.5 176.5,496.5C 178.057,480.825 179.723,465.159 181.5,449.5C 191.367,452.9 200.701,451.566 209.5,445.5C 237.438,461.653 267.438,468.486 299.5,466C 303.957,460.865 303.29,456.532 297.5,453C 269.748,453.562 243.748,447.228 219.5,434C 265.778,427.513 310.778,415.847 354.5,399C 357.792,396.588 358.959,393.421 358,389.5C 355.045,385.723 351.212,384.557 346.5,386C 305.913,402.151 263.913,412.651 220.5,417.5C 219.699,413.765 218.699,410.099 217.5,406.5C 259.937,389.449 302.27,372.116 344.5,354.5 Z"/></g>
<g><path style="opacity:1" fill="#facd59" d="M 187.5,407.5 C 203.332,408.146 208.499,415.813 203,430.5C 195.3,438.413 187.633,438.413 180,430.5C 174.742,420.166 177.242,412.499 187.5,407.5 Z"/></g>
<g><path style="opacity:1" fill="#fbcabc" d="M 114.5,413.5 C 132.653,421.493 150.486,430.16 168,439.5C 165.921,458.468 163.754,477.468 161.5,496.5C 145.486,496.833 129.486,496.499 113.5,495.5C 112.843,483.711 112.51,471.877 112.5,460C 112.283,444.441 112.95,428.941 114.5,413.5 Z"/></g>
</svg>
