<?xml version="1.0" encoding="UTF-8"?>
<!DOCTYPE svg PUBLIC "-//W3C//DTD SVG 1.1//EN" "http://www.w3.org/Graphics/SVG/1.1/DTD/svg11.dtd">
<svg xmlns="http://www.w3.org/2000/svg" version="1.1" width="512px" height="512px" style="shape-rendering:geometricPrecision; text-rendering:geometricPrecision; image-rendering:optimizeQuality; fill-rule:evenodd; clip-rule:evenodd" xmlns:xlink="http://www.w3.org/1999/xlink">
<g><path style="opacity:0.981" fill="#010000" d="M 55.5,-0.5 C 71.5,-0.5 87.5,-0.5 103.5,-0.5C 107.56,1.29652 111.06,3.96319 114,7.5C 118.273,15.7116 122.273,24.0449 126,32.5C 126.667,35.8333 126.667,39.1667 126,42.5C 123.264,49.54 120.431,56.54 117.5,63.5C 118.257,66.4263 120.09,68.093 123,68.5C 139.664,61.5854 156.164,54.2521 172.5,46.5C 177.618,33.984 182.452,21.3174 187,8.5C 190.045,4.40566 193.878,1.40566 198.5,-0.5C 284.167,-0.5 369.833,-0.5 455.5,-0.5C 485.833,6.5 504.5,25.1667 511.5,55.5C 511.5,188.833 511.5,322.167 511.5,455.5C 504.5,485.833 485.833,504.5 455.5,511.5C 435.833,511.5 416.167,511.5 396.5,511.5C 383.923,503.611 372.09,494.611 361,484.5C 358.167,478.833 355.333,473.167 352.5,467.5C 350.999,466.248 349.332,465.248 347.5,464.5C 339.083,469.124 330.916,474.124 323,479.5C 321.155,486.545 319.155,493.545 317,500.5C 313.876,505.464 309.709,509.13 304.5,511.5C 221.5,511.5 138.5,511.5 55.5,511.5C 25.1667,504.5 6.5,485.833 -0.5,455.5C -0.5,443.167 -0.5,430.833 -0.5,418.5C 2.31434,412.187 6.98101,407.687 13.5,405C 28.8107,402.836 44.144,400.836 59.5,399C 61.6079,398.64 63.6079,397.973 65.5,397C 73.6667,389.5 81.8333,382 90,374.5C 91.0405,371.364 90.2072,368.864 87.5,367C 80.1856,368.335 73.1856,367.335 66.5,364C 58.1667,355.667 49.8333,347.333 41.5,339C 30.7679,336.587 20.1013,333.92 9.5,331C 4.83658,327.809 1.50325,323.642 -0.5,318.5C -0.5,252.5 -0.5,186.5 -0.5,120.5C 1.39043,118.422 3.72376,117.089 6.5,116.5C 9.33012,117.51 11.8301,119.177 14,121.5C 14.3333,185.833 14.6667,250.167 15,314.5C 15.5,316.333 16.6667,317.5 18.5,318C 28.609,319.954 38.609,322.288 48.5,325C 57.8036,333.303 66.8036,341.969 75.5,351C 87.5283,349 97.0283,352.834 104,362.5C 107.501,369.664 107.168,376.664 103,383.5C 93.1319,393.037 82.9652,402.203 72.5,411C 69.9109,412.197 67.2442,413.197 64.5,414C 48.7858,415.701 33.1192,417.701 17.5,420C 16.6667,420.833 15.8333,421.667 15,422.5C 13.3662,437.151 14.6995,451.484 19,465.5C 27.3212,482.481 40.8212,492.648 59.5,496C 125.166,496.5 190.832,496.667 256.5,496.5C 271.17,496.667 285.837,496.5 300.5,496C 301.333,495.167 302.167,494.333 303,493.5C 304.667,487.167 306.333,480.833 308,474.5C 309.561,471.217 311.727,468.383 314.5,466C 322.333,461.584 330,456.918 337.5,452C 349.056,446.806 358.556,449.306 366,459.5C 368.667,464.833 371.333,470.167 374,475.5C 382.743,482.454 391.576,489.288 400.5,496C 418.872,496.918 437.205,496.584 455.5,495C 478.728,489.06 492.228,474.226 496,450.5C 496.667,319.833 496.667,189.167 496,58.5C 490.61,33.7763 475.443,19.2763 450.5,15C 386.501,14.5 322.501,14.3333 258.5,14.5C 239.83,14.3334 221.164,14.5001 202.5,15C 201.333,16.1667 200.167,17.3333 199,18.5C 195.465,28.7715 192.132,39.1048 189,49.5C 187.561,52.6026 185.727,55.4359 183.5,58C 169.107,65.5294 154.44,72.5294 139.5,79C 134.119,81.7382 128.452,83.5716 122.5,84.5C 107.694,81.5697 101.194,72.5697 103,57.5C 105.932,50.8686 108.766,44.2019 111.5,37.5C 108.49,29.979 104.823,22.8123 100.5,16C 93.4341,14.8676 86.2674,14.3676 79,14.5C 50.8128,11.4206 30.4795,22.4206 18,47.5C 16.3844,51.3466 15.3844,55.3466 15,59.5C 14.6667,70.1667 14.3333,80.8333 14,91.5C 13.1365,95.5181 10.6365,97.5181 6.5,97.5C 3.34772,97.4287 1.01439,96.0954 -0.5,93.5C -0.5,80.8333 -0.5,68.1667 -0.5,55.5C 6.5,25.1667 25.1667,6.5 55.5,-0.5 Z"/></g>
<g><path style="opacity:1" fill="#f7e968" d="M 258.5,14.5 C 238.138,36.1897 220.471,59.8563 205.5,85.5C 152.101,92.5636 104.434,112.73 62.5,146C 55.5934,152.236 49.4267,159.069 44,166.5C 40.9928,179.145 45.1595,188.645 56.5,195C 63.8132,197.435 70.8132,196.769 77.5,193C 106.25,164.286 140.584,145.452 180.5,136.5C 176.428,149.048 172.762,161.715 169.5,174.5C 142.194,185.398 118.36,201.398 98,222.5C 91.4566,230.25 86.4566,238.917 83,248.5C 81.7397,263.051 86.2397,275.551 96.5,286C 99.592,286.736 102.592,286.569 105.5,285.5C 110.167,290.167 114.833,294.833 119.5,299.5C 118.12,302.625 118.453,305.625 120.5,308.5C 137.19,321.348 155.523,331.348 175.5,338.5C 189.091,383.011 208.591,424.677 234,463.5C 241.747,474.399 249.247,485.399 256.5,496.5C 190.832,496.667 125.166,496.5 59.5,496C 40.8212,492.648 27.3212,482.481 19,465.5C 14.6995,451.484 13.3662,437.151 15,422.5C 15.8333,421.667 16.6667,420.833 17.5,420C 33.1192,417.701 48.7858,415.701 64.5,414C 67.2442,413.197 69.9109,412.197 72.5,411C 82.9652,402.203 93.1319,393.037 103,383.5C 107.168,376.664 107.501,369.664 104,362.5C 97.0283,352.834 87.5283,349 75.5,351C 66.8036,341.969 57.8036,333.303 48.5,325C 38.609,322.288 28.609,319.954 18.5,318C 16.6667,317.5 15.5,316.333 15,314.5C 14.6667,250.167 14.3333,185.833 14,121.5C 11.8301,119.177 9.33012,117.51 6.5,116.5C 6.5,110.167 6.5,103.833 6.5,97.5C 10.6365,97.5181 13.1365,95.5181 14,91.5C 14.3333,80.8333 14.6667,70.1667 15,59.5C 15.3844,55.3466 16.3844,51.3466 18,47.5C 30.4795,22.4206 50.8128,11.4206 79,14.5C 86.2674,14.3676 93.4341,14.8676 100.5,16C 104.823,22.8123 108.49,29.979 111.5,37.5C 108.766,44.2019 105.932,50.8686 103,57.5C 101.194,72.5697 107.694,81.5697 122.5,84.5C 128.452,83.5716 134.119,81.7382 139.5,79C 154.44,72.5294 169.107,65.5294 183.5,58C 185.727,55.4359 187.561,52.6026 189,49.5C 192.132,39.1048 195.465,28.7715 199,18.5C 200.167,17.3333 201.333,16.1667 202.5,15C 221.164,14.5001 239.83,14.3334 258.5,14.5 Z"/></g>
<g><path style="opacity:1" fill="#fbf4ae" d="M 258.5,14.5 C 322.501,14.3333 386.501,14.5 450.5,15C 475.443,19.2763 490.61,33.7763 496,58.5C 496.667,189.167 496.667,319.833 496,450.5C 492.228,474.226 478.728,489.06 455.5,495C 437.205,496.584 418.872,496.918 400.5,496C 391.576,489.288 382.743,482.454 374,475.5C 371.333,470.167 368.667,464.833 366,459.5C 358.556,449.306 349.056,446.806 337.5,452C 330,456.918 322.333,461.584 314.5,466C 311.727,468.383 309.561,471.217 308,474.5C 306.333,480.833 304.667,487.167 303,493.5C 302.167,494.333 301.333,495.167 300.5,496C 285.837,496.5 271.17,496.667 256.5,496.5C 249.247,485.399 241.747,474.399 234,463.5C 208.591,424.677 189.091,383.011 175.5,338.5C 193.79,345.822 212.79,350.155 232.5,351.5C 232.048,371.887 232.548,392.221 234,412.5C 241.612,428.926 253.445,432.759 269.5,424C 272.883,420.731 275.383,416.897 277,412.5C 278.452,392.221 278.952,371.887 278.5,351.5C 282.106,351.211 285.606,351.544 289,352.5C 299.081,370.331 309.414,387.998 320,405.5C 345.573,432.243 374.073,435.743 405.5,416C 422.196,402.1 429.696,384.267 428,362.5C 422.671,349.083 412.838,343.916 398.5,347C 387.868,352.086 382.701,360.586 383,372.5C 379.603,381.532 373.103,385.032 363.5,383C 359.658,381.332 356.491,378.832 354,375.5C 347.42,363.337 340.586,351.337 333.5,339.5C 364.223,328.063 391.057,310.73 414,287.5C 420.375,279.781 425.042,271.115 428,261.5C 429.667,252.502 428,244.169 423,236.5C 411.075,218.575 395.909,204.075 377.5,193C 311.078,153.712 241.745,147.545 169.5,174.5C 172.762,161.715 176.428,149.048 180.5,136.5C 246.95,120.705 311.784,125.705 375,151.5C 377.542,150.795 379.708,149.461 381.5,147.5C 386.265,149.382 390.932,151.548 395.5,154C 397.063,154.759 398.063,155.926 398.5,157.5C 398.154,160.602 398.821,163.435 400.5,166C 412.662,173.487 423.662,182.487 433.5,193C 450.693,200.486 462.193,195.32 468,177.5C 469.033,172.106 468.033,167.106 465,162.5C 439.293,135.49 408.793,115.656 373.5,103C 318.879,83.9045 262.879,78.0712 205.5,85.5C 220.471,59.8563 238.138,36.1897 258.5,14.5 Z"/></g>
<g><path style="opacity:1" fill="#040403" d="M 398.5,157.5 C 401.86,152.08 406.194,151.246 411.5,155C 422.711,162.538 433.045,171.205 442.5,181C 449.679,182.476 453.179,179.643 453,172.5C 439.244,157.074 423.41,144.241 405.5,134C 350.608,105.697 292.274,93.6971 230.5,98C 218.702,98.8101 207.036,100.31 195.5,102.5C 149.588,109.956 108.588,128.123 72.5,157C 67.3,161.865 62.4666,167.032 58,172.5C 57.8689,179.696 61.3689,182.529 68.5,181C 92.3401,157.202 120.34,139.869 152.5,129C 164.827,125.006 177.16,121.506 189.5,118.5C 250.543,106.726 310.209,111.559 368.5,133C 373.029,134.514 377.195,136.681 381,139.5C 382.696,142.119 382.863,144.786 381.5,147.5C 379.708,149.461 377.542,150.795 375,151.5C 311.784,125.705 246.95,120.705 180.5,136.5C 140.584,145.452 106.25,164.286 77.5,193C 70.8132,196.769 63.8132,197.435 56.5,195C 45.1595,188.645 40.9928,179.145 44,166.5C 49.4267,159.069 55.5934,152.236 62.5,146C 104.434,112.73 152.101,92.5636 205.5,85.5C 262.879,78.0712 318.879,83.9045 373.5,103C 408.793,115.656 439.293,135.49 465,162.5C 468.033,167.106 469.033,172.106 468,177.5C 462.193,195.32 450.693,200.486 433.5,193C 423.662,182.487 412.662,173.487 400.5,166C 398.821,163.435 398.154,160.602 398.5,157.5 Z"/></g>
<g><path style="opacity:1" fill="#a4aab7" d="M 398.5,157.5 C 398.063,155.926 397.063,154.759 395.5,154C 390.932,151.548 386.265,149.382 381.5,147.5C 382.863,144.786 382.696,142.119 381,139.5C 377.195,136.681 373.029,134.514 368.5,133C 310.209,111.559 250.543,106.726 189.5,118.5C 189.062,118.565 188.728,118.399 188.5,118C 190.974,112.886 193.307,107.72 195.5,102.5C 207.036,100.31 218.702,98.8101 230.5,98C 292.274,93.6971 350.608,105.697 405.5,134C 423.41,144.241 439.244,157.074 453,172.5C 453.179,179.643 449.679,182.476 442.5,181C 433.045,171.205 422.711,162.538 411.5,155C 406.194,151.246 401.86,152.08 398.5,157.5 Z"/></g>
<g><path style="opacity:1" fill="#868ea3" d="M 195.5,102.5 C 193.307,107.72 190.974,112.886 188.5,118C 188.728,118.399 189.062,118.565 189.5,118.5C 177.16,121.506 164.827,125.006 152.5,129C 120.34,139.869 92.3401,157.202 68.5,181C 61.3689,182.529 57.8689,179.696 58,172.5C 62.4666,167.032 67.3,161.865 72.5,157C 108.588,128.123 149.588,109.956 195.5,102.5 Z"/></g>
<g><path style="opacity:1" fill="#050403" d="M 175.5,338.5 C 155.523,331.348 137.19,321.348 120.5,308.5C 118.453,305.625 118.12,302.625 119.5,299.5C 122.246,296.695 125.579,295.861 129.5,297C 142.248,306.376 155.915,314.209 170.5,320.5C 193.547,330.124 217.547,335.958 242.5,338C 244.286,338.785 245.786,339.951 247,341.5C 247.333,363.5 247.667,385.5 248,407.5C 250.477,413.45 254.643,414.95 260.5,412C 261.46,410.581 262.293,409.081 263,407.5C 263.333,385.5 263.667,363.5 264,341.5C 265.214,339.951 266.714,338.785 268.5,338C 275.888,337.607 283.221,336.773 290.5,335.5C 294.281,334.827 297.114,336.161 299,339.5C 308.667,356.5 318.333,373.5 328,390.5C 346.005,415.602 368.505,420.435 395.5,405C 409.279,394.299 414.779,380.466 412,363.5C 408.201,360.867 404.367,360.867 400.5,363.5C 398.773,369.024 397.273,374.691 396,380.5C 388.7,394.401 377.2,400.234 361.5,398C 355.266,396.097 349.766,392.93 345,388.5C 334.312,371.122 324.145,353.456 314.5,335.5C 314.94,332.786 316.274,330.62 318.5,329C 342.707,320.762 365.041,309.095 385.5,294C 396.906,285.6 405.739,275.1 412,262.5C 414.169,256.686 413.835,251.019 411,245.5C 402.211,231.711 391.044,220.211 377.5,211C 320.307,173.307 258.64,163.64 192.5,182C 183.524,184.823 174.858,188.323 166.5,192.5C 140.059,203.631 118.225,220.631 101,243.5C 97.8384,248.777 96.8384,254.443 98,260.5C 100.577,266.66 103.91,272.327 108,277.5C 108.612,280.611 107.779,283.277 105.5,285.5C 102.592,286.569 99.592,286.736 96.5,286C 86.2397,275.551 81.7397,263.051 83,248.5C 86.4566,238.917 91.4566,230.25 98,222.5C 118.36,201.398 142.194,185.398 169.5,174.5C 241.745,147.545 311.078,153.712 377.5,193C 395.909,204.075 411.075,218.575 423,236.5C 428,244.169 429.667,252.502 428,261.5C 425.042,271.115 420.375,279.781 414,287.5C 391.057,310.73 364.223,328.063 333.5,339.5C 340.586,351.337 347.42,363.337 354,375.5C 356.491,378.832 359.658,381.332 363.5,383C 373.103,385.032 379.603,381.532 383,372.5C 382.701,360.586 387.868,352.086 398.5,347C 412.838,343.916 422.671,349.083 428,362.5C 429.696,384.267 422.196,402.1 405.5,416C 374.073,435.743 345.573,432.243 320,405.5C 309.414,387.998 299.081,370.331 289,352.5C 285.606,351.544 282.106,351.211 278.5,351.5C 278.952,371.887 278.452,392.221 277,412.5C 275.383,416.897 272.883,420.731 269.5,424C 253.445,432.759 241.612,428.926 234,412.5C 232.548,392.221 232.048,371.887 232.5,351.5C 212.79,350.155 193.79,345.822 175.5,338.5 Z"/></g>
<g><path style="opacity:1" fill="#a4aab8" d="M 170.5,320.5 C 169.503,315.852 168.503,311.185 167.5,306.5C 167.543,305.584 167.876,304.917 168.5,304.5C 176.298,307.766 184.298,310.433 192.5,312.5C 205.114,310.737 209.948,303.737 207,291.5C 191.703,267.195 191.703,242.862 207,218.5C 209.575,210.79 207.408,204.623 200.5,200C 194.37,197.849 188.37,198.182 182.5,201C 176.435,203.409 170.435,205.909 164.5,208.5C 163.921,203.193 164.588,197.859 166.5,192.5C 174.858,188.323 183.524,184.823 192.5,182C 258.64,163.64 320.307,173.307 377.5,211C 391.044,220.211 402.211,231.711 411,245.5C 413.835,251.019 414.169,256.686 412,262.5C 405.739,275.1 396.906,285.6 385.5,294C 365.041,309.095 342.707,320.762 318.5,329C 316.274,330.62 314.94,332.786 314.5,335.5C 324.145,353.456 334.312,371.122 345,388.5C 349.766,392.93 355.266,396.097 361.5,398C 377.2,400.234 388.7,394.401 396,380.5C 397.273,374.691 398.773,369.024 400.5,363.5C 404.367,360.867 408.201,360.867 412,363.5C 414.779,380.466 409.279,394.299 395.5,405C 368.505,420.435 346.005,415.602 328,390.5C 318.333,373.5 308.667,356.5 299,339.5C 297.114,336.161 294.281,334.827 290.5,335.5C 283.221,336.773 275.888,337.607 268.5,338C 266.714,338.785 265.214,339.951 264,341.5C 263.667,363.5 263.333,385.5 263,407.5C 262.293,409.081 261.46,410.581 260.5,412C 254.643,414.95 250.477,413.45 248,407.5C 247.667,385.5 247.333,363.5 247,341.5C 245.786,339.951 244.286,338.785 242.5,338C 217.547,335.958 193.547,330.124 170.5,320.5 Z"/></g>
<g><path style="opacity:1" fill="#868ea3" d="M 166.5,192.5 C 164.588,197.859 163.921,203.193 164.5,208.5C 150.933,215.227 138.266,223.394 126.5,233C 119.325,238.821 114.658,246.155 112.5,255C 114.245,264.419 118.912,272.086 126.5,278C 139.383,288.608 153.383,297.441 168.5,304.5C 167.876,304.917 167.543,305.584 167.5,306.5C 168.503,311.185 169.503,315.852 170.5,320.5C 155.915,314.209 142.248,306.376 129.5,297C 125.579,295.861 122.246,296.695 119.5,299.5C 114.833,294.833 110.167,290.167 105.5,285.5C 107.779,283.277 108.612,280.611 108,277.5C 103.91,272.327 100.577,266.66 98,260.5C 96.8384,254.443 97.8384,248.777 101,243.5C 118.225,220.631 140.059,203.631 166.5,192.5 Z"/></g>
<g><path style="opacity:1" fill="#040403" d="M 168.5,304.5 C 153.383,297.441 139.383,288.608 126.5,278C 118.912,272.086 114.245,264.419 112.5,255C 114.658,246.155 119.325,238.821 126.5,233C 138.266,223.394 150.933,215.227 164.5,208.5C 170.435,205.909 176.435,203.409 182.5,201C 188.37,198.182 194.37,197.849 200.5,200C 207.408,204.623 209.575,210.79 207,218.5C 191.703,242.862 191.703,267.195 207,291.5C 209.948,303.737 205.114,310.737 192.5,312.5C 184.298,310.433 176.298,307.766 168.5,304.5 Z"/></g>
<g><path style="opacity:1" fill="#040403" d="M 312.5,198.5 C 342.246,204.289 368.079,217.623 390,238.5C 394.306,243.279 397.139,248.779 398.5,255C 396.755,264.419 392.088,272.086 384.5,278C 364.575,294.38 342.075,305.88 317,312.5C 305.295,310.093 300.961,303.093 304,291.5C 319.297,267.195 319.297,242.862 304,218.5C 301.81,213.972 302.144,209.639 305,205.5C 307.396,202.933 309.896,200.6 312.5,198.5 Z"/></g>
<g><path style="opacity:1" fill="#030303" d="M 246.5,210.5 C 271.806,208.562 289.306,219.229 299,242.5C 304.158,268.688 294.658,287.188 270.5,298C 243.605,304.801 224.438,295.634 213,270.5C 206.481,240.54 217.648,220.54 246.5,210.5 Z"/></g>
<g><path style="opacity:1" fill="#f8f1ac" d="M 163.5,284.5 C 162.101,265.531 161.434,246.531 161.5,227.5C 171.142,222.275 181.142,217.609 191.5,213.5C 191.833,213.833 192.167,214.167 192.5,214.5C 180.216,233.695 177.049,254.362 183,276.5C 185.364,283.561 188.531,290.228 192.5,296.5C 192.167,296.833 191.833,297.167 191.5,297.5C 181.836,293.665 172.502,289.332 163.5,284.5 Z"/></g>
<g><path style="opacity:1" fill="#f8f1ac" d="M 318.5,213.5 C 339.314,220.836 358.314,231.336 375.5,245C 379.028,247.912 381.695,251.412 383.5,255.5C 381.695,259.588 379.028,263.088 375.5,266C 358.349,280.069 339.349,290.235 318.5,296.5C 330.722,277.282 333.888,256.615 328,234.5C 325.353,227.21 322.186,220.21 318.5,213.5 Z"/></g>
<g><path style="opacity:1" fill="#f9f2ad" d="M 248.5,225.5 C 266.772,223.709 278.939,231.375 285,248.5C 287.294,266.752 279.794,278.919 262.5,285C 244.285,287.309 232.118,279.809 226,262.5C 223.829,244.16 231.329,231.827 248.5,225.5 Z"/></g>
<g><path style="opacity:1" fill="#f4e768" d="M 161.5,227.5 C 161.434,246.531 162.101,265.531 163.5,284.5C 151.379,278.686 140.546,271.02 131,261.5C 129.596,259.606 128.43,257.606 127.5,255.5C 130.898,249.264 135.565,244.098 141.5,240C 147.785,235.213 154.452,231.046 161.5,227.5 Z"/></g>
</svg>
