<?xml version="1.0" encoding="UTF-8"?>
<!DOCTYPE svg PUBLIC "-//W3C//DTD SVG 1.1//EN" "http://www.w3.org/Graphics/SVG/1.1/DTD/svg11.dtd">
<svg xmlns="http://www.w3.org/2000/svg" version="1.1" width="100px" height="100px" style="shape-rendering:geometricPrecision; text-rendering:geometricPrecision; image-rendering:optimizeQuality; fill-rule:evenodd; clip-rule:evenodd" xmlns:xlink="http://www.w3.org/1999/xlink">
<g><path style="opacity:0.951" fill="#484c54" d="M 80.5,23.5 C 76.9909,23.1921 75.3243,21.1921 75.5,17.5C 76.6872,14.0196 77.1872,10.353 77,6.5C 74.9373,8.73411 72.7706,10.7341 70.5,12.5C 61.5133,11.6147 52.5133,11.4481 43.5,12C 36.2013,14.1604 28.868,15.9937 21.5,17.5C 19.2294,15.7341 17.0627,13.7341 15,11.5C 15.365,14.7938 15.865,18.1272 16.5,21.5C 15.7505,25.7607 14.2505,29.7607 12,33.5C 11.1776,39.1204 11.6776,44.6204 13.5,50C 13.0217,51.3026 12.355,52.4693 11.5,53.5C 9.98261,53.4894 8.81595,52.8228 8,51.5C 5.20875,40.9693 6.37542,30.9693 11.5,21.5C 6.71238,4.10883 11.2124,1.10883 25,12.5C 39.3555,6.8319 54.1888,4.99857 69.5,7C 71.1667,5.33333 72.8333,3.66667 74.5,2C 80.5369,-0.136531 83.2036,1.86347 82.5,8C 82.1851,13.3582 81.5184,18.5248 80.5,23.5 Z"/></g>
<g><path style="opacity:1" fill="#f2ecec" d="M 75.5,17.5 C 74.1394,15.4727 72.4727,13.806 70.5,12.5C 72.7706,10.7341 74.9373,8.73411 77,6.5C 77.1872,10.353 76.6872,14.0196 75.5,17.5 Z"/></g>
<g><path style="opacity:0.999" fill="#f45342" d="M 70.5,12.5 C 72.4727,13.806 74.1394,15.4727 75.5,17.5C 75.3243,21.1921 76.9909,23.1921 80.5,23.5C 81.2653,26.0961 81.5987,28.7628 81.5,31.5C 69.9324,34.1409 58.2658,36.9742 46.5,40C 41.1965,41.2085 36.3631,43.3751 32,46.5C 30.8279,51.4591 31.9946,55.7925 35.5,59.5C 37.1673,60.6664 38.834,60.6664 40.5,59.5C 56.1069,56.4319 71.4403,52.4319 86.5,47.5C 87.1667,47.8333 87.8333,48.1667 88.5,48.5C 88.5751,51.2062 88.9084,53.8728 89.5,56.5C 88.5041,56.4142 87.6708,56.7476 87,57.5C 86.7772,64.2864 85.7772,70.9531 84,77.5C 83.1515,80.6978 81.6515,83.5311 79.5,86C 67.2668,92.976 54.2668,95.3093 40.5,93C 32.1084,88.9415 26.1084,82.6081 22.5,74C 20.4731,73.5022 18.4731,73.6689 16.5,74.5C 11.622,73.4169 9.78872,70.4169 11,65.5C 11.6667,63.5 13,62.1667 15,61.5C 15.49,60.2068 15.6567,58.8734 15.5,57.5C 14.5,57.5 13.5,57.5 12.5,57.5C 11.7659,56.2921 11.4326,54.9587 11.5,53.5C 12.355,52.4693 13.0217,51.3026 13.5,50C 11.6776,44.6204 11.1776,39.1204 12,33.5C 14.2505,29.7607 15.7505,25.7607 16.5,21.5C 18.754,20.8763 20.4206,19.543 21.5,17.5C 28.868,15.9937 36.2013,14.1604 43.5,12C 52.5133,11.4481 61.5133,11.6147 70.5,12.5 Z"/></g>
<g><path style="opacity:1" fill="#f6f1f1" d="M 21.5,17.5 C 20.4206,19.543 18.754,20.8763 16.5,21.5C 15.865,18.1272 15.365,14.7938 15,11.5C 17.0627,13.7341 19.2294,15.7341 21.5,17.5 Z"/></g>
<g><path style="opacity:1" fill="#5e4c51" d="M 60.5,15.5 C 61.9953,15.4148 62.9953,16.0815 63.5,17.5C 62.1667,18.8333 60.8333,18.8333 59.5,17.5C 59.8627,16.8165 60.1961,16.1499 60.5,15.5 Z"/></g>
<g><path style="opacity:1" fill="#654d51" d="M 38.5,20.5 C 39.8333,20.5 41.1667,20.5 42.5,20.5C 42.5,21.5 42.5,22.5 42.5,23.5C 41.1667,23.5 39.8333,23.5 38.5,23.5C 38.5,22.5 38.5,21.5 38.5,20.5 Z"/></g>
<g><path style="opacity:1" fill="#5a4c51" d="M 48.5,22.5 C 53.8333,23.5 53.8333,24.5 48.5,25.5C 48.5,24.5 48.5,23.5 48.5,22.5 Z"/></g>
<g><path style="opacity:1" fill="#4f4b52" d="M 69.5,22.5 C 70.5,22.5 71.5,22.5 72.5,22.5C 72.5,23.5 72.5,24.5 72.5,25.5C 71.5,25.5 70.5,25.5 69.5,25.5C 69.5,24.5 69.5,23.5 69.5,22.5 Z"/></g>
<g><path style="opacity:1" fill="#4b4b53" d="M 28.5,27.5 C 33.8333,28.5 33.8333,29.5 28.5,30.5C 28.5,29.5 28.5,28.5 28.5,27.5 Z"/></g>
<g><path style="opacity:1" fill="#4f4b52" d="M 56.5,27.5 C 57.5,27.5 58.5,27.5 59.5,27.5C 59.5,28.5 59.5,29.5 59.5,30.5C 58.5,30.5 57.5,30.5 56.5,30.5C 56.5,29.5 56.5,28.5 56.5,27.5 Z"/></g>
<g><path style="opacity:1" fill="#4c4b53" d="M 42.5,31.5 C 43.5,31.5 44.5,31.5 45.5,31.5C 44.7542,35.31 43.7542,35.31 42.5,31.5 Z"/></g>
<g><path style="opacity:0.987" fill="#4c4d55" d="M 81.5,31.5 C 88.5852,30.9522 91.5852,34.2856 90.5,41.5C 90.3566,44.1134 89.6899,46.4467 88.5,48.5C 87.8333,48.1667 87.1667,47.8333 86.5,47.5C 85.5773,43.9359 85.244,40.2693 85.5,36.5C 69.1393,38.7567 53.1393,42.59 37.5,48C 36.4464,49.3876 36.2797,50.8876 37,52.5C 38.1932,54.8864 39.3599,57.2198 40.5,59.5C 38.834,60.6664 37.1673,60.6664 35.5,59.5C 31.9946,55.7925 30.8279,51.4591 32,46.5C 36.3631,43.3751 41.1965,41.2085 46.5,40C 58.2658,36.9742 69.9324,34.1409 81.5,31.5 Z"/></g>
<g><path style="opacity:1" fill="#faf4e8" d="M 86.5,47.5 C 71.4403,52.4319 56.1069,56.4319 40.5,59.5C 39.3599,57.2198 38.1932,54.8864 37,52.5C 36.2797,50.8876 36.4464,49.3876 37.5,48C 53.1393,42.59 69.1393,38.7567 85.5,36.5C 85.244,40.2693 85.5773,43.9359 86.5,47.5 Z"/></g>
<g><path style="opacity:1" fill="#4e4b53" d="M 63.5,56.5 C 69.0984,57.4903 70.9317,60.8236 69,66.5C 63.5651,69.2291 62.3984,67.8958 65.5,62.5C 63.9137,60.8273 63.2471,58.8273 63.5,56.5 Z"/></g>
<g><path style="opacity:0.953" fill="#474b53" d="M 89.5,56.5 C 92.3872,66.6794 91.2205,76.6794 86,86.5C 83.7357,89.4335 80.9024,91.6001 77.5,93C 69.9147,95.9236 62.248,98.0902 54.5,99.5C 51.1667,99.5 47.8333,99.5 44.5,99.5C 32.9175,97.3531 24.5842,90.8531 19.5,80C 8.72375,79.562 4.22375,74.062 6,63.5C 7.40552,60.5914 9.57219,58.5914 12.5,57.5C 13.5,57.5 14.5,57.5 15.5,57.5C 15.6567,58.8734 15.49,60.2068 15,61.5C 13,62.1667 11.6667,63.5 11,65.5C 9.78872,70.4169 11.622,73.4169 16.5,74.5C 18.4731,73.6689 20.4731,73.5022 22.5,74C 26.1084,82.6081 32.1084,88.9415 40.5,93C 54.2668,95.3093 67.2668,92.976 79.5,86C 81.6515,83.5311 83.1515,80.6978 84,77.5C 85.7772,70.9531 86.7772,64.2864 87,57.5C 87.6708,56.7476 88.5041,56.4142 89.5,56.5 Z"/></g>
<g><path style="opacity:1" fill="#ffefe2" d="M 78.5,71.5 C 80.3464,71.2222 81.6798,71.8888 82.5,73.5C 78.9806,78.4318 74.3139,80.2652 68.5,79C 63.9969,83.8757 58.8302,84.709 53,81.5C 51.2806,83.5571 49.2806,85.2237 47,86.5C 45.7202,86.3865 44.8869,85.7199 44.5,84.5C 45.93,81.5673 47.93,79.0673 50.5,77C 54.3034,78.1552 58.3034,78.4885 62.5,78C 65.3019,73.9246 68.9686,72.758 73.5,74.5C 75.3964,73.7255 77.063,72.7255 78.5,71.5 Z"/></g>
</svg>
