<?xml version="1.0" encoding="UTF-8"?>
<!DOCTYPE svg PUBLIC "-//W3C//DTD SVG 1.1//EN" "http://www.w3.org/Graphics/SVG/1.1/DTD/svg11.dtd">
<svg xmlns="http://www.w3.org/2000/svg" version="1.1" width="512px" height="512px" style="shape-rendering:geometricPrecision; text-rendering:geometricPrecision; image-rendering:optimizeQuality; fill-rule:evenodd; clip-rule:evenodd" xmlns:xlink="http://www.w3.org/1999/xlink">
<g><path style="opacity:0.977" fill="#000101" d="M 104.5,26.5 C 175.167,26.3333 245.834,26.5 316.5,27C 357.333,67.8333 398.167,108.667 439,149.5C 440.483,178.078 440.983,206.745 440.5,235.5C 455.917,232.554 468.751,236.887 479,248.5C 480.333,251.167 481.667,253.833 483,256.5C 484.155,284.94 484.655,313.44 484.5,342C 484.655,370.56 484.155,399.06 483,427.5C 478.594,438.121 470.76,444.621 459.5,447C 452.842,447.5 446.175,447.666 439.5,447.5C 436.182,466.649 425.182,478.816 406.5,484C 305.833,484.667 205.167,484.667 104.5,484C 85.348,479.192 74.348,467.025 71.5,447.5C 62.3374,448.093 53.3374,447.26 44.5,445C 36.6058,441.439 31.1058,435.605 28,427.5C 26.8453,399.06 26.3453,370.56 26.5,342C 26.3453,313.44 26.8453,284.94 28,256.5C 31.8333,247.333 38.3333,240.833 47.5,237C 55.0952,235.644 62.7618,235.144 70.5,235.5C 70.0277,176.805 70.5277,118.138 72,59.5C 76.3482,41.9858 87.1816,30.9858 104.5,26.5 Z"/></g>
<g><path style="opacity:1" fill="#61dafa" d="M 106.5,36.5 C 173.5,36.5 240.5,36.5 307.5,36.5C 307.333,63.1687 307.5,89.8354 308,116.5C 312.207,139.42 325.707,153.253 348.5,158C 375.498,158.5 402.498,158.667 429.5,158.5C 429.5,184.167 429.5,209.833 429.5,235.5C 313.5,235.5 197.5,235.5 81.5,235.5C 81.3333,177.499 81.5,119.499 82,61.5C 85.6829,48.6514 93.8496,40.3181 106.5,36.5 Z"/></g>
<g><path style="opacity:1" fill="#16abe6" d="M 317.5,43.5 C 352.632,78.1319 387.632,112.965 422.5,148C 397.5,148.667 372.5,148.667 347.5,148C 330.803,143.968 320.969,133.468 318,116.5C 317.5,92.1689 317.333,67.8356 317.5,43.5 Z"/></g>
<g><path style="opacity:1" fill="#030708" d="M 114.5,86.5 C 169.834,86.3333 225.168,86.5 280.5,87C 284.085,89.5281 284.418,92.5281 281.5,96C 225.5,96.6667 169.5,96.6667 113.5,96C 109.622,92.4474 109.955,89.2807 114.5,86.5 Z"/></g>
<g><path style="opacity:1" fill="#000000" d="M 113.5,137.5 C 169.168,137.333 224.834,137.5 280.5,138C 283.379,139.666 284.212,142.166 283,145.5C 282.25,146.126 281.416,146.626 280.5,147C 224.833,147.667 169.167,147.667 113.5,147C 109.581,143.84 109.581,140.673 113.5,137.5 Z"/></g>
<g><path style="opacity:1" fill="#050a0b" d="M 113.5,188.5 C 208.167,188.333 302.834,188.5 397.5,189C 401.483,192.408 401.15,195.408 396.5,198C 302.5,198.667 208.5,198.667 114.5,198C 109.744,195.249 109.41,192.082 113.5,188.5 Z"/></g>
<g><path style="opacity:0.999" fill="#fe9700" d="M 53.5,245.5 C 189.21,245.007 324.876,245.507 460.5,247C 467.149,250.314 471.649,255.481 474,262.5C 474.667,306.167 474.667,349.833 474,393.5C 469.326,389.247 463.826,386.747 457.5,386C 322.167,385.333 186.833,385.333 51.5,386C 46.0227,387.322 41.1894,389.822 37,393.5C 36.3333,349.833 36.3333,306.167 37,262.5C 40.0191,254.316 45.5191,248.649 53.5,245.5 Z"/></g>
<g><path style="opacity:1" fill="#060300" d="M 143.5,269.5 C 146.365,269.055 148.865,269.722 151,271.5C 158.265,283.042 165.765,294.375 173.5,305.5C 181.235,294.375 188.735,283.042 196,271.5C 199,268.833 202,268.833 205,271.5C 205.635,273.635 205.301,275.635 204,277.5C 195.584,289.997 187.417,302.663 179.5,315.5C 188.599,329.259 197.266,343.259 205.5,357.5C 203.259,362.879 200.093,363.546 196,359.5C 188.735,347.958 181.235,336.625 173.5,325.5C 165.765,336.625 158.265,347.958 151,359.5C 146.674,363.602 143.508,362.768 141.5,357C 149.953,343.044 158.62,329.211 167.5,315.5C 158.401,301.741 149.734,287.741 141.5,273.5C 141.752,271.927 142.418,270.594 143.5,269.5 Z"/></g>
<g><path style="opacity:1" fill="#020100" d="M 225.5,269.5 C 228.365,269.055 230.865,269.722 233,271.5C 240.248,284.332 247.748,296.998 255.5,309.5C 263.252,296.998 270.752,284.332 278,271.5C 281,268.833 284,268.833 287,271.5C 287.667,300.5 287.667,329.5 287,358.5C 284,363.833 281,363.833 278,358.5C 277.667,336.5 277.333,314.5 277,292.5C 271.667,301.833 266.333,311.167 261,320.5C 257.333,325.833 253.667,325.833 250,320.5C 244.667,311.167 239.333,301.833 234,292.5C 233.667,314.5 233.333,336.5 233,358.5C 231.057,362.486 228.39,363.153 225,360.5C 223.848,345.423 223.348,330.256 223.5,315C 223.667,300.5 223.833,286 224,271.5C 224.717,270.956 225.217,270.289 225.5,269.5 Z"/></g>
<g><path style="opacity:1" fill="#070300" d="M 315.5,268.5 C 317.582,268.472 319.416,269.139 321,270.5C 321.5,297.831 321.667,325.165 321.5,352.5C 338.837,352.333 356.17,352.5 373.5,353C 376.418,356.472 376.085,359.472 372.5,362C 353.5,362.667 334.5,362.667 315.5,362C 314.667,361.167 313.833,360.333 313,359.5C 312.333,330.167 312.333,300.833 313,271.5C 314.045,270.627 314.878,269.627 315.5,268.5 Z"/></g>
<g><path style="opacity:0.999" fill="#fc9600" d="M 51.5,395.5 C 58.1667,395.5 64.8333,395.5 71.5,395.5C 71.5,409.5 71.5,423.5 71.5,437.5C 64.4112,437.884 57.4112,437.384 50.5,436C 35.2773,427.647 32.4439,416.147 42,401.5C 44.8426,398.837 48.0093,396.837 51.5,395.5 Z"/></g>
<g><path style="opacity:1" fill="#61dafa" d="M 81.5,395.5 C 197.5,395.5 313.5,395.5 429.5,395.5C 429.949,414.555 429.449,433.555 428,452.5C 424.526,462.641 417.693,469.474 407.5,473C 356.536,474.155 305.536,474.655 254.5,474.5C 205.167,474.333 155.833,474.167 106.5,474C 93.2225,470.39 85.0559,461.89 82,448.5C 81.5001,430.836 81.3334,413.17 81.5,395.5 Z"/></g>
<g><path style="opacity:0.999" fill="#fc9600" d="M 439.5,395.5 C 445.842,395.334 452.175,395.5 458.5,396C 471.933,401.031 476.766,410.531 473,424.5C 469.817,431.679 464.317,435.846 456.5,437C 450.843,437.499 445.176,437.666 439.5,437.5C 439.5,423.5 439.5,409.5 439.5,395.5 Z"/></g>
</svg>
