<?xml version="1.0" encoding="UTF-8"?>
<svg version="1.1" xmlns="http://www.w3.org/2000/svg" width="512" height="512">
<path d="M0 0 C0.99261841 0.00215515 1.98523682 0.0043103 3.00793457 0.00653076 C17.83440163 0.05816285 32.35262639 0.38658718 46.9375 3.3125 C48.42540039 3.61051514 48.42540039 3.61051514 49.94335938 3.91455078 C88.96766362 12.02941778 125.43080754 27.74490085 156.9375 52.3125 C157.82179688 52.98539063 158.70609375 53.65828125 159.6171875 54.3515625 C175.20737101 66.4551235 189.81954477 80.75418497 201.9375 96.3125 C203.08412109 97.71628906 203.08412109 97.71628906 204.25390625 99.1484375 C231.2924992 132.91412821 248.48449154 174.6856642 254.9375 217.3125 C255.11482666 218.43132568 255.29215332 219.55015137 255.47485352 220.70288086 C257.15626341 232.42485947 257.29484341 244.04748976 257.25 255.875 C257.24784485 256.89540375 257.2456897 257.9158075 257.24346924 258.96713257 C257.19383352 273.59460524 256.94669712 287.94513838 253.9375 302.3125 C253.63948486 303.77478027 253.63948486 303.77478027 253.33544922 305.26660156 C243.21482806 353.6484774 221.2983123 397.63678269 186.9375 433.3125 C186.30537598 433.97185547 185.67325195 434.63121094 185.02197266 435.31054688 C175.87752521 444.79880305 166.58015991 453.5387044 155.9375 461.3125 C154.78644983 462.17056152 153.63540823 463.02863451 152.484375 463.88671875 C144.29474019 469.92427396 135.79211724 475.30707302 126.9375 480.3125 C126.23028809 480.7146875 125.52307617 481.116875 124.79443359 481.53125 C101.65904164 494.5566741 76.48787591 503.30551461 50.5 508.625 C49.78110596 508.77235596 49.06221191 508.91971191 48.3215332 509.0715332 C33.64589502 511.86090125 19.12081162 512.66142619 4.21020508 512.62817383 C1.27061513 512.6250221 -1.6679558 512.64854926 -4.60742188 512.67382812 C-17.98056192 512.71848737 -30.87666711 511.51301542 -44.0625 509.3125 C-45.76805054 509.03031616 -45.76805054 509.03031616 -47.50805664 508.74243164 C-90.77552759 500.97044532 -131.82543216 480.98345309 -165.0625 452.3125 C-165.80757813 451.67828125 -166.55265625 451.0440625 -167.3203125 450.390625 C-180.82529833 438.57948485 -193.49668743 425.82889772 -204.0625 411.3125 C-204.91899066 410.16255169 -205.77576433 409.01281411 -206.6328125 407.86328125 C-212.67284209 399.67315742 -218.05617614 391.16870382 -223.0625 382.3125 C-223.4646875 381.60528809 -223.866875 380.89807617 -224.28125 380.16943359 C-237.3066741 357.03404164 -246.05551461 331.86287591 -251.375 305.875 C-251.52235596 305.15610596 -251.66971191 304.43721191 -251.8215332 303.6965332 C-254.79539088 288.05024391 -255.43550362 272.57681954 -255.375 256.6875 C-255.37284485 255.66959381 -255.3706897 254.65168762 -255.36846924 253.60293579 C-255.31879854 238.99386477 -255.06790191 224.66174147 -252.0625 210.3125 C-251.86382324 209.33764648 -251.66514648 208.36279297 -251.46044922 207.35839844 C-241.33982806 158.9765226 -219.4233123 114.98821731 -185.0625 79.3125 C-184.43037598 78.65314453 -183.79825195 77.99378906 -183.14697266 77.31445312 C-174.00252521 67.82619695 -164.70515991 59.0862956 -154.0625 51.3125 C-152.91144983 50.45443848 -151.76040823 49.59636549 -150.609375 48.73828125 C-142.41974019 42.70072604 -133.91711724 37.31792698 -125.0625 32.3125 C-124.35528809 31.9103125 -123.64807617 31.508125 -122.91943359 31.09375 C-99.78404164 18.0683259 -74.61287591 9.31948539 -48.625 4 C-47.90610596 3.85264404 -47.18721191 3.70528809 -46.4465332 3.5534668 C-30.98940107 0.61556182 -15.69740187 -0.06136669 0 0 Z " fill="#020200" transform="translate(255.0625,-0.31250000000000006)"/>
<path d="M0 0 C2.91972551 0.75477197 5.86060962 1.4086523 8.80078125 2.07861328 C14.89621239 3.64503693 20.52982261 5.95779218 26.23828125 8.57861328 C27.49922607 9.15192383 27.49922607 9.15192383 28.78564453 9.73681641 C40.83666348 15.24799114 52.41800414 20.88942788 63.23828125 28.57861328 C64.23472656 29.28373047 65.23117187 29.98884766 66.2578125 30.71533203 C81.67351374 41.96899598 95.40051471 54.590797 107.23828125 69.57861328 C108.01945312 70.53123047 108.800625 71.48384766 109.60546875 72.46533203 C143.56922602 114.83864581 158.21382329 170.29140223 152.55078125 224.01611328 C152.18823234 226.88529615 151.73701757 229.73012178 151.23828125 232.57861328 C151.02824463 233.79097656 151.02824463 233.79097656 150.81396484 235.02783203 C141.19855483 287.82771586 109.7920067 336.09713493 65.80078125 366.69189453 C47.88085211 378.94480508 47.88085211 378.94480508 39.23828125 382.57861328 C38.57828125 382.24861328 37.91828125 381.91861328 37.23828125 381.57861328 C37.92792969 380.75361328 38.61757813 379.92861328 39.328125 379.07861328 C56.63274072 357.9928709 66.69763076 333.91040662 66.55078125 306.32861328 C66.5465918 305.24032227 66.54240234 304.15203125 66.53808594 303.03076172 C66.41524124 294.20946727 65.45091022 286.12261778 63.23828125 277.57861328 C62.97144531 276.49064453 62.70460938 275.40267578 62.4296875 274.28173828 C54.59162682 245.71636156 34.65273957 221.25553135 9.23828125 206.57861328 C-5.50557365 198.2943589 -20.13593091 193.82618432 -36.76171875 191.57861328 C-38.69337891 191.30597656 -38.69337891 191.30597656 -40.6640625 191.02783203 C-45.41340801 190.44496843 -50.17078331 190.31401146 -54.94921875 190.14111328 C-80.06049658 189.01533019 -100.48401504 182.06244689 -119.76171875 165.57861328 C-120.34953125 165.13517578 -120.93734375 164.69173828 -121.54296875 164.23486328 C-138.83913543 150.85480981 -150.16737986 127.03143851 -153.3203125 105.82080078 C-156.37507537 79.60510212 -150.15986376 54.83387916 -134.53125 33.53955078 C-132.34727542 30.8105223 -130.0967489 28.17908202 -127.76171875 25.57861328 C-126.84326172 24.53640625 -126.84326172 24.53640625 -125.90625 23.47314453 C-93.35082923 -11.30354162 -42.92209976 -11.28673237 0 0 Z " fill="#5F7C8A" transform="translate(307.76171875,57.42138671875)"/>
<path d="M0 0 C0 3.96995156 -1.25631737 4.58497138 -4 7.375 C-23.59176284 28.59429172 -30.1174542 55.11934905 -29.35546875 83.2421875 C-29.01164202 91.11007099 -28.11741939 98.40119653 -26 106 C-25.6596875 107.22976562 -25.319375 108.45953125 -24.96875 109.7265625 C-15.55736072 140.44075859 4.94932814 164.75337849 33.10888672 180.02734375 C52.01744681 189.75258302 72.10718358 192.6853686 93.0625 193.4375 C114.49837179 194.29405259 133.7752731 199.73005134 151 213 C151.52255371 213.39525879 152.04510742 213.79051758 152.58349609 214.19775391 C172.17914063 229.18060812 187.10866886 252.12649942 190.75390625 276.81640625 C192.92821606 304.94438243 187.07936613 331.78328566 168.6875 353.75 C151.80996524 373.17272181 127.93972175 387.25313636 102 390 C45.89488139 392.48878929 -7.57800577 374.46202568 -49.25 336.4375 C-51.18061777 334.6389605 -53.09070024 332.82142404 -55 331 C-55.85207031 330.20078125 -56.70414063 329.4015625 -57.58203125 328.578125 C-84.83383517 302.3133943 -101.42964811 267.13104762 -111 231 C-111.2273584 230.16919922 -111.4547168 229.33839844 -111.68896484 228.48242188 C-115.4369967 214.11256568 -115.38833886 199.50024835 -115.4375 184.75 C-115.44385468 183.76957733 -115.45020935 182.78915466 -115.45675659 181.77902222 C-115.52703694 164.31316891 -113.77949859 147.64194283 -108.9375 130.8125 C-108.63932373 129.77061523 -108.34114746 128.72873047 -108.03393555 127.65527344 C-96.04277018 87.2735734 -72.08371879 51.13967621 -39 25 C-37.55367187 23.81083984 -37.55367187 23.81083984 -36.078125 22.59765625 C-27.63811143 15.81779763 -18.59436344 10.46574426 -9.14941406 5.20019531 C-6.08630613 3.48980929 -3.04352283 1.74495309 0 0 Z " fill="#FEEA39" transform="translate(167,71)"/>
<path d="M0 0 C0.99261841 0.00215515 1.98523682 0.0043103 3.00793457 0.00653076 C17.83440163 0.05816285 32.35262639 0.38658718 46.9375 3.3125 C48.42540039 3.61051514 48.42540039 3.61051514 49.94335938 3.91455078 C88.96766362 12.02941778 125.43080754 27.74490085 156.9375 52.3125 C157.82179688 52.98539063 158.70609375 53.65828125 159.6171875 54.3515625 C175.20737101 66.4551235 189.81954477 80.75418497 201.9375 96.3125 C203.08412109 97.71628906 203.08412109 97.71628906 204.25390625 99.1484375 C231.2924992 132.91412821 248.48449154 174.6856642 254.9375 217.3125 C255.11482666 218.43132568 255.29215332 219.55015137 255.47485352 220.70288086 C257.15626341 232.42485947 257.29484341 244.04748976 257.25 255.875 C257.24784485 256.89540375 257.2456897 257.9158075 257.24346924 258.96713257 C257.19383352 273.59460524 256.94669712 287.94513838 253.9375 302.3125 C253.63948486 303.77478027 253.63948486 303.77478027 253.33544922 305.26660156 C243.21482806 353.6484774 221.2983123 397.63678269 186.9375 433.3125 C186.30537598 433.97185547 185.67325195 434.63121094 185.02197266 435.31054688 C175.87752521 444.79880305 166.58015991 453.5387044 155.9375 461.3125 C154.78644983 462.17056152 153.63540823 463.02863451 152.484375 463.88671875 C144.29474019 469.92427396 135.79211724 475.30707302 126.9375 480.3125 C126.23028809 480.7146875 125.52307617 481.116875 124.79443359 481.53125 C101.65904164 494.5566741 76.48787591 503.30551461 50.5 508.625 C49.78110596 508.77235596 49.06221191 508.91971191 48.3215332 509.0715332 C33.64589502 511.86090125 19.12081162 512.66142619 4.21020508 512.62817383 C1.27061513 512.6250221 -1.6679558 512.64854926 -4.60742188 512.67382812 C-17.98056192 512.71848737 -30.87666711 511.51301542 -44.0625 509.3125 C-45.76805054 509.03031616 -45.76805054 509.03031616 -47.50805664 508.74243164 C-90.77552759 500.97044532 -131.82543216 480.98345309 -165.0625 452.3125 C-165.80757813 451.67828125 -166.55265625 451.0440625 -167.3203125 450.390625 C-180.82529833 438.57948485 -193.49668743 425.82889772 -204.0625 411.3125 C-204.91899066 410.16255169 -205.77576433 409.01281411 -206.6328125 407.86328125 C-212.67284209 399.67315742 -218.05617614 391.16870382 -223.0625 382.3125 C-223.4646875 381.60528809 -223.866875 380.89807617 -224.28125 380.16943359 C-237.3066741 357.03404164 -246.05551461 331.86287591 -251.375 305.875 C-251.52235596 305.15610596 -251.66971191 304.43721191 -251.8215332 303.6965332 C-254.79539088 288.05024391 -255.43550362 272.57681954 -255.375 256.6875 C-255.37284485 255.66959381 -255.3706897 254.65168762 -255.36846924 253.60293579 C-255.31879854 238.99386477 -255.06790191 224.66174147 -252.0625 210.3125 C-251.86382324 209.33764648 -251.66514648 208.36279297 -251.46044922 207.35839844 C-241.33982806 158.9765226 -219.4233123 114.98821731 -185.0625 79.3125 C-184.43037598 78.65314453 -183.79825195 77.99378906 -183.14697266 77.31445312 C-174.00252521 67.82619695 -164.70515991 59.0862956 -154.0625 51.3125 C-152.91144983 50.45443848 -151.76040823 49.59636549 -150.609375 48.73828125 C-142.41974019 42.70072604 -133.91711724 37.31792698 -125.0625 32.3125 C-124.35528809 31.9103125 -123.64807617 31.508125 -122.91943359 31.09375 C-99.78404164 18.0683259 -74.61287591 9.31948539 -48.625 4 C-47.90610596 3.85264404 -47.18721191 3.70528809 -46.4465332 3.5534668 C-30.98940107 0.61556182 -15.69740187 -0.06136669 0 0 Z M-165.0625 84.3125 C-165.62904297 84.85036133 -166.19558594 85.38822266 -166.77929688 85.94238281 C-175.37604351 94.16391233 -182.97242884 102.76850695 -190.0625 112.3125 C-190.78050781 113.25867188 -191.49851563 114.20484375 -192.23828125 115.1796875 C-229.98779572 165.75670689 -244.78184461 230.09792078 -236.0625 292.3125 C-232.40549108 316.24523133 -224.74245011 339.60219477 -214.0625 361.3125 C-213.69576172 362.06901855 -213.32902344 362.82553711 -212.95117188 363.60498047 C-202.20176155 385.58124954 -187.87822228 404.63086958 -171.0625 422.3125 C-170.25570801 423.16231445 -170.25570801 423.16231445 -169.43261719 424.02929688 C-161.21132402 432.62579638 -152.62427376 440.24533576 -143.0625 447.3125 C-142.50095215 447.7348291 -141.9394043 448.1571582 -141.36083984 448.59228516 C-112.759168 470.06622568 -79.97815363 483.99751891 -45.0625 491.3125 C-43.81714478 491.57764404 -43.81714478 491.57764404 -42.54663086 491.84814453 C-15.11028615 497.54173352 13.36547044 496.3298555 40.9375 492.3125 C41.79504883 492.19455078 42.65259766 492.07660156 43.53613281 491.95507812 C82.19403765 486.407896 119.66352497 467.36123673 149.9375 443.3125 C150.49211914 442.87502441 151.04673828 442.43754883 151.61816406 441.98681641 C165.37492655 431.04071 178.38894968 418.38341335 188.9375 404.3125 C189.41074707 403.69391113 189.88399414 403.07532227 190.37158203 402.43798828 C217.74919214 366.52776065 234.03109594 325.13649077 238.9375 280.3125 C239.08106934 279.01977173 239.08106934 279.01977173 239.22753906 277.70092773 C241.30962726 257.21026941 240.30935979 236.5940387 236.9375 216.3125 C236.79296387 215.43271484 236.64842773 214.55292969 236.49951172 213.64648438 C234.38585957 201.18459726 231.17058993 189.21791275 226.9375 177.3125 C226.52056885 176.1383252 226.52056885 176.1383252 226.09521484 174.94042969 C214.45785591 142.83419832 196.3820515 114.96430431 172.9375 90.3125 C172.39963867 89.74595703 171.86177734 89.17941406 171.30761719 88.59570312 C163.08632402 79.99920362 154.49927376 72.37966424 144.9375 65.3125 C144.37595215 64.8901709 143.8144043 64.4678418 143.23583984 64.03271484 C122.29079521 48.30731791 97.71944142 34.56050094 72.3125 27.8125 C71.15427734 27.49949951 71.15427734 27.49949951 69.97265625 27.18017578 C67.62937804 26.55073137 65.28358927 25.93137006 62.9375 25.3125 C61.90351074 25.0335791 61.90351074 25.0335791 60.84863281 24.74902344 C-19.67923049 3.05178496 -105.13089684 27.31587861 -165.0625 84.3125 Z " fill="#010000" transform="translate(255.0625,-0.31250000000000006)"/>
<path d="M0 0 C1.45673319 0.46339398 2.91489571 0.92234007 4.375 1.375 C37.31198073 12.5369768 65.91520735 31.14366455 91 55 C91.84981445 55.80679199 91.84981445 55.80679199 92.71679688 56.62988281 C101.31354351 64.85141233 108.90992884 73.45600695 116 83 C116.71800781 83.94617188 117.43601562 84.89234375 118.17578125 85.8671875 C156.48997072 137.20076174 170.36031606 201.08796782 161.44433594 263.98876953 C161.29770508 264.98247559 161.15107422 265.97618164 161 267 C160.87141602 267.88413574 160.74283203 268.76827148 160.61035156 269.67919922 C153.38967021 316.79736033 128.43085168 359.84602665 96 394 C95.24178955 394.80123291 95.24178955 394.80123291 94.46826172 395.61865234 C87.07523228 403.37591585 79.33437702 410.31301503 70.73535156 416.70898438 C69.60478336 417.55007113 68.47885704 418.39744514 67.35839844 419.25195312 C56.87692445 427.24447286 45.59080656 433.75409467 34 440 C33.31164062 440.37366699 32.62328125 440.74733398 31.9140625 441.13232422 C11.67941564 451.91553271 -12.31309552 459.87959149 -35 463 C-36.47968262 463.2155957 -36.47968262 463.2155957 -37.98925781 463.43554688 C-97.06192902 471.8205194 -158.53635682 460.50067648 -208 426 C-209.11979248 425.225354 -209.11979248 425.225354 -210.26220703 424.43505859 C-221.00995039 416.93505524 -230.92628151 408.89515049 -240.26660156 399.70263672 C-241.97290296 398.02661617 -243.69903169 396.37347378 -245.4296875 394.72265625 C-253.06273362 387.36321196 -259.66856165 379.4937035 -266 371 C-266.71929687 370.05253906 -267.43859375 369.10507812 -268.1796875 368.12890625 C-306.11622048 317.2762385 -320.42631912 253.337747 -311.9140625 190.8984375 C-310.71011208 182.81402742 -309.08098017 174.90172 -307 167 C-306.74162354 165.98413818 -306.74162354 165.98413818 -306.47802734 164.94775391 C-299.79726286 139.00812819 -287.92922676 112.56016325 -272 91 C-271.1128698 89.75550153 -270.22618464 88.51068575 -269.33984375 87.265625 C-262.76121691 78.14741411 -255.57709604 69.83176965 -247.73486328 61.78173828 C-246.05001729 60.05136873 -244.38203061 58.30595791 -242.71484375 56.55859375 C-235.35526807 48.93263331 -227.48983477 42.32855449 -219 36 C-217.57880859 34.92105469 -217.57880859 34.92105469 -216.12890625 33.8203125 C-155.80101722 -11.18481807 -71.17271069 -26.08135463 0 0 Z M-219 58 C-219.9075 58.77859375 -220.815 59.5571875 -221.75 60.359375 C-224.21660564 62.52556072 -226.61776506 64.74137159 -229 67 C-229.49564453 67.46841309 -229.99128906 67.93682617 -230.50195312 68.41943359 C-238.84733145 76.36173927 -246.13206378 84.76105198 -253 94 C-253.4237793 94.55768066 -253.84755859 95.11536133 -254.28417969 95.68994141 C-261.54296771 105.25022833 -267.46139861 115.36122124 -273 126 C-273.52956299 127.00208496 -273.52956299 127.00208496 -274.06982422 128.02441406 C-298.9989311 175.73459565 -302.87285485 231.37329596 -290 283 C-289.71511719 284.19753906 -289.43023437 285.39507812 -289.13671875 286.62890625 C-279.74829581 322.89224603 -259.70100381 355.15019873 -234 382 C-233.52981445 382.49741699 -233.05962891 382.99483398 -232.57519531 383.50732422 C-224.97805066 391.51338763 -216.84055847 398.40749721 -208 405 C-207.44086914 405.42522949 -206.88173828 405.85045898 -206.30566406 406.28857422 C-161.16166759 440.56164334 -102.20323031 454.68977458 -46.25390625 447.8125 C1.88039466 440.88219284 45.07272951 419.5262699 80 386 C80.51304687 385.51418457 81.02609375 385.02836914 81.5546875 384.52783203 C89.00288996 377.45534791 95.55923296 369.96487362 101.70166016 361.73388672 C102.92322311 360.1025328 104.16981799 358.49000877 105.41796875 356.87890625 C117.64724568 340.57985364 127.30812991 322.29104369 134.22119141 303.1484375 C134.93797577 301.17110131 135.6862781 299.20988629 136.44921875 297.25 C155.56010806 246.74674896 152.00352418 186.51025948 130.19677734 137.58349609 C118.40410341 112.12652433 103.382515 90.20642637 84 70 C82.82630859 68.76443359 82.82630859 68.76443359 81.62890625 67.50390625 C60.08003552 45.34045097 32.38037665 29.93347554 3.83935547 18.72558594 C2.29436861 18.11612205 0.75746954 17.48621104 -0.77734375 16.8515625 C-72.81144086 -11.59792293 -161.58727171 8.00194871 -219 58 Z " fill="#FB9500" transform="translate(331,29)"/>
<path d="M0 0 C1.36934692 0.00362549 1.36934692 0.00362549 2.76635742 0.00732422 C14.57258674 0.32408934 25.10522896 4.5122002 33.875 12.5625 C34.54917969 13.15804688 35.22335937 13.75359375 35.91796875 14.3671875 C46.37589615 24.13838421 51.85087551 36.71895971 52.375 51.0625 C51.81404096 66.9241005 45.128056 79.7394971 33.875 90.5625 C21.19781192 101.14028113 7.1455068 104.00073245 -9.125 102.5625 C-22.24031193 100.00115673 -34.04348861 92.02864114 -41.80859375 81.21875 C-43.39248086 78.72244911 -44.78091791 76.19499214 -46.125 73.5625 C-46.54007813 72.81226563 -46.95515625 72.06203125 -47.3828125 71.2890625 C-52.56808007 60.08453328 -52.16824475 43.71621373 -48.0625 32.1875 C-45.49094624 26.6822018 -42.19758497 22.05029429 -38.125 17.5625 C-37.34189453 16.64210938 -37.34189453 16.64210938 -36.54296875 15.703125 C-27.08758842 5.30450722 -13.85113026 -0.03860763 0 0 Z " fill="#020201" transform="translate(264.125,315.4375)"/>
<path d="M0 0 C0.80695313 0.25652344 1.61390625 0.51304688 2.4453125 0.77734375 C8.94115665 3.09161238 13.83049429 6.4887834 19 11 C19.60585938 11.47695312 20.21171875 11.95390625 20.8359375 12.4453125 C29.69442188 20.10128768 35.11024071 33.70247733 36.3359375 45.1328125 C36.53770669 60.58833275 31.79011058 73.52174031 21.28515625 84.67578125 C20.53105469 85.44277344 19.77695312 86.20976562 19 87 C18.42121094 87.59167969 17.84242188 88.18335938 17.24609375 88.79296875 C12.52674682 93.21664575 6.9750295 95.65418472 1 98 C0.06800781 98.37125 -0.86398437 98.7425 -1.82421875 99.125 C-5.66819455 100.1841028 -9.296052 100.30210116 -13.25 100.25 C-14.00434326 100.24178223 -14.75868652 100.23356445 -15.53588867 100.22509766 C-29.93705032 99.93735289 -41.30480823 95.38529641 -51.81640625 85.27734375 C-63.69285513 72.89099367 -66.57526983 59.43376477 -66.34375 42.77734375 C-66.08324997 36.02062417 -64.52167854 30.7796413 -61 25 C-60.31357422 23.79730469 -60.31357422 23.79730469 -59.61328125 22.5703125 C-52.42854308 10.87788928 -41.23639206 1.93777547 -27.83203125 -1.5703125 C-18.73826038 -2.95005705 -8.77913964 -2.89877252 0 0 Z " fill="#020201" transform="translate(280,96)"/>
<path d="M0 0 C33.44604822 10.6073425 62.72905044 29.96662415 88 54 C88.56654297 54.53786133 89.13308594 55.07572266 89.71679688 55.62988281 C98.31354351 63.85141233 105.90992884 72.45600695 113 82 C113.71800781 82.94617188 114.43601562 83.89234375 115.17578125 84.8671875 C153.48997072 136.20076174 167.36031606 200.08796782 158.44433594 262.98876953 C158.29770508 263.98247559 158.15107422 264.97618164 158 266 C157.87141602 266.88413574 157.74283203 267.76827148 157.61035156 268.67919922 C150.38967021 315.79736033 125.43085168 358.84602665 93 393 C92.49452637 393.53415527 91.98905273 394.06831055 91.46826172 394.61865234 C84.07523228 402.37591585 76.33437702 409.31301503 67.73535156 415.70898438 C66.60478336 416.55007113 65.47885704 417.39744514 64.35839844 418.25195312 C48.99640926 429.96605001 31.76944009 439.45744464 14 447 C13.29053223 447.30147949 12.58106445 447.60295898 11.85009766 447.91357422 C6.36865718 450.12288573 6.36865718 450.12288573 3 449 C4.12792969 448.44054687 5.25585938 447.88109375 6.41796875 447.3046875 C22.96891835 438.93405141 38.90743318 429.12238889 53 417 C54.1034281 416.07854194 55.20766106 415.15804722 56.3125 414.23828125 C66.71982476 405.51736789 76.3482361 396.39333719 84.82421875 385.734375 C86.25863415 383.93169855 87.71930634 382.14956347 89.20703125 380.390625 C99.95577822 367.66531335 108.12682267 353.6240081 116 339 C115.01 339.33 114.02 339.66 113 340 C114.26937526 336.5701224 115.82280053 333.42996335 117.61401367 330.24389648 C123.04539772 320.53928151 127.0643582 310.38236795 131 300 C131.49083635 298.7369601 131.98171705 297.47393743 132.47265625 296.2109375 C151.47376258 245.65753533 148.03230956 185.59869751 126.22314453 136.62304688 C119.31868268 121.71222996 119.31868268 121.71222996 110.703125 107.7734375 C109 105 109 105 108.62890625 101.70703125 C107.73309585 96.42675753 105.02182529 92.98210307 101.9375 88.6875 C101.34332275 87.84227783 100.74914551 86.99705566 100.13696289 86.1262207 C95.96708596 80.23729852 91.67400105 74.49985838 87 69 C86.07793581 67.89338678 85.15607673 66.78660263 84.234375 65.6796875 C74.72349953 54.33837046 64.64916803 44.18522084 53 35 C51.9531128 34.14092204 50.90758653 33.28018348 49.86328125 32.41796875 C34.54448383 19.89694963 17.40501689 10.29375285 0 1 C0 0.67 0 0.34 0 0 Z " fill="#F17A00" transform="translate(334,30)"/>
<path d="M0 0 C39.81097545 5.8829984 79.32874538 41.48623426 102.44287109 72.52124023 C134.02933225 116.11219059 149.56987982 170.96629095 141.73828125 224.65625 C141.49975332 226.10543226 141.25329512 227.55332575 141 229 C140.85997559 229.80824219 140.71995117 230.61648438 140.57568359 231.44921875 C130.96027358 284.24910258 99.55372545 332.51852165 55.5625 363.11328125 C37.64257086 375.3661918 37.64257086 375.3661918 29 379 C28.34 378.67 27.68 378.34 27 378 C34.48023631 367.81910695 34.48023631 367.81910695 40.046875 365.0859375 C52.59577544 358.10874886 65.06667177 345.14179022 74 334 C74.81597656 333.01 75.63195312 332.02 76.47265625 331 C101.53657596 300.20244528 116.93526991 264.1377695 123 225 C123.17877686 223.92500244 123.35755371 222.85000488 123.54174805 221.74243164 C124.89710451 213.14482299 125.35107325 204.7607689 125.3125 196.0625 C125.31034485 195.39258026 125.3081897 194.72266052 125.30596924 194.03244019 C125.04881641 143.76798071 106.66536191 95.13095404 74 57 C73.37738281 56.2471875 72.75476563 55.494375 72.11328125 54.71875 C62.34564946 43.10584772 51.1958801 32.98140276 39 24 C38.15050781 23.36707031 37.30101562 22.73414062 36.42578125 22.08203125 C24.99865316 13.82805608 12.69109479 7.08155698 0 1 C0 0.67 0 0.34 0 0 Z " fill="#36464E" transform="translate(318,61)"/>
<path d="M0 0 C8.09567425 5.65340381 13.58215306 12.55272019 16.3125 22.0625 C18.08809034 32.23179011 16.43009278 41.42792907 10.5625 50.0546875 C4.73866324 57.30536426 -1.81667676 62.10163861 -11 64 C-21.13293164 65.09792487 -29.32958747 64.08835911 -37.66015625 58.08203125 C-44.49585498 52.39400506 -48.21140523 46.36578432 -51 38 C-51.93250505 27.15225142 -51.72314728 18.10705209 -45 9 C-33.06293373 -4.61892097 -16.46778745 -8.36887559 0 0 Z " fill="#FDE939" transform="translate(282,115)"/>
<path d="M0 0 C7.61305628 5.45347871 14.28878359 12.48764997 16 22 C16.83671285 34.42724331 16.05401649 43.5077058 7.75 53.375 C0.28728284 61.16749354 -8.26729219 63.96928868 -18.9375 64.375 C-24.76941635 64.27204057 -28.98273379 62.88994534 -34 60 C-35.546875 59.13375 -35.546875 59.13375 -37.125 58.25 C-43.50929396 53.25359603 -49.11142919 47.04598216 -51 39 C-52.23701759 28.47587658 -51.68054031 18.72979241 -45.4921875 9.83203125 C-34.29515155 -4.0470854 -16.0512429 -8.9655591 0 0 Z " fill="#5F7C8A" transform="translate(282,337)"/>
<path d="M0 0 C14.28814332 3.29726384 26.77555149 10.78413701 38 20 C38.70253906 20.53882813 39.40507812 21.07765625 40.12890625 21.6328125 C57.0915739 35.27148265 69.58776012 58.37147834 72.75390625 79.81640625 C74.92821606 107.94438243 69.07936613 134.78328566 50.6875 156.75 C38.0165971 171.33171621 20.49490068 185.08117773 1 189 C2.25679433 185.229617 3.36978806 184.95387974 6.75 183 C30.86497801 168.03746831 46.6350884 144.02649353 53.375 116.5625 C59.11670532 90.60408262 53.83868833 62.96166583 40.1953125 40.34375 C30.26880792 24.93651896 17.02017533 9.713577 0 2 C0 1.34 0 0.68 0 0 Z " fill="#FAD533" transform="translate(285,268)"/>
<path d="M0 0 C0 3.96995156 -1.25631737 4.58497138 -4 7.375 C-23.59176284 28.59429172 -30.1174542 55.11934905 -29.35546875 83.2421875 C-29.01164202 91.11007099 -28.11741939 98.40119653 -26 106 C-25.6596875 107.22976562 -25.319375 108.45953125 -24.96875 109.7265625 C-16.01574225 138.94482429 2.99610041 163.09447777 29.8671875 177.7578125 C30.57101563 178.16773438 31.27484375 178.57765625 32 179 C32 179.33 32 179.66 32 180 C15.84254248 178.89835517 -0.32391872 167.54556812 -12 157 C-12.84175781 156.24074219 -13.68351562 155.48148438 -14.55078125 154.69921875 C-33.57471542 136.62204335 -46.3198911 110.46597601 -47.3359375 84.08984375 C-47.6737483 61.17039655 -43.46902113 35.47314103 -28.40625 17.05078125 C-24.81407221 13.98926609 -20.79149249 11.80829922 -16.6875 9.5 C-15.85798828 9.02691406 -15.02847656 8.55382812 -14.17382812 8.06640625 C-11.78560406 6.70547667 -9.39296601 5.35256815 -7 4 C-4.66523309 2.66915654 -2.33256842 1.33469502 0 0 Z " fill="#F9D533" transform="translate(167,71)"/>
<path d="M0 0 C9.96515918 1.5817713 17.12408974 5.94945522 23.4921875 13.828125 C29.55957309 22.56767523 29.99587698 31.70577691 29 42 C27.19295313 50.87966076 21.24602742 58.33165241 13.8828125 63.48046875 C9.68501976 65.74270336 5.72883368 66.60593053 1 67 C1.5775 66.01 2.155 65.02 2.75 64 C4.25333696 61.35583286 5.72266894 58.6992237 7.125 56 C7.43695313 55.401875 7.74890625 54.80375 8.0703125 54.1875 C12.78358188 43.0974544 13.30225955 27.16182218 9.4375 15.75 C6.9019229 10.17539185 3.46657595 5.03432519 0 0 Z " fill="#37474F" transform="translate(269,333)"/>
<path d="M0 0 C8.42339395 0.7019495 14.60484962 3.82521603 20.3984375 10.015625 C26.22912512 17.23998917 29.54465548 25.47504396 29.25 34.8671875 C27.96600358 45.82128198 22.84439248 54.16347565 14.55078125 61.23046875 C10.41909748 64.09670573 5.91333554 65.93334425 1 67 C0.34 66.67 -0.32 66.34 -1 66 C-0.41992188 65.30777344 -0.41992188 65.30777344 0.171875 64.6015625 C8.38201418 54.3185664 12.41961869 41.16696331 11 28 C9.25113255 18.24211457 6.73471453 10.22269838 1 2 C0.67 1.34 0.34 0.68 0 0 Z " fill="#F9D533" transform="translate(270,112)"/>
<path d="M0 0 C3.226345 3.80247803 5.77535219 7.55070439 8 12 C7.67 12.99 7.34 13.98 7 15 C6.03576974 13.60823368 5.07888398 12.2113777 4.125 10.8125 C3.59132813 10.03519531 3.05765625 9.25789062 2.5078125 8.45703125 C1.01984561 6.0323391 -0.02428078 3.6666501 -1 1 C-0.67 0.67 -0.34 0.34 0 0 Z " fill="#ED8B00" transform="translate(444,132)"/>
<path d="M0 0 C0.66 0.33 1.32 0.66 2 1 C-0.475 6.94 -0.475 6.94 -3 13 C-3.66 12.67 -4.32 12.34 -5 12 C-4.54738642 10.56068883 -4.08767021 9.12361001 -3.625 7.6875 C-3.24214844 6.48673828 -3.24214844 6.48673828 -2.8515625 5.26171875 C-2 3 -2 3 0 0 Z " fill="#F08C00" transform="translate(460,344)"/>
</svg>
