<?xml version="1.0" encoding="UTF-8"?>
<!DOCTYPE svg PUBLIC "-//W3C//DTD SVG 1.1//EN" "http://www.w3.org/Graphics/SVG/1.1/DTD/svg11.dtd">
<svg xmlns="http://www.w3.org/2000/svg" version="1.1" width="100px" height="100px" style="shape-rendering:geometricPrecision; text-rendering:geometricPrecision; image-rendering:optimizeQuality; fill-rule:evenodd; clip-rule:evenodd" xmlns:xlink="http://www.w3.org/1999/xlink">
<g><path style="opacity:0.989" fill="#3cd6ae" d="M 69.5,29.5 C 60.246,36.5725 49.9127,38.4059 38.5,35C 35.4443,33.1444 32.4443,31.3111 29.5,29.5C 16.872,27.5404 10.2053,20.207 9.5,7.5C 17.7238,8.45396 25.8905,9.78729 34,11.5C 44.4925,6.19326 54.9925,6.19326 65.5,11.5C 73.4628,9.88649 81.4628,8.55316 89.5,7.5C 88.7947,20.207 82.128,27.5404 69.5,29.5 Z"/></g>
<g><path style="opacity:1" fill="#2415c3" d="M 38.5,18.5 C 40.1992,18.3398 41.8659,18.5065 43.5,19C 46.1667,20.6667 46.1667,22.3333 43.5,24C 38.0833,25.4196 36.4166,23.5863 38.5,18.5 Z"/></g>
<g><path style="opacity:1" fill="#261ac2" d="M 55.5,18.5 C 60.1225,17.4082 61.9558,19.0748 61,23.5C 56.0792,25.077 54.2459,23.4103 55.5,18.5 Z"/></g>
<g><path style="opacity:0.994" fill="#f4bc02" d="M 29.5,29.5 C 32.4443,31.3111 35.4443,33.1444 38.5,35C 49.9127,38.4059 60.246,36.5725 69.5,29.5C 71.9784,32.3291 72.9784,35.6625 72.5,39.5C 67.8363,45.3533 61.6696,48.6866 54,49.5C 53.5001,64.8297 53.3334,80.163 53.5,95.5C 50.8333,95.5 48.1667,95.5 45.5,95.5C 45.5,80.1667 45.5,64.8333 45.5,49.5C 37.529,49.0173 31.1957,45.6839 26.5,39.5C 26.0216,35.6625 27.0216,32.3291 29.5,29.5 Z"/></g>
<g><path style="opacity:0.99" fill="#f9d800" d="M 26.5,39.5 C 31.1957,45.6839 37.529,49.0173 45.5,49.5C 45.5,64.8333 45.5,80.1667 45.5,95.5C 36.7934,95.5931 28.6267,93.5931 21,89.5C 21.8314,83.4948 22.9981,77.4948 24.5,71.5C 25.404,70.791 25.7373,69.791 25.5,68.5C 27.1382,62.6246 24.8049,59.7913 18.5,60C 16.6769,60.9973 15.0103,62.1639 13.5,63.5C 12.6236,63.6309 11.9569,63.2975 11.5,62.5C 12.5587,59.3821 13.8921,56.3821 15.5,53.5C 16.2739,52.2888 17.1072,52.2888 18,53.5C 20.6618,48.6844 23.4951,44.0177 26.5,39.5 Z"/></g>
<g><path style="opacity:0.996" fill="#f9d800" d="M 72.5,39.5 C 75.5049,44.0177 78.3382,48.6844 81,53.5C 81.8928,52.2888 82.7261,52.2888 83.5,53.5C 85.1079,56.3821 86.4413,59.3821 87.5,62.5C 87.0431,63.2975 86.3764,63.6309 85.5,63.5C 81.1935,58.3614 77.0268,58.3614 73,63.5C 72.2204,65.3869 72.3871,67.0536 73.5,68.5C 73.2627,69.791 73.596,70.791 74.5,71.5C 76.0019,77.4948 77.1686,83.4948 78,89.5C 70.4595,93.7892 62.2928,95.7892 53.5,95.5C 53.3334,80.163 53.5001,64.8297 54,49.5C 61.6696,48.6866 67.8363,45.3533 72.5,39.5 Z"/></g>
<g><path style="opacity:1" fill="#30b763" d="M 25.5,68.5 C 21.6983,66.6005 17.6983,65.2672 13.5,64.5C 13.5,64.1667 13.5,63.8333 13.5,63.5C 15.0103,62.1639 16.6769,60.9973 18.5,60C 24.8049,59.7913 27.1382,62.6246 25.5,68.5 Z"/></g>
<g><path style="opacity:1" fill="#33b762" d="M 85.5,63.5 C 85.5,63.8333 85.5,64.1667 85.5,64.5C 81.3017,65.2672 77.3017,66.6005 73.5,68.5C 72.3871,67.0536 72.2204,65.3869 73,63.5C 77.0268,58.3614 81.1935,58.3614 85.5,63.5 Z"/></g>
<g><path style="opacity:0.932" fill="#3dd9b3" d="M 13.5,64.5 C 17.6983,65.2672 21.6983,66.6005 25.5,68.5C 25.7373,69.791 25.404,70.791 24.5,71.5C 17.4449,74.4408 13.7782,72.1075 13.5,64.5 Z"/></g>
<g><path style="opacity:0.896" fill="#3dd9b2" d="M 85.5,64.5 C 85.2218,72.1075 81.5551,74.4408 74.5,71.5C 73.596,70.791 73.2627,69.791 73.5,68.5C 77.3017,66.6005 81.3017,65.2672 85.5,64.5 Z"/></g>
</svg>
