<?xml version="1.0" encoding="UTF-8"?>
<!DOCTYPE svg PUBLIC "-//W3C//DTD SVG 1.1//EN" "http://www.w3.org/Graphics/SVG/1.1/DTD/svg11.dtd">
<svg xmlns="http://www.w3.org/2000/svg" version="1.1" width="512px" height="512px" style="shape-rendering:geometricPrecision; text-rendering:geometricPrecision; image-rendering:optimizeQuality; fill-rule:evenodd; clip-rule:evenodd" xmlns:xlink="http://www.w3.org/1999/xlink">
<g><path style="opacity:0.98" fill="#030201" d="M 125.5,-0.5 C 171.833,-0.5 218.167,-0.5 264.5,-0.5C 267.095,1.01439 268.429,3.34772 268.5,6.5C 268.451,9.0991 267.451,11.2658 265.5,13C 259.258,14.3696 252.925,14.8696 246.5,14.5C 207.165,14.3333 167.832,14.5 128.5,15C 118.185,17.9798 111.018,24.4798 107,34.5C 106.333,60.1667 106.333,85.8333 107,111.5C 108.399,110.773 109.899,110.273 111.5,110C 133.833,109.333 156.167,109.333 178.5,110C 193.216,111.94 203.382,119.773 209,133.5C 210.978,139.411 212.645,145.411 214,151.5C 214.903,152.701 216.069,153.535 217.5,154C 259.002,154.831 300.335,154.665 341.5,153.5C 341.983,113.106 341.483,72.7725 340,32.5C 335.709,22.542 328.209,16.7087 317.5,15C 309.833,14.6667 302.167,14.3333 294.5,14C 291.211,12.5897 289.544,10.0897 289.5,6.5C 289.15,3.54661 290.15,1.21328 292.5,-0.5C 302.5,-0.5 312.5,-0.5 322.5,-0.5C 342.273,5.11054 353.773,18.1105 357,38.5C 357.5,54.4965 357.667,70.4965 357.5,86.5C 378.877,82.8464 398.211,87.3464 415.5,100C 425.75,109.329 432.25,120.829 435,134.5C 435.333,151.167 435.667,167.833 436,184.5C 439.181,190.527 441.514,196.86 443,203.5C 443.167,230.839 443.667,258.173 444.5,285.5C 454.281,288.058 463.281,292.225 471.5,298C 478.689,305.571 480.356,314.237 476.5,324C 507.212,360.094 514.712,400.594 499,445.5C 486.014,472.818 465.181,491.318 436.5,501C 420.742,506.249 404.742,509.749 388.5,511.5C 372.833,511.5 357.167,511.5 341.5,511.5C 312.429,509.397 285.762,500.23 261.5,484C 254.833,478.667 248.833,472.667 243.5,466C 217.167,465.667 190.833,465.333 164.5,465C 162.334,463.322 161.001,461.155 160.5,458.5C 161.053,455.413 162.72,452.913 165.5,451C 188.5,450.667 211.5,450.333 234.5,450C 221.202,420.886 220.202,391.386 231.5,361.5C 236.377,347.409 244.044,335.076 254.5,324.5C 249.963,313.495 252.296,304.328 261.5,297C 282.195,284.413 304.528,280.247 328.5,284.5C 325.887,276.607 322.72,268.94 319,261.5C 315.775,238.959 325.442,225.959 348,222.5C 358.666,222.833 367.333,227.166 374,235.5C 383.082,251.576 389.915,268.576 394.5,286.5C 399.016,284.947 403.682,284.113 408.5,284C 415.158,283.5 421.825,283.334 428.5,283.5C 428.667,257.831 428.5,232.165 428,206.5C 423.24,187.408 411.407,175.241 392.5,170C 340.834,169.5 289.168,169.333 237.5,169.5C 230.159,169.666 222.826,169.5 215.5,169C 209.168,167.583 204.335,164.083 201,158.5C 198.583,150.413 195.916,142.413 193,134.5C 190.104,130.939 186.604,128.106 182.5,126C 159.563,124.365 136.563,124.031 113.5,125C 107.914,126.581 103.414,129.748 100,134.5C 97.0519,141.622 94.7185,148.955 93,156.5C 89.9354,163.227 84.7687,167.394 77.5,169C 50.3769,165.802 31.5435,176.635 21,201.5C 19.3493,259.455 19.016,317.455 20,375.5C 24.9747,409.602 43.4747,433.102 75.5,446C 80.7538,447.647 86.0871,448.98 91.5,450C 106.167,450.333 120.833,450.667 135.5,451C 138.789,452.41 140.456,454.91 140.5,458.5C 140.556,461.561 139.222,463.728 136.5,465C 120.833,465.667 105.167,465.667 89.5,465C 42.7735,455.94 14.6068,428.107 5,381.5C 3.37487,324.52 3.04154,267.52 4,210.5C 4.70727,201.711 7.04061,193.378 11,185.5C 11.3333,170.833 11.6667,156.167 12,141.5C 15.4495,112.049 31.6162,93.8822 60.5,87C 70.4944,86.5002 80.4944,86.3335 90.5,86.5C 90.3334,70.1633 90.5001,53.8299 91,37.5C 94.7059,17.6327 106.206,4.966 125.5,-0.5 Z"/></g>
<g><path style="opacity:0.999" fill="#edebfe" d="M 268.5,6.5 C 275.5,6.5 282.5,6.5 289.5,6.5C 289.544,10.0897 291.211,12.5897 294.5,14C 302.167,14.3333 309.833,14.6667 317.5,15C 328.209,16.7087 335.709,22.542 340,32.5C 341.483,72.7725 341.983,113.106 341.5,153.5C 310.165,153.667 278.832,153.5 247.5,153C 238.277,126.322 234.61,98.8224 236.5,70.5C 245.839,70.6665 255.173,70.4998 264.5,70C 270.092,64.8332 269.759,60.1666 263.5,56C 254.84,55.5002 246.173,55.3336 237.5,55.5C 238.768,41.4323 241.768,27.7657 246.5,14.5C 252.925,14.8696 259.258,14.3696 265.5,13C 267.451,11.2658 268.451,9.0991 268.5,6.5 Z"/></g>
<g><path style="opacity:1" fill="#d1d1fd" d="M 246.5,14.5 C 241.768,27.7657 238.768,41.4323 237.5,55.5C 219.497,55.3334 201.497,55.5001 183.5,56C 178.188,60.7609 178.188,65.4276 183.5,70C 201.164,70.4999 218.83,70.6666 236.5,70.5C 234.61,98.8224 238.277,126.322 247.5,153C 278.832,153.5 310.165,153.667 341.5,153.5C 300.335,154.665 259.002,154.831 217.5,154C 216.069,153.535 214.903,152.701 214,151.5C 212.645,145.411 210.978,139.411 209,133.5C 203.382,119.773 193.216,111.94 178.5,110C 156.167,109.333 133.833,109.333 111.5,110C 109.899,110.273 108.399,110.773 107,111.5C 106.333,85.8333 106.333,60.1667 107,34.5C 111.018,24.4798 118.185,17.9798 128.5,15C 167.832,14.5 207.165,14.3333 246.5,14.5 Z"/></g>
<g><path style="opacity:1" fill="#030303" d="M 237.5,55.5 C 246.173,55.3336 254.84,55.5002 263.5,56C 269.759,60.1666 270.092,64.8332 264.5,70C 255.173,70.4998 245.839,70.6665 236.5,70.5C 218.83,70.6666 201.164,70.4999 183.5,70C 178.188,65.4276 178.188,60.7609 183.5,56C 201.497,55.5001 219.497,55.3334 237.5,55.5 Z"/></g>
<g><path style="opacity:1" fill="#fb8d00" d="M 63.5,101.5 C 72.8333,101.5 82.1667,101.5 91.5,101.5C 91.6663,108.508 91.4996,115.508 91,122.5C 87.9177,125.659 85.5843,129.325 84,133.5C 82.458,139.548 80.7913,145.548 79,151.5C 78.0975,152.701 76.9308,153.535 75.5,154C 58.1487,152.087 42.4821,156.254 28.5,166.5C 22.8557,144.895 27.8557,126.395 43.5,111C 49.6008,106.448 56.2675,103.281 63.5,101.5 Z"/></g>
<g><path style="opacity:1" fill="#fd8d00" d="M 357.5,101.5 C 405.174,98.0082 426.007,120.008 420,167.5C 410.871,159.954 400.371,155.621 388.5,154.5C 378.347,153.506 368.014,153.172 357.5,153.5C 357.5,136.167 357.5,118.833 357.5,101.5 Z"/></g>
<g><path style="opacity:1" fill="#f8b457" d="M 237.5,169.5 C 223.369,231.498 220.703,293.998 229.5,357C 229.569,358.986 230.235,360.486 231.5,361.5C 220.202,391.386 221.202,420.886 234.5,450C 211.5,450.333 188.5,450.667 165.5,451C 162.72,452.913 161.053,455.413 160.5,458.5C 153.833,458.5 147.167,458.5 140.5,458.5C 140.456,454.91 138.789,452.41 135.5,451C 120.833,450.667 106.167,450.333 91.5,450C 86.0871,448.98 80.7538,447.647 75.5,446C 43.4747,433.102 24.9747,409.602 20,375.5C 19.016,317.455 19.3493,259.455 21,201.5C 31.5435,176.635 50.3769,165.802 77.5,169C 84.7687,167.394 89.9354,163.227 93,156.5C 94.7185,148.955 97.0519,141.622 100,134.5C 103.414,129.748 107.914,126.581 113.5,125C 136.563,124.031 159.563,124.365 182.5,126C 186.604,128.106 190.104,130.939 193,134.5C 195.916,142.413 198.583,150.413 201,158.5C 204.335,164.083 209.168,167.583 215.5,169C 222.826,169.5 230.159,169.666 237.5,169.5 Z"/></g>
<g><path style="opacity:1" fill="#ac6000" d="M 357.5,101.5 C 357.5,118.833 357.5,136.167 357.5,153.5C 368.014,153.172 378.347,153.506 388.5,154.5C 377.833,154.5 367.167,154.5 356.5,154.5C 356.17,136.659 356.503,118.992 357.5,101.5 Z"/></g>
<g><path style="opacity:1" fill="#f7cf70" d="M 237.5,169.5 C 289.168,169.333 340.834,169.5 392.5,170C 411.407,175.241 423.24,187.408 428,206.5C 428.5,232.165 428.667,257.831 428.5,283.5C 421.825,283.334 415.158,283.5 408.5,284C 403.682,284.113 399.016,284.947 394.5,286.5C 389.915,268.576 383.082,251.576 374,235.5C 367.333,227.166 358.666,222.833 348,222.5C 325.442,225.959 315.775,238.959 319,261.5C 322.72,268.94 325.887,276.607 328.5,284.5C 304.528,280.247 282.195,284.413 261.5,297C 252.296,304.328 249.963,313.495 254.5,324.5C 244.044,335.076 236.377,347.409 231.5,361.5C 230.235,360.486 229.569,358.986 229.5,357C 220.703,293.998 223.369,231.498 237.5,169.5 Z"/></g>
<g><path style="opacity:1" fill="#00c253" d="M 343.5,237.5 C 351.126,236.066 357.292,238.399 362,244.5C 370.637,259.111 376.471,274.777 379.5,291.5C 374.873,293.563 370.04,294.896 365,295.5C 358.254,294.294 351.921,291.961 346,288.5C 341.904,276.482 337.404,264.649 332.5,253C 333.278,245.731 336.944,240.564 343.5,237.5 Z"/></g>
<g><path style="opacity:1" fill="#53d079" d="M 296.5,298.5 C 317.906,296.748 338.239,300.581 357.5,310C 363.569,310.804 369.569,310.471 375.5,309C 400.625,296.601 426.292,295.267 452.5,305C 457.494,306.801 461.161,309.968 463.5,314.5C 463.24,316.187 462.573,317.687 461.5,319C 451.172,324.554 440.172,327.887 428.5,329C 417.833,329.333 407.167,329.667 396.5,330C 389.219,333.948 384.053,339.782 381,347.5C 376.493,353.022 371.16,357.356 365,360.5C 354.607,354.77 346.94,346.437 342,335.5C 340.269,333.383 338.102,331.883 335.5,331C 321.196,329.941 306.862,328.941 292.5,328C 284.432,326.301 276.765,323.468 269.5,319.5C 266.609,315.682 266.943,312.182 270.5,309C 278.752,304.2 287.418,300.7 296.5,298.5 Z"/></g>
<g><path style="opacity:1" fill="#f6465d" d="M 316.5,344.5 C 308.727,358.488 304.393,373.488 303.5,389.5C 300.191,389.308 297.691,390.641 296,393.5C 295.333,399.5 295.333,405.5 296,411.5C 297.945,415.39 301.112,417.057 305.5,416.5C 312.057,449.447 329.057,475.614 356.5,495C 352.179,495.499 347.846,495.666 343.5,495.5C 310.164,494.571 281.664,482.571 258,459.5C 238.443,433.162 233.443,404.162 243,372.5C 247.568,358.191 255.068,345.691 265.5,335C 281.714,341.675 298.714,344.841 316.5,344.5 Z"/></g>
<g><path style="opacity:1" fill="#fd6d7f" d="M 343.5,495.5 C 347.846,495.666 352.179,495.499 356.5,495C 329.057,475.614 312.057,449.447 305.5,416.5C 307.168,414.66 308.668,412.66 310,410.5C 310.667,405.167 310.667,399.833 310,394.5C 308.841,391.507 306.675,389.84 303.5,389.5C 304.393,373.488 308.727,358.488 316.5,344.5C 321.214,344.173 325.88,344.507 330.5,345.5C 336.925,357.426 345.925,366.926 357.5,374C 362.5,376 367.5,376 372.5,374C 376.844,371.829 380.844,369.163 384.5,366C 390.319,359.36 395.652,352.36 400.5,345C 422.676,346.396 444.009,342.896 464.5,334.5C 489.248,362.163 497.082,394.163 488,430.5C 479.47,455.031 463.304,472.531 439.5,483C 408.379,494.709 376.379,498.876 343.5,495.5 Z"/></g>
<g><path style="opacity:1" fill="#0b0404" d="M 303.5,389.5 C 306.675,389.84 308.841,391.507 310,394.5C 310.667,399.833 310.667,405.167 310,410.5C 308.668,412.66 307.168,414.66 305.5,416.5C 301.112,417.057 297.945,415.39 296,411.5C 295.333,405.5 295.333,399.5 296,393.5C 297.691,390.641 300.191,389.308 303.5,389.5 Z"/></g>
<g><path style="opacity:1" fill="#0c0505" d="M 424.5,389.5 C 429.28,388.641 432.78,390.308 435,394.5C 435.667,399.833 435.667,405.167 435,410.5C 431.154,417.466 426.487,418.133 421,412.5C 420.333,406.167 420.333,399.833 421,393.5C 421.69,391.65 422.856,390.316 424.5,389.5 Z"/></g>
<g><path style="opacity:1" fill="#060202" d="M 344.5,401.5 C 347.187,401.336 349.854,401.503 352.5,402C 360.801,410.59 369.134,410.59 377.5,402C 386.333,400.167 389.833,403.667 388,412.5C 376.705,423.96 363.872,426.126 349.5,419C 341.186,414.874 339.519,409.04 344.5,401.5 Z"/></g>
</svg>
