<?xml version="1.0" encoding="UTF-8"?>
<!DOCTYPE svg PUBLIC "-//W3C//DTD SVG 1.1//EN" "http://www.w3.org/Graphics/SVG/1.1/DTD/svg11.dtd">
<svg xmlns="http://www.w3.org/2000/svg" version="1.1" width="512px" height="512px" style="shape-rendering:geometricPrecision; text-rendering:geometricPrecision; image-rendering:optimizeQuality; fill-rule:evenodd; clip-rule:evenodd" xmlns:xlink="http://www.w3.org/1999/xlink">
<g><path style="opacity:0.987" fill="#010101" d="M 271.5,-0.5 C 278.5,-0.5 285.5,-0.5 292.5,-0.5C 347.631,14.5913 402.965,29.4246 458.5,44C 486.089,54.6531 498.256,74.8198 495,104.5C 488.246,130.35 481.412,156.183 474.5,182C 494.454,195.405 506.788,213.905 511.5,237.5C 511.5,307.5 511.5,377.5 511.5,447.5C 503.167,481.833 481.833,503.167 447.5,511.5C 424.5,511.5 401.5,511.5 378.5,511.5C 376.331,509.66 374.998,507.326 374.5,504.5C 375.01,501.336 376.676,498.836 379.5,497C 401.167,496.667 422.833,496.333 444.5,496C 473.697,489.138 490.864,470.971 496,441.5C 496.667,414.5 496.667,387.5 496,360.5C 489.504,332.671 472.337,315.504 444.5,309C 369.47,308.982 294.47,308.315 219.5,307C 204.82,302.972 193.654,294.472 186,281.5C 181.59,271.68 176.923,262.014 172,252.5C 155.979,231.76 134.813,222.76 108.5,225.5C 94.1628,225.333 79.8295,225.5 65.5,226C 38.2271,232.94 21.3937,250.106 15,277.5C 14.3333,332.167 14.3333,386.833 15,441.5C 20.1495,470.984 37.3162,489.15 66.5,496C 82.8299,496.5 99.1633,496.667 115.5,496.5C 193.501,496.333 271.501,496.5 349.5,497C 352.892,498.542 354.892,501.042 355.5,504.5C 354.937,507.295 353.604,509.628 351.5,511.5C 255.5,511.5 159.5,511.5 63.5,511.5C 29.1667,503.167 7.83333,481.833 -0.5,447.5C -0.5,349.833 -0.5,252.167 -0.5,154.5C 5.90317,124.059 23.7365,103.392 53,92.5C 52.894,64.9514 65.7273,46.4514 91.5,37C 115.71,32.4459 140.043,29.1126 164.5,27C 167.215,27.8747 168.548,29.7081 168.5,32.5C 168.755,36.4925 167.089,39.3258 163.5,41C 150.292,42.7645 137.292,44.9312 124.5,47.5C 115.8,48.3381 107.133,49.5047 98.5,51C 77.9455,57.2931 68.1121,71.1265 69,92.5C 75.4894,131.751 81.3227,171.084 86.5,210.5C 95.1667,210.5 103.833,210.5 112.5,210.5C 112.333,175.165 112.5,139.832 113,104.5C 113.936,98.977 115.436,93.6436 117.5,88.5C 125.457,74.7203 137.123,65.5536 152.5,61C 177.123,59.5488 201.79,59.0488 226.5,59.5C 228.281,49.9359 230.948,40.6026 234.5,31.5C 221.747,31.8446 209.081,33.5113 196.5,36.5C 192.01,36.0026 189.01,33.6693 187.5,29.5C 187.66,25.3416 189.66,22.5082 193.5,21C 210.833,18.3333 228.167,15.6667 245.5,13C 253.264,6.61894 261.931,2.11894 271.5,-0.5 Z"/></g>
<g><path style="opacity:1" fill="#596bd7" d="M 322.5,24.5 C 315.783,26.3707 310.616,30.3707 307,36.5C 302.29,43.4636 299.456,51.1303 298.5,59.5C 279.47,60.1538 260.803,59.4871 242.5,57.5C 243.77,43.4639 249.436,31.6305 259.5,22C 268.166,15.5564 277.833,13.223 288.5,15C 300.039,17.8814 311.373,21.0481 322.5,24.5 Z"/></g>
<g><path style="opacity:1" fill="#717aea" d="M 322.5,24.5 C 367.692,35.6379 412.692,47.4712 457.5,60C 477.574,70.8637 484.407,87.3637 478,109.5C 461.386,170.745 445.219,232.078 429.5,293.5C 414.167,293.5 398.833,293.5 383.5,293.5C 383.667,230.166 383.5,166.832 383,103.5C 377.018,79.3486 361.851,65.0153 337.5,60.5C 324.677,59.5045 311.677,59.1712 298.5,59.5C 299.456,51.1303 302.29,43.4636 307,36.5C 310.616,30.3707 315.783,26.3707 322.5,24.5 Z"/></g>
<g><path style="opacity:0.998" fill="#79dcf8" d="M 187.5,29.5 C 189.01,33.6693 192.01,36.0026 196.5,36.5C 209.081,33.5113 221.747,31.8446 234.5,31.5C 230.948,40.6026 228.281,49.9359 226.5,59.5C 201.79,59.0488 177.123,59.5488 152.5,61C 137.123,65.5536 125.457,74.7203 117.5,88.5C 113.521,73.7329 115.854,60.0662 124.5,47.5C 137.292,44.9312 150.292,42.7645 163.5,41C 167.089,39.3258 168.755,36.4925 168.5,32.5C 174.819,31.4068 181.152,30.4068 187.5,29.5 Z"/></g>
<g><path style="opacity:1" fill="#1dcbf8" d="M 124.5,47.5 C 115.854,60.0662 113.521,73.7329 117.5,88.5C 115.436,93.6436 113.936,98.977 113,104.5C 112.5,139.832 112.333,175.165 112.5,210.5C 103.833,210.5 95.1667,210.5 86.5,210.5C 81.3227,171.084 75.4894,131.751 69,92.5C 68.1121,71.1265 77.9455,57.2931 98.5,51C 107.133,49.5047 115.8,48.3381 124.5,47.5 Z"/></g>
<g><path style="opacity:1" fill="#1b1f3e" d="M 242.5,57.5 C 260.803,59.4871 279.47,60.1538 298.5,59.5C 311.677,59.1712 324.677,59.5045 337.5,60.5C 305.5,60.5 273.5,60.5 241.5,60.5C 241.263,59.209 241.596,58.209 242.5,57.5 Z"/></g>
<g><path style="opacity:1" fill="#d4d3f5" d="M 335.5,75.5 C 289.832,75.3333 244.165,75.5 198.5,76C 187.074,88.2382 182.741,102.738 185.5,119.5C 234.67,119.168 283.67,119.501 332.5,120.5C 275.499,120.333 218.499,120.5 161.5,121C 156.274,125.251 156.274,129.585 161.5,134C 218.499,134.5 275.499,134.667 332.5,134.5C 283.336,135.499 234.003,135.832 184.5,135.5C 184.5,145.167 184.5,154.833 184.5,164.5C 234.003,164.168 283.336,164.501 332.5,165.5C 275.499,165.333 218.499,165.5 161.5,166C 156.132,170.896 156.466,175.563 162.5,180C 169.826,180.5 177.159,180.666 184.5,180.5C 184.5,201.833 184.5,223.167 184.5,244.5C 170.688,224.717 151.688,213.717 127.5,211.5C 127.333,175.832 127.5,140.165 128,104.5C 132.599,88.9007 142.766,79.0674 158.5,75C 217.668,74.1681 276.668,74.3347 335.5,75.5 Z"/></g>
<g><path style="opacity:1" fill="#efecfe" d="M 335.5,75.5 C 352.406,78.2335 363.239,87.9002 368,104.5C 368.5,167.499 368.667,230.499 368.5,293.5C 319.453,293.981 270.453,293.481 221.5,292C 212.999,289.495 206.166,284.662 201,277.5C 195.59,266.426 190.09,255.426 184.5,244.5C 184.5,223.167 184.5,201.833 184.5,180.5C 233.834,180.667 283.168,180.5 332.5,180C 340.481,174.986 340.481,170.153 332.5,165.5C 283.336,164.501 234.003,164.168 184.5,164.5C 184.5,154.833 184.5,145.167 184.5,135.5C 234.003,135.832 283.336,135.499 332.5,134.5C 337.187,132.797 339.02,129.463 338,124.5C 336.549,122.536 334.716,121.203 332.5,120.5C 283.67,119.501 234.67,119.168 185.5,119.5C 182.741,102.738 187.074,88.2382 198.5,76C 244.165,75.5 289.832,75.3333 335.5,75.5 Z"/></g>
<g><path style="opacity:1" fill="#fcad1d" d="M 54.5,108.5 C 55.9311,108.881 56.7645,109.881 57,111.5C 62.1594,144.461 66.9927,177.461 71.5,210.5C 48.0863,212.621 29.253,222.954 15,241.5C 14.3333,213.167 14.3333,184.833 15,156.5C 19.9425,133.554 33.1092,117.554 54.5,108.5 Z"/></g>
<g><path style="opacity:1" fill="#000000" d="M 332.5,120.5 C 334.716,121.203 336.549,122.536 338,124.5C 339.02,129.463 337.187,132.797 332.5,134.5C 275.499,134.667 218.499,134.5 161.5,134C 156.274,129.585 156.274,125.251 161.5,121C 218.499,120.5 275.499,120.333 332.5,120.5 Z"/></g>
<g><path style="opacity:1" fill="#070708" d="M 332.5,165.5 C 340.481,170.153 340.481,174.986 332.5,180C 283.168,180.5 233.834,180.667 184.5,180.5C 177.159,180.666 169.826,180.5 162.5,180C 156.466,175.563 156.132,170.896 161.5,166C 218.499,165.5 275.499,165.333 332.5,165.5 Z"/></g>
<g><path style="opacity:1" fill="#fbac1d" d="M 469.5,198.5 C 482.164,207.474 490.664,219.474 495,234.5C 496.627,264.46 496.96,294.46 496,324.5C 483.169,307.164 466.002,297.164 444.5,294.5C 452.212,262.319 460.545,230.319 469.5,198.5 Z"/></g>
<g><path style="opacity:1" fill="#030303" d="M 222.5,210.5 C 259.502,210.333 296.502,210.5 333.5,211C 340.406,216.146 340.073,220.813 332.5,225C 295.833,225.667 259.167,225.667 222.5,225C 217.174,219.999 217.174,215.165 222.5,210.5 Z"/></g>
<g><path style="opacity:1" fill="#fec546" d="M 108.5,225.5 C 94.7215,237.383 86.3882,252.383 83.5,270.5C 59.5027,269.004 46.5027,280.171 44.5,304C 45.8791,327.877 58.5457,339.377 82.5,338.5C 82.3333,374.168 82.5,409.835 83,445.5C 86.7983,467.122 97.6316,484.122 115.5,496.5C 99.1633,496.667 82.8299,496.5 66.5,496C 37.3162,489.15 20.1495,470.984 15,441.5C 14.3333,386.833 14.3333,332.167 15,277.5C 21.3937,250.106 38.2271,232.94 65.5,226C 79.8295,225.5 94.1628,225.333 108.5,225.5 Z"/></g>
<g><path style="opacity:1" fill="#f9dd64" d="M 108.5,225.5 C 134.813,222.76 155.979,231.76 172,252.5C 176.923,262.014 181.59,271.68 186,281.5C 193.654,294.472 204.82,302.972 219.5,307C 294.47,308.315 369.47,308.982 444.5,309C 472.337,315.504 489.504,332.671 496,360.5C 496.667,387.5 496.667,414.5 496,441.5C 490.864,470.971 473.697,489.138 444.5,496C 422.833,496.333 401.167,496.667 379.5,497C 376.676,498.836 375.01,501.336 374.5,504.5C 368.167,504.5 361.833,504.5 355.5,504.5C 354.892,501.042 352.892,498.542 349.5,497C 271.501,496.5 193.501,496.333 115.5,496.5C 97.6316,484.122 86.7983,467.122 83,445.5C 82.5,409.835 82.3333,374.168 82.5,338.5C 96.1707,338.667 109.837,338.5 123.5,338C 141.702,333.786 150.369,322.286 149.5,303.5C 149.941,285.436 141.274,274.603 123.5,271C 110.171,270.5 96.8375,270.333 83.5,270.5C 86.3882,252.383 94.7215,237.383 108.5,225.5 Z"/></g>
<g><path style="opacity:1" fill="#040301" d="M 83.5,270.5 C 96.8375,270.333 110.171,270.5 123.5,271C 141.274,274.603 149.941,285.436 149.5,303.5C 150.369,322.286 141.702,333.786 123.5,338C 109.837,338.5 96.1707,338.667 82.5,338.5C 58.5457,339.377 45.8791,327.877 44.5,304C 46.5027,280.171 59.5027,269.004 83.5,270.5 Z"/></g>
<g><path style="opacity:1" fill="#dc6b2a" d="M 82.5,285.5 C 82.5,297.833 82.5,310.167 82.5,322.5C 78.8333,322.5 75.1667,322.5 71.5,322.5C 66.7421,321.586 63.2421,318.919 61,314.5C 55.1832,294.847 62.3498,285.181 82.5,285.5 Z"/></g>
<g><path style="opacity:1" fill="#f28751" d="M 82.5,285.5 C 97.2253,285.068 111.892,285.568 126.5,287C 134.776,292.743 137.61,300.576 135,310.5C 133.5,317.333 129.333,321.5 122.5,323C 105.328,323.828 88.3283,323.662 71.5,322.5C 75.1667,322.5 78.8333,322.5 82.5,322.5C 82.5,310.167 82.5,297.833 82.5,285.5 Z"/></g>
<g><path style="opacity:1" fill="#090703" d="M 197.5,394.5 C 191.071,397.217 187.071,395.217 185.5,388.5C 185.334,383.156 185.501,377.823 186,372.5C 191.034,367.171 195.701,367.504 200,373.5C 200.667,379.167 200.667,384.833 200,390.5C 199.338,391.984 198.504,393.317 197.5,394.5 Z"/></g>
<g><path style="opacity:1" fill="#080603" d="M 325.5,388.5 C 323.689,394.739 319.689,396.739 313.5,394.5C 311,390.803 310,386.636 310.5,382C 310.667,379.167 310.833,376.333 311,373.5C 315.171,367.271 319.837,366.938 325,372.5C 325.499,377.823 325.666,383.156 325.5,388.5 Z"/></g>
<g><path style="opacity:1" fill="#060502" d="M 235.5,380.5 C 237.857,380.337 240.19,380.503 242.5,381C 251.135,389.598 259.802,389.598 268.5,381C 277.546,380.043 280.713,383.876 278,392.5C 262.97,405.786 247.97,405.786 233,392.5C 230.511,387.757 231.345,383.757 235.5,380.5 Z"/></g>
<g><path style="opacity:1" fill="#fea1ab" d="M 185.5,388.5 C 187.071,395.217 191.071,397.217 197.5,394.5C 204.609,401.521 206.442,409.854 203,419.5C 198.465,426.85 191.965,431.35 183.5,433C 173.418,434.933 164.084,433.267 155.5,428C 143.976,416.931 143.643,405.598 154.5,394C 163.964,387.604 174.297,385.77 185.5,388.5 Z"/></g>
<g><path style="opacity:1" fill="#fea1ab" d="M 313.5,394.5 C 319.689,396.739 323.689,394.739 325.5,388.5C 338.708,385.071 350.208,388.071 360,397.5C 368.5,415.018 363.334,426.852 344.5,433C 330.165,436.554 318.331,432.721 309,421.5C 304.45,411.34 305.95,402.34 313.5,394.5 Z"/></g>
</svg>
